  0
SECTION
  2
HEADER
  9
$ACADVER
  1
AC1024
  9
$ACADMAINTVER
 70
     6
  9
$DWGCODEPAGE
  3
ANSI_1254
  9
$INSBASE
 10
0.0
 20
0.0
 30
0.0
  9
$EXTMIN
 10
1.000000000000000E+20
 20
1.000000000000000E+20
 30
1.000000000000000E+20
  9
$EXTMAX
 10
-1.000000000000000E+20
 20
-1.000000000000000E+20
 30
-1.000000000000000E+20
  9
$LIMMIN
 10
0.0
 20
0.0
  9
$LIMMAX
 10
12.0
 20
9.0
  9
$ORTHOMODE
 70
     0
  9
$REGENMODE
 70
     1
  9
$FILLMODE
 70
     1
  9
$QTEXTMODE
 70
     0
  9
$MIRRTEXT
 70
     1
  9
$LTSCALE
 40
1.0
  9
$ATTMODE
 70
     1
  9
$TEXTSIZE
 40
0.2
  9
$TRACEWID
 40
0.05
  9
$TEXTSTYLE
  7
Standard
  9
$CLAYER
  8
0
  9
$CELTYPE
  6
ByLayer
  9
$CECOLOR
 62
   256
  9
$CELTSCALE
 40
1.0
  9
$DISPSILH
 70
     0
  9
$DIMSCALE
 40
1.0
  9
$DIMASZ
 40
0.18
  9
$DIMEXO
 40
0.0625
  9
$DIMDLI
 40
0.38
  9
$DIMRND
 40
0.0
  9
$DIMDLE
 40
0.0
  9
$DIMEXE
 40
0.18
  9
$DIMTP
 40
0.0
  9
$DIMTM
 40
0.0
  9
$DIMTXT
 40
0.18
  9
$DIMCEN
 40
0.09
  9
$DIMTSZ
 40
0.0
  9
$DIMTOL
 70
     0
  9
$DIMLIM
 70
     0
  9
$DIMTIH
 70
     1
  9
$DIMTOH
 70
     1
  9
$DIMSE1
 70
     0
  9
$DIMSE2
 70
     0
  9
$DIMTAD
 70
     0
  9
$DIMZIN
 70
     0
  9
$DIMBLK
  1

  9
$DIMASO
 70
     1
  9
$DIMSHO
 70
     1
  9
$DIMPOST
  1

  9
$DIMAPOST
  1

  9
$DIMALT
 70
     0
  9
$DIMALTD
 70
     2
  9
$DIMALTF
 40
25.4
  9
$DIMLFAC
 40
1.0
  9
$DIMTOFL
 70
     0
  9
$DIMTVP
 40
0.0
  9
$DIMTIX
 70
     0
  9
$DIMSOXD
 70
     0
  9
$DIMSAH
 70
     0
  9
$DIMBLK1
  1

  9
$DIMBLK2
  1

  9
$DIMSTYLE
  2
Standard
  9
$DIMCLRD
 70
     0
  9
$DIMCLRE
 70
     0
  9
$DIMCLRT
 70
     0
  9
$DIMTFAC
 40
1.0
  9
$DIMGAP
 40
0.09
  9
$DIMJUST
 70
     0
  9
$DIMSD1
 70
     0
  9
$DIMSD2
 70
     0
  9
$DIMTOLJ
 70
     1
  9
$DIMTZIN
 70
     0
  9
$DIMALTZ
 70
     0
  9
$DIMALTTZ
 70
     0
  9
$DIMUPT
 70
     0
  9
$DIMDEC
 70
     4
  9
$DIMTDEC
 70
     4
  9
$DIMALTU
 70
     2
  9
$DIMALTTD
 70
     2
  9
$DIMTXSTY
  7
Standard
  9
$DIMAUNIT
 70
     0
  9
$DIMADEC
 70
     0
  9
$DIMALTRND
 40
0.0
  9
$DIMAZIN
 70
     0
  9
$DIMDSEP
 70
    46
  9
$DIMATFIT
 70
     3
  9
$DIMFRAC
 70
     0
  9
$DIMLDRBLK
  1

  9
$DIMLUNIT
 70
     2
  9
$DIMLWD
 70
    -2
  9
$DIMLWE
 70
    -2
  9
$DIMTMOVE
 70
     0
  9
$DIMFXL
 40
1.0
  9
$DIMFXLON
 70
     0
  9
$DIMJOGANG
 40
0.7853981633974483
  9
$DIMTFILL
 70
     0
  9
$DIMTFILLCLR
 70
     0
  9
$DIMARCSYM
 70
     0
  9
$DIMLTYPE
  6

  9
$DIMLTEX1
  6

  9
$DIMLTEX2
  6

  9
$DIMTXTDIRECTION
 70
     0
  9
$LUNITS
 70
     2
  9
$LUPREC
 70
     4
  9
$SKETCHINC
 40
0.1
  9
$FILLETRAD
 40
0.5
  9
$AUNITS
 70
     0
  9
$AUPREC
 70
     0
  9
$MENU
  1
.
  9
$ELEVATION
 40
0.0
  9
$PELEVATION
 40
0.0
  9
$THICKNESS
 40
0.0
  9
$LIMCHECK
 70
     0
  9
$CHAMFERA
 40
0.5
  9
$CHAMFERB
 40
0.5
  9
$CHAMFERC
 40
1.0
  9
$CHAMFERD
 40
0.0
  9
$SKPOLY
 70
     0
  9
$TDCREATE
 40
2459350.661568495
  9
$TDUCREATE
 40
2459350.536568495
  9
$TDUPDATE
 40
2459350.661568519
  9
$TDUUPDATE
 40
2459350.536568519
  9
$TDINDWG
 40
0.0000000116
  9
$TDUSRTIMER
 40
0.0000000116
  9
$USRTIMER
 70
     1
  9
$ANGBASE
 50
0.0
  9
$ANGDIR
 70
     0
  9
$PDMODE
 70
     0
  9
$PDSIZE
 40
0.0
  9
$PLINEWID
 40
0.0
  9
$SPLFRAME
 70
     0
  9
$SPLINETYPE
 70
     6
  9
$SPLINESEGS
 70
     8
  9
$HANDSEED
  5
89
  9
$SURFTAB1
 70
     6
  9
$SURFTAB2
 70
     6
  9
$SURFTYPE
 70
     6
  9
$SURFU
 70
     6
  9
$SURFV
 70
     6
  9
$UCSBASE
  2

  9
$UCSNAME
  2

  9
$UCSORG
 10
0.0
 20
0.0
 30
0.0
  9
$UCSXDIR
 10
1.0
 20
0.0
 30
0.0
  9
$UCSYDIR
 10
0.0
 20
1.0
 30
0.0
  9
$UCSORTHOREF
  2

  9
$UCSORTHOVIEW
 70
     0
  9
$UCSORGTOP
 10
0.0
 20
0.0
 30
0.0
  9
$UCSORGBOTTOM
 10
0.0
 20
0.0
 30
0.0
  9
$UCSORGLEFT
 10
0.0
 20
0.0
 30
0.0
  9
$UCSORGRIGHT
 10
0.0
 20
0.0
 30
0.0
  9
$UCSORGFRONT
 10
0.0
 20
0.0
 30
0.0
  9
$UCSORGBACK
 10
0.0
 20
0.0
 30
0.0
  9
$PUCSBASE
  2

  9
$PUCSNAME
  2

  9
$PUCSORG
 10
0.0
 20
0.0
 30
0.0
  9
$PUCSXDIR
 10
1.0
 20
0.0
 30
0.0
  9
$PUCSYDIR
 10
0.0
 20
1.0
 30
0.0
  9
$PUCSORTHOREF
  2

  9
$PUCSORTHOVIEW
 70
     0
  9
$PUCSORGTOP
 10
0.0
 20
0.0
 30
0.0
  9
$PUCSORGBOTTOM
 10
0.0
 20
0.0
 30
0.0
  9
$PUCSORGLEFT
 10
0.0
 20
0.0
 30
0.0
  9
$PUCSORGRIGHT
 10
0.0
 20
0.0
 30
0.0
  9
$PUCSORGFRONT
 10
0.0
 20
0.0
 30
0.0
  9
$PUCSORGBACK
 10
0.0
 20
0.0
 30
0.0
  9
$USERI1
 70
     0
  9
$USERI2
 70
     0
  9
$USERI3
 70
     0
  9
$USERI4
 70
     0
  9
$USERI5
 70
     0
  9
$USERR1
 40
0.0
  9
$USERR2
 40
0.0
  9
$USERR3
 40
0.0
  9
$USERR4
 40
0.0
  9
$USERR5
 40
0.0
  9
$WORLDVIEW
 70
     1
  9
$SHADEDGE
 70
     3
  9
$SHADEDIF
 70
    70
  9
$TILEMODE
 70
     1
  9
$MAXACTVP
 70
    64
  9
$PINSBASE
 10
0.0
 20
0.0
 30
0.0
  9
$PLIMCHECK
 70
     0
  9
$PEXTMIN
 10
1.000000000000000E+20
 20
1.000000000000000E+20
 30
1.000000000000000E+20
  9
$PEXTMAX
 10
-1.000000000000000E+20
 20
-1.000000000000000E+20
 30
-1.000000000000000E+20
  9
$PLIMMIN
 10
0.0
 20
0.0
  9
$PLIMMAX
 10
12.0
 20
9.0
  9
$UNITMODE
 70
     0
  9
$VISRETAIN
 70
     1
  9
$PLINEGEN
 70
     0
  9
$PSLTSCALE
 70
     1
  9
$TREEDEPTH
 70
  3020
  9
$CMLSTYLE
  2
Standard
  9
$CMLJUST
 70
     0
  9
$CMLSCALE
 40
1.0
  9
$PROXYGRAPHICS
 70
     1
  9
$MEASUREMENT
 70
     0
  9
$CELWEIGHT
370
    -1
  9
$ENDCAPS
280
     0
  9
$JOINSTYLE
280
     0
  9
$LWDISPLAY
290
     1
  9
$INSUNITS
 70
     0
  9
$HYPERLINKBASE
  1

  9
$STYLESHEET
  1

  9
$XEDIT
290
     1
  9
$CEPSNTYPE
380
     0
  9
$PSTYLEMODE
290
     1
  9
$FINGERPRINTGUID
  2
{A7F4AB8F-4DB4-48BA-9B47-3208F358966B}
  9
$VERSIONGUID
  2
{FAEB1C32-E019-11D5-929B-00C0DF256EC4}
  9
$EXTNAMES
290
     1
  9
$PSVPSCALE
 40
0.0
  9
$OLESTARTUP
290
     0
  9
$SORTENTS
280
   127
  9
$INDEXCTL
280
     0
  9
$HIDETEXT
280
     1
  9
$XCLIPFRAME
280
     2
  9
$HALOGAP
280
     0
  9
$OBSCOLOR
 70
   257
  9
$OBSLTYPE
280
     0
  9
$INTERSECTIONDISPLAY
280
     0
  9
$INTERSECTIONCOLOR
 70
   257
  9
$DIMASSOC
280
     2
  9
$PROJECTNAME
  1

  9
$CAMERADISPLAY
290
     0
  9
$LENSLENGTH
 40
50.0
  9
$CAMERAHEIGHT
 40
0.0
  9
$STEPSPERSEC
 40
2.0
  9
$STEPSIZE
 40
6.0
  9
$3DDWFPREC
 40
2.0
  9
$PSOLWIDTH
 40
0.25
  9
$PSOLHEIGHT
 40
4.0
  9
$LOFTANG1
 40
1.570796326794897
  9
$LOFTANG2
 40
1.570796326794897
  9
$LOFTMAG1
 40
0.0
  9
$LOFTMAG2
 40
0.0
  9
$LOFTPARAM
 70
     7
  9
$LOFTNORMALS
280
     1
  9
$LATITUDE
 40
37.795
  9
$LONGITUDE
 40
-122.394
  9
$NORTHDIRECTION
 40
0.0
  9
$TIMEZONE
 70
 -8000
  9
$LIGHTGLYPHDISPLAY
280
     1
  9
$TILEMODELIGHTSYNCH
280
     1
  9
$CMATERIAL
347
3C
  9
$SOLIDHIST
280
     1
  9
$SHOWHIST
280
     1
  9
$DWFFRAME
280
     2
  9
$DGNFRAME
280
     2
  9
$REALWORLDSCALE
290
     1
  9
$INTERFERECOLOR
 62
   256
  9
$CSHADOW
280
     0
  9
$SHADOWPLANELOCATION
 40
0.0
  0
ENDSEC
  0
SECTION
  2
CLASSES
  0
CLASS
  1
ACDBDICTIONARYWDFLT
  2
AcDbDictionaryWithDefault
  3
ObjectDBX Classes
 90
        0
 91
        4
280
     0
281
     0
  0
CLASS
  1
VISUALSTYLE
  2
AcDbVisualStyle
  3
ObjectDBX Classes
 90
     4095
 91
        4
280
     0
281
     0
  0
CLASS
  1
MATERIAL
  2
AcDbMaterial
  3
ObjectDBX Classes
 90
     1153
 91
        4
280
     0
281
     0
  0
CLASS
  1
SUN
  2
AcDbSun
  3
SCENEOE
 90
     1024
 91
        4
280
     0
281
     0
  0
ENDSEC
  0
SECTION
  2
TABLES
  0
TABLE
  2
VPORT
  5
8
330
0
100
AcDbSymbolTable
 70
     1
  0
VPORT
  5
29
330
8
100
AcDbSymbolTableRecord
100
AcDbViewportTableRecord
  2
*Active
 70
     0
 10
0.0
 20
0.0
 11
1.0
 21
1.0
 12
0.0
 22
0.0
 13
0.0
 23
0.0
 14
0.5
 24
0.5
 15
0.5
 25
0.5
 16
0.0
 26
0.0
 36
1.0
 17
959.4512195121952
 27
-1000.047256097561
 37
0.0
 40
694.4359756097556
 41
1.600000000000001
 42
50.0
 43
0.0
 44
0.0
 50
0.0
 51
0.0
 71
     0
 72
   100
 73
     1
 74
     3
 75
     0
 76
     0
 77
     0
 78
     0
281
     0
 65
     1
110
0.0
120
0.0
130
0.0
111
1.0
121
0.0
131
0.0
112
0.0
122
1.0
132
0.0
 79
     0
146
0.0
 60
     3
 61
     5
292
     1
282
     1
141
0.0
142
0.0
 63
   250
361
3F
  0
ENDTAB
  0
TABLE
  2
LTYPE
  5
5
330
0
100
AcDbSymbolTable
 70
     1
  0
LTYPE
  5
14
330
5
100
AcDbSymbolTableRecord
100
AcDbLinetypeTableRecord
  2
ByBlock
 70
     0
  3

 72
    65
 73
     0
 40
0.0
  0
LTYPE
  5
15
330
5
100
AcDbSymbolTableRecord
100
AcDbLinetypeTableRecord
  2
ByLayer
 70
     0
  3

 72
    65
 73
     0
 40
0.0
  0
LTYPE
  5
16
330
5
100
AcDbSymbolTableRecord
100
AcDbLinetypeTableRecord
  2
Continuous
 70
     0
  3
Solid line
 72
    65
 73
     0
 40
0.0
  0
ENDTAB
  0
TABLE
  2
LAYER
  5
2
330
0
100
AcDbSymbolTable
 70
     2
  0
LAYER
  5
10
330
2
100
AcDbSymbolTableRecord
100
AcDbLayerTableRecord
  2
0
 70
     0
 62
     7
  6
Continuous
370
    -3
390
F
347
3E
  0
LAYER
  5
40
330
2
100
AcDbSymbolTableRecord
100
AcDbLayerTableRecord
  2
katman 1
 70
     0
 62
     7
  6
Continuous
370
    -3
390
F
347
3E
  0
ENDTAB
  0
TABLE
  2
STYLE
  5
3
330
0
100
AcDbSymbolTable
 70
     1
  0
STYLE
  5
11
330
3
100
AcDbSymbolTableRecord
100
AcDbTextStyleTableRecord
  2
Standard
 70
     0
 40
0.0
 41
1.0
 50
0.0
 71
     0
 42
0.2
  3
txt
  4

  0
ENDTAB
  0
TABLE
  2
VIEW
  5
6
330
0
100
AcDbSymbolTable
 70
     0
  0
ENDTAB
  0
TABLE
  2
UCS
  5
7
330
0
100
AcDbSymbolTable
 70
     0
  0
ENDTAB
  0
TABLE
  2
APPID
  5
9
330
0
100
AcDbSymbolTable
 70
     1
  0
APPID
  5
12
330
9
100
AcDbSymbolTableRecord
100
AcDbRegAppTableRecord
  2
ACAD
 70
     0
  0
ENDTAB
  0
TABLE
  2
DIMSTYLE
  5
A
330
0
100
AcDbSymbolTable
 70
     1
100
AcDbDimStyleTable
  0
DIMSTYLE
105
27
330
A
100
AcDbSymbolTableRecord
100
AcDbDimStyleTableRecord
  2
Standard
 70
     0
178
     0
340
11
  0
ENDTAB
  0
TABLE
  2
BLOCK_RECORD
  5
1
330
0
100
AcDbSymbolTable
 70
     4
  0
BLOCK_RECORD
  5
1F
330
1
100
AcDbSymbolTableRecord
100
AcDbBlockTableRecord
  2
*Model_Space
340
22
 70
     0
280
     1
281
     0
  0
BLOCK_RECORD
  5
1B
330
1
100
AcDbSymbolTableRecord
100
AcDbBlockTableRecord
  2
*Paper_Space
340
1E
 70
     0
280
     1
281
     0
  0
BLOCK_RECORD
  5
23
330
1
100
AcDbSymbolTableRecord
100
AcDbBlockTableRecord
  2
*Paper_Space0
340
26
 70
     0
280
     1
281
     0
  0
BLOCK_RECORD
  5
41
330
1
100
AcDbSymbolTableRecord
100
AcDbBlockTableRecord
  2
block 2
340
0
102
{BLKREFS
331
42
102
}
 70
     0
280
     1
281
     0
  0
BLOCK_RECORD
  5
4D
330
1
100
AcDbSymbolTableRecord
100
AcDbBlockTableRecord
  2
block 3
340
0
102
{BLKREFS
331
4E
102
}
 70
     0
280
     1
281
     0
  0
BLOCK_RECORD
  5
6E
330
1
100
AcDbSymbolTableRecord
100
AcDbBlockTableRecord
  2
block 4
340
0
102
{BLKREFS
331
6F
102
}
 70
     0
280
     1
281
     0
  0
ENDTAB
  0
ENDSEC
  0
SECTION
  2
BLOCKS
  0
BLOCK
  5
20
330
1F
100
AcDbEntity
  8
0
100
AcDbBlockBegin
  2
*Model_Space
 70
     0
 10
0.0
 20
0.0
 30
0.0
  3
*Model_Space
  1

  0
ENDBLK
  5
21
330
1F
100
AcDbEntity
  8
0
100
AcDbBlockEnd
  0
BLOCK
  5
1C
330
1B
100
AcDbEntity
 67
     1
  8
0
100
AcDbBlockBegin
  2
*Paper_Space
 70
     0
 10
0.0
 20
0.0
 30
0.0
  3
*Paper_Space
  1

  0
ENDBLK
  5
1D
330
1B
100
AcDbEntity
 67
     1
  8
0
100
AcDbBlockEnd
  0
BLOCK
  5
24
330
23
100
AcDbEntity
  8
0
100
AcDbBlockBegin
  2
*Paper_Space0
 70
     0
 10
0.0
 20
0.0
 30
0.0
  3
*Paper_Space0
  1

  0
ENDBLK
  5
25
330
23
100
AcDbEntity
  8
0
100
AcDbBlockEnd
  0
BLOCK
  5
43
330
41
100
AcDbEntity
  8
0
100
AcDbBlockBegin
  2
block 2
 70
     0
 10
0.0
 20
0.0
 30
0.0
  3
block 2
  1

  0
POLYLINE
  5
45
330
41
100
AcDbEntity
  8
katman 1
370
     0
100
AcDb2dPolyline
 66
     1
 10
0.0
 20
0.0
 30
0.0
  0
VERTEX
  5
46
330
45
100
AcDbEntity
  8
katman 1
370
     0
100
AcDbVertex
100
AcDb2dVertex
 10
403.9024390243903
 20
-652.8292682926831
 30
0.0
  0
VERTEX
  5
47
330
45
100
AcDbEntity
  8
katman 1
370
     0
100
AcDbVertex
100
AcDb2dVertex
 10
1515.0
 20
-652.8292682926831
 30
0.0
  0
VERTEX
  5
48
330
45
100
AcDbEntity
  8
katman 1
370
     0
100
AcDbVertex
100
AcDb2dVertex
 10
1515.0
 20
-1347.265243902439
 30
0.0
  0
VERTEX
  5
49
330
45
100
AcDbEntity
  8
katman 1
370
     0
100
AcDbVertex
100
AcDb2dVertex
 10
403.9024390243903
 20
-1347.265243902439
 30
0.0
  0
VERTEX
  5
4A
330
45
100
AcDbEntity
  8
katman 1
370
     0
100
AcDbVertex
100
AcDb2dVertex
 10
403.9024390243903
 20
-652.8292682926831
 30
0.0
  0
SEQEND
  5
4C
330
45
100
AcDbEntity
  8
katman 1
370
     0
  0
HATCH
  5
4B
330
41
100
AcDbEntity
  8
katman 1
 62
    12
420
 13436680
100
AcDbHatch
 10
0.0
 20
0.0
 30
0.0
210
0.0
220
0.0
230
1.0
  2
SOLID
 70
     1
 71
     0
 91
        1
 92
        1
 93
        4
 72
     1
 10
403.9024390243903
 20
-652.8292682926831
 11
1515.0
 21
-652.8292682926831
 72
     1
 10
1515.0
 20
-652.8292682926831
 11
1515.0
 21
-1347.265243902439
 72
     1
 10
1515.0
 20
-1347.265243902439
 11
403.9024390243903
 21
-1347.265243902439
 72
     1
 10
403.9024390243903
 20
-1347.265243902439
 11
403.9024390243903
 21
-652.8292682926831
 97
        0
 75
     2
 76
     1
 98
        0
  0
INSERT
  5
4E
330
41
100
AcDbEntity
  8
katman 1
100
AcDbBlockReference
  2
block 3
 10
0.0
 20
0.0
 30
0.0
  0
SPLINE
  5
6C
330
41
100
AcDbEntity
  8
katman 1
370
     0
100
AcDbSpline
210
0.0
220
0.0
230
1.0
 70
    11
 71
     3
 72
    50
 73
    46
 74
     0
 42
0.0000000001
 43
0.0000000001
 12
1.0
 22
0.0
 32
0.0
 13
1.0
 23
0.0
 33
0.0
 40
0.0
 40
0.0
 40
0.0
 40
0.0
 40
1.0
 40
1.0
 40
1.0
 40
2.0
 40
2.0
 40
2.0
 40
3.0
 40
3.0
 40
3.0
 40
4.0
 40
4.0
 40
4.0
 40
5.0
 40
5.0
 40
5.0
 40
6.0
 40
6.0
 40
6.0
 40
7.0
 40
7.0
 40
7.0
 40
8.0
 40
8.0
 40
8.0
 40
9.0
 40
9.0
 40
9.0
 40
10.0
 40
10.0
 40
10.0
 40
11.0
 40
11.0
 40
11.0
 40
12.0
 40
12.0
 40
12.0
 40
13.0
 40
13.0
 40
13.0
 40
14.0
 40
14.0
 40
14.0
 40
15.0
 40
15.0
 40
15.0
 40
15.0
 10
1451.374910412766
 20
-1121.915969714886
 30
0.0
 10
1418.074069034763
 20
-1108.802842872899
 30
0.0
 10
1385.97600822914
 20
-1092.873788534142
 30
0.0
 10
1352.721154585117
 20
-1079.650858030087
 30
0.0
 10
1315.264145257996
 20
-1064.756951555974
 30
0.0
 10
1277.172579375709
 20
-1055.353837469729
 30
0.0
 10
1236.942636844589
 20
-1051.942427097298
 30
0.0
 10
1122.629792690277
 20
-1042.249399554439
 30
0.0
 10
1012.161109842906
 20
-1085.42075569746
 30
0.0
 10
902.9978852504637
 20
-1112.556247280867
 30
0.0
 10
817.3318231309331
 20
-1133.851111214335
 30
0.0
 10
725.6315663267924
 20
-1149.254564959829
 30
0.0
 10
638.352675170433
 20
-1128.184553495268
 30
0.0
 10
590.3975350682331
 20
-1116.60788320332
 30
0.0
 10
546.6111724551129
 20
-1093.237054545705
 30
0.0
 10
507.4775314083918
 20
-1063.434035975759
 30
0.0
 10
469.4767290477348
 20
-1034.499963056751
 30
0.0
 10
435.7905052933029
 20
-1000.315049877981
 30
0.0
 10
403.9024390243903
 20
-964.8502154117677
 30
0.0
 10
403.9024390243903
 20
-964.8502154117677
 30
0.0
 10
403.9024390243903
 20
-1058.562621011966
 30
0.0
 10
403.9024390243903
 20
-1058.562621011966
 30
0.0
 10
456.5298342214128
 20
-1094.758358455287
 30
0.0
 10
512.156326377537
 20
-1126.638613299627
 30
0.0
 10
573.9255420187628
 20
-1144.211331768734
 30
0.0
 10
607.9229545171665
 20
-1153.883537676276
 30
0.0
 10
643.0935443087319
 20
-1158.36045417553
 30
0.0
 10
678.4147200875168
 20
-1158.557067632675
 30
0.0
 10
805.799021322553
 20
-1159.265374102244
 30
0.0
 10
925.7428462796097
 20
-1106.508224487305
 30
0.0
 10
1050.723944035972
 20
-1089.7041581433
 30
0.0
 10
1129.022458582389
 20
-1079.176516806208
 30
0.0
 10
1210.922533244622
 20
-1080.851413389533
 30
0.0
 10
1283.183356343246
 20
-1115.927815745517
 30
0.0
 10
1327.277010266374
 20
-1137.331185300176
 30
0.0
 10
1365.874600166228
 20
-1172.251345919402
 30
0.0
 10
1406.064276939485
 20
-1200.957175568838
 30
0.0
 10
1439.200558522853
 20
-1224.624858228173
 30
0.0
 10
1475.737495282801
 20
-1245.086432898917
 30
0.0
 10
1515.0
 20
-1256.453032493591
 30
0.0
 10
1515.0
 20
-1256.453032493591
 30
0.0
 10
1515.0
 20
-1139.427123959471
 30
0.0
 10
1515.0
 20
-1139.427123959471
 30
0.0
 10
1493.14650165744
 20
-1136.716178830076
 30
0.0
 10
1471.589486447776
 20
-1129.87598023182
 30
0.0
 10
1451.374910412766
 20
-1121.915969714886
 30
0.0
  0
HATCH
  5
6D
330
41
100
AcDbEntity
  8
katman 1
 62
    96
420
    32768
100
AcDbHatch
 10
0.0
 20
0.0
 30
0.0
210
0.0
220
0.0
230
1.0
  2
SOLID
 70
     1
 71
     0
 91
        1
 92
        1
 93
        1
 72
     4
 94
        3
 73
     0
 74
     1
 95
       50
 96
       46
 40
0.0
 40
0.0
 40
0.0
 40
0.0
 40
1.0
 40
1.0
 40
1.0
 40
2.0
 40
2.0
 40
2.0
 40
3.0
 40
3.0
 40
3.0
 40
4.0
 40
4.0
 40
4.0
 40
5.0
 40
5.0
 40
5.0
 40
6.0
 40
6.0
 40
6.0
 40
7.0
 40
7.0
 40
7.0
 40
8.0
 40
8.0
 40
8.0
 40
9.0
 40
9.0
 40
9.0
 40
10.0
 40
10.0
 40
10.0
 40
11.0
 40
11.0
 40
11.0
 40
12.0
 40
12.0
 40
12.0
 40
13.0
 40
13.0
 40
13.0
 40
14.0
 40
14.0
 40
14.0
 40
15.0
 40
15.0
 40
15.0
 40
15.0
 10
1451.374910412766
 20
-1121.915969714886
 10
1418.074069034763
 20
-1108.802842872899
 10
1385.97600822914
 20
-1092.873788534142
 10
1352.721154585117
 20
-1079.650858030087
 10
1315.264145257996
 20
-1064.756951555974
 10
1277.172579375709
 20
-1055.353837469729
 10
1236.942636844589
 20
-1051.942427097298
 10
1122.629792690277
 20
-1042.249399554439
 10
1012.161109842906
 20
-1085.42075569746
 10
902.9978852504637
 20
-1112.556247280867
 10
817.3318231309331
 20
-1133.851111214335
 10
725.6315663267924
 20
-1149.254564959829
 10
638.352675170433
 20
-1128.184553495268
 10
590.3975350682331
 20
-1116.60788320332
 10
546.6111724551129
 20
-1093.237054545705
 10
507.4775314083918
 20
-1063.434035975759
 10
469.4767290477348
 20
-1034.499963056751
 10
435.7905052933029
 20
-1000.315049877981
 10
403.9024390243903
 20
-964.8502154117677
 10
403.9024390243903
 20
-964.8502154117677
 10
403.9024390243903
 20
-1058.562621011966
 10
403.9024390243903
 20
-1058.562621011966
 10
456.5298342214128
 20
-1094.758358455287
 10
512.156326377537
 20
-1126.638613299627
 10
573.9255420187628
 20
-1144.211331768734
 10
607.9229545171665
 20
-1153.883537676276
 10
643.0935443087319
 20
-1158.36045417553
 10
678.4147200875168
 20
-1158.557067632675
 10
805.799021322553
 20
-1159.265374102244
 10
925.7428462796097
 20
-1106.508224487305
 10
1050.723944035972
 20
-1089.7041581433
 10
1129.022458582389
 20
-1079.176516806208
 10
1210.922533244622
 20
-1080.851413389533
 10
1283.183356343246
 20
-1115.927815745517
 10
1327.277010266374
 20
-1137.331185300176
 10
1365.874600166228
 20
-1172.251345919402
 10
1406.064276939485
 20
-1200.957175568838
 10
1439.200558522853
 20
-1224.624858228173
 10
1475.737495282801
 20
-1245.086432898917
 10
1515.0
 20
-1256.453032493591
 10
1515.0
 20
-1256.453032493591
 10
1515.0
 20
-1139.427123959471
 10
1515.0
 20
-1139.427123959471
 10
1493.14650165744
 20
-1136.716178830076
 10
1471.589486447776
 20
-1129.87598023182
 10
1451.374910412766
 20
-1121.915969714886
 97
        0
 97
        0
 75
     2
 76
     1
 98
        0
  0
INSERT
  5
6F
330
41
100
AcDbEntity
  8
katman 1
100
AcDbBlockReference
  2
block 4
 10
0.0
 20
0.0
 30
0.0
  0
ENDBLK
  5
44
330
41
100
AcDbEntity
  8
0
100
AcDbBlockEnd
  0
BLOCK
  5
4F
330
4D
100
AcDbEntity
  8
0
100
AcDbBlockBegin
  2
block 3
 70
     0
 10
0.0
 20
0.0
 30
0.0
  3
block 3
  1

  0
POLYLINE
  5
51
330
4D
100
AcDbEntity
  8
katman 1
370
     0
100
AcDb2dPolyline
 66
     1
 10
0.0
 20
0.0
 30
0.0
  0
VERTEX
  5
52
330
51
100
AcDbEntity
  8
katman 1
370
     0
100
AcDbVertex
100
AcDb2dVertex
 10
807.863648056984
 20
-783.2052888463186
 30
0.0
  0
VERTEX
  5
53
330
51
100
AcDbEntity
  8
katman 1
370
     0
100
AcDbVertex
100
AcDb2dVertex
 10
795.3551168674376
 20
-783.2052888463186
 30
0.0
  0
VERTEX
  5
54
330
51
100
AcDbEntity
  8
katman 1
370
     0
100
AcDbVertex
100
AcDb2dVertex
 10
795.3551168674376
 20
-794.8067146321628
 30
0.0
  0
VERTEX
  5
55
330
51
100
AcDbEntity
  8
katman 1
370
     0
100
AcDbVertex
100
AcDb2dVertex
 10
809.2959169585529
 20
-794.8067146321628
 30
0.0
  0
VERTEX
  5
56
330
51
100
AcDbEntity
  8
katman 1
370
     0
100
AcDbVertex
100
AcDb2dVertex
 10
809.2959169585529
 20
-798.2919146549411
 30
0.0
  0
VERTEX
  5
57
330
51
100
AcDbEntity
  8
katman 1
370
     0
100
AcDbVertex
100
AcDb2dVertex
 10
791.201518509446
 20
-798.2919146549411
 30
0.0
  0
VERTEX
  5
58
330
51
100
AcDbEntity
  8
katman 1
370
     0
100
AcDbVertex
100
AcDb2dVertex
 10
791.201518509446
 20
-766.1134812773726
 30
0.0
  0
VERTEX
  5
59
330
51
100
AcDbEntity
  8
katman 1
370
     0
100
AcDbVertex
100
AcDb2dVertex
 10
808.5802196031664
 20
-766.1134812773726
 30
0.0
  0
VERTEX
  5
5A
330
51
100
AcDbEntity
  8
katman 1
370
     0
100
AcDbVertex
100
AcDb2dVertex
 10
808.5802196031664
 20
-769.5986813001518
 30
0.0
  0
VERTEX
  5
5B
330
51
100
AcDbEntity
  8
katman 1
370
     0
100
AcDbVertex
100
AcDb2dVertex
 10
795.3555672081502
 20
-769.5986813001518
 30
0.0
  0
VERTEX
  5
5C
330
51
100
AcDbEntity
  8
katman 1
370
     0
100
AcDbVertex
100
AcDb2dVertex
 10
795.3555672081502
 20
-779.767824939112
 30
0.0
  0
VERTEX
  5
5D
330
51
100
AcDbEntity
  8
katman 1
370
     0
100
AcDbVertex
100
AcDb2dVertex
 10
807.8640983976966
 20
-779.767824939112
 30
0.0
  0
VERTEX
  5
5E
330
51
100
AcDbEntity
  8
katman 1
370
     0
100
AcDbVertex
100
AcDb2dVertex
 10
807.8640983976966
 20
-783.2052888463186
 30
0.0
  0
VERTEX
  5
5F
330
51
100
AcDbEntity
  8
katman 1
370
     0
100
AcDbVertex
100
AcDb2dVertex
 10
807.863648056984
 20
-783.2052888463186
 30
0.0
  0
SEQEND
  5
61
330
51
100
AcDbEntity
  8
katman 1
370
     0
  0
HATCH
  5
60
330
4D
100
AcDbEntity
  8
katman 1
 62
    96
420
    32768
100
AcDbHatch
 10
0.0
 20
0.0
 30
0.0
210
0.0
220
0.0
230
1.0
  2
SOLID
 70
     1
 71
     0
 91
        1
 92
        1
 93
       13
 72
     1
 10
807.863648056984
 20
-783.2052888463186
 11
795.3551168674376
 21
-783.2052888463186
 72
     1
 10
795.3551168674376
 20
-783.2052888463186
 11
795.3551168674376
 21
-794.8067146321628
 72
     1
 10
795.3551168674376
 20
-794.8067146321628
 11
809.2959169585529
 21
-794.8067146321628
 72
     1
 10
809.2959169585529
 20
-794.8067146321628
 11
809.2959169585529
 21
-798.2919146549411
 72
     1
 10
809.2959169585529
 20
-798.2919146549411
 11
791.201518509446
 21
-798.2919146549411
 72
     1
 10
791.201518509446
 20
-798.2919146549411
 11
791.201518509446
 21
-766.1134812773726
 72
     1
 10
791.201518509446
 20
-766.1134812773726
 11
808.5802196031664
 21
-766.1134812773726
 72
     1
 10
808.5802196031664
 20
-766.1134812773726
 11
808.5802196031664
 21
-769.5986813001518
 72
     1
 10
808.5802196031664
 20
-769.5986813001518
 11
795.3555672081502
 21
-769.5986813001518
 72
     1
 10
795.3555672081502
 20
-769.5986813001518
 11
795.3555672081502
 21
-779.767824939112
 72
     1
 10
795.3555672081502
 20
-779.767824939112
 11
807.8640983976966
 21
-779.767824939112
 72
     1
 10
807.8640983976966
 20
-779.767824939112
 11
807.8640983976966
 21
-783.2052888463186
 72
     1
 10
807.8640983976966
 20
-783.2052888463186
 11
807.863648056984
 21
-783.2052888463186
 97
        0
 75
     2
 76
     1
 98
        0
  0
SPLINE
  5
62
330
4D
100
AcDbEntity
  8
katman 1
370
     0
100
AcDbSpline
210
0.0
220
0.0
230
1.0
 70
    11
 71
     3
 72
    50
 73
    46
 74
     0
 42
0.0000000001
 43
0.0000000001
 12
1.0
 22
0.0
 32
0.0
 13
1.0
 23
0.0
 33
0.0
 40
0.0
 40
0.0
 40
0.0
 40
0.0
 40
1.0
 40
1.0
 40
1.0
 40
2.0
 40
2.0
 40
2.0
 40
3.0
 40
3.0
 40
3.0
 40
4.0
 40
4.0
 40
4.0
 40
5.0
 40
5.0
 40
5.0
 40
6.0
 40
6.0
 40
6.0
 40
7.0
 40
7.0
 40
7.0
 40
8.0
 40
8.0
 40
8.0
 40
9.0
 40
9.0
 40
9.0
 40
10.0
 40
10.0
 40
10.0
 40
11.0
 40
11.0
 40
11.0
 40
12.0
 40
12.0
 40
12.0
 40
13.0
 40
13.0
 40
13.0
 40
14.0
 40
14.0
 40
14.0
 40
15.0
 40
15.0
 40
15.0
 40
15.0
 10
814.546730727684
 20
-781.438814154486
 30
0.0
 10
814.546730727684
 20
-779.051690488327
 30
0.0
 10
814.4989946121123
 20
-777.0942448435762
 30
0.0
 10
814.3557597747667
 20
-775.1845485597123
 30
0.0
 10
814.3557597747667
 20
-775.1845485597123
 30
0.0
 10
818.0796801113502
 20
-775.1845485597123
 30
0.0
 10
818.0796801113502
 20
-775.1845485597123
 30
0.0
 10
818.0796801113502
 20
-775.1845485597123
 30
0.0
 10
818.3183871798401
 20
-779.0039411274402
 30
0.0
 10
818.3183871798401
 20
-779.0039411274402
 30
0.0
 10
818.3183871798401
 20
-779.0039411274402
 30
0.0
 10
818.4138594109836
 20
-779.0039411274402
 30
0.0
 10
818.4138594109836
 20
-779.0039411274402
 30
0.0
 10
819.5596851284909
 20
-776.8077884141994
 30
0.0
 10
822.2332519787115
 20
-774.6593718165304
 30
0.0
 10
826.0526445464393
 20
-774.6593718165304
 30
0.0
 10
829.2513881398409
 20
-774.6593718165304
 30
0.0
 10
834.216606425076
 20
-776.5690681003944
 30
0.0
 10
834.216606425076
 20
-784.4943229105411
 30
0.0
 10
834.216606425076
 20
-784.4943229105411
 30
0.0
 10
834.216606425076
 20
-798.291901409626
 30
0.0
 10
834.216606425076
 20
-798.291901409626
 30
0.0
 10
834.216606425076
 20
-798.291901409626
 30
0.0
 10
830.0152719515127
 20
-798.291901409626
 30
0.0
 10
830.0152719515127
 20
-798.291901409626
 30
0.0
 10
830.0152719515127
 20
-798.291901409626
 30
0.0
 10
830.0152719515127
 20
-784.9717502928361
 30
0.0
 10
830.0152719515127
 20
-784.9717502928361
 30
0.0
 10
830.0152719515127
 20
-781.2478432015678
 30
0.0
 10
828.6307391655155
 20
-778.1445718393097
 30
0.0
 10
824.6681117604421
 20
-778.1445718393097
 30
0.0
 10
821.8990461884478
 20
-778.1445718393097
 30
0.0
 10
819.7506295907788
 20
-780.1020174840605
 30
0.0
 10
819.034508385309
 20
-782.4413917893316
 30
0.0
 10
818.8435374323917
 20
-782.9665552871984
 30
0.0
 10
818.7480652012473
 20
-783.6826897379833
 30
0.0
 10
818.7480652012473
 20
-784.3988374340825
 30
0.0
 10
818.7480652012473
 20
-784.3988374340825
 30
0.0
 10
818.7480652012473
 20
-798.291901409626
 30
0.0
 10
818.7480652012473
 20
-798.291901409626
 30
0.0
 10
818.7480652012473
 20
-798.291901409626
 30
0.0
 10
814.546730727684
 20
-798.291901409626
 30
0.0
 10
814.546730727684
 20
-798.291901409626
 30
0.0
 10
814.546730727684
 20
-798.291901409626
 30
0.0
 10
814.546730727684
 20
-781.438814154486
 30
0.0
 10
814.546730727684
 20
-781.438814154486
 30
0.0
  0
HATCH
  5
63
330
4D
100
AcDbEntity
  8
katman 1
 62
    96
420
    32768
100
AcDbHatch
 10
0.0
 20
0.0
 30
0.0
210
0.0
220
0.0
230
1.0
  2
SOLID
 70
     1
 71
     0
 91
        1
 92
        1
 93
        1
 72
     4
 94
        3
 73
     0
 74
     1
 95
       50
 96
       46
 40
0.0
 40
0.0
 40
0.0
 40
0.0
 40
1.0
 40
1.0
 40
1.0
 40
2.0
 40
2.0
 40
2.0
 40
3.0
 40
3.0
 40
3.0
 40
4.0
 40
4.0
 40
4.0
 40
5.0
 40
5.0
 40
5.0
 40
6.0
 40
6.0
 40
6.0
 40
7.0
 40
7.0
 40
7.0
 40
8.0
 40
8.0
 40
8.0
 40
9.0
 40
9.0
 40
9.0
 40
10.0
 40
10.0
 40
10.0
 40
11.0
 40
11.0
 40
11.0
 40
12.0
 40
12.0
 40
12.0
 40
13.0
 40
13.0
 40
13.0
 40
14.0
 40
14.0
 40
14.0
 40
15.0
 40
15.0
 40
15.0
 40
15.0
 10
814.546730727684
 20
-781.438814154486
 10
814.546730727684
 20
-779.051690488327
 10
814.4989946121123
 20
-777.0942448435762
 10
814.3557597747667
 20
-775.1845485597123
 10
814.3557597747667
 20
-775.1845485597123
 10
818.0796801113502
 20
-775.1845485597123
 10
818.0796801113502
 20
-775.1845485597123
 10
818.0796801113502
 20
-775.1845485597123
 10
818.3183871798401
 20
-779.0039411274402
 10
818.3183871798401
 20
-779.0039411274402
 10
818.3183871798401
 20
-779.0039411274402
 10
818.4138594109836
 20
-779.0039411274402
 10
818.4138594109836
 20
-779.0039411274402
 10
819.5596851284909
 20
-776.8077884141994
 10
822.2332519787115
 20
-774.6593718165304
 10
826.0526445464393
 20
-774.6593718165304
 10
829.2513881398409
 20
-774.6593718165304
 10
834.216606425076
 20
-776.5690681003944
 10
834.216606425076
 20
-784.4943229105411
 10
834.216606425076
 20
-784.4943229105411
 10
834.216606425076
 20
-798.291901409626
 10
834.216606425076
 20
-798.291901409626
 10
834.216606425076
 20
-798.291901409626
 10
830.0152719515127
 20
-798.291901409626
 10
830.0152719515127
 20
-798.291901409626
 10
830.0152719515127
 20
-798.291901409626
 10
830.0152719515127
 20
-784.9717502928361
 10
830.0152719515127
 20
-784.9717502928361
 10
830.0152719515127
 20
-781.2478432015678
 10
828.6307391655155
 20
-778.1445718393097
 10
824.6681117604421
 20
-778.1445718393097
 10
821.8990461884478
 20
-778.1445718393097
 10
819.7506295907788
 20
-780.1020174840605
 10
819.034508385309
 20
-782.4413917893316
 10
818.8435374323917
 20
-782.9665552871984
 10
818.7480652012473
 20
-783.6826897379833
 10
818.7480652012473
 20
-784.3988374340825
 10
818.7480652012473
 20
-784.3988374340825
 10
818.7480652012473
 20
-798.291901409626
 10
818.7480652012473
 20
-798.291901409626
 10
818.7480652012473
 20
-798.291901409626
 10
814.546730727684
 20
-798.291901409626
 10
814.546730727684
 20
-798.291901409626
 10
814.546730727684
 20
-798.291901409626
 10
814.546730727684
 20
-781.438814154486
 10
814.546730727684
 20
-781.438814154486
 97
        0
 97
        0
 75
     2
 76
     1
 98
        0
  0
SPLINE
  5
64
330
4D
100
AcDbEntity
  8
katman 1
370
     0
100
AcDbSpline
210
0.0
220
0.0
230
1.0
 70
    11
 71
     3
 72
    29
 73
    25
 74
     0
 42
0.0000000001
 43
0.0000000001
 12
1.0
 22
0.0
 32
0.0
 13
1.0
 23
0.0
 33
0.0
 40
0.0
 40
0.0
 40
0.0
 40
0.0
 40
1.0
 40
1.0
 40
1.0
 40
2.0
 40
2.0
 40
2.0
 40
3.0
 40
3.0
 40
3.0
 40
4.0
 40
4.0
 40
4.0
 40
5.0
 40
5.0
 40
5.0
 40
6.0
 40
6.0
 40
6.0
 40
7.0
 40
7.0
 40
7.0
 40
8.0
 40
8.0
 40
8.0
 40
8.0
 10
835.4097708987028
 20
-804.9758450258068
 30
0.0
 10
837.3194804278819
 20
-804.8326234337765
 30
0.0
 10
838.9904563979408
 20
-804.3074466905946
 30
0.0
 10
839.9930472781016
 20
-803.2093703339742
 30
0.0
 10
841.1388729956088
 20
-801.8725869088639
 30
0.0
 10
841.568551017017
 20
-800.0583628561435
 30
0.0
 10
841.568551017017
 20
-794.5202449574708
 30
0.0
 10
841.568551017017
 20
-794.5202449574708
 30
0.0
 10
841.568551017017
 20
-775.1845485597123
 30
0.0
 10
841.568551017017
 20
-775.1845485597123
 30
0.0
 10
841.568551017017
 20
-775.1845485597123
 30
0.0
 10
845.7698854905802
 20
-775.1845485597123
 30
0.0
 10
845.7698854905802
 20
-775.1845485597123
 30
0.0
 10
845.7698854905802
 20
-775.1845485597123
 30
0.0
 10
845.7698854905802
 20
-796.1434980572722
 30
0.0
 10
845.7698854905802
 20
-796.1434980572722
 30
0.0
 10
845.7698854905802
 20
-800.6312889602123
 30
0.0
 10
845.0537377944811
 20
-803.5435761242379
 30
0.0
 10
843.0008199185859
 20
-805.6442566063342
 30
0.0
 10
841.1388729956088
 20
-807.5062167746264
 30
0.0
 10
838.0833377489234
 20
-808.2700873409831
 30
0.0
 10
835.83944892011
 20
-808.2700873409831
 30
0.0
 10
835.83944892011
 20
-808.2700873409831
 30
0.0
 10
835.4097708987028
 20
-804.9758450258068
 30
0.0
 10
835.4097708987028
 20
-804.9758450258068
 30
0.0
  0
SPLINE
  5
65
330
4D
100
AcDbEntity
  8
katman 1
370
     0
100
AcDbSpline
210
0.0
220
0.0
230
1.0
 70
    11
 71
     3
 72
    17
 73
    13
 74
     0
 42
0.0000000001
 43
0.0000000001
 12
1.0
 22
0.0
 32
0.0
 13
1.0
 23
0.0
 33
0.0
 40
0.0
 40
0.0
 40
0.0
 40
0.0
 40
1.0
 40
1.0
 40
1.0
 40
2.0
 40
2.0
 40
2.0
 40
3.0
 40
3.0
 40
3.0
 40
4.0
 40
4.0
 40
4.0
 40
4.0
 10
846.2472996275601
 20
-768.6915758964496
 30
0.0
 10
846.2950357431318
 20
-770.0761086824468
 30
0.0
 10
845.2924448629701
 20
-771.2696705155258
 30
0.0
 10
843.6214688929113
 20
-771.2696705155258
 30
0.0
 10
842.0459651539968
 20
-771.2696705155258
 30
0.0
 10
841.0433742738351
 20
-770.0761086824468
 30
0.0
 10
841.0433742738351
 20
-768.6915758964496
 30
0.0
 10
841.0433742738351
 20
-767.2115576339929
 30
0.0
 10
842.1414638757706
 20
-766.0657451618008
 30
0.0
 10
843.7169411240557
 20
-766.0657451618008
 30
0.0
 10
845.2447087473984
 20
-766.0657319164857
 30
0.0
 10
846.2472996275601
 20
-767.2115576339929
 30
0.0
 10
846.2472996275601
 20
-768.6915758964496
 30
0.0
  0
HATCH
  5
66
330
4D
100
AcDbEntity
  8
katman 1
 62
    96
420
    32768
100
AcDbHatch
 10
0.0
 20
0.0
 30
0.0
210
0.0
220
0.0
230
1.0
  2
SOLID
 70
     1
 71
     0
 91
        2
 92
        1
 93
        1
 72
     4
 94
        3
 73
     0
 74
     1
 95
       29
 96
       25
 40
0.0
 40
0.0
 40
0.0
 40
0.0
 40
1.0
 40
1.0
 40
1.0
 40
2.0
 40
2.0
 40
2.0
 40
3.0
 40
3.0
 40
3.0
 40
4.0
 40
4.0
 40
4.0
 40
5.0
 40
5.0
 40
5.0
 40
6.0
 40
6.0
 40
6.0
 40
7.0
 40
7.0
 40
7.0
 40
8.0
 40
8.0
 40
8.0
 40
8.0
 10
835.4097708987028
 20
-804.9758450258068
 10
837.3194804278819
 20
-804.8326234337765
 10
838.9904563979408
 20
-804.3074466905946
 10
839.9930472781016
 20
-803.2093703339742
 10
841.1388729956088
 20
-801.8725869088639
 10
841.568551017017
 20
-800.0583628561435
 10
841.568551017017
 20
-794.5202449574708
 10
841.568551017017
 20
-794.5202449574708
 10
841.568551017017
 20
-775.1845485597123
 10
841.568551017017
 20
-775.1845485597123
 10
841.568551017017
 20
-775.1845485597123
 10
845.7698854905802
 20
-775.1845485597123
 10
845.7698854905802
 20
-775.1845485597123
 10
845.7698854905802
 20
-775.1845485597123
 10
845.7698854905802
 20
-796.1434980572722
 10
845.7698854905802
 20
-796.1434980572722
 10
845.7698854905802
 20
-800.6312889602123
 10
845.0537377944811
 20
-803.5435761242379
 10
843.0008199185859
 20
-805.6442566063342
 10
841.1388729956088
 20
-807.5062167746264
 10
838.0833377489234
 20
-808.2700873409831
 10
835.83944892011
 20
-808.2700873409831
 10
835.83944892011
 20
-808.2700873409831
 10
835.4097708987028
 20
-804.9758450258068
 10
835.4097708987028
 20
-804.9758450258068
 97
        0
 97
        0
 92
        1
 93
        1
 72
     4
 94
        3
 73
     0
 74
     1
 95
       17
 96
       13
 40
0.0
 40
0.0
 40
0.0
 40
0.0
 40
1.0
 40
1.0
 40
1.0
 40
2.0
 40
2.0
 40
2.0
 40
3.0
 40
3.0
 40
3.0
 40
4.0
 40
4.0
 40
4.0
 40
4.0
 10
846.2472996275601
 20
-768.6915758964496
 10
846.2950357431318
 20
-770.0761086824468
 10
845.2924448629701
 20
-771.2696705155258
 10
843.6214688929113
 20
-771.2696705155258
 10
842.0459651539968
 20
-771.2696705155258
 10
841.0433742738351
 20
-770.0761086824468
 10
841.0433742738351
 20
-768.6915758964496
 10
841.0433742738351
 20
-767.2115576339929
 10
842.1414638757706
 20
-766.0657451618008
 10
843.7169411240557
 20
-766.0657451618008
 10
845.2447087473984
 20
-766.0657319164857
 10
846.2472996275601
 20
-767.2115576339929
 10
846.2472996275601
 20
-768.6915758964496
 97
        0
 97
        0
 75
     2
 76
     1
 98
        0
  0
SPLINE
  5
67
330
4D
100
AcDbEntity
  8
katman 1
370
     0
100
AcDbSpline
210
0.0
220
0.0
230
1.0
 70
    11
 71
     3
 72
    17
 73
    13
 74
     0
 42
0.0000000001
 43
0.0000000001
 12
1.0
 22
0.0
 32
0.0
 13
1.0
 23
0.0
 33
0.0
 40
0.0
 40
0.0
 40
0.0
 40
0.0
 40
1.0
 40
1.0
 40
1.0
 40
2.0
 40
2.0
 40
2.0
 40
3.0
 40
3.0
 40
3.0
 40
4.0
 40
4.0
 40
4.0
 40
4.0
 10
873.5559869510371
 20
-786.5472540317514
 30
0.0
 10
873.5559869510371
 20
-795.0931578162244
 30
0.0
 10
867.6359139012129
 20
-798.8170649074927
 30
0.0
 10
862.0500466416524
 20
-798.8170649074927
 30
0.0
 10
855.7957678015637
 20
-798.8170649074927
 30
0.0
 10
850.973784353675
 20
-794.233788528094
 30
0.0
 10
850.973784353675
 20
-786.9291826922718
 30
0.0
 10
850.973784353675
 20
-779.1948988350432
 30
0.0
 10
856.0345013606839
 20
-774.6593718165304
 30
0.0
 10
862.4319885474879
 20
-774.6593718165304
 30
0.0
 10
869.0682092934121
 20
-774.6593850618456
 30
0.0
 10
873.5559869510371
 20
-779.4813685097342
 30
0.0
 10
873.5559869510371
 20
-786.5472540317514
 30
0.0
  0
SPLINE
  5
68
330
4D
100
AcDbEntity
  8
katman 1
370
     0
100
AcDbSpline
210
0.0
220
0.0
230
1.0
 70
    11
 71
     3
 72
    17
 73
    13
 74
     0
 42
0.0000000001
 43
0.0000000001
 12
1.0
 22
0.0
 32
0.0
 13
1.0
 23
0.0
 33
0.0
 40
0.0
 40
0.0
 40
0.0
 40
0.0
 40
1.0
 40
1.0
 40
1.0
 40
2.0
 40
2.0
 40
2.0
 40
3.0
 40
3.0
 40
3.0
 40
4.0
 40
4.0
 40
4.0
 40
4.0
 10
855.2228814334403
 20
-786.7859743455565
 30
0.0
 10
855.2228814334403
 20
-791.8466781072502
 30
0.0
 10
858.1351553521508
 20
-795.6660706749781
 30
0.0
 10
862.2410440852
 20
-795.6660706749781
 30
0.0
 10
866.251407605846
 20
-795.6660706749781
 30
0.0
 10
869.2592067369606
 20
-791.894414222822
 30
0.0
 10
869.2592067369606
 20
-786.690488869097
 30
0.0
 10
869.2592067369606
 20
-782.7756108249105
 30
0.0
 10
867.3017610922088
 20
-777.8103925396754
 30
0.0
 10
862.3365692976049
 20
-777.8103925396754
 30
0.0
 10
857.3713245217396
 20
-777.8103792943602
 30
0.0
 10
855.2228814334403
 20
-782.3936556737599
 30
0.0
 10
855.2228814334403
 20
-786.7859743455565
 30
0.0
  0
HATCH
  5
69
330
4D
100
AcDbEntity
  8
katman 1
 62
    96
420
    32768
100
AcDbHatch
 10
0.0
 20
0.0
 30
0.0
210
0.0
220
0.0
230
1.0
  2
SOLID
 70
     1
 71
     0
 91
        2
 92
        1
 93
        1
 72
     4
 94
        3
 73
     0
 74
     1
 95
       17
 96
       13
 40
0.0
 40
0.0
 40
0.0
 40
0.0
 40
1.0
 40
1.0
 40
1.0
 40
2.0
 40
2.0
 40
2.0
 40
3.0
 40
3.0
 40
3.0
 40
4.0
 40
4.0
 40
4.0
 40
4.0
 10
873.5559869510371
 20
-786.5472540317514
 10
873.5559869510371
 20
-795.0931578162244
 10
867.6359139012129
 20
-798.8170649074927
 10
862.0500466416524
 20
-798.8170649074927
 10
855.7957678015637
 20
-798.8170649074927
 10
850.973784353675
 20
-794.233788528094
 10
850.973784353675
 20
-786.9291826922718
 10
850.973784353675
 20
-779.1948988350432
 10
856.0345013606839
 20
-774.6593718165304
 10
862.4319885474879
 20
-774.6593718165304
 10
869.0682092934121
 20
-774.6593850618456
 10
873.5559869510371
 20
-779.4813685097342
 10
873.5559869510371
 20
-786.5472540317514
 97
        0
 97
        0
 92
        1
 93
        1
 72
     4
 94
        3
 73
     0
 74
     1
 95
       17
 96
       13
 40
0.0
 40
0.0
 40
0.0
 40
0.0
 40
1.0
 40
1.0
 40
1.0
 40
2.0
 40
2.0
 40
2.0
 40
3.0
 40
3.0
 40
3.0
 40
4.0
 40
4.0
 40
4.0
 40
4.0
 10
855.2228814334403
 20
-786.7859743455565
 10
855.2228814334403
 20
-791.8466781072502
 10
858.1351553521508
 20
-795.6660706749781
 10
862.2410440852
 20
-795.6660706749781
 10
866.251407605846
 20
-795.6660706749781
 10
869.2592067369606
 20
-791.894414222822
 10
869.2592067369606
 20
-786.690488869097
 10
869.2592067369606
 20
-782.7756108249105
 10
867.3017610922088
 20
-777.8103925396754
 10
862.3365692976049
 20
-777.8103925396754
 10
857.3713245217396
 20
-777.8103792943602
 10
855.2228814334403
 20
-782.3936556737599
 10
855.2228814334403
 20
-786.7859743455565
 97
        0
 97
        0
 75
     2
 76
     1
 98
        0
  0
SPLINE
  5
6A
330
4D
100
AcDbEntity
  8
katman 1
370
     0
100
AcDbSpline
210
0.0
220
0.0
230
1.0
 70
    11
 71
     3
 72
    56
 73
    52
 74
     0
 42
0.0000000001
 43
0.0000000001
 12
1.0
 22
0.0
 32
0.0
 13
1.0
 23
0.0
 33
0.0
 40
0.0
 40
0.0
 40
0.0
 40
0.0
 40
1.0
 40
1.0
 40
1.0
 40
2.0
 40
2.0
 40
2.0
 40
3.0
 40
3.0
 40
3.0
 40
4.0
 40
4.0
 40
4.0
 40
5.0
 40
5.0
 40
5.0
 40
6.0
 40
6.0
 40
6.0
 40
7.0
 40
7.0
 40
7.0
 40
8.0
 40
8.0
 40
8.0
 40
9.0
 40
9.0
 40
9.0
 40
10.0
 40
10.0
 40
10.0
 40
11.0
 40
11.0
 40
11.0
 40
12.0
 40
12.0
 40
12.0
 40
13.0
 40
13.0
 40
13.0
 40
14.0
 40
14.0
 40
14.0
 40
15.0
 40
15.0
 40
15.0
 40
16.0
 40
16.0
 40
16.0
 40
17.0
 40
17.0
 40
17.0
 40
17.0
 10
880.0494232003284
 20
-775.1845485597123
 30
0.0
 10
880.0494232003284
 20
-775.1845485597123
 30
0.0
 10
885.1101402073373
 20
-788.8388922214508
 30
0.0
 10
885.1101402073373
 20
-788.8388922214508
 30
0.0
 10
885.6352904598889
 20
-790.3666465994793
 30
0.0
 10
886.2082298092728
 20
-792.1808706521988
 30
0.0
 10
886.5901717151082
 20
-793.565403438196
 30
0.0
 10
886.5901717151082
 20
-793.565403438196
 30
0.0
 10
886.6856439462526
 20
-793.565403438196
 30
0.0
 10
886.6856439462526
 20
-793.565403438196
 30
0.0
 10
887.1153219676598
 20
-792.1808706521988
 30
0.0
 10
887.5927361046397
 20
-790.4143959603662
 30
0.0
 10
888.1656754540236
 20
-788.7434199903073
 30
0.0
 10
888.1656754540236
 20
-788.7434199903073
 30
0.0
 10
892.7489783240526
 20
-775.1845618050274
 30
0.0
 10
892.7489783240526
 20
-775.1845618050274
 30
0.0
 10
892.7489783240526
 20
-775.1845618050274
 30
0.0
 10
897.1890198661058
 20
-775.1845618050274
 30
0.0
 10
897.1890198661058
 20
-775.1845618050274
 30
0.0
 10
897.1890198661058
 20
-775.1845618050274
 30
0.0
 10
890.8870049104462
 20
-791.6557203996472
 30
0.0
 10
890.8870049104462
 20
-791.6557203996472
 30
0.0
 10
887.8792057793316
 20
-799.5809752097948
 30
0.0
 10
885.8262879034364
 20
-803.6390748460117
 30
0.0
 10
882.9617501002986
 20
-806.1216972339444
 30
0.0
 10
880.9088322244043
 20
-807.9359080413496
 30
0.0
 10
878.855914348509
 20
-808.6520424921337
 30
0.0
 10
877.8055608621462
 20
-808.8430134450518
 30
0.0
 10
877.8055608621462
 20
-808.8430134450518
 30
0.0
 10
876.7552073757824
 20
-805.3100640613857
 30
0.0
 10
876.7552073757824
 20
-805.3100640613857
 30
0.0
 10
877.8055608621462
 20
-804.9758715164371
 30
0.0
 10
879.1900671575131
 20
-804.3074731812249
 30
0.0
 10
880.4313651061639
 20
-803.2571329401762
 30
0.0
 10
881.5771908236711
 20
-802.350027536474
 30
0.0
 10
883.0094332346107
 20
-800.7267876819869
 30
0.0
 10
883.96431448983
 20
-798.578371084318
 30
0.0
 10
884.155258952118
 20
-798.1486930629108
 30
0.0
 10
884.2985202800937
 20
-797.8144872726461
 30
0.0
 10
884.2985202800937
 20
-797.5757802041571
 30
0.0
 10
884.2985202800937
 20
-797.3370731356672
 30
0.0
 10
884.2030480489502
 20
-797.0028673454035
 30
0.0
 10
884.0120506054018
 20
-796.4777038475368
 30
0.0
 10
884.0120506054018
 20
-796.4777038475368
 30
0.0
 10
875.466173311559
 20
-775.1845618050274
 30
0.0
 10
875.466173311559
 20
-775.1845618050274
 30
0.0
 10
875.466173311559
 20
-775.1845618050274
 30
0.0
 10
880.0494232003284
 20
-775.1845485597123
 30
0.0
 10
880.0494232003284
 20
-775.1845485597123
 30
0.0
 10
880.0494232003284
 20
-775.1845485597123
 30
0.0
 10
880.0494232003284
 20
-775.1845485597123
 30
0.0
 10
880.0494232003284
 20
-775.1845485597123
 30
0.0
  0
HATCH
  5
6B
330
4D
100
AcDbEntity
  8
katman 1
 62
    96
420
    32768
100
AcDbHatch
 10
0.0
 20
0.0
 30
0.0
210
0.0
220
0.0
230
1.0
  2
SOLID
 70
     1
 71
     0
 91
        1
 92
        1
 93
        1
 72
     4
 94
        3
 73
     0
 74
     1
 95
       56
 96
       52
 40
0.0
 40
0.0
 40
0.0
 40
0.0
 40
1.0
 40
1.0
 40
1.0
 40
2.0
 40
2.0
 40
2.0
 40
3.0
 40
3.0
 40
3.0
 40
4.0
 40
4.0
 40
4.0
 40
5.0
 40
5.0
 40
5.0
 40
6.0
 40
6.0
 40
6.0
 40
7.0
 40
7.0
 40
7.0
 40
8.0
 40
8.0
 40
8.0
 40
9.0
 40
9.0
 40
9.0
 40
10.0
 40
10.0
 40
10.0
 40
11.0
 40
11.0
 40
11.0
 40
12.0
 40
12.0
 40
12.0
 40
13.0
 40
13.0
 40
13.0
 40
14.0
 40
14.0
 40
14.0
 40
15.0
 40
15.0
 40
15.0
 40
16.0
 40
16.0
 40
16.0
 40
17.0
 40
17.0
 40
17.0
 40
17.0
 10
880.0494232003284
 20
-775.1845485597123
 10
880.0494232003284
 20
-775.1845485597123
 10
885.1101402073373
 20
-788.8388922214508
 10
885.1101402073373
 20
-788.8388922214508
 10
885.6352904598889
 20
-790.3666465994793
 10
886.2082298092728
 20
-792.1808706521988
 10
886.5901717151082
 20
-793.565403438196
 10
886.5901717151082
 20
-793.565403438196
 10
886.6856439462526
 20
-793.565403438196
 10
886.6856439462526
 20
-793.565403438196
 10
887.1153219676598
 20
-792.1808706521988
 10
887.5927361046397
 20
-790.4143959603662
 10
888.1656754540236
 20
-788.7434199903073
 10
888.1656754540236
 20
-788.7434199903073
 10
892.7489783240526
 20
-775.1845618050274
 10
892.7489783240526
 20
-775.1845618050274
 10
892.7489783240526
 20
-775.1845618050274
 10
897.1890198661058
 20
-775.1845618050274
 10
897.1890198661058
 20
-775.1845618050274
 10
897.1890198661058
 20
-775.1845618050274
 10
890.8870049104462
 20
-791.6557203996472
 10
890.8870049104462
 20
-791.6557203996472
 10
887.8792057793316
 20
-799.5809752097948
 10
885.8262879034364
 20
-803.6390748460117
 10
882.9617501002986
 20
-806.1216972339444
 10
880.9088322244043
 20
-807.9359080413496
 10
878.855914348509
 20
-808.6520424921337
 10
877.8055608621462
 20
-808.8430134450518
 10
877.8055608621462
 20
-808.8430134450518
 10
876.7552073757824
 20
-805.3100640613857
 10
876.7552073757824
 20
-805.3100640613857
 10
877.8055608621462
 20
-804.9758715164371
 10
879.1900671575131
 20
-804.3074731812249
 10
880.4313651061639
 20
-803.2571329401762
 10
881.5771908236711
 20
-802.350027536474
 10
883.0094332346107
 20
-800.7267876819869
 10
883.96431448983
 20
-798.578371084318
 10
884.155258952118
 20
-798.1486930629108
 10
884.2985202800937
 20
-797.8144872726461
 10
884.2985202800937
 20
-797.5757802041571
 10
884.2985202800937
 20
-797.3370731356672
 10
884.2030480489502
 20
-797.0028673454035
 10
884.0120506054018
 20
-796.4777038475368
 10
884.0120506054018
 20
-796.4777038475368
 10
875.466173311559
 20
-775.1845618050274
 10
875.466173311559
 20
-775.1845618050274
 10
875.466173311559
 20
-775.1845618050274
 10
880.0494232003284
 20
-775.1845485597123
 10
880.0494232003284
 20
-775.1845485597123
 10
880.0494232003284
 20
-775.1845485597123
 10
880.0494232003284
 20
-775.1845485597123
 10
880.0494232003284
 20
-775.1845485597123
 97
        0
 97
        0
 75
     2
 76
     1
 98
        0
  0
ENDBLK
  5
50
330
4D
100
AcDbEntity
  8
0
100
AcDbBlockEnd
  0
BLOCK
  5
70
330
6E
100
AcDbEntity
  8
0
100
AcDbBlockBegin
  2
block 4
 70
     0
 10
0.0
 20
0.0
 30
0.0
  3
block 4
  1

  0
SPLINE
  5
72
330
6E
100
AcDbEntity
  8
katman 1
370
     0
100
AcDbSpline
210
0.0
220
0.0
230
1.0
 70
    11
 71
     3
 72
   161
 73
   157
 74
     0
 42
0.0000000001
 43
0.0000000001
 12
1.0
 22
0.0
 32
0.0
 13
1.0
 23
0.0
 33
0.0
 40
0.0
 40
0.0
 40
0.0
 40
0.0
 40
1.0
 40
1.0
 40
1.0
 40
2.0
 40
2.0
 40
2.0
 40
3.0
 40
3.0
 40
3.0
 40
4.0
 40
4.0
 40
4.0
 40
5.0
 40
5.0
 40
5.0
 40
6.0
 40
6.0
 40
6.0
 40
7.0
 40
7.0
 40
7.0
 40
8.0
 40
8.0
 40
8.0
 40
9.0
 40
9.0
 40
9.0
 40
10.0
 40
10.0
 40
10.0
 40
11.0
 40
11.0
 40
11.0
 40
12.0
 40
12.0
 40
12.0
 40
13.0
 40
13.0
 40
13.0
 40
14.0
 40
14.0
 40
14.0
 40
15.0
 40
15.0
 40
15.0
 40
16.0
 40
16.0
 40
16.0
 40
17.0
 40
17.0
 40
17.0
 40
18.0
 40
18.0
 40
18.0
 40
19.0
 40
19.0
 40
19.0
 40
20.0
 40
20.0
 40
20.0
 40
21.0
 40
21.0
 40
21.0
 40
22.0
 40
22.0
 40
22.0
 40
23.0
 40
23.0
 40
23.0
 40
24.0
 40
24.0
 40
24.0
 40
25.0
 40
25.0
 40
25.0
 40
26.0
 40
26.0
 40
26.0
 40
27.0
 40
27.0
 40
27.0
 40
28.0
 40
28.0
 40
28.0
 40
29.0
 40
29.0
 40
29.0
 40
30.0
 40
30.0
 40
30.0
 40
31.0
 40
31.0
 40
31.0
 40
32.0
 40
32.0
 40
32.0
 40
33.0
 40
33.0
 40
33.0
 40
34.0
 40
34.0
 40
34.0
 40
35.0
 40
35.0
 40
35.0
 40
36.0
 40
36.0
 40
36.0
 40
37.0
 40
37.0
 40
37.0
 40
38.0
 40
38.0
 40
38.0
 40
39.0
 40
39.0
 40
39.0
 40
40.0
 40
40.0
 40
40.0
 40
41.0
 40
41.0
 40
41.0
 40
42.0
 40
42.0
 40
42.0
 40
43.0
 40
43.0
 40
43.0
 40
44.0
 40
44.0
 40
44.0
 40
45.0
 40
45.0
 40
45.0
 40
46.0
 40
46.0
 40
46.0
 40
47.0
 40
47.0
 40
47.0
 40
48.0
 40
48.0
 40
48.0
 40
49.0
 40
49.0
 40
49.0
 40
50.0
 40
50.0
 40
50.0
 40
51.0
 40
51.0
 40
51.0
 40
52.0
 40
52.0
 40
52.0
 40
52.0
 10
958.9807459203212
 20
-809.2431544138162
 30
0.0
 10
958.7958413217129
 20
-815.6588803994946
 30
0.0
 10
952.375360267918
 20
-825.1752551750442
 30
0.0
 10
939.7149053143294
 20
-837.8005305717634
 30
0.0
 10
916.4113628573532
 20
-861.2477317161674
 30
0.0
 10
892.9268364150348
 20
-872.9706700226161
 30
0.0
 10
869.2578822054511
 20
-872.9706700226161
 30
0.0
 10
862.6520727029665
 20
-872.9706700226161
 30
0.0
 10
857.2385005020515
 20
-872.5713635087013
 30
0.0
 10
853.0193908156416
 20
-871.7684325081545
 30
0.0
 10
847.6956748322746
 20
-870.7680138596679
 30
0.0
 10
839.1636521380124
 20
-866.4607698466716
 30
0.0
 10
827.4233492234862
 20
-858.8423692511351
 30
0.0
 10
789.9932543766208
 20
-834.7940559721574
 30
0.0
 10
765.954040629108
 20
-822.7698927100109
 30
0.0
 10
755.3148472483563
 20
-822.7698927100109
 30
0.0
 10
749.8105711297294
 20
-822.7698927100109
 30
0.0
 10
747.0580092203327
 20
-824.075430436832
 30
0.0
 10
747.0580092203327
 20
-826.6778302090925
 30
0.0
 10
747.0580092203327
 20
-827.8800677235531
 30
0.0
 10
747.2858816210819
 20
-829.7871679256605
 30
0.0
 10
747.7459443952976
 20
-832.3891306025225
 30
0.0
 10
748.2021130468784
 20
-834.9958748381314
 30
0.0
 10
748.4338795702633
 20
-836.898193481492
 30
0.0
 10
748.4338795702633
 20
-838.100868091351
 30
0.0
 10
748.4338795702633
 20
-852.9335812097643
 30
0.0
 10
743.5489543850827
 20
-867.160413880174
 30
0.0
 10
733.786918750623
 20
-880.786121170695
 30
0.0
 10
723.4658513476206
 20
-895.2151965571611
 30
0.0
 10
711.6699975816218
 20
-902.429522325353
 30
0.0
 10
698.4075695479787
 20
-902.429522325353
 30
0.0
 10
698.4075695479787
 20
-902.429522325353
 30
0.0
 10
687.6264393707606
 20
-899.1226969608451
 30
0.0
 10
687.6264393707606
 20
-899.1226969608451
 30
0.0
 10
687.6264393707606
 20
-899.1226969608451
 30
0.0
 10
683.4810795987523
 20
-888.6015458281445
 30
0.0
 10
683.4810795987523
 20
-888.6015458281445
 30
0.0
 10
683.4810795987523
 20
-876.3807823541692
 30
0.0
 10
688.783523606091
 20
-863.0502071744058
 30
0.0
 10
699.3966766973817
 20
-848.6219927334205
 30
0.0
 10
710.0059091754074
 20
-834.1929173469543
 30
0.0
 10
720.7566545998179
 20
-824.7754983204168
 30
0.0
 10
731.6454162074297
 20
-820.364954095061
 30
0.0
 10
727.9727287496007
 20
-818.7634100666864
 30
0.0
 10
725.4957488658956
 20
-817.9600419707413
 30
0.0
 10
724.2140791968604
 20
-817.9600419707413
 30
0.0
 10
707.1504841490487
 20
-817.9600419707413
 30
0.0
 10
687.9753739513999
 20
-830.989392194806
 30
0.0
 10
666.6926427265498
 20
-857.0381189206755
 30
0.0
 10
650.91029349769
 20
-876.2770450464113
 30
0.0
 10
637.3340574590175
 20
-897.6192212453707
 30
0.0
 10
625.9591927877291
 20
-921.0664223897747
 30
0.0
 10
612.5635168843155
 20
-948.3226052842492
 30
0.0
 10
605.8678511642829
 20
-970.0645250925209
 30
0.0
 10
605.8678511642829
 20
-986.2969766186507
 30
0.0
 10
605.8678511642829
 20
-1007.142215086193
 30
0.0
 10
613.0240167539296
 20
-1017.560052761219
 30
0.0
 10
627.3354604971119
 20
-1017.560052761219
 30
0.0
 10
641.462012887001
 20
-1017.560052761219
 30
0.0
 10
654.8576887904146
 20
-1009.143052383168
 30
0.0
 10
667.5185675940866
 20
-992.3090516270659
 30
0.0
 10
679.4433247665083
 20
-976.2784322122252
 30
0.0
 10
685.4081140000644
 20
-960.3467553010805
 30
0.0
 10
685.4081140000644
 20
-944.5136235341797
 30
0.0
 10
685.4081140000644
 20
-942.1086981645449
 30
0.0
 10
684.5821626418974
 20
-939.7037992855403
 30
0.0
 10
682.930710266276
 20
-937.2992977659878
 30
0.0
 10
681.2796817407379
 20
-934.894372396353
 30
0.0
 10
679.4433512571386
 20
-933.6916977864939
 30
0.0
 10
677.4264341476492
 20
-933.6916977864939
 30
0.0
 10
674.3045133817486
 20
-933.6916977864939
 30
0.0
 10
669.6257382805752
 20
-937.2992977659878
 30
0.0
 10
663.3901353347592
 20
-944.5136235341797
 30
0.0
 10
663.3901353347592
 20
-944.5136235341797
 30
0.0
 10
662.8397924929131
 20
-944.8143981491648
 30
0.0
 10
662.8397924929131
 20
-944.8143981491648
 30
0.0
 10
660.4530926768375
 20
-948.8252120105235
 30
0.0
 10
657.5156261688326
 20
-957.439673545884
 30
0.0
 10
654.03216128233
 20
-970.6656504724087
 30
0.0
 10
649.6289946974775
 20
-972.8730881941028
 30
0.0
 10
644.9502460869344
 20
-975.8791389436255
 30
0.0
 10
639.9958624694409
 20
-979.6837762303467
 30
0.0
 10
639.9958624694409
 20
-979.6837762303467
 30
0.0
 10
626.7850911646356
 20
-989.9045765981446
 30
0.0
 10
626.7850911646356
 20
-989.9045765981446
 30
0.0
 10
626.7850911646356
 20
-989.9045765981446
 30
0.0
 10
626.2347483227895
 20
-989.9045765981446
 30
0.0
 10
626.2347483227895
 20
-989.9045765981446
 30
0.0
 10
625.8645285208049
 20
-987.4996512285097
 30
0.0
 10
625.6844054809435
 20
-985.9966258537479
 30
0.0
 10
625.6844054809435
 20
-985.3955269644903
 30
0.0
 10
625.6844054809435
 20
-968.9651639403364
 30
0.0
 10
629.6275092915794
 20
-954.4332254369083
 30
0.0
 10
637.5184587356525
 20
-941.8083738902724
 30
0.0
 10
646.3260899462348
 20
-927.3792985038062
 30
0.0
 10
657.8854088754188
 20
-920.164548885532
 30
0.0
 10
672.1968658639162
 20
-920.164548885532
 30
0.0
 10
686.5083228524136
 20
-920.164548885532
 30
0.0
 10
693.6644751967451
 20
-927.4826119614809
 30
0.0
 10
693.6644751967451
 20
-942.1087246551742
 30
0.0
 10
693.6644751967451
 20
-964.5555071510917
 30
0.0
 10
685.497917236351
 20
-985.7995885465207
 30
0.0
 10
669.1691192882818
 20
-1005.836253509289
 30
0.0
 10
652.4709624837087
 20
-1026.479236015461
 30
0.0
 10
634.0310997265142
 20
-1036.798555036872
 30
0.0
 10
613.8494780354386
 20
-1036.798555036872
 30
0.0
 10
584.6753470258018
 20
-1036.798555036872
 30
0.0
 10
570.088731861696
 20
-1022.670254265391
 30
0.0
 10
570.088731861696
 20
-994.4140765725115
 30
0.0
 10
570.088731861696
 20
-968.7637821697608
 30
0.0
 10
579.1710841524891
 20
-940.206829861897
 30
0.0
 10
597.3362258294737
 20
-908.7423719487542
 30
0.0
 10
613.2991351935925
 20
-881.0864719355977
 30
0.0
 10
631.8293045090468
 20
-857.9404692562621
 30
0.0
 10
652.9314755986379
 20
-839.3031188511268
 30
0.0
 10
677.8825498179694
 20
-817.2608482779524
 30
0.0
 10
701.1856684248623
 20
-806.2366798142111
 30
0.0
 10
722.8381823562995
 20
-806.2366798142111
 30
0.0
 10
725.4054158170047
 20
-806.2366798142111
 30
0.0
 10
728.9835052344861
 20
-807.1385798090841
 30
0.0
 10
733.5724241181115
 20
-808.9419427034336
 30
0.0
 10
738.156574688307
 20
-810.7457426931796
 30
0.0
 10
741.4590555894665
 20
-812.5495426829266
 30
0.0
 10
743.4802906716741
 20
-814.352905577276
 30
0.0
 10
754.1194840524258
 20
-809.1394303513734
 30
0.0
 10
765.4040686560838
 20
-806.5279178023338
 30
0.0
 10
777.3327464417716
 20
-806.5279178023338
 30
0.0
 10
777.3327464417716
 20
-806.5279178023338
 30
0.0
 10
777.3327464417716
 20
-806.2366930595263
 30
0.0
 10
777.3327464417716
 20
-806.2366930595263
 30
0.0
 10
788.3417225291087
 20
-806.6359995734401
 30
0.0
 10
800.451808150222
 20
-810.515287455989
 30
0.0
 10
813.662155604944
 20
-817.8754441432839
 30
0.0
 10
816.5952776496006
 20
-819.4722066129125
 30
0.0
 10
826.9636308274621
 20
-826.1375008254518
 30
0.0
 10
844.7624733157272
 20
-837.874770562823
 30
0.0
 10
855.5865448044569
 20
-845.0426582563214
 30
0.0
 10
863.6585047245026
 20
-848.6215953739684
 30
0.0
 10
868.9822207078705
 20
-848.6215953739684
 30
0.0
 10
868.9822207078705
 20
-848.6215953739684
 30
0.0
 10
874.2113121602597
 20
-848.6215953739684
 30
0.0
 10
874.2113121602597
 20
-848.6215953739684
 30
0.0
 10
890.9055483515667
 20
-848.6215953739684
 30
0.0
 10
905.9527031212319
 20
-844.7136578748868
 30
0.0
 10
919.348326043385
 20
-836.8977828767238
 30
0.0
 10
926.5040810282635
 20
-832.6894946127404
 30
0.0
 10
939.0694346195314
 20
-822.7694821052437
 30
0.0
 10
957.0540294065704
 20
-807.1385930543993
 30
0.0
 10
957.0540294065704
 20
-807.1385930543993
 30
0.0
 10
958.1547150902634
 20
-807.1385930543993
 30
0.0
 10
958.1547150902634
 20
-807.1385930543993
 30
0.0
 10
958.1547150902634
 20
-807.1385930543993
 30
0.0
 10
958.1547150902634
 20
-807.4389305739869
 30
0.0
 10
958.1547150902634
 20
-807.4389305739869
 30
0.0
 10
958.1547150902634
 20
-807.4389305739869
 30
0.0
 10
958.9807459203212
 20
-809.2431544138162
 30
0.0
 10
958.9807459203212
 20
-809.2431544138162
 30
0.0
  0
SPLINE
  5
73
330
6E
100
AcDbEntity
  8
katman 1
370
     0
100
AcDbSpline
210
0.0
220
0.0
230
1.0
 70
    11
 71
     3
 72
    26
 73
    22
 74
     0
 42
0.0000000001
 43
0.0000000001
 12
1.0
 22
0.0
 32
0.0
 13
1.0
 23
0.0
 33
0.0
 40
0.0
 40
0.0
 40
0.0
 40
0.0
 40
1.0
 40
1.0
 40
1.0
 40
2.0
 40
2.0
 40
2.0
 40
3.0
 40
3.0
 40
3.0
 40
4.0
 40
4.0
 40
4.0
 40
5.0
 40
5.0
 40
5.0
 40
6.0
 40
6.0
 40
6.0
 40
7.0
 40
7.0
 40
7.0
 40
7.0
 10
738.2512257099152
 20
-838.4012188562538
 30
0.0
 10
738.2512257099152
 20
-837.4008002077662
 30
0.0
 10
738.0663211113069
 20
-835.6959559670313
 30
0.0
 10
737.6961145546375
 20
-833.2910438427116
 30
0.0
 10
737.3263318480513
 20
-830.886131718391
 30
0.0
 10
737.2317073170734
 20
-828.9837998297153
 30
0.0
 10
737.4213802291124
 20
-827.5797434492815
 30
0.0
 10
718.2154614285728
 20
-836.4003815592787
 30
0.0
 10
704.27813161001
 20
-852.9336077003945
 30
0.0
 10
695.6041721192805
 20
-877.1789715319146
 30
0.0
 10
694.3099194009128
 20
-880.786121170695
 30
0.0
 10
693.6649520280889
 20
-883.4913973052326
 30
0.0
 10
693.6649520280889
 20
-885.2951972949795
 30
0.0
 10
693.6649520280889
 20
-890.1045976935366
 30
0.0
 10
696.0646587435795
 20
-892.5095230631714
 30
0.0
 10
700.8636483244782
 20
-892.5095230631714
 30
0.0
 10
710.2814912010981
 20
-892.5095230631714
 30
0.0
 10
719.050048732176
 20
-885.8963226748674
 30
0.0
 10
727.1736653810594
 20
-872.6699218982603
 30
0.0
 10
734.5572662760569
 20
-860.6461824861972
 30
0.0
 10
738.2512257099152
 20
-849.2231446039386
 30
0.0
 10
738.2512257099152
 20
-838.4012188562538
 30
0.0
  0
HATCH
  5
74
330
6E
100
AcDbEntity
  8
katman 1
 62
    96
420
    32768
100
AcDbHatch
 10
0.0
 20
0.0
 30
0.0
210
0.0
220
0.0
230
1.0
  2
SOLID
 70
     1
 71
     0
 91
        2
 92
        1
 93
        1
 72
     4
 94
        3
 73
     0
 74
     1
 95
      161
 96
      157
 40
0.0
 40
0.0
 40
0.0
 40
0.0
 40
1.0
 40
1.0
 40
1.0
 40
2.0
 40
2.0
 40
2.0
 40
3.0
 40
3.0
 40
3.0
 40
4.0
 40
4.0
 40
4.0
 40
5.0
 40
5.0
 40
5.0
 40
6.0
 40
6.0
 40
6.0
 40
7.0
 40
7.0
 40
7.0
 40
8.0
 40
8.0
 40
8.0
 40
9.0
 40
9.0
 40
9.0
 40
10.0
 40
10.0
 40
10.0
 40
11.0
 40
11.0
 40
11.0
 40
12.0
 40
12.0
 40
12.0
 40
13.0
 40
13.0
 40
13.0
 40
14.0
 40
14.0
 40
14.0
 40
15.0
 40
15.0
 40
15.0
 40
16.0
 40
16.0
 40
16.0
 40
17.0
 40
17.0
 40
17.0
 40
18.0
 40
18.0
 40
18.0
 40
19.0
 40
19.0
 40
19.0
 40
20.0
 40
20.0
 40
20.0
 40
21.0
 40
21.0
 40
21.0
 40
22.0
 40
22.0
 40
22.0
 40
23.0
 40
23.0
 40
23.0
 40
24.0
 40
24.0
 40
24.0
 40
25.0
 40
25.0
 40
25.0
 40
26.0
 40
26.0
 40
26.0
 40
27.0
 40
27.0
 40
27.0
 40
28.0
 40
28.0
 40
28.0
 40
29.0
 40
29.0
 40
29.0
 40
30.0
 40
30.0
 40
30.0
 40
31.0
 40
31.0
 40
31.0
 40
32.0
 40
32.0
 40
32.0
 40
33.0
 40
33.0
 40
33.0
 40
34.0
 40
34.0
 40
34.0
 40
35.0
 40
35.0
 40
35.0
 40
36.0
 40
36.0
 40
36.0
 40
37.0
 40
37.0
 40
37.0
 40
38.0
 40
38.0
 40
38.0
 40
39.0
 40
39.0
 40
39.0
 40
40.0
 40
40.0
 40
40.0
 40
41.0
 40
41.0
 40
41.0
 40
42.0
 40
42.0
 40
42.0
 40
43.0
 40
43.0
 40
43.0
 40
44.0
 40
44.0
 40
44.0
 40
45.0
 40
45.0
 40
45.0
 40
46.0
 40
46.0
 40
46.0
 40
47.0
 40
47.0
 40
47.0
 40
48.0
 40
48.0
 40
48.0
 40
49.0
 40
49.0
 40
49.0
 40
50.0
 40
50.0
 40
50.0
 40
51.0
 40
51.0
 40
51.0
 40
52.0
 40
52.0
 40
52.0
 40
52.0
 10
958.9807459203212
 20
-809.2431544138162
 10
958.7958413217129
 20
-815.6588803994946
 10
952.375360267918
 20
-825.1752551750442
 10
939.7149053143294
 20
-837.8005305717634
 10
916.4113628573532
 20
-861.2477317161674
 10
892.9268364150348
 20
-872.9706700226161
 10
869.2578822054511
 20
-872.9706700226161
 10
862.6520727029665
 20
-872.9706700226161
 10
857.2385005020515
 20
-872.5713635087013
 10
853.0193908156416
 20
-871.7684325081545
 10
847.6956748322746
 20
-870.7680138596679
 10
839.1636521380124
 20
-866.4607698466716
 10
827.4233492234862
 20
-858.8423692511351
 10
789.9932543766208
 20
-834.7940559721574
 10
765.954040629108
 20
-822.7698927100109
 10
755.3148472483563
 20
-822.7698927100109
 10
749.8105711297294
 20
-822.7698927100109
 10
747.0580092203327
 20
-824.075430436832
 10
747.0580092203327
 20
-826.6778302090925
 10
747.0580092203327
 20
-827.8800677235531
 10
747.2858816210819
 20
-829.7871679256605
 10
747.7459443952976
 20
-832.3891306025225
 10
748.2021130468784
 20
-834.9958748381314
 10
748.4338795702633
 20
-836.898193481492
 10
748.4338795702633
 20
-838.100868091351
 10
748.4338795702633
 20
-852.9335812097643
 10
743.5489543850827
 20
-867.160413880174
 10
733.786918750623
 20
-880.786121170695
 10
723.4658513476206
 20
-895.2151965571611
 10
711.6699975816218
 20
-902.429522325353
 10
698.4075695479787
 20
-902.429522325353
 10
698.4075695479787
 20
-902.429522325353
 10
687.6264393707606
 20
-899.1226969608451
 10
687.6264393707606
 20
-899.1226969608451
 10
687.6264393707606
 20
-899.1226969608451
 10
683.4810795987523
 20
-888.6015458281445
 10
683.4810795987523
 20
-888.6015458281445
 10
683.4810795987523
 20
-876.3807823541692
 10
688.783523606091
 20
-863.0502071744058
 10
699.3966766973817
 20
-848.6219927334205
 10
710.0059091754074
 20
-834.1929173469543
 10
720.7566545998179
 20
-824.7754983204168
 10
731.6454162074297
 20
-820.364954095061
 10
727.9727287496007
 20
-818.7634100666864
 10
725.4957488658956
 20
-817.9600419707413
 10
724.2140791968604
 20
-817.9600419707413
 10
707.1504841490487
 20
-817.9600419707413
 10
687.9753739513999
 20
-830.989392194806
 10
666.6926427265498
 20
-857.0381189206755
 10
650.91029349769
 20
-876.2770450464113
 10
637.3340574590175
 20
-897.6192212453707
 10
625.9591927877291
 20
-921.0664223897747
 10
612.5635168843155
 20
-948.3226052842492
 10
605.8678511642829
 20
-970.0645250925209
 10
605.8678511642829
 20
-986.2969766186507
 10
605.8678511642829
 20
-1007.142215086193
 10
613.0240167539296
 20
-1017.560052761219
 10
627.3354604971119
 20
-1017.560052761219
 10
641.462012887001
 20
-1017.560052761219
 10
654.8576887904146
 20
-1009.143052383168
 10
667.5185675940866
 20
-992.3090516270659
 10
679.4433247665083
 20
-976.2784322122252
 10
685.4081140000644
 20
-960.3467553010805
 10
685.4081140000644
 20
-944.5136235341797
 10
685.4081140000644
 20
-942.1086981645449
 10
684.5821626418974
 20
-939.7037992855403
 10
682.930710266276
 20
-937.2992977659878
 10
681.2796817407379
 20
-934.894372396353
 10
679.4433512571386
 20
-933.6916977864939
 10
677.4264341476492
 20
-933.6916977864939
 10
674.3045133817486
 20
-933.6916977864939
 10
669.6257382805752
 20
-937.2992977659878
 10
663.3901353347592
 20
-944.5136235341797
 10
663.3901353347592
 20
-944.5136235341797
 10
662.8397924929131
 20
-944.8143981491648
 10
662.8397924929131
 20
-944.8143981491648
 10
660.4530926768375
 20
-948.8252120105235
 10
657.5156261688326
 20
-957.439673545884
 10
654.03216128233
 20
-970.6656504724087
 10
649.6289946974775
 20
-972.8730881941028
 10
644.9502460869344
 20
-975.8791389436255
 10
639.9958624694409
 20
-979.6837762303467
 10
639.9958624694409
 20
-979.6837762303467
 10
626.7850911646356
 20
-989.9045765981446
 10
626.7850911646356
 20
-989.9045765981446
 10
626.7850911646356
 20
-989.9045765981446
 10
626.2347483227895
 20
-989.9045765981446
 10
626.2347483227895
 20
-989.9045765981446
 10
625.8645285208049
 20
-987.4996512285097
 10
625.6844054809435
 20
-985.9966258537479
 10
625.6844054809435
 20
-985.3955269644903
 10
625.6844054809435
 20
-968.9651639403364
 10
629.6275092915794
 20
-954.4332254369083
 10
637.5184587356525
 20
-941.8083738902724
 10
646.3260899462348
 20
-927.3792985038062
 10
657.8854088754188
 20
-920.164548885532
 10
672.1968658639162
 20
-920.164548885532
 10
686.5083228524136
 20
-920.164548885532
 10
693.6644751967451
 20
-927.4826119614809
 10
693.6644751967451
 20
-942.1087246551742
 10
693.6644751967451
 20
-964.5555071510917
 10
685.497917236351
 20
-985.7995885465207
 10
669.1691192882818
 20
-1005.836253509289
 10
652.4709624837087
 20
-1026.479236015461
 10
634.0310997265142
 20
-1036.798555036872
 10
613.8494780354386
 20
-1036.798555036872
 10
584.6753470258018
 20
-1036.798555036872
 10
570.088731861696
 20
-1022.670254265391
 10
570.088731861696
 20
-994.4140765725115
 10
570.088731861696
 20
-968.7637821697608
 10
579.1710841524891
 20
-940.206829861897
 10
597.3362258294737
 20
-908.7423719487542
 10
613.2991351935925
 20
-881.0864719355977
 10
631.8293045090468
 20
-857.9404692562621
 10
652.9314755986379
 20
-839.3031188511268
 10
677.8825498179694
 20
-817.2608482779524
 10
701.1856684248623
 20
-806.2366798142111
 10
722.8381823562995
 20
-806.2366798142111
 10
725.4054158170047
 20
-806.2366798142111
 10
728.9835052344861
 20
-807.1385798090841
 10
733.5724241181115
 20
-808.9419427034336
 10
738.156574688307
 20
-810.7457426931796
 10
741.4590555894665
 20
-812.5495426829266
 10
743.4802906716741
 20
-814.352905577276
 10
754.1194840524258
 20
-809.1394303513734
 10
765.4040686560838
 20
-806.5279178023338
 10
777.3327464417716
 20
-806.5279178023338
 10
777.3327464417716
 20
-806.5279178023338
 10
777.3327464417716
 20
-806.2366930595263
 10
777.3327464417716
 20
-806.2366930595263
 10
788.3417225291087
 20
-806.6359995734401
 10
800.451808150222
 20
-810.515287455989
 10
813.662155604944
 20
-817.8754441432839
 10
816.5952776496006
 20
-819.4722066129125
 10
826.9636308274621
 20
-826.1375008254518
 10
844.7624733157272
 20
-837.874770562823
 10
855.5865448044569
 20
-845.0426582563214
 10
863.6585047245026
 20
-848.6215953739684
 10
868.9822207078705
 20
-848.6215953739684
 10
868.9822207078705
 20
-848.6215953739684
 10
874.2113121602597
 20
-848.6215953739684
 10
874.2113121602597
 20
-848.6215953739684
 10
890.9055483515667
 20
-848.6215953739684
 10
905.9527031212319
 20
-844.7136578748868
 10
919.348326043385
 20
-836.8977828767238
 10
926.5040810282635
 20
-832.6894946127404
 10
939.0694346195314
 20
-822.7694821052437
 10
957.0540294065704
 20
-807.1385930543993
 10
957.0540294065704
 20
-807.1385930543993
 10
958.1547150902634
 20
-807.1385930543993
 10
958.1547150902634
 20
-807.1385930543993
 10
958.1547150902634
 20
-807.1385930543993
 10
958.1547150902634
 20
-807.4389305739869
 10
958.1547150902634
 20
-807.4389305739869
 10
958.1547150902634
 20
-807.4389305739869
 10
958.9807459203212
 20
-809.2431544138162
 10
958.9807459203212
 20
-809.2431544138162
 97
        0
 97
        0
 92
        1
 93
        1
 72
     4
 94
        3
 73
     0
 74
     1
 95
       26
 96
       22
 40
0.0
 40
0.0
 40
0.0
 40
0.0
 40
1.0
 40
1.0
 40
1.0
 40
2.0
 40
2.0
 40
2.0
 40
3.0
 40
3.0
 40
3.0
 40
4.0
 40
4.0
 40
4.0
 40
5.0
 40
5.0
 40
5.0
 40
6.0
 40
6.0
 40
6.0
 40
7.0
 40
7.0
 40
7.0
 40
7.0
 10
738.2512257099152
 20
-838.4012188562538
 10
738.2512257099152
 20
-837.4008002077662
 10
738.0663211113069
 20
-835.6959559670313
 10
737.6961145546375
 20
-833.2910438427116
 10
737.3263318480513
 20
-830.886131718391
 10
737.2317073170734
 20
-828.9837998297153
 10
737.4213802291124
 20
-827.5797434492815
 10
718.2154614285728
 20
-836.4003815592787
 10
704.27813161001
 20
-852.9336077003945
 10
695.6041721192805
 20
-877.1789715319146
 10
694.3099194009128
 20
-880.786121170695
 10
693.6649520280889
 20
-883.4913973052326
 10
693.6649520280889
 20
-885.2951972949795
 10
693.6649520280889
 20
-890.1045976935366
 10
696.0646587435795
 20
-892.5095230631714
 10
700.8636483244782
 20
-892.5095230631714
 10
710.2814912010981
 20
-892.5095230631714
 10
719.050048732176
 20
-885.8963226748674
 10
727.1736653810594
 20
-872.6699218982603
 10
734.5572662760569
 20
-860.6461824861972
 10
738.2512257099152
 20
-849.2231446039386
 10
738.2512257099152
 20
-838.4012188562538
 97
        0
 97
        0
 75
     2
 76
     1
 98
        0
  0
SPLINE
  5
75
330
6E
100
AcDbEntity
  8
katman 1
370
     0
100
AcDbSpline
210
0.0
220
0.0
230
1.0
 70
    11
 71
     3
 72
    68
 73
    64
 74
     0
 42
0.0000000001
 43
0.0000000001
 12
1.0
 22
0.0
 32
0.0
 13
1.0
 23
0.0
 33
0.0
 40
0.0
 40
0.0
 40
0.0
 40
0.0
 40
1.0
 40
1.0
 40
1.0
 40
2.0
 40
2.0
 40
2.0
 40
3.0
 40
3.0
 40
3.0
 40
4.0
 40
4.0
 40
4.0
 40
5.0
 40
5.0
 40
5.0
 40
6.0
 40
6.0
 40
6.0
 40
7.0
 40
7.0
 40
7.0
 40
8.0
 40
8.0
 40
8.0
 40
9.0
 40
9.0
 40
9.0
 40
10.0
 40
10.0
 40
10.0
 40
11.0
 40
11.0
 40
11.0
 40
12.0
 40
12.0
 40
12.0
 40
13.0
 40
13.0
 40
13.0
 40
14.0
 40
14.0
 40
14.0
 40
15.0
 40
15.0
 40
15.0
 40
16.0
 40
16.0
 40
16.0
 40
17.0
 40
17.0
 40
17.0
 40
18.0
 40
18.0
 40
18.0
 40
19.0
 40
19.0
 40
19.0
 40
20.0
 40
20.0
 40
20.0
 40
21.0
 40
21.0
 40
21.0
 40
21.0
 10
796.0499925875083
 20
-921.9644282620129
 30
0.0
 10
793.2978545281949
 20
-933.5510855215352
 30
0.0
 10
786.5978443448139
 20
-948.2340735982107
 30
0.0
 10
775.9586509640621
 20
-966.0068493063854
 30
0.0
 10
764.3993320348791
 20
-985.3816193836492
 30
0.0
 10
757.0582750919393
 20
-999.6600955375816
 30
0.0
 10
753.9406987893872
 20
-1008.847920272408
 30
0.0
 10
753.9406987893872
 20
-1008.847920272408
 30
0.0
 10
756.4181025231755
 20
-1010.646501608011
 30
0.0
 10
756.4181025231755
 20
-1010.646501608011
 30
0.0
 10
763.7543911526845
 20
-1008.044115081066
 30
0.0
 10
770.3163586622331
 20
-1002.078901997427
 30
0.0
 10
776.0962432971819
 20
-992.7608758152983
 30
0.0
 10
781.8761279321297
 20
-983.4419754423743
 30
0.0
 10
785.3166250164913
 20
-978.4823996613668
 30
0.0
 10
786.4173107001843
 20
-977.8812742814789
 30
0.0
 10
786.4173107001843
 20
-977.8812742814789
 30
0.0
 10
787.5179963838764
 20
-977.8812742814789
 30
0.0
 10
787.5179963838764
 20
-977.8812742814789
 30
0.0
 10
788.2488993609823
 20
-978.8860373933139
 30
0.0
 10
788.6191059176517
 20
-979.9854250361277
 30
0.0
 10
788.6191059176517
 20
-981.1876493052741
 30
0.0
 10
788.6191059176517
 20
-989.4071620353843
 30
0.0
 10
782.1942804005084
 20
-1000.679587439793
 30
0.0
 10
769.3532918022902
 20
-1015.005375859215
 30
0.0
 10
756.5079587407226
 20
-1029.335932592066
 30
0.0
 10
746.3249340115526
 20
-1036.498601631421
 30
0.0
 10
738.803316933353
 20
-1036.498601631421
 30
0.0
 10
732.929258108139
 20
-1036.498601631421
 30
0.0
 10
728.8954503797904
 20
-1034.896633752964
 30
0.0
 10
726.693655162323
 20
-1031.68877738278
 30
0.0
 10
726.143312320477
 20
-1030.890164354953
 30
0.0
 10
724.5816896717724
 20
-1026.479633374913
 30
0.0
 10
722.0148800611496
 20
-1018.462376606174
 30
0.0
 10
715.7749326519852
 20
-1030.486526623004
 30
0.0
 10
707.2429364483532
 20
-1036.498628122052
 30
0.0
 10
696.4188384689933
 20
-1036.498628122052
 30
0.0
 10
691.4649051922124
 20
-1036.498628122052
 30
0.0
 10
687.1515948249071
 20
-1034.197016210092
 30
0.0
 10
683.4832253397963
 20
-1029.584653118762
 30
0.0
 10
679.8105378819673
 20
-1024.97663449078
 30
0.0
 10
677.9789492211694
 20
-1019.965401980935
 30
0.0
 10
677.9789492211694
 20
-1014.554452352408
 30
0.0
 10
677.9789492211694
 20
-999.3267639381129
 30
0.0
 10
687.2891606673966
 20
-979.9381127706392
 30
0.0
 10
705.9139280231984
 20
-956.3876246591899
 30
0.0
 10
724.5343509156528
 20
-932.8419048611713
 30
0.0
 10
740.635302953604
 20
-921.0668727304874
 30
0.0
 10
754.2158569649955
 20
-921.0668727304874
 30
0.0
 10
755.8668854905336
 20
-921.0668727304874
 30
0.0
 10
758.4341189512397
 20
-922.119371957895
 30
0.0
 10
761.9223521511731
 20
-924.2235227125448
 30
0.0
 10
765.4058170376757
 20
-926.3276734671945
 30
0.0
 10
768.0672511792764
 20
-927.4834596616465
 30
0.0
 10
769.9035816628757
 20
-927.6800731187914
 30
0.0
 10
771.0042673465687
 20
-927.1076106007504
 30
0.0
 10
771.6453141061274
 20
-925.76387338522
 30
0.0
 10
771.8302187047357
 20
-923.6553781672228
 30
0.0
 10
773.8471093235949
 20
-921.931447427447
 30
0.0
 10
777.7003834073139
 20
-921.0668727304874
 30
0.0
 10
783.3895376339187
 20
-921.0668727304874
 30
0.0
 10
788.8938402431768
 20
-921.0668727304874
 30
0.0
 10
793.1129764202169
 20
-921.3676473454734
 30
0.0
 10
796.0499925875083
 20
-921.9644282620129
 30
0.0
  0
SPLINE
  5
76
330
6E
100
AcDbEntity
  8
katman 1
370
     0
100
AcDbSpline
210
0.0
220
0.0
230
1.0
 70
    11
 71
     3
 72
    29
 73
    25
 74
     0
 42
0.0000000001
 43
0.0000000001
 12
1.0
 22
0.0
 32
0.0
 13
1.0
 23
0.0
 33
0.0
 40
0.0
 40
0.0
 40
0.0
 40
0.0
 40
1.0
 40
1.0
 40
1.0
 40
2.0
 40
2.0
 40
2.0
 40
3.0
 40
3.0
 40
3.0
 40
4.0
 40
4.0
 40
4.0
 40
5.0
 40
5.0
 40
5.0
 40
6.0
 40
6.0
 40
6.0
 40
7.0
 40
7.0
 40
7.0
 40
8.0
 40
8.0
 40
8.0
 40
8.0
 10
764.6745167011168
 20
-936.0970734968414
 30
0.0
 10
764.1237500091875
 20
-933.4951108199793
 30
0.0
 10
762.4727214836494
 20
-932.1891227524457
 30
0.0
 10
759.7205834243359
 20
-932.1891227524457
 30
0.0
 10
757.1490055002814
 20
-932.1891227524457
 30
0.0
 10
754.396867440968
 20
-933.4955346700626
 30
0.0
 10
751.4637453963114
 20
-936.0970734968414
 30
0.0
 10
751.4637453963114
 20
-936.0970734968414
 30
0.0
 10
751.4637453963114
 20
-935.7967227319396
 30
0.0
 10
751.4637453963114
 20
-935.7967227319396
 30
0.0
 10
742.4712360777503
 20
-944.0162354620497
 30
0.0
 10
733.8489333158586
 20
-954.7344239019767
 30
0.0
 10
725.5925191379174
 20
-967.9608246785838
 30
0.0
 10
716.0500908275926
 20
-983.3946631768858
 30
0.0
 10
711.28106214942
 20
-996.3207131885902
 30
0.0
 10
711.28106214942
 20
-1006.738127013534
 30
0.0
 10
711.28106214942
 20
-1010.946852372916
 30
0.0
 10
712.8378899940635
 20
-1013.050976636932
 30
0.0
 10
715.9598372505934
 20
-1013.050976636932
 30
0.0
 10
720.1789734276326
 20
-1013.050976636932
 30
0.0
 10
728.9857304474199
 20
-1001.731238967035
 30
0.0
 10
742.3813798602032
 20
-979.0826508504588
 30
0.0
 10
754.3061635232552
 20
-958.8442067576616
 30
0.0
 10
761.7370501931118
 20
-944.5140738748923
 30
0.0
 10
764.6745167011168
 20
-936.0970734968414
 30
0.0
  0
HATCH
  5
77
330
6E
100
AcDbEntity
  8
katman 1
 62
    96
420
    32768
100
AcDbHatch
 10
0.0
 20
0.0
 30
0.0
210
0.0
220
0.0
230
1.0
  2
SOLID
 70
     1
 71
     0
 91
        2
 92
        1
 93
        1
 72
     4
 94
        3
 73
     0
 74
     1
 95
       68
 96
       64
 40
0.0
 40
0.0
 40
0.0
 40
0.0
 40
1.0
 40
1.0
 40
1.0
 40
2.0
 40
2.0
 40
2.0
 40
3.0
 40
3.0
 40
3.0
 40
4.0
 40
4.0
 40
4.0
 40
5.0
 40
5.0
 40
5.0
 40
6.0
 40
6.0
 40
6.0
 40
7.0
 40
7.0
 40
7.0
 40
8.0
 40
8.0
 40
8.0
 40
9.0
 40
9.0
 40
9.0
 40
10.0
 40
10.0
 40
10.0
 40
11.0
 40
11.0
 40
11.0
 40
12.0
 40
12.0
 40
12.0
 40
13.0
 40
13.0
 40
13.0
 40
14.0
 40
14.0
 40
14.0
 40
15.0
 40
15.0
 40
15.0
 40
16.0
 40
16.0
 40
16.0
 40
17.0
 40
17.0
 40
17.0
 40
18.0
 40
18.0
 40
18.0
 40
19.0
 40
19.0
 40
19.0
 40
20.0
 40
20.0
 40
20.0
 40
21.0
 40
21.0
 40
21.0
 40
21.0
 10
796.0499925875083
 20
-921.9644282620129
 10
793.2978545281949
 20
-933.5510855215352
 10
786.5978443448139
 20
-948.2340735982107
 10
775.9586509640621
 20
-966.0068493063854
 10
764.3993320348791
 20
-985.3816193836492
 10
757.0582750919393
 20
-999.6600955375816
 10
753.9406987893872
 20
-1008.847920272408
 10
753.9406987893872
 20
-1008.847920272408
 10
756.4181025231755
 20
-1010.646501608011
 10
756.4181025231755
 20
-1010.646501608011
 10
763.7543911526845
 20
-1008.044115081066
 10
770.3163586622331
 20
-1002.078901997427
 10
776.0962432971819
 20
-992.7608758152983
 10
781.8761279321297
 20
-983.4419754423743
 10
785.3166250164913
 20
-978.4823996613668
 10
786.4173107001843
 20
-977.8812742814789
 10
786.4173107001843
 20
-977.8812742814789
 10
787.5179963838764
 20
-977.8812742814789
 10
787.5179963838764
 20
-977.8812742814789
 10
788.2488993609823
 20
-978.8860373933139
 10
788.6191059176517
 20
-979.9854250361277
 10
788.6191059176517
 20
-981.1876493052741
 10
788.6191059176517
 20
-989.4071620353843
 10
782.1942804005084
 20
-1000.679587439793
 10
769.3532918022902
 20
-1015.005375859215
 10
756.5079587407226
 20
-1029.335932592066
 10
746.3249340115526
 20
-1036.498601631421
 10
738.803316933353
 20
-1036.498601631421
 10
732.929258108139
 20
-1036.498601631421
 10
728.8954503797904
 20
-1034.896633752964
 10
726.693655162323
 20
-1031.68877738278
 10
726.143312320477
 20
-1030.890164354953
 10
724.5816896717724
 20
-1026.479633374913
 10
722.0148800611496
 20
-1018.462376606174
 10
715.7749326519852
 20
-1030.486526623004
 10
707.2429364483532
 20
-1036.498628122052
 10
696.4188384689933
 20
-1036.498628122052
 10
691.4649051922124
 20
-1036.498628122052
 10
687.1515948249071
 20
-1034.197016210092
 10
683.4832253397963
 20
-1029.584653118762
 10
679.8105378819673
 20
-1024.97663449078
 10
677.9789492211694
 20
-1019.965401980935
 10
677.9789492211694
 20
-1014.554452352408
 10
677.9789492211694
 20
-999.3267639381129
 10
687.2891606673966
 20
-979.9381127706392
 10
705.9139280231984
 20
-956.3876246591899
 10
724.5343509156528
 20
-932.8419048611713
 10
740.635302953604
 20
-921.0668727304874
 10
754.2158569649955
 20
-921.0668727304874
 10
755.8668854905336
 20
-921.0668727304874
 10
758.4341189512397
 20
-922.119371957895
 10
761.9223521511731
 20
-924.2235227125448
 10
765.4058170376757
 20
-926.3276734671945
 10
768.0672511792764
 20
-927.4834596616465
 10
769.9035816628757
 20
-927.6800731187914
 10
771.0042673465687
 20
-927.1076106007504
 10
771.6453141061274
 20
-925.76387338522
 10
771.8302187047357
 20
-923.6553781672228
 10
773.8471093235949
 20
-921.931447427447
 10
777.7003834073139
 20
-921.0668727304874
 10
783.3895376339187
 20
-921.0668727304874
 10
788.8938402431768
 20
-921.0668727304874
 10
793.1129764202169
 20
-921.3676473454734
 10
796.0499925875083
 20
-921.9644282620129
 97
        0
 97
        0
 92
        1
 93
        1
 72
     4
 94
        3
 73
     0
 74
     1
 95
       29
 96
       25
 40
0.0
 40
0.0
 40
0.0
 40
0.0
 40
1.0
 40
1.0
 40
1.0
 40
2.0
 40
2.0
 40
2.0
 40
3.0
 40
3.0
 40
3.0
 40
4.0
 40
4.0
 40
4.0
 40
5.0
 40
5.0
 40
5.0
 40
6.0
 40
6.0
 40
6.0
 40
7.0
 40
7.0
 40
7.0
 40
8.0
 40
8.0
 40
8.0
 40
8.0
 10
764.6745167011168
 20
-936.0970734968414
 10
764.1237500091875
 20
-933.4951108199793
 10
762.4727214836494
 20
-932.1891227524457
 10
759.7205834243359
 20
-932.1891227524457
 10
757.1490055002814
 20
-932.1891227524457
 10
754.396867440968
 20
-933.4955346700626
 10
751.4637453963114
 20
-936.0970734968414
 10
751.4637453963114
 20
-936.0970734968414
 10
751.4637453963114
 20
-935.7967227319396
 10
751.4637453963114
 20
-935.7967227319396
 10
742.4712360777503
 20
-944.0162354620497
 10
733.8489333158586
 20
-954.7344239019767
 10
725.5925191379174
 20
-967.9608246785838
 10
716.0500908275926
 20
-983.3946631768858
 10
711.28106214942
 20
-996.3207131885902
 10
711.28106214942
 20
-1006.738127013534
 10
711.28106214942
 20
-1010.946852372916
 10
712.8378899940635
 20
-1013.050976636932
 10
715.9598372505934
 20
-1013.050976636932
 10
720.1789734276326
 20
-1013.050976636932
 10
728.9857304474199
 20
-1001.731238967035
 10
742.3813798602032
 20
-979.0826508504588
 10
754.3061635232552
 20
-958.8442067576616
 10
761.7370501931118
 20
-944.5140738748923
 10
764.6745167011168
 20
-936.0970734968414
 97
        0
 97
        0
 75
     2
 76
     1
 98
        0
  0
SPLINE
  5
78
330
6E
100
AcDbEntity
  8
katman 1
370
     0
100
AcDbSpline
210
0.0
220
0.0
230
1.0
 70
    11
 71
     3
 72
   113
 73
   109
 74
     0
 42
0.0000000001
 43
0.0000000001
 12
1.0
 22
0.0
 32
0.0
 13
1.0
 23
0.0
 33
0.0
 40
0.0
 40
0.0
 40
0.0
 40
0.0
 40
1.0
 40
1.0
 40
1.0
 40
2.0
 40
2.0
 40
2.0
 40
3.0
 40
3.0
 40
3.0
 40
4.0
 40
4.0
 40
4.0
 40
5.0
 40
5.0
 40
5.0
 40
6.0
 40
6.0
 40
6.0
 40
7.0
 40
7.0
 40
7.0
 40
8.0
 40
8.0
 40
8.0
 40
9.0
 40
9.0
 40
9.0
 40
10.0
 40
10.0
 40
10.0
 40
11.0
 40
11.0
 40
11.0
 40
12.0
 40
12.0
 40
12.0
 40
13.0
 40
13.0
 40
13.0
 40
14.0
 40
14.0
 40
14.0
 40
15.0
 40
15.0
 40
15.0
 40
16.0
 40
16.0
 40
16.0
 40
17.0
 40
17.0
 40
17.0
 40
18.0
 40
18.0
 40
18.0
 40
19.0
 40
19.0
 40
19.0
 40
20.0
 40
20.0
 40
20.0
 40
21.0
 40
21.0
 40
21.0
 40
22.0
 40
22.0
 40
22.0
 40
23.0
 40
23.0
 40
23.0
 40
24.0
 40
24.0
 40
24.0
 40
25.0
 40
25.0
 40
25.0
 40
26.0
 40
26.0
 40
26.0
 40
27.0
 40
27.0
 40
27.0
 40
28.0
 40
28.0
 40
28.0
 40
29.0
 40
29.0
 40
29.0
 40
30.0
 40
30.0
 40
30.0
 40
31.0
 40
31.0
 40
31.0
 40
32.0
 40
32.0
 40
32.0
 40
33.0
 40
33.0
 40
33.0
 40
34.0
 40
34.0
 40
34.0
 40
35.0
 40
35.0
 40
35.0
 40
36.0
 40
36.0
 40
36.0
 40
36.0
 10
910.8172835024388
 20
-995.6163273322873
 30
0.0
 10
910.2664903198802
 20
-1000.026858312328
 30
0.0
 10
906.5512854006229
 20
-1006.391364664567
 30
0.0
 10
899.670715081982
 20
-1014.70462773486
 30
0.0
 10
892.7901447633421
 20
-1023.022659118582
 30
0.0
 10
887.2381325291426
 20
-1028.381554658819
 30
0.0
 10
883.019446692816
 20
-1030.786453537825
 30
0.0
 10
877.1453613769718
 20
-1034.393603176606
 30
0.0
 10
869.5334907217721
 20
-1036.197403166352
 30
0.0
 10
860.1755166693429
 20
-1036.197403166352
 30
0.0
 10
847.695621851014
 20
-1036.197403166352
 30
0.0
 10
841.4600453958283
 20
-1029.884553542952
 30
0.0
 10
841.4600453958283
 20
-1017.259278146234
 30
0.0
 10
841.4600453958283
 20
-1013.454640859512
 30
0.0
 10
845.4942769742593
 20
-1002.933489726813
 30
0.0
 10
853.5701310169406
 20
-985.6958512387628
 30
0.0
 10
861.6420909369863
 20
-968.463431404858
 30
0.0
 10
865.6797927879707
 20
-954.7335497111808
 30
0.0
 10
865.6797927879707
 20
-944.5136235341797
 30
0.0
 10
865.6797927879707
 20
-944.5136235341797
 30
0.0
 10
865.6797927879707
 20
-940.6056727897831
 30
0.0
 10
865.6797927879707
 20
-940.6056727897831
 30
0.0
 10
865.6797927879707
 20
-940.6056727897831
 30
0.0
 10
865.4050319718153
 20
-940.9064474047682
 30
0.0
 10
865.4050319718153
 20
-940.9064474047682
 30
0.0
 10
865.0347989245156
 20
-937.5011033866467
 30
0.0
 10
863.6589815558455
 20
-935.796272391226
 30
0.0
 10
861.2766262031182
 20
-935.796272391226
 30
0.0
 10
861.2766262031182
 20
-935.796272391226
 30
0.0
 10
860.7258330205595
 20
-935.1947231612558
 30
0.0
 10
860.7258330205595
 20
-935.1947231612558
 30
0.0
 10
857.9737214518755
 20
-935.3969791226273
 30
0.0
 10
853.3856502684148
 20
-939.2059608726968
 30
0.0
 10
846.9647188739082
 20
-946.6177742888285
 30
0.0
 10
841.6410028905402
 20
-952.6298492972446
 30
0.0
 10
837.697475229822
 20
-957.7400243107868
 30
0.0
 10
835.1306656191991
 20
-961.9487496701686
 30
0.0
 10
830.1767323424174
 20
-969.9664567796199
 30
0.0
 10
824.9467666992332
 20
-982.1924124171092
 30
0.0
 10
819.4424905806054
 20
-998.6219012504671
 30
0.0
 10
813.0180889135454
 20
-1017.860377035489
 30
0.0
 10
808.5242184109802
 20
-1030.387133778597
 30
0.0
 10
805.9565346095624
 20
-1036.197403166352
 30
0.0
 10
805.9565346095624
 20
-1036.197403166352
 30
0.0
 10
771.8289206638565
 20
-1038.602328535988
 30
0.0
 10
771.8289206638565
 20
-1038.602328535988
 30
0.0
 10
771.8289206638565
 20
-1038.602328535988
 30
0.0
 10
798.8003822652308
 20
-975.7762758266636
 30
0.0
 10
798.8003822652308
 20
-975.7762758266636
 30
0.0
 10
800.2669565328742
 20
-972.7702250771408
 30
0.0
 10
802.469175600424
 20
-968.3132560224067
 30
0.0
 10
805.4061917677154
 20
-962.3996996676051
 30
0.0
 10
808.339313812372
 20
-956.4909116262343
 30
0.0
 10
809.8093583525679
 20
-952.2309798787282
 30
0.0
 10
809.8093583525679
 20
-949.6242488884345
 30
0.0
 10
809.8093583525679
 20
-946.4207369816013
 30
0.0
 10
808.9842811851968
 20
-944.8148484898775
 30
0.0
 10
807.332404959493
 20
-944.8148484898775
 30
0.0
 10
806.5971840096681
 20
-944.8148484898775
 30
0.0
 10
803.7972833441527
 20
-947.721930245074
 30
0.0
 10
798.9379745983497
 20
-953.5321996328312
 30
0.0
 10
794.0743213891983
 20
-959.3467869933056
 30
0.0
 10
790.9997128887871
 20
-962.249550775784
 30
0.0
 10
789.7184670698352
 20
-962.249550775784
 30
0.0
 10
789.5331386211446
 20
-962.0529373186391
 30
0.0
 10
789.1677003779059
 20
-961.8502575071852
 30
0.0
 10
788.6173575360599
 20
-961.6484253958961
 30
0.0
 10
788.6173575360599
 20
-961.6484253958961
 30
0.0
 10
788.3426232105348
 20
-960.7465254010222
 30
0.0
 10
788.3426232105348
 20
-960.7465254010222
 30
0.0
 10
788.7080614537726
 20
-956.941888114301
 30
0.0
 10
793.890290981386
 20
-949.1268873069348
 30
0.0
 10
803.8927820659264
 20
-937.300198447414
 30
0.0
 10
813.8913525372018
 20
-925.4778540512416
 30
0.0
 10
820.5440504550934
 20
-919.5642976964391
 30
0.0
 10
823.8465313562538
 20
-919.5642976964391
 30
0.0
 10
832.1033693842774
 20
-919.5642976964391
 30
0.0
 10
836.2318016436038
 20
-927.2812301909053
 30
0.0
 10
836.2318016436038
 20
-942.7107242258589
 30
0.0
 10
836.2318016436038
 20
-944.514524215605
 30
0.0
 10
836.687519954472
 20
-945.4164242104789
 30
0.0
 10
837.6080958436178
 20
-945.4164242104789
 30
0.0
 10
837.2383131370316
 20
-945.4164242104789
 30
0.0
 10
841.7794959050852
 20
-942.1616794248912
 30
0.0
 10
851.2316441477797
 20
-935.6470241808311
 30
0.0
 10
860.6798982678392
 20
-929.13668690949
 30
0.0
 10
868.1580972031852
 20
-925.8776241511832
 30
0.0
 10
873.6627971718954
 20
-925.8776241511832
 30
0.0
 10
885.7724589429254
 20
-925.8776241511832
 30
0.0
 10
891.8270514127689
 20
-932.5941115065325
 30
0.0
 10
891.8270514127689
 20
-946.0179999310794
 30
0.0
 10
891.8270514127689
 20
-954.6368059297893
 30
0.0
 10
887.9742541603928
 20
-967.5108018532028
 30
0.0
 10
880.2677059929547
 20
-984.6455772242898
 30
0.0
 10
872.5612108067771
 20
-1001.779928745294
 30
0.0
 10
868.7083605731405
 20
-1011.150035506342
 30
0.0
 10
868.7083605731405
 20
-1012.751579534717
 30
0.0
 10
868.7083605731405
 20
-1013.756766496635
 30
0.0
 10
869.8090462568334
 20
-1015.156504904353
 30
0.0
 10
872.0108414743008
 20
-1016.960304894099
 30
0.0
 10
881.5488988306461
 20
-1016.960304894099
 30
0.0
 10
890.4507042314945
 20
-1013.352704914605
 30
0.0
 10
898.7075687501492
 20
-1006.138379146414
 30
0.0
 10
901.2752525515671
 20
-1003.733453776778
 30
0.0
 10
905.2183298715736
 20
-1000.126304137998
 30
0.0
 10
910.5424697050239
 20
-995.3164533987274
 30
0.0
 10
910.5424697050239
 20
-995.3164533987274
 30
0.0
 10
910.8172835024388
 20
-995.6163273322873
 30
0.0
 10
910.8172835024388
 20
-995.6163273322873
 30
0.0
  0
HATCH
  5
79
330
6E
100
AcDbEntity
  8
katman 1
 62
    96
420
    32768
100
AcDbHatch
 10
0.0
 20
0.0
 30
0.0
210
0.0
220
0.0
230
1.0
  2
SOLID
 70
     1
 71
     0
 91
        1
 92
        1
 93
        1
 72
     4
 94
        3
 73
     0
 74
     1
 95
      113
 96
      109
 40
0.0
 40
0.0
 40
0.0
 40
0.0
 40
1.0
 40
1.0
 40
1.0
 40
2.0
 40
2.0
 40
2.0
 40
3.0
 40
3.0
 40
3.0
 40
4.0
 40
4.0
 40
4.0
 40
5.0
 40
5.0
 40
5.0
 40
6.0
 40
6.0
 40
6.0
 40
7.0
 40
7.0
 40
7.0
 40
8.0
 40
8.0
 40
8.0
 40
9.0
 40
9.0
 40
9.0
 40
10.0
 40
10.0
 40
10.0
 40
11.0
 40
11.0
 40
11.0
 40
12.0
 40
12.0
 40
12.0
 40
13.0
 40
13.0
 40
13.0
 40
14.0
 40
14.0
 40
14.0
 40
15.0
 40
15.0
 40
15.0
 40
16.0
 40
16.0
 40
16.0
 40
17.0
 40
17.0
 40
17.0
 40
18.0
 40
18.0
 40
18.0
 40
19.0
 40
19.0
 40
19.0
 40
20.0
 40
20.0
 40
20.0
 40
21.0
 40
21.0
 40
21.0
 40
22.0
 40
22.0
 40
22.0
 40
23.0
 40
23.0
 40
23.0
 40
24.0
 40
24.0
 40
24.0
 40
25.0
 40
25.0
 40
25.0
 40
26.0
 40
26.0
 40
26.0
 40
27.0
 40
27.0
 40
27.0
 40
28.0
 40
28.0
 40
28.0
 40
29.0
 40
29.0
 40
29.0
 40
30.0
 40
30.0
 40
30.0
 40
31.0
 40
31.0
 40
31.0
 40
32.0
 40
32.0
 40
32.0
 40
33.0
 40
33.0
 40
33.0
 40
34.0
 40
34.0
 40
34.0
 40
35.0
 40
35.0
 40
35.0
 40
36.0
 40
36.0
 40
36.0
 40
36.0
 10
910.8172835024388
 20
-995.6163273322873
 10
910.2664903198802
 20
-1000.026858312328
 10
906.5512854006229
 20
-1006.391364664567
 10
899.670715081982
 20
-1014.70462773486
 10
892.7901447633421
 20
-1023.022659118582
 10
887.2381325291426
 20
-1028.381554658819
 10
883.019446692816
 20
-1030.786453537825
 10
877.1453613769718
 20
-1034.393603176606
 10
869.5334907217721
 20
-1036.197403166352
 10
860.1755166693429
 20
-1036.197403166352
 10
847.695621851014
 20
-1036.197403166352
 10
841.4600453958283
 20
-1029.884553542952
 10
841.4600453958283
 20
-1017.259278146234
 10
841.4600453958283
 20
-1013.454640859512
 10
845.4942769742593
 20
-1002.933489726813
 10
853.5701310169406
 20
-985.6958512387628
 10
861.6420909369863
 20
-968.463431404858
 10
865.6797927879707
 20
-954.7335497111808
 10
865.6797927879707
 20
-944.5136235341797
 10
865.6797927879707
 20
-944.5136235341797
 10
865.6797927879707
 20
-940.6056727897831
 10
865.6797927879707
 20
-940.6056727897831
 10
865.6797927879707
 20
-940.6056727897831
 10
865.4050319718153
 20
-940.9064474047682
 10
865.4050319718153
 20
-940.9064474047682
 10
865.0347989245156
 20
-937.5011033866467
 10
863.6589815558455
 20
-935.796272391226
 10
861.2766262031182
 20
-935.796272391226
 10
861.2766262031182
 20
-935.796272391226
 10
860.7258330205595
 20
-935.1947231612558
 10
860.7258330205595
 20
-935.1947231612558
 10
857.9737214518755
 20
-935.3969791226273
 10
853.3856502684148
 20
-939.2059608726968
 10
846.9647188739082
 20
-946.6177742888285
 10
841.6410028905402
 20
-952.6298492972446
 10
837.697475229822
 20
-957.7400243107868
 10
835.1306656191991
 20
-961.9487496701686
 10
830.1767323424174
 20
-969.9664567796199
 10
824.9467666992332
 20
-982.1924124171092
 10
819.4424905806054
 20
-998.6219012504671
 10
813.0180889135454
 20
-1017.860377035489
 10
808.5242184109802
 20
-1030.387133778597
 10
805.9565346095624
 20
-1036.197403166352
 10
805.9565346095624
 20
-1036.197403166352
 10
771.8289206638565
 20
-1038.602328535988
 10
771.8289206638565
 20
-1038.602328535988
 10
771.8289206638565
 20
-1038.602328535988
 10
798.8003822652308
 20
-975.7762758266636
 10
798.8003822652308
 20
-975.7762758266636
 10
800.2669565328742
 20
-972.7702250771408
 10
802.469175600424
 20
-968.3132560224067
 10
805.4061917677154
 20
-962.3996996676051
 10
808.339313812372
 20
-956.4909116262343
 10
809.8093583525679
 20
-952.2309798787282
 10
809.8093583525679
 20
-949.6242488884345
 10
809.8093583525679
 20
-946.4207369816013
 10
808.9842811851968
 20
-944.8148484898775
 10
807.332404959493
 20
-944.8148484898775
 10
806.5971840096681
 20
-944.8148484898775
 10
803.7972833441527
 20
-947.721930245074
 10
798.9379745983497
 20
-953.5321996328312
 10
794.0743213891983
 20
-959.3467869933056
 10
790.9997128887871
 20
-962.249550775784
 10
789.7184670698352
 20
-962.249550775784
 10
789.5331386211446
 20
-962.0529373186391
 10
789.1677003779059
 20
-961.8502575071852
 10
788.6173575360599
 20
-961.6484253958961
 10
788.6173575360599
 20
-961.6484253958961
 10
788.3426232105348
 20
-960.7465254010222
 10
788.3426232105348
 20
-960.7465254010222
 10
788.7080614537726
 20
-956.941888114301
 10
793.890290981386
 20
-949.1268873069348
 10
803.8927820659264
 20
-937.300198447414
 10
813.8913525372018
 20
-925.4778540512416
 10
820.5440504550934
 20
-919.5642976964391
 10
823.8465313562538
 20
-919.5642976964391
 10
832.1033693842774
 20
-919.5642976964391
 10
836.2318016436038
 20
-927.2812301909053
 10
836.2318016436038
 20
-942.7107242258589
 10
836.2318016436038
 20
-944.514524215605
 10
836.687519954472
 20
-945.4164242104789
 10
837.6080958436178
 20
-945.4164242104789
 10
837.2383131370316
 20
-945.4164242104789
 10
841.7794959050852
 20
-942.1616794248912
 10
851.2316441477797
 20
-935.6470241808311
 10
860.6798982678392
 20
-929.13668690949
 10
868.1580972031852
 20
-925.8776241511832
 10
873.6627971718954
 20
-925.8776241511832
 10
885.7724589429254
 20
-925.8776241511832
 10
891.8270514127689
 20
-932.5941115065325
 10
891.8270514127689
 20
-946.0179999310794
 10
891.8270514127689
 20
-954.6368059297893
 10
887.9742541603928
 20
-967.5108018532028
 10
880.2677059929547
 20
-984.6455772242898
 10
872.5612108067771
 20
-1001.779928745294
 10
868.7083605731405
 20
-1011.150035506342
 10
868.7083605731405
 20
-1012.751579534717
 10
868.7083605731405
 20
-1013.756766496635
 10
869.8090462568334
 20
-1015.156504904353
 10
872.0108414743008
 20
-1016.960304894099
 10
881.5488988306461
 20
-1016.960304894099
 10
890.4507042314945
 20
-1013.352704914605
 10
898.7075687501492
 20
-1006.138379146414
 10
901.2752525515671
 20
-1003.733453776778
 10
905.2183298715736
 20
-1000.126304137998
 10
910.5424697050239
 20
-995.3164533987274
 10
910.5424697050239
 20
-995.3164533987274
 10
910.8172835024388
 20
-995.6163273322873
 10
910.8172835024388
 20
-995.6163273322873
 97
        0
 97
        0
 75
     2
 76
     1
 98
        0
  0
SPLINE
  5
7A
330
6E
100
AcDbEntity
  8
katman 1
370
     0
100
AcDbSpline
210
0.0
220
0.0
230
1.0
 70
    11
 71
     3
 72
   113
 73
   109
 74
     0
 42
0.0000000001
 43
0.0000000001
 12
1.0
 22
0.0
 32
0.0
 13
1.0
 23
0.0
 33
0.0
 40
0.0
 40
0.0
 40
0.0
 40
0.0
 40
1.0
 40
1.0
 40
1.0
 40
2.0
 40
2.0
 40
2.0
 40
3.0
 40
3.0
 40
3.0
 40
4.0
 40
4.0
 40
4.0
 40
5.0
 40
5.0
 40
5.0
 40
6.0
 40
6.0
 40
6.0
 40
7.0
 40
7.0
 40
7.0
 40
8.0
 40
8.0
 40
8.0
 40
9.0
 40
9.0
 40
9.0
 40
10.0
 40
10.0
 40
10.0
 40
11.0
 40
11.0
 40
11.0
 40
12.0
 40
12.0
 40
12.0
 40
13.0
 40
13.0
 40
13.0
 40
14.0
 40
14.0
 40
14.0
 40
15.0
 40
15.0
 40
15.0
 40
16.0
 40
16.0
 40
16.0
 40
17.0
 40
17.0
 40
17.0
 40
18.0
 40
18.0
 40
18.0
 40
19.0
 40
19.0
 40
19.0
 40
20.0
 40
20.0
 40
20.0
 40
21.0
 40
21.0
 40
21.0
 40
22.0
 40
22.0
 40
22.0
 40
23.0
 40
23.0
 40
23.0
 40
24.0
 40
24.0
 40
24.0
 40
25.0
 40
25.0
 40
25.0
 40
26.0
 40
26.0
 40
26.0
 40
27.0
 40
27.0
 40
27.0
 40
28.0
 40
28.0
 40
28.0
 40
29.0
 40
29.0
 40
29.0
 40
30.0
 40
30.0
 40
30.0
 40
31.0
 40
31.0
 40
31.0
 40
32.0
 40
32.0
 40
32.0
 40
33.0
 40
33.0
 40
33.0
 40
34.0
 40
34.0
 40
34.0
 40
35.0
 40
35.0
 40
35.0
 40
36.0
 40
36.0
 40
36.0
 40
36.0
 10
1033.839611082542
 20
-995.6163273322873
 30
0.0
 10
1033.288817899982
 20
-1000.026858312328
 30
0.0
 10
1029.573612980726
 20
-1006.391364664567
 30
0.0
 10
1022.693042662086
 20
-1014.70462773486
 30
0.0
 10
1015.812472343445
 20
-1023.022659118582
 30
0.0
 10
1010.260460109246
 20
-1028.381554658819
 30
0.0
 10
1006.041774272919
 20
-1030.786453537825
 30
0.0
 10
1000.167688957074
 20
-1034.393603176606
 30
0.0
 10
992.5558183018757
 20
-1036.197403166352
 30
0.0
 10
983.1978442494465
 20
-1036.197403166352
 30
0.0
 10
970.7179494311167
 20
-1036.197403166352
 30
0.0
 10
964.482372975931
 20
-1029.884553542952
 30
0.0
 10
964.482372975931
 20
-1017.259278146234
 30
0.0
 10
964.482372975931
 20
-1013.454640859512
 30
0.0
 10
968.5166310449922
 20
-1002.933489726813
 30
0.0
 10
976.5924585970433
 20
-985.6958512387628
 30
0.0
 10
984.6644185170899
 20
-968.463431404858
 30
0.0
 10
988.7021203680733
 20
-954.7335497111808
 30
0.0
 10
988.7021203680733
 20
-944.5136235341797
 30
0.0
 10
988.7021203680733
 20
-944.5136235341797
 30
0.0
 10
988.7021203680733
 20
-940.6056727897831
 30
0.0
 10
988.7021203680733
 20
-940.6056727897831
 30
0.0
 10
988.7021203680733
 20
-940.6056727897831
 30
0.0
 10
988.427359551918
 20
-940.9064474047682
 30
0.0
 10
988.427359551918
 20
-940.9064474047682
 30
0.0
 10
988.0571265046192
 20
-937.5011033866467
 30
0.0
 10
986.681309135949
 20
-935.796272391226
 30
0.0
 10
984.2989537832218
 20
-935.796272391226
 30
0.0
 10
984.2989537832218
 20
-935.796272391226
 30
0.0
 10
983.7481606006622
 20
-935.1947231612558
 30
0.0
 10
983.7481606006622
 20
-935.1947231612558
 30
0.0
 10
980.996049031979
 20
-935.3969791226273
 30
0.0
 10
976.4079778485184
 20
-939.2059608726968
 30
0.0
 10
969.9870199633806
 20
-946.6177742888285
 30
0.0
 10
964.6633039800136
 20
-952.6298492972446
 30
0.0
 10
960.7197498286641
 20
-957.7400243107868
 30
0.0
 10
958.1529667086716
 20
-961.9487496701686
 30
0.0
 10
953.199059922521
 20
-969.9664567796199
 30
0.0
 10
947.9690677887056
 20
-982.1924124171092
 30
0.0
 10
942.4647916700778
 20
-998.6219012504671
 30
0.0
 10
936.0403900030178
 20
-1017.860377035489
 30
0.0
 10
931.5465195004535
 20
-1030.387133778597
 30
0.0
 10
928.9788356990348
 20
-1036.197403166352
 30
0.0
 10
928.9788356990348
 20
-1036.197403166352
 30
0.0
 10
894.8512217533298
 20
-1038.602328535988
 30
0.0
 10
894.8512217533298
 20
-1038.602328535988
 30
0.0
 10
894.8512217533298
 20
-1038.602328535988
 30
0.0
 10
921.822656864073
 20
-975.7762758266636
 30
0.0
 10
921.822656864073
 20
-975.7762758266636
 30
0.0
 10
923.2892311317164
 20
-972.7702250771408
 30
0.0
 10
925.4914501992671
 20
-968.3132560224067
 30
0.0
 10
928.4284663665585
 20
-962.3996996676051
 30
0.0
 10
931.3616149018453
 20
-956.4909116262343
 30
0.0
 10
932.8316329514109
 20
-952.2309798787282
 30
0.0
 10
932.8316329514109
 20
-949.6242488884345
 30
0.0
 10
932.8316329514109
 20
-946.4207369816013
 30
0.0
 10
932.0065557840389
 20
-944.8148484898775
 30
0.0
 10
930.3546530677049
 20
-944.8148484898775
 30
0.0
 10
929.6194321178809
 20
-944.8148484898775
 30
0.0
 10
926.8195314523655
 20
-947.721930245074
 30
0.0
 10
921.9602491971928
 20
-953.5321996328312
 30
0.0
 10
917.0965694974111
 20
-959.3467869933056
 30
0.0
 10
914.021960997
 20
-962.249550775784
 30
0.0
 10
912.7407681593086
 20
-962.249550775784
 30
0.0
 10
912.5554397106171
 20
-962.0529373186391
 30
0.0
 10
912.189974976749
 20
-961.8502575071852
 30
0.0
 10
911.6396586255332
 20
-961.6484253958961
 30
0.0
 10
911.6396586255332
 20
-961.6484253958961
 30
0.0
 10
911.3648978093779
 20
-960.7465254010222
 30
0.0
 10
911.3648978093779
 20
-960.7465254010222
 30
0.0
 10
911.730362543246
 20
-956.941888114301
 30
0.0
 10
916.9125655802281
 20
-949.1268873069348
 30
0.0
 10
926.9150566647695
 20
-937.300198447414
 30
0.0
 10
936.9132032859616
 20
-925.4778540512416
 30
0.0
 10
943.5663250539365
 20
-919.5642976964391
 30
0.0
 10
946.8688059550959
 20
-919.5642976964391
 30
0.0
 10
955.1256704737498
 20
-919.5642976964391
 30
0.0
 10
959.2540762424469
 20
-927.2812301909053
 30
0.0
 10
959.2540762424469
 20
-942.7107242258589
 30
0.0
 10
959.2540762424469
 20
-944.514524215605
 30
0.0
 10
959.7098210439453
 20
-945.4164242104789
 30
0.0
 10
960.6303704424599
 20
-945.4164242104789
 30
0.0
 10
960.2605612452435
 20
-945.4164242104789
 30
0.0
 10
964.801744013298
 20
-942.1616794248912
 30
0.0
 10
974.2539187466227
 20
-935.6470241808311
 30
0.0
 10
983.7021728666814
 20
-929.13668690949
 30
0.0
 10
991.1803718020274
 20
-925.8776241511832
 30
0.0
 10
996.6850717707375
 20
-925.8776241511832
 30
0.0
 10
1008.794733541767
 20
-925.8776241511832
 30
0.0
 10
1014.849326011612
 20
-932.5941115065325
 30
0.0
 10
1014.849326011612
 20
-946.0179999310794
 30
0.0
 10
1014.849326011612
 20
-954.6368059297893
 30
0.0
 10
1010.996528759235
 20
-967.5108018532028
 30
0.0
 10
1003.289980591797
 20
-984.6455772242898
 30
0.0
 10
995.5834854056193
 20
-1001.779928745294
 30
0.0
 10
991.7306351719835
 20
-1011.150035506342
 30
0.0
 10
991.7306351719835
 20
-1012.751579534717
 30
0.0
 10
991.7306351719835
 20
-1013.756766496635
 30
0.0
 10
992.8313208556756
 20
-1015.156504904353
 30
0.0
 10
995.033116073143
 20
-1016.960304894099
 30
0.0
 10
1004.571173429489
 20
-1016.960304894099
 30
0.0
 10
1013.472978830338
 20
-1013.352704914605
 30
0.0
 10
1021.729843348992
 20
-1006.138379146414
 30
0.0
 10
1024.297103300327
 20
-1003.733453776778
 30
0.0
 10
1028.240604470415
 20
-1000.126304137998
 30
0.0
 10
1033.564744303865
 20
-995.3164533987274
 30
0.0
 10
1033.564744303865
 20
-995.3164533987274
 30
0.0
 10
1033.839611082542
 20
-995.6163273322873
 30
0.0
 10
1033.839611082542
 20
-995.6163273322873
 30
0.0
  0
HATCH
  5
7B
330
6E
100
AcDbEntity
  8
katman 1
 62
    96
420
    32768
100
AcDbHatch
 10
0.0
 20
0.0
 30
0.0
210
0.0
220
0.0
230
1.0
  2
SOLID
 70
     1
 71
     0
 91
        1
 92
        1
 93
        1
 72
     4
 94
        3
 73
     0
 74
     1
 95
      113
 96
      109
 40
0.0
 40
0.0
 40
0.0
 40
0.0
 40
1.0
 40
1.0
 40
1.0
 40
2.0
 40
2.0
 40
2.0
 40
3.0
 40
3.0
 40
3.0
 40
4.0
 40
4.0
 40
4.0
 40
5.0
 40
5.0
 40
5.0
 40
6.0
 40
6.0
 40
6.0
 40
7.0
 40
7.0
 40
7.0
 40
8.0
 40
8.0
 40
8.0
 40
9.0
 40
9.0
 40
9.0
 40
10.0
 40
10.0
 40
10.0
 40
11.0
 40
11.0
 40
11.0
 40
12.0
 40
12.0
 40
12.0
 40
13.0
 40
13.0
 40
13.0
 40
14.0
 40
14.0
 40
14.0
 40
15.0
 40
15.0
 40
15.0
 40
16.0
 40
16.0
 40
16.0
 40
17.0
 40
17.0
 40
17.0
 40
18.0
 40
18.0
 40
18.0
 40
19.0
 40
19.0
 40
19.0
 40
20.0
 40
20.0
 40
20.0
 40
21.0
 40
21.0
 40
21.0
 40
22.0
 40
22.0
 40
22.0
 40
23.0
 40
23.0
 40
23.0
 40
24.0
 40
24.0
 40
24.0
 40
25.0
 40
25.0
 40
25.0
 40
26.0
 40
26.0
 40
26.0
 40
27.0
 40
27.0
 40
27.0
 40
28.0
 40
28.0
 40
28.0
 40
29.0
 40
29.0
 40
29.0
 40
30.0
 40
30.0
 40
30.0
 40
31.0
 40
31.0
 40
31.0
 40
32.0
 40
32.0
 40
32.0
 40
33.0
 40
33.0
 40
33.0
 40
34.0
 40
34.0
 40
34.0
 40
35.0
 40
35.0
 40
35.0
 40
36.0
 40
36.0
 40
36.0
 40
36.0
 10
1033.839611082542
 20
-995.6163273322873
 10
1033.288817899982
 20
-1000.026858312328
 10
1029.573612980726
 20
-1006.391364664567
 10
1022.693042662086
 20
-1014.70462773486
 10
1015.812472343445
 20
-1023.022659118582
 10
1010.260460109246
 20
-1028.381554658819
 10
1006.041774272919
 20
-1030.786453537825
 10
1000.167688957074
 20
-1034.393603176606
 10
992.5558183018757
 20
-1036.197403166352
 10
983.1978442494465
 20
-1036.197403166352
 10
970.7179494311167
 20
-1036.197403166352
 10
964.482372975931
 20
-1029.884553542952
 10
964.482372975931
 20
-1017.259278146234
 10
964.482372975931
 20
-1013.454640859512
 10
968.5166310449922
 20
-1002.933489726813
 10
976.5924585970433
 20
-985.6958512387628
 10
984.6644185170899
 20
-968.463431404858
 10
988.7021203680733
 20
-954.7335497111808
 10
988.7021203680733
 20
-944.5136235341797
 10
988.7021203680733
 20
-944.5136235341797
 10
988.7021203680733
 20
-940.6056727897831
 10
988.7021203680733
 20
-940.6056727897831
 10
988.7021203680733
 20
-940.6056727897831
 10
988.427359551918
 20
-940.9064474047682
 10
988.427359551918
 20
-940.9064474047682
 10
988.0571265046192
 20
-937.5011033866467
 10
986.681309135949
 20
-935.796272391226
 10
984.2989537832218
 20
-935.796272391226
 10
984.2989537832218
 20
-935.796272391226
 10
983.7481606006622
 20
-935.1947231612558
 10
983.7481606006622
 20
-935.1947231612558
 10
980.996049031979
 20
-935.3969791226273
 10
976.4079778485184
 20
-939.2059608726968
 10
969.9870199633806
 20
-946.6177742888285
 10
964.6633039800136
 20
-952.6298492972446
 10
960.7197498286641
 20
-957.7400243107868
 10
958.1529667086716
 20
-961.9487496701686
 10
953.199059922521
 20
-969.9664567796199
 10
947.9690677887056
 20
-982.1924124171092
 10
942.4647916700778
 20
-998.6219012504671
 10
936.0403900030178
 20
-1017.860377035489
 10
931.5465195004535
 20
-1030.387133778597
 10
928.9788356990348
 20
-1036.197403166352
 10
928.9788356990348
 20
-1036.197403166352
 10
894.8512217533298
 20
-1038.602328535988
 10
894.8512217533298
 20
-1038.602328535988
 10
894.8512217533298
 20
-1038.602328535988
 10
921.822656864073
 20
-975.7762758266636
 10
921.822656864073
 20
-975.7762758266636
 10
923.2892311317164
 20
-972.7702250771408
 10
925.4914501992671
 20
-968.3132560224067
 10
928.4284663665585
 20
-962.3996996676051
 10
931.3616149018453
 20
-956.4909116262343
 10
932.8316329514109
 20
-952.2309798787282
 10
932.8316329514109
 20
-949.6242488884345
 10
932.8316329514109
 20
-946.4207369816013
 10
932.0065557840389
 20
-944.8148484898775
 10
930.3546530677049
 20
-944.8148484898775
 10
929.6194321178809
 20
-944.8148484898775
 10
926.8195314523655
 20
-947.721930245074
 10
921.9602491971928
 20
-953.5321996328312
 10
917.0965694974111
 20
-959.3467869933056
 10
914.021960997
 20
-962.249550775784
 10
912.7407681593086
 20
-962.249550775784
 10
912.5554397106171
 20
-962.0529373186391
 10
912.189974976749
 20
-961.8502575071852
 10
911.6396586255332
 20
-961.6484253958961
 10
911.6396586255332
 20
-961.6484253958961
 10
911.3648978093779
 20
-960.7465254010222
 10
911.3648978093779
 20
-960.7465254010222
 10
911.730362543246
 20
-956.941888114301
 10
916.9125655802281
 20
-949.1268873069348
 10
926.9150566647695
 20
-937.300198447414
 10
936.9132032859616
 20
-925.4778540512416
 10
943.5663250539365
 20
-919.5642976964391
 10
946.8688059550959
 20
-919.5642976964391
 10
955.1256704737498
 20
-919.5642976964391
 10
959.2540762424469
 20
-927.2812301909053
 10
959.2540762424469
 20
-942.7107242258589
 10
959.2540762424469
 20
-944.514524215605
 10
959.7098210439453
 20
-945.4164242104789
 10
960.6303704424599
 20
-945.4164242104789
 10
960.2605612452435
 20
-945.4164242104789
 10
964.801744013298
 20
-942.1616794248912
 10
974.2539187466227
 20
-935.6470241808311
 10
983.7021728666814
 20
-929.13668690949
 10
991.1803718020274
 20
-925.8776241511832
 10
996.6850717707375
 20
-925.8776241511832
 10
1008.794733541767
 20
-925.8776241511832
 10
1014.849326011612
 20
-932.5941115065325
 10
1014.849326011612
 20
-946.0179999310794
 10
1014.849326011612
 20
-954.6368059297893
 10
1010.996528759235
 20
-967.5108018532028
 10
1003.289980591797
 20
-984.6455772242898
 10
995.5834854056193
 20
-1001.779928745294
 10
991.7306351719835
 20
-1011.150035506342
 10
991.7306351719835
 20
-1012.751579534717
 10
991.7306351719835
 20
-1013.756766496635
 10
992.8313208556756
 20
-1015.156504904353
 10
995.033116073143
 20
-1016.960304894099
 10
1004.571173429489
 20
-1016.960304894099
 10
1013.472978830338
 20
-1013.352704914605
 10
1021.729843348992
 20
-1006.138379146414
 10
1024.297103300327
 20
-1003.733453776778
 10
1028.240604470415
 20
-1000.126304137998
 10
1033.564744303865
 20
-995.3164533987274
 10
1033.564744303865
 20
-995.3164533987274
 10
1033.839611082542
 20
-995.6163273322873
 10
1033.839611082542
 20
-995.6163273322873
 97
        0
 97
        0
 75
     2
 76
     1
 98
        0
  0
SPLINE
  5
7C
330
6E
100
AcDbEntity
  8
katman 1
370
     0
100
AcDbSpline
210
0.0
220
0.0
230
1.0
 70
    11
 71
     3
 72
    68
 73
    64
 74
     0
 42
0.0000000001
 43
0.0000000001
 12
1.0
 22
0.0
 32
0.0
 13
1.0
 23
0.0
 33
0.0
 40
0.0
 40
0.0
 40
0.0
 40
0.0
 40
1.0
 40
1.0
 40
1.0
 40
2.0
 40
2.0
 40
2.0
 40
3.0
 40
3.0
 40
3.0
 40
4.0
 40
4.0
 40
4.0
 40
5.0
 40
5.0
 40
5.0
 40
6.0
 40
6.0
 40
6.0
 40
7.0
 40
7.0
 40
7.0
 40
8.0
 40
8.0
 40
8.0
 40
9.0
 40
9.0
 40
9.0
 40
10.0
 40
10.0
 40
10.0
 40
11.0
 40
11.0
 40
11.0
 40
12.0
 40
12.0
 40
12.0
 40
13.0
 40
13.0
 40
13.0
 40
14.0
 40
14.0
 40
14.0
 40
15.0
 40
15.0
 40
15.0
 40
16.0
 40
16.0
 40
16.0
 40
17.0
 40
17.0
 40
17.0
 40
18.0
 40
18.0
 40
18.0
 40
19.0
 40
19.0
 40
19.0
 40
20.0
 40
20.0
 40
20.0
 40
21.0
 40
21.0
 40
21.0
 40
21.0
 10
1146.954548940426
 20
-921.9644282620129
 30
0.0
 10
1144.202437371743
 20
-933.5510855215352
 30
0.0
 10
1137.502427188361
 20
-948.2340735982107
 30
0.0
 10
1126.863207316979
 20
-966.0068493063854
 30
0.0
 10
1115.303861897166
 20
-985.3816193836492
 30
0.0
 10
1107.962831444856
 20
-999.6600955375816
 30
0.0
 10
1104.845255142305
 20
-1008.847920272408
 30
0.0
 10
1104.845255142305
 20
-1008.847920272408
 30
0.0
 10
1107.322658876094
 20
-1010.646501608011
 30
0.0
 10
1107.322658876094
 20
-1010.646501608011
 30
0.0
 10
1114.658921014972
 20
-1008.044115081066
 30
0.0
 10
1121.22091501515
 20
-1002.078901997427
 30
0.0
 10
1127.000799650099
 20
-992.7608758152983
 30
0.0
 10
1132.780684285048
 20
-983.4419754423743
 30
0.0
 10
1136.221181369408
 20
-978.4823996613668
 30
0.0
 10
1137.321867053102
 20
-977.8812742814789
 30
0.0
 10
1137.321867053102
 20
-977.8812742814789
 30
0.0
 10
1138.422552736794
 20
-977.8812742814789
 30
0.0
 10
1138.422552736794
 20
-977.8812742814789
 30
0.0
 10
1139.15342922327
 20
-978.8860373933139
 30
0.0
 10
1139.523662270569
 20
-979.9854250361277
 30
0.0
 10
1139.523662270569
 20
-981.1876493052741
 30
0.0
 10
1139.523662270569
 20
-989.4071620353843
 30
0.0
 10
1133.098836753426
 20
-1000.679587439793
 30
0.0
 10
1120.257821664578
 20
-1015.005375859215
 30
0.0
 10
1107.412515093642
 20
-1029.335932592066
 30
0.0
 10
1097.22946387384
 20
-1036.498601631421
 30
0.0
 10
1089.70787328627
 20
-1036.498601631421
 30
0.0
 10
1083.833787970427
 20
-1036.498601631421
 30
0.0
 10
1079.800006732708
 20
-1034.896633752964
 30
0.0
 10
1077.59821151524
 20
-1031.68877738278
 30
0.0
 10
1077.047895164025
 20
-1030.890164354953
 30
0.0
 10
1075.48627251532
 20
-1026.479633374913
 30
0.0
 10
1072.919436414068
 20
-1018.462376606174
 30
0.0
 10
1066.679515495533
 20
-1030.486526623004
 30
0.0
 10
1058.147466310642
 20
-1036.498628122052
 30
0.0
 10
1047.323394821911
 20
-1036.498628122052
 30
0.0
 10
1042.36948803576
 20
-1036.498628122052
 30
0.0
 10
1038.056124687195
 20
-1034.197016210092
 30
0.0
 10
1034.387808183345
 20
-1029.584653118762
 30
0.0
 10
1030.715094234885
 20
-1024.97663449078
 30
0.0
 10
1028.883532064716
 20
-1019.965401980935
 30
0.0
 10
1028.883532064716
 20
-1014.554452352408
 30
0.0
 10
1028.883532064716
 20
-999.3267639381129
 30
0.0
 10
1038.193770001573
 20
-979.9381127706392
 30
0.0
 10
1056.818537357376
 20
-956.3876246591899
 30
0.0
 10
1075.43896024983
 20
-932.8419048611713
 30
0.0
 10
1091.539912287782
 20
-921.0668727304874
 30
0.0
 10
1105.120439808543
 20
-921.0668727304874
 30
0.0
 10
1106.771441843452
 20
-921.0668727304874
 30
0.0
 10
1109.338701794786
 20
-922.119371957895
 30
0.0
 10
1112.82693499472
 20
-924.2235227125448
 30
0.0
 10
1116.310399881222
 20
-926.3276734671945
 30
0.0
 10
1118.971807532194
 20
-927.4834596616465
 30
0.0
 10
1120.808190997053
 20
-927.6800731187914
 30
0.0
 10
1121.908876680747
 20
-927.1076106007504
 30
0.0
 10
1122.549896949675
 20
-925.76387338522
 30
0.0
 10
1122.734801548282
 20
-923.6553781672228
 30
0.0
 10
1124.751692167141
 20
-921.931447427447
 30
0.0
 10
1128.604966250861
 20
-921.0668727304874
 30
0.0
 10
1134.294146968097
 20
-921.0668727304874
 30
0.0
 10
1139.798423086724
 20
-921.0668727304874
 30
0.0
 10
1144.017108923052
 20
-921.3676473454734
 30
0.0
 10
1146.954548940426
 20
-921.9644282620129
 30
0.0
  0
SPLINE
  5
7D
330
6E
100
AcDbEntity
  8
katman 1
370
     0
100
AcDbSpline
210
0.0
220
0.0
230
1.0
 70
    11
 71
     3
 72
    29
 73
    25
 74
     0
 42
0.0000000001
 43
0.0000000001
 12
1.0
 22
0.0
 32
0.0
 13
1.0
 23
0.0
 33
0.0
 40
0.0
 40
0.0
 40
0.0
 40
0.0
 40
1.0
 40
1.0
 40
1.0
 40
2.0
 40
2.0
 40
2.0
 40
3.0
 40
3.0
 40
3.0
 40
4.0
 40
4.0
 40
4.0
 40
5.0
 40
5.0
 40
5.0
 40
6.0
 40
6.0
 40
6.0
 40
7.0
 40
7.0
 40
7.0
 40
8.0
 40
8.0
 40
8.0
 40
8.0
 10
1115.579099544666
 20
-936.0970734968414
 30
0.0
 10
1115.028306362106
 20
-933.4951108199793
 30
0.0
 10
1113.377304327198
 20
-932.1891227524457
 30
0.0
 10
1110.625192758514
 20
-932.1891227524457
 30
0.0
 10
1108.05358834383
 20
-932.1891227524457
 30
0.0
 10
1105.301476775147
 20
-933.4955346700626
 30
0.0
 10
1102.36832823986
 20
-936.0970734968414
 30
0.0
 10
1102.36832823986
 20
-936.0970734968414
 30
0.0
 10
1102.36832823986
 20
-935.7967227319396
 30
0.0
 10
1102.36832823986
 20
-935.7967227319396
 30
0.0
 10
1093.375818921299
 20
-944.0162354620497
 30
0.0
 10
1084.753542650036
 20
-954.7344239019767
 30
0.0
 10
1076.497101981466
 20
-967.9608246785838
 30
0.0
 10
1066.955124011853
 20
-983.3946631768858
 30
0.0
 10
1062.185644992969
 20
-996.3207131885902
 30
0.0
 10
1062.185644992969
 20
-1006.738127013534
 30
0.0
 10
1062.185644992969
 20
-1010.946852372916
 30
0.0
 10
1063.74249932824
 20
-1013.050976636932
 30
0.0
 10
1066.864420094142
 20
-1013.050976636932
 30
0.0
 10
1071.08352978055
 20
-1013.050976636932
 30
0.0
 10
1079.890286800339
 20
-1001.731238967035
 30
0.0
 10
1093.285962703751
 20
-979.0826508504588
 30
0.0
 10
1105.210719876173
 20
-958.8442067576616
 30
0.0
 10
1112.641606546029
 20
-944.5140738748923
 30
0.0
 10
1115.579099544666
 20
-936.0970734968414
 30
0.0
  0
HATCH
  5
7E
330
6E
100
AcDbEntity
  8
katman 1
 62
    96
420
    32768
100
AcDbHatch
 10
0.0
 20
0.0
 30
0.0
210
0.0
220
0.0
230
1.0
  2
SOLID
 70
     1
 71
     0
 91
        2
 92
        1
 93
        1
 72
     4
 94
        3
 73
     0
 74
     1
 95
       68
 96
       64
 40
0.0
 40
0.0
 40
0.0
 40
0.0
 40
1.0
 40
1.0
 40
1.0
 40
2.0
 40
2.0
 40
2.0
 40
3.0
 40
3.0
 40
3.0
 40
4.0
 40
4.0
 40
4.0
 40
5.0
 40
5.0
 40
5.0
 40
6.0
 40
6.0
 40
6.0
 40
7.0
 40
7.0
 40
7.0
 40
8.0
 40
8.0
 40
8.0
 40
9.0
 40
9.0
 40
9.0
 40
10.0
 40
10.0
 40
10.0
 40
11.0
 40
11.0
 40
11.0
 40
12.0
 40
12.0
 40
12.0
 40
13.0
 40
13.0
 40
13.0
 40
14.0
 40
14.0
 40
14.0
 40
15.0
 40
15.0
 40
15.0
 40
16.0
 40
16.0
 40
16.0
 40
17.0
 40
17.0
 40
17.0
 40
18.0
 40
18.0
 40
18.0
 40
19.0
 40
19.0
 40
19.0
 40
20.0
 40
20.0
 40
20.0
 40
21.0
 40
21.0
 40
21.0
 40
21.0
 10
1146.954548940426
 20
-921.9644282620129
 10
1144.202437371743
 20
-933.5510855215352
 10
1137.502427188361
 20
-948.2340735982107
 10
1126.863207316979
 20
-966.0068493063854
 10
1115.303861897166
 20
-985.3816193836492
 10
1107.962831444856
 20
-999.6600955375816
 10
1104.845255142305
 20
-1008.847920272408
 10
1104.845255142305
 20
-1008.847920272408
 10
1107.322658876094
 20
-1010.646501608011
 10
1107.322658876094
 20
-1010.646501608011
 10
1114.658921014972
 20
-1008.044115081066
 10
1121.22091501515
 20
-1002.078901997427
 10
1127.000799650099
 20
-992.7608758152983
 10
1132.780684285048
 20
-983.4419754423743
 10
1136.221181369408
 20
-978.4823996613668
 10
1137.321867053102
 20
-977.8812742814789
 10
1137.321867053102
 20
-977.8812742814789
 10
1138.422552736794
 20
-977.8812742814789
 10
1138.422552736794
 20
-977.8812742814789
 10
1139.15342922327
 20
-978.8860373933139
 10
1139.523662270569
 20
-979.9854250361277
 10
1139.523662270569
 20
-981.1876493052741
 10
1139.523662270569
 20
-989.4071620353843
 10
1133.098836753426
 20
-1000.679587439793
 10
1120.257821664578
 20
-1015.005375859215
 10
1107.412515093642
 20
-1029.335932592066
 10
1097.22946387384
 20
-1036.498601631421
 10
1089.70787328627
 20
-1036.498601631421
 10
1083.833787970427
 20
-1036.498601631421
 10
1079.800006732708
 20
-1034.896633752964
 10
1077.59821151524
 20
-1031.68877738278
 10
1077.047895164025
 20
-1030.890164354953
 10
1075.48627251532
 20
-1026.479633374913
 10
1072.919436414068
 20
-1018.462376606174
 10
1066.679515495533
 20
-1030.486526623004
 10
1058.147466310642
 20
-1036.498628122052
 10
1047.323394821911
 20
-1036.498628122052
 10
1042.36948803576
 20
-1036.498628122052
 10
1038.056124687195
 20
-1034.197016210092
 10
1034.387808183345
 20
-1029.584653118762
 10
1030.715094234885
 20
-1024.97663449078
 10
1028.883532064716
 20
-1019.965401980935
 10
1028.883532064716
 20
-1014.554452352408
 10
1028.883532064716
 20
-999.3267639381129
 10
1038.193770001573
 20
-979.9381127706392
 10
1056.818537357376
 20
-956.3876246591899
 10
1075.43896024983
 20
-932.8419048611713
 10
1091.539912287782
 20
-921.0668727304874
 10
1105.120439808543
 20
-921.0668727304874
 10
1106.771441843452
 20
-921.0668727304874
 10
1109.338701794786
 20
-922.119371957895
 10
1112.82693499472
 20
-924.2235227125448
 10
1116.310399881222
 20
-926.3276734671945
 10
1118.971807532194
 20
-927.4834596616465
 10
1120.808190997053
 20
-927.6800731187914
 10
1121.908876680747
 20
-927.1076106007504
 10
1122.549896949675
 20
-925.76387338522
 10
1122.734801548282
 20
-923.6553781672228
 10
1124.751692167141
 20
-921.931447427447
 10
1128.604966250861
 20
-921.0668727304874
 10
1134.294146968097
 20
-921.0668727304874
 10
1139.798423086724
 20
-921.0668727304874
 10
1144.017108923052
 20
-921.3676473454734
 10
1146.954548940426
 20
-921.9644282620129
 97
        0
 97
        0
 92
        1
 93
        1
 72
     4
 94
        3
 73
     0
 74
     1
 95
       29
 96
       25
 40
0.0
 40
0.0
 40
0.0
 40
0.0
 40
1.0
 40
1.0
 40
1.0
 40
2.0
 40
2.0
 40
2.0
 40
3.0
 40
3.0
 40
3.0
 40
4.0
 40
4.0
 40
4.0
 40
5.0
 40
5.0
 40
5.0
 40
6.0
 40
6.0
 40
6.0
 40
7.0
 40
7.0
 40
7.0
 40
8.0
 40
8.0
 40
8.0
 40
8.0
 10
1115.579099544666
 20
-936.0970734968414
 10
1115.028306362106
 20
-933.4951108199793
 10
1113.377304327198
 20
-932.1891227524457
 10
1110.625192758514
 20
-932.1891227524457
 10
1108.05358834383
 20
-932.1891227524457
 10
1105.301476775147
 20
-933.4955346700626
 10
1102.36832823986
 20
-936.0970734968414
 10
1102.36832823986
 20
-936.0970734968414
 10
1102.36832823986
 20
-935.7967227319396
 10
1102.36832823986
 20
-935.7967227319396
 10
1093.375818921299
 20
-944.0162354620497
 10
1084.753542650036
 20
-954.7344239019767
 10
1076.497101981466
 20
-967.9608246785838
 10
1066.955124011853
 20
-983.3946631768858
 10
1062.185644992969
 20
-996.3207131885902
 10
1062.185644992969
 20
-1006.738127013534
 10
1062.185644992969
 20
-1010.946852372916
 10
1063.74249932824
 20
-1013.050976636932
 10
1066.864420094142
 20
-1013.050976636932
 10
1071.08352978055
 20
-1013.050976636932
 10
1079.890286800339
 20
-1001.731238967035
 10
1093.285962703751
 20
-979.0826508504588
 10
1105.210719876173
 20
-958.8442067576616
 10
1112.641606546029
 20
-944.5140738748923
 10
1115.579099544666
 20
-936.0970734968414
 97
        0
 97
        0
 75
     2
 76
     1
 98
        0
  0
SPLINE
  5
7F
330
6E
100
AcDbEntity
  8
katman 1
370
     0
100
AcDbSpline
210
0.0
220
0.0
230
1.0
 70
    11
 71
     3
 72
    56
 73
    52
 74
     0
 42
0.0000000001
 43
0.0000000001
 12
1.0
 22
0.0
 32
0.0
 13
1.0
 23
0.0
 33
0.0
 40
0.0
 40
0.0
 40
0.0
 40
0.0
 40
1.0
 40
1.0
 40
1.0
 40
2.0
 40
2.0
 40
2.0
 40
3.0
 40
3.0
 40
3.0
 40
4.0
 40
4.0
 40
4.0
 40
5.0
 40
5.0
 40
5.0
 40
6.0
 40
6.0
 40
6.0
 40
7.0
 40
7.0
 40
7.0
 40
8.0
 40
8.0
 40
8.0
 40
9.0
 40
9.0
 40
9.0
 40
10.0
 40
10.0
 40
10.0
 40
11.0
 40
11.0
 40
11.0
 40
12.0
 40
12.0
 40
12.0
 40
13.0
 40
13.0
 40
13.0
 40
14.0
 40
14.0
 40
14.0
 40
15.0
 40
15.0
 40
15.0
 40
16.0
 40
16.0
 40
16.0
 40
17.0
 40
17.0
 40
17.0
 40
17.0
 10
1246.584431508692
 20
-837.8001067216801
 30
0.0
 10
1246.584431508692
 20
-837.8001067216801
 30
0.0
 10
1221.814314784073
 20
-894.6136473271908
 30
0.0
 10
1221.814314784073
 20
-894.6136473271908
 30
0.0
 10
1219.793079701865
 20
-900.625722335606
 30
0.0
 10
1216.214566434302
 20
-908.9442040600425
 30
0.0
 10
1211.080947213057
 20
-919.5638738463567
 30
0.0
 10
1211.080947213057
 20
-919.5638738463567
 30
0.0
 10
1208.328835644374
 20
-923.1710234851371
 30
0.0
 10
1208.328835644374
 20
-923.1710234851371
 30
0.0
 10
1208.50897192955
 20
-923.1710234851371
 30
0.0
 10
1208.603119629184
 20
-923.3732794465086
 30
0.0
 10
1208.603119629184
 20
-923.7725727151083
 30
0.0
 10
1208.603119629184
 20
-923.7725727151083
 30
0.0
 10
1211.080947213057
 20
-923.7725727151083
 30
0.0
 10
1211.080947213057
 20
-923.7725727151083
 30
0.0
 10
1213.096990131751
 20
-923.7725727151083
 30
0.0
 10
1216.171598632161
 20
-923.2231040640581
 30
0.0
 10
1220.300004400859
 20
-922.1189481078127
 30
0.0
 10
1224.428410169556
 20
-921.0195604649989
 30
0.0
 10
1227.49915103796
 20
-920.4653235005171
 30
0.0
 10
1229.520386120168
 20
-920.4653235005171
 30
0.0
 10
1234.289865139053
 20
-920.4653235005171
 30
0.0
 10
1238.005546889653
 20
-922.4240671861462
 30
0.0
 10
1240.667378390708
 20
-926.341130707322
 30
0.0
 10
1243.32444157833
 20
-930.2586180785811
 30
0.0
 10
1244.657344126121
 20
-934.9321745256102
 30
0.0
 10
1244.657344126121
 20
-940.3570317349786
 30
0.0
 10
1244.657344126121
 20
-954.2223070394703
 30
0.0
 10
1241.355287075043
 20
-969.0880274830797
 30
0.0
 10
1234.749053722475
 20
-984.9584845478939
 30
0.0
 10
1228.143668070072
 20
-1000.829391953423
 30
0.0
 10
1219.977083619047
 20
-1013.285842564048
 30
0.0
 10
1210.254121664093
 20
-1022.322617725629
 30
0.0
 10
1197.593666710505
 20
-1034.177942956367
 30
0.0
 10
1182.912877356133
 20
-1040.105380401379
 30
0.0
 10
1166.218217314743
 20
-1040.105380401379
 30
0.0
 10
1147.31784144262
 20
-1040.105380401379
 30
0.0
 10
1137.870488003988
 20
-1030.47182432326
 30
0.0
 10
1137.870488003988
 20
-1011.205559867185
 30
0.0
 10
1137.870488003988
 20
-1005.385753852566
 30
0.0
 10
1149.610340577801
 20
-978.4915389287762
 30
0.0
 10
1173.098787633384
 20
-930.5216435455695
 30
0.0
 10
1187.225340023273
 20
-901.4243353634347
 30
0.0
 10
1201.903109445804
 20
-872.3222588678691
 30
0.0
 10
1217.134691982734
 20
-843.2206327130152
 30
0.0
 10
1222.638968101361
 20
-839.4064455541175
 30
0.0
 10
1227.408447120248
 20
-837.4993453520101
 30
0.0
 10
1231.446572821314
 20
-837.4993453520101
 30
0.0
 10
1232.177926139135
 20
-837.4993188613798
 30
0.0
 10
1237.226934287606
 20
-837.6030561691377
 30
0.0
 10
1246.584431508692
 20
-837.8001067216801
 30
0.0
  0
SPLINE
  5
80
330
6E
100
AcDbEntity
  8
katman 1
370
     0
100
AcDbSpline
210
0.0
220
0.0
230
1.0
 70
    11
 71
     3
 72
    38
 73
    34
 74
     0
 42
0.0000000001
 43
0.0000000001
 12
1.0
 22
0.0
 32
0.0
 13
1.0
 23
0.0
 33
0.0
 40
0.0
 40
0.0
 40
0.0
 40
0.0
 40
1.0
 40
1.0
 40
1.0
 40
2.0
 40
2.0
 40
2.0
 40
3.0
 40
3.0
 40
3.0
 40
4.0
 40
4.0
 40
4.0
 40
5.0
 40
5.0
 40
5.0
 40
6.0
 40
6.0
 40
6.0
 40
7.0
 40
7.0
 40
7.0
 40
8.0
 40
8.0
 40
8.0
 40
9.0
 40
9.0
 40
9.0
 40
10.0
 40
10.0
 40
10.0
 40
11.0
 40
11.0
 40
11.0
 40
11.0
 10
1218.510986182748
 20
-934.8948492276959
 30
0.0
 10
1218.510986182748
 20
-934.8948492276959
 30
0.0
 10
1218.235377666428
 20
-935.1951999925986
 30
0.0
 10
1218.235377666428
 20
-935.1951999925986
 30
0.0
 10
1217.865568469209
 20
-931.5880503538183
 30
0.0
 10
1216.034006299042
 20
-929.7846742141537
 30
0.0
 10
1212.731101547799
 20
-929.7846742141537
 30
0.0
 10
1210.344401731723
 20
-929.7846742141537
 30
0.0
 10
1207.867421848019
 20
-930.690918672376
 30
0.0
 10
1205.300638728026
 20
-932.4994869755537
 30
0.0
 10
1200.897048293091
 20
-938.9342994602721
 30
0.0
 10
1194.471798925864
 20
-951.8082688930563
 30
0.0
 10
1186.034798122033
 20
-971.1127328378398
 30
0.0
 10
1177.042712653556
 20
-991.6285338285497
 30
0.0
 10
1172.548842150991
 20
-1004.705209563419
 30
0.0
 10
1172.548842150991
 20
-1010.331872393446
 30
0.0
 10
1172.548842150991
 20
-1012.746334389944
 30
0.0
 10
1173.649527834683
 20
-1013.95335346315
 30
0.0
 10
1175.850899202069
 20
-1013.95335346315
 30
0.0
 10
1178.419006853568
 20
-1013.95335346315
 30
0.0
 10
1181.630783837016
 20
-1012.243303813586
 30
0.0
 10
1185.483581089393
 20
-1008.824078705253
 30
0.0
 10
1194.471322094521
 20
-1000.778609415381
 30
0.0
 10
1202.087113362988
 20
-990.2149408212526
 30
0.0
 10
1208.327934962948
 20
-977.1382650863834
 30
0.0
 10
1215.113456900526
 20
-963.2590822010507
 30
0.0
 10
1218.510562332665
 20
-950.3846889181832
 30
0.0
 10
1218.510562332665
 20
-938.5159064473173
 30
0.0
 10
1218.510562332665
 20
-938.5159064473173
 30
0.0
 10
1218.510562332665
 20
-934.8948492276959
 30
0.0
 10
1218.510562332665
 20
-934.8948492276959
 30
0.0
 10
1218.510562332665
 20
-934.8948492276959
 30
0.0
 10
1218.510986182748
 20
-934.8948492276959
 30
0.0
 10
1218.510986182748
 20
-934.8948492276959
 30
0.0
  0
HATCH
  5
81
330
6E
100
AcDbEntity
  8
katman 1
 62
    96
420
    32768
100
AcDbHatch
 10
0.0
 20
0.0
 30
0.0
210
0.0
220
0.0
230
1.0
  2
SOLID
 70
     1
 71
     0
 91
        2
 92
        1
 93
        1
 72
     4
 94
        3
 73
     0
 74
     1
 95
       56
 96
       52
 40
0.0
 40
0.0
 40
0.0
 40
0.0
 40
1.0
 40
1.0
 40
1.0
 40
2.0
 40
2.0
 40
2.0
 40
3.0
 40
3.0
 40
3.0
 40
4.0
 40
4.0
 40
4.0
 40
5.0
 40
5.0
 40
5.0
 40
6.0
 40
6.0
 40
6.0
 40
7.0
 40
7.0
 40
7.0
 40
8.0
 40
8.0
 40
8.0
 40
9.0
 40
9.0
 40
9.0
 40
10.0
 40
10.0
 40
10.0
 40
11.0
 40
11.0
 40
11.0
 40
12.0
 40
12.0
 40
12.0
 40
13.0
 40
13.0
 40
13.0
 40
14.0
 40
14.0
 40
14.0
 40
15.0
 40
15.0
 40
15.0
 40
16.0
 40
16.0
 40
16.0
 40
17.0
 40
17.0
 40
17.0
 40
17.0
 10
1246.584431508692
 20
-837.8001067216801
 10
1246.584431508692
 20
-837.8001067216801
 10
1221.814314784073
 20
-894.6136473271908
 10
1221.814314784073
 20
-894.6136473271908
 10
1219.793079701865
 20
-900.625722335606
 10
1216.214566434302
 20
-908.9442040600425
 10
1211.080947213057
 20
-919.5638738463567
 10
1211.080947213057
 20
-919.5638738463567
 10
1208.328835644374
 20
-923.1710234851371
 10
1208.328835644374
 20
-923.1710234851371
 10
1208.50897192955
 20
-923.1710234851371
 10
1208.603119629184
 20
-923.3732794465086
 10
1208.603119629184
 20
-923.7725727151083
 10
1208.603119629184
 20
-923.7725727151083
 10
1211.080947213057
 20
-923.7725727151083
 10
1211.080947213057
 20
-923.7725727151083
 10
1213.096990131751
 20
-923.7725727151083
 10
1216.171598632161
 20
-923.2231040640581
 10
1220.300004400859
 20
-922.1189481078127
 10
1224.428410169556
 20
-921.0195604649989
 10
1227.49915103796
 20
-920.4653235005171
 10
1229.520386120168
 20
-920.4653235005171
 10
1234.289865139053
 20
-920.4653235005171
 10
1238.005546889653
 20
-922.4240671861462
 10
1240.667378390708
 20
-926.341130707322
 10
1243.32444157833
 20
-930.2586180785811
 10
1244.657344126121
 20
-934.9321745256102
 10
1244.657344126121
 20
-940.3570317349786
 10
1244.657344126121
 20
-954.2223070394703
 10
1241.355287075043
 20
-969.0880274830797
 10
1234.749053722475
 20
-984.9584845478939
 10
1228.143668070072
 20
-1000.829391953423
 10
1219.977083619047
 20
-1013.285842564048
 10
1210.254121664093
 20
-1022.322617725629
 10
1197.593666710505
 20
-1034.177942956367
 10
1182.912877356133
 20
-1040.105380401379
 10
1166.218217314743
 20
-1040.105380401379
 10
1147.31784144262
 20
-1040.105380401379
 10
1137.870488003988
 20
-1030.47182432326
 10
1137.870488003988
 20
-1011.205559867185
 10
1137.870488003988
 20
-1005.385753852566
 10
1149.610340577801
 20
-978.4915389287762
 10
1173.098787633384
 20
-930.5216435455695
 10
1187.225340023273
 20
-901.4243353634347
 10
1201.903109445804
 20
-872.3222588678691
 10
1217.134691982734
 20
-843.2206327130152
 10
1222.638968101361
 20
-839.4064455541175
 10
1227.408447120248
 20
-837.4993453520101
 10
1231.446572821314
 20
-837.4993453520101
 10
1232.177926139135
 20
-837.4993188613798
 10
1237.226934287606
 20
-837.6030561691377
 10
1246.584431508692
 20
-837.8001067216801
 97
        0
 97
        0
 92
        1
 93
        1
 72
     4
 94
        3
 73
     0
 74
     1
 95
       38
 96
       34
 40
0.0
 40
0.0
 40
0.0
 40
0.0
 40
1.0
 40
1.0
 40
1.0
 40
2.0
 40
2.0
 40
2.0
 40
3.0
 40
3.0
 40
3.0
 40
4.0
 40
4.0
 40
4.0
 40
5.0
 40
5.0
 40
5.0
 40
6.0
 40
6.0
 40
6.0
 40
7.0
 40
7.0
 40
7.0
 40
8.0
 40
8.0
 40
8.0
 40
9.0
 40
9.0
 40
9.0
 40
10.0
 40
10.0
 40
10.0
 40
11.0
 40
11.0
 40
11.0
 40
11.0
 10
1218.510986182748
 20
-934.8948492276959
 10
1218.510986182748
 20
-934.8948492276959
 10
1218.235377666428
 20
-935.1951999925986
 10
1218.235377666428
 20
-935.1951999925986
 10
1217.865568469209
 20
-931.5880503538183
 10
1216.034006299042
 20
-929.7846742141537
 10
1212.731101547799
 20
-929.7846742141537
 10
1210.344401731723
 20
-929.7846742141537
 10
1207.867421848019
 20
-930.690918672376
 10
1205.300638728026
 20
-932.4994869755537
 10
1200.897048293091
 20
-938.9342994602721
 10
1194.471798925864
 20
-951.8082688930563
 10
1186.034798122033
 20
-971.1127328378398
 10
1177.042712653556
 20
-991.6285338285497
 10
1172.548842150991
 20
-1004.705209563419
 10
1172.548842150991
 20
-1010.331872393446
 10
1172.548842150991
 20
-1012.746334389944
 10
1173.649527834683
 20
-1013.95335346315
 10
1175.850899202069
 20
-1013.95335346315
 10
1178.419006853568
 20
-1013.95335346315
 10
1181.630783837016
 20
-1012.243303813586
 10
1185.483581089393
 20
-1008.824078705253
 10
1194.471322094521
 20
-1000.778609415381
 10
1202.087113362988
 20
-990.2149408212526
 10
1208.327934962948
 20
-977.1382650863834
 10
1215.113456900526
 20
-963.2590822010507
 10
1218.510562332665
 20
-950.3846889181832
 10
1218.510562332665
 20
-938.5159064473173
 10
1218.510562332665
 20
-938.5159064473173
 10
1218.510562332665
 20
-934.8948492276959
 10
1218.510562332665
 20
-934.8948492276959
 10
1218.510562332665
 20
-934.8948492276959
 10
1218.510986182748
 20
-934.8948492276959
 10
1218.510986182748
 20
-934.8948492276959
 97
        0
 97
        0
 75
     2
 76
     1
 98
        0
  0
SPLINE
  5
82
330
6E
100
AcDbEntity
  8
katman 1
370
     0
100
AcDbSpline
210
0.0
220
0.0
230
1.0
 70
    11
 71
     3
 72
    44
 73
    40
 74
     0
 42
0.0000000001
 43
0.0000000001
 12
1.0
 22
0.0
 32
0.0
 13
1.0
 23
0.0
 33
0.0
 40
0.0
 40
0.0
 40
0.0
 40
0.0
 40
1.0
 40
1.0
 40
1.0
 40
2.0
 40
2.0
 40
2.0
 40
3.0
 40
3.0
 40
3.0
 40
4.0
 40
4.0
 40
4.0
 40
5.0
 40
5.0
 40
5.0
 40
6.0
 40
6.0
 40
6.0
 40
7.0
 40
7.0
 40
7.0
 40
8.0
 40
8.0
 40
8.0
 40
9.0
 40
9.0
 40
9.0
 40
10.0
 40
10.0
 40
10.0
 40
11.0
 40
11.0
 40
11.0
 40
12.0
 40
12.0
 40
12.0
 40
13.0
 40
13.0
 40
13.0
 40
13.0
 10
1290.893348292608
 20
-982.9914757856513
 30
0.0
 10
1290.893348292608
 20
-992.0096015435893
 30
0.0
 10
1284.378242707833
 20
-1003.535489297496
 30
0.0
 10
1271.353223701803
 20
-1017.560503101931
 30
0.0
 10
1258.323012532257
 20
-1031.590285219798
 30
0.0
 10
1247.588320429732
 20
-1038.602778876701
 30
0.0
 10
1239.151796457245
 20
-1038.602778876701
 30
0.0
 10
1230.344191737291
 20
-1038.602778876701
 30
0.0
 10
1225.941449002523
 20
-1031.89060949407
 30
0.0
 10
1225.941449002523
 20
-1018.462403096804
 30
0.0
 10
1225.941449002523
 20
-1011.247653478531
 30
0.0
 10
1228.418428886227
 20
-1002.933940067524
 30
0.0
 10
1233.371911822296
 20
-993.5121765776375
 30
0.0
 10
1233.371911822296
 20
-993.5121765776375
 30
0.0
 10
1245.757182109646
 20
-970.0649754332335
 30
0.0
 10
1245.757182109646
 20
-970.0649754332335
 30
0.0
 10
1247.223332527206
 20
-966.4578257944522
 30
0.0
 10
1251.992758564833
 20
-954.4336492869916
 30
0.0
 10
1260.069062948227
 20
-933.9924988921093
 30
0.0
 10
1260.069062948227
 20
-933.9924988921093
 30
0.0
 10
1289.243193957864
 20
-933.9924988921093
 30
0.0
 10
1289.243193957864
 20
-933.9924988921093
 30
0.0
 10
1274.380096086643
 20
-962.4513563964429
 30
0.0
 10
1263.371543849387
 20
-988.1007766083976
 30
0.0
 10
1256.21626569585
 20
-1010.946852372916
 30
0.0
 10
1256.21626569585
 20
-1010.946852372916
 30
0.0
 10
1258.968377264535
 20
-1013.051003127563
 30
0.0
 10
1258.968377264535
 20
-1013.051003127563
 30
0.0
 10
1265.939227650804
 20
-1010.448616600619
 30
0.0
 10
1271.80891552204
 20
-1005.03764048146
 30
0.0
 10
1276.582315154192
 20
-996.8181277513504
 30
0.0
 10
1281.717258906945
 20
-987.6033885362676
 30
0.0
 10
1285.845664675642
 20
-982.0887015999815
 30
0.0
 10
1288.967585441544
 20
-980.2849016102355
 30
0.0
 10
1288.967585441544
 20
-980.2849016102355
 30
0.0
 10
1290.068271125236
 20
-980.2849016102355
 30
0.0
 10
1290.068271125236
 20
-980.2849016102355
 30
0.0
 10
1290.619064307793
 20
-980.8873250310016
 30
0.0
 10
1290.893348292608
 20
-981.788377325709
 30
0.0
 10
1290.893348292608
 20
-982.9914757856513
 30
0.0
  0
SPLINE
  5
83
330
6E
100
AcDbEntity
  8
katman 1
370
     0
100
AcDbSpline
210
0.0
220
0.0
230
1.0
 70
    11
 71
     3
 72
    26
 73
    22
 74
     0
 42
0.0000000001
 43
0.0000000001
 12
1.0
 22
0.0
 32
0.0
 13
1.0
 23
0.0
 33
0.0
 40
0.0
 40
0.0
 40
0.0
 40
0.0
 40
1.0
 40
1.0
 40
1.0
 40
2.0
 40
2.0
 40
2.0
 40
3.0
 40
3.0
 40
3.0
 40
4.0
 40
4.0
 40
4.0
 40
5.0
 40
5.0
 40
5.0
 40
6.0
 40
6.0
 40
6.0
 40
7.0
 40
7.0
 40
7.0
 40
7.0
 10
1304.380628795159
 20
-895.8167457871323
 30
0.0
 10
1304.380628795159
 20
-902.8335839073834
 30
0.0
 10
1303.278618579958
 20
-907.4928089234891
 30
0.0
 10
1301.077247212572
 20
-909.7944473260786
 30
0.0
 10
1298.875875845188
 20
-912.1008540420999
 30
0.0
 10
1294.562141627801
 20
-913.2518719231211
 30
0.0
 10
1288.141183742664
 20
-913.2518719231211
 30
0.0
 10
1280.801000990519
 20
-913.2518719231211
 30
0.0
 10
1277.132207655326
 20
-911.2505842854334
 30
0.0
 10
1277.132207655326
 20
-907.239796914706
 30
0.0
 10
1277.132207655326
 20
-907.239796914706
 30
0.0
 10
1277.132207655326
 20
-894.0129722880156
 30
0.0
 10
1277.132207655326
 20
-894.0129722880156
 30
0.0
 10
1277.132207655326
 20
-891.4110096111535
 30
0.0
 10
1279.424706790505
 20
-888.8559088590673
 30
0.0
 10
1284.012777973967
 20
-886.3476965223872
 30
0.0
 10
1288.597776244325
 20
-883.8442524991387
 30
0.0
 10
1292.26964249262
 20
-882.5903715011555
 30
0.0
 10
1295.021807042564
 20
-882.5903715011555
 30
0.0
 10
1301.25738349775
 20
-882.5899211604419
 30
0.0
 10
1304.380628795159
 20
-887.0004521404826
 30
0.0
 10
1304.380628795159
 20
-895.8167457871323
 30
0.0
  0
HATCH
  5
84
330
6E
100
AcDbEntity
  8
katman 1
 62
    96
420
    32768
100
AcDbHatch
 10
0.0
 20
0.0
 30
0.0
210
0.0
220
0.0
230
1.0
  2
SOLID
 70
     1
 71
     0
 91
        2
 92
        1
 93
        1
 72
     4
 94
        3
 73
     0
 74
     1
 95
       44
 96
       40
 40
0.0
 40
0.0
 40
0.0
 40
0.0
 40
1.0
 40
1.0
 40
1.0
 40
2.0
 40
2.0
 40
2.0
 40
3.0
 40
3.0
 40
3.0
 40
4.0
 40
4.0
 40
4.0
 40
5.0
 40
5.0
 40
5.0
 40
6.0
 40
6.0
 40
6.0
 40
7.0
 40
7.0
 40
7.0
 40
8.0
 40
8.0
 40
8.0
 40
9.0
 40
9.0
 40
9.0
 40
10.0
 40
10.0
 40
10.0
 40
11.0
 40
11.0
 40
11.0
 40
12.0
 40
12.0
 40
12.0
 40
13.0
 40
13.0
 40
13.0
 40
13.0
 10
1290.893348292608
 20
-982.9914757856513
 10
1290.893348292608
 20
-992.0096015435893
 10
1284.378242707833
 20
-1003.535489297496
 10
1271.353223701803
 20
-1017.560503101931
 10
1258.323012532257
 20
-1031.590285219798
 10
1247.588320429732
 20
-1038.602778876701
 10
1239.151796457245
 20
-1038.602778876701
 10
1230.344191737291
 20
-1038.602778876701
 10
1225.941449002523
 20
-1031.89060949407
 10
1225.941449002523
 20
-1018.462403096804
 10
1225.941449002523
 20
-1011.247653478531
 10
1228.418428886227
 20
-1002.933940067524
 10
1233.371911822296
 20
-993.5121765776375
 10
1233.371911822296
 20
-993.5121765776375
 10
1245.757182109646
 20
-970.0649754332335
 10
1245.757182109646
 20
-970.0649754332335
 10
1247.223332527206
 20
-966.4578257944522
 10
1251.992758564833
 20
-954.4336492869916
 10
1260.069062948227
 20
-933.9924988921093
 10
1260.069062948227
 20
-933.9924988921093
 10
1289.243193957864
 20
-933.9924988921093
 10
1289.243193957864
 20
-933.9924988921093
 10
1274.380096086643
 20
-962.4513563964429
 10
1263.371543849387
 20
-988.1007766083976
 10
1256.21626569585
 20
-1010.946852372916
 10
1256.21626569585
 20
-1010.946852372916
 10
1258.968377264535
 20
-1013.051003127563
 10
1258.968377264535
 20
-1013.051003127563
 10
1265.939227650804
 20
-1010.448616600619
 10
1271.80891552204
 20
-1005.03764048146
 10
1276.582315154192
 20
-996.8181277513504
 10
1281.717258906945
 20
-987.6033885362676
 10
1285.845664675642
 20
-982.0887015999815
 10
1288.967585441544
 20
-980.2849016102355
 10
1288.967585441544
 20
-980.2849016102355
 10
1290.068271125236
 20
-980.2849016102355
 10
1290.068271125236
 20
-980.2849016102355
 10
1290.619064307793
 20
-980.8873250310016
 10
1290.893348292608
 20
-981.788377325709
 10
1290.893348292608
 20
-982.9914757856513
 97
        0
 97
        0
 92
        1
 93
        1
 72
     4
 94
        3
 73
     0
 74
     1
 95
       26
 96
       22
 40
0.0
 40
0.0
 40
0.0
 40
0.0
 40
1.0
 40
1.0
 40
1.0
 40
2.0
 40
2.0
 40
2.0
 40
3.0
 40
3.0
 40
3.0
 40
4.0
 40
4.0
 40
4.0
 40
5.0
 40
5.0
 40
5.0
 40
6.0
 40
6.0
 40
6.0
 40
7.0
 40
7.0
 40
7.0
 40
7.0
 10
1304.380628795159
 20
-895.8167457871323
 10
1304.380628795159
 20
-902.8335839073834
 10
1303.278618579958
 20
-907.4928089234891
 10
1301.077247212572
 20
-909.7944473260786
 10
1298.875875845188
 20
-912.1008540420999
 10
1294.562141627801
 20
-913.2518719231211
 10
1288.141183742664
 20
-913.2518719231211
 10
1280.801000990519
 20
-913.2518719231211
 10
1277.132207655326
 20
-911.2505842854334
 10
1277.132207655326
 20
-907.239796914706
 10
1277.132207655326
 20
-907.239796914706
 10
1277.132207655326
 20
-894.0129722880156
 10
1277.132207655326
 20
-894.0129722880156
 10
1277.132207655326
 20
-891.4110096111535
 10
1279.424706790505
 20
-888.8559088590673
 10
1284.012777973967
 20
-886.3476965223872
 10
1288.597776244325
 20
-883.8442524991387
 10
1292.26964249262
 20
-882.5903715011555
 10
1295.021807042564
 20
-882.5903715011555
 10
1301.25738349775
 20
-882.5899211604419
 10
1304.380628795159
 20
-887.0004521404826
 10
1304.380628795159
 20
-895.8167457871323
 97
        0
 97
        0
 75
     2
 76
     1
 98
        0
  0
SPLINE
  5
85
330
6E
100
AcDbEntity
  8
katman 1
370
     0
100
AcDbSpline
210
0.0
220
0.0
230
1.0
 70
    11
 71
     3
 72
    83
 73
    79
 74
     0
 42
0.0000000001
 43
0.0000000001
 12
1.0
 22
0.0
 32
0.0
 13
1.0
 23
0.0
 33
0.0
 40
0.0
 40
0.0
 40
0.0
 40
0.0
 40
1.0
 40
1.0
 40
1.0
 40
2.0
 40
2.0
 40
2.0
 40
3.0
 40
3.0
 40
3.0
 40
4.0
 40
4.0
 40
4.0
 40
5.0
 40
5.0
 40
5.0
 40
6.0
 40
6.0
 40
6.0
 40
7.0
 40
7.0
 40
7.0
 40
8.0
 40
8.0
 40
8.0
 40
9.0
 40
9.0
 40
9.0
 40
10.0
 40
10.0
 40
10.0
 40
11.0
 40
11.0
 40
11.0
 40
12.0
 40
12.0
 40
12.0
 40
13.0
 40
13.0
 40
13.0
 40
14.0
 40
14.0
 40
14.0
 40
15.0
 40
15.0
 40
15.0
 40
16.0
 40
16.0
 40
16.0
 40
17.0
 40
17.0
 40
17.0
 40
18.0
 40
18.0
 40
18.0
 40
19.0
 40
19.0
 40
19.0
 40
20.0
 40
20.0
 40
20.0
 40
21.0
 40
21.0
 40
21.0
 40
22.0
 40
22.0
 40
22.0
 40
23.0
 40
23.0
 40
23.0
 40
24.0
 40
24.0
 40
24.0
 40
25.0
 40
25.0
 40
25.0
 40
26.0
 40
26.0
 40
26.0
 40
26.0
 10
1363.276187233809
 20
-982.6902508299527
 30
0.0
 10
1363.276187233809
 20
-996.921838568478
 30
0.0
 10
1357.587483347916
 20
-1010.195551610575
 30
0.0
 10
1346.21304252671
 20
-1022.520052392309
 30
0.0
 10
1334.83340954199
 20
-1034.844977024124
 30
0.0
 10
1322.633520684591
 20
-1041.007227414993
 30
0.0
 10
1309.607548015872
 20
-1041.007227414993
 30
0.0
 10
1301.71662506243
 20
-1041.007227414993
 30
0.0
 10
1294.745774676161
 20
-1038.90265281026
 30
0.0
 10
1288.69028152489
 20
-1034.694377791591
 30
0.0
 10
1281.719431138619
 20
-1029.884553542952
 30
0.0
 10
1278.232098620112
 20
-1023.473158775307
 30
0.0
 10
1278.232098620112
 20
-1015.455902006568
 30
0.0
 10
1278.232098620112
 20
-1010.646077757929
 30
0.0
 10
1279.655281235533
 20
-1006.639608359919
 30
0.0
 10
1282.497672871847
 20
-1003.431751989738
 30
0.0
 10
1285.340965189585
 20
-1000.228240082904
 30
0.0
 10
1288.96546619113
 20
-998.6219277410974
 30
0.0
 10
1293.369533457408
 20
-998.6219277410974
 30
0.0
 10
1301.626344994802
 20
-998.6219277410974
 30
0.0
 10
1305.754750763497
 20
-1003.332809486041
 30
0.0
 10
1305.754750763497
 20
-1012.750228512577
 30
0.0
 10
1305.754750763497
 20
-1015.958084882761
 30
0.0
 10
1304.697032881946
 20
-1018.912478903445
 30
0.0
 10
1302.589862195457
 20
-1021.617728547353
 30
0.0
 10
1300.47834704562
 20
-1024.323428531974
 30
0.0
 10
1297.953684027601
 20
-1025.676278524283
 30
0.0
 10
1295.021383192481
 20
-1025.676278524283
 30
0.0
 10
1293.184628858799
 20
-1025.676278524283
 30
0.0
 10
1291.62385391026
 20
-1025.676278524283
 30
0.0
 10
1290.342184241224
 20
-1025.676278524283
 30
0.0
 10
1293.645141973728
 20
-1029.283428163064
 30
0.0
 10
1297.498363076187
 20
-1031.08722815281
 30
0.0
 10
1301.901953511122
 20
-1031.08722815281
 30
0.0
 10
1313.091065883636
 20
-1031.08722815281
 30
0.0
 10
1321.44292580209
 20
-1021.068683746384
 30
0.0
 10
1326.947678752062
 20
-1001.026826620102
 30
0.0
 10
1330.800476004439
 20
-987.0013889655838
 30
0.0
 10
1332.726662705583
 20
-971.7693560879407
 30
0.0
 10
1332.726662705583
 20
-955.3355492818646
 30
0.0
 10
1332.726662705583
 20
-955.3355492818646
 30
0.0
 10
1332.726662705583
 20
-945.7163246346681
 30
0.0
 10
1332.726662705583
 20
-945.7163246346681
 30
0.0
 10
1330.890756072067
 20
-947.1208313558163
 30
0.0
 10
1324.512765989071
 20
-953.2835055967662
 30
0.0
 10
1313.599262132877
 20
-964.2035261479823
 30
0.0
 10
1302.680566113169
 20
-975.1283150126292
 30
0.0
 10
1296.947569893628
 20
-980.5861265659332
 30
0.0
 10
1296.397624411235
 20
-980.5861265659332
 30
0.0
 10
1294.560870077552
 20
-980.5861265659332
 30
0.0
 10
1293.645459861291
 20
-979.5857079174457
 30
0.0
 10
1293.645459861291
 20
-977.5800758164105
 30
0.0
 10
1293.645459861291
 20
-975.9785317880351
 30
0.0
 10
1298.229610431485
 20
-970.5675821595078
 30
0.0
 10
1307.406600498573
 20
-961.3476242902807
 30
0.0
 10
1313.460769118332
 20
-955.3355492818646
 30
0.0
 10
1319.606489355971
 20
-949.2245052791222
 30
0.0
 10
1325.846092386942
 20
-943.0105981594179
 30
0.0
 10
1332.632462024689
 20
-935.796272391226
 30
0.0
 10
1337.861606458338
 20
-928.8822973879378
 30
0.0
 10
1341.534267425537
 20
-922.2690969996338
 30
0.0
 10
1344.286431975481
 20
-917.0599529917645
 30
0.0
 10
1346.66921117829
 20
-914.4532220014717
 30
0.0
 10
1348.690446260498
 20
-914.4532220014717
 30
0.0
 10
1351.442610810442
 20
-914.4532220014717
 30
0.0
 10
1352.818852029195
 20
-915.857728722619
 30
0.0
 10
1352.818852029195
 20
-918.6614970201399
 30
0.0
 10
1352.818852029195
 20
-919.2630462501111
 30
0.0
 10
1351.304541645981
 20
-921.6206593542565
 30
0.0
 10
1348.278146092485
 20
-925.7260712559628
 30
0.0
 10
1345.25037302622
 20
-929.8358276210183
 30
0.0
 10
1343.736062643005
 20
-932.9924776030748
 30
0.0
 10
1343.736062643005
 20
-935.1946966706255
 30
0.0
 10
1343.736062643005
 20
-936.8010090124317
 30
0.0
 10
1346.992078978841
 20
-943.2644843589969
 30
0.0
 10
1353.507184563614
 20
-954.5837716881824
 30
0.0
 10
1360.017097984872
 20
-965.9083571434021
 30
0.0
 10
1363.276187233809
 20
-975.2788877545336
 30
0.0
 10
1363.276187233809
 20
-982.6902508299527
 30
0.0
  0
HATCH
  5
86
330
6E
100
AcDbEntity
  8
katman 1
 62
    96
420
    32768
100
AcDbHatch
 10
0.0
 20
0.0
 30
0.0
210
0.0
220
0.0
230
1.0
  2
SOLID
 70
     1
 71
     0
 91
        1
 92
        1
 93
        1
 72
     4
 94
        3
 73
     0
 74
     1
 95
       83
 96
       79
 40
0.0
 40
0.0
 40
0.0
 40
0.0
 40
1.0
 40
1.0
 40
1.0
 40
2.0
 40
2.0
 40
2.0
 40
3.0
 40
3.0
 40
3.0
 40
4.0
 40
4.0
 40
4.0
 40
5.0
 40
5.0
 40
5.0
 40
6.0
 40
6.0
 40
6.0
 40
7.0
 40
7.0
 40
7.0
 40
8.0
 40
8.0
 40
8.0
 40
9.0
 40
9.0
 40
9.0
 40
10.0
 40
10.0
 40
10.0
 40
11.0
 40
11.0
 40
11.0
 40
12.0
 40
12.0
 40
12.0
 40
13.0
 40
13.0
 40
13.0
 40
14.0
 40
14.0
 40
14.0
 40
15.0
 40
15.0
 40
15.0
 40
16.0
 40
16.0
 40
16.0
 40
17.0
 40
17.0
 40
17.0
 40
18.0
 40
18.0
 40
18.0
 40
19.0
 40
19.0
 40
19.0
 40
20.0
 40
20.0
 40
20.0
 40
21.0
 40
21.0
 40
21.0
 40
22.0
 40
22.0
 40
22.0
 40
23.0
 40
23.0
 40
23.0
 40
24.0
 40
24.0
 40
24.0
 40
25.0
 40
25.0
 40
25.0
 40
26.0
 40
26.0
 40
26.0
 40
26.0
 10
1363.276187233809
 20
-982.6902508299527
 10
1363.276187233809
 20
-996.921838568478
 10
1357.587483347916
 20
-1010.195551610575
 10
1346.21304252671
 20
-1022.520052392309
 10
1334.83340954199
 20
-1034.844977024124
 10
1322.633520684591
 20
-1041.007227414993
 10
1309.607548015872
 20
-1041.007227414993
 10
1301.71662506243
 20
-1041.007227414993
 10
1294.745774676161
 20
-1038.90265281026
 10
1288.69028152489
 20
-1034.694377791591
 10
1281.719431138619
 20
-1029.884553542952
 10
1278.232098620112
 20
-1023.473158775307
 10
1278.232098620112
 20
-1015.455902006568
 10
1278.232098620112
 20
-1010.646077757929
 10
1279.655281235533
 20
-1006.639608359919
 10
1282.497672871847
 20
-1003.431751989738
 10
1285.340965189585
 20
-1000.228240082904
 10
1288.96546619113
 20
-998.6219277410974
 10
1293.369533457408
 20
-998.6219277410974
 10
1301.626344994802
 20
-998.6219277410974
 10
1305.754750763497
 20
-1003.332809486041
 10
1305.754750763497
 20
-1012.750228512577
 10
1305.754750763497
 20
-1015.958084882761
 10
1304.697032881946
 20
-1018.912478903445
 10
1302.589862195457
 20
-1021.617728547353
 10
1300.47834704562
 20
-1024.323428531974
 10
1297.953684027601
 20
-1025.676278524283
 10
1295.021383192481
 20
-1025.676278524283
 10
1293.184628858799
 20
-1025.676278524283
 10
1291.62385391026
 20
-1025.676278524283
 10
1290.342184241224
 20
-1025.676278524283
 10
1293.645141973728
 20
-1029.283428163064
 10
1297.498363076187
 20
-1031.08722815281
 10
1301.901953511122
 20
-1031.08722815281
 10
1313.091065883636
 20
-1031.08722815281
 10
1321.44292580209
 20
-1021.068683746384
 10
1326.947678752062
 20
-1001.026826620102
 10
1330.800476004439
 20
-987.0013889655838
 10
1332.726662705583
 20
-971.7693560879407
 10
1332.726662705583
 20
-955.3355492818646
 10
1332.726662705583
 20
-955.3355492818646
 10
1332.726662705583
 20
-945.7163246346681
 10
1332.726662705583
 20
-945.7163246346681
 10
1330.890756072067
 20
-947.1208313558163
 10
1324.512765989071
 20
-953.2835055967662
 10
1313.599262132877
 20
-964.2035261479823
 10
1302.680566113169
 20
-975.1283150126292
 10
1296.947569893628
 20
-980.5861265659332
 10
1296.397624411235
 20
-980.5861265659332
 10
1294.560870077552
 20
-980.5861265659332
 10
1293.645459861291
 20
-979.5857079174457
 10
1293.645459861291
 20
-977.5800758164105
 10
1293.645459861291
 20
-975.9785317880351
 10
1298.229610431485
 20
-970.5675821595078
 10
1307.406600498573
 20
-961.3476242902807
 10
1313.460769118332
 20
-955.3355492818646
 10
1319.606489355971
 20
-949.2245052791222
 10
1325.846092386942
 20
-943.0105981594179
 10
1332.632462024689
 20
-935.796272391226
 10
1337.861606458338
 20
-928.8822973879378
 10
1341.534267425537
 20
-922.2690969996338
 10
1344.286431975481
 20
-917.0599529917645
 10
1346.66921117829
 20
-914.4532220014717
 10
1348.690446260498
 20
-914.4532220014717
 10
1351.442610810442
 20
-914.4532220014717
 10
1352.818852029195
 20
-915.857728722619
 10
1352.818852029195
 20
-918.6614970201399
 10
1352.818852029195
 20
-919.2630462501111
 10
1351.304541645981
 20
-921.6206593542565
 10
1348.278146092485
 20
-925.7260712559628
 10
1345.25037302622
 20
-929.8358276210183
 10
1343.736062643005
 20
-932.9924776030748
 10
1343.736062643005
 20
-935.1946966706255
 10
1343.736062643005
 20
-936.8010090124317
 10
1346.992078978841
 20
-943.2644843589969
 10
1353.507184563614
 20
-954.5837716881824
 10
1360.017097984872
 20
-965.9083571434021
 10
1363.276187233809
 20
-975.2788877545336
 10
1363.276187233809
 20
-982.6902508299527
 97
        0
 97
        0
 75
     2
 76
     1
 98
        0
  0
ENDBLK
  5
71
330
6E
100
AcDbEntity
  8
0
100
AcDbBlockEnd
  0
ENDSEC
  0
SECTION
  2
ENTITIES
  0
INSERT
  5
42
330
1F
100
AcDbEntity
  8
katman 1
100
AcDbBlockReference
  2
block 2
 10
0.0
 20
0.0
 30
0.0
  0
ENDSEC
  0
SECTION
  2
OBJECTS
  0
DICTIONARY
  5
C
330
0
100
AcDbDictionary
281
     1
  3
ACAD_GROUP
350
D
  3
ACAD_LAYOUT
350
1A
  3
ACAD_MATERIAL
350
3B
  3
ACAD_MLEADERSTYLE
350
88
  3
ACAD_MLINESTYLE
350
17
  3
ACAD_PLOTSETTINGS
350
19
  3
ACAD_PLOTSTYLENAME
350
E
  3
ACAD_TABLESTYLE
350
87
  3
ACAD_VISUALSTYLE
350
2A
  0
SUN
  5
3F
330
29
100
AcDbSun
 90
        1
290
     0
 63
     7
421
 16777215
 40
1.0
291
     1
 91
  2455826
 92
 54000000
292
     0
 70
     2
 71
   256
280
     1
  0
DICTIONARY
  5
D
102
{ACAD_REACTORS
330
C
102
}
330
C
100
AcDbDictionary
281
     1
  0
DICTIONARY
  5
1A
102
{ACAD_REACTORS
330
C
102
}
330
C
100
AcDbDictionary
281
     1
  3
Layout1
350
1E
  3
Layout2
350
26
  3
Model
350
22
  0
DICTIONARY
  5
3B
102
{ACAD_REACTORS
330
C
102
}
330
C
100
AcDbDictionary
281
     1
  3
ByBlock
350
3D
  3
ByLayer
350
3C
  3
Global
350
3E
  0
DICTIONARY
  5
88
102
{ACAD_REACTORS
330
C
102
}
330
C
100
AcDbDictionary
281
     1
  0
DICTIONARY
  5
17
102
{ACAD_REACTORS
330
C
102
}
330
C
100
AcDbDictionary
281
     1
  3
Standard
350
18
  0
DICTIONARY
  5
19
102
{ACAD_REACTORS
330
C
102
}
330
C
100
AcDbDictionary
281
     1
  0
ACDBDICTIONARYWDFLT
  5
E
102
{ACAD_REACTORS
330
C
102
}
330
C
100
AcDbDictionary
281
     1
  3
Normal
350
F
100
AcDbDictionaryWithDefault
340
F
  0
DICTIONARY
  5
87
102
{ACAD_REACTORS
330
C
102
}
330
C
100
AcDbDictionary
281
     1
  0
DICTIONARY
  5
2A
102
{ACAD_REACTORS
330
C
102
}
330
C
100
AcDbDictionary
281
     1
  3
2dWireframe
350
2F
  3
3D Hidden
350
31
  3
3dWireframe
350
30
  3
Basic
350
32
  3
Brighten
350
36
  3
ColorChange
350
3A
  3
Conceptual
350
34
  3
Dim
350
35
  3
Facepattern
350
39
  3
Flat
350
2B
  3
FlatWithEdges
350
2C
  3
Gouraud
350
2D
  3
GouraudWithEdges
350
2E
  3
Linepattern
350
38
  3
Realistic
350
33
  3
Thicken
350
37
  0
LAYOUT
  5
1E
102
{ACAD_REACTORS
330
1A
102
}
330
1A
100
AcDbPlotSettings
  1

  2
none_device
  4

  6

 40
0.0
 41
0.0
 42
0.0
 43
0.0
 44
0.0
 45
0.0
 46
0.0
 47
0.0
 48
0.0
 49
0.0
140
0.0
141
0.0
142
1.0
143
1.0
 70
   688
 72
     0
 73
     0
 74
     5
  7

 75
    16
 76
     0
 77
     2
 78
   300
147
1.0
148
0.0
149
0.0
100
AcDbLayout
  1
Layout1
 70
     1
 71
     1
 10
0.0
 20
0.0
 11
12.0
 21
9.0
 12
0.0
 22
0.0
 32
0.0
 14
1.000000000000000E+20
 24
1.000000000000000E+20
 34
1.000000000000000E+20
 15
-1.000000000000000E+20
 25
-1.000000000000000E+20
 35
-1.000000000000000E+20
146
0.0
 13
0.0
 23
0.0
 33
0.0
 16
1.0
 26
0.0
 36
0.0
 17
0.0
 27
1.0
 37
0.0
 76
     0
330
1B
  0
LAYOUT
  5
26
102
{ACAD_REACTORS
330
1A
102
}
330
1A
100
AcDbPlotSettings
  1

  2
none_device
  4

  6

 40
0.0
 41
0.0
 42
0.0
 43
0.0
 44
0.0
 45
0.0
 46
0.0
 47
0.0
 48
0.0
 49
0.0
140
0.0
141
0.0
142
1.0
143
1.0
 70
   688
 72
     0
 73
     0
 74
     5
  7

 75
    16
 76
     0
 77
     2
 78
   300
147
1.0
148
0.0
149
0.0
100
AcDbLayout
  1
Layout2
 70
     1
 71
     2
 10
0.0
 20
0.0
 11
0.0
 21
0.0
 12
0.0
 22
0.0
 32
0.0
 14
0.0
 24
0.0
 34
0.0
 15
0.0
 25
0.0
 35
0.0
146
0.0
 13
0.0
 23
0.0
 33
0.0
 16
1.0
 26
0.0
 36
0.0
 17
0.0
 27
1.0
 37
0.0
 76
     0
330
23
  0
LAYOUT
  5
22
102
{ACAD_REACTORS
330
1A
102
}
330
1A
100
AcDbPlotSettings
  1

  2
none_device
  4

  6

 40
0.0
 41
0.0
 42
0.0
 43
0.0
 44
0.0
 45
0.0
 46
0.0
 47
0.0
 48
0.0
 49
0.0
140
0.0
141
0.0
142
1.0
143
1.0
 70
  1712
 72
     0
 73
     0
 74
     0
  7

 75
     0
 76
     0
 77
     2
 78
   300
147
1.0
148
0.0
149
0.0
100
AcDbLayout
  1
Model
 70
     1
 71
     0
 10
0.0
 20
0.0
 11
12.0
 21
9.0
 12
0.0
 22
0.0
 32
0.0
 14
1.000000000000000E+20
 24
1.000000000000000E+20
 34
1.000000000000000E+20
 15
-1.000000000000000E+20
 25
-1.000000000000000E+20
 35
-1.000000000000000E+20
146
0.0
 13
0.0
 23
0.0
 33
0.0
 16
1.0
 26
0.0
 36
0.0
 17
0.0
 27
1.0
 37
0.0
 76
     0
330
1F
331
29
  0
MATERIAL
  5
3D
102
{ACAD_REACTORS
330
3B
102
}
330
3B
100
AcDbMaterial
  1
ByBlock
 72
     1
 94
      127
  0
MATERIAL
  5
3C
102
{ACAD_REACTORS
330
3B
102
}
330
3B
100
AcDbMaterial
  1
ByLayer
 72
     1
 94
      127
  0
MATERIAL
  5
3E
102
{ACAD_REACTORS
330
3B
102
}
330
3B
100
AcDbMaterial
  1
Global
 72
     1
 94
      127
  0
MLINESTYLE
  5
18
102
{ACAD_REACTORS
330
17
102
}
330
17
100
AcDbMlineStyle
  2
Standard
 70
     0
  3

 62
   256
 51
90.0
 52
90.0
 71
     2
 49
0.5
 62
   256
  6
BYLAYER
 49
-0.5
 62
   256
  6
BYLAYER
  0
ACDBPLACEHOLDER
  5
F
102
{ACAD_REACTORS
330
E
102
}
330
E
  0
VISUALSTYLE
  5
2F
102
{ACAD_REACTORS
330
2A
102
}
330
2A
100
AcDbVisualStyle
  2
2dWireframe
 70
     4
177
     2
291
     0
 71
     0
176
     1
 72
     2
176
     1
 73
     0
176
     1
 90
        0
176
     1
 40
-0.6
176
     1
 41
-30.0
176
     1
 62
     5
 63
     7
421
 16777215
176
     1
 74
     1
176
     1
 91
        4
176
     1
 64
     7
176
     1
 65
   257
176
     1
 75
     1
176
     1
175
     1
176
     1
 42
1.0
176
     1
 92
        0
176
     1
 66
   257
176
     1
 43
1.0
176
     1
 76
     1
176
     1
 77
     6
176
     1
 78
     2
176
     1
 67
     7
176
     1
 79
     5
176
     1
170
     0
176
     1
171
     0
176
     1
290
     0
176
     1
 93
        1
176
     1
 44
0.0
176
     1
173
     0
176
     1
  0
VISUALSTYLE
  5
31
102
{ACAD_REACTORS
330
2A
102
}
330
2A
100
AcDbVisualStyle
  2
3D Hidden
 70
     6
177
     2
291
     0
 71
     1
176
     1
 72
     2
176
     1
 73
     2
176
     1
 90
        0
176
     1
 40
-0.6
176
     1
 41
-30.0
176
     1
 62
     5
 63
     7
421
 16777215
176
     1
 74
     2
176
     1
 91
        2
176
     1
 64
     7
176
     1
 65
   257
176
     1
 75
     2
176
     1
175
     1
176
     1
 42
40.0
176
     1
 92
        0
176
     1
 66
   257
176
     1
 43
1.0
176
     1
 76
     1
176
     1
 77
     6
176
     1
 78
     2
176
     1
 67
     7
176
     1
 79
     3
176
     1
170
     0
176
     1
171
     0
176
     1
290
     0
176
     1
 93
        1
176
     1
 44
0.0
176
     1
173
     0
176
     1
  0
VISUALSTYLE
  5
30
102
{ACAD_REACTORS
330
2A
102
}
330
2A
100
AcDbVisualStyle
  2
3dWireframe
 70
     5
177
     2
291
     0
 71
     0
176
     1
 72
     2
176
     1
 73
     0
176
     1
 90
        0
176
     1
 40
-0.6
176
     1
 41
-30.0
176
     1
 62
     5
 63
     7
421
 16777215
176
     1
 74
     1
176
     1
 91
        4
176
     1
 64
     7
176
     1
 65
   257
176
     1
 75
     1
176
     1
175
     1
176
     1
 42
1.0
176
     1
 92
        0
176
     1
 66
   257
176
     1
 43
1.0
176
     1
 76
     1
176
     1
 77
     6
176
     1
 78
     2
176
     1
 67
     7
176
     1
 79
     5
176
     1
170
     0
176
     1
171
     0
176
     1
290
     0
176
     1
 93
        1
176
     1
 44
0.0
176
     1
173
     0
176
     1
  0
VISUALSTYLE
  5
32
102
{ACAD_REACTORS
330
2A
102
}
330
2A
100
AcDbVisualStyle
  2
Basic
 70
     7
177
     2
291
     1
 71
     1
176
     1
 72
     0
176
     1
 73
     1
176
     1
 90
        0
176
     1
 40
-0.6
176
     1
 41
-30.0
176
     1
 62
     5
 63
     7
421
 16777215
176
     1
 74
     0
176
     1
 91
        4
176
     1
 64
     7
176
     1
 65
   257
176
     1
 75
     1
176
     1
175
     1
176
     1
 42
1.0
176
     1
 92
        8
176
     1
 66
     7
176
     1
 43
1.0
176
     1
 76
     1
176
     1
 77
     6
176
     1
 78
     2
176
     1
 67
     7
176
     1
 79
     5
176
     1
170
     0
176
     1
171
     0
176
     1
290
     0
176
     1
 93
        1
176
     1
 44
0.0
176
     1
173
     0
176
     1
  0
VISUALSTYLE
  5
36
102
{ACAD_REACTORS
330
2A
102
}
330
2A
100
AcDbVisualStyle
  2
Brighten
 70
    12
177
     2
291
     1
 71
     2
176
     1
 72
     2
176
     1
 73
     0
176
     1
 90
        0
176
     1
 40
-0.6
176
     1
 41
-30.0
176
     1
 62
     5
 63
     7
421
 16777215
176
     1
 74
     1
176
     1
 91
        4
176
     1
 64
     7
176
     1
 65
   257
176
     1
 75
     1
176
     1
175
     1
176
     1
 42
1.0
176
     1
 92
        8
176
     1
 66
     7
176
     1
 43
1.0
176
     1
 76
     1
176
     1
 77
     6
176
     1
 78
     2
176
     1
 67
     7
176
     1
 79
     5
176
     1
170
     0
176
     1
171
     0
176
     1
290
     0
176
     1
 93
        1
176
     1
 44
50.0
176
     1
173
     0
176
     1
  0
VISUALSTYLE
  5
3A
102
{ACAD_REACTORS
330
2A
102
}
330
2A
100
AcDbVisualStyle
  2
ColorChange
 70
    16
177
     2
291
     1
 71
     2
176
     1
 72
     2
176
     1
 73
     3
176
     1
 90
        0
176
     1
 40
-0.6
176
     1
 41
-30.0
176
     1
 62
     5
 63
     8
421
  8421504
176
     1
 74
     1
176
     1
 91
        4
176
     1
 64
     7
176
     1
 65
   257
176
     1
 75
     1
176
     1
175
     1
176
     1
 42
1.0
176
     1
 92
        8
176
     1
 66
     8
424
  8421504
176
     1
 43
1.0
176
     1
 76
     1
176
     1
 77
     6
176
     1
 78
     2
176
     1
 67
     7
176
     1
 79
     5
176
     1
170
     0
176
     1
171
     0
176
     1
290
     0
176
     1
 93
        1
176
     1
 44
0.0
176
     1
173
     0
176
     1
  0
VISUALSTYLE
  5
34
102
{ACAD_REACTORS
330
2A
102
}
330
2A
100
AcDbVisualStyle
  2
Conceptual
 70
     9
177
     2
291
     0
 71
     3
176
     1
 72
     2
176
     1
 73
     0
176
     1
 90
        0
176
     1
 40
-0.6
176
     1
 41
-30.0
176
     1
 62
     5
 63
     7
421
 16777215
176
     1
 74
     2
176
     1
 91
        2
176
     1
 64
     7
176
     1
 65
   257
176
     1
 75
     1
176
     1
175
     1
176
     1
 42
40.0
176
     1
 92
        8
176
     1
 66
     7
176
     1
 43
1.0
176
     1
 76
     1
176
     1
 77
     6
176
     1
 78
     2
176
     1
 67
     7
176
     1
 79
     3
176
     1
170
     0
176
     1
171
     0
176
     1
290
     0
176
     1
 93
        1
176
     1
 44
0.0
176
     1
173
     0
176
     1
  0
VISUALSTYLE
  5
35
102
{ACAD_REACTORS
330
2A
102
}
330
2A
100
AcDbVisualStyle
  2
Dim
 70
    11
177
     2
291
     1
 71
     2
176
     1
 72
     2
176
     1
 73
     0
176
     1
 90
        0
176
     1
 40
-0.6
176
     1
 41
-30.0
176
     1
 62
     5
 63
     7
421
 16777215
176
     1
 74
     1
176
     1
 91
        4
176
     1
 64
     7
176
     1
 65
   257
176
     1
 75
     1
176
     1
175
     1
176
     1
 42
1.0
176
     1
 92
        8
176
     1
 66
     7
176
     1
 43
1.0
176
     1
 76
     1
176
     1
 77
     6
176
     1
 78
     2
176
     1
 67
     7
176
     1
 79
     5
176
     1
170
     0
176
     1
171
     0
176
     1
290
     0
176
     1
 93
        1
176
     1
 44
-50.0
176
     1
173
     0
176
     1
  0
VISUALSTYLE
  5
39
102
{ACAD_REACTORS
330
2A
102
}
330
2A
100
AcDbVisualStyle
  2
Facepattern
 70
    15
177
     2
291
     1
 71
     2
176
     1
 72
     2
176
     1
 73
     0
176
     1
 90
        0
176
     1
 40
-0.6
176
     1
 41
-30.0
176
     1
 62
     5
 63
     7
421
 16777215
176
     1
 74
     1
176
     1
 91
        4
176
     1
 64
     7
176
     1
 65
   257
176
     1
 75
     1
176
     1
175
     1
176
     1
 42
1.0
176
     1
 92
        8
176
     1
 66
     7
176
     1
 43
1.0
176
     1
 76
     1
176
     1
 77
     6
176
     1
 78
     2
176
     1
 67
     7
176
     1
 79
     5
176
     1
170
     0
176
     1
171
     0
176
     1
290
     0
176
     1
 93
        1
176
     1
 44
0.0
176
     1
173
     0
176
     1
  0
VISUALSTYLE
  5
2B
102
{ACAD_REACTORS
330
2A
102
}
330
2A
100
AcDbVisualStyle
  2
Flat
 70
     0
177
     2
291
     1
 71
     2
176
     1
 72
     1
176
     1
 73
     1
176
     1
 90
        2
176
     1
 40
-0.6
176
     1
 41
30.0
176
     1
 62
     5
 63
     7
421
 16777215
176
     1
 74
     0
176
     1
 91
        4
176
     1
 64
     7
176
     1
 65
   257
176
     1
 75
     1
176
     1
175
     1
176
     1
 42
1.0
176
     1
 92
        8
176
     1
 66
     7
176
     1
 43
1.0
176
     1
 76
     1
176
     1
 77
     6
176
     1
 78
     2
176
     1
 67
     7
176
     1
 79
     5
176
     1
170
     0
176
     1
171
     0
176
     1
290
     0
176
     1
 93
       13
176
     1
 44
0.0
176
     1
173
     0
176
     1
  0
VISUALSTYLE
  5
2C
102
{ACAD_REACTORS
330
2A
102
}
330
2A
100
AcDbVisualStyle
  2
FlatWithEdges
 70
     1
177
     2
291
     1
 71
     2
176
     1
 72
     1
176
     1
 73
     1
176
     1
 90
        2
176
     1
 40
-0.6
176
     1
 41
30.0
176
     1
 62
     5
 63
     7
421
 16777215
176
     1
 74
     1
176
     1
 91
        4
176
     1
 64
     7
176
     1
 65
   257
176
     1
 75
     1
176
     1
175
     1
176
     1
 42
1.0
176
     1
 92
        0
176
     1
 66
   257
176
     1
 43
1.0
176
     1
 76
     1
176
     1
 77
     6
176
     1
 78
     2
176
     1
 67
     7
176
     1
 79
     5
176
     1
170
     0
176
     1
171
     0
176
     1
290
     0
176
     1
 93
       13
176
     1
 44
0.0
176
     1
173
     0
176
     1
  0
VISUALSTYLE
  5
2D
102
{ACAD_REACTORS
330
2A
102
}
330
2A
100
AcDbVisualStyle
  2
Gouraud
 70
     2
177
     2
291
     1
 71
     2
176
     1
 72
     2
176
     1
 73
     1
176
     1
 90
        2
176
     1
 40
-0.6
176
     1
 41
30.0
176
     1
 62
     5
 63
     7
421
 16777215
176
     1
 74
     0
176
     1
 91
        4
176
     1
 64
     7
176
     1
 65
   257
176
     1
 75
     1
176
     1
175
     1
176
     1
 42
1.0
176
     1
 92
        0
176
     1
 66
     7
176
     1
 43
1.0
176
     1
 76
     1
176
     1
 77
     6
176
     1
 78
     2
176
     1
 67
     7
176
     1
 79
     5
176
     1
170
     0
176
     1
171
     0
176
     1
290
     0
176
     1
 93
       13
176
     1
 44
0.0
176
     1
173
     0
176
     1
  0
VISUALSTYLE
  5
2E
102
{ACAD_REACTORS
330
2A
102
}
330
2A
100
AcDbVisualStyle
  2
GouraudWithEdges
 70
     3
177
     2
291
     1
 71
     2
176
     1
 72
     2
176
     1
 73
     1
176
     1
 90
        2
176
     1
 40
-0.6
176
     1
 41
30.0
176
     1
 62
     5
 63
     7
421
 16777215
176
     1
 74
     1
176
     1
 91
        4
176
     1
 64
     7
176
     1
 65
   257
176
     1
 75
     1
176
     1
175
     1
176
     1
 42
1.0
176
     1
 92
        0
176
     1
 66
   257
176
     1
 43
1.0
176
     1
 76
     1
176
     1
 77
     6
176
     1
 78
     2
176
     1
 67
     7
176
     1
 79
     5
176
     1
170
     0
176
     1
171
     0
176
     1
290
     0
176
     1
 93
       13
176
     1
 44
0.0
176
     1
173
     0
176
     1
  0
VISUALSTYLE
  5
38
102
{ACAD_REACTORS
330
2A
102
}
330
2A
100
AcDbVisualStyle
  2
Linepattern
 70
    14
177
     2
291
     1
 71
     2
176
     1
 72
     2
176
     1
 73
     0
176
     1
 90
        0
176
     1
 40
-0.6
176
     1
 41
-30.0
176
     1
 62
     5
 63
     7
421
 16777215
176
     1
 74
     1
176
     1
 91
        4
176
     1
 64
     7
176
     1
 65
   257
176
     1
 75
     7
176
     1
175
     7
176
     1
 42
1.0
176
     1
 92
        8
176
     1
 66
     7
176
     1
 43
1.0
176
     1
 76
     1
176
     1
 77
     6
176
     1
 78
     2
176
     1
 67
     7
176
     1
 79
     5
176
     1
170
     0
176
     1
171
     0
176
     1
290
     0
176
     1
 93
        1
176
     1
 44
0.0
176
     1
173
     0
176
     1
  0
VISUALSTYLE
  5
33
102
{ACAD_REACTORS
330
2A
102
}
330
2A
100
AcDbVisualStyle
  2
Realistic
 70
     8
177
     2
291
     0
 71
     2
176
     1
 72
     2
176
     1
 73
     0
176
     1
 90
        0
176
     1
 40
-0.6
176
     1
 41
-30.0
176
     1
 62
     5
 63
     7
421
 16777215
176
     1
 74
     1
176
     1
 91
        0
176
     1
 64
     7
176
     1
 65
   257
176
     1
 75
     1
176
     1
175
     1
176
     1
 42
1.0
176
     1
 92
        8
176
     1
 66
     8
424
  7895160
176
     1
 43
1.0
176
     1
 76
     1
176
     1
 77
     6
176
     1
 78
     2
176
     1
 67
     7
176
     1
 79
     5
176
     1
170
     0
176
     1
171
     0
176
     1
290
     0
176
     1
 93
       13
176
     1
 44
0.0
176
     1
173
     0
176
     1
  0
VISUALSTYLE
  5
37
102
{ACAD_REACTORS
330
2A
102
}
330
2A
100
AcDbVisualStyle
  2
Thicken
 70
    13
177
     2
291
     1
 71
     2
176
     1
 72
     2
176
     1
 73
     0
176
     1
 90
        0
176
     1
 40
-0.6
176
     1
 41
-30.0
176
     1
 62
     5
 63
     7
421
 16777215
176
     1
 74
     1
176
     1
 91
        4
176
     1
 64
     7
176
     1
 65
   257
176
     1
 75
     1
176
     1
175
     1
176
     1
 42
1.0
176
     1
 92
       12
176
     1
 66
     7
176
     1
 43
1.0
176
     1
 76
     1
176
     1
 77
     6
176
     1
 78
     2
176
     1
 67
     7
176
     1
 79
     5
176
     1
170
     0
176
     1
171
     0
176
     1
290
     0
176
     1
 93
        1
176
     1
 44
0.0
176
     1
173
     0
176
     1
  0
ENDSEC
  0
EOF
