  0
SECTION
  2
HEADER
  9
$ACADVER
  1
AC1024
  9
$ACADMAINTVER
 70
     6
  9
$DWGCODEPAGE
  3
ANSI_1254
  9
$INSBASE
 10
0.0
 20
0.0
 30
0.0
  9
$EXTMIN
 10
1.000000000000000E+20
 20
1.000000000000000E+20
 30
1.000000000000000E+20
  9
$EXTMAX
 10
-1.000000000000000E+20
 20
-1.000000000000000E+20
 30
-1.000000000000000E+20
  9
$LIMMIN
 10
0.0
 20
0.0
  9
$LIMMAX
 10
12.0
 20
9.0
  9
$ORTHOMODE
 70
     0
  9
$REGENMODE
 70
     1
  9
$FILLMODE
 70
     1
  9
$QTEXTMODE
 70
     0
  9
$MIRRTEXT
 70
     1
  9
$LTSCALE
 40
1.0
  9
$ATTMODE
 70
     1
  9
$TEXTSIZE
 40
0.2
  9
$TRACEWID
 40
0.05
  9
$TEXTSTYLE
  7
Standard
  9
$CLAYER
  8
0
  9
$CELTYPE
  6
ByLayer
  9
$CECOLOR
 62
   256
  9
$CELTSCALE
 40
1.0
  9
$DISPSILH
 70
     0
  9
$DIMSCALE
 40
1.0
  9
$DIMASZ
 40
0.18
  9
$DIMEXO
 40
0.0625
  9
$DIMDLI
 40
0.38
  9
$DIMRND
 40
0.0
  9
$DIMDLE
 40
0.0
  9
$DIMEXE
 40
0.18
  9
$DIMTP
 40
0.0
  9
$DIMTM
 40
0.0
  9
$DIMTXT
 40
0.18
  9
$DIMCEN
 40
0.09
  9
$DIMTSZ
 40
0.0
  9
$DIMTOL
 70
     0
  9
$DIMLIM
 70
     0
  9
$DIMTIH
 70
     1
  9
$DIMTOH
 70
     1
  9
$DIMSE1
 70
     0
  9
$DIMSE2
 70
     0
  9
$DIMTAD
 70
     0
  9
$DIMZIN
 70
     0
  9
$DIMBLK
  1

  9
$DIMASO
 70
     1
  9
$DIMSHO
 70
     1
  9
$DIMPOST
  1

  9
$DIMAPOST
  1

  9
$DIMALT
 70
     0
  9
$DIMALTD
 70
     2
  9
$DIMALTF
 40
25.4
  9
$DIMLFAC
 40
1.0
  9
$DIMTOFL
 70
     0
  9
$DIMTVP
 40
0.0
  9
$DIMTIX
 70
     0
  9
$DIMSOXD
 70
     0
  9
$DIMSAH
 70
     0
  9
$DIMBLK1
  1

  9
$DIMBLK2
  1

  9
$DIMSTYLE
  2
Standard
  9
$DIMCLRD
 70
     0
  9
$DIMCLRE
 70
     0
  9
$DIMCLRT
 70
     0
  9
$DIMTFAC
 40
1.0
  9
$DIMGAP
 40
0.09
  9
$DIMJUST
 70
     0
  9
$DIMSD1
 70
     0
  9
$DIMSD2
 70
     0
  9
$DIMTOLJ
 70
     1
  9
$DIMTZIN
 70
     0
  9
$DIMALTZ
 70
     0
  9
$DIMALTTZ
 70
     0
  9
$DIMUPT
 70
     0
  9
$DIMDEC
 70
     4
  9
$DIMTDEC
 70
     4
  9
$DIMALTU
 70
     2
  9
$DIMALTTD
 70
     2
  9
$DIMTXSTY
  7
Standard
  9
$DIMAUNIT
 70
     0
  9
$DIMADEC
 70
     0
  9
$DIMALTRND
 40
0.0
  9
$DIMAZIN
 70
     0
  9
$DIMDSEP
 70
    46
  9
$DIMATFIT
 70
     3
  9
$DIMFRAC
 70
     0
  9
$DIMLDRBLK
  1

  9
$DIMLUNIT
 70
     2
  9
$DIMLWD
 70
    -2
  9
$DIMLWE
 70
    -2
  9
$DIMTMOVE
 70
     0
  9
$DIMFXL
 40
1.0
  9
$DIMFXLON
 70
     0
  9
$DIMJOGANG
 40
0.7853981633974483
  9
$DIMTFILL
 70
     0
  9
$DIMTFILLCLR
 70
     0
  9
$DIMARCSYM
 70
     0
  9
$DIMLTYPE
  6

  9
$DIMLTEX1
  6

  9
$DIMLTEX2
  6

  9
$DIMTXTDIRECTION
 70
     0
  9
$LUNITS
 70
     2
  9
$LUPREC
 70
     4
  9
$SKETCHINC
 40
0.1
  9
$FILLETRAD
 40
0.5
  9
$AUNITS
 70
     0
  9
$AUPREC
 70
     0
  9
$MENU
  1
.
  9
$ELEVATION
 40
0.0
  9
$PELEVATION
 40
0.0
  9
$THICKNESS
 40
0.0
  9
$LIMCHECK
 70
     0
  9
$CHAMFERA
 40
0.5
  9
$CHAMFERB
 40
0.5
  9
$CHAMFERC
 40
1.0
  9
$CHAMFERD
 40
0.0
  9
$SKPOLY
 70
     0
  9
$TDCREATE
 40
2459353.946606354
  9
$TDUCREATE
 40
2459353.821606354
  9
$TDUPDATE
 40
2459353.946606389
  9
$TDUUPDATE
 40
2459353.821606389
  9
$TDINDWG
 40
0.0000000116
  9
$TDUSRTIMER
 40
0.0000000116
  9
$USRTIMER
 70
     1
  9
$ANGBASE
 50
0.0
  9
$ANGDIR
 70
     0
  9
$PDMODE
 70
     0
  9
$PDSIZE
 40
0.0
  9
$PLINEWID
 40
0.0
  9
$SPLFRAME
 70
     0
  9
$SPLINETYPE
 70
     6
  9
$SPLINESEGS
 70
     8
  9
$HANDSEED
  5
A8
  9
$SURFTAB1
 70
     6
  9
$SURFTAB2
 70
     6
  9
$SURFTYPE
 70
     6
  9
$SURFU
 70
     6
  9
$SURFV
 70
     6
  9
$UCSBASE
  2

  9
$UCSNAME
  2

  9
$UCSORG
 10
0.0
 20
0.0
 30
0.0
  9
$UCSXDIR
 10
1.0
 20
0.0
 30
0.0
  9
$UCSYDIR
 10
0.0
 20
1.0
 30
0.0
  9
$UCSORTHOREF
  2

  9
$UCSORTHOVIEW
 70
     0
  9
$UCSORGTOP
 10
0.0
 20
0.0
 30
0.0
  9
$UCSORGBOTTOM
 10
0.0
 20
0.0
 30
0.0
  9
$UCSORGLEFT
 10
0.0
 20
0.0
 30
0.0
  9
$UCSORGRIGHT
 10
0.0
 20
0.0
 30
0.0
  9
$UCSORGFRONT
 10
0.0
 20
0.0
 30
0.0
  9
$UCSORGBACK
 10
0.0
 20
0.0
 30
0.0
  9
$PUCSBASE
  2

  9
$PUCSNAME
  2

  9
$PUCSORG
 10
0.0
 20
0.0
 30
0.0
  9
$PUCSXDIR
 10
1.0
 20
0.0
 30
0.0
  9
$PUCSYDIR
 10
0.0
 20
1.0
 30
0.0
  9
$PUCSORTHOREF
  2

  9
$PUCSORTHOVIEW
 70
     0
  9
$PUCSORGTOP
 10
0.0
 20
0.0
 30
0.0
  9
$PUCSORGBOTTOM
 10
0.0
 20
0.0
 30
0.0
  9
$PUCSORGLEFT
 10
0.0
 20
0.0
 30
0.0
  9
$PUCSORGRIGHT
 10
0.0
 20
0.0
 30
0.0
  9
$PUCSORGFRONT
 10
0.0
 20
0.0
 30
0.0
  9
$PUCSORGBACK
 10
0.0
 20
0.0
 30
0.0
  9
$USERI1
 70
     0
  9
$USERI2
 70
     0
  9
$USERI3
 70
     0
  9
$USERI4
 70
     0
  9
$USERI5
 70
     0
  9
$USERR1
 40
0.0
  9
$USERR2
 40
0.0
  9
$USERR3
 40
0.0
  9
$USERR4
 40
0.0
  9
$USERR5
 40
0.0
  9
$WORLDVIEW
 70
     1
  9
$SHADEDGE
 70
     3
  9
$SHADEDIF
 70
    70
  9
$TILEMODE
 70
     1
  9
$MAXACTVP
 70
    64
  9
$PINSBASE
 10
0.0
 20
0.0
 30
0.0
  9
$PLIMCHECK
 70
     0
  9
$PEXTMIN
 10
1.000000000000000E+20
 20
1.000000000000000E+20
 30
1.000000000000000E+20
  9
$PEXTMAX
 10
-1.000000000000000E+20
 20
-1.000000000000000E+20
 30
-1.000000000000000E+20
  9
$PLIMMIN
 10
0.0
 20
0.0
  9
$PLIMMAX
 10
12.0
 20
9.0
  9
$UNITMODE
 70
     0
  9
$VISRETAIN
 70
     1
  9
$PLINEGEN
 70
     0
  9
$PSLTSCALE
 70
     1
  9
$TREEDEPTH
 70
  3020
  9
$CMLSTYLE
  2
Standard
  9
$CMLJUST
 70
     0
  9
$CMLSCALE
 40
1.0
  9
$PROXYGRAPHICS
 70
     1
  9
$MEASUREMENT
 70
     0
  9
$CELWEIGHT
370
    -1
  9
$ENDCAPS
280
     0
  9
$JOINSTYLE
280
     0
  9
$LWDISPLAY
290
     1
  9
$INSUNITS
 70
     0
  9
$HYPERLINKBASE
  1

  9
$STYLESHEET
  1

  9
$XEDIT
290
     1
  9
$CEPSNTYPE
380
     0
  9
$PSTYLEMODE
290
     1
  9
$FINGERPRINTGUID
  2
{D136BAEC-3F6E-4EB9-AFA9-8E7136C54C0D}
  9
$VERSIONGUID
  2
{FAEB1C32-E019-11D5-929B-00C0DF256EC4}
  9
$EXTNAMES
290
     1
  9
$PSVPSCALE
 40
0.0
  9
$OLESTARTUP
290
     0
  9
$SORTENTS
280
   127
  9
$INDEXCTL
280
     0
  9
$HIDETEXT
280
     1
  9
$XCLIPFRAME
280
     2
  9
$HALOGAP
280
     0
  9
$OBSCOLOR
 70
   257
  9
$OBSLTYPE
280
     0
  9
$INTERSECTIONDISPLAY
280
     0
  9
$INTERSECTIONCOLOR
 70
   257
  9
$DIMASSOC
280
     2
  9
$PROJECTNAME
  1

  9
$CAMERADISPLAY
290
     0
  9
$LENSLENGTH
 40
50.0
  9
$CAMERAHEIGHT
 40
0.0
  9
$STEPSPERSEC
 40
2.0
  9
$STEPSIZE
 40
6.0
  9
$3DDWFPREC
 40
2.0
  9
$PSOLWIDTH
 40
0.25
  9
$PSOLHEIGHT
 40
4.0
  9
$LOFTANG1
 40
1.570796326794897
  9
$LOFTANG2
 40
1.570796326794897
  9
$LOFTMAG1
 40
0.0
  9
$LOFTMAG2
 40
0.0
  9
$LOFTPARAM
 70
     7
  9
$LOFTNORMALS
280
     1
  9
$LATITUDE
 40
37.795
  9
$LONGITUDE
 40
-122.394
  9
$NORTHDIRECTION
 40
0.0
  9
$TIMEZONE
 70
 -8000
  9
$LIGHTGLYPHDISPLAY
280
     1
  9
$TILEMODELIGHTSYNCH
280
     1
  9
$CMATERIAL
347
3C
  9
$SOLIDHIST
280
     1
  9
$SHOWHIST
280
     1
  9
$DWFFRAME
280
     2
  9
$DGNFRAME
280
     2
  9
$REALWORLDSCALE
290
     1
  9
$INTERFERECOLOR
 62
   256
  9
$CSHADOW
280
     0
  9
$SHADOWPLANELOCATION
 40
0.0
  0
ENDSEC
  0
SECTION
  2
CLASSES
  0
CLASS
  1
ACDBDICTIONARYWDFLT
  2
AcDbDictionaryWithDefault
  3
ObjectDBX Classes
 90
        0
 91
        4
280
     0
281
     0
  0
CLASS
  1
VISUALSTYLE
  2
AcDbVisualStyle
  3
ObjectDBX Classes
 90
     4095
 91
        4
280
     0
281
     0
  0
CLASS
  1
MATERIAL
  2
AcDbMaterial
  3
ObjectDBX Classes
 90
     1153
 91
        4
280
     0
281
     0
  0
CLASS
  1
SUN
  2
AcDbSun
  3
SCENEOE
 90
     1024
 91
        4
280
     0
281
     0
  0
ENDSEC
  0
SECTION
  2
TABLES
  0
TABLE
  2
VPORT
  5
8
330
0
100
AcDbSymbolTable
 70
     1
  0
VPORT
  5
29
330
8
100
AcDbSymbolTableRecord
100
AcDbViewportTableRecord
  2
*Active
 70
     0
 10
0.0
 20
0.0
 11
1.0
 21
1.0
 12
0.0
 22
0.0
 13
0.0
 23
0.0
 14
0.5
 24
0.5
 15
0.5
 25
0.5
 16
0.0
 26
0.0
 36
1.0
 17
990.858030019022
 27
-998.6334654171419
 37
0.0
 40
942.7330691657162
 41
0.8601037697332994
 42
50.0
 43
0.0
 44
0.0
 50
0.0
 51
0.0
 71
     0
 72
   100
 73
     1
 74
     3
 75
     0
 76
     0
 77
     0
 78
     0
281
     0
 65
     1
110
0.0
120
0.0
130
0.0
111
1.0
121
0.0
131
0.0
112
0.0
122
1.0
132
0.0
 79
     0
146
0.0
 60
     3
 61
     5
292
     1
282
     1
141
0.0
142
0.0
 63
   250
361
3F
  0
ENDTAB
  0
TABLE
  2
LTYPE
  5
5
330
0
100
AcDbSymbolTable
 70
     1
  0
LTYPE
  5
14
330
5
100
AcDbSymbolTableRecord
100
AcDbLinetypeTableRecord
  2
ByBlock
 70
     0
  3

 72
    65
 73
     0
 40
0.0
  0
LTYPE
  5
15
330
5
100
AcDbSymbolTableRecord
100
AcDbLinetypeTableRecord
  2
ByLayer
 70
     0
  3

 72
    65
 73
     0
 40
0.0
  0
LTYPE
  5
16
330
5
100
AcDbSymbolTableRecord
100
AcDbLinetypeTableRecord
  2
Continuous
 70
     0
  3
Solid line
 72
    65
 73
     0
 40
0.0
  0
ENDTAB
  0
TABLE
  2
LAYER
  5
2
330
0
100
AcDbSymbolTable
 70
     2
  0
LAYER
  5
10
330
2
100
AcDbSymbolTableRecord
100
AcDbLayerTableRecord
  2
0
 70
     0
 62
     7
  6
Continuous
370
    -3
390
F
347
3E
  0
LAYER
  5
40
330
2
100
AcDbSymbolTableRecord
100
AcDbLayerTableRecord
  2
katman 1
 70
     0
 62
     7
  6
Continuous
370
    -3
390
F
347
3E
  0
ENDTAB
  0
TABLE
  2
STYLE
  5
3
330
0
100
AcDbSymbolTable
 70
     1
  0
STYLE
  5
11
330
3
100
AcDbSymbolTableRecord
100
AcDbTextStyleTableRecord
  2
Standard
 70
     0
 40
0.0
 41
1.0
 50
0.0
 71
     0
 42
0.2
  3
txt
  4

  0
ENDTAB
  0
TABLE
  2
VIEW
  5
6
330
0
100
AcDbSymbolTable
 70
     0
  0
ENDTAB
  0
TABLE
  2
UCS
  5
7
330
0
100
AcDbSymbolTable
 70
     0
  0
ENDTAB
  0
TABLE
  2
APPID
  5
9
330
0
100
AcDbSymbolTable
 70
     1
  0
APPID
  5
12
330
9
100
AcDbSymbolTableRecord
100
AcDbRegAppTableRecord
  2
ACAD
 70
     0
  0
ENDTAB
  0
TABLE
  2
DIMSTYLE
  5
A
330
0
100
AcDbSymbolTable
 70
     1
100
AcDbDimStyleTable
  0
DIMSTYLE
105
27
330
A
100
AcDbSymbolTableRecord
100
AcDbDimStyleTableRecord
  2
Standard
 70
     0
178
     0
340
11
  0
ENDTAB
  0
TABLE
  2
BLOCK_RECORD
  5
1
330
0
100
AcDbSymbolTable
 70
     6
  0
BLOCK_RECORD
  5
1F
330
1
100
AcDbSymbolTableRecord
100
AcDbBlockTableRecord
  2
*Model_Space
340
22
 70
     0
280
     1
281
     0
  0
BLOCK_RECORD
  5
1B
330
1
100
AcDbSymbolTableRecord
100
AcDbBlockTableRecord
  2
*Paper_Space
340
1E
 70
     0
280
     1
281
     0
  0
BLOCK_RECORD
  5
23
330
1
100
AcDbSymbolTableRecord
100
AcDbBlockTableRecord
  2
*Paper_Space0
340
26
 70
     0
280
     1
281
     0
  0
BLOCK_RECORD
  5
43
330
1
100
AcDbSymbolTableRecord
100
AcDbBlockTableRecord
  2
block 2
340
0
102
{BLKREFS
331
44
102
}
 70
     0
280
     1
281
     0
  0
BLOCK_RECORD
  5
57
330
1
100
AcDbSymbolTableRecord
100
AcDbBlockTableRecord
  2
block 3
340
0
102
{BLKREFS
331
58
102
}
 70
     0
280
     1
281
     0
  0
BLOCK_RECORD
  5
6B
330
1
100
AcDbSymbolTableRecord
100
AcDbBlockTableRecord
  2
block 4
340
0
102
{BLKREFS
331
6C
102
}
 70
     0
280
     1
281
     0
  0
BLOCK_RECORD
  5
71
330
1
100
AcDbSymbolTableRecord
100
AcDbBlockTableRecord
  2
block 5
340
0
102
{BLKREFS
331
72
102
}
 70
     0
280
     1
281
     0
  0
BLOCK_RECORD
  5
A2
330
1
100
AcDbSymbolTableRecord
100
AcDbBlockTableRecord
  2
block 6
340
0
102
{BLKREFS
331
A3
102
}
 70
     0
280
     1
281
     0
  0
ENDTAB
  0
ENDSEC
  0
SECTION
  2
BLOCKS
  0
BLOCK
  5
20
330
1F
100
AcDbEntity
  8
0
100
AcDbBlockBegin
  2
*Model_Space
 70
     0
 10
0.0
 20
0.0
 30
0.0
  3
*Model_Space
  1

  0
ENDBLK
  5
21
330
1F
100
AcDbEntity
  8
0
100
AcDbBlockEnd
  0
BLOCK
  5
1C
330
1B
100
AcDbEntity
 67
     1
  8
0
100
AcDbBlockBegin
  2
*Paper_Space
 70
     0
 10
0.0
 20
0.0
 30
0.0
  3
*Paper_Space
  1

  0
ENDBLK
  5
1D
330
1B
100
AcDbEntity
 67
     1
  8
0
100
AcDbBlockEnd
  0
BLOCK
  5
24
330
23
100
AcDbEntity
  8
0
100
AcDbBlockBegin
  2
*Paper_Space0
 70
     0
 10
0.0
 20
0.0
 30
0.0
  3
*Paper_Space0
  1

  0
ENDBLK
  5
25
330
23
100
AcDbEntity
  8
0
100
AcDbBlockEnd
  0
BLOCK
  5
45
330
43
100
AcDbEntity
  8
0
100
AcDbBlockBegin
  2
block 2
 70
     0
 10
0.0
 20
0.0
 30
0.0
  3
block 2
  1

  0
SPLINE
  5
47
330
43
100
AcDbEntity
  8
katman 1
370
     0
100
AcDbSpline
210
0.0
220
0.0
230
1.0
 70
    11
 71
     3
 72
   104
 73
   100
 74
     0
 42
0.0000000001
 43
0.0000000001
 12
1.0
 22
0.0
 32
0.0
 13
1.0
 23
0.0
 33
0.0
 40
0.0
 40
0.0
 40
0.0
 40
0.0
 40
1.0
 40
1.0
 40
1.0
 40
2.0
 40
2.0
 40
2.0
 40
3.0
 40
3.0
 40
3.0
 40
4.0
 40
4.0
 40
4.0
 40
5.0
 40
5.0
 40
5.0
 40
6.0
 40
6.0
 40
6.0
 40
7.0
 40
7.0
 40
7.0
 40
8.0
 40
8.0
 40
8.0
 40
9.0
 40
9.0
 40
9.0
 40
10.0
 40
10.0
 40
10.0
 40
11.0
 40
11.0
 40
11.0
 40
12.0
 40
12.0
 40
12.0
 40
13.0
 40
13.0
 40
13.0
 40
14.0
 40
14.0
 40
14.0
 40
15.0
 40
15.0
 40
15.0
 40
16.0
 40
16.0
 40
16.0
 40
17.0
 40
17.0
 40
17.0
 40
18.0
 40
18.0
 40
18.0
 40
19.0
 40
19.0
 40
19.0
 40
20.0
 40
20.0
 40
20.0
 40
21.0
 40
21.0
 40
21.0
 40
22.0
 40
22.0
 40
22.0
 40
23.0
 40
23.0
 40
23.0
 40
24.0
 40
24.0
 40
24.0
 40
25.0
 40
25.0
 40
25.0
 40
26.0
 40
26.0
 40
26.0
 40
27.0
 40
27.0
 40
27.0
 40
28.0
 40
28.0
 40
28.0
 40
29.0
 40
29.0
 40
29.0
 40
30.0
 40
30.0
 40
30.0
 40
31.0
 40
31.0
 40
31.0
 40
32.0
 40
32.0
 40
32.0
 40
33.0
 40
33.0
 40
33.0
 40
33.0
 10
1211.985210347479
 20
-1273.182301205987
 30
0.0
 10
1132.768299911007
 20
-1304.845601698315
 30
0.0
 10
1053.710002956326
 20
-1323.004951094128
 30
0.0
 10
969.4997776268538
 20
-1292.424457022211
 30
0.0
 10
1046.530406639813
 20
-1237.808506030542
 30
0.0
 10
1131.678589931407
 20
-1245.008791977176
 30
0.0
 10
1218.033738471582
 20
-1259.912818552562
 30
0.0
 10
1185.046217461686
 20
-1241.650042053574
 30
0.0
 10
1147.817174944685
 20
-1244.546674460427
 30
0.0
 10
1113.2847720925
 20
-1234.994590049304
 30
0.0
 10
1060.048185902142
 20
-1220.276749097582
 30
0.0
 10
1010.784177074733
 20
-1197.517229875964
 30
0.0
 10
965.8306832514209
 20
-1166.102204945098
 30
0.0
 10
946.512672473893
 20
-1152.59821175371
 30
0.0
 10
934.2984030515736
 20
-1130.576657752177
 30
0.0
 10
911.3388700404839
 20
-1115.28641071622
 30
0.0
 10
1040.950878544207
 20
-1104.720471286799
 30
0.0
 10
1133.47869298922
 20
-1172.867987611731
 30
0.0
 10
1223.627052638125
 20
-1247.422680379466
 30
0.0
 10
1212.750747709435
 20
-1228.946104020073
 30
0.0
 10
1198.039852411772
 20
-1215.186931708031
 30
0.0
 10
1181.956453777111
 20
-1203.138158279253
 30
0.0
 10
1115.140019434057
 20
-1153.074094293956
 30
0.0
 10
1068.627836650085
 20
-1087.368080608061
 30
0.0
 10
1036.033439659946
 20
-1011.620250757551
 30
0.0
 10
1024.212273209949
 20
-984.1570925120805
 30
0.0
 10
1021.867357257208
 20
-953.6869291025241
 30
0.0
 10
1017.605125072547
 20
-920.8511495863877
 30
0.0
 10
1034.626481669329
 20
-946.7625119066652
 30
0.0
 10
1062.462074304432
 20
-954.790425153059
 30
0.0
 10
1081.683519443101
 20
-973.6394359020906
 30
0.0
 10
1116.215922295285
 20
-1007.50972849549
 30
0.0
 10
1145.423955125078
 20
-1045.00087473977
 30
0.0
 10
1169.859397528902
 20
-1087.347369930503
 30
0.0
 10
1194.246557113296
 20
-1129.617989112498
 30
0.0
 10
1204.98491714288
 20
-1176.688812957207
 30
0.0
 10
1225.344355080577
 20
-1220.104328497418
 30
0.0
 10
1228.772056406293
 20
-1227.408083642098
 30
0.0
 10
1231.123896965657
 20
-1235.394575533377
 30
0.0
 10
1237.793113993426
 20
-1241.33277299512
 30
0.0
 10
1235.061956532678
 20
-1201.427759395987
 30
0.0
 10
1215.123256851484
 20
-1166.647080982337
 30
0.0
 10
1207.233288504194
 20
-1128.466252337405
 30
0.0
 10
1195.984570233306
 20
-1074.015839434149
 30
0.0
 10
1195.625921914605
 20
-1019.27572961431
 30
0.0
 10
1203.846966438723
 20
-965.0460201306469
 30
0.0
 10
1207.447088364603
 20
-941.2864635328233
 30
0.0
 10
1221.461439797298
 20
-919.113168037532
 30
0.0
 10
1229.579015123369
 20
-899.0985923475992
 30
0.0
 10
1290.87799026118
 20
-1009.765045510867
 30
0.0
 10
1271.428938143734
 20
-1125.962722902874
 30
0.0
 10
1246.379668300557
 20
-1242.684565654559
 30
0.0
 10
1255.662808567527
 20
-1234.511846044745
 30
0.0
 10
1258.07669696982
 20
-1224.387271359639
 30
0.0
 10
1259.835378672517
 20
-1214.283449446966
 30
0.0
 10
1269.711635701282
 20
-1157.612258371704
 30
0.0
 10
1290.346921342318
 20
-1105.679160973916
 30
0.0
 10
1325.493151633855
 20
-1059.649743241938
 30
0.0
 10
1339.907530645494
 20
-1040.766235744413
 30
0.0
 10
1358.466865525377
 20
-1027.179484032535
 30
0.0
 10
1376.895159065341
 20
-1014.358311777485
 30
0.0
 10
1376.605504243631
 20
-1056.973793207244
 30
0.0
 10
1363.722242050779
 20
-1096.340855375764
 30
0.0
 10
1343.4179904917
 20
-1133.907877628779
 30
0.0
 10
1323.486152274818
 20
-1170.792078945453
 30
0.0
 10
1294.616057086167
 20
-1200.655360569715
 30
0.0
 10
1268.201229560053
 20
-1233.325612521156
 30
0.0
 10
1307.623457059752
 20
-1209.99364512043
 30
0.0
 10
1346.866402494976
 20
-1188.379022257031
 30
0.0
 10
1396.28216333986
 20
-1199.579457708489
 30
0.0
 10
1362.267022288168
 20
-1242.725987009675
 30
0.0
 10
1315.865212261428
 20
-1255.567869942282
 30
0.0
 10
1264.021755895878
 20
-1257.485207221642
 30
0.0
 10
1295.03679534267
 20
-1259.637012944098
 30
0.0
 10
1326.196641152881
 20
-1260.616350166463
 30
0.0
 10
1350.701034958822
 20
-1287.134646890623
 30
0.0
 10
1311.485703760343
 20
-1299.942054122173
 30
0.0
 10
1281.387953692987
 20
-1282.155160163435
 30
0.0
 10
1248.696991063987
 20
-1262.216418387368
 30
0.0
 10
1255.207594609967
 20
-1288.589866653238
 30
0.0
 10
1274.849735910264
 20
-1301.666260123813
 30
0.0
 10
1291.057272325657
 20
-1323.653338424287
 30
0.0
 10
1262.994093759207
 20
-1314.549522316662
 30
0.0
 10
1256.028318350542
 20
-1292.32107201391
 30
0.0
 10
1240.938064056618
 20
-1272.872019896462
 30
0.0
 10
1245.48308959868
 20
-1307.659601869298
 30
0.0
 10
1242.931256297281
 20
-1337.474558579259
 30
0.0
 10
1219.364778358589
 20
-1364.917048242041
 30
0.0
 10
1208.529852690142
 20
-1342.012680562133
 30
0.0
 10
1214.96460127482
 20
-1321.487767678333
 30
0.0
 10
1218.688903076307
 20
-1296.990235336703
 30
0.0
 10
1205.27457196459
 20
-1317.90141077595
 30
0.0
 10
1194.329315633784
 20
-1336.102139432009
 30
0.0
 10
1178.825268737419
 20
-1350.537187026333
 30
0.0
 10
1163.300511163492
 20
-1364.992945298218
 30
0.0
 10
1147.051595487854
 20
-1378.600365592782
 30
0.0
 10
1122.126463425411
 20
-1381.862549877522
 30
0.0
 10
1132.085521069537
 20
-1327.418935296271
 30
0.0
 10
1170.162901563857
 20
-1298.872970630386
 30
0.0
 10
1211.985210347479
 20
-1273.182301205987
 30
0.0
  0
HATCH
  5
48
330
43
100
AcDbEntity
  8
katman 1
 62
   105
420
  5027417
100
AcDbHatch
 10
0.0
 20
0.0
 30
0.0
210
0.0
220
0.0
230
1.0
  2
SOLID
 70
     1
 71
     0
 91
        1
 92
        1
 93
        1
 72
     4
 94
        3
 73
     0
 74
     1
 95
      104
 96
      100
 40
0.0
 40
0.0
 40
0.0
 40
0.0
 40
1.0
 40
1.0
 40
1.0
 40
2.0
 40
2.0
 40
2.0
 40
3.0
 40
3.0
 40
3.0
 40
4.0
 40
4.0
 40
4.0
 40
5.0
 40
5.0
 40
5.0
 40
6.0
 40
6.0
 40
6.0
 40
7.0
 40
7.0
 40
7.0
 40
8.0
 40
8.0
 40
8.0
 40
9.0
 40
9.0
 40
9.0
 40
10.0
 40
10.0
 40
10.0
 40
11.0
 40
11.0
 40
11.0
 40
12.0
 40
12.0
 40
12.0
 40
13.0
 40
13.0
 40
13.0
 40
14.0
 40
14.0
 40
14.0
 40
15.0
 40
15.0
 40
15.0
 40
16.0
 40
16.0
 40
16.0
 40
17.0
 40
17.0
 40
17.0
 40
18.0
 40
18.0
 40
18.0
 40
19.0
 40
19.0
 40
19.0
 40
20.0
 40
20.0
 40
20.0
 40
21.0
 40
21.0
 40
21.0
 40
22.0
 40
22.0
 40
22.0
 40
23.0
 40
23.0
 40
23.0
 40
24.0
 40
24.0
 40
24.0
 40
25.0
 40
25.0
 40
25.0
 40
26.0
 40
26.0
 40
26.0
 40
27.0
 40
27.0
 40
27.0
 40
28.0
 40
28.0
 40
28.0
 40
29.0
 40
29.0
 40
29.0
 40
30.0
 40
30.0
 40
30.0
 40
31.0
 40
31.0
 40
31.0
 40
32.0
 40
32.0
 40
32.0
 40
33.0
 40
33.0
 40
33.0
 40
33.0
 10
1211.985210347479
 20
-1273.182301205987
 10
1132.768299911007
 20
-1304.845601698315
 10
1053.710002956326
 20
-1323.004951094128
 10
969.4997776268538
 20
-1292.424457022211
 10
1046.530406639813
 20
-1237.808506030542
 10
1131.678589931407
 20
-1245.008791977176
 10
1218.033738471582
 20
-1259.912818552562
 10
1185.046217461686
 20
-1241.650042053574
 10
1147.817174944685
 20
-1244.546674460427
 10
1113.2847720925
 20
-1234.994590049304
 10
1060.048185902142
 20
-1220.276749097582
 10
1010.784177074733
 20
-1197.517229875964
 10
965.8306832514209
 20
-1166.102204945098
 10
946.512672473893
 20
-1152.59821175371
 10
934.2984030515736
 20
-1130.576657752177
 10
911.3388700404839
 20
-1115.28641071622
 10
1040.950878544207
 20
-1104.720471286799
 10
1133.47869298922
 20
-1172.867987611731
 10
1223.627052638125
 20
-1247.422680379466
 10
1212.750747709435
 20
-1228.946104020073
 10
1198.039852411772
 20
-1215.186931708031
 10
1181.956453777111
 20
-1203.138158279253
 10
1115.140019434057
 20
-1153.074094293956
 10
1068.627836650085
 20
-1087.368080608061
 10
1036.033439659946
 20
-1011.620250757551
 10
1024.212273209949
 20
-984.1570925120805
 10
1021.867357257208
 20
-953.6869291025241
 10
1017.605125072547
 20
-920.8511495863877
 10
1034.626481669329
 20
-946.7625119066652
 10
1062.462074304432
 20
-954.790425153059
 10
1081.683519443101
 20
-973.6394359020906
 10
1116.215922295285
 20
-1007.50972849549
 10
1145.423955125078
 20
-1045.00087473977
 10
1169.859397528902
 20
-1087.347369930503
 10
1194.246557113296
 20
-1129.617989112498
 10
1204.98491714288
 20
-1176.688812957207
 10
1225.344355080577
 20
-1220.104328497418
 10
1228.772056406293
 20
-1227.408083642098
 10
1231.123896965657
 20
-1235.394575533377
 10
1237.793113993426
 20
-1241.33277299512
 10
1235.061956532678
 20
-1201.427759395987
 10
1215.123256851484
 20
-1166.647080982337
 10
1207.233288504194
 20
-1128.466252337405
 10
1195.984570233306
 20
-1074.015839434149
 10
1195.625921914605
 20
-1019.27572961431
 10
1203.846966438723
 20
-965.0460201306469
 10
1207.447088364603
 20
-941.2864635328233
 10
1221.461439797298
 20
-919.113168037532
 10
1229.579015123369
 20
-899.0985923475992
 10
1290.87799026118
 20
-1009.765045510867
 10
1271.428938143734
 20
-1125.962722902874
 10
1246.379668300557
 20
-1242.684565654559
 10
1255.662808567527
 20
-1234.511846044745
 10
1258.07669696982
 20
-1224.387271359639
 10
1259.835378672517
 20
-1214.283449446966
 10
1269.711635701282
 20
-1157.612258371704
 10
1290.346921342318
 20
-1105.679160973916
 10
1325.493151633855
 20
-1059.649743241938
 10
1339.907530645494
 20
-1040.766235744413
 10
1358.466865525377
 20
-1027.179484032535
 10
1376.895159065341
 20
-1014.358311777485
 10
1376.605504243631
 20
-1056.973793207244
 10
1363.722242050779
 20
-1096.340855375764
 10
1343.4179904917
 20
-1133.907877628779
 10
1323.486152274818
 20
-1170.792078945453
 10
1294.616057086167
 20
-1200.655360569715
 10
1268.201229560053
 20
-1233.325612521156
 10
1307.623457059752
 20
-1209.99364512043
 10
1346.866402494976
 20
-1188.379022257031
 10
1396.28216333986
 20
-1199.579457708489
 10
1362.267022288168
 20
-1242.725987009675
 10
1315.865212261428
 20
-1255.567869942282
 10
1264.021755895878
 20
-1257.485207221642
 10
1295.03679534267
 20
-1259.637012944098
 10
1326.196641152881
 20
-1260.616350166463
 10
1350.701034958822
 20
-1287.134646890623
 10
1311.485703760343
 20
-1299.942054122173
 10
1281.387953692987
 20
-1282.155160163435
 10
1248.696991063987
 20
-1262.216418387368
 10
1255.207594609967
 20
-1288.589866653238
 10
1274.849735910264
 20
-1301.666260123813
 10
1291.057272325657
 20
-1323.653338424287
 10
1262.994093759207
 20
-1314.549522316662
 10
1256.028318350542
 20
-1292.32107201391
 10
1240.938064056618
 20
-1272.872019896462
 10
1245.48308959868
 20
-1307.659601869298
 10
1242.931256297281
 20
-1337.474558579259
 10
1219.364778358589
 20
-1364.917048242041
 10
1208.529852690142
 20
-1342.012680562133
 10
1214.96460127482
 20
-1321.487767678333
 10
1218.688903076307
 20
-1296.990235336703
 10
1205.27457196459
 20
-1317.90141077595
 10
1194.329315633784
 20
-1336.102139432009
 10
1178.825268737419
 20
-1350.537187026333
 10
1163.300511163492
 20
-1364.992945298218
 10
1147.051595487854
 20
-1378.600365592782
 10
1122.126463425411
 20
-1381.862549877522
 10
1132.085521069537
 20
-1327.418935296271
 10
1170.162901563857
 20
-1298.872970630386
 10
1211.985210347479
 20
-1273.182301205987
 97
        0
 97
        0
 75
     2
 76
     1
 98
        0
  0
SPLINE
  5
49
330
43
100
AcDbEntity
  8
katman 1
370
     0
100
AcDbSpline
210
0.0
220
0.0
230
1.0
 70
    11
 71
     3
 72
   128
 73
   124
 74
     0
 42
0.0000000001
 43
0.0000000001
 12
1.0
 22
0.0
 32
0.0
 13
1.0
 23
0.0
 33
0.0
 40
0.0
 40
0.0
 40
0.0
 40
0.0
 40
1.0
 40
1.0
 40
1.0
 40
2.0
 40
2.0
 40
2.0
 40
3.0
 40
3.0
 40
3.0
 40
4.0
 40
4.0
 40
4.0
 40
5.0
 40
5.0
 40
5.0
 40
6.0
 40
6.0
 40
6.0
 40
7.0
 40
7.0
 40
7.0
 40
8.0
 40
8.0
 40
8.0
 40
9.0
 40
9.0
 40
9.0
 40
10.0
 40
10.0
 40
10.0
 40
11.0
 40
11.0
 40
11.0
 40
12.0
 40
12.0
 40
12.0
 40
13.0
 40
13.0
 40
13.0
 40
14.0
 40
14.0
 40
14.0
 40
15.0
 40
15.0
 40
15.0
 40
16.0
 40
16.0
 40
16.0
 40
17.0
 40
17.0
 40
17.0
 40
18.0
 40
18.0
 40
18.0
 40
19.0
 40
19.0
 40
19.0
 40
20.0
 40
20.0
 40
20.0
 40
21.0
 40
21.0
 40
21.0
 40
22.0
 40
22.0
 40
22.0
 40
23.0
 40
23.0
 40
23.0
 40
24.0
 40
24.0
 40
24.0
 40
25.0
 40
25.0
 40
25.0
 40
26.0
 40
26.0
 40
26.0
 40
27.0
 40
27.0
 40
27.0
 40
28.0
 40
28.0
 40
28.0
 40
29.0
 40
29.0
 40
29.0
 40
30.0
 40
30.0
 40
30.0
 40
31.0
 40
31.0
 40
31.0
 40
32.0
 40
32.0
 40
32.0
 40
33.0
 40
33.0
 40
33.0
 40
34.0
 40
34.0
 40
34.0
 40
35.0
 40
35.0
 40
35.0
 40
36.0
 40
36.0
 40
36.0
 40
37.0
 40
37.0
 40
37.0
 40
38.0
 40
38.0
 40
38.0
 40
39.0
 40
39.0
 40
39.0
 40
40.0
 40
40.0
 40
40.0
 40
41.0
 40
41.0
 40
41.0
 40
41.0
 10
970.1549843264511
 20
-1416.532771344191
 30
0.0
 10
1047.192495851161
 20
-1458.803390526187
 30
0.0
 10
1129.16127442594
 20
-1436.926684982947
 30
0.0
 10
1196.163936487528
 20
-1356.206271964435
 30
0.0
 10
1211.481797760232
 20
-1392.752535639964
 30
0.0
 10
1210.798976823891
 20
-1396.007858460391
 30
0.0
 10
1182.742701816627
 20
-1420.539866503077
 30
0.0
 10
1111.008828589314
 20
-1483.266447166756
 30
0.0
 10
1003.101126076104
 20
-1486.701136241405
 30
0.0
 10
925.6428973423272
 20
-1428.719489672076
 30
0.0
 10
848.9502164942269
 20
-1371.317236935913
 30
0.0
 10
822.3284716194539
 20
-1265.568222656908
 30
0.0
 10
863.799077738433
 20
-1179.413108953642
 30
0.0
 10
869.8958676345319
 20
-1166.750550180383
 30
0.0
 10
869.3027403490196
 20
-1158.074333793578
 30
0.0
 10
861.350703111364
 20
-1146.598008543908
 30
0.0
 10
826.5355384729373
 20
-1096.320165745641
 30
0.0
 10
793.0583541137166
 20
-1045.118130008752
 30
0.0
 10
758.3190496984516
 20
-994.7851218793039
 30
0.0
 10
751.2084258314926
 20
-984.4812651297225
 30
0.0
 10
751.270494721859
 20
-979.6258951358286
 30
0.0
 10
762.2226546118518
 20
-972.5014851979331
 30
0.0
 10
803.6725605769907
 20
-945.5280060873647
 30
0.0
 10
844.7914324601743
 20
-918.0096719869971
 30
0.0
 10
885.2619801555111
 20
-889.5878661492834
 30
0.0
 10
896.5244844973358
 20
-881.6772081718727
 30
0.0
 10
900.7660480993136
 20
-884.8290617942512
 30
0.0
 10
907.276651645293
 20
-894.6363463734633
 30
0.0
 10
941.4573097379634
 20
-946.162512633121
 30
0.0
 10
976.3414363022239
 20
-997.219720959155
 30
0.0
 10
1010.770391003798
 20
-1048.5803491304
 30
0.0
 10
1015.880940118344
 20
-1056.201331238663
 30
0.0
 10
1020.356972163416
 20
-1061.291190723088
 30
0.0
 10
1031.322918124344
 20
-1062.173983354029
 30
0.0
 10
1047.620116619413
 20
-1063.484375705786
 30
0.0
 10
1047.427006389127
 20
-1081.450614871312
 30
0.0
 10
1057.703269949401
 20
-1093.93384948522
 30
0.0
 10
1040.668106234247
 20
-1094.954587015267
 30
0.0
 10
1026.371003539025
 20
-1093.733835695748
 30
0.0
 10
1012.708396865844
 20
-1098.037468188093
 30
0.0
 10
1002.673526355287
 20
-1101.196204322221
 30
0.0
 10
999.9768656430333
 20
-1091.85101621232
 30
0.0
 10
996.0249779102032
 20
-1086.036998626183
 30
0.0
 10
963.2029949887201
 20
-1037.731637391018
 30
0.0
 10
930.3051360584986
 20
-989.4745589752847
 30
0.0
 10
898.2349044280381
 20
-940.6657430580026
 30
0.0
 10
891.4415285720979
 20
-930.3205070481772
 30
0.0
 10
886.986186157148
 20
-927.9273082760064
 30
0.0
 10
876.2271364974422
 20
-935.8448592888853
 30
0.0
 10
854.6607648823165
 20
-951.7144475394198
 30
0.0
 10
832.308166275112
 20
-966.5909019729343
 30
0.0
 10
809.5486470534943
 20
-980.7017979970551
 30
0.0
 10
798.34130804285
 20
-987.6537873347861
 30
0.0
 10
796.6722778961102
 20
-992.6057229675416
 30
0.0
 10
804.7070736542546
 20
-1004.144096060141
 30
0.0
 10
837.6945841404331
 20
-1051.497692214813
 30
0.0
 10
869.2061747101579
 20
-1099.872025899527
 30
0.0
 10
901.9109234100933
 20
-1147.425635843669
 30
0.0
 10
909.0077612061168
 20
-1157.743299711623
 30
0.0
 10
910.4767880871013
 20
-1165.267716181026
 30
0.0
 10
902.862688490588
 20
-1176.461248073298
 30
0.0
 10
890.0414951881021
 20
-1195.30337631058
 30
0.0
 10
882.9101816910206
 20
-1216.952516969912
 30
0.0
 10
879.3583110134168
 20
-1239.601663434296
 30
0.0
 10
877.5582395267584
 20
-1254.278125125773
 30
0.0
 10
874.9443478587109
 20
-1268.878689761077
 30
0.0
 10
882.9929402115094
 20
-1282.906806217274
 30
0.0
 10
887.7241513772342
 20
-1291.155422883261
 30
0.0
 10
879.0755492271737
 20
-1300.114390532592
 30
0.0
 10
883.1860504417955
 20
-1308.735420540779
 30
0.0
 10
886.0137524939692
 20
-1320.466924911103
 30
0.0
 10
891.0415430880266
 20
-1312.218308245112
 30
0.0
 10
896.1520711551366
 20
-1310.66652284364
 30
0.0
 10
903.6696051127892
 20
-1308.37677222208
 30
0.0
 10
909.6146640388461
 20
-1292.024387348392
 30
0.0
 10
919.3460936567562
 20
-1306.583614818326
 30
0.0
 10
929.7671846278845
 20
-1322.170420235183
 30
0.0
 10
910.9388635089763
 20
-1320.901428191104
 30
0.0
 10
906.021424624716
 20
-1327.639638715864
 30
0.0
 10
904.1041083927921
 20
-1330.267326978566
 30
0.0
 10
900.5453446797192
 20
-1331.674263921748
 30
0.0
 10
897.8073047072212
 20
-1333.743311123711
 30
0.0
 10
893.3726519223937
 20
-1337.102061047313
 30
0.0
 10
895.317561343626
 20
-1341.184969072627
 30
0.0
 10
897.0900291172575
 20
-1344.805801676066
 30
0.0
 10
899.6625520487787
 20
-1350.061178201468
 30
0.0
 10
903.59372910405
 20
-1348.523199918367
 30
0.0
 10
907.311127346351
 20
-1346.074835815016
 30
0.0
 10
913.0354828528134
 20
-1342.288486170597
 30
0.0
 10
918.7115765872813
 20
-1338.426239470005
 30
0.0
 10
924.3669806916278
 20
-1334.543366281599
 30
0.0
 10
929.6844261073966
 20
-1330.888057977103
 30
0.0
 10
934.291520539824
 20
-1327.32241175228
 30
0.0
 10
939.3951660951843
 20
-1335.681359080631
 30
0.0
 10
943.54704657005
 20
-1342.48161744832
 30
0.0
 10
943.1608261094789
 20
-1346.61971185225
 30
0.0
 10
936.2778092213002
 20
-1350.668144176507
 30
0.0
 10
930.3741295554873
 20
-1354.144128321655
 30
0.0
 10
924.9118356814279
 20
-1358.364981246072
 30
0.0
 10
919.1943837341514
 20
-1362.158234449675
 30
0.0
 10
914.8493930289987
 20
-1365.041101833031
 30
0.0
 10
911.3457946471071
 20
-1367.696404332477
 30
0.0
 10
916.0011508515281
 20
-1373.455235539997
 30
0.0
 10
919.6978384162703
 20
-1378.034736783116
 30
0.0
 10
923.0014230086899
 20
-1379.207205283205
 30
0.0
 10
928.001620413439
 20
-1375.510475623589
 30
0.0
 10
934.0708171202295
 20
-1371.020636460144
 30
0.0
 10
940.7400551954361
 20
-1367.33085245459
 30
0.0
 10
946.678210562307
 20
-1362.696164832854
 30
0.0
 10
952.740524757347
 20
-1357.964953667128
 30
0.0
 10
955.8095988118002
 20
-1360.206421469258
 30
0.0
 10
959.5614727551583
 20
-1365.799735635799
 30
0.0
 10
963.2029949887201
 20
-1371.227532761368
 30
0.0
 10
964.8858217301131
 20
-1375.289772203992
 30
0.0
 10
958.1062529925457
 20
-1379.151976809713
 30
0.0
 10
955.1268199703309
 20
-1380.84861066948
 30
0.0
 10
952.4301592580778
 20
-1383.062464234863
 30
0.0
 10
949.4162505348049
 20
-1384.690146692512
 30
0.0
 10
936.2571195911778
 20
-1391.793867000284
 30
0.0
 10
935.5398440012141
 20
-1398.276898404391
 30
0.0
 10
950.202498574321
 20
-1404.194385188577
 30
0.0
 10
958.2510804034009
 20
-1406.022018293388
 30
0.0
 10
965.7754968728041
 20
-1408.725561517393
 30
0.0
 10
970.1549843264511
 20
-1416.532771344191
 30
0.0
  0
HATCH
  5
4A
330
43
100
AcDbEntity
  8
katman 1
 62
    96
420
    35584
100
AcDbHatch
 10
0.0
 20
0.0
 30
0.0
210
0.0
220
0.0
230
1.0
  2
SOLID
 70
     1
 71
     0
 91
        1
 92
        1
 93
        1
 72
     4
 94
        3
 73
     0
 74
     1
 95
      128
 96
      124
 40
0.0
 40
0.0
 40
0.0
 40
0.0
 40
1.0
 40
1.0
 40
1.0
 40
2.0
 40
2.0
 40
2.0
 40
3.0
 40
3.0
 40
3.0
 40
4.0
 40
4.0
 40
4.0
 40
5.0
 40
5.0
 40
5.0
 40
6.0
 40
6.0
 40
6.0
 40
7.0
 40
7.0
 40
7.0
 40
8.0
 40
8.0
 40
8.0
 40
9.0
 40
9.0
 40
9.0
 40
10.0
 40
10.0
 40
10.0
 40
11.0
 40
11.0
 40
11.0
 40
12.0
 40
12.0
 40
12.0
 40
13.0
 40
13.0
 40
13.0
 40
14.0
 40
14.0
 40
14.0
 40
15.0
 40
15.0
 40
15.0
 40
16.0
 40
16.0
 40
16.0
 40
17.0
 40
17.0
 40
17.0
 40
18.0
 40
18.0
 40
18.0
 40
19.0
 40
19.0
 40
19.0
 40
20.0
 40
20.0
 40
20.0
 40
21.0
 40
21.0
 40
21.0
 40
22.0
 40
22.0
 40
22.0
 40
23.0
 40
23.0
 40
23.0
 40
24.0
 40
24.0
 40
24.0
 40
25.0
 40
25.0
 40
25.0
 40
26.0
 40
26.0
 40
26.0
 40
27.0
 40
27.0
 40
27.0
 40
28.0
 40
28.0
 40
28.0
 40
29.0
 40
29.0
 40
29.0
 40
30.0
 40
30.0
 40
30.0
 40
31.0
 40
31.0
 40
31.0
 40
32.0
 40
32.0
 40
32.0
 40
33.0
 40
33.0
 40
33.0
 40
34.0
 40
34.0
 40
34.0
 40
35.0
 40
35.0
 40
35.0
 40
36.0
 40
36.0
 40
36.0
 40
37.0
 40
37.0
 40
37.0
 40
38.0
 40
38.0
 40
38.0
 40
39.0
 40
39.0
 40
39.0
 40
40.0
 40
40.0
 40
40.0
 40
41.0
 40
41.0
 40
41.0
 40
41.0
 10
970.1549843264511
 20
-1416.532771344191
 10
1047.192495851161
 20
-1458.803390526187
 10
1129.16127442594
 20
-1436.926684982947
 10
1196.163936487528
 20
-1356.206271964435
 10
1211.481797760232
 20
-1392.752535639964
 10
1210.798976823891
 20
-1396.007858460391
 10
1182.742701816627
 20
-1420.539866503077
 10
1111.008828589314
 20
-1483.266447166756
 10
1003.101126076104
 20
-1486.701136241405
 10
925.6428973423272
 20
-1428.719489672076
 10
848.9502164942269
 20
-1371.317236935913
 10
822.3284716194539
 20
-1265.568222656908
 10
863.799077738433
 20
-1179.413108953642
 10
869.8958676345319
 20
-1166.750550180383
 10
869.3027403490196
 20
-1158.074333793578
 10
861.350703111364
 20
-1146.598008543908
 10
826.5355384729373
 20
-1096.320165745641
 10
793.0583541137166
 20
-1045.118130008752
 10
758.3190496984516
 20
-994.7851218793039
 10
751.2084258314926
 20
-984.4812651297225
 10
751.270494721859
 20
-979.6258951358286
 10
762.2226546118518
 20
-972.5014851979331
 10
803.6725605769907
 20
-945.5280060873647
 10
844.7914324601743
 20
-918.0096719869971
 10
885.2619801555111
 20
-889.5878661492834
 10
896.5244844973358
 20
-881.6772081718727
 10
900.7660480993136
 20
-884.8290617942512
 10
907.276651645293
 20
-894.6363463734633
 10
941.4573097379634
 20
-946.162512633121
 10
976.3414363022239
 20
-997.219720959155
 10
1010.770391003798
 20
-1048.5803491304
 10
1015.880940118344
 20
-1056.201331238663
 10
1020.356972163416
 20
-1061.291190723088
 10
1031.322918124344
 20
-1062.173983354029
 10
1047.620116619413
 20
-1063.484375705786
 10
1047.427006389127
 20
-1081.450614871312
 10
1057.703269949401
 20
-1093.93384948522
 10
1040.668106234247
 20
-1094.954587015267
 10
1026.371003539025
 20
-1093.733835695748
 10
1012.708396865844
 20
-1098.037468188093
 10
1002.673526355287
 20
-1101.196204322221
 10
999.9768656430333
 20
-1091.85101621232
 10
996.0249779102032
 20
-1086.036998626183
 10
963.2029949887201
 20
-1037.731637391018
 10
930.3051360584986
 20
-989.4745589752847
 10
898.2349044280381
 20
-940.6657430580026
 10
891.4415285720979
 20
-930.3205070481772
 10
886.986186157148
 20
-927.9273082760064
 10
876.2271364974422
 20
-935.8448592888853
 10
854.6607648823165
 20
-951.7144475394198
 10
832.308166275112
 20
-966.5909019729343
 10
809.5486470534943
 20
-980.7017979970551
 10
798.34130804285
 20
-987.6537873347861
 10
796.6722778961102
 20
-992.6057229675416
 10
804.7070736542546
 20
-1004.144096060141
 10
837.6945841404331
 20
-1051.497692214813
 10
869.2061747101579
 20
-1099.872025899527
 10
901.9109234100933
 20
-1147.425635843669
 10
909.0077612061168
 20
-1157.743299711623
 10
910.4767880871013
 20
-1165.267716181026
 10
902.862688490588
 20
-1176.461248073298
 10
890.0414951881021
 20
-1195.30337631058
 10
882.9101816910206
 20
-1216.952516969912
 10
879.3583110134168
 20
-1239.601663434296
 10
877.5582395267584
 20
-1254.278125125773
 10
874.9443478587109
 20
-1268.878689761077
 10
882.9929402115094
 20
-1282.906806217274
 10
887.7241513772342
 20
-1291.155422883261
 10
879.0755492271737
 20
-1300.114390532592
 10
883.1860504417955
 20
-1308.735420540779
 10
886.0137524939692
 20
-1320.466924911103
 10
891.0415430880266
 20
-1312.218308245112
 10
896.1520711551366
 20
-1310.66652284364
 10
903.6696051127892
 20
-1308.37677222208
 10
909.6146640388461
 20
-1292.024387348392
 10
919.3460936567562
 20
-1306.583614818326
 10
929.7671846278845
 20
-1322.170420235183
 10
910.9388635089763
 20
-1320.901428191104
 10
906.021424624716
 20
-1327.639638715864
 10
904.1041083927921
 20
-1330.267326978566
 10
900.5453446797192
 20
-1331.674263921748
 10
897.8073047072212
 20
-1333.743311123711
 10
893.3726519223937
 20
-1337.102061047313
 10
895.317561343626
 20
-1341.184969072627
 10
897.0900291172575
 20
-1344.805801676066
 10
899.6625520487787
 20
-1350.061178201468
 10
903.59372910405
 20
-1348.523199918367
 10
907.311127346351
 20
-1346.074835815016
 10
913.0354828528134
 20
-1342.288486170597
 10
918.7115765872813
 20
-1338.426239470005
 10
924.3669806916278
 20
-1334.543366281599
 10
929.6844261073966
 20
-1330.888057977103
 10
934.291520539824
 20
-1327.32241175228
 10
939.3951660951843
 20
-1335.681359080631
 10
943.54704657005
 20
-1342.48161744832
 10
943.1608261094789
 20
-1346.61971185225
 10
936.2778092213002
 20
-1350.668144176507
 10
930.3741295554873
 20
-1354.144128321655
 10
924.9118356814279
 20
-1358.364981246072
 10
919.1943837341514
 20
-1362.158234449675
 10
914.8493930289987
 20
-1365.041101833031
 10
911.3457946471071
 20
-1367.696404332477
 10
916.0011508515281
 20
-1373.455235539997
 10
919.6978384162703
 20
-1378.034736783116
 10
923.0014230086899
 20
-1379.207205283205
 10
928.001620413439
 20
-1375.510475623589
 10
934.0708171202295
 20
-1371.020636460144
 10
940.7400551954361
 20
-1367.33085245459
 10
946.678210562307
 20
-1362.696164832854
 10
952.740524757347
 20
-1357.964953667128
 10
955.8095988118002
 20
-1360.206421469258
 10
959.5614727551583
 20
-1365.799735635799
 10
963.2029949887201
 20
-1371.227532761368
 10
964.8858217301131
 20
-1375.289772203992
 10
958.1062529925457
 20
-1379.151976809713
 10
955.1268199703309
 20
-1380.84861066948
 10
952.4301592580778
 20
-1383.062464234863
 10
949.4162505348049
 20
-1384.690146692512
 10
936.2571195911778
 20
-1391.793867000284
 10
935.5398440012141
 20
-1398.276898404391
 10
950.202498574321
 20
-1404.194385188577
 10
958.2510804034009
 20
-1406.022018293388
 10
965.7754968728041
 20
-1408.725561517393
 10
970.1549843264511
 20
-1416.532771344191
 97
        0
 97
        0
 75
     2
 76
     1
 98
        0
  0
SPLINE
  5
4B
330
43
100
AcDbEntity
  8
katman 1
370
     0
100
AcDbSpline
210
0.0
220
0.0
230
1.0
 70
    11
 71
     3
 72
    29
 73
    25
 74
     0
 42
0.0000000001
 43
0.0000000001
 12
1.0
 22
0.0
 32
0.0
 13
1.0
 23
0.0
 33
0.0
 40
0.0
 40
0.0
 40
0.0
 40
0.0
 40
1.0
 40
1.0
 40
1.0
 40
2.0
 40
2.0
 40
2.0
 40
3.0
 40
3.0
 40
3.0
 40
4.0
 40
4.0
 40
4.0
 40
5.0
 40
5.0
 40
5.0
 40
6.0
 40
6.0
 40
6.0
 40
7.0
 40
7.0
 40
7.0
 40
8.0
 40
8.0
 40
8.0
 40
8.0
 10
842.8741057045327
 20
-838.8686007262504
 30
0.0
 10
848.8329612252437
 20
-835.5443317655672
 30
0.0
 10
854.7159512609342
 20
-832.0821231676373
 30
0.0
 10
860.76446886132
 20
-828.9302800689775
 30
0.0
 10
872.4132041874354
 20
-822.8610728384692
 30
0.0
 10
883.0274159125684
 20
-825.881885120928
 30
0.0
 10
889.7380332480188
 20
-835.9788350455692
 30
0.0
 10
896.9038434935946
 20
-846.7585690735386
 30
0.0
 10
896.2486367939982
 20
-859.4349297033095
 30
0.0
 10
884.9861114047362
 20
-867.1869636752117
 30
0.0
 10
837.542853170391
 20
-899.8158363664079
 30
0.0
 10
789.7616572949055
 20
-931.9757300765432
 30
0.0
 10
741.5873479233796
 20
-963.5149033118587
 30
0.0
 10
730.842094858328
 20
-970.5496722175149
 30
0.0
 10
718.8761062593348
 20
-968.9013211771799
 30
0.0
 10
710.9585526155261
 20
-957.1767203660438
 30
0.0
 10
702.5237371712255
 20
-944.6865716692319
 30
0.0
 10
705.7031728014617
 20
-933.934425568712
 30
0.0
 10
717.2760433002886
 20
-925.03751628603
 30
0.0
 10
722.0900261411498
 20
-921.3339251621028
 30
0.0
 10
728.2350962257497
 20
-919.1338366202181
 30
0.0
 10
731.0352077195439
 20
-913.0991156144855
 30
0.0
 10
766.7055796923914
 20
-885.9187296789769
 30
0.0
 10
801.3966065500854
 20
-857.2831187189968
 30
0.0
 10
842.8741057045327
 20
-838.8686007262504
 30
0.0
  0
HATCH
  5
4C
330
43
100
AcDbEntity
  8
katman 1
 62
   105
420
  4961880
100
AcDbHatch
 10
0.0
 20
0.0
 30
0.0
210
0.0
220
0.0
230
1.0
  2
SOLID
 70
     1
 71
     0
 91
        1
 92
        1
 93
        1
 72
     4
 94
        3
 73
     0
 74
     1
 95
       29
 96
       25
 40
0.0
 40
0.0
 40
0.0
 40
0.0
 40
1.0
 40
1.0
 40
1.0
 40
2.0
 40
2.0
 40
2.0
 40
3.0
 40
3.0
 40
3.0
 40
4.0
 40
4.0
 40
4.0
 40
5.0
 40
5.0
 40
5.0
 40
6.0
 40
6.0
 40
6.0
 40
7.0
 40
7.0
 40
7.0
 40
8.0
 40
8.0
 40
8.0
 40
8.0
 10
842.8741057045327
 20
-838.8686007262504
 10
848.8329612252437
 20
-835.5443317655672
 10
854.7159512609342
 20
-832.0821231676373
 10
860.76446886132
 20
-828.9302800689775
 10
872.4132041874354
 20
-822.8610728384692
 10
883.0274159125684
 20
-825.881885120928
 10
889.7380332480188
 20
-835.9788350455692
 10
896.9038434935946
 20
-846.7585690735386
 10
896.2486367939982
 20
-859.4349297033095
 10
884.9861114047362
 20
-867.1869636752117
 10
837.542853170391
 20
-899.8158363664079
 10
789.7616572949055
 20
-931.9757300765432
 10
741.5873479233796
 20
-963.5149033118587
 10
730.842094858328
 20
-970.5496722175149
 10
718.8761062593348
 20
-968.9013211771799
 10
710.9585526155261
 20
-957.1767203660438
 10
702.5237371712255
 20
-944.6865716692319
 10
705.7031728014617
 20
-933.934425568712
 10
717.2760433002886
 20
-925.03751628603
 10
722.0900261411498
 20
-921.3339251621028
 10
728.2350962257497
 20
-919.1338366202181
 10
731.0352077195439
 20
-913.0991156144855
 10
766.7055796923914
 20
-885.9187296789769
 10
801.3966065500854
 20
-857.2831187189968
 10
842.8741057045327
 20
-838.8686007262504
 97
        0
 97
        0
 75
     2
 76
     1
 98
        0
  0
SPLINE
  5
4D
330
43
100
AcDbEntity
  8
katman 1
370
     0
100
AcDbSpline
210
0.0
220
0.0
230
1.0
 70
    11
 71
     3
 72
    20
 73
    16
 74
     0
 42
0.0000000001
 43
0.0000000001
 12
1.0
 22
0.0
 32
0.0
 13
1.0
 23
0.0
 33
0.0
 40
0.0
 40
0.0
 40
0.0
 40
0.0
 40
1.0
 40
1.0
 40
1.0
 40
2.0
 40
2.0
 40
2.0
 40
3.0
 40
3.0
 40
3.0
 40
4.0
 40
4.0
 40
4.0
 40
5.0
 40
5.0
 40
5.0
 40
5.0
 10
842.8741057045327
 20
-838.8686007262504
 30
0.0
 10
806.0105834942624
 20
-864.2351133185866
 30
0.0
 10
771.0919601815067
 20
-892.5327813755666
 30
0.0
 10
731.0421086478
 20
-913.0991156144855
 30
0.0
 10
701.4754248683776
 20
-872.7044123567339
 30
0.0
 10
701.5030101648972
 20
-872.7388985815096
 30
0.0
 10
741.6977022641067
 20
-845.8481832532898
 30
0.0
 10
761.6709065865844
 20
-832.4890332583318
 30
0.0
 10
781.968254586478
 20
-819.5643865433758
 30
0.0
 10
801.2655757338844
 20
-805.2879603236306
 30
0.0
 10
811.6383944093004
 20
-797.6117944676789
 30
0.0
 10
817.2248260640936
 20
-798.8325326325503
 30
0.0
 10
823.3009263300701
 20
-809.867451043031
 30
0.0
 10
828.9011335320811
 20
-820.0402690836227
 30
0.0
 10
836.2807436380645
 20
-829.2406350445281
 30
0.0
 10
842.8741057045327
 20
-838.8686007262504
 30
0.0
  0
HATCH
  5
4E
330
43
100
AcDbEntity
  8
katman 1
 62
    96
420
    35584
100
AcDbHatch
 10
0.0
 20
0.0
 30
0.0
210
0.0
220
0.0
230
1.0
  2
SOLID
 70
     1
 71
     0
 91
        1
 92
        1
 93
        1
 72
     4
 94
        3
 73
     0
 74
     1
 95
       20
 96
       16
 40
0.0
 40
0.0
 40
0.0
 40
0.0
 40
1.0
 40
1.0
 40
1.0
 40
2.0
 40
2.0
 40
2.0
 40
3.0
 40
3.0
 40
3.0
 40
4.0
 40
4.0
 40
4.0
 40
5.0
 40
5.0
 40
5.0
 40
5.0
 10
842.8741057045327
 20
-838.8686007262504
 10
806.0105834942624
 20
-864.2351133185866
 10
771.0919601815067
 20
-892.5327813755666
 10
731.0421086478
 20
-913.0991156144855
 10
701.4754248683776
 20
-872.7044123567339
 10
701.5030101648972
 20
-872.7388985815096
 10
741.6977022641067
 20
-845.8481832532898
 10
761.6709065865844
 20
-832.4890332583318
 10
781.968254586478
 20
-819.5643865433758
 10
801.2655757338844
 20
-805.2879603236306
 10
811.6383944093004
 20
-797.6117944676789
 10
817.2248260640936
 20
-798.8325326325503
 10
823.3009263300701
 20
-809.867451043031
 10
828.9011335320811
 20
-820.0402690836227
 10
836.2807436380645
 20
-829.2406350445281
 10
842.8741057045327
 20
-838.8686007262504
 97
        0
 97
        0
 75
     2
 76
     1
 98
        0
  0
SPLINE
  5
4F
330
43
100
AcDbEntity
  8
katman 1
370
     0
100
AcDbSpline
210
0.0
220
0.0
230
1.0
 70
    11
 71
     3
 72
    17
 73
    13
 74
     0
 42
0.0000000001
 43
0.0000000001
 12
1.0
 22
0.0
 32
0.0
 13
1.0
 23
0.0
 33
0.0
 40
0.0
 40
0.0
 40
0.0
 40
0.0
 40
1.0
 40
1.0
 40
1.0
 40
2.0
 40
2.0
 40
2.0
 40
3.0
 40
3.0
 40
3.0
 40
4.0
 40
4.0
 40
4.0
 40
4.0
 10
1143.265287938309
 20
-851.5656509861428
 30
0.0
 10
1143.037680959529
 20
-827.9440287637071
 30
0.0
 10
1158.893472615411
 20
-809.8812476376852
 30
0.0
 10
1179.652938132052
 20
-810.0950474980937
 30
0.0
 10
1200.260651631215
 20
-810.3088499894311
 30
0.0
 10
1217.709607948815
 20
-829.2751160074458
 30
0.0
 10
1217.502711647592
 20
-851.2277028212839
 30
0.0
 10
1217.29581534637
 20
-873.1458086722041
 30
0.0
 10
1199.377837952838
 20
-891.967236755645
 30
0.0
 10
1178.949448613024
 20
-891.732747265115
 30
0.0
 10
1159.086603893133
 20
-891.4982682983027
 30
0.0
 10
1143.479087798718
 20
-873.9251531525342
 30
0.0
 10
1143.265287938309
 20
-851.5656509861428
 30
0.0
  0
HATCH
  5
50
330
43
100
AcDbEntity
  8
katman 1
 62
   105
420
  5027417
100
AcDbHatch
 10
0.0
 20
0.0
 30
0.0
210
0.0
220
0.0
230
1.0
  2
SOLID
 70
     1
 71
     0
 91
        1
 92
        1
 93
        1
 72
     4
 94
        3
 73
     0
 74
     1
 95
       17
 96
       13
 40
0.0
 40
0.0
 40
0.0
 40
0.0
 40
1.0
 40
1.0
 40
1.0
 40
2.0
 40
2.0
 40
2.0
 40
3.0
 40
3.0
 40
3.0
 40
4.0
 40
4.0
 40
4.0
 40
4.0
 10
1143.265287938309
 20
-851.5656509861428
 10
1143.037680959529
 20
-827.9440287637071
 10
1158.893472615411
 20
-809.8812476376852
 10
1179.652938132052
 20
-810.0950474980937
 10
1200.260651631215
 20
-810.3088499894311
 10
1217.709607948815
 20
-829.2751160074458
 10
1217.502711647592
 20
-851.2277028212839
 10
1217.29581534637
 20
-873.1458086722041
 10
1199.377837952838
 20
-891.967236755645
 10
1178.949448613024
 20
-891.732747265115
 10
1159.086603893133
 20
-891.4982682983027
 10
1143.479087798718
 20
-873.9251531525342
 10
1143.265287938309
 20
-851.5656509861428
 97
        0
 97
        0
 75
     2
 76
     1
 98
        0
  0
SPLINE
  5
51
330
43
100
AcDbEntity
  8
katman 1
370
     0
100
AcDbSpline
210
0.0
220
0.0
230
1.0
 70
    11
 71
     3
 72
    20
 73
    16
 74
     0
 42
0.0000000001
 43
0.0000000001
 12
1.0
 22
0.0
 32
0.0
 13
1.0
 23
0.0
 33
0.0
 40
0.0
 40
0.0
 40
0.0
 40
0.0
 40
1.0
 40
1.0
 40
1.0
 40
2.0
 40
2.0
 40
2.0
 40
3.0
 40
3.0
 40
3.0
 40
4.0
 40
4.0
 40
4.0
 40
5.0
 40
5.0
 40
5.0
 40
5.0
 10
970.1549843264511
 20
-1416.532771344191
 30
0.0
 10
961.4649818687094
 20
-1415.712047603618
 30
0.0
 10
956.4440948338379
 20
-1408.946264936985
 30
0.0
 10
950.1748843375763
 20
-1404.208150212078
 30
0.0
 10
961.327058017041
 20
-1396.297513282101
 30
0.0
 10
972.3343832382134
 20
-1388.179937956033
 30
0.0
 10
983.6865496597138
 20
-1380.565817312083
 30
0.0
 10
989.0315882647901
 20
-1376.979460409701
 30
0.0
 10
994.4800750204786
 20
-1371.330959864539
 30
0.0
 10
1000.818257966293
 20
-1380.496865909965
 30
0.0
 10
1007.646109523292
 20
-1390.366219379543
 30
0.0
 10
1000.211334086127
 20
-1393.400838780377
 30
0.0
 10
994.2662751600701
 20
-1398.069960008295
 30
0.0
 10
986.307355410665
 20
-1404.318522969312
 30
0.0
 10
976.0793536223855
 20
-1407.635893632665
 30
0.0
 10
970.1549843264511
 20
-1416.532771344191
 30
0.0
  0
HATCH
  5
52
330
43
100
AcDbEntity
  8
katman 1
 62
   105
420
  5355359
100
AcDbHatch
 10
0.0
 20
0.0
 30
0.0
210
0.0
220
0.0
230
1.0
  2
SOLID
 70
     1
 71
     0
 91
        1
 92
        1
 93
        1
 72
     4
 94
        3
 73
     0
 74
     1
 95
       20
 96
       16
 40
0.0
 40
0.0
 40
0.0
 40
0.0
 40
1.0
 40
1.0
 40
1.0
 40
2.0
 40
2.0
 40
2.0
 40
3.0
 40
3.0
 40
3.0
 40
4.0
 40
4.0
 40
4.0
 40
5.0
 40
5.0
 40
5.0
 40
5.0
 10
970.1549843264511
 20
-1416.532771344191
 10
961.4649818687094
 20
-1415.712047603618
 10
956.4440948338379
 20
-1408.946264936985
 10
950.1748843375763
 20
-1404.208150212078
 10
961.327058017041
 20
-1396.297513282101
 10
972.3343832382134
 20
-1388.179937956033
 10
983.6865496597138
 20
-1380.565817312083
 10
989.0315882647901
 20
-1376.979460409701
 10
994.4800750204786
 20
-1371.330959864539
 10
1000.818257966293
 20
-1380.496865909965
 10
1007.646109523292
 20
-1390.366219379543
 10
1000.211334086127
 20
-1393.400838780377
 10
994.2662751600701
 20
-1398.069960008295
 10
986.307355410665
 20
-1404.318522969312
 10
976.0793536223855
 20
-1407.635893632665
 10
970.1549843264511
 20
-1416.532771344191
 97
        0
 97
        0
 75
     2
 76
     1
 98
        0
  0
SPLINE
  5
53
330
43
100
AcDbEntity
  8
katman 1
370
     0
100
AcDbSpline
210
0.0
220
0.0
230
1.0
 70
    11
 71
     3
 72
    17
 73
    13
 74
     0
 42
0.0000000001
 43
0.0000000001
 12
1.0
 22
0.0
 32
0.0
 13
1.0
 23
0.0
 33
0.0
 40
0.0
 40
0.0
 40
0.0
 40
0.0
 40
1.0
 40
1.0
 40
1.0
 40
2.0
 40
2.0
 40
2.0
 40
3.0
 40
3.0
 40
3.0
 40
4.0
 40
4.0
 40
4.0
 40
4.0
 10
1233.255034105425
 20
-803.0120115585842
 30
0.0
 10
1242.441608733534
 20
-804.6879400026501
 30
0.0
 10
1248.441854038208
 20
-809.4191616920925
 30
0.0
 10
1248.021115781705
 20
-819.4609383927655
 30
0.0
 10
1247.621088202761
 20
-829.1785661541617
 30
0.0
 10
1242.579511537768
 20
-834.7580942497689
 30
0.0
 10
1232.413599687292
 20
-834.5304977947062
 30
0.0
 10
1222.185597899012
 20
-834.3029013396444
 30
0.0
 10
1217.557855931336
 20
-828.3095595941568
 30
0.0
 10
1217.564717395649
 20
-818.6815965433643
 30
0.0
 10
1217.571663049708
 20
-808.5639543576717
 30
0.0
 10
1223.971893838454
 20
-804.2672333173023
 30
0.0
 10
1233.255034105425
 20
-803.0120115585842
 30
0.0
  0
HATCH
  5
54
330
43
100
AcDbEntity
  8
katman 1
 62
    93
420
  5486687
100
AcDbHatch
 10
0.0
 20
0.0
 30
0.0
210
0.0
220
0.0
230
1.0
  2
SOLID
 70
     1
 71
     0
 91
        1
 92
        1
 93
        1
 72
     4
 94
        3
 73
     0
 74
     1
 95
       17
 96
       13
 40
0.0
 40
0.0
 40
0.0
 40
0.0
 40
1.0
 40
1.0
 40
1.0
 40
2.0
 40
2.0
 40
2.0
 40
3.0
 40
3.0
 40
3.0
 40
4.0
 40
4.0
 40
4.0
 40
4.0
 10
1233.255034105425
 20
-803.0120115585842
 10
1242.441608733534
 20
-804.6879400026501
 10
1248.441854038208
 20
-809.4191616920925
 10
1248.021115781705
 20
-819.4609383927655
 10
1247.621088202761
 20
-829.1785661541617
 10
1242.579511537768
 20
-834.7580942497689
 10
1232.413599687292
 20
-834.5304977947062
 10
1222.185597899012
 20
-834.3029013396444
 10
1217.557855931336
 20
-828.3095595941568
 10
1217.564717395649
 20
-818.6815965433643
 10
1217.571663049708
 20
-808.5639543576717
 10
1223.971893838454
 20
-804.2672333173023
 10
1233.255034105425
 20
-803.0120115585842
 97
        0
 97
        0
 75
     2
 76
     1
 98
        0
  0
SPLINE
  5
55
330
43
100
AcDbEntity
  8
katman 1
370
     0
100
AcDbSpline
210
0.0
220
0.0
230
1.0
 70
    11
 71
     3
 72
    17
 73
    13
 74
     0
 42
0.0000000001
 43
0.0000000001
 12
1.0
 22
0.0
 32
0.0
 13
1.0
 23
0.0
 33
0.0
 40
0.0
 40
0.0
 40
0.0
 40
0.0
 40
1.0
 40
1.0
 40
1.0
 40
2.0
 40
2.0
 40
2.0
 40
3.0
 40
3.0
 40
3.0
 40
4.0
 40
4.0
 40
4.0
 40
4.0
 10
1206.260854841015
 20
-796.8186639164132
 30
0.0
 10
1200.412361553819
 20
-795.3910215575315
 30
0.0
 10
1197.315694310058
 20
-791.5150058870449
 30
0.0
 10
1197.301887191687
 20
-785.3561418387208
 30
0.0
 10
1197.288080073313
 20
-778.7076032596224
 30
0.0
 10
1201.039954016673
 20
-775.2178106806377
 30
0.0
 10
1207.433323341103
 20
-775.5074773415317
 30
0.0
 10
1214.523278625376
 20
-775.8316280690178
 30
0.0
 10
1219.033786371507
 20
-779.7076432667582
 30
0.0
 10
1217.868221430605
 20
-787.2527697559872
 30
0.0
 10
1216.937167027671
 20
-793.2116252766982
 30
0.0
 10
1212.695603425691
 20
-796.4324421403762
 30
0.0
 10
1206.260854841015
 20
-796.8186639164132
 30
0.0
  0
HATCH
  5
56
330
43
100
AcDbEntity
  8
katman 1
 62
    93
420
  5683555
100
AcDbHatch
 10
0.0
 20
0.0
 30
0.0
210
0.0
220
0.0
230
1.0
  2
SOLID
 70
     1
 71
     0
 91
        1
 92
        1
 93
        1
 72
     4
 94
        3
 73
     0
 74
     1
 95
       17
 96
       13
 40
0.0
 40
0.0
 40
0.0
 40
0.0
 40
1.0
 40
1.0
 40
1.0
 40
2.0
 40
2.0
 40
2.0
 40
3.0
 40
3.0
 40
3.0
 40
4.0
 40
4.0
 40
4.0
 40
4.0
 10
1206.260854841015
 20
-796.8186639164132
 10
1200.412361553819
 20
-795.3910215575315
 10
1197.315694310058
 20
-791.5150058870449
 10
1197.301887191687
 20
-785.3561418387208
 10
1197.288080073313
 20
-778.7076032596224
 10
1201.039954016673
 20
-775.2178106806377
 10
1207.433323341103
 20
-775.5074773415317
 10
1214.523278625376
 20
-775.8316280690178
 10
1219.033786371507
 20
-779.7076432667582
 10
1217.868221430605
 20
-787.2527697559872
 10
1216.937167027671
 20
-793.2116252766982
 10
1212.695603425691
 20
-796.4324421403762
 10
1206.260854841015
 20
-796.8186639164132
 97
        0
 97
        0
 75
     2
 76
     1
 98
        0
  0
ENDBLK
  5
46
330
43
100
AcDbEntity
  8
0
100
AcDbBlockEnd
  0
BLOCK
  5
59
330
57
100
AcDbEntity
  8
0
100
AcDbBlockBegin
  2
block 3
 70
     0
 10
0.0
 20
0.0
 30
0.0
  3
block 3
  1

  0
POLYLINE
  5
5B
330
57
100
AcDbEntity
  8
katman 1
370
     0
100
AcDb2dPolyline
 66
     1
 10
0.0
 20
0.0
 30
0.0
  0
VERTEX
  5
5C
330
5B
100
AcDbEntity
  8
katman 1
370
     0
100
AcDbVertex
100
AcDb2dVertex
 10
1075.977817349853
 20
-810.0931691687465
 30
0.0
  0
VERTEX
  5
5D
330
5B
100
AcDbEntity
  8
katman 1
370
     0
100
AcDbVertex
100
AcDb2dVertex
 10
1075.977817349853
 20
-880.4357140149723
 30
0.0
  0
VERTEX
  5
5E
330
5B
100
AcDbEntity
  8
katman 1
370
     0
100
AcDbVertex
100
AcDb2dVertex
 10
1044.310147748336
 20
-880.4357140149723
 30
0.0
  0
VERTEX
  5
5F
330
5B
100
AcDbEntity
  8
katman 1
370
     0
100
AcDbVertex
100
AcDb2dVertex
 10
1044.310147748336
 20
-850.8909970672685
 30
0.0
  0
VERTEX
  5
60
330
5B
100
AcDbEntity
  8
katman 1
370
     0
100
AcDbVertex
100
AcDb2dVertex
 10
1034.832021302202
 20
-850.8909970672685
 30
0.0
  0
VERTEX
  5
61
330
5B
100
AcDbEntity
  8
katman 1
370
     0
100
AcDbVertex
100
AcDb2dVertex
 10
1034.832021302202
 20
-880.4357140149723
 30
0.0
  0
VERTEX
  5
62
330
5B
100
AcDbEntity
  8
katman 1
370
     0
100
AcDbVertex
100
AcDb2dVertex
 10
1003.164351700685
 20
-880.4357140149723
 30
0.0
  0
VERTEX
  5
63
330
5B
100
AcDbEntity
  8
katman 1
370
     0
100
AcDbVertex
100
AcDb2dVertex
 10
1003.164351700685
 20
-810.0931691687465
 30
0.0
  0
VERTEX
  5
64
330
5B
100
AcDbEntity
  8
katman 1
370
     0
100
AcDbVertex
100
AcDb2dVertex
 10
1034.832021302202
 20
-810.0931691687465
 30
0.0
  0
VERTEX
  5
65
330
5B
100
AcDbEntity
  8
katman 1
370
     0
100
AcDbVertex
100
AcDb2dVertex
 10
1034.832021302202
 20
-835.2497419736146
 30
0.0
  0
VERTEX
  5
66
330
5B
100
AcDbEntity
  8
katman 1
370
     0
100
AcDbVertex
100
AcDb2dVertex
 10
1044.310147748336
 20
-835.2497419736146
 30
0.0
  0
VERTEX
  5
67
330
5B
100
AcDbEntity
  8
katman 1
370
     0
100
AcDbVertex
100
AcDb2dVertex
 10
1044.310147748336
 20
-810.0931691687465
 30
0.0
  0
VERTEX
  5
68
330
5B
100
AcDbEntity
  8
katman 1
370
     0
100
AcDbVertex
100
AcDb2dVertex
 10
1075.977817349853
 20
-810.0931691687465
 30
0.0
  0
SEQEND
  5
69
330
5B
100
AcDbEntity
  8
katman 1
370
     0
  0
HATCH
  5
6A
330
57
100
AcDbEntity
  8
katman 1
 62
   105
420
  5027417
100
AcDbHatch
 10
0.0
 20
0.0
 30
0.0
210
0.0
220
0.0
230
1.0
  2
SOLID
 70
     1
 71
     0
 91
        1
 92
        1
 93
       12
 72
     1
 10
1075.977817349853
 20
-810.0931691687465
 11
1075.977817349853
 21
-880.4357140149723
 72
     1
 10
1075.977817349853
 20
-880.4357140149723
 11
1044.310147748336
 21
-880.4357140149723
 72
     1
 10
1044.310147748336
 20
-880.4357140149723
 11
1044.310147748336
 21
-850.8909970672685
 72
     1
 10
1044.310147748336
 20
-850.8909970672685
 11
1034.832021302202
 21
-850.8909970672685
 72
     1
 10
1034.832021302202
 20
-850.8909970672685
 11
1034.832021302202
 21
-880.4357140149723
 72
     1
 10
1034.832021302202
 20
-880.4357140149723
 11
1003.164351700685
 21
-880.4357140149723
 72
     1
 10
1003.164351700685
 20
-880.4357140149723
 11
1003.164351700685
 21
-810.0931691687465
 72
     1
 10
1003.164351700685
 20
-810.0931691687465
 11
1034.832021302202
 21
-810.0931691687465
 72
     1
 10
1034.832021302202
 20
-810.0931691687465
 11
1034.832021302202
 21
-835.2497419736146
 72
     1
 10
1034.832021302202
 20
-835.2497419736146
 11
1044.310147748336
 21
-835.2497419736146
 72
     1
 10
1044.310147748336
 20
-835.2497419736146
 11
1044.310147748336
 21
-810.0931691687465
 72
     1
 10
1044.310147748336
 20
-810.0931691687465
 11
1075.977817349853
 21
-810.0931691687465
 97
        0
 75
     2
 76
     1
 98
        0
  0
ENDBLK
  5
5A
330
57
100
AcDbEntity
  8
0
100
AcDbBlockEnd
  0
BLOCK
  5
6D
330
6B
100
AcDbEntity
  8
0
100
AcDbBlockBegin
  2
block 4
 70
     0
 10
0.0
 20
0.0
 30
0.0
  3
block 4
  1

  0
SPLINE
  5
6F
330
6B
100
AcDbEntity
  8
katman 1
370
     0
100
AcDbSpline
210
0.0
220
0.0
230
1.0
 70
    11
 71
     3
 72
    68
 73
    64
 74
     0
 42
0.0000000001
 43
0.0000000001
 12
1.0
 22
0.0
 32
0.0
 13
1.0
 23
0.0
 33
0.0
 40
0.0
 40
0.0
 40
0.0
 40
0.0
 40
1.0
 40
1.0
 40
1.0
 40
2.0
 40
2.0
 40
2.0
 40
3.0
 40
3.0
 40
3.0
 40
4.0
 40
4.0
 40
4.0
 40
5.0
 40
5.0
 40
5.0
 40
6.0
 40
6.0
 40
6.0
 40
7.0
 40
7.0
 40
7.0
 40
8.0
 40
8.0
 40
8.0
 40
9.0
 40
9.0
 40
9.0
 40
10.0
 40
10.0
 40
10.0
 40
11.0
 40
11.0
 40
11.0
 40
12.0
 40
12.0
 40
12.0
 40
13.0
 40
13.0
 40
13.0
 40
14.0
 40
14.0
 40
14.0
 40
15.0
 40
15.0
 40
15.0
 40
16.0
 40
16.0
 40
16.0
 40
17.0
 40
17.0
 40
17.0
 40
18.0
 40
18.0
 40
18.0
 40
19.0
 40
19.0
 40
19.0
 40
20.0
 40
20.0
 40
20.0
 40
21.0
 40
21.0
 40
21.0
 40
21.0
 10
1131.583328165549
 20
-907.8442405269925
 30
0.0
 10
1131.583328165549
 20
-907.8442405269925
 30
0.0
 10
1131.583328165549
 20
-917.9651950530115
 30
0.0
 10
1131.583328165549
 20
-917.9651950530115
 30
0.0
 10
1131.583328165549
 20
-917.9651950530115
 30
0.0
 10
1077.983084366591
 20
-917.9651950530115
 30
0.0
 10
1077.983084366591
 20
-917.9651950530115
 30
0.0
 10
1077.983084366591
 20
-917.9651950530115
 30
0.0
 10
1077.998238520904
 20
-909.4943595519971
 30
0.0
 10
1077.998238520904
 20
-909.4943595519971
 30
0.0
 10
1093.875077613327
 20
-893.7023837237166
 30
0.0
 10
1103.310727605493
 20
-883.9299747468567
 30
0.0
 10
1106.305525256383
 20
-880.1771326214166
 30
0.0
 10
1109.299649389304
 20
-876.4246272549617
 30
0.0
 10
1110.797553353228
 20
-873.4975181599939
 30
0.0
 10
1110.797553353228
 20
-871.3947950595593
 30
0.0
 10
1110.797553353228
 20
-869.7810460049013
 30
0.0
 10
1110.344275759828
 20
-868.5774693936028
 30
0.0
 10
1109.439067608968
 20
-867.7827181897228
 30
0.0
 10
1108.532512422171
 20
-866.9886405038123
 30
0.0
 10
1107.154494656799
 20
-866.5909281428876
 30
0.0
 10
1105.303330517931
 20
-866.5909281428876
 30
0.0
 10
1103.45115610211
 20
-866.5909281428876
 30
0.0
 10
1102.072801577753
 20
-867.0310721358837
 30
0.0
 10
1101.167593426893
 20
-867.9110233628917
 30
0.0
 10
1100.26137499908
 20
-868.7909745898987
 30
0.0
 10
1099.809107682635
 20
-870.5390904794504
 30
0.0
 10
1099.809107682635
 20
-873.1546975135752
 30
0.0
 10
1099.809107682635
 20
-873.1546975135752
 30
0.0
 10
1099.809107682635
 20
-878.801808927923
 30
0.0
 10
1099.809107682635
 20
-878.801808927923
 30
0.0
 10
1099.809107682635
 20
-878.801808927923
 30
0.0
 10
1077.983084366591
 20
-878.801808927923
 30
0.0
 10
1077.983084366591
 20
-878.801808927923
 30
0.0
 10
1077.983084366591
 20
-878.801808927923
 30
0.0
 10
1077.983084366591
 20
-876.6384692102429
 30
0.0
 10
1077.983084366591
 20
-876.6384692102429
 30
0.0
 10
1077.983084366591
 20
-873.3139845133355
 30
0.0
 10
1078.263941359826
 20
-870.6923158174859
 30
0.0
 10
1078.827339141222
 20
-868.7727896047254
 30
0.0
 10
1079.389726645662
 20
-866.8539369099344
 30
0.0
 10
1080.776500144635
 20
-864.9653925237653
 30
0.0
 10
1082.987322879158
 20
-863.107156446219
 30
0.0
 10
1085.19747209571
 20
-861.2495938866423
 30
0.0
 10
1088.071710030081
 20
-859.8436251255416
 30
0.0
 10
1091.6093631643
 20
-858.89026043987
 30
0.0
 10
1095.14566926258
 20
-857.9368957541992
 30
0.0
 10
1099.387148674812
 20
-857.4600450318712
 30
0.0
 10
1104.331107329117
 20
-857.4600450318712
 30
0.0
 10
1114.017306005895
 20
-857.4600450318712
 30
0.0
 10
1121.342824199963
 20
-858.9212422664623
 30
0.0
 10
1126.30766191132
 20
-861.8422896997054
 30
0.0
 10
1131.271489345721
 20
-864.7636738919327
 30
0.0
 10
1133.753739821906
 20
-868.4609507848982
 30
0.0
 10
1133.753739821906
 20
-872.9347938965693
 30
0.0
 10
1133.753739821906
 20
-876.3330288111247
 30
0.0
 10
1132.356863553392
 20
-879.9265839368036
 30
0.0
 10
1129.562437498395
 20
-883.7157960325903
 30
0.0
 10
1126.768348202382
 20
-887.5053448873614
 30
0.0
 10
1118.538295375423
 20
-895.5478229598439
 30
0.0
 10
1104.871605499553
 20
-907.8442405269925
 30
0.0
 10
1104.871605499553
 20
-907.8442405269925
 30
0.0
 10
1131.583328165549
 20
-907.8442405269925
 30
0.0
 10
1131.583328165549
 20
-907.8442405269925
 30
0.0
  0
HATCH
  5
70
330
6B
100
AcDbEntity
  8
katman 1
 62
   105
420
  5027417
100
AcDbHatch
 10
0.0
 20
0.0
 30
0.0
210
0.0
220
0.0
230
1.0
  2
SOLID
 70
     1
 71
     0
 91
        1
 92
        1
 93
        1
 72
     4
 94
        3
 73
     0
 74
     1
 95
       68
 96
       64
 40
0.0
 40
0.0
 40
0.0
 40
0.0
 40
1.0
 40
1.0
 40
1.0
 40
2.0
 40
2.0
 40
2.0
 40
3.0
 40
3.0
 40
3.0
 40
4.0
 40
4.0
 40
4.0
 40
5.0
 40
5.0
 40
5.0
 40
6.0
 40
6.0
 40
6.0
 40
7.0
 40
7.0
 40
7.0
 40
8.0
 40
8.0
 40
8.0
 40
9.0
 40
9.0
 40
9.0
 40
10.0
 40
10.0
 40
10.0
 40
11.0
 40
11.0
 40
11.0
 40
12.0
 40
12.0
 40
12.0
 40
13.0
 40
13.0
 40
13.0
 40
14.0
 40
14.0
 40
14.0
 40
15.0
 40
15.0
 40
15.0
 40
16.0
 40
16.0
 40
16.0
 40
17.0
 40
17.0
 40
17.0
 40
18.0
 40
18.0
 40
18.0
 40
19.0
 40
19.0
 40
19.0
 40
20.0
 40
20.0
 40
20.0
 40
21.0
 40
21.0
 40
21.0
 40
21.0
 10
1131.583328165549
 20
-907.8442405269925
 10
1131.583328165549
 20
-907.8442405269925
 10
1131.583328165549
 20
-917.9651950530115
 10
1131.583328165549
 20
-917.9651950530115
 10
1131.583328165549
 20
-917.9651950530115
 10
1077.983084366591
 20
-917.9651950530115
 10
1077.983084366591
 20
-917.9651950530115
 10
1077.983084366591
 20
-917.9651950530115
 10
1077.998238520904
 20
-909.4943595519971
 10
1077.998238520904
 20
-909.4943595519971
 10
1093.875077613327
 20
-893.7023837237166
 10
1103.310727605493
 20
-883.9299747468567
 10
1106.305525256383
 20
-880.1771326214166
 10
1109.299649389304
 20
-876.4246272549617
 10
1110.797553353228
 20
-873.4975181599939
 10
1110.797553353228
 20
-871.3947950595593
 10
1110.797553353228
 20
-869.7810460049013
 10
1110.344275759828
 20
-868.5774693936028
 10
1109.439067608968
 20
-867.7827181897228
 10
1108.532512422171
 20
-866.9886405038123
 10
1107.154494656799
 20
-866.5909281428876
 10
1105.303330517931
 20
-866.5909281428876
 10
1103.45115610211
 20
-866.5909281428876
 10
1102.072801577753
 20
-867.0310721358837
 10
1101.167593426893
 20
-867.9110233628917
 10
1100.26137499908
 20
-868.7909745898987
 10
1099.809107682635
 20
-870.5390904794504
 10
1099.809107682635
 20
-873.1546975135752
 10
1099.809107682635
 20
-873.1546975135752
 10
1099.809107682635
 20
-878.801808927923
 10
1099.809107682635
 20
-878.801808927923
 10
1099.809107682635
 20
-878.801808927923
 10
1077.983084366591
 20
-878.801808927923
 10
1077.983084366591
 20
-878.801808927923
 10
1077.983084366591
 20
-878.801808927923
 10
1077.983084366591
 20
-876.6384692102429
 10
1077.983084366591
 20
-876.6384692102429
 10
1077.983084366591
 20
-873.3139845133355
 10
1078.263941359826
 20
-870.6923158174859
 10
1078.827339141222
 20
-868.7727896047254
 10
1079.389726645662
 20
-866.8539369099344
 10
1080.776500144635
 20
-864.9653925237653
 10
1082.987322879158
 20
-863.107156446219
 10
1085.19747209571
 20
-861.2495938866423
 10
1088.071710030081
 20
-859.8436251255416
 10
1091.6093631643
 20
-858.89026043987
 10
1095.14566926258
 20
-857.9368957541992
 10
1099.387148674812
 20
-857.4600450318712
 10
1104.331107329117
 20
-857.4600450318712
 10
1114.017306005895
 20
-857.4600450318712
 10
1121.342824199963
 20
-858.9212422664623
 10
1126.30766191132
 20
-861.8422896997054
 10
1131.271489345721
 20
-864.7636738919327
 10
1133.753739821906
 20
-868.4609507848982
 10
1133.753739821906
 20
-872.9347938965693
 10
1133.753739821906
 20
-876.3330288111247
 10
1132.356863553392
 20
-879.9265839368036
 10
1129.562437498395
 20
-883.7157960325903
 10
1126.768348202382
 20
-887.5053448873614
 10
1118.538295375423
 20
-895.5478229598439
 10
1104.871605499553
 20
-907.8442405269925
 10
1104.871605499553
 20
-907.8442405269925
 10
1131.583328165549
 20
-907.8442405269925
 10
1131.583328165549
 20
-907.8442405269925
 97
        0
 97
        0
 75
     2
 76
     1
 98
        0
  0
ENDBLK
  5
6E
330
6B
100
AcDbEntity
  8
0
100
AcDbBlockEnd
  0
BLOCK
  5
73
330
71
100
AcDbEntity
  8
0
100
AcDbBlockBegin
  2
block 5
 70
     0
 10
0.0
 20
0.0
 30
0.0
  3
block 5
  1

  0
SPLINE
  5
75
330
71
100
AcDbEntity
  8
katman 1
370
     0
100
AcDbSpline
210
0.0
220
0.0
230
1.0
 70
    11
 71
     3
 72
    59
 73
    55
 74
     0
 42
0.0000000001
 43
0.0000000001
 12
1.0
 22
0.0
 32
0.0
 13
1.0
 23
0.0
 33
0.0
 40
0.0
 40
0.0
 40
0.0
 40
0.0
 40
1.0
 40
1.0
 40
1.0
 40
2.0
 40
2.0
 40
2.0
 40
3.0
 40
3.0
 40
3.0
 40
4.0
 40
4.0
 40
4.0
 40
5.0
 40
5.0
 40
5.0
 40
6.0
 40
6.0
 40
6.0
 40
7.0
 40
7.0
 40
7.0
 40
8.0
 40
8.0
 40
8.0
 40
9.0
 40
9.0
 40
9.0
 40
10.0
 40
10.0
 40
10.0
 40
11.0
 40
11.0
 40
11.0
 40
12.0
 40
12.0
 40
12.0
 40
13.0
 40
13.0
 40
13.0
 40
14.0
 40
14.0
 40
14.0
 40
15.0
 40
15.0
 40
15.0
 40
16.0
 40
16.0
 40
16.0
 40
17.0
 40
17.0
 40
17.0
 40
18.0
 40
18.0
 40
18.0
 40
18.0
 10
685.81878496635
 20
-753.0420264386767
 30
0.0
 10
697.0876171840737
 20
-760.825158393066
 30
0.0
 10
704.8819957700744
 20
-766.6020680007332
 30
0.0
 10
709.2024818500804
 20
-770.369284460784
 30
0.0
 10
713.522994828576
 20
-774.1387598086376
 30
0.0
 10
716.6579205786484
 20
-778.7594648572704
 30
0.0
 10
718.6075710447321
 20
-784.2322995753411
 30
0.0
 10
720.556633486598
 20
-789.7063462065016
 30
0.0
 10
720.9279212182473
 20
-795.5392668645427
 30
0.0
 10
719.7209752891886
 20
-801.7304645590839
 30
0.0
 10
718.5137443141848
 20
-807.923021172769
 30
0.0
 10
715.7251127513782
 20
-814.1826053028681
 30
0.0
 10
711.355530585095
 20
-820.5090609771596
 30
0.0
 10
707.2086325357222
 20
-826.5131117095025
 30
0.0
 10
702.5029497674022
 20
-831.2264284585826
 30
0.0
 10
697.2394091472834
 20
-834.650958167761
 30
0.0
 10
691.9755655488916
 20
-838.0753408708852
 30
0.0
 10
686.3760713327911
 20
-839.8864286765793
 30
0.0
 10
680.4407794929266
 20
-840.0845245631135
 30
0.0
 10
674.5066995661537
 20
-840.2832084738657
 30
0.0
 10
669.0381541305942
 20
-839.0641931928876
 30
0.0
 10
664.0369610558864
 20
-836.4283607565076
 30
0.0
 10
659.0368328882132
 20
-833.7934193226174
 30
0.0
 10
650.7630964432665
 20
-828.488367773708
 30
0.0
 10
639.217266612407
 20
-820.5139411400496
 30
0.0
 10
639.217266612407
 20
-820.5139411400496
 30
0.0
 10
620.0287834943683
 20
-807.2606856232042
 30
0.0
 10
620.0287834943683
 20
-807.2606856232042
 30
0.0
 10
608.7611631897362
 20
-799.4781416930318
 30
0.0
 10
600.9660495734634
 20
-793.7027469767299
 30
0.0
 10
596.6450866106388
 20
-789.933427601095
 30
0.0
 10
592.3247475366879
 20
-786.1659081627695
 30
0.0
 10
589.189059857853
 20
-781.5444591176993
 30
0.0
 10
587.2399974159871
 20
-776.0704124865397
 30
0.0
 10
585.2903469499033
 20
-770.5975777684698
 30
0.0
 10
584.9190592182531
 20
-764.7646571104287
 30
0.0
 10
586.1265931715307
 20
-758.5722475027969
 30
0.0
 10
587.3332361223156
 20
-752.3809028022015
 30
0.0
 10
590.121867685124
 20
-746.1213186721034
 30
0.0
 10
594.4923408538971
 20
-739.7937980907745
 30
0.0
 10
598.63834790078
 20
-733.790812265469
 30
0.0
 10
603.344618693317
 20
-729.0762836032982
 30
0.0
 10
608.6084622917087
 20
-725.6519009001731
 30
0.0
 10
613.873067818864
 20
-722.2282621934864
 30
0.0
 10
619.4725620349645
 20
-720.4171743877932
 30
0.0
 10
625.4067889677917
 20
-720.2181874987664
 30
0.0
 10
631.3422367798748
 20
-720.0205415965602
 30
0.0
 10
636.8104792371614
 20
-721.2394098714822
 30
0.0
 10
641.8106074048328
 20
-723.8743513053732
 30
0.0
 10
646.8119474855957
 20
-726.5098807634813
 30
0.0
 10
655.0855369244891
 20
-731.8152352906645
 30
0.0
 10
666.6303018483122
 20
-739.7887709218312
 30
0.0
 10
666.6303018483122
 20
-739.7887709218312
 30
0.0
 10
685.81878496635
 20
-753.0420264386767
 30
0.0
 10
685.81878496635
 20
-753.0420264386767
 30
0.0
  0
SPLINE
  5
76
330
71
100
AcDbEntity
  8
katman 1
370
     0
100
AcDbSpline
210
0.0
220
0.0
230
1.0
 70
    11
 71
     3
 72
    35
 73
    31
 74
     0
 42
0.0000000001
 43
0.0000000001
 12
1.0
 22
0.0
 32
0.0
 13
1.0
 23
0.0
 33
0.0
 40
0.0
 40
0.0
 40
0.0
 40
0.0
 40
1.0
 40
1.0
 40
1.0
 40
2.0
 40
2.0
 40
2.0
 40
3.0
 40
3.0
 40
3.0
 40
4.0
 40
4.0
 40
4.0
 40
5.0
 40
5.0
 40
5.0
 40
6.0
 40
6.0
 40
6.0
 40
7.0
 40
7.0
 40
7.0
 40
8.0
 40
8.0
 40
8.0
 40
9.0
 40
9.0
 40
9.0
 40
10.0
 40
10.0
 40
10.0
 40
10.0
 10
628.8227775907244
 20
-756.7519810155945
 30
0.0
 10
623.6044683411938
 20
-753.148027550711
 30
0.0
 10
620.0679992439364
 20
-751.1323019312895
 30
0.0
 10
618.2147202519354
 20
-750.7043362406757
 30
0.0
 10
616.3608532357157
 20
-750.2775824631517
 30
0.0
 10
614.8125795351216
 20
-750.9636903713999
 30
0.0
 10
613.5688701077706
 20
-752.7647808133288
 30
0.0
 10
612.5161523814158
 20
-754.2887266360667
 30
0.0
 10
612.2991785052291
 20
-755.8622130286021
 30
0.0
 10
612.9189775215918
 20
-757.4831191430276
 30
0.0
 10
613.5381885137367
 20
-759.1052371705446
 30
0.0
 10
616.7347727133365
 20
-761.9094071407126
 30
0.0
 10
622.5073801674125
 20
-765.8960969701875
 30
0.0
 10
622.5073801674125
 20
-765.8960969701875
 30
0.0
 10
674.8772974394287
 20
-802.0674532855219
 30
0.0
 10
674.8772974394287
 20
-802.0674532855219
 30
0.0
 10
681.3891741404659
 20
-806.5648072593531
 30
0.0
 10
685.5901629655336
 20
-809.0747665335466
 30
0.0
 10
687.480998944905
 20
-809.5958162167362
 30
0.0
 10
689.3715498783304
 20
-810.1182248190717
 30
0.0
 10
690.9871652557813
 20
-809.4082710937637
 30
0.0
 10
692.3268250010378
 20
-807.4688288513225
 30
0.0
 10
693.69802118999
 20
-805.4836763017947
 30
0.0
 10
693.6988723444865
 20
-803.6073185301675
 30
0.0
 10
692.325925595962
 20
-801.8407003359152
 30
0.0
 10
690.954190760528
 20
-800.07467016588
 30
0.0
 10
686.9663672238521
 20
-796.9109181628955
 30
0.0
 10
680.3618490293875
 20
-792.3491503148543
 30
0.0
 10
680.3618490293875
 20
-792.3491503148543
 30
0.0
 10
628.8227775907244
 20
-756.7519810155945
 30
0.0
 10
628.8227775907244
 20
-756.7519810155945
 30
0.0
  0
HATCH
  5
77
330
71
100
AcDbEntity
  8
katman 1
 62
    96
420
    35584
100
AcDbHatch
 10
0.0
 20
0.0
 30
0.0
210
0.0
220
0.0
230
1.0
  2
SOLID
 70
     1
 71
     0
 91
        2
 92
        1
 93
        1
 72
     4
 94
        3
 73
     0
 74
     1
 95
       59
 96
       55
 40
0.0
 40
0.0
 40
0.0
 40
0.0
 40
1.0
 40
1.0
 40
1.0
 40
2.0
 40
2.0
 40
2.0
 40
3.0
 40
3.0
 40
3.0
 40
4.0
 40
4.0
 40
4.0
 40
5.0
 40
5.0
 40
5.0
 40
6.0
 40
6.0
 40
6.0
 40
7.0
 40
7.0
 40
7.0
 40
8.0
 40
8.0
 40
8.0
 40
9.0
 40
9.0
 40
9.0
 40
10.0
 40
10.0
 40
10.0
 40
11.0
 40
11.0
 40
11.0
 40
12.0
 40
12.0
 40
12.0
 40
13.0
 40
13.0
 40
13.0
 40
14.0
 40
14.0
 40
14.0
 40
15.0
 40
15.0
 40
15.0
 40
16.0
 40
16.0
 40
16.0
 40
17.0
 40
17.0
 40
17.0
 40
18.0
 40
18.0
 40
18.0
 40
18.0
 10
685.81878496635
 20
-753.0420264386767
 10
697.0876171840737
 20
-760.825158393066
 10
704.8819957700744
 20
-766.6020680007332
 10
709.2024818500804
 20
-770.369284460784
 10
713.522994828576
 20
-774.1387598086376
 10
716.6579205786484
 20
-778.7594648572704
 10
718.6075710447321
 20
-784.2322995753411
 10
720.556633486598
 20
-789.7063462065016
 10
720.9279212182473
 20
-795.5392668645427
 10
719.7209752891886
 20
-801.7304645590839
 10
718.5137443141848
 20
-807.923021172769
 10
715.7251127513782
 20
-814.1826053028681
 10
711.355530585095
 20
-820.5090609771596
 10
707.2086325357222
 20
-826.5131117095025
 10
702.5029497674022
 20
-831.2264284585826
 10
697.2394091472834
 20
-834.650958167761
 10
691.9755655488916
 20
-838.0753408708852
 10
686.3760713327911
 20
-839.8864286765793
 10
680.4407794929266
 20
-840.0845245631135
 10
674.5066995661537
 20
-840.2832084738657
 10
669.0381541305942
 20
-839.0641931928876
 10
664.0369610558864
 20
-836.4283607565076
 10
659.0368328882132
 20
-833.7934193226174
 10
650.7630964432665
 20
-828.488367773708
 10
639.217266612407
 20
-820.5139411400496
 10
639.217266612407
 20
-820.5139411400496
 10
620.0287834943683
 20
-807.2606856232042
 10
620.0287834943683
 20
-807.2606856232042
 10
608.7611631897362
 20
-799.4781416930318
 10
600.9660495734634
 20
-793.7027469767299
 10
596.6450866106388
 20
-789.933427601095
 10
592.3247475366879
 20
-786.1659081627695
 10
589.189059857853
 20
-781.5444591176993
 10
587.2399974159871
 20
-776.0704124865397
 10
585.2903469499033
 20
-770.5975777684698
 10
584.9190592182531
 20
-764.7646571104287
 10
586.1265931715307
 20
-758.5722475027969
 10
587.3332361223156
 20
-752.3809028022015
 10
590.121867685124
 20
-746.1213186721034
 10
594.4923408538971
 20
-739.7937980907745
 10
598.63834790078
 20
-733.790812265469
 10
603.344618693317
 20
-729.0762836032982
 10
608.6084622917087
 20
-725.6519009001731
 10
613.873067818864
 20
-722.2282621934864
 10
619.4725620349645
 20
-720.4171743877932
 10
625.4067889677917
 20
-720.2181874987664
 10
631.3422367798748
 20
-720.0205415965602
 10
636.8104792371614
 20
-721.2394098714822
 10
641.8106074048328
 20
-723.8743513053732
 10
646.8119474855957
 20
-726.5098807634813
 10
655.0855369244891
 20
-731.8152352906645
 10
666.6303018483122
 20
-739.7887709218312
 10
666.6303018483122
 20
-739.7887709218312
 10
685.81878496635
 20
-753.0420264386767
 10
685.81878496635
 20
-753.0420264386767
 97
        0
 97
        0
 92
        1
 93
        1
 72
     4
 94
        3
 73
     0
 74
     1
 95
       35
 96
       31
 40
0.0
 40
0.0
 40
0.0
 40
0.0
 40
1.0
 40
1.0
 40
1.0
 40
2.0
 40
2.0
 40
2.0
 40
3.0
 40
3.0
 40
3.0
 40
4.0
 40
4.0
 40
4.0
 40
5.0
 40
5.0
 40
5.0
 40
6.0
 40
6.0
 40
6.0
 40
7.0
 40
7.0
 40
7.0
 40
8.0
 40
8.0
 40
8.0
 40
9.0
 40
9.0
 40
9.0
 40
10.0
 40
10.0
 40
10.0
 40
10.0
 10
628.8227775907244
 20
-756.7519810155945
 10
623.6044683411938
 20
-753.148027550711
 10
620.0679992439364
 20
-751.1323019312895
 10
618.2147202519354
 20
-750.7043362406757
 10
616.3608532357157
 20
-750.2775824631517
 10
614.8125795351216
 20
-750.9636903713999
 10
613.5688701077706
 20
-752.7647808133288
 10
612.5161523814158
 20
-754.2887266360667
 10
612.2991785052291
 20
-755.8622130286021
 10
612.9189775215918
 20
-757.4831191430276
 10
613.5381885137367
 20
-759.1052371705446
 10
616.7347727133365
 20
-761.9094071407126
 10
622.5073801674125
 20
-765.8960969701875
 10
622.5073801674125
 20
-765.8960969701875
 10
674.8772974394287
 20
-802.0674532855219
 10
674.8772974394287
 20
-802.0674532855219
 10
681.3891741404659
 20
-806.5648072593531
 10
685.5901629655336
 20
-809.0747665335466
 10
687.480998944905
 20
-809.5958162167362
 10
689.3715498783304
 20
-810.1182248190717
 10
690.9871652557813
 20
-809.4082710937637
 10
692.3268250010378
 20
-807.4688288513225
 10
693.69802118999
 20
-805.4836763017947
 10
693.6988723444865
 20
-803.6073185301675
 10
692.325925595962
 20
-801.8407003359152
 10
690.954190760528
 20
-800.07467016588
 10
686.9663672238521
 20
-796.9109181628955
 10
680.3618490293875
 20
-792.3491503148543
 10
680.3618490293875
 20
-792.3491503148543
 10
628.8227775907244
 20
-756.7519810155945
 10
628.8227775907244
 20
-756.7519810155945
 97
        0
 97
        0
 75
     2
 76
     1
 98
        0
  0
SPLINE
  5
78
330
71
100
AcDbEntity
  8
katman 1
370
     0
100
AcDbSpline
210
0.0
220
0.0
230
1.0
 70
    11
 71
     3
 72
    56
 73
    52
 74
     0
 42
0.0000000001
 43
0.0000000001
 12
1.0
 22
0.0
 32
0.0
 13
1.0
 23
0.0
 33
0.0
 40
0.0
 40
0.0
 40
0.0
 40
0.0
 40
1.0
 40
1.0
 40
1.0
 40
2.0
 40
2.0
 40
2.0
 40
3.0
 40
3.0
 40
3.0
 40
4.0
 40
4.0
 40
4.0
 40
5.0
 40
5.0
 40
5.0
 40
6.0
 40
6.0
 40
6.0
 40
7.0
 40
7.0
 40
7.0
 40
8.0
 40
8.0
 40
8.0
 40
9.0
 40
9.0
 40
9.0
 40
10.0
 40
10.0
 40
10.0
 40
11.0
 40
11.0
 40
11.0
 40
12.0
 40
12.0
 40
12.0
 40
13.0
 40
13.0
 40
13.0
 40
14.0
 40
14.0
 40
14.0
 40
15.0
 40
15.0
 40
15.0
 40
16.0
 40
16.0
 40
16.0
 40
17.0
 40
17.0
 40
17.0
 40
17.0
 10
674.0342669270176
 20
-651.8146993916544
 30
0.0
 10
674.0342669270176
 20
-651.8146993916544
 30
0.0
 10
694.0507188013516
 20
-636.688918209843
 30
0.0
 10
694.0507188013516
 20
-636.688918209843
 30
0.0
 10
707.3938720834421
 20
-626.6056300093278
 30
0.0
 10
716.8174828736855
 20
-620.2942986701473
 30
0.0
 10
722.3204772988829
 20
-617.7532802272126
 30
0.0
 10
727.8228926660258
 20
-615.2142266599694
 30
0.0
 10
733.6611219933702
 20
-614.9345995624653
 30
0.0
 10
739.8372861288253
 20
-616.9154279770819
 30
0.0
 10
746.0127062678421
 20
-618.897018320461
 30
0.0
 10
752.6029250379706
 20
-624.5219891631123
 30
0.0
 10
759.6075014210455
 20
-633.7912494398497
 30
0.0
 10
766.0030361177996
 20
-642.2544471750907
 30
0.0
 10
769.2477907968241
 20
-648.7370886268118
 30
0.0
 10
769.3428034666649
 20
-653.2378059097027
 30
0.0
 10
769.4375310905607
 20
-657.7398821117395
 30
0.0
 10
766.6158545415992
 20
-662.6157182389179
 30
0.0
 10
760.8758358425812
 20
-667.8669941209828
 30
0.0
 10
767.5220291929081
 20
-665.0257444383997
 30
0.0
 10
772.6878194885048
 20
-664.0421728621868
 30
0.0
 10
776.3728858187687
 20
-664.9146264610863
 30
0.0
 10
780.0573730909782
 20
-665.7890449356773
 30
0.0
 10
782.8716571801942
 20
-667.0212918631778
 30
0.0
 10
784.813809075381
 20
-668.6138000359288
 30
0.0
 10
786.7559609705677
 20
-670.2063082086797
 30
0.0
 10
791.0437818113633
 20
-675.3916420327823
 30
0.0
 10
797.675288789751
 20
-684.1677165249821
 30
0.0
 10
797.675288789751
 20
-684.1677165249821
 30
0.0
 10
819.3487091176776
 20
-712.8484317856046
 30
0.0
 10
819.3487091176776
 20
-712.8484317856046
 30
0.0
 10
819.3487091176776
 20
-712.8484317856046
 30
0.0
 10
793.085878503277
 20
-732.6945800485128
 30
0.0
 10
793.085878503277
 20
-732.6945800485128
 30
0.0
 10
793.085878503277
 20
-732.6945800485128
 30
0.0
 10
765.7783725925538
 20
-696.5579422512501
 30
0.0
 10
765.7783725925538
 20
-696.5579422512501
 30
0.0
 10
761.3799664732705
 20
-690.7372804164352
 30
0.0
 10
758.196055745494
 20
-687.4796117732276
 30
0.0
 10
756.2294962874039
 20
-686.7844504726463
 30
0.0
 10
754.2628077555873
 20
-686.091098075538
 30
0.0
 10
751.3313860846756
 20
-687.2147926890966
 30
0.0
 10
747.4355701175973
 20
-690.1586931697748
 30
0.0
 10
747.4355701175973
 20
-690.1586931697748
 30
0.0
 10
784.488487005895
 20
-739.1915697022478
 30
0.0
 10
784.488487005895
 20
-739.1915697022478
 30
0.0
 10
784.488487005895
 20
-739.1915697022478
 30
0.0
 10
756.2103530316945
 20
-760.5606251592299
 30
0.0
 10
756.2103530316945
 20
-760.5606251592299
 30
0.0
 10
756.2103530316945
 20
-760.5606251592299
 30
0.0
 10
674.0342669270176
 20
-651.8146993916544
 30
0.0
 10
674.0342669270176
 20
-651.8146993916544
 30
0.0
  0
SPLINE
  5
79
330
71
100
AcDbEntity
  8
katman 1
370
     0
100
AcDbSpline
210
0.0
220
0.0
230
1.0
 70
    11
 71
     3
 72
    23
 73
    19
 74
     0
 42
0.0000000001
 43
0.0000000001
 12
1.0
 22
0.0
 32
0.0
 13
1.0
 23
0.0
 33
0.0
 40
0.0
 40
0.0
 40
0.0
 40
0.0
 40
1.0
 40
1.0
 40
1.0
 40
2.0
 40
2.0
 40
2.0
 40
3.0
 40
3.0
 40
3.0
 40
4.0
 40
4.0
 40
4.0
 40
5.0
 40
5.0
 40
5.0
 40
6.0
 40
6.0
 40
6.0
 40
6.0
 10
716.3720561536938
 20
-649.0513393553274
 30
0.0
 10
716.3720561536938
 20
-649.0513393553274
 30
0.0
 10
734.6446477301452
 20
-673.2319947210208
 30
0.0
 10
734.6446477301452
 20
-673.2319947210208
 30
0.0
 10
737.8235176609705
 20
-670.829955250445
 30
0.0
 10
739.7217603810177
 20
-668.7097518493974
 30
0.0
 10
740.338328915579
 20
-666.8719994405828
 30
0.0
 10
740.9544474658123
 20
-665.0344030039878
 30
0.0
 10
739.4529777728376
 20
-661.7205527800252
 30
0.0
 10
735.8317900225838
 20
-656.9286667637125
 30
0.0
 10
735.8317900225838
 20
-656.9286667637125
 30
0.0
 10
731.3143328554479
 20
-650.9506755479279
 30
0.0
 10
731.3143328554479
 20
-650.9506755479279
 30
0.0
 10
728.7089245204197
 20
-647.5028211024392
 30
0.0
 10
726.3837488728441
 20
-645.7068761587652
 30
0.0
 10
724.3404588439753
 20
-645.5625198063026
 30
0.0
 10
722.2964248186709
 20
-645.4189253826053
 30
0.0
 10
719.6401895958188
 20
-646.5818162302612
 30
0.0
 10
716.3720561536938
 20
-649.0513393553274
 30
0.0
  0
HATCH
  5
7A
330
71
100
AcDbEntity
  8
katman 1
 62
    96
420
    35584
100
AcDbHatch
 10
0.0
 20
0.0
 30
0.0
210
0.0
220
0.0
230
1.0
  2
SOLID
 70
     1
 71
     0
 91
        2
 92
        1
 93
        1
 72
     4
 94
        3
 73
     0
 74
     1
 95
       56
 96
       52
 40
0.0
 40
0.0
 40
0.0
 40
0.0
 40
1.0
 40
1.0
 40
1.0
 40
2.0
 40
2.0
 40
2.0
 40
3.0
 40
3.0
 40
3.0
 40
4.0
 40
4.0
 40
4.0
 40
5.0
 40
5.0
 40
5.0
 40
6.0
 40
6.0
 40
6.0
 40
7.0
 40
7.0
 40
7.0
 40
8.0
 40
8.0
 40
8.0
 40
9.0
 40
9.0
 40
9.0
 40
10.0
 40
10.0
 40
10.0
 40
11.0
 40
11.0
 40
11.0
 40
12.0
 40
12.0
 40
12.0
 40
13.0
 40
13.0
 40
13.0
 40
14.0
 40
14.0
 40
14.0
 40
15.0
 40
15.0
 40
15.0
 40
16.0
 40
16.0
 40
16.0
 40
17.0
 40
17.0
 40
17.0
 40
17.0
 10
674.0342669270176
 20
-651.8146993916544
 10
674.0342669270176
 20
-651.8146993916544
 10
694.0507188013516
 20
-636.688918209843
 10
694.0507188013516
 20
-636.688918209843
 10
707.3938720834421
 20
-626.6056300093278
 10
716.8174828736855
 20
-620.2942986701473
 10
722.3204772988829
 20
-617.7532802272126
 10
727.8228926660258
 20
-615.2142266599694
 10
733.6611219933702
 20
-614.9345995624653
 10
739.8372861288253
 20
-616.9154279770819
 10
746.0127062678421
 20
-618.897018320461
 10
752.6029250379706
 20
-624.5219891631123
 10
759.6075014210455
 20
-633.7912494398497
 10
766.0030361177996
 20
-642.2544471750907
 10
769.2477907968241
 20
-648.7370886268118
 10
769.3428034666649
 20
-653.2378059097027
 10
769.4375310905607
 20
-657.7398821117395
 10
766.6158545415992
 20
-662.6157182389179
 10
760.8758358425812
 20
-667.8669941209828
 10
767.5220291929081
 20
-665.0257444383997
 10
772.6878194885048
 20
-664.0421728621868
 10
776.3728858187687
 20
-664.9146264610863
 10
780.0573730909782
 20
-665.7890449356773
 10
782.8716571801942
 20
-667.0212918631778
 10
784.813809075381
 20
-668.6138000359288
 10
786.7559609705677
 20
-670.2063082086797
 10
791.0437818113633
 20
-675.3916420327823
 10
797.675288789751
 20
-684.1677165249821
 10
797.675288789751
 20
-684.1677165249821
 10
819.3487091176776
 20
-712.8484317856046
 10
819.3487091176776
 20
-712.8484317856046
 10
819.3487091176776
 20
-712.8484317856046
 10
793.085878503277
 20
-732.6945800485128
 10
793.085878503277
 20
-732.6945800485128
 10
793.085878503277
 20
-732.6945800485128
 10
765.7783725925538
 20
-696.5579422512501
 10
765.7783725925538
 20
-696.5579422512501
 10
761.3799664732705
 20
-690.7372804164352
 10
758.196055745494
 20
-687.4796117732276
 10
756.2294962874039
 20
-686.7844504726463
 10
754.2628077555873
 20
-686.091098075538
 10
751.3313860846756
 20
-687.2147926890966
 10
747.4355701175973
 20
-690.1586931697748
 10
747.4355701175973
 20
-690.1586931697748
 10
784.488487005895
 20
-739.1915697022478
 10
784.488487005895
 20
-739.1915697022478
 10
784.488487005895
 20
-739.1915697022478
 10
756.2103530316945
 20
-760.5606251592299
 10
756.2103530316945
 20
-760.5606251592299
 10
756.2103530316945
 20
-760.5606251592299
 10
674.0342669270176
 20
-651.8146993916544
 10
674.0342669270176
 20
-651.8146993916544
 97
        0
 97
        0
 92
        1
 93
        1
 72
     4
 94
        3
 73
     0
 74
     1
 95
       23
 96
       19
 40
0.0
 40
0.0
 40
0.0
 40
0.0
 40
1.0
 40
1.0
 40
1.0
 40
2.0
 40
2.0
 40
2.0
 40
3.0
 40
3.0
 40
3.0
 40
4.0
 40
4.0
 40
4.0
 40
5.0
 40
5.0
 40
5.0
 40
6.0
 40
6.0
 40
6.0
 40
6.0
 10
716.3720561536938
 20
-649.0513393553274
 10
716.3720561536938
 20
-649.0513393553274
 10
734.6446477301452
 20
-673.2319947210208
 10
734.6446477301452
 20
-673.2319947210208
 10
737.8235176609705
 20
-670.829955250445
 10
739.7217603810177
 20
-668.7097518493974
 10
740.338328915579
 20
-666.8719994405828
 10
740.9544474658123
 20
-665.0344030039878
 10
739.4529777728376
 20
-661.7205527800252
 10
735.8317900225838
 20
-656.9286667637125
 10
735.8317900225838
 20
-656.9286667637125
 10
731.3143328554479
 20
-650.9506755479279
 10
731.3143328554479
 20
-650.9506755479279
 10
728.7089245204197
 20
-647.5028211024392
 10
726.3837488728441
 20
-645.7068761587652
 10
724.3404588439753
 20
-645.5625198063026
 10
722.2964248186709
 20
-645.4189253826053
 10
719.6401895958188
 20
-646.5818162302612
 10
716.3720561536938
 20
-649.0513393553274
 97
        0
 97
        0
 75
     2
 76
     1
 98
        0
  0
SPLINE
  5
7B
330
71
100
AcDbEntity
  8
katman 1
370
     0
100
AcDbSpline
210
0.0
220
0.0
230
1.0
 70
    11
 71
     3
 72
   101
 73
    97
 74
     0
 42
0.0000000001
 43
0.0000000001
 12
1.0
 22
0.0
 32
0.0
 13
1.0
 23
0.0
 33
0.0
 40
0.0
 40
0.0
 40
0.0
 40
0.0
 40
1.0
 40
1.0
 40
1.0
 40
2.0
 40
2.0
 40
2.0
 40
3.0
 40
3.0
 40
3.0
 40
4.0
 40
4.0
 40
4.0
 40
5.0
 40
5.0
 40
5.0
 40
6.0
 40
6.0
 40
6.0
 40
7.0
 40
7.0
 40
7.0
 40
8.0
 40
8.0
 40
8.0
 40
9.0
 40
9.0
 40
9.0
 40
10.0
 40
10.0
 40
10.0
 40
11.0
 40
11.0
 40
11.0
 40
12.0
 40
12.0
 40
12.0
 40
13.0
 40
13.0
 40
13.0
 40
14.0
 40
14.0
 40
14.0
 40
15.0
 40
15.0
 40
15.0
 40
16.0
 40
16.0
 40
16.0
 40
17.0
 40
17.0
 40
17.0
 40
18.0
 40
18.0
 40
18.0
 40
19.0
 40
19.0
 40
19.0
 40
20.0
 40
20.0
 40
20.0
 40
21.0
 40
21.0
 40
21.0
 40
22.0
 40
22.0
 40
22.0
 40
23.0
 40
23.0
 40
23.0
 40
24.0
 40
24.0
 40
24.0
 40
25.0
 40
25.0
 40
25.0
 40
26.0
 40
26.0
 40
26.0
 40
27.0
 40
27.0
 40
27.0
 40
28.0
 40
28.0
 40
28.0
 40
29.0
 40
29.0
 40
29.0
 40
30.0
 40
30.0
 40
30.0
 40
31.0
 40
31.0
 40
31.0
 40
32.0
 40
32.0
 40
32.0
 40
32.0
 10
899.1537053732682
 20
-588.6402504021071
 30
0.0
 10
899.1537053732682
 20
-588.6402504021071
 30
0.0
 10
865.6161614391567
 20
-600.1079226943002
 30
0.0
 10
865.6161614391567
 20
-600.1079226943002
 30
0.0
 10
865.6161614391567
 20
-600.1079226943002
 30
0.0
 10
861.612115668283
 20
-588.3976289969105
 30
0.0
 10
861.612115668283
 20
-588.3976289969105
 30
0.0
 10
859.0884956247137
 20
-581.0165736192839
 30
0.0
 10
857.1900549614656
 20
-576.5050999128152
 30
0.0
 10
855.9167936785389
 20
-574.8632078775054
 30
0.0
 10
854.6443032905399
 20
-573.2228128012312
 30
0.0
 10
852.8125985190454
 20
-572.8105552786838
 30
0.0
 10
850.4229002433103
 20
-573.6277762966802
 30
0.0
 10
848.3515058252597
 20
-574.3359279033257
 30
0.0
 10
847.2163361398862
 20
-575.6139994127243
 30
0.0
 10
847.0176851992974
 20
-577.4613848683302
 30
0.0
 10
846.8181342900552
 20
-579.3090822683735
 30
0.0
 10
847.8458337202346
 20
-583.5260821485881
 30
0.0
 10
850.097294756617
 20
-590.1103174580485
 30
0.0
 10
850.097294756617
 20
-590.1103174580485
 30
0.0
 10
871.2621178014188
 20
-652.007598740719
 30
0.0
 10
871.2621178014188
 20
-652.007598740719
 30
0.0
 10
873.2412907568878
 20
-657.7968228854843
 30
0.0
 10
874.9150914283518
 20
-661.4798842166592
 30
0.0
 10
876.28609064805
 20
-663.0576558044049
 30
0.0
 10
877.655436936494
 20
-664.6357483027496
 30
0.0
 10
879.4557574939208
 20
-665.0432586720299
 30
0.0
 10
881.686758308223
 20
-664.2807928687907
 30
0.0
 10
884.1289577441821
 20
-663.445626079535
 30
0.0
 10
885.4348122962574
 20
-661.8420034804858
 30
0.0
 10
885.6028339715758
 20
-659.47144892917
 30
0.0
 10
885.7710026529503
 20
-657.1005913995823
 30
0.0
 10
884.8296824764129
 20
-652.9153967528209
 30
0.0
 10
882.7770376400022
 20
-646.9134770273613
 30
0.0
 10
882.7770376400022
 20
-646.9134770273613
 30
0.0
 10
877.5473853342965
 20
-631.6185579302592
 30
0.0
 10
877.5473853342965
 20
-631.6185579302592
 30
0.0
 10
877.5473853342965
 20
-631.6185579302592
 30
0.0
 10
870.7762415906827
 20
-633.9335444902727
 30
0.0
 10
870.7762415906827
 20
-633.9335444902727
 30
0.0
 10
870.7762415906827
 20
-633.9335444902727
 30
0.0
 10
864.0755308569287
 20
-614.3371390956363
 30
0.0
 10
864.0755308569287
 20
-614.3371390956363
 30
0.0
 10
864.0755308569287
 20
-614.3371390956363
 30
0.0
 10
903.348594828657
 20
-600.9084045576137
 30
0.0
 10
903.348594828657
 20
-600.9084045576137
 30
0.0
 10
903.348594828657
 20
-600.9084045576137
 30
0.0
 10
927.0190921457688
 20
-670.1342400576859
 30
0.0
 10
927.0190921457688
 20
-670.1342400576859
 30
0.0
 10
927.0190921457688
 20
-670.1342400576859
 30
0.0
 10
905.9436545783346
 20
-677.3405518310419
 30
0.0
 10
905.9436545783346
 20
-677.3405518310419
 30
0.0
 10
905.9436545783346
 20
-677.3405518310419
 30
0.0
 10
899.6820745995219
 20
-669.1605698182702
 30
0.0
 10
899.6820745995219
 20
-669.1605698182702
 30
0.0
 10
898.7584587261126
 20
-673.9246407154369
 30
0.0
 10
896.8962940123229
 20
-677.8983206741477
 30
0.0
 10
894.0970684510239
 20
-681.0800858368793
 30
0.0
 10
891.2963369645258
 20
-684.261868931937
 30
0.0
 10
887.5315455708896
 20
-686.6610955641054
 30
0.0
 10
882.8016472954059
 20
-688.2783806560956
 30
0.0
 10
877.1669327132386
 20
-690.2052580876425
 30
0.0
 10
871.424091682552
 20
-690.6408395859389
 30
0.0
 10
865.5737480922198
 20
-689.5869250882924
 30
0.0
 10
859.7223575271782
 20
-688.5336255133543
 30
0.0
 10
854.8318085563596
 20
-686.4242265566527
 30
0.0
 10
850.89986022429
 20
-683.2602610418799
 30
0.0
 10
846.9682238366568
 20
-680.0971954957613
 30
0.0
 10
843.9254062136451
 20
-676.4067898314015
 30
0.0
 10
841.7717192996906
 20
-672.1899440174557
 30
0.0
 10
839.6183443301716
 20
-667.9739981721659
 30
0.0
 10
837.0253306094264
 20
-661.4310316467099
 30
0.0
 10
833.9925311314009
 20
-652.5613474193606
 30
0.0
 10
833.9925311314009
 20
-652.5613474193606
 30
0.0
 10
820.8908667875412
 20
-614.2442509615594
 30
0.0
 10
820.8908667875412
 20
-614.2442509615594
 30
0.0
 10
816.6781875331126
 20
-601.9240456301568
 30
0.0
 10
814.2815437196805
 20
-592.747667005432
 30
0.0
 10
813.7029181552625
 20
-586.7172000706423
 30
0.0
 10
813.1229426378632
 20
-580.6872010525058
 30
0.0
 10
815.1869404195013
 20
-574.2732815397594
 30
0.0
 10
819.8909727826322
 20
-567.4735304536953
 30
0.0
 10
824.5953260563638
 20
-560.6754322988854
 30
0.0
 10
831.9386948567371
 20
-555.5687812489814
 30
0.0
 10
841.9239529942643
 20
-552.1545973801994
 30
0.0
 10
851.7482547825584
 20
-548.7951956246661
 30
0.0
 10
860.590383978818
 20
-548.0270532421209
 30
0.0
 10
868.4501487461694
 20
-549.8467083978376
 30
0.0
 10
876.3091784832468
 20
-551.6678784449186
 30
0.0
 10
882.1699917513597
 20
-555.0176261590532
 30
0.0
 10
886.0328735964504
 20
-559.8945926210954
 30
0.0
 10
889.8945704269427
 20
-564.7732299467198
 30
0.0
 10
893.6338012830638
 20
-572.4963130548867
 30
0.0
 10
897.2471043300884
 20
-583.0640337824689
 30
0.0
 10
897.2471043300884
 20
-583.0640337824689
 30
0.0
 10
899.1537053732682
 20
-588.6402504021071
 30
0.0
 10
899.1537053732682
 20
-588.6402504021071
 30
0.0
  0
HATCH
  5
7C
330
71
100
AcDbEntity
  8
katman 1
 62
    96
420
    35584
100
AcDbHatch
 10
0.0
 20
0.0
 30
0.0
210
0.0
220
0.0
230
1.0
  2
SOLID
 70
     1
 71
     0
 91
        1
 92
        1
 93
        1
 72
     4
 94
        3
 73
     0
 74
     1
 95
      101
 96
       97
 40
0.0
 40
0.0
 40
0.0
 40
0.0
 40
1.0
 40
1.0
 40
1.0
 40
2.0
 40
2.0
 40
2.0
 40
3.0
 40
3.0
 40
3.0
 40
4.0
 40
4.0
 40
4.0
 40
5.0
 40
5.0
 40
5.0
 40
6.0
 40
6.0
 40
6.0
 40
7.0
 40
7.0
 40
7.0
 40
8.0
 40
8.0
 40
8.0
 40
9.0
 40
9.0
 40
9.0
 40
10.0
 40
10.0
 40
10.0
 40
11.0
 40
11.0
 40
11.0
 40
12.0
 40
12.0
 40
12.0
 40
13.0
 40
13.0
 40
13.0
 40
14.0
 40
14.0
 40
14.0
 40
15.0
 40
15.0
 40
15.0
 40
16.0
 40
16.0
 40
16.0
 40
17.0
 40
17.0
 40
17.0
 40
18.0
 40
18.0
 40
18.0
 40
19.0
 40
19.0
 40
19.0
 40
20.0
 40
20.0
 40
20.0
 40
21.0
 40
21.0
 40
21.0
 40
22.0
 40
22.0
 40
22.0
 40
23.0
 40
23.0
 40
23.0
 40
24.0
 40
24.0
 40
24.0
 40
25.0
 40
25.0
 40
25.0
 40
26.0
 40
26.0
 40
26.0
 40
27.0
 40
27.0
 40
27.0
 40
28.0
 40
28.0
 40
28.0
 40
29.0
 40
29.0
 40
29.0
 40
30.0
 40
30.0
 40
30.0
 40
31.0
 40
31.0
 40
31.0
 40
32.0
 40
32.0
 40
32.0
 40
32.0
 10
899.1537053732682
 20
-588.6402504021071
 10
899.1537053732682
 20
-588.6402504021071
 10
865.6161614391567
 20
-600.1079226943002
 10
865.6161614391567
 20
-600.1079226943002
 10
865.6161614391567
 20
-600.1079226943002
 10
861.612115668283
 20
-588.3976289969105
 10
861.612115668283
 20
-588.3976289969105
 10
859.0884956247137
 20
-581.0165736192839
 10
857.1900549614656
 20
-576.5050999128152
 10
855.9167936785389
 20
-574.8632078775054
 10
854.6443032905399
 20
-573.2228128012312
 10
852.8125985190454
 20
-572.8105552786838
 10
850.4229002433103
 20
-573.6277762966802
 10
848.3515058252597
 20
-574.3359279033257
 10
847.2163361398862
 20
-575.6139994127243
 10
847.0176851992974
 20
-577.4613848683302
 10
846.8181342900552
 20
-579.3090822683735
 10
847.8458337202346
 20
-583.5260821485881
 10
850.097294756617
 20
-590.1103174580485
 10
850.097294756617
 20
-590.1103174580485
 10
871.2621178014188
 20
-652.007598740719
 10
871.2621178014188
 20
-652.007598740719
 10
873.2412907568878
 20
-657.7968228854843
 10
874.9150914283518
 20
-661.4798842166592
 10
876.28609064805
 20
-663.0576558044049
 10
877.655436936494
 20
-664.6357483027496
 10
879.4557574939208
 20
-665.0432586720299
 10
881.686758308223
 20
-664.2807928687907
 10
884.1289577441821
 20
-663.445626079535
 10
885.4348122962574
 20
-661.8420034804858
 10
885.6028339715758
 20
-659.47144892917
 10
885.7710026529503
 20
-657.1005913995823
 10
884.8296824764129
 20
-652.9153967528209
 10
882.7770376400022
 20
-646.9134770273613
 10
882.7770376400022
 20
-646.9134770273613
 10
877.5473853342965
 20
-631.6185579302592
 10
877.5473853342965
 20
-631.6185579302592
 10
877.5473853342965
 20
-631.6185579302592
 10
870.7762415906827
 20
-633.9335444902727
 10
870.7762415906827
 20
-633.9335444902727
 10
870.7762415906827
 20
-633.9335444902727
 10
864.0755308569287
 20
-614.3371390956363
 10
864.0755308569287
 20
-614.3371390956363
 10
864.0755308569287
 20
-614.3371390956363
 10
903.348594828657
 20
-600.9084045576137
 10
903.348594828657
 20
-600.9084045576137
 10
903.348594828657
 20
-600.9084045576137
 10
927.0190921457688
 20
-670.1342400576859
 10
927.0190921457688
 20
-670.1342400576859
 10
927.0190921457688
 20
-670.1342400576859
 10
905.9436545783346
 20
-677.3405518310419
 10
905.9436545783346
 20
-677.3405518310419
 10
905.9436545783346
 20
-677.3405518310419
 10
899.6820745995219
 20
-669.1605698182702
 10
899.6820745995219
 20
-669.1605698182702
 10
898.7584587261126
 20
-673.9246407154369
 10
896.8962940123229
 20
-677.8983206741477
 10
894.0970684510239
 20
-681.0800858368793
 10
891.2963369645258
 20
-684.261868931937
 10
887.5315455708896
 20
-686.6610955641054
 10
882.8016472954059
 20
-688.2783806560956
 10
877.1669327132386
 20
-690.2052580876425
 10
871.424091682552
 20
-690.6408395859389
 10
865.5737480922198
 20
-689.5869250882924
 10
859.7223575271782
 20
-688.5336255133543
 10
854.8318085563596
 20
-686.4242265566527
 10
850.89986022429
 20
-683.2602610418799
 10
846.9682238366568
 20
-680.0971954957613
 10
843.9254062136451
 20
-676.4067898314015
 10
841.7717192996906
 20
-672.1899440174557
 10
839.6183443301716
 20
-667.9739981721659
 10
837.0253306094264
 20
-661.4310316467099
 10
833.9925311314009
 20
-652.5613474193606
 10
833.9925311314009
 20
-652.5613474193606
 10
820.8908667875412
 20
-614.2442509615594
 10
820.8908667875412
 20
-614.2442509615594
 10
816.6781875331126
 20
-601.9240456301568
 10
814.2815437196805
 20
-592.747667005432
 10
813.7029181552625
 20
-586.7172000706423
 10
813.1229426378632
 20
-580.6872010525058
 10
815.1869404195013
 20
-574.2732815397594
 10
819.8909727826322
 20
-567.4735304536953
 10
824.5953260563638
 20
-560.6754322988854
 10
831.9386948567371
 20
-555.5687812489814
 10
841.9239529942643
 20
-552.1545973801994
 10
851.7482547825584
 20
-548.7951956246661
 10
860.590383978818
 20
-548.0270532421209
 10
868.4501487461694
 20
-549.8467083978376
 10
876.3091784832468
 20
-551.6678784449186
 10
882.1699917513597
 20
-555.0176261590532
 10
886.0328735964504
 20
-559.8945926210954
 10
889.8945704269427
 20
-564.7732299467198
 10
893.6338012830638
 20
-572.4963130548867
 10
897.2471043300884
 20
-583.0640337824689
 10
897.2471043300884
 20
-583.0640337824689
 10
899.1537053732682
 20
-588.6402504021071
 10
899.1537053732682
 20
-588.6402504021071
 97
        0
 97
        0
 75
     2
 76
     1
 98
        0
  0
POLYLINE
  5
7D
330
71
100
AcDbEntity
  8
katman 1
370
     0
100
AcDb2dPolyline
 66
     1
 10
0.0
 20
0.0
 30
0.0
  0
VERTEX
  5
7E
330
7D
100
AcDbEntity
  8
katman 1
370
     0
100
AcDbVertex
100
AcDb2dVertex
 10
1020.322069161852
 20
-527.2669308342838
 30
0.0
  0
VERTEX
  5
7F
330
7D
100
AcDbEntity
  8
katman 1
370
     0
100
AcDbVertex
100
AcDb2dVertex
 10
1043.113240125851
 20
-663.1709621896207
 30
0.0
  0
VERTEX
  5
80
330
7D
100
AcDbEntity
  8
katman 1
370
     0
100
AcDbVertex
100
AcDb2dVertex
 10
1006.896790375877
 20
-663.8423006612347
 30
0.0
  0
VERTEX
  5
81
330
7D
100
AcDbEntity
  8
katman 1
370
     0
100
AcDbVertex
100
AcDb2dVertex
 10
1004.540458208474
 20
-639.3823510386001
 30
0.0
  0
VERTEX
  5
82
330
7D
100
AcDbEntity
  8
katman 1
370
     0
100
AcDbVertex
100
AcDb2dVertex
 10
991.8645840877552
 20
-639.6176371825431
 30
0.0
  0
VERTEX
  5
83
330
7D
100
AcDbEntity
  8
katman 1
370
     0
100
AcDbVertex
100
AcDb2dVertex
 10
990.1879124017705
 20
-664.1521192413938
 30
0.0
  0
VERTEX
  5
84
330
7D
100
AcDbEntity
  8
katman 1
370
     0
100
AcDbVertex
100
AcDb2dVertex
 10
953.5507394291908
 20
-664.8311786706663
 30
0.0
  0
VERTEX
  5
85
330
7D
100
AcDbEntity
  8
katman 1
370
     0
100
AcDbVertex
100
AcDb2dVertex
 10
969.1011582991559
 20
-528.2160440680191
 30
0.0
  0
VERTEX
  5
86
330
7D
100
AcDbEntity
  8
katman 1
370
     0
100
AcDbVertex
100
AcDb2dVertex
 10
1020.322069161852
 20
-527.2669308342838
 30
0.0
  0
SEQEND
  5
87
330
7D
100
AcDbEntity
  8
katman 1
370
     0
  0
SPLINE
  5
88
330
71
100
AcDbEntity
  8
katman 1
370
     0
100
AcDbSpline
210
0.0
220
0.0
230
1.0
 70
    11
 71
     3
 72
    14
 73
    10
 74
     0
 42
0.0000000001
 43
0.0000000001
 12
1.0
 22
0.0
 32
0.0
 13
1.0
 23
0.0
 33
0.0
 40
0.0
 40
0.0
 40
0.0
 40
0.0
 40
1.0
 40
1.0
 40
1.0
 40
2.0
 40
2.0
 40
2.0
 40
3.0
 40
3.0
 40
3.0
 40
3.0
 10
1003.164351700685
 20
-615.2411758768694
 30
0.0
 10
1001.084417031738
 20
-599.8391668132117
 30
0.0
 10
998.9315735828313
 20
-580.7934714249432
 30
0.0
 10
996.7059504276922
 20
-558.1022808085927
 30
0.0
 10
993.5791243553731
 20
-584.2646958479254
 30
0.0
 10
991.6650985662263
 20
-603.3868330749783
 30
0.0
 10
990.9653610531259
 20
-615.4671686322199
 30
0.0
 10
990.9653610531259
 20
-615.4671686322199
 30
0.0
 10
1003.164351700685
 20
-615.2411758768694
 30
0.0
 10
1003.164351700685
 20
-615.2411758768694
 30
0.0
  0
HATCH
  5
89
330
71
100
AcDbEntity
  8
katman 1
 62
    96
420
    35584
100
AcDbHatch
 10
0.0
 20
0.0
 30
0.0
210
0.0
220
0.0
230
1.0
  2
SOLID
 70
     1
 71
     0
 91
        2
 92
        1
 93
        8
 72
     1
 10
1020.322069161852
 20
-527.2669308342838
 11
1043.113240125851
 21
-663.1709621896207
 72
     1
 10
1043.113240125851
 20
-663.1709621896207
 11
1006.896790375877
 21
-663.8423006612347
 72
     1
 10
1006.896790375877
 20
-663.8423006612347
 11
1004.540458208474
 21
-639.3823510386001
 72
     1
 10
1004.540458208474
 20
-639.3823510386001
 11
991.8645840877552
 21
-639.6176371825431
 72
     1
 10
991.8645840877552
 20
-639.6176371825431
 11
990.1879124017705
 21
-664.1521192413938
 72
     1
 10
990.1879124017705
 20
-664.1521192413938
 11
953.5507394291908
 21
-664.8311786706663
 72
     1
 10
953.5507394291908
 20
-664.8311786706663
 11
969.1011582991559
 21
-528.2160440680191
 72
     1
 10
969.1011582991559
 20
-528.2160440680191
 11
1020.322069161852
 21
-527.2669308342838
 97
        0
 92
        1
 93
        1
 72
     4
 94
        3
 73
     0
 74
     1
 95
       14
 96
       10
 40
0.0
 40
0.0
 40
0.0
 40
0.0
 40
1.0
 40
1.0
 40
1.0
 40
2.0
 40
2.0
 40
2.0
 40
3.0
 40
3.0
 40
3.0
 40
3.0
 10
1003.164351700685
 20
-615.2411758768694
 10
1001.084417031738
 20
-599.8391668132117
 10
998.9315735828313
 20
-580.7934714249432
 10
996.7059504276922
 20
-558.1022808085927
 10
993.5791243553731
 20
-584.2646958479254
 10
991.6650985662263
 20
-603.3868330749783
 10
990.9653610531259
 20
-615.4671686322199
 10
990.9653610531259
 20
-615.4671686322199
 10
1003.164351700685
 20
-615.2411758768694
 10
1003.164351700685
 20
-615.2411758768694
 97
        0
 97
        0
 75
     2
 76
     1
 98
        0
  0
POLYLINE
  5
8A
330
71
100
AcDbEntity
  8
katman 1
370
     0
100
AcDb2dPolyline
 66
     1
 10
0.0
 20
0.0
 30
0.0
  0
VERTEX
  5
8B
330
8A
100
AcDbEntity
  8
katman 1
370
     0
100
AcDbVertex
100
AcDb2dVertex
 10
1185.226360453311
 20
-560.0532098212398
 30
0.0
  0
VERTEX
  5
8C
330
8A
100
AcDbEntity
  8
katman 1
370
     0
100
AcDbVertex
100
AcDb2dVertex
 10
1145.88568485677
 20
-690.555666418205
 30
0.0
  0
VERTEX
  5
8D
330
8A
100
AcDbEntity
  8
katman 1
370
     0
100
AcDbVertex
100
AcDb2dVertex
 10
1116.141564552807
 20
-681.5889646878859
 30
0.0
  0
VERTEX
  5
8E
330
8A
100
AcDbEntity
  8
katman 1
370
     0
100
AcDbVertex
100
AcDb2dVertex
 10
1116.373478388721
 20
-616.9409212156024
 30
0.0
  0
VERTEX
  5
8F
330
8A
100
AcDbEntity
  8
katman 1
370
     0
100
AcDbVertex
100
AcDb2dVertex
 10
1098.488604663231
 20
-676.2674270941898
 30
0.0
  0
VERTEX
  5
90
330
8A
100
AcDbEntity
  8
katman 1
370
     0
100
AcDbVertex
100
AcDb2dVertex
 10
1070.115322222671
 20
-667.7139524030299
 30
0.0
  0
VERTEX
  5
91
330
8A
100
AcDbEntity
  8
katman 1
370
     0
100
AcDbVertex
100
AcDb2dVertex
 10
1109.455997819216
 20
-537.2114958060638
 30
0.0
  0
VERTEX
  5
92
330
8A
100
AcDbEntity
  8
katman 1
370
     0
100
AcDbVertex
100
AcDb2dVertex
 10
1137.829886216319
 20
-545.765264509334
 30
0.0
  0
VERTEX
  5
93
330
8A
100
AcDbEntity
  8
katman 1
370
     0
100
AcDbVertex
100
AcDb2dVertex
 10
1139.138608746131
 20
-610.2621208824285
 30
0.0
  0
VERTEX
  5
94
330
8A
100
AcDbEntity
  8
katman 1
370
     0
100
AcDbVertex
100
AcDb2dVertex
 10
1156.853078012753
 20
-551.4997351300799
 30
0.0
  0
VERTEX
  5
95
330
8A
100
AcDbEntity
  8
katman 1
370
     0
100
AcDbVertex
100
AcDb2dVertex
 10
1185.226360453311
 20
-560.0532098212398
 30
0.0
  0
SEQEND
  5
96
330
8A
100
AcDbEntity
  8
katman 1
370
     0
  0
HATCH
  5
97
330
71
100
AcDbEntity
  8
katman 1
 62
    96
420
    35584
100
AcDbHatch
 10
0.0
 20
0.0
 30
0.0
210
0.0
220
0.0
230
1.0
  2
SOLID
 70
     1
 71
     0
 91
        1
 92
        1
 93
       10
 72
     1
 10
1185.226360453311
 20
-560.0532098212398
 11
1145.88568485677
 21
-690.555666418205
 72
     1
 10
1145.88568485677
 20
-690.555666418205
 11
1116.141564552807
 21
-681.5889646878859
 72
     1
 10
1116.141564552807
 20
-681.5889646878859
 11
1116.373478388721
 21
-616.9409212156024
 72
     1
 10
1116.373478388721
 20
-616.9409212156024
 11
1098.488604663231
 21
-676.2674270941898
 72
     1
 10
1098.488604663231
 20
-676.2674270941898
 11
1070.115322222671
 21
-667.7139524030299
 72
     1
 10
1070.115322222671
 20
-667.7139524030299
 11
1109.455997819216
 21
-537.2114958060638
 72
     1
 10
1109.455997819216
 20
-537.2114958060638
 11
1137.829886216319
 21
-545.765264509334
 72
     1
 10
1137.829886216319
 20
-545.765264509334
 11
1139.138608746131
 21
-610.2621208824285
 72
     1
 10
1139.138608746131
 20
-610.2621208824285
 11
1156.853078012753
 21
-551.4997351300799
 72
     1
 10
1156.853078012753
 20
-551.4997351300799
 11
1185.226360453311
 21
-560.0532098212398
 97
        0
 75
     2
 76
     1
 98
        0
  0
POLYLINE
  5
98
330
71
100
AcDbEntity
  8
katman 1
370
     0
100
AcDb2dPolyline
 66
     1
 10
0.0
 20
0.0
 30
0.0
  0
VERTEX
  5
99
330
98
100
AcDbEntity
  8
katman 1
370
     0
100
AcDbVertex
100
AcDb2dVertex
 10
1279.950430806355
 20
-610.7216623741597
 30
0.0
  0
VERTEX
  5
9A
330
98
100
AcDbEntity
  8
katman 1
370
     0
100
AcDbVertex
100
AcDb2dVertex
 10
1208.524409894482
 20
-726.8116867998233
 30
0.0
  0
VERTEX
  5
9B
330
98
100
AcDbEntity
  8
katman 1
370
     0
100
AcDbVertex
100
AcDb2dVertex
 10
1178.336653814329
 20
-708.238391636859
 30
0.0
  0
VERTEX
  5
9C
330
98
100
AcDbEntity
  8
katman 1
370
     0
100
AcDbVertex
100
AcDb2dVertex
 10
1249.7626747262
 20
-592.1483672111963
 30
0.0
  0
VERTEX
  5
9D
330
98
100
AcDbEntity
  8
katman 1
370
     0
100
AcDbVertex
100
AcDb2dVertex
 10
1279.950430806355
 20
-610.7216623741597
 30
0.0
  0
SEQEND
  5
9E
330
98
100
AcDbEntity
  8
katman 1
370
     0
  0
HATCH
  5
9F
330
71
100
AcDbEntity
  8
katman 1
 62
    96
420
    35584
100
AcDbHatch
 10
0.0
 20
0.0
 30
0.0
210
0.0
220
0.0
230
1.0
  2
SOLID
 70
     1
 71
     0
 91
        1
 92
        1
 93
        4
 72
     1
 10
1279.950430806355
 20
-610.7216623741597
 11
1208.524409894482
 21
-726.8116867998233
 72
     1
 10
1208.524409894482
 20
-726.8116867998233
 11
1178.336653814329
 21
-708.238391636859
 72
     1
 10
1178.336653814329
 20
-708.238391636859
 11
1249.7626747262
 21
-592.1483672111963
 72
     1
 10
1249.7626747262
 20
-592.1483672111963
 11
1279.950430806355
 21
-610.7216623741597
 97
        0
 75
     2
 76
     1
 98
        0
  0
SPLINE
  5
A0
330
71
100
AcDbEntity
  8
katman 1
370
     0
100
AcDbSpline
210
0.0
220
0.0
230
1.0
 70
    11
 71
     3
 72
    92
 73
    88
 74
     0
 42
0.0000000001
 43
0.0000000001
 12
1.0
 22
0.0
 32
0.0
 13
1.0
 23
0.0
 33
0.0
 40
0.0
 40
0.0
 40
0.0
 40
0.0
 40
1.0
 40
1.0
 40
1.0
 40
2.0
 40
2.0
 40
2.0
 40
3.0
 40
3.0
 40
3.0
 40
4.0
 40
4.0
 40
4.0
 40
5.0
 40
5.0
 40
5.0
 40
6.0
 40
6.0
 40
6.0
 40
7.0
 40
7.0
 40
7.0
 40
8.0
 40
8.0
 40
8.0
 40
9.0
 40
9.0
 40
9.0
 40
10.0
 40
10.0
 40
10.0
 40
11.0
 40
11.0
 40
11.0
 40
12.0
 40
12.0
 40
12.0
 40
13.0
 40
13.0
 40
13.0
 40
14.0
 40
14.0
 40
14.0
 40
15.0
 40
15.0
 40
15.0
 40
16.0
 40
16.0
 40
16.0
 40
17.0
 40
17.0
 40
17.0
 40
18.0
 40
18.0
 40
18.0
 40
19.0
 40
19.0
 40
19.0
 40
20.0
 40
20.0
 40
20.0
 40
21.0
 40
21.0
 40
21.0
 40
22.0
 40
22.0
 40
22.0
 40
23.0
 40
23.0
 40
23.0
 40
24.0
 40
24.0
 40
24.0
 40
25.0
 40
25.0
 40
25.0
 40
26.0
 40
26.0
 40
26.0
 40
27.0
 40
27.0
 40
27.0
 40
28.0
 40
28.0
 40
28.0
 40
29.0
 40
29.0
 40
29.0
 40
29.0
 10
1351.619257856202
 20
-755.2256902439958
 30
0.0
 10
1351.619257856202
 20
-755.2256902439958
 30
0.0
 10
1327.347811525018
 20
-729.3961566620865
 30
0.0
 10
1327.347811525018
 20
-729.3961566620865
 30
0.0
 10
1327.347811525018
 20
-729.3961566620865
 30
0.0
 10
1344.611839193762
 20
-713.1736974902506
 30
0.0
 10
1344.611839193762
 20
-713.1736974902506
 30
0.0
 10
1349.631360360163
 20
-708.4569448291631
 30
0.0
 10
1352.505139861152
 20
-705.2372408766123
 30
0.0
 10
1353.23152476547
 20
-703.514906543197
 30
0.0
 10
1353.956715689026
 20
-701.7934901107619
 30
0.0
 10
1353.435505809528
 20
-699.9902215221055
 30
0.0
 10
1351.668701886556
 20
-698.1096095866578
 30
0.0
 10
1349.669726554759
 20
-695.9823457383836
 30
0.0
 10
1347.643749557015
 20
-695.3440709476181
 30
0.0
 10
1345.5930118488
 20
-696.1932523906698
 30
0.0
 10
1343.540768215382
 20
-697.0424517660485
 30
0.0
 10
1340.00096325654
 20
-699.8311978207075
 30
0.0
 10
1334.969520214832
 20
-704.5586354168117
 30
0.0
 10
1334.969520214832
 20
-704.5586354168117
 30
0.0
 10
1288.83222393263
 20
-747.9127953804791
 30
0.0
 10
1288.83222393263
 20
-747.9127953804791
 30
0.0
 10
1284.005439126566
 20
-752.4483236846654
 30
0.0
 10
1281.124728861254
 20
-755.693112070704
 30
0.0
 10
1280.190881963956
 20
-757.6501634228298
 30
0.0
 10
1279.25672312222
 20
-759.6063148063013
 30
0.0
 10
1279.731088515044
 20
-761.586359443967
 30
0.0
 10
1281.61443709292
 20
-763.5908943262093
 30
0.0
 10
1283.420897176253
 20
-765.5132059267335
 30
0.0
 10
1285.339662824988
 20
-766.0777516648741
 30
0.0
 10
1287.373892895579
 20
-765.2841926977053
 30
0.0
 10
1289.406599108643
 20
-764.4891457376643
 30
0.0
 10
1293.150578325442
 20
-761.5310882352451
 30
0.0
 10
1298.603976811679
 20
-756.4061263037238
 30
0.0
 10
1298.603976811679
 20
-756.4061263037238
 30
0.0
 10
1311.089330261413
 20
-744.6740408359847
 30
0.0
 10
1311.089330261413
 20
-744.6740408359847
 30
0.0
 10
1311.089330261413
 20
-744.6740408359847
 30
0.0
 10
1335.360776592597
 20
-770.5035744178949
 30
0.0
 10
1335.360776592597
 20
-770.5035744178949
 30
0.0
 10
1335.360776592597
 20
-770.5035744178949
 30
0.0
 10
1331.489939611742
 20
-774.1412061817609
 30
0.0
 10
1331.489939611742
 20
-774.1412061817609
 30
0.0
 10
1321.208709344728
 20
-783.8023113401787
 30
0.0
 10
1313.233893091496
 20
-789.9272512751322
 30
0.0
 10
1307.57017356603
 20
-792.5171751365724
 30
0.0
 10
1301.903736202272
 20
-795.1065289061198
 30
0.0
 10
1295.118755130996
 20
-795.4373424554033
 30
0.0
 10
1287.212659519964
 20
-793.5087427142607
 30
0.0
 10
1279.307004927099
 20
-791.5792340382986
 30
0.0
 10
1271.932937280673
 20
-786.9742162397206
 30
0.0
 10
1265.092421456377
 20
-779.6942683765801
 30
0.0
 10
1257.981142969929
 20
-772.1268599380282
 30
0.0
 10
1253.491200021059
 20
-764.6017366061651
 30
0.0
 10
1251.618827796763
 20
-757.1189432118108
 30
0.0
 10
1249.746455572467
 20
-749.6361498174574
 30
0.0
 10
1250.485524729531
 20
-742.8193007842356
 30
0.0
 10
1253.833335361986
 20
-736.6693319454535
 30
0.0
 10
1257.18099898839
 20
-730.5196660849442
 30
0.0
 10
1263.72235973338
 20
-722.8716180489146
 30
0.0
 10
1273.457252658576
 20
-713.7239848904355
 30
0.0
 10
1273.457252658576
 20
-713.7239848904355
 30
0.0
 10
1302.476782044241
 20
-686.4543875059935
 30
0.0
 10
1302.476782044241
 20
-686.4543875059935
 30
0.0
 10
1309.634294953457
 20
-679.7288924790737
 30
0.0
 10
1315.23345366797
 20
-674.929930645756
 30
0.0
 10
1319.273799237282
 20
-672.056905015661
 30
0.0
 10
1323.313556782379
 20
-669.1850912986547
 30
0.0
 10
1328.134039557202
 20
-667.4088842008305
 30
0.0
 10
1333.733906574937
 20
-666.7295046014397
 30
0.0
 10
1339.333461648235
 20
-666.0492250333937
 30
0.0
 10
1345.111925592182
 20
-666.9735638484408
 30
0.0
 10
1351.068839456286
 20
-669.5019240561969
 30
0.0
 10
1357.025294369898
 20
-672.0296872735717
 30
0.0
 10
1362.636176451106
 20
-676.0951159795995
 30
0.0
 10
1367.902403600896
 20
-681.6994041550415
 30
0.0
 10
1375.051667384121
 20
-689.3073272440724
 30
0.0
 10
1379.480104457805
 20
-696.9669280981916
 30
0.0
 10
1381.189844636021
 20
-704.679988722377
 30
0.0
 10
1382.899125863745
 20
-712.3924523561809
 30
0.0
 10
1382.287708601822
 20
-719.0897000532814
 30
0.0
 10
1379.358439762271
 20
-724.7704930020964
 30
0.0
 10
1376.427647065189
 20
-730.4497979580401
 30
0.0
 10
1370.327485172975
 20
-737.6467751998607
 30
0.0
 10
1361.055218315008
 20
-746.3593487104672
 30
0.0
 10
1361.055218315008
 20
-746.3593487104672
 30
0.0
 10
1351.619257856202
 20
-755.2256902439958
 30
0.0
 10
1351.619257856202
 20
-755.2256902439958
 30
0.0
  0
HATCH
  5
A1
330
71
100
AcDbEntity
  8
katman 1
 62
    96
420
    35584
100
AcDbHatch
 10
0.0
 20
0.0
 30
0.0
210
0.0
220
0.0
230
1.0
  2
SOLID
 70
     1
 71
     0
 91
        1
 92
        1
 93
        1
 72
     4
 94
        3
 73
     0
 74
     1
 95
       92
 96
       88
 40
0.0
 40
0.0
 40
0.0
 40
0.0
 40
1.0
 40
1.0
 40
1.0
 40
2.0
 40
2.0
 40
2.0
 40
3.0
 40
3.0
 40
3.0
 40
4.0
 40
4.0
 40
4.0
 40
5.0
 40
5.0
 40
5.0
 40
6.0
 40
6.0
 40
6.0
 40
7.0
 40
7.0
 40
7.0
 40
8.0
 40
8.0
 40
8.0
 40
9.0
 40
9.0
 40
9.0
 40
10.0
 40
10.0
 40
10.0
 40
11.0
 40
11.0
 40
11.0
 40
12.0
 40
12.0
 40
12.0
 40
13.0
 40
13.0
 40
13.0
 40
14.0
 40
14.0
 40
14.0
 40
15.0
 40
15.0
 40
15.0
 40
16.0
 40
16.0
 40
16.0
 40
17.0
 40
17.0
 40
17.0
 40
18.0
 40
18.0
 40
18.0
 40
19.0
 40
19.0
 40
19.0
 40
20.0
 40
20.0
 40
20.0
 40
21.0
 40
21.0
 40
21.0
 40
22.0
 40
22.0
 40
22.0
 40
23.0
 40
23.0
 40
23.0
 40
24.0
 40
24.0
 40
24.0
 40
25.0
 40
25.0
 40
25.0
 40
26.0
 40
26.0
 40
26.0
 40
27.0
 40
27.0
 40
27.0
 40
28.0
 40
28.0
 40
28.0
 40
29.0
 40
29.0
 40
29.0
 40
29.0
 10
1351.619257856202
 20
-755.2256902439958
 10
1351.619257856202
 20
-755.2256902439958
 10
1327.347811525018
 20
-729.3961566620865
 10
1327.347811525018
 20
-729.3961566620865
 10
1327.347811525018
 20
-729.3961566620865
 10
1344.611839193762
 20
-713.1736974902506
 10
1344.611839193762
 20
-713.1736974902506
 10
1349.631360360163
 20
-708.4569448291631
 10
1352.505139861152
 20
-705.2372408766123
 10
1353.23152476547
 20
-703.514906543197
 10
1353.956715689026
 20
-701.7934901107619
 10
1353.435505809528
 20
-699.9902215221055
 10
1351.668701886556
 20
-698.1096095866578
 10
1349.669726554759
 20
-695.9823457383836
 10
1347.643749557015
 20
-695.3440709476181
 10
1345.5930118488
 20
-696.1932523906698
 10
1343.540768215382
 20
-697.0424517660485
 10
1340.00096325654
 20
-699.8311978207075
 10
1334.969520214832
 20
-704.5586354168117
 10
1334.969520214832
 20
-704.5586354168117
 10
1288.83222393263
 20
-747.9127953804791
 10
1288.83222393263
 20
-747.9127953804791
 10
1284.005439126566
 20
-752.4483236846654
 10
1281.124728861254
 20
-755.693112070704
 10
1280.190881963956
 20
-757.6501634228298
 10
1279.25672312222
 20
-759.6063148063013
 10
1279.731088515044
 20
-761.586359443967
 10
1281.61443709292
 20
-763.5908943262093
 10
1283.420897176253
 20
-765.5132059267335
 10
1285.339662824988
 20
-766.0777516648741
 10
1287.373892895579
 20
-765.2841926977053
 10
1289.406599108643
 20
-764.4891457376643
 10
1293.150578325442
 20
-761.5310882352451
 10
1298.603976811679
 20
-756.4061263037238
 10
1298.603976811679
 20
-756.4061263037238
 10
1311.089330261413
 20
-744.6740408359847
 10
1311.089330261413
 20
-744.6740408359847
 10
1311.089330261413
 20
-744.6740408359847
 10
1335.360776592597
 20
-770.5035744178949
 10
1335.360776592597
 20
-770.5035744178949
 10
1335.360776592597
 20
-770.5035744178949
 10
1331.489939611742
 20
-774.1412061817609
 10
1331.489939611742
 20
-774.1412061817609
 10
1321.208709344728
 20
-783.8023113401787
 10
1313.233893091496
 20
-789.9272512751322
 10
1307.57017356603
 20
-792.5171751365724
 10
1301.903736202272
 20
-795.1065289061198
 10
1295.118755130996
 20
-795.4373424554033
 10
1287.212659519964
 20
-793.5087427142607
 10
1279.307004927099
 20
-791.5792340382986
 10
1271.932937280673
 20
-786.9742162397206
 10
1265.092421456377
 20
-779.6942683765801
 10
1257.981142969929
 20
-772.1268599380282
 10
1253.491200021059
 20
-764.6017366061651
 10
1251.618827796763
 20
-757.1189432118108
 10
1249.746455572467
 20
-749.6361498174574
 10
1250.485524729531
 20
-742.8193007842356
 10
1253.833335361986
 20
-736.6693319454535
 10
1257.18099898839
 20
-730.5196660849442
 10
1263.72235973338
 20
-722.8716180489146
 10
1273.457252658576
 20
-713.7239848904355
 10
1273.457252658576
 20
-713.7239848904355
 10
1302.476782044241
 20
-686.4543875059935
 10
1302.476782044241
 20
-686.4543875059935
 10
1309.634294953457
 20
-679.7288924790737
 10
1315.23345366797
 20
-674.929930645756
 10
1319.273799237282
 20
-672.056905015661
 10
1323.313556782379
 20
-669.1850912986547
 10
1328.134039557202
 20
-667.4088842008305
 10
1333.733906574937
 20
-666.7295046014397
 10
1339.333461648235
 20
-666.0492250333937
 10
1345.111925592182
 20
-666.9735638484408
 10
1351.068839456286
 20
-669.5019240561969
 10
1357.025294369898
 20
-672.0296872735717
 10
1362.636176451106
 20
-676.0951159795995
 10
1367.902403600896
 20
-681.6994041550415
 10
1375.051667384121
 20
-689.3073272440724
 10
1379.480104457805
 20
-696.9669280981916
 10
1381.189844636021
 20
-704.679988722377
 10
1382.899125863745
 20
-712.3924523561809
 10
1382.287708601822
 20
-719.0897000532814
 10
1379.358439762271
 20
-724.7704930020964
 10
1376.427647065189
 20
-730.4497979580401
 10
1370.327485172975
 20
-737.6467751998607
 10
1361.055218315008
 20
-746.3593487104672
 10
1361.055218315008
 20
-746.3593487104672
 10
1351.619257856202
 20
-755.2256902439958
 10
1351.619257856202
 20
-755.2256902439958
 97
        0
 97
        0
 75
     2
 76
     1
 98
        0
  0
ENDBLK
  5
74
330
71
100
AcDbEntity
  8
0
100
AcDbBlockEnd
  0
BLOCK
  5
A4
330
A2
100
AcDbEntity
  8
0
100
AcDbBlockBegin
  2
block 6
 70
     0
 10
0.0
 20
0.0
 30
0.0
  3
block 6
  1

  0
ENDBLK
  5
A5
330
A2
100
AcDbEntity
  8
0
100
AcDbBlockEnd
  0
ENDSEC
  0
SECTION
  2
ENTITIES
  0
SPLINE
  5
41
330
1F
100
AcDbEntity
  8
katman 1
370
     0
100
AcDbSpline
210
0.0
220
0.0
230
1.0
 70
    11
 71
     3
 72
    17
 73
    13
 74
     0
 42
0.0000000001
 43
0.0000000001
 12
1.0
 22
0.0
 32
0.0
 13
1.0
 23
0.0
 33
0.0
 40
0.0
 40
0.0
 40
0.0
 40
0.0
 40
1.0
 40
1.0
 40
1.0
 40
2.0
 40
2.0
 40
2.0
 40
3.0
 40
3.0
 40
3.0
 40
4.0
 40
4.0
 40
4.0
 40
4.0
 10
882.9929402115094
 20
-1282.906806217274
 30
0.0
 10
882.9929402115094
 20
-1282.906806217274
 30
0.0
 10
907.272553927286
 20
-1275.644796661796
 30
0.0
 10
907.272553927286
 20
-1275.644796661796
 30
0.0
 10
907.272553927286
 20
-1275.644796661796
 30
0.0
 10
926.1205167597873
 20
-1276.369718309197
 30
0.0
 10
914.5217704013257
 20
-1287.243543020257
 30
0.0
 10
914.5217704013257
 20
-1287.243543020257
 30
0.0
 10
876.1009230889204
 20
-1298.117367731313
 30
0.0
 10
876.1009230889204
 20
-1298.117367731313
 30
0.0
 10
876.1009230889204
 20
-1298.117367731313
 30
0.0
 10
882.9929402115094
 20
-1282.906806217274
 30
0.0
 10
882.9929402115094
 20
-1282.906806217274
 30
0.0
  0
HATCH
  5
42
330
1F
100
AcDbEntity
  8
katman 1
 62
    93
420
  5682788
100
AcDbHatch
 10
0.0
 20
0.0
 30
0.0
210
0.0
220
0.0
230
1.0
  2
SOLID
 70
     1
 71
     0
 91
        1
 92
        1
 93
        1
 72
     4
 94
        3
 73
     0
 74
     1
 95
       17
 96
       13
 40
0.0
 40
0.0
 40
0.0
 40
0.0
 40
1.0
 40
1.0
 40
1.0
 40
2.0
 40
2.0
 40
2.0
 40
3.0
 40
3.0
 40
3.0
 40
4.0
 40
4.0
 40
4.0
 40
4.0
 10
882.9929402115094
 20
-1282.906806217274
 10
882.9929402115094
 20
-1282.906806217274
 10
907.272553927286
 20
-1275.644796661796
 10
907.272553927286
 20
-1275.644796661796
 10
907.272553927286
 20
-1275.644796661796
 10
926.1205167597873
 20
-1276.369718309197
 10
914.5217704013257
 20
-1287.243543020257
 10
914.5217704013257
 20
-1287.243543020257
 10
876.1009230889204
 20
-1298.117367731313
 10
876.1009230889204
 20
-1298.117367731313
 10
876.1009230889204
 20
-1298.117367731313
 10
882.9929402115094
 20
-1282.906806217274
 10
882.9929402115094
 20
-1282.906806217274
 97
        0
 97
        0
 75
     2
 76
     1
 98
        0
  0
INSERT
  5
44
330
1F
100
AcDbEntity
  8
katman 1
100
AcDbBlockReference
  2
block 2
 10
0.0
 20
0.0
 30
0.0
  0
INSERT
  5
58
330
1F
100
AcDbEntity
  8
katman 1
100
AcDbBlockReference
  2
block 3
 10
0.0
 20
0.0
 30
0.0
  0
INSERT
  5
6C
330
1F
100
AcDbEntity
  8
katman 1
100
AcDbBlockReference
  2
block 4
 10
0.0
 20
0.0
 30
0.0
  0
INSERT
  5
72
330
1F
100
AcDbEntity
  8
katman 1
100
AcDbBlockReference
  2
block 5
 10
0.0
 20
0.0
 30
0.0
  0
INSERT
  5
A3
330
1F
100
AcDbEntity
  8
katman 1
100
AcDbBlockReference
  2
block 6
 10
0.0
 20
0.0
 30
0.0
  0
ENDSEC
  0
SECTION
  2
OBJECTS
  0
DICTIONARY
  5
C
330
0
100
AcDbDictionary
281
     1
  3
ACAD_GROUP
350
D
  3
ACAD_LAYOUT
350
1A
  3
ACAD_MATERIAL
350
3B
  3
ACAD_MLEADERSTYLE
350
A7
  3
ACAD_MLINESTYLE
350
17
  3
ACAD_PLOTSETTINGS
350
19
  3
ACAD_PLOTSTYLENAME
350
E
  3
ACAD_TABLESTYLE
350
A6
  3
ACAD_VISUALSTYLE
350
2A
  0
SUN
  5
3F
330
29
100
AcDbSun
 90
        1
290
     0
 63
     7
421
 16777215
 40
1.0
291
     1
 91
  2455826
 92
 54000000
292
     0
 70
     2
 71
   256
280
     1
  0
DICTIONARY
  5
D
102
{ACAD_REACTORS
330
C
102
}
330
C
100
AcDbDictionary
281
     1
  0
DICTIONARY
  5
1A
102
{ACAD_REACTORS
330
C
102
}
330
C
100
AcDbDictionary
281
     1
  3
Layout1
350
1E
  3
Layout2
350
26
  3
Model
350
22
  0
DICTIONARY
  5
3B
102
{ACAD_REACTORS
330
C
102
}
330
C
100
AcDbDictionary
281
     1
  3
ByBlock
350
3D
  3
ByLayer
350
3C
  3
Global
350
3E
  0
DICTIONARY
  5
A7
102
{ACAD_REACTORS
330
C
102
}
330
C
100
AcDbDictionary
281
     1
  0
DICTIONARY
  5
17
102
{ACAD_REACTORS
330
C
102
}
330
C
100
AcDbDictionary
281
     1
  3
Standard
350
18
  0
DICTIONARY
  5
19
102
{ACAD_REACTORS
330
C
102
}
330
C
100
AcDbDictionary
281
     1
  0
ACDBDICTIONARYWDFLT
  5
E
102
{ACAD_REACTORS
330
C
102
}
330
C
100
AcDbDictionary
281
     1
  3
Normal
350
F
100
AcDbDictionaryWithDefault
340
F
  0
DICTIONARY
  5
A6
102
{ACAD_REACTORS
330
C
102
}
330
C
100
AcDbDictionary
281
     1
  0
DICTIONARY
  5
2A
102
{ACAD_REACTORS
330
C
102
}
330
C
100
AcDbDictionary
281
     1
  3
2dWireframe
350
2F
  3
3D Hidden
350
31
  3
3dWireframe
350
30
  3
Basic
350
32
  3
Brighten
350
36
  3
ColorChange
350
3A
  3
Conceptual
350
34
  3
Dim
350
35
  3
Facepattern
350
39
  3
Flat
350
2B
  3
FlatWithEdges
350
2C
  3
Gouraud
350
2D
  3
GouraudWithEdges
350
2E
  3
Linepattern
350
38
  3
Realistic
350
33
  3
Thicken
350
37
  0
LAYOUT
  5
1E
102
{ACAD_REACTORS
330
1A
102
}
330
1A
100
AcDbPlotSettings
  1

  2
none_device
  4

  6

 40
0.0
 41
0.0
 42
0.0
 43
0.0
 44
0.0
 45
0.0
 46
0.0
 47
0.0
 48
0.0
 49
0.0
140
0.0
141
0.0
142
1.0
143
1.0
 70
   688
 72
     0
 73
     0
 74
     5
  7

 75
    16
 76
     0
 77
     2
 78
   300
147
1.0
148
0.0
149
0.0
100
AcDbLayout
  1
Layout1
 70
     1
 71
     1
 10
0.0
 20
0.0
 11
12.0
 21
9.0
 12
0.0
 22
0.0
 32
0.0
 14
1.000000000000000E+20
 24
1.000000000000000E+20
 34
1.000000000000000E+20
 15
-1.000000000000000E+20
 25
-1.000000000000000E+20
 35
-1.000000000000000E+20
146
0.0
 13
0.0
 23
0.0
 33
0.0
 16
1.0
 26
0.0
 36
0.0
 17
0.0
 27
1.0
 37
0.0
 76
     0
330
1B
  0
LAYOUT
  5
26
102
{ACAD_REACTORS
330
1A
102
}
330
1A
100
AcDbPlotSettings
  1

  2
none_device
  4

  6

 40
0.0
 41
0.0
 42
0.0
 43
0.0
 44
0.0
 45
0.0
 46
0.0
 47
0.0
 48
0.0
 49
0.0
140
0.0
141
0.0
142
1.0
143
1.0
 70
   688
 72
     0
 73
     0
 74
     5
  7

 75
    16
 76
     0
 77
     2
 78
   300
147
1.0
148
0.0
149
0.0
100
AcDbLayout
  1
Layout2
 70
     1
 71
     2
 10
0.0
 20
0.0
 11
0.0
 21
0.0
 12
0.0
 22
0.0
 32
0.0
 14
0.0
 24
0.0
 34
0.0
 15
0.0
 25
0.0
 35
0.0
146
0.0
 13
0.0
 23
0.0
 33
0.0
 16
1.0
 26
0.0
 36
0.0
 17
0.0
 27
1.0
 37
0.0
 76
     0
330
23
  0
LAYOUT
  5
22
102
{ACAD_REACTORS
330
1A
102
}
330
1A
100
AcDbPlotSettings
  1

  2
none_device
  4

  6

 40
0.0
 41
0.0
 42
0.0
 43
0.0
 44
0.0
 45
0.0
 46
0.0
 47
0.0
 48
0.0
 49
0.0
140
0.0
141
0.0
142
1.0
143
1.0
 70
  1712
 72
     0
 73
     0
 74
     0
  7

 75
     0
 76
     0
 77
     2
 78
   300
147
1.0
148
0.0
149
0.0
100
AcDbLayout
  1
Model
 70
     1
 71
     0
 10
0.0
 20
0.0
 11
12.0
 21
9.0
 12
0.0
 22
0.0
 32
0.0
 14
1.000000000000000E+20
 24
1.000000000000000E+20
 34
1.000000000000000E+20
 15
-1.000000000000000E+20
 25
-1.000000000000000E+20
 35
-1.000000000000000E+20
146
0.0
 13
0.0
 23
0.0
 33
0.0
 16
1.0
 26
0.0
 36
0.0
 17
0.0
 27
1.0
 37
0.0
 76
     0
330
1F
331
29
  0
MATERIAL
  5
3D
102
{ACAD_REACTORS
330
3B
102
}
330
3B
100
AcDbMaterial
  1
ByBlock
 72
     1
 94
      127
  0
MATERIAL
  5
3C
102
{ACAD_REACTORS
330
3B
102
}
330
3B
100
AcDbMaterial
  1
ByLayer
 72
     1
 94
      127
  0
MATERIAL
  5
3E
102
{ACAD_REACTORS
330
3B
102
}
330
3B
100
AcDbMaterial
  1
Global
 72
     1
 94
      127
  0
MLINESTYLE
  5
18
102
{ACAD_REACTORS
330
17
102
}
330
17
100
AcDbMlineStyle
  2
Standard
 70
     0
  3

 62
   256
 51
90.0
 52
90.0
 71
     2
 49
0.5
 62
   256
  6
BYLAYER
 49
-0.5
 62
   256
  6
BYLAYER
  0
ACDBPLACEHOLDER
  5
F
102
{ACAD_REACTORS
330
E
102
}
330
E
  0
VISUALSTYLE
  5
2F
102
{ACAD_REACTORS
330
2A
102
}
330
2A
100
AcDbVisualStyle
  2
2dWireframe
 70
     4
177
     2
291
     0
 71
     0
176
     1
 72
     2
176
     1
 73
     0
176
     1
 90
        0
176
     1
 40
-0.6
176
     1
 41
-30.0
176
     1
 62
     5
 63
     7
421
 16777215
176
     1
 74
     1
176
     1
 91
        4
176
     1
 64
     7
176
     1
 65
   257
176
     1
 75
     1
176
     1
175
     1
176
     1
 42
1.0
176
     1
 92
        0
176
     1
 66
   257
176
     1
 43
1.0
176
     1
 76
     1
176
     1
 77
     6
176
     1
 78
     2
176
     1
 67
     7
176
     1
 79
     5
176
     1
170
     0
176
     1
171
     0
176
     1
290
     0
176
     1
 93
        1
176
     1
 44
0.0
176
     1
173
     0
176
     1
  0
VISUALSTYLE
  5
31
102
{ACAD_REACTORS
330
2A
102
}
330
2A
100
AcDbVisualStyle
  2
3D Hidden
 70
     6
177
     2
291
     0
 71
     1
176
     1
 72
     2
176
     1
 73
     2
176
     1
 90
        0
176
     1
 40
-0.6
176
     1
 41
-30.0
176
     1
 62
     5
 63
     7
421
 16777215
176
     1
 74
     2
176
     1
 91
        2
176
     1
 64
     7
176
     1
 65
   257
176
     1
 75
     2
176
     1
175
     1
176
     1
 42
40.0
176
     1
 92
        0
176
     1
 66
   257
176
     1
 43
1.0
176
     1
 76
     1
176
     1
 77
     6
176
     1
 78
     2
176
     1
 67
     7
176
     1
 79
     3
176
     1
170
     0
176
     1
171
     0
176
     1
290
     0
176
     1
 93
        1
176
     1
 44
0.0
176
     1
173
     0
176
     1
  0
VISUALSTYLE
  5
30
102
{ACAD_REACTORS
330
2A
102
}
330
2A
100
AcDbVisualStyle
  2
3dWireframe
 70
     5
177
     2
291
     0
 71
     0
176
     1
 72
     2
176
     1
 73
     0
176
     1
 90
        0
176
     1
 40
-0.6
176
     1
 41
-30.0
176
     1
 62
     5
 63
     7
421
 16777215
176
     1
 74
     1
176
     1
 91
        4
176
     1
 64
     7
176
     1
 65
   257
176
     1
 75
     1
176
     1
175
     1
176
     1
 42
1.0
176
     1
 92
        0
176
     1
 66
   257
176
     1
 43
1.0
176
     1
 76
     1
176
     1
 77
     6
176
     1
 78
     2
176
     1
 67
     7
176
     1
 79
     5
176
     1
170
     0
176
     1
171
     0
176
     1
290
     0
176
     1
 93
        1
176
     1
 44
0.0
176
     1
173
     0
176
     1
  0
VISUALSTYLE
  5
32
102
{ACAD_REACTORS
330
2A
102
}
330
2A
100
AcDbVisualStyle
  2
Basic
 70
     7
177
     2
291
     1
 71
     1
176
     1
 72
     0
176
     1
 73
     1
176
     1
 90
        0
176
     1
 40
-0.6
176
     1
 41
-30.0
176
     1
 62
     5
 63
     7
421
 16777215
176
     1
 74
     0
176
     1
 91
        4
176
     1
 64
     7
176
     1
 65
   257
176
     1
 75
     1
176
     1
175
     1
176
     1
 42
1.0
176
     1
 92
        8
176
     1
 66
     7
176
     1
 43
1.0
176
     1
 76
     1
176
     1
 77
     6
176
     1
 78
     2
176
     1
 67
     7
176
     1
 79
     5
176
     1
170
     0
176
     1
171
     0
176
     1
290
     0
176
     1
 93
        1
176
     1
 44
0.0
176
     1
173
     0
176
     1
  0
VISUALSTYLE
  5
36
102
{ACAD_REACTORS
330
2A
102
}
330
2A
100
AcDbVisualStyle
  2
Brighten
 70
    12
177
     2
291
     1
 71
     2
176
     1
 72
     2
176
     1
 73
     0
176
     1
 90
        0
176
     1
 40
-0.6
176
     1
 41
-30.0
176
     1
 62
     5
 63
     7
421
 16777215
176
     1
 74
     1
176
     1
 91
        4
176
     1
 64
     7
176
     1
 65
   257
176
     1
 75
     1
176
     1
175
     1
176
     1
 42
1.0
176
     1
 92
        8
176
     1
 66
     7
176
     1
 43
1.0
176
     1
 76
     1
176
     1
 77
     6
176
     1
 78
     2
176
     1
 67
     7
176
     1
 79
     5
176
     1
170
     0
176
     1
171
     0
176
     1
290
     0
176
     1
 93
        1
176
     1
 44
50.0
176
     1
173
     0
176
     1
  0
VISUALSTYLE
  5
3A
102
{ACAD_REACTORS
330
2A
102
}
330
2A
100
AcDbVisualStyle
  2
ColorChange
 70
    16
177
     2
291
     1
 71
     2
176
     1
 72
     2
176
     1
 73
     3
176
     1
 90
        0
176
     1
 40
-0.6
176
     1
 41
-30.0
176
     1
 62
     5
 63
     8
421
  8421504
176
     1
 74
     1
176
     1
 91
        4
176
     1
 64
     7
176
     1
 65
   257
176
     1
 75
     1
176
     1
175
     1
176
     1
 42
1.0
176
     1
 92
        8
176
     1
 66
     8
424
  8421504
176
     1
 43
1.0
176
     1
 76
     1
176
     1
 77
     6
176
     1
 78
     2
176
     1
 67
     7
176
     1
 79
     5
176
     1
170
     0
176
     1
171
     0
176
     1
290
     0
176
     1
 93
        1
176
     1
 44
0.0
176
     1
173
     0
176
     1
  0
VISUALSTYLE
  5
34
102
{ACAD_REACTORS
330
2A
102
}
330
2A
100
AcDbVisualStyle
  2
Conceptual
 70
     9
177
     2
291
     0
 71
     3
176
     1
 72
     2
176
     1
 73
     0
176
     1
 90
        0
176
     1
 40
-0.6
176
     1
 41
-30.0
176
     1
 62
     5
 63
     7
421
 16777215
176
     1
 74
     2
176
     1
 91
        2
176
     1
 64
     7
176
     1
 65
   257
176
     1
 75
     1
176
     1
175
     1
176
     1
 42
40.0
176
     1
 92
        8
176
     1
 66
     7
176
     1
 43
1.0
176
     1
 76
     1
176
     1
 77
     6
176
     1
 78
     2
176
     1
 67
     7
176
     1
 79
     3
176
     1
170
     0
176
     1
171
     0
176
     1
290
     0
176
     1
 93
        1
176
     1
 44
0.0
176
     1
173
     0
176
     1
  0
VISUALSTYLE
  5
35
102
{ACAD_REACTORS
330
2A
102
}
330
2A
100
AcDbVisualStyle
  2
Dim
 70
    11
177
     2
291
     1
 71
     2
176
     1
 72
     2
176
     1
 73
     0
176
     1
 90
        0
176
     1
 40
-0.6
176
     1
 41
-30.0
176
     1
 62
     5
 63
     7
421
 16777215
176
     1
 74
     1
176
     1
 91
        4
176
     1
 64
     7
176
     1
 65
   257
176
     1
 75
     1
176
     1
175
     1
176
     1
 42
1.0
176
     1
 92
        8
176
     1
 66
     7
176
     1
 43
1.0
176
     1
 76
     1
176
     1
 77
     6
176
     1
 78
     2
176
     1
 67
     7
176
     1
 79
     5
176
     1
170
     0
176
     1
171
     0
176
     1
290
     0
176
     1
 93
        1
176
     1
 44
-50.0
176
     1
173
     0
176
     1
  0
VISUALSTYLE
  5
39
102
{ACAD_REACTORS
330
2A
102
}
330
2A
100
AcDbVisualStyle
  2
Facepattern
 70
    15
177
     2
291
     1
 71
     2
176
     1
 72
     2
176
     1
 73
     0
176
     1
 90
        0
176
     1
 40
-0.6
176
     1
 41
-30.0
176
     1
 62
     5
 63
     7
421
 16777215
176
     1
 74
     1
176
     1
 91
        4
176
     1
 64
     7
176
     1
 65
   257
176
     1
 75
     1
176
     1
175
     1
176
     1
 42
1.0
176
     1
 92
        8
176
     1
 66
     7
176
     1
 43
1.0
176
     1
 76
     1
176
     1
 77
     6
176
     1
 78
     2
176
     1
 67
     7
176
     1
 79
     5
176
     1
170
     0
176
     1
171
     0
176
     1
290
     0
176
     1
 93
        1
176
     1
 44
0.0
176
     1
173
     0
176
     1
  0
VISUALSTYLE
  5
2B
102
{ACAD_REACTORS
330
2A
102
}
330
2A
100
AcDbVisualStyle
  2
Flat
 70
     0
177
     2
291
     1
 71
     2
176
     1
 72
     1
176
     1
 73
     1
176
     1
 90
        2
176
     1
 40
-0.6
176
     1
 41
30.0
176
     1
 62
     5
 63
     7
421
 16777215
176
     1
 74
     0
176
     1
 91
        4
176
     1
 64
     7
176
     1
 65
   257
176
     1
 75
     1
176
     1
175
     1
176
     1
 42
1.0
176
     1
 92
        8
176
     1
 66
     7
176
     1
 43
1.0
176
     1
 76
     1
176
     1
 77
     6
176
     1
 78
     2
176
     1
 67
     7
176
     1
 79
     5
176
     1
170
     0
176
     1
171
     0
176
     1
290
     0
176
     1
 93
       13
176
     1
 44
0.0
176
     1
173
     0
176
     1
  0
VISUALSTYLE
  5
2C
102
{ACAD_REACTORS
330
2A
102
}
330
2A
100
AcDbVisualStyle
  2
FlatWithEdges
 70
     1
177
     2
291
     1
 71
     2
176
     1
 72
     1
176
     1
 73
     1
176
     1
 90
        2
176
     1
 40
-0.6
176
     1
 41
30.0
176
     1
 62
     5
 63
     7
421
 16777215
176
     1
 74
     1
176
     1
 91
        4
176
     1
 64
     7
176
     1
 65
   257
176
     1
 75
     1
176
     1
175
     1
176
     1
 42
1.0
176
     1
 92
        0
176
     1
 66
   257
176
     1
 43
1.0
176
     1
 76
     1
176
     1
 77
     6
176
     1
 78
     2
176
     1
 67
     7
176
     1
 79
     5
176
     1
170
     0
176
     1
171
     0
176
     1
290
     0
176
     1
 93
       13
176
     1
 44
0.0
176
     1
173
     0
176
     1
  0
VISUALSTYLE
  5
2D
102
{ACAD_REACTORS
330
2A
102
}
330
2A
100
AcDbVisualStyle
  2
Gouraud
 70
     2
177
     2
291
     1
 71
     2
176
     1
 72
     2
176
     1
 73
     1
176
     1
 90
        2
176
     1
 40
-0.6
176
     1
 41
30.0
176
     1
 62
     5
 63
     7
421
 16777215
176
     1
 74
     0
176
     1
 91
        4
176
     1
 64
     7
176
     1
 65
   257
176
     1
 75
     1
176
     1
175
     1
176
     1
 42
1.0
176
     1
 92
        0
176
     1
 66
     7
176
     1
 43
1.0
176
     1
 76
     1
176
     1
 77
     6
176
     1
 78
     2
176
     1
 67
     7
176
     1
 79
     5
176
     1
170
     0
176
     1
171
     0
176
     1
290
     0
176
     1
 93
       13
176
     1
 44
0.0
176
     1
173
     0
176
     1
  0
VISUALSTYLE
  5
2E
102
{ACAD_REACTORS
330
2A
102
}
330
2A
100
AcDbVisualStyle
  2
GouraudWithEdges
 70
     3
177
     2
291
     1
 71
     2
176
     1
 72
     2
176
     1
 73
     1
176
     1
 90
        2
176
     1
 40
-0.6
176
     1
 41
30.0
176
     1
 62
     5
 63
     7
421
 16777215
176
     1
 74
     1
176
     1
 91
        4
176
     1
 64
     7
176
     1
 65
   257
176
     1
 75
     1
176
     1
175
     1
176
     1
 42
1.0
176
     1
 92
        0
176
     1
 66
   257
176
     1
 43
1.0
176
     1
 76
     1
176
     1
 77
     6
176
     1
 78
     2
176
     1
 67
     7
176
     1
 79
     5
176
     1
170
     0
176
     1
171
     0
176
     1
290
     0
176
     1
 93
       13
176
     1
 44
0.0
176
     1
173
     0
176
     1
  0
VISUALSTYLE
  5
38
102
{ACAD_REACTORS
330
2A
102
}
330
2A
100
AcDbVisualStyle
  2
Linepattern
 70
    14
177
     2
291
     1
 71
     2
176
     1
 72
     2
176
     1
 73
     0
176
     1
 90
        0
176
     1
 40
-0.6
176
     1
 41
-30.0
176
     1
 62
     5
 63
     7
421
 16777215
176
     1
 74
     1
176
     1
 91
        4
176
     1
 64
     7
176
     1
 65
   257
176
     1
 75
     7
176
     1
175
     7
176
     1
 42
1.0
176
     1
 92
        8
176
     1
 66
     7
176
     1
 43
1.0
176
     1
 76
     1
176
     1
 77
     6
176
     1
 78
     2
176
     1
 67
     7
176
     1
 79
     5
176
     1
170
     0
176
     1
171
     0
176
     1
290
     0
176
     1
 93
        1
176
     1
 44
0.0
176
     1
173
     0
176
     1
  0
VISUALSTYLE
  5
33
102
{ACAD_REACTORS
330
2A
102
}
330
2A
100
AcDbVisualStyle
  2
Realistic
 70
     8
177
     2
291
     0
 71
     2
176
     1
 72
     2
176
     1
 73
     0
176
     1
 90
        0
176
     1
 40
-0.6
176
     1
 41
-30.0
176
     1
 62
     5
 63
     7
421
 16777215
176
     1
 74
     1
176
     1
 91
        0
176
     1
 64
     7
176
     1
 65
   257
176
     1
 75
     1
176
     1
175
     1
176
     1
 42
1.0
176
     1
 92
        8
176
     1
 66
     8
424
  7895160
176
     1
 43
1.0
176
     1
 76
     1
176
     1
 77
     6
176
     1
 78
     2
176
     1
 67
     7
176
     1
 79
     5
176
     1
170
     0
176
     1
171
     0
176
     1
290
     0
176
     1
 93
       13
176
     1
 44
0.0
176
     1
173
     0
176
     1
  0
VISUALSTYLE
  5
37
102
{ACAD_REACTORS
330
2A
102
}
330
2A
100
AcDbVisualStyle
  2
Thicken
 70
    13
177
     2
291
     1
 71
     2
176
     1
 72
     2
176
     1
 73
     0
176
     1
 90
        0
176
     1
 40
-0.6
176
     1
 41
-30.0
176
     1
 62
     5
 63
     7
421
 16777215
176
     1
 74
     1
176
     1
 91
        4
176
     1
 64
     7
176
     1
 65
   257
176
     1
 75
     1
176
     1
175
     1
176
     1
 42
1.0
176
     1
 92
       12
176
     1
 66
     7
176
     1
 43
1.0
176
     1
 76
     1
176
     1
 77
     6
176
     1
 78
     2
176
     1
 67
     7
176
     1
 79
     5
176
     1
170
     0
176
     1
171
     0
176
     1
290
     0
176
     1
 93
        1
176
     1
 44
0.0
176
     1
173
     0
176
     1
  0
ENDSEC
  0
EOF
