  0
SECTION
  2
HEADER
  9
$ACADVER
  1
AC1024
  9
$ACADMAINTVER
 70
     6
  9
$DWGCODEPAGE
  3
ANSI_1254
  9
$INSBASE
 10
0.0
 20
0.0
 30
0.0
  9
$EXTMIN
 10
1.000000000000000E+20
 20
1.000000000000000E+20
 30
1.000000000000000E+20
  9
$EXTMAX
 10
-1.000000000000000E+20
 20
-1.000000000000000E+20
 30
-1.000000000000000E+20
  9
$LIMMIN
 10
0.0
 20
0.0
  9
$LIMMAX
 10
12.0
 20
9.0
  9
$ORTHOMODE
 70
     0
  9
$REGENMODE
 70
     1
  9
$FILLMODE
 70
     1
  9
$QTEXTMODE
 70
     0
  9
$MIRRTEXT
 70
     1
  9
$LTSCALE
 40
1.0
  9
$ATTMODE
 70
     1
  9
$TEXTSIZE
 40
0.2
  9
$TRACEWID
 40
0.05
  9
$TEXTSTYLE
  7
Standard
  9
$CLAYER
  8
0
  9
$CELTYPE
  6
ByLayer
  9
$CECOLOR
 62
   256
  9
$CELTSCALE
 40
1.0
  9
$DISPSILH
 70
     0
  9
$DIMSCALE
 40
1.0
  9
$DIMASZ
 40
0.18
  9
$DIMEXO
 40
0.0625
  9
$DIMDLI
 40
0.38
  9
$DIMRND
 40
0.0
  9
$DIMDLE
 40
0.0
  9
$DIMEXE
 40
0.18
  9
$DIMTP
 40
0.0
  9
$DIMTM
 40
0.0
  9
$DIMTXT
 40
0.18
  9
$DIMCEN
 40
0.09
  9
$DIMTSZ
 40
0.0
  9
$DIMTOL
 70
     0
  9
$DIMLIM
 70
     0
  9
$DIMTIH
 70
     1
  9
$DIMTOH
 70
     1
  9
$DIMSE1
 70
     0
  9
$DIMSE2
 70
     0
  9
$DIMTAD
 70
     0
  9
$DIMZIN
 70
     0
  9
$DIMBLK
  1

  9
$DIMASO
 70
     1
  9
$DIMSHO
 70
     1
  9
$DIMPOST
  1

  9
$DIMAPOST
  1

  9
$DIMALT
 70
     0
  9
$DIMALTD
 70
     2
  9
$DIMALTF
 40
25.4
  9
$DIMLFAC
 40
1.0
  9
$DIMTOFL
 70
     0
  9
$DIMTVP
 40
0.0
  9
$DIMTIX
 70
     0
  9
$DIMSOXD
 70
     0
  9
$DIMSAH
 70
     0
  9
$DIMBLK1
  1

  9
$DIMBLK2
  1

  9
$DIMSTYLE
  2
Standard
  9
$DIMCLRD
 70
     0
  9
$DIMCLRE
 70
     0
  9
$DIMCLRT
 70
     0
  9
$DIMTFAC
 40
1.0
  9
$DIMGAP
 40
0.09
  9
$DIMJUST
 70
     0
  9
$DIMSD1
 70
     0
  9
$DIMSD2
 70
     0
  9
$DIMTOLJ
 70
     1
  9
$DIMTZIN
 70
     0
  9
$DIMALTZ
 70
     0
  9
$DIMALTTZ
 70
     0
  9
$DIMUPT
 70
     0
  9
$DIMDEC
 70
     4
  9
$DIMTDEC
 70
     4
  9
$DIMALTU
 70
     2
  9
$DIMALTTD
 70
     2
  9
$DIMTXSTY
  7
Standard
  9
$DIMAUNIT
 70
     0
  9
$DIMADEC
 70
     0
  9
$DIMALTRND
 40
0.0
  9
$DIMAZIN
 70
     0
  9
$DIMDSEP
 70
    46
  9
$DIMATFIT
 70
     3
  9
$DIMFRAC
 70
     0
  9
$DIMLDRBLK
  1

  9
$DIMLUNIT
 70
     2
  9
$DIMLWD
 70
    -2
  9
$DIMLWE
 70
    -2
  9
$DIMTMOVE
 70
     0
  9
$DIMFXL
 40
1.0
  9
$DIMFXLON
 70
     0
  9
$DIMJOGANG
 40
0.7853981633974483
  9
$DIMTFILL
 70
     0
  9
$DIMTFILLCLR
 70
     0
  9
$DIMARCSYM
 70
     0
  9
$DIMLTYPE
  6

  9
$DIMLTEX1
  6

  9
$DIMLTEX2
  6

  9
$DIMTXTDIRECTION
 70
     0
  9
$LUNITS
 70
     2
  9
$LUPREC
 70
     4
  9
$SKETCHINC
 40
0.1
  9
$FILLETRAD
 40
0.5
  9
$AUNITS
 70
     0
  9
$AUPREC
 70
     0
  9
$MENU
  1
.
  9
$ELEVATION
 40
0.0
  9
$PELEVATION
 40
0.0
  9
$THICKNESS
 40
0.0
  9
$LIMCHECK
 70
     0
  9
$CHAMFERA
 40
0.5
  9
$CHAMFERB
 40
0.5
  9
$CHAMFERC
 40
1.0
  9
$CHAMFERD
 40
0.0
  9
$SKPOLY
 70
     0
  9
$TDCREATE
 40
2459354.859300775
  9
$TDUCREATE
 40
2459354.734300775
  9
$TDUPDATE
 40
2459354.859300799
  9
$TDUUPDATE
 40
2459354.734300799
  9
$TDINDWG
 40
0.0000000116
  9
$TDUSRTIMER
 40
0.0000000116
  9
$USRTIMER
 70
     1
  9
$ANGBASE
 50
0.0
  9
$ANGDIR
 70
     0
  9
$PDMODE
 70
     0
  9
$PDSIZE
 40
0.0
  9
$PLINEWID
 40
0.0
  9
$SPLFRAME
 70
     0
  9
$SPLINETYPE
 70
     6
  9
$SPLINESEGS
 70
     8
  9
$HANDSEED
  5
4F
  9
$SURFTAB1
 70
     6
  9
$SURFTAB2
 70
     6
  9
$SURFTYPE
 70
     6
  9
$SURFU
 70
     6
  9
$SURFV
 70
     6
  9
$UCSBASE
  2

  9
$UCSNAME
  2

  9
$UCSORG
 10
0.0
 20
0.0
 30
0.0
  9
$UCSXDIR
 10
1.0
 20
0.0
 30
0.0
  9
$UCSYDIR
 10
0.0
 20
1.0
 30
0.0
  9
$UCSORTHOREF
  2

  9
$UCSORTHOVIEW
 70
     0
  9
$UCSORGTOP
 10
0.0
 20
0.0
 30
0.0
  9
$UCSORGBOTTOM
 10
0.0
 20
0.0
 30
0.0
  9
$UCSORGLEFT
 10
0.0
 20
0.0
 30
0.0
  9
$UCSORGRIGHT
 10
0.0
 20
0.0
 30
0.0
  9
$UCSORGFRONT
 10
0.0
 20
0.0
 30
0.0
  9
$UCSORGBACK
 10
0.0
 20
0.0
 30
0.0
  9
$PUCSBASE
  2

  9
$PUCSNAME
  2

  9
$PUCSORG
 10
0.0
 20
0.0
 30
0.0
  9
$PUCSXDIR
 10
1.0
 20
0.0
 30
0.0
  9
$PUCSYDIR
 10
0.0
 20
1.0
 30
0.0
  9
$PUCSORTHOREF
  2

  9
$PUCSORTHOVIEW
 70
     0
  9
$PUCSORGTOP
 10
0.0
 20
0.0
 30
0.0
  9
$PUCSORGBOTTOM
 10
0.0
 20
0.0
 30
0.0
  9
$PUCSORGLEFT
 10
0.0
 20
0.0
 30
0.0
  9
$PUCSORGRIGHT
 10
0.0
 20
0.0
 30
0.0
  9
$PUCSORGFRONT
 10
0.0
 20
0.0
 30
0.0
  9
$PUCSORGBACK
 10
0.0
 20
0.0
 30
0.0
  9
$USERI1
 70
     0
  9
$USERI2
 70
     0
  9
$USERI3
 70
     0
  9
$USERI4
 70
     0
  9
$USERI5
 70
     0
  9
$USERR1
 40
0.0
  9
$USERR2
 40
0.0
  9
$USERR3
 40
0.0
  9
$USERR4
 40
0.0
  9
$USERR5
 40
0.0
  9
$WORLDVIEW
 70
     1
  9
$SHADEDGE
 70
     3
  9
$SHADEDIF
 70
    70
  9
$TILEMODE
 70
     1
  9
$MAXACTVP
 70
    64
  9
$PINSBASE
 10
0.0
 20
0.0
 30
0.0
  9
$PLIMCHECK
 70
     0
  9
$PEXTMIN
 10
1.000000000000000E+20
 20
1.000000000000000E+20
 30
1.000000000000000E+20
  9
$PEXTMAX
 10
-1.000000000000000E+20
 20
-1.000000000000000E+20
 30
-1.000000000000000E+20
  9
$PLIMMIN
 10
0.0
 20
0.0
  9
$PLIMMAX
 10
12.0
 20
9.0
  9
$UNITMODE
 70
     0
  9
$VISRETAIN
 70
     1
  9
$PLINEGEN
 70
     0
  9
$PSLTSCALE
 70
     1
  9
$TREEDEPTH
 70
  3020
  9
$CMLSTYLE
  2
Standard
  9
$CMLJUST
 70
     0
  9
$CMLSCALE
 40
1.0
  9
$PROXYGRAPHICS
 70
     1
  9
$MEASUREMENT
 70
     0
  9
$CELWEIGHT
370
    -1
  9
$ENDCAPS
280
     0
  9
$JOINSTYLE
280
     0
  9
$LWDISPLAY
290
     1
  9
$INSUNITS
 70
     0
  9
$HYPERLINKBASE
  1

  9
$STYLESHEET
  1

  9
$XEDIT
290
     1
  9
$CEPSNTYPE
380
     0
  9
$PSTYLEMODE
290
     1
  9
$FINGERPRINTGUID
  2
{BCA5A764-344E-4924-873E-9B1965F6ED57}
  9
$VERSIONGUID
  2
{FAEB1C32-E019-11D5-929B-00C0DF256EC4}
  9
$EXTNAMES
290
     1
  9
$PSVPSCALE
 40
0.0
  9
$OLESTARTUP
290
     0
  9
$SORTENTS
280
   127
  9
$INDEXCTL
280
     0
  9
$HIDETEXT
280
     1
  9
$XCLIPFRAME
280
     2
  9
$HALOGAP
280
     0
  9
$OBSCOLOR
 70
   257
  9
$OBSLTYPE
280
     0
  9
$INTERSECTIONDISPLAY
280
     0
  9
$INTERSECTIONCOLOR
 70
   257
  9
$DIMASSOC
280
     2
  9
$PROJECTNAME
  1

  9
$CAMERADISPLAY
290
     0
  9
$LENSLENGTH
 40
50.0
  9
$CAMERAHEIGHT
 40
0.0
  9
$STEPSPERSEC
 40
2.0
  9
$STEPSIZE
 40
6.0
  9
$3DDWFPREC
 40
2.0
  9
$PSOLWIDTH
 40
0.25
  9
$PSOLHEIGHT
 40
4.0
  9
$LOFTANG1
 40
1.570796326794897
  9
$LOFTANG2
 40
1.570796326794897
  9
$LOFTMAG1
 40
0.0
  9
$LOFTMAG2
 40
0.0
  9
$LOFTPARAM
 70
     7
  9
$LOFTNORMALS
280
     1
  9
$LATITUDE
 40
37.795
  9
$LONGITUDE
 40
-122.394
  9
$NORTHDIRECTION
 40
0.0
  9
$TIMEZONE
 70
 -8000
  9
$LIGHTGLYPHDISPLAY
280
     1
  9
$TILEMODELIGHTSYNCH
280
     1
  9
$CMATERIAL
347
3C
  9
$SOLIDHIST
280
     1
  9
$SHOWHIST
280
     1
  9
$DWFFRAME
280
     2
  9
$DGNFRAME
280
     2
  9
$REALWORLDSCALE
290
     1
  9
$INTERFERECOLOR
 62
   256
  9
$CSHADOW
280
     0
  9
$SHADOWPLANELOCATION
 40
0.0
  0
ENDSEC
  0
SECTION
  2
CLASSES
  0
CLASS
  1
ACDBDICTIONARYWDFLT
  2
AcDbDictionaryWithDefault
  3
ObjectDBX Classes
 90
        0
 91
        4
280
     0
281
     0
  0
CLASS
  1
VISUALSTYLE
  2
AcDbVisualStyle
  3
ObjectDBX Classes
 90
     4095
 91
        4
280
     0
281
     0
  0
CLASS
  1
MATERIAL
  2
AcDbMaterial
  3
ObjectDBX Classes
 90
     1153
 91
        4
280
     0
281
     0
  0
CLASS
  1
SUN
  2
AcDbSun
  3
SCENEOE
 90
     1024
 91
        4
280
     0
281
     0
  0
ENDSEC
  0
SECTION
  2
TABLES
  0
TABLE
  2
VPORT
  5
8
330
0
100
AcDbSymbolTable
 70
     1
  0
VPORT
  5
29
330
8
100
AcDbSymbolTableRecord
100
AcDbViewportTableRecord
  2
*Active
 70
     0
 10
0.0
 20
0.0
 11
1.0
 21
1.0
 12
0.0
 22
0.0
 13
0.0
 23
0.0
 14
0.5
 24
0.5
 15
0.5
 25
0.5
 16
0.0
 26
0.0
 36
1.0
 17
962.2685061979687
 27
-983.4632381795004
 37
0.0
 40
951.0735236409992
 41
0.9999996795025338
 42
50.0
 43
0.0
 44
0.0
 50
0.0
 51
0.0
 71
     0
 72
   100
 73
     1
 74
     3
 75
     0
 76
     0
 77
     0
 78
     0
281
     0
 65
     1
110
0.0
120
0.0
130
0.0
111
1.0
121
0.0
131
0.0
112
0.0
122
1.0
132
0.0
 79
     0
146
0.0
 60
     3
 61
     5
292
     1
282
     1
141
0.0
142
0.0
 63
   250
361
3F
  0
ENDTAB
  0
TABLE
  2
LTYPE
  5
5
330
0
100
AcDbSymbolTable
 70
     1
  0
LTYPE
  5
14
330
5
100
AcDbSymbolTableRecord
100
AcDbLinetypeTableRecord
  2
ByBlock
 70
     0
  3

 72
    65
 73
     0
 40
0.0
  0
LTYPE
  5
15
330
5
100
AcDbSymbolTableRecord
100
AcDbLinetypeTableRecord
  2
ByLayer
 70
     0
  3

 72
    65
 73
     0
 40
0.0
  0
LTYPE
  5
16
330
5
100
AcDbSymbolTableRecord
100
AcDbLinetypeTableRecord
  2
Continuous
 70
     0
  3
Solid line
 72
    65
 73
     0
 40
0.0
  0
ENDTAB
  0
TABLE
  2
LAYER
  5
2
330
0
100
AcDbSymbolTable
 70
     2
  0
LAYER
  5
10
330
2
100
AcDbSymbolTableRecord
100
AcDbLayerTableRecord
  2
0
 70
     0
 62
     7
  6
Continuous
370
    -3
390
F
347
3E
  0
LAYER
  5
40
330
2
100
AcDbSymbolTableRecord
100
AcDbLayerTableRecord
  2
katman 1
 70
     0
 62
     7
  6
Continuous
370
    -3
390
F
347
3E
  0
ENDTAB
  0
TABLE
  2
STYLE
  5
3
330
0
100
AcDbSymbolTable
 70
     1
  0
STYLE
  5
11
330
3
100
AcDbSymbolTableRecord
100
AcDbTextStyleTableRecord
  2
Standard
 70
     0
 40
0.0
 41
1.0
 50
0.0
 71
     0
 42
0.2
  3
txt
  4

  0
ENDTAB
  0
TABLE
  2
VIEW
  5
6
330
0
100
AcDbSymbolTable
 70
     0
  0
ENDTAB
  0
TABLE
  2
UCS
  5
7
330
0
100
AcDbSymbolTable
 70
     0
  0
ENDTAB
  0
TABLE
  2
APPID
  5
9
330
0
100
AcDbSymbolTable
 70
     1
  0
APPID
  5
12
330
9
100
AcDbSymbolTableRecord
100
AcDbRegAppTableRecord
  2
ACAD
 70
     0
  0
ENDTAB
  0
TABLE
  2
DIMSTYLE
  5
A
330
0
100
AcDbSymbolTable
 70
     1
100
AcDbDimStyleTable
  0
DIMSTYLE
105
27
330
A
100
AcDbSymbolTableRecord
100
AcDbDimStyleTableRecord
  2
Standard
 70
     0
178
     0
340
11
  0
ENDTAB
  0
TABLE
  2
BLOCK_RECORD
  5
1
330
0
100
AcDbSymbolTable
 70
     2
  0
BLOCK_RECORD
  5
1F
330
1
100
AcDbSymbolTableRecord
100
AcDbBlockTableRecord
  2
*Model_Space
340
22
 70
     0
280
     1
281
     0
  0
BLOCK_RECORD
  5
1B
330
1
100
AcDbSymbolTableRecord
100
AcDbBlockTableRecord
  2
*Paper_Space
340
1E
 70
     0
280
     1
281
     0
  0
BLOCK_RECORD
  5
23
330
1
100
AcDbSymbolTableRecord
100
AcDbBlockTableRecord
  2
*Paper_Space0
340
26
 70
     0
280
     1
281
     0
  0
BLOCK_RECORD
  5
41
330
1
100
AcDbSymbolTableRecord
100
AcDbBlockTableRecord
  2
block 2
340
0
102
{BLKREFS
331
42
102
}
 70
     0
280
     1
281
     0
  0
ENDTAB
  0
ENDSEC
  0
SECTION
  2
BLOCKS
  0
BLOCK
  5
20
330
1F
100
AcDbEntity
  8
0
100
AcDbBlockBegin
  2
*Model_Space
 70
     0
 10
0.0
 20
0.0
 30
0.0
  3
*Model_Space
  1

  0
ENDBLK
  5
21
330
1F
100
AcDbEntity
  8
0
100
AcDbBlockEnd
  0
BLOCK
  5
1C
330
1B
100
AcDbEntity
 67
     1
  8
0
100
AcDbBlockBegin
  2
*Paper_Space
 70
     0
 10
0.0
 20
0.0
 30
0.0
  3
*Paper_Space
  1

  0
ENDBLK
  5
1D
330
1B
100
AcDbEntity
 67
     1
  8
0
100
AcDbBlockEnd
  0
BLOCK
  5
24
330
23
100
AcDbEntity
  8
0
100
AcDbBlockBegin
  2
*Paper_Space0
 70
     0
 10
0.0
 20
0.0
 30
0.0
  3
*Paper_Space0
  1

  0
ENDBLK
  5
25
330
23
100
AcDbEntity
  8
0
100
AcDbBlockEnd
  0
BLOCK
  5
43
330
41
100
AcDbEntity
  8
0
100
AcDbBlockBegin
  2
block 2
 70
     0
 10
0.0
 20
0.0
 30
0.0
  3
block 2
  1

  0
SPLINE
  5
45
330
41
100
AcDbEntity
  8
katman 1
370
     0
100
AcDbSpline
210
0.0
220
0.0
230
1.0
 70
    11
 71
     3
 72
    53
 73
    49
 74
     0
 42
0.0000000001
 43
0.0000000001
 12
1.0
 22
0.0
 32
0.0
 13
1.0
 23
0.0
 33
0.0
 40
0.0
 40
0.0
 40
0.0
 40
0.0
 40
1.0
 40
1.0
 40
1.0
 40
2.0
 40
2.0
 40
2.0
 40
3.0
 40
3.0
 40
3.0
 40
4.0
 40
4.0
 40
4.0
 40
5.0
 40
5.0
 40
5.0
 40
6.0
 40
6.0
 40
6.0
 40
7.0
 40
7.0
 40
7.0
 40
8.0
 40
8.0
 40
8.0
 40
9.0
 40
9.0
 40
9.0
 40
10.0
 40
10.0
 40
10.0
 40
11.0
 40
11.0
 40
11.0
 40
12.0
 40
12.0
 40
12.0
 40
13.0
 40
13.0
 40
13.0
 40
14.0
 40
14.0
 40
14.0
 40
15.0
 40
15.0
 40
15.0
 40
16.0
 40
16.0
 40
16.0
 40
16.0
 10
486.7318967857964
 20
-975.5376254824932
 30
0.0
 10
490.5474582027364
 20
-961.8503348702507
 30
0.0
 10
500.2566221491561
 20
-952.4576163154197
 30
0.0
 10
509.9168249704626
 20
-942.808313466885
 30
0.0
 10
648.4284954215109
 20
-804.4533256712402
 30
0.0
 10
786.8714494764117
 20
-666.0294148597031
 30
0.0
 10
925.1899712744771
 20
-527.4813652713865
 30
0.0
 10
934.041219556052
 20
-518.615467130312
 30
0.0
 10
943.1467542800383
 20
-510.7783623464284
 30
0.0
 10
955.6638310672442
 20
-507.9264763590008
 30
0.0
 10
960.066961258306
 20
-507.9264763590008
 30
0.0
 10
964.4700511376313
 20
-507.9264763590008
 30
0.0
 10
968.8731813286931
 20
-507.9264763590008
 30
0.0
 10
981.4004166738396
 20
-510.7783859665933
 30
0.0
 10
990.5077654260294
 20
-518.6278970067151
 30
0.0
 10
999.3641332983125
 20
-527.4987295580349
 30
0.0
 10
1138.873101027077
 20
-667.2361571971869
 30
0.0
 10
1278.494901310105
 20
-806.8611465452241
 30
0.0
 10
1418.237314312806
 20
-946.3650998615503
 30
0.0
 10
1427.114281483135
 20
-955.2268723468824
 30
0.0
 10
1434.881144016319
 20
-964.3784863203073
 30
0.0
 10
1437.805115610141
 20
-976.8585609319944
 30
0.0
 10
1437.805115610141
 20
-981.2616925342481
 30
0.0
 10
1437.805115610141
 20
-985.6647838247518
 30
0.0
 10
1437.805115610141
 20
-990.0679154270092
 30
0.0
 10
1435.038924158296
 20
-1002.657839559561
 30
0.0
 10
1427.034222371749
 20
-1011.723791062584
 30
0.0
 10
1418.198534420986
 20
-1020.549081413461
 30
0.0
 10
1278.501431811639
 20
-1160.080587811444
 30
0.0
 10
1138.883017714588
 20
-1299.690863370448
 30
0.0
 10
999.3652217152348
 20
-1439.401555500641
 30
0.0
 10
990.5242932385509
 20
-1448.254822206556
 30
0.0
 10
981.3812685983576
 20
-1456.105938788127
 30
0.0
 10
968.8731813286931
 20
-1459.0
 30
0.0
 10
964.4700511376313
 20
-1459.0
 30
0.0
 10
960.066961258306
 20
-1459.0
 30
0.0
 10
955.6638310672442
 20
-1459.0
 30
0.0
 10
943.2195169668721
 20
-1456.014431113857
 30
0.0
 10
934.0291663464322
 20
-1448.312387386668
 30
0.0
 10
925.160704952792
 20
-1439.428322503156
 30
0.0
 10
785.6642137068957
 20
-1299.684897231335
 30
0.0
 10
646.0413048510745
 20
-1160.067526804194
 30
0.0
 10
506.3073547938402
 20
-1020.561537744454
 30
0.0
 10
497.4357906561263
 20
-1011.704481733963
 30
0.0
 10
489.5819357075807
 20
-1002.598097544907
 30
0.0
 10
486.7318967857964
 20
-990.0679154270092
 30
0.0
 10
486.7318967857964
 20
-985.2244988827497
 30
0.0
 10
486.7318967857964
 20
-980.3810420267473
 30
0.0
 10
486.7318967857964
 20
-975.5376254824932
 30
0.0
  0
HATCH
  5
46
330
41
100
AcDbEntity
  8
katman 1
 62
    40
420
 16632576
100
AcDbHatch
 10
0.0
 20
0.0
 30
0.0
210
0.0
220
0.0
230
1.0
  2
SOLID
 70
     1
 71
     0
 91
        1
 92
        1
 93
        1
 72
     4
 94
        3
 73
     0
 74
     1
 95
       53
 96
       49
 40
0.0
 40
0.0
 40
0.0
 40
0.0
 40
1.0
 40
1.0
 40
1.0
 40
2.0
 40
2.0
 40
2.0
 40
3.0
 40
3.0
 40
3.0
 40
4.0
 40
4.0
 40
4.0
 40
5.0
 40
5.0
 40
5.0
 40
6.0
 40
6.0
 40
6.0
 40
7.0
 40
7.0
 40
7.0
 40
8.0
 40
8.0
 40
8.0
 40
9.0
 40
9.0
 40
9.0
 40
10.0
 40
10.0
 40
10.0
 40
11.0
 40
11.0
 40
11.0
 40
12.0
 40
12.0
 40
12.0
 40
13.0
 40
13.0
 40
13.0
 40
14.0
 40
14.0
 40
14.0
 40
15.0
 40
15.0
 40
15.0
 40
16.0
 40
16.0
 40
16.0
 40
16.0
 10
486.7318967857964
 20
-975.5376254824932
 10
490.5474582027364
 20
-961.8503348702507
 10
500.2566221491561
 20
-952.4576163154197
 10
509.9168249704626
 20
-942.808313466885
 10
648.4284954215109
 20
-804.4533256712402
 10
786.8714494764117
 20
-666.0294148597031
 10
925.1899712744771
 20
-527.4813652713865
 10
934.041219556052
 20
-518.615467130312
 10
943.1467542800383
 20
-510.7783623464284
 10
955.6638310672442
 20
-507.9264763590008
 10
960.066961258306
 20
-507.9264763590008
 10
964.4700511376313
 20
-507.9264763590008
 10
968.8731813286931
 20
-507.9264763590008
 10
981.4004166738396
 20
-510.7783859665933
 10
990.5077654260294
 20
-518.6278970067151
 10
999.3641332983125
 20
-527.4987295580349
 10
1138.873101027077
 20
-667.2361571971869
 10
1278.494901310105
 20
-806.8611465452241
 10
1418.237314312806
 20
-946.3650998615503
 10
1427.114281483135
 20
-955.2268723468824
 10
1434.881144016319
 20
-964.3784863203073
 10
1437.805115610141
 20
-976.8585609319944
 10
1437.805115610141
 20
-981.2616925342481
 10
1437.805115610141
 20
-985.6647838247518
 10
1437.805115610141
 20
-990.0679154270092
 10
1435.038924158296
 20
-1002.657839559561
 10
1427.034222371749
 20
-1011.723791062584
 10
1418.198534420986
 20
-1020.549081413461
 10
1278.501431811639
 20
-1160.080587811444
 10
1138.883017714588
 20
-1299.690863370448
 10
999.3652217152348
 20
-1439.401555500641
 10
990.5242932385509
 20
-1448.254822206556
 10
981.3812685983576
 20
-1456.105938788127
 10
968.8731813286931
 20
-1459.0
 10
964.4700511376313
 20
-1459.0
 10
960.066961258306
 20
-1459.0
 10
955.6638310672442
 20
-1459.0
 10
943.2195169668721
 20
-1456.014431113857
 10
934.0291663464322
 20
-1448.312387386668
 10
925.160704952792
 20
-1439.428322503156
 10
785.6642137068957
 20
-1299.684897231335
 10
646.0413048510745
 20
-1160.067526804194
 10
506.3073547938402
 20
-1020.561537744454
 10
497.4357906561263
 20
-1011.704481733963
 10
489.5819357075807
 20
-1002.598097544907
 10
486.7318967857964
 20
-990.0679154270092
 10
486.7318967857964
 20
-985.2244988827497
 10
486.7318967857964
 20
-980.3810420267473
 10
486.7318967857964
 20
-975.5376254824932
 97
        0
 97
        0
 75
     2
 76
     1
 98
        0
  0
SPLINE
  5
47
330
41
100
AcDbEntity
  8
katman 1
370
     0
100
AcDbSpline
210
0.0
220
0.0
230
1.0
 70
    11
 71
     3
 72
    44
 73
    40
 74
     0
 42
0.0000000001
 43
0.0000000001
 12
1.0
 22
0.0
 32
0.0
 13
1.0
 23
0.0
 33
0.0
 40
0.0
 40
0.0
 40
0.0
 40
0.0
 40
1.0
 40
1.0
 40
1.0
 40
2.0
 40
2.0
 40
2.0
 40
3.0
 40
3.0
 40
3.0
 40
4.0
 40
4.0
 40
4.0
 40
5.0
 40
5.0
 40
5.0
 40
6.0
 40
6.0
 40
6.0
 40
7.0
 40
7.0
 40
7.0
 40
8.0
 40
8.0
 40
8.0
 40
9.0
 40
9.0
 40
9.0
 40
10.0
 40
10.0
 40
10.0
 40
11.0
 40
11.0
 40
11.0
 40
12.0
 40
12.0
 40
12.0
 40
13.0
 40
13.0
 40
13.0
 40
13.0
 10
1409.483942930752
 20
-983.4874655417188
 30
0.0
 10
1409.334225136345
 20
-993.7705497359857
 30
0.0
 10
1405.984642214213
 20
-1002.837549344529
 30
0.0
 10
1398.887438270334
 20
-1010.398743814507
 30
0.0
 10
1396.628852221602
 20
-1012.805073153711
 30
0.0
 10
1394.24868597149
 20
-1015.097683043969
 30
0.0
 10
1391.91399136168
 20
-1017.432338090292
 30
0.0
 10
1258.684423350864
 20
-1150.66235191837
 30
0.0
 10
1125.427725540467
 20
-1283.865276249928
 30
0.0
 10
992.2665262370556
 20
-1417.163578183823
 30
0.0
 10
979.8686109469563
 20
-1429.574356895921
 30
0.0
 10
965.6704540675801
 20
-1433.645843724522
 30
0.0
 10
948.9717600888434
 20
-1428.424988257731
 30
0.0
 10
941.8726211815465
 20
-1426.20542325988
 30
0.0
 10
936.4750004175166
 20
-1421.343181128012
 30
0.0
 10
931.2829292048264
 20
-1416.147802687712
 30
0.0
 10
815.5207395460993
 20
-1300.314324907984
 30
0.0
 10
699.7142472874639
 20
-1184.52510943061
 30
0.0
 10
583.9163817407307
 20
-1068.72722692682
 30
0.0
 10
565.550585764925
 20
-1050.361435142759
 30
0.0
 10
547.1666646239846
 20
-1032.013743334795
 30
0.0
 10
528.8260433284695
 20
-1013.622837329996
 30
0.0
 10
510.1264686826789
 20
-994.8719070789994
 30
0.0
 10
510.0469033900808
 20
-971.9950691358517
 30
0.0
 10
528.8589830572673
 20
-953.1399733208418
 30
0.0
 10
581.0950035197584
 20
-900.7845226330919
 30
0.0
 10
633.4259883587083
 20
-848.5238045596707
 30
0.0
 10
685.7212368420469
 20
-796.2274508985602
 30
0.0
 10
767.4326054284857
 20
-714.5144234979207
 30
0.0
 10
849.1442158853515
 20
-632.8016278898476
 30
0.0
 10
930.858446605178
 20
-551.0914727014497
 30
0.0
 10
951.0903837837295
 20
-530.8605091180525
 30
0.0
 10
973.4754918165127
 20
-530.8885938109224
 30
0.0
 10
993.7573349265367
 20
-551.1700403037166
 30
0.0
 10
1127.133839221848
 20
-684.5440678614514
 30
0.0
 10
1260.482407482825
 20
-817.946051618349
 30
0.0
 10
1393.939817436018
 20
-951.239032401143
 30
0.0
 10
1403.020197635582
 20
-960.3082088442279
 30
0.0
 10
1409.607054978173
 20
-970.1724136361627
 30
0.0
 10
1409.483942930752
 20
-983.4874655417188
 30
0.0
  0
HATCH
  5
48
330
41
100
AcDbEntity
  8
katman 1
 62
     7
420
 16777215
100
AcDbHatch
 10
0.0
 20
0.0
 30
0.0
210
0.0
220
0.0
230
1.0
  2
SOLID
 70
     1
 71
     0
 91
        1
 92
        1
 93
        1
 72
     4
 94
        3
 73
     0
 74
     1
 95
       44
 96
       40
 40
0.0
 40
0.0
 40
0.0
 40
0.0
 40
1.0
 40
1.0
 40
1.0
 40
2.0
 40
2.0
 40
2.0
 40
3.0
 40
3.0
 40
3.0
 40
4.0
 40
4.0
 40
4.0
 40
5.0
 40
5.0
 40
5.0
 40
6.0
 40
6.0
 40
6.0
 40
7.0
 40
7.0
 40
7.0
 40
8.0
 40
8.0
 40
8.0
 40
9.0
 40
9.0
 40
9.0
 40
10.0
 40
10.0
 40
10.0
 40
11.0
 40
11.0
 40
11.0
 40
12.0
 40
12.0
 40
12.0
 40
13.0
 40
13.0
 40
13.0
 40
13.0
 10
1409.483942930752
 20
-983.4874655417188
 10
1409.334225136345
 20
-993.7705497359857
 10
1405.984642214213
 20
-1002.837549344529
 10
1398.887438270334
 20
-1010.398743814507
 10
1396.628852221602
 20
-1012.805073153711
 10
1394.24868597149
 20
-1015.097683043969
 10
1391.91399136168
 20
-1017.432338090292
 10
1258.684423350864
 20
-1150.66235191837
 10
1125.427725540467
 20
-1283.865276249928
 10
992.2665262370556
 20
-1417.163578183823
 10
979.8686109469563
 20
-1429.574356895921
 10
965.6704540675801
 20
-1433.645843724522
 10
948.9717600888434
 20
-1428.424988257731
 10
941.8726211815465
 20
-1426.20542325988
 10
936.4750004175166
 20
-1421.343181128012
 10
931.2829292048264
 20
-1416.147802687712
 10
815.5207395460993
 20
-1300.314324907984
 10
699.7142472874639
 20
-1184.52510943061
 10
583.9163817407307
 20
-1068.72722692682
 10
565.550585764925
 20
-1050.361435142759
 10
547.1666646239846
 20
-1032.013743334795
 10
528.8260433284695
 20
-1013.622837329996
 10
510.1264686826789
 20
-994.8719070789994
 10
510.0469033900808
 20
-971.9950691358517
 10
528.8589830572673
 20
-953.1399733208418
 10
581.0950035197584
 20
-900.7845226330919
 10
633.4259883587083
 20
-848.5238045596707
 10
685.7212368420469
 20
-796.2274508985602
 10
767.4326054284857
 20
-714.5144234979207
 10
849.1442158853515
 20
-632.8016278898476
 10
930.858446605178
 20
-551.0914727014497
 10
951.0903837837295
 20
-530.8605091180525
 10
973.4754918165127
 20
-530.8885938109224
 10
993.7573349265367
 20
-551.1700403037166
 10
1127.133839221848
 20
-684.5440678614514
 10
1260.482407482825
 20
-817.946051618349
 10
1393.939817436018
 20
-951.239032401143
 10
1403.020197635582
 20
-960.3082088442279
 10
1409.607054978173
 20
-970.1724136361627
 10
1409.483942930752
 20
-983.4874655417188
 97
        0
 97
        0
 75
     2
 76
     1
 98
        0
  0
SPLINE
  5
49
330
41
100
AcDbEntity
  8
katman 1
370
     0
100
AcDbSpline
210
0.0
220
0.0
230
1.0
 70
    11
 71
     3
 72
    35
 73
    31
 74
     0
 42
0.0000000001
 43
0.0000000001
 12
1.0
 22
0.0
 32
0.0
 13
1.0
 23
0.0
 33
0.0
 40
0.0
 40
0.0
 40
0.0
 40
0.0
 40
1.0
 40
1.0
 40
1.0
 40
2.0
 40
2.0
 40
2.0
 40
3.0
 40
3.0
 40
3.0
 40
4.0
 40
4.0
 40
4.0
 40
5.0
 40
5.0
 40
5.0
 40
6.0
 40
6.0
 40
6.0
 40
7.0
 40
7.0
 40
7.0
 40
8.0
 40
8.0
 40
8.0
 40
9.0
 40
9.0
 40
9.0
 40
10.0
 40
10.0
 40
10.0
 40
10.0
 10
962.342558860415
 20
-1403.12081855322
 30
0.0
 10
951.4207787872183
 20
-1402.918776058319
 30
0.0
 10
942.543489122987
 20
-1398.449412249538
 30
0.0
 10
934.8710769916061
 20
-1390.756317731015
 30
0.0
 10
885.2907031178183
 20
-1341.042334824762
 30
0.0
 10
835.6109608102106
 20
-1291.427438201918
 30
0.0
 10
785.9636896074462
 20
-1241.780050307947
 30
0.0
 10
709.3917249481856
 20
-1165.208000639936
 30
0.0
 10
632.8187222616752
 20
-1088.636999077438
 30
0.0
 10
556.2483247212231
 20
-1012.063417562895
 30
0.0
 10
537.8527937997787
 20
-993.6671097834915
 30
0.0
 10
537.7629036633207
 20
-973.230422738452
 30
0.0
 10
556.1170495468868
 20
-954.8722901870351
 30
0.0
 10
682.0114080745425
 20
-828.9505952162999
 30
0.0
 10
807.9188729559701
 20
-703.0419814086881
 30
0.0
 10
933.8423214414579
 20
-577.1493965609816
 30
0.0
 10
951.845986998148
 20
-559.1501242539653
 30
0.0
 10
972.6418450776018
 20
-559.1035792987223
 30
0.0
 10
990.5803265541763
 20
-577.0372895820674
 30
0.0
 10
1116.660849726228
 20
-703.0841071882514
 30
0.0
 10
1242.724925709235
 20
-829.1473165600955
 30
0.0
 10
1368.770377669352
 20
-955.229170116676
 30
0.0
 10
1386.502785541994
 20
-972.9667032648576
 30
0.0
 10
1386.486257729473
 20
-993.8608077459794
 30
0.0
 10
1368.85664478837
 20
-1011.491393819351
 30
0.0
 10
1242.801034270313
 20
-1137.554381476562
 30
0.0
 10
1116.718414887891
 20
-1263.59048119601
 30
0.0
 10
990.7271822151924
 20
-1389.717725783967
 30
0.0
 10
982.7502149042921
 20
-1397.703322366135
 30
0.0
 10
973.8241480372508
 20
-1402.917324835291
 30
0.0
 10
962.342558860415
 20
-1403.12081855322
 30
0.0
  0
HATCH
  5
4A
330
41
100
AcDbEntity
  8
katman 1
 62
    40
420
 16632576
100
AcDbHatch
 10
0.0
 20
0.0
 30
0.0
210
0.0
220
0.0
230
1.0
  2
SOLID
 70
     1
 71
     0
 91
        1
 92
        1
 93
        1
 72
     4
 94
        3
 73
     0
 74
     1
 95
       35
 96
       31
 40
0.0
 40
0.0
 40
0.0
 40
0.0
 40
1.0
 40
1.0
 40
1.0
 40
2.0
 40
2.0
 40
2.0
 40
3.0
 40
3.0
 40
3.0
 40
4.0
 40
4.0
 40
4.0
 40
5.0
 40
5.0
 40
5.0
 40
6.0
 40
6.0
 40
6.0
 40
7.0
 40
7.0
 40
7.0
 40
8.0
 40
8.0
 40
8.0
 40
9.0
 40
9.0
 40
9.0
 40
10.0
 40
10.0
 40
10.0
 40
10.0
 10
962.342558860415
 20
-1403.12081855322
 10
951.4207787872183
 20
-1402.918776058319
 10
942.543489122987
 20
-1398.449412249538
 10
934.8710769916061
 20
-1390.756317731015
 10
885.2907031178183
 20
-1341.042334824762
 10
835.6109608102106
 20
-1291.427438201918
 10
785.9636896074462
 20
-1241.780050307947
 10
709.3917249481856
 20
-1165.208000639936
 10
632.8187222616752
 20
-1088.636999077438
 10
556.2483247212231
 20
-1012.063417562895
 10
537.8527937997787
 20
-993.6671097834915
 10
537.7629036633207
 20
-973.230422738452
 10
556.1170495468868
 20
-954.8722901870351
 10
682.0114080745425
 20
-828.9505952162999
 10
807.9188729559701
 20
-703.0419814086881
 10
933.8423214414579
 20
-577.1493965609816
 10
951.845986998148
 20
-559.1501242539653
 10
972.6418450776018
 20
-559.1035792987223
 10
990.5803265541763
 20
-577.0372895820674
 10
1116.660849726228
 20
-703.0841071882514
 10
1242.724925709235
 20
-829.1473165600955
 10
1368.770377669352
 20
-955.229170116676
 10
1386.502785541994
 20
-972.9667032648576
 10
1386.486257729473
 20
-993.8608077459794
 10
1368.85664478837
 20
-1011.491393819351
 10
1242.801034270313
 20
-1137.554381476562
 10
1116.718414887891
 20
-1263.59048119601
 10
990.7271822151924
 20
-1389.717725783967
 10
982.7502149042921
 20
-1397.703322366135
 10
973.8241480372508
 20
-1402.917324835291
 10
962.342558860415
 20
-1403.12081855322
 97
        0
 97
        0
 75
     2
 76
     1
 98
        0
  0
SPLINE
  5
4B
330
41
100
AcDbEntity
  8
katman 1
370
     0
100
AcDbSpline
210
0.0
220
0.0
230
1.0
 70
    11
 71
     3
 72
  1001
 73
   997
 74
     0
 42
0.0000000001
 43
0.0000000001
 12
1.0
 22
0.0
 32
0.0
 13
1.0
 23
0.0
 33
0.0
 40
0.0
 40
0.0
 40
0.0
 40
0.0
 40
1.0
 40
1.0
 40
1.0
 40
2.0
 40
2.0
 40
2.0
 40
3.0
 40
3.0
 40
3.0
 40
4.0
 40
4.0
 40
4.0
 40
5.0
 40
5.0
 40
5.0
 40
6.0
 40
6.0
 40
6.0
 40
7.0
 40
7.0
 40
7.0
 40
8.0
 40
8.0
 40
8.0
 40
9.0
 40
9.0
 40
9.0
 40
10.0
 40
10.0
 40
10.0
 40
11.0
 40
11.0
 40
11.0
 40
12.0
 40
12.0
 40
12.0
 40
13.0
 40
13.0
 40
13.0
 40
14.0
 40
14.0
 40
14.0
 40
15.0
 40
15.0
 40
15.0
 40
16.0
 40
16.0
 40
16.0
 40
17.0
 40
17.0
 40
17.0
 40
18.0
 40
18.0
 40
18.0
 40
19.0
 40
19.0
 40
19.0
 40
20.0
 40
20.0
 40
20.0
 40
21.0
 40
21.0
 40
21.0
 40
22.0
 40
22.0
 40
22.0
 40
23.0
 40
23.0
 40
23.0
 40
24.0
 40
24.0
 40
24.0
 40
25.0
 40
25.0
 40
25.0
 40
26.0
 40
26.0
 40
26.0
 40
27.0
 40
27.0
 40
27.0
 40
28.0
 40
28.0
 40
28.0
 40
29.0
 40
29.0
 40
29.0
 40
30.0
 40
30.0
 40
30.0
 40
31.0
 40
31.0
 40
31.0
 40
32.0
 40
32.0
 40
32.0
 40
33.0
 40
33.0
 40
33.0
 40
34.0
 40
34.0
 40
34.0
 40
35.0
 40
35.0
 40
35.0
 40
36.0
 40
36.0
 40
36.0
 40
37.0
 40
37.0
 40
37.0
 40
38.0
 40
38.0
 40
38.0
 40
39.0
 40
39.0
 40
39.0
 40
40.0
 40
40.0
 40
40.0
 40
41.0
 40
41.0
 40
41.0
 40
42.0
 40
42.0
 40
42.0
 40
43.0
 40
43.0
 40
43.0
 40
44.0
 40
44.0
 40
44.0
 40
45.0
 40
45.0
 40
45.0
 40
46.0
 40
46.0
 40
46.0
 40
47.0
 40
47.0
 40
47.0
 40
48.0
 40
48.0
 40
48.0
 40
49.0
 40
49.0
 40
49.0
 40
50.0
 40
50.0
 40
50.0
 40
51.0
 40
51.0
 40
51.0
 40
52.0
 40
52.0
 40
52.0
 40
53.0
 40
53.0
 40
53.0
 40
54.0
 40
54.0
 40
54.0
 40
55.0
 40
55.0
 40
55.0
 40
56.0
 40
56.0
 40
56.0
 40
57.0
 40
57.0
 40
57.0
 40
58.0
 40
58.0
 40
58.0
 40
59.0
 40
59.0
 40
59.0
 40
60.0
 40
60.0
 40
60.0
 40
61.0
 40
61.0
 40
61.0
 40
62.0
 40
62.0
 40
62.0
 40
63.0
 40
63.0
 40
63.0
 40
64.0
 40
64.0
 40
64.0
 40
65.0
 40
65.0
 40
65.0
 40
66.0
 40
66.0
 40
66.0
 40
67.0
 40
67.0
 40
67.0
 40
68.0
 40
68.0
 40
68.0
 40
69.0
 40
69.0
 40
69.0
 40
70.0
 40
70.0
 40
70.0
 40
71.0
 40
71.0
 40
71.0
 40
72.0
 40
72.0
 40
72.0
 40
73.0
 40
73.0
 40
73.0
 40
74.0
 40
74.0
 40
74.0
 40
75.0
 40
75.0
 40
75.0
 40
76.0
 40
76.0
 40
76.0
 40
77.0
 40
77.0
 40
77.0
 40
78.0
 40
78.0
 40
78.0
 40
79.0
 40
79.0
 40
79.0
 40
80.0
 40
80.0
 40
80.0
 40
81.0
 40
81.0
 40
81.0
 40
82.0
 40
82.0
 40
82.0
 40
83.0
 40
83.0
 40
83.0
 40
84.0
 40
84.0
 40
84.0
 40
85.0
 40
85.0
 40
85.0
 40
86.0
 40
86.0
 40
86.0
 40
87.0
 40
87.0
 40
87.0
 40
88.0
 40
88.0
 40
88.0
 40
89.0
 40
89.0
 40
89.0
 40
90.0
 40
90.0
 40
90.0
 40
91.0
 40
91.0
 40
91.0
 40
92.0
 40
92.0
 40
92.0
 40
93.0
 40
93.0
 40
93.0
 40
94.0
 40
94.0
 40
94.0
 40
95.0
 40
95.0
 40
95.0
 40
96.0
 40
96.0
 40
96.0
 40
97.0
 40
97.0
 40
97.0
 40
98.0
 40
98.0
 40
98.0
 40
99.0
 40
99.0
 40
99.0
 40
100.0
 40
100.0
 40
100.0
 40
101.0
 40
101.0
 40
101.0
 40
102.0
 40
102.0
 40
102.0
 40
103.0
 40
103.0
 40
103.0
 40
104.0
 40
104.0
 40
104.0
 40
105.0
 40
105.0
 40
105.0
 40
106.0
 40
106.0
 40
106.0
 40
107.0
 40
107.0
 40
107.0
 40
108.0
 40
108.0
 40
108.0
 40
109.0
 40
109.0
 40
109.0
 40
110.0
 40
110.0
 40
110.0
 40
111.0
 40
111.0
 40
111.0
 40
112.0
 40
112.0
 40
112.0
 40
113.0
 40
113.0
 40
113.0
 40
114.0
 40
114.0
 40
114.0
 40
115.0
 40
115.0
 40
115.0
 40
116.0
 40
116.0
 40
116.0
 40
117.0
 40
117.0
 40
117.0
 40
118.0
 40
118.0
 40
118.0
 40
119.0
 40
119.0
 40
119.0
 40
120.0
 40
120.0
 40
120.0
 40
121.0
 40
121.0
 40
121.0
 40
122.0
 40
122.0
 40
122.0
 40
123.0
 40
123.0
 40
123.0
 40
124.0
 40
124.0
 40
124.0
 40
125.0
 40
125.0
 40
125.0
 40
126.0
 40
126.0
 40
126.0
 40
127.0
 40
127.0
 40
127.0
 40
128.0
 40
128.0
 40
128.0
 40
129.0
 40
129.0
 40
129.0
 40
130.0
 40
130.0
 40
130.0
 40
131.0
 40
131.0
 40
131.0
 40
132.0
 40
132.0
 40
132.0
 40
133.0
 40
133.0
 40
133.0
 40
134.0
 40
134.0
 40
134.0
 40
135.0
 40
135.0
 40
135.0
 40
136.0
 40
136.0
 40
136.0
 40
137.0
 40
137.0
 40
137.0
 40
138.0
 40
138.0
 40
138.0
 40
139.0
 40
139.0
 40
139.0
 40
140.0
 40
140.0
 40
140.0
 40
141.0
 40
141.0
 40
141.0
 40
142.0
 40
142.0
 40
142.0
 40
143.0
 40
143.0
 40
143.0
 40
144.0
 40
144.0
 40
144.0
 40
145.0
 40
145.0
 40
145.0
 40
146.0
 40
146.0
 40
146.0
 40
147.0
 40
147.0
 40
147.0
 40
148.0
 40
148.0
 40
148.0
 40
149.0
 40
149.0
 40
149.0
 40
150.0
 40
150.0
 40
150.0
 40
151.0
 40
151.0
 40
151.0
 40
152.0
 40
152.0
 40
152.0
 40
153.0
 40
153.0
 40
153.0
 40
154.0
 40
154.0
 40
154.0
 40
155.0
 40
155.0
 40
155.0
 40
156.0
 40
156.0
 40
156.0
 40
157.0
 40
157.0
 40
157.0
 40
158.0
 40
158.0
 40
158.0
 40
159.0
 40
159.0
 40
159.0
 40
160.0
 40
160.0
 40
160.0
 40
161.0
 40
161.0
 40
161.0
 40
162.0
 40
162.0
 40
162.0
 40
163.0
 40
163.0
 40
163.0
 40
164.0
 40
164.0
 40
164.0
 40
165.0
 40
165.0
 40
165.0
 40
166.0
 40
166.0
 40
166.0
 40
167.0
 40
167.0
 40
167.0
 40
168.0
 40
168.0
 40
168.0
 40
169.0
 40
169.0
 40
169.0
 40
170.0
 40
170.0
 40
170.0
 40
171.0
 40
171.0
 40
171.0
 40
172.0
 40
172.0
 40
172.0
 40
173.0
 40
173.0
 40
173.0
 40
174.0
 40
174.0
 40
174.0
 40
175.0
 40
175.0
 40
175.0
 40
176.0
 40
176.0
 40
176.0
 40
177.0
 40
177.0
 40
177.0
 40
178.0
 40
178.0
 40
178.0
 40
179.0
 40
179.0
 40
179.0
 40
180.0
 40
180.0
 40
180.0
 40
181.0
 40
181.0
 40
181.0
 40
182.0
 40
182.0
 40
182.0
 40
183.0
 40
183.0
 40
183.0
 40
184.0
 40
184.0
 40
184.0
 40
185.0
 40
185.0
 40
185.0
 40
186.0
 40
186.0
 40
186.0
 40
187.0
 40
187.0
 40
187.0
 40
188.0
 40
188.0
 40
188.0
 40
189.0
 40
189.0
 40
189.0
 40
190.0
 40
190.0
 40
190.0
 40
191.0
 40
191.0
 40
191.0
 40
192.0
 40
192.0
 40
192.0
 40
193.0
 40
193.0
 40
193.0
 40
194.0
 40
194.0
 40
194.0
 40
195.0
 40
195.0
 40
195.0
 40
196.0
 40
196.0
 40
196.0
 40
197.0
 40
197.0
 40
197.0
 40
198.0
 40
198.0
 40
198.0
 40
199.0
 40
199.0
 40
199.0
 40
200.0
 40
200.0
 40
200.0
 40
201.0
 40
201.0
 40
201.0
 40
202.0
 40
202.0
 40
202.0
 40
203.0
 40
203.0
 40
203.0
 40
204.0
 40
204.0
 40
204.0
 40
205.0
 40
205.0
 40
205.0
 40
206.0
 40
206.0
 40
206.0
 40
207.0
 40
207.0
 40
207.0
 40
208.0
 40
208.0
 40
208.0
 40
209.0
 40
209.0
 40
209.0
 40
210.0
 40
210.0
 40
210.0
 40
211.0
 40
211.0
 40
211.0
 40
212.0
 40
212.0
 40
212.0
 40
213.0
 40
213.0
 40
213.0
 40
214.0
 40
214.0
 40
214.0
 40
215.0
 40
215.0
 40
215.0
 40
216.0
 40
216.0
 40
216.0
 40
217.0
 40
217.0
 40
217.0
 40
218.0
 40
218.0
 40
218.0
 40
219.0
 40
219.0
 40
219.0
 40
220.0
 40
220.0
 40
220.0
 40
221.0
 40
221.0
 40
221.0
 40
222.0
 40
222.0
 40
222.0
 40
223.0
 40
223.0
 40
223.0
 40
224.0
 40
224.0
 40
224.0
 40
225.0
 40
225.0
 40
225.0
 40
226.0
 40
226.0
 40
226.0
 40
227.0
 40
227.0
 40
227.0
 40
228.0
 40
228.0
 40
228.0
 40
229.0
 40
229.0
 40
229.0
 40
230.0
 40
230.0
 40
230.0
 40
231.0
 40
231.0
 40
231.0
 40
232.0
 40
232.0
 40
232.0
 40
233.0
 40
233.0
 40
233.0
 40
234.0
 40
234.0
 40
234.0
 40
235.0
 40
235.0
 40
235.0
 40
236.0
 40
236.0
 40
236.0
 40
237.0
 40
237.0
 40
237.0
 40
238.0
 40
238.0
 40
238.0
 40
239.0
 40
239.0
 40
239.0
 40
240.0
 40
240.0
 40
240.0
 40
241.0
 40
241.0
 40
241.0
 40
242.0
 40
242.0
 40
242.0
 40
243.0
 40
243.0
 40
243.0
 40
244.0
 40
244.0
 40
244.0
 40
245.0
 40
245.0
 40
245.0
 40
246.0
 40
246.0
 40
246.0
 40
247.0
 40
247.0
 40
247.0
 40
248.0
 40
248.0
 40
248.0
 40
249.0
 40
249.0
 40
249.0
 40
250.0
 40
250.0
 40
250.0
 40
251.0
 40
251.0
 40
251.0
 40
252.0
 40
252.0
 40
252.0
 40
253.0
 40
253.0
 40
253.0
 40
254.0
 40
254.0
 40
254.0
 40
255.0
 40
255.0
 40
255.0
 40
256.0
 40
256.0
 40
256.0
 40
257.0
 40
257.0
 40
257.0
 40
258.0
 40
258.0
 40
258.0
 40
259.0
 40
259.0
 40
259.0
 40
260.0
 40
260.0
 40
260.0
 40
261.0
 40
261.0
 40
261.0
 40
262.0
 40
262.0
 40
262.0
 40
263.0
 40
263.0
 40
263.0
 40
264.0
 40
264.0
 40
264.0
 40
265.0
 40
265.0
 40
265.0
 40
266.0
 40
266.0
 40
266.0
 40
267.0
 40
267.0
 40
267.0
 40
268.0
 40
268.0
 40
268.0
 40
269.0
 40
269.0
 40
269.0
 40
270.0
 40
270.0
 40
270.0
 40
271.0
 40
271.0
 40
271.0
 40
272.0
 40
272.0
 40
272.0
 40
273.0
 40
273.0
 40
273.0
 40
274.0
 40
274.0
 40
274.0
 40
275.0
 40
275.0
 40
275.0
 40
276.0
 40
276.0
 40
276.0
 40
277.0
 40
277.0
 40
277.0
 40
278.0
 40
278.0
 40
278.0
 40
279.0
 40
279.0
 40
279.0
 40
280.0
 40
280.0
 40
280.0
 40
281.0
 40
281.0
 40
281.0
 40
282.0
 40
282.0
 40
282.0
 40
283.0
 40
283.0
 40
283.0
 40
284.0
 40
284.0
 40
284.0
 40
285.0
 40
285.0
 40
285.0
 40
286.0
 40
286.0
 40
286.0
 40
287.0
 40
287.0
 40
287.0
 40
288.0
 40
288.0
 40
288.0
 40
289.0
 40
289.0
 40
289.0
 40
290.0
 40
290.0
 40
290.0
 40
291.0
 40
291.0
 40
291.0
 40
292.0
 40
292.0
 40
292.0
 40
293.0
 40
293.0
 40
293.0
 40
294.0
 40
294.0
 40
294.0
 40
295.0
 40
295.0
 40
295.0
 40
296.0
 40
296.0
 40
296.0
 40
297.0
 40
297.0
 40
297.0
 40
298.0
 40
298.0
 40
298.0
 40
299.0
 40
299.0
 40
299.0
 40
300.0
 40
300.0
 40
300.0
 40
301.0
 40
301.0
 40
301.0
 40
302.0
 40
302.0
 40
302.0
 40
303.0
 40
303.0
 40
303.0
 40
304.0
 40
304.0
 40
304.0
 40
305.0
 40
305.0
 40
305.0
 40
306.0
 40
306.0
 40
306.0
 40
307.0
 40
307.0
 40
307.0
 40
308.0
 40
308.0
 40
308.0
 40
309.0
 40
309.0
 40
309.0
 40
310.0
 40
310.0
 40
310.0
 40
311.0
 40
311.0
 40
311.0
 40
312.0
 40
312.0
 40
312.0
 40
313.0
 40
313.0
 40
313.0
 40
314.0
 40
314.0
 40
314.0
 40
315.0
 40
315.0
 40
315.0
 40
316.0
 40
316.0
 40
316.0
 40
317.0
 40
317.0
 40
317.0
 40
318.0
 40
318.0
 40
318.0
 40
319.0
 40
319.0
 40
319.0
 40
320.0
 40
320.0
 40
320.0
 40
321.0
 40
321.0
 40
321.0
 40
322.0
 40
322.0
 40
322.0
 40
323.0
 40
323.0
 40
323.0
 40
324.0
 40
324.0
 40
324.0
 40
325.0
 40
325.0
 40
325.0
 40
326.0
 40
326.0
 40
326.0
 40
327.0
 40
327.0
 40
327.0
 40
328.0
 40
328.0
 40
328.0
 40
329.0
 40
329.0
 40
329.0
 40
330.0
 40
330.0
 40
330.0
 40
331.0
 40
331.0
 40
331.0
 40
332.0
 40
332.0
 40
332.0
 40
332.0
 10
1051.529174868367
 20
-1171.141567860486
 30
0.0
 10
1049.880142607793
 20
-1173.279985304016
 30
0.0
 10
1051.915683810956
 20
-1175.220230180727
 30
0.0
 10
1051.13952161023
 20
-1177.610958872378
 30
0.0
 10
1046.032548476158
 20
-1173.964075714723
 30
0.0
 10
1041.254760993439
 20
-1170.552290687605
 30
0.0
 10
1036.509948512288
 20
-1167.164007411193
 30
0.0
 10
1034.139013650147
 20
-1168.664813892668
 30
0.0
 10
1037.293528072783
 20
-1170.493516154973
 30
0.0
 10
1035.389161264613
 20
-1172.2870665706
 30
0.0
 10
1030.019476534919
 20
-1169.375872864643
 30
0.0
 10
1026.034540312399
 20
-1164.417930636429
 30
0.0
 10
1021.047897715838
 20
-1160.573681146965
 30
0.0
 10
1018.879529336431
 20
-1161.286231653721
 30
0.0
 10
1021.041165655613
 20
-1163.283880463536
 30
0.0
 10
1019.70906427808
 20
-1164.620335937088
 30
0.0
 10
1013.02360442469
 20
-1159.665658960683
 30
0.0
 10
1005.763299189435
 20
-1155.328235512197
 30
0.0
 10
1000.478994720525
 20
-1148.320198886402
 30
0.0
 10
998.1116476030511
 20
-1150.606036402534
 30
0.0
 10
1001.195253678794
 20
-1152.529269720413
 30
0.0
 10
1000.175648893141
 20
-1154.552032750964
 30
0.0
 10
995.6987482217964
 20
-1150.271086065315
 30
0.0
 10
991.3686628997339
 20
-1145.858561825131
 30
0.0
 10
986.6724663744417
 20
-1141.877937682781
 30
0.0
 10
985.7736758671499
 20
-1141.116085904823
 30
0.0
 10
984.579642191783
 20
-1135.902446241424
 30
0.0
 10
981.7966407452495
 20
-1140.943108182233
 30
0.0
 10
981.059500306772
 20
-1142.278233368012
 30
0.0
 10
980.3205861518263
 20
-1140.094142710848
 30
0.0
 10
979.811126408772
 20
-1139.465198775204
 30
0.0
 10
974.4225757857603
 20
-1132.812873038278
 30
0.0
 10
969.1726572292446
 20
-1126.047916269676
 30
0.0
 10
963.7552030901879
 20
-1119.419737271464
 30
0.0
 10
962.607366666407
 20
-1118.015316186102
 30
0.0
 10
961.7250636598992
 20
-1115.340913704224
 30
0.0
 10
959.4934461637949
 20
-1116.096073731549
 30
0.0
 10
957.6210868754843
 20
-1116.729572895028
 30
0.0
 10
957.3029869520433
 20
-1119.283886671343
 30
0.0
 10
957.1125139906626
 20
-1121.185916008313
 30
0.0
 10
955.6886630977651
 20
-1135.405603913083
 30
0.0
 10
953.9222430565469
 20
-1149.612029251846
 30
0.0
 10
953.141848123345
 20
-1163.870698619616
 30
0.0
 10
951.5428024177145
 20
-1193.086196566886
 30
0.0
 10
950.5099350703058
 20
-1222.3325330035
 30
0.0
 10
949.1904512667243
 20
-1251.563792845331
 30
0.0
 10
949.0622196285976
 20
-1254.404320052165
 30
0.0
 10
950.1800641194113
 20
-1258.165728893784
 30
0.0
 10
945.1016316957439
 20
-1258.107115608153
 30
0.0
 10
940.1343387333527
 20
-1258.049792298543
 30
0.0
 10
940.8755909690944
 20
-1254.606523794071
 30
0.0
 10
941.2029625922423
 20
-1251.599267186013
 30
0.0
 10
945.1310592643804
 20
-1215.517670287441
 30
0.0
 10
943.9498850333912
 20
-1179.066858063485
 30
0.0
 10
949.084431396157
 20
-1143.071205817567
 30
0.0
 10
950.3248235700603
 20
-1134.375638680694
 30
0.0
 10
951.7254952136891
 20
-1125.67926530881
 30
0.0
 10
951.4892281181019
 20
-1116.843856708485
 30
0.0
 10
951.4541972179022
 20
-1115.533603872944
 30
0.0
 10
951.3896984373296
 20
-1114.181991181098
 30
0.0
 10
950.0933535712775
 20
-1113.188346836163
 30
0.0
 10
934.659762861751
 20
-1120.435996508586
 30
0.0
 10
924.6370957897489
 20
-1133.281053711817
 30
0.0
 10
914.9747753424635
 20
-1148.746495650885
 30
0.0
 10
914.9747753424635
 20
-1144.390367550035
 30
0.0
 10
914.9747753424635
 20
-1141.750109121065
 30
0.0
 10
914.9747753424635
 20
-1137.636053083639
 30
0.0
 10
908.2952413145349
 20
-1142.972724210416
 30
0.0
 10
902.4939388075909
 20
-1147.702622864481
 30
0.0
 10
896.5648480916352
 20
-1152.266477417092
 30
0.0
 10
895.3469498674567
 20
-1153.203927181436
 30
0.0
 10
894.3478234446357
 20
-1157.629875234636
 30
0.0
 10
891.8624032469752
 20
-1152.84289514147
 30
0.0
 10
891.1425162322985
 20
-1151.456372473451
 30
0.0
 10
889.2658838997759
 20
-1153.647517687003
 30
0.0
 10
888.2304769128823
 20
-1154.559087307349
 30
0.0
 10
884.7819689860444
 20
-1157.595005570212
 30
0.0
 10
881.9255195531341
 20
-1161.315820478792
 30
0.0
 10
877.6545312387716
 20
-1163.656320728976
 30
0.0
 10
875.2533222614975
 20
-1162.982550126468
 30
0.0
 10
877.4969929672216
 20
-1160.340759850969
 30
0.0
 10
875.469433488156
 20
-1159.275078407396
 30
0.0
 10
870.0255751608029
 20
-1163.605648858247
 30
0.0
 10
862.7969549515046
 20
-1165.315955508515
 30
0.0
 10
856.9173267379028
 20
-1169.445612193489
 30
0.0
 10
853.6851719081515
 20
-1171.71584906207
 30
0.0
 10
850.7594265978632
 20
-1168.928533366261
 30
0.0
 10
847.0326467445893
 20
-1170.229917616633
 30
0.0
 10
831.0353770045886
 20
-1175.816078168977
 30
0.0
 10
816.9525318513533
 20
-1183.509092063996
 30
0.0
 10
806.7901644518042
 20
-1199.479317746309
 30
0.0
 10
805.6310205855534
 20
-1194.241370097187
 30
0.0
 10
807.651908472003
 20
-1191.630297375777
 30
0.0
 10
809.2016126104945
 20
-1189.034381872661
 30
0.0
 10
815.9662850287787
 20
-1177.702829352404
 30
0.0
 10
826.1516502747791
 20
-1169.565096222797
 30
0.0
 10
835.5195337887471
 20
-1160.597263521169
 30
0.0
 10
841.5815323044217
 20
-1154.794145126139
 30
0.0
 10
850.8016732991382
 20
-1152.747477227376
 30
0.0
 10
855.3055022113713
 20
-1146.894170702626
 30
0.0
 10
859.1204438353416
 20
-1141.936147850905
 30
0.0
 10
863.9719614866026
 20
-1142.279079914779
 30
0.0
 10
867.5740168229422
 20
-1139.287423954271
 30
0.0
 10
871.5668138343435
 20
-1135.971258399999
 30
0.0
 10
876.0213414911759
 20
-1133.774550164842
 30
0.0
 10
880.4930822600736
 20
-1131.323595717526
 30
0.0
 10
897.7245764780837
 20
-1121.878995939442
 30
0.0
 10
917.1134339710661
 20
-1119.353021323928
 30
0.0
 10
935.4609989634255
 20
-1113.517210099015
 30
0.0
 10
936.8007998828889
 20
-1113.091034269786
 30
0.0
 10
938.5932209950251
 20
-1113.533012305319
 30
0.0
 10
939.4550053269631
 20
-1111.860800259537
 30
0.0
 10
933.2040253842079
 20
-1110.368741427983
 30
0.0
 10
926.956713809599
 20
-1110.574371668701
 30
0.0
 10
920.6890044956326
 20
-1111.57563493453
 30
0.0
 10
910.1399870624127
 20
-1113.260907987567
 30
0.0
 10
899.1711631911348
 20
-1110.760773204298
 30
0.0
 10
888.8519629754446
 20
-1114.759336075744
 30
0.0
 10
882.6043692186713
 20
-1109.387230920031
 30
0.0
 10
876.6353295704976
 20
-1118.629546332711
 30
0.0
 10
871.6480016743908
 20
-1115.783173922007
 30
0.0
 10
864.9890266327711
 20
-1111.98286424089
 30
0.0
 10
859.8200137341355
 20
-1115.821591020504
 30
0.0
 10
854.0412454886546
 20
-1116.489153613389
 30
0.0
 10
847.5435577102071
 20
-1117.239758412878
 30
0.0
 10
853.8633901012236
 20
-1112.868876211247
 30
0.0
 10
851.7552877699181
 20
-1111.652186949259
 30
0.0
 10
846.4037836339976
 20
-1112.196879325773
 30
0.0
 10
841.059253428728
 20
-1114.726602934112
 30
0.0
 10
835.1782143042992
 20
-1114.350574922852
 30
0.0
 10
834.3431566545623
 20
-1112.14947270686
 30
0.0
 10
837.9177596974205
 20
-1111.552334742582
 30
0.0
 10
836.7278781310533
 20
-1109.159106722378
 30
0.0
 10
830.0386692860393
 20
-1110.044312457718
 30
0.0
 10
823.3144496966952
 20
-1112.788857385955
 30
0.0
 10
816.0313884854204
 20
-1110.845830998442
 30
0.0
 10
815.2971908038053
 20
-1108.156351921769
 30
0.0
 10
819.1093509178627
 20
-1107.696152974886
 30
0.0
 10
818.6115412670488
 20
-1105.124464833985
 30
0.0
 10
811.6028014318999
 20
-1105.245158215817
 30
0.0
 10
804.4035886353713
 20
-1107.528456091646
 30
0.0
 10
797.3131570634523
 20
-1104.055115021094
 30
0.0
 10
797.9681220243074
 20
-1101.427635417116
 30
0.0
 10
801.285979608745
 20
-1102.071897818058
 30
0.0
 10
802.1249071853163
 20
-1099.603569006154
 30
0.0
 10
797.6491957102398
 20
-1098.839258211396
 30
0.0
 10
793.2167588857546
 20
-1098.131545114735
 30
0.0
 10
788.8043771508546
 20
-1097.315474031982
 30
0.0
 10
784.0504139052091
 20
-1096.436234435756
 30
0.0
 10
780.23434355258
 20
-1093.23269991316
 30
0.0
 10
775.1744142165899
 20
-1092.519141612636
 30
0.0
 10
770.8655530245087
 20
-1091.911562904903
 30
0.0
 10
775.7952149796092
 20
-1089.644026923628
 30
0.0
 10
775.6627506090063
 20
-1087.698864013326
 30
0.0
 10
771.7068993053517
 20
-1086.959909309808
 30
0.0
 10
767.634587391025
 20
-1086.446458540146
 30
0.0
 10
763.7251348976461
 20
-1085.351551077261
 30
0.0
 10
762.0810206690903
 20
-1084.891110259869
 30
0.0
 10
756.3535087982964
 20
-1086.09699597265
 30
0.0
 10
760.8540724597624
 20
-1081.039524031765
 30
0.0
 10
761.8066791370948
 20
-1079.969045489848
 30
0.0
 10
760.4270703764978
 20
-1079.466478892897
 30
0.0
 10
759.7479586846648
 20
-1079.399440451351
 30
0.0
 10
747.7809758722751
 20
-1078.217258048027
 30
0.0
 10
739.6589064609516
 20
-1068.847355944139
 30
0.0
 10
728.8687845236009
 20
-1064.932077149799
 30
0.0
 10
720.9814503618272
 20
-1062.07018471505
 30
0.0
 10
712.7817405433898
 20
-1059.769109357127
 30
0.0
 10
703.5886890365127
 20
-1055.524161064923
 30
0.0
 10
716.280315648647
 20
-1053.05373604198
 30
0.0
 10
726.4688655219361
 20
-1058.331511700871
 30
0.0
 10
737.1451471115761
 20
-1059.029308106847
 30
0.0
 10
747.3611694342162
 20
-1059.696951323236
 30
0.0
 10
758.1717898902698
 20
-1056.604717544536
 30
0.0
 10
767.0500268803407
 20
-1063.558010812774
 30
0.0
 10
769.7615959273871
 20
-1061.348241570362
 30
0.0
 10
766.6487033740905
 20
-1059.865978494248
 30
0.0
 10
768.0114819841319
 20
-1058.000229732979
 30
0.0
 10
774.908860643447
 20
-1059.156572304053
 30
0.0
 10
781.8456440265181
 20
-1060.997126221086
 30
0.0
 10
789.6937347114863
 20
-1064.616234582454
 30
0.0
 10
788.3314398422981
 20
-1061.979604211052
 30
0.0
 10
787.6015756725028
 20
-1060.566959528529
 30
0.0
 10
786.7066752479141
 20
-1058.834965156342
 30
0.0
 10
793.8780527894542
 20
-1058.734830767411
 30
0.0
 10
799.6100392631497
 20
-1062.296373948668
 30
0.0
 10
805.650067881691
 20
-1064.262700528128
 30
0.0
 10
807.884668446397
 20
-1062.612055269012
 30
0.0
 10
804.5016267818428
 20
-1060.978623127477
 30
0.0
 10
806.1671062314635
 20
-1059.271218923266
 30
0.0
 10
810.5695712788511
 20
-1060.826405956537
 30
0.0
 10
815.0453835332728
 20
-1062.558118146469
 30
0.0
 10
819.6301987268625
 20
-1063.923960886337
 30
0.0
 10
820.8138521297305
 20
-1064.276567770394
 30
0.0
 10
823.7308901046426
 20
-1069.099143139496
 30
0.0
 10
823.7720080772579
 20
-1062.900929275091
 30
0.0
 10
823.7798285544013
 20
-1061.721084953311
 30
0.0
 10
825.5635826429007
 20
-1062.783259274567
 30
0.0
 10
826.450924616639
 20
-1063.166462777464
 30
0.0
 10
829.8735524077711
 20
-1064.644493119747
 30
0.0
 10
833.1731487749585
 20
-1066.534388619735
 30
0.0
 10
836.7265881554413
 20
-1067.524646777603
 30
0.0
 10
838.3135403397146
 20
-1067.966947307139
 30
0.0
 10
841.3152329641289
 20
-1072.078624951271
 30
0.0
 10
842.4693177072768
 20
-1066.588325742276
 30
0.0
 10
842.7211854454172
 20
-1065.390179885644
 30
0.0
 10
844.3245848187353
 20
-1066.741631330484
 30
0.0
 10
845.1186857428092
 20
-1067.133824353808
 30
0.0
 10
848.4514989819927
 20
-1068.77963220283
 30
0.0
 10
851.6047637407537
 20
-1070.816947775413
 30
0.0
 10
855.0105412254616
 20
-1072.274499748301
 30
0.0
 10
856.5830214958423
 20
-1072.947544739294
 30
0.0
 10
859.2995488866472
 20
-1077.142909578037
 30
0.0
 10
860.2392961196019
 20
-1071.423518689373
 30
0.0
 10
860.4592369613574
 20
-1070.084886381279
 30
0.0
 10
862.0677559253854
 20
-1070.526783793312
 30
0.0
 10
862.8664120758349
 20
-1071.316490991054
 30
0.0
 10
870.2507968402178
 20
-1078.617997162517
 30
0.0
 10
880.6810155819694
 20
-1080.511319161316
 30
0.0
 10
889.4728443619406
 20
-1084.987818149986
 30
0.0
 10
898.767158954317
 20
-1089.720054885598
 30
0.0
 10
906.6829330471501
 20
-1096.792066259874
 30
0.0
 10
916.8362101498133
 20
-1100.1990138769
 30
0.0
 10
927.4475092180255
 20
-1103.759710511389
 30
0.0
 10
937.9897139675477
 20
-1107.106835490258
 30
0.0
 10
950.2417813900729
 20
-1109.362681063809
 30
0.0
 10
933.5521575523544
 20
-1083.549535193972
 30
0.0
 10
906.9814817777287
 20
-1073.858066254124
 30
0.0
 10
883.0622702490036
 20
-1060.406276889928
 30
0.0
 10
884.1982953335928
 20
-1059.245217844013
 30
0.0
 10
887.0122158830627
 20
-1057.639399251761
 30
0.0
 10
882.4266347664525
 20
-1056.361839246099
 30
0.0
 10
879.2675248057003
 20
-1055.481753103106
 30
0.0
 10
875.8742439597308
 20
-1054.687047248266
 30
0.0
 10
873.2614386704363
 20
-1052.878057432092
 30
0.0
 10
871.6356662826056
 20
-1051.752432415111
 30
0.0
 10
864.605782940951
 20
-1053.573112639009
 30
0.0
 10
869.1647179988358
 20
-1047.517239566598
 30
0.0
 10
867.8581742631068
 20
-1046.861367381434
 30
0.0
 10
866.6090344420872
 20
-1046.029292533625
 30
0.0
 10
865.2347266750185
 20
-1045.581428982476
 30
0.0
 10
860.5098281923702
 20
-1044.041681349752
 30
0.0
 10
855.3473054835304
 20
-1043.500697654305
 30
0.0
 10
851.3882493967167
 20
-1039.139611208115
 30
0.0
 10
853.691621786209
 20
-1038.444314130693
 30
0.0
 10
855.7077730434603
 20
-1037.835767940942
 30
0.0
 10
858.4431663275827
 20
-1037.010062349753
 30
0.0
 10
849.9328747248137
 20
-1032.786277726707
 30
0.0
 10
840.9393663203373
 20
-1030.858731051494
 30
0.0
 10
833.8846912598983
 20
-1023.924787423635
 30
0.0
 10
836.1802431722463
 20
-1023.412505694741
 30
0.0
 10
837.6004256969991
 20
-1023.095534398373
 30
0.0
 10
839.3180685354091
 20
-1022.712209960222
 30
0.0
 10
838.7079503829209
 20
-1022.067705688782
 30
0.0
 10
838.3843680631317
 20
-1021.528415086872
 30
0.0
 10
837.9081251920725
 20
-1021.253408323062
 30
0.0
 10
833.3544709718462
 20
-1018.623832508045
 30
0.0
 10
828.6931440998014
 20
-1016.170580290931
 30
0.0
 10
824.2314409536302
 20
-1013.395479055609
 30
0.0
 10
821.220234759081
 20
-1011.522554802701
 30
0.0
 10
819.3147593781196
 20
-1009.302425440341
 30
0.0
 10
825.5464098425728
 20
-1008.366064093263
 30
0.0
 10
820.3813474942481
 20
-1003.814424001139
 30
0.0
 10
814.1039432073267
 20
-1001.690559099641
 30
0.0
 10
810.2207134994242
 20
-995.6276314708393
 30
0.0
 10
813.340821853797
 20
-995.4446564340578
 30
0.0
 10
815.6642896446128
 20
-995.3084430281779
 30
0.0
 10
819.0360843343051
 20
-995.1107138906118
 30
0.0
 10
812.8039299731299
 20
-990.1563190964662
 30
0.0
 10
806.5550663966133
 20
-986.5596240685263
 30
0.0
 10
801.9183498405291
 20
-981.0150652429875
 30
0.0
 10
803.6993425749843
 20
-978.420157533641
 30
0.0
 10
806.6621343723655
 20
-980.513707998558
 30
0.0
 10
808.5100647475329
 20
-978.7105633862484
 30
0.0
 10
804.902345612024
 20
-975.5574588638738
 30
0.0
 10
801.2816057851869
 20
-972.4944107927422
 30
0.0
 10
797.7789995061448
 20
-969.3017201311031
 30
0.0
 10
794.6260572412857
 20
-966.4277341711204
 30
0.0
 10
793.0520048131275
 20
-963.7904991234573
 30
0.0
 10
801.9229050669082
 20
-963.6796418088161
 30
0.0
 10
795.9784757346979
 20
-961.5034925665568
 30
0.0
 10
793.8944395108929
 20
-958.2496489789901
 30
0.0
 10
790.9494856575147
 20
-955.9625617985857
 30
0.0
 10
789.4545047031661
 20
-954.8015430644209
 30
0.0
 10
787.5021669269445
 20
-953.1069579969553
 30
0.0
 10
788.2953406810466
 20
-951.1289006980169
 30
0.0
 10
788.6672567745281
 20
-950.2013676243605
 30
0.0
 10
791.2744788881282
 20
-950.1702872645128
 30
0.0
 10
793.7725771273472
 20
-949.4849875012824
 30
0.0
 10
786.1415853066155
 20
-945.7102757819084
 30
0.0
 10
783.5005214890825
 20
-938.4604492749459
 30
0.0
 10
778.1652025159137
 20
-932.3495909744743
 30
0.0
 10
781.0575092396484
 20
-932.0050867523223
 30
0.0
 10
782.9195688789359
 20
-931.7832914995415
 30
0.0
 10
784.7816285182234
 20
-931.5614559350088
 30
0.0
 10
779.7509251921801
 20
-930.3452504140278
 30
0.0
 10
777.9528402808755
 20
-925.4506379462855
 30
0.0
 10
774.3221031430494
 20
-922.7983666155815
 30
0.0
 10
772.565640101081
 20
-921.5152839000602
 30
0.0
 10
770.647043249448
 20
-919.8022360507402
 30
0.0
 10
770.9729434941637
 20
-917.4731440260239
 30
0.0
 10
771.3247238745853
 20
-914.9593838709952
 30
0.0
 10
774.5794734334058
 20
-917.4300104526919
 30
0.0
 10
775.9645847462216
 20
-914.9568845424474
 30
0.0
 10
768.7070610208793
 20
-913.7630117313984
 30
0.0
 10
768.0342178042847
 20
-906.1576758943229
 30
0.0
 10
763.2327471755743
 20
-902.3311232634496
 30
0.0
 10
760.2122894371869
 20
-899.9239876892298
 30
0.0
 10
759.419599423939
 20
-896.7944655410611
 30
0.0
 10
763.993832786341
 20
-896.9059678437152
 30
0.0
 10
755.4771316172537
 20
-875.1917611047593
 30
0.0
 10
736.552000200727
 20
-861.7413020283411
 30
0.0
 10
720.2981462492589
 20
-843.6561001855716
 30
0.0
 10
725.0844596645329
 20
-844.571862228001
 30
0.0
 10
727.3296219045587
 20
-846.4589560613076
 30
0.0
 10
729.626080831009
 20
-848.0518345815581
 30
0.0
 10
740.2619297475758
 20
-855.4291268444813
 30
0.0
 10
750.8379157334239
 20
-862.8928475010725
 30
0.0
 10
761.4313567017643
 20
-870.3312120664232
 30
0.0
 10
761.9675229711493
 20
-870.707683506942
 30
0.0
 10
762.6348837913965
 20
-871.5933326715403
 30
0.0
 10
762.9589700079086
 20
-871.4741711362403
 30
0.0
 10
771.4101041353697
 20
-868.3677073095178
 30
0.0
 10
772.347210949496
 20
-877.1133013291073
 30
0.0
 10
776.8011137743906
 20
-880.2462499760895
 30
0.0
 10
778.2018861973647
 20
-881.2315901003622
 30
0.0
 10
779.2216522299695
 20
-885.3809189197164
 30
0.0
 10
780.3273024200807
 20
-879.9583837637801
 30
0.0
 10
780.6656388359261
 20
-878.299031166498
 30
0.0
 10
782.460236781908
 20
-880.0744816060233
 30
0.0
 10
783.4749436914117
 20
-880.6166746539911
 30
0.0
 10
786.1173781080315
 20
-882.0286340367493
 30
0.0
 10
787.0128428969492
 20
-885.4508194955652
 30
0.0
 10
790.5443728479058
 20
-886.1218488990216
 30
0.0
 10
793.1143066039876
 20
-886.6102257596995
 30
0.0
 10
793.1347648109504
 20
-889.8969637359005
 30
0.0
 10
794.4158113724843
 20
-891.8547442241979
 30
0.0
 10
797.3081584079573
 20
-896.2750486322839
 30
0.0
 10
796.7378884083428
 20
-887.5151036294192
 30
0.0
 10
798.97079588006
 20
-890.6139485352433
 30
0.0
 10
801.5111206646843
 20
-894.1393723878045
 30
0.0
 10
806.191656079819
 20
-895.5380692045565
 30
0.0
 10
807.8556036834016
 20
-899.8590454587247
 30
0.0
 10
808.4036619154558
 20
-901.2822115082017
 30
0.0
 10
809.0224672474515
 20
-902.6780865023975
 30
0.0
 10
809.6103937882472
 20
-904.0899249499053
 30
0.0
 10
812.5986827598235
 20
-903.8679281383684
 30
0.0
 10
811.0658087718884
 20
-900.0001365864482
 30
0.0
 10
813.9274382631138
 20
-899.2635602762293
 30
0.0
 10
818.22450827187
 20
-904.3305861020508
 30
0.0
 10
823.8064746131258
 20
-908.7074747545485
 30
0.0
 10
825.2189575959483
 20
-915.9539150744458
 30
0.0
 10
828.2632597272786
 20
-915.3939445443848
 30
0.0
 10
826.7253669279798
 20
-911.8602164711647
 30
0.0
 10
829.7829719328029
 20
-910.5298077602292
 30
0.0
 10
832.71440119813
 20
-917.2044662070875
 30
0.0
 10
840.8700301312201
 20
-920.5501802746785
 30
0.0
 10
841.0490142473118
 20
-929.2529229031898
 30
0.0
 10
843.9589170446216
 20
-928.8898349639312
 30
0.0
 10
842.5184174039896
 20
-925.5718150691246
 30
0.0
 10
844.9098306289643
 20
-924.0486355659687
 30
0.0
 10
848.70264110885
 20
-930.3991472248181
 30
0.0
 10
853.4184291387419
 20
-936.1385327418702
 30
0.0
 10
854.4771766218564
 20
-944.859294722979
 30
0.0
 10
855.601148496824
 20
-942.1469588836171
 30
0.0
 10
856.3764238393178
 20
-940.2760502182482
 30
0.0
 10
857.3790170715947
 20
-937.8565389365376
 30
0.0
 10
862.0413114253488
 20
-943.2835890085607
 30
0.0
 10
864.0448854203887
 20
-949.1218995620202
 30
0.0
 10
864.9163848811504
 20
-955.370624050156
 30
0.0
 10
868.1050836574896
 20
-955.299272251279
 30
0.0
 10
866.265376876845
 20
-951.8825288788175
 30
0.0
 10
868.4912297944356
 20
-950.9022277233926
 30
0.0
 10
873.8457573106944
 20
-955.3369234265065
 30
0.0
 10
875.1715700571194
 20
-961.7402031671245
 30
0.0
 10
876.6090463174141
 20
-968.3742273691969
 30
0.0
 10
878.5875464115061
 20
-968.287194299266
 30
0.0
 10
878.4444800538458
 20
-965.7988708589801
 30
0.0
 10
880.3124453627306
 20
-965.0717274984418
 30
0.0
 10
882.6306524717538
 20
-969.8554020280444
 30
0.0
 10
884.8592868992573
 20
-974.57147375159
 30
0.0
 10
887.38513976999
 20
-979.1225897909517
 30
0.0
 10
887.4641910879309
 20
-979.2650112064512
 30
0.0
 10
887.1773730730674
 20
-987.1165309055286
 30
0.0
 10
891.2559131508951
 20
-980.683339845833
 30
0.0
 10
891.9570955192039
 20
-979.5774272749823
 30
0.0
 10
893.0343460899949
 20
-982.1031197082411
 30
0.0
 10
893.3670388625396
 20
-982.9428537887052
 30
0.0
 10
895.5837410156373
 20
-988.5371170029539
 30
0.0
 10
898.5165811917886
 20
-993.9514688734798
 30
0.0
 10
897.7980244644632
 20
-1000.136017054376
 30
0.0
 10
901.3639201719434
 20
-1001.028357969602
 30
0.0
 10
900.7385238708075
 20
-996.8021546415166
 30
0.0
 10
903.3688244543318
 20
-996.9003137546624
 30
0.0
 10
905.6526053392263
 20
-1001.548298931142
 30
0.0
 10
904.8184748594595
 20
-1007.16308082654
 30
0.0
 10
907.5828119713624
 20
-1011.659534131846
 30
0.0
 10
908.5831880580572
 20
-1013.286637328505
 30
0.0
 10
904.8296412108466
 20
-1019.062303421262
 30
0.0
 10
911.4190381929229
 20
-1016.148852257265
 30
0.0
 10
912.0508440603771
 20
-1015.869532136123
 30
0.0
 10
911.7316154082773
 20
-1017.94203986713
 30
0.0
 10
911.9086645609505
 20
-1018.910811861835
 30
0.0
 10
912.7747219371013
 20
-1023.649820971572
 30
0.0
 10
912.1082882868259
 20
-1029.646879199601
 30
0.0
 10
914.7895832187414
 20
-1032.851179645462
 30
0.0
 10
919.0053444522364
 20
-1037.889261634224
 30
0.0
 10
917.2137698865954
 20
-1045.686521716756
 30
0.0
 10
920.9589318923336
 20
-1048.624845230983
 30
0.0
 10
930.0502768845918
 20
-1055.757687037185
 30
0.0
 10
928.2954666238775
 20
-1066.621582936667
 30
0.0
 10
932.7103275306563
 20
-1075.188273406304
 30
0.0
 10
937.7518344024447
 20
-1084.97092752641
 30
0.0
 10
943.416278559359
 20
-1094.297776680472
 30
0.0
 10
949.6188441049453
 20
-1103.338855833266
 30
0.0
 10
950.5616953417166
 20
-1104.713204352545
 30
0.0
 10
951.7592361382767
 20
-1105.912801432207
 30
0.0
 10
953.6218802977637
 20
-1108.121603192601
 30
0.0
 10
956.1322131494217
 20
-1080.826194246645
 30
0.0
 10
948.7754419254716
 20
-1057.708614527848
 30
0.0
 10
932.6392176250738
 20
-1036.707885465918
 30
0.0
 10
933.8442967166138
 20
-1036.564859374157
 30
0.0
 10
934.6630684242564
 20
-1036.399299013709
 30
0.0
 10
935.4836541601017
 20
-1036.389503258273
 30
0.0
 10
936.3071020293355
 20
-1036.37966719108
 30
0.0
 10
937.1324042385113
 20
-1036.525152299639
 30
0.0
 10
938.6601787916079
 20
-1036.668621820658
 30
0.0
 10
935.5392037348711
 20
-1030.694017237814
 30
0.0
 10
930.7636333977352
 20
-1026.418996379532
 30
0.0
 10
928.9414219113205
 20
-1020.510946497228
 30
0.0
 10
928.5098847575455
 20
-1019.11164500421
 30
0.0
 10
924.2613500811703
 20
-1016.6351329069
 30
0.0
 10
929.7462054459256
 20
-1015.788868322814
 30
0.0
 10
930.5871889211294
 20
-1015.65910479706
 30
0.0
 10
929.0925506165513
 20
-1013.622635771244
 30
0.0
 10
928.5257675822622
 20
-1012.530832313169
 30
0.0
 10
926.3317206258416
 20
-1008.304387114575
 30
0.0
 10
922.781909301767
 20
-1004.767675971792
 30
0.0
 10
922.0318287954342
 20
-999.7557966210388
 30
0.0
 10
923.9792082279
 20
-998.0205773087891
 30
0.0
 10
925.4850531956017
 20
-1001.771827589209
 30
0.0
 10
927.567597885105
 20
-1000.048540555186
 30
0.0
 10
923.7858328213933
 20
-993.6578380808132
 30
0.0
 10
917.6938020610132
 20
-988.3736931653002
 30
0.0
 10
917.0997682919324
 20
-980.3136810911947
 30
0.0
 10
918.8263200244082
 20
-978.2090045830646
 30
0.0
 10
920.3249088792954
 20
-981.6010771640504
 30
0.0
 10
921.9544302587456
 20
-980.1743233687575
 30
0.0
 10
919.3985451433091
 20
-972.9431612024055
 30
0.0
 10
916.8227863411066
 20
-965.6556432084653
 30
0.0
 10
914.1362911950073
 20
-958.0549835344791
 30
0.0
 10
917.5833882110192
 20
-957.9662573710175
 30
0.0
 10
918.9974030398798
 20
-960.4290231613104
 30
0.0
 10
922.0216702374937
 20
-961.0810657301517
 30
0.0
 10
919.6006278851928
 20
-955.2063939774871
 30
0.0
 10
919.0310633409908
 20
-949.3183790353141
 30
0.0
 10
917.8458579362159
 20
-943.553556803523
 30
0.0
 10
917.5440036431319
 20
-942.0852012814248
 30
0.0
 10
917.047363032716
 20
-940.2620620407288
 30
0.0
 10
918.6102894212245
 20
-939.3235238591096
 30
0.0
 10
920.3035436582304
 20
-938.3067405692309
 30
0.0
 10
920.6854167509628
 20
-941.4307803192914
 30
0.0
 10
922.7964618391325
 20
-940.8518632663636
 30
0.0
 10
921.4458170621874
 20
-935.1458558789564
 30
0.0
 10
920.0866665085514
 20
-929.4038500981042
 30
0.0
 10
918.7241297689379
 20
-923.6477352044785
 30
0.0
 10
921.5696950326255
 20
-922.2437172366226
 30
0.0
 10
922.7176120798822
 20
-925.6318795777843
 30
0.0
 10
924.921212918176
 20
-925.0951286161708
 30
0.0
 10
923.4614442668453
 20
-918.6417010575842
 30
0.0
 10
922.0361824631227
 20
-912.3406519169384
 30
0.0
 10
920.5138096828996
 20
-905.610403565759
 30
0.0
 10
924.1898370582103
 20
-905.4381917664341
 30
0.0
 10
925.5331854106034
 20
-909.0171496240273
 30
0.0
 10
928.9450902794661
 20
-908.9686545878412
 30
0.0
 10
926.6552626338935
 20
-901.0296583895743
 30
0.0
 10
923.5032072272679
 20
-893.2750884511188
 30
0.0
 10
922.993545925523
 20
-884.9048774547773
 30
0.0
 10
926.1159722048242
 20
-884.3912654381111
 30
0.0
 10
927.2709034944673
 20
-887.5159501761846
 30
0.0
 10
930.1658103252948
 20
-886.5526605795876
 30
0.0
 10
927.7343675446255
 20
-879.6539091101531
 30
0.0
 10
928.1468775581316
 20
-872.280043346047
 30
0.0
 10
927.5859800375692
 20
-864.8051966462408
 30
0.0
 10
931.0848373249919
 20
-864.8193460707644
 30
0.0
 10
932.189258007098
 20
-868.4201528972808
 30
0.0
 10
935.7188731505066
 20
-867.8155572591086
 30
0.0
 10
931.2838160630599
 20
-860.9401866051257
 30
0.0
 10
932.621359525202
 20
-853.3656489456453
 30
0.0
 10
931.7580030354884
 20
-846.1658493213981
 30
0.0
 10
934.367905879657
 20
-845.3979104690734
 30
0.0
 10
934.8150033642441
 20
-848.2481931195989
 30
0.0
 10
937.070606344374
 20
-848.2052207932693
 30
0.0
 10
937.3127589536907
 20
-842.0116830919496
 30
0.0
 10
932.638895131171
 20
-836.2692741935898
 30
0.0
 10
935.1982873678025
 20
-829.8808090213815
 30
0.0
 10
937.7742880404321
 20
-829.2893953257144
 30
0.0
 10
938.7969162064237
 20
-832.2014355784322
 30
0.0
 10
941.5871737657708
 20
-832.4379043084973
 30
0.0
 10
939.481933567853
 20
-825.7193463650428
 30
0.0
 10
938.7954649838612
 20
-818.9496529657254
 30
0.0
 10
938.4174618179632
 20
-812.29662177316
 30
0.0
 10
941.4032716176607
 20
-811.3061015889125
 30
0.0
 10
942.1272704295989
 20
-814.5369271667851
 30
0.0
 10
944.667554902484
 20
-814.0750552822428
 30
0.0
 10
945.3875225406364
 20
-810.4348840310931
 30
0.0
 10
943.5127848597913
 20
-807.015661485957
 30
0.0
 10
943.1373213333791
 20
-803.451256170395
 30
0.0
 10
942.8383291736827
 20
-800.6127243952205
 30
0.0
 10
941.4565234233723
 20
-797.2807969463965
 30
0.0
 10
943.5328601052461
 20
-795.2663582923806
 30
0.0
 10
945.5457461117303
 20
-793.3134353700534
 30
0.0
 10
947.278102734459
 20
-797.7710684593603
 30
0.0
 10
950.1067773799841
 20
-797.0232048589223
 30
0.0
 10
948.5707389206273
 20
-791.5446162135313
 30
0.0
 10
949.139215047906
 20
-785.852193886135
 30
0.0
 10
949.120308842851
 20
-780.1986119306148
 30
0.0
 10
949.1142217704346
 20
-778.3879693326598
 30
0.0
 10
948.1614135344125
 20
-775.2576006377258
 30
0.0
 10
952.4510661834029
 20
-777.1150250224591
 30
0.0
 10
954.9464433803169
 20
-778.195521034444
 30
0.0
 10
953.4570859133983
 20
-775.9432228949627
 30
0.0
 10
953.4154438881906
 20
-774.9352477226284
 30
0.0
 10
953.244239937505
 20
-770.7874507498018
 30
0.0
 10
951.3798220615527
 20
-764.7786618022983
 30
0.0
 10
953.3919018332817
 20
-762.8516996474727
 30
0.0
 10
958.4227260945372
 20
-758.0336391944584
 30
0.0
 10
955.8925195561151
 20
-752.5297549254519
 30
0.0
 10
957.0732906697258
 20
-747.4950591237539
 30
0.0
 10
959.6949242296105
 20
-736.3166307888241
 30
0.0
 10
956.8483511724753
 20
-724.574099969378
 30
0.0
 10
960.4677002443568
 20
-713.4775246444033
 30
0.0
 10
960.7968858957101
 20
-712.4682594960432
 30
0.0
 10
961.005700697815
 20
-711.4197307024251
 30
0.0
 10
961.2611561806243
 20
-710.4255623047329
 30
0.0
 10
962.7389038670372
 20
-710.6037402431721
 30
0.0
 10
962.7980814982147
 20
-711.5766441923297
 30
0.0
 10
962.7853026773137
 20
-712.3110839797582
 30
0.0
 10
962.5470603065705
 20
-726.0254842443974
 30
0.0
 10
964.6780193932418
 20
-739.5140983929277
 30
0.0
 10
967.8102817365798
 20
-752.7391341589946
 30
0.0
 10
969.1730200348857
 20
-758.4929109710756
 30
0.0
 10
972.4621756619681
 20
-763.7886052031863
 30
0.0
 10
971.7194318919264
 20
-770.0580096194699
 30
0.0
 10
971.6715415473491
 20
-770.4624171032765
 30
0.0
 10
971.7715549689765
 20
-771.0317399595169
 30
0.0
 10
972.032613783349
 20
-771.3038241213962
 30
0.0
 10
978.8284471749967
 20
-778.3863770185035
 30
0.0
 10
979.3654801467464
 20
-780.2344893888067
 30
0.0
 10
977.2137202033391
 20
-789.5440044900324
 30
0.0
 10
979.7287695283267
 20
-789.9902757270238
 30
0.0
 10
980.4753832252036
 20
-786.8297538425077
 30
0.0
 10
982.7929453464212
 20
-786.8147981829698
 30
0.0
 10
986.5853930206658
 20
-793.2219478516618
 30
0.0
 10
982.7852054927516
 20
-799.4211090422159
 30
0.0
 10
981.8378393413414
 20
-806.2702770581927
 30
0.0
 10
984.2612197744384
 20
-804.9073367643796
 30
0.0
 10
986.0910098675713
 20
-803.878258390514
 30
0.0
 10
988.5136243776487
 20
-802.5157615259604
 30
0.0
 10
988.2072551699248
 20
-809.8795896641232
 30
0.0
 10
987.624145881804
 20
-816.4682228348192
 30
0.0
 10
986.2437107305796
 20
-822.9628691585776
 30
0.0
 10
988.5991255736462
 20
-823.1470132361319
 30
0.0
 10
989.1103590331677
 20
-820.3167050581169
 30
0.0
 10
991.8856206260316
 20
-820.0866458964247
 30
0.0
 10
992.1923526393966
 20
-827.9696289169842
 30
0.0
 10
993.4518928887828
 20
-835.7489502704193
 30
0.0
 10
989.3776258551688
 20
-843.3725271747226
 30
0.0
 10
991.3443549218064
 20
-842.1794202869378
 30
0.0
 10
993.311083988443
 20
-840.9863335550308
 30
0.0
 10
996.5511399188144
 20
-839.0207728988344
 30
0.0
 10
994.8841689348919
 20
-847.1952905010221
 30
0.0
 10
997.0390731938514
 20
-854.841583076889
 30
0.0
 10
991.0671311005535
 20
-861.607668574512
 30
0.0
 10
994.619119258472
 20
-861.5052767275347
 30
0.0
 10
996.4777322441732
 20
-859.4174102194766
 30
0.0
 10
999.9961004127181
 20
-857.9083801408451
 30
0.0
 10
997.039032882115
 20
-866.1221412324167
 30
0.0
 10
997.8698577993764
 20
-874.2158942419192
 30
0.0
 10
993.1865610301984
 20
-881.15282093934
 30
0.0
 10
996.4292372235304
 20
-882.1201417110169
 30
0.0
 10
997.607912126773
 20
-879.1091764218872
 30
0.0
 10
999.8794382433562
 20
-878.5933069471794
 30
0.0
 10
1000.085471535553
 20
-878.8238498498777
 30
0.0
 10
1000.573646681018
 20
-879.1793994917425
 30
0.0
 10
1000.516645883686
 20
-879.333753185474
 30
0.0
 10
998.1155578416237
 20
-885.8381347970444
 30
0.0
 10
1000.851676737026
 20
-893.3644192908432
 30
0.0
 10
996.4748297990473
 20
-899.5612222439759
 30
0.0
 10
998.649970550413
 20
-901.273221987778
 30
0.0
 10
999.7414108529292
 20
-897.8400314209975
 30
0.0
 10
1002.259685116946
 20
-898.7318482834635
 30
0.0
 10
1001.506379671584
 20
-905.4383127016863
 30
0.0
 10
997.9642678894406
 20
-911.5854112661091
 30
0.0
 10
996.434518061189
 20
-918.1938375064383
 30
0.0
 10
999.0992851805822
 20
-919.5730637475644
 30
0.0
 10
999.9534505940646
 20
-916.4910691535661
 30
0.0
 10
1002.370623019531
 20
-916.5716523433712
 30
0.0
 10
1002.702590180797
 20
-923.1986623008088
 30
0.0
 10
998.9076834905409
 20
-928.291689205882
 30
0.0
 10
995.9878640057177
 20
-933.7612681749761
 30
0.0
 10
998.2329053105295
 20
-934.9574790675688
 30
0.0
 10
999.6445014351175
 20
-932.4057049315543
 30
0.0
 10
1002.391786681908
 20
-933.0810073805933
 30
0.0
 10
999.2742381228891
 20
-939.6330374815843
 30
0.0
 10
998.6534776716071
 20
-946.9458712550131
 30
0.0
 10
994.6387107630726
 20
-953.3822872547698
 30
0.0
 10
998.2074282922031
 20
-953.9855929169171
 30
0.0
 10
999.7020665967802
 20
-950.2960196151889
 30
0.0
 10
1003.085712937402
 20
-950.5150333571673
 30
0.0
 10
1003.657333380235
 20
-957.8417746846135
 30
0.0
 10
996.5614597237054
 20
-962.4062339134834
 30
0.0
 10
996.8454962286569
 20
-970.5522309519947
 30
0.0
 10
997.1406990849937
 20
-971.0094065175726
 30
0.0
 10
1002.82751625642
 20
-966.3679518447152
 30
0.0
 10
1000.166095011268
 20
-971.5133034023002
 30
0.0
 10
996.0011265674739
 20
-979.5654546850001
 30
0.0
 10
998.4472428207237
 20
-988.410255923256
 30
0.0
 10
995.6712556165767
 20
-996.6615875665539
 30
0.0
 10
994.2735267298112
 20
-1000.816358472262
 30
0.0
 10
991.680635439021
 20
-1004.059962875133
 30
0.0
 10
990.0461557158123
 20
-1008.068805243025
 30
0.0
 10
992.8164992766569
 20
-1008.8524253664
 30
0.0
 10
993.9120916881748
 20
-1005.948890893098
 30
0.0
 10
996.5211076741107
 20
-1005.801551444005
 30
0.0
 10
995.2824489049335
 20
-1013.564949655878
 30
0.0
 10
989.7894505691311
 20
-1018.960274380039
 30
0.0
 10
986.3447319456509
 20
-1025.380444744234
 30
0.0
 10
985.7227621422335
 20
-1026.539689761366
 30
0.0
 10
982.5488577736887
 20
-1028.688789818856
 30
0.0
 10
987.4560862466697
 20
-1028.397738978236
 30
0.0
 10
989.8690259396635
 20
-1028.254672574723
 30
0.0
 10
988.1577926675727
 20
-1030.218056396378
 30
0.0
 10
987.6445033094215
 20
-1031.057266424079
 30
0.0
 10
984.6659899342749
 20
-1035.926764671089
 30
0.0
 10
981.4169847981011
 20
-1040.643239512143
 30
0.0
 10
978.7102128478591
 20
-1045.654876992394
 30
0.0
 10
978.2286891391404
 20
-1046.546451984355
 30
0.0
 10
972.6647824564443
 20
-1049.236132619781
 30
0.0
 10
979.0886191311356
 20
-1050.474912721198
 30
0.0
 10
980.3045823918965
 20
-1050.709446487228
 30
0.0
 10
978.2949616361802
 20
-1052.478729228884
 30
0.0
 10
977.6150235537207
 20
-1053.424644460894
 30
0.0
 10
967.2101205833451
 20
-1067.89954605984
 30
0.0
 10
960.346402225141
 20
-1083.845060638927
 30
0.0
 10
957.6617614189836
 20
-1101.511685417492
 30
0.0
 10
957.3529735069878
 20
-1103.543558903715
 30
0.0
 10
956.4686146018503
 20
-1105.652790639686
 30
0.0
 10
957.8621510678786
 20
-1108.240643792644
 30
0.0
 10
963.5681566265239
 20
-1102.071978441556
 30
0.0
 10
968.2511712135383
 20
-1095.536516470134
 30
0.0
 10
972.2437666662508
 20
-1088.545451091422
 30
0.0
 10
978.4162193436559
 20
-1077.737588525517
 30
0.0
 10
983.3442486733738
 20
-1066.21503893007
 30
0.0
 10
989.1889266102544
 20
-1055.357754157712
 30
0.0
 10
992.7775581378864
 20
-1048.691359619766
 30
0.0
 10
993.8142954121295
 20
-1041.984371148785
 30
0.0
 10
996.1337118732899
 20
-1035.348008865163
 30
0.0
 10
996.275125449698
 20
-1034.943359510853
 30
0.0
 10
996.3471222135113
 20
-1034.38846826139
 30
0.0
 10
996.6445019036928
 20
-1034.182958955924
 30
0.0
 10
1001.444339907019
 20
-1030.866994960405
 30
0.0
 10
1001.244313063768
 20
-1030.807051386999
 30
0.0
 10
1003.58888404935
 20
-1023.889675888704
 30
0.0
 10
1003.999338164225
 20
-1022.678751207077
 30
0.0
 10
1002.705049196804
 20
-1017.006887872578
 30
0.0
 10
1007.752723764486
 20
-1020.333292611549
 30
0.0
 10
1008.73205712402
 20
-1018.17911327346
 30
0.0
 10
1010.056176777454
 20
-1016.111039835034
 30
0.0
 10
1010.620178301833
 20
-1013.853098050444
 30
0.0
 10
1011.85992548793
 20
-1008.890197476881
 30
0.0
 10
1014.189016766177
 20
-1004.469893068794
 30
0.0
 10
1016.775014749794
 20
-999.4663985622028
 30
0.0
 10
1017.711859537623
 20
-1000.884767513333
 30
0.0
 10
1018.429166601076
 20
-1001.970725767545
 30
0.0
 10
1019.896392923911
 20
-1004.192104794183
 30
0.0
 10
1020.712705615542
 20
-995.4811385685134
 30
0.0
 10
1024.334070274317
 20
-988.7829380591975
 30
0.0
 10
1026.531463104981
 20
-981.4940897774832
 30
0.0
 10
1029.469261624889
 20
-981.9095426810054
 30
0.0
 10
1028.109385459971
 20
-985.6418867503126
 30
0.0
 10
1031.078828694101
 20
-987.3337306187223
 30
0.0
 10
1031.388745334756
 20
-979.0525279681005
 30
0.0
 10
1037.958752370922
 20
-973.6168108696584
 30
0.0
 10
1039.483826037582
 20
-965.8979571423934
 30
0.0
 10
1042.487413313675
 20
-966.354810213963
 30
0.0
 10
1040.766585847974
 20
-969.9182883592584
 30
0.0
 10
1043.757797420545
 20
-971.3793877662138
 30
0.0
 10
1045.888232454625
 20
-963.8366560780978
 30
0.0
 10
1047.73451004854
 20
-956.1327176986197
 30
0.0
 10
1052.566315259992
 20
-949.734880044356
 30
0.0
 10
1055.193995580554
 20
-952.2277184007307
 30
0.0
 10
1054.582748699406
 20
-956.0343973384715
 30
0.0
 10
1057.157499708163
 20
-959.109821117092
 30
0.0
 10
1057.697193254611
 20
-949.6810235453158
 30
0.0
 10
1062.870479197458
 20
-942.7700576153966
 30
0.0
 10
1066.836992955776
 20
-934.2846759470813
 30
0.0
 10
1068.532988390956
 20
-937.3352273754736
 30
0.0
 10
1069.747419805679
 20
-939.5195599031431
 30
0.0
 10
1071.351181984639
 20
-942.4041478535801
 30
0.0
 10
1074.205414271968
 20
-934.6998869800973
 30
0.0
 10
1078.149272833609
 20
-928.3879536667428
 30
0.0
 10
1082.212655697998
 20
-921.9274312400175
 30
0.0
 10
1085.414213918715
 20
-923.8085387783321
 30
0.0
 10
1084.054861806391
 20
-927.8515251991357
 30
0.0
 10
1087.383563248313
 20
-930.3429526442342
 30
0.0
 10
1086.451999298144
 20
-920.268925189499
 30
0.0
 10
1096.110651377283
 20
-917.1942270223917
 30
0.0
 10
1098.325378255226
 20
-908.6324545863499
 30
0.0
 10
1100.283682168649
 20
-911.8554999963235
 30
0.0
 10
1101.513996408092
 20
-913.8803592379154
 30
0.0
 10
1103.056525057244
 20
-916.4191529901764
 30
0.0
 10
1106.102479969826
 20
-910.2669751451558
 30
0.0
 10
1109.138840688796
 20
-904.7911478546921
 30
0.0
 10
1113.557652145886
 20
-900.2985644774599
 30
0.0
 10
1116.232698758433
 20
-901.7776429252644
 30
0.0
 10
1114.600919921662
 20
-904.9011586225661
 30
0.0
 10
1117.305152232419
 20
-906.4803714593036
 30
0.0
 10
1119.98483469482
 20
-900.4002307129231
 30
0.0
 10
1124.057731129345
 20
-895.2242422247491
 30
0.0
 10
1127.824137420936
 20
-889.8747519612243
 30
0.0
 10
1130.483341520505
 20
-891.5571225682015
 30
0.0
 10
1129.414314544236
 20
-894.2751020526739
 30
0.0
 10
1130.774231020889
 20
-896.258077385206
 30
0.0
 10
1132.655902320646
 20
-887.17120408353
 30
0.0
 10
1142.679214380456
 20
-884.9219293253554
 30
0.0
 10
1145.583312287512
 20
-876.8334974669542
 30
0.0
 10
1148.467294637381
 20
-877.6871794131839
 30
0.0
 10
1147.685851598997
 20
-880.4382548450467
 30
0.0
 10
1149.245794918905
 20
-881.4512085186016
 30
0.0
 10
1149.639680909519
 20
-881.3416008682361
 30
0.0
 10
1150.314781583433
 20
-881.3111251846476
 30
0.0
 10
1150.378675687938
 20
-881.0977147760277
 30
0.0
 10
1152.347057535828
 20
-874.5214976245697
 30
0.0
 10
1157.710614881367
 20
-868.9394488708049
 30
0.0
 10
1162.524884486847
 20
-866.7314130336781
 30
0.0
 10
1172.063770392811
 20
-862.3564996569685
 30
0.0
 10
1178.054255885525
 20
-854.8432358586706
 30
0.0
 10
1184.818726745121
 20
-847.953594844912
 30
0.0
 10
1192.043235157154
 20
-840.5953901959829
 30
0.0
 10
1198.435870546746
 20
-832.4211144642986
 30
0.0
 10
1205.206791284398
 20
-824.6161548373693
 30
0.0
 10
1205.776154269912
 20
-823.9598392229491
 30
0.0
 10
1206.459599473563
 20
-823.4024889566899
 30
0.0
 10
1207.667822880656
 20
-823.1317149267124
 30
0.0
 10
1197.733962567154
 20
-845.3805361044888
 30
0.0
 10
1181.335389476775
 20
-864.1477119910478
 30
0.0
 10
1174.168365602925
 20
-887.9101587870464
 30
0.0
 10
1174.878335930087
 20
-888.341413896871
 30
0.0
 10
1178.052724039486
 20
-888.8389012132266
 30
0.0
 10
1175.086022003534
 20
-892.4807454020338
 30
0.0
 10
1171.860437987054
 20
-896.4402864987242
 30
0.0
 10
1169.06860826993
 20
-900.7531197792359
 30
0.0
 10
1165.964926948735
 20
-905.0830855538279
 30
0.0
 10
1167.450172618388
 20
-905.3422094878315
 30
0.0
 10
1168.883738640112
 20
-905.5922632779093
 30
0.0
 10
1170.997041185601
 20
-905.9609142387744
 30
0.0
 10
1166.613381563924
 20
-911.5204287238557
 30
0.0
 10
1163.355467533682
 20
-917.347492298848
 30
0.0
 10
1157.263638331993
 20
-920.6738970378174
 30
0.0
 10
1157.851141599542
 20
-923.3690197595988
 30
0.0
 10
1160.603223943137
 20
-922.090855077673
 30
0.0
 10
1162.277692910298
 20
-923.438557529691
 30
0.0
 10
1159.131643952616
 20
-929.1735087541565
 30
0.0
 10
1154.150161258496
 20
-933.1715072610914
 30
0.0
 10
1149.079750870664
 20
-937.1698685737829
 30
0.0
 10
1155.034641098848
 20
-939.6251363784322
 30
0.0
 10
1155.26482112202
 20
-940.1430617524311
 30
0.0
 10
1150.12019682479
 20
-944.1520250555768
 30
0.0
 10
1146.460616638526
 20
-947.0037589291314
 30
0.0
 10
1145.342651212501
 20
-952.7625343983054
 30
0.0
 10
1139.419486322009
 20
-953.875058096286
 30
0.0
 10
1141.912283567699
 20
-954.5626556293064
 30
0.0
 10
1144.40504050165
 20
-955.2502934740842
 30
0.0
 10
1147.594747071435
 20
-956.1301780583199
 30
0.0
 10
1141.738459354052
 20
-962.0497571013511
 30
0.0
 10
1135.374284051393
 20
-966.2859577436338
 30
0.0
 10
1128.31307848942
 20
-971.1774258948171
 30
0.0
 10
1131.600379776562
 20
-971.3800327542267
 30
0.0
 10
1134.204195548311
 20
-971.5405138340757
 30
0.0
 10
1138.600916173056
 20
-971.8115297345576
 30
0.0
 10
1131.805526210523
 20
-976.8950430664481
 30
0.0
 10
1128.127201066154
 20
-983.1900857562268
 30
0.0
 10
1120.837387638789
 20
-985.3427735595378
 30
0.0
 10
1122.243501367027
 20
-988.2594093518455
 30
0.0
 10
1125.705513726047
 20
-986.5749022220734
 30
0.0
 10
1128.302718372792
 20
-989.1937551113824
 30
0.0
 10
1121.79475110119
 20
-993.3392543144128
 30
0.0
 10
1116.925576908743
 20
-999.4140335979373
 30
0.0
 10
1109.018227969125
 20
-1002.219207399343
 30
0.0
 10
1111.444833341251
 20
-1003.915485560341
 30
0.0
 10
1113.872244948134
 20
-1004.51512285317
 30
0.0
 10
1118.06527036148
 20
-1005.082430121871
 30
0.0
 10
1110.424502944317
 20
-1011.164304273534
 30
0.0
 10
1102.465192174597
 20
-1013.937349609572
 30
0.0
 10
1095.272409100256
 20
-1018.273724952536
 30
0.0
 10
1096.718673319403
 20
-1021.307426069101
 30
0.0
 10
1099.950949084368
 20
-1019.644042296743
 30
0.0
 10
1102.538478914023
 20
-1021.150250552817
 30
0.0
 10
1097.191288134056
 20
-1026.031157025296
 30
0.0
 10
1090.807682573746
 20
-1028.433374565924
 30
0.0
 10
1083.939892730019
 20
-1030.88525618351
 30
0.0
 10
1084.80010490418
 20
-1033.399903197056
 30
0.0
 10
1087.989448668324
 20
-1032.185713263616
 30
0.0
 10
1089.495414571242
 20
-1034.734262459564
 30
0.0
 10
1082.523580132101
 20
-1037.354969689408
 30
0.0
 10
1075.729480145179
 20
-1039.908840036462
 30
0.0
 10
1068.838148246545
 20
-1042.499313453221
 30
0.0
 10
1068.876686267939
 20
-1045.311823993272
 30
0.0
 10
1073.003560119454
 20
-1043.519361994915
 30
0.0
 10
1073.422721569706
 20
-1046.277895100671
 30
0.0
 10
1066.683848663652
 20
-1048.525073647805
 30
0.0
 10
1060.637571725743
 20
-1052.687866591919
 30
0.0
 10
1053.424592470732
 20
-1053.467495851972
 30
0.0
 10
1052.808427557567
 20
-1056.355429677722
 30
0.0
 10
1056.843269711555
 20
-1055.55435456626
 30
0.0
 10
1056.389802972386
 20
-1058.24024589711
 30
0.0
 10
1056.013210717314
 20
-1058.392664626803
 30
0.0
 10
1055.494519586289
 20
-1058.760791534909
 30
0.0
 10
1054.952608894257
 20
-1058.798805515897
 30
0.0
 10
1041.109396866723
 20
-1059.771084632917
 30
0.0
 10
1030.878882474322
 20
-1070.787923314849
 30
0.0
 10
1017.250693256523
 20
-1072.375279125248
 30
0.0
 10
1016.57011018626
 20
-1072.454612650778
 30
0.0
 10
1015.855423385769
 20
-1072.731191572868
 30
0.0
 10
1015.796769807184
 20
-1074.004841338705
 30
0.0
 10
1015.661846420571
 20
-1076.934175332508
 30
0.0
 10
1015.475646503404
 20
-1076.921880248519
 30
0.0
 10
1012.973617869744
 20
-1077.453229435527
 30
0.0
 10
993.419038822426
 20
-1081.605944441948
 30
0.0
 10
977.0667032953697
 20
-1091.274032566349
 30
0.0
 10
963.7629026321174
 20
-1106.133266397213
 30
0.0
 10
962.793244089672
 20
-1107.216402828872
 30
0.0
 10
961.3768911800162
 20
-1108.160463720345
 30
0.0
 10
961.4508632189863
 20
-1110.159281570935
 30
0.0
 10
967.703052513878
 20
-1109.9787252392
 30
0.0
 10
973.5028634865193
 20
-1107.748477627394
 30
0.0
 10
979.2047975596433
 20
-1105.797026083972
 30
0.0
 10
993.6329732152417
 20
-1100.859038172392
 30
0.0
 10
1008.324424830793
 20
-1096.410918656265
 30
0.0
 10
1021.237604754197
 20
-1087.864585620775
 30
0.0
 10
1022.776142541301
 20
-1086.846351107866
 30
0.0
 10
1023.818845952748
 20
-1085.518844842987
 30
0.0
 10
1025.619530971146
 20
-1088.486716870537
 30
0.0
 10
1026.59092291832
 20
-1090.087698052694
 30
0.0
 10
1029.871774327406
 20
-1087.048353291015
 30
0.0
 10
1031.401806337821
 20
-1085.552263284388
 30
0.0
 10
1039.5674325819
 20
-1077.567755119491
 30
0.0
 10
1052.109059217462
 20
-1078.497868145198
 30
0.0
 10
1060.431054692694
 20
-1070.996052884122
 30
0.0
 10
1068.045861350674
 20
-1074.325601939647
 30
0.0
 10
1071.703909690899
 20
-1066.750056486399
 30
0.0
 10
1077.371135357726
 20
-1064.707701944968
 30
0.0
 10
1081.17998990928
 20
-1063.335046519218
 30
0.0
 10
1082.852564224762
 20
-1063.270467094473
 30
0.0
 10
1081.065061144647
 20
-1068.558804432065
 30
0.0
 10
1087.33994594795
 20
-1063.561638870344
 30
0.0
 10
1094.534543050495
 20
-1062.946924982729
 30
0.0
 10
1099.989487105759
 20
-1058.947475252764
 30
0.0
 10
1102.228602585106
 20
-1060.960281280873
 30
0.0
 10
1099.416052634724
 20
-1062.811880617619
 30
0.0
 10
1100.461456932606
 20
-1065.156613601637
 30
0.0
 10
1103.420459426628
 20
-1060.70018986485
 30
0.0
 10
1108.626921929734
 20
-1061.041388523437
 30
0.0
 10
1112.572352649153
 20
-1058.744304028842
 30
0.0
 10
1113.900543788111
 20
-1057.970923090161
 30
0.0
 10
1115.206644094724
 20
-1057.148926180045
 30
0.0
 10
1116.582564331307
 20
-1056.470237543939
 30
0.0
 10
1121.798338845856
 20
-1053.897460985772
 30
0.0
 10
1121.974823634202
 20
-1054.018638108611
 30
0.0
 10
1121.994132956635
 20
-1059.954140293197
 30
0.0
 10
1126.625427583976
 20
-1057.921742754212
 30
0.0
 10
1131.102691060962
 20
-1055.653964902429
 30
0.0
 10
1135.793808307284
 20
-1053.988283360273
 30
0.0
 10
1140.013036350238
 20
-1052.490137454351
 30
0.0
 10
1140.50012307878
 20
-1053.169833884227
 30
0.0
 10
1139.659179915316
 20
-1058.404113164022
 30
0.0
 10
1142.021286506868
 20
-1057.547327212982
 30
0.0
 10
1144.326634171515
 20
-1057.040044141189
 30
0.0
 10
1146.296265683279
 20
-1055.934655623101
 30
0.0
 10
1152.090553947835
 20
-1052.682787311322
 30
0.0
 10
1158.850348645839
 20
-1056.468423515154
 30
0.0
 10
1164.587152372209
 20
-1053.228084364102
 30
0.0
 10
1172.840577581343
 20
-1059.216878683215
 30
0.0
 10
1181.495507699547
 20
-1052.717939157998
 30
0.0
 10
1190.159467647032
 20
-1053.905523335925
 30
0.0
 10
1199.250087028009
 20
-1055.151680487732
 30
0.0
 10
1208.838959488918
 20
-1052.759540884805
 30
0.0
 10
1218.211519164479
 20
-1051.973824550385
 30
0.0
 10
1218.396550041249
 20
-1051.958304526333
 30
0.0
 10
1218.598511847918
 20
-1052.144343256177
 30
0.0
 10
1220.443015725368
 20
-1053.018463260054
 30
0.0
 10
1198.068953108759
 20
-1059.730853505636
 30
0.0
 10
1177.450144181978
 20
-1067.478086705452
 30
0.0
 10
1158.861595620701
 20
-1078.722606155785
 30
0.0
 10
1161.866432560668
 20
-1080.534941847272
 30
0.0
 10
1160.472372042046
 20
-1082.316801855171
 30
0.0
 10
1156.605267029288
 20
-1084.050811814895
 30
0.0
 10
1151.884560967379
 20
-1086.167501224762
 30
0.0
 10
1146.93323145318
 20
-1086.727350819569
 30
0.0
 10
1141.316637329102
 20
-1086.914477966684
 30
0.0
 10
1144.708184770347
 20
-1092.602466001494
 30
0.0
 10
1142.775720680889
 20
-1094.256578071176
 30
0.0
 10
1136.835584548759
 20
-1094.605073156654
 30
0.0
 10
1132.708186644648
 20
-1094.847266155328
 30
0.0
 10
1128.912312472687
 20
-1098.010327680146
 30
0.0
 10
1124.261668211173
 20
-1097.110488779274
 30
0.0
 10
1124.526919446282
 20
-1100.249000447866
 30
0.0
 10
1127.757219936091
 20
-1100.824611937227
 30
0.0
 10
1128.425064497191
 20
-1103.422462404378
 30
0.0
 10
1121.0958261902
 20
-1107.688413118733
 30
0.0
 10
1113.141957505091
 20
-1106.185066996964
 30
0.0
 10
1104.994310296097
 20
-1105.994513351035
 30
0.0
 10
1105.900356916203
 20
-1109.010799791264
 30
0.0
 10
1109.635642546165
 20
-1110.113326175049
 30
0.0
 10
1109.979662917049
 20
-1113.895737438821
 30
0.0
 10
1103.358056856425
 20
-1113.098250073175
 30
0.0
 10
1096.757453211223
 20
-1114.637393029638
 30
0.0
 10
1090.092270161971
 20
-1112.502361773169
 30
0.0
 10
1089.555640307603
 20
-1115.093117372189
 30
0.0
 10
1092.112896022125
 20
-1115.968366105082
 30
0.0
 10
1092.386773969136
 20
-1118.028780310862
 30
0.0
 10
1084.141249860622
 20
-1118.514899713498
 30
0.0
 10
1076.316459360136
 20
-1118.6990841028
 30
0.0
 10
1068.704272965117
 20
-1116.574372654533
 30
0.0
 10
1068.043402334666
 20
-1119.085754416268
 30
0.0
 10
1070.91710519138
 20
-1119.875703484518
 30
0.0
 10
1069.976471100188
 20
-1122.011984405259
 30
0.0
 10
1063.177574016463
 20
-1122.580702585241
 30
0.0
 10
1056.682184007073
 20
-1119.970234540093
 30
0.0
 10
1050.064568808497
 20
-1119.395550220996
 30
0.0
 10
1048.983004881753
 20
-1121.408799678366
 30
0.0
 10
1051.473383423174
 20
-1122.16109757139
 30
0.0
 10
1051.060591227502
 20
-1124.477894512116
 30
0.0
 10
1046.045649790962
 20
-1123.283820142313
 30
0.0
 10
1040.605016402638
 20
-1122.95733527276
 30
0.0
 10
1036.18426998213
 20
-1120.664402888493
 30
0.0
 10
1031.726114268891
 20
-1118.352080552106
 30
0.0
 10
1028.911185925976
 20
-1123.364604890872
 30
0.0
 10
1024.716588354855
 20
-1121.494663707523
 30
0.0
 10
1020.592052584132
 20
-1119.655923819273
 30
0.0
 10
1015.732714455728
 20
-1117.969925154723
 30
0.0
 10
1011.435846005657
 20
-1118.435001823455
 30
0.0
 10
1007.157077525888
 20
-1118.898062904644
 30
0.0
 10
1003.830149800435
 20
-1117.208395870777
 30
0.0
 10
1000.212695380231
 20
-1116.338307041973
 30
0.0
 10
989.0764165498913
 20
-1113.659752449763
 30
0.0
 10
977.9712180694378
 20
-1111.199808482024
 30
0.0
 10
966.4129156554554
 20
-1112.096140260579
 30
0.0
 10
965.3684788392811
 20
-1112.177166879645
 30
0.0
 10
964.156304881878
 20
-1111.95170325754
 30
0.0
 10
963.2540878768705
 20
-1113.64713487177
 30
0.0
 10
968.2652400100496
 20
-1115.193735502131
 30
0.0
 10
973.0923690599066
 20
-1117.532623282284
 30
0.0
 10
978.1111804232814
 20
-1118.065262445314
 30
0.0
 10
990.6252741418875
 20
-1119.393292762956
 30
0.0
 10
1002.202402137449
 20
-1124.3062470773
 30
0.0
 10
1013.997415076134
 20
-1127.82272172119
 30
0.0
 10
1020.371386131095
 20
-1129.723017652877
 30
0.0
 10
1026.940345062079
 20
-1131.970881499774
 30
0.0
 10
1033.460043049396
 20
-1133.950873762748
 30
0.0
 10
1033.876503613212
 20
-1134.077372036689
 30
0.0
 10
1034.422082673389
 20
-1134.046412612091
 30
0.0
 10
1034.704305150135
 20
-1134.307955251143
 30
0.0
 10
1040.911748416002
 20
-1140.061530504465
 30
0.0
 10
1040.948230538765
 20
-1139.924027122563
 30
0.0
 10
1049.657218697437
 20
-1142.475398141069
 30
0.0
 10
1051.209502787151
 20
-1142.930114689847
 30
0.0
 10
1057.172374739432
 20
-1142.174430609759
 30
0.0
 10
1052.539790136478
 20
-1147.193001711144
 30
0.0
 10
1051.765603210908
 20
-1148.031647374333
 30
0.0
 10
1053.047153669166
 20
-1148.440892268236
 30
0.0
 10
1053.912969174888
 20
-1148.601413659831
 30
0.0
 10
1059.45345473789
 20
-1149.628355510909
 30
0.0
 10
1063.717549745077
 20
-1153.43455070764
 30
0.0
 10
1068.728540631308
 20
-1155.645247120317
 30
0.0
 10
1070.181819092841
 20
-1156.286365204694
 30
0.0
 10
1076.279936925637
 20
-1155.699869542621
 30
0.0
 10
1072.283753728254
 20
-1160.839375896345
 30
0.0
 10
1072.246223500311
 20
-1160.887669373778
 30
0.0
 10
1072.998480840484
 20
-1161.679069665057
 30
0.0
 10
1073.473594982885
 20
-1161.97810223233
 30
0.0
 10
1086.560276626031
 20
-1170.215969750865
 30
0.0
 10
1097.646609213167
 20
-1180.927567855908
 30
0.0
 10
1109.220754140128
 20
-1191.01900998698
 30
0.0
 10
1114.288262082833
 20
-1195.437339119277
 30
0.0
 10
1118.67885532342
 20
-1200.51629722333
 30
0.0
 10
1121.512488312705
 20
-1208.571391263835
 30
0.0
 10
1110.865392421274
 20
-1200.822424658738
 30
0.0
 10
1102.424840125001
 20
-1192.738225534169
 30
0.0
 10
1091.771576537678
 20
-1187.922906280208
 30
0.0
 10
1084.73423552452
 20
-1184.741906026295
 30
0.0
 10
1077.939490549792
 20
-1181.510999824921
 30
0.0
 10
1069.971472444697
 20
-1180.202238524154
 30
0.0
 10
1063.476082435307
 20
-1179.135347728055
 30
0.0
 10
1056.927843737583
 20
-1175.652775266577
 30
0.0
 10
1051.529174868367
 20
-1171.141567860486
 30
0.0
  0
HATCH
  5
4C
330
41
100
AcDbEntity
  8
katman 1
 62
   104
420
    37929
100
AcDbHatch
 10
0.0
 20
0.0
 30
0.0
210
0.0
220
0.0
230
1.0
  2
SOLID
 70
     1
 71
     0
 91
        1
 92
        1
 93
        1
 72
     4
 94
        3
 73
     0
 74
     1
 95
     1001
 96
      997
 40
0.0
 40
0.0
 40
0.0
 40
0.0
 40
1.0
 40
1.0
 40
1.0
 40
2.0
 40
2.0
 40
2.0
 40
3.0
 40
3.0
 40
3.0
 40
4.0
 40
4.0
 40
4.0
 40
5.0
 40
5.0
 40
5.0
 40
6.0
 40
6.0
 40
6.0
 40
7.0
 40
7.0
 40
7.0
 40
8.0
 40
8.0
 40
8.0
 40
9.0
 40
9.0
 40
9.0
 40
10.0
 40
10.0
 40
10.0
 40
11.0
 40
11.0
 40
11.0
 40
12.0
 40
12.0
 40
12.0
 40
13.0
 40
13.0
 40
13.0
 40
14.0
 40
14.0
 40
14.0
 40
15.0
 40
15.0
 40
15.0
 40
16.0
 40
16.0
 40
16.0
 40
17.0
 40
17.0
 40
17.0
 40
18.0
 40
18.0
 40
18.0
 40
19.0
 40
19.0
 40
19.0
 40
20.0
 40
20.0
 40
20.0
 40
21.0
 40
21.0
 40
21.0
 40
22.0
 40
22.0
 40
22.0
 40
23.0
 40
23.0
 40
23.0
 40
24.0
 40
24.0
 40
24.0
 40
25.0
 40
25.0
 40
25.0
 40
26.0
 40
26.0
 40
26.0
 40
27.0
 40
27.0
 40
27.0
 40
28.0
 40
28.0
 40
28.0
 40
29.0
 40
29.0
 40
29.0
 40
30.0
 40
30.0
 40
30.0
 40
31.0
 40
31.0
 40
31.0
 40
32.0
 40
32.0
 40
32.0
 40
33.0
 40
33.0
 40
33.0
 40
34.0
 40
34.0
 40
34.0
 40
35.0
 40
35.0
 40
35.0
 40
36.0
 40
36.0
 40
36.0
 40
37.0
 40
37.0
 40
37.0
 40
38.0
 40
38.0
 40
38.0
 40
39.0
 40
39.0
 40
39.0
 40
40.0
 40
40.0
 40
40.0
 40
41.0
 40
41.0
 40
41.0
 40
42.0
 40
42.0
 40
42.0
 40
43.0
 40
43.0
 40
43.0
 40
44.0
 40
44.0
 40
44.0
 40
45.0
 40
45.0
 40
45.0
 40
46.0
 40
46.0
 40
46.0
 40
47.0
 40
47.0
 40
47.0
 40
48.0
 40
48.0
 40
48.0
 40
49.0
 40
49.0
 40
49.0
 40
50.0
 40
50.0
 40
50.0
 40
51.0
 40
51.0
 40
51.0
 40
52.0
 40
52.0
 40
52.0
 40
53.0
 40
53.0
 40
53.0
 40
54.0
 40
54.0
 40
54.0
 40
55.0
 40
55.0
 40
55.0
 40
56.0
 40
56.0
 40
56.0
 40
57.0
 40
57.0
 40
57.0
 40
58.0
 40
58.0
 40
58.0
 40
59.0
 40
59.0
 40
59.0
 40
60.0
 40
60.0
 40
60.0
 40
61.0
 40
61.0
 40
61.0
 40
62.0
 40
62.0
 40
62.0
 40
63.0
 40
63.0
 40
63.0
 40
64.0
 40
64.0
 40
64.0
 40
65.0
 40
65.0
 40
65.0
 40
66.0
 40
66.0
 40
66.0
 40
67.0
 40
67.0
 40
67.0
 40
68.0
 40
68.0
 40
68.0
 40
69.0
 40
69.0
 40
69.0
 40
70.0
 40
70.0
 40
70.0
 40
71.0
 40
71.0
 40
71.0
 40
72.0
 40
72.0
 40
72.0
 40
73.0
 40
73.0
 40
73.0
 40
74.0
 40
74.0
 40
74.0
 40
75.0
 40
75.0
 40
75.0
 40
76.0
 40
76.0
 40
76.0
 40
77.0
 40
77.0
 40
77.0
 40
78.0
 40
78.0
 40
78.0
 40
79.0
 40
79.0
 40
79.0
 40
80.0
 40
80.0
 40
80.0
 40
81.0
 40
81.0
 40
81.0
 40
82.0
 40
82.0
 40
82.0
 40
83.0
 40
83.0
 40
83.0
 40
84.0
 40
84.0
 40
84.0
 40
85.0
 40
85.0
 40
85.0
 40
86.0
 40
86.0
 40
86.0
 40
87.0
 40
87.0
 40
87.0
 40
88.0
 40
88.0
 40
88.0
 40
89.0
 40
89.0
 40
89.0
 40
90.0
 40
90.0
 40
90.0
 40
91.0
 40
91.0
 40
91.0
 40
92.0
 40
92.0
 40
92.0
 40
93.0
 40
93.0
 40
93.0
 40
94.0
 40
94.0
 40
94.0
 40
95.0
 40
95.0
 40
95.0
 40
96.0
 40
96.0
 40
96.0
 40
97.0
 40
97.0
 40
97.0
 40
98.0
 40
98.0
 40
98.0
 40
99.0
 40
99.0
 40
99.0
 40
100.0
 40
100.0
 40
100.0
 40
101.0
 40
101.0
 40
101.0
 40
102.0
 40
102.0
 40
102.0
 40
103.0
 40
103.0
 40
103.0
 40
104.0
 40
104.0
 40
104.0
 40
105.0
 40
105.0
 40
105.0
 40
106.0
 40
106.0
 40
106.0
 40
107.0
 40
107.0
 40
107.0
 40
108.0
 40
108.0
 40
108.0
 40
109.0
 40
109.0
 40
109.0
 40
110.0
 40
110.0
 40
110.0
 40
111.0
 40
111.0
 40
111.0
 40
112.0
 40
112.0
 40
112.0
 40
113.0
 40
113.0
 40
113.0
 40
114.0
 40
114.0
 40
114.0
 40
115.0
 40
115.0
 40
115.0
 40
116.0
 40
116.0
 40
116.0
 40
117.0
 40
117.0
 40
117.0
 40
118.0
 40
118.0
 40
118.0
 40
119.0
 40
119.0
 40
119.0
 40
120.0
 40
120.0
 40
120.0
 40
121.0
 40
121.0
 40
121.0
 40
122.0
 40
122.0
 40
122.0
 40
123.0
 40
123.0
 40
123.0
 40
124.0
 40
124.0
 40
124.0
 40
125.0
 40
125.0
 40
125.0
 40
126.0
 40
126.0
 40
126.0
 40
127.0
 40
127.0
 40
127.0
 40
128.0
 40
128.0
 40
128.0
 40
129.0
 40
129.0
 40
129.0
 40
130.0
 40
130.0
 40
130.0
 40
131.0
 40
131.0
 40
131.0
 40
132.0
 40
132.0
 40
132.0
 40
133.0
 40
133.0
 40
133.0
 40
134.0
 40
134.0
 40
134.0
 40
135.0
 40
135.0
 40
135.0
 40
136.0
 40
136.0
 40
136.0
 40
137.0
 40
137.0
 40
137.0
 40
138.0
 40
138.0
 40
138.0
 40
139.0
 40
139.0
 40
139.0
 40
140.0
 40
140.0
 40
140.0
 40
141.0
 40
141.0
 40
141.0
 40
142.0
 40
142.0
 40
142.0
 40
143.0
 40
143.0
 40
143.0
 40
144.0
 40
144.0
 40
144.0
 40
145.0
 40
145.0
 40
145.0
 40
146.0
 40
146.0
 40
146.0
 40
147.0
 40
147.0
 40
147.0
 40
148.0
 40
148.0
 40
148.0
 40
149.0
 40
149.0
 40
149.0
 40
150.0
 40
150.0
 40
150.0
 40
151.0
 40
151.0
 40
151.0
 40
152.0
 40
152.0
 40
152.0
 40
153.0
 40
153.0
 40
153.0
 40
154.0
 40
154.0
 40
154.0
 40
155.0
 40
155.0
 40
155.0
 40
156.0
 40
156.0
 40
156.0
 40
157.0
 40
157.0
 40
157.0
 40
158.0
 40
158.0
 40
158.0
 40
159.0
 40
159.0
 40
159.0
 40
160.0
 40
160.0
 40
160.0
 40
161.0
 40
161.0
 40
161.0
 40
162.0
 40
162.0
 40
162.0
 40
163.0
 40
163.0
 40
163.0
 40
164.0
 40
164.0
 40
164.0
 40
165.0
 40
165.0
 40
165.0
 40
166.0
 40
166.0
 40
166.0
 40
167.0
 40
167.0
 40
167.0
 40
168.0
 40
168.0
 40
168.0
 40
169.0
 40
169.0
 40
169.0
 40
170.0
 40
170.0
 40
170.0
 40
171.0
 40
171.0
 40
171.0
 40
172.0
 40
172.0
 40
172.0
 40
173.0
 40
173.0
 40
173.0
 40
174.0
 40
174.0
 40
174.0
 40
175.0
 40
175.0
 40
175.0
 40
176.0
 40
176.0
 40
176.0
 40
177.0
 40
177.0
 40
177.0
 40
178.0
 40
178.0
 40
178.0
 40
179.0
 40
179.0
 40
179.0
 40
180.0
 40
180.0
 40
180.0
 40
181.0
 40
181.0
 40
181.0
 40
182.0
 40
182.0
 40
182.0
 40
183.0
 40
183.0
 40
183.0
 40
184.0
 40
184.0
 40
184.0
 40
185.0
 40
185.0
 40
185.0
 40
186.0
 40
186.0
 40
186.0
 40
187.0
 40
187.0
 40
187.0
 40
188.0
 40
188.0
 40
188.0
 40
189.0
 40
189.0
 40
189.0
 40
190.0
 40
190.0
 40
190.0
 40
191.0
 40
191.0
 40
191.0
 40
192.0
 40
192.0
 40
192.0
 40
193.0
 40
193.0
 40
193.0
 40
194.0
 40
194.0
 40
194.0
 40
195.0
 40
195.0
 40
195.0
 40
196.0
 40
196.0
 40
196.0
 40
197.0
 40
197.0
 40
197.0
 40
198.0
 40
198.0
 40
198.0
 40
199.0
 40
199.0
 40
199.0
 40
200.0
 40
200.0
 40
200.0
 40
201.0
 40
201.0
 40
201.0
 40
202.0
 40
202.0
 40
202.0
 40
203.0
 40
203.0
 40
203.0
 40
204.0
 40
204.0
 40
204.0
 40
205.0
 40
205.0
 40
205.0
 40
206.0
 40
206.0
 40
206.0
 40
207.0
 40
207.0
 40
207.0
 40
208.0
 40
208.0
 40
208.0
 40
209.0
 40
209.0
 40
209.0
 40
210.0
 40
210.0
 40
210.0
 40
211.0
 40
211.0
 40
211.0
 40
212.0
 40
212.0
 40
212.0
 40
213.0
 40
213.0
 40
213.0
 40
214.0
 40
214.0
 40
214.0
 40
215.0
 40
215.0
 40
215.0
 40
216.0
 40
216.0
 40
216.0
 40
217.0
 40
217.0
 40
217.0
 40
218.0
 40
218.0
 40
218.0
 40
219.0
 40
219.0
 40
219.0
 40
220.0
 40
220.0
 40
220.0
 40
221.0
 40
221.0
 40
221.0
 40
222.0
 40
222.0
 40
222.0
 40
223.0
 40
223.0
 40
223.0
 40
224.0
 40
224.0
 40
224.0
 40
225.0
 40
225.0
 40
225.0
 40
226.0
 40
226.0
 40
226.0
 40
227.0
 40
227.0
 40
227.0
 40
228.0
 40
228.0
 40
228.0
 40
229.0
 40
229.0
 40
229.0
 40
230.0
 40
230.0
 40
230.0
 40
231.0
 40
231.0
 40
231.0
 40
232.0
 40
232.0
 40
232.0
 40
233.0
 40
233.0
 40
233.0
 40
234.0
 40
234.0
 40
234.0
 40
235.0
 40
235.0
 40
235.0
 40
236.0
 40
236.0
 40
236.0
 40
237.0
 40
237.0
 40
237.0
 40
238.0
 40
238.0
 40
238.0
 40
239.0
 40
239.0
 40
239.0
 40
240.0
 40
240.0
 40
240.0
 40
241.0
 40
241.0
 40
241.0
 40
242.0
 40
242.0
 40
242.0
 40
243.0
 40
243.0
 40
243.0
 40
244.0
 40
244.0
 40
244.0
 40
245.0
 40
245.0
 40
245.0
 40
246.0
 40
246.0
 40
246.0
 40
247.0
 40
247.0
 40
247.0
 40
248.0
 40
248.0
 40
248.0
 40
249.0
 40
249.0
 40
249.0
 40
250.0
 40
250.0
 40
250.0
 40
251.0
 40
251.0
 40
251.0
 40
252.0
 40
252.0
 40
252.0
 40
253.0
 40
253.0
 40
253.0
 40
254.0
 40
254.0
 40
254.0
 40
255.0
 40
255.0
 40
255.0
 40
256.0
 40
256.0
 40
256.0
 40
257.0
 40
257.0
 40
257.0
 40
258.0
 40
258.0
 40
258.0
 40
259.0
 40
259.0
 40
259.0
 40
260.0
 40
260.0
 40
260.0
 40
261.0
 40
261.0
 40
261.0
 40
262.0
 40
262.0
 40
262.0
 40
263.0
 40
263.0
 40
263.0
 40
264.0
 40
264.0
 40
264.0
 40
265.0
 40
265.0
 40
265.0
 40
266.0
 40
266.0
 40
266.0
 40
267.0
 40
267.0
 40
267.0
 40
268.0
 40
268.0
 40
268.0
 40
269.0
 40
269.0
 40
269.0
 40
270.0
 40
270.0
 40
270.0
 40
271.0
 40
271.0
 40
271.0
 40
272.0
 40
272.0
 40
272.0
 40
273.0
 40
273.0
 40
273.0
 40
274.0
 40
274.0
 40
274.0
 40
275.0
 40
275.0
 40
275.0
 40
276.0
 40
276.0
 40
276.0
 40
277.0
 40
277.0
 40
277.0
 40
278.0
 40
278.0
 40
278.0
 40
279.0
 40
279.0
 40
279.0
 40
280.0
 40
280.0
 40
280.0
 40
281.0
 40
281.0
 40
281.0
 40
282.0
 40
282.0
 40
282.0
 40
283.0
 40
283.0
 40
283.0
 40
284.0
 40
284.0
 40
284.0
 40
285.0
 40
285.0
 40
285.0
 40
286.0
 40
286.0
 40
286.0
 40
287.0
 40
287.0
 40
287.0
 40
288.0
 40
288.0
 40
288.0
 40
289.0
 40
289.0
 40
289.0
 40
290.0
 40
290.0
 40
290.0
 40
291.0
 40
291.0
 40
291.0
 40
292.0
 40
292.0
 40
292.0
 40
293.0
 40
293.0
 40
293.0
 40
294.0
 40
294.0
 40
294.0
 40
295.0
 40
295.0
 40
295.0
 40
296.0
 40
296.0
 40
296.0
 40
297.0
 40
297.0
 40
297.0
 40
298.0
 40
298.0
 40
298.0
 40
299.0
 40
299.0
 40
299.0
 40
300.0
 40
300.0
 40
300.0
 40
301.0
 40
301.0
 40
301.0
 40
302.0
 40
302.0
 40
302.0
 40
303.0
 40
303.0
 40
303.0
 40
304.0
 40
304.0
 40
304.0
 40
305.0
 40
305.0
 40
305.0
 40
306.0
 40
306.0
 40
306.0
 40
307.0
 40
307.0
 40
307.0
 40
308.0
 40
308.0
 40
308.0
 40
309.0
 40
309.0
 40
309.0
 40
310.0
 40
310.0
 40
310.0
 40
311.0
 40
311.0
 40
311.0
 40
312.0
 40
312.0
 40
312.0
 40
313.0
 40
313.0
 40
313.0
 40
314.0
 40
314.0
 40
314.0
 40
315.0
 40
315.0
 40
315.0
 40
316.0
 40
316.0
 40
316.0
 40
317.0
 40
317.0
 40
317.0
 40
318.0
 40
318.0
 40
318.0
 40
319.0
 40
319.0
 40
319.0
 40
320.0
 40
320.0
 40
320.0
 40
321.0
 40
321.0
 40
321.0
 40
322.0
 40
322.0
 40
322.0
 40
323.0
 40
323.0
 40
323.0
 40
324.0
 40
324.0
 40
324.0
 40
325.0
 40
325.0
 40
325.0
 40
326.0
 40
326.0
 40
326.0
 40
327.0
 40
327.0
 40
327.0
 40
328.0
 40
328.0
 40
328.0
 40
329.0
 40
329.0
 40
329.0
 40
330.0
 40
330.0
 40
330.0
 40
331.0
 40
331.0
 40
331.0
 40
332.0
 40
332.0
 40
332.0
 40
332.0
 10
1051.529174868367
 20
-1171.141567860486
 10
1049.880142607793
 20
-1173.279985304016
 10
1051.915683810956
 20
-1175.220230180727
 10
1051.13952161023
 20
-1177.610958872378
 10
1046.032548476158
 20
-1173.964075714723
 10
1041.254760993439
 20
-1170.552290687605
 10
1036.509948512288
 20
-1167.164007411193
 10
1034.139013650147
 20
-1168.664813892668
 10
1037.293528072783
 20
-1170.493516154973
 10
1035.389161264613
 20
-1172.2870665706
 10
1030.019476534919
 20
-1169.375872864643
 10
1026.034540312399
 20
-1164.417930636429
 10
1021.047897715838
 20
-1160.573681146965
 10
1018.879529336431
 20
-1161.286231653721
 10
1021.041165655613
 20
-1163.283880463536
 10
1019.70906427808
 20
-1164.620335937088
 10
1013.02360442469
 20
-1159.665658960683
 10
1005.763299189435
 20
-1155.328235512197
 10
1000.478994720525
 20
-1148.320198886402
 10
998.1116476030511
 20
-1150.606036402534
 10
1001.195253678794
 20
-1152.529269720413
 10
1000.175648893141
 20
-1154.552032750964
 10
995.6987482217964
 20
-1150.271086065315
 10
991.3686628997339
 20
-1145.858561825131
 10
986.6724663744417
 20
-1141.877937682781
 10
985.7736758671499
 20
-1141.116085904823
 10
984.579642191783
 20
-1135.902446241424
 10
981.7966407452495
 20
-1140.943108182233
 10
981.059500306772
 20
-1142.278233368012
 10
980.3205861518263
 20
-1140.094142710848
 10
979.811126408772
 20
-1139.465198775204
 10
974.4225757857603
 20
-1132.812873038278
 10
969.1726572292446
 20
-1126.047916269676
 10
963.7552030901879
 20
-1119.419737271464
 10
962.607366666407
 20
-1118.015316186102
 10
961.7250636598992
 20
-1115.340913704224
 10
959.4934461637949
 20
-1116.096073731549
 10
957.6210868754843
 20
-1116.729572895028
 10
957.3029869520433
 20
-1119.283886671343
 10
957.1125139906626
 20
-1121.185916008313
 10
955.6886630977651
 20
-1135.405603913083
 10
953.9222430565469
 20
-1149.612029251846
 10
953.141848123345
 20
-1163.870698619616
 10
951.5428024177145
 20
-1193.086196566886
 10
950.5099350703058
 20
-1222.3325330035
 10
949.1904512667243
 20
-1251.563792845331
 10
949.0622196285976
 20
-1254.404320052165
 10
950.1800641194113
 20
-1258.165728893784
 10
945.1016316957439
 20
-1258.107115608153
 10
940.1343387333527
 20
-1258.049792298543
 10
940.8755909690944
 20
-1254.606523794071
 10
941.2029625922423
 20
-1251.599267186013
 10
945.1310592643804
 20
-1215.517670287441
 10
943.9498850333912
 20
-1179.066858063485
 10
949.084431396157
 20
-1143.071205817567
 10
950.3248235700603
 20
-1134.375638680694
 10
951.7254952136891
 20
-1125.67926530881
 10
951.4892281181019
 20
-1116.843856708485
 10
951.4541972179022
 20
-1115.533603872944
 10
951.3896984373296
 20
-1114.181991181098
 10
950.0933535712775
 20
-1113.188346836163
 10
934.659762861751
 20
-1120.435996508586
 10
924.6370957897489
 20
-1133.281053711817
 10
914.9747753424635
 20
-1148.746495650885
 10
914.9747753424635
 20
-1144.390367550035
 10
914.9747753424635
 20
-1141.750109121065
 10
914.9747753424635
 20
-1137.636053083639
 10
908.2952413145349
 20
-1142.972724210416
 10
902.4939388075909
 20
-1147.702622864481
 10
896.5648480916352
 20
-1152.266477417092
 10
895.3469498674567
 20
-1153.203927181436
 10
894.3478234446357
 20
-1157.629875234636
 10
891.8624032469752
 20
-1152.84289514147
 10
891.1425162322985
 20
-1151.456372473451
 10
889.2658838997759
 20
-1153.647517687003
 10
888.2304769128823
 20
-1154.559087307349
 10
884.7819689860444
 20
-1157.595005570212
 10
881.9255195531341
 20
-1161.315820478792
 10
877.6545312387716
 20
-1163.656320728976
 10
875.2533222614975
 20
-1162.982550126468
 10
877.4969929672216
 20
-1160.340759850969
 10
875.469433488156
 20
-1159.275078407396
 10
870.0255751608029
 20
-1163.605648858247
 10
862.7969549515046
 20
-1165.315955508515
 10
856.9173267379028
 20
-1169.445612193489
 10
853.6851719081515
 20
-1171.71584906207
 10
850.7594265978632
 20
-1168.928533366261
 10
847.0326467445893
 20
-1170.229917616633
 10
831.0353770045886
 20
-1175.816078168977
 10
816.9525318513533
 20
-1183.509092063996
 10
806.7901644518042
 20
-1199.479317746309
 10
805.6310205855534
 20
-1194.241370097187
 10
807.651908472003
 20
-1191.630297375777
 10
809.2016126104945
 20
-1189.034381872661
 10
815.9662850287787
 20
-1177.702829352404
 10
826.1516502747791
 20
-1169.565096222797
 10
835.5195337887471
 20
-1160.597263521169
 10
841.5815323044217
 20
-1154.794145126139
 10
850.8016732991382
 20
-1152.747477227376
 10
855.3055022113713
 20
-1146.894170702626
 10
859.1204438353416
 20
-1141.936147850905
 10
863.9719614866026
 20
-1142.279079914779
 10
867.5740168229422
 20
-1139.287423954271
 10
871.5668138343435
 20
-1135.971258399999
 10
876.0213414911759
 20
-1133.774550164842
 10
880.4930822600736
 20
-1131.323595717526
 10
897.7245764780837
 20
-1121.878995939442
 10
917.1134339710661
 20
-1119.353021323928
 10
935.4609989634255
 20
-1113.517210099015
 10
936.8007998828889
 20
-1113.091034269786
 10
938.5932209950251
 20
-1113.533012305319
 10
939.4550053269631
 20
-1111.860800259537
 10
933.2040253842079
 20
-1110.368741427983
 10
926.956713809599
 20
-1110.574371668701
 10
920.6890044956326
 20
-1111.57563493453
 10
910.1399870624127
 20
-1113.260907987567
 10
899.1711631911348
 20
-1110.760773204298
 10
888.8519629754446
 20
-1114.759336075744
 10
882.6043692186713
 20
-1109.387230920031
 10
876.6353295704976
 20
-1118.629546332711
 10
871.6480016743908
 20
-1115.783173922007
 10
864.9890266327711
 20
-1111.98286424089
 10
859.8200137341355
 20
-1115.821591020504
 10
854.0412454886546
 20
-1116.489153613389
 10
847.5435577102071
 20
-1117.239758412878
 10
853.8633901012236
 20
-1112.868876211247
 10
851.7552877699181
 20
-1111.652186949259
 10
846.4037836339976
 20
-1112.196879325773
 10
841.059253428728
 20
-1114.726602934112
 10
835.1782143042992
 20
-1114.350574922852
 10
834.3431566545623
 20
-1112.14947270686
 10
837.9177596974205
 20
-1111.552334742582
 10
836.7278781310533
 20
-1109.159106722378
 10
830.0386692860393
 20
-1110.044312457718
 10
823.3144496966952
 20
-1112.788857385955
 10
816.0313884854204
 20
-1110.845830998442
 10
815.2971908038053
 20
-1108.156351921769
 10
819.1093509178627
 20
-1107.696152974886
 10
818.6115412670488
 20
-1105.124464833985
 10
811.6028014318999
 20
-1105.245158215817
 10
804.4035886353713
 20
-1107.528456091646
 10
797.3131570634523
 20
-1104.055115021094
 10
797.9681220243074
 20
-1101.427635417116
 10
801.285979608745
 20
-1102.071897818058
 10
802.1249071853163
 20
-1099.603569006154
 10
797.6491957102398
 20
-1098.839258211396
 10
793.2167588857546
 20
-1098.131545114735
 10
788.8043771508546
 20
-1097.315474031982
 10
784.0504139052091
 20
-1096.436234435756
 10
780.23434355258
 20
-1093.23269991316
 10
775.1744142165899
 20
-1092.519141612636
 10
770.8655530245087
 20
-1091.911562904903
 10
775.7952149796092
 20
-1089.644026923628
 10
775.6627506090063
 20
-1087.698864013326
 10
771.7068993053517
 20
-1086.959909309808
 10
767.634587391025
 20
-1086.446458540146
 10
763.7251348976461
 20
-1085.351551077261
 10
762.0810206690903
 20
-1084.891110259869
 10
756.3535087982964
 20
-1086.09699597265
 10
760.8540724597624
 20
-1081.039524031765
 10
761.8066791370948
 20
-1079.969045489848
 10
760.4270703764978
 20
-1079.466478892897
 10
759.7479586846648
 20
-1079.399440451351
 10
747.7809758722751
 20
-1078.217258048027
 10
739.6589064609516
 20
-1068.847355944139
 10
728.8687845236009
 20
-1064.932077149799
 10
720.9814503618272
 20
-1062.07018471505
 10
712.7817405433898
 20
-1059.769109357127
 10
703.5886890365127
 20
-1055.524161064923
 10
716.280315648647
 20
-1053.05373604198
 10
726.4688655219361
 20
-1058.331511700871
 10
737.1451471115761
 20
-1059.029308106847
 10
747.3611694342162
 20
-1059.696951323236
 10
758.1717898902698
 20
-1056.604717544536
 10
767.0500268803407
 20
-1063.558010812774
 10
769.7615959273871
 20
-1061.348241570362
 10
766.6487033740905
 20
-1059.865978494248
 10
768.0114819841319
 20
-1058.000229732979
 10
774.908860643447
 20
-1059.156572304053
 10
781.8456440265181
 20
-1060.997126221086
 10
789.6937347114863
 20
-1064.616234582454
 10
788.3314398422981
 20
-1061.979604211052
 10
787.6015756725028
 20
-1060.566959528529
 10
786.7066752479141
 20
-1058.834965156342
 10
793.8780527894542
 20
-1058.734830767411
 10
799.6100392631497
 20
-1062.296373948668
 10
805.650067881691
 20
-1064.262700528128
 10
807.884668446397
 20
-1062.612055269012
 10
804.5016267818428
 20
-1060.978623127477
 10
806.1671062314635
 20
-1059.271218923266
 10
810.5695712788511
 20
-1060.826405956537
 10
815.0453835332728
 20
-1062.558118146469
 10
819.6301987268625
 20
-1063.923960886337
 10
820.8138521297305
 20
-1064.276567770394
 10
823.7308901046426
 20
-1069.099143139496
 10
823.7720080772579
 20
-1062.900929275091
 10
823.7798285544013
 20
-1061.721084953311
 10
825.5635826429007
 20
-1062.783259274567
 10
826.450924616639
 20
-1063.166462777464
 10
829.8735524077711
 20
-1064.644493119747
 10
833.1731487749585
 20
-1066.534388619735
 10
836.7265881554413
 20
-1067.524646777603
 10
838.3135403397146
 20
-1067.966947307139
 10
841.3152329641289
 20
-1072.078624951271
 10
842.4693177072768
 20
-1066.588325742276
 10
842.7211854454172
 20
-1065.390179885644
 10
844.3245848187353
 20
-1066.741631330484
 10
845.1186857428092
 20
-1067.133824353808
 10
848.4514989819927
 20
-1068.77963220283
 10
851.6047637407537
 20
-1070.816947775413
 10
855.0105412254616
 20
-1072.274499748301
 10
856.5830214958423
 20
-1072.947544739294
 10
859.2995488866472
 20
-1077.142909578037
 10
860.2392961196019
 20
-1071.423518689373
 10
860.4592369613574
 20
-1070.084886381279
 10
862.0677559253854
 20
-1070.526783793312
 10
862.8664120758349
 20
-1071.316490991054
 10
870.2507968402178
 20
-1078.617997162517
 10
880.6810155819694
 20
-1080.511319161316
 10
889.4728443619406
 20
-1084.987818149986
 10
898.767158954317
 20
-1089.720054885598
 10
906.6829330471501
 20
-1096.792066259874
 10
916.8362101498133
 20
-1100.1990138769
 10
927.4475092180255
 20
-1103.759710511389
 10
937.9897139675477
 20
-1107.106835490258
 10
950.2417813900729
 20
-1109.362681063809
 10
933.5521575523544
 20
-1083.549535193972
 10
906.9814817777287
 20
-1073.858066254124
 10
883.0622702490036
 20
-1060.406276889928
 10
884.1982953335928
 20
-1059.245217844013
 10
887.0122158830627
 20
-1057.639399251761
 10
882.4266347664525
 20
-1056.361839246099
 10
879.2675248057003
 20
-1055.481753103106
 10
875.8742439597308
 20
-1054.687047248266
 10
873.2614386704363
 20
-1052.878057432092
 10
871.6356662826056
 20
-1051.752432415111
 10
864.605782940951
 20
-1053.573112639009
 10
869.1647179988358
 20
-1047.517239566598
 10
867.8581742631068
 20
-1046.861367381434
 10
866.6090344420872
 20
-1046.029292533625
 10
865.2347266750185
 20
-1045.581428982476
 10
860.5098281923702
 20
-1044.041681349752
 10
855.3473054835304
 20
-1043.500697654305
 10
851.3882493967167
 20
-1039.139611208115
 10
853.691621786209
 20
-1038.444314130693
 10
855.7077730434603
 20
-1037.835767940942
 10
858.4431663275827
 20
-1037.010062349753
 10
849.9328747248137
 20
-1032.786277726707
 10
840.9393663203373
 20
-1030.858731051494
 10
833.8846912598983
 20
-1023.924787423635
 10
836.1802431722463
 20
-1023.412505694741
 10
837.6004256969991
 20
-1023.095534398373
 10
839.3180685354091
 20
-1022.712209960222
 10
838.7079503829209
 20
-1022.067705688782
 10
838.3843680631317
 20
-1021.528415086872
 10
837.9081251920725
 20
-1021.253408323062
 10
833.3544709718462
 20
-1018.623832508045
 10
828.6931440998014
 20
-1016.170580290931
 10
824.2314409536302
 20
-1013.395479055609
 10
821.220234759081
 20
-1011.522554802701
 10
819.3147593781196
 20
-1009.302425440341
 10
825.5464098425728
 20
-1008.366064093263
 10
820.3813474942481
 20
-1003.814424001139
 10
814.1039432073267
 20
-1001.690559099641
 10
810.2207134994242
 20
-995.6276314708393
 10
813.340821853797
 20
-995.4446564340578
 10
815.6642896446128
 20
-995.3084430281779
 10
819.0360843343051
 20
-995.1107138906118
 10
812.8039299731299
 20
-990.1563190964662
 10
806.5550663966133
 20
-986.5596240685263
 10
801.9183498405291
 20
-981.0150652429875
 10
803.6993425749843
 20
-978.420157533641
 10
806.6621343723655
 20
-980.513707998558
 10
808.5100647475329
 20
-978.7105633862484
 10
804.902345612024
 20
-975.5574588638738
 10
801.2816057851869
 20
-972.4944107927422
 10
797.7789995061448
 20
-969.3017201311031
 10
794.6260572412857
 20
-966.4277341711204
 10
793.0520048131275
 20
-963.7904991234573
 10
801.9229050669082
 20
-963.6796418088161
 10
795.9784757346979
 20
-961.5034925665568
 10
793.8944395108929
 20
-958.2496489789901
 10
790.9494856575147
 20
-955.9625617985857
 10
789.4545047031661
 20
-954.8015430644209
 10
787.5021669269445
 20
-953.1069579969553
 10
788.2953406810466
 20
-951.1289006980169
 10
788.6672567745281
 20
-950.2013676243605
 10
791.2744788881282
 20
-950.1702872645128
 10
793.7725771273472
 20
-949.4849875012824
 10
786.1415853066155
 20
-945.7102757819084
 10
783.5005214890825
 20
-938.4604492749459
 10
778.1652025159137
 20
-932.3495909744743
 10
781.0575092396484
 20
-932.0050867523223
 10
782.9195688789359
 20
-931.7832914995415
 10
784.7816285182234
 20
-931.5614559350088
 10
779.7509251921801
 20
-930.3452504140278
 10
777.9528402808755
 20
-925.4506379462855
 10
774.3221031430494
 20
-922.7983666155815
 10
772.565640101081
 20
-921.5152839000602
 10
770.647043249448
 20
-919.8022360507402
 10
770.9729434941637
 20
-917.4731440260239
 10
771.3247238745853
 20
-914.9593838709952
 10
774.5794734334058
 20
-917.4300104526919
 10
775.9645847462216
 20
-914.9568845424474
 10
768.7070610208793
 20
-913.7630117313984
 10
768.0342178042847
 20
-906.1576758943229
 10
763.2327471755743
 20
-902.3311232634496
 10
760.2122894371869
 20
-899.9239876892298
 10
759.419599423939
 20
-896.7944655410611
 10
763.993832786341
 20
-896.9059678437152
 10
755.4771316172537
 20
-875.1917611047593
 10
736.552000200727
 20
-861.7413020283411
 10
720.2981462492589
 20
-843.6561001855716
 10
725.0844596645329
 20
-844.571862228001
 10
727.3296219045587
 20
-846.4589560613076
 10
729.626080831009
 20
-848.0518345815581
 10
740.2619297475758
 20
-855.4291268444813
 10
750.8379157334239
 20
-862.8928475010725
 10
761.4313567017643
 20
-870.3312120664232
 10
761.9675229711493
 20
-870.707683506942
 10
762.6348837913965
 20
-871.5933326715403
 10
762.9589700079086
 20
-871.4741711362403
 10
771.4101041353697
 20
-868.3677073095178
 10
772.347210949496
 20
-877.1133013291073
 10
776.8011137743906
 20
-880.2462499760895
 10
778.2018861973647
 20
-881.2315901003622
 10
779.2216522299695
 20
-885.3809189197164
 10
780.3273024200807
 20
-879.9583837637801
 10
780.6656388359261
 20
-878.299031166498
 10
782.460236781908
 20
-880.0744816060233
 10
783.4749436914117
 20
-880.6166746539911
 10
786.1173781080315
 20
-882.0286340367493
 10
787.0128428969492
 20
-885.4508194955652
 10
790.5443728479058
 20
-886.1218488990216
 10
793.1143066039876
 20
-886.6102257596995
 10
793.1347648109504
 20
-889.8969637359005
 10
794.4158113724843
 20
-891.8547442241979
 10
797.3081584079573
 20
-896.2750486322839
 10
796.7378884083428
 20
-887.5151036294192
 10
798.97079588006
 20
-890.6139485352433
 10
801.5111206646843
 20
-894.1393723878045
 10
806.191656079819
 20
-895.5380692045565
 10
807.8556036834016
 20
-899.8590454587247
 10
808.4036619154558
 20
-901.2822115082017
 10
809.0224672474515
 20
-902.6780865023975
 10
809.6103937882472
 20
-904.0899249499053
 10
812.5986827598235
 20
-903.8679281383684
 10
811.0658087718884
 20
-900.0001365864482
 10
813.9274382631138
 20
-899.2635602762293
 10
818.22450827187
 20
-904.3305861020508
 10
823.8064746131258
 20
-908.7074747545485
 10
825.2189575959483
 20
-915.9539150744458
 10
828.2632597272786
 20
-915.3939445443848
 10
826.7253669279798
 20
-911.8602164711647
 10
829.7829719328029
 20
-910.5298077602292
 10
832.71440119813
 20
-917.2044662070875
 10
840.8700301312201
 20
-920.5501802746785
 10
841.0490142473118
 20
-929.2529229031898
 10
843.9589170446216
 20
-928.8898349639312
 10
842.5184174039896
 20
-925.5718150691246
 10
844.9098306289643
 20
-924.0486355659687
 10
848.70264110885
 20
-930.3991472248181
 10
853.4184291387419
 20
-936.1385327418702
 10
854.4771766218564
 20
-944.859294722979
 10
855.601148496824
 20
-942.1469588836171
 10
856.3764238393178
 20
-940.2760502182482
 10
857.3790170715947
 20
-937.8565389365376
 10
862.0413114253488
 20
-943.2835890085607
 10
864.0448854203887
 20
-949.1218995620202
 10
864.9163848811504
 20
-955.370624050156
 10
868.1050836574896
 20
-955.299272251279
 10
866.265376876845
 20
-951.8825288788175
 10
868.4912297944356
 20
-950.9022277233926
 10
873.8457573106944
 20
-955.3369234265065
 10
875.1715700571194
 20
-961.7402031671245
 10
876.6090463174141
 20
-968.3742273691969
 10
878.5875464115061
 20
-968.287194299266
 10
878.4444800538458
 20
-965.7988708589801
 10
880.3124453627306
 20
-965.0717274984418
 10
882.6306524717538
 20
-969.8554020280444
 10
884.8592868992573
 20
-974.57147375159
 10
887.38513976999
 20
-979.1225897909517
 10
887.4641910879309
 20
-979.2650112064512
 10
887.1773730730674
 20
-987.1165309055286
 10
891.2559131508951
 20
-980.683339845833
 10
891.9570955192039
 20
-979.5774272749823
 10
893.0343460899949
 20
-982.1031197082411
 10
893.3670388625396
 20
-982.9428537887052
 10
895.5837410156373
 20
-988.5371170029539
 10
898.5165811917886
 20
-993.9514688734798
 10
897.7980244644632
 20
-1000.136017054376
 10
901.3639201719434
 20
-1001.028357969602
 10
900.7385238708075
 20
-996.8021546415166
 10
903.3688244543318
 20
-996.9003137546624
 10
905.6526053392263
 20
-1001.548298931142
 10
904.8184748594595
 20
-1007.16308082654
 10
907.5828119713624
 20
-1011.659534131846
 10
908.5831880580572
 20
-1013.286637328505
 10
904.8296412108466
 20
-1019.062303421262
 10
911.4190381929229
 20
-1016.148852257265
 10
912.0508440603771
 20
-1015.869532136123
 10
911.7316154082773
 20
-1017.94203986713
 10
911.9086645609505
 20
-1018.910811861835
 10
912.7747219371013
 20
-1023.649820971572
 10
912.1082882868259
 20
-1029.646879199601
 10
914.7895832187414
 20
-1032.851179645462
 10
919.0053444522364
 20
-1037.889261634224
 10
917.2137698865954
 20
-1045.686521716756
 10
920.9589318923336
 20
-1048.624845230983
 10
930.0502768845918
 20
-1055.757687037185
 10
928.2954666238775
 20
-1066.621582936667
 10
932.7103275306563
 20
-1075.188273406304
 10
937.7518344024447
 20
-1084.97092752641
 10
943.416278559359
 20
-1094.297776680472
 10
949.6188441049453
 20
-1103.338855833266
 10
950.5616953417166
 20
-1104.713204352545
 10
951.7592361382767
 20
-1105.912801432207
 10
953.6218802977637
 20
-1108.121603192601
 10
956.1322131494217
 20
-1080.826194246645
 10
948.7754419254716
 20
-1057.708614527848
 10
932.6392176250738
 20
-1036.707885465918
 10
933.8442967166138
 20
-1036.564859374157
 10
934.6630684242564
 20
-1036.399299013709
 10
935.4836541601017
 20
-1036.389503258273
 10
936.3071020293355
 20
-1036.37966719108
 10
937.1324042385113
 20
-1036.525152299639
 10
938.6601787916079
 20
-1036.668621820658
 10
935.5392037348711
 20
-1030.694017237814
 10
930.7636333977352
 20
-1026.418996379532
 10
928.9414219113205
 20
-1020.510946497228
 10
928.5098847575455
 20
-1019.11164500421
 10
924.2613500811703
 20
-1016.6351329069
 10
929.7462054459256
 20
-1015.788868322814
 10
930.5871889211294
 20
-1015.65910479706
 10
929.0925506165513
 20
-1013.622635771244
 10
928.5257675822622
 20
-1012.530832313169
 10
926.3317206258416
 20
-1008.304387114575
 10
922.781909301767
 20
-1004.767675971792
 10
922.0318287954342
 20
-999.7557966210388
 10
923.9792082279
 20
-998.0205773087891
 10
925.4850531956017
 20
-1001.771827589209
 10
927.567597885105
 20
-1000.048540555186
 10
923.7858328213933
 20
-993.6578380808132
 10
917.6938020610132
 20
-988.3736931653002
 10
917.0997682919324
 20
-980.3136810911947
 10
918.8263200244082
 20
-978.2090045830646
 10
920.3249088792954
 20
-981.6010771640504
 10
921.9544302587456
 20
-980.1743233687575
 10
919.3985451433091
 20
-972.9431612024055
 10
916.8227863411066
 20
-965.6556432084653
 10
914.1362911950073
 20
-958.0549835344791
 10
917.5833882110192
 20
-957.9662573710175
 10
918.9974030398798
 20
-960.4290231613104
 10
922.0216702374937
 20
-961.0810657301517
 10
919.6006278851928
 20
-955.2063939774871
 10
919.0310633409908
 20
-949.3183790353141
 10
917.8458579362159
 20
-943.553556803523
 10
917.5440036431319
 20
-942.0852012814248
 10
917.047363032716
 20
-940.2620620407288
 10
918.6102894212245
 20
-939.3235238591096
 10
920.3035436582304
 20
-938.3067405692309
 10
920.6854167509628
 20
-941.4307803192914
 10
922.7964618391325
 20
-940.8518632663636
 10
921.4458170621874
 20
-935.1458558789564
 10
920.0866665085514
 20
-929.4038500981042
 10
918.7241297689379
 20
-923.6477352044785
 10
921.5696950326255
 20
-922.2437172366226
 10
922.7176120798822
 20
-925.6318795777843
 10
924.921212918176
 20
-925.0951286161708
 10
923.4614442668453
 20
-918.6417010575842
 10
922.0361824631227
 20
-912.3406519169384
 10
920.5138096828996
 20
-905.610403565759
 10
924.1898370582103
 20
-905.4381917664341
 10
925.5331854106034
 20
-909.0171496240273
 10
928.9450902794661
 20
-908.9686545878412
 10
926.6552626338935
 20
-901.0296583895743
 10
923.5032072272679
 20
-893.2750884511188
 10
922.993545925523
 20
-884.9048774547773
 10
926.1159722048242
 20
-884.3912654381111
 10
927.2709034944673
 20
-887.5159501761846
 10
930.1658103252948
 20
-886.5526605795876
 10
927.7343675446255
 20
-879.6539091101531
 10
928.1468775581316
 20
-872.280043346047
 10
927.5859800375692
 20
-864.8051966462408
 10
931.0848373249919
 20
-864.8193460707644
 10
932.189258007098
 20
-868.4201528972808
 10
935.7188731505066
 20
-867.8155572591086
 10
931.2838160630599
 20
-860.9401866051257
 10
932.621359525202
 20
-853.3656489456453
 10
931.7580030354884
 20
-846.1658493213981
 10
934.367905879657
 20
-845.3979104690734
 10
934.8150033642441
 20
-848.2481931195989
 10
937.070606344374
 20
-848.2052207932693
 10
937.3127589536907
 20
-842.0116830919496
 10
932.638895131171
 20
-836.2692741935898
 10
935.1982873678025
 20
-829.8808090213815
 10
937.7742880404321
 20
-829.2893953257144
 10
938.7969162064237
 20
-832.2014355784322
 10
941.5871737657708
 20
-832.4379043084973
 10
939.481933567853
 20
-825.7193463650428
 10
938.7954649838612
 20
-818.9496529657254
 10
938.4174618179632
 20
-812.29662177316
 10
941.4032716176607
 20
-811.3061015889125
 10
942.1272704295989
 20
-814.5369271667851
 10
944.667554902484
 20
-814.0750552822428
 10
945.3875225406364
 20
-810.4348840310931
 10
943.5127848597913
 20
-807.015661485957
 10
943.1373213333791
 20
-803.451256170395
 10
942.8383291736827
 20
-800.6127243952205
 10
941.4565234233723
 20
-797.2807969463965
 10
943.5328601052461
 20
-795.2663582923806
 10
945.5457461117303
 20
-793.3134353700534
 10
947.278102734459
 20
-797.7710684593603
 10
950.1067773799841
 20
-797.0232048589223
 10
948.5707389206273
 20
-791.5446162135313
 10
949.139215047906
 20
-785.852193886135
 10
949.120308842851
 20
-780.1986119306148
 10
949.1142217704346
 20
-778.3879693326598
 10
948.1614135344125
 20
-775.2576006377258
 10
952.4510661834029
 20
-777.1150250224591
 10
954.9464433803169
 20
-778.195521034444
 10
953.4570859133983
 20
-775.9432228949627
 10
953.4154438881906
 20
-774.9352477226284
 10
953.244239937505
 20
-770.7874507498018
 10
951.3798220615527
 20
-764.7786618022983
 10
953.3919018332817
 20
-762.8516996474727
 10
958.4227260945372
 20
-758.0336391944584
 10
955.8925195561151
 20
-752.5297549254519
 10
957.0732906697258
 20
-747.4950591237539
 10
959.6949242296105
 20
-736.3166307888241
 10
956.8483511724753
 20
-724.574099969378
 10
960.4677002443568
 20
-713.4775246444033
 10
960.7968858957101
 20
-712.4682594960432
 10
961.005700697815
 20
-711.4197307024251
 10
961.2611561806243
 20
-710.4255623047329
 10
962.7389038670372
 20
-710.6037402431721
 10
962.7980814982147
 20
-711.5766441923297
 10
962.7853026773137
 20
-712.3110839797582
 10
962.5470603065705
 20
-726.0254842443974
 10
964.6780193932418
 20
-739.5140983929277
 10
967.8102817365798
 20
-752.7391341589946
 10
969.1730200348857
 20
-758.4929109710756
 10
972.4621756619681
 20
-763.7886052031863
 10
971.7194318919264
 20
-770.0580096194699
 10
971.6715415473491
 20
-770.4624171032765
 10
971.7715549689765
 20
-771.0317399595169
 10
972.032613783349
 20
-771.3038241213962
 10
978.8284471749967
 20
-778.3863770185035
 10
979.3654801467464
 20
-780.2344893888067
 10
977.2137202033391
 20
-789.5440044900324
 10
979.7287695283267
 20
-789.9902757270238
 10
980.4753832252036
 20
-786.8297538425077
 10
982.7929453464212
 20
-786.8147981829698
 10
986.5853930206658
 20
-793.2219478516618
 10
982.7852054927516
 20
-799.4211090422159
 10
981.8378393413414
 20
-806.2702770581927
 10
984.2612197744384
 20
-804.9073367643796
 10
986.0910098675713
 20
-803.878258390514
 10
988.5136243776487
 20
-802.5157615259604
 10
988.2072551699248
 20
-809.8795896641232
 10
987.624145881804
 20
-816.4682228348192
 10
986.2437107305796
 20
-822.9628691585776
 10
988.5991255736462
 20
-823.1470132361319
 10
989.1103590331677
 20
-820.3167050581169
 10
991.8856206260316
 20
-820.0866458964247
 10
992.1923526393966
 20
-827.9696289169842
 10
993.4518928887828
 20
-835.7489502704193
 10
989.3776258551688
 20
-843.3725271747226
 10
991.3443549218064
 20
-842.1794202869378
 10
993.311083988443
 20
-840.9863335550308
 10
996.5511399188144
 20
-839.0207728988344
 10
994.8841689348919
 20
-847.1952905010221
 10
997.0390731938514
 20
-854.841583076889
 10
991.0671311005535
 20
-861.607668574512
 10
994.619119258472
 20
-861.5052767275347
 10
996.4777322441732
 20
-859.4174102194766
 10
999.9961004127181
 20
-857.9083801408451
 10
997.039032882115
 20
-866.1221412324167
 10
997.8698577993764
 20
-874.2158942419192
 10
993.1865610301984
 20
-881.15282093934
 10
996.4292372235304
 20
-882.1201417110169
 10
997.607912126773
 20
-879.1091764218872
 10
999.8794382433562
 20
-878.5933069471794
 10
1000.085471535553
 20
-878.8238498498777
 10
1000.573646681018
 20
-879.1793994917425
 10
1000.516645883686
 20
-879.333753185474
 10
998.1155578416237
 20
-885.8381347970444
 10
1000.851676737026
 20
-893.3644192908432
 10
996.4748297990473
 20
-899.5612222439759
 10
998.649970550413
 20
-901.273221987778
 10
999.7414108529292
 20
-897.8400314209975
 10
1002.259685116946
 20
-898.7318482834635
 10
1001.506379671584
 20
-905.4383127016863
 10
997.9642678894406
 20
-911.5854112661091
 10
996.434518061189
 20
-918.1938375064383
 10
999.0992851805822
 20
-919.5730637475644
 10
999.9534505940646
 20
-916.4910691535661
 10
1002.370623019531
 20
-916.5716523433712
 10
1002.702590180797
 20
-923.1986623008088
 10
998.9076834905409
 20
-928.291689205882
 10
995.9878640057177
 20
-933.7612681749761
 10
998.2329053105295
 20
-934.9574790675688
 10
999.6445014351175
 20
-932.4057049315543
 10
1002.391786681908
 20
-933.0810073805933
 10
999.2742381228891
 20
-939.6330374815843
 10
998.6534776716071
 20
-946.9458712550131
 10
994.6387107630726
 20
-953.3822872547698
 10
998.2074282922031
 20
-953.9855929169171
 10
999.7020665967802
 20
-950.2960196151889
 10
1003.085712937402
 20
-950.5150333571673
 10
1003.657333380235
 20
-957.8417746846135
 10
996.5614597237054
 20
-962.4062339134834
 10
996.8454962286569
 20
-970.5522309519947
 10
997.1406990849937
 20
-971.0094065175726
 10
1002.82751625642
 20
-966.3679518447152
 10
1000.166095011268
 20
-971.5133034023002
 10
996.0011265674739
 20
-979.5654546850001
 10
998.4472428207237
 20
-988.410255923256
 10
995.6712556165767
 20
-996.6615875665539
 10
994.2735267298112
 20
-1000.816358472262
 10
991.680635439021
 20
-1004.059962875133
 10
990.0461557158123
 20
-1008.068805243025
 10
992.8164992766569
 20
-1008.8524253664
 10
993.9120916881748
 20
-1005.948890893098
 10
996.5211076741107
 20
-1005.801551444005
 10
995.2824489049335
 20
-1013.564949655878
 10
989.7894505691311
 20
-1018.960274380039
 10
986.3447319456509
 20
-1025.380444744234
 10
985.7227621422335
 20
-1026.539689761366
 10
982.5488577736887
 20
-1028.688789818856
 10
987.4560862466697
 20
-1028.397738978236
 10
989.8690259396635
 20
-1028.254672574723
 10
988.1577926675727
 20
-1030.218056396378
 10
987.6445033094215
 20
-1031.057266424079
 10
984.6659899342749
 20
-1035.926764671089
 10
981.4169847981011
 20
-1040.643239512143
 10
978.7102128478591
 20
-1045.654876992394
 10
978.2286891391404
 20
-1046.546451984355
 10
972.6647824564443
 20
-1049.236132619781
 10
979.0886191311356
 20
-1050.474912721198
 10
980.3045823918965
 20
-1050.709446487228
 10
978.2949616361802
 20
-1052.478729228884
 10
977.6150235537207
 20
-1053.424644460894
 10
967.2101205833451
 20
-1067.89954605984
 10
960.346402225141
 20
-1083.845060638927
 10
957.6617614189836
 20
-1101.511685417492
 10
957.3529735069878
 20
-1103.543558903715
 10
956.4686146018503
 20
-1105.652790639686
 10
957.8621510678786
 20
-1108.240643792644
 10
963.5681566265239
 20
-1102.071978441556
 10
968.2511712135383
 20
-1095.536516470134
 10
972.2437666662508
 20
-1088.545451091422
 10
978.4162193436559
 20
-1077.737588525517
 10
983.3442486733738
 20
-1066.21503893007
 10
989.1889266102544
 20
-1055.357754157712
 10
992.7775581378864
 20
-1048.691359619766
 10
993.8142954121295
 20
-1041.984371148785
 10
996.1337118732899
 20
-1035.348008865163
 10
996.275125449698
 20
-1034.943359510853
 10
996.3471222135113
 20
-1034.38846826139
 10
996.6445019036928
 20
-1034.182958955924
 10
1001.444339907019
 20
-1030.866994960405
 10
1001.244313063768
 20
-1030.807051386999
 10
1003.58888404935
 20
-1023.889675888704
 10
1003.999338164225
 20
-1022.678751207077
 10
1002.705049196804
 20
-1017.006887872578
 10
1007.752723764486
 20
-1020.333292611549
 10
1008.73205712402
 20
-1018.17911327346
 10
1010.056176777454
 20
-1016.111039835034
 10
1010.620178301833
 20
-1013.853098050444
 10
1011.85992548793
 20
-1008.890197476881
 10
1014.189016766177
 20
-1004.469893068794
 10
1016.775014749794
 20
-999.4663985622028
 10
1017.711859537623
 20
-1000.884767513333
 10
1018.429166601076
 20
-1001.970725767545
 10
1019.896392923911
 20
-1004.192104794183
 10
1020.712705615542
 20
-995.4811385685134
 10
1024.334070274317
 20
-988.7829380591975
 10
1026.531463104981
 20
-981.4940897774832
 10
1029.469261624889
 20
-981.9095426810054
 10
1028.109385459971
 20
-985.6418867503126
 10
1031.078828694101
 20
-987.3337306187223
 10
1031.388745334756
 20
-979.0525279681005
 10
1037.958752370922
 20
-973.6168108696584
 10
1039.483826037582
 20
-965.8979571423934
 10
1042.487413313675
 20
-966.354810213963
 10
1040.766585847974
 20
-969.9182883592584
 10
1043.757797420545
 20
-971.3793877662138
 10
1045.888232454625
 20
-963.8366560780978
 10
1047.73451004854
 20
-956.1327176986197
 10
1052.566315259992
 20
-949.734880044356
 10
1055.193995580554
 20
-952.2277184007307
 10
1054.582748699406
 20
-956.0343973384715
 10
1057.157499708163
 20
-959.109821117092
 10
1057.697193254611
 20
-949.6810235453158
 10
1062.870479197458
 20
-942.7700576153966
 10
1066.836992955776
 20
-934.2846759470813
 10
1068.532988390956
 20
-937.3352273754736
 10
1069.747419805679
 20
-939.5195599031431
 10
1071.351181984639
 20
-942.4041478535801
 10
1074.205414271968
 20
-934.6998869800973
 10
1078.149272833609
 20
-928.3879536667428
 10
1082.212655697998
 20
-921.9274312400175
 10
1085.414213918715
 20
-923.8085387783321
 10
1084.054861806391
 20
-927.8515251991357
 10
1087.383563248313
 20
-930.3429526442342
 10
1086.451999298144
 20
-920.268925189499
 10
1096.110651377283
 20
-917.1942270223917
 10
1098.325378255226
 20
-908.6324545863499
 10
1100.283682168649
 20
-911.8554999963235
 10
1101.513996408092
 20
-913.8803592379154
 10
1103.056525057244
 20
-916.4191529901764
 10
1106.102479969826
 20
-910.2669751451558
 10
1109.138840688796
 20
-904.7911478546921
 10
1113.557652145886
 20
-900.2985644774599
 10
1116.232698758433
 20
-901.7776429252644
 10
1114.600919921662
 20
-904.9011586225661
 10
1117.305152232419
 20
-906.4803714593036
 10
1119.98483469482
 20
-900.4002307129231
 10
1124.057731129345
 20
-895.2242422247491
 10
1127.824137420936
 20
-889.8747519612243
 10
1130.483341520505
 20
-891.5571225682015
 10
1129.414314544236
 20
-894.2751020526739
 10
1130.774231020889
 20
-896.258077385206
 10
1132.655902320646
 20
-887.17120408353
 10
1142.679214380456
 20
-884.9219293253554
 10
1145.583312287512
 20
-876.8334974669542
 10
1148.467294637381
 20
-877.6871794131839
 10
1147.685851598997
 20
-880.4382548450467
 10
1149.245794918905
 20
-881.4512085186016
 10
1149.639680909519
 20
-881.3416008682361
 10
1150.314781583433
 20
-881.3111251846476
 10
1150.378675687938
 20
-881.0977147760277
 10
1152.347057535828
 20
-874.5214976245697
 10
1157.710614881367
 20
-868.9394488708049
 10
1162.524884486847
 20
-866.7314130336781
 10
1172.063770392811
 20
-862.3564996569685
 10
1178.054255885525
 20
-854.8432358586706
 10
1184.818726745121
 20
-847.953594844912
 10
1192.043235157154
 20
-840.5953901959829
 10
1198.435870546746
 20
-832.4211144642986
 10
1205.206791284398
 20
-824.6161548373693
 10
1205.776154269912
 20
-823.9598392229491
 10
1206.459599473563
 20
-823.4024889566899
 10
1207.667822880656
 20
-823.1317149267124
 10
1197.733962567154
 20
-845.3805361044888
 10
1181.335389476775
 20
-864.1477119910478
 10
1174.168365602925
 20
-887.9101587870464
 10
1174.878335930087
 20
-888.341413896871
 10
1178.052724039486
 20
-888.8389012132266
 10
1175.086022003534
 20
-892.4807454020338
 10
1171.860437987054
 20
-896.4402864987242
 10
1169.06860826993
 20
-900.7531197792359
 10
1165.964926948735
 20
-905.0830855538279
 10
1167.450172618388
 20
-905.3422094878315
 10
1168.883738640112
 20
-905.5922632779093
 10
1170.997041185601
 20
-905.9609142387744
 10
1166.613381563924
 20
-911.5204287238557
 10
1163.355467533682
 20
-917.347492298848
 10
1157.263638331993
 20
-920.6738970378174
 10
1157.851141599542
 20
-923.3690197595988
 10
1160.603223943137
 20
-922.090855077673
 10
1162.277692910298
 20
-923.438557529691
 10
1159.131643952616
 20
-929.1735087541565
 10
1154.150161258496
 20
-933.1715072610914
 10
1149.079750870664
 20
-937.1698685737829
 10
1155.034641098848
 20
-939.6251363784322
 10
1155.26482112202
 20
-940.1430617524311
 10
1150.12019682479
 20
-944.1520250555768
 10
1146.460616638526
 20
-947.0037589291314
 10
1145.342651212501
 20
-952.7625343983054
 10
1139.419486322009
 20
-953.875058096286
 10
1141.912283567699
 20
-954.5626556293064
 10
1144.40504050165
 20
-955.2502934740842
 10
1147.594747071435
 20
-956.1301780583199
 10
1141.738459354052
 20
-962.0497571013511
 10
1135.374284051393
 20
-966.2859577436338
 10
1128.31307848942
 20
-971.1774258948171
 10
1131.600379776562
 20
-971.3800327542267
 10
1134.204195548311
 20
-971.5405138340757
 10
1138.600916173056
 20
-971.8115297345576
 10
1131.805526210523
 20
-976.8950430664481
 10
1128.127201066154
 20
-983.1900857562268
 10
1120.837387638789
 20
-985.3427735595378
 10
1122.243501367027
 20
-988.2594093518455
 10
1125.705513726047
 20
-986.5749022220734
 10
1128.302718372792
 20
-989.1937551113824
 10
1121.79475110119
 20
-993.3392543144128
 10
1116.925576908743
 20
-999.4140335979373
 10
1109.018227969125
 20
-1002.219207399343
 10
1111.444833341251
 20
-1003.915485560341
 10
1113.872244948134
 20
-1004.51512285317
 10
1118.06527036148
 20
-1005.082430121871
 10
1110.424502944317
 20
-1011.164304273534
 10
1102.465192174597
 20
-1013.937349609572
 10
1095.272409100256
 20
-1018.273724952536
 10
1096.718673319403
 20
-1021.307426069101
 10
1099.950949084368
 20
-1019.644042296743
 10
1102.538478914023
 20
-1021.150250552817
 10
1097.191288134056
 20
-1026.031157025296
 10
1090.807682573746
 20
-1028.433374565924
 10
1083.939892730019
 20
-1030.88525618351
 10
1084.80010490418
 20
-1033.399903197056
 10
1087.989448668324
 20
-1032.185713263616
 10
1089.495414571242
 20
-1034.734262459564
 10
1082.523580132101
 20
-1037.354969689408
 10
1075.729480145179
 20
-1039.908840036462
 10
1068.838148246545
 20
-1042.499313453221
 10
1068.876686267939
 20
-1045.311823993272
 10
1073.003560119454
 20
-1043.519361994915
 10
1073.422721569706
 20
-1046.277895100671
 10
1066.683848663652
 20
-1048.525073647805
 10
1060.637571725743
 20
-1052.687866591919
 10
1053.424592470732
 20
-1053.467495851972
 10
1052.808427557567
 20
-1056.355429677722
 10
1056.843269711555
 20
-1055.55435456626
 10
1056.389802972386
 20
-1058.24024589711
 10
1056.013210717314
 20
-1058.392664626803
 10
1055.494519586289
 20
-1058.760791534909
 10
1054.952608894257
 20
-1058.798805515897
 10
1041.109396866723
 20
-1059.771084632917
 10
1030.878882474322
 20
-1070.787923314849
 10
1017.250693256523
 20
-1072.375279125248
 10
1016.57011018626
 20
-1072.454612650778
 10
1015.855423385769
 20
-1072.731191572868
 10
1015.796769807184
 20
-1074.004841338705
 10
1015.661846420571
 20
-1076.934175332508
 10
1015.475646503404
 20
-1076.921880248519
 10
1012.973617869744
 20
-1077.453229435527
 10
993.419038822426
 20
-1081.605944441948
 10
977.0667032953697
 20
-1091.274032566349
 10
963.7629026321174
 20
-1106.133266397213
 10
962.793244089672
 20
-1107.216402828872
 10
961.3768911800162
 20
-1108.160463720345
 10
961.4508632189863
 20
-1110.159281570935
 10
967.703052513878
 20
-1109.9787252392
 10
973.5028634865193
 20
-1107.748477627394
 10
979.2047975596433
 20
-1105.797026083972
 10
993.6329732152417
 20
-1100.859038172392
 10
1008.324424830793
 20
-1096.410918656265
 10
1021.237604754197
 20
-1087.864585620775
 10
1022.776142541301
 20
-1086.846351107866
 10
1023.818845952748
 20
-1085.518844842987
 10
1025.619530971146
 20
-1088.486716870537
 10
1026.59092291832
 20
-1090.087698052694
 10
1029.871774327406
 20
-1087.048353291015
 10
1031.401806337821
 20
-1085.552263284388
 10
1039.5674325819
 20
-1077.567755119491
 10
1052.109059217462
 20
-1078.497868145198
 10
1060.431054692694
 20
-1070.996052884122
 10
1068.045861350674
 20
-1074.325601939647
 10
1071.703909690899
 20
-1066.750056486399
 10
1077.371135357726
 20
-1064.707701944968
 10
1081.17998990928
 20
-1063.335046519218
 10
1082.852564224762
 20
-1063.270467094473
 10
1081.065061144647
 20
-1068.558804432065
 10
1087.33994594795
 20
-1063.561638870344
 10
1094.534543050495
 20
-1062.946924982729
 10
1099.989487105759
 20
-1058.947475252764
 10
1102.228602585106
 20
-1060.960281280873
 10
1099.416052634724
 20
-1062.811880617619
 10
1100.461456932606
 20
-1065.156613601637
 10
1103.420459426628
 20
-1060.70018986485
 10
1108.626921929734
 20
-1061.041388523437
 10
1112.572352649153
 20
-1058.744304028842
 10
1113.900543788111
 20
-1057.970923090161
 10
1115.206644094724
 20
-1057.148926180045
 10
1116.582564331307
 20
-1056.470237543939
 10
1121.798338845856
 20
-1053.897460985772
 10
1121.974823634202
 20
-1054.018638108611
 10
1121.994132956635
 20
-1059.954140293197
 10
1126.625427583976
 20
-1057.921742754212
 10
1131.102691060962
 20
-1055.653964902429
 10
1135.793808307284
 20
-1053.988283360273
 10
1140.013036350238
 20
-1052.490137454351
 10
1140.50012307878
 20
-1053.169833884227
 10
1139.659179915316
 20
-1058.404113164022
 10
1142.021286506868
 20
-1057.547327212982
 10
1144.326634171515
 20
-1057.040044141189
 10
1146.296265683279
 20
-1055.934655623101
 10
1152.090553947835
 20
-1052.682787311322
 10
1158.850348645839
 20
-1056.468423515154
 10
1164.587152372209
 20
-1053.228084364102
 10
1172.840577581343
 20
-1059.216878683215
 10
1181.495507699547
 20
-1052.717939157998
 10
1190.159467647032
 20
-1053.905523335925
 10
1199.250087028009
 20
-1055.151680487732
 10
1208.838959488918
 20
-1052.759540884805
 10
1218.211519164479
 20
-1051.973824550385
 10
1218.396550041249
 20
-1051.958304526333
 10
1218.598511847918
 20
-1052.144343256177
 10
1220.443015725368
 20
-1053.018463260054
 10
1198.068953108759
 20
-1059.730853505636
 10
1177.450144181978
 20
-1067.478086705452
 10
1158.861595620701
 20
-1078.722606155785
 10
1161.866432560668
 20
-1080.534941847272
 10
1160.472372042046
 20
-1082.316801855171
 10
1156.605267029288
 20
-1084.050811814895
 10
1151.884560967379
 20
-1086.167501224762
 10
1146.93323145318
 20
-1086.727350819569
 10
1141.316637329102
 20
-1086.914477966684
 10
1144.708184770347
 20
-1092.602466001494
 10
1142.775720680889
 20
-1094.256578071176
 10
1136.835584548759
 20
-1094.605073156654
 10
1132.708186644648
 20
-1094.847266155328
 10
1128.912312472687
 20
-1098.010327680146
 10
1124.261668211173
 20
-1097.110488779274
 10
1124.526919446282
 20
-1100.249000447866
 10
1127.757219936091
 20
-1100.824611937227
 10
1128.425064497191
 20
-1103.422462404378
 10
1121.0958261902
 20
-1107.688413118733
 10
1113.141957505091
 20
-1106.185066996964
 10
1104.994310296097
 20
-1105.994513351035
 10
1105.900356916203
 20
-1109.010799791264
 10
1109.635642546165
 20
-1110.113326175049
 10
1109.979662917049
 20
-1113.895737438821
 10
1103.358056856425
 20
-1113.098250073175
 10
1096.757453211223
 20
-1114.637393029638
 10
1090.092270161971
 20
-1112.502361773169
 10
1089.555640307603
 20
-1115.093117372189
 10
1092.112896022125
 20
-1115.968366105082
 10
1092.386773969136
 20
-1118.028780310862
 10
1084.141249860622
 20
-1118.514899713498
 10
1076.316459360136
 20
-1118.6990841028
 10
1068.704272965117
 20
-1116.574372654533
 10
1068.043402334666
 20
-1119.085754416268
 10
1070.91710519138
 20
-1119.875703484518
 10
1069.976471100188
 20
-1122.011984405259
 10
1063.177574016463
 20
-1122.580702585241
 10
1056.682184007073
 20
-1119.970234540093
 10
1050.064568808497
 20
-1119.395550220996
 10
1048.983004881753
 20
-1121.408799678366
 10
1051.473383423174
 20
-1122.16109757139
 10
1051.060591227502
 20
-1124.477894512116
 10
1046.045649790962
 20
-1123.283820142313
 10
1040.605016402638
 20
-1122.95733527276
 10
1036.18426998213
 20
-1120.664402888493
 10
1031.726114268891
 20
-1118.352080552106
 10
1028.911185925976
 20
-1123.364604890872
 10
1024.716588354855
 20
-1121.494663707523
 10
1020.592052584132
 20
-1119.655923819273
 10
1015.732714455728
 20
-1117.969925154723
 10
1011.435846005657
 20
-1118.435001823455
 10
1007.157077525888
 20
-1118.898062904644
 10
1003.830149800435
 20
-1117.208395870777
 10
1000.212695380231
 20
-1116.338307041973
 10
989.0764165498913
 20
-1113.659752449763
 10
977.9712180694378
 20
-1111.199808482024
 10
966.4129156554554
 20
-1112.096140260579
 10
965.3684788392811
 20
-1112.177166879645
 10
964.156304881878
 20
-1111.95170325754
 10
963.2540878768705
 20
-1113.64713487177
 10
968.2652400100496
 20
-1115.193735502131
 10
973.0923690599066
 20
-1117.532623282284
 10
978.1111804232814
 20
-1118.065262445314
 10
990.6252741418875
 20
-1119.393292762956
 10
1002.202402137449
 20
-1124.3062470773
 10
1013.997415076134
 20
-1127.82272172119
 10
1020.371386131095
 20
-1129.723017652877
 10
1026.940345062079
 20
-1131.970881499774
 10
1033.460043049396
 20
-1133.950873762748
 10
1033.876503613212
 20
-1134.077372036689
 10
1034.422082673389
 20
-1134.046412612091
 10
1034.704305150135
 20
-1134.307955251143
 10
1040.911748416002
 20
-1140.061530504465
 10
1040.948230538765
 20
-1139.924027122563
 10
1049.657218697437
 20
-1142.475398141069
 10
1051.209502787151
 20
-1142.930114689847
 10
1057.172374739432
 20
-1142.174430609759
 10
1052.539790136478
 20
-1147.193001711144
 10
1051.765603210908
 20
-1148.031647374333
 10
1053.047153669166
 20
-1148.440892268236
 10
1053.912969174888
 20
-1148.601413659831
 10
1059.45345473789
 20
-1149.628355510909
 10
1063.717549745077
 20
-1153.43455070764
 10
1068.728540631308
 20
-1155.645247120317
 10
1070.181819092841
 20
-1156.286365204694
 10
1076.279936925637
 20
-1155.699869542621
 10
1072.283753728254
 20
-1160.839375896345
 10
1072.246223500311
 20
-1160.887669373778
 10
1072.998480840484
 20
-1161.679069665057
 10
1073.473594982885
 20
-1161.97810223233
 10
1086.560276626031
 20
-1170.215969750865
 10
1097.646609213167
 20
-1180.927567855908
 10
1109.220754140128
 20
-1191.01900998698
 10
1114.288262082833
 20
-1195.437339119277
 10
1118.67885532342
 20
-1200.51629722333
 10
1121.512488312705
 20
-1208.571391263835
 10
1110.865392421274
 20
-1200.822424658738
 10
1102.424840125001
 20
-1192.738225534169
 10
1091.771576537678
 20
-1187.922906280208
 10
1084.73423552452
 20
-1184.741906026295
 10
1077.939490549792
 20
-1181.510999824921
 10
1069.971472444697
 20
-1180.202238524154
 10
1063.476082435307
 20
-1179.135347728055
 10
1056.927843737583
 20
-1175.652775266577
 10
1051.529174868367
 20
-1171.141567860486
 97
        0
 97
        0
 75
     2
 76
     1
 98
        0
  0
ENDBLK
  5
44
330
41
100
AcDbEntity
  8
0
100
AcDbBlockEnd
  0
ENDSEC
  0
SECTION
  2
ENTITIES
  0
INSERT
  5
42
330
1F
100
AcDbEntity
  8
katman 1
100
AcDbBlockReference
  2
block 2
 10
0.0
 20
0.0
 30
0.0
  0
ENDSEC
  0
SECTION
  2
OBJECTS
  0
DICTIONARY
  5
C
330
0
100
AcDbDictionary
281
     1
  3
ACAD_GROUP
350
D
  3
ACAD_LAYOUT
350
1A
  3
ACAD_MATERIAL
350
3B
  3
ACAD_MLEADERSTYLE
350
4E
  3
ACAD_MLINESTYLE
350
17
  3
ACAD_PLOTSETTINGS
350
19
  3
ACAD_PLOTSTYLENAME
350
E
  3
ACAD_TABLESTYLE
350
4D
  3
ACAD_VISUALSTYLE
350
2A
  0
SUN
  5
3F
330
29
100
AcDbSun
 90
        1
290
     0
 63
     7
421
 16777215
 40
1.0
291
     1
 91
  2455826
 92
 54000000
292
     0
 70
     2
 71
   256
280
     1
  0
DICTIONARY
  5
D
102
{ACAD_REACTORS
330
C
102
}
330
C
100
AcDbDictionary
281
     1
  0
DICTIONARY
  5
1A
102
{ACAD_REACTORS
330
C
102
}
330
C
100
AcDbDictionary
281
     1
  3
Layout1
350
1E
  3
Layout2
350
26
  3
Model
350
22
  0
DICTIONARY
  5
3B
102
{ACAD_REACTORS
330
C
102
}
330
C
100
AcDbDictionary
281
     1
  3
ByBlock
350
3D
  3
ByLayer
350
3C
  3
Global
350
3E
  0
DICTIONARY
  5
4E
102
{ACAD_REACTORS
330
C
102
}
330
C
100
AcDbDictionary
281
     1
  0
DICTIONARY
  5
17
102
{ACAD_REACTORS
330
C
102
}
330
C
100
AcDbDictionary
281
     1
  3
Standard
350
18
  0
DICTIONARY
  5
19
102
{ACAD_REACTORS
330
C
102
}
330
C
100
AcDbDictionary
281
     1
  0
ACDBDICTIONARYWDFLT
  5
E
102
{ACAD_REACTORS
330
C
102
}
330
C
100
AcDbDictionary
281
     1
  3
Normal
350
F
100
AcDbDictionaryWithDefault
340
F
  0
DICTIONARY
  5
4D
102
{ACAD_REACTORS
330
C
102
}
330
C
100
AcDbDictionary
281
     1
  0
DICTIONARY
  5
2A
102
{ACAD_REACTORS
330
C
102
}
330
C
100
AcDbDictionary
281
     1
  3
2dWireframe
350
2F
  3
3D Hidden
350
31
  3
3dWireframe
350
30
  3
Basic
350
32
  3
Brighten
350
36
  3
ColorChange
350
3A
  3
Conceptual
350
34
  3
Dim
350
35
  3
Facepattern
350
39
  3
Flat
350
2B
  3
FlatWithEdges
350
2C
  3
Gouraud
350
2D
  3
GouraudWithEdges
350
2E
  3
Linepattern
350
38
  3
Realistic
350
33
  3
Thicken
350
37
  0
LAYOUT
  5
1E
102
{ACAD_REACTORS
330
1A
102
}
330
1A
100
AcDbPlotSettings
  1

  2
none_device
  4

  6

 40
0.0
 41
0.0
 42
0.0
 43
0.0
 44
0.0
 45
0.0
 46
0.0
 47
0.0
 48
0.0
 49
0.0
140
0.0
141
0.0
142
1.0
143
1.0
 70
   688
 72
     0
 73
     0
 74
     5
  7

 75
    16
 76
     0
 77
     2
 78
   300
147
1.0
148
0.0
149
0.0
100
AcDbLayout
  1
Layout1
 70
     1
 71
     1
 10
0.0
 20
0.0
 11
12.0
 21
9.0
 12
0.0
 22
0.0
 32
0.0
 14
1.000000000000000E+20
 24
1.000000000000000E+20
 34
1.000000000000000E+20
 15
-1.000000000000000E+20
 25
-1.000000000000000E+20
 35
-1.000000000000000E+20
146
0.0
 13
0.0
 23
0.0
 33
0.0
 16
1.0
 26
0.0
 36
0.0
 17
0.0
 27
1.0
 37
0.0
 76
     0
330
1B
  0
LAYOUT
  5
26
102
{ACAD_REACTORS
330
1A
102
}
330
1A
100
AcDbPlotSettings
  1

  2
none_device
  4

  6

 40
0.0
 41
0.0
 42
0.0
 43
0.0
 44
0.0
 45
0.0
 46
0.0
 47
0.0
 48
0.0
 49
0.0
140
0.0
141
0.0
142
1.0
143
1.0
 70
   688
 72
     0
 73
     0
 74
     5
  7

 75
    16
 76
     0
 77
     2
 78
   300
147
1.0
148
0.0
149
0.0
100
AcDbLayout
  1
Layout2
 70
     1
 71
     2
 10
0.0
 20
0.0
 11
0.0
 21
0.0
 12
0.0
 22
0.0
 32
0.0
 14
0.0
 24
0.0
 34
0.0
 15
0.0
 25
0.0
 35
0.0
146
0.0
 13
0.0
 23
0.0
 33
0.0
 16
1.0
 26
0.0
 36
0.0
 17
0.0
 27
1.0
 37
0.0
 76
     0
330
23
  0
LAYOUT
  5
22
102
{ACAD_REACTORS
330
1A
102
}
330
1A
100
AcDbPlotSettings
  1

  2
none_device
  4

  6

 40
0.0
 41
0.0
 42
0.0
 43
0.0
 44
0.0
 45
0.0
 46
0.0
 47
0.0
 48
0.0
 49
0.0
140
0.0
141
0.0
142
1.0
143
1.0
 70
  1712
 72
     0
 73
     0
 74
     0
  7

 75
     0
 76
     0
 77
     2
 78
   300
147
1.0
148
0.0
149
0.0
100
AcDbLayout
  1
Model
 70
     1
 71
     0
 10
0.0
 20
0.0
 11
12.0
 21
9.0
 12
0.0
 22
0.0
 32
0.0
 14
1.000000000000000E+20
 24
1.000000000000000E+20
 34
1.000000000000000E+20
 15
-1.000000000000000E+20
 25
-1.000000000000000E+20
 35
-1.000000000000000E+20
146
0.0
 13
0.0
 23
0.0
 33
0.0
 16
1.0
 26
0.0
 36
0.0
 17
0.0
 27
1.0
 37
0.0
 76
     0
330
1F
331
29
  0
MATERIAL
  5
3D
102
{ACAD_REACTORS
330
3B
102
}
330
3B
100
AcDbMaterial
  1
ByBlock
 72
     1
 94
      127
  0
MATERIAL
  5
3C
102
{ACAD_REACTORS
330
3B
102
}
330
3B
100
AcDbMaterial
  1
ByLayer
 72
     1
 94
      127
  0
MATERIAL
  5
3E
102
{ACAD_REACTORS
330
3B
102
}
330
3B
100
AcDbMaterial
  1
Global
 72
     1
 94
      127
  0
MLINESTYLE
  5
18
102
{ACAD_REACTORS
330
17
102
}
330
17
100
AcDbMlineStyle
  2
Standard
 70
     0
  3

 62
   256
 51
90.0
 52
90.0
 71
     2
 49
0.5
 62
   256
  6
BYLAYER
 49
-0.5
 62
   256
  6
BYLAYER
  0
ACDBPLACEHOLDER
  5
F
102
{ACAD_REACTORS
330
E
102
}
330
E
  0
VISUALSTYLE
  5
2F
102
{ACAD_REACTORS
330
2A
102
}
330
2A
100
AcDbVisualStyle
  2
2dWireframe
 70
     4
177
     2
291
     0
 71
     0
176
     1
 72
     2
176
     1
 73
     0
176
     1
 90
        0
176
     1
 40
-0.6
176
     1
 41
-30.0
176
     1
 62
     5
 63
     7
421
 16777215
176
     1
 74
     1
176
     1
 91
        4
176
     1
 64
     7
176
     1
 65
   257
176
     1
 75
     1
176
     1
175
     1
176
     1
 42
1.0
176
     1
 92
        0
176
     1
 66
   257
176
     1
 43
1.0
176
     1
 76
     1
176
     1
 77
     6
176
     1
 78
     2
176
     1
 67
     7
176
     1
 79
     5
176
     1
170
     0
176
     1
171
     0
176
     1
290
     0
176
     1
 93
        1
176
     1
 44
0.0
176
     1
173
     0
176
     1
  0
VISUALSTYLE
  5
31
102
{ACAD_REACTORS
330
2A
102
}
330
2A
100
AcDbVisualStyle
  2
3D Hidden
 70
     6
177
     2
291
     0
 71
     1
176
     1
 72
     2
176
     1
 73
     2
176
     1
 90
        0
176
     1
 40
-0.6
176
     1
 41
-30.0
176
     1
 62
     5
 63
     7
421
 16777215
176
     1
 74
     2
176
     1
 91
        2
176
     1
 64
     7
176
     1
 65
   257
176
     1
 75
     2
176
     1
175
     1
176
     1
 42
40.0
176
     1
 92
        0
176
     1
 66
   257
176
     1
 43
1.0
176
     1
 76
     1
176
     1
 77
     6
176
     1
 78
     2
176
     1
 67
     7
176
     1
 79
     3
176
     1
170
     0
176
     1
171
     0
176
     1
290
     0
176
     1
 93
        1
176
     1
 44
0.0
176
     1
173
     0
176
     1
  0
VISUALSTYLE
  5
30
102
{ACAD_REACTORS
330
2A
102
}
330
2A
100
AcDbVisualStyle
  2
3dWireframe
 70
     5
177
     2
291
     0
 71
     0
176
     1
 72
     2
176
     1
 73
     0
176
     1
 90
        0
176
     1
 40
-0.6
176
     1
 41
-30.0
176
     1
 62
     5
 63
     7
421
 16777215
176
     1
 74
     1
176
     1
 91
        4
176
     1
 64
     7
176
     1
 65
   257
176
     1
 75
     1
176
     1
175
     1
176
     1
 42
1.0
176
     1
 92
        0
176
     1
 66
   257
176
     1
 43
1.0
176
     1
 76
     1
176
     1
 77
     6
176
     1
 78
     2
176
     1
 67
     7
176
     1
 79
     5
176
     1
170
     0
176
     1
171
     0
176
     1
290
     0
176
     1
 93
        1
176
     1
 44
0.0
176
     1
173
     0
176
     1
  0
VISUALSTYLE
  5
32
102
{ACAD_REACTORS
330
2A
102
}
330
2A
100
AcDbVisualStyle
  2
Basic
 70
     7
177
     2
291
     1
 71
     1
176
     1
 72
     0
176
     1
 73
     1
176
     1
 90
        0
176
     1
 40
-0.6
176
     1
 41
-30.0
176
     1
 62
     5
 63
     7
421
 16777215
176
     1
 74
     0
176
     1
 91
        4
176
     1
 64
     7
176
     1
 65
   257
176
     1
 75
     1
176
     1
175
     1
176
     1
 42
1.0
176
     1
 92
        8
176
     1
 66
     7
176
     1
 43
1.0
176
     1
 76
     1
176
     1
 77
     6
176
     1
 78
     2
176
     1
 67
     7
176
     1
 79
     5
176
     1
170
     0
176
     1
171
     0
176
     1
290
     0
176
     1
 93
        1
176
     1
 44
0.0
176
     1
173
     0
176
     1
  0
VISUALSTYLE
  5
36
102
{ACAD_REACTORS
330
2A
102
}
330
2A
100
AcDbVisualStyle
  2
Brighten
 70
    12
177
     2
291
     1
 71
     2
176
     1
 72
     2
176
     1
 73
     0
176
     1
 90
        0
176
     1
 40
-0.6
176
     1
 41
-30.0
176
     1
 62
     5
 63
     7
421
 16777215
176
     1
 74
     1
176
     1
 91
        4
176
     1
 64
     7
176
     1
 65
   257
176
     1
 75
     1
176
     1
175
     1
176
     1
 42
1.0
176
     1
 92
        8
176
     1
 66
     7
176
     1
 43
1.0
176
     1
 76
     1
176
     1
 77
     6
176
     1
 78
     2
176
     1
 67
     7
176
     1
 79
     5
176
     1
170
     0
176
     1
171
     0
176
     1
290
     0
176
     1
 93
        1
176
     1
 44
50.0
176
     1
173
     0
176
     1
  0
VISUALSTYLE
  5
3A
102
{ACAD_REACTORS
330
2A
102
}
330
2A
100
AcDbVisualStyle
  2
ColorChange
 70
    16
177
     2
291
     1
 71
     2
176
     1
 72
     2
176
     1
 73
     3
176
     1
 90
        0
176
     1
 40
-0.6
176
     1
 41
-30.0
176
     1
 62
     5
 63
     8
421
  8421504
176
     1
 74
     1
176
     1
 91
        4
176
     1
 64
     7
176
     1
 65
   257
176
     1
 75
     1
176
     1
175
     1
176
     1
 42
1.0
176
     1
 92
        8
176
     1
 66
     8
424
  8421504
176
     1
 43
1.0
176
     1
 76
     1
176
     1
 77
     6
176
     1
 78
     2
176
     1
 67
     7
176
     1
 79
     5
176
     1
170
     0
176
     1
171
     0
176
     1
290
     0
176
     1
 93
        1
176
     1
 44
0.0
176
     1
173
     0
176
     1
  0
VISUALSTYLE
  5
34
102
{ACAD_REACTORS
330
2A
102
}
330
2A
100
AcDbVisualStyle
  2
Conceptual
 70
     9
177
     2
291
     0
 71
     3
176
     1
 72
     2
176
     1
 73
     0
176
     1
 90
        0
176
     1
 40
-0.6
176
     1
 41
-30.0
176
     1
 62
     5
 63
     7
421
 16777215
176
     1
 74
     2
176
     1
 91
        2
176
     1
 64
     7
176
     1
 65
   257
176
     1
 75
     1
176
     1
175
     1
176
     1
 42
40.0
176
     1
 92
        8
176
     1
 66
     7
176
     1
 43
1.0
176
     1
 76
     1
176
     1
 77
     6
176
     1
 78
     2
176
     1
 67
     7
176
     1
 79
     3
176
     1
170
     0
176
     1
171
     0
176
     1
290
     0
176
     1
 93
        1
176
     1
 44
0.0
176
     1
173
     0
176
     1
  0
VISUALSTYLE
  5
35
102
{ACAD_REACTORS
330
2A
102
}
330
2A
100
AcDbVisualStyle
  2
Dim
 70
    11
177
     2
291
     1
 71
     2
176
     1
 72
     2
176
     1
 73
     0
176
     1
 90
        0
176
     1
 40
-0.6
176
     1
 41
-30.0
176
     1
 62
     5
 63
     7
421
 16777215
176
     1
 74
     1
176
     1
 91
        4
176
     1
 64
     7
176
     1
 65
   257
176
     1
 75
     1
176
     1
175
     1
176
     1
 42
1.0
176
     1
 92
        8
176
     1
 66
     7
176
     1
 43
1.0
176
     1
 76
     1
176
     1
 77
     6
176
     1
 78
     2
176
     1
 67
     7
176
     1
 79
     5
176
     1
170
     0
176
     1
171
     0
176
     1
290
     0
176
     1
 93
        1
176
     1
 44
-50.0
176
     1
173
     0
176
     1
  0
VISUALSTYLE
  5
39
102
{ACAD_REACTORS
330
2A
102
}
330
2A
100
AcDbVisualStyle
  2
Facepattern
 70
    15
177
     2
291
     1
 71
     2
176
     1
 72
     2
176
     1
 73
     0
176
     1
 90
        0
176
     1
 40
-0.6
176
     1
 41
-30.0
176
     1
 62
     5
 63
     7
421
 16777215
176
     1
 74
     1
176
     1
 91
        4
176
     1
 64
     7
176
     1
 65
   257
176
     1
 75
     1
176
     1
175
     1
176
     1
 42
1.0
176
     1
 92
        8
176
     1
 66
     7
176
     1
 43
1.0
176
     1
 76
     1
176
     1
 77
     6
176
     1
 78
     2
176
     1
 67
     7
176
     1
 79
     5
176
     1
170
     0
176
     1
171
     0
176
     1
290
     0
176
     1
 93
        1
176
     1
 44
0.0
176
     1
173
     0
176
     1
  0
VISUALSTYLE
  5
2B
102
{ACAD_REACTORS
330
2A
102
}
330
2A
100
AcDbVisualStyle
  2
Flat
 70
     0
177
     2
291
     1
 71
     2
176
     1
 72
     1
176
     1
 73
     1
176
     1
 90
        2
176
     1
 40
-0.6
176
     1
 41
30.0
176
     1
 62
     5
 63
     7
421
 16777215
176
     1
 74
     0
176
     1
 91
        4
176
     1
 64
     7
176
     1
 65
   257
176
     1
 75
     1
176
     1
175
     1
176
     1
 42
1.0
176
     1
 92
        8
176
     1
 66
     7
176
     1
 43
1.0
176
     1
 76
     1
176
     1
 77
     6
176
     1
 78
     2
176
     1
 67
     7
176
     1
 79
     5
176
     1
170
     0
176
     1
171
     0
176
     1
290
     0
176
     1
 93
       13
176
     1
 44
0.0
176
     1
173
     0
176
     1
  0
VISUALSTYLE
  5
2C
102
{ACAD_REACTORS
330
2A
102
}
330
2A
100
AcDbVisualStyle
  2
FlatWithEdges
 70
     1
177
     2
291
     1
 71
     2
176
     1
 72
     1
176
     1
 73
     1
176
     1
 90
        2
176
     1
 40
-0.6
176
     1
 41
30.0
176
     1
 62
     5
 63
     7
421
 16777215
176
     1
 74
     1
176
     1
 91
        4
176
     1
 64
     7
176
     1
 65
   257
176
     1
 75
     1
176
     1
175
     1
176
     1
 42
1.0
176
     1
 92
        0
176
     1
 66
   257
176
     1
 43
1.0
176
     1
 76
     1
176
     1
 77
     6
176
     1
 78
     2
176
     1
 67
     7
176
     1
 79
     5
176
     1
170
     0
176
     1
171
     0
176
     1
290
     0
176
     1
 93
       13
176
     1
 44
0.0
176
     1
173
     0
176
     1
  0
VISUALSTYLE
  5
2D
102
{ACAD_REACTORS
330
2A
102
}
330
2A
100
AcDbVisualStyle
  2
Gouraud
 70
     2
177
     2
291
     1
 71
     2
176
     1
 72
     2
176
     1
 73
     1
176
     1
 90
        2
176
     1
 40
-0.6
176
     1
 41
30.0
176
     1
 62
     5
 63
     7
421
 16777215
176
     1
 74
     0
176
     1
 91
        4
176
     1
 64
     7
176
     1
 65
   257
176
     1
 75
     1
176
     1
175
     1
176
     1
 42
1.0
176
     1
 92
        0
176
     1
 66
     7
176
     1
 43
1.0
176
     1
 76
     1
176
     1
 77
     6
176
     1
 78
     2
176
     1
 67
     7
176
     1
 79
     5
176
     1
170
     0
176
     1
171
     0
176
     1
290
     0
176
     1
 93
       13
176
     1
 44
0.0
176
     1
173
     0
176
     1
  0
VISUALSTYLE
  5
2E
102
{ACAD_REACTORS
330
2A
102
}
330
2A
100
AcDbVisualStyle
  2
GouraudWithEdges
 70
     3
177
     2
291
     1
 71
     2
176
     1
 72
     2
176
     1
 73
     1
176
     1
 90
        2
176
     1
 40
-0.6
176
     1
 41
30.0
176
     1
 62
     5
 63
     7
421
 16777215
176
     1
 74
     1
176
     1
 91
        4
176
     1
 64
     7
176
     1
 65
   257
176
     1
 75
     1
176
     1
175
     1
176
     1
 42
1.0
176
     1
 92
        0
176
     1
 66
   257
176
     1
 43
1.0
176
     1
 76
     1
176
     1
 77
     6
176
     1
 78
     2
176
     1
 67
     7
176
     1
 79
     5
176
     1
170
     0
176
     1
171
     0
176
     1
290
     0
176
     1
 93
       13
176
     1
 44
0.0
176
     1
173
     0
176
     1
  0
VISUALSTYLE
  5
38
102
{ACAD_REACTORS
330
2A
102
}
330
2A
100
AcDbVisualStyle
  2
Linepattern
 70
    14
177
     2
291
     1
 71
     2
176
     1
 72
     2
176
     1
 73
     0
176
     1
 90
        0
176
     1
 40
-0.6
176
     1
 41
-30.0
176
     1
 62
     5
 63
     7
421
 16777215
176
     1
 74
     1
176
     1
 91
        4
176
     1
 64
     7
176
     1
 65
   257
176
     1
 75
     7
176
     1
175
     7
176
     1
 42
1.0
176
     1
 92
        8
176
     1
 66
     7
176
     1
 43
1.0
176
     1
 76
     1
176
     1
 77
     6
176
     1
 78
     2
176
     1
 67
     7
176
     1
 79
     5
176
     1
170
     0
176
     1
171
     0
176
     1
290
     0
176
     1
 93
        1
176
     1
 44
0.0
176
     1
173
     0
176
     1
  0
VISUALSTYLE
  5
33
102
{ACAD_REACTORS
330
2A
102
}
330
2A
100
AcDbVisualStyle
  2
Realistic
 70
     8
177
     2
291
     0
 71
     2
176
     1
 72
     2
176
     1
 73
     0
176
     1
 90
        0
176
     1
 40
-0.6
176
     1
 41
-30.0
176
     1
 62
     5
 63
     7
421
 16777215
176
     1
 74
     1
176
     1
 91
        0
176
     1
 64
     7
176
     1
 65
   257
176
     1
 75
     1
176
     1
175
     1
176
     1
 42
1.0
176
     1
 92
        8
176
     1
 66
     8
424
  7895160
176
     1
 43
1.0
176
     1
 76
     1
176
     1
 77
     6
176
     1
 78
     2
176
     1
 67
     7
176
     1
 79
     5
176
     1
170
     0
176
     1
171
     0
176
     1
290
     0
176
     1
 93
       13
176
     1
 44
0.0
176
     1
173
     0
176
     1
  0
VISUALSTYLE
  5
37
102
{ACAD_REACTORS
330
2A
102
}
330
2A
100
AcDbVisualStyle
  2
Thicken
 70
    13
177
     2
291
     1
 71
     2
176
     1
 72
     2
176
     1
 73
     0
176
     1
 90
        0
176
     1
 40
-0.6
176
     1
 41
-30.0
176
     1
 62
     5
 63
     7
421
 16777215
176
     1
 74
     1
176
     1
 91
        4
176
     1
 64
     7
176
     1
 65
   257
176
     1
 75
     1
176
     1
175
     1
176
     1
 42
1.0
176
     1
 92
       12
176
     1
 66
     7
176
     1
 43
1.0
176
     1
 76
     1
176
     1
 77
     6
176
     1
 78
     2
176
     1
 67
     7
176
     1
 79
     5
176
     1
170
     0
176
     1
171
     0
176
     1
290
     0
176
     1
 93
        1
176
     1
 44
0.0
176
     1
173
     0
176
     1
  0
ENDSEC
  0
EOF
