  0
SECTION
  2
HEADER
  9
$ACADVER
  1
AC1024
  9
$ACADMAINTVER
 70
     6
  9
$DWGCODEPAGE
  3
ANSI_1254
  9
$INSBASE
 10
0.0
 20
0.0
 30
0.0
  9
$EXTMIN
 10
1.000000000000000E+20
 20
1.000000000000000E+20
 30
1.000000000000000E+20
  9
$EXTMAX
 10
-1.000000000000000E+20
 20
-1.000000000000000E+20
 30
-1.000000000000000E+20
  9
$LIMMIN
 10
0.0
 20
0.0
  9
$LIMMAX
 10
12.0
 20
9.0
  9
$ORTHOMODE
 70
     0
  9
$REGENMODE
 70
     1
  9
$FILLMODE
 70
     1
  9
$QTEXTMODE
 70
     0
  9
$MIRRTEXT
 70
     1
  9
$LTSCALE
 40
1.0
  9
$ATTMODE
 70
     1
  9
$TEXTSIZE
 40
0.2
  9
$TRACEWID
 40
0.05
  9
$TEXTSTYLE
  7
Standard
  9
$CLAYER
  8
0
  9
$CELTYPE
  6
ByLayer
  9
$CECOLOR
 62
   256
  9
$CELTSCALE
 40
1.0
  9
$DISPSILH
 70
     0
  9
$DIMSCALE
 40
1.0
  9
$DIMASZ
 40
0.18
  9
$DIMEXO
 40
0.0625
  9
$DIMDLI
 40
0.38
  9
$DIMRND
 40
0.0
  9
$DIMDLE
 40
0.0
  9
$DIMEXE
 40
0.18
  9
$DIMTP
 40
0.0
  9
$DIMTM
 40
0.0
  9
$DIMTXT
 40
0.18
  9
$DIMCEN
 40
0.09
  9
$DIMTSZ
 40
0.0
  9
$DIMTOL
 70
     0
  9
$DIMLIM
 70
     0
  9
$DIMTIH
 70
     1
  9
$DIMTOH
 70
     1
  9
$DIMSE1
 70
     0
  9
$DIMSE2
 70
     0
  9
$DIMTAD
 70
     0
  9
$DIMZIN
 70
     0
  9
$DIMBLK
  1

  9
$DIMASO
 70
     1
  9
$DIMSHO
 70
     1
  9
$DIMPOST
  1

  9
$DIMAPOST
  1

  9
$DIMALT
 70
     0
  9
$DIMALTD
 70
     2
  9
$DIMALTF
 40
25.4
  9
$DIMLFAC
 40
1.0
  9
$DIMTOFL
 70
     0
  9
$DIMTVP
 40
0.0
  9
$DIMTIX
 70
     0
  9
$DIMSOXD
 70
     0
  9
$DIMSAH
 70
     0
  9
$DIMBLK1
  1

  9
$DIMBLK2
  1

  9
$DIMSTYLE
  2
Standard
  9
$DIMCLRD
 70
     0
  9
$DIMCLRE
 70
     0
  9
$DIMCLRT
 70
     0
  9
$DIMTFAC
 40
1.0
  9
$DIMGAP
 40
0.09
  9
$DIMJUST
 70
     0
  9
$DIMSD1
 70
     0
  9
$DIMSD2
 70
     0
  9
$DIMTOLJ
 70
     1
  9
$DIMTZIN
 70
     0
  9
$DIMALTZ
 70
     0
  9
$DIMALTTZ
 70
     0
  9
$DIMUPT
 70
     0
  9
$DIMDEC
 70
     4
  9
$DIMTDEC
 70
     4
  9
$DIMALTU
 70
     2
  9
$DIMALTTD
 70
     2
  9
$DIMTXSTY
  7
Standard
  9
$DIMAUNIT
 70
     0
  9
$DIMADEC
 70
     0
  9
$DIMALTRND
 40
0.0
  9
$DIMAZIN
 70
     0
  9
$DIMDSEP
 70
    46
  9
$DIMATFIT
 70
     3
  9
$DIMFRAC
 70
     0
  9
$DIMLDRBLK
  1

  9
$DIMLUNIT
 70
     2
  9
$DIMLWD
 70
    -2
  9
$DIMLWE
 70
    -2
  9
$DIMTMOVE
 70
     0
  9
$DIMFXL
 40
1.0
  9
$DIMFXLON
 70
     0
  9
$DIMJOGANG
 40
0.7853981633974483
  9
$DIMTFILL
 70
     0
  9
$DIMTFILLCLR
 70
     0
  9
$DIMARCSYM
 70
     0
  9
$DIMLTYPE
  6

  9
$DIMLTEX1
  6

  9
$DIMLTEX2
  6

  9
$DIMTXTDIRECTION
 70
     0
  9
$LUNITS
 70
     2
  9
$LUPREC
 70
     4
  9
$SKETCHINC
 40
0.1
  9
$FILLETRAD
 40
0.5
  9
$AUNITS
 70
     0
  9
$AUPREC
 70
     0
  9
$MENU
  1
.
  9
$ELEVATION
 40
0.0
  9
$PELEVATION
 40
0.0
  9
$THICKNESS
 40
0.0
  9
$LIMCHECK
 70
     0
  9
$CHAMFERA
 40
0.5
  9
$CHAMFERB
 40
0.5
  9
$CHAMFERC
 40
1.0
  9
$CHAMFERD
 40
0.0
  9
$SKPOLY
 70
     0
  9
$TDCREATE
 40
2459393.930795486
  9
$TDUCREATE
 40
2459393.805795486
  9
$TDUPDATE
 40
2459393.930795509
  9
$TDUUPDATE
 40
2459393.805795509
  9
$TDINDWG
 40
0.0000000116
  9
$TDUSRTIMER
 40
0.0000000116
  9
$USRTIMER
 70
     1
  9
$ANGBASE
 50
0.0
  9
$ANGDIR
 70
     0
  9
$PDMODE
 70
     0
  9
$PDSIZE
 40
0.0
  9
$PLINEWID
 40
0.0
  9
$SPLFRAME
 70
     0
  9
$SPLINETYPE
 70
     6
  9
$SPLINESEGS
 70
     8
  9
$HANDSEED
  5
51
  9
$SURFTAB1
 70
     6
  9
$SURFTAB2
 70
     6
  9
$SURFTYPE
 70
     6
  9
$SURFU
 70
     6
  9
$SURFV
 70
     6
  9
$UCSBASE
  2

  9
$UCSNAME
  2

  9
$UCSORG
 10
0.0
 20
0.0
 30
0.0
  9
$UCSXDIR
 10
1.0
 20
0.0
 30
0.0
  9
$UCSYDIR
 10
0.0
 20
1.0
 30
0.0
  9
$UCSORTHOREF
  2

  9
$UCSORTHOVIEW
 70
     0
  9
$UCSORGTOP
 10
0.0
 20
0.0
 30
0.0
  9
$UCSORGBOTTOM
 10
0.0
 20
0.0
 30
0.0
  9
$UCSORGLEFT
 10
0.0
 20
0.0
 30
0.0
  9
$UCSORGRIGHT
 10
0.0
 20
0.0
 30
0.0
  9
$UCSORGFRONT
 10
0.0
 20
0.0
 30
0.0
  9
$UCSORGBACK
 10
0.0
 20
0.0
 30
0.0
  9
$PUCSBASE
  2

  9
$PUCSNAME
  2

  9
$PUCSORG
 10
0.0
 20
0.0
 30
0.0
  9
$PUCSXDIR
 10
1.0
 20
0.0
 30
0.0
  9
$PUCSYDIR
 10
0.0
 20
1.0
 30
0.0
  9
$PUCSORTHOREF
  2

  9
$PUCSORTHOVIEW
 70
     0
  9
$PUCSORGTOP
 10
0.0
 20
0.0
 30
0.0
  9
$PUCSORGBOTTOM
 10
0.0
 20
0.0
 30
0.0
  9
$PUCSORGLEFT
 10
0.0
 20
0.0
 30
0.0
  9
$PUCSORGRIGHT
 10
0.0
 20
0.0
 30
0.0
  9
$PUCSORGFRONT
 10
0.0
 20
0.0
 30
0.0
  9
$PUCSORGBACK
 10
0.0
 20
0.0
 30
0.0
  9
$USERI1
 70
     0
  9
$USERI2
 70
     0
  9
$USERI3
 70
     0
  9
$USERI4
 70
     0
  9
$USERI5
 70
     0
  9
$USERR1
 40
0.0
  9
$USERR2
 40
0.0
  9
$USERR3
 40
0.0
  9
$USERR4
 40
0.0
  9
$USERR5
 40
0.0
  9
$WORLDVIEW
 70
     1
  9
$SHADEDGE
 70
     3
  9
$SHADEDIF
 70
    70
  9
$TILEMODE
 70
     1
  9
$MAXACTVP
 70
    64
  9
$PINSBASE
 10
0.0
 20
0.0
 30
0.0
  9
$PLIMCHECK
 70
     0
  9
$PEXTMIN
 10
1.000000000000000E+20
 20
1.000000000000000E+20
 30
1.000000000000000E+20
  9
$PEXTMAX
 10
-1.000000000000000E+20
 20
-1.000000000000000E+20
 30
-1.000000000000000E+20
  9
$PLIMMIN
 10
0.0
 20
0.0
  9
$PLIMMAX
 10
12.0
 20
9.0
  9
$UNITMODE
 70
     0
  9
$VISRETAIN
 70
     1
  9
$PLINEGEN
 70
     0
  9
$PSLTSCALE
 70
     1
  9
$TREEDEPTH
 70
  3020
  9
$CMLSTYLE
  2
Standard
  9
$CMLJUST
 70
     0
  9
$CMLSCALE
 40
1.0
  9
$PROXYGRAPHICS
 70
     1
  9
$MEASUREMENT
 70
     0
  9
$CELWEIGHT
370
    -1
  9
$ENDCAPS
280
     0
  9
$JOINSTYLE
280
     0
  9
$LWDISPLAY
290
     1
  9
$INSUNITS
 70
     0
  9
$HYPERLINKBASE
  1

  9
$STYLESHEET
  1

  9
$XEDIT
290
     1
  9
$CEPSNTYPE
380
     0
  9
$PSTYLEMODE
290
     1
  9
$FINGERPRINTGUID
  2
{12A9D6BB-8D88-426F-9276-B8918E87E7F1}
  9
$VERSIONGUID
  2
{FAEB1C32-E019-11D5-929B-00C0DF256EC4}
  9
$EXTNAMES
290
     1
  9
$PSVPSCALE
 40
0.0
  9
$OLESTARTUP
290
     0
  9
$SORTENTS
280
   127
  9
$INDEXCTL
280
     0
  9
$HIDETEXT
280
     1
  9
$XCLIPFRAME
280
     2
  9
$HALOGAP
280
     0
  9
$OBSCOLOR
 70
   257
  9
$OBSLTYPE
280
     0
  9
$INTERSECTIONDISPLAY
280
     0
  9
$INTERSECTIONCOLOR
 70
   257
  9
$DIMASSOC
280
     2
  9
$PROJECTNAME
  1

  9
$CAMERADISPLAY
290
     0
  9
$LENSLENGTH
 40
50.0
  9
$CAMERAHEIGHT
 40
0.0
  9
$STEPSPERSEC
 40
2.0
  9
$STEPSIZE
 40
6.0
  9
$3DDWFPREC
 40
2.0
  9
$PSOLWIDTH
 40
0.25
  9
$PSOLHEIGHT
 40
4.0
  9
$LOFTANG1
 40
1.570796326794897
  9
$LOFTANG2
 40
1.570796326794897
  9
$LOFTMAG1
 40
0.0
  9
$LOFTMAG2
 40
0.0
  9
$LOFTPARAM
 70
     7
  9
$LOFTNORMALS
280
     1
  9
$LATITUDE
 40
37.795
  9
$LONGITUDE
 40
-122.394
  9
$NORTHDIRECTION
 40
0.0
  9
$TIMEZONE
 70
 -8000
  9
$LIGHTGLYPHDISPLAY
280
     1
  9
$TILEMODELIGHTSYNCH
280
     1
  9
$CMATERIAL
347
3C
  9
$SOLIDHIST
280
     1
  9
$SHOWHIST
280
     1
  9
$DWFFRAME
280
     2
  9
$DGNFRAME
280
     2
  9
$REALWORLDSCALE
290
     1
  9
$INTERFERECOLOR
 62
   256
  9
$CSHADOW
280
     0
  9
$SHADOWPLANELOCATION
 40
0.0
  0
ENDSEC
  0
SECTION
  2
CLASSES
  0
CLASS
  1
ACDBDICTIONARYWDFLT
  2
AcDbDictionaryWithDefault
  3
ObjectDBX Classes
 90
        0
 91
        4
280
     0
281
     0
  0
CLASS
  1
VISUALSTYLE
  2
AcDbVisualStyle
  3
ObjectDBX Classes
 90
     4095
 91
        4
280
     0
281
     0
  0
CLASS
  1
MATERIAL
  2
AcDbMaterial
  3
ObjectDBX Classes
 90
     1153
 91
        4
280
     0
281
     0
  0
CLASS
  1
SUN
  2
AcDbSun
  3
SCENEOE
 90
     1024
 91
        4
280
     0
281
     0
  0
ENDSEC
  0
SECTION
  2
TABLES
  0
TABLE
  2
VPORT
  5
8
330
0
100
AcDbSymbolTable
 70
     1
  0
VPORT
  5
29
330
8
100
AcDbSymbolTableRecord
100
AcDbViewportTableRecord
  2
*Active
 70
     0
 10
0.0
 20
0.0
 11
1.0
 21
1.0
 12
0.0
 22
0.0
 13
0.0
 23
0.0
 14
0.5
 24
0.5
 15
0.5
 25
0.5
 16
0.0
 26
0.0
 36
1.0
 17
999.9024390243908
 27
-999.8282915301843
 37
0.0
 40
651.0399149989353
 41
1.535666751906112
 42
50.0
 43
0.0
 44
0.0
 50
0.0
 51
0.0
 71
     0
 72
   100
 73
     1
 74
     3
 75
     0
 76
     0
 77
     0
 78
     0
281
     0
 65
     1
110
0.0
120
0.0
130
0.0
111
1.0
121
0.0
131
0.0
112
0.0
122
1.0
132
0.0
 79
     0
146
0.0
 60
     3
 61
     5
292
     1
282
     1
141
0.0
142
0.0
 63
   250
361
3F
  0
ENDTAB
  0
TABLE
  2
LTYPE
  5
5
330
0
100
AcDbSymbolTable
 70
     1
  0
LTYPE
  5
14
330
5
100
AcDbSymbolTableRecord
100
AcDbLinetypeTableRecord
  2
ByBlock
 70
     0
  3

 72
    65
 73
     0
 40
0.0
  0
LTYPE
  5
15
330
5
100
AcDbSymbolTableRecord
100
AcDbLinetypeTableRecord
  2
ByLayer
 70
     0
  3

 72
    65
 73
     0
 40
0.0
  0
LTYPE
  5
16
330
5
100
AcDbSymbolTableRecord
100
AcDbLinetypeTableRecord
  2
Continuous
 70
     0
  3
Solid line
 72
    65
 73
     0
 40
0.0
  0
ENDTAB
  0
TABLE
  2
LAYER
  5
2
330
0
100
AcDbSymbolTable
 70
     2
  0
LAYER
  5
10
330
2
100
AcDbSymbolTableRecord
100
AcDbLayerTableRecord
  2
0
 70
     0
 62
     7
  6
Continuous
370
    -3
390
F
347
3E
  0
LAYER
  5
40
330
2
100
AcDbSymbolTableRecord
100
AcDbLayerTableRecord
  2
katman 1
 70
     0
 62
     7
  6
Continuous
370
    -3
390
F
347
3E
  0
ENDTAB
  0
TABLE
  2
STYLE
  5
3
330
0
100
AcDbSymbolTable
 70
     1
  0
STYLE
  5
11
330
3
100
AcDbSymbolTableRecord
100
AcDbTextStyleTableRecord
  2
Standard
 70
     0
 40
0.0
 41
1.0
 50
0.0
 71
     0
 42
0.2
  3
txt
  4

  0
ENDTAB
  0
TABLE
  2
VIEW
  5
6
330
0
100
AcDbSymbolTable
 70
     0
  0
ENDTAB
  0
TABLE
  2
UCS
  5
7
330
0
100
AcDbSymbolTable
 70
     0
  0
ENDTAB
  0
TABLE
  2
APPID
  5
9
330
0
100
AcDbSymbolTable
 70
     1
  0
APPID
  5
12
330
9
100
AcDbSymbolTableRecord
100
AcDbRegAppTableRecord
  2
ACAD
 70
     0
  0
ENDTAB
  0
TABLE
  2
DIMSTYLE
  5
A
330
0
100
AcDbSymbolTable
 70
     1
100
AcDbDimStyleTable
  0
DIMSTYLE
105
27
330
A
100
AcDbSymbolTableRecord
100
AcDbDimStyleTableRecord
  2
Standard
 70
     0
178
     0
340
11
  0
ENDTAB
  0
TABLE
  2
BLOCK_RECORD
  5
1
330
0
100
AcDbSymbolTable
 70
     2
  0
BLOCK_RECORD
  5
1F
330
1
100
AcDbSymbolTableRecord
100
AcDbBlockTableRecord
  2
*Model_Space
340
22
 70
     0
280
     1
281
     0
  0
BLOCK_RECORD
  5
1B
330
1
100
AcDbSymbolTableRecord
100
AcDbBlockTableRecord
  2
*Paper_Space
340
1E
 70
     0
280
     1
281
     0
  0
BLOCK_RECORD
  5
23
330
1
100
AcDbSymbolTableRecord
100
AcDbBlockTableRecord
  2
*Paper_Space0
340
26
 70
     0
280
     1
281
     0
  0
BLOCK_RECORD
  5
41
330
1
100
AcDbSymbolTableRecord
100
AcDbBlockTableRecord
  2
block 2
340
0
102
{BLKREFS
331
42
102
}
 70
     0
280
     1
281
     0
  0
ENDTAB
  0
ENDSEC
  0
SECTION
  2
BLOCKS
  0
BLOCK
  5
20
330
1F
100
AcDbEntity
  8
0
100
AcDbBlockBegin
  2
*Model_Space
 70
     0
 10
0.0
 20
0.0
 30
0.0
  3
*Model_Space
  1

  0
ENDBLK
  5
21
330
1F
100
AcDbEntity
  8
0
100
AcDbBlockEnd
  0
BLOCK
  5
1C
330
1B
100
AcDbEntity
 67
     1
  8
0
100
AcDbBlockBegin
  2
*Paper_Space
 70
     0
 10
0.0
 20
0.0
 30
0.0
  3
*Paper_Space
  1

  0
ENDBLK
  5
1D
330
1B
100
AcDbEntity
 67
     1
  8
0
100
AcDbBlockEnd
  0
BLOCK
  5
24
330
23
100
AcDbEntity
  8
0
100
AcDbBlockBegin
  2
*Paper_Space0
 70
     0
 10
0.0
 20
0.0
 30
0.0
  3
*Paper_Space0
  1

  0
ENDBLK
  5
25
330
23
100
AcDbEntity
  8
0
100
AcDbBlockEnd
  0
BLOCK
  5
43
330
41
100
AcDbEntity
  8
0
100
AcDbBlockBegin
  2
block 2
 70
     0
 10
0.0
 20
0.0
 30
0.0
  3
block 2
  1

  0
SPLINE
  5
45
330
41
100
AcDbEntity
  8
katman 1
370
     0
100
AcDbSpline
210
0.0
220
0.0
230
1.0
 70
    11
 71
     3
 72
    35
 73
    31
 74
     0
 42
0.0000000001
 43
0.0000000001
 12
1.0
 22
0.0
 32
0.0
 13
1.0
 23
0.0
 33
0.0
 40
0.0
 40
0.0
 40
0.0
 40
0.0
 40
1.0
 40
1.0
 40
1.0
 40
2.0
 40
2.0
 40
2.0
 40
3.0
 40
3.0
 40
3.0
 40
4.0
 40
4.0
 40
4.0
 40
5.0
 40
5.0
 40
5.0
 40
6.0
 40
6.0
 40
6.0
 40
7.0
 40
7.0
 40
7.0
 40
8.0
 40
8.0
 40
8.0
 40
9.0
 40
9.0
 40
9.0
 40
10.0
 40
10.0
 40
10.0
 40
10.0
 10
500.0122632105677
 20
-1323.220879138062
 30
0.0
 10
500.0122632105677
 20
-1107.625574479393
 30
0.0
 10
500.0122632105677
 20
-892.030254566982
 30
0.0
 10
500.0122632105677
 20
-676.4349346545714
 30
0.0
 10
501.5330038808506
 20
-674.9054897328269
 30
0.0
 10
503.4663106958005
 20
-674.5276202523755
 30
0.0
 10
505.5123194389016
 20
-674.467118196223
 30
0.0
 10
507.3447921026063
 20
-674.4129292820426
 30
0.0
 10
509.1778644956976
 20
-674.4278989219174
 30
0.0
 10
511.010724266127
 20
-674.4278932017642
 30
0.0
 10
836.9385468178334
 20
-674.4268178130378
 30
0.0
 10
1162.866331230947
 20
-674.4238376134299
 30
0.0
 10
1488.794176665808
 20
-674.4644506983013
 30
0.0
 10
1492.527853459918
 20
-674.4649159373957
 30
0.0
 10
1496.543084608424
 20
-673.483801049505
 30
0.0
 10
1499.792614838214
 20
-676.4349346545714
 30
0.0
 10
1499.792614838214
 20
-892.030254566982
 30
0.0
 10
1499.792614838214
 20
-1107.625574479393
 30
0.0
 10
1499.792614838214
 20
-1323.220879138062
 30
0.0
 10
1498.271952828778
 20
-1324.75040223523
 30
0.0
 10
1496.338661745998
 20
-1325.128145872321
 30
0.0
 10
1494.292663491011
 20
-1325.188733730763
 30
0.0
 10
1492.460241360943
 20
-1325.242854003111
 30
0.0
 10
1490.627147991625
 20
-1325.228027367055
 30
0.0
 10
1488.794298709308
 20
-1325.228027367055
 30
0.0
 10
1162.870541731696
 20
-1325.229064621431
 30
0.0
 10
836.9467847540809
 20
-1325.232054354627
 30
0.0
 10
511.0230163348888
 20
-1325.19135737418
 30
0.0
 10
507.28549898439
 20
-1325.190869254475
 30
0.0
 10
503.2658208758558
 20
-1326.17473553586
 30
0.0
 10
500.0122632105677
 20
-1323.220879138062
 30
0.0
  0
HATCH
  5
46
330
41
100
AcDbEntity
  8
katman 1
 62
     7
420
 16777215
100
AcDbHatch
 10
0.0
 20
0.0
 30
0.0
210
0.0
220
0.0
230
1.0
  2
SOLID
 70
     1
 71
     0
 91
        1
 92
        1
 93
        1
 72
     4
 94
        3
 73
     0
 74
     1
 95
       35
 96
       31
 40
0.0
 40
0.0
 40
0.0
 40
0.0
 40
1.0
 40
1.0
 40
1.0
 40
2.0
 40
2.0
 40
2.0
 40
3.0
 40
3.0
 40
3.0
 40
4.0
 40
4.0
 40
4.0
 40
5.0
 40
5.0
 40
5.0
 40
6.0
 40
6.0
 40
6.0
 40
7.0
 40
7.0
 40
7.0
 40
8.0
 40
8.0
 40
8.0
 40
9.0
 40
9.0
 40
9.0
 40
10.0
 40
10.0
 40
10.0
 40
10.0
 10
500.0122632105677
 20
-1323.220879138062
 10
500.0122632105677
 20
-1107.625574479393
 10
500.0122632105677
 20
-892.030254566982
 10
500.0122632105677
 20
-676.4349346545714
 10
501.5330038808506
 20
-674.9054897328269
 10
503.4663106958005
 20
-674.5276202523755
 10
505.5123194389016
 20
-674.467118196223
 10
507.3447921026063
 20
-674.4129292820426
 10
509.1778644956976
 20
-674.4278989219174
 10
511.010724266127
 20
-674.4278932017642
 10
836.9385468178334
 20
-674.4268178130378
 10
1162.866331230947
 20
-674.4238376134299
 10
1488.794176665808
 20
-674.4644506983013
 10
1492.527853459918
 20
-674.4649159373957
 10
1496.543084608424
 20
-673.483801049505
 10
1499.792614838214
 20
-676.4349346545714
 10
1499.792614838214
 20
-892.030254566982
 10
1499.792614838214
 20
-1107.625574479393
 10
1499.792614838214
 20
-1323.220879138062
 10
1498.271952828778
 20
-1324.75040223523
 10
1496.338661745998
 20
-1325.128145872321
 10
1494.292663491011
 20
-1325.188733730763
 10
1492.460241360943
 20
-1325.242854003111
 10
1490.627147991625
 20
-1325.228027367055
 10
1488.794298709308
 20
-1325.228027367055
 10
1162.870541731696
 20
-1325.229064621431
 10
836.9467847540809
 20
-1325.232054354627
 10
511.0230163348888
 20
-1325.19135737418
 10
507.28549898439
 20
-1325.190869254475
 10
503.2658208758558
 20
-1326.17473553586
 10
500.0122632105677
 20
-1323.220879138062
 97
        0
 97
        0
 75
     2
 76
     1
 98
        0
  0
SPLINE
  5
47
330
41
100
AcDbEntity
  8
katman 1
370
     0
100
AcDbSpline
210
0.0
220
0.0
230
1.0
 70
    11
 71
     3
 72
    62
 73
    58
 74
     0
 42
0.0000000001
 43
0.0000000001
 12
1.0
 22
0.0
 32
0.0
 13
1.0
 23
0.0
 33
0.0
 40
0.0
 40
0.0
 40
0.0
 40
0.0
 40
1.0
 40
1.0
 40
1.0
 40
2.0
 40
2.0
 40
2.0
 40
3.0
 40
3.0
 40
3.0
 40
4.0
 40
4.0
 40
4.0
 40
5.0
 40
5.0
 40
5.0
 40
6.0
 40
6.0
 40
6.0
 40
7.0
 40
7.0
 40
7.0
 40
8.0
 40
8.0
 40
8.0
 40
9.0
 40
9.0
 40
9.0
 40
10.0
 40
10.0
 40
10.0
 40
11.0
 40
11.0
 40
11.0
 40
12.0
 40
12.0
 40
12.0
 40
13.0
 40
13.0
 40
13.0
 40
14.0
 40
14.0
 40
14.0
 40
15.0
 40
15.0
 40
15.0
 40
16.0
 40
16.0
 40
16.0
 40
17.0
 40
17.0
 40
17.0
 40
18.0
 40
18.0
 40
18.0
 40
19.0
 40
19.0
 40
19.0
 40
19.0
 10
1389.958651727869
 20
-933.7028795276692
 30
0.0
 10
1389.273133388624
 20
-999.6789998786599
 30
0.0
 10
1370.901742275217
 20
-1064.025959697599
 30
0.0
 10
1331.640043231087
 20
-1121.821407336876
 30
0.0
 10
1315.744731666509
 20
-1145.220157599306
 30
0.0
 10
1295.220493213903
 20
-1163.626175454086
 30
0.0
 10
1268.077164519513
 20
-1173.709935375078
 30
0.0
 10
1256.59201686929
 20
-1177.976711750729
 30
0.0
 10
1244.487437435047
 20
-1179.268215476503
 30
0.0
 10
1232.6630698767
 20
-1181.775747418593
 30
0.0
 10
1212.042478080883
 20
-1186.148567800261
 30
0.0
 10
1206.59445624291
 20
-1194.950525374625
 30
0.0
 10
1203.943183249898
 20
-1214.527725447777
 30
0.0
 10
1201.857276770425
 20
-1229.92979361998
 30
0.0
 10
1201.49175648806
 20
-1245.354010223822
 30
0.0
 10
1202.669476262621
 20
-1260.833018264606
 30
0.0
 10
1202.898246803288
 20
-1263.840262755195
 30
0.0
 10
1203.051777526231
 20
-1266.855073101215
 30
0.0
 10
1201.512686948303
 20
-1269.605993731457
 30
0.0
 10
1199.946502713387
 20
-1272.405360242465
 30
0.0
 10
1197.640917933995
 20
-1274.290905649828
 30
0.0
 10
1194.293142686742
 20
-1274.083393760029
 30
0.0
 10
1190.943414743489
 20
-1273.875820855268
 30
0.0
 10
1188.948674758482
 20
-1271.797163089421
 30
0.0
 10
1187.816416187654
 20
-1268.704131560593
 30
0.0
 10
1186.991158040961
 20
-1266.449872730693
 30
0.0
 10
1186.94185246698
 20
-1264.147839184618
 30
0.0
 10
1186.980784343465
 20
-1261.814077857685
 30
0.0
 10
1187.211690645379
 20
-1247.978324805448
 30
0.0
 10
1189.118437266919
 20
-1234.284736617439
 30
0.0
 10
1190.391595058445
 20
-1220.534099438846
 30
0.0
 10
1191.843546577404
 20
-1204.852765780135
 30
0.0
 10
1191.966322338358
 20
-1189.24812793015
 30
0.0
 10
1184.949431308472
 20
-1174.526620657332
 30
0.0
 10
1182.052850880551
 20
-1168.449469308965
 30
0.0
 10
1178.323018456689
 20
-1163.264356722389
 30
0.0
 10
1172.687232694039
 20
-1159.159910656294
 30
0.0
 10
1145.901430432765
 20
-1139.651993073843
 30
0.0
 10
1129.825860618752
 20
-1112.487155223673
 30
0.0
 10
1120.170755250347
 20
-1081.58057475607
 30
0.0
 10
1093.523106231023
 20
-996.2790630850022
 30
0.0
 10
1106.075036114347
 20
-916.3437259037664
 30
0.0
 10
1155.077270976846
 20
-841.9993880979673
 30
0.0
 10
1171.336394214792
 20
-817.3316791386605
 30
0.0
 10
1192.252453324003
 20
-796.8908122616012
 30
0.0
 10
1215.121818649985
 20
-778.2860991792031
 30
0.0
 10
1228.300380883826
 20
-767.5650532214668
 30
0.0
 10
1242.112592969432
 20
-767.8669094980924
 30
0.0
 10
1256.740238699984
 20
-773.9271139404345
 30
0.0
 10
1258.620684947284
 20
-774.706152990404
 30
0.0
 10
1260.382321847377
 20
-775.2665372929232
 30
0.0
 10
1262.449067497357
 20
-775.2773979563699
 30
0.0
 10
1313.561312430571
 20
-775.5456883763727
 30
0.0
 10
1354.874867817685
 20
-803.5487650445439
 30
0.0
 10
1374.787729357269
 20
-851.0866363864507
 30
0.0
 10
1385.379396544326
 20
-876.3720455793191
 30
0.0
 10
1388.702091852338
 20
-902.9584158172565
 30
0.0
 10
1389.958651727869
 20
-933.7028795276692
 30
0.0
  0
HATCH
  5
48
330
41
100
AcDbEntity
  8
katman 1
 62
    83
420
  7850352
100
AcDbHatch
 10
0.0
 20
0.0
 30
0.0
210
0.0
220
0.0
230
1.0
  2
SOLID
 70
     1
 71
     0
 91
        1
 92
        1
 93
        1
 72
     4
 94
        3
 73
     0
 74
     1
 95
       62
 96
       58
 40
0.0
 40
0.0
 40
0.0
 40
0.0
 40
1.0
 40
1.0
 40
1.0
 40
2.0
 40
2.0
 40
2.0
 40
3.0
 40
3.0
 40
3.0
 40
4.0
 40
4.0
 40
4.0
 40
5.0
 40
5.0
 40
5.0
 40
6.0
 40
6.0
 40
6.0
 40
7.0
 40
7.0
 40
7.0
 40
8.0
 40
8.0
 40
8.0
 40
9.0
 40
9.0
 40
9.0
 40
10.0
 40
10.0
 40
10.0
 40
11.0
 40
11.0
 40
11.0
 40
12.0
 40
12.0
 40
12.0
 40
13.0
 40
13.0
 40
13.0
 40
14.0
 40
14.0
 40
14.0
 40
15.0
 40
15.0
 40
15.0
 40
16.0
 40
16.0
 40
16.0
 40
17.0
 40
17.0
 40
17.0
 40
18.0
 40
18.0
 40
18.0
 40
19.0
 40
19.0
 40
19.0
 40
19.0
 10
1389.958651727869
 20
-933.7028795276692
 10
1389.273133388624
 20
-999.6789998786599
 10
1370.901742275217
 20
-1064.025959697599
 10
1331.640043231087
 20
-1121.821407336876
 10
1315.744731666509
 20
-1145.220157599306
 10
1295.220493213903
 20
-1163.626175454086
 10
1268.077164519513
 20
-1173.709935375078
 10
1256.59201686929
 20
-1177.976711750729
 10
1244.487437435047
 20
-1179.268215476503
 10
1232.6630698767
 20
-1181.775747418593
 10
1212.042478080883
 20
-1186.148567800261
 10
1206.59445624291
 20
-1194.950525374625
 10
1203.943183249898
 20
-1214.527725447777
 10
1201.857276770425
 20
-1229.92979361998
 10
1201.49175648806
 20
-1245.354010223822
 10
1202.669476262621
 20
-1260.833018264606
 10
1202.898246803288
 20
-1263.840262755195
 10
1203.051777526231
 20
-1266.855073101215
 10
1201.512686948303
 20
-1269.605993731457
 10
1199.946502713387
 20
-1272.405360242465
 10
1197.640917933995
 20
-1274.290905649828
 10
1194.293142686742
 20
-1274.083393760029
 10
1190.943414743489
 20
-1273.875820855268
 10
1188.948674758482
 20
-1271.797163089421
 10
1187.816416187654
 20
-1268.704131560593
 10
1186.991158040961
 20
-1266.449872730693
 10
1186.94185246698
 20
-1264.147839184618
 10
1186.980784343465
 20
-1261.814077857685
 10
1187.211690645379
 20
-1247.978324805448
 10
1189.118437266919
 20
-1234.284736617439
 10
1190.391595058445
 20
-1220.534099438846
 10
1191.843546577404
 20
-1204.852765780135
 10
1191.966322338358
 20
-1189.24812793015
 10
1184.949431308472
 20
-1174.526620657332
 10
1182.052850880551
 20
-1168.449469308965
 10
1178.323018456689
 20
-1163.264356722389
 10
1172.687232694039
 20
-1159.159910656294
 10
1145.901430432765
 20
-1139.651993073843
 10
1129.825860618752
 20
-1112.487155223673
 10
1120.170755250347
 20
-1081.58057475607
 10
1093.523106231023
 20
-996.2790630850022
 10
1106.075036114347
 20
-916.3437259037664
 10
1155.077270976846
 20
-841.9993880979673
 10
1171.336394214792
 20
-817.3316791386605
 10
1192.252453324003
 20
-796.8908122616012
 10
1215.121818649985
 20
-778.2860991792031
 10
1228.300380883826
 20
-767.5650532214668
 10
1242.112592969432
 20
-767.8669094980924
 10
1256.740238699984
 20
-773.9271139404345
 10
1258.620684947284
 20
-774.706152990404
 10
1260.382321847377
 20
-775.2665372929232
 10
1262.449067497357
 20
-775.2773979563699
 10
1313.561312430571
 20
-775.5456883763727
 10
1354.874867817685
 20
-803.5487650445439
 10
1374.787729357269
 20
-851.0866363864507
 10
1385.379396544326
 20
-876.3720455793191
 10
1388.702091852338
 20
-902.9584158172565
 10
1389.958651727869
 20
-933.7028795276692
 97
        0
 97
        0
 75
     2
 76
     1
 98
        0
  0
SPLINE
  5
49
330
41
100
AcDbEntity
  8
katman 1
370
     0
100
AcDbSpline
210
0.0
220
0.0
230
1.0
 70
    11
 71
     3
 72
   113
 73
   109
 74
     0
 42
0.0000000001
 43
0.0000000001
 12
1.0
 22
0.0
 32
0.0
 13
1.0
 23
0.0
 33
0.0
 40
0.0
 40
0.0
 40
0.0
 40
0.0
 40
1.0
 40
1.0
 40
1.0
 40
2.0
 40
2.0
 40
2.0
 40
3.0
 40
3.0
 40
3.0
 40
4.0
 40
4.0
 40
4.0
 40
5.0
 40
5.0
 40
5.0
 40
6.0
 40
6.0
 40
6.0
 40
7.0
 40
7.0
 40
7.0
 40
8.0
 40
8.0
 40
8.0
 40
9.0
 40
9.0
 40
9.0
 40
10.0
 40
10.0
 40
10.0
 40
11.0
 40
11.0
 40
11.0
 40
12.0
 40
12.0
 40
12.0
 40
13.0
 40
13.0
 40
13.0
 40
14.0
 40
14.0
 40
14.0
 40
15.0
 40
15.0
 40
15.0
 40
16.0
 40
16.0
 40
16.0
 40
17.0
 40
17.0
 40
17.0
 40
18.0
 40
18.0
 40
18.0
 40
19.0
 40
19.0
 40
19.0
 40
20.0
 40
20.0
 40
20.0
 40
21.0
 40
21.0
 40
21.0
 40
22.0
 40
22.0
 40
22.0
 40
23.0
 40
23.0
 40
23.0
 40
24.0
 40
24.0
 40
24.0
 40
25.0
 40
25.0
 40
25.0
 40
26.0
 40
26.0
 40
26.0
 40
27.0
 40
27.0
 40
27.0
 40
28.0
 40
28.0
 40
28.0
 40
29.0
 40
29.0
 40
29.0
 40
30.0
 40
30.0
 40
30.0
 40
31.0
 40
31.0
 40
31.0
 40
32.0
 40
32.0
 40
32.0
 40
33.0
 40
33.0
 40
33.0
 40
34.0
 40
34.0
 40
34.0
 40
35.0
 40
35.0
 40
35.0
 40
36.0
 40
36.0
 40
36.0
 40
36.0
 10
946.9617688857325
 20
-1094.837326315148
 30
0.0
 10
960.5572622262935
 20
-1094.837326315148
 30
0.0
 10
974.155257458604
 20
-1094.880036789378
 30
0.0
 10
987.7528865604154
 20
-1094.828692697854
 30
0.0
 10
1019.076144106499
 20
-1094.710415191719
 30
0.0
 10
1050.399645739584
 20
-1094.375107461525
 30
0.0
 10
1081.722293068167
 20
-1094.457996289017
 30
0.0
 10
1104.614602572143
 20
-1094.518553639977
 30
0.0
 10
1122.549444086213
 20
-1117.150864442337
 30
0.0
 10
1119.557120532576
 20
-1139.732227750432
 30
0.0
 10
1117.607048468552
 20
-1154.449097886049
 30
0.0
 10
1111.35964170588
 20
-1164.983880414919
 30
0.0
 10
1098.314534039237
 20
-1171.82329169838
 30
0.0
 10
1092.801585059291
 20
-1174.713631519498
 30
0.0
 10
1090.789453875541
 20
-1179.544491229815
 30
0.0
 10
1090.786829940291
 20
-1185.896392957413
 30
0.0
 10
1090.782497396043
 20
-1196.078570014022
 30
0.0
 10
1091.946975450859
 20
-1206.182342842942
 30
0.0
 10
1092.100384130303
 20
-1216.338954629977
 30
0.0
 10
1092.143282420537
 20
-1219.175113163787
 30
0.0
 10
1092.612966830111
 20
-1222.370771860697
 30
0.0
 10
1088.312092869963
 20
-1222.486273186008
 30
0.0
 10
1084.109830057778
 20
-1222.599211882869
 30
0.0
 10
1083.527865628246
 20
-1219.803567284613
 30
0.0
 10
1083.583212355476
 20
-1216.459459182272
 30
0.0
 10
1083.748398232663
 20
-1206.465757346941
 30
0.0
 10
1084.021287498561
 20
-1196.469919987903
 30
0.0
 10
1083.948488550839
 20
-1186.477133377022
 30
0.0
 10
1083.870136623867
 20
-1175.721049576678
 30
0.0
 10
1080.093927670023
 20
-1172.101397900584
 30
0.0
 10
1069.377898156516
 20
-1172.125986930747
 30
0.0
 10
1023.891858571205
 20
-1172.230139472907
 30
0.0
 10
978.4059715402709
 20
-1172.367484155042
 30
0.0
 10
932.9199929767119
 20
-1172.502022148867
 30
0.0
 10
922.256503189933
 20
-1172.533566884835
 30
0.0
 10
911.5302220224285
 20
-1172.789890745182
 30
0.0
 10
901.314845456608
 20
-1169.10782076175
 30
0.0
 10
877.980707971923
 20
-1160.69709113134
 30
0.0
 10
866.561128192051
 20
-1142.853966819439
 30
0.0
 10
862.9867486762578
 20
-1119.311404288779
 30
0.0
 10
859.5217811581733
 20
-1096.489031876095
 30
0.0
 10
868.2140548445605
 20
-1076.33829114899
 30
0.0
 10
878.5358228314662
 20
-1057.017720011001
 30
0.0
 10
891.1631450868881
 20
-1033.381469004369
 30
0.0
 10
909.8780581417932
 20
-1014.512530623892
 30
0.0
 10
929.0927698398873
 20
-996.2128618499446
 30
0.0
 10
946.2138558071356
 20
-979.9071315654619
 30
0.0
 10
964.708053192373
 20
-965.0588657066219
 30
0.0
 10
980.7417620859014
 20
-947.5970238996761
 30
0.0
 10
993.0727932343088
 20
-934.1676915172266
 30
0.0
 10
1002.978179310245
 20
-919.4673869441149
 30
0.0
 10
1006.268014405894
 20
-901.0189941974013
 30
0.0
 10
1009.820578646071
 20
-881.0971816121719
 30
0.0
 10
1001.291599162621
 20
-861.2383669764322
 30
0.0
 10
984.6840112214331
 20
-851.628357737105
 30
0.0
 10
972.4892721515998
 20
-844.5718552146263
 30
0.0
 10
956.8352405864298
 20
-846.6398658693979
 30
0.0
 10
948.1267656254231
 20
-856.587425138815
 30
0.0
 10
944.8494094776443
 20
-860.3311202350669
 30
0.0
 10
943.6047488433578
 20
-864.043529908945
 30
0.0
 10
946.5277821998934
 20
-869.1657360684758
 30
0.0
 10
954.3075671479965
 20
-882.7985838606355
 30
0.0
 10
950.9483808334971
 20
-902.0122567831186
 30
0.0
 10
939.1836925466287
 20
-915.4902791061913
 30
0.0
 10
934.9799041906945
 20
-920.3062206580062
 30
0.0
 10
930.2267065088399
 20
-924.4200020134676
 30
0.0
 10
924.6007452479353
 20
-927.4662960804944
 30
0.0
 10
918.7811314634773
 20
-930.6174138542765
 30
0.0
 10
916.3739149594994
 20
-935.4947974740207
 30
0.0
 10
915.7765120272215
 20
-942.0464011761287
 30
0.0
 10
914.9078674162956
 20
-951.5727589009275
 30
0.0
 10
914.8568532333138
 20
-960.9682700371714
 30
0.0
 10
916.6578186512688
 20
-970.3812619603686
 30
0.0
 10
917.2828949471605
 20
-973.6483996866509
 30
0.0
 10
917.2199205011839
 20
-976.8915280249175
 30
0.0
 10
912.8981771025437
 20
-977.7553168587538
 30
0.0
 10
909.0679944108451
 20
-978.5208410943769
 30
0.0
 10
906.8835988269084
 20
-976.0454030229248
 30
0.0
 10
907.5138009497987
 20
-971.1028859299795
 30
0.0
 10
909.0775748255919
 20
-958.8386952845449
 30
0.0
 10
909.3276114461232
 20
-946.555773045412
 30
0.0
 10
908.9861947550007
 20
-934.2100969166413
 30
0.0
 10
908.8524655899255
 20
-929.3749966663854
 30
0.0
 10
907.1541387554335
 20
-926.1928222763418
 30
0.0
 10
902.637430865615
 20
-924.6785529199724
 30
0.0
 10
880.7483494421422
 20
-917.3398561927543
 30
0.0
 10
871.5322040321998
 20
-899.8862971670605
 30
0.0
 10
868.1551383449578
 20
-879.0959213271262
 30
0.0
 10
861.3378799701213
 20
-837.1266873766472
 30
0.0
 10
884.6542601255624
 20
-797.357149625238
 30
0.0
 10
925.1833809167183
 20
-779.3233382996377
 30
0.0
 10
976.3005991225555
 20
-756.5782260840888
 30
0.0
 10
1030.294016491822
 20
-776.6571674532652
 30
0.0
 10
1060.043401062492
 20
-817.4182136102008
 30
0.0
 10
1087.014831487195
 20
-854.3730395873581
 30
0.0
 10
1090.639462414096
 20
-895.0207809576559
 30
0.0
 10
1076.287940102191
 20
-937.8728251567445
 30
0.0
 10
1067.585262207433
 20
-963.8580607236245
 30
0.0
 10
1052.239878653647
 20
-985.5144676972914
 30
0.0
 10
1033.399779478665
 20
-1005.008351838209
 30
0.0
 10
1015.780725520726
 20
-1023.238890658864
 30
0.0
 10
996.026459509334
 20
-1039.163033363577
 30
0.0
 10
977.8013375306218
 20
-1056.730431056836
 30
0.0
 10
966.8959880378079
 20
-1067.242271959545
 30
0.0
 10
955.9439569062615
 20
-1077.769793707797
 30
0.0
 10
948.3263372587244
 20
-1091.113979709116
 30
0.0
 10
947.701657604207
 20
-1092.20825256639
 30
0.0
 10
946.5698566965029
 20
-1093.19559670068
 30
0.0
 10
946.9617688857325
 20
-1094.837326315148
 30
0.0
  0
HATCH
  5
4A
330
41
100
AcDbEntity
  8
katman 1
 62
    83
420
  7850352
100
AcDbHatch
 10
0.0
 20
0.0
 30
0.0
210
0.0
220
0.0
230
1.0
  2
SOLID
 70
     1
 71
     0
 91
        1
 92
        1
 93
        1
 72
     4
 94
        3
 73
     0
 74
     1
 95
      113
 96
      109
 40
0.0
 40
0.0
 40
0.0
 40
0.0
 40
1.0
 40
1.0
 40
1.0
 40
2.0
 40
2.0
 40
2.0
 40
3.0
 40
3.0
 40
3.0
 40
4.0
 40
4.0
 40
4.0
 40
5.0
 40
5.0
 40
5.0
 40
6.0
 40
6.0
 40
6.0
 40
7.0
 40
7.0
 40
7.0
 40
8.0
 40
8.0
 40
8.0
 40
9.0
 40
9.0
 40
9.0
 40
10.0
 40
10.0
 40
10.0
 40
11.0
 40
11.0
 40
11.0
 40
12.0
 40
12.0
 40
12.0
 40
13.0
 40
13.0
 40
13.0
 40
14.0
 40
14.0
 40
14.0
 40
15.0
 40
15.0
 40
15.0
 40
16.0
 40
16.0
 40
16.0
 40
17.0
 40
17.0
 40
17.0
 40
18.0
 40
18.0
 40
18.0
 40
19.0
 40
19.0
 40
19.0
 40
20.0
 40
20.0
 40
20.0
 40
21.0
 40
21.0
 40
21.0
 40
22.0
 40
22.0
 40
22.0
 40
23.0
 40
23.0
 40
23.0
 40
24.0
 40
24.0
 40
24.0
 40
25.0
 40
25.0
 40
25.0
 40
26.0
 40
26.0
 40
26.0
 40
27.0
 40
27.0
 40
27.0
 40
28.0
 40
28.0
 40
28.0
 40
29.0
 40
29.0
 40
29.0
 40
30.0
 40
30.0
 40
30.0
 40
31.0
 40
31.0
 40
31.0
 40
32.0
 40
32.0
 40
32.0
 40
33.0
 40
33.0
 40
33.0
 40
34.0
 40
34.0
 40
34.0
 40
35.0
 40
35.0
 40
35.0
 40
36.0
 40
36.0
 40
36.0
 40
36.0
 10
946.9617688857325
 20
-1094.837326315148
 10
960.5572622262935
 20
-1094.837326315148
 10
974.155257458604
 20
-1094.880036789378
 10
987.7528865604154
 20
-1094.828692697854
 10
1019.076144106499
 20
-1094.710415191719
 10
1050.399645739584
 20
-1094.375107461525
 10
1081.722293068167
 20
-1094.457996289017
 10
1104.614602572143
 20
-1094.518553639977
 10
1122.549444086213
 20
-1117.150864442337
 10
1119.557120532576
 20
-1139.732227750432
 10
1117.607048468552
 20
-1154.449097886049
 10
1111.35964170588
 20
-1164.983880414919
 10
1098.314534039237
 20
-1171.82329169838
 10
1092.801585059291
 20
-1174.713631519498
 10
1090.789453875541
 20
-1179.544491229815
 10
1090.786829940291
 20
-1185.896392957413
 10
1090.782497396043
 20
-1196.078570014022
 10
1091.946975450859
 20
-1206.182342842942
 10
1092.100384130303
 20
-1216.338954629977
 10
1092.143282420537
 20
-1219.175113163787
 10
1092.612966830111
 20
-1222.370771860697
 10
1088.312092869963
 20
-1222.486273186008
 10
1084.109830057778
 20
-1222.599211882869
 10
1083.527865628246
 20
-1219.803567284613
 10
1083.583212355476
 20
-1216.459459182272
 10
1083.748398232663
 20
-1206.465757346941
 10
1084.021287498561
 20
-1196.469919987903
 10
1083.948488550839
 20
-1186.477133377022
 10
1083.870136623867
 20
-1175.721049576678
 10
1080.093927670023
 20
-1172.101397900584
 10
1069.377898156516
 20
-1172.125986930747
 10
1023.891858571205
 20
-1172.230139472907
 10
978.4059715402709
 20
-1172.367484155042
 10
932.9199929767119
 20
-1172.502022148867
 10
922.256503189933
 20
-1172.533566884835
 10
911.5302220224285
 20
-1172.789890745182
 10
901.314845456608
 20
-1169.10782076175
 10
877.980707971923
 20
-1160.69709113134
 10
866.561128192051
 20
-1142.853966819439
 10
862.9867486762578
 20
-1119.311404288779
 10
859.5217811581733
 20
-1096.489031876095
 10
868.2140548445605
 20
-1076.33829114899
 10
878.5358228314662
 20
-1057.017720011001
 10
891.1631450868881
 20
-1033.381469004369
 10
909.8780581417932
 20
-1014.512530623892
 10
929.0927698398873
 20
-996.2128618499446
 10
946.2138558071356
 20
-979.9071315654619
 10
964.708053192373
 20
-965.0588657066219
 10
980.7417620859014
 20
-947.5970238996761
 10
993.0727932343088
 20
-934.1676915172266
 10
1002.978179310245
 20
-919.4673869441149
 10
1006.268014405894
 20
-901.0189941974013
 10
1009.820578646071
 20
-881.0971816121719
 10
1001.291599162621
 20
-861.2383669764322
 10
984.6840112214331
 20
-851.628357737105
 10
972.4892721515998
 20
-844.5718552146263
 10
956.8352405864298
 20
-846.6398658693979
 10
948.1267656254231
 20
-856.587425138815
 10
944.8494094776443
 20
-860.3311202350669
 10
943.6047488433578
 20
-864.043529908945
 10
946.5277821998934
 20
-869.1657360684758
 10
954.3075671479965
 20
-882.7985838606355
 10
950.9483808334971
 20
-902.0122567831186
 10
939.1836925466287
 20
-915.4902791061913
 10
934.9799041906945
 20
-920.3062206580062
 10
930.2267065088399
 20
-924.4200020134676
 10
924.6007452479353
 20
-927.4662960804944
 10
918.7811314634773
 20
-930.6174138542765
 10
916.3739149594994
 20
-935.4947974740207
 10
915.7765120272215
 20
-942.0464011761287
 10
914.9078674162956
 20
-951.5727589009275
 10
914.8568532333138
 20
-960.9682700371714
 10
916.6578186512688
 20
-970.3812619603686
 10
917.2828949471605
 20
-973.6483996866509
 10
917.2199205011839
 20
-976.8915280249175
 10
912.8981771025437
 20
-977.7553168587538
 10
909.0679944108451
 20
-978.5208410943769
 10
906.8835988269084
 20
-976.0454030229248
 10
907.5138009497987
 20
-971.1028859299795
 10
909.0775748255919
 20
-958.8386952845449
 10
909.3276114461232
 20
-946.555773045412
 10
908.9861947550007
 20
-934.2100969166413
 10
908.8524655899255
 20
-929.3749966663854
 10
907.1541387554335
 20
-926.1928222763418
 10
902.637430865615
 20
-924.6785529199724
 10
880.7483494421422
 20
-917.3398561927543
 10
871.5322040321998
 20
-899.8862971670605
 10
868.1551383449578
 20
-879.0959213271262
 10
861.3378799701213
 20
-837.1266873766472
 10
884.6542601255624
 20
-797.357149625238
 10
925.1833809167183
 20
-779.3233382996377
 10
976.3005991225555
 20
-756.5782260840888
 10
1030.294016491822
 20
-776.6571674532652
 10
1060.043401062492
 20
-817.4182136102008
 10
1087.014831487195
 20
-854.3730395873581
 10
1090.639462414096
 20
-895.0207809576559
 10
1076.287940102191
 20
-937.8728251567445
 10
1067.585262207433
 20
-963.8580607236245
 10
1052.239878653647
 20
-985.5144676972914
 10
1033.399779478665
 20
-1005.008351838209
 10
1015.780725520726
 20
-1023.238890658864
 10
996.026459509334
 20
-1039.163033363577
 10
977.8013375306218
 20
-1056.730431056836
 10
966.8959880378079
 20
-1067.242271959545
 10
955.9439569062615
 20
-1077.769793707797
 10
948.3263372587244
 20
-1091.113979709116
 10
947.701657604207
 20
-1092.20825256639
 10
946.5698566965029
 20
-1093.19559670068
 10
946.9617688857325
 20
-1094.837326315148
 97
        0
 97
        0
 75
     2
 76
     1
 98
        0
  0
SPLINE
  5
4B
330
41
100
AcDbEntity
  8
katman 1
370
     0
100
AcDbSpline
210
0.0
220
0.0
230
1.0
 70
    11
 71
     3
 72
   128
 73
   124
 74
     0
 42
0.0000000001
 43
0.0000000001
 12
1.0
 22
0.0
 32
0.0
 13
1.0
 23
0.0
 33
0.0
 40
0.0
 40
0.0
 40
0.0
 40
0.0
 40
1.0
 40
1.0
 40
1.0
 40
2.0
 40
2.0
 40
2.0
 40
3.0
 40
3.0
 40
3.0
 40
4.0
 40
4.0
 40
4.0
 40
5.0
 40
5.0
 40
5.0
 40
6.0
 40
6.0
 40
6.0
 40
7.0
 40
7.0
 40
7.0
 40
8.0
 40
8.0
 40
8.0
 40
9.0
 40
9.0
 40
9.0
 40
10.0
 40
10.0
 40
10.0
 40
11.0
 40
11.0
 40
11.0
 40
12.0
 40
12.0
 40
12.0
 40
13.0
 40
13.0
 40
13.0
 40
14.0
 40
14.0
 40
14.0
 40
15.0
 40
15.0
 40
15.0
 40
16.0
 40
16.0
 40
16.0
 40
17.0
 40
17.0
 40
17.0
 40
18.0
 40
18.0
 40
18.0
 40
19.0
 40
19.0
 40
19.0
 40
20.0
 40
20.0
 40
20.0
 40
21.0
 40
21.0
 40
21.0
 40
22.0
 40
22.0
 40
22.0
 40
23.0
 40
23.0
 40
23.0
 40
24.0
 40
24.0
 40
24.0
 40
25.0
 40
25.0
 40
25.0
 40
26.0
 40
26.0
 40
26.0
 40
27.0
 40
27.0
 40
27.0
 40
28.0
 40
28.0
 40
28.0
 40
29.0
 40
29.0
 40
29.0
 40
30.0
 40
30.0
 40
30.0
 40
31.0
 40
31.0
 40
31.0
 40
32.0
 40
32.0
 40
32.0
 40
33.0
 40
33.0
 40
33.0
 40
34.0
 40
34.0
 40
34.0
 40
35.0
 40
35.0
 40
35.0
 40
36.0
 40
36.0
 40
36.0
 40
37.0
 40
37.0
 40
37.0
 40
38.0
 40
38.0
 40
38.0
 40
39.0
 40
39.0
 40
39.0
 40
40.0
 40
40.0
 40
40.0
 40
41.0
 40
41.0
 40
41.0
 40
41.0
 10
714.258712054524
 20
-1014.327472240544
 30
0.0
 10
699.4379935070438
 20
-1014.327472240544
 30
0.0
 10
684.6166952529393
 20
-1014.250532371967
 30
0.0
 10
669.7967547327708
 20
-1014.357766169767
 30
0.0
 10
661.574485820146
 20
-1014.417286266354
 30
0.0
 10
655.9256566584372
 20
-1020.754971507529
 30
0.0
 10
656.5166217960923
 20
-1028.907394291287
 30
0.0
 10
656.8414558266586
 20
-1033.388302680247
 30
0.0
 10
657.2614837871897
 20
-1037.864390887109
 30
0.0
 10
657.471764737611
 20
-1042.35051605542
 30
0.0
 10
657.5564171602673
 20
-1044.156680995675
 30
0.0
 10
657.2881808028051
 20
-1045.997990554726
 30
0.0
 10
657.0150169390317
 20
-1047.79820653607
 30
0.0
 10
656.555034987703
 20
-1050.829551937117
 30
0.0
 10
654.9047627813179
 20
-1052.642123448506
 30
0.0
 10
651.631983264786
 20
-1052.429516809283
 30
0.0
 10
648.3994170814904
 20
-1052.219472798512
 30
0.0
 10
647.5072485859473
 20
-1049.96496990876
 30
0.0
 10
647.4438469877214
 20
-1047.24412965537
 30
0.0
 10
647.2925283032146
 20
-1040.750917273032
 30
0.0
 10
647.2880126937171
 20
-1034.25434906772
 30
0.0
 10
647.1465032555197
 20
-1027.760831610565
 30
0.0
 10
646.9517218295923
 20
-1018.821346309178
 30
0.0
 10
644.6033913143419
 20
-1015.645670012713
 30
0.0
 10
636.2283849615233
 20
-1012.783183522286
 30
0.0
 10
618.816255757758
 20
-1006.831875535492
 30
0.0
 10
607.5652714453545
 20
-988.6390439620873
 30
0.0
 10
610.5050705276972
 20
-970.2447104727571
 30
0.0
 10
616.3280633915601
 20
-933.8102963703595
 30
0.0
 10
622.4622214139936
 20
-897.42560946296
 30
0.0
 10
628.4645572010395
 20
-861.019841885779
 30
0.0
 10
631.6822493327791
 20
-841.5037177907789
 30
0.0
 10
635.0375149998417
 20
-822.0088574104484
 30
0.0
 10
638.068022913525
 20
-802.4636901929707
 30
0.0
 10
641.2805281965166
 20
-781.7446408450023
 30
0.0
 10
660.9711180118084
 20
-767.4418182495701
 30
0.0
 10
682.1316607623021
 20
-770.7576840508273
 30
0.0
 10
703.2240269626345
 20
-774.0628722335259
 30
0.0
 10
717.5389514799899
 20
-792.8022300859366
 30
0.0
 10
714.2690094748332
 20
-813.9322914796721
 30
0.0
 10
708.9565169435618
 20
-848.2612012324198
 30
0.0
 10
703.0920216619961
 20
-882.5047052904456
 30
0.0
 10
697.4673418578404
 20
-916.7853827147947
 30
0.0
 10
696.5793228412967
 20
-922.1974709644255
 30
0.0
 10
695.8372068289473
 20
-927.6364973203044
 30
0.0
 10
694.8071139230187
 20
-933.0209152841308
 30
0.0
 10
694.360800843685
 20
-935.3537613866147
 30
0.0
 10
694.6309593862716
 20
-936.3627658328342
 30
0.0
 10
697.3205235273954
 20
-936.2950392236971
 30
0.0
 10
719.9654356015235
 20
-935.7244883029371
 30
0.0
 10
742.6117969422148
 20
-935.1953360346997
 30
0.0
 10
765.2603550659042
 20
-934.8053283900099
 30
0.0
 10
768.3958966667369
 20
-934.7513301475892
 30
0.0
 10
768.6443162108944
 20
-933.0959636888501
 30
0.0
 10
768.8480678340684
 20
-930.7249222194114
 30
0.0
 10
769.6739361982609
 20
-921.1146689202315
 30
0.0
 10
770.0270385545045
 20
-911.4359263248743
 30
0.0
 10
771.9553868755356
 20
-901.9610957364866
 30
0.0
 10
775.873745995952
 20
-882.7086325511573
 30
0.0
 10
790.6009182007165
 20
-870.673919182268
 30
0.0
 10
810.1848419970484
 20
-870.4825152427511
 30
0.0
 10
827.198743260461
 20
-870.316203706845
 30
0.0
 10
843.6625639587046
 20
-883.4914850363248
 30
0.0
 10
847.6177497052313
 20
-900.9058724556526
 30
0.0
 10
849.7630303474325
 20
-910.3511412943762
 30
0.0
 10
847.2960430393514
 20
-919.8195042966654
 30
0.0
 10
846.4696865011592
 20
-929.2203542421885
 30
0.0
 10
843.8310144995166
 20
-959.2387703981603
 30
0.0
 10
841.5885262096017
 20
-989.2823247189654
 30
0.0
 10
839.9861560769486
 20
-1019.370786052674
 30
0.0
 10
837.9578236185789
 20
-1057.457698910541
 30
0.0
 10
836.766892635148
 20
-1095.571702412064
 30
0.0
 10
836.6001507033352
 20
-1133.717281157034
 30
0.0
 10
836.5791287104676
 20
-1138.521385805991
 30
0.0
 10
835.751216117651
 20
-1143.322714274123
 30
0.0
 10
835.2830572518251
 20
-1148.123920712329
 30
0.0
 10
834.7417638186516
 20
-1153.67518409299
 30
0.0
 10
832.3176748008045
 20
-1158.313267027115
 30
0.0
 10
828.2493852406951
 20
-1162.056443496178
 30
0.0
 10
823.4251887527416
 20
-1166.495221053054
 30
0.0
 10
819.4151749638604
 20
-1171.457873083851
 30
0.0
 10
816.5379689415568
 20
-1177.432519294067
 30
0.0
 10
814.1526897566955
 20
-1182.385652990608
 30
0.0
 10
810.1514630998099
 20
-1182.571687613363
 30
0.0
 10
807.0966837850729
 20
-1177.957247977472
 30
0.0
 10
804.7307484949542
 20
-1174.383296508808
 30
0.0
 10
802.2741043734941
 20
-1174.380794895314
 30
0.0
 10
799.2506292164953
 20
-1176.79692642255
 30
0.0
 10
794.9559184530945
 20
-1180.228957086842
 30
0.0
 10
793.0582030505511
 20
-1184.208475015814
 30
0.0
 10
793.5587949764904
 20
-1190.160972794391
 30
0.0
 10
794.8858959949957
 20
-1205.94054054383
 30
0.0
 10
793.9160773226067
 20
-1221.778682657932
 30
0.0
 10
793.2866684824667
 20
-1237.587964694445
 30
0.0
 10
793.1483626861427
 20
-1241.06154654867
 30
0.0
 10
791.2358189983552
 20
-1242.855874586065
 30
0.0
 10
787.841331601494
 20
-1242.636037673703
 30
0.0
 10
784.2583480189542
 20
-1242.403936753741
 30
0.0
 10
783.1940981884754
 20
-1239.908241714511
 30
0.0
 10
783.2830984108168
 20
-1236.689824436336
 30
0.0
 10
783.6145685566935
 20
-1224.703678978141
 30
0.0
 10
783.9449403110702
 20
-1212.71753351995
 30
0.0
 10
784.2794310335712
 20
-1200.73144907672
 30
0.0
 10
784.418987775769
 20
-1195.731394873492
 30
0.0
 10
784.2270438612159
 20
-1190.791623453886
 30
0.0
 10
783.1166310768795
 20
-1185.854353647777
 30
0.0
 10
781.9037017525807
 20
-1180.460996991842
 30
0.0
 10
779.5637922388269
 20
-1175.797806400366
 30
0.0
 10
775.4008579445026
 20
-1172.205550442744
 30
0.0
 10
763.3717929258582
 20
-1161.825501860516
 30
0.0
 10
759.1417652174332
 20
-1147.956190578527
 30
0.0
 10
759.0916053389519
 20
-1132.927381443616
 30
0.0
 10
758.9620866746254
 20
-1094.120827602444
 30
0.0
 10
760.3470058012344
 20
-1055.337489954763
 30
0.0
 10
762.6599742123726
 20
-1016.597015318723
 30
0.0
 10
762.8614985416725
 20
-1013.222125167453
 30
0.0
 10
762.0363319276048
 20
-1012.344272384602
 30
0.0
 10
758.7199828815901
 20
-1012.379691570732
 30
0.0
 10
743.9005763017349
 20
-1012.537994892722
 30
0.0
 10
729.0785305311929
 20
-1012.448485941726
 30
0.0
 10
714.257430597775
 20
-1012.448485941726
 30
0.0
 10
714.2578577500244
 20
-1013.074804538839
 30
0.0
 10
714.2582849022747
 20
-1013.701153643433
 30
0.0
 10
714.258712054524
 20
-1014.327472240544
 30
0.0
  0
HATCH
  5
4C
330
41
100
AcDbEntity
  8
katman 1
 62
    83
420
  7850352
100
AcDbHatch
 10
0.0
 20
0.0
 30
0.0
210
0.0
220
0.0
230
1.0
  2
SOLID
 70
     1
 71
     0
 91
        1
 92
        1
 93
        1
 72
     4
 94
        3
 73
     0
 74
     1
 95
      128
 96
      124
 40
0.0
 40
0.0
 40
0.0
 40
0.0
 40
1.0
 40
1.0
 40
1.0
 40
2.0
 40
2.0
 40
2.0
 40
3.0
 40
3.0
 40
3.0
 40
4.0
 40
4.0
 40
4.0
 40
5.0
 40
5.0
 40
5.0
 40
6.0
 40
6.0
 40
6.0
 40
7.0
 40
7.0
 40
7.0
 40
8.0
 40
8.0
 40
8.0
 40
9.0
 40
9.0
 40
9.0
 40
10.0
 40
10.0
 40
10.0
 40
11.0
 40
11.0
 40
11.0
 40
12.0
 40
12.0
 40
12.0
 40
13.0
 40
13.0
 40
13.0
 40
14.0
 40
14.0
 40
14.0
 40
15.0
 40
15.0
 40
15.0
 40
16.0
 40
16.0
 40
16.0
 40
17.0
 40
17.0
 40
17.0
 40
18.0
 40
18.0
 40
18.0
 40
19.0
 40
19.0
 40
19.0
 40
20.0
 40
20.0
 40
20.0
 40
21.0
 40
21.0
 40
21.0
 40
22.0
 40
22.0
 40
22.0
 40
23.0
 40
23.0
 40
23.0
 40
24.0
 40
24.0
 40
24.0
 40
25.0
 40
25.0
 40
25.0
 40
26.0
 40
26.0
 40
26.0
 40
27.0
 40
27.0
 40
27.0
 40
28.0
 40
28.0
 40
28.0
 40
29.0
 40
29.0
 40
29.0
 40
30.0
 40
30.0
 40
30.0
 40
31.0
 40
31.0
 40
31.0
 40
32.0
 40
32.0
 40
32.0
 40
33.0
 40
33.0
 40
33.0
 40
34.0
 40
34.0
 40
34.0
 40
35.0
 40
35.0
 40
35.0
 40
36.0
 40
36.0
 40
36.0
 40
37.0
 40
37.0
 40
37.0
 40
38.0
 40
38.0
 40
38.0
 40
39.0
 40
39.0
 40
39.0
 40
40.0
 40
40.0
 40
40.0
 40
41.0
 40
41.0
 40
41.0
 40
41.0
 10
714.258712054524
 20
-1014.327472240544
 10
699.4379935070438
 20
-1014.327472240544
 10
684.6166952529393
 20
-1014.250532371967
 10
669.7967547327708
 20
-1014.357766169767
 10
661.574485820146
 20
-1014.417286266354
 10
655.9256566584372
 20
-1020.754971507529
 10
656.5166217960923
 20
-1028.907394291287
 10
656.8414558266586
 20
-1033.388302680247
 10
657.2614837871897
 20
-1037.864390887109
 10
657.471764737611
 20
-1042.35051605542
 10
657.5564171602673
 20
-1044.156680995675
 10
657.2881808028051
 20
-1045.997990554726
 10
657.0150169390317
 20
-1047.79820653607
 10
656.555034987703
 20
-1050.829551937117
 10
654.9047627813179
 20
-1052.642123448506
 10
651.631983264786
 20
-1052.429516809283
 10
648.3994170814904
 20
-1052.219472798512
 10
647.5072485859473
 20
-1049.96496990876
 10
647.4438469877214
 20
-1047.24412965537
 10
647.2925283032146
 20
-1040.750917273032
 10
647.2880126937171
 20
-1034.25434906772
 10
647.1465032555197
 20
-1027.760831610565
 10
646.9517218295923
 20
-1018.821346309178
 10
644.6033913143419
 20
-1015.645670012713
 10
636.2283849615233
 20
-1012.783183522286
 10
618.816255757758
 20
-1006.831875535492
 10
607.5652714453545
 20
-988.6390439620873
 10
610.5050705276972
 20
-970.2447104727571
 10
616.3280633915601
 20
-933.8102963703595
 10
622.4622214139936
 20
-897.42560946296
 10
628.4645572010395
 20
-861.019841885779
 10
631.6822493327791
 20
-841.5037177907789
 10
635.0375149998417
 20
-822.0088574104484
 10
638.068022913525
 20
-802.4636901929707
 10
641.2805281965166
 20
-781.7446408450023
 10
660.9711180118084
 20
-767.4418182495701
 10
682.1316607623021
 20
-770.7576840508273
 10
703.2240269626345
 20
-774.0628722335259
 10
717.5389514799899
 20
-792.8022300859366
 10
714.2690094748332
 20
-813.9322914796721
 10
708.9565169435618
 20
-848.2612012324198
 10
703.0920216619961
 20
-882.5047052904456
 10
697.4673418578404
 20
-916.7853827147947
 10
696.5793228412967
 20
-922.1974709644255
 10
695.8372068289473
 20
-927.6364973203044
 10
694.8071139230187
 20
-933.0209152841308
 10
694.360800843685
 20
-935.3537613866147
 10
694.6309593862716
 20
-936.3627658328342
 10
697.3205235273954
 20
-936.2950392236971
 10
719.9654356015235
 20
-935.7244883029371
 10
742.6117969422148
 20
-935.1953360346997
 10
765.2603550659042
 20
-934.8053283900099
 10
768.3958966667369
 20
-934.7513301475892
 10
768.6443162108944
 20
-933.0959636888501
 10
768.8480678340684
 20
-930.7249222194114
 10
769.6739361982609
 20
-921.1146689202315
 10
770.0270385545045
 20
-911.4359263248743
 10
771.9553868755356
 20
-901.9610957364866
 10
775.873745995952
 20
-882.7086325511573
 10
790.6009182007165
 20
-870.673919182268
 10
810.1848419970484
 20
-870.4825152427511
 10
827.198743260461
 20
-870.316203706845
 10
843.6625639587046
 20
-883.4914850363248
 10
847.6177497052313
 20
-900.9058724556526
 10
849.7630303474325
 20
-910.3511412943762
 10
847.2960430393514
 20
-919.8195042966654
 10
846.4696865011592
 20
-929.2203542421885
 10
843.8310144995166
 20
-959.2387703981603
 10
841.5885262096017
 20
-989.2823247189654
 10
839.9861560769486
 20
-1019.370786052674
 10
837.9578236185789
 20
-1057.457698910541
 10
836.766892635148
 20
-1095.571702412064
 10
836.6001507033352
 20
-1133.717281157034
 10
836.5791287104676
 20
-1138.521385805991
 10
835.751216117651
 20
-1143.322714274123
 10
835.2830572518251
 20
-1148.123920712329
 10
834.7417638186516
 20
-1153.67518409299
 10
832.3176748008045
 20
-1158.313267027115
 10
828.2493852406951
 20
-1162.056443496178
 10
823.4251887527416
 20
-1166.495221053054
 10
819.4151749638604
 20
-1171.457873083851
 10
816.5379689415568
 20
-1177.432519294067
 10
814.1526897566955
 20
-1182.385652990608
 10
810.1514630998099
 20
-1182.571687613363
 10
807.0966837850729
 20
-1177.957247977472
 10
804.7307484949542
 20
-1174.383296508808
 10
802.2741043734941
 20
-1174.380794895314
 10
799.2506292164953
 20
-1176.79692642255
 10
794.9559184530945
 20
-1180.228957086842
 10
793.0582030505511
 20
-1184.208475015814
 10
793.5587949764904
 20
-1190.160972794391
 10
794.8858959949957
 20
-1205.94054054383
 10
793.9160773226067
 20
-1221.778682657932
 10
793.2866684824667
 20
-1237.587964694445
 10
793.1483626861427
 20
-1241.06154654867
 10
791.2358189983552
 20
-1242.855874586065
 10
787.841331601494
 20
-1242.636037673703
 10
784.2583480189542
 20
-1242.403936753741
 10
783.1940981884754
 20
-1239.908241714511
 10
783.2830984108168
 20
-1236.689824436336
 10
783.6145685566935
 20
-1224.703678978141
 10
783.9449403110702
 20
-1212.71753351995
 10
784.2794310335712
 20
-1200.73144907672
 10
784.418987775769
 20
-1195.731394873492
 10
784.2270438612159
 20
-1190.791623453886
 10
783.1166310768795
 20
-1185.854353647777
 10
781.9037017525807
 20
-1180.460996991842
 10
779.5637922388269
 20
-1175.797806400366
 10
775.4008579445026
 20
-1172.205550442744
 10
763.3717929258582
 20
-1161.825501860516
 10
759.1417652174332
 20
-1147.956190578527
 10
759.0916053389519
 20
-1132.927381443616
 10
758.9620866746254
 20
-1094.120827602444
 10
760.3470058012344
 20
-1055.337489954763
 10
762.6599742123726
 20
-1016.597015318723
 10
762.8614985416725
 20
-1013.222125167453
 10
762.0363319276048
 20
-1012.344272384602
 10
758.7199828815901
 20
-1012.379691570732
 10
743.9005763017349
 20
-1012.537994892722
 10
729.0785305311929
 20
-1012.448485941726
 10
714.257430597775
 20
-1012.448485941726
 10
714.2578577500244
 20
-1013.074804538839
 10
714.2582849022747
 20
-1013.701153643433
 10
714.258712054524
 20
-1014.327472240544
 97
        0
 97
        0
 75
     2
 76
     1
 98
        0
  0
SPLINE
  5
4D
330
41
100
AcDbEntity
  8
katman 1
370
     0
100
AcDbSpline
210
0.0
220
0.0
230
1.0
 70
    11
 71
     3
 72
    62
 73
    58
 74
     0
 42
0.0000000001
 43
0.0000000001
 12
1.0
 22
0.0
 32
0.0
 13
1.0
 23
0.0
 33
0.0
 40
0.0
 40
0.0
 40
0.0
 40
0.0
 40
1.0
 40
1.0
 40
1.0
 40
2.0
 40
2.0
 40
2.0
 40
3.0
 40
3.0
 40
3.0
 40
4.0
 40
4.0
 40
4.0
 40
5.0
 40
5.0
 40
5.0
 40
6.0
 40
6.0
 40
6.0
 40
7.0
 40
7.0
 40
7.0
 40
8.0
 40
8.0
 40
8.0
 40
9.0
 40
9.0
 40
9.0
 40
10.0
 40
10.0
 40
10.0
 40
11.0
 40
11.0
 40
11.0
 40
12.0
 40
12.0
 40
12.0
 40
13.0
 40
13.0
 40
13.0
 40
14.0
 40
14.0
 40
14.0
 40
15.0
 40
15.0
 40
15.0
 40
16.0
 40
16.0
 40
16.0
 40
17.0
 40
17.0
 40
17.0
 40
18.0
 40
18.0
 40
18.0
 40
19.0
 40
19.0
 40
19.0
 40
19.0
 10
1184.100008548789
 20
-989.7491502023067
 30
0.0
 10
1184.880110600498
 20
-948.7967001058541
 30
0.0
 10
1201.22710515841
 20
-905.2103560785545
 30
0.0
 10
1232.907950159361
 20
-867.3182029831796
 30
0.0
 10
1235.03016458007
 20
-864.7798889921651
 30
0.0
 10
1237.346916339706
 20
-862.9840355806882
 30
0.0
 10
1240.694569543461
 20
-862.594226234628
 30
0.0
 10
1244.236454977392
 20
-862.1818260984492
 30
0.0
 10
1247.240006533022
 20
-860.3635801954824
 30
0.0
 10
1250.391596854099
 20
-858.8494023615576
 30
0.0
 10
1257.685282541883
 20
-855.3451604883321
 30
0.0
 10
1265.400506478509
 20
-856.2167897449372
 30
0.0
 10
1266.314063097419
 20
-866.4825420473744
 30
0.0
 10
1266.893464613453
 20
-872.9935097839998
 30
0.0
 10
1266.612703541807
 20
-879.4435235724013
 30
0.0
 10
1266.357449561652
 20
-885.9212381540901
 30
0.0
 10
1266.239494518946
 20
-888.9138390535127
 30
0.0
 10
1266.001387650536
 20
-891.9015740096211
 30
0.0
 10
1265.82826894585
 20
-894.8921309077768
 30
0.0
 10
1265.641115238668
 20
-898.1249019560437
 30
0.0
 10
1266.930016641689
 20
-900.5390810044555
 30
0.0
 10
1270.182903067727
 20
-901.2010475938096
 30
0.0
 10
1273.405522705778
 20
-901.8568821793642
 30
0.0
 10
1275.598339291211
 20
-900.085678813014
 30
0.0
 10
1276.898041543976
 20
-897.2335801200707
 30
0.0
 10
1278.459771191145
 20
-893.8065679364981
 30
0.0
 10
1278.450984059149
 20
-890.0760673260356
 30
0.0
 10
1278.485217260884
 20
-886.4474159428728
 30
0.0
 10
1278.544774488862
 20
-880.1286453402854
 30
0.0
 10
1278.127690827769
 20
-873.8060460487577
 30
0.0
 10
1278.149963766511
 20
-867.4859026094991
 30
0.0
 10
1278.158933963758
 20
-864.9326857137257
 30
0.0
 10
1277.889339872358
 20
-861.7695632459363
 30
0.0
 10
1281.155040865891
 20
-860.7878324882613
 30
0.0
 10
1284.540893685131
 20
-859.7699656186387
 30
0.0
 10
1287.785847283671
 20
-859.626855022484
 30
0.0
 10
1290.844257392533
 20
-862.5053274332649
 30
0.0
 10
1302.517901228435
 20
-873.4920020332356
 30
0.0
 10
1307.36430963338
 20
-887.7912552533207
 30
0.0
 10
1309.675508413769
 20
-902.869135672373
 30
0.0
 10
1314.29229197355
 20
-932.9875706067496
 30
0.0
 10
1312.08885760362
 20
-962.8643710331644
 30
0.0
 10
1304.971097621021
 20
-992.4832917176709
 30
0.0
 10
1297.519548666047
 20
-1023.491248546605
 30
0.0
 10
1285.72367826494
 20
-1052.555116111002
 30
0.0
 10
1267.401104551514
 20
-1078.7685476402
 30
0.0
 10
1262.239457786185
 20
-1086.153097112252
 30
0.0
 10
1256.125871721213
 20
-1092.809463506153
 30
0.0
 10
1248.391486955094
 20
-1097.632909898439
 30
0.0
 10
1236.503168602772
 20
-1105.046868582747
 30
0.0
 10
1225.65490495706
 20
-1103.679828332548
 30
0.0
 10
1215.203221664455
 20
-1094.112499059971
 30
0.0
 10
1206.749512509603
 20
-1086.374032293952
 30
0.0
 10
1201.399735689094
 20
-1076.624878431077
 30
0.0
 10
1197.132545734934
 20
-1066.314234369474
 30
0.0
 10
1188.285734466728
 20
-1044.938160644171
 30
0.0
 10
1184.074074305048
 20
-1021.779992381587
 30
0.0
 10
1184.100008548789
 20
-989.7491502023067
 30
0.0
  0
HATCH
  5
4E
330
41
100
AcDbEntity
  8
katman 1
 62
     7
420
 16777215
100
AcDbHatch
 10
0.0
 20
0.0
 30
0.0
210
0.0
220
0.0
230
1.0
  2
SOLID
 70
     1
 71
     0
 91
        1
 92
        1
 93
        1
 72
     4
 94
        3
 73
     0
 74
     1
 95
       62
 96
       58
 40
0.0
 40
0.0
 40
0.0
 40
0.0
 40
1.0
 40
1.0
 40
1.0
 40
2.0
 40
2.0
 40
2.0
 40
3.0
 40
3.0
 40
3.0
 40
4.0
 40
4.0
 40
4.0
 40
5.0
 40
5.0
 40
5.0
 40
6.0
 40
6.0
 40
6.0
 40
7.0
 40
7.0
 40
7.0
 40
8.0
 40
8.0
 40
8.0
 40
9.0
 40
9.0
 40
9.0
 40
10.0
 40
10.0
 40
10.0
 40
11.0
 40
11.0
 40
11.0
 40
12.0
 40
12.0
 40
12.0
 40
13.0
 40
13.0
 40
13.0
 40
14.0
 40
14.0
 40
14.0
 40
15.0
 40
15.0
 40
15.0
 40
16.0
 40
16.0
 40
16.0
 40
17.0
 40
17.0
 40
17.0
 40
18.0
 40
18.0
 40
18.0
 40
19.0
 40
19.0
 40
19.0
 40
19.0
 10
1184.100008548789
 20
-989.7491502023067
 10
1184.880110600498
 20
-948.7967001058541
 10
1201.22710515841
 20
-905.2103560785545
 10
1232.907950159361
 20
-867.3182029831796
 10
1235.03016458007
 20
-864.7798889921651
 10
1237.346916339706
 20
-862.9840355806882
 10
1240.694569543461
 20
-862.594226234628
 10
1244.236454977392
 20
-862.1818260984492
 10
1247.240006533022
 20
-860.3635801954824
 10
1250.391596854099
 20
-858.8494023615576
 10
1257.685282541883
 20
-855.3451604883321
 10
1265.400506478509
 20
-856.2167897449372
 10
1266.314063097419
 20
-866.4825420473744
 10
1266.893464613453
 20
-872.9935097839998
 10
1266.612703541807
 20
-879.4435235724013
 10
1266.357449561652
 20
-885.9212381540901
 10
1266.239494518946
 20
-888.9138390535127
 10
1266.001387650536
 20
-891.9015740096211
 10
1265.82826894585
 20
-894.8921309077768
 10
1265.641115238668
 20
-898.1249019560437
 10
1266.930016641689
 20
-900.5390810044555
 10
1270.182903067727
 20
-901.2010475938096
 10
1273.405522705778
 20
-901.8568821793642
 10
1275.598339291211
 20
-900.085678813014
 10
1276.898041543976
 20
-897.2335801200707
 10
1278.459771191145
 20
-893.8065679364981
 10
1278.450984059149
 20
-890.0760673260356
 10
1278.485217260884
 20
-886.4474159428728
 10
1278.544774488862
 20
-880.1286453402854
 10
1278.127690827769
 20
-873.8060460487577
 10
1278.149963766511
 20
-867.4859026094991
 10
1278.158933963758
 20
-864.9326857137257
 10
1277.889339872358
 20
-861.7695632459363
 10
1281.155040865891
 20
-860.7878324882613
 10
1284.540893685131
 20
-859.7699656186387
 10
1287.785847283671
 20
-859.626855022484
 10
1290.844257392533
 20
-862.5053274332649
 10
1302.517901228435
 20
-873.4920020332356
 10
1307.36430963338
 20
-887.7912552533207
 10
1309.675508413769
 20
-902.869135672373
 10
1314.29229197355
 20
-932.9875706067496
 10
1312.08885760362
 20
-962.8643710331644
 10
1304.971097621021
 20
-992.4832917176709
 10
1297.519548666047
 20
-1023.491248546605
 10
1285.72367826494
 20
-1052.555116111002
 10
1267.401104551514
 20
-1078.7685476402
 10
1262.239457786185
 20
-1086.153097112252
 10
1256.125871721213
 20
-1092.809463506153
 10
1248.391486955094
 20
-1097.632909898439
 10
1236.503168602772
 20
-1105.046868582747
 10
1225.65490495706
 20
-1103.679828332548
 10
1215.203221664455
 20
-1094.112499059971
 10
1206.749512509603
 20
-1086.374032293952
 10
1201.399735689094
 20
-1076.624878431077
 10
1197.132545734934
 20
-1066.314234369474
 10
1188.285734466728
 20
-1044.938160644171
 10
1184.074074305048
 20
-1021.779992381587
 10
1184.100008548789
 20
-989.7491502023067
 97
        0
 97
        0
 75
     2
 76
     1
 98
        0
  0
ENDBLK
  5
44
330
41
100
AcDbEntity
  8
0
100
AcDbBlockEnd
  0
ENDSEC
  0
SECTION
  2
ENTITIES
  0
INSERT
  5
42
330
1F
100
AcDbEntity
  8
katman 1
100
AcDbBlockReference
  2
block 2
 10
0.0
 20
0.0
 30
0.0
  0
ENDSEC
  0
SECTION
  2
OBJECTS
  0
DICTIONARY
  5
C
330
0
100
AcDbDictionary
281
     1
  3
ACAD_GROUP
350
D
  3
ACAD_LAYOUT
350
1A
  3
ACAD_MATERIAL
350
3B
  3
ACAD_MLEADERSTYLE
350
50
  3
ACAD_MLINESTYLE
350
17
  3
ACAD_PLOTSETTINGS
350
19
  3
ACAD_PLOTSTYLENAME
350
E
  3
ACAD_TABLESTYLE
350
4F
  3
ACAD_VISUALSTYLE
350
2A
  0
SUN
  5
3F
330
29
100
AcDbSun
 90
        1
290
     0
 63
     7
421
 16777215
 40
1.0
291
     1
 91
  2455826
 92
 54000000
292
     0
 70
     2
 71
   256
280
     1
  0
DICTIONARY
  5
D
102
{ACAD_REACTORS
330
C
102
}
330
C
100
AcDbDictionary
281
     1
  0
DICTIONARY
  5
1A
102
{ACAD_REACTORS
330
C
102
}
330
C
100
AcDbDictionary
281
     1
  3
Layout1
350
1E
  3
Layout2
350
26
  3
Model
350
22
  0
DICTIONARY
  5
3B
102
{ACAD_REACTORS
330
C
102
}
330
C
100
AcDbDictionary
281
     1
  3
ByBlock
350
3D
  3
ByLayer
350
3C
  3
Global
350
3E
  0
DICTIONARY
  5
50
102
{ACAD_REACTORS
330
C
102
}
330
C
100
AcDbDictionary
281
     1
  0
DICTIONARY
  5
17
102
{ACAD_REACTORS
330
C
102
}
330
C
100
AcDbDictionary
281
     1
  3
Standard
350
18
  0
DICTIONARY
  5
19
102
{ACAD_REACTORS
330
C
102
}
330
C
100
AcDbDictionary
281
     1
  0
ACDBDICTIONARYWDFLT
  5
E
102
{ACAD_REACTORS
330
C
102
}
330
C
100
AcDbDictionary
281
     1
  3
Normal
350
F
100
AcDbDictionaryWithDefault
340
F
  0
DICTIONARY
  5
4F
102
{ACAD_REACTORS
330
C
102
}
330
C
100
AcDbDictionary
281
     1
  0
DICTIONARY
  5
2A
102
{ACAD_REACTORS
330
C
102
}
330
C
100
AcDbDictionary
281
     1
  3
2dWireframe
350
2F
  3
3D Hidden
350
31
  3
3dWireframe
350
30
  3
Basic
350
32
  3
Brighten
350
36
  3
ColorChange
350
3A
  3
Conceptual
350
34
  3
Dim
350
35
  3
Facepattern
350
39
  3
Flat
350
2B
  3
FlatWithEdges
350
2C
  3
Gouraud
350
2D
  3
GouraudWithEdges
350
2E
  3
Linepattern
350
38
  3
Realistic
350
33
  3
Thicken
350
37
  0
LAYOUT
  5
1E
102
{ACAD_REACTORS
330
1A
102
}
330
1A
100
AcDbPlotSettings
  1

  2
none_device
  4

  6

 40
0.0
 41
0.0
 42
0.0
 43
0.0
 44
0.0
 45
0.0
 46
0.0
 47
0.0
 48
0.0
 49
0.0
140
0.0
141
0.0
142
1.0
143
1.0
 70
   688
 72
     0
 73
     0
 74
     5
  7

 75
    16
 76
     0
 77
     2
 78
   300
147
1.0
148
0.0
149
0.0
100
AcDbLayout
  1
Layout1
 70
     1
 71
     1
 10
0.0
 20
0.0
 11
12.0
 21
9.0
 12
0.0
 22
0.0
 32
0.0
 14
1.000000000000000E+20
 24
1.000000000000000E+20
 34
1.000000000000000E+20
 15
-1.000000000000000E+20
 25
-1.000000000000000E+20
 35
-1.000000000000000E+20
146
0.0
 13
0.0
 23
0.0
 33
0.0
 16
1.0
 26
0.0
 36
0.0
 17
0.0
 27
1.0
 37
0.0
 76
     0
330
1B
  0
LAYOUT
  5
26
102
{ACAD_REACTORS
330
1A
102
}
330
1A
100
AcDbPlotSettings
  1

  2
none_device
  4

  6

 40
0.0
 41
0.0
 42
0.0
 43
0.0
 44
0.0
 45
0.0
 46
0.0
 47
0.0
 48
0.0
 49
0.0
140
0.0
141
0.0
142
1.0
143
1.0
 70
   688
 72
     0
 73
     0
 74
     5
  7

 75
    16
 76
     0
 77
     2
 78
   300
147
1.0
148
0.0
149
0.0
100
AcDbLayout
  1
Layout2
 70
     1
 71
     2
 10
0.0
 20
0.0
 11
0.0
 21
0.0
 12
0.0
 22
0.0
 32
0.0
 14
0.0
 24
0.0
 34
0.0
 15
0.0
 25
0.0
 35
0.0
146
0.0
 13
0.0
 23
0.0
 33
0.0
 16
1.0
 26
0.0
 36
0.0
 17
0.0
 27
1.0
 37
0.0
 76
     0
330
23
  0
LAYOUT
  5
22
102
{ACAD_REACTORS
330
1A
102
}
330
1A
100
AcDbPlotSettings
  1

  2
none_device
  4

  6

 40
0.0
 41
0.0
 42
0.0
 43
0.0
 44
0.0
 45
0.0
 46
0.0
 47
0.0
 48
0.0
 49
0.0
140
0.0
141
0.0
142
1.0
143
1.0
 70
  1712
 72
     0
 73
     0
 74
     0
  7

 75
     0
 76
     0
 77
     2
 78
   300
147
1.0
148
0.0
149
0.0
100
AcDbLayout
  1
Model
 70
     1
 71
     0
 10
0.0
 20
0.0
 11
12.0
 21
9.0
 12
0.0
 22
0.0
 32
0.0
 14
1.000000000000000E+20
 24
1.000000000000000E+20
 34
1.000000000000000E+20
 15
-1.000000000000000E+20
 25
-1.000000000000000E+20
 35
-1.000000000000000E+20
146
0.0
 13
0.0
 23
0.0
 33
0.0
 16
1.0
 26
0.0
 36
0.0
 17
0.0
 27
1.0
 37
0.0
 76
     0
330
1F
331
29
  0
MATERIAL
  5
3D
102
{ACAD_REACTORS
330
3B
102
}
330
3B
100
AcDbMaterial
  1
ByBlock
 72
     1
 94
      127
  0
MATERIAL
  5
3C
102
{ACAD_REACTORS
330
3B
102
}
330
3B
100
AcDbMaterial
  1
ByLayer
 72
     1
 94
      127
  0
MATERIAL
  5
3E
102
{ACAD_REACTORS
330
3B
102
}
330
3B
100
AcDbMaterial
  1
Global
 72
     1
 94
      127
  0
MLINESTYLE
  5
18
102
{ACAD_REACTORS
330
17
102
}
330
17
100
AcDbMlineStyle
  2
Standard
 70
     0
  3

 62
   256
 51
90.0
 52
90.0
 71
     2
 49
0.5
 62
   256
  6
BYLAYER
 49
-0.5
 62
   256
  6
BYLAYER
  0
ACDBPLACEHOLDER
  5
F
102
{ACAD_REACTORS
330
E
102
}
330
E
  0
VISUALSTYLE
  5
2F
102
{ACAD_REACTORS
330
2A
102
}
330
2A
100
AcDbVisualStyle
  2
2dWireframe
 70
     4
177
     2
291
     0
 71
     0
176
     1
 72
     2
176
     1
 73
     0
176
     1
 90
        0
176
     1
 40
-0.6
176
     1
 41
-30.0
176
     1
 62
     5
 63
     7
421
 16777215
176
     1
 74
     1
176
     1
 91
        4
176
     1
 64
     7
176
     1
 65
   257
176
     1
 75
     1
176
     1
175
     1
176
     1
 42
1.0
176
     1
 92
        0
176
     1
 66
   257
176
     1
 43
1.0
176
     1
 76
     1
176
     1
 77
     6
176
     1
 78
     2
176
     1
 67
     7
176
     1
 79
     5
176
     1
170
     0
176
     1
171
     0
176
     1
290
     0
176
     1
 93
        1
176
     1
 44
0.0
176
     1
173
     0
176
     1
  0
VISUALSTYLE
  5
31
102
{ACAD_REACTORS
330
2A
102
}
330
2A
100
AcDbVisualStyle
  2
3D Hidden
 70
     6
177
     2
291
     0
 71
     1
176
     1
 72
     2
176
     1
 73
     2
176
     1
 90
        0
176
     1
 40
-0.6
176
     1
 41
-30.0
176
     1
 62
     5
 63
     7
421
 16777215
176
     1
 74
     2
176
     1
 91
        2
176
     1
 64
     7
176
     1
 65
   257
176
     1
 75
     2
176
     1
175
     1
176
     1
 42
40.0
176
     1
 92
        0
176
     1
 66
   257
176
     1
 43
1.0
176
     1
 76
     1
176
     1
 77
     6
176
     1
 78
     2
176
     1
 67
     7
176
     1
 79
     3
176
     1
170
     0
176
     1
171
     0
176
     1
290
     0
176
     1
 93
        1
176
     1
 44
0.0
176
     1
173
     0
176
     1
  0
VISUALSTYLE
  5
30
102
{ACAD_REACTORS
330
2A
102
}
330
2A
100
AcDbVisualStyle
  2
3dWireframe
 70
     5
177
     2
291
     0
 71
     0
176
     1
 72
     2
176
     1
 73
     0
176
     1
 90
        0
176
     1
 40
-0.6
176
     1
 41
-30.0
176
     1
 62
     5
 63
     7
421
 16777215
176
     1
 74
     1
176
     1
 91
        4
176
     1
 64
     7
176
     1
 65
   257
176
     1
 75
     1
176
     1
175
     1
176
     1
 42
1.0
176
     1
 92
        0
176
     1
 66
   257
176
     1
 43
1.0
176
     1
 76
     1
176
     1
 77
     6
176
     1
 78
     2
176
     1
 67
     7
176
     1
 79
     5
176
     1
170
     0
176
     1
171
     0
176
     1
290
     0
176
     1
 93
        1
176
     1
 44
0.0
176
     1
173
     0
176
     1
  0
VISUALSTYLE
  5
32
102
{ACAD_REACTORS
330
2A
102
}
330
2A
100
AcDbVisualStyle
  2
Basic
 70
     7
177
     2
291
     1
 71
     1
176
     1
 72
     0
176
     1
 73
     1
176
     1
 90
        0
176
     1
 40
-0.6
176
     1
 41
-30.0
176
     1
 62
     5
 63
     7
421
 16777215
176
     1
 74
     0
176
     1
 91
        4
176
     1
 64
     7
176
     1
 65
   257
176
     1
 75
     1
176
     1
175
     1
176
     1
 42
1.0
176
     1
 92
        8
176
     1
 66
     7
176
     1
 43
1.0
176
     1
 76
     1
176
     1
 77
     6
176
     1
 78
     2
176
     1
 67
     7
176
     1
 79
     5
176
     1
170
     0
176
     1
171
     0
176
     1
290
     0
176
     1
 93
        1
176
     1
 44
0.0
176
     1
173
     0
176
     1
  0
VISUALSTYLE
  5
36
102
{ACAD_REACTORS
330
2A
102
}
330
2A
100
AcDbVisualStyle
  2
Brighten
 70
    12
177
     2
291
     1
 71
     2
176
     1
 72
     2
176
     1
 73
     0
176
     1
 90
        0
176
     1
 40
-0.6
176
     1
 41
-30.0
176
     1
 62
     5
 63
     7
421
 16777215
176
     1
 74
     1
176
     1
 91
        4
176
     1
 64
     7
176
     1
 65
   257
176
     1
 75
     1
176
     1
175
     1
176
     1
 42
1.0
176
     1
 92
        8
176
     1
 66
     7
176
     1
 43
1.0
176
     1
 76
     1
176
     1
 77
     6
176
     1
 78
     2
176
     1
 67
     7
176
     1
 79
     5
176
     1
170
     0
176
     1
171
     0
176
     1
290
     0
176
     1
 93
        1
176
     1
 44
50.0
176
     1
173
     0
176
     1
  0
VISUALSTYLE
  5
3A
102
{ACAD_REACTORS
330
2A
102
}
330
2A
100
AcDbVisualStyle
  2
ColorChange
 70
    16
177
     2
291
     1
 71
     2
176
     1
 72
     2
176
     1
 73
     3
176
     1
 90
        0
176
     1
 40
-0.6
176
     1
 41
-30.0
176
     1
 62
     5
 63
     8
421
  8421504
176
     1
 74
     1
176
     1
 91
        4
176
     1
 64
     7
176
     1
 65
   257
176
     1
 75
     1
176
     1
175
     1
176
     1
 42
1.0
176
     1
 92
        8
176
     1
 66
     8
424
  8421504
176
     1
 43
1.0
176
     1
 76
     1
176
     1
 77
     6
176
     1
 78
     2
176
     1
 67
     7
176
     1
 79
     5
176
     1
170
     0
176
     1
171
     0
176
     1
290
     0
176
     1
 93
        1
176
     1
 44
0.0
176
     1
173
     0
176
     1
  0
VISUALSTYLE
  5
34
102
{ACAD_REACTORS
330
2A
102
}
330
2A
100
AcDbVisualStyle
  2
Conceptual
 70
     9
177
     2
291
     0
 71
     3
176
     1
 72
     2
176
     1
 73
     0
176
     1
 90
        0
176
     1
 40
-0.6
176
     1
 41
-30.0
176
     1
 62
     5
 63
     7
421
 16777215
176
     1
 74
     2
176
     1
 91
        2
176
     1
 64
     7
176
     1
 65
   257
176
     1
 75
     1
176
     1
175
     1
176
     1
 42
40.0
176
     1
 92
        8
176
     1
 66
     7
176
     1
 43
1.0
176
     1
 76
     1
176
     1
 77
     6
176
     1
 78
     2
176
     1
 67
     7
176
     1
 79
     3
176
     1
170
     0
176
     1
171
     0
176
     1
290
     0
176
     1
 93
        1
176
     1
 44
0.0
176
     1
173
     0
176
     1
  0
VISUALSTYLE
  5
35
102
{ACAD_REACTORS
330
2A
102
}
330
2A
100
AcDbVisualStyle
  2
Dim
 70
    11
177
     2
291
     1
 71
     2
176
     1
 72
     2
176
     1
 73
     0
176
     1
 90
        0
176
     1
 40
-0.6
176
     1
 41
-30.0
176
     1
 62
     5
 63
     7
421
 16777215
176
     1
 74
     1
176
     1
 91
        4
176
     1
 64
     7
176
     1
 65
   257
176
     1
 75
     1
176
     1
175
     1
176
     1
 42
1.0
176
     1
 92
        8
176
     1
 66
     7
176
     1
 43
1.0
176
     1
 76
     1
176
     1
 77
     6
176
     1
 78
     2
176
     1
 67
     7
176
     1
 79
     5
176
     1
170
     0
176
     1
171
     0
176
     1
290
     0
176
     1
 93
        1
176
     1
 44
-50.0
176
     1
173
     0
176
     1
  0
VISUALSTYLE
  5
39
102
{ACAD_REACTORS
330
2A
102
}
330
2A
100
AcDbVisualStyle
  2
Facepattern
 70
    15
177
     2
291
     1
 71
     2
176
     1
 72
     2
176
     1
 73
     0
176
     1
 90
        0
176
     1
 40
-0.6
176
     1
 41
-30.0
176
     1
 62
     5
 63
     7
421
 16777215
176
     1
 74
     1
176
     1
 91
        4
176
     1
 64
     7
176
     1
 65
   257
176
     1
 75
     1
176
     1
175
     1
176
     1
 42
1.0
176
     1
 92
        8
176
     1
 66
     7
176
     1
 43
1.0
176
     1
 76
     1
176
     1
 77
     6
176
     1
 78
     2
176
     1
 67
     7
176
     1
 79
     5
176
     1
170
     0
176
     1
171
     0
176
     1
290
     0
176
     1
 93
        1
176
     1
 44
0.0
176
     1
173
     0
176
     1
  0
VISUALSTYLE
  5
2B
102
{ACAD_REACTORS
330
2A
102
}
330
2A
100
AcDbVisualStyle
  2
Flat
 70
     0
177
     2
291
     1
 71
     2
176
     1
 72
     1
176
     1
 73
     1
176
     1
 90
        2
176
     1
 40
-0.6
176
     1
 41
30.0
176
     1
 62
     5
 63
     7
421
 16777215
176
     1
 74
     0
176
     1
 91
        4
176
     1
 64
     7
176
     1
 65
   257
176
     1
 75
     1
176
     1
175
     1
176
     1
 42
1.0
176
     1
 92
        8
176
     1
 66
     7
176
     1
 43
1.0
176
     1
 76
     1
176
     1
 77
     6
176
     1
 78
     2
176
     1
 67
     7
176
     1
 79
     5
176
     1
170
     0
176
     1
171
     0
176
     1
290
     0
176
     1
 93
       13
176
     1
 44
0.0
176
     1
173
     0
176
     1
  0
VISUALSTYLE
  5
2C
102
{ACAD_REACTORS
330
2A
102
}
330
2A
100
AcDbVisualStyle
  2
FlatWithEdges
 70
     1
177
     2
291
     1
 71
     2
176
     1
 72
     1
176
     1
 73
     1
176
     1
 90
        2
176
     1
 40
-0.6
176
     1
 41
30.0
176
     1
 62
     5
 63
     7
421
 16777215
176
     1
 74
     1
176
     1
 91
        4
176
     1
 64
     7
176
     1
 65
   257
176
     1
 75
     1
176
     1
175
     1
176
     1
 42
1.0
176
     1
 92
        0
176
     1
 66
   257
176
     1
 43
1.0
176
     1
 76
     1
176
     1
 77
     6
176
     1
 78
     2
176
     1
 67
     7
176
     1
 79
     5
176
     1
170
     0
176
     1
171
     0
176
     1
290
     0
176
     1
 93
       13
176
     1
 44
0.0
176
     1
173
     0
176
     1
  0
VISUALSTYLE
  5
2D
102
{ACAD_REACTORS
330
2A
102
}
330
2A
100
AcDbVisualStyle
  2
Gouraud
 70
     2
177
     2
291
     1
 71
     2
176
     1
 72
     2
176
     1
 73
     1
176
     1
 90
        2
176
     1
 40
-0.6
176
     1
 41
30.0
176
     1
 62
     5
 63
     7
421
 16777215
176
     1
 74
     0
176
     1
 91
        4
176
     1
 64
     7
176
     1
 65
   257
176
     1
 75
     1
176
     1
175
     1
176
     1
 42
1.0
176
     1
 92
        0
176
     1
 66
     7
176
     1
 43
1.0
176
     1
 76
     1
176
     1
 77
     6
176
     1
 78
     2
176
     1
 67
     7
176
     1
 79
     5
176
     1
170
     0
176
     1
171
     0
176
     1
290
     0
176
     1
 93
       13
176
     1
 44
0.0
176
     1
173
     0
176
     1
  0
VISUALSTYLE
  5
2E
102
{ACAD_REACTORS
330
2A
102
}
330
2A
100
AcDbVisualStyle
  2
GouraudWithEdges
 70
     3
177
     2
291
     1
 71
     2
176
     1
 72
     2
176
     1
 73
     1
176
     1
 90
        2
176
     1
 40
-0.6
176
     1
 41
30.0
176
     1
 62
     5
 63
     7
421
 16777215
176
     1
 74
     1
176
     1
 91
        4
176
     1
 64
     7
176
     1
 65
   257
176
     1
 75
     1
176
     1
175
     1
176
     1
 42
1.0
176
     1
 92
        0
176
     1
 66
   257
176
     1
 43
1.0
176
     1
 76
     1
176
     1
 77
     6
176
     1
 78
     2
176
     1
 67
     7
176
     1
 79
     5
176
     1
170
     0
176
     1
171
     0
176
     1
290
     0
176
     1
 93
       13
176
     1
 44
0.0
176
     1
173
     0
176
     1
  0
VISUALSTYLE
  5
38
102
{ACAD_REACTORS
330
2A
102
}
330
2A
100
AcDbVisualStyle
  2
Linepattern
 70
    14
177
     2
291
     1
 71
     2
176
     1
 72
     2
176
     1
 73
     0
176
     1
 90
        0
176
     1
 40
-0.6
176
     1
 41
-30.0
176
     1
 62
     5
 63
     7
421
 16777215
176
     1
 74
     1
176
     1
 91
        4
176
     1
 64
     7
176
     1
 65
   257
176
     1
 75
     7
176
     1
175
     7
176
     1
 42
1.0
176
     1
 92
        8
176
     1
 66
     7
176
     1
 43
1.0
176
     1
 76
     1
176
     1
 77
     6
176
     1
 78
     2
176
     1
 67
     7
176
     1
 79
     5
176
     1
170
     0
176
     1
171
     0
176
     1
290
     0
176
     1
 93
        1
176
     1
 44
0.0
176
     1
173
     0
176
     1
  0
VISUALSTYLE
  5
33
102
{ACAD_REACTORS
330
2A
102
}
330
2A
100
AcDbVisualStyle
  2
Realistic
 70
     8
177
     2
291
     0
 71
     2
176
     1
 72
     2
176
     1
 73
     0
176
     1
 90
        0
176
     1
 40
-0.6
176
     1
 41
-30.0
176
     1
 62
     5
 63
     7
421
 16777215
176
     1
 74
     1
176
     1
 91
        0
176
     1
 64
     7
176
     1
 65
   257
176
     1
 75
     1
176
     1
175
     1
176
     1
 42
1.0
176
     1
 92
        8
176
     1
 66
     8
424
  7895160
176
     1
 43
1.0
176
     1
 76
     1
176
     1
 77
     6
176
     1
 78
     2
176
     1
 67
     7
176
     1
 79
     5
176
     1
170
     0
176
     1
171
     0
176
     1
290
     0
176
     1
 93
       13
176
     1
 44
0.0
176
     1
173
     0
176
     1
  0
VISUALSTYLE
  5
37
102
{ACAD_REACTORS
330
2A
102
}
330
2A
100
AcDbVisualStyle
  2
Thicken
 70
    13
177
     2
291
     1
 71
     2
176
     1
 72
     2
176
     1
 73
     0
176
     1
 90
        0
176
     1
 40
-0.6
176
     1
 41
-30.0
176
     1
 62
     5
 63
     7
421
 16777215
176
     1
 74
     1
176
     1
 91
        4
176
     1
 64
     7
176
     1
 65
   257
176
     1
 75
     1
176
     1
175
     1
176
     1
 42
1.0
176
     1
 92
       12
176
     1
 66
     7
176
     1
 43
1.0
176
     1
 76
     1
176
     1
 77
     6
176
     1
 78
     2
176
     1
 67
     7
176
     1
 79
     5
176
     1
170
     0
176
     1
171
     0
176
     1
290
     0
176
     1
 93
        1
176
     1
 44
0.0
176
     1
173
     0
176
     1
  0
ENDSEC
  0
EOF
