  0
SECTION
  2
HEADER
  9
$ACADVER
  1
AC1024
  9
$ACADMAINTVER
 70
     6
  9
$DWGCODEPAGE
  3
ANSI_1254
  9
$INSBASE
 10
0.0
 20
0.0
 30
0.0
  9
$EXTMIN
 10
1.000000000000000E+20
 20
1.000000000000000E+20
 30
1.000000000000000E+20
  9
$EXTMAX
 10
-1.000000000000000E+20
 20
-1.000000000000000E+20
 30
-1.000000000000000E+20
  9
$LIMMIN
 10
0.0
 20
0.0
  9
$LIMMAX
 10
12.0
 20
9.0
  9
$ORTHOMODE
 70
     0
  9
$REGENMODE
 70
     1
  9
$FILLMODE
 70
     1
  9
$QTEXTMODE
 70
     0
  9
$MIRRTEXT
 70
     1
  9
$LTSCALE
 40
1.0
  9
$ATTMODE
 70
     1
  9
$TEXTSIZE
 40
0.2
  9
$TRACEWID
 40
0.05
  9
$TEXTSTYLE
  7
Standard
  9
$CLAYER
  8
0
  9
$CELTYPE
  6
ByLayer
  9
$CECOLOR
 62
   256
  9
$CELTSCALE
 40
1.0
  9
$DISPSILH
 70
     0
  9
$DIMSCALE
 40
1.0
  9
$DIMASZ
 40
0.18
  9
$DIMEXO
 40
0.0625
  9
$DIMDLI
 40
0.38
  9
$DIMRND
 40
0.0
  9
$DIMDLE
 40
0.0
  9
$DIMEXE
 40
0.18
  9
$DIMTP
 40
0.0
  9
$DIMTM
 40
0.0
  9
$DIMTXT
 40
0.18
  9
$DIMCEN
 40
0.09
  9
$DIMTSZ
 40
0.0
  9
$DIMTOL
 70
     0
  9
$DIMLIM
 70
     0
  9
$DIMTIH
 70
     1
  9
$DIMTOH
 70
     1
  9
$DIMSE1
 70
     0
  9
$DIMSE2
 70
     0
  9
$DIMTAD
 70
     0
  9
$DIMZIN
 70
     0
  9
$DIMBLK
  1

  9
$DIMASO
 70
     1
  9
$DIMSHO
 70
     1
  9
$DIMPOST
  1

  9
$DIMAPOST
  1

  9
$DIMALT
 70
     0
  9
$DIMALTD
 70
     2
  9
$DIMALTF
 40
25.4
  9
$DIMLFAC
 40
1.0
  9
$DIMTOFL
 70
     0
  9
$DIMTVP
 40
0.0
  9
$DIMTIX
 70
     0
  9
$DIMSOXD
 70
     0
  9
$DIMSAH
 70
     0
  9
$DIMBLK1
  1

  9
$DIMBLK2
  1

  9
$DIMSTYLE
  2
Standard
  9
$DIMCLRD
 70
     0
  9
$DIMCLRE
 70
     0
  9
$DIMCLRT
 70
     0
  9
$DIMTFAC
 40
1.0
  9
$DIMGAP
 40
0.09
  9
$DIMJUST
 70
     0
  9
$DIMSD1
 70
     0
  9
$DIMSD2
 70
     0
  9
$DIMTOLJ
 70
     1
  9
$DIMTZIN
 70
     0
  9
$DIMALTZ
 70
     0
  9
$DIMALTTZ
 70
     0
  9
$DIMUPT
 70
     0
  9
$DIMDEC
 70
     4
  9
$DIMTDEC
 70
     4
  9
$DIMALTU
 70
     2
  9
$DIMALTTD
 70
     2
  9
$DIMTXSTY
  7
Standard
  9
$DIMAUNIT
 70
     0
  9
$DIMADEC
 70
     0
  9
$DIMALTRND
 40
0.0
  9
$DIMAZIN
 70
     0
  9
$DIMDSEP
 70
    46
  9
$DIMATFIT
 70
     3
  9
$DIMFRAC
 70
     0
  9
$DIMLDRBLK
  1

  9
$DIMLUNIT
 70
     2
  9
$DIMLWD
 70
    -2
  9
$DIMLWE
 70
    -2
  9
$DIMTMOVE
 70
     0
  9
$DIMFXL
 40
1.0
  9
$DIMFXLON
 70
     0
  9
$DIMJOGANG
 40
0.7853981633974483
  9
$DIMTFILL
 70
     0
  9
$DIMTFILLCLR
 70
     0
  9
$DIMARCSYM
 70
     0
  9
$DIMLTYPE
  6

  9
$DIMLTEX1
  6

  9
$DIMLTEX2
  6

  9
$DIMTXTDIRECTION
 70
     0
  9
$LUNITS
 70
     2
  9
$LUPREC
 70
     4
  9
$SKETCHINC
 40
0.1
  9
$FILLETRAD
 40
0.5
  9
$AUNITS
 70
     0
  9
$AUPREC
 70
     0
  9
$MENU
  1
.
  9
$ELEVATION
 40
0.0
  9
$PELEVATION
 40
0.0
  9
$THICKNESS
 40
0.0
  9
$LIMCHECK
 70
     0
  9
$CHAMFERA
 40
0.5
  9
$CHAMFERB
 40
0.5
  9
$CHAMFERC
 40
1.0
  9
$CHAMFERD
 40
0.0
  9
$SKPOLY
 70
     0
  9
$TDCREATE
 40
2459350.728166042
  9
$TDUCREATE
 40
2459350.603166042
  9
$TDUPDATE
 40
2459350.728166065
  9
$TDUUPDATE
 40
2459350.603166065
  9
$TDINDWG
 40
0.0000000116
  9
$TDUSRTIMER
 40
0.0000000116
  9
$USRTIMER
 70
     1
  9
$ANGBASE
 50
0.0
  9
$ANGDIR
 70
     0
  9
$PDMODE
 70
     0
  9
$PDSIZE
 40
0.0
  9
$PLINEWID
 40
0.0
  9
$SPLFRAME
 70
     0
  9
$SPLINETYPE
 70
     6
  9
$SPLINESEGS
 70
     8
  9
$HANDSEED
  5
5B
  9
$SURFTAB1
 70
     6
  9
$SURFTAB2
 70
     6
  9
$SURFTYPE
 70
     6
  9
$SURFU
 70
     6
  9
$SURFV
 70
     6
  9
$UCSBASE
  2

  9
$UCSNAME
  2

  9
$UCSORG
 10
0.0
 20
0.0
 30
0.0
  9
$UCSXDIR
 10
1.0
 20
0.0
 30
0.0
  9
$UCSYDIR
 10
0.0
 20
1.0
 30
0.0
  9
$UCSORTHOREF
  2

  9
$UCSORTHOVIEW
 70
     0
  9
$UCSORGTOP
 10
0.0
 20
0.0
 30
0.0
  9
$UCSORGBOTTOM
 10
0.0
 20
0.0
 30
0.0
  9
$UCSORGLEFT
 10
0.0
 20
0.0
 30
0.0
  9
$UCSORGRIGHT
 10
0.0
 20
0.0
 30
0.0
  9
$UCSORGFRONT
 10
0.0
 20
0.0
 30
0.0
  9
$UCSORGBACK
 10
0.0
 20
0.0
 30
0.0
  9
$PUCSBASE
  2

  9
$PUCSNAME
  2

  9
$PUCSORG
 10
0.0
 20
0.0
 30
0.0
  9
$PUCSXDIR
 10
1.0
 20
0.0
 30
0.0
  9
$PUCSYDIR
 10
0.0
 20
1.0
 30
0.0
  9
$PUCSORTHOREF
  2

  9
$PUCSORTHOVIEW
 70
     0
  9
$PUCSORGTOP
 10
0.0
 20
0.0
 30
0.0
  9
$PUCSORGBOTTOM
 10
0.0
 20
0.0
 30
0.0
  9
$PUCSORGLEFT
 10
0.0
 20
0.0
 30
0.0
  9
$PUCSORGRIGHT
 10
0.0
 20
0.0
 30
0.0
  9
$PUCSORGFRONT
 10
0.0
 20
0.0
 30
0.0
  9
$PUCSORGBACK
 10
0.0
 20
0.0
 30
0.0
  9
$USERI1
 70
     0
  9
$USERI2
 70
     0
  9
$USERI3
 70
     0
  9
$USERI4
 70
     0
  9
$USERI5
 70
     0
  9
$USERR1
 40
0.0
  9
$USERR2
 40
0.0
  9
$USERR3
 40
0.0
  9
$USERR4
 40
0.0
  9
$USERR5
 40
0.0
  9
$WORLDVIEW
 70
     1
  9
$SHADEDGE
 70
     3
  9
$SHADEDIF
 70
    70
  9
$TILEMODE
 70
     1
  9
$MAXACTVP
 70
    64
  9
$PINSBASE
 10
0.0
 20
0.0
 30
0.0
  9
$PLIMCHECK
 70
     0
  9
$PEXTMIN
 10
1.000000000000000E+20
 20
1.000000000000000E+20
 30
1.000000000000000E+20
  9
$PEXTMAX
 10
-1.000000000000000E+20
 20
-1.000000000000000E+20
 30
-1.000000000000000E+20
  9
$PLIMMIN
 10
0.0
 20
0.0
  9
$PLIMMAX
 10
12.0
 20
9.0
  9
$UNITMODE
 70
     0
  9
$VISRETAIN
 70
     1
  9
$PLINEGEN
 70
     0
  9
$PSLTSCALE
 70
     1
  9
$TREEDEPTH
 70
  3020
  9
$CMLSTYLE
  2
Standard
  9
$CMLJUST
 70
     0
  9
$CMLSCALE
 40
1.0
  9
$PROXYGRAPHICS
 70
     1
  9
$MEASUREMENT
 70
     0
  9
$CELWEIGHT
370
    -1
  9
$ENDCAPS
280
     0
  9
$JOINSTYLE
280
     0
  9
$LWDISPLAY
290
     1
  9
$INSUNITS
 70
     0
  9
$HYPERLINKBASE
  1

  9
$STYLESHEET
  1

  9
$XEDIT
290
     1
  9
$CEPSNTYPE
380
     0
  9
$PSTYLEMODE
290
     1
  9
$FINGERPRINTGUID
  2
{FF2CAE08-6337-4D9A-9DBB-F3EA9F28C93A}
  9
$VERSIONGUID
  2
{FAEB1C32-E019-11D5-929B-00C0DF256EC4}
  9
$EXTNAMES
290
     1
  9
$PSVPSCALE
 40
0.0
  9
$OLESTARTUP
290
     0
  9
$SORTENTS
280
   127
  9
$INDEXCTL
280
     0
  9
$HIDETEXT
280
     1
  9
$XCLIPFRAME
280
     2
  9
$HALOGAP
280
     0
  9
$OBSCOLOR
 70
   257
  9
$OBSLTYPE
280
     0
  9
$INTERSECTIONDISPLAY
280
     0
  9
$INTERSECTIONCOLOR
 70
   257
  9
$DIMASSOC
280
     2
  9
$PROJECTNAME
  1

  9
$CAMERADISPLAY
290
     0
  9
$LENSLENGTH
 40
50.0
  9
$CAMERAHEIGHT
 40
0.0
  9
$STEPSPERSEC
 40
2.0
  9
$STEPSIZE
 40
6.0
  9
$3DDWFPREC
 40
2.0
  9
$PSOLWIDTH
 40
0.25
  9
$PSOLHEIGHT
 40
4.0
  9
$LOFTANG1
 40
1.570796326794897
  9
$LOFTANG2
 40
1.570796326794897
  9
$LOFTMAG1
 40
0.0
  9
$LOFTMAG2
 40
0.0
  9
$LOFTPARAM
 70
     7
  9
$LOFTNORMALS
280
     1
  9
$LATITUDE
 40
37.795
  9
$LONGITUDE
 40
-122.394
  9
$NORTHDIRECTION
 40
0.0
  9
$TIMEZONE
 70
 -8000
  9
$LIGHTGLYPHDISPLAY
280
     1
  9
$TILEMODELIGHTSYNCH
280
     1
  9
$CMATERIAL
347
3C
  9
$SOLIDHIST
280
     1
  9
$SHOWHIST
280
     1
  9
$DWFFRAME
280
     2
  9
$DGNFRAME
280
     2
  9
$REALWORLDSCALE
290
     1
  9
$INTERFERECOLOR
 62
   256
  9
$CSHADOW
280
     0
  9
$SHADOWPLANELOCATION
 40
0.0
  0
ENDSEC
  0
SECTION
  2
CLASSES
  0
CLASS
  1
ACDBDICTIONARYWDFLT
  2
AcDbDictionaryWithDefault
  3
ObjectDBX Classes
 90
        0
 91
        4
280
     0
281
     0
  0
CLASS
  1
VISUALSTYLE
  2
AcDbVisualStyle
  3
ObjectDBX Classes
 90
     4095
 91
        4
280
     0
281
     0
  0
CLASS
  1
MATERIAL
  2
AcDbMaterial
  3
ObjectDBX Classes
 90
     1153
 91
        4
280
     0
281
     0
  0
CLASS
  1
SUN
  2
AcDbSun
  3
SCENEOE
 90
     1024
 91
        4
280
     0
281
     0
  0
ENDSEC
  0
SECTION
  2
TABLES
  0
TABLE
  2
VPORT
  5
8
330
0
100
AcDbSymbolTable
 70
     1
  0
VPORT
  5
29
330
8
100
AcDbSymbolTableRecord
100
AcDbViewportTableRecord
  2
*Active
 70
     0
 10
0.0
 20
0.0
 11
1.0
 21
1.0
 12
0.0
 22
0.0
 13
0.0
 23
0.0
 14
0.5
 24
0.5
 15
0.5
 25
0.5
 16
0.0
 26
0.0
 36
1.0
 17
969.8142816651489
 27
-999.452593019173
 37
0.0
 40
609.88713405001
 41
1.997699850755982
 42
50.0
 43
0.0
 44
0.0
 50
0.0
 51
0.0
 71
     0
 72
   100
 73
     1
 74
     3
 75
     0
 76
     0
 77
     0
 78
     0
281
     0
 65
     1
110
0.0
120
0.0
130
0.0
111
1.0
121
0.0
131
0.0
112
0.0
122
1.0
132
0.0
 79
     0
146
0.0
 60
     3
 61
     5
292
     1
282
     1
141
0.0
142
0.0
 63
   250
361
3F
  0
ENDTAB
  0
TABLE
  2
LTYPE
  5
5
330
0
100
AcDbSymbolTable
 70
     1
  0
LTYPE
  5
14
330
5
100
AcDbSymbolTableRecord
100
AcDbLinetypeTableRecord
  2
ByBlock
 70
     0
  3

 72
    65
 73
     0
 40
0.0
  0
LTYPE
  5
15
330
5
100
AcDbSymbolTableRecord
100
AcDbLinetypeTableRecord
  2
ByLayer
 70
     0
  3

 72
    65
 73
     0
 40
0.0
  0
LTYPE
  5
16
330
5
100
AcDbSymbolTableRecord
100
AcDbLinetypeTableRecord
  2
Continuous
 70
     0
  3
Solid line
 72
    65
 73
     0
 40
0.0
  0
ENDTAB
  0
TABLE
  2
LAYER
  5
2
330
0
100
AcDbSymbolTable
 70
     2
  0
LAYER
  5
10
330
2
100
AcDbSymbolTableRecord
100
AcDbLayerTableRecord
  2
0
 70
     0
 62
     7
  6
Continuous
370
    -3
390
F
347
3E
  0
LAYER
  5
40
330
2
100
AcDbSymbolTableRecord
100
AcDbLayerTableRecord
  2
katman 1
 70
     0
 62
     7
  6
Continuous
370
    -3
390
F
347
3E
  0
ENDTAB
  0
TABLE
  2
STYLE
  5
3
330
0
100
AcDbSymbolTable
 70
     1
  0
STYLE
  5
11
330
3
100
AcDbSymbolTableRecord
100
AcDbTextStyleTableRecord
  2
Standard
 70
     0
 40
0.0
 41
1.0
 50
0.0
 71
     0
 42
0.2
  3
txt
  4

  0
ENDTAB
  0
TABLE
  2
VIEW
  5
6
330
0
100
AcDbSymbolTable
 70
     0
  0
ENDTAB
  0
TABLE
  2
UCS
  5
7
330
0
100
AcDbSymbolTable
 70
     0
  0
ENDTAB
  0
TABLE
  2
APPID
  5
9
330
0
100
AcDbSymbolTable
 70
     1
  0
APPID
  5
12
330
9
100
AcDbSymbolTableRecord
100
AcDbRegAppTableRecord
  2
ACAD
 70
     0
  0
ENDTAB
  0
TABLE
  2
DIMSTYLE
  5
A
330
0
100
AcDbSymbolTable
 70
     1
100
AcDbDimStyleTable
  0
DIMSTYLE
105
27
330
A
100
AcDbSymbolTableRecord
100
AcDbDimStyleTableRecord
  2
Standard
 70
     0
178
     0
340
11
  0
ENDTAB
  0
TABLE
  2
BLOCK_RECORD
  5
1
330
0
100
AcDbSymbolTable
 70
     1
  0
BLOCK_RECORD
  5
1F
330
1
100
AcDbSymbolTableRecord
100
AcDbBlockTableRecord
  2
*Model_Space
340
22
 70
     0
280
     1
281
     0
  0
BLOCK_RECORD
  5
1B
330
1
100
AcDbSymbolTableRecord
100
AcDbBlockTableRecord
  2
*Paper_Space
340
1E
 70
     0
280
     1
281
     0
  0
BLOCK_RECORD
  5
23
330
1
100
AcDbSymbolTableRecord
100
AcDbBlockTableRecord
  2
*Paper_Space0
340
26
 70
     0
280
     1
281
     0
  0
ENDTAB
  0
ENDSEC
  0
SECTION
  2
BLOCKS
  0
BLOCK
  5
20
330
1F
100
AcDbEntity
  8
0
100
AcDbBlockBegin
  2
*Model_Space
 70
     0
 10
0.0
 20
0.0
 30
0.0
  3
*Model_Space
  1

  0
ENDBLK
  5
21
330
1F
100
AcDbEntity
  8
0
100
AcDbBlockEnd
  0
BLOCK
  5
1C
330
1B
100
AcDbEntity
 67
     1
  8
0
100
AcDbBlockBegin
  2
*Paper_Space
 70
     0
 10
0.0
 20
0.0
 30
0.0
  3
*Paper_Space
  1

  0
ENDBLK
  5
1D
330
1B
100
AcDbEntity
 67
     1
  8
0
100
AcDbBlockEnd
  0
BLOCK
  5
24
330
23
100
AcDbEntity
  8
0
100
AcDbBlockBegin
  2
*Paper_Space0
 70
     0
 10
0.0
 20
0.0
 30
0.0
  3
*Paper_Space0
  1

  0
ENDBLK
  5
25
330
23
100
AcDbEntity
  8
0
100
AcDbBlockEnd
  0
ENDSEC
  0
SECTION
  2
ENTITIES
  0
SPLINE
  5
41
330
1F
100
AcDbEntity
  8
katman 1
370
     0
100
AcDbSpline
210
0.0
220
0.0
230
1.0
 70
    11
 71
     3
 72
   104
 73
   100
 74
     0
 42
0.0000000001
 43
0.0000000001
 12
1.0
 22
0.0
 32
0.0
 13
1.0
 23
0.0
 33
0.0
 40
0.0
 40
0.0
 40
0.0
 40
0.0
 40
1.0
 40
1.0
 40
1.0
 40
2.0
 40
2.0
 40
2.0
 40
3.0
 40
3.0
 40
3.0
 40
4.0
 40
4.0
 40
4.0
 40
5.0
 40
5.0
 40
5.0
 40
6.0
 40
6.0
 40
6.0
 40
7.0
 40
7.0
 40
7.0
 40
8.0
 40
8.0
 40
8.0
 40
9.0
 40
9.0
 40
9.0
 40
10.0
 40
10.0
 40
10.0
 40
11.0
 40
11.0
 40
11.0
 40
12.0
 40
12.0
 40
12.0
 40
13.0
 40
13.0
 40
13.0
 40
14.0
 40
14.0
 40
14.0
 40
15.0
 40
15.0
 40
15.0
 40
16.0
 40
16.0
 40
16.0
 40
17.0
 40
17.0
 40
17.0
 40
18.0
 40
18.0
 40
18.0
 40
19.0
 40
19.0
 40
19.0
 40
20.0
 40
20.0
 40
20.0
 40
21.0
 40
21.0
 40
21.0
 40
22.0
 40
22.0
 40
22.0
 40
23.0
 40
23.0
 40
23.0
 40
24.0
 40
24.0
 40
24.0
 40
25.0
 40
25.0
 40
25.0
 40
26.0
 40
26.0
 40
26.0
 40
27.0
 40
27.0
 40
27.0
 40
28.0
 40
28.0
 40
28.0
 40
29.0
 40
29.0
 40
29.0
 40
30.0
 40
30.0
 40
30.0
 40
31.0
 40
31.0
 40
31.0
 40
32.0
 40
32.0
 40
32.0
 40
33.0
 40
33.0
 40
33.0
 40
33.0
 10
1528.864494868823
 20
-1085.799449231474
 30
0.0
 10
1532.740400316034
 20
-1095.876922873424
 30
0.0
 10
1540.241782794381
 20
-1102.657845738744
 30
0.0
 10
1548.807963957857
 20
-1108.812363022107
 30
0.0
 10
1568.477395539685
 20
-1122.922379350519
 30
0.0
 10
1574.044648629026
 20
-1142.388218365082
 30
0.0
 10
1577.811015540045
 20
-1166.372091872341
 30
0.0
 10
1585.061778435593
 20
-1212.468412185232
 30
0.0
 10
1557.953667062799
 20
-1237.29012167763
 30
0.0
 10
1529.005480332069
 20
-1262.980970707182
 30
0.0
 10
1526.053483690106
 20
-1276.159192602743
 30
0.0
 10
1516.391056914446
 20
-1283.182849423258
 30
0.0
 10
1505.26438857169
 20
-1288.906715856006
 30
0.0
 10
1476.402322452748
 20
-1298.921510706416
 30
0.0
 10
1447.798618169165
 20
-1311.105283273424
 30
0.0
 10
1416.305619931001
 20
-1299.962939258821
 30
0.0
 10
1407.731600931602
 20
-1295.92258263228
 30
0.0
 10
1400.72352419957
 20
-1289.533121437962
 30
0.0
 10
1392.932524125536
 20
-1284.302560751526
 30
0.0
 10
1381.05409261774
 20
-1274.209435333571
 30
0.0
 10
1367.860242842016
 20
-1267.851325482943
 30
0.0
 10
1351.949340335284
 20
-1266.019087960933
 30
0.0
 10
1336.179327708434
 20
-1264.202478319085
 30
0.0
 10
1321.200171842871
 20
-1258.549104617958
 30
0.0
 10
1307.066737590056
 20
-1251.071235647378
 30
0.0
 10
1274.641897127358
 20
-1229.467722468224
 30
0.0
 10
1239.570544456958
 20
-1214.277183991157
 30
0.0
 10
1201.06946948676
 20
-1207.37878917036
 30
0.0
 10
1190.443944726241
 20
-1202.226511259789
 30
0.0
 10
1178.158328083919
 20
-1200.69182475275
 30
0.0
 10
1168.832545919482
 20
-1192.681508647924
 30
0.0
 10
1153.211308800117
 20
-1179.29190414086
 30
0.0
 10
1134.638122830473
 20
-1170.584737514138
 30
0.0
 10
1117.168972517251
 20
-1160.123568349585
 30
0.0
 10
1072.787465562578
 20
-1134.832066618639
 30
0.0
 10
1020.48964874247
 20
-1125.835186812867
 30
0.0
 10
979.6943340559546
 20
-1093.034512559334
 30
0.0
 10
969.5777429219124
 20
-1084.898934454788
 30
0.0
 10
954.2149154295903
 20
-1088.900173589242
 30
0.0
 10
944.3566861309073
 20
-1079.300353917599
 30
0.0
 10
911.7047873848596
 20
-1068.314599350564
 30
0.0
 10
878.8649717433937
 20
-1057.806474858
 30
0.0
 10
848.3350714900898
 20
-1041.433546261122
 30
0.0
 10
830.7249835053053
 20
-1035.874107111864
 30
0.0
 10
816.8733768039347
 20
-1023.948744171896
 30
0.0
 10
801.8472417145176
 20
-1013.988742485422
 30
0.0
 10
774.8252509535096
 20
-987.2329991873776
 30
0.0
 10
742.8545987450361
 20
-969.8342938140977
 30
0.0
 10
705.7160168499859
 20
-961.2289234710079
 30
0.0
 10
684.3709132978729
 20
-956.2802381277006
 30
0.0
 10
664.1611967458757
 20
-947.6592160086066
 30
0.0
 10
644.640540671533
 20
-937.6443972623556
 30
0.0
 10
638.7444091193702
 20
-934.6219556804508
 30
0.0
 10
632.3941132088239
 20
-932.0379788892424
 30
0.0
 10
629.6378951940433
 20
-925.1787254563778
 30
0.0
 10
611.3543985076067
 20
-912.8305256058775
 30
0.0
 10
593.7834519107546
 20
-899.6836311581683
 30
0.0
 10
578.5302585379868
 20
-883.5456106284828
 30
0.0
 10
565.4460189859765
 20
-869.7096676510373
 30
0.0
 10
546.9589297322764
 20
-865.3169310018247
 30
0.0
 10
530.2884620683453
 20
-858.0896696661257
 30
0.0
 10
492.1945841805964
 20
-841.5758033976826
 30
0.0
 10
453.3098734274008
 20
-826.6984438157524
 30
0.0
 10
418.7865718755693
 20
-803.0747523233267
 30
0.0
 10
396.995001412929
 20
-788.1739568951107
 30
0.0
 10
376.417263516686
 20
-771.8401816340847
 30
0.0
 10
363.5209417935257
 20
-747.8954614626791
 30
0.0
 10
358.133771497407
 20
-737.8884805523512
 30
0.0
 10
360.3732057284942
 20
-732.6031028061388
 30
0.0
 10
369.3935835470757
 20
-723.7471576849503
 30
0.0
 10
406.1641523120752
 20
-687.6030042095917
 30
0.0
 10
452.5658525149211
 20
-694.681495054997
 30
0.0
 10
495.6084037980563
 20
-695.8090422823198
 30
0.0
 10
582.868046700296
 20
-698.0954575107817
 30
0.0
 10
666.283027967731
 20
-723.2381941886715
 30
0.0
 10
744.4126792806364
 20
-759.9539541080894
 30
0.0
 10
828.8221098766235
 20
-799.6216957345696
 30
0.0
 10
917.8200676969263
 20
-821.6166944805655
 30
0.0
 10
1007.185973680462
 20
-843.9875389653189
 30
0.0
 10
1038.522406366897
 20
-843.6899879503453
 30
0.0
 10
1065.81843463511
 20
-857.8313078307665
 30
0.0
 10
1094.148053619807
 20
-868.300278987479
 30
0.0
 10
1098.838329336071
 20
-870.0307560696201
 30
0.0
 10
1102.839544574683
 20
-872.6225468009106
 30
0.0
 10
1105.627090037313
 20
-876.8665079426373
 30
0.0
 10
1162.803147260789
 20
-900.9443518455246
 30
0.0
 10
1215.993569334134
 20
-932.9384936659262
 30
0.0
 10
1273.905714050801
 20
-956.4212235909472
 30
0.0
 10
1322.546845871126
 20
-976.1454722325525
 30
0.0
 10
1373.787558466982
 20
-995.4703735755538
 30
0.0
 10
1415.843569945013
 20
-1030.064143963169
 30
0.0
 10
1423.759879810448
 20
-1036.571029321283
 30
0.0
 10
1432.122563990024
 20
-1043.351976082442
 30
0.0
 10
1443.664255303231
 20
-1042.013020410905
 30
0.0
 10
1473.434650138939
 20
-1048.363292425609
 30
0.0
 10
1501.263077749714
 20
-1059.192457545076
 30
0.0
 10
1525.630718467097
 20
-1077.867463694194
 30
0.0
 10
1528.081475943458
 20
-1079.73889039582
 30
0.0
 10
1529.663189466035
 20
-1082.393312126969
 30
0.0
 10
1528.864494868823
 20
-1085.799449231474
 30
0.0
  0
HATCH
  5
42
330
1F
100
AcDbEntity
  8
katman 1
 62
    18
420
   328706
100
AcDbHatch
 10
0.0
 20
0.0
 30
0.0
210
0.0
220
0.0
230
1.0
  2
SOLID
 70
     1
 71
     0
 91
        1
 92
        1
 93
        1
 72
     4
 94
        3
 73
     0
 74
     1
 95
      104
 96
      100
 40
0.0
 40
0.0
 40
0.0
 40
0.0
 40
1.0
 40
1.0
 40
1.0
 40
2.0
 40
2.0
 40
2.0
 40
3.0
 40
3.0
 40
3.0
 40
4.0
 40
4.0
 40
4.0
 40
5.0
 40
5.0
 40
5.0
 40
6.0
 40
6.0
 40
6.0
 40
7.0
 40
7.0
 40
7.0
 40
8.0
 40
8.0
 40
8.0
 40
9.0
 40
9.0
 40
9.0
 40
10.0
 40
10.0
 40
10.0
 40
11.0
 40
11.0
 40
11.0
 40
12.0
 40
12.0
 40
12.0
 40
13.0
 40
13.0
 40
13.0
 40
14.0
 40
14.0
 40
14.0
 40
15.0
 40
15.0
 40
15.0
 40
16.0
 40
16.0
 40
16.0
 40
17.0
 40
17.0
 40
17.0
 40
18.0
 40
18.0
 40
18.0
 40
19.0
 40
19.0
 40
19.0
 40
20.0
 40
20.0
 40
20.0
 40
21.0
 40
21.0
 40
21.0
 40
22.0
 40
22.0
 40
22.0
 40
23.0
 40
23.0
 40
23.0
 40
24.0
 40
24.0
 40
24.0
 40
25.0
 40
25.0
 40
25.0
 40
26.0
 40
26.0
 40
26.0
 40
27.0
 40
27.0
 40
27.0
 40
28.0
 40
28.0
 40
28.0
 40
29.0
 40
29.0
 40
29.0
 40
30.0
 40
30.0
 40
30.0
 40
31.0
 40
31.0
 40
31.0
 40
32.0
 40
32.0
 40
32.0
 40
33.0
 40
33.0
 40
33.0
 40
33.0
 10
1528.864494868823
 20
-1085.799449231474
 10
1532.740400316034
 20
-1095.876922873424
 10
1540.241782794381
 20
-1102.657845738744
 10
1548.807963957857
 20
-1108.812363022107
 10
1568.477395539685
 20
-1122.922379350519
 10
1574.044648629026
 20
-1142.388218365082
 10
1577.811015540045
 20
-1166.372091872341
 10
1585.061778435593
 20
-1212.468412185232
 10
1557.953667062799
 20
-1237.29012167763
 10
1529.005480332069
 20
-1262.980970707182
 10
1526.053483690106
 20
-1276.159192602743
 10
1516.391056914446
 20
-1283.182849423258
 10
1505.26438857169
 20
-1288.906715856006
 10
1476.402322452748
 20
-1298.921510706416
 10
1447.798618169165
 20
-1311.105283273424
 10
1416.305619931001
 20
-1299.962939258821
 10
1407.731600931602
 20
-1295.92258263228
 10
1400.72352419957
 20
-1289.533121437962
 10
1392.932524125536
 20
-1284.302560751526
 10
1381.05409261774
 20
-1274.209435333571
 10
1367.860242842016
 20
-1267.851325482943
 10
1351.949340335284
 20
-1266.019087960933
 10
1336.179327708434
 20
-1264.202478319085
 10
1321.200171842871
 20
-1258.549104617958
 10
1307.066737590056
 20
-1251.071235647378
 10
1274.641897127358
 20
-1229.467722468224
 10
1239.570544456958
 20
-1214.277183991157
 10
1201.06946948676
 20
-1207.37878917036
 10
1190.443944726241
 20
-1202.226511259789
 10
1178.158328083919
 20
-1200.69182475275
 10
1168.832545919482
 20
-1192.681508647924
 10
1153.211308800117
 20
-1179.29190414086
 10
1134.638122830473
 20
-1170.584737514138
 10
1117.168972517251
 20
-1160.123568349585
 10
1072.787465562578
 20
-1134.832066618639
 10
1020.48964874247
 20
-1125.835186812867
 10
979.6943340559546
 20
-1093.034512559334
 10
969.5777429219124
 20
-1084.898934454788
 10
954.2149154295903
 20
-1088.900173589242
 10
944.3566861309073
 20
-1079.300353917599
 10
911.7047873848596
 20
-1068.314599350564
 10
878.8649717433937
 20
-1057.806474858
 10
848.3350714900898
 20
-1041.433546261122
 10
830.7249835053053
 20
-1035.874107111864
 10
816.8733768039347
 20
-1023.948744171896
 10
801.8472417145176
 20
-1013.988742485422
 10
774.8252509535096
 20
-987.2329991873776
 10
742.8545987450361
 20
-969.8342938140977
 10
705.7160168499859
 20
-961.2289234710079
 10
684.3709132978729
 20
-956.2802381277006
 10
664.1611967458757
 20
-947.6592160086066
 10
644.640540671533
 20
-937.6443972623556
 10
638.7444091193702
 20
-934.6219556804508
 10
632.3941132088239
 20
-932.0379788892424
 10
629.6378951940433
 20
-925.1787254563778
 10
611.3543985076067
 20
-912.8305256058775
 10
593.7834519107546
 20
-899.6836311581683
 10
578.5302585379868
 20
-883.5456106284828
 10
565.4460189859765
 20
-869.7096676510373
 10
546.9589297322764
 20
-865.3169310018247
 10
530.2884620683453
 20
-858.0896696661257
 10
492.1945841805964
 20
-841.5758033976826
 10
453.3098734274008
 20
-826.6984438157524
 10
418.7865718755693
 20
-803.0747523233267
 10
396.995001412929
 20
-788.1739568951107
 10
376.417263516686
 20
-771.8401816340847
 10
363.5209417935257
 20
-747.8954614626791
 10
358.133771497407
 20
-737.8884805523512
 10
360.3732057284942
 20
-732.6031028061388
 10
369.3935835470757
 20
-723.7471576849503
 10
406.1641523120752
 20
-687.6030042095917
 10
452.5658525149211
 20
-694.681495054997
 10
495.6084037980563
 20
-695.8090422823198
 10
582.868046700296
 20
-698.0954575107817
 10
666.283027967731
 20
-723.2381941886715
 10
744.4126792806364
 20
-759.9539541080894
 10
828.8221098766235
 20
-799.6216957345696
 10
917.8200676969263
 20
-821.6166944805655
 10
1007.185973680462
 20
-843.9875389653189
 10
1038.522406366897
 20
-843.6899879503453
 10
1065.81843463511
 20
-857.8313078307665
 10
1094.148053619807
 20
-868.300278987479
 10
1098.838329336071
 20
-870.0307560696201
 10
1102.839544574683
 20
-872.6225468009106
 10
1105.627090037313
 20
-876.8665079426373
 10
1162.803147260789
 20
-900.9443518455246
 10
1215.993569334134
 20
-932.9384936659262
 10
1273.905714050801
 20
-956.4212235909472
 10
1322.546845871126
 20
-976.1454722325525
 10
1373.787558466982
 20
-995.4703735755538
 10
1415.843569945013
 20
-1030.064143963169
 10
1423.759879810448
 20
-1036.571029321283
 10
1432.122563990024
 20
-1043.351976082442
 10
1443.664255303231
 20
-1042.013020410905
 10
1473.434650138939
 20
-1048.363292425609
 10
1501.263077749714
 20
-1059.192457545076
 10
1525.630718467097
 20
-1077.867463694194
 10
1528.081475943458
 20
-1079.73889039582
 10
1529.663189466035
 20
-1082.393312126969
 10
1528.864494868823
 20
-1085.799449231474
 97
        0
 97
        0
 75
     2
 76
     1
 98
        0
  0
SPLINE
  5
43
330
1F
100
AcDbEntity
  8
katman 1
370
     0
100
AcDbSpline
210
0.0
220
0.0
230
1.0
 70
    11
 71
     3
 72
   200
 73
   196
 74
     0
 42
0.0000000001
 43
0.0000000001
 12
1.0
 22
0.0
 32
0.0
 13
1.0
 23
0.0
 33
0.0
 40
0.0
 40
0.0
 40
0.0
 40
0.0
 40
1.0
 40
1.0
 40
1.0
 40
2.0
 40
2.0
 40
2.0
 40
3.0
 40
3.0
 40
3.0
 40
4.0
 40
4.0
 40
4.0
 40
5.0
 40
5.0
 40
5.0
 40
6.0
 40
6.0
 40
6.0
 40
7.0
 40
7.0
 40
7.0
 40
8.0
 40
8.0
 40
8.0
 40
9.0
 40
9.0
 40
9.0
 40
10.0
 40
10.0
 40
10.0
 40
11.0
 40
11.0
 40
11.0
 40
12.0
 40
12.0
 40
12.0
 40
13.0
 40
13.0
 40
13.0
 40
14.0
 40
14.0
 40
14.0
 40
15.0
 40
15.0
 40
15.0
 40
16.0
 40
16.0
 40
16.0
 40
17.0
 40
17.0
 40
17.0
 40
18.0
 40
18.0
 40
18.0
 40
19.0
 40
19.0
 40
19.0
 40
20.0
 40
20.0
 40
20.0
 40
21.0
 40
21.0
 40
21.0
 40
22.0
 40
22.0
 40
22.0
 40
23.0
 40
23.0
 40
23.0
 40
24.0
 40
24.0
 40
24.0
 40
25.0
 40
25.0
 40
25.0
 40
26.0
 40
26.0
 40
26.0
 40
27.0
 40
27.0
 40
27.0
 40
28.0
 40
28.0
 40
28.0
 40
29.0
 40
29.0
 40
29.0
 40
30.0
 40
30.0
 40
30.0
 40
31.0
 40
31.0
 40
31.0
 40
32.0
 40
32.0
 40
32.0
 40
33.0
 40
33.0
 40
33.0
 40
34.0
 40
34.0
 40
34.0
 40
35.0
 40
35.0
 40
35.0
 40
36.0
 40
36.0
 40
36.0
 40
37.0
 40
37.0
 40
37.0
 40
38.0
 40
38.0
 40
38.0
 40
39.0
 40
39.0
 40
39.0
 40
40.0
 40
40.0
 40
40.0
 40
41.0
 40
41.0
 40
41.0
 40
42.0
 40
42.0
 40
42.0
 40
43.0
 40
43.0
 40
43.0
 40
44.0
 40
44.0
 40
44.0
 40
45.0
 40
45.0
 40
45.0
 40
46.0
 40
46.0
 40
46.0
 40
47.0
 40
47.0
 40
47.0
 40
48.0
 40
48.0
 40
48.0
 40
49.0
 40
49.0
 40
49.0
 40
50.0
 40
50.0
 40
50.0
 40
51.0
 40
51.0
 40
51.0
 40
52.0
 40
52.0
 40
52.0
 40
53.0
 40
53.0
 40
53.0
 40
54.0
 40
54.0
 40
54.0
 40
55.0
 40
55.0
 40
55.0
 40
56.0
 40
56.0
 40
56.0
 40
57.0
 40
57.0
 40
57.0
 40
58.0
 40
58.0
 40
58.0
 40
59.0
 40
59.0
 40
59.0
 40
60.0
 40
60.0
 40
60.0
 40
61.0
 40
61.0
 40
61.0
 40
62.0
 40
62.0
 40
62.0
 40
63.0
 40
63.0
 40
63.0
 40
64.0
 40
64.0
 40
64.0
 40
65.0
 40
65.0
 40
65.0
 40
65.0
 10
1020.943621934122
 20
-1012.46973165023
 30
0.0
 10
1022.916844919378
 20
-1006.001987680047
 30
0.0
 10
1017.991625292158
 20
-1006.119459635525
 30
0.0
 10
1013.982572217625
 20
-1004.623890620576
 30
0.0
 10
991.5255951731651
 20
-996.2220889489099
 30
0.0
 10
968.0428652481451
 20
-991.9703019191811
 30
0.0
 10
944.7245387107741
 20
-986.9981269639466
 30
0.0
 10
902.8721675916904
 20
-978.079529934037
 30
0.0
 10
864.8801218313347
 20
-960.1875666061251
 30
0.0
 10
829.3153678312556
 20
-936.8144469048184
 30
0.0
 10
824.4058238758798
 20
-933.5884127556501
 30
0.0
 10
818.6741196072071
 20
-930.8008672930191
 30
0.0
 10
816.9280026969827
 20
-923.2447394424171
 30
0.0
 10
838.140006413455
 20
-922.7671093679483
 30
0.0
 10
859.4146172339442
 20
-928.7571993678202
 30
0.0
 10
884.1579961587986
 20
-918.3352193828823
 30
0.0
 10
855.2645786961657
 20
-913.8172087860303
 30
0.0
 10
830.2706279801923
 20
-912.1023954278144
 30
0.0
 10
806.4981848761217
 20
-905.8069165770457
 30
0.0
 10
715.6366620859571
 20
-881.7525742340058
 30
0.0
 10
620.546865773832
 20
-874.6036076220917
 30
0.0
 10
533.2324177597357
 20
-836.2121906672892
 30
0.0
 10
485.4447737005567
 20
-815.2037914660023
 30
0.0
 10
439.0117490368411
 20
-792.2535086752277
 30
0.0
 10
397.7466540597015
 20
-759.9304883920031
 30
0.0
 10
389.6345775150057
 20
-753.5723725674152
 30
0.0
 10
382.1724081121129
 20
-746.3842585936081
 30
0.0
 10
372.3298604592364
 20
-737.7553926646306
 30
0.0
 10
386.8078787165223
 20
-735.0774693736339
 30
0.0
 10
397.3316549850915
 20
-730.997938502378
 30
0.0
 10
404.2535424047956
 20
-719.6285033476443
 30
0.0
 10
408.3252414140889
 20
-712.9415210081534
 30
0.0
 10
417.3847701416007
 20
-714.6406736294248
 30
0.0
 10
424.6903381490047
 20
-714.029918329984
 30
0.0
 10
501.9978052527722
 20
-707.5778425641965
 30
0.0
 10
575.5937464011386
 20
-724.757276711387
 30
0.0
 10
648.1247932810129
 20
-748.842937541337
 30
0.0
 10
687.5889423402296
 20
-761.9506726792342
 30
0.0
 10
727.0687670712923
 20
-775.0192604552394
 30
0.0
 10
766.5563818465953
 20
-788.048694895393
 30
0.0
 10
769.4691893089448
 20
-789.0118108021343
 30
0.0
 10
772.4760030106854
 20
-789.5599216603059
 30
0.0
 10
774.3082883243796
 20
-794.978411190079
 30
0.0
 10
723.4825270114507
 20
-789.6695438319393
 30
0.0
 10
673.4789260118177
 20
-786.0050150222742
 30
0.0
 10
623.1151668931943
 20
-790.2411443020383
 30
0.0
 10
656.4639400569795
 20
-801.9786022945082
 30
0.0
 10
691.1125275043714
 20
-806.3478373838734
 30
0.0
 10
726.309237757855
 20
-806.3008581600188
 30
0.0
 10
781.3006415928849
 20
-806.230389324237
 30
0.0
 10
834.8278516524997
 20
-814.4285984286398
 30
0.0
 10
886.7419968458489
 20
-832.6102988314433
 30
0.0
 10
890.8919875919455
 20
-834.066714510539
 30
0.0
 10
896.357492189336
 20
-833.7926531074927
 30
0.0
 10
900.4448280397319
 20
-842.2649236149418
 30
0.0
 10
755.53150978747
 20
-834.9828452194652
 30
0.0
 10
611.1584765053776
 20
-838.2323809284808
 30
0.0
 10
478.1940347008513
 20
-757.2760487389733
 30
0.0
 10
487.37101746196
 20
-771.2137820260896
 30
0.0
 10
497.2057332528748
 20
-776.6635990037139
 30
0.0
 10
507.0169594318613
 20
-782.2386899289768
 30
0.0
 10
585.1935660727804
 20
-826.6906776673532
 30
0.0
 10
670.2451018184092
 20
-846.8455771595727
 30
0.0
 10
759.0159296678385
 20
-854.8010523087805
 30
0.0
 10
821.9784843239213
 20
-860.4466240177453
 30
0.0
 10
885.2307760548965
 20
-856.977843965461
 30
0.0
 10
948.162003263129
 20
-861.8403967490613
 30
0.0
 10
1042.742842052936
 20
-869.1459647564652
 30
0.0
 10
1126.659014694291
 20
-905.5485069500046
 30
0.0
 10
1209.048290872848
 20
-959.9135052030797
 30
0.0
 10
1118.922831680035
 20
-968.6050200537966
 30
0.0
 10
1035.014496874603
 20
-954.5341690091582
 30
0.0
 10
950.2370225320192
 20
-940.4319905166685
 30
0.0
 10
958.7954136512544
 20
-947.862832471712
 30
0.0
 10
958.7954136512544
 20
-947.8550185316299
 30
0.0
 10
968.2229443076403
 20
-949.8986864568287
 30
0.0
 10
1059.883137799174
 20
-969.7717106059208
 30
0.0
 10
1152.130595484732
 20
-984.6177427400016
 30
0.0
 10
1246.171149304369
 20
-987.7263288295335
 30
0.0
 10
1285.603970915736
 20
-989.0261431131403
 30
0.0
 10
1321.192238423584
 20
-1007.936045381532
 30
0.0
 10
1358.745795497402
 20
-1017.520189381328
 30
0.0
 10
1358.628323541925
 20
-1025.444337082685
 30
0.0
 10
1351.479356930009
 20
-1023.839157844024
 30
0.0
 10
1348.300349796378
 20
-1027.135660828973
 30
0.0
 10
1344.847209572177
 20
-1030.714063052892
 30
0.0
 10
1343.281171721448
 20
-1034.378585888597
 30
0.0
 10
1345.317001810723
 20
-1038.606883306398
 30
0.0
 10
1348.965896766265
 20
-1046.186500768928
 30
0.0
 10
1352.004014020014
 20
-1038.794800201817
 30
0.0
 10
1355.112576213705
 20
-1037.667251037625
 30
0.0
 10
1370.882588840555
 20
-1031.951222440799
 30
0.0
 10
1389.064265347519
 20
-1039.969328589865
 30
0.0
 10
1391.765737990047
 20
-1056.263950515038
 30
0.0
 10
1393.597975512057
 20
-1067.335849589701
 30
0.0
 10
1400.206704945485
 20
-1064.595283350924
 30
0.0
 10
1406.21239892968
 20
-1064.916300081983
 30
0.0
 10
1421.254161899262
 20
-1065.714970783352
 30
0.0
 10
1437.094619466052
 20
-1061.698103768736
 30
0.0
 10
1451.055908078659
 20
-1073.372894917586
 30
0.0
 10
1442.982937078134
 20
-1081.64157285777
 30
0.0
 10
1428.050808228109
 20
-1084.131567305429
 30
0.0
 10
1428.27791430314
 20
-1100.136499947394
 30
0.0
 10
1436.335209631821
 20
-1098.249445365605
 30
0.0
 10
1442.466213407415
 20
-1087.42809418622
 30
0.0
 10
1453.851339168896
 20
-1095.16432499216
 30
0.0
 10
1439.796187691945
 20
-1098.147649081973
 30
0.0
 10
1432.365345736902
 20
-1107.160156767908
 30
0.0
 10
1427.996038960013
 20
-1121.176214648611
 30
0.0
 10
1414.58292094518
 20
-1111.717332648534
 30
0.0
 10
1418.082992601552
 20
-1089.119417932508
 30
0.0
 10
1398.836421826098
 20
-1089.338662275777
 30
0.0
 10
1400.097070825932
 20
-1093.692245589138
 30
0.0
 10
1401.404746841301
 20
-1099.32217747002
 30
0.0
 10
1391.115866692006
 20
-1099.658869872925
 30
0.0
 10
1374.359242572526
 20
-1100.199154843094
 30
0.0
 10
1366.37248776715
 20
-1111.435457305406
 30
0.0
 10
1363.13861578206
 20
-1126.469430230745
 30
0.0
 10
1360.147525543847
 20
-1140.391529663739
 30
0.0
 10
1353.695361662145
 20
-1152.520485170971
 30
0.0
 10
1345.96696869213
 20
-1164.743399125911
 30
0.0
 10
1341.284530811787
 20
-1155.033945334715
 30
0.0
 10
1341.041749064909
 20
-1154.791211379519
 30
0.0
 10
1347.916678169619
 20
-1148.143388349841
 30
0.0
 10
1355.911270810917
 20
-1140.407157543903
 30
0.0
 10
1355.887852886513
 20
-1134.456232827803
 30
0.0
 10
1346.217492691565
 20
-1127.855389021981
 30
0.0
 10
1323.000962437827
 20
-1112.014931455189
 30
0.0
 10
1297.920843318385
 20
-1108.326895111715
 30
0.0
 10
1270.977230916606
 20
-1114.67716712642
 30
0.0
 10
1258.863951081221
 20
-1117.535205320673
 30
0.0
 10
1255.982399379198
 20
-1124.582375648957
 30
0.0
 10
1262.8886798276
 20
-1134.832066618639
 30
0.0
 10
1272.723443410196
 20
-1149.41971302152
 30
0.0
 10
1283.012227976127
 20
-1163.694132737583
 30
0.0
 10
1293.113191230006
 20
-1178.093862245045
 30
0.0
 10
1290.388300663075
 20
-1181.868019200305
 30
0.0
 10
1291.132130408827
 20
-1186.307723125452
 30
0.0
 10
1291.672463170678
 20
-1190.246331260043
 30
0.0
 10
1293.301108125424
 20
-1202.022918692524
 30
0.0
 10
1286.246099961219
 20
-1200.7935732447
 30
0.0
 10
1278.830933678022
 20
-1199.485945021012
 30
0.0
 10
1238.61509314129
 20
-1178.258313424376
 30
0.0
 10
1194.014365739189
 20
-1167.13943512586
 30
0.0
 10
1154.276107485244
 20
-1143.891601320112
 30
0.0
 10
1189.629383290456
 20
-1161.305934573556
 30
0.0
 10
1227.339601499365
 20
-1169.175265215135
 30
0.0
 10
1266.373075812127
 20
-1173.254811021292
 30
0.0
 10
1261.213007857314
 20
-1164.602461454348
 30
0.0
 10
1251.566161170136
 20
-1161.767936767861
 30
0.0
 10
1242.45964724481
 20
-1158.24435160372
 30
0.0
 10
1228.796005230539
 20
-1152.958973857507
 30
0.0
 10
1214.983539917101
 20
-1148.025964186047
 30
0.0
 10
1201.429436439023
 20
-1142.458711096706
 30
0.0
 10
1193.52096440951
 20
-1139.209163439769
 30
0.0
 10
1184.390936976415
 20
-1135.62297117161
 30
0.0
 10
1186.058771110776
 20
-1124.731151156444
 30
0.0
 10
1187.812725856924
 20
-1113.314721842955
 30
0.0
 10
1196.895726274483
 20
-1111.271053917755
 30
0.0
 10
1206.910568916575
 20
-1111.404153753396
 30
0.0
 10
1209.517987528028
 20
-1111.443295141329
 30
0.0
 10
1212.837980124907
 20
-1112.586519977367
 30
0.0
 10
1215.578546363682
 20
-1107.786610141546
 30
0.0
 10
1191.41459379693
 20
-1098.515645036887
 30
0.0
 10
1166.773011155707
 20
-1092.384617365451
 30
0.0
 10
1141.732033424198
 20
-1089.252541663991
 30
0.0
 10
1065.755731947727
 20
-1079.762356111905
 30
0.0
 10
990.4684431572314
 20
-1067.680379828529
 30
0.0
 10
918.9866148740039
 20
-1038.638210754249
 30
0.0
 10
901.6114230084913
 20
-1031.575388649962
 30
0.0
 10
884.2362311429797
 20
-1024.473401261901
 30
0.0
 10
868.8421000986482
 20
-1013.056995844254
 30
0.0
 10
898.0017172325634
 20
-1019.18802351569
 30
0.0
 10
928.2340664708945
 20
-1022.782101411454
 30
0.0
 10
954.6609552019554
 20
-1036.414439873715
 30
0.0
 10
1015.99484100745
 20
-1068.056237515206
 30
0.0
 10
1081.588351678596
 20
-1078.775768515117
 30
0.0
 10
1149.335116602813
 20
-1081.860864992723
 30
0.0
 10
1169.975531797107
 20
-1082.800497261496
 30
0.0
 10
1190.545358676412
 20
-1085.259164261304
 30
0.0
 10
1211.522466273613
 20
-1085.62718411206
 30
0.0
 10
1170.437486199729
 20
-1062.841328604776
 30
0.0
 10
1119.846597110234
 20
-1078.846237350899
 30
0.0
 10
1076.577011439589
 20
-1055.527934709369
 30
0.0
 10
1094.249754320073
 20
-1038.927923933301
 30
0.0
 10
1116.824203320011
 20
-1049.38906920201
 30
0.0
 10
1136.04730837938
 20
-1039.303781619978
 30
0.0
 10
1114.522125767771
 20
-1035.271238933517
 30
0.0
 10
1094.899673409796
 20
-1031.59887826189
 30
0.0
 10
1075.277221051823
 20
-1027.926517590262
 30
0.0
 10
1062.459205066936
 20
-1023.259731485923
 30
0.0
 10
1048.967804276239
 20
-1022.766425739608
 30
0.0
 10
1035.593827649338
 20
-1021.803303858906
 30
0.0
 10
1028.805162531462
 20
-1021.317835948515
 30
0.0
 10
1021.577865351999
 20
-1022.296609605222
 30
0.0
 10
1020.943621934122
 20
-1012.46973165023
 30
0.0
  0
HATCH
  5
44
330
1F
100
AcDbEntity
  8
katman 1
 62
    43
420
 13418340
100
AcDbHatch
 10
0.0
 20
0.0
 30
0.0
210
0.0
220
0.0
230
1.0
  2
SOLID
 70
     1
 71
     0
 91
        1
 92
        1
 93
        1
 72
     4
 94
        3
 73
     0
 74
     1
 95
      200
 96
      196
 40
0.0
 40
0.0
 40
0.0
 40
0.0
 40
1.0
 40
1.0
 40
1.0
 40
2.0
 40
2.0
 40
2.0
 40
3.0
 40
3.0
 40
3.0
 40
4.0
 40
4.0
 40
4.0
 40
5.0
 40
5.0
 40
5.0
 40
6.0
 40
6.0
 40
6.0
 40
7.0
 40
7.0
 40
7.0
 40
8.0
 40
8.0
 40
8.0
 40
9.0
 40
9.0
 40
9.0
 40
10.0
 40
10.0
 40
10.0
 40
11.0
 40
11.0
 40
11.0
 40
12.0
 40
12.0
 40
12.0
 40
13.0
 40
13.0
 40
13.0
 40
14.0
 40
14.0
 40
14.0
 40
15.0
 40
15.0
 40
15.0
 40
16.0
 40
16.0
 40
16.0
 40
17.0
 40
17.0
 40
17.0
 40
18.0
 40
18.0
 40
18.0
 40
19.0
 40
19.0
 40
19.0
 40
20.0
 40
20.0
 40
20.0
 40
21.0
 40
21.0
 40
21.0
 40
22.0
 40
22.0
 40
22.0
 40
23.0
 40
23.0
 40
23.0
 40
24.0
 40
24.0
 40
24.0
 40
25.0
 40
25.0
 40
25.0
 40
26.0
 40
26.0
 40
26.0
 40
27.0
 40
27.0
 40
27.0
 40
28.0
 40
28.0
 40
28.0
 40
29.0
 40
29.0
 40
29.0
 40
30.0
 40
30.0
 40
30.0
 40
31.0
 40
31.0
 40
31.0
 40
32.0
 40
32.0
 40
32.0
 40
33.0
 40
33.0
 40
33.0
 40
34.0
 40
34.0
 40
34.0
 40
35.0
 40
35.0
 40
35.0
 40
36.0
 40
36.0
 40
36.0
 40
37.0
 40
37.0
 40
37.0
 40
38.0
 40
38.0
 40
38.0
 40
39.0
 40
39.0
 40
39.0
 40
40.0
 40
40.0
 40
40.0
 40
41.0
 40
41.0
 40
41.0
 40
42.0
 40
42.0
 40
42.0
 40
43.0
 40
43.0
 40
43.0
 40
44.0
 40
44.0
 40
44.0
 40
45.0
 40
45.0
 40
45.0
 40
46.0
 40
46.0
 40
46.0
 40
47.0
 40
47.0
 40
47.0
 40
48.0
 40
48.0
 40
48.0
 40
49.0
 40
49.0
 40
49.0
 40
50.0
 40
50.0
 40
50.0
 40
51.0
 40
51.0
 40
51.0
 40
52.0
 40
52.0
 40
52.0
 40
53.0
 40
53.0
 40
53.0
 40
54.0
 40
54.0
 40
54.0
 40
55.0
 40
55.0
 40
55.0
 40
56.0
 40
56.0
 40
56.0
 40
57.0
 40
57.0
 40
57.0
 40
58.0
 40
58.0
 40
58.0
 40
59.0
 40
59.0
 40
59.0
 40
60.0
 40
60.0
 40
60.0
 40
61.0
 40
61.0
 40
61.0
 40
62.0
 40
62.0
 40
62.0
 40
63.0
 40
63.0
 40
63.0
 40
64.0
 40
64.0
 40
64.0
 40
65.0
 40
65.0
 40
65.0
 40
65.0
 10
1020.943621934122
 20
-1012.46973165023
 10
1022.916844919378
 20
-1006.001987680047
 10
1017.991625292158
 20
-1006.119459635525
 10
1013.982572217625
 20
-1004.623890620576
 10
991.5255951731651
 20
-996.2220889489099
 10
968.0428652481451
 20
-991.9703019191811
 10
944.7245387107741
 20
-986.9981269639466
 10
902.8721675916904
 20
-978.079529934037
 10
864.8801218313347
 20
-960.1875666061251
 10
829.3153678312556
 20
-936.8144469048184
 10
824.4058238758798
 20
-933.5884127556501
 10
818.6741196072071
 20
-930.8008672930191
 10
816.9280026969827
 20
-923.2447394424171
 10
838.140006413455
 20
-922.7671093679483
 10
859.4146172339442
 20
-928.7571993678202
 10
884.1579961587986
 20
-918.3352193828823
 10
855.2645786961657
 20
-913.8172087860303
 10
830.2706279801923
 20
-912.1023954278144
 10
806.4981848761217
 20
-905.8069165770457
 10
715.6366620859571
 20
-881.7525742340058
 10
620.546865773832
 20
-874.6036076220917
 10
533.2324177597357
 20
-836.2121906672892
 10
485.4447737005567
 20
-815.2037914660023
 10
439.0117490368411
 20
-792.2535086752277
 10
397.7466540597015
 20
-759.9304883920031
 10
389.6345775150057
 20
-753.5723725674152
 10
382.1724081121129
 20
-746.3842585936081
 10
372.3298604592364
 20
-737.7553926646306
 10
386.8078787165223
 20
-735.0774693736339
 10
397.3316549850915
 20
-730.997938502378
 10
404.2535424047956
 20
-719.6285033476443
 10
408.3252414140889
 20
-712.9415210081534
 10
417.3847701416007
 20
-714.6406736294248
 10
424.6903381490047
 20
-714.029918329984
 10
501.9978052527722
 20
-707.5778425641965
 10
575.5937464011386
 20
-724.757276711387
 10
648.1247932810129
 20
-748.842937541337
 10
687.5889423402296
 20
-761.9506726792342
 10
727.0687670712923
 20
-775.0192604552394
 10
766.5563818465953
 20
-788.048694895393
 10
769.4691893089448
 20
-789.0118108021343
 10
772.4760030106854
 20
-789.5599216603059
 10
774.3082883243796
 20
-794.978411190079
 10
723.4825270114507
 20
-789.6695438319393
 10
673.4789260118177
 20
-786.0050150222742
 10
623.1151668931943
 20
-790.2411443020383
 10
656.4639400569795
 20
-801.9786022945082
 10
691.1125275043714
 20
-806.3478373838734
 10
726.309237757855
 20
-806.3008581600188
 10
781.3006415928849
 20
-806.230389324237
 10
834.8278516524997
 20
-814.4285984286398
 10
886.7419968458489
 20
-832.6102988314433
 10
890.8919875919455
 20
-834.066714510539
 10
896.357492189336
 20
-833.7926531074927
 10
900.4448280397319
 20
-842.2649236149418
 10
755.53150978747
 20
-834.9828452194652
 10
611.1584765053776
 20
-838.2323809284808
 10
478.1940347008513
 20
-757.2760487389733
 10
487.37101746196
 20
-771.2137820260896
 10
497.2057332528748
 20
-776.6635990037139
 10
507.0169594318613
 20
-782.2386899289768
 10
585.1935660727804
 20
-826.6906776673532
 10
670.2451018184092
 20
-846.8455771595727
 10
759.0159296678385
 20
-854.8010523087805
 10
821.9784843239213
 20
-860.4466240177453
 10
885.2307760548965
 20
-856.977843965461
 10
948.162003263129
 20
-861.8403967490613
 10
1042.742842052936
 20
-869.1459647564652
 10
1126.659014694291
 20
-905.5485069500046
 10
1209.048290872848
 20
-959.9135052030797
 10
1118.922831680035
 20
-968.6050200537966
 10
1035.014496874603
 20
-954.5341690091582
 10
950.2370225320192
 20
-940.4319905166685
 10
958.7954136512544
 20
-947.862832471712
 10
958.7954136512544
 20
-947.8550185316299
 10
968.2229443076403
 20
-949.8986864568287
 10
1059.883137799174
 20
-969.7717106059208
 10
1152.130595484732
 20
-984.6177427400016
 10
1246.171149304369
 20
-987.7263288295335
 10
1285.603970915736
 20
-989.0261431131403
 10
1321.192238423584
 20
-1007.936045381532
 10
1358.745795497402
 20
-1017.520189381328
 10
1358.628323541925
 20
-1025.444337082685
 10
1351.479356930009
 20
-1023.839157844024
 10
1348.300349796378
 20
-1027.135660828973
 10
1344.847209572177
 20
-1030.714063052892
 10
1343.281171721448
 20
-1034.378585888597
 10
1345.317001810723
 20
-1038.606883306398
 10
1348.965896766265
 20
-1046.186500768928
 10
1352.004014020014
 20
-1038.794800201817
 10
1355.112576213705
 20
-1037.667251037625
 10
1370.882588840555
 20
-1031.951222440799
 10
1389.064265347519
 20
-1039.969328589865
 10
1391.765737990047
 20
-1056.263950515038
 10
1393.597975512057
 20
-1067.335849589701
 10
1400.206704945485
 20
-1064.595283350924
 10
1406.21239892968
 20
-1064.916300081983
 10
1421.254161899262
 20
-1065.714970783352
 10
1437.094619466052
 20
-1061.698103768736
 10
1451.055908078659
 20
-1073.372894917586
 10
1442.982937078134
 20
-1081.64157285777
 10
1428.050808228109
 20
-1084.131567305429
 10
1428.27791430314
 20
-1100.136499947394
 10
1436.335209631821
 20
-1098.249445365605
 10
1442.466213407415
 20
-1087.42809418622
 10
1453.851339168896
 20
-1095.16432499216
 10
1439.796187691945
 20
-1098.147649081973
 10
1432.365345736902
 20
-1107.160156767908
 10
1427.996038960013
 20
-1121.176214648611
 10
1414.58292094518
 20
-1111.717332648534
 10
1418.082992601552
 20
-1089.119417932508
 10
1398.836421826098
 20
-1089.338662275777
 10
1400.097070825932
 20
-1093.692245589138
 10
1401.404746841301
 20
-1099.32217747002
 10
1391.115866692006
 20
-1099.658869872925
 10
1374.359242572526
 20
-1100.199154843094
 10
1366.37248776715
 20
-1111.435457305406
 10
1363.13861578206
 20
-1126.469430230745
 10
1360.147525543847
 20
-1140.391529663739
 10
1353.695361662145
 20
-1152.520485170971
 10
1345.96696869213
 20
-1164.743399125911
 10
1341.284530811787
 20
-1155.033945334715
 10
1341.041749064909
 20
-1154.791211379519
 10
1347.916678169619
 20
-1148.143388349841
 10
1355.911270810917
 20
-1140.407157543903
 10
1355.887852886513
 20
-1134.456232827803
 10
1346.217492691565
 20
-1127.855389021981
 10
1323.000962437827
 20
-1112.014931455189
 10
1297.920843318385
 20
-1108.326895111715
 10
1270.977230916606
 20
-1114.67716712642
 10
1258.863951081221
 20
-1117.535205320673
 10
1255.982399379198
 20
-1124.582375648957
 10
1262.8886798276
 20
-1134.832066618639
 10
1272.723443410196
 20
-1149.41971302152
 10
1283.012227976127
 20
-1163.694132737583
 10
1293.113191230006
 20
-1178.093862245045
 10
1290.388300663075
 20
-1181.868019200305
 10
1291.132130408827
 20
-1186.307723125452
 10
1291.672463170678
 20
-1190.246331260043
 10
1293.301108125424
 20
-1202.022918692524
 10
1286.246099961219
 20
-1200.7935732447
 10
1278.830933678022
 20
-1199.485945021012
 10
1238.61509314129
 20
-1178.258313424376
 10
1194.014365739189
 20
-1167.13943512586
 10
1154.276107485244
 20
-1143.891601320112
 10
1189.629383290456
 20
-1161.305934573556
 10
1227.339601499365
 20
-1169.175265215135
 10
1266.373075812127
 20
-1173.254811021292
 10
1261.213007857314
 20
-1164.602461454348
 10
1251.566161170136
 20
-1161.767936767861
 10
1242.45964724481
 20
-1158.24435160372
 10
1228.796005230539
 20
-1152.958973857507
 10
1214.983539917101
 20
-1148.025964186047
 10
1201.429436439023
 20
-1142.458711096706
 10
1193.52096440951
 20
-1139.209163439769
 10
1184.390936976415
 20
-1135.62297117161
 10
1186.058771110776
 20
-1124.731151156444
 10
1187.812725856924
 20
-1113.314721842955
 10
1196.895726274483
 20
-1111.271053917755
 10
1206.910568916575
 20
-1111.404153753396
 10
1209.517987528028
 20
-1111.443295141329
 10
1212.837980124907
 20
-1112.586519977367
 10
1215.578546363682
 20
-1107.786610141546
 10
1191.41459379693
 20
-1098.515645036887
 10
1166.773011155707
 20
-1092.384617365451
 10
1141.732033424198
 20
-1089.252541663991
 10
1065.755731947727
 20
-1079.762356111905
 10
990.4684431572314
 20
-1067.680379828529
 10
918.9866148740039
 20
-1038.638210754249
 10
901.6114230084913
 20
-1031.575388649962
 10
884.2362311429797
 20
-1024.473401261901
 10
868.8421000986482
 20
-1013.056995844254
 10
898.0017172325634
 20
-1019.18802351569
 10
928.2340664708945
 20
-1022.782101411454
 10
954.6609552019554
 20
-1036.414439873715
 10
1015.99484100745
 20
-1068.056237515206
 10
1081.588351678596
 20
-1078.775768515117
 10
1149.335116602813
 20
-1081.860864992723
 10
1169.975531797107
 20
-1082.800497261496
 10
1190.545358676412
 20
-1085.259164261304
 10
1211.522466273613
 20
-1085.62718411206
 10
1170.437486199729
 20
-1062.841328604776
 10
1119.846597110234
 20
-1078.846237350899
 10
1076.577011439589
 20
-1055.527934709369
 10
1094.249754320073
 20
-1038.927923933301
 10
1116.824203320011
 20
-1049.38906920201
 10
1136.04730837938
 20
-1039.303781619978
 10
1114.522125767771
 20
-1035.271238933517
 10
1094.899673409796
 20
-1031.59887826189
 10
1075.277221051823
 20
-1027.926517590262
 10
1062.459205066936
 20
-1023.259731485923
 10
1048.967804276239
 20
-1022.766425739608
 10
1035.593827649338
 20
-1021.803303858906
 10
1028.805162531462
 20
-1021.317835948515
 10
1021.577865351999
 20
-1022.296609605222
 10
1020.943621934122
 20
-1012.46973165023
 97
        0
 97
        0
 75
     2
 76
     1
 98
        0
  0
SPLINE
  5
45
330
1F
100
AcDbEntity
  8
katman 1
370
     0
100
AcDbSpline
210
0.0
220
0.0
230
1.0
 70
    11
 71
     3
 72
    32
 73
    28
 74
     0
 42
0.0000000001
 43
0.0000000001
 12
1.0
 22
0.0
 32
0.0
 13
1.0
 23
0.0
 33
0.0
 40
0.0
 40
0.0
 40
0.0
 40
0.0
 40
1.0
 40
1.0
 40
1.0
 40
2.0
 40
2.0
 40
2.0
 40
3.0
 40
3.0
 40
3.0
 40
4.0
 40
4.0
 40
4.0
 40
5.0
 40
5.0
 40
5.0
 40
6.0
 40
6.0
 40
6.0
 40
7.0
 40
7.0
 40
7.0
 40
8.0
 40
8.0
 40
8.0
 40
9.0
 40
9.0
 40
9.0
 40
9.0
 10
1020.943621934122
 20
-1012.46973165023
 30
0.0
 10
1036.400407874153
 20
-1026.853785485846
 30
0.0
 10
1056.993796052911
 20
-1016.494460396609
 30
0.0
 10
1074.063646859209
 20
-1023.416344829333
 30
0.0
 10
1076.898171545694
 20
-1024.567383605452
 30
0.0
 10
1080.421756709837
 20
-1024.042750411289
 30
0.0
 10
1083.647790859006
 20
-1026.462299919005
 30
0.0
 10
1080.860245396374
 20
-1026.947767829395
 30
0.0
 10
1078.064862097819
 20
-1027.433235739787
 30
0.0
 10
1075.277316635187
 20
-1027.918703650179
 30
0.0
 10
995.1509766209392
 20
-1023.79220251601
 30
0.0
 10
914.8836989351257
 20
-1016.189071545712
 30
0.0
 10
840.4499695933
 20
-985.4085995012892
 30
0.0
 10
779.022125340096
 20
-959.9996258148658
 30
0.0
 10
718.4086513559487
 20
-932.5939634270981
 30
0.0
 10
655.9707059981893
 20
-909.5105808006829
 30
0.0
 10
647.2791911474715
 20
-906.3001984275188
 30
0.0
 10
639.5821256253057
 20
-900.411904711279
 30
0.0
 10
632.3548523416866
 20
-894.0772844725789
 30
0.0
 10
691.1204131319764
 20
-902.8784095470091
 30
0.0
 10
746.1744718627069
 20
-921.8666184871054
 30
0.0
 10
795.8491943995159
 20
-953.5005782926746
 30
0.0
 10
839.455520264748
 20
-981.2742605311969
 30
0.0
 10
887.9478765775875
 20
-992.1660566505216
 30
0.0
 10
937.3877029951236
 20
-1000.888875053249
 30
0.0
 10
965.0595650541727
 20
-1005.782743336778
 30
0.0
 10
993.0837951879721
 20
-1008.679922918964
 30
0.0
 10
1020.943621934122
 20
-1012.46973165023
 30
0.0
  0
HATCH
  5
46
330
1F
100
AcDbEntity
  8
katman 1
 62
    53
420
 13748871
100
AcDbHatch
 10
0.0
 20
0.0
 30
0.0
210
0.0
220
0.0
230
1.0
  2
SOLID
 70
     1
 71
     0
 91
        1
 92
        1
 93
        1
 72
     4
 94
        3
 73
     0
 74
     1
 95
       32
 96
       28
 40
0.0
 40
0.0
 40
0.0
 40
0.0
 40
1.0
 40
1.0
 40
1.0
 40
2.0
 40
2.0
 40
2.0
 40
3.0
 40
3.0
 40
3.0
 40
4.0
 40
4.0
 40
4.0
 40
5.0
 40
5.0
 40
5.0
 40
6.0
 40
6.0
 40
6.0
 40
7.0
 40
7.0
 40
7.0
 40
8.0
 40
8.0
 40
8.0
 40
9.0
 40
9.0
 40
9.0
 40
9.0
 10
1020.943621934122
 20
-1012.46973165023
 10
1036.400407874153
 20
-1026.853785485846
 10
1056.993796052911
 20
-1016.494460396609
 10
1074.063646859209
 20
-1023.416344829333
 10
1076.898171545694
 20
-1024.567383605452
 10
1080.421756709837
 20
-1024.042750411289
 10
1083.647790859006
 20
-1026.462299919005
 10
1080.860245396374
 20
-1026.947767829395
 10
1078.064862097819
 20
-1027.433235739787
 10
1075.277316635187
 20
-1027.918703650179
 10
995.1509766209392
 20
-1023.79220251601
 10
914.8836989351257
 20
-1016.189071545712
 10
840.4499695933
 20
-985.4085995012892
 10
779.022125340096
 20
-959.9996258148658
 10
718.4086513559487
 20
-932.5939634270981
 10
655.9707059981893
 20
-909.5105808006829
 10
647.2791911474715
 20
-906.3001984275188
 10
639.5821256253057
 20
-900.411904711279
 10
632.3548523416866
 20
-894.0772844725789
 10
691.1204131319764
 20
-902.8784095470091
 10
746.1744718627069
 20
-921.8666184871054
 10
795.8491943995159
 20
-953.5005782926746
 10
839.455520264748
 20
-981.2742605311969
 10
887.9478765775875
 20
-992.1660566505216
 10
937.3877029951236
 20
-1000.888875053249
 10
965.0595650541727
 20
-1005.782743336778
 10
993.0837951879721
 20
-1008.679922918964
 10
1020.943621934122
 20
-1012.46973165023
 97
        0
 97
        0
 75
     2
 76
     1
 98
        0
  0
SPLINE
  5
47
330
1F
100
AcDbEntity
  8
katman 1
370
     0
100
AcDbSpline
210
0.0
220
0.0
230
1.0
 70
    11
 71
     3
 72
    86
 73
    82
 74
     0
 42
0.0000000001
 43
0.0000000001
 12
1.0
 22
0.0
 32
0.0
 13
1.0
 23
0.0
 33
0.0
 40
0.0
 40
0.0
 40
0.0
 40
0.0
 40
1.0
 40
1.0
 40
1.0
 40
2.0
 40
2.0
 40
2.0
 40
3.0
 40
3.0
 40
3.0
 40
4.0
 40
4.0
 40
4.0
 40
5.0
 40
5.0
 40
5.0
 40
6.0
 40
6.0
 40
6.0
 40
7.0
 40
7.0
 40
7.0
 40
8.0
 40
8.0
 40
8.0
 40
9.0
 40
9.0
 40
9.0
 40
10.0
 40
10.0
 40
10.0
 40
11.0
 40
11.0
 40
11.0
 40
12.0
 40
12.0
 40
12.0
 40
13.0
 40
13.0
 40
13.0
 40
14.0
 40
14.0
 40
14.0
 40
15.0
 40
15.0
 40
15.0
 40
16.0
 40
16.0
 40
16.0
 40
17.0
 40
17.0
 40
17.0
 40
18.0
 40
18.0
 40
18.0
 40
19.0
 40
19.0
 40
19.0
 40
20.0
 40
20.0
 40
20.0
 40
21.0
 40
21.0
 40
21.0
 40
22.0
 40
22.0
 40
22.0
 40
23.0
 40
23.0
 40
23.0
 40
24.0
 40
24.0
 40
24.0
 40
25.0
 40
25.0
 40
25.0
 40
26.0
 40
26.0
 40
26.0
 40
27.0
 40
27.0
 40
27.0
 40
27.0
 10
1513.485991704656
 20
-1166.771439170945
 30
0.0
 10
1518.536425539913
 20
-1168.447111141231
 30
0.0
 10
1518.254550196785
 20
-1173.528896320178
 30
0.0
 10
1519.695373839479
 20
-1177.232560543816
 30
0.0
 10
1521.613731973277
 20
-1182.165570215277
 30
0.0
 10
1519.350891392332
 20
-1189.204902707637
 30
0.0
 10
1516.445826182542
 20
-1190.676982110657
 30
0.0
 10
1505.334833511632
 20
-1196.306890095699
 30
0.0
 10
1515.788117048578
 20
-1216.712361379037
 30
0.0
 10
1496.463167913895
 20
-1216.320851916355
 30
0.0
 10
1496.76855676479
 20
-1207.856419244828
 30
0.0
 10
1498.874831794006
 20
-1198.734229647656
 30
0.0
 10
1483.441559361743
 20
-1198.883005155143
 30
0.0
 10
1476.92688395939
 20
-1198.945660050842
 30
0.0
 10
1464.46118825757
 20
-1190.426410319538
 30
0.0
 10
1464.061840958966
 20
-1179.918309722816
 30
0.0
 10
1463.693845004051
 20
-1170.334165723019
 30
0.0
 10
1472.385335958927
 20
-1164.116993543956
 30
0.0
 10
1480.865396510617
 20
-1159.810389454449
 30
0.0
 10
1485.179838436046
 20
-1157.617946021765
 30
0.0
 10
1489.783993540525
 20
-1156.004928947181
 30
0.0
 10
1494.325445957622
 20
-1154.102198693545
 30
0.0
 10
1481.23339246553
 20
-1136.045784186301
 30
0.0
 10
1478.148248196243
 20
-1136.52341426077
 30
0.0
 10
1455.871398002961
 20
-1160.006144185791
 30
0.0
 10
1452.661039525639
 20
-1152.747543454321
 30
0.0
 10
1459.285349047548
 20
-1148.949920782974
 30
0.0
 10
1461.399557496052
 20
-1143.774177156316
 30
0.0
 10
1463.576373048574
 20
-1138.44182018625
 30
0.0
 10
1466.661421734496
 20
-1133.477459171098
 30
0.0
 10
1470.600029869089
 20
-1125.968334440191
 30
0.0
 10
1440.046616108015
 20
-1137.455208693622
 30
0.0
 10
1422.5853514224
 20
-1160.217574588978
 30
0.0
 10
1404.113866153022
 20
-1181.366923409749
 30
0.0
 10
1398.092496496982
 20
-1176.613992797784
 30
0.0
 10
1400.566767481112
 20
-1172.048979081235
 30
0.0
 10
1403.550115466767
 20
-1169.692132260901
 30
0.0
 10
1418.02028991417
 20
-1158.252237231325
 30
0.0
 10
1427.541826809947
 20
-1141.76186057481
 30
0.0
 10
1437.799355615554
 20
-1127.792781917962
 30
0.0
 10
1446.87451819719
 20
-1115.436720335698
 30
0.0
 10
1453.741609465977
 20
-1114.825990425588
 30
0.0
 10
1465.040614615671
 20
-1114.880807485366
 30
0.0
 10
1465.721837257404
 20
-1114.880807485366
 30
0.0
 10
1481.194298869281
 20
-1112.758808992621
 30
0.0
 10
1466.692773078186
 20
-1106.768742888591
 30
0.0
 10
1464.445512585724
 20
-1105.844786291662
 30
0.0
 10
1466.888527809528
 20
-1103.699322082832
 30
0.0
 10
1468.102245377189
 20
-1103.018099441098
 30
0.0
 10
1470.780204511948
 20
-1101.51471648607
 30
0.0
 10
1474.241086988706
 20
-1100.11308202299
 30
0.0
 10
1476.480509645247
 20
-1102.884999605458
 30
0.0
 10
1479.88662285391
 20
-1107.081969575409
 30
0.0
 10
1482.220003958158
 20
-1112.140289038272
 30
0.0
 10
1485.485227286941
 20
-1116.470358843864
 30
0.0
 10
1489.024488122928
 20
-1121.168472396053
 30
0.0
 10
1492.250522272097
 20
-1127.800619753885
 30
0.0
 10
1499.986753078036
 20
-1123.46271211237
 30
0.0
 10
1507.887387271625
 20
-1119.038636067386
 30
0.0
 10
1501.24740207787
 20
-1114.089998515761
 30
0.0
 10
1499.853605450713
 20
-1109.485843411281
 30
0.0
 10
1499.078424361271
 20
-1106.909728351837
 30
0.0
 10
1497.543737854232
 20
-1104.560671575742
 30
0.0
 10
1493.957450002708
 20
-1097.176808844555
 30
0.0
 10
1507.574160584805
 20
-1105.727362127867
 30
0.0
 10
1516.578878226501
 20
-1111.380783620676
 30
0.0
 10
1527.032161763447
 20
-1117.950323874489
 30
0.0
 10
1516.132503912359
 20
-1124.425905680595
 30
0.0
 10
1509.359466674645
 20
-1135.599553247206
 30
0.0
 10
1494.912710151646
 20
-1134.628617426424
 30
0.0
 10
1497.105201376013
 20
-1146.757572933655
 30
0.0
 10
1507.527133569269
 20
-1153.796905426014
 30
0.0
 10
1510.878477509837
 20
-1164.500808545763
 30
0.0
 10
1502.453186226243
 20
-1171.947326172651
 30
0.0
 10
1488.601627316555
 20
-1161.838525082849
 30
0.0
 10
1481.499592136812
 20
-1173.560343247234
 30
0.0
 10
1497.567155778635
 20
-1165.730153993587
 30
0.0
 10
1502.147797375346
 20
-1168.541212963986
 30
0.0
 10
1504.254167987929
 20
-1187.662521739723
 30
0.0
 10
1512.12354642119
 20
-1182.752834409301
 30
0.0
 10
1507.32363658537
 20
-1172.32301658844
 30
0.0
 10
1513.485991704656
 20
-1166.771439170945
 30
0.0
  0
HATCH
  5
48
330
1F
100
AcDbEntity
  8
katman 1
 62
    53
420
 13420160
100
AcDbHatch
 10
0.0
 20
0.0
 30
0.0
210
0.0
220
0.0
230
1.0
  2
SOLID
 70
     1
 71
     0
 91
        1
 92
        1
 93
        1
 72
     4
 94
        3
 73
     0
 74
     1
 95
       86
 96
       82
 40
0.0
 40
0.0
 40
0.0
 40
0.0
 40
1.0
 40
1.0
 40
1.0
 40
2.0
 40
2.0
 40
2.0
 40
3.0
 40
3.0
 40
3.0
 40
4.0
 40
4.0
 40
4.0
 40
5.0
 40
5.0
 40
5.0
 40
6.0
 40
6.0
 40
6.0
 40
7.0
 40
7.0
 40
7.0
 40
8.0
 40
8.0
 40
8.0
 40
9.0
 40
9.0
 40
9.0
 40
10.0
 40
10.0
 40
10.0
 40
11.0
 40
11.0
 40
11.0
 40
12.0
 40
12.0
 40
12.0
 40
13.0
 40
13.0
 40
13.0
 40
14.0
 40
14.0
 40
14.0
 40
15.0
 40
15.0
 40
15.0
 40
16.0
 40
16.0
 40
16.0
 40
17.0
 40
17.0
 40
17.0
 40
18.0
 40
18.0
 40
18.0
 40
19.0
 40
19.0
 40
19.0
 40
20.0
 40
20.0
 40
20.0
 40
21.0
 40
21.0
 40
21.0
 40
22.0
 40
22.0
 40
22.0
 40
23.0
 40
23.0
 40
23.0
 40
24.0
 40
24.0
 40
24.0
 40
25.0
 40
25.0
 40
25.0
 40
26.0
 40
26.0
 40
26.0
 40
27.0
 40
27.0
 40
27.0
 40
27.0
 10
1513.485991704656
 20
-1166.771439170945
 10
1518.536425539913
 20
-1168.447111141231
 10
1518.254550196785
 20
-1173.528896320178
 10
1519.695373839479
 20
-1177.232560543816
 10
1521.613731973277
 20
-1182.165570215277
 10
1519.350891392332
 20
-1189.204902707637
 10
1516.445826182542
 20
-1190.676982110657
 10
1505.334833511632
 20
-1196.306890095699
 10
1515.788117048578
 20
-1216.712361379037
 10
1496.463167913895
 20
-1216.320851916355
 10
1496.76855676479
 20
-1207.856419244828
 10
1498.874831794006
 20
-1198.734229647656
 10
1483.441559361743
 20
-1198.883005155143
 10
1476.92688395939
 20
-1198.945660050842
 10
1464.46118825757
 20
-1190.426410319538
 10
1464.061840958966
 20
-1179.918309722816
 10
1463.693845004051
 20
-1170.334165723019
 10
1472.385335958927
 20
-1164.116993543956
 10
1480.865396510617
 20
-1159.810389454449
 10
1485.179838436046
 20
-1157.617946021765
 10
1489.783993540525
 20
-1156.004928947181
 10
1494.325445957622
 20
-1154.102198693545
 10
1481.23339246553
 20
-1136.045784186301
 10
1478.148248196243
 20
-1136.52341426077
 10
1455.871398002961
 20
-1160.006144185791
 10
1452.661039525639
 20
-1152.747543454321
 10
1459.285349047548
 20
-1148.949920782974
 10
1461.399557496052
 20
-1143.774177156316
 10
1463.576373048574
 20
-1138.44182018625
 10
1466.661421734496
 20
-1133.477459171098
 10
1470.600029869089
 20
-1125.968334440191
 10
1440.046616108015
 20
-1137.455208693622
 10
1422.5853514224
 20
-1160.217574588978
 10
1404.113866153022
 20
-1181.366923409749
 10
1398.092496496982
 20
-1176.613992797784
 10
1400.566767481112
 20
-1172.048979081235
 10
1403.550115466767
 20
-1169.692132260901
 10
1418.02028991417
 20
-1158.252237231325
 10
1427.541826809947
 20
-1141.76186057481
 10
1437.799355615554
 20
-1127.792781917962
 10
1446.87451819719
 20
-1115.436720335698
 10
1453.741609465977
 20
-1114.825990425588
 10
1465.040614615671
 20
-1114.880807485366
 10
1465.721837257404
 20
-1114.880807485366
 10
1481.194298869281
 20
-1112.758808992621
 10
1466.692773078186
 20
-1106.768742888591
 10
1464.445512585724
 20
-1105.844786291662
 10
1466.888527809528
 20
-1103.699322082832
 10
1468.102245377189
 20
-1103.018099441098
 10
1470.780204511948
 20
-1101.51471648607
 10
1474.241086988706
 20
-1100.11308202299
 10
1476.480509645247
 20
-1102.884999605458
 10
1479.88662285391
 20
-1107.081969575409
 10
1482.220003958158
 20
-1112.140289038272
 10
1485.485227286941
 20
-1116.470358843864
 10
1489.024488122928
 20
-1121.168472396053
 10
1492.250522272097
 20
-1127.800619753885
 10
1499.986753078036
 20
-1123.46271211237
 10
1507.887387271625
 20
-1119.038636067386
 10
1501.24740207787
 20
-1114.089998515761
 10
1499.853605450713
 20
-1109.485843411281
 10
1499.078424361271
 20
-1106.909728351837
 10
1497.543737854232
 20
-1104.560671575742
 10
1493.957450002708
 20
-1097.176808844555
 10
1507.574160584805
 20
-1105.727362127867
 10
1516.578878226501
 20
-1111.380783620676
 10
1527.032161763447
 20
-1117.950323874489
 10
1516.132503912359
 20
-1124.425905680595
 10
1509.359466674645
 20
-1135.599553247206
 10
1494.912710151646
 20
-1134.628617426424
 10
1497.105201376013
 20
-1146.757572933655
 10
1507.527133569269
 20
-1153.796905426014
 10
1510.878477509837
 20
-1164.500808545763
 10
1502.453186226243
 20
-1171.947326172651
 10
1488.601627316555
 20
-1161.838525082849
 10
1481.499592136812
 20
-1173.560343247234
 10
1497.567155778635
 20
-1165.730153993587
 10
1502.147797375346
 20
-1168.541212963986
 10
1504.254167987929
 20
-1187.662521739723
 10
1512.12354642119
 20
-1182.752834409301
 10
1507.32363658537
 20
-1172.32301658844
 10
1513.485991704656
 20
-1166.771439170945
 97
        0
 97
        0
 75
     2
 76
     1
 98
        0
  0
SPLINE
  5
49
330
1F
100
AcDbEntity
  8
katman 1
370
     0
100
AcDbSpline
210
0.0
220
0.0
230
1.0
 70
    11
 71
     3
 72
    38
 73
    34
 74
     0
 42
0.0000000001
 43
0.0000000001
 12
1.0
 22
0.0
 32
0.0
 13
1.0
 23
0.0
 33
0.0
 40
0.0
 40
0.0
 40
0.0
 40
0.0
 40
1.0
 40
1.0
 40
1.0
 40
2.0
 40
2.0
 40
2.0
 40
3.0
 40
3.0
 40
3.0
 40
4.0
 40
4.0
 40
4.0
 40
5.0
 40
5.0
 40
5.0
 40
6.0
 40
6.0
 40
6.0
 40
7.0
 40
7.0
 40
7.0
 40
8.0
 40
8.0
 40
8.0
 40
9.0
 40
9.0
 40
9.0
 40
10.0
 40
10.0
 40
10.0
 40
11.0
 40
11.0
 40
11.0
 40
11.0
 10
1278.830933678022
 20
-1199.470317140849
 30
0.0
 10
1296.441021662808
 20
-1200.9188830361
 30
0.0
 10
1285.040315812845
 20
-1183.00340620042
 30
0.0
 10
1293.105353394083
 20
-1178.086072200804
 30
0.0
 10
1293.301108125424
 20
-1183.535901126348
 30
0.0
 10
1292.087390557765
 20
-1189.565108618312
 30
0.0
 10
1294.029357782694
 20
-1194.294573514191
 30
0.0
 10
1296.566331454207
 20
-1200.488232185486
 30
0.0
 10
1296.088701379738
 20
-1214.684369125684
 30
0.0
 10
1309.838464005794
 20
-1204.293740484438
 30
0.0
 10
1310.18294645294
 20
-1204.035330857396
 30
0.0
 10
1311.012992393842
 20
-1203.980513797618
 30
0.0
 10
1311.334056916583
 20
-1204.215457708575
 30
0.0
 10
1342.263304468492
 20
-1226.586314141248
 30
0.0
 10
1386.613507871158
 20
-1210.526588335348
 30
0.0
 10
1415.475573990099
 20
-1243.891013275137
 30
0.0
 10
1433.109175482652
 20
-1264.273018842388
 30
0.0
 10
1491.882526317184
 20
-1251.086959110906
 30
0.0
 10
1507.942252123084
 20
-1227.83912530516
 30
0.0
 10
1513.791380555551
 20
-1219.374692633632
 30
0.0
 10
1523.187607659929
 20
-1216.649802066702
 30
0.0
 10
1534.2281553909
 20
-1207.527612469528
 30
0.0
 10
1527.791762764409
 20
-1225.662309752637
 30
0.0
 10
1517.800433630084
 20
-1236.421029932162
 30
0.0
 10
1506.712858883577
 20
-1242.998360230216
 30
0.0
 10
1458.745111869062
 20
-1271.461079050554
 30
0.0
 10
1427.158155183188
 20
-1289.924678692327
 30
0.0
 10
1380.411867988892
 20
-1241.048650752728
 30
0.0
 10
1376.207060183018
 20
-1236.648088215512
 30
0.0
 10
1372.401599675748
 20
-1232.952214036115
 30
0.0
 10
1365.017689152879
 20
-1233.312419946789
 30
0.0
 10
1331.387160125172
 20
-1234.941064901537
 30
0.0
 10
1303.370720035613
 20
-1221.433988438994
 30
0.0
 10
1278.830933678022
 20
-1199.470317140849
 30
0.0
  0
HATCH
  5
4A
330
1F
100
AcDbEntity
  8
katman 1
 62
    53
420
 13485696
100
AcDbHatch
 10
0.0
 20
0.0
 30
0.0
210
0.0
220
0.0
230
1.0
  2
SOLID
 70
     1
 71
     0
 91
        1
 92
        1
 93
        1
 72
     4
 94
        3
 73
     0
 74
     1
 95
       38
 96
       34
 40
0.0
 40
0.0
 40
0.0
 40
0.0
 40
1.0
 40
1.0
 40
1.0
 40
2.0
 40
2.0
 40
2.0
 40
3.0
 40
3.0
 40
3.0
 40
4.0
 40
4.0
 40
4.0
 40
5.0
 40
5.0
 40
5.0
 40
6.0
 40
6.0
 40
6.0
 40
7.0
 40
7.0
 40
7.0
 40
8.0
 40
8.0
 40
8.0
 40
9.0
 40
9.0
 40
9.0
 40
10.0
 40
10.0
 40
10.0
 40
11.0
 40
11.0
 40
11.0
 40
11.0
 10
1278.830933678022
 20
-1199.470317140849
 10
1296.441021662808
 20
-1200.9188830361
 10
1285.040315812845
 20
-1183.00340620042
 10
1293.105353394083
 20
-1178.086072200804
 10
1293.301108125424
 20
-1183.535901126348
 10
1292.087390557765
 20
-1189.565108618312
 10
1294.029357782694
 20
-1194.294573514191
 10
1296.566331454207
 20
-1200.488232185486
 10
1296.088701379738
 20
-1214.684369125684
 10
1309.838464005794
 20
-1204.293740484438
 10
1310.18294645294
 20
-1204.035330857396
 10
1311.012992393842
 20
-1203.980513797618
 10
1311.334056916583
 20
-1204.215457708575
 10
1342.263304468492
 20
-1226.586314141248
 10
1386.613507871158
 20
-1210.526588335348
 10
1415.475573990099
 20
-1243.891013275137
 10
1433.109175482652
 20
-1264.273018842388
 10
1491.882526317184
 20
-1251.086959110906
 10
1507.942252123084
 20
-1227.83912530516
 10
1513.791380555551
 20
-1219.374692633632
 10
1523.187607659929
 20
-1216.649802066702
 10
1534.2281553909
 20
-1207.527612469528
 10
1527.791762764409
 20
-1225.662309752637
 10
1517.800433630084
 20
-1236.421029932162
 10
1506.712858883577
 20
-1242.998360230216
 10
1458.745111869062
 20
-1271.461079050554
 10
1427.158155183188
 20
-1289.924678692327
 10
1380.411867988892
 20
-1241.048650752728
 10
1376.207060183018
 20
-1236.648088215512
 10
1372.401599675748
 20
-1232.952214036115
 10
1365.017689152879
 20
-1233.312419946789
 10
1331.387160125172
 20
-1234.941064901537
 10
1303.370720035613
 20
-1221.433988438994
 10
1278.830933678022
 20
-1199.470317140849
 97
        0
 97
        0
 75
     2
 76
     1
 98
        0
  0
SPLINE
  5
4B
330
1F
100
AcDbEntity
  8
katman 1
370
     0
100
AcDbSpline
210
0.0
220
0.0
230
1.0
 70
    11
 71
     3
 72
    11
 73
     7
 74
     0
 42
0.0000000001
 43
0.0000000001
 12
1.0
 22
0.0
 32
0.0
 13
1.0
 23
0.0
 33
0.0
 40
0.0
 40
0.0
 40
0.0
 40
0.0
 40
1.0
 40
1.0
 40
1.0
 40
2.0
 40
2.0
 40
2.0
 40
2.0
 10
1132.179288559775
 20
-1122.014050633752
 30
0.0
 10
1104.577871440666
 20
-1125.247922618844
 30
0.0
 10
1063.062192724488
 20
-1113.447821678596
 30
0.0
 10
1038.663344038461
 20
-1095.42271072336
 30
0.0
 10
1070.305165575795
 20
-1094.052475395652
 30
0.0
 10
1118.014502963269
 20
-1107.622206753897
 30
0.0
 10
1132.179288559775
 20
-1122.014050633752
 30
0.0
  0
HATCH
  5
4C
330
1F
100
AcDbEntity
  8
katman 1
 62
    53
420
 13419139
100
AcDbHatch
 10
0.0
 20
0.0
 30
0.0
210
0.0
220
0.0
230
1.0
  2
SOLID
 70
     1
 71
     0
 91
        1
 92
        1
 93
        1
 72
     4
 94
        3
 73
     0
 74
     1
 95
       11
 96
        7
 40
0.0
 40
0.0
 40
0.0
 40
0.0
 40
1.0
 40
1.0
 40
1.0
 40
2.0
 40
2.0
 40
2.0
 40
2.0
 10
1132.179288559775
 20
-1122.014050633752
 10
1104.577871440666
 20
-1125.247922618844
 10
1063.062192724488
 20
-1113.447821678596
 10
1038.663344038461
 20
-1095.42271072336
 10
1070.305165575795
 20
-1094.052475395652
 10
1118.014502963269
 20
-1107.622206753897
 10
1132.179288559775
 20
-1122.014050633752
 97
        0
 97
        0
 75
     2
 76
     1
 98
        0
  0
SPLINE
  5
4D
330
1F
100
AcDbEntity
  8
katman 1
370
     0
100
AcDbSpline
210
0.0
220
0.0
230
1.0
 70
    11
 71
     3
 72
    29
 73
    25
 74
     0
 42
0.0000000001
 43
0.0000000001
 12
1.0
 22
0.0
 32
0.0
 13
1.0
 23
0.0
 33
0.0
 40
0.0
 40
0.0
 40
0.0
 40
0.0
 40
1.0
 40
1.0
 40
1.0
 40
2.0
 40
2.0
 40
2.0
 40
3.0
 40
3.0
 40
3.0
 40
4.0
 40
4.0
 40
4.0
 40
5.0
 40
5.0
 40
5.0
 40
6.0
 40
6.0
 40
6.0
 40
7.0
 40
7.0
 40
7.0
 40
8.0
 40
8.0
 40
8.0
 40
8.0
 10
1513.485991704656
 20
-1166.771439170945
 30
0.0
 10
1515.169501510863
 20
-1177.757217633822
 30
0.0
 10
1517.81610930193
 20
-1189.14229560362
 30
0.0
 10
1504.739635898319
 20
-1195.476891946479
 30
0.0
 10
1501.403967629596
 20
-1197.089909021062
 30
0.0
 10
1497.629858466018
 20
-1197.160401752686
 30
0.0
 10
1494.615159136672
 20
-1193.97350899145
 30
0.0
 10
1492.673287495107
 20
-1191.914165394406
 30
0.0
 10
1491.843241554205
 20
-1189.259719767415
 30
0.0
 10
1494.450755749021
 20
-1187.897274483948
 30
0.0
 10
1504.473436227037
 20
-1182.666713797515
 30
0.0
 10
1501.818990600048
 20
-1176.70011340957
 30
0.0
 10
1494.920547987569
 20
-1171.923669289834
 30
0.0
 10
1486.518770211742
 20
-1166.105844409376
 30
0.0
 10
1485.610441494977
 20
-1176.449541618451
 30
0.0
 10
1481.429147196872
 20
-1179.597245200073
 30
0.0
 10
1479.604747510783
 20
-1180.975366155384
 30
0.0
 10
1478.82956642134
 20
-1183.770749453939
 30
0.0
 10
1475.807029256071
 20
-1183.402705707342
 30
0.0
 10
1473.857319778583
 20
-1165.808293394402
 30
0.0
 10
1481.68750903223
 20
-1161.587809916684
 30
0.0
 10
1510.870639673914
 20
-1164.484989498869
 30
0.0
 10
1511.559795734935
 20
-1165.463810947258
 30
0.0
 10
1512.428935272086
 20
-1166.223316364854
 30
0.0
 10
1513.485991704656
 20
-1166.771439170945
 30
0.0
  0
HATCH
  5
4E
330
1F
100
AcDbEntity
  8
katman 1
 62
    28
420
  1643780
100
AcDbHatch
 10
0.0
 20
0.0
 30
0.0
210
0.0
220
0.0
230
1.0
  2
SOLID
 70
     1
 71
     0
 91
        1
 92
        1
 93
        1
 72
     4
 94
        3
 73
     0
 74
     1
 95
       29
 96
       25
 40
0.0
 40
0.0
 40
0.0
 40
0.0
 40
1.0
 40
1.0
 40
1.0
 40
2.0
 40
2.0
 40
2.0
 40
3.0
 40
3.0
 40
3.0
 40
4.0
 40
4.0
 40
4.0
 40
5.0
 40
5.0
 40
5.0
 40
6.0
 40
6.0
 40
6.0
 40
7.0
 40
7.0
 40
7.0
 40
8.0
 40
8.0
 40
8.0
 40
8.0
 10
1513.485991704656
 20
-1166.771439170945
 10
1515.169501510863
 20
-1177.757217633822
 10
1517.81610930193
 20
-1189.14229560362
 10
1504.739635898319
 20
-1195.476891946479
 10
1501.403967629596
 20
-1197.089909021062
 10
1497.629858466018
 20
-1197.160401752686
 10
1494.615159136672
 20
-1193.97350899145
 10
1492.673287495107
 20
-1191.914165394406
 10
1491.843241554205
 20
-1189.259719767415
 10
1494.450755749021
 20
-1187.897274483948
 10
1504.473436227037
 20
-1182.666713797515
 10
1501.818990600048
 20
-1176.70011340957
 10
1494.920547987569
 20
-1171.923669289834
 10
1486.518770211742
 20
-1166.105844409376
 10
1485.610441494977
 20
-1176.449541618451
 10
1481.429147196872
 20
-1179.597245200073
 10
1479.604747510783
 20
-1180.975366155384
 10
1478.82956642134
 20
-1183.770749453939
 10
1475.807029256071
 20
-1183.402705707342
 10
1473.857319778583
 20
-1165.808293394402
 10
1481.68750903223
 20
-1161.587809916684
 10
1510.870639673914
 20
-1164.484989498869
 10
1511.559795734935
 20
-1165.463810947258
 10
1512.428935272086
 20
-1166.223316364854
 10
1513.485991704656
 20
-1166.771439170945
 97
        0
 97
        0
 75
     2
 76
     1
 98
        0
  0
SPLINE
  5
4F
330
1F
100
AcDbEntity
  8
katman 1
370
     0
100
AcDbSpline
210
0.0
220
0.0
230
1.0
 70
    11
 71
     3
 72
    17
 73
    13
 74
     0
 42
0.0000000001
 43
0.0000000001
 12
1.0
 22
0.0
 32
0.0
 13
1.0
 23
0.0
 33
0.0
 40
0.0
 40
0.0
 40
0.0
 40
0.0
 40
1.0
 40
1.0
 40
1.0
 40
2.0
 40
2.0
 40
2.0
 40
3.0
 40
3.0
 40
3.0
 40
4.0
 40
4.0
 40
4.0
 40
4.0
 10
1382.377348721591
 20
-1120.479364126715
 30
0.0
 10
1387.177258557413
 20
-1136.766148215966
 30
0.0
 10
1383.622322049579
 20
-1152.081996484434
 30
0.0
 10
1381.539560528132
 20
-1167.460499648601
 30
0.0
 10
1380.944458498185
 20
-1171.861062185817
 30
0.0
 10
1378.407484826672
 20
-1176.465217290297
 30
0.0
 10
1373.247416871862
 20
-1175.134075558839
 30
0.0
 10
1368.330035080562
 20
-1173.865588723083
 30
0.0
 10
1370.812239483981
 20
-1168.971720439553
 30
0.0
 10
1371.524813469405
 20
-1165.823969066249
 30
0.0
 10
1374.94650676655
 20
-1150.672571977113
 30
0.0
 10
1378.728453766049
 20
-1135.591619827919
 30
0.0
 10
1382.377348721591
 20
-1120.479364126715
 30
0.0
  0
HATCH
  5
50
330
1F
100
AcDbEntity
  8
katman 1
 62
    53
420
 13290126
100
AcDbHatch
 10
0.0
 20
0.0
 30
0.0
210
0.0
220
0.0
230
1.0
  2
SOLID
 70
     1
 71
     0
 91
        1
 92
        1
 93
        1
 72
     4
 94
        3
 73
     0
 74
     1
 95
       17
 96
       13
 40
0.0
 40
0.0
 40
0.0
 40
0.0
 40
1.0
 40
1.0
 40
1.0
 40
2.0
 40
2.0
 40
2.0
 40
3.0
 40
3.0
 40
3.0
 40
4.0
 40
4.0
 40
4.0
 40
4.0
 10
1382.377348721591
 20
-1120.479364126715
 10
1387.177258557413
 20
-1136.766148215966
 10
1383.622322049579
 20
-1152.081996484434
 10
1381.539560528132
 20
-1167.460499648601
 10
1380.944458498185
 20
-1171.861062185817
 10
1378.407484826672
 20
-1176.465217290297
 10
1373.247416871862
 20
-1175.134075558839
 10
1368.330035080562
 20
-1173.865588723083
 10
1370.812239483981
 20
-1168.971720439553
 10
1371.524813469405
 20
-1165.823969066249
 10
1374.94650676655
 20
-1150.672571977113
 10
1378.728453766049
 20
-1135.591619827919
 10
1382.377348721591
 20
-1120.479364126715
 97
        0
 97
        0
 75
     2
 76
     1
 98
        0
  0
SPLINE
  5
51
330
1F
100
AcDbEntity
  8
katman 1
370
     0
100
AcDbSpline
210
0.0
220
0.0
230
1.0
 70
    11
 71
     3
 72
    11
 73
     7
 74
     0
 42
0.0000000001
 43
0.0000000001
 12
1.0
 22
0.0
 32
0.0
 13
1.0
 23
0.0
 33
0.0
 40
0.0
 40
0.0
 40
0.0
 40
0.0
 40
1.0
 40
1.0
 40
1.0
 40
2.0
 40
2.0
 40
2.0
 40
2.0
 10
1543.702760854505
 20
-1211.567969096071
 30
0.0
 10
1556.552128183084
 20
-1197.959096349896
 30
0.0
 10
1555.659475138164
 20
-1181.437416141373
 30
0.0
 10
1552.770085600217
 20
-1161.799288111553
 30
0.0
 10
1567.11495025622
 20
-1179.307579812705
 30
0.0
 10
1562.996358645498
 20
-1197.818158678332
 30
0.0
 10
1543.702760854505
 20
-1211.567969096071
 30
0.0
  0
HATCH
  5
52
330
1F
100
AcDbEntity
  8
katman 1
 62
   253
420
 12039310
100
AcDbHatch
 10
0.0
 20
0.0
 30
0.0
210
0.0
220
0.0
230
1.0
  2
SOLID
 70
     1
 71
     0
 91
        1
 92
        1
 93
        1
 72
     4
 94
        3
 73
     0
 74
     1
 95
       11
 96
        7
 40
0.0
 40
0.0
 40
0.0
 40
0.0
 40
1.0
 40
1.0
 40
1.0
 40
2.0
 40
2.0
 40
2.0
 40
2.0
 10
1543.702760854505
 20
-1211.567969096071
 10
1556.552128183084
 20
-1197.959096349896
 10
1555.659475138164
 20
-1181.437416141373
 10
1552.770085600217
 20
-1161.799288111553
 10
1567.11495025622
 20
-1179.307579812705
 10
1562.996358645498
 20
-1197.818158678332
 10
1543.702760854505
 20
-1211.567969096071
 97
        0
 97
        0
 75
     2
 76
     1
 98
        0
  0
SPLINE
  5
53
330
1F
100
AcDbEntity
  8
katman 1
370
     0
100
AcDbSpline
210
0.0
220
0.0
230
1.0
 70
    11
 71
     3
 72
    14
 73
    10
 74
     0
 42
0.0000000001
 43
0.0000000001
 12
1.0
 22
0.0
 32
0.0
 13
1.0
 23
0.0
 33
0.0
 40
0.0
 40
0.0
 40
0.0
 40
0.0
 40
1.0
 40
1.0
 40
1.0
 40
2.0
 40
2.0
 40
2.0
 40
3.0
 40
3.0
 40
3.0
 40
3.0
 10
1425.169352109449
 20
-1208.858706409303
 30
0.0
 10
1428.152700095105
 20
-1210.902374334501
 30
0.0
 10
1429.350646407556
 20
-1211.340863021038
 30
0.0
 10
1429.945748437502
 20
-1212.202212513948
 30
0.0
 10
1434.706469093708
 20
-1219.037952439045
 30
0.0
 10
1439.357651213726
 20
-1225.959860767611
 30
0.0
 10
1444.995349243005
 20
-1234.252004423881
 30
0.0
 10
1425.521672392519
 20
-1235.144657468802
 30
0.0
 10
1425.576537243978
 20
-1223.054843349501
 30
0.0
 10
1425.169352109449
 20
-1208.858706409303
 30
0.0
  0
HATCH
  5
54
330
1F
100
AcDbEntity
  8
katman 1
 62
   253
420
 12566166
100
AcDbHatch
 10
0.0
 20
0.0
 30
0.0
210
0.0
220
0.0
230
1.0
  2
SOLID
 70
     1
 71
     0
 91
        1
 92
        1
 93
        1
 72
     4
 94
        3
 73
     0
 74
     1
 95
       14
 96
       10
 40
0.0
 40
0.0
 40
0.0
 40
0.0
 40
1.0
 40
1.0
 40
1.0
 40
2.0
 40
2.0
 40
2.0
 40
3.0
 40
3.0
 40
3.0
 40
3.0
 10
1425.169352109449
 20
-1208.858706409303
 10
1428.152700095105
 20
-1210.902374334501
 10
1429.350646407556
 20
-1211.340863021038
 10
1429.945748437502
 20
-1212.202212513948
 10
1434.706469093708
 20
-1219.037952439045
 10
1439.357651213726
 20
-1225.959860767611
 10
1444.995349243005
 20
-1234.252004423881
 10
1425.521672392519
 20
-1235.144657468802
 10
1425.576537243978
 20
-1223.054843349501
 10
1425.169352109449
 20
-1208.858706409303
 97
        0
 97
        0
 75
     2
 76
     1
 98
        0
  0
SPLINE
  5
55
330
1F
100
AcDbEntity
  8
katman 1
370
     0
100
AcDbSpline
210
0.0
220
0.0
230
1.0
 70
    11
 71
     3
 72
    14
 73
    10
 74
     0
 42
0.0000000001
 43
0.0000000001
 12
1.0
 22
0.0
 32
0.0
 13
1.0
 23
0.0
 33
0.0
 40
0.0
 40
0.0
 40
0.0
 40
0.0
 40
1.0
 40
1.0
 40
1.0
 40
2.0
 40
2.0
 40
2.0
 40
3.0
 40
3.0
 40
3.0
 40
3.0
 10
1292.909598662744
 20
-1140.626425783012
 30
0.0
 10
1286.371409752619
 20
-1136.601697036633
 30
0.0
 10
1277.444974886788
 20
-1133.665376066516
 30
0.0
 10
1278.870027274272
 20
-1126.038779380131
 30
0.0
 10
1279.8566387669
 20
-1120.769077305766
 30
0.0
 10
1289.190258767259
 20
-1121.693033902693
 30
0.0
 10
1292.862571647205
 20
-1123.533109260628
 30
0.0
 10
1301.499293333987
 20
-1127.839713350135
 30
0.0
 10
1292.416292916429
 20
-1134.401415768025
 30
0.0
 10
1292.909598662744
 20
-1140.626425783012
 30
0.0
  0
HATCH
  5
56
330
1F
100
AcDbEntity
  8
katman 1
 62
     9
420
 13421211
100
AcDbHatch
 10
0.0
 20
0.0
 30
0.0
210
0.0
220
0.0
230
1.0
  2
SOLID
 70
     1
 71
     0
 91
        1
 92
        1
 93
        1
 72
     4
 94
        3
 73
     0
 74
     1
 95
       14
 96
       10
 40
0.0
 40
0.0
 40
0.0
 40
0.0
 40
1.0
 40
1.0
 40
1.0
 40
2.0
 40
2.0
 40
2.0
 40
3.0
 40
3.0
 40
3.0
 40
3.0
 10
1292.909598662744
 20
-1140.626425783012
 10
1286.371409752619
 20
-1136.601697036633
 10
1277.444974886788
 20
-1133.665376066516
 10
1278.870027274272
 20
-1126.038779380131
 10
1279.8566387669
 20
-1120.769077305766
 10
1289.190258767259
 20
-1121.693033902693
 10
1292.862571647205
 20
-1123.533109260628
 10
1301.499293333987
 20
-1127.839713350135
 10
1292.416292916429
 20
-1134.401415768025
 10
1292.909598662744
 20
-1140.626425783012
 97
        0
 97
        0
 75
     2
 76
     1
 98
        0
  0
SPLINE
  5
57
330
1F
100
AcDbEntity
  8
katman 1
370
     0
100
AcDbSpline
210
0.0
220
0.0
230
1.0
 70
    11
 71
     3
 72
    32
 73
    28
 74
     0
 42
0.0000000001
 43
0.0000000001
 12
1.0
 22
0.0
 32
0.0
 13
1.0
 23
0.0
 33
0.0
 40
0.0
 40
0.0
 40
0.0
 40
0.0
 40
1.0
 40
1.0
 40
1.0
 40
2.0
 40
2.0
 40
2.0
 40
3.0
 40
3.0
 40
3.0
 40
4.0
 40
4.0
 40
4.0
 40
5.0
 40
5.0
 40
5.0
 40
6.0
 40
6.0
 40
6.0
 40
7.0
 40
7.0
 40
7.0
 40
8.0
 40
8.0
 40
8.0
 40
9.0
 40
9.0
 40
9.0
 40
9.0
 10
1387.788036259204
 20
-1078.313790216653
 30
0.0
 10
1364.657626617252
 20
-1077.930118589893
 30
0.0
 10
1341.973591289441
 20
-1072.245393545076
 30
0.0
 10
1318.835343811566
 20
-1079.065481694168
 30
0.0
 10
1327.996627004988
 20
-1094.678880977608
 30
0.0
 10
1327.981046916508
 20
-1094.663229201604
 30
0.0
 10
1339.796775736921
 20
-1087.005305067371
 30
0.0
 10
1342.662651767097
 20
-1085.149554037591
 30
0.0
 10
1345.865172408498
 20
-1084.805023798763
 30
0.0
 10
1347.697409930508
 20
-1088.007568336003
 30
0.0
 10
1351.338467050127
 20
-1094.36567818663
 30
0.0
 10
1339.953341288647
 20
-1100.653319201476
 30
0.0
 10
1347.298062631904
 20
-1107.293304395231
 30
0.0
 10
1342.772190303287
 20
-1109.603219783394
 30
0.0
 10
1337.65131152809
 20
-1110.73860678351
 30
0.0
 10
1333.08625001986
 20
-1109.102076201158
 30
0.0
 10
1312.633799512667
 20
-1101.765192693823
 30
0.0
 10
1296.182564244084
 20
-1087.976216992312
 30
0.0
 10
1280.021042154551
 20
-1074.124634186783
 30
0.0
 10
1275.589128273643
 20
-1070.326987619595
 30
0.0
 10
1276.669698213982
 20
-1063.679164589917
 30
0.0
 10
1281.320880333999
 20
-1059.36472266449
 30
0.0
 10
1283.928298945451
 20
-1056.945197052613
 30
0.0
 10
1287.389277005575
 20
-1054.157651589981
 30
0.0
 10
1290.638824662512
 20
-1053.914917634786
 30
0.0
 10
1325.647570228895
 20
-1051.252658067713
 30
0.0
 10
1359.333059691426
 20
-1054.470854380959
 30
0.0
 10
1387.788036259204
 20
-1078.313790216653
 30
0.0
  0
HATCH
  5
58
330
1F
100
AcDbEntity
  8
katman 1
 62
    18
420
   591363
100
AcDbHatch
 10
0.0
 20
0.0
 30
0.0
210
0.0
220
0.0
230
1.0
  2
SOLID
 70
     1
 71
     0
 91
        1
 92
        1
 93
        1
 72
     4
 94
        3
 73
     0
 74
     1
 95
       32
 96
       28
 40
0.0
 40
0.0
 40
0.0
 40
0.0
 40
1.0
 40
1.0
 40
1.0
 40
2.0
 40
2.0
 40
2.0
 40
3.0
 40
3.0
 40
3.0
 40
4.0
 40
4.0
 40
4.0
 40
5.0
 40
5.0
 40
5.0
 40
6.0
 40
6.0
 40
6.0
 40
7.0
 40
7.0
 40
7.0
 40
8.0
 40
8.0
 40
8.0
 40
9.0
 40
9.0
 40
9.0
 40
9.0
 10
1387.788036259204
 20
-1078.313790216653
 10
1364.657626617252
 20
-1077.930118589893
 10
1341.973591289441
 20
-1072.245393545076
 10
1318.835343811566
 20
-1079.065481694168
 10
1327.996627004988
 20
-1094.678880977608
 10
1327.981046916508
 20
-1094.663229201604
 10
1339.796775736921
 20
-1087.005305067371
 10
1342.662651767097
 20
-1085.149554037591
 10
1345.865172408498
 20
-1084.805023798763
 10
1347.697409930508
 20
-1088.007568336003
 10
1351.338467050127
 20
-1094.36567818663
 10
1339.953341288647
 20
-1100.653319201476
 10
1347.298062631904
 20
-1107.293304395231
 10
1342.772190303287
 20
-1109.603219783394
 10
1337.65131152809
 20
-1110.73860678351
 10
1333.08625001986
 20
-1109.102076201158
 10
1312.633799512667
 20
-1101.765192693823
 10
1296.182564244084
 20
-1087.976216992312
 10
1280.021042154551
 20
-1074.124634186783
 10
1275.589128273643
 20
-1070.326987619595
 10
1276.669698213982
 20
-1063.679164589917
 10
1281.320880333999
 20
-1059.36472266449
 10
1283.928298945451
 20
-1056.945197052613
 10
1287.389277005575
 20
-1054.157651589981
 10
1290.638824662512
 20
-1053.914917634786
 10
1325.647570228895
 20
-1051.252658067713
 10
1359.333059691426
 20
-1054.470854380959
 10
1387.788036259204
 20
-1078.313790216653
 97
        0
 97
        0
 75
     2
 76
     1
 98
        0
  0
ENDSEC
  0
SECTION
  2
OBJECTS
  0
DICTIONARY
  5
C
330
0
100
AcDbDictionary
281
     1
  3
ACAD_GROUP
350
D
  3
ACAD_LAYOUT
350
1A
  3
ACAD_MATERIAL
350
3B
  3
ACAD_MLEADERSTYLE
350
5A
  3
ACAD_MLINESTYLE
350
17
  3
ACAD_PLOTSETTINGS
350
19
  3
ACAD_PLOTSTYLENAME
350
E
  3
ACAD_TABLESTYLE
350
59
  3
ACAD_VISUALSTYLE
350
2A
  0
SUN
  5
3F
330
29
100
AcDbSun
 90
        1
290
     0
 63
     7
421
 16777215
 40
1.0
291
     1
 91
  2455826
 92
 54000000
292
     0
 70
     2
 71
   256
280
     1
  0
DICTIONARY
  5
D
102
{ACAD_REACTORS
330
C
102
}
330
C
100
AcDbDictionary
281
     1
  0
DICTIONARY
  5
1A
102
{ACAD_REACTORS
330
C
102
}
330
C
100
AcDbDictionary
281
     1
  3
Layout1
350
1E
  3
Layout2
350
26
  3
Model
350
22
  0
DICTIONARY
  5
3B
102
{ACAD_REACTORS
330
C
102
}
330
C
100
AcDbDictionary
281
     1
  3
ByBlock
350
3D
  3
ByLayer
350
3C
  3
Global
350
3E
  0
DICTIONARY
  5
5A
102
{ACAD_REACTORS
330
C
102
}
330
C
100
AcDbDictionary
281
     1
  0
DICTIONARY
  5
17
102
{ACAD_REACTORS
330
C
102
}
330
C
100
AcDbDictionary
281
     1
  3
Standard
350
18
  0
DICTIONARY
  5
19
102
{ACAD_REACTORS
330
C
102
}
330
C
100
AcDbDictionary
281
     1
  0
ACDBDICTIONARYWDFLT
  5
E
102
{ACAD_REACTORS
330
C
102
}
330
C
100
AcDbDictionary
281
     1
  3
Normal
350
F
100
AcDbDictionaryWithDefault
340
F
  0
DICTIONARY
  5
59
102
{ACAD_REACTORS
330
C
102
}
330
C
100
AcDbDictionary
281
     1
  0
DICTIONARY
  5
2A
102
{ACAD_REACTORS
330
C
102
}
330
C
100
AcDbDictionary
281
     1
  3
2dWireframe
350
2F
  3
3D Hidden
350
31
  3
3dWireframe
350
30
  3
Basic
350
32
  3
Brighten
350
36
  3
ColorChange
350
3A
  3
Conceptual
350
34
  3
Dim
350
35
  3
Facepattern
350
39
  3
Flat
350
2B
  3
FlatWithEdges
350
2C
  3
Gouraud
350
2D
  3
GouraudWithEdges
350
2E
  3
Linepattern
350
38
  3
Realistic
350
33
  3
Thicken
350
37
  0
LAYOUT
  5
1E
102
{ACAD_REACTORS
330
1A
102
}
330
1A
100
AcDbPlotSettings
  1

  2
none_device
  4

  6

 40
0.0
 41
0.0
 42
0.0
 43
0.0
 44
0.0
 45
0.0
 46
0.0
 47
0.0
 48
0.0
 49
0.0
140
0.0
141
0.0
142
1.0
143
1.0
 70
   688
 72
     0
 73
     0
 74
     5
  7

 75
    16
 76
     0
 77
     2
 78
   300
147
1.0
148
0.0
149
0.0
100
AcDbLayout
  1
Layout1
 70
     1
 71
     1
 10
0.0
 20
0.0
 11
12.0
 21
9.0
 12
0.0
 22
0.0
 32
0.0
 14
1.000000000000000E+20
 24
1.000000000000000E+20
 34
1.000000000000000E+20
 15
-1.000000000000000E+20
 25
-1.000000000000000E+20
 35
-1.000000000000000E+20
146
0.0
 13
0.0
 23
0.0
 33
0.0
 16
1.0
 26
0.0
 36
0.0
 17
0.0
 27
1.0
 37
0.0
 76
     0
330
1B
  0
LAYOUT
  5
26
102
{ACAD_REACTORS
330
1A
102
}
330
1A
100
AcDbPlotSettings
  1

  2
none_device
  4

  6

 40
0.0
 41
0.0
 42
0.0
 43
0.0
 44
0.0
 45
0.0
 46
0.0
 47
0.0
 48
0.0
 49
0.0
140
0.0
141
0.0
142
1.0
143
1.0
 70
   688
 72
     0
 73
     0
 74
     5
  7

 75
    16
 76
     0
 77
     2
 78
   300
147
1.0
148
0.0
149
0.0
100
AcDbLayout
  1
Layout2
 70
     1
 71
     2
 10
0.0
 20
0.0
 11
0.0
 21
0.0
 12
0.0
 22
0.0
 32
0.0
 14
0.0
 24
0.0
 34
0.0
 15
0.0
 25
0.0
 35
0.0
146
0.0
 13
0.0
 23
0.0
 33
0.0
 16
1.0
 26
0.0
 36
0.0
 17
0.0
 27
1.0
 37
0.0
 76
     0
330
23
  0
LAYOUT
  5
22
102
{ACAD_REACTORS
330
1A
102
}
330
1A
100
AcDbPlotSettings
  1

  2
none_device
  4

  6

 40
0.0
 41
0.0
 42
0.0
 43
0.0
 44
0.0
 45
0.0
 46
0.0
 47
0.0
 48
0.0
 49
0.0
140
0.0
141
0.0
142
1.0
143
1.0
 70
  1712
 72
     0
 73
     0
 74
     0
  7

 75
     0
 76
     0
 77
     2
 78
   300
147
1.0
148
0.0
149
0.0
100
AcDbLayout
  1
Model
 70
     1
 71
     0
 10
0.0
 20
0.0
 11
12.0
 21
9.0
 12
0.0
 22
0.0
 32
0.0
 14
1.000000000000000E+20
 24
1.000000000000000E+20
 34
1.000000000000000E+20
 15
-1.000000000000000E+20
 25
-1.000000000000000E+20
 35
-1.000000000000000E+20
146
0.0
 13
0.0
 23
0.0
 33
0.0
 16
1.0
 26
0.0
 36
0.0
 17
0.0
 27
1.0
 37
0.0
 76
     0
330
1F
331
29
  0
MATERIAL
  5
3D
102
{ACAD_REACTORS
330
3B
102
}
330
3B
100
AcDbMaterial
  1
ByBlock
 72
     1
 94
      127
  0
MATERIAL
  5
3C
102
{ACAD_REACTORS
330
3B
102
}
330
3B
100
AcDbMaterial
  1
ByLayer
 72
     1
 94
      127
  0
MATERIAL
  5
3E
102
{ACAD_REACTORS
330
3B
102
}
330
3B
100
AcDbMaterial
  1
Global
 72
     1
 94
      127
  0
MLINESTYLE
  5
18
102
{ACAD_REACTORS
330
17
102
}
330
17
100
AcDbMlineStyle
  2
Standard
 70
     0
  3

 62
   256
 51
90.0
 52
90.0
 71
     2
 49
0.5
 62
   256
  6
BYLAYER
 49
-0.5
 62
   256
  6
BYLAYER
  0
ACDBPLACEHOLDER
  5
F
102
{ACAD_REACTORS
330
E
102
}
330
E
  0
VISUALSTYLE
  5
2F
102
{ACAD_REACTORS
330
2A
102
}
330
2A
100
AcDbVisualStyle
  2
2dWireframe
 70
     4
177
     2
291
     0
 71
     0
176
     1
 72
     2
176
     1
 73
     0
176
     1
 90
        0
176
     1
 40
-0.6
176
     1
 41
-30.0
176
     1
 62
     5
 63
     7
421
 16777215
176
     1
 74
     1
176
     1
 91
        4
176
     1
 64
     7
176
     1
 65
   257
176
     1
 75
     1
176
     1
175
     1
176
     1
 42
1.0
176
     1
 92
        0
176
     1
 66
   257
176
     1
 43
1.0
176
     1
 76
     1
176
     1
 77
     6
176
     1
 78
     2
176
     1
 67
     7
176
     1
 79
     5
176
     1
170
     0
176
     1
171
     0
176
     1
290
     0
176
     1
 93
        1
176
     1
 44
0.0
176
     1
173
     0
176
     1
  0
VISUALSTYLE
  5
31
102
{ACAD_REACTORS
330
2A
102
}
330
2A
100
AcDbVisualStyle
  2
3D Hidden
 70
     6
177
     2
291
     0
 71
     1
176
     1
 72
     2
176
     1
 73
     2
176
     1
 90
        0
176
     1
 40
-0.6
176
     1
 41
-30.0
176
     1
 62
     5
 63
     7
421
 16777215
176
     1
 74
     2
176
     1
 91
        2
176
     1
 64
     7
176
     1
 65
   257
176
     1
 75
     2
176
     1
175
     1
176
     1
 42
40.0
176
     1
 92
        0
176
     1
 66
   257
176
     1
 43
1.0
176
     1
 76
     1
176
     1
 77
     6
176
     1
 78
     2
176
     1
 67
     7
176
     1
 79
     3
176
     1
170
     0
176
     1
171
     0
176
     1
290
     0
176
     1
 93
        1
176
     1
 44
0.0
176
     1
173
     0
176
     1
  0
VISUALSTYLE
  5
30
102
{ACAD_REACTORS
330
2A
102
}
330
2A
100
AcDbVisualStyle
  2
3dWireframe
 70
     5
177
     2
291
     0
 71
     0
176
     1
 72
     2
176
     1
 73
     0
176
     1
 90
        0
176
     1
 40
-0.6
176
     1
 41
-30.0
176
     1
 62
     5
 63
     7
421
 16777215
176
     1
 74
     1
176
     1
 91
        4
176
     1
 64
     7
176
     1
 65
   257
176
     1
 75
     1
176
     1
175
     1
176
     1
 42
1.0
176
     1
 92
        0
176
     1
 66
   257
176
     1
 43
1.0
176
     1
 76
     1
176
     1
 77
     6
176
     1
 78
     2
176
     1
 67
     7
176
     1
 79
     5
176
     1
170
     0
176
     1
171
     0
176
     1
290
     0
176
     1
 93
        1
176
     1
 44
0.0
176
     1
173
     0
176
     1
  0
VISUALSTYLE
  5
32
102
{ACAD_REACTORS
330
2A
102
}
330
2A
100
AcDbVisualStyle
  2
Basic
 70
     7
177
     2
291
     1
 71
     1
176
     1
 72
     0
176
     1
 73
     1
176
     1
 90
        0
176
     1
 40
-0.6
176
     1
 41
-30.0
176
     1
 62
     5
 63
     7
421
 16777215
176
     1
 74
     0
176
     1
 91
        4
176
     1
 64
     7
176
     1
 65
   257
176
     1
 75
     1
176
     1
175
     1
176
     1
 42
1.0
176
     1
 92
        8
176
     1
 66
     7
176
     1
 43
1.0
176
     1
 76
     1
176
     1
 77
     6
176
     1
 78
     2
176
     1
 67
     7
176
     1
 79
     5
176
     1
170
     0
176
     1
171
     0
176
     1
290
     0
176
     1
 93
        1
176
     1
 44
0.0
176
     1
173
     0
176
     1
  0
VISUALSTYLE
  5
36
102
{ACAD_REACTORS
330
2A
102
}
330
2A
100
AcDbVisualStyle
  2
Brighten
 70
    12
177
     2
291
     1
 71
     2
176
     1
 72
     2
176
     1
 73
     0
176
     1
 90
        0
176
     1
 40
-0.6
176
     1
 41
-30.0
176
     1
 62
     5
 63
     7
421
 16777215
176
     1
 74
     1
176
     1
 91
        4
176
     1
 64
     7
176
     1
 65
   257
176
     1
 75
     1
176
     1
175
     1
176
     1
 42
1.0
176
     1
 92
        8
176
     1
 66
     7
176
     1
 43
1.0
176
     1
 76
     1
176
     1
 77
     6
176
     1
 78
     2
176
     1
 67
     7
176
     1
 79
     5
176
     1
170
     0
176
     1
171
     0
176
     1
290
     0
176
     1
 93
        1
176
     1
 44
50.0
176
     1
173
     0
176
     1
  0
VISUALSTYLE
  5
3A
102
{ACAD_REACTORS
330
2A
102
}
330
2A
100
AcDbVisualStyle
  2
ColorChange
 70
    16
177
     2
291
     1
 71
     2
176
     1
 72
     2
176
     1
 73
     3
176
     1
 90
        0
176
     1
 40
-0.6
176
     1
 41
-30.0
176
     1
 62
     5
 63
     8
421
  8421504
176
     1
 74
     1
176
     1
 91
        4
176
     1
 64
     7
176
     1
 65
   257
176
     1
 75
     1
176
     1
175
     1
176
     1
 42
1.0
176
     1
 92
        8
176
     1
 66
     8
424
  8421504
176
     1
 43
1.0
176
     1
 76
     1
176
     1
 77
     6
176
     1
 78
     2
176
     1
 67
     7
176
     1
 79
     5
176
     1
170
     0
176
     1
171
     0
176
     1
290
     0
176
     1
 93
        1
176
     1
 44
0.0
176
     1
173
     0
176
     1
  0
VISUALSTYLE
  5
34
102
{ACAD_REACTORS
330
2A
102
}
330
2A
100
AcDbVisualStyle
  2
Conceptual
 70
     9
177
     2
291
     0
 71
     3
176
     1
 72
     2
176
     1
 73
     0
176
     1
 90
        0
176
     1
 40
-0.6
176
     1
 41
-30.0
176
     1
 62
     5
 63
     7
421
 16777215
176
     1
 74
     2
176
     1
 91
        2
176
     1
 64
     7
176
     1
 65
   257
176
     1
 75
     1
176
     1
175
     1
176
     1
 42
40.0
176
     1
 92
        8
176
     1
 66
     7
176
     1
 43
1.0
176
     1
 76
     1
176
     1
 77
     6
176
     1
 78
     2
176
     1
 67
     7
176
     1
 79
     3
176
     1
170
     0
176
     1
171
     0
176
     1
290
     0
176
     1
 93
        1
176
     1
 44
0.0
176
     1
173
     0
176
     1
  0
VISUALSTYLE
  5
35
102
{ACAD_REACTORS
330
2A
102
}
330
2A
100
AcDbVisualStyle
  2
Dim
 70
    11
177
     2
291
     1
 71
     2
176
     1
 72
     2
176
     1
 73
     0
176
     1
 90
        0
176
     1
 40
-0.6
176
     1
 41
-30.0
176
     1
 62
     5
 63
     7
421
 16777215
176
     1
 74
     1
176
     1
 91
        4
176
     1
 64
     7
176
     1
 65
   257
176
     1
 75
     1
176
     1
175
     1
176
     1
 42
1.0
176
     1
 92
        8
176
     1
 66
     7
176
     1
 43
1.0
176
     1
 76
     1
176
     1
 77
     6
176
     1
 78
     2
176
     1
 67
     7
176
     1
 79
     5
176
     1
170
     0
176
     1
171
     0
176
     1
290
     0
176
     1
 93
        1
176
     1
 44
-50.0
176
     1
173
     0
176
     1
  0
VISUALSTYLE
  5
39
102
{ACAD_REACTORS
330
2A
102
}
330
2A
100
AcDbVisualStyle
  2
Facepattern
 70
    15
177
     2
291
     1
 71
     2
176
     1
 72
     2
176
     1
 73
     0
176
     1
 90
        0
176
     1
 40
-0.6
176
     1
 41
-30.0
176
     1
 62
     5
 63
     7
421
 16777215
176
     1
 74
     1
176
     1
 91
        4
176
     1
 64
     7
176
     1
 65
   257
176
     1
 75
     1
176
     1
175
     1
176
     1
 42
1.0
176
     1
 92
        8
176
     1
 66
     7
176
     1
 43
1.0
176
     1
 76
     1
176
     1
 77
     6
176
     1
 78
     2
176
     1
 67
     7
176
     1
 79
     5
176
     1
170
     0
176
     1
171
     0
176
     1
290
     0
176
     1
 93
        1
176
     1
 44
0.0
176
     1
173
     0
176
     1
  0
VISUALSTYLE
  5
2B
102
{ACAD_REACTORS
330
2A
102
}
330
2A
100
AcDbVisualStyle
  2
Flat
 70
     0
177
     2
291
     1
 71
     2
176
     1
 72
     1
176
     1
 73
     1
176
     1
 90
        2
176
     1
 40
-0.6
176
     1
 41
30.0
176
     1
 62
     5
 63
     7
421
 16777215
176
     1
 74
     0
176
     1
 91
        4
176
     1
 64
     7
176
     1
 65
   257
176
     1
 75
     1
176
     1
175
     1
176
     1
 42
1.0
176
     1
 92
        8
176
     1
 66
     7
176
     1
 43
1.0
176
     1
 76
     1
176
     1
 77
     6
176
     1
 78
     2
176
     1
 67
     7
176
     1
 79
     5
176
     1
170
     0
176
     1
171
     0
176
     1
290
     0
176
     1
 93
       13
176
     1
 44
0.0
176
     1
173
     0
176
     1
  0
VISUALSTYLE
  5
2C
102
{ACAD_REACTORS
330
2A
102
}
330
2A
100
AcDbVisualStyle
  2
FlatWithEdges
 70
     1
177
     2
291
     1
 71
     2
176
     1
 72
     1
176
     1
 73
     1
176
     1
 90
        2
176
     1
 40
-0.6
176
     1
 41
30.0
176
     1
 62
     5
 63
     7
421
 16777215
176
     1
 74
     1
176
     1
 91
        4
176
     1
 64
     7
176
     1
 65
   257
176
     1
 75
     1
176
     1
175
     1
176
     1
 42
1.0
176
     1
 92
        0
176
     1
 66
   257
176
     1
 43
1.0
176
     1
 76
     1
176
     1
 77
     6
176
     1
 78
     2
176
     1
 67
     7
176
     1
 79
     5
176
     1
170
     0
176
     1
171
     0
176
     1
290
     0
176
     1
 93
       13
176
     1
 44
0.0
176
     1
173
     0
176
     1
  0
VISUALSTYLE
  5
2D
102
{ACAD_REACTORS
330
2A
102
}
330
2A
100
AcDbVisualStyle
  2
Gouraud
 70
     2
177
     2
291
     1
 71
     2
176
     1
 72
     2
176
     1
 73
     1
176
     1
 90
        2
176
     1
 40
-0.6
176
     1
 41
30.0
176
     1
 62
     5
 63
     7
421
 16777215
176
     1
 74
     0
176
     1
 91
        4
176
     1
 64
     7
176
     1
 65
   257
176
     1
 75
     1
176
     1
175
     1
176
     1
 42
1.0
176
     1
 92
        0
176
     1
 66
     7
176
     1
 43
1.0
176
     1
 76
     1
176
     1
 77
     6
176
     1
 78
     2
176
     1
 67
     7
176
     1
 79
     5
176
     1
170
     0
176
     1
171
     0
176
     1
290
     0
176
     1
 93
       13
176
     1
 44
0.0
176
     1
173
     0
176
     1
  0
VISUALSTYLE
  5
2E
102
{ACAD_REACTORS
330
2A
102
}
330
2A
100
AcDbVisualStyle
  2
GouraudWithEdges
 70
     3
177
     2
291
     1
 71
     2
176
     1
 72
     2
176
     1
 73
     1
176
     1
 90
        2
176
     1
 40
-0.6
176
     1
 41
30.0
176
     1
 62
     5
 63
     7
421
 16777215
176
     1
 74
     1
176
     1
 91
        4
176
     1
 64
     7
176
     1
 65
   257
176
     1
 75
     1
176
     1
175
     1
176
     1
 42
1.0
176
     1
 92
        0
176
     1
 66
   257
176
     1
 43
1.0
176
     1
 76
     1
176
     1
 77
     6
176
     1
 78
     2
176
     1
 67
     7
176
     1
 79
     5
176
     1
170
     0
176
     1
171
     0
176
     1
290
     0
176
     1
 93
       13
176
     1
 44
0.0
176
     1
173
     0
176
     1
  0
VISUALSTYLE
  5
38
102
{ACAD_REACTORS
330
2A
102
}
330
2A
100
AcDbVisualStyle
  2
Linepattern
 70
    14
177
     2
291
     1
 71
     2
176
     1
 72
     2
176
     1
 73
     0
176
     1
 90
        0
176
     1
 40
-0.6
176
     1
 41
-30.0
176
     1
 62
     5
 63
     7
421
 16777215
176
     1
 74
     1
176
     1
 91
        4
176
     1
 64
     7
176
     1
 65
   257
176
     1
 75
     7
176
     1
175
     7
176
     1
 42
1.0
176
     1
 92
        8
176
     1
 66
     7
176
     1
 43
1.0
176
     1
 76
     1
176
     1
 77
     6
176
     1
 78
     2
176
     1
 67
     7
176
     1
 79
     5
176
     1
170
     0
176
     1
171
     0
176
     1
290
     0
176
     1
 93
        1
176
     1
 44
0.0
176
     1
173
     0
176
     1
  0
VISUALSTYLE
  5
33
102
{ACAD_REACTORS
330
2A
102
}
330
2A
100
AcDbVisualStyle
  2
Realistic
 70
     8
177
     2
291
     0
 71
     2
176
     1
 72
     2
176
     1
 73
     0
176
     1
 90
        0
176
     1
 40
-0.6
176
     1
 41
-30.0
176
     1
 62
     5
 63
     7
421
 16777215
176
     1
 74
     1
176
     1
 91
        0
176
     1
 64
     7
176
     1
 65
   257
176
     1
 75
     1
176
     1
175
     1
176
     1
 42
1.0
176
     1
 92
        8
176
     1
 66
     8
424
  7895160
176
     1
 43
1.0
176
     1
 76
     1
176
     1
 77
     6
176
     1
 78
     2
176
     1
 67
     7
176
     1
 79
     5
176
     1
170
     0
176
     1
171
     0
176
     1
290
     0
176
     1
 93
       13
176
     1
 44
0.0
176
     1
173
     0
176
     1
  0
VISUALSTYLE
  5
37
102
{ACAD_REACTORS
330
2A
102
}
330
2A
100
AcDbVisualStyle
  2
Thicken
 70
    13
177
     2
291
     1
 71
     2
176
     1
 72
     2
176
     1
 73
     0
176
     1
 90
        0
176
     1
 40
-0.6
176
     1
 41
-30.0
176
     1
 62
     5
 63
     7
421
 16777215
176
     1
 74
     1
176
     1
 91
        4
176
     1
 64
     7
176
     1
 65
   257
176
     1
 75
     1
176
     1
175
     1
176
     1
 42
1.0
176
     1
 92
       12
176
     1
 66
     7
176
     1
 43
1.0
176
     1
 76
     1
176
     1
 77
     6
176
     1
 78
     2
176
     1
 67
     7
176
     1
 79
     5
176
     1
170
     0
176
     1
171
     0
176
     1
290
     0
176
     1
 93
        1
176
     1
 44
0.0
176
     1
173
     0
176
     1
  0
ENDSEC
  0
EOF
