  0
SECTION
  2
HEADER
  9
$ACADVER
  1
AC1024
  9
$ACADMAINTVER
 70
     6
  9
$DWGCODEPAGE
  3
ANSI_1254
  9
$INSBASE
 10
0.0
 20
0.0
 30
0.0
  9
$EXTMIN
 10
1.000000000000000E+20
 20
1.000000000000000E+20
 30
1.000000000000000E+20
  9
$EXTMAX
 10
-1.000000000000000E+20
 20
-1.000000000000000E+20
 30
-1.000000000000000E+20
  9
$LIMMIN
 10
0.0
 20
0.0
  9
$LIMMAX
 10
12.0
 20
9.0
  9
$ORTHOMODE
 70
     0
  9
$REGENMODE
 70
     1
  9
$FILLMODE
 70
     1
  9
$QTEXTMODE
 70
     0
  9
$MIRRTEXT
 70
     1
  9
$LTSCALE
 40
1.0
  9
$ATTMODE
 70
     1
  9
$TEXTSIZE
 40
0.2
  9
$TRACEWID
 40
0.05
  9
$TEXTSTYLE
  7
Standard
  9
$CLAYER
  8
0
  9
$CELTYPE
  6
ByLayer
  9
$CECOLOR
 62
   256
  9
$CELTSCALE
 40
1.0
  9
$DISPSILH
 70
     0
  9
$DIMSCALE
 40
1.0
  9
$DIMASZ
 40
0.18
  9
$DIMEXO
 40
0.0625
  9
$DIMDLI
 40
0.38
  9
$DIMRND
 40
0.0
  9
$DIMDLE
 40
0.0
  9
$DIMEXE
 40
0.18
  9
$DIMTP
 40
0.0
  9
$DIMTM
 40
0.0
  9
$DIMTXT
 40
0.18
  9
$DIMCEN
 40
0.09
  9
$DIMTSZ
 40
0.0
  9
$DIMTOL
 70
     0
  9
$DIMLIM
 70
     0
  9
$DIMTIH
 70
     1
  9
$DIMTOH
 70
     1
  9
$DIMSE1
 70
     0
  9
$DIMSE2
 70
     0
  9
$DIMTAD
 70
     0
  9
$DIMZIN
 70
     0
  9
$DIMBLK
  1

  9
$DIMASO
 70
     1
  9
$DIMSHO
 70
     1
  9
$DIMPOST
  1

  9
$DIMAPOST
  1

  9
$DIMALT
 70
     0
  9
$DIMALTD
 70
     2
  9
$DIMALTF
 40
25.4
  9
$DIMLFAC
 40
1.0
  9
$DIMTOFL
 70
     0
  9
$DIMTVP
 40
0.0
  9
$DIMTIX
 70
     0
  9
$DIMSOXD
 70
     0
  9
$DIMSAH
 70
     0
  9
$DIMBLK1
  1

  9
$DIMBLK2
  1

  9
$DIMSTYLE
  2
Standard
  9
$DIMCLRD
 70
     0
  9
$DIMCLRE
 70
     0
  9
$DIMCLRT
 70
     0
  9
$DIMTFAC
 40
1.0
  9
$DIMGAP
 40
0.09
  9
$DIMJUST
 70
     0
  9
$DIMSD1
 70
     0
  9
$DIMSD2
 70
     0
  9
$DIMTOLJ
 70
     1
  9
$DIMTZIN
 70
     0
  9
$DIMALTZ
 70
     0
  9
$DIMALTTZ
 70
     0
  9
$DIMUPT
 70
     0
  9
$DIMDEC
 70
     4
  9
$DIMTDEC
 70
     4
  9
$DIMALTU
 70
     2
  9
$DIMALTTD
 70
     2
  9
$DIMTXSTY
  7
Standard
  9
$DIMAUNIT
 70
     0
  9
$DIMADEC
 70
     0
  9
$DIMALTRND
 40
0.0
  9
$DIMAZIN
 70
     0
  9
$DIMDSEP
 70
    46
  9
$DIMATFIT
 70
     3
  9
$DIMFRAC
 70
     0
  9
$DIMLDRBLK
  1

  9
$DIMLUNIT
 70
     2
  9
$DIMLWD
 70
    -2
  9
$DIMLWE
 70
    -2
  9
$DIMTMOVE
 70
     0
  9
$DIMFXL
 40
1.0
  9
$DIMFXLON
 70
     0
  9
$DIMJOGANG
 40
0.7853981633974483
  9
$DIMTFILL
 70
     0
  9
$DIMTFILLCLR
 70
     0
  9
$DIMARCSYM
 70
     0
  9
$DIMLTYPE
  6

  9
$DIMLTEX1
  6

  9
$DIMLTEX2
  6

  9
$DIMTXTDIRECTION
 70
     0
  9
$LUNITS
 70
     2
  9
$LUPREC
 70
     4
  9
$SKETCHINC
 40
0.1
  9
$FILLETRAD
 40
0.5
  9
$AUNITS
 70
     0
  9
$AUPREC
 70
     0
  9
$MENU
  1
.
  9
$ELEVATION
 40
0.0
  9
$PELEVATION
 40
0.0
  9
$THICKNESS
 40
0.0
  9
$LIMCHECK
 70
     0
  9
$CHAMFERA
 40
0.5
  9
$CHAMFERB
 40
0.5
  9
$CHAMFERC
 40
1.0
  9
$CHAMFERD
 40
0.0
  9
$SKPOLY
 70
     0
  9
$TDCREATE
 40
2459350.778529502
  9
$TDUCREATE
 40
2459350.653529502
  9
$TDUPDATE
 40
2459350.778529525
  9
$TDUUPDATE
 40
2459350.653529525
  9
$TDINDWG
 40
0.0000000116
  9
$TDUSRTIMER
 40
0.0000000116
  9
$USRTIMER
 70
     1
  9
$ANGBASE
 50
0.0
  9
$ANGDIR
 70
     0
  9
$PDMODE
 70
     0
  9
$PDSIZE
 40
0.0
  9
$PLINEWID
 40
0.0
  9
$SPLFRAME
 70
     0
  9
$SPLINETYPE
 70
     6
  9
$SPLINESEGS
 70
     8
  9
$HANDSEED
  5
55
  9
$SURFTAB1
 70
     6
  9
$SURFTAB2
 70
     6
  9
$SURFTYPE
 70
     6
  9
$SURFU
 70
     6
  9
$SURFV
 70
     6
  9
$UCSBASE
  2

  9
$UCSNAME
  2

  9
$UCSORG
 10
0.0
 20
0.0
 30
0.0
  9
$UCSXDIR
 10
1.0
 20
0.0
 30
0.0
  9
$UCSYDIR
 10
0.0
 20
1.0
 30
0.0
  9
$UCSORTHOREF
  2

  9
$UCSORTHOVIEW
 70
     0
  9
$UCSORGTOP
 10
0.0
 20
0.0
 30
0.0
  9
$UCSORGBOTTOM
 10
0.0
 20
0.0
 30
0.0
  9
$UCSORGLEFT
 10
0.0
 20
0.0
 30
0.0
  9
$UCSORGRIGHT
 10
0.0
 20
0.0
 30
0.0
  9
$UCSORGFRONT
 10
0.0
 20
0.0
 30
0.0
  9
$UCSORGBACK
 10
0.0
 20
0.0
 30
0.0
  9
$PUCSBASE
  2

  9
$PUCSNAME
  2

  9
$PUCSORG
 10
0.0
 20
0.0
 30
0.0
  9
$PUCSXDIR
 10
1.0
 20
0.0
 30
0.0
  9
$PUCSYDIR
 10
0.0
 20
1.0
 30
0.0
  9
$PUCSORTHOREF
  2

  9
$PUCSORTHOVIEW
 70
     0
  9
$PUCSORGTOP
 10
0.0
 20
0.0
 30
0.0
  9
$PUCSORGBOTTOM
 10
0.0
 20
0.0
 30
0.0
  9
$PUCSORGLEFT
 10
0.0
 20
0.0
 30
0.0
  9
$PUCSORGRIGHT
 10
0.0
 20
0.0
 30
0.0
  9
$PUCSORGFRONT
 10
0.0
 20
0.0
 30
0.0
  9
$PUCSORGBACK
 10
0.0
 20
0.0
 30
0.0
  9
$USERI1
 70
     0
  9
$USERI2
 70
     0
  9
$USERI3
 70
     0
  9
$USERI4
 70
     0
  9
$USERI5
 70
     0
  9
$USERR1
 40
0.0
  9
$USERR2
 40
0.0
  9
$USERR3
 40
0.0
  9
$USERR4
 40
0.0
  9
$USERR5
 40
0.0
  9
$WORLDVIEW
 70
     1
  9
$SHADEDGE
 70
     3
  9
$SHADEDIF
 70
    70
  9
$TILEMODE
 70
     1
  9
$MAXACTVP
 70
    64
  9
$PINSBASE
 10
0.0
 20
0.0
 30
0.0
  9
$PLIMCHECK
 70
     0
  9
$PEXTMIN
 10
1.000000000000000E+20
 20
1.000000000000000E+20
 30
1.000000000000000E+20
  9
$PEXTMAX
 10
-1.000000000000000E+20
 20
-1.000000000000000E+20
 30
-1.000000000000000E+20
  9
$PLIMMIN
 10
0.0
 20
0.0
  9
$PLIMMAX
 10
12.0
 20
9.0
  9
$UNITMODE
 70
     0
  9
$VISRETAIN
 70
     1
  9
$PLINEGEN
 70
     0
  9
$PSLTSCALE
 70
     1
  9
$TREEDEPTH
 70
  3020
  9
$CMLSTYLE
  2
Standard
  9
$CMLJUST
 70
     0
  9
$CMLSCALE
 40
1.0
  9
$PROXYGRAPHICS
 70
     1
  9
$MEASUREMENT
 70
     0
  9
$CELWEIGHT
370
    -1
  9
$ENDCAPS
280
     0
  9
$JOINSTYLE
280
     0
  9
$LWDISPLAY
290
     1
  9
$INSUNITS
 70
     0
  9
$HYPERLINKBASE
  1

  9
$STYLESHEET
  1

  9
$XEDIT
290
     1
  9
$CEPSNTYPE
380
     0
  9
$PSTYLEMODE
290
     1
  9
$FINGERPRINTGUID
  2
{E52FF3E8-2397-46A7-AC10-F7AD59F6F747}
  9
$VERSIONGUID
  2
{FAEB1C32-E019-11D5-929B-00C0DF256EC4}
  9
$EXTNAMES
290
     1
  9
$PSVPSCALE
 40
0.0
  9
$OLESTARTUP
290
     0
  9
$SORTENTS
280
   127
  9
$INDEXCTL
280
     0
  9
$HIDETEXT
280
     1
  9
$XCLIPFRAME
280
     2
  9
$HALOGAP
280
     0
  9
$OBSCOLOR
 70
   257
  9
$OBSLTYPE
280
     0
  9
$INTERSECTIONDISPLAY
280
     0
  9
$INTERSECTIONCOLOR
 70
   257
  9
$DIMASSOC
280
     2
  9
$PROJECTNAME
  1

  9
$CAMERADISPLAY
290
     0
  9
$LENSLENGTH
 40
50.0
  9
$CAMERAHEIGHT
 40
0.0
  9
$STEPSPERSEC
 40
2.0
  9
$STEPSIZE
 40
6.0
  9
$3DDWFPREC
 40
2.0
  9
$PSOLWIDTH
 40
0.25
  9
$PSOLHEIGHT
 40
4.0
  9
$LOFTANG1
 40
1.570796326794897
  9
$LOFTANG2
 40
1.570796326794897
  9
$LOFTMAG1
 40
0.0
  9
$LOFTMAG2
 40
0.0
  9
$LOFTPARAM
 70
     7
  9
$LOFTNORMALS
280
     1
  9
$LATITUDE
 40
37.795
  9
$LONGITUDE
 40
-122.394
  9
$NORTHDIRECTION
 40
0.0
  9
$TIMEZONE
 70
 -8000
  9
$LIGHTGLYPHDISPLAY
280
     1
  9
$TILEMODELIGHTSYNCH
280
     1
  9
$CMATERIAL
347
3C
  9
$SOLIDHIST
280
     1
  9
$SHOWHIST
280
     1
  9
$DWFFRAME
280
     2
  9
$DGNFRAME
280
     2
  9
$REALWORLDSCALE
290
     1
  9
$INTERFERECOLOR
 62
   256
  9
$CSHADOW
280
     0
  9
$SHADOWPLANELOCATION
 40
0.0
  0
ENDSEC
  0
SECTION
  2
CLASSES
  0
CLASS
  1
ACDBDICTIONARYWDFLT
  2
AcDbDictionaryWithDefault
  3
ObjectDBX Classes
 90
        0
 91
        4
280
     0
281
     0
  0
CLASS
  1
VISUALSTYLE
  2
AcDbVisualStyle
  3
ObjectDBX Classes
 90
     4095
 91
        4
280
     0
281
     0
  0
CLASS
  1
MATERIAL
  2
AcDbMaterial
  3
ObjectDBX Classes
 90
     1153
 91
        4
280
     0
281
     0
  0
CLASS
  1
SUN
  2
AcDbSun
  3
SCENEOE
 90
     1024
 91
        4
280
     0
281
     0
  0
ENDSEC
  0
SECTION
  2
TABLES
  0
TABLE
  2
VPORT
  5
8
330
0
100
AcDbSymbolTable
 70
     1
  0
VPORT
  5
29
330
8
100
AcDbSymbolTableRecord
100
AcDbViewportTableRecord
  2
*Active
 70
     0
 10
0.0
 20
0.0
 11
1.0
 21
1.0
 12
0.0
 22
0.0
 13
0.0
 23
0.0
 14
0.5
 24
0.5
 15
0.5
 25
0.5
 16
0.0
 26
0.0
 36
1.0
 17
1017.179599334815
 27
-972.2637839103509
 37
0.0
 40
396.6977733763651
 41
3.182168601364883
 42
50.0
 43
0.0
 44
0.0
 50
0.0
 51
0.0
 71
     0
 72
   100
 73
     1
 74
     3
 75
     0
 76
     0
 77
     0
 78
     0
281
     0
 65
     1
110
0.0
120
0.0
130
0.0
111
1.0
121
0.0
131
0.0
112
0.0
122
1.0
132
0.0
 79
     0
146
0.0
 60
     3
 61
     5
292
     1
282
     1
141
0.0
142
0.0
 63
   250
361
3F
  0
ENDTAB
  0
TABLE
  2
LTYPE
  5
5
330
0
100
AcDbSymbolTable
 70
     1
  0
LTYPE
  5
14
330
5
100
AcDbSymbolTableRecord
100
AcDbLinetypeTableRecord
  2
ByBlock
 70
     0
  3

 72
    65
 73
     0
 40
0.0
  0
LTYPE
  5
15
330
5
100
AcDbSymbolTableRecord
100
AcDbLinetypeTableRecord
  2
ByLayer
 70
     0
  3

 72
    65
 73
     0
 40
0.0
  0
LTYPE
  5
16
330
5
100
AcDbSymbolTableRecord
100
AcDbLinetypeTableRecord
  2
Continuous
 70
     0
  3
Solid line
 72
    65
 73
     0
 40
0.0
  0
ENDTAB
  0
TABLE
  2
LAYER
  5
2
330
0
100
AcDbSymbolTable
 70
     2
  0
LAYER
  5
10
330
2
100
AcDbSymbolTableRecord
100
AcDbLayerTableRecord
  2
0
 70
     0
 62
     7
  6
Continuous
370
    -3
390
F
347
3E
  0
LAYER
  5
40
330
2
100
AcDbSymbolTableRecord
100
AcDbLayerTableRecord
  2
katman 1
 70
     0
 62
     7
  6
Continuous
370
    -3
390
F
347
3E
  0
ENDTAB
  0
TABLE
  2
STYLE
  5
3
330
0
100
AcDbSymbolTable
 70
     1
  0
STYLE
  5
11
330
3
100
AcDbSymbolTableRecord
100
AcDbTextStyleTableRecord
  2
Standard
 70
     0
 40
0.0
 41
1.0
 50
0.0
 71
     0
 42
0.2
  3
txt
  4

  0
ENDTAB
  0
TABLE
  2
VIEW
  5
6
330
0
100
AcDbSymbolTable
 70
     0
  0
ENDTAB
  0
TABLE
  2
UCS
  5
7
330
0
100
AcDbSymbolTable
 70
     0
  0
ENDTAB
  0
TABLE
  2
APPID
  5
9
330
0
100
AcDbSymbolTable
 70
     1
  0
APPID
  5
12
330
9
100
AcDbSymbolTableRecord
100
AcDbRegAppTableRecord
  2
ACAD
 70
     0
  0
ENDTAB
  0
TABLE
  2
DIMSTYLE
  5
A
330
0
100
AcDbSymbolTable
 70
     1
100
AcDbDimStyleTable
  0
DIMSTYLE
105
27
330
A
100
AcDbSymbolTableRecord
100
AcDbDimStyleTableRecord
  2
Standard
 70
     0
178
     0
340
11
  0
ENDTAB
  0
TABLE
  2
BLOCK_RECORD
  5
1
330
0
100
AcDbSymbolTable
 70
     2
  0
BLOCK_RECORD
  5
1F
330
1
100
AcDbSymbolTableRecord
100
AcDbBlockTableRecord
  2
*Model_Space
340
22
 70
     0
280
     1
281
     0
  0
BLOCK_RECORD
  5
1B
330
1
100
AcDbSymbolTableRecord
100
AcDbBlockTableRecord
  2
*Paper_Space
340
1E
 70
     0
280
     1
281
     0
  0
BLOCK_RECORD
  5
23
330
1
100
AcDbSymbolTableRecord
100
AcDbBlockTableRecord
  2
*Paper_Space0
340
26
 70
     0
280
     1
281
     0
  0
BLOCK_RECORD
  5
41
330
1
100
AcDbSymbolTableRecord
100
AcDbBlockTableRecord
  2
block 2
340
0
102
{BLKREFS
331
42
102
}
 70
     0
280
     1
281
     0
  0
ENDTAB
  0
ENDSEC
  0
SECTION
  2
BLOCKS
  0
BLOCK
  5
20
330
1F
100
AcDbEntity
  8
0
100
AcDbBlockBegin
  2
*Model_Space
 70
     0
 10
0.0
 20
0.0
 30
0.0
  3
*Model_Space
  1

  0
ENDBLK
  5
21
330
1F
100
AcDbEntity
  8
0
100
AcDbBlockEnd
  0
BLOCK
  5
1C
330
1B
100
AcDbEntity
 67
     1
  8
0
100
AcDbBlockBegin
  2
*Paper_Space
 70
     0
 10
0.0
 20
0.0
 30
0.0
  3
*Paper_Space
  1

  0
ENDBLK
  5
1D
330
1B
100
AcDbEntity
 67
     1
  8
0
100
AcDbBlockEnd
  0
BLOCK
  5
24
330
23
100
AcDbEntity
  8
0
100
AcDbBlockBegin
  2
*Paper_Space0
 70
     0
 10
0.0
 20
0.0
 30
0.0
  3
*Paper_Space0
  1

  0
ENDBLK
  5
25
330
23
100
AcDbEntity
  8
0
100
AcDbBlockEnd
  0
BLOCK
  5
43
330
41
100
AcDbEntity
  8
0
100
AcDbBlockBegin
  2
block 2
 70
     0
 10
0.0
 20
0.0
 30
0.0
  3
block 2
  1

  0
SPLINE
  5
45
330
41
100
AcDbEntity
  8
katman 1
370
     0
100
AcDbSpline
210
0.0
220
0.0
230
1.0
 70
    11
 71
     3
 72
    53
 73
    49
 74
     0
 42
0.0000000001
 43
0.0000000001
 12
1.0
 22
0.0
 32
0.0
 13
1.0
 23
0.0
 33
0.0
 40
0.0
 40
0.0
 40
0.0
 40
0.0
 40
1.0
 40
1.0
 40
1.0
 40
2.0
 40
2.0
 40
2.0
 40
3.0
 40
3.0
 40
3.0
 40
4.0
 40
4.0
 40
4.0
 40
5.0
 40
5.0
 40
5.0
 40
6.0
 40
6.0
 40
6.0
 40
7.0
 40
7.0
 40
7.0
 40
8.0
 40
8.0
 40
8.0
 40
9.0
 40
9.0
 40
9.0
 40
10.0
 40
10.0
 40
10.0
 40
11.0
 40
11.0
 40
11.0
 40
12.0
 40
12.0
 40
12.0
 40
13.0
 40
13.0
 40
13.0
 40
14.0
 40
14.0
 40
14.0
 40
15.0
 40
15.0
 40
15.0
 40
16.0
 40
16.0
 40
16.0
 40
16.0
 10
513.0403129939568
 20
-1164.131805280846
 30
0.0
 10
486.7093794909679
 20
-1164.727039353027
 30
0.0
 10
460.3627728132742
 20
-1165.557221663625
 30
0.0
 10
434.2041366768863
 20
-1161.280972515289
 30
0.0
 10
421.5007507283735
 20
-1159.213332412648
 30
0.0
 10
409.3612659470273
 20
-1155.297369098076
 30
0.0
 10
397.613374509494
 20
-1150.237951187972
 30
0.0
 10
387.8704581114835
 20
-1146.040049987301
 30
0.0
 10
385.0666276910924
 20
-1140.307073958496
 30
0.0
 10
386.2570808972396
 20
-1129.624314563798
 30
0.0
 10
387.8861215763482
 20
-1115.009936605684
 30
0.0
 10
392.459966847272
 20
-1101.867964678031
 30
0.0
 10
403.1427142913972
 20
-1091.044236340284
 30
0.0
 10
415.3291917080705
 20
-1078.716791474382
 30
0.0
 10
420.5609189353481
 20
-1062.896290123061
 30
0.0
 10
423.7093537987803
 20
-1046.26128561113
 30
0.0
 10
434.4704193141397
 20
-989.2605245602881
 30
0.0
 10
435.7235293673884
 20
-931.77418788262
 30
0.0
 10
432.2304908078258
 20
-874.0685462648125
 30
0.0
 10
431.9015513234699
 20
-868.6645156956483
 30
0.0
 10
430.4134840688766
 20
-863.2761523259023
 30
0.0
 10
429.0820559443937
 20
-857.9817682515231
 30
0.0
 10
427.0300920040991
 20
-849.805234938608
 30
0.0
 10
422.9574895594169
 20
-842.8191578194828
 30
0.0
 10
414.7652950223701
 20
-839.5610794489094
 30
0.0
 10
397.2531066015872
 20
-832.5750023297842
 30
0.0
 10
399.5713576606004
 20
-807.7008016825521
 30
0.0
 10
409.5648962186433
 20
-798.3808077988169
 30
0.0
 10
419.5427690710885
 20
-789.0921423386335
 30
0.0
 10
431.7135837698079
 20
-784.9098933991663
 30
0.0
 10
444.5266162131056
 20
-782.0747367959575
 30
0.0
 10
465.6884793359186
 20
-777.3755808184724
 30
0.0
 10
487.0539742241699
 20
-778.7070081960446
 30
0.0
 10
508.4194810629924
 20
-780.2577300570083
 30
0.0
 10
542.3473929567053
 20
-782.7012910756703
 30
0.0
 10
575.7270604259211
 20
-787.7450529900179
 30
0.0
 10
607.7752908077255
 20
-799.8688750534111
 30
0.0
 10
658.0249349284313
 20
-818.8847919529198
 30
0.0
 10
691.4829264441678
 20
-853.7838551002806
 30
0.0
 10
706.0973044022821
 20
-905.4745648773242
 30
0.0
 10
720.5237237696629
 20
-956.491734461526
 30
0.0
 10
721.7298232617268
 20
-1008.041469320237
 30
0.0
 10
705.7057080708246
 20
-1058.948992409652
 30
0.0
 10
685.7029607676786
 20
-1122.512911799899
 30
0.0
 10
633.6989727304108
 20
-1161.547231251399
 30
0.0
 10
567.0336170873461
 20
-1164.037778183192
 30
0.0
 10
549.0515082885868
 20
-1164.711384104179
 30
0.0
 10
531.0380770415622
 20
-1164.131805280846
 30
0.0
 10
513.0403129939568
 20
-1164.131805280846
 30
0.0
  0
HATCH
  5
46
330
41
100
AcDbEntity
  8
katman 1
 62
   114
420
    37445
100
AcDbHatch
 10
0.0
 20
0.0
 30
0.0
210
0.0
220
0.0
230
1.0
  2
SOLID
 70
     1
 71
     0
 91
        1
 92
        1
 93
        1
 72
     4
 94
        3
 73
     0
 74
     1
 95
       53
 96
       49
 40
0.0
 40
0.0
 40
0.0
 40
0.0
 40
1.0
 40
1.0
 40
1.0
 40
2.0
 40
2.0
 40
2.0
 40
3.0
 40
3.0
 40
3.0
 40
4.0
 40
4.0
 40
4.0
 40
5.0
 40
5.0
 40
5.0
 40
6.0
 40
6.0
 40
6.0
 40
7.0
 40
7.0
 40
7.0
 40
8.0
 40
8.0
 40
8.0
 40
9.0
 40
9.0
 40
9.0
 40
10.0
 40
10.0
 40
10.0
 40
11.0
 40
11.0
 40
11.0
 40
12.0
 40
12.0
 40
12.0
 40
13.0
 40
13.0
 40
13.0
 40
14.0
 40
14.0
 40
14.0
 40
15.0
 40
15.0
 40
15.0
 40
16.0
 40
16.0
 40
16.0
 40
16.0
 10
513.0403129939568
 20
-1164.131805280846
 10
486.7093794909679
 20
-1164.727039353027
 10
460.3627728132742
 20
-1165.557221663625
 10
434.2041366768863
 20
-1161.280972515289
 10
421.5007507283735
 20
-1159.213332412648
 10
409.3612659470273
 20
-1155.297369098076
 10
397.613374509494
 20
-1150.237951187972
 10
387.8704581114835
 20
-1146.040049987301
 10
385.0666276910924
 20
-1140.307073958496
 10
386.2570808972396
 20
-1129.624314563798
 10
387.8861215763482
 20
-1115.009936605684
 10
392.459966847272
 20
-1101.867964678031
 10
403.1427142913972
 20
-1091.044236340284
 10
415.3291917080705
 20
-1078.716791474382
 10
420.5609189353481
 20
-1062.896290123061
 10
423.7093537987803
 20
-1046.26128561113
 10
434.4704193141397
 20
-989.2605245602881
 10
435.7235293673884
 20
-931.77418788262
 10
432.2304908078258
 20
-874.0685462648125
 10
431.9015513234699
 20
-868.6645156956483
 10
430.4134840688766
 20
-863.2761523259023
 10
429.0820559443937
 20
-857.9817682515231
 10
427.0300920040991
 20
-849.805234938608
 10
422.9574895594169
 20
-842.8191578194828
 10
414.7652950223701
 20
-839.5610794489094
 10
397.2531066015872
 20
-832.5750023297842
 10
399.5713576606004
 20
-807.7008016825521
 10
409.5648962186433
 20
-798.3808077988169
 10
419.5427690710885
 20
-789.0921423386335
 10
431.7135837698079
 20
-784.9098933991663
 10
444.5266162131056
 20
-782.0747367959575
 10
465.6884793359186
 20
-777.3755808184724
 10
487.0539742241699
 20
-778.7070081960446
 10
508.4194810629924
 20
-780.2577300570083
 10
542.3473929567053
 20
-782.7012910756703
 10
575.7270604259211
 20
-787.7450529900179
 10
607.7752908077255
 20
-799.8688750534111
 10
658.0249349284313
 20
-818.8847919529198
 10
691.4829264441678
 20
-853.7838551002806
 10
706.0973044022821
 20
-905.4745648773242
 10
720.5237237696629
 20
-956.491734461526
 10
721.7298232617268
 20
-1008.041469320237
 10
705.7057080708246
 20
-1058.948992409652
 10
685.7029607676786
 20
-1122.512911799899
 10
633.6989727304108
 20
-1161.547231251399
 10
567.0336170873461
 20
-1164.037778183192
 10
549.0515082885868
 20
-1164.711384104179
 10
531.0380770415622
 20
-1164.131805280846
 10
513.0403129939568
 20
-1164.131805280846
 97
        0
 97
        0
 75
     2
 76
     1
 98
        0
  0
SPLINE
  5
47
330
41
100
AcDbEntity
  8
katman 1
370
     0
100
AcDbSpline
210
0.0
220
0.0
230
1.0
 70
    11
 71
     3
 72
   131
 73
   127
 74
     0
 42
0.0000000001
 43
0.0000000001
 12
1.0
 22
0.0
 32
0.0
 13
1.0
 23
0.0
 33
0.0
 40
0.0
 40
0.0
 40
0.0
 40
0.0
 40
1.0
 40
1.0
 40
1.0
 40
2.0
 40
2.0
 40
2.0
 40
3.0
 40
3.0
 40
3.0
 40
4.0
 40
4.0
 40
4.0
 40
5.0
 40
5.0
 40
5.0
 40
6.0
 40
6.0
 40
6.0
 40
7.0
 40
7.0
 40
7.0
 40
8.0
 40
8.0
 40
8.0
 40
9.0
 40
9.0
 40
9.0
 40
10.0
 40
10.0
 40
10.0
 40
11.0
 40
11.0
 40
11.0
 40
12.0
 40
12.0
 40
12.0
 40
13.0
 40
13.0
 40
13.0
 40
14.0
 40
14.0
 40
14.0
 40
15.0
 40
15.0
 40
15.0
 40
16.0
 40
16.0
 40
16.0
 40
17.0
 40
17.0
 40
17.0
 40
18.0
 40
18.0
 40
18.0
 40
19.0
 40
19.0
 40
19.0
 40
20.0
 40
20.0
 40
20.0
 40
21.0
 40
21.0
 40
21.0
 40
22.0
 40
22.0
 40
22.0
 40
23.0
 40
23.0
 40
23.0
 40
24.0
 40
24.0
 40
24.0
 40
25.0
 40
25.0
 40
25.0
 40
26.0
 40
26.0
 40
26.0
 40
27.0
 40
27.0
 40
27.0
 40
28.0
 40
28.0
 40
28.0
 40
29.0
 40
29.0
 40
29.0
 40
30.0
 40
30.0
 40
30.0
 40
31.0
 40
31.0
 40
31.0
 40
32.0
 40
32.0
 40
32.0
 40
33.0
 40
33.0
 40
33.0
 40
34.0
 40
34.0
 40
34.0
 40
35.0
 40
35.0
 40
35.0
 40
36.0
 40
36.0
 40
36.0
 40
37.0
 40
37.0
 40
37.0
 40
38.0
 40
38.0
 40
38.0
 40
39.0
 40
39.0
 40
39.0
 40
40.0
 40
40.0
 40
40.0
 40
41.0
 40
41.0
 40
41.0
 40
42.0
 40
42.0
 40
42.0
 40
42.0
 10
1484.841462628445
 20
-1166.042797290447
 30
0.0
 10
1451.696791199933
 20
-1166.042797290447
 30
0.0
 10
1418.552024166847
 20
-1166.042797290447
 30
0.0
 10
1385.407352738335
 20
-1166.027142041601
 30
0.0
 10
1382.274582086678
 20
-1166.027142041601
 30
0.0
 10
1379.126132285033
 20
-1166.089786938132
 30
0.0
 10
1376.024719933355
 20
-1165.72952500551
 30
0.0
 10
1366.939704164466
 20
-1164.711384104179
 30
0.0
 10
1359.186077680703
 20
-1161.312306914126
 30
0.0
 10
1355.959327733679
 20
-1151.97666375683
 30
0.0
 10
1352.591561041319
 20
-1142.233745118088
 30
0.0
 10
1353.312132708847
 20
-1132.882422810802
 30
0.0
 10
1360.689842011145
 20
-1124.940861637448
 30
0.0
 10
1367.253000350547
 20
-1117.876472422373
 30
0.0
 10
1373.753537694563
 20
-1110.890383352677
 30
0.0
 10
1379.361128325736
 20
-1102.917487780485
 30
0.0
 10
1387.349655245631
 20
-1091.561194168231
 30
0.0
 10
1390.936738828703
 20
-1079.124090856973
 30
0.0
 10
1391.954831927747
 20
-1065.668846644383
 30
0.0
 10
1395.635799201615
 20
-1017.518153124012
 30
0.0
 10
1395.776815946952
 20
-969.2265026111618
 30
0.0
 10
1397.37455957276
 20
-920.9818297954262
 30
0.0
 10
1397.969793644941
 20
-903.0310553955023
 30
0.0
 10
1400.225392338316
 20
-885.0489465967439
 30
0.0
 10
1397.170921832036
 20
-867.0825109726884
 30
0.0
 10
1394.977944134047
 20
-854.206821682289
 30
0.0
 10
1390.4198049019
 20
-843.6180595088163
 30
0.0
 10
1377.559746959205
 20
-837.1488864400653
 30
0.0
 10
1365.811857015493
 20
-831.2436130446595
 30
0.0
 10
1364.214113389684
 20
-813.1831921499515
 30
0.0
 10
1373.252187313177
 20
-801.3569811473626
 30
0.0
 10
1382.446861527422
 20
-789.3114771552046
 30
0.0
 10
1396.168412278408
 20
-785.5208260410154
 30
0.0
 10
1409.905642179385
 20
-782.1687609059672
 30
0.0
 10
1423.439234339639
 20
-778.87935187111
 30
0.0
 10
1437.348743681359
 20
-777.81420974498
 30
0.0
 10
1451.132915427732
 20
-779.051654092631
 30
0.0
 10
1489.822652096604
 20
-782.5290295607847
 30
0.0
 10
1528.293071874761
 20
-778.8480241944708
 30
0.0
 10
1566.841791798295
 20
-776.7177399422089
 30
0.0
 10
1575.691907131055
 20
-776.232160580832
 30
0.0
 10
1584.588964309209
 20
-776.232160580832
 30
0.0
 10
1593.438984037395
 20
-775.7309171944062
 30
0.0
 10
1606.784617606914
 20
-774.9790522081321
 30
0.0
 10
1616.872142929431
 20
-780.7903416399804
 30
0.0
 10
1623.732918304924
 20
-791.6453924259922
 30
0.0
 10
1637.689369492042
 20
-813.7470888356529
 30
0.0
 10
1642.02828743805
 20
-838.1200436689996
 30
0.0
 10
1637.611069346665
 20
-863.6834576837782
 30
0.0
 10
1635.621729389399
 20
-875.2120486626336
 30
0.0
 10
1629.418904686047
 20
-884.9079776536928
 30
0.0
 10
1616.981801374788
 20
-887.8684449634629
 30
0.0
 10
1604.356739472794
 20
-890.8759019209156
 30
0.0
 10
1593.908976118802
 20
-886.0201098009629
 30
0.0
 10
1587.267517634022
 20
-875.4156864033575
 30
0.0
 10
1567.327463029693
 20
-843.6180654841019
 30
0.0
 10
1536.594990585309
 20
-838.0730599966018
 30
0.0
 10
1502.745331034686
 20
-839.1851981191567
 30
0.0
 10
1498.688350974779
 20
-839.3261730374925
 30
0.0
 10
1496.57376902674
 20
-841.4251296131142
 30
0.0
 10
1494.960441855515
 20
-844.6048899124544
 30
0.0
 10
1489.446734915136
 20
-855.381622627232
 30
0.0
 10
1491.389037422432
 20
-869.197140723014
 30
0.0
 10
1499.847556423734
 20
-878.1255382752915
 30
0.0
 10
1511.423166926701
 20
-890.3433485969799
 30
0.0
 10
1526.350769367466
 20
-894.0713413702451
 30
0.0
 10
1542.468935557165
 20
-894.4316152534375
 30
0.0
 10
1547.293429129997
 20
-894.5412617482225
 30
0.0
 10
1550.488820777038
 20
-891.1265412598941
 30
0.0
 10
1553.793870869438
 20
-888.1504067507067
 30
0.0
 10
1557.145958411809
 20
-885.1272825938349
 30
0.0
 10
1560.826925685677
 20
-882.0101791415973
 30
0.0
 10
1565.620060958528
 20
-883.9994832471475
 30
0.0
 10
1570.507175526745
 20
-886.0201217515341
 30
0.0
 10
1570.663775817498
 20
-890.8445914232225
 30
0.0
 10
1570.648192272081
 20
-895.3714440588201
 30
0.0
 10
1570.616833972103
 20
-908.513415986472
 30
0.0
 10
1568.737248064766
 20
-921.357782828607
 30
0.0
 10
1564.38265096877
 20
-933.7948741892942
 30
0.0
 10
1562.565686056822
 20
-939.0109401924401
 30
0.0
 10
1560.137712318128
 20
-943.898054760657
 30
0.0
 10
1555.892869272062
 20
-947.6417266839126
 30
0.0
 10
1550.238241190918
 20
-952.6384996974884
 30
0.0
 10
1543.957020737616
 20
-952.7168117934361
 30
0.0
 10
1538.286713506484
 20
-947.7826956269637
 30
0.0
 10
1534.887684118718
 20
-944.8378955166118
 30
0.0
 10
1532.553785279964
 20
-941.0472339456737
 30
0.0
 10
1530.21979083664
 20
-937.2722515247242
 30
0.0
 10
1526.241206526682
 20
-930.8813965272075
 30
0.0
 10
1520.539540995571
 20
-927.137736554525
 30
0.0
 10
1513.052173247916
 20
-926.370211091029
 30
0.0
 10
1503.982836629017
 20
-925.4303822856455
 30
0.0
 10
1498.798105024709
 20
-928.9077596210755
 30
0.0
 10
1495.900234809184
 20
-937.6168582084974
 30
0.0
 10
1485.938047082012
 20
-967.62879483707
 30
0.0
 10
1502.619993439339
 20
-1001.227779196999
 30
0.0
 10
1532.616310670779
 20
-1010.735725696182
 30
0.0
 10
1546.933095493947
 20
-1015.278233580628
 30
0.0
 10
1561.64147664857
 20
-1017.016922248342
 30
0.0
 10
1576.631700084721
 20
-1013.978154793196
 30
0.0
 10
1580.500625949322
 20
-1013.194962130281
 30
0.0
 10
1584.401005718475
 20
-1013.304620575638
 30
0.0
 10
1588.316969033047
 20
-1013.805851451309
 30
0.0
 10
1598.952690977774
 20
-1015.168599036413
 30
0.0
 10
1607.144951242964
 20
-1011.14300117763
 30
0.0
 10
1613.144138205595
 20
-1002.371233792535
 30
0.0
 10
1613.880293418539
 20
-1001.29042409353
 30
0.0
 10
1614.694844381433
 20
-1000.272283192198
 30
0.0
 10
1615.478037044346
 20
-999.2384631408786
 30
0.0
 10
1625.173966035407
 20
-986.4254187470087
 30
0.0
 10
1633.50714744136
 20
-987.1773009122298
 30
0.0
 10
1641.151115479768
 20
-1001.556706730784
 30
0.0
 10
1643.375355873164
 20
-1005.738952682608
 30
0.0
 10
1645.349016680439
 20
-1010.187481271685
 30
0.0
 10
1645.536975271172
 20
-1014.855326751476
 30
0.0
 10
1646.80574356091
 20
-1047.404811910095
 30
0.0
 10
1650.847044470827
 20
-1079.938641819866
 30
0.0
 10
1646.132209343352
 20
-1112.519437476178
 30
0.0
 10
1644.706840762861
 20
-1122.371990659136
 30
0.0
 10
1642.059645738029
 20
-1131.895616308308
 30
0.0
 10
1637.877328082775
 20
-1140.965000729493
 30
0.0
 10
1631.157569452618
 20
-1155.516709889935
 30
0.0
 10
1620.208455717238
 20
-1163.176333177187
 30
0.0
 10
1603.824126396001
 20
-1164.319811673866
 30
0.0
 10
1564.178822018899
 20
-1167.092272590615
 30
0.0
 10
1524.486671400975
 20
-1165.478897617104
 30
0.0
 10
1484.841462628445
 20
-1166.042797290447
 30
0.0
  0
HATCH
  5
48
330
41
100
AcDbEntity
  8
katman 1
 62
   114
420
    37445
100
AcDbHatch
 10
0.0
 20
0.0
 30
0.0
210
0.0
220
0.0
230
1.0
  2
SOLID
 70
     1
 71
     0
 91
        1
 92
        1
 93
        1
 72
     4
 94
        3
 73
     0
 74
     1
 95
      131
 96
      127
 40
0.0
 40
0.0
 40
0.0
 40
0.0
 40
1.0
 40
1.0
 40
1.0
 40
2.0
 40
2.0
 40
2.0
 40
3.0
 40
3.0
 40
3.0
 40
4.0
 40
4.0
 40
4.0
 40
5.0
 40
5.0
 40
5.0
 40
6.0
 40
6.0
 40
6.0
 40
7.0
 40
7.0
 40
7.0
 40
8.0
 40
8.0
 40
8.0
 40
9.0
 40
9.0
 40
9.0
 40
10.0
 40
10.0
 40
10.0
 40
11.0
 40
11.0
 40
11.0
 40
12.0
 40
12.0
 40
12.0
 40
13.0
 40
13.0
 40
13.0
 40
14.0
 40
14.0
 40
14.0
 40
15.0
 40
15.0
 40
15.0
 40
16.0
 40
16.0
 40
16.0
 40
17.0
 40
17.0
 40
17.0
 40
18.0
 40
18.0
 40
18.0
 40
19.0
 40
19.0
 40
19.0
 40
20.0
 40
20.0
 40
20.0
 40
21.0
 40
21.0
 40
21.0
 40
22.0
 40
22.0
 40
22.0
 40
23.0
 40
23.0
 40
23.0
 40
24.0
 40
24.0
 40
24.0
 40
25.0
 40
25.0
 40
25.0
 40
26.0
 40
26.0
 40
26.0
 40
27.0
 40
27.0
 40
27.0
 40
28.0
 40
28.0
 40
28.0
 40
29.0
 40
29.0
 40
29.0
 40
30.0
 40
30.0
 40
30.0
 40
31.0
 40
31.0
 40
31.0
 40
32.0
 40
32.0
 40
32.0
 40
33.0
 40
33.0
 40
33.0
 40
34.0
 40
34.0
 40
34.0
 40
35.0
 40
35.0
 40
35.0
 40
36.0
 40
36.0
 40
36.0
 40
37.0
 40
37.0
 40
37.0
 40
38.0
 40
38.0
 40
38.0
 40
39.0
 40
39.0
 40
39.0
 40
40.0
 40
40.0
 40
40.0
 40
41.0
 40
41.0
 40
41.0
 40
42.0
 40
42.0
 40
42.0
 40
42.0
 10
1484.841462628445
 20
-1166.042797290447
 10
1451.696791199933
 20
-1166.042797290447
 10
1418.552024166847
 20
-1166.042797290447
 10
1385.407352738335
 20
-1166.027142041601
 10
1382.274582086678
 20
-1166.027142041601
 10
1379.126132285033
 20
-1166.089786938132
 10
1376.024719933355
 20
-1165.72952500551
 10
1366.939704164466
 20
-1164.711384104179
 10
1359.186077680703
 20
-1161.312306914126
 10
1355.959327733679
 20
-1151.97666375683
 10
1352.591561041319
 20
-1142.233745118088
 10
1353.312132708847
 20
-1132.882422810802
 10
1360.689842011145
 20
-1124.940861637448
 10
1367.253000350547
 20
-1117.876472422373
 10
1373.753537694563
 20
-1110.890383352677
 10
1379.361128325736
 20
-1102.917487780485
 10
1387.349655245631
 20
-1091.561194168231
 10
1390.936738828703
 20
-1079.124090856973
 10
1391.954831927747
 20
-1065.668846644383
 10
1395.635799201615
 20
-1017.518153124012
 10
1395.776815946952
 20
-969.2265026111618
 10
1397.37455957276
 20
-920.9818297954262
 10
1397.969793644941
 20
-903.0310553955023
 10
1400.225392338316
 20
-885.0489465967439
 10
1397.170921832036
 20
-867.0825109726884
 10
1394.977944134047
 20
-854.206821682289
 10
1390.4198049019
 20
-843.6180595088163
 10
1377.559746959205
 20
-837.1488864400653
 10
1365.811857015493
 20
-831.2436130446595
 10
1364.214113389684
 20
-813.1831921499515
 10
1373.252187313177
 20
-801.3569811473626
 10
1382.446861527422
 20
-789.3114771552046
 10
1396.168412278408
 20
-785.5208260410154
 10
1409.905642179385
 20
-782.1687609059672
 10
1423.439234339639
 20
-778.87935187111
 10
1437.348743681359
 20
-777.81420974498
 10
1451.132915427732
 20
-779.051654092631
 10
1489.822652096604
 20
-782.5290295607847
 10
1528.293071874761
 20
-778.8480241944708
 10
1566.841791798295
 20
-776.7177399422089
 10
1575.691907131055
 20
-776.232160580832
 10
1584.588964309209
 20
-776.232160580832
 10
1593.438984037395
 20
-775.7309171944062
 10
1606.784617606914
 20
-774.9790522081321
 10
1616.872142929431
 20
-780.7903416399804
 10
1623.732918304924
 20
-791.6453924259922
 10
1637.689369492042
 20
-813.7470888356529
 10
1642.02828743805
 20
-838.1200436689996
 10
1637.611069346665
 20
-863.6834576837782
 10
1635.621729389399
 20
-875.2120486626336
 10
1629.418904686047
 20
-884.9079776536928
 10
1616.981801374788
 20
-887.8684449634629
 10
1604.356739472794
 20
-890.8759019209156
 10
1593.908976118802
 20
-886.0201098009629
 10
1587.267517634022
 20
-875.4156864033575
 10
1567.327463029693
 20
-843.6180654841019
 10
1536.594990585309
 20
-838.0730599966018
 10
1502.745331034686
 20
-839.1851981191567
 10
1498.688350974779
 20
-839.3261730374925
 10
1496.57376902674
 20
-841.4251296131142
 10
1494.960441855515
 20
-844.6048899124544
 10
1489.446734915136
 20
-855.381622627232
 10
1491.389037422432
 20
-869.197140723014
 10
1499.847556423734
 20
-878.1255382752915
 10
1511.423166926701
 20
-890.3433485969799
 10
1526.350769367466
 20
-894.0713413702451
 10
1542.468935557165
 20
-894.4316152534375
 10
1547.293429129997
 20
-894.5412617482225
 10
1550.488820777038
 20
-891.1265412598941
 10
1553.793870869438
 20
-888.1504067507067
 10
1557.145958411809
 20
-885.1272825938349
 10
1560.826925685677
 20
-882.0101791415973
 10
1565.620060958528
 20
-883.9994832471475
 10
1570.507175526745
 20
-886.0201217515341
 10
1570.663775817498
 20
-890.8445914232225
 10
1570.648192272081
 20
-895.3714440588201
 10
1570.616833972103
 20
-908.513415986472
 10
1568.737248064766
 20
-921.357782828607
 10
1564.38265096877
 20
-933.7948741892942
 10
1562.565686056822
 20
-939.0109401924401
 10
1560.137712318128
 20
-943.898054760657
 10
1555.892869272062
 20
-947.6417266839126
 10
1550.238241190918
 20
-952.6384996974884
 10
1543.957020737616
 20
-952.7168117934361
 10
1538.286713506484
 20
-947.7826956269637
 10
1534.887684118718
 20
-944.8378955166118
 10
1532.553785279964
 20
-941.0472339456737
 10
1530.21979083664
 20
-937.2722515247242
 10
1526.241206526682
 20
-930.8813965272075
 10
1520.539540995571
 20
-927.137736554525
 10
1513.052173247916
 20
-926.370211091029
 10
1503.982836629017
 20
-925.4303822856455
 10
1498.798105024709
 20
-928.9077596210755
 10
1495.900234809184
 20
-937.6168582084974
 10
1485.938047082012
 20
-967.62879483707
 10
1502.619993439339
 20
-1001.227779196999
 10
1532.616310670779
 20
-1010.735725696182
 10
1546.933095493947
 20
-1015.278233580628
 10
1561.64147664857
 20
-1017.016922248342
 10
1576.631700084721
 20
-1013.978154793196
 10
1580.500625949322
 20
-1013.194962130281
 10
1584.401005718475
 20
-1013.304620575638
 10
1588.316969033047
 20
-1013.805851451309
 10
1598.952690977774
 20
-1015.168599036413
 10
1607.144951242964
 20
-1011.14300117763
 10
1613.144138205595
 20
-1002.371233792535
 10
1613.880293418539
 20
-1001.29042409353
 10
1614.694844381433
 20
-1000.272283192198
 10
1615.478037044346
 20
-999.2384631408786
 10
1625.173966035407
 20
-986.4254187470087
 10
1633.50714744136
 20
-987.1773009122298
 10
1641.151115479768
 20
-1001.556706730784
 10
1643.375355873164
 20
-1005.738952682608
 10
1645.349016680439
 20
-1010.187481271685
 10
1645.536975271172
 20
-1014.855326751476
 10
1646.80574356091
 20
-1047.404811910095
 10
1650.847044470827
 20
-1079.938641819866
 10
1646.132209343352
 20
-1112.519437476178
 10
1644.706840762861
 20
-1122.371990659136
 10
1642.059645738029
 20
-1131.895616308308
 10
1637.877328082775
 20
-1140.965000729493
 10
1631.157569452618
 20
-1155.516709889935
 10
1620.208455717238
 20
-1163.176333177187
 10
1603.824126396001
 20
-1164.319811673866
 10
1564.178822018899
 20
-1167.092272590615
 10
1524.486671400975
 20
-1165.478897617104
 10
1484.841462628445
 20
-1166.042797290447
 97
        0
 97
        0
 75
     2
 76
     1
 98
        0
  0
SPLINE
  5
49
330
41
100
AcDbEntity
  8
katman 1
370
     0
100
AcDbSpline
210
0.0
220
0.0
230
1.0
 70
    11
 71
     3
 72
    29
 73
    25
 74
     0
 42
0.0000000001
 43
0.0000000001
 12
1.0
 22
0.0
 32
0.0
 13
1.0
 23
0.0
 33
0.0
 40
0.0
 40
0.0
 40
0.0
 40
0.0
 40
1.0
 40
1.0
 40
1.0
 40
2.0
 40
2.0
 40
2.0
 40
3.0
 40
3.0
 40
3.0
 40
4.0
 40
4.0
 40
4.0
 40
5.0
 40
5.0
 40
5.0
 40
6.0
 40
6.0
 40
6.0
 40
7.0
 40
7.0
 40
7.0
 40
8.0
 40
8.0
 40
8.0
 40
8.0
 10
734.6838365986459
 20
-985.1879609549651
 30
0.0
 10
735.5140189092435
 20
-927.5449761842574
 30
0.0
 10
750.1597312661943
 20
-874.4915128468219
 30
0.0
 10
786.1395802114166
 20
-828.3301353825727
 30
0.0
 10
822.8713352230025
 20
-781.2289201500134
 30
0.0
 10
885.7930069922404
 20
-761.6804312538006
 30
0.0
 10
937.8753190760281
 20
-781.7458271880314
 30
0.0
 10
967.6053297690705
 20
-793.1961030832954
 30
0.0
 10
987.7177116164303
 20
-815.3761190580108
 30
0.0
 10
1003.115258336315
 20
-842.2239655743033
 30
0.0
 10
1033.487492749222
 20
-895.1364599686885
 30
0.0
 10
1045.078734599892
 20
-952.8890912341794
 30
0.0
 10
1046.457161334987
 20
-1013.257583125669
 30
0.0
 10
1047.005405759484
 20
-1037.285928287598
 30
0.0
 10
1045.110092899873
 20
-1060.907021869225
 30
0.0
 10
1034.098358169105
 20
-1082.632778690097
 30
0.0
 10
1006.796273412469
 20
-1136.51642433813
 30
0.0
 10
962.1229333263855
 20
-1165.243949378688
 30
0.0
 10
902.4436428518738
 20
-1170.021429402692
 30
0.0
 10
809.2907056127797
 20
-1177.477438850365
 30
0.0
 10
759.9182573514972
 20
-1113.130302896063
 30
0.0
 10
742.4060569801441
 20
-1049.48808336044
 30
0.0
 10
736.6104838570955
 20
-1028.435860757127
 30
0.0
 10
734.6838365986459
 20
-1006.929373024683
 30
0.0
 10
734.6838365986459
 20
-985.1879609549651
 30
0.0
  0
HATCH
  5
4A
330
41
100
AcDbEntity
  8
katman 1
 62
   114
420
    37445
100
AcDbHatch
 10
0.0
 20
0.0
 30
0.0
210
0.0
220
0.0
230
1.0
  2
SOLID
 70
     1
 71
     0
 91
        1
 92
        1
 93
        1
 72
     4
 94
        3
 73
     0
 74
     1
 95
       29
 96
       25
 40
0.0
 40
0.0
 40
0.0
 40
0.0
 40
1.0
 40
1.0
 40
1.0
 40
2.0
 40
2.0
 40
2.0
 40
3.0
 40
3.0
 40
3.0
 40
4.0
 40
4.0
 40
4.0
 40
5.0
 40
5.0
 40
5.0
 40
6.0
 40
6.0
 40
6.0
 40
7.0
 40
7.0
 40
7.0
 40
8.0
 40
8.0
 40
8.0
 40
8.0
 10
734.6838365986459
 20
-985.1879609549651
 10
735.5140189092435
 20
-927.5449761842574
 10
750.1597312661943
 20
-874.4915128468219
 10
786.1395802114166
 20
-828.3301353825727
 10
822.8713352230025
 20
-781.2289201500134
 10
885.7930069922404
 20
-761.6804312538006
 10
937.8753190760281
 20
-781.7458271880314
 10
967.6053297690705
 20
-793.1961030832954
 10
987.7177116164303
 20
-815.3761190580108
 10
1003.115258336315
 20
-842.2239655743033
 10
1033.487492749222
 20
-895.1364599686885
 10
1045.078734599892
 20
-952.8890912341794
 10
1046.457161334987
 20
-1013.257583125669
 10
1047.005405759484
 20
-1037.285928287598
 10
1045.110092899873
 20
-1060.907021869225
 10
1034.098358169105
 20
-1082.632778690097
 10
1006.796273412469
 20
-1136.51642433813
 10
962.1229333263855
 20
-1165.243949378688
 10
902.4436428518738
 20
-1170.021429402692
 10
809.2907056127797
 20
-1177.477438850365
 10
759.9182573514972
 20
-1113.130302896063
 10
742.4060569801441
 20
-1049.48808336044
 10
736.6104838570955
 20
-1028.435860757127
 10
734.6838365986459
 20
-1006.929373024683
 10
734.6838365986459
 20
-985.1879609549651
 97
        0
 97
        0
 75
     2
 76
     1
 98
        0
  0
SPLINE
  5
4B
330
41
100
AcDbEntity
  8
katman 1
370
     0
100
AcDbSpline
210
0.0
220
0.0
230
1.0
 70
    11
 71
     3
 72
    65
 73
    61
 74
     0
 42
0.0000000001
 43
0.0000000001
 12
1.0
 22
0.0
 32
0.0
 13
1.0
 23
0.0
 33
0.0
 40
0.0
 40
0.0
 40
0.0
 40
0.0
 40
1.0
 40
1.0
 40
1.0
 40
2.0
 40
2.0
 40
2.0
 40
3.0
 40
3.0
 40
3.0
 40
4.0
 40
4.0
 40
4.0
 40
5.0
 40
5.0
 40
5.0
 40
6.0
 40
6.0
 40
6.0
 40
7.0
 40
7.0
 40
7.0
 40
8.0
 40
8.0
 40
8.0
 40
9.0
 40
9.0
 40
9.0
 40
10.0
 40
10.0
 40
10.0
 40
11.0
 40
11.0
 40
11.0
 40
12.0
 40
12.0
 40
12.0
 40
13.0
 40
13.0
 40
13.0
 40
14.0
 40
14.0
 40
14.0
 40
15.0
 40
15.0
 40
15.0
 40
16.0
 40
16.0
 40
16.0
 40
17.0
 40
17.0
 40
17.0
 40
18.0
 40
18.0
 40
18.0
 40
19.0
 40
19.0
 40
19.0
 40
20.0
 40
20.0
 40
20.0
 40
20.0
 10
1219.464391891339
 20
-775.6682521312869
 30
0.0
 10
1248.395482969192
 20
-775.511613561358
 30
0.0
 10
1271.17078679366
 20
-777.6262336018444
 30
0.0
 10
1293.068823055275
 20
-785.5051521194009
 30
0.0
 10
1326.354511229125
 20
-797.4880000113681
 30
0.0
 10
1346.905479055624
 20
-820.4198817192691
 30
0.0
 10
1352.011910514557
 20
-855.8358578799334
 30
0.0
 10
1354.894101580092
 20
-875.8542604319264
 30
0.0
 10
1354.173529912565
 20
-895.8726629839193
 30
0.0
 10
1348.910498162879
 20
-915.5777932509754
 30
0.0
 10
1341.39186771982
 20
-943.7257394681983
 30
0.0
 10
1322.61092295987
 20
-959.4522495735837
 30
0.0
 10
1294.666566681084
 20
-965.6394668303765
 30
0.0
 10
1278.579758791364
 20
-969.1951562617542
 30
0.0
 10
1262.148392020159
 20
-970.150652266555
 30
0.0
 10
1245.983283985062
 20
-973.0797971280608
 30
0.0
 10
1218.524503333099
 20
-978.0609029422176
 30
0.0
 10
1218.367903042345
 20
-977.9982580456872
 30
0.0
 10
1223.208075765167
 20
-1005.002725766233
 30
0.0
 10
1226.372204716803
 20
-1022.702884728322
 30
0.0
 10
1230.03749284068
 20
-1040.293385245051
 30
0.0
 10
1234.987324008858
 20
-1057.617603124529
 30
0.0
 10
1237.697140029079
 20
-1067.094239126018
 30
0.0
 10
1241.675819943608
 20
-1075.725013666919
 30
0.0
 10
1249.272750532045
 20
-1082.241182358639
 30
0.0
 10
1260.566423148914
 20
-1091.937111349698
 30
0.0
 10
1263.68351465058
 20
-1104.013928827193
 30
0.0
 10
1262.367708910871
 20
-1118.659641184146
 30
0.0
 10
1259.877114176792
 20
-1146.290677375708
 30
0.0
 10
1250.933115153241
 20
-1156.143230558664
 30
0.0
 10
1223.912968282704
 20
-1161.719582395574
 30
0.0
 10
1182.231477707513
 20
-1170.334701687629
 30
0.0
 10
1140.816245868433
 20
-1167.483868922072
 30
0.0
 10
1099.651593615472
 20
-1159.479662852187
 30
0.0
 10
1070.892781978364
 20
-1153.887655766432
 30
0.0
 10
1060.397981174401
 20
-1138.834691829177
 30
0.0
 10
1061.369132428048
 20
-1109.48064611989
 30
0.0
 10
1061.557091018782
 20
-1103.825994137604
 30
0.0
 10
1063.593420623731
 20
-1098.750897077509
 30
0.0
 10
1067.697342529034
 20
-1095.665116073535
 30
0.0
 10
1087.02653171348
 20
-1081.191707058471
 30
0.0
 10
1091.349770509498
 20
-1059.606919180651
 30
0.0
 10
1095.751309450892
 20
-1038.100455349349
 30
0.0
 10
1103.849542618431
 20
-998.4865570745133
 30
0.0
 10
1109.175243165788
 20
-958.402762322843
 30
0.0
 10
1112.887568739636
 20
-918.1936538769714
 30
0.0
 10
1114.500943713148
 20
-900.6501430079243
 30
0.0
 10
1114.594923008513
 20
-882.7306910562656
 30
0.0
 10
1111.979086283662
 20
-865.0931889412805
 30
0.0
 10
1110.35003216016
 20
-854.1128244610645
 30
0.0
 10
1105.760534628032
 20
-845.0904476134201
 30
0.0
 10
1095.218744176385
 20
-839.3261491363501
 30
0.0
 10
1079.539211768113
 20
-830.7580194919774
 30
0.0
 10
1077.158323281677
 20
-811.3974988963382
 30
0.0
 10
1089.924354126721
 20
-798.5061483818072
 30
0.0
 10
1101.750544215807
 20
-786.5546281664792
 30
0.0
 10
1117.336097328713
 20
-782.0904308841618
 30
0.0
 10
1133.219219675422
 20
-780.7433385479035
 30
0.0
 10
1163.842081476736
 20
-778.190132528277
 30
0.0
 10
1194.590185268822
 20
-777.0779988871864
 30
0.0
 10
1219.464391891339
 20
-775.6682521312869
 30
0.0
  0
HATCH
  5
4C
330
41
100
AcDbEntity
  8
katman 1
 62
   114
420
    37445
100
AcDbHatch
 10
0.0
 20
0.0
 30
0.0
210
0.0
220
0.0
230
1.0
  2
SOLID
 70
     1
 71
     0
 91
        1
 92
        1
 93
        1
 72
     4
 94
        3
 73
     0
 74
     1
 95
       65
 96
       61
 40
0.0
 40
0.0
 40
0.0
 40
0.0
 40
1.0
 40
1.0
 40
1.0
 40
2.0
 40
2.0
 40
2.0
 40
3.0
 40
3.0
 40
3.0
 40
4.0
 40
4.0
 40
4.0
 40
5.0
 40
5.0
 40
5.0
 40
6.0
 40
6.0
 40
6.0
 40
7.0
 40
7.0
 40
7.0
 40
8.0
 40
8.0
 40
8.0
 40
9.0
 40
9.0
 40
9.0
 40
10.0
 40
10.0
 40
10.0
 40
11.0
 40
11.0
 40
11.0
 40
12.0
 40
12.0
 40
12.0
 40
13.0
 40
13.0
 40
13.0
 40
14.0
 40
14.0
 40
14.0
 40
15.0
 40
15.0
 40
15.0
 40
16.0
 40
16.0
 40
16.0
 40
17.0
 40
17.0
 40
17.0
 40
18.0
 40
18.0
 40
18.0
 40
19.0
 40
19.0
 40
19.0
 40
20.0
 40
20.0
 40
20.0
 40
20.0
 10
1219.464391891339
 20
-775.6682521312869
 10
1248.395482969192
 20
-775.511613561358
 10
1271.17078679366
 20
-777.6262336018444
 10
1293.068823055275
 20
-785.5051521194009
 10
1326.354511229125
 20
-797.4880000113681
 10
1346.905479055624
 20
-820.4198817192691
 10
1352.011910514557
 20
-855.8358578799334
 10
1354.894101580092
 20
-875.8542604319264
 10
1354.173529912565
 20
-895.8726629839193
 10
1348.910498162879
 20
-915.5777932509754
 10
1341.39186771982
 20
-943.7257394681983
 10
1322.61092295987
 20
-959.4522495735837
 10
1294.666566681084
 20
-965.6394668303765
 10
1278.579758791364
 20
-969.1951562617542
 10
1262.148392020159
 20
-970.150652266555
 10
1245.983283985062
 20
-973.0797971280608
 10
1218.524503333099
 20
-978.0609029422176
 10
1218.367903042345
 20
-977.9982580456872
 10
1223.208075765167
 20
-1005.002725766233
 10
1226.372204716803
 20
-1022.702884728322
 10
1230.03749284068
 20
-1040.293385245051
 10
1234.987324008858
 20
-1057.617603124529
 10
1237.697140029079
 20
-1067.094239126018
 10
1241.675819943608
 20
-1075.725013666919
 10
1249.272750532045
 20
-1082.241182358639
 10
1260.566423148914
 20
-1091.937111349698
 10
1263.68351465058
 20
-1104.013928827193
 10
1262.367708910871
 20
-1118.659641184146
 10
1259.877114176792
 20
-1146.290677375708
 10
1250.933115153241
 20
-1156.143230558664
 10
1223.912968282704
 20
-1161.719582395574
 10
1182.231477707513
 20
-1170.334701687629
 10
1140.816245868433
 20
-1167.483868922072
 10
1099.651593615472
 20
-1159.479662852187
 10
1070.892781978364
 20
-1153.887655766432
 10
1060.397981174401
 20
-1138.834691829177
 10
1061.369132428048
 20
-1109.48064611989
 10
1061.557091018782
 20
-1103.825994137604
 10
1063.593420623731
 20
-1098.750897077509
 10
1067.697342529034
 20
-1095.665116073535
 10
1087.02653171348
 20
-1081.191707058471
 10
1091.349770509498
 20
-1059.606919180651
 10
1095.751309450892
 20
-1038.100455349349
 10
1103.849542618431
 20
-998.4865570745133
 10
1109.175243165788
 20
-958.402762322843
 10
1112.887568739636
 20
-918.1936538769714
 10
1114.500943713148
 20
-900.6501430079243
 10
1114.594923008513
 20
-882.7306910562656
 10
1111.979086283662
 20
-865.0931889412805
 10
1110.35003216016
 20
-854.1128244610645
 10
1105.760534628032
 20
-845.0904476134201
 10
1095.218744176385
 20
-839.3261491363501
 10
1079.539211768113
 20
-830.7580194919774
 10
1077.158323281677
 20
-811.3974988963382
 10
1089.924354126721
 20
-798.5061483818072
 10
1101.750544215807
 20
-786.5546281664792
 10
1117.336097328713
 20
-782.0904308841618
 10
1133.219219675422
 20
-780.7433385479035
 10
1163.842081476736
 20
-778.190132528277
 10
1194.590185268822
 20
-777.0779988871864
 10
1219.464391891339
 20
-775.6682521312869
 97
        0
 97
        0
 75
     2
 76
     1
 98
        0
  0
SPLINE
  5
4D
330
41
100
AcDbEntity
  8
katman 1
370
     0
100
AcDbSpline
210
0.0
220
0.0
230
1.0
 70
    11
 71
     3
 72
    35
 73
    31
 74
     0
 42
0.0000000001
 43
0.0000000001
 12
1.0
 22
0.0
 32
0.0
 13
1.0
 23
0.0
 33
0.0
 40
0.0
 40
0.0
 40
0.0
 40
0.0
 40
1.0
 40
1.0
 40
1.0
 40
2.0
 40
2.0
 40
2.0
 40
3.0
 40
3.0
 40
3.0
 40
4.0
 40
4.0
 40
4.0
 40
5.0
 40
5.0
 40
5.0
 40
6.0
 40
6.0
 40
6.0
 40
7.0
 40
7.0
 40
7.0
 40
8.0
 40
8.0
 40
8.0
 40
9.0
 40
9.0
 40
9.0
 40
10.0
 40
10.0
 40
10.0
 40
10.0
 10
606.0835917876939
 20
-933.2309506148067
 30
0.0
 10
606.4908433679975
 20
-953.8132528401438
 30
0.0
 10
603.7653481977886
 20
-973.8159881927204
 30
0.0
 10
594.4923499370225
 20
-992.471643159608
 30
0.0
 10
587.3339575254395
 20
-1006.882383376998
 30
0.0
 10
576.8861822208737
 20
-1016.969908699515
 30
0.0
 10
559.6716108361816
 20
-1017.47116347633
 30
0.0
 10
549.7877232543888
 20
-1017.75310136243
 30
0.0
 10
543.5378371999232
 20
-1013.727503503645
 30
0.0
 10
539.4652377428838
 20
-1004.564139787093
 30
0.0
 10
536.0348500551372
 20
-996.810537204472
 30
0.0
 10
534.9070507084498
 20
-988.54002459619
 30
0.0
 10
534.5781112240948
 20
-980.1755087913989
 30
0.0
 10
533.1370395924696
 20
-942.3942904302166
 30
0.0
 10
533.1213723930514
 20
-904.5817615713404
 30
0.0
 10
533.732261714078
 20
-866.800543210159
 30
0.0
 10
533.9202322553838
 20
-855.3659315266705
 30
0.0
 10
537.7422043240158
 20
-844.3385773987711
 30
0.0
 10
547.6730935040632
 20
-836.5223119937627
 30
0.0
 10
551.5263999715326
 20
-833.4835266127593
 30
0.0
 10
555.0350997552277
 20
-832.3870556896218
 30
0.0
 10
559.8125797792327
 20
-833.5305162604418
 30
0.0
 10
572.5002985283263
 20
-836.5379732178953
 30
0.0
 10
581.8359536361941
 20
-843.9156526437637
 30
0.0
 10
588.3834567267504
 20
-854.9116723728257
 30
0.0
 10
602.05799392891
 20
-877.8435525869045
 30
0.0
 10
605.331733523617
 20
-903.2973141316124
 30
0.0
 10
606.0679365388478
 20
-929.3149753496655
 30
0.0
 10
606.1149261865303
 20
-930.6307571882298
 30
0.0
 10
606.0835917876939
 20
-931.9308479262327
 30
0.0
 10
606.0835917876939
 20
-933.2309506148067
 30
0.0
  0
HATCH
  5
4E
330
41
100
AcDbEntity
  8
katman 1
 62
     7
420
 15658734
100
AcDbHatch
 10
0.0
 20
0.0
 30
0.0
210
0.0
220
0.0
230
1.0
  2
SOLID
 70
     1
 71
     0
 91
        1
 92
        1
 93
        1
 72
     4
 94
        3
 73
     0
 74
     1
 95
       35
 96
       31
 40
0.0
 40
0.0
 40
0.0
 40
0.0
 40
1.0
 40
1.0
 40
1.0
 40
2.0
 40
2.0
 40
2.0
 40
3.0
 40
3.0
 40
3.0
 40
4.0
 40
4.0
 40
4.0
 40
5.0
 40
5.0
 40
5.0
 40
6.0
 40
6.0
 40
6.0
 40
7.0
 40
7.0
 40
7.0
 40
8.0
 40
8.0
 40
8.0
 40
9.0
 40
9.0
 40
9.0
 40
10.0
 40
10.0
 40
10.0
 40
10.0
 10
606.0835917876939
 20
-933.2309506148067
 10
606.4908433679975
 20
-953.8132528401438
 10
603.7653481977886
 20
-973.8159881927204
 10
594.4923499370225
 20
-992.471643159608
 10
587.3339575254395
 20
-1006.882383376998
 10
576.8861822208737
 20
-1016.969908699515
 10
559.6716108361816
 20
-1017.47116347633
 10
549.7877232543888
 20
-1017.75310136243
 10
543.5378371999232
 20
-1013.727503503645
 10
539.4652377428838
 20
-1004.564139787093
 10
536.0348500551372
 20
-996.810537204472
 10
534.9070507084498
 20
-988.54002459619
 10
534.5781112240948
 20
-980.1755087913989
 10
533.1370395924696
 20
-942.3942904302166
 10
533.1213723930514
 20
-904.5817615713404
 10
533.732261714078
 20
-866.800543210159
 10
533.9202322553838
 20
-855.3659315266705
 10
537.7422043240158
 20
-844.3385773987711
 10
547.6730935040632
 20
-836.5223119937627
 10
551.5263999715326
 20
-833.4835266127593
 10
555.0350997552277
 20
-832.3870556896218
 10
559.8125797792327
 20
-833.5305162604418
 10
572.5002985283263
 20
-836.5379732178953
 10
581.8359536361941
 20
-843.9156526437637
 10
588.3834567267504
 20
-854.9116723728257
 10
602.05799392891
 20
-877.8435525869045
 10
605.331733523617
 20
-903.2973141316124
 10
606.0679365388478
 20
-929.3149753496655
 10
606.1149261865303
 20
-930.6307571882298
 10
606.0835917876939
 20
-931.9308479262327
 10
606.0835917876939
 20
-933.2309506148067
 97
        0
 97
        0
 75
     2
 76
     1
 98
        0
  0
SPLINE
  5
4F
330
41
100
AcDbEntity
  8
katman 1
370
     0
100
AcDbSpline
210
0.0
220
0.0
230
1.0
 70
    11
 71
     3
 72
   317
 73
   313
 74
     0
 42
0.0000000001
 43
0.0000000001
 12
1.0
 22
0.0
 32
0.0
 13
1.0
 23
0.0
 33
0.0
 40
0.0
 40
0.0
 40
0.0
 40
0.0
 40
1.0
 40
1.0
 40
1.0
 40
2.0
 40
2.0
 40
2.0
 40
3.0
 40
3.0
 40
3.0
 40
4.0
 40
4.0
 40
4.0
 40
5.0
 40
5.0
 40
5.0
 40
6.0
 40
6.0
 40
6.0
 40
7.0
 40
7.0
 40
7.0
 40
8.0
 40
8.0
 40
8.0
 40
9.0
 40
9.0
 40
9.0
 40
10.0
 40
10.0
 40
10.0
 40
11.0
 40
11.0
 40
11.0
 40
12.0
 40
12.0
 40
12.0
 40
13.0
 40
13.0
 40
13.0
 40
14.0
 40
14.0
 40
14.0
 40
15.0
 40
15.0
 40
15.0
 40
16.0
 40
16.0
 40
16.0
 40
17.0
 40
17.0
 40
17.0
 40
18.0
 40
18.0
 40
18.0
 40
19.0
 40
19.0
 40
19.0
 40
20.0
 40
20.0
 40
20.0
 40
21.0
 40
21.0
 40
21.0
 40
22.0
 40
22.0
 40
22.0
 40
23.0
 40
23.0
 40
23.0
 40
24.0
 40
24.0
 40
24.0
 40
25.0
 40
25.0
 40
25.0
 40
26.0
 40
26.0
 40
26.0
 40
27.0
 40
27.0
 40
27.0
 40
28.0
 40
28.0
 40
28.0
 40
29.0
 40
29.0
 40
29.0
 40
30.0
 40
30.0
 40
30.0
 40
31.0
 40
31.0
 40
31.0
 40
32.0
 40
32.0
 40
32.0
 40
33.0
 40
33.0
 40
33.0
 40
34.0
 40
34.0
 40
34.0
 40
35.0
 40
35.0
 40
35.0
 40
36.0
 40
36.0
 40
36.0
 40
37.0
 40
37.0
 40
37.0
 40
38.0
 40
38.0
 40
38.0
 40
39.0
 40
39.0
 40
39.0
 40
40.0
 40
40.0
 40
40.0
 40
41.0
 40
41.0
 40
41.0
 40
42.0
 40
42.0
 40
42.0
 40
43.0
 40
43.0
 40
43.0
 40
44.0
 40
44.0
 40
44.0
 40
45.0
 40
45.0
 40
45.0
 40
46.0
 40
46.0
 40
46.0
 40
47.0
 40
47.0
 40
47.0
 40
48.0
 40
48.0
 40
48.0
 40
49.0
 40
49.0
 40
49.0
 40
50.0
 40
50.0
 40
50.0
 40
51.0
 40
51.0
 40
51.0
 40
52.0
 40
52.0
 40
52.0
 40
53.0
 40
53.0
 40
53.0
 40
54.0
 40
54.0
 40
54.0
 40
55.0
 40
55.0
 40
55.0
 40
56.0
 40
56.0
 40
56.0
 40
57.0
 40
57.0
 40
57.0
 40
58.0
 40
58.0
 40
58.0
 40
59.0
 40
59.0
 40
59.0
 40
60.0
 40
60.0
 40
60.0
 40
61.0
 40
61.0
 40
61.0
 40
62.0
 40
62.0
 40
62.0
 40
63.0
 40
63.0
 40
63.0
 40
64.0
 40
64.0
 40
64.0
 40
65.0
 40
65.0
 40
65.0
 40
66.0
 40
66.0
 40
66.0
 40
67.0
 40
67.0
 40
67.0
 40
68.0
 40
68.0
 40
68.0
 40
69.0
 40
69.0
 40
69.0
 40
70.0
 40
70.0
 40
70.0
 40
71.0
 40
71.0
 40
71.0
 40
72.0
 40
72.0
 40
72.0
 40
73.0
 40
73.0
 40
73.0
 40
74.0
 40
74.0
 40
74.0
 40
75.0
 40
75.0
 40
75.0
 40
76.0
 40
76.0
 40
76.0
 40
77.0
 40
77.0
 40
77.0
 40
78.0
 40
78.0
 40
78.0
 40
79.0
 40
79.0
 40
79.0
 40
80.0
 40
80.0
 40
80.0
 40
81.0
 40
81.0
 40
81.0
 40
82.0
 40
82.0
 40
82.0
 40
83.0
 40
83.0
 40
83.0
 40
84.0
 40
84.0
 40
84.0
 40
85.0
 40
85.0
 40
85.0
 40
86.0
 40
86.0
 40
86.0
 40
87.0
 40
87.0
 40
87.0
 40
88.0
 40
88.0
 40
88.0
 40
89.0
 40
89.0
 40
89.0
 40
90.0
 40
90.0
 40
90.0
 40
91.0
 40
91.0
 40
91.0
 40
92.0
 40
92.0
 40
92.0
 40
93.0
 40
93.0
 40
93.0
 40
94.0
 40
94.0
 40
94.0
 40
95.0
 40
95.0
 40
95.0
 40
96.0
 40
96.0
 40
96.0
 40
97.0
 40
97.0
 40
97.0
 40
98.0
 40
98.0
 40
98.0
 40
99.0
 40
99.0
 40
99.0
 40
100.0
 40
100.0
 40
100.0
 40
101.0
 40
101.0
 40
101.0
 40
102.0
 40
102.0
 40
102.0
 40
103.0
 40
103.0
 40
103.0
 40
104.0
 40
104.0
 40
104.0
 40
104.0
 10
916.2435415505242
 20
-942.942546805285
 30
0.0
 10
921.9608384293388
 20
-940.232694933351
 30
0.0
 10
923.4802341074846
 20
-942.0027179999015
 30
0.0
 10
921.7728798386061
 20
-946.7175411768058
 30
0.0
 10
920.8017285849583
 20
-949.3647362016382
 30
0.0
 10
919.4389809998538
 20
-951.964929628215
 30
0.0
 10
917.7629372286683
 20
-954.2518507698551
 30
0.0
 10
914.7711355200627
 20
-958.3557846257318
 30
0.0
 10
924.7959920449057
 20
-956.1785099788758
 30
0.0
 10
920.8017285849583
 20
-961.1596157930326
 30
0.0
 10
919.1256848137728
 20
-963.2429111445217
 30
0.0
 10
916.0868934574837
 20
-967.2685209538777
 30
0.0
 10
918.060554264759
 20
-969.2421698105809
 30
0.0
 10
919.9245566266773
 20
-971.1061721724982
 30
0.0
 10
921.7102110409323
 20
-972.5472438041252
 30
0.0
 10
920.2221736627671
 20
-974.5052254614111
 30
0.0
 10
914.7398250223687
 20
-981.7262627695236
 30
0.0
 10
919.0003950207129
 20
-991.4691814082671
 30
0.0
 10
912.9071331581436
 20
-998.6432290686971
 30
0.0
 10
917.2616824518545
 20
-998.4709257268114
 30
0.0
 10
919.9245566266773
 20
-997.3744607789595
 30
0.0
 10
920.6763909896117
 20
-993.1608804282987
 30
0.0
 10
921.1306561187421
 20
-990.6076646988331
 30
0.0
 10
932.3772912856393
 20
-980.9587492566006
 30
0.0
 10
935.040165460462
 20
-980.2695358890523
 30
0.0
 10
937.2957641538378
 20
-979.6899809668612
 30
0.0
 10
936.2306336048232
 20
-977.293413330437
 30
0.0
 10
937.3897434492046
 20
-976.2595932791155
 30
0.0
 10
939.4260252518661
 20
-974.4425805648807
 30
0.0
 10
938.0319671690686
 20
-967.0962415131326
 30
0.0
 10
944.4697879131245
 20
-972.0303576796086
 30
0.0
 10
945.9735044412791
 20
-973.1738242257143
 30
0.0
 10
945.8168563482395
 20
-969.9783967269541
 30
0.0
 10
946.9133451972339
 20
-969.1795368646217
 30
0.0
 10
949.7171883151059
 20
-967.1745655596533
 30
0.0
 10
948.1351238392881
 20
-958.4967894204965
 30
0.0
 10
955.6381229346453
 20
-963.3839159392865
 30
0.0
 10
955.7164230800227
 20
-963.4465727863881
 30
0.0
 10
956.8755807266898
 20
-961.1283172459116
 30
0.0
 10
957.8780424780307
 20
-960.6584088185045
 30
0.0
 10
960.3215997621401
 20
-959.5149422723989
 30
0.0
 10
960.6975169436073
 20
-951.0564710733852
 30
0.0
 10
965.6942899571823
 20
-958.2618411820804
 30
0.0
 10
965.8039484025394
 20
-958.4341445239661
 30
0.0
 10
966.9630582469199
 20
-958.2148515343961
 30
0.0
 10
967.0100478946033
 20
-958.0425481925104
 30
0.0
 10
969.1559881426219
 20
-948.4719328956526
 30
0.0
 10
980.1206854234197
 20
-952.8264821893645
 30
0.0
 10
984.5535826647938
 20
-946.905547569826
 30
0.0
 10
986.9971399489032
 20
-943.647463223966
 30
0.0
 10
991.17940980187
 20
-944.8379194177542
 30
0.0
 10
994.1712115104765
 20
-944.2113628973093
 30
0.0
 10
1004.932271050551
 20
-941.9714314033517
 30
0.0
 10
1013.234141958812
 20
-934.7973837429217
 30
0.0
 10
1024.15180178964
 20
-930.677794638199
 30
0.0
 10
1023.384288276715
 20
-935.5022643098873
 30
0.0
 10
1020.987720640289
 20
-938.5097212673409
 30
0.0
 10
1018.575473853874
 20
-941.2822180358053
 30
0.0
 10
1012.294253400571
 20
-948.4875881445005
 30
0.0
 10
1009.130172251222
 20
-957.0870521877077
 30
0.0
 10
1006.467298076399
 20
-966.0311109641189
 30
0.0
 10
1005.919053651902
 20
-967.8637789272016
 30
0.0
 10
1003.56947566316
 20
-969.0855575692549
 30
0.0
 10
1002.645314057194
 20
-970.8869030840724
 30
0.0
 10
1001.689841953537
 20
-972.7352382465742
 30
0.0
 10
995.7845386817016
 20
-973.0171880832459
 30
0.0
 10
1000.890970140633
 20
-977.4813958223131
 30
0.0
 10
1002.394686668787
 20
-978.797153759735
 30
0.0
 10
996.8653483807057
 20
-981.7733002194946
 30
0.0
 10
994.4217910965963
 20
-983.8879060686759
 30
0.0
 10
993.3253022476019
 20
-984.8434020734767
 30
0.0
 10
987.9056224048772
 20
-984.6867539804371
 30
0.0
 10
993.3879710452757
 20
-988.3051241600606
 30
0.0
 10
996.035166070109
 20
-990.0438128277747
 30
0.0
 10
991.1480515018902
 20
-991.1872674233091
 30
0.0
 10
990.1455419482627
 20
-992.9103008421789
 30
0.0
 10
988.9237633062085
 20
-994.993596193668
 30
0.0
 10
981.7183812469411
 20
-993.2392522771061
 30
0.0
 10
986.1982681359987
 20
-999.426469533897
 30
0.0
 10
986.9971399489032
 20
-1000.522934481749
 30
0.0
 10
981.5774123038909
 20
-1001.948350864528
 30
0.0
 10
979.6037992989022
 20
-1003.796674076455
 30
0.0
 10
978.6326480452544
 20
-1004.705180433573
 30
0.0
 10
971.1139697999079
 20
-1002.935157367021
 30
0.0
 10
977.1445628648034
 20
-1008.088578473637
 30
0.0
 10
978.2253725638075
 20
-1009.012740079601
 30
0.0
 10
976.6902977356731
 20
-1010.422501213532
 30
0.0
 10
976.0480740158091
 20
-1010.438156462378
 30
0.0
 10
968.8426919565418
 20
-1010.532135757745
 30
0.0
 10
965.1146872327045
 20
-1017.032649200619
 30
0.0
 10
961.1204237727579
 20
-1020.791964422149
 30
0.0
 10
956.6092263860064
 20
-1025.036879171646
 30
0.0
 10
950.3123745850007
 20
-1026.493606052118
 30
0.0
 10
946.7566493019076
 20
-1031.568703112212
 30
0.0
 10
944.8456572923051
 20
-1034.309877432412
 30
0.0
 10
941.1333317184581
 20
-1033.714643360232
 30
0.0
 10
937.0920308085406
 20
-1036.753434716522
 30
0.0
 10
964.895370341992
 20
-1032.085613137873
 30
0.0
 10
986.6524376605557
 20
-1045.760150340033
 30
0.0
 10
1010.743451620159
 20
-1053.513752922654
 30
0.0
 10
976.2986536019289
 20
-1063.538609447498
 30
0.0
 10
968.4197373251045
 20
-1073.046579847824
 30
0.0
 10
925.2971512171462
 20
-1067.141300477131
 30
0.0
 10
938.4547783936459
 20
-1077.792725472991
 30
0.0
 10
943.5768890025674
 20
-1092.250455338066
 30
0.0
 10
951.0015401502615
 20
-1105.251458322668
 30
0.0
 10
925.1718614240863
 20
-1098.187069107595
 30
0.0
 10
903.8846905823557
 20
-1085.405359112563
 30
0.0
 10
892.9669829492414
 20
-1058.432201889709
 30
0.0
 10
889.035340484681
 20
-1066.640069601461
 30
0.0
 10
888.6281128055198
 20
-1074.659954821334
 30
0.0
 10
889.9281915929514
 20
-1082.758164087729
 30
0.0
 10
890.8680323489061
 20
-1088.663443458421
 30
0.0
 10
892.512717820111
 20
-1094.459064383758
 30
0.0
 10
893.8441549075224
 20
-1100.301674956776
 30
0.0
 10
894.3610410320398
 20
-1102.588608048989
 30
0.0
 10
895.4418507310438
 20
-1105.063475830792
 30
0.0
 10
891.4632664210858
 20
-1105.298447970352
 30
0.0
 10
888.2365164740631
 20
-1105.486406561085
 30
0.0
 10
886.4664934075117
 20
-1104.436931260918
 30
0.0
 10
886.842410588979
 20
-1100.881229878967
 30
0.0
 10
888.1424893764097
 20
-1088.694753956115
 30
0.0
 10
884.8217601340202
 20
-1076.461288385581
 30
0.0
 10
886.9833795320283
 20
-1063.820547333598
 30
0.0
 10
875.0161726976039
 20
-1087.09703423145
 30
0.0
 10
854.5748633164603
 20
-1098.594296786756
 30
0.0
 10
830.4055492114803
 20
-1105.345413716892
 30
0.0
 10
837.7049105661135
 20
-1093.362575534764
 30
0.0
 10
842.1847496528844
 20
-1079.766338477981
 30
0.0
 10
852.7578506022255
 20
-1069.92944054387
 30
0.0
 10
853.478374467466
 20
-1069.255906326312
 30
0.0
 10
855.7496523108312
 20
-1069.302895973997
 30
0.0
 10
854.4338943734101
 20
-1067.485883259762
 30
0.0
 10
854.0109875442595
 20
-1066.89064918758
 30
0.0
 10
852.3349437730749
 20
-1066.499052856123
 30
0.0
 10
851.724030550904
 20
-1066.859338689886
 30
0.0
 10
845.3018411545509
 20
-1070.649988310255
 30
0.0
 10
837.7048627638269
 20
-1069.318575123987
 30
0.0
 10
831.2357315220779
 20
-1069.459544067036
 30
0.0
 10
816.3237604290161
 20
-1069.819805999658
 30
0.0
 10
801.5527104767189
 20
-1065.574915151303
 30
0.0
 10
788.0348452687422
 20
-1058.917777516534
 30
0.0
 10
782.6151415248733
 20
-1056.239248092863
 30
0.0
 10
776.4122690192344
 20
-1057.116443952287
 30
0.0
 10
770.1467277159209
 20
-1052.887184451636
 30
0.0
 10
780.8138079606288
 20
-1051.226819830443
 30
0.0
 10
789.3036135584798
 20
-1046.590308749488
 30
0.0
 10
798.2320290366151
 20
-1043.034631268682
 30
0.0
 10
805.0144564644452
 20
-1040.340446596165
 30
0.0
 10
811.9848902852955
 20
-1038.476444234246
 30
0.0
 10
819.0336242515223
 20
-1036.753434716522
 30
0.0
 10
823.247204602183
 20
-1035.7196146652
 30
0.0
 10
827.6330643935871
 20
-1037.239010343344
 30
0.0
 10
831.7526654488811
 20
-1035.359352732579
 30
0.0
 10
833.1467713339662
 20
-1034.717129012715
 30
0.0
 10
834.4781606190909
 20
-1038.382464938879
 30
0.0
 10
836.3421629810091
 20
-1035.907597157076
 30
0.0
 10
838.4254344313549
 20
-1033.150767588031
 30
0.0
 10
834.2432123806739
 20
-1032.884484950777
 30
0.0
 10
834.3371916760407
 20
-1030.957813791185
 30
0.0
 10
834.4468501213978
 20
-1028.85886319085
 30
0.0
 10
833.1310921839759
 20
-1028.670880698974
 30
0.0
 10
831.517717210465
 20
-1028.122660175619
 30
0.0
 10
826.207648010809
 20
-1026.321326611374
 30
0.0
 10
820.1144339505263
 20
-1020.791988323292
 30
0.0
 10
814.8670335485449
 20
-1014.228829983889
 30
0.0
 10
813.9428719425805
 20
-1013.069696238364
 30
0.0
 10
811.1077183270145
 20
-1013.508282217505
 30
0.0
 10
810.0112294780201
 20
-1012.38050677196
 30
0.0
 10
808.350864856825
 20
-1010.673152503083
 30
0.0
 10
800.2056420416038
 20
-1012.944406445306
 30
0.0
 10
805.8916284227262
 20
-1006.302924059382
 30
0.0
 10
806.0795870134598
 20
-1006.067975820964
 30
0.0
 10
805.781969977369
 20
-1005.034155769643
 30
0.0
 10
805.750659479676
 20
-1005.049811018491
 30
0.0
 10
796.8222440015406
 20
-1005.504052246477
 30
0.0
 10
796.6656437107868
 20
-995.3538820274298
 30
0.0
 10
790.494081702841
 20
-992.3934147176606
 30
0.0
 10
788.6613898386158
 20
-991.5162427593805
 30
0.0
 10
785.0117330624425
 20
-990.2631297184889
 30
0.0
 10
789.2566239107964
 20
-987.1616934656686
 30
0.0
 10
791.5279017541616
 20
-985.5013288444752
 30
0.0
 10
788.6144001909324
 20
-985.1723774095481
 30
0.0
 10
787.8781971757016
 20
-984.2795502024201
 30
0.0
 10
785.4972847881227
 20
-981.4287174368637
 30
0.0
 10
777.5243892159315
 20
-981.8829825659941
 30
0.0
 10
782.1765555457332
 20
-974.7402693044005
 30
0.0
 10
782.3175244887834
 20
-974.5053210659844
 30
0.0
 10
781.0017665513615
 20
-973.2208736262564
 30
0.0
 10
780.2499082872846
 20
-972.5316602587081
 30
0.0
 10
774.3759633154286
 20
-967.1276356648286
 30
0.0
 10
772.684264295397
 20
-959.9222536055604
 30
0.0
 10
770.491334399695
 20
-952.5759145538159
 30
0.0
 10
769.0189283692334
 20
-947.6574655867607
 30
0.0
 10
764.3354515417386
 20
-943.7258350727716
 30
0.0
 10
761.2026808900828
 20
-939.2616392842756
 30
0.0
 10
759.5579715177337
 20
-936.927728494953
 30
0.0
 10
758.1638895337928
 20
-934.4215143637412
 30
0.0
 10
756.315566321864
 20
-931.4610351034007
 30
0.0
 10
760.4194882271686
 20
-930.7718217358524
 30
0.0
 10
763.1293520496747
 20
-933.0744100769116
 30
0.0
 10
765.6982230279864
 20
-934.6564626021591
 30
0.0
 10
774.5169800607655
 20
-940.0448319471907
 30
0.0
 10
783.6803198761745
 20
-944.2427450984324
 30
0.0
 10
794.1124757836078
 20
-945.2765531991827
 30
0.0
 10
795.4909025187026
 20
-945.417522142232
 30
0.0
 10
796.61870186539
 20
-947.2815245041511
 30
0.0
 10
798.0441182481682
 20
-947.6731208356068
 30
0.0
 10
800.5189860299706
 20
-948.3623342031551
 30
0.0
 10
801.6624645266484
 20
-955.6303611589519
 30
0.0
 10
805.9857033226663
 20
-949.2395061614352
 30
0.0
 10
806.5966165448363
 20
-948.346667003736
 30
0.0
 10
809.4943911557893
 20
-952.4349336601936
 30
0.0
 10
811.5777104084209
 20
-953.7506915976155
 30
0.0
 10
813.0657955888728
 20
-954.6905204029972
 30
0.0
 10
813.0188059411894
 20
-962.6320935269232
 30
0.0
 10
817.4986450279603
 20
-955.426723418228
 30
0.0
 10
818.3914961362316
 20
-953.9856517866046
 30
0.0
 10
821.038691161064
 20
-958.1992201866924
 30
0.0
 10
823.0279833160421
 20
-959.5619797223699
 30
0.0
 10
824.4533996988212
 20
-960.533142926588
 30
0.0
 10
823.7171966835904
 20
-967.1276237142574
 30
0.0
 10
828.3380525156972
 20
-961.6609303227051
 30
0.0
 10
829.387551717009
 20
-960.4234844812308
 30
0.0
 10
831.1105373335904
 20
-964.6527320313107
 30
0.0
 10
832.7865811047759
 20
-965.98415716815
 30
0.0
 10
834.7445627620609
 20
-967.5662096933975
 30
0.0
 10
833.3034672292924
 20
-975.241500180071
 30
0.0
 10
839.4280395895548
 20
-970.0097669775059
 30
0.0
 10
839.600319030299
 20
-969.8687980344566
 30
0.0
 10
841.1510730084237
 20
-970.6989803450542
 30
0.0
 10
841.2137418060975
 20
-971.1688887724595
 30
0.0
 10
842.0126136190011
 20
-978.2019674898402
 30
0.0
 10
848.685382601474
 20
-982.2745549963074
 30
0.0
 10
852.7266835113915
 20
-984.5614880885205
 30
0.0
 10
859.0705249600815
 20
-988.1328447193173
 30
0.0
 10
859.3525106484685
 20
-997.1552155916761
 30
0.0
 10
868.4218472673674
 20
-998.768590565187
 30
0.0
 10
862.2815957571147
 20
-991.2186018221473
 30
0.0
 10
865.2577661180167
 20
-982.6034825300922
 30
0.0
 10
861.8116992802807
 20
-974.9908727916645
 30
0.0
 10
860.0259970637389
 20
-971.0279198294083
 30
0.0
 10
863.2997844607316
 20
-964.1201548062327
 30
0.0
 10
860.1513346590855
 20
-958.7944542588739
 30
0.0
 10
867.8736028428702
 20
-954.6435307553147
 30
0.0
 10
859.9790552183422
 20
-951.2131550181402
 30
0.0
 10
859.4934317892312
 20
-947.5008174937211
 30
0.0
 10
858.9765456647146
 20
-943.5221973320477
 30
0.0
 10
857.7390878726701
 20
-939.7472149111
 30
0.0
 10
864.8348114865803
 20
-942.6136909749312
 30
0.0
 10
863.4250742537915
 20
-938.9796774970328
 30
0.0
 10
861.6707303372305
 20
-936.3638168710368
 30
0.0
 10
861.5923823895664
 20
-933.7166218462044
 30
0.0
 10
861.5297135918936
 20
-931.3043870103593
 30
0.0
 10
855.3268410862547
 20
-925.6810694269116
 30
0.0
 10
864.3492358597559
 20
-926.3546155950407
 30
0.0
 10
865.7119834448613
 20
-926.4485948904075
 30
0.0
 10
865.101118024977
 20
-924.9762008105172
 30
0.0
 10
864.8348114865803
 20
-924.0050376062973
 30
0.0
 10
864.1925877667163
 20
-921.7651061123415
 30
0.0
 10
863.4720639014758
 20
-919.4938521701188
 30
0.0
 10
863.2214365130685
 20
-917.2069190779057
 30
0.0
 10
862.7671713839381
 20
-913.0559955743465
 30
0.0
 10
862.5635336432151
 20
-908.7797703271572
 30
0.0
 10
869.0483918372411
 20
-913.3066229627548
 30
0.0
 10
868.3748576196831
 20
-909.2026891068781
 30
0.0
 10
867.2313791230063
 20
-905.8349702168052
 30
0.0
 10
867.5133170091058
 20
-902.5925411197913
 30
0.0
 10
867.6699651021463
 20
-900.7755284055565
 30
0.0
 10
863.8166705852491
 20
-894.3063613120921
 30
0.0
 10
871.5232596190435
 20
-897.2355061735971
 30
0.0
 10
873.3089618355853
 20
-897.9090523417253
 30
0.0
 10
872.7920279087812
 20
-895.4968175058821
 30
0.0
 10
872.7763487587908
 20
-894.4316750062953
 30
0.0
 10
872.682369463424
 20
-884.3754840826159
 30
0.0
 10
876.9272603117788
 20
-876.1832835702826
 30
0.0
 10
882.7855739359311
 20
-868.2730388699074
 30
0.0
 10
884.8845245362663
 20
-865.4378792790558
 30
0.0
 10
884.3676384117489
 20
-860.7387233015706
 30
0.0
 10
885.2604417177336
 20
-856.9324064817856
 30
0.0
 10
886.6075101528477
 20
-851.1211183570322
 30
0.0
 10
888.142584980983
 20
-845.341152680543
 30
0.0
 10
889.9126080475344
 20
-838.2767574901836
 30
0.0
 10
894.6430745227126
 20
-847.1424981953596
 30
0.0
 10
894.7997226157531
 20
-855.9299208293014
 30
0.0
 10
897.5408969359523
 20
-863.8401655296766
 30
0.0
 10
899.7025163339604
 20
-870.0587171853058
 30
0.0
 10
902.2713634111296
 20
-876.4338990081178
 30
0.0
 10
906.4693124140877
 20
-881.8066011537321
 30
0.0
 10
909.1478179366131
 20
-885.2369888414787
 30
0.0
 10
907.9573975945386
 20
-889.2782538996807
 30
0.0
 10
908.3803044236893
 20
-893.0689154706197
 30
0.0
 10
908.5369525167298
 20
-894.5099871022439
 30
0.0
 10
908.3333147760059
 20
-896.7342513967833
 30
0.0
 10
909.1478179366131
 20
-897.251161422444
 30
0.0
 10
914.6928353746853
 20
-900.8225180532409
 30
0.0
 10
914.6928353746853
 20
-900.6815491101897
 30
0.0
 10
913.2987294896011
 20
-907.8399295712024
 30
0.0
 10
912.954122805827
 20
-909.5786182389165
 30
0.0
 10
909.5707247657638
 20
-913.0716508231944
 30
0.0
 10
915.9302453644432
 20
-911.92819622766
 30
0.0
 10
919.5485916429234
 20
-911.2703172589481
 30
0.0
 10
917.0110550634481
 20
-916.2200886742685
 30
0.0
 10
917.8412373740448
 20
-918.460020168226
 30
0.0
 10
918.8123886276935
 20
-921.0288911465377
 30
0.0
 10
911.8733131068229
 20
-926.0883210072152
 30
0.0
 10
920.4257636012044
 20
-926.4799173386727
 30
0.0
 10
921.3812357048619
 20
-926.5269069863552
 30
0.0
 10
921.052308171078
 20
-929.8633153787359
 30
0.0
 10
920.4727532488878
 20
-931.5706696476136
 30
0.0
 10
919.3763122021801
 20
-934.9383168342574
 30
0.0
 10
918.0135646170756
 20
-938.3060357243303
 30
0.0
 10
916.2435415505242
 20
-942.942546805285
 30
0.0
  0
HATCH
  5
50
330
41
100
AcDbEntity
  8
katman 1
 62
     7
420
 15592941
100
AcDbHatch
 10
0.0
 20
0.0
 30
0.0
210
0.0
220
0.0
230
1.0
  2
SOLID
 70
     1
 71
     0
 91
        1
 92
        1
 93
        1
 72
     4
 94
        3
 73
     0
 74
     1
 95
      317
 96
      313
 40
0.0
 40
0.0
 40
0.0
 40
0.0
 40
1.0
 40
1.0
 40
1.0
 40
2.0
 40
2.0
 40
2.0
 40
3.0
 40
3.0
 40
3.0
 40
4.0
 40
4.0
 40
4.0
 40
5.0
 40
5.0
 40
5.0
 40
6.0
 40
6.0
 40
6.0
 40
7.0
 40
7.0
 40
7.0
 40
8.0
 40
8.0
 40
8.0
 40
9.0
 40
9.0
 40
9.0
 40
10.0
 40
10.0
 40
10.0
 40
11.0
 40
11.0
 40
11.0
 40
12.0
 40
12.0
 40
12.0
 40
13.0
 40
13.0
 40
13.0
 40
14.0
 40
14.0
 40
14.0
 40
15.0
 40
15.0
 40
15.0
 40
16.0
 40
16.0
 40
16.0
 40
17.0
 40
17.0
 40
17.0
 40
18.0
 40
18.0
 40
18.0
 40
19.0
 40
19.0
 40
19.0
 40
20.0
 40
20.0
 40
20.0
 40
21.0
 40
21.0
 40
21.0
 40
22.0
 40
22.0
 40
22.0
 40
23.0
 40
23.0
 40
23.0
 40
24.0
 40
24.0
 40
24.0
 40
25.0
 40
25.0
 40
25.0
 40
26.0
 40
26.0
 40
26.0
 40
27.0
 40
27.0
 40
27.0
 40
28.0
 40
28.0
 40
28.0
 40
29.0
 40
29.0
 40
29.0
 40
30.0
 40
30.0
 40
30.0
 40
31.0
 40
31.0
 40
31.0
 40
32.0
 40
32.0
 40
32.0
 40
33.0
 40
33.0
 40
33.0
 40
34.0
 40
34.0
 40
34.0
 40
35.0
 40
35.0
 40
35.0
 40
36.0
 40
36.0
 40
36.0
 40
37.0
 40
37.0
 40
37.0
 40
38.0
 40
38.0
 40
38.0
 40
39.0
 40
39.0
 40
39.0
 40
40.0
 40
40.0
 40
40.0
 40
41.0
 40
41.0
 40
41.0
 40
42.0
 40
42.0
 40
42.0
 40
43.0
 40
43.0
 40
43.0
 40
44.0
 40
44.0
 40
44.0
 40
45.0
 40
45.0
 40
45.0
 40
46.0
 40
46.0
 40
46.0
 40
47.0
 40
47.0
 40
47.0
 40
48.0
 40
48.0
 40
48.0
 40
49.0
 40
49.0
 40
49.0
 40
50.0
 40
50.0
 40
50.0
 40
51.0
 40
51.0
 40
51.0
 40
52.0
 40
52.0
 40
52.0
 40
53.0
 40
53.0
 40
53.0
 40
54.0
 40
54.0
 40
54.0
 40
55.0
 40
55.0
 40
55.0
 40
56.0
 40
56.0
 40
56.0
 40
57.0
 40
57.0
 40
57.0
 40
58.0
 40
58.0
 40
58.0
 40
59.0
 40
59.0
 40
59.0
 40
60.0
 40
60.0
 40
60.0
 40
61.0
 40
61.0
 40
61.0
 40
62.0
 40
62.0
 40
62.0
 40
63.0
 40
63.0
 40
63.0
 40
64.0
 40
64.0
 40
64.0
 40
65.0
 40
65.0
 40
65.0
 40
66.0
 40
66.0
 40
66.0
 40
67.0
 40
67.0
 40
67.0
 40
68.0
 40
68.0
 40
68.0
 40
69.0
 40
69.0
 40
69.0
 40
70.0
 40
70.0
 40
70.0
 40
71.0
 40
71.0
 40
71.0
 40
72.0
 40
72.0
 40
72.0
 40
73.0
 40
73.0
 40
73.0
 40
74.0
 40
74.0
 40
74.0
 40
75.0
 40
75.0
 40
75.0
 40
76.0
 40
76.0
 40
76.0
 40
77.0
 40
77.0
 40
77.0
 40
78.0
 40
78.0
 40
78.0
 40
79.0
 40
79.0
 40
79.0
 40
80.0
 40
80.0
 40
80.0
 40
81.0
 40
81.0
 40
81.0
 40
82.0
 40
82.0
 40
82.0
 40
83.0
 40
83.0
 40
83.0
 40
84.0
 40
84.0
 40
84.0
 40
85.0
 40
85.0
 40
85.0
 40
86.0
 40
86.0
 40
86.0
 40
87.0
 40
87.0
 40
87.0
 40
88.0
 40
88.0
 40
88.0
 40
89.0
 40
89.0
 40
89.0
 40
90.0
 40
90.0
 40
90.0
 40
91.0
 40
91.0
 40
91.0
 40
92.0
 40
92.0
 40
92.0
 40
93.0
 40
93.0
 40
93.0
 40
94.0
 40
94.0
 40
94.0
 40
95.0
 40
95.0
 40
95.0
 40
96.0
 40
96.0
 40
96.0
 40
97.0
 40
97.0
 40
97.0
 40
98.0
 40
98.0
 40
98.0
 40
99.0
 40
99.0
 40
99.0
 40
100.0
 40
100.0
 40
100.0
 40
101.0
 40
101.0
 40
101.0
 40
102.0
 40
102.0
 40
102.0
 40
103.0
 40
103.0
 40
103.0
 40
104.0
 40
104.0
 40
104.0
 40
104.0
 10
916.2435415505242
 20
-942.942546805285
 10
921.9608384293388
 20
-940.232694933351
 10
923.4802341074846
 20
-942.0027179999015
 10
921.7728798386061
 20
-946.7175411768058
 10
920.8017285849583
 20
-949.3647362016382
 10
919.4389809998538
 20
-951.964929628215
 10
917.7629372286683
 20
-954.2518507698551
 10
914.7711355200627
 20
-958.3557846257318
 10
924.7959920449057
 20
-956.1785099788758
 10
920.8017285849583
 20
-961.1596157930326
 10
919.1256848137728
 20
-963.2429111445217
 10
916.0868934574837
 20
-967.2685209538777
 10
918.060554264759
 20
-969.2421698105809
 10
919.9245566266773
 20
-971.1061721724982
 10
921.7102110409323
 20
-972.5472438041252
 10
920.2221736627671
 20
-974.5052254614111
 10
914.7398250223687
 20
-981.7262627695236
 10
919.0003950207129
 20
-991.4691814082671
 10
912.9071331581436
 20
-998.6432290686971
 10
917.2616824518545
 20
-998.4709257268114
 10
919.9245566266773
 20
-997.3744607789595
 10
920.6763909896117
 20
-993.1608804282987
 10
921.1306561187421
 20
-990.6076646988331
 10
932.3772912856393
 20
-980.9587492566006
 10
935.040165460462
 20
-980.2695358890523
 10
937.2957641538378
 20
-979.6899809668612
 10
936.2306336048232
 20
-977.293413330437
 10
937.3897434492046
 20
-976.2595932791155
 10
939.4260252518661
 20
-974.4425805648807
 10
938.0319671690686
 20
-967.0962415131326
 10
944.4697879131245
 20
-972.0303576796086
 10
945.9735044412791
 20
-973.1738242257143
 10
945.8168563482395
 20
-969.9783967269541
 10
946.9133451972339
 20
-969.1795368646217
 10
949.7171883151059
 20
-967.1745655596533
 10
948.1351238392881
 20
-958.4967894204965
 10
955.6381229346453
 20
-963.3839159392865
 10
955.7164230800227
 20
-963.4465727863881
 10
956.8755807266898
 20
-961.1283172459116
 10
957.8780424780307
 20
-960.6584088185045
 10
960.3215997621401
 20
-959.5149422723989
 10
960.6975169436073
 20
-951.0564710733852
 10
965.6942899571823
 20
-958.2618411820804
 10
965.8039484025394
 20
-958.4341445239661
 10
966.9630582469199
 20
-958.2148515343961
 10
967.0100478946033
 20
-958.0425481925104
 10
969.1559881426219
 20
-948.4719328956526
 10
980.1206854234197
 20
-952.8264821893645
 10
984.5535826647938
 20
-946.905547569826
 10
986.9971399489032
 20
-943.647463223966
 10
991.17940980187
 20
-944.8379194177542
 10
994.1712115104765
 20
-944.2113628973093
 10
1004.932271050551
 20
-941.9714314033517
 10
1013.234141958812
 20
-934.7973837429217
 10
1024.15180178964
 20
-930.677794638199
 10
1023.384288276715
 20
-935.5022643098873
 10
1020.987720640289
 20
-938.5097212673409
 10
1018.575473853874
 20
-941.2822180358053
 10
1012.294253400571
 20
-948.4875881445005
 10
1009.130172251222
 20
-957.0870521877077
 10
1006.467298076399
 20
-966.0311109641189
 10
1005.919053651902
 20
-967.8637789272016
 10
1003.56947566316
 20
-969.0855575692549
 10
1002.645314057194
 20
-970.8869030840724
 10
1001.689841953537
 20
-972.7352382465742
 10
995.7845386817016
 20
-973.0171880832459
 10
1000.890970140633
 20
-977.4813958223131
 10
1002.394686668787
 20
-978.797153759735
 10
996.8653483807057
 20
-981.7733002194946
 10
994.4217910965963
 20
-983.8879060686759
 10
993.3253022476019
 20
-984.8434020734767
 10
987.9056224048772
 20
-984.6867539804371
 10
993.3879710452757
 20
-988.3051241600606
 10
996.035166070109
 20
-990.0438128277747
 10
991.1480515018902
 20
-991.1872674233091
 10
990.1455419482627
 20
-992.9103008421789
 10
988.9237633062085
 20
-994.993596193668
 10
981.7183812469411
 20
-993.2392522771061
 10
986.1982681359987
 20
-999.426469533897
 10
986.9971399489032
 20
-1000.522934481749
 10
981.5774123038909
 20
-1001.948350864528
 10
979.6037992989022
 20
-1003.796674076455
 10
978.6326480452544
 20
-1004.705180433573
 10
971.1139697999079
 20
-1002.935157367021
 10
977.1445628648034
 20
-1008.088578473637
 10
978.2253725638075
 20
-1009.012740079601
 10
976.6902977356731
 20
-1010.422501213532
 10
976.0480740158091
 20
-1010.438156462378
 10
968.8426919565418
 20
-1010.532135757745
 10
965.1146872327045
 20
-1017.032649200619
 10
961.1204237727579
 20
-1020.791964422149
 10
956.6092263860064
 20
-1025.036879171646
 10
950.3123745850007
 20
-1026.493606052118
 10
946.7566493019076
 20
-1031.568703112212
 10
944.8456572923051
 20
-1034.309877432412
 10
941.1333317184581
 20
-1033.714643360232
 10
937.0920308085406
 20
-1036.753434716522
 10
964.895370341992
 20
-1032.085613137873
 10
986.6524376605557
 20
-1045.760150340033
 10
1010.743451620159
 20
-1053.513752922654
 10
976.2986536019289
 20
-1063.538609447498
 10
968.4197373251045
 20
-1073.046579847824
 10
925.2971512171462
 20
-1067.141300477131
 10
938.4547783936459
 20
-1077.792725472991
 10
943.5768890025674
 20
-1092.250455338066
 10
951.0015401502615
 20
-1105.251458322668
 10
925.1718614240863
 20
-1098.187069107595
 10
903.8846905823557
 20
-1085.405359112563
 10
892.9669829492414
 20
-1058.432201889709
 10
889.035340484681
 20
-1066.640069601461
 10
888.6281128055198
 20
-1074.659954821334
 10
889.9281915929514
 20
-1082.758164087729
 10
890.8680323489061
 20
-1088.663443458421
 10
892.512717820111
 20
-1094.459064383758
 10
893.8441549075224
 20
-1100.301674956776
 10
894.3610410320398
 20
-1102.588608048989
 10
895.4418507310438
 20
-1105.063475830792
 10
891.4632664210858
 20
-1105.298447970352
 10
888.2365164740631
 20
-1105.486406561085
 10
886.4664934075117
 20
-1104.436931260918
 10
886.842410588979
 20
-1100.881229878967
 10
888.1424893764097
 20
-1088.694753956115
 10
884.8217601340202
 20
-1076.461288385581
 10
886.9833795320283
 20
-1063.820547333598
 10
875.0161726976039
 20
-1087.09703423145
 10
854.5748633164603
 20
-1098.594296786756
 10
830.4055492114803
 20
-1105.345413716892
 10
837.7049105661135
 20
-1093.362575534764
 10
842.1847496528844
 20
-1079.766338477981
 10
852.7578506022255
 20
-1069.92944054387
 10
853.478374467466
 20
-1069.255906326312
 10
855.7496523108312
 20
-1069.302895973997
 10
854.4338943734101
 20
-1067.485883259762
 10
854.0109875442595
 20
-1066.89064918758
 10
852.3349437730749
 20
-1066.499052856123
 10
851.724030550904
 20
-1066.859338689886
 10
845.3018411545509
 20
-1070.649988310255
 10
837.7048627638269
 20
-1069.318575123987
 10
831.2357315220779
 20
-1069.459544067036
 10
816.3237604290161
 20
-1069.819805999658
 10
801.5527104767189
 20
-1065.574915151303
 10
788.0348452687422
 20
-1058.917777516534
 10
782.6151415248733
 20
-1056.239248092863
 10
776.4122690192344
 20
-1057.116443952287
 10
770.1467277159209
 20
-1052.887184451636
 10
780.8138079606288
 20
-1051.226819830443
 10
789.3036135584798
 20
-1046.590308749488
 10
798.2320290366151
 20
-1043.034631268682
 10
805.0144564644452
 20
-1040.340446596165
 10
811.9848902852955
 20
-1038.476444234246
 10
819.0336242515223
 20
-1036.753434716522
 10
823.247204602183
 20
-1035.7196146652
 10
827.6330643935871
 20
-1037.239010343344
 10
831.7526654488811
 20
-1035.359352732579
 10
833.1467713339662
 20
-1034.717129012715
 10
834.4781606190909
 20
-1038.382464938879
 10
836.3421629810091
 20
-1035.907597157076
 10
838.4254344313549
 20
-1033.150767588031
 10
834.2432123806739
 20
-1032.884484950777
 10
834.3371916760407
 20
-1030.957813791185
 10
834.4468501213978
 20
-1028.85886319085
 10
833.1310921839759
 20
-1028.670880698974
 10
831.517717210465
 20
-1028.122660175619
 10
826.207648010809
 20
-1026.321326611374
 10
820.1144339505263
 20
-1020.791988323292
 10
814.8670335485449
 20
-1014.228829983889
 10
813.9428719425805
 20
-1013.069696238364
 10
811.1077183270145
 20
-1013.508282217505
 10
810.0112294780201
 20
-1012.38050677196
 10
808.350864856825
 20
-1010.673152503083
 10
800.2056420416038
 20
-1012.944406445306
 10
805.8916284227262
 20
-1006.302924059382
 10
806.0795870134598
 20
-1006.067975820964
 10
805.781969977369
 20
-1005.034155769643
 10
805.750659479676
 20
-1005.049811018491
 10
796.8222440015406
 20
-1005.504052246477
 10
796.6656437107868
 20
-995.3538820274298
 10
790.494081702841
 20
-992.3934147176606
 10
788.6613898386158
 20
-991.5162427593805
 10
785.0117330624425
 20
-990.2631297184889
 10
789.2566239107964
 20
-987.1616934656686
 10
791.5279017541616
 20
-985.5013288444752
 10
788.6144001909324
 20
-985.1723774095481
 10
787.8781971757016
 20
-984.2795502024201
 10
785.4972847881227
 20
-981.4287174368637
 10
777.5243892159315
 20
-981.8829825659941
 10
782.1765555457332
 20
-974.7402693044005
 10
782.3175244887834
 20
-974.5053210659844
 10
781.0017665513615
 20
-973.2208736262564
 10
780.2499082872846
 20
-972.5316602587081
 10
774.3759633154286
 20
-967.1276356648286
 10
772.684264295397
 20
-959.9222536055604
 10
770.491334399695
 20
-952.5759145538159
 10
769.0189283692334
 20
-947.6574655867607
 10
764.3354515417386
 20
-943.7258350727716
 10
761.2026808900828
 20
-939.2616392842756
 10
759.5579715177337
 20
-936.927728494953
 10
758.1638895337928
 20
-934.4215143637412
 10
756.315566321864
 20
-931.4610351034007
 10
760.4194882271686
 20
-930.7718217358524
 10
763.1293520496747
 20
-933.0744100769116
 10
765.6982230279864
 20
-934.6564626021591
 10
774.5169800607655
 20
-940.0448319471907
 10
783.6803198761745
 20
-944.2427450984324
 10
794.1124757836078
 20
-945.2765531991827
 10
795.4909025187026
 20
-945.417522142232
 10
796.61870186539
 20
-947.2815245041511
 10
798.0441182481682
 20
-947.6731208356068
 10
800.5189860299706
 20
-948.3623342031551
 10
801.6624645266484
 20
-955.6303611589519
 10
805.9857033226663
 20
-949.2395061614352
 10
806.5966165448363
 20
-948.346667003736
 10
809.4943911557893
 20
-952.4349336601936
 10
811.5777104084209
 20
-953.7506915976155
 10
813.0657955888728
 20
-954.6905204029972
 10
813.0188059411894
 20
-962.6320935269232
 10
817.4986450279603
 20
-955.426723418228
 10
818.3914961362316
 20
-953.9856517866046
 10
821.038691161064
 20
-958.1992201866924
 10
823.0279833160421
 20
-959.5619797223699
 10
824.4533996988212
 20
-960.533142926588
 10
823.7171966835904
 20
-967.1276237142574
 10
828.3380525156972
 20
-961.6609303227051
 10
829.387551717009
 20
-960.4234844812308
 10
831.1105373335904
 20
-964.6527320313107
 10
832.7865811047759
 20
-965.98415716815
 10
834.7445627620609
 20
-967.5662096933975
 10
833.3034672292924
 20
-975.241500180071
 10
839.4280395895548
 20
-970.0097669775059
 10
839.600319030299
 20
-969.8687980344566
 10
841.1510730084237
 20
-970.6989803450542
 10
841.2137418060975
 20
-971.1688887724595
 10
842.0126136190011
 20
-978.2019674898402
 10
848.685382601474
 20
-982.2745549963074
 10
852.7266835113915
 20
-984.5614880885205
 10
859.0705249600815
 20
-988.1328447193173
 10
859.3525106484685
 20
-997.1552155916761
 10
868.4218472673674
 20
-998.768590565187
 10
862.2815957571147
 20
-991.2186018221473
 10
865.2577661180167
 20
-982.6034825300922
 10
861.8116992802807
 20
-974.9908727916645
 10
860.0259970637389
 20
-971.0279198294083
 10
863.2997844607316
 20
-964.1201548062327
 10
860.1513346590855
 20
-958.7944542588739
 10
867.8736028428702
 20
-954.6435307553147
 10
859.9790552183422
 20
-951.2131550181402
 10
859.4934317892312
 20
-947.5008174937211
 10
858.9765456647146
 20
-943.5221973320477
 10
857.7390878726701
 20
-939.7472149111
 10
864.8348114865803
 20
-942.6136909749312
 10
863.4250742537915
 20
-938.9796774970328
 10
861.6707303372305
 20
-936.3638168710368
 10
861.5923823895664
 20
-933.7166218462044
 10
861.5297135918936
 20
-931.3043870103593
 10
855.3268410862547
 20
-925.6810694269116
 10
864.3492358597559
 20
-926.3546155950407
 10
865.7119834448613
 20
-926.4485948904075
 10
865.101118024977
 20
-924.9762008105172
 10
864.8348114865803
 20
-924.0050376062973
 10
864.1925877667163
 20
-921.7651061123415
 10
863.4720639014758
 20
-919.4938521701188
 10
863.2214365130685
 20
-917.2069190779057
 10
862.7671713839381
 20
-913.0559955743465
 10
862.5635336432151
 20
-908.7797703271572
 10
869.0483918372411
 20
-913.3066229627548
 10
868.3748576196831
 20
-909.2026891068781
 10
867.2313791230063
 20
-905.8349702168052
 10
867.5133170091058
 20
-902.5925411197913
 10
867.6699651021463
 20
-900.7755284055565
 10
863.8166705852491
 20
-894.3063613120921
 10
871.5232596190435
 20
-897.2355061735971
 10
873.3089618355853
 20
-897.9090523417253
 10
872.7920279087812
 20
-895.4968175058821
 10
872.7763487587908
 20
-894.4316750062953
 10
872.682369463424
 20
-884.3754840826159
 10
876.9272603117788
 20
-876.1832835702826
 10
882.7855739359311
 20
-868.2730388699074
 10
884.8845245362663
 20
-865.4378792790558
 10
884.3676384117489
 20
-860.7387233015706
 10
885.2604417177336
 20
-856.9324064817856
 10
886.6075101528477
 20
-851.1211183570322
 10
888.142584980983
 20
-845.341152680543
 10
889.9126080475344
 20
-838.2767574901836
 10
894.6430745227126
 20
-847.1424981953596
 10
894.7997226157531
 20
-855.9299208293014
 10
897.5408969359523
 20
-863.8401655296766
 10
899.7025163339604
 20
-870.0587171853058
 10
902.2713634111296
 20
-876.4338990081178
 10
906.4693124140877
 20
-881.8066011537321
 10
909.1478179366131
 20
-885.2369888414787
 10
907.9573975945386
 20
-889.2782538996807
 10
908.3803044236893
 20
-893.0689154706197
 10
908.5369525167298
 20
-894.5099871022439
 10
908.3333147760059
 20
-896.7342513967833
 10
909.1478179366131
 20
-897.251161422444
 10
914.6928353746853
 20
-900.8225180532409
 10
914.6928353746853
 20
-900.6815491101897
 10
913.2987294896011
 20
-907.8399295712024
 10
912.954122805827
 20
-909.5786182389165
 10
909.5707247657638
 20
-913.0716508231944
 10
915.9302453644432
 20
-911.92819622766
 10
919.5485916429234
 20
-911.2703172589481
 10
917.0110550634481
 20
-916.2200886742685
 10
917.8412373740448
 20
-918.460020168226
 10
918.8123886276935
 20
-921.0288911465377
 10
911.8733131068229
 20
-926.0883210072152
 10
920.4257636012044
 20
-926.4799173386727
 10
921.3812357048619
 20
-926.5269069863552
 10
921.052308171078
 20
-929.8633153787359
 10
920.4727532488878
 20
-931.5706696476136
 10
919.3763122021801
 20
-934.9383168342574
 10
918.0135646170756
 20
-938.3060357243303
 10
916.2435415505242
 20
-942.942546805285
 97
        0
 97
        0
 75
     2
 76
     1
 98
        0
  0
SPLINE
  5
51
330
41
100
AcDbEntity
  8
katman 1
370
     0
100
AcDbSpline
210
0.0
220
0.0
230
1.0
 70
    11
 71
     3
 72
    26
 73
    22
 74
     0
 42
0.0000000001
 43
0.0000000001
 12
1.0
 22
0.0
 32
0.0
 13
1.0
 23
0.0
 33
0.0
 40
0.0
 40
0.0
 40
0.0
 40
0.0
 40
1.0
 40
1.0
 40
1.0
 40
2.0
 40
2.0
 40
2.0
 40
3.0
 40
3.0
 40
3.0
 40
4.0
 40
4.0
 40
4.0
 40
5.0
 40
5.0
 40
5.0
 40
6.0
 40
6.0
 40
6.0
 40
7.0
 40
7.0
 40
7.0
 40
7.0
 10
1203.831896933038
 20
-878.0472022781996
 30
0.0
 10
1203.831896933038
 20
-863.6677845090744
 30
0.0
 10
1203.502921596968
 20
-853.5019470906091
 30
0.0
 10
1203.925876228404
 20
-843.383099319828
 30
0.0
 10
1204.348830859843
 20
-833.0136301359253
 30
0.0
 10
1209.314245573438
 20
-828.9880203265693
 30
0.0
 10
1219.574050336698
 20
-829.7085561423819
 30
0.0
 10
1237.148847802295
 20
-830.9303347844361
 30
0.0
 10
1247.518406615483
 20
-839.7804142654804
 30
0.0
 10
1250.57278151719
 20
-857.0889709208241
 30
0.0
 10
1253.31395583739
 20
-872.6588389084536
 30
0.0
 10
1251.716212211581
 20
-887.7431312692588
 30
0.0
 10
1242.693817438079
 20
-901.2766995283691
 30
0.0
 10
1236.349975989389
 20
-910.7846579781235
 30
0.0
 10
1227.687819247365
 20
-916.282673817941
 30
0.0
 10
1215.799008162889
 20
-915.3585002614054
 30
0.0
 10
1209.42380841422
 20
-914.857257435162
 30
0.0
 10
1205.805462135741
 20
-911.5208609933543
 30
0.0
 10
1205.429544954273
 20
-904.9733698533691
 30
0.0
 10
1204.834406486665
 20
-894.5882274947626
 30
0.0
 10
1204.192134964514
 20
-884.2030970867272
 30
0.0
 10
1203.831896933038
 20
-878.0472022781996
 30
0.0
  0
HATCH
  5
52
330
41
100
AcDbEntity
  8
katman 1
 62
     7
420
 15461611
100
AcDbHatch
 10
0.0
 20
0.0
 30
0.0
210
0.0
220
0.0
230
1.0
  2
SOLID
 70
     1
 71
     0
 91
        1
 92
        1
 93
        1
 72
     4
 94
        3
 73
     0
 74
     1
 95
       26
 96
       22
 40
0.0
 40
0.0
 40
0.0
 40
0.0
 40
1.0
 40
1.0
 40
1.0
 40
2.0
 40
2.0
 40
2.0
 40
3.0
 40
3.0
 40
3.0
 40
4.0
 40
4.0
 40
4.0
 40
5.0
 40
5.0
 40
5.0
 40
6.0
 40
6.0
 40
6.0
 40
7.0
 40
7.0
 40
7.0
 40
7.0
 10
1203.831896933038
 20
-878.0472022781996
 10
1203.831896933038
 20
-863.6677845090744
 10
1203.502921596968
 20
-853.5019470906091
 10
1203.925876228404
 20
-843.383099319828
 10
1204.348830859843
 20
-833.0136301359253
 10
1209.314245573438
 20
-828.9880203265693
 10
1219.574050336698
 20
-829.7085561423819
 10
1237.148847802295
 20
-830.9303347844361
 10
1247.518406615483
 20
-839.7804142654804
 10
1250.57278151719
 20
-857.0889709208241
 10
1253.31395583739
 20
-872.6588389084536
 10
1251.716212211581
 20
-887.7431312692588
 10
1242.693817438079
 20
-901.2766995283691
 10
1236.349975989389
 20
-910.7846579781235
 10
1227.687819247365
 20
-916.282673817941
 10
1215.799008162889
 20
-915.3585002614054
 10
1209.42380841422
 20
-914.857257435162
 10
1205.805462135741
 20
-911.5208609933543
 10
1205.429544954273
 20
-904.9733698533691
 10
1204.834406486665
 20
-894.5882274947626
 10
1204.192134964514
 20
-884.2030970867272
 10
1203.831896933038
 20
-878.0472022781996
 97
        0
 97
        0
 75
     2
 76
     1
 98
        0
  0
ENDBLK
  5
44
330
41
100
AcDbEntity
  8
0
100
AcDbBlockEnd
  0
ENDSEC
  0
SECTION
  2
ENTITIES
  0
INSERT
  5
42
330
1F
100
AcDbEntity
  8
katman 1
100
AcDbBlockReference
  2
block 2
 10
0.0
 20
0.0
 30
0.0
  0
ENDSEC
  0
SECTION
  2
OBJECTS
  0
DICTIONARY
  5
C
330
0
100
AcDbDictionary
281
     1
  3
ACAD_GROUP
350
D
  3
ACAD_LAYOUT
350
1A
  3
ACAD_MATERIAL
350
3B
  3
ACAD_MLEADERSTYLE
350
54
  3
ACAD_MLINESTYLE
350
17
  3
ACAD_PLOTSETTINGS
350
19
  3
ACAD_PLOTSTYLENAME
350
E
  3
ACAD_TABLESTYLE
350
53
  3
ACAD_VISUALSTYLE
350
2A
  0
SUN
  5
3F
330
29
100
AcDbSun
 90
        1
290
     0
 63
     7
421
 16777215
 40
1.0
291
     1
 91
  2455826
 92
 54000000
292
     0
 70
     2
 71
   256
280
     1
  0
DICTIONARY
  5
D
102
{ACAD_REACTORS
330
C
102
}
330
C
100
AcDbDictionary
281
     1
  0
DICTIONARY
  5
1A
102
{ACAD_REACTORS
330
C
102
}
330
C
100
AcDbDictionary
281
     1
  3
Layout1
350
1E
  3
Layout2
350
26
  3
Model
350
22
  0
DICTIONARY
  5
3B
102
{ACAD_REACTORS
330
C
102
}
330
C
100
AcDbDictionary
281
     1
  3
ByBlock
350
3D
  3
ByLayer
350
3C
  3
Global
350
3E
  0
DICTIONARY
  5
54
102
{ACAD_REACTORS
330
C
102
}
330
C
100
AcDbDictionary
281
     1
  0
DICTIONARY
  5
17
102
{ACAD_REACTORS
330
C
102
}
330
C
100
AcDbDictionary
281
     1
  3
Standard
350
18
  0
DICTIONARY
  5
19
102
{ACAD_REACTORS
330
C
102
}
330
C
100
AcDbDictionary
281
     1
  0
ACDBDICTIONARYWDFLT
  5
E
102
{ACAD_REACTORS
330
C
102
}
330
C
100
AcDbDictionary
281
     1
  3
Normal
350
F
100
AcDbDictionaryWithDefault
340
F
  0
DICTIONARY
  5
53
102
{ACAD_REACTORS
330
C
102
}
330
C
100
AcDbDictionary
281
     1
  0
DICTIONARY
  5
2A
102
{ACAD_REACTORS
330
C
102
}
330
C
100
AcDbDictionary
281
     1
  3
2dWireframe
350
2F
  3
3D Hidden
350
31
  3
3dWireframe
350
30
  3
Basic
350
32
  3
Brighten
350
36
  3
ColorChange
350
3A
  3
Conceptual
350
34
  3
Dim
350
35
  3
Facepattern
350
39
  3
Flat
350
2B
  3
FlatWithEdges
350
2C
  3
Gouraud
350
2D
  3
GouraudWithEdges
350
2E
  3
Linepattern
350
38
  3
Realistic
350
33
  3
Thicken
350
37
  0
LAYOUT
  5
1E
102
{ACAD_REACTORS
330
1A
102
}
330
1A
100
AcDbPlotSettings
  1

  2
none_device
  4

  6

 40
0.0
 41
0.0
 42
0.0
 43
0.0
 44
0.0
 45
0.0
 46
0.0
 47
0.0
 48
0.0
 49
0.0
140
0.0
141
0.0
142
1.0
143
1.0
 70
   688
 72
     0
 73
     0
 74
     5
  7

 75
    16
 76
     0
 77
     2
 78
   300
147
1.0
148
0.0
149
0.0
100
AcDbLayout
  1
Layout1
 70
     1
 71
     1
 10
0.0
 20
0.0
 11
12.0
 21
9.0
 12
0.0
 22
0.0
 32
0.0
 14
1.000000000000000E+20
 24
1.000000000000000E+20
 34
1.000000000000000E+20
 15
-1.000000000000000E+20
 25
-1.000000000000000E+20
 35
-1.000000000000000E+20
146
0.0
 13
0.0
 23
0.0
 33
0.0
 16
1.0
 26
0.0
 36
0.0
 17
0.0
 27
1.0
 37
0.0
 76
     0
330
1B
  0
LAYOUT
  5
26
102
{ACAD_REACTORS
330
1A
102
}
330
1A
100
AcDbPlotSettings
  1

  2
none_device
  4

  6

 40
0.0
 41
0.0
 42
0.0
 43
0.0
 44
0.0
 45
0.0
 46
0.0
 47
0.0
 48
0.0
 49
0.0
140
0.0
141
0.0
142
1.0
143
1.0
 70
   688
 72
     0
 73
     0
 74
     5
  7

 75
    16
 76
     0
 77
     2
 78
   300
147
1.0
148
0.0
149
0.0
100
AcDbLayout
  1
Layout2
 70
     1
 71
     2
 10
0.0
 20
0.0
 11
0.0
 21
0.0
 12
0.0
 22
0.0
 32
0.0
 14
0.0
 24
0.0
 34
0.0
 15
0.0
 25
0.0
 35
0.0
146
0.0
 13
0.0
 23
0.0
 33
0.0
 16
1.0
 26
0.0
 36
0.0
 17
0.0
 27
1.0
 37
0.0
 76
     0
330
23
  0
LAYOUT
  5
22
102
{ACAD_REACTORS
330
1A
102
}
330
1A
100
AcDbPlotSettings
  1

  2
none_device
  4

  6

 40
0.0
 41
0.0
 42
0.0
 43
0.0
 44
0.0
 45
0.0
 46
0.0
 47
0.0
 48
0.0
 49
0.0
140
0.0
141
0.0
142
1.0
143
1.0
 70
  1712
 72
     0
 73
     0
 74
     0
  7

 75
     0
 76
     0
 77
     2
 78
   300
147
1.0
148
0.0
149
0.0
100
AcDbLayout
  1
Model
 70
     1
 71
     0
 10
0.0
 20
0.0
 11
12.0
 21
9.0
 12
0.0
 22
0.0
 32
0.0
 14
1.000000000000000E+20
 24
1.000000000000000E+20
 34
1.000000000000000E+20
 15
-1.000000000000000E+20
 25
-1.000000000000000E+20
 35
-1.000000000000000E+20
146
0.0
 13
0.0
 23
0.0
 33
0.0
 16
1.0
 26
0.0
 36
0.0
 17
0.0
 27
1.0
 37
0.0
 76
     0
330
1F
331
29
  0
MATERIAL
  5
3D
102
{ACAD_REACTORS
330
3B
102
}
330
3B
100
AcDbMaterial
  1
ByBlock
 72
     1
 94
      127
  0
MATERIAL
  5
3C
102
{ACAD_REACTORS
330
3B
102
}
330
3B
100
AcDbMaterial
  1
ByLayer
 72
     1
 94
      127
  0
MATERIAL
  5
3E
102
{ACAD_REACTORS
330
3B
102
}
330
3B
100
AcDbMaterial
  1
Global
 72
     1
 94
      127
  0
MLINESTYLE
  5
18
102
{ACAD_REACTORS
330
17
102
}
330
17
100
AcDbMlineStyle
  2
Standard
 70
     0
  3

 62
   256
 51
90.0
 52
90.0
 71
     2
 49
0.5
 62
   256
  6
BYLAYER
 49
-0.5
 62
   256
  6
BYLAYER
  0
ACDBPLACEHOLDER
  5
F
102
{ACAD_REACTORS
330
E
102
}
330
E
  0
VISUALSTYLE
  5
2F
102
{ACAD_REACTORS
330
2A
102
}
330
2A
100
AcDbVisualStyle
  2
2dWireframe
 70
     4
177
     2
291
     0
 71
     0
176
     1
 72
     2
176
     1
 73
     0
176
     1
 90
        0
176
     1
 40
-0.6
176
     1
 41
-30.0
176
     1
 62
     5
 63
     7
421
 16777215
176
     1
 74
     1
176
     1
 91
        4
176
     1
 64
     7
176
     1
 65
   257
176
     1
 75
     1
176
     1
175
     1
176
     1
 42
1.0
176
     1
 92
        0
176
     1
 66
   257
176
     1
 43
1.0
176
     1
 76
     1
176
     1
 77
     6
176
     1
 78
     2
176
     1
 67
     7
176
     1
 79
     5
176
     1
170
     0
176
     1
171
     0
176
     1
290
     0
176
     1
 93
        1
176
     1
 44
0.0
176
     1
173
     0
176
     1
  0
VISUALSTYLE
  5
31
102
{ACAD_REACTORS
330
2A
102
}
330
2A
100
AcDbVisualStyle
  2
3D Hidden
 70
     6
177
     2
291
     0
 71
     1
176
     1
 72
     2
176
     1
 73
     2
176
     1
 90
        0
176
     1
 40
-0.6
176
     1
 41
-30.0
176
     1
 62
     5
 63
     7
421
 16777215
176
     1
 74
     2
176
     1
 91
        2
176
     1
 64
     7
176
     1
 65
   257
176
     1
 75
     2
176
     1
175
     1
176
     1
 42
40.0
176
     1
 92
        0
176
     1
 66
   257
176
     1
 43
1.0
176
     1
 76
     1
176
     1
 77
     6
176
     1
 78
     2
176
     1
 67
     7
176
     1
 79
     3
176
     1
170
     0
176
     1
171
     0
176
     1
290
     0
176
     1
 93
        1
176
     1
 44
0.0
176
     1
173
     0
176
     1
  0
VISUALSTYLE
  5
30
102
{ACAD_REACTORS
330
2A
102
}
330
2A
100
AcDbVisualStyle
  2
3dWireframe
 70
     5
177
     2
291
     0
 71
     0
176
     1
 72
     2
176
     1
 73
     0
176
     1
 90
        0
176
     1
 40
-0.6
176
     1
 41
-30.0
176
     1
 62
     5
 63
     7
421
 16777215
176
     1
 74
     1
176
     1
 91
        4
176
     1
 64
     7
176
     1
 65
   257
176
     1
 75
     1
176
     1
175
     1
176
     1
 42
1.0
176
     1
 92
        0
176
     1
 66
   257
176
     1
 43
1.0
176
     1
 76
     1
176
     1
 77
     6
176
     1
 78
     2
176
     1
 67
     7
176
     1
 79
     5
176
     1
170
     0
176
     1
171
     0
176
     1
290
     0
176
     1
 93
        1
176
     1
 44
0.0
176
     1
173
     0
176
     1
  0
VISUALSTYLE
  5
32
102
{ACAD_REACTORS
330
2A
102
}
330
2A
100
AcDbVisualStyle
  2
Basic
 70
     7
177
     2
291
     1
 71
     1
176
     1
 72
     0
176
     1
 73
     1
176
     1
 90
        0
176
     1
 40
-0.6
176
     1
 41
-30.0
176
     1
 62
     5
 63
     7
421
 16777215
176
     1
 74
     0
176
     1
 91
        4
176
     1
 64
     7
176
     1
 65
   257
176
     1
 75
     1
176
     1
175
     1
176
     1
 42
1.0
176
     1
 92
        8
176
     1
 66
     7
176
     1
 43
1.0
176
     1
 76
     1
176
     1
 77
     6
176
     1
 78
     2
176
     1
 67
     7
176
     1
 79
     5
176
     1
170
     0
176
     1
171
     0
176
     1
290
     0
176
     1
 93
        1
176
     1
 44
0.0
176
     1
173
     0
176
     1
  0
VISUALSTYLE
  5
36
102
{ACAD_REACTORS
330
2A
102
}
330
2A
100
AcDbVisualStyle
  2
Brighten
 70
    12
177
     2
291
     1
 71
     2
176
     1
 72
     2
176
     1
 73
     0
176
     1
 90
        0
176
     1
 40
-0.6
176
     1
 41
-30.0
176
     1
 62
     5
 63
     7
421
 16777215
176
     1
 74
     1
176
     1
 91
        4
176
     1
 64
     7
176
     1
 65
   257
176
     1
 75
     1
176
     1
175
     1
176
     1
 42
1.0
176
     1
 92
        8
176
     1
 66
     7
176
     1
 43
1.0
176
     1
 76
     1
176
     1
 77
     6
176
     1
 78
     2
176
     1
 67
     7
176
     1
 79
     5
176
     1
170
     0
176
     1
171
     0
176
     1
290
     0
176
     1
 93
        1
176
     1
 44
50.0
176
     1
173
     0
176
     1
  0
VISUALSTYLE
  5
3A
102
{ACAD_REACTORS
330
2A
102
}
330
2A
100
AcDbVisualStyle
  2
ColorChange
 70
    16
177
     2
291
     1
 71
     2
176
     1
 72
     2
176
     1
 73
     3
176
     1
 90
        0
176
     1
 40
-0.6
176
     1
 41
-30.0
176
     1
 62
     5
 63
     8
421
  8421504
176
     1
 74
     1
176
     1
 91
        4
176
     1
 64
     7
176
     1
 65
   257
176
     1
 75
     1
176
     1
175
     1
176
     1
 42
1.0
176
     1
 92
        8
176
     1
 66
     8
424
  8421504
176
     1
 43
1.0
176
     1
 76
     1
176
     1
 77
     6
176
     1
 78
     2
176
     1
 67
     7
176
     1
 79
     5
176
     1
170
     0
176
     1
171
     0
176
     1
290
     0
176
     1
 93
        1
176
     1
 44
0.0
176
     1
173
     0
176
     1
  0
VISUALSTYLE
  5
34
102
{ACAD_REACTORS
330
2A
102
}
330
2A
100
AcDbVisualStyle
  2
Conceptual
 70
     9
177
     2
291
     0
 71
     3
176
     1
 72
     2
176
     1
 73
     0
176
     1
 90
        0
176
     1
 40
-0.6
176
     1
 41
-30.0
176
     1
 62
     5
 63
     7
421
 16777215
176
     1
 74
     2
176
     1
 91
        2
176
     1
 64
     7
176
     1
 65
   257
176
     1
 75
     1
176
     1
175
     1
176
     1
 42
40.0
176
     1
 92
        8
176
     1
 66
     7
176
     1
 43
1.0
176
     1
 76
     1
176
     1
 77
     6
176
     1
 78
     2
176
     1
 67
     7
176
     1
 79
     3
176
     1
170
     0
176
     1
171
     0
176
     1
290
     0
176
     1
 93
        1
176
     1
 44
0.0
176
     1
173
     0
176
     1
  0
VISUALSTYLE
  5
35
102
{ACAD_REACTORS
330
2A
102
}
330
2A
100
AcDbVisualStyle
  2
Dim
 70
    11
177
     2
291
     1
 71
     2
176
     1
 72
     2
176
     1
 73
     0
176
     1
 90
        0
176
     1
 40
-0.6
176
     1
 41
-30.0
176
     1
 62
     5
 63
     7
421
 16777215
176
     1
 74
     1
176
     1
 91
        4
176
     1
 64
     7
176
     1
 65
   257
176
     1
 75
     1
176
     1
175
     1
176
     1
 42
1.0
176
     1
 92
        8
176
     1
 66
     7
176
     1
 43
1.0
176
     1
 76
     1
176
     1
 77
     6
176
     1
 78
     2
176
     1
 67
     7
176
     1
 79
     5
176
     1
170
     0
176
     1
171
     0
176
     1
290
     0
176
     1
 93
        1
176
     1
 44
-50.0
176
     1
173
     0
176
     1
  0
VISUALSTYLE
  5
39
102
{ACAD_REACTORS
330
2A
102
}
330
2A
100
AcDbVisualStyle
  2
Facepattern
 70
    15
177
     2
291
     1
 71
     2
176
     1
 72
     2
176
     1
 73
     0
176
     1
 90
        0
176
     1
 40
-0.6
176
     1
 41
-30.0
176
     1
 62
     5
 63
     7
421
 16777215
176
     1
 74
     1
176
     1
 91
        4
176
     1
 64
     7
176
     1
 65
   257
176
     1
 75
     1
176
     1
175
     1
176
     1
 42
1.0
176
     1
 92
        8
176
     1
 66
     7
176
     1
 43
1.0
176
     1
 76
     1
176
     1
 77
     6
176
     1
 78
     2
176
     1
 67
     7
176
     1
 79
     5
176
     1
170
     0
176
     1
171
     0
176
     1
290
     0
176
     1
 93
        1
176
     1
 44
0.0
176
     1
173
     0
176
     1
  0
VISUALSTYLE
  5
2B
102
{ACAD_REACTORS
330
2A
102
}
330
2A
100
AcDbVisualStyle
  2
Flat
 70
     0
177
     2
291
     1
 71
     2
176
     1
 72
     1
176
     1
 73
     1
176
     1
 90
        2
176
     1
 40
-0.6
176
     1
 41
30.0
176
     1
 62
     5
 63
     7
421
 16777215
176
     1
 74
     0
176
     1
 91
        4
176
     1
 64
     7
176
     1
 65
   257
176
     1
 75
     1
176
     1
175
     1
176
     1
 42
1.0
176
     1
 92
        8
176
     1
 66
     7
176
     1
 43
1.0
176
     1
 76
     1
176
     1
 77
     6
176
     1
 78
     2
176
     1
 67
     7
176
     1
 79
     5
176
     1
170
     0
176
     1
171
     0
176
     1
290
     0
176
     1
 93
       13
176
     1
 44
0.0
176
     1
173
     0
176
     1
  0
VISUALSTYLE
  5
2C
102
{ACAD_REACTORS
330
2A
102
}
330
2A
100
AcDbVisualStyle
  2
FlatWithEdges
 70
     1
177
     2
291
     1
 71
     2
176
     1
 72
     1
176
     1
 73
     1
176
     1
 90
        2
176
     1
 40
-0.6
176
     1
 41
30.0
176
     1
 62
     5
 63
     7
421
 16777215
176
     1
 74
     1
176
     1
 91
        4
176
     1
 64
     7
176
     1
 65
   257
176
     1
 75
     1
176
     1
175
     1
176
     1
 42
1.0
176
     1
 92
        0
176
     1
 66
   257
176
     1
 43
1.0
176
     1
 76
     1
176
     1
 77
     6
176
     1
 78
     2
176
     1
 67
     7
176
     1
 79
     5
176
     1
170
     0
176
     1
171
     0
176
     1
290
     0
176
     1
 93
       13
176
     1
 44
0.0
176
     1
173
     0
176
     1
  0
VISUALSTYLE
  5
2D
102
{ACAD_REACTORS
330
2A
102
}
330
2A
100
AcDbVisualStyle
  2
Gouraud
 70
     2
177
     2
291
     1
 71
     2
176
     1
 72
     2
176
     1
 73
     1
176
     1
 90
        2
176
     1
 40
-0.6
176
     1
 41
30.0
176
     1
 62
     5
 63
     7
421
 16777215
176
     1
 74
     0
176
     1
 91
        4
176
     1
 64
     7
176
     1
 65
   257
176
     1
 75
     1
176
     1
175
     1
176
     1
 42
1.0
176
     1
 92
        0
176
     1
 66
     7
176
     1
 43
1.0
176
     1
 76
     1
176
     1
 77
     6
176
     1
 78
     2
176
     1
 67
     7
176
     1
 79
     5
176
     1
170
     0
176
     1
171
     0
176
     1
290
     0
176
     1
 93
       13
176
     1
 44
0.0
176
     1
173
     0
176
     1
  0
VISUALSTYLE
  5
2E
102
{ACAD_REACTORS
330
2A
102
}
330
2A
100
AcDbVisualStyle
  2
GouraudWithEdges
 70
     3
177
     2
291
     1
 71
     2
176
     1
 72
     2
176
     1
 73
     1
176
     1
 90
        2
176
     1
 40
-0.6
176
     1
 41
30.0
176
     1
 62
     5
 63
     7
421
 16777215
176
     1
 74
     1
176
     1
 91
        4
176
     1
 64
     7
176
     1
 65
   257
176
     1
 75
     1
176
     1
175
     1
176
     1
 42
1.0
176
     1
 92
        0
176
     1
 66
   257
176
     1
 43
1.0
176
     1
 76
     1
176
     1
 77
     6
176
     1
 78
     2
176
     1
 67
     7
176
     1
 79
     5
176
     1
170
     0
176
     1
171
     0
176
     1
290
     0
176
     1
 93
       13
176
     1
 44
0.0
176
     1
173
     0
176
     1
  0
VISUALSTYLE
  5
38
102
{ACAD_REACTORS
330
2A
102
}
330
2A
100
AcDbVisualStyle
  2
Linepattern
 70
    14
177
     2
291
     1
 71
     2
176
     1
 72
     2
176
     1
 73
     0
176
     1
 90
        0
176
     1
 40
-0.6
176
     1
 41
-30.0
176
     1
 62
     5
 63
     7
421
 16777215
176
     1
 74
     1
176
     1
 91
        4
176
     1
 64
     7
176
     1
 65
   257
176
     1
 75
     7
176
     1
175
     7
176
     1
 42
1.0
176
     1
 92
        8
176
     1
 66
     7
176
     1
 43
1.0
176
     1
 76
     1
176
     1
 77
     6
176
     1
 78
     2
176
     1
 67
     7
176
     1
 79
     5
176
     1
170
     0
176
     1
171
     0
176
     1
290
     0
176
     1
 93
        1
176
     1
 44
0.0
176
     1
173
     0
176
     1
  0
VISUALSTYLE
  5
33
102
{ACAD_REACTORS
330
2A
102
}
330
2A
100
AcDbVisualStyle
  2
Realistic
 70
     8
177
     2
291
     0
 71
     2
176
     1
 72
     2
176
     1
 73
     0
176
     1
 90
        0
176
     1
 40
-0.6
176
     1
 41
-30.0
176
     1
 62
     5
 63
     7
421
 16777215
176
     1
 74
     1
176
     1
 91
        0
176
     1
 64
     7
176
     1
 65
   257
176
     1
 75
     1
176
     1
175
     1
176
     1
 42
1.0
176
     1
 92
        8
176
     1
 66
     8
424
  7895160
176
     1
 43
1.0
176
     1
 76
     1
176
     1
 77
     6
176
     1
 78
     2
176
     1
 67
     7
176
     1
 79
     5
176
     1
170
     0
176
     1
171
     0
176
     1
290
     0
176
     1
 93
       13
176
     1
 44
0.0
176
     1
173
     0
176
     1
  0
VISUALSTYLE
  5
37
102
{ACAD_REACTORS
330
2A
102
}
330
2A
100
AcDbVisualStyle
  2
Thicken
 70
    13
177
     2
291
     1
 71
     2
176
     1
 72
     2
176
     1
 73
     0
176
     1
 90
        0
176
     1
 40
-0.6
176
     1
 41
-30.0
176
     1
 62
     5
 63
     7
421
 16777215
176
     1
 74
     1
176
     1
 91
        4
176
     1
 64
     7
176
     1
 65
   257
176
     1
 75
     1
176
     1
175
     1
176
     1
 42
1.0
176
     1
 92
       12
176
     1
 66
     7
176
     1
 43
1.0
176
     1
 76
     1
176
     1
 77
     6
176
     1
 78
     2
176
     1
 67
     7
176
     1
 79
     5
176
     1
170
     0
176
     1
171
     0
176
     1
290
     0
176
     1
 93
        1
176
     1
 44
0.0
176
     1
173
     0
176
     1
  0
ENDSEC
  0
EOF
