  0
SECTION
  2
HEADER
  9
$ACADVER
  1
AC1024
  9
$ACADMAINTVER
 70
     6
  9
$DWGCODEPAGE
  3
ANSI_1254
  9
$INSBASE
 10
0.0
 20
0.0
 30
0.0
  9
$EXTMIN
 10
1.000000000000000E+20
 20
1.000000000000000E+20
 30
1.000000000000000E+20
  9
$EXTMAX
 10
-1.000000000000000E+20
 20
-1.000000000000000E+20
 30
-1.000000000000000E+20
  9
$LIMMIN
 10
0.0
 20
0.0
  9
$LIMMAX
 10
12.0
 20
9.0
  9
$ORTHOMODE
 70
     0
  9
$REGENMODE
 70
     1
  9
$FILLMODE
 70
     1
  9
$QTEXTMODE
 70
     0
  9
$MIRRTEXT
 70
     1
  9
$LTSCALE
 40
1.0
  9
$ATTMODE
 70
     1
  9
$TEXTSIZE
 40
0.2
  9
$TRACEWID
 40
0.05
  9
$TEXTSTYLE
  7
Standard
  9
$CLAYER
  8
0
  9
$CELTYPE
  6
ByLayer
  9
$CECOLOR
 62
   256
  9
$CELTSCALE
 40
1.0
  9
$DISPSILH
 70
     0
  9
$DIMSCALE
 40
1.0
  9
$DIMASZ
 40
0.18
  9
$DIMEXO
 40
0.0625
  9
$DIMDLI
 40
0.38
  9
$DIMRND
 40
0.0
  9
$DIMDLE
 40
0.0
  9
$DIMEXE
 40
0.18
  9
$DIMTP
 40
0.0
  9
$DIMTM
 40
0.0
  9
$DIMTXT
 40
0.18
  9
$DIMCEN
 40
0.09
  9
$DIMTSZ
 40
0.0
  9
$DIMTOL
 70
     0
  9
$DIMLIM
 70
     0
  9
$DIMTIH
 70
     1
  9
$DIMTOH
 70
     1
  9
$DIMSE1
 70
     0
  9
$DIMSE2
 70
     0
  9
$DIMTAD
 70
     0
  9
$DIMZIN
 70
     0
  9
$DIMBLK
  1

  9
$DIMASO
 70
     1
  9
$DIMSHO
 70
     1
  9
$DIMPOST
  1

  9
$DIMAPOST
  1

  9
$DIMALT
 70
     0
  9
$DIMALTD
 70
     2
  9
$DIMALTF
 40
25.4
  9
$DIMLFAC
 40
1.0
  9
$DIMTOFL
 70
     0
  9
$DIMTVP
 40
0.0
  9
$DIMTIX
 70
     0
  9
$DIMSOXD
 70
     0
  9
$DIMSAH
 70
     0
  9
$DIMBLK1
  1

  9
$DIMBLK2
  1

  9
$DIMSTYLE
  2
Standard
  9
$DIMCLRD
 70
     0
  9
$DIMCLRE
 70
     0
  9
$DIMCLRT
 70
     0
  9
$DIMTFAC
 40
1.0
  9
$DIMGAP
 40
0.09
  9
$DIMJUST
 70
     0
  9
$DIMSD1
 70
     0
  9
$DIMSD2
 70
     0
  9
$DIMTOLJ
 70
     1
  9
$DIMTZIN
 70
     0
  9
$DIMALTZ
 70
     0
  9
$DIMALTTZ
 70
     0
  9
$DIMUPT
 70
     0
  9
$DIMDEC
 70
     4
  9
$DIMTDEC
 70
     4
  9
$DIMALTU
 70
     2
  9
$DIMALTTD
 70
     2
  9
$DIMTXSTY
  7
Standard
  9
$DIMAUNIT
 70
     0
  9
$DIMADEC
 70
     0
  9
$DIMALTRND
 40
0.0
  9
$DIMAZIN
 70
     0
  9
$DIMDSEP
 70
    46
  9
$DIMATFIT
 70
     3
  9
$DIMFRAC
 70
     0
  9
$DIMLDRBLK
  1

  9
$DIMLUNIT
 70
     2
  9
$DIMLWD
 70
    -2
  9
$DIMLWE
 70
    -2
  9
$DIMTMOVE
 70
     0
  9
$DIMFXL
 40
1.0
  9
$DIMFXLON
 70
     0
  9
$DIMJOGANG
 40
0.7853981633974483
  9
$DIMTFILL
 70
     0
  9
$DIMTFILLCLR
 70
     0
  9
$DIMARCSYM
 70
     0
  9
$DIMLTYPE
  6

  9
$DIMLTEX1
  6

  9
$DIMLTEX2
  6

  9
$DIMTXTDIRECTION
 70
     0
  9
$LUNITS
 70
     2
  9
$LUPREC
 70
     4
  9
$SKETCHINC
 40
0.1
  9
$FILLETRAD
 40
0.5
  9
$AUNITS
 70
     0
  9
$AUPREC
 70
     0
  9
$MENU
  1
.
  9
$ELEVATION
 40
0.0
  9
$PELEVATION
 40
0.0
  9
$THICKNESS
 40
0.0
  9
$LIMCHECK
 70
     0
  9
$CHAMFERA
 40
0.5
  9
$CHAMFERB
 40
0.5
  9
$CHAMFERC
 40
1.0
  9
$CHAMFERD
 40
0.0
  9
$SKPOLY
 70
     0
  9
$TDCREATE
 40
2459350.615899051
  9
$TDUCREATE
 40
2459350.490899051
  9
$TDUPDATE
 40
2459350.615899074
  9
$TDUUPDATE
 40
2459350.490899074
  9
$TDINDWG
 40
0.0000000116
  9
$TDUSRTIMER
 40
0.0000000116
  9
$USRTIMER
 70
     1
  9
$ANGBASE
 50
0.0
  9
$ANGDIR
 70
     0
  9
$PDMODE
 70
     0
  9
$PDSIZE
 40
0.0
  9
$PLINEWID
 40
0.0
  9
$SPLFRAME
 70
     0
  9
$SPLINETYPE
 70
     6
  9
$SPLINESEGS
 70
     8
  9
$HANDSEED
  5
57
  9
$SURFTAB1
 70
     6
  9
$SURFTAB2
 70
     6
  9
$SURFTYPE
 70
     6
  9
$SURFU
 70
     6
  9
$SURFV
 70
     6
  9
$UCSBASE
  2

  9
$UCSNAME
  2

  9
$UCSORG
 10
0.0
 20
0.0
 30
0.0
  9
$UCSXDIR
 10
1.0
 20
0.0
 30
0.0
  9
$UCSYDIR
 10
0.0
 20
1.0
 30
0.0
  9
$UCSORTHOREF
  2

  9
$UCSORTHOVIEW
 70
     0
  9
$UCSORGTOP
 10
0.0
 20
0.0
 30
0.0
  9
$UCSORGBOTTOM
 10
0.0
 20
0.0
 30
0.0
  9
$UCSORGLEFT
 10
0.0
 20
0.0
 30
0.0
  9
$UCSORGRIGHT
 10
0.0
 20
0.0
 30
0.0
  9
$UCSORGFRONT
 10
0.0
 20
0.0
 30
0.0
  9
$UCSORGBACK
 10
0.0
 20
0.0
 30
0.0
  9
$PUCSBASE
  2

  9
$PUCSNAME
  2

  9
$PUCSORG
 10
0.0
 20
0.0
 30
0.0
  9
$PUCSXDIR
 10
1.0
 20
0.0
 30
0.0
  9
$PUCSYDIR
 10
0.0
 20
1.0
 30
0.0
  9
$PUCSORTHOREF
  2

  9
$PUCSORTHOVIEW
 70
     0
  9
$PUCSORGTOP
 10
0.0
 20
0.0
 30
0.0
  9
$PUCSORGBOTTOM
 10
0.0
 20
0.0
 30
0.0
  9
$PUCSORGLEFT
 10
0.0
 20
0.0
 30
0.0
  9
$PUCSORGRIGHT
 10
0.0
 20
0.0
 30
0.0
  9
$PUCSORGFRONT
 10
0.0
 20
0.0
 30
0.0
  9
$PUCSORGBACK
 10
0.0
 20
0.0
 30
0.0
  9
$USERI1
 70
     0
  9
$USERI2
 70
     0
  9
$USERI3
 70
     0
  9
$USERI4
 70
     0
  9
$USERI5
 70
     0
  9
$USERR1
 40
0.0
  9
$USERR2
 40
0.0
  9
$USERR3
 40
0.0
  9
$USERR4
 40
0.0
  9
$USERR5
 40
0.0
  9
$WORLDVIEW
 70
     1
  9
$SHADEDGE
 70
     3
  9
$SHADEDIF
 70
    70
  9
$TILEMODE
 70
     1
  9
$MAXACTVP
 70
    64
  9
$PINSBASE
 10
0.0
 20
0.0
 30
0.0
  9
$PLIMCHECK
 70
     0
  9
$PEXTMIN
 10
1.000000000000000E+20
 20
1.000000000000000E+20
 30
1.000000000000000E+20
  9
$PEXTMAX
 10
-1.000000000000000E+20
 20
-1.000000000000000E+20
 30
-1.000000000000000E+20
  9
$PLIMMIN
 10
0.0
 20
0.0
  9
$PLIMMAX
 10
12.0
 20
9.0
  9
$UNITMODE
 70
     0
  9
$VISRETAIN
 70
     1
  9
$PLINEGEN
 70
     0
  9
$PSLTSCALE
 70
     1
  9
$TREEDEPTH
 70
  3020
  9
$CMLSTYLE
  2
Standard
  9
$CMLJUST
 70
     0
  9
$CMLSCALE
 40
1.0
  9
$PROXYGRAPHICS
 70
     1
  9
$MEASUREMENT
 70
     0
  9
$CELWEIGHT
370
    -1
  9
$ENDCAPS
280
     0
  9
$JOINSTYLE
280
     0
  9
$LWDISPLAY
290
     1
  9
$INSUNITS
 70
     0
  9
$HYPERLINKBASE
  1

  9
$STYLESHEET
  1

  9
$XEDIT
290
     1
  9
$CEPSNTYPE
380
     0
  9
$PSTYLEMODE
290
     1
  9
$FINGERPRINTGUID
  2
{6833C7B9-0D04-4716-A4D7-A37D466A81A6}
  9
$VERSIONGUID
  2
{FAEB1C32-E019-11D5-929B-00C0DF256EC4}
  9
$EXTNAMES
290
     1
  9
$PSVPSCALE
 40
0.0
  9
$OLESTARTUP
290
     0
  9
$SORTENTS
280
   127
  9
$INDEXCTL
280
     0
  9
$HIDETEXT
280
     1
  9
$XCLIPFRAME
280
     2
  9
$HALOGAP
280
     0
  9
$OBSCOLOR
 70
   257
  9
$OBSLTYPE
280
     0
  9
$INTERSECTIONDISPLAY
280
     0
  9
$INTERSECTIONCOLOR
 70
   257
  9
$DIMASSOC
280
     2
  9
$PROJECTNAME
  1

  9
$CAMERADISPLAY
290
     0
  9
$LENSLENGTH
 40
50.0
  9
$CAMERAHEIGHT
 40
0.0
  9
$STEPSPERSEC
 40
2.0
  9
$STEPSIZE
 40
6.0
  9
$3DDWFPREC
 40
2.0
  9
$PSOLWIDTH
 40
0.25
  9
$PSOLHEIGHT
 40
4.0
  9
$LOFTANG1
 40
1.570796326794897
  9
$LOFTANG2
 40
1.570796326794897
  9
$LOFTMAG1
 40
0.0
  9
$LOFTMAG2
 40
0.0
  9
$LOFTPARAM
 70
     7
  9
$LOFTNORMALS
280
     1
  9
$LATITUDE
 40
37.795
  9
$LONGITUDE
 40
-122.394
  9
$NORTHDIRECTION
 40
0.0
  9
$TIMEZONE
 70
 -8000
  9
$LIGHTGLYPHDISPLAY
280
     1
  9
$TILEMODELIGHTSYNCH
280
     1
  9
$CMATERIAL
347
3C
  9
$SOLIDHIST
280
     1
  9
$SHOWHIST
280
     1
  9
$DWFFRAME
280
     2
  9
$DGNFRAME
280
     2
  9
$REALWORLDSCALE
290
     1
  9
$INTERFERECOLOR
 62
   256
  9
$CSHADOW
280
     0
  9
$SHADOWPLANELOCATION
 40
0.0
  0
ENDSEC
  0
SECTION
  2
CLASSES
  0
CLASS
  1
ACDBDICTIONARYWDFLT
  2
AcDbDictionaryWithDefault
  3
ObjectDBX Classes
 90
        0
 91
        4
280
     0
281
     0
  0
CLASS
  1
VISUALSTYLE
  2
AcDbVisualStyle
  3
ObjectDBX Classes
 90
     4095
 91
        4
280
     0
281
     0
  0
CLASS
  1
MATERIAL
  2
AcDbMaterial
  3
ObjectDBX Classes
 90
     1153
 91
        4
280
     0
281
     0
  0
CLASS
  1
SUN
  2
AcDbSun
  3
SCENEOE
 90
     1024
 91
        4
280
     0
281
     0
  0
ENDSEC
  0
SECTION
  2
TABLES
  0
TABLE
  2
VPORT
  5
8
330
0
100
AcDbSymbolTable
 70
     1
  0
VPORT
  5
29
330
8
100
AcDbSymbolTableRecord
100
AcDbViewportTableRecord
  2
*Active
 70
     0
 10
0.0
 20
0.0
 11
1.0
 21
1.0
 12
0.0
 22
0.0
 13
0.0
 23
0.0
 14
0.5
 24
0.5
 15
0.5
 25
0.5
 16
0.0
 26
0.0
 36
1.0
 17
1016.886108420838
 27
-1033.727719590707
 37
0.0
 40
798.3312307064434
 41
1.031648943228867
 42
50.0
 43
0.0
 44
0.0
 50
0.0
 51
0.0
 71
     0
 72
   100
 73
     1
 74
     3
 75
     0
 76
     0
 77
     0
 78
     0
281
     0
 65
     1
110
0.0
120
0.0
130
0.0
111
1.0
121
0.0
131
0.0
112
0.0
122
1.0
132
0.0
 79
     0
146
0.0
 60
     3
 61
     5
292
     1
282
     1
141
0.0
142
0.0
 63
   250
361
3F
  0
ENDTAB
  0
TABLE
  2
LTYPE
  5
5
330
0
100
AcDbSymbolTable
 70
     1
  0
LTYPE
  5
14
330
5
100
AcDbSymbolTableRecord
100
AcDbLinetypeTableRecord
  2
ByBlock
 70
     0
  3

 72
    65
 73
     0
 40
0.0
  0
LTYPE
  5
15
330
5
100
AcDbSymbolTableRecord
100
AcDbLinetypeTableRecord
  2
ByLayer
 70
     0
  3

 72
    65
 73
     0
 40
0.0
  0
LTYPE
  5
16
330
5
100
AcDbSymbolTableRecord
100
AcDbLinetypeTableRecord
  2
Continuous
 70
     0
  3
Solid line
 72
    65
 73
     0
 40
0.0
  0
ENDTAB
  0
TABLE
  2
LAYER
  5
2
330
0
100
AcDbSymbolTable
 70
     2
  0
LAYER
  5
10
330
2
100
AcDbSymbolTableRecord
100
AcDbLayerTableRecord
  2
0
 70
     0
 62
     7
  6
Continuous
370
    -3
390
F
347
3E
  0
LAYER
  5
40
330
2
100
AcDbSymbolTableRecord
100
AcDbLayerTableRecord
  2
katman 1
 70
     0
 62
     7
  6
Continuous
370
    -3
390
F
347
3E
  0
ENDTAB
  0
TABLE
  2
STYLE
  5
3
330
0
100
AcDbSymbolTable
 70
     1
  0
STYLE
  5
11
330
3
100
AcDbSymbolTableRecord
100
AcDbTextStyleTableRecord
  2
Standard
 70
     0
 40
0.0
 41
1.0
 50
0.0
 71
     0
 42
0.2
  3
txt
  4

  0
ENDTAB
  0
TABLE
  2
VIEW
  5
6
330
0
100
AcDbSymbolTable
 70
     0
  0
ENDTAB
  0
TABLE
  2
UCS
  5
7
330
0
100
AcDbSymbolTable
 70
     0
  0
ENDTAB
  0
TABLE
  2
APPID
  5
9
330
0
100
AcDbSymbolTable
 70
     1
  0
APPID
  5
12
330
9
100
AcDbSymbolTableRecord
100
AcDbRegAppTableRecord
  2
ACAD
 70
     0
  0
ENDTAB
  0
TABLE
  2
DIMSTYLE
  5
A
330
0
100
AcDbSymbolTable
 70
     1
100
AcDbDimStyleTable
  0
DIMSTYLE
105
27
330
A
100
AcDbSymbolTableRecord
100
AcDbDimStyleTableRecord
  2
Standard
 70
     0
178
     0
340
11
  0
ENDTAB
  0
TABLE
  2
BLOCK_RECORD
  5
1
330
0
100
AcDbSymbolTable
 70
     2
  0
BLOCK_RECORD
  5
1F
330
1
100
AcDbSymbolTableRecord
100
AcDbBlockTableRecord
  2
*Model_Space
340
22
 70
     0
280
     1
281
     0
  0
BLOCK_RECORD
  5
1B
330
1
100
AcDbSymbolTableRecord
100
AcDbBlockTableRecord
  2
*Paper_Space
340
1E
 70
     0
280
     1
281
     0
  0
BLOCK_RECORD
  5
23
330
1
100
AcDbSymbolTableRecord
100
AcDbBlockTableRecord
  2
*Paper_Space0
340
26
 70
     0
280
     1
281
     0
  0
BLOCK_RECORD
  5
41
330
1
100
AcDbSymbolTableRecord
100
AcDbBlockTableRecord
  2
block 2
340
0
102
{BLKREFS
331
42
102
}
 70
     0
280
     1
281
     0
  0
ENDTAB
  0
ENDSEC
  0
SECTION
  2
BLOCKS
  0
BLOCK
  5
20
330
1F
100
AcDbEntity
  8
0
100
AcDbBlockBegin
  2
*Model_Space
 70
     0
 10
0.0
 20
0.0
 30
0.0
  3
*Model_Space
  1

  0
ENDBLK
  5
21
330
1F
100
AcDbEntity
  8
0
100
AcDbBlockEnd
  0
BLOCK
  5
1C
330
1B
100
AcDbEntity
 67
     1
  8
0
100
AcDbBlockBegin
  2
*Paper_Space
 70
     0
 10
0.0
 20
0.0
 30
0.0
  3
*Paper_Space
  1

  0
ENDBLK
  5
1D
330
1B
100
AcDbEntity
 67
     1
  8
0
100
AcDbBlockEnd
  0
BLOCK
  5
24
330
23
100
AcDbEntity
  8
0
100
AcDbBlockBegin
  2
*Paper_Space0
 70
     0
 10
0.0
 20
0.0
 30
0.0
  3
*Paper_Space0
  1

  0
ENDBLK
  5
25
330
23
100
AcDbEntity
  8
0
100
AcDbBlockEnd
  0
BLOCK
  5
43
330
41
100
AcDbEntity
  8
0
100
AcDbBlockBegin
  2
block 2
 70
     0
 10
0.0
 20
0.0
 30
0.0
  3
block 2
  1

  0
SPLINE
  5
45
330
41
100
AcDbEntity
  8
katman 1
370
     0
100
AcDbSpline
210
0.0
220
0.0
230
1.0
 70
    11
 71
     3
 72
    44
 73
    40
 74
     0
 42
0.0000000001
 43
0.0000000001
 12
1.0
 22
0.0
 32
0.0
 13
1.0
 23
0.0
 33
0.0
 40
0.0
 40
0.0
 40
0.0
 40
0.0
 40
1.0
 40
1.0
 40
1.0
 40
2.0
 40
2.0
 40
2.0
 40
3.0
 40
3.0
 40
3.0
 40
4.0
 40
4.0
 40
4.0
 40
5.0
 40
5.0
 40
5.0
 40
6.0
 40
6.0
 40
6.0
 40
7.0
 40
7.0
 40
7.0
 40
8.0
 40
8.0
 40
8.0
 40
9.0
 40
9.0
 40
9.0
 40
10.0
 40
10.0
 40
10.0
 40
11.0
 40
11.0
 40
11.0
 40
12.0
 40
12.0
 40
12.0
 40
13.0
 40
13.0
 40
13.0
 40
13.0
 10
992.7384079564636
 20
-635.2170895254521
 30
0.0
 10
877.9885353497602
 20
-641.7208701838563
 30
0.0
 10
771.9318349102314
 20
-694.0086909227139
 30
0.0
 10
698.4584316306309
 20
-780.3608677833136
 30
0.0
 10
648.5531840042586
 20
-839.0236814447653
 30
0.0
 10
616.7426132591909
 20
-911.2092073662661
 30
0.0
 10
607.6630778845865
 20
-986.614426683017
 30
0.0
 10
605.6024741116262
 20
-1003.807589413651
 30
0.0
 10
605.0873231683863
 20
-1012.95151865616
 30
0.0
 10
605.0873231683863
 20
-1033.750737989474
 30
0.0
 10
605.0873231683863
 20
-1054.549957322788
 30
0.0
 10
605.6024741116262
 20
-1063.693886565297
 30
0.0
 10
607.6630778845865
 20
-1080.887049295932
 30
0.0
 10
618.4168538247204
 20
-1170.136950212256
 30
0.0
 10
660.4660495666831
 20
-1253.527009149228
 30
0.0
 10
726.7917335088296
 20
-1317.212544507269
 30
0.0
 10
793.56817452631
 20
-1381.28444307274
 30
0.0
 10
880.8218655375804
 20
-1421.530610513362
 30
0.0
 10
973.0982782454403
 20
-1430.674539755872
 30
0.0
 10
1065.761054160728
 20
-1439.947256734191
 30
0.0
 10
1155.71928762401
 20
-1420.049551551547
 30
0.0
 10
1234.215412600199
 20
-1372.977634112995
 30
0.0
 10
1331.514547004648
 20
-1314.572395923164
 30
0.0
 10
1400.09401632347
 20
-1218.045987933574
 30
0.0
 10
1421.537174335834
 20
-1109.413532777846
 30
0.0
 10
1426.817471504044
 20
-1082.754471465178
 30
0.0
 10
1428.684893673289
 20
-1062.921160150438
 30
0.0
 10
1428.684893673289
 20
-1033.750737989474
 30
0.0
 10
1428.684893673289
 20
-1012.95151865616
 30
0.0
 10
1428.16974273005
 20
-1003.807589413651
 30
0.0
 10
1426.10913895709
 20
-986.614426683017
 30
0.0
 10
1419.991721506114
 20
-936.2584219813098
 30
0.0
 10
1403.571285190341
 20
-886.4819620907474
 30
0.0
 10
1378.393282839486
 20
-841.9857993683954
 30
0.0
 10
1320.631983328705
 20
-740.1147003426913
 30
0.0
 10
1219.469216849957
 20
-667.1564480063298
 30
0.0
 10
1102.851922074007
 20
-643.2663230135768
 30
0.0
 10
1067.04893151883
 20
-635.9898159403119
 30
0.0
 10
1028.863367851167
 20
-633.1564857524918
 30
0.0
 10
992.7384079564636
 20
-635.2170895254521
 30
0.0
  0
SPLINE
  5
46
330
41
100
AcDbEntity
  8
katman 1
370
     0
100
AcDbSpline
210
0.0
220
0.0
230
1.0
 70
    11
 71
     3
 72
    65
 73
    61
 74
     0
 42
0.0000000001
 43
0.0000000001
 12
1.0
 22
0.0
 32
0.0
 13
1.0
 23
0.0
 33
0.0
 40
0.0
 40
0.0
 40
0.0
 40
0.0
 40
1.0
 40
1.0
 40
1.0
 40
2.0
 40
2.0
 40
2.0
 40
3.0
 40
3.0
 40
3.0
 40
4.0
 40
4.0
 40
4.0
 40
5.0
 40
5.0
 40
5.0
 40
6.0
 40
6.0
 40
6.0
 40
7.0
 40
7.0
 40
7.0
 40
8.0
 40
8.0
 40
8.0
 40
9.0
 40
9.0
 40
9.0
 40
10.0
 40
10.0
 40
10.0
 40
11.0
 40
11.0
 40
11.0
 40
12.0
 40
12.0
 40
12.0
 40
13.0
 40
13.0
 40
13.0
 40
14.0
 40
14.0
 40
14.0
 40
15.0
 40
15.0
 40
15.0
 40
16.0
 40
16.0
 40
16.0
 40
17.0
 40
17.0
 40
17.0
 40
18.0
 40
18.0
 40
18.0
 40
19.0
 40
19.0
 40
19.0
 40
20.0
 40
20.0
 40
20.0
 40
20.0
 10
1051.014858410486
 20
-715.9026060104125
 30
0.0
 10
1102.272377262863
 20
-722.0844173292917
 30
0.0
 10
1146.253389041975
 20
-737.6033394943961
 30
0.0
 10
1187.207889029552
 20
-763.8116437317294
 30
0.0
 10
1195.257122517676
 20
-768.9631531641289
 30
0.0
 10
1208.135896098676
 20
-778.1714762745432
 30
0.0
 10
1208.135896098676
 20
-778.751021085689
 30
0.0
 10
1208.135896098676
 20
-778.9442026894039
 30
0.0
 10
1159.325344226691
 20
-829.5577828627311
 30
0.0
 10
1099.632228678758
 20
-891.182714447812
 30
0.0
 10
1099.632228678758
 20
-891.182714447812
 30
0.0
 10
991.064167390934
 20
-1003.163650734601
 30
0.0
 10
991.064167390934
 20
-1003.163650734601
 30
0.0
 10
991.064167390934
 20
-1003.163650734601
 30
0.0
 10
980.95433012985
 20
-1004.644709696415
 30
0.0
 10
980.95433012985
 20
-1004.644709696415
 30
0.0
 10
936.651349011212
 20
-1011.019702619011
 30
0.0
 10
906.9013820391037
 20
-1016.686362994649
 30
0.0
 10
874.8976296903211
 20
-1024.735596482775
 30
0.0
 10
858.8635565819768
 20
-1028.79241016079
 30
0.0
 10
839.7385778141925
 20
-1034.84543374386
 30
0.0
 10
835.6173702682727
 20
-1037.163612988439
 30
0.0
 10
832.7840400804535
 20
-1038.773459686065
 30
0.0
 10
829.8863160247283
 20
-1042.508304024554
 30
0.0
 10
830.4658608358732
 20
-1043.924969118463
 30
0.0
 10
830.6590424395881
 20
-1044.440120061703
 30
0.0
 10
830.3370731000632
 20
-1053.133292228878
 30
0.0
 10
829.7575282889184
 20
-1063.307523357867
 30
0.0
 10
828.2120754591988
 20
-1090.674917217491
 30
0.0
 10
828.2120754591988
 20
-1090.352947877967
 30
0.0
 10
835.1666131929378
 20
-1112.440044569379
 30
0.0
 10
838.3863065881878
 20
-1122.549881830464
 30
0.0
 10
841.219636776008
 20
-1132.208962016213
 30
0.0
 10
841.4128183797229
 20
-1133.754414845935
 30
0.0
 10
841.9923631908678
 20
-1137.489259184424
 30
0.0
 10
844.8256933786879
 20
-1140.258195504339
 30
0.0
 10
849.9772028110874
 20
-1142.125617673584
 30
0.0
 10
852.0378065840468
 20
-1142.898344088444
 30
0.0
 10
853.8408348853873
 20
-1143.799858239112
 30
0.0
 10
853.9052287532922
 20
-1144.057433710734
 30
0.0
 10
854.0340164891022
 20
-1144.572584653974
 30
0.0
 10
769.2916863261271
 20
-1232.277032740578
 30
0.0
 10
768.3901721754564
 20
-1232.599002080104
 30
0.0
 10
767.7462334964066
 20
-1232.792183683818
 30
0.0
 10
758.7954858576122
 20
-1220.750530385583
 30
0.0
 10
752.2917051992081
 20
-1211.027056331928
 30
0.0
 10
714.7500802105951
 20
-1154.489240311343
 30
0.0
 10
695.9470707823357
 20
-1086.553709671571
 30
0.0
 10
699.2955519133957
 20
-1019.64848091828
 30
0.0
 10
700.9697924789261
 20
-986.2924573434921
 30
0.0
 10
706.1213019113256
 20
-959.1826389554881
 30
0.0
 10
716.4243207761247
 20
-929.1107026438549
 30
0.0
 10
749.8447382188178
 20
-831.4895988998805
 30
0.0
 10
829.9507098926333
 20
-755.118471564555
 30
0.0
 10
928.6665093909924
 20
-726.5919880826414
 30
0.0
 10
948.5642145736365
 20
-720.860933839097
 30
0.0
 10
970.586917397145
 20
-716.8041201610822
 30
0.0
 10
991.7724999378888
 20
-715.0010918597427
 30
0.0
 10
1002.139912670595
 20
-714.1639715769779
 30
0.0
 10
1041.484565960545
 20
-714.7435163881228
 30
0.0
 10
1051.014858410486
 20
-715.9026060104125
 30
0.0
  0
SPLINE
  5
47
330
41
100
AcDbEntity
  8
katman 1
370
     0
100
AcDbSpline
210
0.0
220
0.0
230
1.0
 70
    11
 71
     3
 72
    62
 73
    58
 74
     0
 42
0.0000000001
 43
0.0000000001
 12
1.0
 22
0.0
 32
0.0
 13
1.0
 23
0.0
 33
0.0
 40
0.0
 40
0.0
 40
0.0
 40
0.0
 40
1.0
 40
1.0
 40
1.0
 40
2.0
 40
2.0
 40
2.0
 40
3.0
 40
3.0
 40
3.0
 40
4.0
 40
4.0
 40
4.0
 40
5.0
 40
5.0
 40
5.0
 40
6.0
 40
6.0
 40
6.0
 40
7.0
 40
7.0
 40
7.0
 40
8.0
 40
8.0
 40
8.0
 40
9.0
 40
9.0
 40
9.0
 40
10.0
 40
10.0
 40
10.0
 40
11.0
 40
11.0
 40
11.0
 40
12.0
 40
12.0
 40
12.0
 40
13.0
 40
13.0
 40
13.0
 40
14.0
 40
14.0
 40
14.0
 40
15.0
 40
15.0
 40
15.0
 40
16.0
 40
16.0
 40
16.0
 40
17.0
 40
17.0
 40
17.0
 40
18.0
 40
18.0
 40
18.0
 40
19.0
 40
19.0
 40
19.0
 40
19.0
 10
1263.321440893258
 20
-831.6827805035955
 30
0.0
 10
1282.832782868471
 20
-855.5085116284445
 30
0.0
 10
1300.154733334915
 20
-884.9365092610278
 30
0.0
 10
1311.93881116153
 20
-914.3001130257062
 30
0.0
 10
1331.965304079986
 20
-964.1409667841726
 30
0.0
 10
1339.048629549532
 20
-1019.712874786184
 30
0.0
 10
1332.41606115532
 20
-1073.674936090572
 30
0.0
 10
1317.541077669266
 20
-1193.640711997581
 30
0.0
 10
1235.825259297824
 20
-1295.254235551663
 30
0.0
 10
1121.912506973888
 20
-1335.500402992287
 30
0.0
 10
1095.897384340267
 20
-1344.708726102701
 30
0.0
 10
1068.143627273213
 20
-1350.439780346245
 30
0.0
 10
1039.488356055492
 20
-1352.564777987111
 30
0.0
 10
1018.753530590082
 20
-1354.045836948926
 30
0.0
 10
988.1664433352089
 20
-1352.822353458731
 30
0.0
 10
967.6247994735149
 20
-1349.538266195575
 30
0.0
 10
913.2763749616979
 20
-1340.973881764212
 30
0.0
 10
862.4052193167518
 20
-1318.500421865368
 30
0.0
 10
818.6817830092587
 20
-1283.792127064575
 30
0.0
 10
818.6817830092587
 20
-1283.792127064575
 30
0.0
 10
817.265117915349
 20
-1282.633037442285
 30
0.0
 10
817.265117915349
 20
-1282.633037442285
 30
0.0
 10
817.265117915349
 20
-1282.633037442285
 30
0.0
 10
882.3673183673
 20
-1215.470233217373
 30
0.0
 10
882.3673183673
 20
-1215.470233217373
 30
0.0
 10
918.1703089224784
 20
-1178.508153039906
 30
0.0
 10
948.0490636303966
 20
-1148.049853520843
 30
0.0
 10
948.8217900452564
 20
-1147.792278049223
 30
0.0
 10
949.5945164601162
 20
-1147.470308709697
 30
0.0
 10
952.6854221195563
 20
-1147.083945502269
 30
0.0
 10
955.7119339110914
 20
-1146.826370030649
 30
0.0
 10
973.4202475849652
 20
-1145.345311068833
 30
0.0
 10
1008.128542385759
 20
-1140.000620032719
 30
0.0
 10
1033.242150868708
 20
-1134.849110600318
 30
0.0
 10
1079.02619094916
 20
-1125.447605886189
 30
0.0
 10
1120.43144801207
 20
-1114.049891267005
 30
0.0
 10
1176.904870164753
 20
-1095.311275706652
 30
0.0
 10
1243.616917314328
 20
-1073.095391279428
 30
0.0
 10
1278.711575322552
 20
-1057.834044585943
 30
0.0
 10
1290.624440884978
 20
-1045.985572891423
 30
0.0
 10
1297.77216022243
 20
-1038.837853553969
 30
0.0
 10
1298.222917297768
 20
-1031.561346480703
 30
0.0
 10
1291.97671211098
 20
-1025.894686105064
 30
0.0
 10
1281.609299378277
 20
-1016.557575258841
 30
0.0
 10
1259.715384290579
 20
-1012.30757997711
 30
0.0
 10
1172.075330071879
 20
-1002.519712055551
 30
0.0
 10
1133.889766404216
 20
-998.3341106417265
 30
0.0
 10
1127.707955085336
 20
-997.7545658305808
 30
0.0
 10
1109.098127260793
 20
-997.2394148873409
 30
0.0
 10
1101.242075376384
 20
-997.046233283626
 30
0.0
 10
1094.867082453788
 20
-996.6598700761961
 30
0.0
 10
1094.931476321693
 20
-996.3379007366711
 30
0.0
 10
1095.253445661217
 20
-995.6295681897163
 30
0.0
 10
1258.620688536193
 20
-827.0464220144358
 30
0.0
 10
1259.071445611527
 20
-827.0464220144358
 30
0.0
 10
1259.329021083147
 20
-827.0464220144358
 30
0.0
 10
1261.196443252393
 20
-829.1714196553003
 30
0.0
 10
1263.321440893258
 20
-831.6827805035955
 30
0.0
  0
HATCH
  5
48
330
41
100
AcDbEntity
  8
katman 1
 62
     1
420
 15269894
100
AcDbHatch
 10
0.0
 20
0.0
 30
0.0
210
0.0
220
0.0
230
1.0
  2
SOLID
 70
     1
 71
     0
 91
        3
 92
        1
 93
        1
 72
     4
 94
        3
 73
     0
 74
     1
 95
       44
 96
       40
 40
0.0
 40
0.0
 40
0.0
 40
0.0
 40
1.0
 40
1.0
 40
1.0
 40
2.0
 40
2.0
 40
2.0
 40
3.0
 40
3.0
 40
3.0
 40
4.0
 40
4.0
 40
4.0
 40
5.0
 40
5.0
 40
5.0
 40
6.0
 40
6.0
 40
6.0
 40
7.0
 40
7.0
 40
7.0
 40
8.0
 40
8.0
 40
8.0
 40
9.0
 40
9.0
 40
9.0
 40
10.0
 40
10.0
 40
10.0
 40
11.0
 40
11.0
 40
11.0
 40
12.0
 40
12.0
 40
12.0
 40
13.0
 40
13.0
 40
13.0
 40
13.0
 10
992.7384079564636
 20
-635.2170895254521
 10
877.9885353497602
 20
-641.7208701838563
 10
771.9318349102314
 20
-694.0086909227139
 10
698.4584316306309
 20
-780.3608677833136
 10
648.5531840042586
 20
-839.0236814447653
 10
616.7426132591909
 20
-911.2092073662661
 10
607.6630778845865
 20
-986.614426683017
 10
605.6024741116262
 20
-1003.807589413651
 10
605.0873231683863
 20
-1012.95151865616
 10
605.0873231683863
 20
-1033.750737989474
 10
605.0873231683863
 20
-1054.549957322788
 10
605.6024741116262
 20
-1063.693886565297
 10
607.6630778845865
 20
-1080.887049295932
 10
618.4168538247204
 20
-1170.136950212256
 10
660.4660495666831
 20
-1253.527009149228
 10
726.7917335088296
 20
-1317.212544507269
 10
793.56817452631
 20
-1381.28444307274
 10
880.8218655375804
 20
-1421.530610513362
 10
973.0982782454403
 20
-1430.674539755872
 10
1065.761054160728
 20
-1439.947256734191
 10
1155.71928762401
 20
-1420.049551551547
 10
1234.215412600199
 20
-1372.977634112995
 10
1331.514547004648
 20
-1314.572395923164
 10
1400.09401632347
 20
-1218.045987933574
 10
1421.537174335834
 20
-1109.413532777846
 10
1426.817471504044
 20
-1082.754471465178
 10
1428.684893673289
 20
-1062.921160150438
 10
1428.684893673289
 20
-1033.750737989474
 10
1428.684893673289
 20
-1012.95151865616
 10
1428.16974273005
 20
-1003.807589413651
 10
1426.10913895709
 20
-986.614426683017
 10
1419.991721506114
 20
-936.2584219813098
 10
1403.571285190341
 20
-886.4819620907474
 10
1378.393282839486
 20
-841.9857993683954
 10
1320.631983328705
 20
-740.1147003426913
 10
1219.469216849957
 20
-667.1564480063298
 10
1102.851922074007
 20
-643.2663230135768
 10
1067.04893151883
 20
-635.9898159403119
 10
1028.863367851167
 20
-633.1564857524918
 10
992.7384079564636
 20
-635.2170895254521
 97
        0
 97
        0
 92
        1
 93
        1
 72
     4
 94
        3
 73
     0
 74
     1
 95
       65
 96
       61
 40
0.0
 40
0.0
 40
0.0
 40
0.0
 40
1.0
 40
1.0
 40
1.0
 40
2.0
 40
2.0
 40
2.0
 40
3.0
 40
3.0
 40
3.0
 40
4.0
 40
4.0
 40
4.0
 40
5.0
 40
5.0
 40
5.0
 40
6.0
 40
6.0
 40
6.0
 40
7.0
 40
7.0
 40
7.0
 40
8.0
 40
8.0
 40
8.0
 40
9.0
 40
9.0
 40
9.0
 40
10.0
 40
10.0
 40
10.0
 40
11.0
 40
11.0
 40
11.0
 40
12.0
 40
12.0
 40
12.0
 40
13.0
 40
13.0
 40
13.0
 40
14.0
 40
14.0
 40
14.0
 40
15.0
 40
15.0
 40
15.0
 40
16.0
 40
16.0
 40
16.0
 40
17.0
 40
17.0
 40
17.0
 40
18.0
 40
18.0
 40
18.0
 40
19.0
 40
19.0
 40
19.0
 40
20.0
 40
20.0
 40
20.0
 40
20.0
 10
1051.014858410486
 20
-715.9026060104125
 10
1102.272377262863
 20
-722.0844173292917
 10
1146.253389041975
 20
-737.6033394943961
 10
1187.207889029552
 20
-763.8116437317294
 10
1195.257122517676
 20
-768.9631531641289
 10
1208.135896098676
 20
-778.1714762745432
 10
1208.135896098676
 20
-778.751021085689
 10
1208.135896098676
 20
-778.9442026894039
 10
1159.325344226691
 20
-829.5577828627311
 10
1099.632228678758
 20
-891.182714447812
 10
1099.632228678758
 20
-891.182714447812
 10
991.064167390934
 20
-1003.163650734601
 10
991.064167390934
 20
-1003.163650734601
 10
991.064167390934
 20
-1003.163650734601
 10
980.95433012985
 20
-1004.644709696415
 10
980.95433012985
 20
-1004.644709696415
 10
936.651349011212
 20
-1011.019702619011
 10
906.9013820391037
 20
-1016.686362994649
 10
874.8976296903211
 20
-1024.735596482775
 10
858.8635565819768
 20
-1028.79241016079
 10
839.7385778141925
 20
-1034.84543374386
 10
835.6173702682727
 20
-1037.163612988439
 10
832.7840400804535
 20
-1038.773459686065
 10
829.8863160247283
 20
-1042.508304024554
 10
830.4658608358732
 20
-1043.924969118463
 10
830.6590424395881
 20
-1044.440120061703
 10
830.3370731000632
 20
-1053.133292228878
 10
829.7575282889184
 20
-1063.307523357867
 10
828.2120754591988
 20
-1090.674917217491
 10
828.2120754591988
 20
-1090.352947877967
 10
835.1666131929378
 20
-1112.440044569379
 10
838.3863065881878
 20
-1122.549881830464
 10
841.219636776008
 20
-1132.208962016213
 10
841.4128183797229
 20
-1133.754414845935
 10
841.9923631908678
 20
-1137.489259184424
 10
844.8256933786879
 20
-1140.258195504339
 10
849.9772028110874
 20
-1142.125617673584
 10
852.0378065840468
 20
-1142.898344088444
 10
853.8408348853873
 20
-1143.799858239112
 10
853.9052287532922
 20
-1144.057433710734
 10
854.0340164891022
 20
-1144.572584653974
 10
769.2916863261271
 20
-1232.277032740578
 10
768.3901721754564
 20
-1232.599002080104
 10
767.7462334964066
 20
-1232.792183683818
 10
758.7954858576122
 20
-1220.750530385583
 10
752.2917051992081
 20
-1211.027056331928
 10
714.7500802105951
 20
-1154.489240311343
 10
695.9470707823357
 20
-1086.553709671571
 10
699.2955519133957
 20
-1019.64848091828
 10
700.9697924789261
 20
-986.2924573434921
 10
706.1213019113256
 20
-959.1826389554881
 10
716.4243207761247
 20
-929.1107026438549
 10
749.8447382188178
 20
-831.4895988998805
 10
829.9507098926333
 20
-755.118471564555
 10
928.6665093909924
 20
-726.5919880826414
 10
948.5642145736365
 20
-720.860933839097
 10
970.586917397145
 20
-716.8041201610822
 10
991.7724999378888
 20
-715.0010918597427
 10
1002.139912670595
 20
-714.1639715769779
 10
1041.484565960545
 20
-714.7435163881228
 10
1051.014858410486
 20
-715.9026060104125
 97
        0
 97
        0
 92
        1
 93
        1
 72
     4
 94
        3
 73
     0
 74
     1
 95
       62
 96
       58
 40
0.0
 40
0.0
 40
0.0
 40
0.0
 40
1.0
 40
1.0
 40
1.0
 40
2.0
 40
2.0
 40
2.0
 40
3.0
 40
3.0
 40
3.0
 40
4.0
 40
4.0
 40
4.0
 40
5.0
 40
5.0
 40
5.0
 40
6.0
 40
6.0
 40
6.0
 40
7.0
 40
7.0
 40
7.0
 40
8.0
 40
8.0
 40
8.0
 40
9.0
 40
9.0
 40
9.0
 40
10.0
 40
10.0
 40
10.0
 40
11.0
 40
11.0
 40
11.0
 40
12.0
 40
12.0
 40
12.0
 40
13.0
 40
13.0
 40
13.0
 40
14.0
 40
14.0
 40
14.0
 40
15.0
 40
15.0
 40
15.0
 40
16.0
 40
16.0
 40
16.0
 40
17.0
 40
17.0
 40
17.0
 40
18.0
 40
18.0
 40
18.0
 40
19.0
 40
19.0
 40
19.0
 40
19.0
 10
1263.321440893258
 20
-831.6827805035955
 10
1282.832782868471
 20
-855.5085116284445
 10
1300.154733334915
 20
-884.9365092610278
 10
1311.93881116153
 20
-914.3001130257062
 10
1331.965304079986
 20
-964.1409667841726
 10
1339.048629549532
 20
-1019.712874786184
 10
1332.41606115532
 20
-1073.674936090572
 10
1317.541077669266
 20
-1193.640711997581
 10
1235.825259297824
 20
-1295.254235551663
 10
1121.912506973888
 20
-1335.500402992287
 10
1095.897384340267
 20
-1344.708726102701
 10
1068.143627273213
 20
-1350.439780346245
 10
1039.488356055492
 20
-1352.564777987111
 10
1018.753530590082
 20
-1354.045836948926
 10
988.1664433352089
 20
-1352.822353458731
 10
967.6247994735149
 20
-1349.538266195575
 10
913.2763749616979
 20
-1340.973881764212
 10
862.4052193167518
 20
-1318.500421865368
 10
818.6817830092587
 20
-1283.792127064575
 10
818.6817830092587
 20
-1283.792127064575
 10
817.265117915349
 20
-1282.633037442285
 10
817.265117915349
 20
-1282.633037442285
 10
817.265117915349
 20
-1282.633037442285
 10
882.3673183673
 20
-1215.470233217373
 10
882.3673183673
 20
-1215.470233217373
 10
918.1703089224784
 20
-1178.508153039906
 10
948.0490636303966
 20
-1148.049853520843
 10
948.8217900452564
 20
-1147.792278049223
 10
949.5945164601162
 20
-1147.470308709697
 10
952.6854221195563
 20
-1147.083945502269
 10
955.7119339110914
 20
-1146.826370030649
 10
973.4202475849652
 20
-1145.345311068833
 10
1008.128542385759
 20
-1140.000620032719
 10
1033.242150868708
 20
-1134.849110600318
 10
1079.02619094916
 20
-1125.447605886189
 10
1120.43144801207
 20
-1114.049891267005
 10
1176.904870164753
 20
-1095.311275706652
 10
1243.616917314328
 20
-1073.095391279428
 10
1278.711575322552
 20
-1057.834044585943
 10
1290.624440884978
 20
-1045.985572891423
 10
1297.77216022243
 20
-1038.837853553969
 10
1298.222917297768
 20
-1031.561346480703
 10
1291.97671211098
 20
-1025.894686105064
 10
1281.609299378277
 20
-1016.557575258841
 10
1259.715384290579
 20
-1012.30757997711
 10
1172.075330071879
 20
-1002.519712055551
 10
1133.889766404216
 20
-998.3341106417265
 10
1127.707955085336
 20
-997.7545658305808
 10
1109.098127260793
 20
-997.2394148873409
 10
1101.242075376384
 20
-997.046233283626
 10
1094.867082453788
 20
-996.6598700761961
 10
1094.931476321693
 20
-996.3379007366711
 10
1095.253445661217
 20
-995.6295681897163
 10
1258.620688536193
 20
-827.0464220144358
 10
1259.071445611527
 20
-827.0464220144358
 10
1259.329021083147
 20
-827.0464220144358
 10
1261.196443252393
 20
-829.1714196553003
 10
1263.321440893258
 20
-831.6827805035955
 97
        0
 97
        0
 75
     2
 76
     1
 98
        0
  0
SPLINE
  5
49
330
41
100
AcDbEntity
  8
katman 1
370
     0
100
AcDbSpline
210
0.0
220
0.0
230
1.0
 70
    11
 71
     3
 72
    53
 73
    49
 74
     0
 42
0.0000000001
 43
0.0000000001
 12
1.0
 22
0.0
 32
0.0
 13
1.0
 23
0.0
 33
0.0
 40
0.0
 40
0.0
 40
0.0
 40
0.0
 40
1.0
 40
1.0
 40
1.0
 40
2.0
 40
2.0
 40
2.0
 40
3.0
 40
3.0
 40
3.0
 40
4.0
 40
4.0
 40
4.0
 40
5.0
 40
5.0
 40
5.0
 40
6.0
 40
6.0
 40
6.0
 40
7.0
 40
7.0
 40
7.0
 40
8.0
 40
8.0
 40
8.0
 40
9.0
 40
9.0
 40
9.0
 40
10.0
 40
10.0
 40
10.0
 40
11.0
 40
11.0
 40
11.0
 40
12.0
 40
12.0
 40
12.0
 40
13.0
 40
13.0
 40
13.0
 40
14.0
 40
14.0
 40
14.0
 40
15.0
 40
15.0
 40
15.0
 40
16.0
 40
16.0
 40
16.0
 40
16.0
 10
806.897705182645
 20
-911.1448134983611
 30
0.0
 10
806.897705182645
 20
-911.1448134983611
 30
0.0
 10
801.9393773539596
 20
-912.6902663280807
 30
0.0
 10
801.9393773539596
 20
-912.6902663280807
 30
0.0
 10
801.9393773539596
 20
-912.6902663280807
 30
0.0
 10
803.806799523205
 20
-918.6145021753409
 30
0.0
 10
803.806799523205
 20
-918.6145021753409
 30
0.0
 10
807.6060377295998
 20
-930.7849432093844
 30
0.0
 10
808.6363396160796
 20
-941.7319007532342
 30
0.0
 10
806.5757358431192
 20
-949.6523465055488
 30
0.0
 10
806.0605848998794
 20
-951.7773441464142
 30
0.0
 10
804.3219504664448
 20
-956.4137026355729
 30
0.0
 10
802.7121037688203
 20
-959.8265776345379
 30
0.0
 10
801.1666509390998
 20
-963.3038465014079
 30
0.0
 10
799.4280165056653
 20
-967.7470233868526
 30
0.0
 10
798.8484716945204
 20
-969.8076271598129
 30
0.0
 10
797.2386249968949
 20
-975.5386814033573
 30
0.0
 10
796.981049525275
 20
-985.9704880039662
 30
0.0
 10
798.2045330154697
 20
-993.1182073414211
 30
0.0
 10
799.4924103735702
 20
-1000.523502150496
 30
0.0
 10
803.0340731083452
 20
-1011.406065826441
 30
0.0
 10
803.9999811269199
 20
-1011.019702619011
 30
0.0
 10
804.3863443343498
 20
-1010.826521015295
 30
0.0
 10
806.6401297110251
 20
-1009.925006864625
 30
0.0
 10
809.0227028235095
 20
-1008.959098846051
 30
0.0
 10
809.0227028235095
 20
-1008.959098846051
 30
0.0
 10
813.3370919731442
 20
-1007.220464412616
 30
0.0
 10
813.3370919731442
 20
-1007.220464412616
 30
0.0
 10
813.3370919731442
 20
-1007.220464412616
 30
0.0
 10
812.0492146150445
 20
-1003.936377149461
 30
0.0
 10
812.0492146150445
 20
-1003.936377149461
 30
0.0
 10
809.5378537667493
 20
-997.5613842268658
 30
0.0
 10
808.2499764086497
 20
-990.6068464931268
 30
0.0
 10
808.2499764086497
 20
-983.201551684052
 30
0.0
 10
808.3143702765547
 20
-974.5083795168775
 30
0.0
 10
808.8295212197945
 20
-971.9970186685823
 30
0.0
 10
812.4355778224744
 20
-964.0765729162677
 30
0.0
 10
816.8787547079191
 20
-954.3530988626135
 30
0.0
 10
818.1666320660188
 20
-949.137195562309
 30
0.0
 10
818.1666320660188
 20
-940.0576601877046
 30
0.0
 10
818.1666320660188
 20
-935.8076649059749
 30
0.0
 10
817.7802688585889
 20
-930.5917616056704
 30
0.0
 10
817.329511783254
 20
-928.4667639648051
 30
0.0
 10
816.2348160288693
 20
-923.1864667965956
 30
0.0
 10
812.6931532940944
 20
-910.5008748193113
 30
0.0
 10
812.1780023508545
 20
-910.0501177439764
 30
0.0
 10
811.9848207471396
 20
-909.7925422723565
 30
0.0
 10
809.6022476346543
 20
-910.3076932155964
 30
0.0
 10
806.897705182645
 20
-911.1448134983611
 30
0.0
  0
HATCH
  5
4A
330
41
100
AcDbEntity
  8
katman 1
 62
    96
420
    32768
100
AcDbHatch
 10
0.0
 20
0.0
 30
0.0
210
0.0
220
0.0
230
1.0
  2
SOLID
 70
     1
 71
     0
 91
        1
 92
        1
 93
        1
 72
     4
 94
        3
 73
     0
 74
     1
 95
       53
 96
       49
 40
0.0
 40
0.0
 40
0.0
 40
0.0
 40
1.0
 40
1.0
 40
1.0
 40
2.0
 40
2.0
 40
2.0
 40
3.0
 40
3.0
 40
3.0
 40
4.0
 40
4.0
 40
4.0
 40
5.0
 40
5.0
 40
5.0
 40
6.0
 40
6.0
 40
6.0
 40
7.0
 40
7.0
 40
7.0
 40
8.0
 40
8.0
 40
8.0
 40
9.0
 40
9.0
 40
9.0
 40
10.0
 40
10.0
 40
10.0
 40
11.0
 40
11.0
 40
11.0
 40
12.0
 40
12.0
 40
12.0
 40
13.0
 40
13.0
 40
13.0
 40
14.0
 40
14.0
 40
14.0
 40
15.0
 40
15.0
 40
15.0
 40
16.0
 40
16.0
 40
16.0
 40
16.0
 10
806.897705182645
 20
-911.1448134983611
 10
806.897705182645
 20
-911.1448134983611
 10
801.9393773539596
 20
-912.6902663280807
 10
801.9393773539596
 20
-912.6902663280807
 10
801.9393773539596
 20
-912.6902663280807
 10
803.806799523205
 20
-918.6145021753409
 10
803.806799523205
 20
-918.6145021753409
 10
807.6060377295998
 20
-930.7849432093844
 10
808.6363396160796
 20
-941.7319007532342
 10
806.5757358431192
 20
-949.6523465055488
 10
806.0605848998794
 20
-951.7773441464142
 10
804.3219504664448
 20
-956.4137026355729
 10
802.7121037688203
 20
-959.8265776345379
 10
801.1666509390998
 20
-963.3038465014079
 10
799.4280165056653
 20
-967.7470233868526
 10
798.8484716945204
 20
-969.8076271598129
 10
797.2386249968949
 20
-975.5386814033573
 10
796.981049525275
 20
-985.9704880039662
 10
798.2045330154697
 20
-993.1182073414211
 10
799.4924103735702
 20
-1000.523502150496
 10
803.0340731083452
 20
-1011.406065826441
 10
803.9999811269199
 20
-1011.019702619011
 10
804.3863443343498
 20
-1010.826521015295
 10
806.6401297110251
 20
-1009.925006864625
 10
809.0227028235095
 20
-1008.959098846051
 10
809.0227028235095
 20
-1008.959098846051
 10
813.3370919731442
 20
-1007.220464412616
 10
813.3370919731442
 20
-1007.220464412616
 10
813.3370919731442
 20
-1007.220464412616
 10
812.0492146150445
 20
-1003.936377149461
 10
812.0492146150445
 20
-1003.936377149461
 10
809.5378537667493
 20
-997.5613842268658
 10
808.2499764086497
 20
-990.6068464931268
 10
808.2499764086497
 20
-983.201551684052
 10
808.3143702765547
 20
-974.5083795168775
 10
808.8295212197945
 20
-971.9970186685823
 10
812.4355778224744
 20
-964.0765729162677
 10
816.8787547079191
 20
-954.3530988626135
 10
818.1666320660188
 20
-949.137195562309
 10
818.1666320660188
 20
-940.0576601877046
 10
818.1666320660188
 20
-935.8076649059749
 10
817.7802688585889
 20
-930.5917616056704
 10
817.329511783254
 20
-928.4667639648051
 10
816.2348160288693
 20
-923.1864667965956
 10
812.6931532940944
 20
-910.5008748193113
 10
812.1780023508545
 20
-910.0501177439764
 10
811.9848207471396
 20
-909.7925422723565
 10
809.6022476346543
 20
-910.3076932155964
 10
806.897705182645
 20
-911.1448134983611
 97
        0
 97
        0
 75
     2
 76
     1
 98
        0
  0
SPLINE
  5
4B
330
41
100
AcDbEntity
  8
katman 1
370
     0
100
AcDbSpline
210
0.0
220
0.0
230
1.0
 70
    11
 71
     3
 72
    44
 73
    40
 74
     0
 42
0.0000000001
 43
0.0000000001
 12
1.0
 22
0.0
 32
0.0
 13
1.0
 23
0.0
 33
0.0
 40
0.0
 40
0.0
 40
0.0
 40
0.0
 40
1.0
 40
1.0
 40
1.0
 40
2.0
 40
2.0
 40
2.0
 40
3.0
 40
3.0
 40
3.0
 40
4.0
 40
4.0
 40
4.0
 40
5.0
 40
5.0
 40
5.0
 40
6.0
 40
6.0
 40
6.0
 40
7.0
 40
7.0
 40
7.0
 40
8.0
 40
8.0
 40
8.0
 40
9.0
 40
9.0
 40
9.0
 40
10.0
 40
10.0
 40
10.0
 40
11.0
 40
11.0
 40
11.0
 40
12.0
 40
12.0
 40
12.0
 40
13.0
 40
13.0
 40
13.0
 40
13.0
 10
785.0037900949455
 20
-913.7849620824654
 30
0.0
 10
785.0037900949455
 20
-913.7849620824654
 30
0.0
 10
780.174250002071
 20
-915.3304149121859
 30
0.0
 10
780.174250002071
 20
-915.3304149121859
 30
0.0
 10
780.174250002071
 20
-915.3304149121859
 30
0.0
 10
782.2992476429363
 20
-922.8001035891657
 30
0.0
 10
782.2992476429363
 20
-922.8001035891657
 30
0.0
 10
787.5151509432408
 20
-940.8303866025644
 30
0.0
 10
787.0000000000009
 20
-948.944013958594
 30
0.0
 10
779.6590990588311
 20
-965.3000564064632
 30
0.0
 10
776.1818301919611
 20
-973.0917144229679
 30
0.0
 10
775.2159221733864
 20
-978.3720115911774
 30
0.0
 10
775.6022853808163
 20
-988.0310917769266
 30
0.0
 10
775.8598608524362
 20
-993.8265398883759
 30
0.0
 10
776.439405663581
 20
-997.8189596984857
 30
0.0
 10
777.6628891537766
 20
-1002.197742716025
 30
0.0
 10
780.2386438699759
 20
-1011.792429033871
 30
0.0
 10
781.2045518885507
 20
-1013.85303280683
 30
0.0
 10
782.5568231145562
 20
-1013.4666695994
 30
0.0
 10
785.6477287739954
 20
-1012.500761580824
 30
0.0
 10
790.9280259422057
 20
-1010.118188468339
 30
0.0
 10
790.9280259422057
 20
-1009.731825260911
 30
0.0
 10
790.9280259422057
 20
-1009.474249789291
 30
0.0
 10
789.9621179236301
 20
-1006.447737997754
 30
0.0
 10
788.8674221692454
 20
-1002.970469130885
 30
0.0
 10
787.0643938679059
 20
-997.4969903589608
 30
0.0
 10
786.742424528381
 20
-995.6295681897163
 30
0.0
 10
786.484849056761
 20
-987.8379101732116
 30
0.0
 10
786.1628797172361
 20
-977.5348913084126
 30
0.0
 10
786.549242924666
 20
-975.4098936675473
 30
0.0
 10
790.5416627347759
 20
-966.7167215003728
 30
0.0
 10
795.8219599029853
 20
-955.1258252774733
 30
0.0
 10
797.4962004685149
 20
-945.788714431249
 30
0.0
 10
796.0151415067003
 20
-935.4856955664491
 30
0.0
 10
795.2424150918405
 20
-930.0122167945246
 30
0.0
 10
791.3787830175406
 20
-914.7508701010411
 30
0.0
 10
790.4128749989659
 20
-913.0766295355106
 30
0.0
 10
790.026511791536
 20
-912.4970847243658
 30
0.0
 10
788.7386344334354
 20
-912.6258724601757
 30
0.0
 10
785.0037900949455
 20
-913.7849620824654
 30
0.0
  0
HATCH
  5
4C
330
41
100
AcDbEntity
  8
katman 1
 62
    96
420
    32768
100
AcDbHatch
 10
0.0
 20
0.0
 30
0.0
210
0.0
220
0.0
230
1.0
  2
SOLID
 70
     1
 71
     0
 91
        1
 92
        1
 93
        1
 72
     4
 94
        3
 73
     0
 74
     1
 95
       44
 96
       40
 40
0.0
 40
0.0
 40
0.0
 40
0.0
 40
1.0
 40
1.0
 40
1.0
 40
2.0
 40
2.0
 40
2.0
 40
3.0
 40
3.0
 40
3.0
 40
4.0
 40
4.0
 40
4.0
 40
5.0
 40
5.0
 40
5.0
 40
6.0
 40
6.0
 40
6.0
 40
7.0
 40
7.0
 40
7.0
 40
8.0
 40
8.0
 40
8.0
 40
9.0
 40
9.0
 40
9.0
 40
10.0
 40
10.0
 40
10.0
 40
11.0
 40
11.0
 40
11.0
 40
12.0
 40
12.0
 40
12.0
 40
13.0
 40
13.0
 40
13.0
 40
13.0
 10
785.0037900949455
 20
-913.7849620824654
 10
785.0037900949455
 20
-913.7849620824654
 10
780.174250002071
 20
-915.3304149121859
 10
780.174250002071
 20
-915.3304149121859
 10
780.174250002071
 20
-915.3304149121859
 10
782.2992476429363
 20
-922.8001035891657
 10
782.2992476429363
 20
-922.8001035891657
 10
787.5151509432408
 20
-940.8303866025644
 10
787.0000000000009
 20
-948.944013958594
 10
779.6590990588311
 20
-965.3000564064632
 10
776.1818301919611
 20
-973.0917144229679
 10
775.2159221733864
 20
-978.3720115911774
 10
775.6022853808163
 20
-988.0310917769266
 10
775.8598608524362
 20
-993.8265398883759
 10
776.439405663581
 20
-997.8189596984857
 10
777.6628891537766
 20
-1002.197742716025
 10
780.2386438699759
 20
-1011.792429033871
 10
781.2045518885507
 20
-1013.85303280683
 10
782.5568231145562
 20
-1013.4666695994
 10
785.6477287739954
 20
-1012.500761580824
 10
790.9280259422057
 20
-1010.118188468339
 10
790.9280259422057
 20
-1009.731825260911
 10
790.9280259422057
 20
-1009.474249789291
 10
789.9621179236301
 20
-1006.447737997754
 10
788.8674221692454
 20
-1002.970469130885
 10
787.0643938679059
 20
-997.4969903589608
 10
786.742424528381
 20
-995.6295681897163
 10
786.484849056761
 20
-987.8379101732116
 10
786.1628797172361
 20
-977.5348913084126
 10
786.549242924666
 20
-975.4098936675473
 10
790.5416627347759
 20
-966.7167215003728
 10
795.8219599029853
 20
-955.1258252774733
 10
797.4962004685149
 20
-945.788714431249
 10
796.0151415067003
 20
-935.4856955664491
 10
795.2424150918405
 20
-930.0122167945246
 10
791.3787830175406
 20
-914.7508701010411
 10
790.4128749989659
 20
-913.0766295355106
 10
790.026511791536
 20
-912.4970847243658
 10
788.7386344334354
 20
-912.6258724601757
 10
785.0037900949455
 20
-913.7849620824654
 97
        0
 97
        0
 75
     2
 76
     1
 98
        0
  0
SPLINE
  5
4D
330
41
100
AcDbEntity
  8
katman 1
370
     0
100
AcDbSpline
210
0.0
220
0.0
230
1.0
 70
    11
 71
     3
 72
    50
 73
    46
 74
     0
 42
0.0000000001
 43
0.0000000001
 12
1.0
 22
0.0
 32
0.0
 13
1.0
 23
0.0
 33
0.0
 40
0.0
 40
0.0
 40
0.0
 40
0.0
 40
1.0
 40
1.0
 40
1.0
 40
2.0
 40
2.0
 40
2.0
 40
3.0
 40
3.0
 40
3.0
 40
4.0
 40
4.0
 40
4.0
 40
5.0
 40
5.0
 40
5.0
 40
6.0
 40
6.0
 40
6.0
 40
7.0
 40
7.0
 40
7.0
 40
8.0
 40
8.0
 40
8.0
 40
9.0
 40
9.0
 40
9.0
 40
10.0
 40
10.0
 40
10.0
 40
11.0
 40
11.0
 40
11.0
 40
12.0
 40
12.0
 40
12.0
 40
13.0
 40
13.0
 40
13.0
 40
14.0
 40
14.0
 40
14.0
 40
15.0
 40
15.0
 40
15.0
 40
15.0
 10
762.4659363281971
 20
-916.7470800060955
 30
0.0
 10
762.4659363281971
 20
-916.7470800060955
 30
0.0
 10
758.2159410464674
 20
-918.163745100006
 30
0.0
 10
758.2159410464674
 20
-918.163745100006
 30
0.0
 10
758.2159410464674
 20
-918.163745100006
 30
0.0
 10
760.3409386873327
 20
-925.375858305365
 30
0.0
 10
760.3409386873327
 20
-925.375858305365
 30
0.0
 10
765.5568419876372
 20
-943.1485658471447
 30
0.0
 10
765.0416910443973
 20
-951.6485564106042
 30
0.0
 10
757.7651839711325
 20
-967.8758111226625
 30
0.0
 10
753.3220070856878
 20
-977.7924667800326
 30
0.0
 10
752.3560990671131
 20
-988.8038181917864
 30
0.0
 10
754.8030660475024
 20
-1000.974259225831
 30
0.0
 10
756.1553372735079
 20
-1007.54243375214
 30
0.0
 10
759.1174551971371
 20
-1016.364393655125
 30
0.0
 10
759.9545754799028
 20
-1016.364393655125
 30
0.0
 10
760.2121509515227
 20
-1016.364393655125
 30
0.0
 10
761.5000283096224
 20
-1015.913636579789
 30
0.0
 10
762.787905667722
 20
-1015.39848563655
 30
0.0
 10
764.0757830258217
 20
-1014.88333469331
 30
0.0
 10
766.136386798782
 20
-1014.046214410544
 30
0.0
 10
767.3598702889767
 20
-1013.531063467304
 30
0.0
 10
767.3598702889767
 20
-1013.531063467304
 30
0.0
 10
769.549261797747
 20
-1012.56515544873
 30
0.0
 10
769.549261797747
 20
-1012.56515544873
 30
0.0
 10
769.549261797747
 20
-1012.56515544873
 30
0.0
 10
768.3257783075514
 20
-1009.731825260911
 30
0.0
 10
768.3257783075514
 20
-1009.731825260911
 30
0.0
 10
765.9432051950671
 20
-1004.387134224795
 30
0.0
 10
764.4621462332516
 20
-996.4022946045761
 30
0.0
 10
764.3977523653475
 20
-988.6106365880714
 30
0.0
 10
764.2689646295375
 20
-980.1106460246119
 30
0.0
 10
764.7841155727774
 20
-977.7280729121267
 30
0.0
 10
768.7121415149822
 20
-969.0992946128572
 30
0.0
 10
772.9621367967111
 20
-959.8909715024429
 30
0.0
 10
774.2500141548117
 20
-954.4174927305185
 30
0.0
 10
774.3144080227166
 20
-945.5311389596291
 30
0.0
 10
774.3788018906216
 20
-937.5462993394094
 30
0.0
 10
773.5416816078568
 20
-932.3303960391049
 30
0.0
 10
770.3219882126068
 20
-921.705407834781
 30
0.0
 10
769.2272924582221
 20
-918.0993512321002
 30
0.0
 10
768.1325967038365
 20
-915.5235965159009
 30
0.0
 10
767.6174457605966
 20
-915.4592026479959
 30
0.0
 10
767.1022948173568
 20
-915.3948087800909
 30
0.0
 10
764.7841155727774
 20
-915.9743535912357
 30
0.0
 10
762.4659363281971
 20
-916.7470800060955
 30
0.0
  0
HATCH
  5
4E
330
41
100
AcDbEntity
  8
katman 1
 62
    96
420
    32768
100
AcDbHatch
 10
0.0
 20
0.0
 30
0.0
210
0.0
220
0.0
230
1.0
  2
SOLID
 70
     1
 71
     0
 91
        1
 92
        1
 93
        1
 72
     4
 94
        3
 73
     0
 74
     1
 95
       50
 96
       46
 40
0.0
 40
0.0
 40
0.0
 40
0.0
 40
1.0
 40
1.0
 40
1.0
 40
2.0
 40
2.0
 40
2.0
 40
3.0
 40
3.0
 40
3.0
 40
4.0
 40
4.0
 40
4.0
 40
5.0
 40
5.0
 40
5.0
 40
6.0
 40
6.0
 40
6.0
 40
7.0
 40
7.0
 40
7.0
 40
8.0
 40
8.0
 40
8.0
 40
9.0
 40
9.0
 40
9.0
 40
10.0
 40
10.0
 40
10.0
 40
11.0
 40
11.0
 40
11.0
 40
12.0
 40
12.0
 40
12.0
 40
13.0
 40
13.0
 40
13.0
 40
14.0
 40
14.0
 40
14.0
 40
15.0
 40
15.0
 40
15.0
 40
15.0
 10
762.4659363281971
 20
-916.7470800060955
 10
762.4659363281971
 20
-916.7470800060955
 10
758.2159410464674
 20
-918.163745100006
 10
758.2159410464674
 20
-918.163745100006
 10
758.2159410464674
 20
-918.163745100006
 10
760.3409386873327
 20
-925.375858305365
 10
760.3409386873327
 20
-925.375858305365
 10
765.5568419876372
 20
-943.1485658471447
 10
765.0416910443973
 20
-951.6485564106042
 10
757.7651839711325
 20
-967.8758111226625
 10
753.3220070856878
 20
-977.7924667800326
 10
752.3560990671131
 20
-988.8038181917864
 10
754.8030660475024
 20
-1000.974259225831
 10
756.1553372735079
 20
-1007.54243375214
 10
759.1174551971371
 20
-1016.364393655125
 10
759.9545754799028
 20
-1016.364393655125
 10
760.2121509515227
 20
-1016.364393655125
 10
761.5000283096224
 20
-1015.913636579789
 10
762.787905667722
 20
-1015.39848563655
 10
764.0757830258217
 20
-1014.88333469331
 10
766.136386798782
 20
-1014.046214410544
 10
767.3598702889767
 20
-1013.531063467304
 10
767.3598702889767
 20
-1013.531063467304
 10
769.549261797747
 20
-1012.56515544873
 10
769.549261797747
 20
-1012.56515544873
 10
769.549261797747
 20
-1012.56515544873
 10
768.3257783075514
 20
-1009.731825260911
 10
768.3257783075514
 20
-1009.731825260911
 10
765.9432051950671
 20
-1004.387134224795
 10
764.4621462332516
 20
-996.4022946045761
 10
764.3977523653475
 20
-988.6106365880714
 10
764.2689646295375
 20
-980.1106460246119
 10
764.7841155727774
 20
-977.7280729121267
 10
768.7121415149822
 20
-969.0992946128572
 10
772.9621367967111
 20
-959.8909715024429
 10
774.2500141548117
 20
-954.4174927305185
 10
774.3144080227166
 20
-945.5311389596291
 10
774.3788018906216
 20
-937.5462993394094
 10
773.5416816078568
 20
-932.3303960391049
 10
770.3219882126068
 20
-921.705407834781
 10
769.2272924582221
 20
-918.0993512321002
 10
768.1325967038365
 20
-915.5235965159009
 10
767.6174457605966
 20
-915.4592026479959
 10
767.1022948173568
 20
-915.3948087800909
 10
764.7841155727774
 20
-915.9743535912357
 10
762.4659363281971
 20
-916.7470800060955
 97
        0
 97
        0
 75
     2
 76
     1
 98
        0
  0
SPLINE
  5
4F
330
41
100
AcDbEntity
  8
katman 1
370
     0
100
AcDbSpline
210
0.0
220
0.0
230
1.0
 70
    11
 71
     3
 72
    56
 73
    52
 74
     0
 42
0.0000000001
 43
0.0000000001
 12
1.0
 22
0.0
 32
0.0
 13
1.0
 23
0.0
 33
0.0
 40
0.0
 40
0.0
 40
0.0
 40
0.0
 40
1.0
 40
1.0
 40
1.0
 40
2.0
 40
2.0
 40
2.0
 40
3.0
 40
3.0
 40
3.0
 40
4.0
 40
4.0
 40
4.0
 40
5.0
 40
5.0
 40
5.0
 40
6.0
 40
6.0
 40
6.0
 40
7.0
 40
7.0
 40
7.0
 40
8.0
 40
8.0
 40
8.0
 40
9.0
 40
9.0
 40
9.0
 40
10.0
 40
10.0
 40
10.0
 40
11.0
 40
11.0
 40
11.0
 40
12.0
 40
12.0
 40
12.0
 40
13.0
 40
13.0
 40
13.0
 40
14.0
 40
14.0
 40
14.0
 40
15.0
 40
15.0
 40
15.0
 40
16.0
 40
16.0
 40
16.0
 40
17.0
 40
17.0
 40
17.0
 40
17.0
 10
810.3105801816091
 20
-1036.712855913103
 30
0.0
 10
806.1893726356893
 20
-1038.515884214445
 30
0.0
 10
805.9317971640694
 20
-1043.731787514749
 30
0.0
 10
809.2158844272244
 20
-1060.152223830522
 30
0.0
 10
810.825731124849
 20
-1068.072669582838
 30
0.0
 10
811.4696698038997
 20
-1073.159785147333
 30
0.0
 10
811.4696698038997
 20
-1077.345386561157
 30
0.0
 10
811.4696698038997
 20
-1083.269622408417
 30
0.0
 10
811.4696698038997
 20
-1083.334016276322
 30
0.0
 10
809.6022476346543
 20
-1084.235530426991
 30
0.0
 10
806.7045235789292
 20
-1085.780983256711
 30
0.0
 10
805.4810400887345
 20
-1088.227950237102
 30
0.0
 10
805.1590707492096
 20
-1093.443853537407
 30
0.0
 10
804.8371014096847
 20
-1098.724150705617
 30
0.0
 10
805.7386155603544
 20
-1105.678688439355
 30
0.0
 10
807.7348254654098
 20
-1112.890801644715
 30
0.0
 10
809.5378537667493
 20
-1119.652157774741
 30
0.0
 10
811.1477004643739
 20
-1123.065032773704
 30
0.0
 10
814.3673938596239
 20
-1127.186240319625
 30
0.0
 10
816.1060282930594
 20
-1129.375631828394
 30
0.0
 10
817.522693386969
 20
-1132.015780412499
 30
0.0
 10
817.9734504623038
 20
-1133.947596449649
 30
0.0
 10
818.4242075376387
 20
-1135.686230883084
 30
0.0
 10
819.5832971599293
 20
-1138.970318146239
 30
0.0
 10
820.613599046409
 20
-1141.224103522913
 30
0.0
 10
824.0908679132781
 20
-1149.144549275228
 30
0.0
 10
827.3749551764331
 20
-1151.977879463047
 30
0.0
 10
832.0757075334977
 20
-1151.205153048188
 30
0.0
 10
835.4885825324627
 20
-1150.625608237042
 30
0.0
 10
836.2613089473225
 20
-1149.530912482658
 30
0.0
 10
836.1969150794175
 20
-1145.216523333023
 30
0.0
 10
836.1969150794175
 20
-1141.352891258724
 30
0.0
 10
834.265099042268
 20
-1136.845320505374
 30
0.0
 10
829.6287405531084
 20
-1129.890782771634
 30
0.0
 10
829.6287405531084
 20
-1129.890782771634
 30
0.0
 10
827.3105613085281
 20
-1126.413513904765
 30
0.0
 10
827.3105613085281
 20
-1126.413513904765
 30
0.0
 10
827.3105613085281
 20
-1126.413513904765
 30
0.0
 10
826.8598042331932
 20
-1114.693829946054
 30
0.0
 10
826.8598042331932
 20
-1114.693829946054
 30
0.0
 10
826.1514716862384
 20
-1099.496877120477
 30
0.0
 10
825.2499575355687
 20
-1089.709009198916
 30
0.0
 10
823.3181414984183
 20
-1077.989325240207
 30
0.0
 10
822.3522334798436
 20
-1071.871907789233
 30
0.0
 10
821.7726886686987
 20
-1065.883278074067
 30
0.0
 10
821.7726886686987
 20
-1061.053737981194
 30
0.0
 10
821.7726886686987
 20
-1048.110570532288
 30
0.0
 10
819.9696603673592
 20
-1040.705275723214
 30
0.0
 10
815.8484528214394
 20
-1037.292400724249
 30
0.0
 10
813.7234551805741
 20
-1035.489372422908
 30
0.0
 10
813.2726981052392
 20
-1035.424978555004
 30
0.0
 10
810.3105801816091
 20
-1036.712855913103
 30
0.0
  0
HATCH
  5
50
330
41
100
AcDbEntity
  8
katman 1
 62
    96
420
    32768
100
AcDbHatch
 10
0.0
 20
0.0
 30
0.0
210
0.0
220
0.0
230
1.0
  2
SOLID
 70
     1
 71
     0
 91
        1
 92
        1
 93
        1
 72
     4
 94
        3
 73
     0
 74
     1
 95
       56
 96
       52
 40
0.0
 40
0.0
 40
0.0
 40
0.0
 40
1.0
 40
1.0
 40
1.0
 40
2.0
 40
2.0
 40
2.0
 40
3.0
 40
3.0
 40
3.0
 40
4.0
 40
4.0
 40
4.0
 40
5.0
 40
5.0
 40
5.0
 40
6.0
 40
6.0
 40
6.0
 40
7.0
 40
7.0
 40
7.0
 40
8.0
 40
8.0
 40
8.0
 40
9.0
 40
9.0
 40
9.0
 40
10.0
 40
10.0
 40
10.0
 40
11.0
 40
11.0
 40
11.0
 40
12.0
 40
12.0
 40
12.0
 40
13.0
 40
13.0
 40
13.0
 40
14.0
 40
14.0
 40
14.0
 40
15.0
 40
15.0
 40
15.0
 40
16.0
 40
16.0
 40
16.0
 40
17.0
 40
17.0
 40
17.0
 40
17.0
 10
810.3105801816091
 20
-1036.712855913103
 10
806.1893726356893
 20
-1038.515884214445
 10
805.9317971640694
 20
-1043.731787514749
 10
809.2158844272244
 20
-1060.152223830522
 10
810.825731124849
 20
-1068.072669582838
 10
811.4696698038997
 20
-1073.159785147333
 10
811.4696698038997
 20
-1077.345386561157
 10
811.4696698038997
 20
-1083.269622408417
 10
811.4696698038997
 20
-1083.334016276322
 10
809.6022476346543
 20
-1084.235530426991
 10
806.7045235789292
 20
-1085.780983256711
 10
805.4810400887345
 20
-1088.227950237102
 10
805.1590707492096
 20
-1093.443853537407
 10
804.8371014096847
 20
-1098.724150705617
 10
805.7386155603544
 20
-1105.678688439355
 10
807.7348254654098
 20
-1112.890801644715
 10
809.5378537667493
 20
-1119.652157774741
 10
811.1477004643739
 20
-1123.065032773704
 10
814.3673938596239
 20
-1127.186240319625
 10
816.1060282930594
 20
-1129.375631828394
 10
817.522693386969
 20
-1132.015780412499
 10
817.9734504623038
 20
-1133.947596449649
 10
818.4242075376387
 20
-1135.686230883084
 10
819.5832971599293
 20
-1138.970318146239
 10
820.613599046409
 20
-1141.224103522913
 10
824.0908679132781
 20
-1149.144549275228
 10
827.3749551764331
 20
-1151.977879463047
 10
832.0757075334977
 20
-1151.205153048188
 10
835.4885825324627
 20
-1150.625608237042
 10
836.2613089473225
 20
-1149.530912482658
 10
836.1969150794175
 20
-1145.216523333023
 10
836.1969150794175
 20
-1141.352891258724
 10
834.265099042268
 20
-1136.845320505374
 10
829.6287405531084
 20
-1129.890782771634
 10
829.6287405531084
 20
-1129.890782771634
 10
827.3105613085281
 20
-1126.413513904765
 10
827.3105613085281
 20
-1126.413513904765
 10
827.3105613085281
 20
-1126.413513904765
 10
826.8598042331932
 20
-1114.693829946054
 10
826.8598042331932
 20
-1114.693829946054
 10
826.1514716862384
 20
-1099.496877120477
 10
825.2499575355687
 20
-1089.709009198916
 10
823.3181414984183
 20
-1077.989325240207
 10
822.3522334798436
 20
-1071.871907789233
 10
821.7726886686987
 20
-1065.883278074067
 10
821.7726886686987
 20
-1061.053737981194
 10
821.7726886686987
 20
-1048.110570532288
 10
819.9696603673592
 20
-1040.705275723214
 10
815.8484528214394
 20
-1037.292400724249
 10
813.7234551805741
 20
-1035.489372422908
 10
813.2726981052392
 20
-1035.424978555004
 10
810.3105801816091
 20
-1036.712855913103
 97
        0
 97
        0
 75
     2
 76
     1
 98
        0
  0
SPLINE
  5
51
330
41
100
AcDbEntity
  8
katman 1
370
     0
100
AcDbSpline
210
0.0
220
0.0
230
1.0
 70
    11
 71
     3
 72
    62
 73
    58
 74
     0
 42
0.0000000001
 43
0.0000000001
 12
1.0
 22
0.0
 32
0.0
 13
1.0
 23
0.0
 33
0.0
 40
0.0
 40
0.0
 40
0.0
 40
0.0
 40
1.0
 40
1.0
 40
1.0
 40
2.0
 40
2.0
 40
2.0
 40
3.0
 40
3.0
 40
3.0
 40
4.0
 40
4.0
 40
4.0
 40
5.0
 40
5.0
 40
5.0
 40
6.0
 40
6.0
 40
6.0
 40
7.0
 40
7.0
 40
7.0
 40
8.0
 40
8.0
 40
8.0
 40
9.0
 40
9.0
 40
9.0
 40
10.0
 40
10.0
 40
10.0
 40
11.0
 40
11.0
 40
11.0
 40
12.0
 40
12.0
 40
12.0
 40
13.0
 40
13.0
 40
13.0
 40
14.0
 40
14.0
 40
14.0
 40
15.0
 40
15.0
 40
15.0
 40
16.0
 40
16.0
 40
16.0
 40
17.0
 40
17.0
 40
17.0
 40
18.0
 40
18.0
 40
18.0
 40
19.0
 40
19.0
 40
19.0
 40
19.0
 10
785.9696981135212
 20
-1039.674973836734
 30
0.0
 10
781.7840966996964
 20
-1041.027245062738
 30
0.0
 10
781.5265212280765
 20
-1046.951480909998
 30
0.0
 10
785.0681839628505
 20
-1064.015855904823
 30
0.0
 10
786.484849056761
 20
-1070.777212034847
 30
0.0
 10
787.0000000000009
 20
-1075.155995052388
 30
0.0
 10
787.0000000000009
 20
-1079.921141277357
 30
0.0
 10
787.0000000000009
 20
-1079.921141277357
 30
0.0
 10
787.0000000000009
 20
-1086.489315803667
 30
0.0
 10
787.0000000000009
 20
-1086.489315803667
 30
0.0
 10
787.0000000000009
 20
-1086.489315803667
 30
0.0
 10
785.0037900949455
 20
-1087.519617690146
 30
0.0
 10
785.0037900949455
 20
-1087.519617690146
 30
0.0
 10
781.0113702848357
 20
-1089.644615331012
 30
0.0
 10
779.787886794641
 20
-1095.504457310366
 30
0.0
 10
781.2689457564566
 20
-1105.421112967735
 30
0.0
 10
782.9431863219861
 20
-1116.754433719016
 30
0.0
 10
785.7765165098053
 20
-1124.546091735519
 30
0.0
 10
790.2196933952509
 20
-1130.277145979064
 30
0.0
 10
792.0227216965905
 20
-1132.595325223643
 30
0.0
 10
793.4393867905001
 20
-1134.913504468223
 30
0.0
 10
793.4393867905001
 20
-1135.493049279368
 30
0.0
 10
793.4393867905001
 20
-1137.1672898449
 30
0.0
 10
796.0151415067003
 20
-1144.379403050258
 30
0.0
 10
797.7537759401348
 20
-1147.470308709697
 30
0.0
 10
798.6552900908055
 20
-1149.015761539418
 30
0.0
 10
800.52271226005
 20
-1151.333940783998
 30
0.0
 10
802.0037712218646
 20
-1152.557424274193
 30
0.0
 10
804.2575565985398
 20
-1154.553634179247
 30
0.0
 10
804.9014952775897
 20
-1154.746815782963
 30
0.0
 10
806.897705182645
 20
-1154.424846443439
 30
0.0
 10
808.1855825407447
 20
-1154.167270971819
 30
0.0
 10
809.6666415025593
 20
-1153.780907764387
 30
0.0
 10
810.2461863137041
 20
-1153.458938424863
 30
0.0
 10
811.3408820680897
 20
-1152.943787481623
 30
0.0
 10
812.1136084829495
 20
-1150.239245029614
 30
0.0
 10
812.1136084829495
 20
-1147.148339370173
 30
0.0
 10
812.1136084829495
 20
-1145.023341729308
 30
0.0
 10
808.8939150876995
 20
-1138.197591731379
 30
0.0
 10
805.6098278245445
 20
-1133.368051638503
 30
0.0
 10
805.6098278245445
 20
-1133.368051638503
 30
0.0
 10
803.0340731083452
 20
-1129.633207300014
 30
0.0
 10
803.0340731083452
 20
-1129.633207300014
 30
0.0
 10
803.0340731083452
 20
-1129.633207300014
 30
0.0
 10
802.4545282972003
 20
-1116.30367664368
 30
0.0
 10
802.4545282972003
 20
-1116.30367664368
 30
0.0
 10
801.7461957502446
 20
-1101.943844100866
 30
0.0
 10
800.458318392145
 20
-1088.743101180342
 30
0.0
 10
798.8484716945204
 20
-1080.049929013167
 30
0.0
 10
798.2689268833756
 20
-1077.087811089537
 30
0.0
 10
797.6249882043248
 20
-1069.102971469318
 30
0.0
 10
797.3030188647999
 20
-1062.406009207198
 30
0.0
 10
796.7234740536551
 20
-1048.49693373972
 30
0.0
 10
795.8219599029853
 20
-1044.568907797515
 30
0.0
 10
792.3446910361154
 20
-1041.027245062738
 30
0.0
 10
790.0909056594401
 20
-1038.773459686065
 30
0.0
 10
789.2537853766753
 20
-1038.644671950255
 30
0.0
 10
785.9696981135212
 20
-1039.674973836734
 30
0.0
  0
HATCH
  5
52
330
41
100
AcDbEntity
  8
katman 1
 62
    96
420
    32768
100
AcDbHatch
 10
0.0
 20
0.0
 30
0.0
210
0.0
220
0.0
230
1.0
  2
SOLID
 70
     1
 71
     0
 91
        1
 92
        1
 93
        1
 72
     4
 94
        3
 73
     0
 74
     1
 95
       62
 96
       58
 40
0.0
 40
0.0
 40
0.0
 40
0.0
 40
1.0
 40
1.0
 40
1.0
 40
2.0
 40
2.0
 40
2.0
 40
3.0
 40
3.0
 40
3.0
 40
4.0
 40
4.0
 40
4.0
 40
5.0
 40
5.0
 40
5.0
 40
6.0
 40
6.0
 40
6.0
 40
7.0
 40
7.0
 40
7.0
 40
8.0
 40
8.0
 40
8.0
 40
9.0
 40
9.0
 40
9.0
 40
10.0
 40
10.0
 40
10.0
 40
11.0
 40
11.0
 40
11.0
 40
12.0
 40
12.0
 40
12.0
 40
13.0
 40
13.0
 40
13.0
 40
14.0
 40
14.0
 40
14.0
 40
15.0
 40
15.0
 40
15.0
 40
16.0
 40
16.0
 40
16.0
 40
17.0
 40
17.0
 40
17.0
 40
18.0
 40
18.0
 40
18.0
 40
19.0
 40
19.0
 40
19.0
 40
19.0
 10
785.9696981135212
 20
-1039.674973836734
 10
781.7840966996964
 20
-1041.027245062738
 10
781.5265212280765
 20
-1046.951480909998
 10
785.0681839628505
 20
-1064.015855904823
 10
786.484849056761
 20
-1070.777212034847
 10
787.0000000000009
 20
-1075.155995052388
 10
787.0000000000009
 20
-1079.921141277357
 10
787.0000000000009
 20
-1079.921141277357
 10
787.0000000000009
 20
-1086.489315803667
 10
787.0000000000009
 20
-1086.489315803667
 10
787.0000000000009
 20
-1086.489315803667
 10
785.0037900949455
 20
-1087.519617690146
 10
785.0037900949455
 20
-1087.519617690146
 10
781.0113702848357
 20
-1089.644615331012
 10
779.787886794641
 20
-1095.504457310366
 10
781.2689457564566
 20
-1105.421112967735
 10
782.9431863219861
 20
-1116.754433719016
 10
785.7765165098053
 20
-1124.546091735519
 10
790.2196933952509
 20
-1130.277145979064
 10
792.0227216965905
 20
-1132.595325223643
 10
793.4393867905001
 20
-1134.913504468223
 10
793.4393867905001
 20
-1135.493049279368
 10
793.4393867905001
 20
-1137.1672898449
 10
796.0151415067003
 20
-1144.379403050258
 10
797.7537759401348
 20
-1147.470308709697
 10
798.6552900908055
 20
-1149.015761539418
 10
800.52271226005
 20
-1151.333940783998
 10
802.0037712218646
 20
-1152.557424274193
 10
804.2575565985398
 20
-1154.553634179247
 10
804.9014952775897
 20
-1154.746815782963
 10
806.897705182645
 20
-1154.424846443439
 10
808.1855825407447
 20
-1154.167270971819
 10
809.6666415025593
 20
-1153.780907764387
 10
810.2461863137041
 20
-1153.458938424863
 10
811.3408820680897
 20
-1152.943787481623
 10
812.1136084829495
 20
-1150.239245029614
 10
812.1136084829495
 20
-1147.148339370173
 10
812.1136084829495
 20
-1145.023341729308
 10
808.8939150876995
 20
-1138.197591731379
 10
805.6098278245445
 20
-1133.368051638503
 10
805.6098278245445
 20
-1133.368051638503
 10
803.0340731083452
 20
-1129.633207300014
 10
803.0340731083452
 20
-1129.633207300014
 10
803.0340731083452
 20
-1129.633207300014
 10
802.4545282972003
 20
-1116.30367664368
 10
802.4545282972003
 20
-1116.30367664368
 10
801.7461957502446
 20
-1101.943844100866
 10
800.458318392145
 20
-1088.743101180342
 10
798.8484716945204
 20
-1080.049929013167
 10
798.2689268833756
 20
-1077.087811089537
 10
797.6249882043248
 20
-1069.102971469318
 10
797.3030188647999
 20
-1062.406009207198
 10
796.7234740536551
 20
-1048.49693373972
 10
795.8219599029853
 20
-1044.568907797515
 10
792.3446910361154
 20
-1041.027245062738
 10
790.0909056594401
 20
-1038.773459686065
 10
789.2537853766753
 20
-1038.644671950255
 10
785.9696981135212
 20
-1039.674973836734
 97
        0
 97
        0
 75
     2
 76
     1
 98
        0
  0
SPLINE
  5
53
330
41
100
AcDbEntity
  8
katman 1
370
     0
100
AcDbSpline
210
0.0
220
0.0
230
1.0
 70
    11
 71
     3
 72
    53
 73
    49
 74
     0
 42
0.0000000001
 43
0.0000000001
 12
1.0
 22
0.0
 32
0.0
 13
1.0
 23
0.0
 33
0.0
 40
0.0
 40
0.0
 40
0.0
 40
0.0
 40
1.0
 40
1.0
 40
1.0
 40
2.0
 40
2.0
 40
2.0
 40
3.0
 40
3.0
 40
3.0
 40
4.0
 40
4.0
 40
4.0
 40
5.0
 40
5.0
 40
5.0
 40
6.0
 40
6.0
 40
6.0
 40
7.0
 40
7.0
 40
7.0
 40
8.0
 40
8.0
 40
8.0
 40
9.0
 40
9.0
 40
9.0
 40
10.0
 40
10.0
 40
10.0
 40
11.0
 40
11.0
 40
11.0
 40
12.0
 40
12.0
 40
12.0
 40
13.0
 40
13.0
 40
13.0
 40
14.0
 40
14.0
 40
14.0
 40
15.0
 40
15.0
 40
15.0
 40
16.0
 40
16.0
 40
16.0
 40
16.0
 10
762.1439669886722
 20
-1042.572697892459
 30
0.0
 10
757.2500330278926
 20
-1044.246938457989
 30
0.0
 10
757.0568514241777
 20
-1047.72420732486
 30
0.0
 10
760.5985141589526
 20
-1066.269641281498
 30
0.0
 10
763.8826014221067
 20
-1083.140834672606
 30
0.0
 10
763.9469952900117
 20
-1088.936282784056
 30
0.0
 10
760.9204834984776
 20
-1090.288554010061
 30
0.0
 10
757.1856391599877
 20
-1092.027188443495
 30
0.0
 10
755.7045801981722
 20
-1097.822636554945
 30
0.0
 10
756.7348820846528
 20
-1106.580202590025
 30
0.0
 10
758.0871533106574
 20
-1118.106704945019
 30
0.0
 10
761.1780589700975
 20
-1127.186240319625
 30
0.0
 10
765.7500235913521
 20
-1133.046082298979
 30
0.0
 10
767.4886580247867
 20
-1135.299867675654
 30
0.0
 10
768.9697169866022
 20
-1137.42486531652
 30
0.0
 10
768.9697169866022
 20
-1137.875622391854
 30
0.0
 10
768.9697169866022
 20
-1140.193801636433
 30
0.0
 10
772.4469858534712
 20
-1149.144549275228
 30
0.0
 10
774.4431957585266
 20
-1152.042273330953
 30
0.0
 10
777.3409198142517
 20
-1156.292268612682
 30
0.0
 10
779.7234929267361
 20
-1157.644539838688
 30
0.0
 10
783.5871250010359
 20
-1157.064995027542
 30
0.0
 10
785.8409103777112
 20
-1156.743025688018
 30
0.0
 10
786.549242924666
 20
-1156.292268612682
 30
0.0
 10
787.1287877358109
 20
-1154.939997386678
 30
0.0
 10
788.8030283013404
 20
-1150.625608237042
 30
0.0
 10
786.9356061320959
 20
-1144.508190786068
 30
0.0
 10
781.3333396243606
 20
-1136.265775694228
 30
0.0
 10
781.3333396243606
 20
-1136.265775694228
 30
0.0
 10
778.7575849081613
 20
-1132.466537487835
 30
0.0
 10
778.7575849081613
 20
-1132.466537487835
 30
0.0
 10
778.7575849081613
 20
-1132.466537487835
 30
0.0
 10
778.0492523612065
 20
-1118.106704945019
 30
0.0
 10
778.0492523612065
 20
-1118.106704945019
 30
0.0
 10
777.2121320784418
 20
-1101.943844100866
 30
0.0
 10
776.503799531486
 20
-1094.538549291792
 30
0.0
 10
774.7651650980515
 20
-1084.171136559085
 30
0.0
 10
774.0568325510967
 20
-1080.243110616881
 30
0.0
 10
773.3485000041419
 20
-1072.258270996663
 30
0.0
 10
773.155318400427
 20
-1066.462822885213
 30
0.0
 10
772.897742928807
 20
-1060.667374773762
 30
0.0
 10
772.4469858534712
 20
-1054.485563454884
 30
0.0
 10
772.0606226460413
 20
-1052.746929021449
 30
0.0
 10
771.0947146274666
 20
-1048.174964400194
 30
0.0
 10
768.7765353828863
 20
-1043.924969118463
 30
0.0
 10
766.5871438741169
 20
-1042.701485628269
 30
0.0
 10
764.9772971764924
 20
-1041.799971477598
 30
0.0
 10
764.4621462332516
 20
-1041.735577609694
 30
0.0
 10
762.1439669886722
 20
-1042.572697892459
 30
0.0
  0
HATCH
  5
54
330
41
100
AcDbEntity
  8
katman 1
 62
    96
420
    32768
100
AcDbHatch
 10
0.0
 20
0.0
 30
0.0
210
0.0
220
0.0
230
1.0
  2
SOLID
 70
     1
 71
     0
 91
        1
 92
        1
 93
        1
 72
     4
 94
        3
 73
     0
 74
     1
 95
       53
 96
       49
 40
0.0
 40
0.0
 40
0.0
 40
0.0
 40
1.0
 40
1.0
 40
1.0
 40
2.0
 40
2.0
 40
2.0
 40
3.0
 40
3.0
 40
3.0
 40
4.0
 40
4.0
 40
4.0
 40
5.0
 40
5.0
 40
5.0
 40
6.0
 40
6.0
 40
6.0
 40
7.0
 40
7.0
 40
7.0
 40
8.0
 40
8.0
 40
8.0
 40
9.0
 40
9.0
 40
9.0
 40
10.0
 40
10.0
 40
10.0
 40
11.0
 40
11.0
 40
11.0
 40
12.0
 40
12.0
 40
12.0
 40
13.0
 40
13.0
 40
13.0
 40
14.0
 40
14.0
 40
14.0
 40
15.0
 40
15.0
 40
15.0
 40
16.0
 40
16.0
 40
16.0
 40
16.0
 10
762.1439669886722
 20
-1042.572697892459
 10
757.2500330278926
 20
-1044.246938457989
 10
757.0568514241777
 20
-1047.72420732486
 10
760.5985141589526
 20
-1066.269641281498
 10
763.8826014221067
 20
-1083.140834672606
 10
763.9469952900117
 20
-1088.936282784056
 10
760.9204834984776
 20
-1090.288554010061
 10
757.1856391599877
 20
-1092.027188443495
 10
755.7045801981722
 20
-1097.822636554945
 10
756.7348820846528
 20
-1106.580202590025
 10
758.0871533106574
 20
-1118.106704945019
 10
761.1780589700975
 20
-1127.186240319625
 10
765.7500235913521
 20
-1133.046082298979
 10
767.4886580247867
 20
-1135.299867675654
 10
768.9697169866022
 20
-1137.42486531652
 10
768.9697169866022
 20
-1137.875622391854
 10
768.9697169866022
 20
-1140.193801636433
 10
772.4469858534712
 20
-1149.144549275228
 10
774.4431957585266
 20
-1152.042273330953
 10
777.3409198142517
 20
-1156.292268612682
 10
779.7234929267361
 20
-1157.644539838688
 10
783.5871250010359
 20
-1157.064995027542
 10
785.8409103777112
 20
-1156.743025688018
 10
786.549242924666
 20
-1156.292268612682
 10
787.1287877358109
 20
-1154.939997386678
 10
788.8030283013404
 20
-1150.625608237042
 10
786.9356061320959
 20
-1144.508190786068
 10
781.3333396243606
 20
-1136.265775694228
 10
781.3333396243606
 20
-1136.265775694228
 10
778.7575849081613
 20
-1132.466537487835
 10
778.7575849081613
 20
-1132.466537487835
 10
778.7575849081613
 20
-1132.466537487835
 10
778.0492523612065
 20
-1118.106704945019
 10
778.0492523612065
 20
-1118.106704945019
 10
777.2121320784418
 20
-1101.943844100866
 10
776.503799531486
 20
-1094.538549291792
 10
774.7651650980515
 20
-1084.171136559085
 10
774.0568325510967
 20
-1080.243110616881
 10
773.3485000041419
 20
-1072.258270996663
 10
773.155318400427
 20
-1066.462822885213
 10
772.897742928807
 20
-1060.667374773762
 10
772.4469858534712
 20
-1054.485563454884
 10
772.0606226460413
 20
-1052.746929021449
 10
771.0947146274666
 20
-1048.174964400194
 10
768.7765353828863
 20
-1043.924969118463
 10
766.5871438741169
 20
-1042.701485628269
 10
764.9772971764924
 20
-1041.799971477598
 10
764.4621462332516
 20
-1041.735577609694
 10
762.1439669886722
 20
-1042.572697892459
 97
        0
 97
        0
 75
     2
 76
     1
 98
        0
  0
ENDBLK
  5
44
330
41
100
AcDbEntity
  8
0
100
AcDbBlockEnd
  0
ENDSEC
  0
SECTION
  2
ENTITIES
  0
INSERT
  5
42
330
1F
100
AcDbEntity
  8
katman 1
100
AcDbBlockReference
  2
block 2
 10
0.0
 20
0.0
 30
0.0
  0
ENDSEC
  0
SECTION
  2
OBJECTS
  0
DICTIONARY
  5
C
330
0
100
AcDbDictionary
281
     1
  3
ACAD_GROUP
350
D
  3
ACAD_LAYOUT
350
1A
  3
ACAD_MATERIAL
350
3B
  3
ACAD_MLEADERSTYLE
350
56
  3
ACAD_MLINESTYLE
350
17
  3
ACAD_PLOTSETTINGS
350
19
  3
ACAD_PLOTSTYLENAME
350
E
  3
ACAD_TABLESTYLE
350
55
  3
ACAD_VISUALSTYLE
350
2A
  0
SUN
  5
3F
330
29
100
AcDbSun
 90
        1
290
     0
 63
     7
421
 16777215
 40
1.0
291
     1
 91
  2455826
 92
 54000000
292
     0
 70
     2
 71
   256
280
     1
  0
DICTIONARY
  5
D
102
{ACAD_REACTORS
330
C
102
}
330
C
100
AcDbDictionary
281
     1
  0
DICTIONARY
  5
1A
102
{ACAD_REACTORS
330
C
102
}
330
C
100
AcDbDictionary
281
     1
  3
Layout1
350
1E
  3
Layout2
350
26
  3
Model
350
22
  0
DICTIONARY
  5
3B
102
{ACAD_REACTORS
330
C
102
}
330
C
100
AcDbDictionary
281
     1
  3
ByBlock
350
3D
  3
ByLayer
350
3C
  3
Global
350
3E
  0
DICTIONARY
  5
56
102
{ACAD_REACTORS
330
C
102
}
330
C
100
AcDbDictionary
281
     1
  0
DICTIONARY
  5
17
102
{ACAD_REACTORS
330
C
102
}
330
C
100
AcDbDictionary
281
     1
  3
Standard
350
18
  0
DICTIONARY
  5
19
102
{ACAD_REACTORS
330
C
102
}
330
C
100
AcDbDictionary
281
     1
  0
ACDBDICTIONARYWDFLT
  5
E
102
{ACAD_REACTORS
330
C
102
}
330
C
100
AcDbDictionary
281
     1
  3
Normal
350
F
100
AcDbDictionaryWithDefault
340
F
  0
DICTIONARY
  5
55
102
{ACAD_REACTORS
330
C
102
}
330
C
100
AcDbDictionary
281
     1
  0
DICTIONARY
  5
2A
102
{ACAD_REACTORS
330
C
102
}
330
C
100
AcDbDictionary
281
     1
  3
2dWireframe
350
2F
  3
3D Hidden
350
31
  3
3dWireframe
350
30
  3
Basic
350
32
  3
Brighten
350
36
  3
ColorChange
350
3A
  3
Conceptual
350
34
  3
Dim
350
35
  3
Facepattern
350
39
  3
Flat
350
2B
  3
FlatWithEdges
350
2C
  3
Gouraud
350
2D
  3
GouraudWithEdges
350
2E
  3
Linepattern
350
38
  3
Realistic
350
33
  3
Thicken
350
37
  0
LAYOUT
  5
1E
102
{ACAD_REACTORS
330
1A
102
}
330
1A
100
AcDbPlotSettings
  1

  2
none_device
  4

  6

 40
0.0
 41
0.0
 42
0.0
 43
0.0
 44
0.0
 45
0.0
 46
0.0
 47
0.0
 48
0.0
 49
0.0
140
0.0
141
0.0
142
1.0
143
1.0
 70
   688
 72
     0
 73
     0
 74
     5
  7

 75
    16
 76
     0
 77
     2
 78
   300
147
1.0
148
0.0
149
0.0
100
AcDbLayout
  1
Layout1
 70
     1
 71
     1
 10
0.0
 20
0.0
 11
12.0
 21
9.0
 12
0.0
 22
0.0
 32
0.0
 14
1.000000000000000E+20
 24
1.000000000000000E+20
 34
1.000000000000000E+20
 15
-1.000000000000000E+20
 25
-1.000000000000000E+20
 35
-1.000000000000000E+20
146
0.0
 13
0.0
 23
0.0
 33
0.0
 16
1.0
 26
0.0
 36
0.0
 17
0.0
 27
1.0
 37
0.0
 76
     0
330
1B
  0
LAYOUT
  5
26
102
{ACAD_REACTORS
330
1A
102
}
330
1A
100
AcDbPlotSettings
  1

  2
none_device
  4

  6

 40
0.0
 41
0.0
 42
0.0
 43
0.0
 44
0.0
 45
0.0
 46
0.0
 47
0.0
 48
0.0
 49
0.0
140
0.0
141
0.0
142
1.0
143
1.0
 70
   688
 72
     0
 73
     0
 74
     5
  7

 75
    16
 76
     0
 77
     2
 78
   300
147
1.0
148
0.0
149
0.0
100
AcDbLayout
  1
Layout2
 70
     1
 71
     2
 10
0.0
 20
0.0
 11
0.0
 21
0.0
 12
0.0
 22
0.0
 32
0.0
 14
0.0
 24
0.0
 34
0.0
 15
0.0
 25
0.0
 35
0.0
146
0.0
 13
0.0
 23
0.0
 33
0.0
 16
1.0
 26
0.0
 36
0.0
 17
0.0
 27
1.0
 37
0.0
 76
     0
330
23
  0
LAYOUT
  5
22
102
{ACAD_REACTORS
330
1A
102
}
330
1A
100
AcDbPlotSettings
  1

  2
none_device
  4

  6

 40
0.0
 41
0.0
 42
0.0
 43
0.0
 44
0.0
 45
0.0
 46
0.0
 47
0.0
 48
0.0
 49
0.0
140
0.0
141
0.0
142
1.0
143
1.0
 70
  1712
 72
     0
 73
     0
 74
     0
  7

 75
     0
 76
     0
 77
     2
 78
   300
147
1.0
148
0.0
149
0.0
100
AcDbLayout
  1
Model
 70
     1
 71
     0
 10
0.0
 20
0.0
 11
12.0
 21
9.0
 12
0.0
 22
0.0
 32
0.0
 14
1.000000000000000E+20
 24
1.000000000000000E+20
 34
1.000000000000000E+20
 15
-1.000000000000000E+20
 25
-1.000000000000000E+20
 35
-1.000000000000000E+20
146
0.0
 13
0.0
 23
0.0
 33
0.0
 16
1.0
 26
0.0
 36
0.0
 17
0.0
 27
1.0
 37
0.0
 76
     0
330
1F
331
29
  0
MATERIAL
  5
3D
102
{ACAD_REACTORS
330
3B
102
}
330
3B
100
AcDbMaterial
  1
ByBlock
 72
     1
 94
      127
  0
MATERIAL
  5
3C
102
{ACAD_REACTORS
330
3B
102
}
330
3B
100
AcDbMaterial
  1
ByLayer
 72
     1
 94
      127
  0
MATERIAL
  5
3E
102
{ACAD_REACTORS
330
3B
102
}
330
3B
100
AcDbMaterial
  1
Global
 72
     1
 94
      127
  0
MLINESTYLE
  5
18
102
{ACAD_REACTORS
330
17
102
}
330
17
100
AcDbMlineStyle
  2
Standard
 70
     0
  3

 62
   256
 51
90.0
 52
90.0
 71
     2
 49
0.5
 62
   256
  6
BYLAYER
 49
-0.5
 62
   256
  6
BYLAYER
  0
ACDBPLACEHOLDER
  5
F
102
{ACAD_REACTORS
330
E
102
}
330
E
  0
VISUALSTYLE
  5
2F
102
{ACAD_REACTORS
330
2A
102
}
330
2A
100
AcDbVisualStyle
  2
2dWireframe
 70
     4
177
     2
291
     0
 71
     0
176
     1
 72
     2
176
     1
 73
     0
176
     1
 90
        0
176
     1
 40
-0.6
176
     1
 41
-30.0
176
     1
 62
     5
 63
     7
421
 16777215
176
     1
 74
     1
176
     1
 91
        4
176
     1
 64
     7
176
     1
 65
   257
176
     1
 75
     1
176
     1
175
     1
176
     1
 42
1.0
176
     1
 92
        0
176
     1
 66
   257
176
     1
 43
1.0
176
     1
 76
     1
176
     1
 77
     6
176
     1
 78
     2
176
     1
 67
     7
176
     1
 79
     5
176
     1
170
     0
176
     1
171
     0
176
     1
290
     0
176
     1
 93
        1
176
     1
 44
0.0
176
     1
173
     0
176
     1
  0
VISUALSTYLE
  5
31
102
{ACAD_REACTORS
330
2A
102
}
330
2A
100
AcDbVisualStyle
  2
3D Hidden
 70
     6
177
     2
291
     0
 71
     1
176
     1
 72
     2
176
     1
 73
     2
176
     1
 90
        0
176
     1
 40
-0.6
176
     1
 41
-30.0
176
     1
 62
     5
 63
     7
421
 16777215
176
     1
 74
     2
176
     1
 91
        2
176
     1
 64
     7
176
     1
 65
   257
176
     1
 75
     2
176
     1
175
     1
176
     1
 42
40.0
176
     1
 92
        0
176
     1
 66
   257
176
     1
 43
1.0
176
     1
 76
     1
176
     1
 77
     6
176
     1
 78
     2
176
     1
 67
     7
176
     1
 79
     3
176
     1
170
     0
176
     1
171
     0
176
     1
290
     0
176
     1
 93
        1
176
     1
 44
0.0
176
     1
173
     0
176
     1
  0
VISUALSTYLE
  5
30
102
{ACAD_REACTORS
330
2A
102
}
330
2A
100
AcDbVisualStyle
  2
3dWireframe
 70
     5
177
     2
291
     0
 71
     0
176
     1
 72
     2
176
     1
 73
     0
176
     1
 90
        0
176
     1
 40
-0.6
176
     1
 41
-30.0
176
     1
 62
     5
 63
     7
421
 16777215
176
     1
 74
     1
176
     1
 91
        4
176
     1
 64
     7
176
     1
 65
   257
176
     1
 75
     1
176
     1
175
     1
176
     1
 42
1.0
176
     1
 92
        0
176
     1
 66
   257
176
     1
 43
1.0
176
     1
 76
     1
176
     1
 77
     6
176
     1
 78
     2
176
     1
 67
     7
176
     1
 79
     5
176
     1
170
     0
176
     1
171
     0
176
     1
290
     0
176
     1
 93
        1
176
     1
 44
0.0
176
     1
173
     0
176
     1
  0
VISUALSTYLE
  5
32
102
{ACAD_REACTORS
330
2A
102
}
330
2A
100
AcDbVisualStyle
  2
Basic
 70
     7
177
     2
291
     1
 71
     1
176
     1
 72
     0
176
     1
 73
     1
176
     1
 90
        0
176
     1
 40
-0.6
176
     1
 41
-30.0
176
     1
 62
     5
 63
     7
421
 16777215
176
     1
 74
     0
176
     1
 91
        4
176
     1
 64
     7
176
     1
 65
   257
176
     1
 75
     1
176
     1
175
     1
176
     1
 42
1.0
176
     1
 92
        8
176
     1
 66
     7
176
     1
 43
1.0
176
     1
 76
     1
176
     1
 77
     6
176
     1
 78
     2
176
     1
 67
     7
176
     1
 79
     5
176
     1
170
     0
176
     1
171
     0
176
     1
290
     0
176
     1
 93
        1
176
     1
 44
0.0
176
     1
173
     0
176
     1
  0
VISUALSTYLE
  5
36
102
{ACAD_REACTORS
330
2A
102
}
330
2A
100
AcDbVisualStyle
  2
Brighten
 70
    12
177
     2
291
     1
 71
     2
176
     1
 72
     2
176
     1
 73
     0
176
     1
 90
        0
176
     1
 40
-0.6
176
     1
 41
-30.0
176
     1
 62
     5
 63
     7
421
 16777215
176
     1
 74
     1
176
     1
 91
        4
176
     1
 64
     7
176
     1
 65
   257
176
     1
 75
     1
176
     1
175
     1
176
     1
 42
1.0
176
     1
 92
        8
176
     1
 66
     7
176
     1
 43
1.0
176
     1
 76
     1
176
     1
 77
     6
176
     1
 78
     2
176
     1
 67
     7
176
     1
 79
     5
176
     1
170
     0
176
     1
171
     0
176
     1
290
     0
176
     1
 93
        1
176
     1
 44
50.0
176
     1
173
     0
176
     1
  0
VISUALSTYLE
  5
3A
102
{ACAD_REACTORS
330
2A
102
}
330
2A
100
AcDbVisualStyle
  2
ColorChange
 70
    16
177
     2
291
     1
 71
     2
176
     1
 72
     2
176
     1
 73
     3
176
     1
 90
        0
176
     1
 40
-0.6
176
     1
 41
-30.0
176
     1
 62
     5
 63
     8
421
  8421504
176
     1
 74
     1
176
     1
 91
        4
176
     1
 64
     7
176
     1
 65
   257
176
     1
 75
     1
176
     1
175
     1
176
     1
 42
1.0
176
     1
 92
        8
176
     1
 66
     8
424
  8421504
176
     1
 43
1.0
176
     1
 76
     1
176
     1
 77
     6
176
     1
 78
     2
176
     1
 67
     7
176
     1
 79
     5
176
     1
170
     0
176
     1
171
     0
176
     1
290
     0
176
     1
 93
        1
176
     1
 44
0.0
176
     1
173
     0
176
     1
  0
VISUALSTYLE
  5
34
102
{ACAD_REACTORS
330
2A
102
}
330
2A
100
AcDbVisualStyle
  2
Conceptual
 70
     9
177
     2
291
     0
 71
     3
176
     1
 72
     2
176
     1
 73
     0
176
     1
 90
        0
176
     1
 40
-0.6
176
     1
 41
-30.0
176
     1
 62
     5
 63
     7
421
 16777215
176
     1
 74
     2
176
     1
 91
        2
176
     1
 64
     7
176
     1
 65
   257
176
     1
 75
     1
176
     1
175
     1
176
     1
 42
40.0
176
     1
 92
        8
176
     1
 66
     7
176
     1
 43
1.0
176
     1
 76
     1
176
     1
 77
     6
176
     1
 78
     2
176
     1
 67
     7
176
     1
 79
     3
176
     1
170
     0
176
     1
171
     0
176
     1
290
     0
176
     1
 93
        1
176
     1
 44
0.0
176
     1
173
     0
176
     1
  0
VISUALSTYLE
  5
35
102
{ACAD_REACTORS
330
2A
102
}
330
2A
100
AcDbVisualStyle
  2
Dim
 70
    11
177
     2
291
     1
 71
     2
176
     1
 72
     2
176
     1
 73
     0
176
     1
 90
        0
176
     1
 40
-0.6
176
     1
 41
-30.0
176
     1
 62
     5
 63
     7
421
 16777215
176
     1
 74
     1
176
     1
 91
        4
176
     1
 64
     7
176
     1
 65
   257
176
     1
 75
     1
176
     1
175
     1
176
     1
 42
1.0
176
     1
 92
        8
176
     1
 66
     7
176
     1
 43
1.0
176
     1
 76
     1
176
     1
 77
     6
176
     1
 78
     2
176
     1
 67
     7
176
     1
 79
     5
176
     1
170
     0
176
     1
171
     0
176
     1
290
     0
176
     1
 93
        1
176
     1
 44
-50.0
176
     1
173
     0
176
     1
  0
VISUALSTYLE
  5
39
102
{ACAD_REACTORS
330
2A
102
}
330
2A
100
AcDbVisualStyle
  2
Facepattern
 70
    15
177
     2
291
     1
 71
     2
176
     1
 72
     2
176
     1
 73
     0
176
     1
 90
        0
176
     1
 40
-0.6
176
     1
 41
-30.0
176
     1
 62
     5
 63
     7
421
 16777215
176
     1
 74
     1
176
     1
 91
        4
176
     1
 64
     7
176
     1
 65
   257
176
     1
 75
     1
176
     1
175
     1
176
     1
 42
1.0
176
     1
 92
        8
176
     1
 66
     7
176
     1
 43
1.0
176
     1
 76
     1
176
     1
 77
     6
176
     1
 78
     2
176
     1
 67
     7
176
     1
 79
     5
176
     1
170
     0
176
     1
171
     0
176
     1
290
     0
176
     1
 93
        1
176
     1
 44
0.0
176
     1
173
     0
176
     1
  0
VISUALSTYLE
  5
2B
102
{ACAD_REACTORS
330
2A
102
}
330
2A
100
AcDbVisualStyle
  2
Flat
 70
     0
177
     2
291
     1
 71
     2
176
     1
 72
     1
176
     1
 73
     1
176
     1
 90
        2
176
     1
 40
-0.6
176
     1
 41
30.0
176
     1
 62
     5
 63
     7
421
 16777215
176
     1
 74
     0
176
     1
 91
        4
176
     1
 64
     7
176
     1
 65
   257
176
     1
 75
     1
176
     1
175
     1
176
     1
 42
1.0
176
     1
 92
        8
176
     1
 66
     7
176
     1
 43
1.0
176
     1
 76
     1
176
     1
 77
     6
176
     1
 78
     2
176
     1
 67
     7
176
     1
 79
     5
176
     1
170
     0
176
     1
171
     0
176
     1
290
     0
176
     1
 93
       13
176
     1
 44
0.0
176
     1
173
     0
176
     1
  0
VISUALSTYLE
  5
2C
102
{ACAD_REACTORS
330
2A
102
}
330
2A
100
AcDbVisualStyle
  2
FlatWithEdges
 70
     1
177
     2
291
     1
 71
     2
176
     1
 72
     1
176
     1
 73
     1
176
     1
 90
        2
176
     1
 40
-0.6
176
     1
 41
30.0
176
     1
 62
     5
 63
     7
421
 16777215
176
     1
 74
     1
176
     1
 91
        4
176
     1
 64
     7
176
     1
 65
   257
176
     1
 75
     1
176
     1
175
     1
176
     1
 42
1.0
176
     1
 92
        0
176
     1
 66
   257
176
     1
 43
1.0
176
     1
 76
     1
176
     1
 77
     6
176
     1
 78
     2
176
     1
 67
     7
176
     1
 79
     5
176
     1
170
     0
176
     1
171
     0
176
     1
290
     0
176
     1
 93
       13
176
     1
 44
0.0
176
     1
173
     0
176
     1
  0
VISUALSTYLE
  5
2D
102
{ACAD_REACTORS
330
2A
102
}
330
2A
100
AcDbVisualStyle
  2
Gouraud
 70
     2
177
     2
291
     1
 71
     2
176
     1
 72
     2
176
     1
 73
     1
176
     1
 90
        2
176
     1
 40
-0.6
176
     1
 41
30.0
176
     1
 62
     5
 63
     7
421
 16777215
176
     1
 74
     0
176
     1
 91
        4
176
     1
 64
     7
176
     1
 65
   257
176
     1
 75
     1
176
     1
175
     1
176
     1
 42
1.0
176
     1
 92
        0
176
     1
 66
     7
176
     1
 43
1.0
176
     1
 76
     1
176
     1
 77
     6
176
     1
 78
     2
176
     1
 67
     7
176
     1
 79
     5
176
     1
170
     0
176
     1
171
     0
176
     1
290
     0
176
     1
 93
       13
176
     1
 44
0.0
176
     1
173
     0
176
     1
  0
VISUALSTYLE
  5
2E
102
{ACAD_REACTORS
330
2A
102
}
330
2A
100
AcDbVisualStyle
  2
GouraudWithEdges
 70
     3
177
     2
291
     1
 71
     2
176
     1
 72
     2
176
     1
 73
     1
176
     1
 90
        2
176
     1
 40
-0.6
176
     1
 41
30.0
176
     1
 62
     5
 63
     7
421
 16777215
176
     1
 74
     1
176
     1
 91
        4
176
     1
 64
     7
176
     1
 65
   257
176
     1
 75
     1
176
     1
175
     1
176
     1
 42
1.0
176
     1
 92
        0
176
     1
 66
   257
176
     1
 43
1.0
176
     1
 76
     1
176
     1
 77
     6
176
     1
 78
     2
176
     1
 67
     7
176
     1
 79
     5
176
     1
170
     0
176
     1
171
     0
176
     1
290
     0
176
     1
 93
       13
176
     1
 44
0.0
176
     1
173
     0
176
     1
  0
VISUALSTYLE
  5
38
102
{ACAD_REACTORS
330
2A
102
}
330
2A
100
AcDbVisualStyle
  2
Linepattern
 70
    14
177
     2
291
     1
 71
     2
176
     1
 72
     2
176
     1
 73
     0
176
     1
 90
        0
176
     1
 40
-0.6
176
     1
 41
-30.0
176
     1
 62
     5
 63
     7
421
 16777215
176
     1
 74
     1
176
     1
 91
        4
176
     1
 64
     7
176
     1
 65
   257
176
     1
 75
     7
176
     1
175
     7
176
     1
 42
1.0
176
     1
 92
        8
176
     1
 66
     7
176
     1
 43
1.0
176
     1
 76
     1
176
     1
 77
     6
176
     1
 78
     2
176
     1
 67
     7
176
     1
 79
     5
176
     1
170
     0
176
     1
171
     0
176
     1
290
     0
176
     1
 93
        1
176
     1
 44
0.0
176
     1
173
     0
176
     1
  0
VISUALSTYLE
  5
33
102
{ACAD_REACTORS
330
2A
102
}
330
2A
100
AcDbVisualStyle
  2
Realistic
 70
     8
177
     2
291
     0
 71
     2
176
     1
 72
     2
176
     1
 73
     0
176
     1
 90
        0
176
     1
 40
-0.6
176
     1
 41
-30.0
176
     1
 62
     5
 63
     7
421
 16777215
176
     1
 74
     1
176
     1
 91
        0
176
     1
 64
     7
176
     1
 65
   257
176
     1
 75
     1
176
     1
175
     1
176
     1
 42
1.0
176
     1
 92
        8
176
     1
 66
     8
424
  7895160
176
     1
 43
1.0
176
     1
 76
     1
176
     1
 77
     6
176
     1
 78
     2
176
     1
 67
     7
176
     1
 79
     5
176
     1
170
     0
176
     1
171
     0
176
     1
290
     0
176
     1
 93
       13
176
     1
 44
0.0
176
     1
173
     0
176
     1
  0
VISUALSTYLE
  5
37
102
{ACAD_REACTORS
330
2A
102
}
330
2A
100
AcDbVisualStyle
  2
Thicken
 70
    13
177
     2
291
     1
 71
     2
176
     1
 72
     2
176
     1
 73
     0
176
     1
 90
        0
176
     1
 40
-0.6
176
     1
 41
-30.0
176
     1
 62
     5
 63
     7
421
 16777215
176
     1
 74
     1
176
     1
 91
        4
176
     1
 64
     7
176
     1
 65
   257
176
     1
 75
     1
176
     1
175
     1
176
     1
 42
1.0
176
     1
 92
       12
176
     1
 66
     7
176
     1
 43
1.0
176
     1
 76
     1
176
     1
 77
     6
176
     1
 78
     2
176
     1
 67
     7
176
     1
 79
     5
176
     1
170
     0
176
     1
171
     0
176
     1
290
     0
176
     1
 93
        1
176
     1
 44
0.0
176
     1
173
     0
176
     1
  0
ENDSEC
  0
EOF
