  0
SECTION
  2
HEADER
  9
$ACADVER
  1
AC1024
  9
$ACADMAINTVER
 70
     6
  9
$DWGCODEPAGE
  3
ANSI_1254
  9
$INSBASE
 10
0.0
 20
0.0
 30
0.0
  9
$EXTMIN
 10
1.000000000000000E+20
 20
1.000000000000000E+20
 30
1.000000000000000E+20
  9
$EXTMAX
 10
-1.000000000000000E+20
 20
-1.000000000000000E+20
 30
-1.000000000000000E+20
  9
$LIMMIN
 10
0.0
 20
0.0
  9
$LIMMAX
 10
12.0
 20
9.0
  9
$ORTHOMODE
 70
     0
  9
$REGENMODE
 70
     1
  9
$FILLMODE
 70
     1
  9
$QTEXTMODE
 70
     0
  9
$MIRRTEXT
 70
     1
  9
$LTSCALE
 40
1.0
  9
$ATTMODE
 70
     1
  9
$TEXTSIZE
 40
0.2
  9
$TRACEWID
 40
0.05
  9
$TEXTSTYLE
  7
Standard
  9
$CLAYER
  8
0
  9
$CELTYPE
  6
ByLayer
  9
$CECOLOR
 62
   256
  9
$CELTSCALE
 40
1.0
  9
$DISPSILH
 70
     0
  9
$DIMSCALE
 40
1.0
  9
$DIMASZ
 40
0.18
  9
$DIMEXO
 40
0.0625
  9
$DIMDLI
 40
0.38
  9
$DIMRND
 40
0.0
  9
$DIMDLE
 40
0.0
  9
$DIMEXE
 40
0.18
  9
$DIMTP
 40
0.0
  9
$DIMTM
 40
0.0
  9
$DIMTXT
 40
0.18
  9
$DIMCEN
 40
0.09
  9
$DIMTSZ
 40
0.0
  9
$DIMTOL
 70
     0
  9
$DIMLIM
 70
     0
  9
$DIMTIH
 70
     1
  9
$DIMTOH
 70
     1
  9
$DIMSE1
 70
     0
  9
$DIMSE2
 70
     0
  9
$DIMTAD
 70
     0
  9
$DIMZIN
 70
     0
  9
$DIMBLK
  1

  9
$DIMASO
 70
     1
  9
$DIMSHO
 70
     1
  9
$DIMPOST
  1

  9
$DIMAPOST
  1

  9
$DIMALT
 70
     0
  9
$DIMALTD
 70
     2
  9
$DIMALTF
 40
25.4
  9
$DIMLFAC
 40
1.0
  9
$DIMTOFL
 70
     0
  9
$DIMTVP
 40
0.0
  9
$DIMTIX
 70
     0
  9
$DIMSOXD
 70
     0
  9
$DIMSAH
 70
     0
  9
$DIMBLK1
  1

  9
$DIMBLK2
  1

  9
$DIMSTYLE
  2
Standard
  9
$DIMCLRD
 70
     0
  9
$DIMCLRE
 70
     0
  9
$DIMCLRT
 70
     0
  9
$DIMTFAC
 40
1.0
  9
$DIMGAP
 40
0.09
  9
$DIMJUST
 70
     0
  9
$DIMSD1
 70
     0
  9
$DIMSD2
 70
     0
  9
$DIMTOLJ
 70
     1
  9
$DIMTZIN
 70
     0
  9
$DIMALTZ
 70
     0
  9
$DIMALTTZ
 70
     0
  9
$DIMUPT
 70
     0
  9
$DIMDEC
 70
     4
  9
$DIMTDEC
 70
     4
  9
$DIMALTU
 70
     2
  9
$DIMALTTD
 70
     2
  9
$DIMTXSTY
  7
Standard
  9
$DIMAUNIT
 70
     0
  9
$DIMADEC
 70
     0
  9
$DIMALTRND
 40
0.0
  9
$DIMAZIN
 70
     0
  9
$DIMDSEP
 70
    46
  9
$DIMATFIT
 70
     3
  9
$DIMFRAC
 70
     0
  9
$DIMLDRBLK
  1

  9
$DIMLUNIT
 70
     2
  9
$DIMLWD
 70
    -2
  9
$DIMLWE
 70
    -2
  9
$DIMTMOVE
 70
     0
  9
$DIMFXL
 40
1.0
  9
$DIMFXLON
 70
     0
  9
$DIMJOGANG
 40
0.7853981633974483
  9
$DIMTFILL
 70
     0
  9
$DIMTFILLCLR
 70
     0
  9
$DIMARCSYM
 70
     0
  9
$DIMLTYPE
  6

  9
$DIMLTEX1
  6

  9
$DIMLTEX2
  6

  9
$DIMTXTDIRECTION
 70
     0
  9
$LUNITS
 70
     2
  9
$LUPREC
 70
     4
  9
$SKETCHINC
 40
0.1
  9
$FILLETRAD
 40
0.5
  9
$AUNITS
 70
     0
  9
$AUPREC
 70
     0
  9
$MENU
  1
.
  9
$ELEVATION
 40
0.0
  9
$PELEVATION
 40
0.0
  9
$THICKNESS
 40
0.0
  9
$LIMCHECK
 70
     0
  9
$CHAMFERA
 40
0.5
  9
$CHAMFERB
 40
0.5
  9
$CHAMFERC
 40
1.0
  9
$CHAMFERD
 40
0.0
  9
$SKPOLY
 70
     0
  9
$TDCREATE
 40
2459350.911919456
  9
$TDUCREATE
 40
2459350.786919456
  9
$TDUPDATE
 40
2459350.911919468
  9
$TDUUPDATE
 40
2459350.786919468
  9
$TDINDWG
 40
0.0000000116
  9
$TDUSRTIMER
 40
0.0000000116
  9
$USRTIMER
 70
     1
  9
$ANGBASE
 50
0.0
  9
$ANGDIR
 70
     0
  9
$PDMODE
 70
     0
  9
$PDSIZE
 40
0.0
  9
$PLINEWID
 40
0.0
  9
$SPLFRAME
 70
     0
  9
$SPLINETYPE
 70
     6
  9
$SPLINESEGS
 70
     8
  9
$HANDSEED
  5
4F
  9
$SURFTAB1
 70
     6
  9
$SURFTAB2
 70
     6
  9
$SURFTYPE
 70
     6
  9
$SURFU
 70
     6
  9
$SURFV
 70
     6
  9
$UCSBASE
  2

  9
$UCSNAME
  2

  9
$UCSORG
 10
0.0
 20
0.0
 30
0.0
  9
$UCSXDIR
 10
1.0
 20
0.0
 30
0.0
  9
$UCSYDIR
 10
0.0
 20
1.0
 30
0.0
  9
$UCSORTHOREF
  2

  9
$UCSORTHOVIEW
 70
     0
  9
$UCSORGTOP
 10
0.0
 20
0.0
 30
0.0
  9
$UCSORGBOTTOM
 10
0.0
 20
0.0
 30
0.0
  9
$UCSORGLEFT
 10
0.0
 20
0.0
 30
0.0
  9
$UCSORGRIGHT
 10
0.0
 20
0.0
 30
0.0
  9
$UCSORGFRONT
 10
0.0
 20
0.0
 30
0.0
  9
$UCSORGBACK
 10
0.0
 20
0.0
 30
0.0
  9
$PUCSBASE
  2

  9
$PUCSNAME
  2

  9
$PUCSORG
 10
0.0
 20
0.0
 30
0.0
  9
$PUCSXDIR
 10
1.0
 20
0.0
 30
0.0
  9
$PUCSYDIR
 10
0.0
 20
1.0
 30
0.0
  9
$PUCSORTHOREF
  2

  9
$PUCSORTHOVIEW
 70
     0
  9
$PUCSORGTOP
 10
0.0
 20
0.0
 30
0.0
  9
$PUCSORGBOTTOM
 10
0.0
 20
0.0
 30
0.0
  9
$PUCSORGLEFT
 10
0.0
 20
0.0
 30
0.0
  9
$PUCSORGRIGHT
 10
0.0
 20
0.0
 30
0.0
  9
$PUCSORGFRONT
 10
0.0
 20
0.0
 30
0.0
  9
$PUCSORGBACK
 10
0.0
 20
0.0
 30
0.0
  9
$USERI1
 70
     0
  9
$USERI2
 70
     0
  9
$USERI3
 70
     0
  9
$USERI4
 70
     0
  9
$USERI5
 70
     0
  9
$USERR1
 40
0.0
  9
$USERR2
 40
0.0
  9
$USERR3
 40
0.0
  9
$USERR4
 40
0.0
  9
$USERR5
 40
0.0
  9
$WORLDVIEW
 70
     1
  9
$SHADEDGE
 70
     3
  9
$SHADEDIF
 70
    70
  9
$TILEMODE
 70
     1
  9
$MAXACTVP
 70
    64
  9
$PINSBASE
 10
0.0
 20
0.0
 30
0.0
  9
$PLIMCHECK
 70
     0
  9
$PEXTMIN
 10
1.000000000000000E+20
 20
1.000000000000000E+20
 30
1.000000000000000E+20
  9
$PEXTMAX
 10
-1.000000000000000E+20
 20
-1.000000000000000E+20
 30
-1.000000000000000E+20
  9
$PLIMMIN
 10
0.0
 20
0.0
  9
$PLIMMAX
 10
12.0
 20
9.0
  9
$UNITMODE
 70
     0
  9
$VISRETAIN
 70
     1
  9
$PLINEGEN
 70
     0
  9
$PSLTSCALE
 70
     1
  9
$TREEDEPTH
 70
  3020
  9
$CMLSTYLE
  2
Standard
  9
$CMLJUST
 70
     0
  9
$CMLSCALE
 40
1.0
  9
$PROXYGRAPHICS
 70
     1
  9
$MEASUREMENT
 70
     0
  9
$CELWEIGHT
370
    -1
  9
$ENDCAPS
280
     0
  9
$JOINSTYLE
280
     0
  9
$LWDISPLAY
290
     1
  9
$INSUNITS
 70
     0
  9
$HYPERLINKBASE
  1

  9
$STYLESHEET
  1

  9
$XEDIT
290
     1
  9
$CEPSNTYPE
380
     0
  9
$PSTYLEMODE
290
     1
  9
$FINGERPRINTGUID
  2
{2182D380-B98E-40FC-A74B-8CFC7CA02757}
  9
$VERSIONGUID
  2
{FAEB1C32-E019-11D5-929B-00C0DF256EC4}
  9
$EXTNAMES
290
     1
  9
$PSVPSCALE
 40
0.0
  9
$OLESTARTUP
290
     0
  9
$SORTENTS
280
   127
  9
$INDEXCTL
280
     0
  9
$HIDETEXT
280
     1
  9
$XCLIPFRAME
280
     2
  9
$HALOGAP
280
     0
  9
$OBSCOLOR
 70
   257
  9
$OBSLTYPE
280
     0
  9
$INTERSECTIONDISPLAY
280
     0
  9
$INTERSECTIONCOLOR
 70
   257
  9
$DIMASSOC
280
     2
  9
$PROJECTNAME
  1

  9
$CAMERADISPLAY
290
     0
  9
$LENSLENGTH
 40
50.0
  9
$CAMERAHEIGHT
 40
0.0
  9
$STEPSPERSEC
 40
2.0
  9
$STEPSIZE
 40
6.0
  9
$3DDWFPREC
 40
2.0
  9
$PSOLWIDTH
 40
0.25
  9
$PSOLHEIGHT
 40
4.0
  9
$LOFTANG1
 40
1.570796326794897
  9
$LOFTANG2
 40
1.570796326794897
  9
$LOFTMAG1
 40
0.0
  9
$LOFTMAG2
 40
0.0
  9
$LOFTPARAM
 70
     7
  9
$LOFTNORMALS
280
     1
  9
$LATITUDE
 40
37.795
  9
$LONGITUDE
 40
-122.394
  9
$NORTHDIRECTION
 40
0.0
  9
$TIMEZONE
 70
 -8000
  9
$LIGHTGLYPHDISPLAY
280
     1
  9
$TILEMODELIGHTSYNCH
280
     1
  9
$CMATERIAL
347
3C
  9
$SOLIDHIST
280
     1
  9
$SHOWHIST
280
     1
  9
$DWFFRAME
280
     2
  9
$DGNFRAME
280
     2
  9
$REALWORLDSCALE
290
     1
  9
$INTERFERECOLOR
 62
   256
  9
$CSHADOW
280
     0
  9
$SHADOWPLANELOCATION
 40
0.0
  0
ENDSEC
  0
SECTION
  2
CLASSES
  0
CLASS
  1
ACDBDICTIONARYWDFLT
  2
AcDbDictionaryWithDefault
  3
ObjectDBX Classes
 90
        0
 91
        4
280
     0
281
     0
  0
CLASS
  1
VISUALSTYLE
  2
AcDbVisualStyle
  3
ObjectDBX Classes
 90
     4095
 91
        4
280
     0
281
     0
  0
CLASS
  1
MATERIAL
  2
AcDbMaterial
  3
ObjectDBX Classes
 90
     1153
 91
        4
280
     0
281
     0
  0
CLASS
  1
SUN
  2
AcDbSun
  3
SCENEOE
 90
     1024
 91
        4
280
     0
281
     0
  0
ENDSEC
  0
SECTION
  2
TABLES
  0
TABLE
  2
VPORT
  5
8
330
0
100
AcDbSymbolTable
 70
     1
  0
VPORT
  5
29
330
8
100
AcDbSymbolTableRecord
100
AcDbViewportTableRecord
  2
*Active
 70
     0
 10
0.0
 20
0.0
 11
1.0
 21
1.0
 12
0.0
 22
0.0
 13
0.0
 23
0.0
 14
0.5
 24
0.5
 15
0.5
 25
0.5
 16
0.0
 26
0.0
 36
1.0
 17
954.1326184972268
 27
-991.2171243807161
 37
0.0
 40
725.5657512385642
 41
1.121538139910665
 42
50.0
 43
0.0
 44
0.0
 50
0.0
 51
0.0
 71
     0
 72
   100
 73
     1
 74
     3
 75
     0
 76
     0
 77
     0
 78
     0
281
     0
 65
     1
110
0.0
120
0.0
130
0.0
111
1.0
121
0.0
131
0.0
112
0.0
122
1.0
132
0.0
 79
     0
146
0.0
 60
     3
 61
     5
292
     1
282
     1
141
0.0
142
0.0
 63
   250
361
3F
  0
ENDTAB
  0
TABLE
  2
LTYPE
  5
5
330
0
100
AcDbSymbolTable
 70
     1
  0
LTYPE
  5
14
330
5
100
AcDbSymbolTableRecord
100
AcDbLinetypeTableRecord
  2
ByBlock
 70
     0
  3

 72
    65
 73
     0
 40
0.0
  0
LTYPE
  5
15
330
5
100
AcDbSymbolTableRecord
100
AcDbLinetypeTableRecord
  2
ByLayer
 70
     0
  3

 72
    65
 73
     0
 40
0.0
  0
LTYPE
  5
16
330
5
100
AcDbSymbolTableRecord
100
AcDbLinetypeTableRecord
  2
Continuous
 70
     0
  3
Solid line
 72
    65
 73
     0
 40
0.0
  0
ENDTAB
  0
TABLE
  2
LAYER
  5
2
330
0
100
AcDbSymbolTable
 70
     2
  0
LAYER
  5
10
330
2
100
AcDbSymbolTableRecord
100
AcDbLayerTableRecord
  2
0
 70
     0
 62
     7
  6
Continuous
370
    -3
390
F
347
3E
  0
LAYER
  5
40
330
2
100
AcDbSymbolTableRecord
100
AcDbLayerTableRecord
  2
katman 1
 70
     0
 62
     7
  6
Continuous
370
    -3
390
F
347
3E
  0
ENDTAB
  0
TABLE
  2
STYLE
  5
3
330
0
100
AcDbSymbolTable
 70
     1
  0
STYLE
  5
11
330
3
100
AcDbSymbolTableRecord
100
AcDbTextStyleTableRecord
  2
Standard
 70
     0
 40
0.0
 41
1.0
 50
0.0
 71
     0
 42
0.2
  3
txt
  4

  0
ENDTAB
  0
TABLE
  2
VIEW
  5
6
330
0
100
AcDbSymbolTable
 70
     0
  0
ENDTAB
  0
TABLE
  2
UCS
  5
7
330
0
100
AcDbSymbolTable
 70
     0
  0
ENDTAB
  0
TABLE
  2
APPID
  5
9
330
0
100
AcDbSymbolTable
 70
     1
  0
APPID
  5
12
330
9
100
AcDbSymbolTableRecord
100
AcDbRegAppTableRecord
  2
ACAD
 70
     0
  0
ENDTAB
  0
TABLE
  2
DIMSTYLE
  5
A
330
0
100
AcDbSymbolTable
 70
     1
100
AcDbDimStyleTable
  0
DIMSTYLE
105
27
330
A
100
AcDbSymbolTableRecord
100
AcDbDimStyleTableRecord
  2
Standard
 70
     0
178
     0
340
11
  0
ENDTAB
  0
TABLE
  2
BLOCK_RECORD
  5
1
330
0
100
AcDbSymbolTable
 70
     2
  0
BLOCK_RECORD
  5
1F
330
1
100
AcDbSymbolTableRecord
100
AcDbBlockTableRecord
  2
*Model_Space
340
22
 70
     0
280
     1
281
     0
  0
BLOCK_RECORD
  5
1B
330
1
100
AcDbSymbolTableRecord
100
AcDbBlockTableRecord
  2
*Paper_Space
340
1E
 70
     0
280
     1
281
     0
  0
BLOCK_RECORD
  5
23
330
1
100
AcDbSymbolTableRecord
100
AcDbBlockTableRecord
  2
*Paper_Space0
340
26
 70
     0
280
     1
281
     0
  0
BLOCK_RECORD
  5
41
330
1
100
AcDbSymbolTableRecord
100
AcDbBlockTableRecord
  2
block 2
340
0
102
{BLKREFS
331
42
102
}
 70
     0
280
     1
281
     0
  0
ENDTAB
  0
ENDSEC
  0
SECTION
  2
BLOCKS
  0
BLOCK
  5
20
330
1F
100
AcDbEntity
  8
0
100
AcDbBlockBegin
  2
*Model_Space
 70
     0
 10
0.0
 20
0.0
 30
0.0
  3
*Model_Space
  1

  0
ENDBLK
  5
21
330
1F
100
AcDbEntity
  8
0
100
AcDbBlockEnd
  0
BLOCK
  5
1C
330
1B
100
AcDbEntity
 67
     1
  8
0
100
AcDbBlockBegin
  2
*Paper_Space
 70
     0
 10
0.0
 20
0.0
 30
0.0
  3
*Paper_Space
  1

  0
ENDBLK
  5
1D
330
1B
100
AcDbEntity
 67
     1
  8
0
100
AcDbBlockEnd
  0
BLOCK
  5
24
330
23
100
AcDbEntity
  8
0
100
AcDbBlockBegin
  2
*Paper_Space0
 70
     0
 10
0.0
 20
0.0
 30
0.0
  3
*Paper_Space0
  1

  0
ENDBLK
  5
25
330
23
100
AcDbEntity
  8
0
100
AcDbBlockEnd
  0
BLOCK
  5
43
330
41
100
AcDbEntity
  8
0
100
AcDbBlockBegin
  2
block 2
 70
     0
 10
0.0
 20
0.0
 30
0.0
  3
block 2
  1

  0
SPLINE
  5
45
330
41
100
AcDbEntity
  8
katman 1
370
     0
100
AcDbSpline
210
0.0
220
0.0
230
1.0
 70
    11
 71
     3
 72
    77
 73
    73
 74
     0
 42
0.0000000001
 43
0.0000000001
 12
1.0
 22
0.0
 32
0.0
 13
1.0
 23
0.0
 33
0.0
 40
0.0
 40
0.0
 40
0.0
 40
0.0
 40
1.0
 40
1.0
 40
1.0
 40
2.0
 40
2.0
 40
2.0
 40
3.0
 40
3.0
 40
3.0
 40
4.0
 40
4.0
 40
4.0
 40
5.0
 40
5.0
 40
5.0
 40
6.0
 40
6.0
 40
6.0
 40
7.0
 40
7.0
 40
7.0
 40
8.0
 40
8.0
 40
8.0
 40
9.0
 40
9.0
 40
9.0
 40
10.0
 40
10.0
 40
10.0
 40
11.0
 40
11.0
 40
11.0
 40
12.0
 40
12.0
 40
12.0
 40
13.0
 40
13.0
 40
13.0
 40
14.0
 40
14.0
 40
14.0
 40
15.0
 40
15.0
 40
15.0
 40
16.0
 40
16.0
 40
16.0
 40
17.0
 40
17.0
 40
17.0
 40
18.0
 40
18.0
 40
18.0
 40
19.0
 40
19.0
 40
19.0
 40
20.0
 40
20.0
 40
20.0
 40
21.0
 40
21.0
 40
21.0
 40
22.0
 40
22.0
 40
22.0
 40
23.0
 40
23.0
 40
23.0
 40
24.0
 40
24.0
 40
24.0
 40
24.0
 10
616.4295971438851
 20
-628.434248761434
 30
0.0
 10
631.4625714819185
 20
-631.0643009690466
 30
0.0
 10
646.5386651569561
 20
-633.3925438591868
 30
0.0
 10
661.3129454026966
 20
-637.3591798688594
 30
0.0
 10
712.6492655465918
 20
-651.1274308838347
 30
0.0
 10
759.688388770458
 20
-674.1367931516961
 30
0.0
 10
804.7585728697986
 20
-701.9751031285114
 30
0.0
 10
884.0194471469522
 20
-750.9113236724379
 30
0.0
 10
957.5458936796176
 20
-807.5939701156167
 30
0.0
 10
1029.448399643257
 20
-866.4036690563917
 30
0.0
 10
1097.384211689026
 20
-921.9653223861205
 30
0.0
 10
1166.872210218287
 20
-975.3711733386299
 30
0.0
 10
1238.702830517999
 20
-1025.830830486424
 30
0.0
 10
1266.771090189915
 20
-1045.549037400495
 30
0.0
 10
1292.827296882737
 20
-1067.969162826264
 30
0.0
 10
1315.434219772003
 20
-1094.039711564299
 30
0.0
 10
1325.365143103771
 20
-1105.479707524984
 30
0.0
 10
1330.711524227385
 20
-1119.420438629195
 30
0.0
 10
1336.560885701174
 20
-1132.973101182797
 30
0.0
 10
1348.84881670807
 20
-1161.429385545855
 30
0.0
 10
1357.127027661454
 20
-1191.006717846692
 30
0.0
 10
1359.771490273368
 20
-1222.006851207843
 30
0.0
 10
1359.843332077831
 20
-1222.926671917983
 30
0.0
 10
1359.97271750101
 20
-1223.774606964193
 30
0.0
 10
1361.007450010718
 20
-1224.090789850869
 30
0.0
 10
1361.007450010718
 20
-1237.629110359259
 30
0.0
 10
1361.007450010718
 20
-1251.167387008183
 30
0.0
 10
1361.007450010718
 20
-1264.705707516574
 30
0.0
 10
1357.888778857987
 20
-1272.854576906244
 30
0.0
 10
1357.917462948413
 20
-1281.678882064374
 30
0.0
 10
1355.617998891998
 20
-1290.02893482222
 30
0.0
 10
1352.183100993123
 20
-1302.460593297508
 30
0.0
 10
1347.857154193469
 20
-1314.489841176977
 30
0.0
 10
1340.87244659615
 20
-1325.369357028239
 30
0.0
 10
1329.475564490034
 20
-1343.161738672356
 30
0.0
 10
1311.855638264204
 20
-1350.275787833387
 30
0.0
 10
1291.87870436324
 20
-1352.819636831482
 30
0.0
 10
1260.706115583806
 20
-1356.786286889888
 30
0.0
 10
1230.755144496507
 20
-1350.203946028923
 30
0.0
 10
1201.249697859597
 20
-1341.293413161653
 30
0.0
 10
1174.690466957136
 20
-1333.273929195162
 30
0.0
 10
1149.395967601382
 20
-1322.078230457222
 30
0.0
 10
1124.633264264627
 20
-1309.574686318005
 30
0.0
 10
1114.946638155609
 20
-1304.673873504247
 30
0.0
 10
1107.171451411865
 20
-1297.689165906928
 30
0.0
 10
1099.266923104409
 20
-1290.675686500254
 30
0.0
 10
970.2937789010484
 20
-1176.117525801385
 30
0.0
 10
840.7601107287974
 20
-1062.177344971191
 30
0.0
 10
715.221820564846
 20
-943.7962397525735
 30
0.0
 10
689.5824103725226
 20
-919.608380500189
 30
0.0
 10
663.497453800077
 20
-896.0385230462125
 30
0.0
 10
641.07735030404
 20
-868.731970711362
 30
0.0
 10
614.8343132531218
 20
-836.7833106199132
 30
0.0
 10
595.1879700732479
 20
-801.0260919133962
 30
0.0
 10
578.4878590751214
 20
-763.4292866109336
 30
0.0
 10
566.5304639649812
 20
-736.4675902883209
 30
0.0
 10
553.7969879485709
 20
-709.865261978588
 30
0.0
 10
548.2638178420966
 20
-680.6328788913524
 30
0.0
 10
548.2063303326586
 20
-680.3310709444877
 30
0.0
 10
547.6027118262082
 20
-680.1298656465779
 30
0.0
 10
547.2577869837351
 20
-679.871171554285
 30
0.0
 10
547.2577869837351
 20
-673.1020222649558
 30
0.0
 10
547.2577869837351
 20
-666.3328702344106
 30
0.0
 10
547.2577869837351
 20
-659.5637182038654
 30
0.0
 10
548.1775866207709
 20
-637.287320246488
 30
0.0
 10
560.0631226225169
 20
-632.6595785207473
 30
0.0
 10
582.0520820904094
 20
-629.1384703879867
 30
0.0
 10
584.0066572399883
 20
-628.8222892574013
 30
0.0
 10
586.1193210916881
 20
-629.7708326491565
 30
0.0
 10
587.9589213937161
 20
-628.434248761434
 30
0.0
 10
597.4443531696907
 20
-628.434248761434
 30
0.0
 10
606.9297904280984
 20
-628.434248761434
 30
0.0
 10
616.4295971438851
 20
-628.434248761434
 30
0.0
  0
HATCH
  5
46
330
41
100
AcDbEntity
  8
katman 1
 62
     7
420
 16777215
100
AcDbHatch
 10
0.0
 20
0.0
 30
0.0
210
0.0
220
0.0
230
1.0
  2
SOLID
 70
     1
 71
     0
 91
        1
 92
        1
 93
        1
 72
     4
 94
        3
 73
     0
 74
     1
 95
       77
 96
       73
 40
0.0
 40
0.0
 40
0.0
 40
0.0
 40
1.0
 40
1.0
 40
1.0
 40
2.0
 40
2.0
 40
2.0
 40
3.0
 40
3.0
 40
3.0
 40
4.0
 40
4.0
 40
4.0
 40
5.0
 40
5.0
 40
5.0
 40
6.0
 40
6.0
 40
6.0
 40
7.0
 40
7.0
 40
7.0
 40
8.0
 40
8.0
 40
8.0
 40
9.0
 40
9.0
 40
9.0
 40
10.0
 40
10.0
 40
10.0
 40
11.0
 40
11.0
 40
11.0
 40
12.0
 40
12.0
 40
12.0
 40
13.0
 40
13.0
 40
13.0
 40
14.0
 40
14.0
 40
14.0
 40
15.0
 40
15.0
 40
15.0
 40
16.0
 40
16.0
 40
16.0
 40
17.0
 40
17.0
 40
17.0
 40
18.0
 40
18.0
 40
18.0
 40
19.0
 40
19.0
 40
19.0
 40
20.0
 40
20.0
 40
20.0
 40
21.0
 40
21.0
 40
21.0
 40
22.0
 40
22.0
 40
22.0
 40
23.0
 40
23.0
 40
23.0
 40
24.0
 40
24.0
 40
24.0
 40
24.0
 10
616.4295971438851
 20
-628.434248761434
 10
631.4625714819185
 20
-631.0643009690466
 10
646.5386651569561
 20
-633.3925438591868
 10
661.3129454026966
 20
-637.3591798688594
 10
712.6492655465918
 20
-651.1274308838347
 10
759.688388770458
 20
-674.1367931516961
 10
804.7585728697986
 20
-701.9751031285114
 10
884.0194471469522
 20
-750.9113236724379
 10
957.5458936796176
 20
-807.5939701156167
 10
1029.448399643257
 20
-866.4036690563917
 10
1097.384211689026
 20
-921.9653223861205
 10
1166.872210218287
 20
-975.3711733386299
 10
1238.702830517999
 20
-1025.830830486424
 10
1266.771090189915
 20
-1045.549037400495
 10
1292.827296882737
 20
-1067.969162826264
 10
1315.434219772003
 20
-1094.039711564299
 10
1325.365143103771
 20
-1105.479707524984
 10
1330.711524227385
 20
-1119.420438629195
 10
1336.560885701174
 20
-1132.973101182797
 10
1348.84881670807
 20
-1161.429385545855
 10
1357.127027661454
 20
-1191.006717846692
 10
1359.771490273368
 20
-1222.006851207843
 10
1359.843332077831
 20
-1222.926671917983
 10
1359.97271750101
 20
-1223.774606964193
 10
1361.007450010718
 20
-1224.090789850869
 10
1361.007450010718
 20
-1237.629110359259
 10
1361.007450010718
 20
-1251.167387008183
 10
1361.007450010718
 20
-1264.705707516574
 10
1357.888778857987
 20
-1272.854576906244
 10
1357.917462948413
 20
-1281.678882064374
 10
1355.617998891998
 20
-1290.02893482222
 10
1352.183100993123
 20
-1302.460593297508
 10
1347.857154193469
 20
-1314.489841176977
 10
1340.87244659615
 20
-1325.369357028239
 10
1329.475564490034
 20
-1343.161738672356
 10
1311.855638264204
 20
-1350.275787833387
 10
1291.87870436324
 20
-1352.819636831482
 10
1260.706115583806
 20
-1356.786286889888
 10
1230.755144496507
 20
-1350.203946028923
 10
1201.249697859597
 20
-1341.293413161653
 10
1174.690466957136
 20
-1333.273929195162
 10
1149.395967601382
 20
-1322.078230457222
 10
1124.633264264627
 20
-1309.574686318005
 10
1114.946638155609
 20
-1304.673873504247
 10
1107.171451411865
 20
-1297.689165906928
 10
1099.266923104409
 20
-1290.675686500254
 10
970.2937789010484
 20
-1176.117525801385
 10
840.7601107287974
 20
-1062.177344971191
 10
715.221820564846
 20
-943.7962397525735
 10
689.5824103725226
 20
-919.608380500189
 10
663.497453800077
 20
-896.0385230462125
 10
641.07735030404
 20
-868.731970711362
 10
614.8343132531218
 20
-836.7833106199132
 10
595.1879700732479
 20
-801.0260919133962
 10
578.4878590751214
 20
-763.4292866109336
 10
566.5304639649812
 20
-736.4675902883209
 10
553.7969879485709
 20
-709.865261978588
 10
548.2638178420966
 20
-680.6328788913524
 10
548.2063303326586
 20
-680.3310709444877
 10
547.6027118262082
 20
-680.1298656465779
 10
547.2577869837351
 20
-679.871171554285
 10
547.2577869837351
 20
-673.1020222649558
 10
547.2577869837351
 20
-666.3328702344106
 10
547.2577869837351
 20
-659.5637182038654
 10
548.1775866207709
 20
-637.287320246488
 10
560.0631226225169
 20
-632.6595785207473
 10
582.0520820904094
 20
-629.1384703879867
 10
584.0066572399883
 20
-628.8222892574013
 10
586.1193210916881
 20
-629.7708326491565
 10
587.9589213937161
 20
-628.434248761434
 10
597.4443531696907
 20
-628.434248761434
 10
606.9297904280984
 20
-628.434248761434
 10
616.4295971438851
 20
-628.434248761434
 97
        0
 97
        0
 75
     2
 76
     1
 98
        0
  0
SPLINE
  5
47
330
41
100
AcDbEntity
  8
katman 1
370
     0
100
AcDbSpline
210
0.0
220
0.0
230
1.0
 70
    11
 71
     3
 72
    62
 73
    58
 74
     0
 42
0.0000000001
 43
0.0000000001
 12
1.0
 22
0.0
 32
0.0
 13
1.0
 23
0.0
 33
0.0
 40
0.0
 40
0.0
 40
0.0
 40
0.0
 40
1.0
 40
1.0
 40
1.0
 40
2.0
 40
2.0
 40
2.0
 40
3.0
 40
3.0
 40
3.0
 40
4.0
 40
4.0
 40
4.0
 40
5.0
 40
5.0
 40
5.0
 40
6.0
 40
6.0
 40
6.0
 40
7.0
 40
7.0
 40
7.0
 40
8.0
 40
8.0
 40
8.0
 40
9.0
 40
9.0
 40
9.0
 40
10.0
 40
10.0
 40
10.0
 40
11.0
 40
11.0
 40
11.0
 40
12.0
 40
12.0
 40
12.0
 40
13.0
 40
13.0
 40
13.0
 40
14.0
 40
14.0
 40
14.0
 40
15.0
 40
15.0
 40
15.0
 40
16.0
 40
16.0
 40
16.0
 40
17.0
 40
17.0
 40
17.0
 40
18.0
 40
18.0
 40
18.0
 40
19.0
 40
19.0
 40
19.0
 40
19.0
 10
1114.228044673113
 20
-1117.221544327134
 30
0.0
 10
1110.175166905563
 20
-1133.547967196902
 30
0.0
 10
1104.124622063597
 20
-1149.500751280208
 30
0.0
 10
1102.687435098604
 20
-1166.344584264292
 30
0.0
 10
1101.307747892863
 20
-1182.498551715775
 30
0.0
 10
1099.539992136515
 20
-1198.480107608439
 30
0.0
 10
1096.708732061103
 20
-1214.490347591527
 30
0.0
 10
1094.179268967686
 20
-1228.833489291555
 30
0.0
 10
1100.445426941975
 20
-1242.328652085909
 30
0.0
 10
1106.481585879261
 20
-1255.248992725625
 30
0.0
 10
1109.686528600601
 20
-1262.10435875923
 30
0.0
 10
1113.279496013081
 20
-1268.772927329337
 30
0.0
 10
1116.858077520883
 20
-1275.872634445155
 30
0.0
 10
1113.092654690117
 20
-1276.591227927651
 30
0.0
 10
1111.253057129306
 20
-1274.622288803126
 30
0.0
 10
1109.284118004782
 20
-1272.883304856136
 30
0.0
 10
1033.544347405914
 20
-1205.910383515611
 30
0.0
 10
955.3757711869157
 20
-1141.754380205288
 30
0.0
 10
879.4060673402455
 20
-1075.083255846761
 30
0.0
 10
812.8786923798434
 20
-1016.690342441618
 30
0.0
 10
748.5070759371974
 20
-956.0266929299523
 30
0.0
 10
689.4387048338631
 20
-889.9592063948876
 30
0.0
 10
659.7464168739907
 20
-856.7458147567313
 30
0.0
 10
632.1811759292814
 20
-822.0952361535828
 30
0.0
 10
612.6641797955535
 20
-781.7102846302787
 30
0.0
 10
599.9738162631056
 20
-755.4528836044146
 30
0.0
 10
591.9255714521232
 20
-727.5283294711571
 30
0.0
 10
584.4953147334654
 20
-699.531933533437
 30
0.0
 10
578.5597337741838
 20
-677.1693023844837
 30
0.0
 10
595.3029586268813
 20
-658.0690890451715
 30
0.0
 10
620.2381557589542
 20
-658.3708997332524
 30
0.0
 10
653.3653142055355
 20
-658.7876852688842
 30
0.0
 10
685.5583044143314
 20
-665.2406544127525
 30
0.0
 10
716.644665484624
 20
-676.7381473914729
 30
0.0
 10
723.5719062172911
 20
-679.2963384347804
 30
0.0
 10
730.743466102439
 20
-681.4090050276973
 30
0.0
 10
737.1245797357615
 20
-685.3181553268541
 30
0.0
 10
775.0663068396589
 20
-710.7994795582717
 30
0.0
 10
809.7456353224325
 20
-740.4342732413279
 30
0.0
 10
844.7267607872045
 20
-769.6810257859433
 30
0.0
 10
864.6461729991843
 20
-786.3380174470658
 30
0.0
 10
883.7607640195256
 20
-803.9435577682179
 30
0.0
 10
901.8261927660151
 20
-822.5407606039735
 30
0.0
 10
930.3112270086967
 20
-851.8593659179187
 30
0.0
 10
954.4416084315644
 20
-884.3110502190084
 30
0.0
 10
970.4231204647622
 20
-922.353390936727
 30
0.0
 10
990.0263717197977
 20
-968.9901035647745
 30
0.0
 10
1017.720948745788
 20
-1010.452956276687
 30
0.0
 10
1051.710411695956
 20
-1047.891659170946
 30
0.0
 10
1066.427192182447
 20
-1064.103126381679
 30
0.0
 10
1081.258972187437
 20
-1080.170866124017
 30
0.0
 10
1096.881187479386
 20
-1095.534398288541
 30
0.0
 10
1100.431041037295
 20
-1099.0267520872
 30
0.0
 10
1104.19646386806
 20
-1102.231694808539
 30
0.0
 10
1107.918772844254
 20
-1105.522865239021
 30
0.0
 10
1111.324942793235
 20
-1108.540922777933
 30
0.0
 10
1115.449662365249
 20
-1111.544638271631
 30
0.0
 10
1114.228044673113
 20
-1117.221544327134
 30
0.0
  0
HATCH
  5
48
330
41
100
AcDbEntity
  8
katman 1
 62
    44
420
 11305763
100
AcDbHatch
 10
0.0
 20
0.0
 30
0.0
210
0.0
220
0.0
230
1.0
  2
SOLID
 70
     1
 71
     0
 91
        1
 92
        1
 93
        1
 72
     4
 94
        3
 73
     0
 74
     1
 95
       62
 96
       58
 40
0.0
 40
0.0
 40
0.0
 40
0.0
 40
1.0
 40
1.0
 40
1.0
 40
2.0
 40
2.0
 40
2.0
 40
3.0
 40
3.0
 40
3.0
 40
4.0
 40
4.0
 40
4.0
 40
5.0
 40
5.0
 40
5.0
 40
6.0
 40
6.0
 40
6.0
 40
7.0
 40
7.0
 40
7.0
 40
8.0
 40
8.0
 40
8.0
 40
9.0
 40
9.0
 40
9.0
 40
10.0
 40
10.0
 40
10.0
 40
11.0
 40
11.0
 40
11.0
 40
12.0
 40
12.0
 40
12.0
 40
13.0
 40
13.0
 40
13.0
 40
14.0
 40
14.0
 40
14.0
 40
15.0
 40
15.0
 40
15.0
 40
16.0
 40
16.0
 40
16.0
 40
17.0
 40
17.0
 40
17.0
 40
18.0
 40
18.0
 40
18.0
 40
19.0
 40
19.0
 40
19.0
 40
19.0
 10
1114.228044673113
 20
-1117.221544327134
 10
1110.175166905563
 20
-1133.547967196902
 10
1104.124622063597
 20
-1149.500751280208
 10
1102.687435098604
 20
-1166.344584264292
 10
1101.307747892863
 20
-1182.498551715775
 10
1099.539992136515
 20
-1198.480107608439
 10
1096.708732061103
 20
-1214.490347591527
 10
1094.179268967686
 20
-1228.833489291555
 10
1100.445426941975
 20
-1242.328652085909
 10
1106.481585879261
 20
-1255.248992725625
 10
1109.686528600601
 20
-1262.10435875923
 10
1113.279496013081
 20
-1268.772927329337
 10
1116.858077520883
 20
-1275.872634445155
 10
1113.092654690117
 20
-1276.591227927651
 10
1111.253057129306
 20
-1274.622288803126
 10
1109.284118004782
 20
-1272.883304856136
 10
1033.544347405914
 20
-1205.910383515611
 10
955.3757711869157
 20
-1141.754380205288
 10
879.4060673402455
 20
-1075.083255846761
 10
812.8786923798434
 20
-1016.690342441618
 10
748.5070759371974
 20
-956.0266929299523
 10
689.4387048338631
 20
-889.9592063948876
 10
659.7464168739907
 20
-856.7458147567313
 10
632.1811759292814
 20
-822.0952361535828
 10
612.6641797955535
 20
-781.7102846302787
 10
599.9738162631056
 20
-755.4528836044146
 10
591.9255714521232
 20
-727.5283294711571
 10
584.4953147334654
 20
-699.531933533437
 10
578.5597337741838
 20
-677.1693023844837
 10
595.3029586268813
 20
-658.0690890451715
 10
620.2381557589542
 20
-658.3708997332524
 10
653.3653142055355
 20
-658.7876852688842
 10
685.5583044143314
 20
-665.2406544127525
 10
716.644665484624
 20
-676.7381473914729
 10
723.5719062172911
 20
-679.2963384347804
 10
730.743466102439
 20
-681.4090050276973
 10
737.1245797357615
 20
-685.3181553268541
 10
775.0663068396589
 20
-710.7994795582717
 10
809.7456353224325
 20
-740.4342732413279
 10
844.7267607872045
 20
-769.6810257859433
 10
864.6461729991843
 20
-786.3380174470658
 10
883.7607640195256
 20
-803.9435577682179
 10
901.8261927660151
 20
-822.5407606039735
 10
930.3112270086967
 20
-851.8593659179187
 10
954.4416084315644
 20
-884.3110502190084
 10
970.4231204647622
 20
-922.353390936727
 10
990.0263717197977
 20
-968.9901035647745
 10
1017.720948745788
 20
-1010.452956276687
 10
1051.710411695956
 20
-1047.891659170946
 10
1066.427192182447
 20
-1064.103126381679
 10
1081.258972187437
 20
-1080.170866124017
 10
1096.881187479386
 20
-1095.534398288541
 10
1100.431041037295
 20
-1099.0267520872
 10
1104.19646386806
 20
-1102.231694808539
 10
1107.918772844254
 20
-1105.522865239021
 10
1111.324942793235
 20
-1108.540922777933
 10
1115.449662365249
 20
-1111.544638271631
 10
1114.228044673113
 20
-1117.221544327134
 97
        0
 97
        0
 75
     2
 76
     1
 98
        0
  0
SPLINE
  5
49
330
41
100
AcDbEntity
  8
katman 1
370
     0
100
AcDbSpline
210
0.0
220
0.0
230
1.0
 70
    11
 71
     3
 72
    56
 73
    52
 74
     0
 42
0.0000000001
 43
0.0000000001
 12
1.0
 22
0.0
 32
0.0
 13
1.0
 23
0.0
 33
0.0
 40
0.0
 40
0.0
 40
0.0
 40
0.0
 40
1.0
 40
1.0
 40
1.0
 40
2.0
 40
2.0
 40
2.0
 40
3.0
 40
3.0
 40
3.0
 40
4.0
 40
4.0
 40
4.0
 40
5.0
 40
5.0
 40
5.0
 40
6.0
 40
6.0
 40
6.0
 40
7.0
 40
7.0
 40
7.0
 40
8.0
 40
8.0
 40
8.0
 40
9.0
 40
9.0
 40
9.0
 40
10.0
 40
10.0
 40
10.0
 40
11.0
 40
11.0
 40
11.0
 40
12.0
 40
12.0
 40
12.0
 40
13.0
 40
13.0
 40
13.0
 40
14.0
 40
14.0
 40
14.0
 40
15.0
 40
15.0
 40
15.0
 40
16.0
 40
16.0
 40
16.0
 40
17.0
 40
17.0
 40
17.0
 40
17.0
 10
1114.228044673113
 20
-1117.221544327134
 30
0.0
 10
1113.092654690117
 20
-1112.924369336837
 30
0.0
 10
1110.376394133205
 20
-1109.633198906355
 30
0.0
 10
1107.157065507186
 20
-1106.787552926264
 30
0.0
 10
1081.086516769152
 20
-1083.835675340961
 30
0.0
 10
1058.01963966535
 20
-1058.066923584925
 30
0.0
 10
1035.700127853401
 20
-1031.536420632356
 30
0.0
 10
1012.863205927133
 20
-1004.387937811112
 30
0.0
 10
993.2887264814563
 20
-975.1699461109874
 30
0.0
 10
978.1839213038256
 20
-943.0488086715213
 30
0.0
 10
969.7620267415159
 20
-925.1414494386372
 30
0.0
 10
962.3317508343416
 20
-906.745473830526
 30
0.0
 10
952.113372565791
 20
-889.7147995234754
 30
0.0
 10
940.1703523954648
 20
-869.8241371911217
 30
0.0
 10
925.7984827455439
 20
-851.8305502490957
 30
0.0
 10
910.5499281697885
 20
-834.3256235417639
 30
0.0
 10
896.5804691156864
 20
-818.2866117493159
 30
0.0
 10
880.6708208166856
 20
-804.317163660081
 30
0.0
 10
865.2354249179662
 20
-789.930919070348
 30
0.0
 10
845.4022404151292
 20
-771.4343188835473
 30
0.0
 10
824.1031409974075
 20
-754.461144335748
 30
0.0
 10
803.0627247071125
 20
-737.3011394298519
 30
0.0
 10
785.5002982405313
 20
-722.9867585743141
 30
0.0
 10
767.8947579193773
 20
-708.701116633536
 30
0.0
 10
749.4556465269616
 20
-695.4790009415556
 30
0.0
 10
745.1297216570392
 20
-692.3746773164694
 30
0.0
 10
739.7833843928893
 20
-690.4344771067035
 30
0.0
 10
737.1245797357615
 20
-685.2893451404643
 30
0.0
 10
758.3374514443403
 20
-693.1363846535369
 30
0.0
 10
777.8688389651797
 20
-704.3033280294176
 30
0.0
 10
797.2277491380019
 20
-715.8151986891662
 30
0.0
 10
844.2525083869214
 20
-743.7828557121284
 30
0.0
 10
886.8507291520982
 20
-777.786693602111
 30
0.0
 10
929.6357912402373
 20
-811.632451013621
 30
0.0
 10
963.9127091271912
 20
-838.7521620255075
 30
0.0
 10
999.2531313332111
 20
-864.5065498065978
 30
0.0
 10
1033.989959575236
 20
-891.0370308294332
 30
0.0
 10
1103.334230636103
 20
-943.9973573315528
 30
0.0
 10
1171.816180746082
 20
-998.0212100824683
 30
0.0
 10
1237.668098008291
 20
-1055.293119409296
 30
0.0
 10
1243.258776354654
 20
-1060.150818368484
 30
0.0
 10
1248.935638550694
 20
-1064.922289618529
 30
0.0
 10
1256.294028793938
 20
-1071.202789638031
 30
0.0
 10
1251.853126335249
 20
-1071.202789638031
 30
0.0
 10
1249.323663241834
 20
-1071.15967578346
 30
0.0
 10
1246.794244007884
 20
-1071.21717554271
 30
0.0
 10
1220.651809605921
 20
-1071.7776995116
 30
0.0
 10
1194.494989299279
 20
-1072.194452152633
 30
0.0
 10
1168.755009352601
 20
-1077.655788935281
 30
0.0
 10
1144.69642587473
 20
-1082.786556926576
 30
0.0
 10
1124.848877396948
 20
-1093.651686873158
 30
0.0
 10
1114.228044673113
 20
-1117.221544327134
 30
0.0
  0
HATCH
  5
4A
330
41
100
AcDbEntity
  8
katman 1
 62
    44
420
  9531165
100
AcDbHatch
 10
0.0
 20
0.0
 30
0.0
210
0.0
220
0.0
230
1.0
  2
SOLID
 70
     1
 71
     0
 91
        1
 92
        1
 93
        1
 72
     4
 94
        3
 73
     0
 74
     1
 95
       56
 96
       52
 40
0.0
 40
0.0
 40
0.0
 40
0.0
 40
1.0
 40
1.0
 40
1.0
 40
2.0
 40
2.0
 40
2.0
 40
3.0
 40
3.0
 40
3.0
 40
4.0
 40
4.0
 40
4.0
 40
5.0
 40
5.0
 40
5.0
 40
6.0
 40
6.0
 40
6.0
 40
7.0
 40
7.0
 40
7.0
 40
8.0
 40
8.0
 40
8.0
 40
9.0
 40
9.0
 40
9.0
 40
10.0
 40
10.0
 40
10.0
 40
11.0
 40
11.0
 40
11.0
 40
12.0
 40
12.0
 40
12.0
 40
13.0
 40
13.0
 40
13.0
 40
14.0
 40
14.0
 40
14.0
 40
15.0
 40
15.0
 40
15.0
 40
16.0
 40
16.0
 40
16.0
 40
17.0
 40
17.0
 40
17.0
 40
17.0
 10
1114.228044673113
 20
-1117.221544327134
 10
1113.092654690117
 20
-1112.924369336837
 10
1110.376394133205
 20
-1109.633198906355
 10
1107.157065507186
 20
-1106.787552926264
 10
1081.086516769152
 20
-1083.835675340961
 10
1058.01963966535
 20
-1058.066923584925
 10
1035.700127853401
 20
-1031.536420632356
 10
1012.863205927133
 20
-1004.387937811112
 10
993.2887264814563
 20
-975.1699461109874
 10
978.1839213038256
 20
-943.0488086715213
 10
969.7620267415159
 20
-925.1414494386372
 10
962.3317508343416
 20
-906.745473830526
 10
952.113372565791
 20
-889.7147995234754
 10
940.1703523954648
 20
-869.8241371911217
 10
925.7984827455439
 20
-851.8305502490957
 10
910.5499281697885
 20
-834.3256235417639
 10
896.5804691156864
 20
-818.2866117493159
 10
880.6708208166856
 20
-804.317163660081
 10
865.2354249179662
 20
-789.930919070348
 10
845.4022404151292
 20
-771.4343188835473
 10
824.1031409974075
 20
-754.461144335748
 10
803.0627247071125
 20
-737.3011394298519
 10
785.5002982405313
 20
-722.9867585743141
 10
767.8947579193773
 20
-708.701116633536
 10
749.4556465269616
 20
-695.4790009415556
 10
745.1297216570392
 20
-692.3746773164694
 10
739.7833843928893
 20
-690.4344771067035
 10
737.1245797357615
 20
-685.2893451404643
 10
758.3374514443403
 20
-693.1363846535369
 10
777.8688389651797
 20
-704.3033280294176
 10
797.2277491380019
 20
-715.8151986891662
 10
844.2525083869214
 20
-743.7828557121284
 10
886.8507291520982
 20
-777.786693602111
 10
929.6357912402373
 20
-811.632451013621
 10
963.9127091271912
 20
-838.7521620255075
 10
999.2531313332111
 20
-864.5065498065978
 10
1033.989959575236
 20
-891.0370308294332
 10
1103.334230636103
 20
-943.9973573315528
 10
1171.816180746082
 20
-998.0212100824683
 10
1237.668098008291
 20
-1055.293119409296
 10
1243.258776354654
 20
-1060.150818368484
 10
1248.935638550694
 20
-1064.922289618529
 10
1256.294028793938
 20
-1071.202789638031
 10
1251.853126335249
 20
-1071.202789638031
 10
1249.323663241834
 20
-1071.15967578346
 10
1246.794244007884
 20
-1071.21717554271
 10
1220.651809605921
 20
-1071.7776995116
 10
1194.494989299279
 20
-1072.194452152633
 10
1168.755009352601
 20
-1077.655788935281
 10
1144.69642587473
 20
-1082.786556926576
 10
1124.848877396948
 20
-1093.651686873158
 10
1114.228044673113
 20
-1117.221544327134
 97
        0
 97
        0
 75
     2
 76
     1
 98
        0
  0
SPLINE
  5
4B
330
41
100
AcDbEntity
  8
katman 1
370
     0
100
AcDbSpline
210
0.0
220
0.0
230
1.0
 70
    11
 71
     3
 72
   104
 73
   100
 74
     0
 42
0.0000000001
 43
0.0000000001
 12
1.0
 22
0.0
 32
0.0
 13
1.0
 23
0.0
 33
0.0
 40
0.0
 40
0.0
 40
0.0
 40
0.0
 40
1.0
 40
1.0
 40
1.0
 40
2.0
 40
2.0
 40
2.0
 40
3.0
 40
3.0
 40
3.0
 40
4.0
 40
4.0
 40
4.0
 40
5.0
 40
5.0
 40
5.0
 40
6.0
 40
6.0
 40
6.0
 40
7.0
 40
7.0
 40
7.0
 40
8.0
 40
8.0
 40
8.0
 40
9.0
 40
9.0
 40
9.0
 40
10.0
 40
10.0
 40
10.0
 40
11.0
 40
11.0
 40
11.0
 40
12.0
 40
12.0
 40
12.0
 40
13.0
 40
13.0
 40
13.0
 40
14.0
 40
14.0
 40
14.0
 40
15.0
 40
15.0
 40
15.0
 40
16.0
 40
16.0
 40
16.0
 40
17.0
 40
17.0
 40
17.0
 40
18.0
 40
18.0
 40
18.0
 40
19.0
 40
19.0
 40
19.0
 40
20.0
 40
20.0
 40
20.0
 40
21.0
 40
21.0
 40
21.0
 40
22.0
 40
22.0
 40
22.0
 40
23.0
 40
23.0
 40
23.0
 40
24.0
 40
24.0
 40
24.0
 40
25.0
 40
25.0
 40
25.0
 40
26.0
 40
26.0
 40
26.0
 40
27.0
 40
27.0
 40
27.0
 40
28.0
 40
28.0
 40
28.0
 40
29.0
 40
29.0
 40
29.0
 40
30.0
 40
30.0
 40
30.0
 40
31.0
 40
31.0
 40
31.0
 40
32.0
 40
32.0
 40
32.0
 40
33.0
 40
33.0
 40
33.0
 40
33.0
 10
1203.764775048334
 20
-1140.202149862329
 30
0.0
 10
1224.460258572326
 20
-1149.342637907135
 30
0.0
 10
1243.344916344866
 20
-1157.692734524448
 30
0.0
 10
1262.229530257939
 20
-1166.028401377616
 30
0.0
 10
1268.625029795941
 20
-1168.84527554835
 30
0.0
 10
1275.207326797439
 20
-1171.288510932623
 30
0.0
 10
1281.344099348547
 20
-1174.565295458426
 30
0.0
 10
1285.655660243525
 20
-1176.864803374307
 30
0.0
 10
1287.854598405049
 20
-1176.318665310095
 30
0.0
 10
1290.41274558889
 20
-1172.122060074154
 30
0.0
 10
1296.607017899249
 20
-1161.946795660175
 30
0.0
 10
1303.304270559784
 20
-1152.073284368727
 30
0.0
 10
1309.900997325427
 20
-1141.94113380932
 30
0.0
 10
1312.028005963557
 20
-1142.846568614779
 30
0.0
 10
1311.754936931451
 20
-1144.556824611876
 30
0.0
 10
1311.898708259308
 20
-1145.936511817619
 30
0.0
 10
1314.241330029759
 20
-1169.017730966634
 30
0.0
 10
1316.555179990854
 20
-1192.113336020329
 30
0.0
 10
1318.825959956843
 20
-1215.208941074025
 30
0.0
 10
1319.041573089164
 20
-1217.407835376083
 30
0.0
 10
1319.400869830411
 20
-1219.62111558282
 30
0.0
 10
1318.021138765203
 20
-1221.748124220952
 30
0.0
 10
1311.065115258312
 20
-1232.498298508501
 30
0.0
 10
1304.195407179493
 20
-1243.291542791154
 30
0.0
 10
1296.908858740713
 20
-1254.688468756734
 30
0.0
 10
1276.313988830541
 20
-1230.601201188438
 30
0.0
 10
1256.279599029795
 20
-1207.160685298175
 30
0.0
 10
1236.230823324368
 20
-1183.705783503232
 30
0.0
 10
1235.469115987302
 20
-1184.338149276586
 30
0.0
 10
1235.052319486804
 20
-1184.52499059955
 30
0.0
 10
1234.894249973197
 20
-1184.855515531441
 30
0.0
 10
1231.186326901683
 20
-1192.027064451722
 30
0.0
 10
1224.345302913291
 20
-1199.371112649753
 30
0.0
 10
1224.70459965454
 20
-1206.341478201857
 30
0.0
 10
1225.063896395788
 20
-1213.139388335678
 30
0.0
 10
1234.664294795662
 20
-1217.724018262759
 30
0.0
 10
1240.326814946489
 20
-1223.142197331372
 30
0.0
 10
1262.013960985083
 20
-1243.895180614616
 30
0.0
 10
1283.844878351536
 20
-1264.504436429466
 30
0.0
 10
1305.201455598775
 20
-1286.09096885424
 30
0.0
 10
1273.454000805235
 20
-1274.823428311838
 30
0.0
 10
1241.706546011697
 20
-1263.57022981465
 30
0.0
 10
1209.959091218157
 20
-1252.302689272246
 30
0.0
 10
1209.714750135943
 20
-1252.633258063603
 30
0.0
 10
1209.470452913196
 20
-1252.978168900172
 30
0.0
 10
1209.240497735662
 20
-1253.308737691528
 30
0.0
 10
1227.923928280557
 20
-1276.634297922756
 30
0.0
 10
1246.607358825455
 20
-1299.945472249306
 30
0.0
 10
1265.420130934066
 20
-1323.414716089463
 30
0.0
 10
1263.824874455468
 20
-1324.966858713489
 30
0.0
 10
1262.330187731226
 20
-1324.162037521852
 30
0.0
 10
1260.979228475377
 20
-1323.817126685282
 30
0.0
 10
1231.013871483397
 20
-1316.358122828216
 30
0.0
 10
1201.091628345992
 20
-1308.726663552865
 30
0.0
 10
1171.068815454229
 20
-1301.569456677797
 30
0.0
 10
1166.311730108862
 20
-1300.434066694803
 30
0.0
 10
1165.995547222185
 20
-1298.752582507062
 30
0.0
 10
1167.145279250393
 20
-1294.771546543976
 30
0.0
 10
1171.643681468333
 20
-1279.264286911062
 30
0.0
 10
1175.912128508739
 20
-1263.699571378362
 30
0.0
 10
1180.48237253114
 20
-1247.416218503702
 30
0.0
 10
1163.911608579161
 20
-1248.666564145729
 30
0.0
 10
1148.045052204998
 20
-1249.873795933188
 30
0.0
 10
1131.301832834733
 20
-1251.138527479896
 30
0.0
 10
1135.886462761815
 20
-1239.7272594691
 30
0.0
 10
1140.054296188398
 20
-1229.106470604731
 30
0.0
 10
1144.423356842624
 20
-1218.55747968536
 30
0.0
 10
1145.415019357228
 20
-1216.157358155659
 30
0.0
 10
1148.073824014355
 20
-1215.295081064236
 30
0.0
 10
1150.186490607273
 20
-1214.030349517529
 30
0.0
 10
1167.404006237284
 20
-1203.696971730478
 30
0.0
 10
1184.635863912512
 20
-1193.421093702676
 30
0.0
 10
1201.824607733166
 20
-1183.030216156376
 30
0.0
 10
1203.664205293977
 20
-1181.909212078062
 30
0.0
 10
1206.064326823678
 20
-1181.377459918529
 30
0.0
 10
1207.228444756565
 20
-1178.704269356722
 30
0.0
 10
1194.035078944209
 20
-1172.969907401432
 30
0.0
 10
1180.683599758782
 20
-1167.724139891638
 30
0.0
 10
1168.208827428924
 20
-1160.624476635287
 30
0.0
 10
1160.93666489482
 20
-1156.485371158595
 30
0.0
 10
1153.793843924432
 20
-1152.173810263617
 30
0.0
 10
1147.843868836821
 20
-1146.209493130795
 30
0.0
 10
1142.555031331922
 20
-1140.920655625894
 30
0.0
 10
1142.253190490457
 20
-1136.005456907456
 30
0.0
 10
1147.542071854823
 20
-1131.047188193914
 30
0.0
 10
1160.218071412324
 20
-1119.147281878159
 30
0.0
 10
1176.113355736379
 20
-1112.88112390387
 30
0.0
 10
1192.425436560934
 20
-1108.655834577501
 30
0.0
 10
1198.792164289576
 20
-1107.003078339654
 30
0.0
 10
1206.50985127407
 20
-1110.452318283742
 30
0.0
 10
1213.595216344675
 20
-1111.745777780341
 30
0.0
 10
1233.327809163424
 20
-1115.353131097501
 30
0.0
 10
1253.046016077493
 20
-1119.032326219123
 30
0.0
 10
1272.749837086883
 20
-1122.725907245425
 30
0.0
 10
1273.540272373844
 20
-1122.869634713818
 30
0.0
 10
1274.25886585634
 20
-1123.444500727921
 30
0.0
 10
1276.328418594685
 20
-1124.464891192414
 30
0.0
 10
1251.838696571105
 20
-1129.768158461458
 30
0.0
 10
1228.74309151741
 20
-1134.783970793716
 30
0.0
 10
1203.764775048334
 20
-1140.202149862329
 30
0.0
  0
HATCH
  5
4C
330
41
100
AcDbEntity
  8
katman 1
 62
     1
420
 16321544
100
AcDbHatch
 10
0.0
 20
0.0
 30
0.0
210
0.0
220
0.0
230
1.0
  2
SOLID
 70
     1
 71
     0
 91
        1
 92
        1
 93
        1
 72
     4
 94
        3
 73
     0
 74
     1
 95
      104
 96
      100
 40
0.0
 40
0.0
 40
0.0
 40
0.0
 40
1.0
 40
1.0
 40
1.0
 40
2.0
 40
2.0
 40
2.0
 40
3.0
 40
3.0
 40
3.0
 40
4.0
 40
4.0
 40
4.0
 40
5.0
 40
5.0
 40
5.0
 40
6.0
 40
6.0
 40
6.0
 40
7.0
 40
7.0
 40
7.0
 40
8.0
 40
8.0
 40
8.0
 40
9.0
 40
9.0
 40
9.0
 40
10.0
 40
10.0
 40
10.0
 40
11.0
 40
11.0
 40
11.0
 40
12.0
 40
12.0
 40
12.0
 40
13.0
 40
13.0
 40
13.0
 40
14.0
 40
14.0
 40
14.0
 40
15.0
 40
15.0
 40
15.0
 40
16.0
 40
16.0
 40
16.0
 40
17.0
 40
17.0
 40
17.0
 40
18.0
 40
18.0
 40
18.0
 40
19.0
 40
19.0
 40
19.0
 40
20.0
 40
20.0
 40
20.0
 40
21.0
 40
21.0
 40
21.0
 40
22.0
 40
22.0
 40
22.0
 40
23.0
 40
23.0
 40
23.0
 40
24.0
 40
24.0
 40
24.0
 40
25.0
 40
25.0
 40
25.0
 40
26.0
 40
26.0
 40
26.0
 40
27.0
 40
27.0
 40
27.0
 40
28.0
 40
28.0
 40
28.0
 40
29.0
 40
29.0
 40
29.0
 40
30.0
 40
30.0
 40
30.0
 40
31.0
 40
31.0
 40
31.0
 40
32.0
 40
32.0
 40
32.0
 40
33.0
 40
33.0
 40
33.0
 40
33.0
 10
1203.764775048334
 20
-1140.202149862329
 10
1224.460258572326
 20
-1149.342637907135
 10
1243.344916344866
 20
-1157.692734524448
 10
1262.229530257939
 20
-1166.028401377616
 10
1268.625029795941
 20
-1168.84527554835
 10
1275.207326797439
 20
-1171.288510932623
 10
1281.344099348547
 20
-1174.565295458426
 10
1285.655660243525
 20
-1176.864803374307
 10
1287.854598405049
 20
-1176.318665310095
 10
1290.41274558889
 20
-1172.122060074154
 10
1296.607017899249
 20
-1161.946795660175
 10
1303.304270559784
 20
-1152.073284368727
 10
1309.900997325427
 20
-1141.94113380932
 10
1312.028005963557
 20
-1142.846568614779
 10
1311.754936931451
 20
-1144.556824611876
 10
1311.898708259308
 20
-1145.936511817619
 10
1314.241330029759
 20
-1169.017730966634
 10
1316.555179990854
 20
-1192.113336020329
 10
1318.825959956843
 20
-1215.208941074025
 10
1319.041573089164
 20
-1217.407835376083
 10
1319.400869830411
 20
-1219.62111558282
 10
1318.021138765203
 20
-1221.748124220952
 10
1311.065115258312
 20
-1232.498298508501
 10
1304.195407179493
 20
-1243.291542791154
 10
1296.908858740713
 20
-1254.688468756734
 10
1276.313988830541
 20
-1230.601201188438
 10
1256.279599029795
 20
-1207.160685298175
 10
1236.230823324368
 20
-1183.705783503232
 10
1235.469115987302
 20
-1184.338149276586
 10
1235.052319486804
 20
-1184.52499059955
 10
1234.894249973197
 20
-1184.855515531441
 10
1231.186326901683
 20
-1192.027064451722
 10
1224.345302913291
 20
-1199.371112649753
 10
1224.70459965454
 20
-1206.341478201857
 10
1225.063896395788
 20
-1213.139388335678
 10
1234.664294795662
 20
-1217.724018262759
 10
1240.326814946489
 20
-1223.142197331372
 10
1262.013960985083
 20
-1243.895180614616
 10
1283.844878351536
 20
-1264.504436429466
 10
1305.201455598775
 20
-1286.09096885424
 10
1273.454000805235
 20
-1274.823428311838
 10
1241.706546011697
 20
-1263.57022981465
 10
1209.959091218157
 20
-1252.302689272246
 10
1209.714750135943
 20
-1252.633258063603
 10
1209.470452913196
 20
-1252.978168900172
 10
1209.240497735662
 20
-1253.308737691528
 10
1227.923928280557
 20
-1276.634297922756
 10
1246.607358825455
 20
-1299.945472249306
 10
1265.420130934066
 20
-1323.414716089463
 10
1263.824874455468
 20
-1324.966858713489
 10
1262.330187731226
 20
-1324.162037521852
 10
1260.979228475377
 20
-1323.817126685282
 10
1231.013871483397
 20
-1316.358122828216
 10
1201.091628345992
 20
-1308.726663552865
 10
1171.068815454229
 20
-1301.569456677797
 10
1166.311730108862
 20
-1300.434066694803
 10
1165.995547222185
 20
-1298.752582507062
 10
1167.145279250393
 20
-1294.771546543976
 10
1171.643681468333
 20
-1279.264286911062
 10
1175.912128508739
 20
-1263.699571378362
 10
1180.48237253114
 20
-1247.416218503702
 10
1163.911608579161
 20
-1248.666564145729
 10
1148.045052204998
 20
-1249.873795933188
 10
1131.301832834733
 20
-1251.138527479896
 10
1135.886462761815
 20
-1239.7272594691
 10
1140.054296188398
 20
-1229.106470604731
 10
1144.423356842624
 20
-1218.55747968536
 10
1145.415019357228
 20
-1216.157358155659
 10
1148.073824014355
 20
-1215.295081064236
 10
1150.186490607273
 20
-1214.030349517529
 10
1167.404006237284
 20
-1203.696971730478
 10
1184.635863912512
 20
-1193.421093702676
 10
1201.824607733166
 20
-1183.030216156376
 10
1203.664205293977
 20
-1181.909212078062
 10
1206.064326823678
 20
-1181.377459918529
 10
1207.228444756565
 20
-1178.704269356722
 10
1194.035078944209
 20
-1172.969907401432
 10
1180.683599758782
 20
-1167.724139891638
 10
1168.208827428924
 20
-1160.624476635287
 10
1160.93666489482
 20
-1156.485371158595
 10
1153.793843924432
 20
-1152.173810263617
 10
1147.843868836821
 20
-1146.209493130795
 10
1142.555031331922
 20
-1140.920655625894
 10
1142.253190490457
 20
-1136.005456907456
 10
1147.542071854823
 20
-1131.047188193914
 10
1160.218071412324
 20
-1119.147281878159
 10
1176.113355736379
 20
-1112.88112390387
 10
1192.425436560934
 20
-1108.655834577501
 10
1198.792164289576
 20
-1107.003078339654
 10
1206.50985127407
 20
-1110.452318283742
 10
1213.595216344675
 20
-1111.745777780341
 10
1233.327809163424
 20
-1115.353131097501
 10
1253.046016077493
 20
-1119.032326219123
 10
1272.749837086883
 20
-1122.725907245425
 10
1273.540272373844
 20
-1122.869634713818
 10
1274.25886585634
 20
-1123.444500727921
 10
1276.328418594685
 20
-1124.464891192414
 10
1251.838696571105
 20
-1129.768158461458
 10
1228.74309151741
 20
-1134.783970793716
 10
1203.764775048334
 20
-1140.202149862329
 97
        0
 97
        0
 75
     2
 76
     1
 98
        0
  0
ENDBLK
  5
44
330
41
100
AcDbEntity
  8
0
100
AcDbBlockEnd
  0
ENDSEC
  0
SECTION
  2
ENTITIES
  0
INSERT
  5
42
330
1F
100
AcDbEntity
  8
katman 1
100
AcDbBlockReference
  2
block 2
 10
0.0
 20
0.0
 30
0.0
  0
ENDSEC
  0
SECTION
  2
OBJECTS
  0
DICTIONARY
  5
C
330
0
100
AcDbDictionary
281
     1
  3
ACAD_GROUP
350
D
  3
ACAD_LAYOUT
350
1A
  3
ACAD_MATERIAL
350
3B
  3
ACAD_MLEADERSTYLE
350
4E
  3
ACAD_MLINESTYLE
350
17
  3
ACAD_PLOTSETTINGS
350
19
  3
ACAD_PLOTSTYLENAME
350
E
  3
ACAD_TABLESTYLE
350
4D
  3
ACAD_VISUALSTYLE
350
2A
  0
SUN
  5
3F
330
29
100
AcDbSun
 90
        1
290
     0
 63
     7
421
 16777215
 40
1.0
291
     1
 91
  2455826
 92
 54000000
292
     0
 70
     2
 71
   256
280
     1
  0
DICTIONARY
  5
D
102
{ACAD_REACTORS
330
C
102
}
330
C
100
AcDbDictionary
281
     1
  0
DICTIONARY
  5
1A
102
{ACAD_REACTORS
330
C
102
}
330
C
100
AcDbDictionary
281
     1
  3
Layout1
350
1E
  3
Layout2
350
26
  3
Model
350
22
  0
DICTIONARY
  5
3B
102
{ACAD_REACTORS
330
C
102
}
330
C
100
AcDbDictionary
281
     1
  3
ByBlock
350
3D
  3
ByLayer
350
3C
  3
Global
350
3E
  0
DICTIONARY
  5
4E
102
{ACAD_REACTORS
330
C
102
}
330
C
100
AcDbDictionary
281
     1
  0
DICTIONARY
  5
17
102
{ACAD_REACTORS
330
C
102
}
330
C
100
AcDbDictionary
281
     1
  3
Standard
350
18
  0
DICTIONARY
  5
19
102
{ACAD_REACTORS
330
C
102
}
330
C
100
AcDbDictionary
281
     1
  0
ACDBDICTIONARYWDFLT
  5
E
102
{ACAD_REACTORS
330
C
102
}
330
C
100
AcDbDictionary
281
     1
  3
Normal
350
F
100
AcDbDictionaryWithDefault
340
F
  0
DICTIONARY
  5
4D
102
{ACAD_REACTORS
330
C
102
}
330
C
100
AcDbDictionary
281
     1
  0
DICTIONARY
  5
2A
102
{ACAD_REACTORS
330
C
102
}
330
C
100
AcDbDictionary
281
     1
  3
2dWireframe
350
2F
  3
3D Hidden
350
31
  3
3dWireframe
350
30
  3
Basic
350
32
  3
Brighten
350
36
  3
ColorChange
350
3A
  3
Conceptual
350
34
  3
Dim
350
35
  3
Facepattern
350
39
  3
Flat
350
2B
  3
FlatWithEdges
350
2C
  3
Gouraud
350
2D
  3
GouraudWithEdges
350
2E
  3
Linepattern
350
38
  3
Realistic
350
33
  3
Thicken
350
37
  0
LAYOUT
  5
1E
102
{ACAD_REACTORS
330
1A
102
}
330
1A
100
AcDbPlotSettings
  1

  2
none_device
  4

  6

 40
0.0
 41
0.0
 42
0.0
 43
0.0
 44
0.0
 45
0.0
 46
0.0
 47
0.0
 48
0.0
 49
0.0
140
0.0
141
0.0
142
1.0
143
1.0
 70
   688
 72
     0
 73
     0
 74
     5
  7

 75
    16
 76
     0
 77
     2
 78
   300
147
1.0
148
0.0
149
0.0
100
AcDbLayout
  1
Layout1
 70
     1
 71
     1
 10
0.0
 20
0.0
 11
12.0
 21
9.0
 12
0.0
 22
0.0
 32
0.0
 14
1.000000000000000E+20
 24
1.000000000000000E+20
 34
1.000000000000000E+20
 15
-1.000000000000000E+20
 25
-1.000000000000000E+20
 35
-1.000000000000000E+20
146
0.0
 13
0.0
 23
0.0
 33
0.0
 16
1.0
 26
0.0
 36
0.0
 17
0.0
 27
1.0
 37
0.0
 76
     0
330
1B
  0
LAYOUT
  5
26
102
{ACAD_REACTORS
330
1A
102
}
330
1A
100
AcDbPlotSettings
  1

  2
none_device
  4

  6

 40
0.0
 41
0.0
 42
0.0
 43
0.0
 44
0.0
 45
0.0
 46
0.0
 47
0.0
 48
0.0
 49
0.0
140
0.0
141
0.0
142
1.0
143
1.0
 70
   688
 72
     0
 73
     0
 74
     5
  7

 75
    16
 76
     0
 77
     2
 78
   300
147
1.0
148
0.0
149
0.0
100
AcDbLayout
  1
Layout2
 70
     1
 71
     2
 10
0.0
 20
0.0
 11
0.0
 21
0.0
 12
0.0
 22
0.0
 32
0.0
 14
0.0
 24
0.0
 34
0.0
 15
0.0
 25
0.0
 35
0.0
146
0.0
 13
0.0
 23
0.0
 33
0.0
 16
1.0
 26
0.0
 36
0.0
 17
0.0
 27
1.0
 37
0.0
 76
     0
330
23
  0
LAYOUT
  5
22
102
{ACAD_REACTORS
330
1A
102
}
330
1A
100
AcDbPlotSettings
  1

  2
none_device
  4

  6

 40
0.0
 41
0.0
 42
0.0
 43
0.0
 44
0.0
 45
0.0
 46
0.0
 47
0.0
 48
0.0
 49
0.0
140
0.0
141
0.0
142
1.0
143
1.0
 70
  1712
 72
     0
 73
     0
 74
     0
  7

 75
     0
 76
     0
 77
     2
 78
   300
147
1.0
148
0.0
149
0.0
100
AcDbLayout
  1
Model
 70
     1
 71
     0
 10
0.0
 20
0.0
 11
12.0
 21
9.0
 12
0.0
 22
0.0
 32
0.0
 14
1.000000000000000E+20
 24
1.000000000000000E+20
 34
1.000000000000000E+20
 15
-1.000000000000000E+20
 25
-1.000000000000000E+20
 35
-1.000000000000000E+20
146
0.0
 13
0.0
 23
0.0
 33
0.0
 16
1.0
 26
0.0
 36
0.0
 17
0.0
 27
1.0
 37
0.0
 76
     0
330
1F
331
29
  0
MATERIAL
  5
3D
102
{ACAD_REACTORS
330
3B
102
}
330
3B
100
AcDbMaterial
  1
ByBlock
 72
     1
 94
      127
  0
MATERIAL
  5
3C
102
{ACAD_REACTORS
330
3B
102
}
330
3B
100
AcDbMaterial
  1
ByLayer
 72
     1
 94
      127
  0
MATERIAL
  5
3E
102
{ACAD_REACTORS
330
3B
102
}
330
3B
100
AcDbMaterial
  1
Global
 72
     1
 94
      127
  0
MLINESTYLE
  5
18
102
{ACAD_REACTORS
330
17
102
}
330
17
100
AcDbMlineStyle
  2
Standard
 70
     0
  3

 62
   256
 51
90.0
 52
90.0
 71
     2
 49
0.5
 62
   256
  6
BYLAYER
 49
-0.5
 62
   256
  6
BYLAYER
  0
ACDBPLACEHOLDER
  5
F
102
{ACAD_REACTORS
330
E
102
}
330
E
  0
VISUALSTYLE
  5
2F
102
{ACAD_REACTORS
330
2A
102
}
330
2A
100
AcDbVisualStyle
  2
2dWireframe
 70
     4
177
     2
291
     0
 71
     0
176
     1
 72
     2
176
     1
 73
     0
176
     1
 90
        0
176
     1
 40
-0.6
176
     1
 41
-30.0
176
     1
 62
     5
 63
     7
421
 16777215
176
     1
 74
     1
176
     1
 91
        4
176
     1
 64
     7
176
     1
 65
   257
176
     1
 75
     1
176
     1
175
     1
176
     1
 42
1.0
176
     1
 92
        0
176
     1
 66
   257
176
     1
 43
1.0
176
     1
 76
     1
176
     1
 77
     6
176
     1
 78
     2
176
     1
 67
     7
176
     1
 79
     5
176
     1
170
     0
176
     1
171
     0
176
     1
290
     0
176
     1
 93
        1
176
     1
 44
0.0
176
     1
173
     0
176
     1
  0
VISUALSTYLE
  5
31
102
{ACAD_REACTORS
330
2A
102
}
330
2A
100
AcDbVisualStyle
  2
3D Hidden
 70
     6
177
     2
291
     0
 71
     1
176
     1
 72
     2
176
     1
 73
     2
176
     1
 90
        0
176
     1
 40
-0.6
176
     1
 41
-30.0
176
     1
 62
     5
 63
     7
421
 16777215
176
     1
 74
     2
176
     1
 91
        2
176
     1
 64
     7
176
     1
 65
   257
176
     1
 75
     2
176
     1
175
     1
176
     1
 42
40.0
176
     1
 92
        0
176
     1
 66
   257
176
     1
 43
1.0
176
     1
 76
     1
176
     1
 77
     6
176
     1
 78
     2
176
     1
 67
     7
176
     1
 79
     3
176
     1
170
     0
176
     1
171
     0
176
     1
290
     0
176
     1
 93
        1
176
     1
 44
0.0
176
     1
173
     0
176
     1
  0
VISUALSTYLE
  5
30
102
{ACAD_REACTORS
330
2A
102
}
330
2A
100
AcDbVisualStyle
  2
3dWireframe
 70
     5
177
     2
291
     0
 71
     0
176
     1
 72
     2
176
     1
 73
     0
176
     1
 90
        0
176
     1
 40
-0.6
176
     1
 41
-30.0
176
     1
 62
     5
 63
     7
421
 16777215
176
     1
 74
     1
176
     1
 91
        4
176
     1
 64
     7
176
     1
 65
   257
176
     1
 75
     1
176
     1
175
     1
176
     1
 42
1.0
176
     1
 92
        0
176
     1
 66
   257
176
     1
 43
1.0
176
     1
 76
     1
176
     1
 77
     6
176
     1
 78
     2
176
     1
 67
     7
176
     1
 79
     5
176
     1
170
     0
176
     1
171
     0
176
     1
290
     0
176
     1
 93
        1
176
     1
 44
0.0
176
     1
173
     0
176
     1
  0
VISUALSTYLE
  5
32
102
{ACAD_REACTORS
330
2A
102
}
330
2A
100
AcDbVisualStyle
  2
Basic
 70
     7
177
     2
291
     1
 71
     1
176
     1
 72
     0
176
     1
 73
     1
176
     1
 90
        0
176
     1
 40
-0.6
176
     1
 41
-30.0
176
     1
 62
     5
 63
     7
421
 16777215
176
     1
 74
     0
176
     1
 91
        4
176
     1
 64
     7
176
     1
 65
   257
176
     1
 75
     1
176
     1
175
     1
176
     1
 42
1.0
176
     1
 92
        8
176
     1
 66
     7
176
     1
 43
1.0
176
     1
 76
     1
176
     1
 77
     6
176
     1
 78
     2
176
     1
 67
     7
176
     1
 79
     5
176
     1
170
     0
176
     1
171
     0
176
     1
290
     0
176
     1
 93
        1
176
     1
 44
0.0
176
     1
173
     0
176
     1
  0
VISUALSTYLE
  5
36
102
{ACAD_REACTORS
330
2A
102
}
330
2A
100
AcDbVisualStyle
  2
Brighten
 70
    12
177
     2
291
     1
 71
     2
176
     1
 72
     2
176
     1
 73
     0
176
     1
 90
        0
176
     1
 40
-0.6
176
     1
 41
-30.0
176
     1
 62
     5
 63
     7
421
 16777215
176
     1
 74
     1
176
     1
 91
        4
176
     1
 64
     7
176
     1
 65
   257
176
     1
 75
     1
176
     1
175
     1
176
     1
 42
1.0
176
     1
 92
        8
176
     1
 66
     7
176
     1
 43
1.0
176
     1
 76
     1
176
     1
 77
     6
176
     1
 78
     2
176
     1
 67
     7
176
     1
 79
     5
176
     1
170
     0
176
     1
171
     0
176
     1
290
     0
176
     1
 93
        1
176
     1
 44
50.0
176
     1
173
     0
176
     1
  0
VISUALSTYLE
  5
3A
102
{ACAD_REACTORS
330
2A
102
}
330
2A
100
AcDbVisualStyle
  2
ColorChange
 70
    16
177
     2
291
     1
 71
     2
176
     1
 72
     2
176
     1
 73
     3
176
     1
 90
        0
176
     1
 40
-0.6
176
     1
 41
-30.0
176
     1
 62
     5
 63
     8
421
  8421504
176
     1
 74
     1
176
     1
 91
        4
176
     1
 64
     7
176
     1
 65
   257
176
     1
 75
     1
176
     1
175
     1
176
     1
 42
1.0
176
     1
 92
        8
176
     1
 66
     8
424
  8421504
176
     1
 43
1.0
176
     1
 76
     1
176
     1
 77
     6
176
     1
 78
     2
176
     1
 67
     7
176
     1
 79
     5
176
     1
170
     0
176
     1
171
     0
176
     1
290
     0
176
     1
 93
        1
176
     1
 44
0.0
176
     1
173
     0
176
     1
  0
VISUALSTYLE
  5
34
102
{ACAD_REACTORS
330
2A
102
}
330
2A
100
AcDbVisualStyle
  2
Conceptual
 70
     9
177
     2
291
     0
 71
     3
176
     1
 72
     2
176
     1
 73
     0
176
     1
 90
        0
176
     1
 40
-0.6
176
     1
 41
-30.0
176
     1
 62
     5
 63
     7
421
 16777215
176
     1
 74
     2
176
     1
 91
        2
176
     1
 64
     7
176
     1
 65
   257
176
     1
 75
     1
176
     1
175
     1
176
     1
 42
40.0
176
     1
 92
        8
176
     1
 66
     7
176
     1
 43
1.0
176
     1
 76
     1
176
     1
 77
     6
176
     1
 78
     2
176
     1
 67
     7
176
     1
 79
     3
176
     1
170
     0
176
     1
171
     0
176
     1
290
     0
176
     1
 93
        1
176
     1
 44
0.0
176
     1
173
     0
176
     1
  0
VISUALSTYLE
  5
35
102
{ACAD_REACTORS
330
2A
102
}
330
2A
100
AcDbVisualStyle
  2
Dim
 70
    11
177
     2
291
     1
 71
     2
176
     1
 72
     2
176
     1
 73
     0
176
     1
 90
        0
176
     1
 40
-0.6
176
     1
 41
-30.0
176
     1
 62
     5
 63
     7
421
 16777215
176
     1
 74
     1
176
     1
 91
        4
176
     1
 64
     7
176
     1
 65
   257
176
     1
 75
     1
176
     1
175
     1
176
     1
 42
1.0
176
     1
 92
        8
176
     1
 66
     7
176
     1
 43
1.0
176
     1
 76
     1
176
     1
 77
     6
176
     1
 78
     2
176
     1
 67
     7
176
     1
 79
     5
176
     1
170
     0
176
     1
171
     0
176
     1
290
     0
176
     1
 93
        1
176
     1
 44
-50.0
176
     1
173
     0
176
     1
  0
VISUALSTYLE
  5
39
102
{ACAD_REACTORS
330
2A
102
}
330
2A
100
AcDbVisualStyle
  2
Facepattern
 70
    15
177
     2
291
     1
 71
     2
176
     1
 72
     2
176
     1
 73
     0
176
     1
 90
        0
176
     1
 40
-0.6
176
     1
 41
-30.0
176
     1
 62
     5
 63
     7
421
 16777215
176
     1
 74
     1
176
     1
 91
        4
176
     1
 64
     7
176
     1
 65
   257
176
     1
 75
     1
176
     1
175
     1
176
     1
 42
1.0
176
     1
 92
        8
176
     1
 66
     7
176
     1
 43
1.0
176
     1
 76
     1
176
     1
 77
     6
176
     1
 78
     2
176
     1
 67
     7
176
     1
 79
     5
176
     1
170
     0
176
     1
171
     0
176
     1
290
     0
176
     1
 93
        1
176
     1
 44
0.0
176
     1
173
     0
176
     1
  0
VISUALSTYLE
  5
2B
102
{ACAD_REACTORS
330
2A
102
}
330
2A
100
AcDbVisualStyle
  2
Flat
 70
     0
177
     2
291
     1
 71
     2
176
     1
 72
     1
176
     1
 73
     1
176
     1
 90
        2
176
     1
 40
-0.6
176
     1
 41
30.0
176
     1
 62
     5
 63
     7
421
 16777215
176
     1
 74
     0
176
     1
 91
        4
176
     1
 64
     7
176
     1
 65
   257
176
     1
 75
     1
176
     1
175
     1
176
     1
 42
1.0
176
     1
 92
        8
176
     1
 66
     7
176
     1
 43
1.0
176
     1
 76
     1
176
     1
 77
     6
176
     1
 78
     2
176
     1
 67
     7
176
     1
 79
     5
176
     1
170
     0
176
     1
171
     0
176
     1
290
     0
176
     1
 93
       13
176
     1
 44
0.0
176
     1
173
     0
176
     1
  0
VISUALSTYLE
  5
2C
102
{ACAD_REACTORS
330
2A
102
}
330
2A
100
AcDbVisualStyle
  2
FlatWithEdges
 70
     1
177
     2
291
     1
 71
     2
176
     1
 72
     1
176
     1
 73
     1
176
     1
 90
        2
176
     1
 40
-0.6
176
     1
 41
30.0
176
     1
 62
     5
 63
     7
421
 16777215
176
     1
 74
     1
176
     1
 91
        4
176
     1
 64
     7
176
     1
 65
   257
176
     1
 75
     1
176
     1
175
     1
176
     1
 42
1.0
176
     1
 92
        0
176
     1
 66
   257
176
     1
 43
1.0
176
     1
 76
     1
176
     1
 77
     6
176
     1
 78
     2
176
     1
 67
     7
176
     1
 79
     5
176
     1
170
     0
176
     1
171
     0
176
     1
290
     0
176
     1
 93
       13
176
     1
 44
0.0
176
     1
173
     0
176
     1
  0
VISUALSTYLE
  5
2D
102
{ACAD_REACTORS
330
2A
102
}
330
2A
100
AcDbVisualStyle
  2
Gouraud
 70
     2
177
     2
291
     1
 71
     2
176
     1
 72
     2
176
     1
 73
     1
176
     1
 90
        2
176
     1
 40
-0.6
176
     1
 41
30.0
176
     1
 62
     5
 63
     7
421
 16777215
176
     1
 74
     0
176
     1
 91
        4
176
     1
 64
     7
176
     1
 65
   257
176
     1
 75
     1
176
     1
175
     1
176
     1
 42
1.0
176
     1
 92
        0
176
     1
 66
     7
176
     1
 43
1.0
176
     1
 76
     1
176
     1
 77
     6
176
     1
 78
     2
176
     1
 67
     7
176
     1
 79
     5
176
     1
170
     0
176
     1
171
     0
176
     1
290
     0
176
     1
 93
       13
176
     1
 44
0.0
176
     1
173
     0
176
     1
  0
VISUALSTYLE
  5
2E
102
{ACAD_REACTORS
330
2A
102
}
330
2A
100
AcDbVisualStyle
  2
GouraudWithEdges
 70
     3
177
     2
291
     1
 71
     2
176
     1
 72
     2
176
     1
 73
     1
176
     1
 90
        2
176
     1
 40
-0.6
176
     1
 41
30.0
176
     1
 62
     5
 63
     7
421
 16777215
176
     1
 74
     1
176
     1
 91
        4
176
     1
 64
     7
176
     1
 65
   257
176
     1
 75
     1
176
     1
175
     1
176
     1
 42
1.0
176
     1
 92
        0
176
     1
 66
   257
176
     1
 43
1.0
176
     1
 76
     1
176
     1
 77
     6
176
     1
 78
     2
176
     1
 67
     7
176
     1
 79
     5
176
     1
170
     0
176
     1
171
     0
176
     1
290
     0
176
     1
 93
       13
176
     1
 44
0.0
176
     1
173
     0
176
     1
  0
VISUALSTYLE
  5
38
102
{ACAD_REACTORS
330
2A
102
}
330
2A
100
AcDbVisualStyle
  2
Linepattern
 70
    14
177
     2
291
     1
 71
     2
176
     1
 72
     2
176
     1
 73
     0
176
     1
 90
        0
176
     1
 40
-0.6
176
     1
 41
-30.0
176
     1
 62
     5
 63
     7
421
 16777215
176
     1
 74
     1
176
     1
 91
        4
176
     1
 64
     7
176
     1
 65
   257
176
     1
 75
     7
176
     1
175
     7
176
     1
 42
1.0
176
     1
 92
        8
176
     1
 66
     7
176
     1
 43
1.0
176
     1
 76
     1
176
     1
 77
     6
176
     1
 78
     2
176
     1
 67
     7
176
     1
 79
     5
176
     1
170
     0
176
     1
171
     0
176
     1
290
     0
176
     1
 93
        1
176
     1
 44
0.0
176
     1
173
     0
176
     1
  0
VISUALSTYLE
  5
33
102
{ACAD_REACTORS
330
2A
102
}
330
2A
100
AcDbVisualStyle
  2
Realistic
 70
     8
177
     2
291
     0
 71
     2
176
     1
 72
     2
176
     1
 73
     0
176
     1
 90
        0
176
     1
 40
-0.6
176
     1
 41
-30.0
176
     1
 62
     5
 63
     7
421
 16777215
176
     1
 74
     1
176
     1
 91
        0
176
     1
 64
     7
176
     1
 65
   257
176
     1
 75
     1
176
     1
175
     1
176
     1
 42
1.0
176
     1
 92
        8
176
     1
 66
     8
424
  7895160
176
     1
 43
1.0
176
     1
 76
     1
176
     1
 77
     6
176
     1
 78
     2
176
     1
 67
     7
176
     1
 79
     5
176
     1
170
     0
176
     1
171
     0
176
     1
290
     0
176
     1
 93
       13
176
     1
 44
0.0
176
     1
173
     0
176
     1
  0
VISUALSTYLE
  5
37
102
{ACAD_REACTORS
330
2A
102
}
330
2A
100
AcDbVisualStyle
  2
Thicken
 70
    13
177
     2
291
     1
 71
     2
176
     1
 72
     2
176
     1
 73
     0
176
     1
 90
        0
176
     1
 40
-0.6
176
     1
 41
-30.0
176
     1
 62
     5
 63
     7
421
 16777215
176
     1
 74
     1
176
     1
 91
        4
176
     1
 64
     7
176
     1
 65
   257
176
     1
 75
     1
176
     1
175
     1
176
     1
 42
1.0
176
     1
 92
       12
176
     1
 66
     7
176
     1
 43
1.0
176
     1
 76
     1
176
     1
 77
     6
176
     1
 78
     2
176
     1
 67
     7
176
     1
 79
     5
176
     1
170
     0
176
     1
171
     0
176
     1
290
     0
176
     1
 93
        1
176
     1
 44
0.0
176
     1
173
     0
176
     1
  0
ENDSEC
  0
EOF
