  0
SECTION
  2
HEADER
  9
$ACADVER
  1
AC1024
  9
$ACADMAINTVER
 70
     6
  9
$DWGCODEPAGE
  3
ANSI_1254
  9
$INSBASE
 10
0.0
 20
0.0
 30
0.0
  9
$EXTMIN
 10
1.000000000000000E+20
 20
1.000000000000000E+20
 30
1.000000000000000E+20
  9
$EXTMAX
 10
-1.000000000000000E+20
 20
-1.000000000000000E+20
 30
-1.000000000000000E+20
  9
$LIMMIN
 10
0.0
 20
0.0
  9
$LIMMAX
 10
12.0
 20
9.0
  9
$ORTHOMODE
 70
     0
  9
$REGENMODE
 70
     1
  9
$FILLMODE
 70
     1
  9
$QTEXTMODE
 70
     0
  9
$MIRRTEXT
 70
     1
  9
$LTSCALE
 40
1.0
  9
$ATTMODE
 70
     1
  9
$TEXTSIZE
 40
0.2
  9
$TRACEWID
 40
0.05
  9
$TEXTSTYLE
  7
Standard
  9
$CLAYER
  8
0
  9
$CELTYPE
  6
ByLayer
  9
$CECOLOR
 62
   256
  9
$CELTSCALE
 40
1.0
  9
$DISPSILH
 70
     0
  9
$DIMSCALE
 40
1.0
  9
$DIMASZ
 40
0.18
  9
$DIMEXO
 40
0.0625
  9
$DIMDLI
 40
0.38
  9
$DIMRND
 40
0.0
  9
$DIMDLE
 40
0.0
  9
$DIMEXE
 40
0.18
  9
$DIMTP
 40
0.0
  9
$DIMTM
 40
0.0
  9
$DIMTXT
 40
0.18
  9
$DIMCEN
 40
0.09
  9
$DIMTSZ
 40
0.0
  9
$DIMTOL
 70
     0
  9
$DIMLIM
 70
     0
  9
$DIMTIH
 70
     1
  9
$DIMTOH
 70
     1
  9
$DIMSE1
 70
     0
  9
$DIMSE2
 70
     0
  9
$DIMTAD
 70
     0
  9
$DIMZIN
 70
     0
  9
$DIMBLK
  1

  9
$DIMASO
 70
     1
  9
$DIMSHO
 70
     1
  9
$DIMPOST
  1

  9
$DIMAPOST
  1

  9
$DIMALT
 70
     0
  9
$DIMALTD
 70
     2
  9
$DIMALTF
 40
25.4
  9
$DIMLFAC
 40
1.0
  9
$DIMTOFL
 70
     0
  9
$DIMTVP
 40
0.0
  9
$DIMTIX
 70
     0
  9
$DIMSOXD
 70
     0
  9
$DIMSAH
 70
     0
  9
$DIMBLK1
  1

  9
$DIMBLK2
  1

  9
$DIMSTYLE
  2
Standard
  9
$DIMCLRD
 70
     0
  9
$DIMCLRE
 70
     0
  9
$DIMCLRT
 70
     0
  9
$DIMTFAC
 40
1.0
  9
$DIMGAP
 40
0.09
  9
$DIMJUST
 70
     0
  9
$DIMSD1
 70
     0
  9
$DIMSD2
 70
     0
  9
$DIMTOLJ
 70
     1
  9
$DIMTZIN
 70
     0
  9
$DIMALTZ
 70
     0
  9
$DIMALTTZ
 70
     0
  9
$DIMUPT
 70
     0
  9
$DIMDEC
 70
     4
  9
$DIMTDEC
 70
     4
  9
$DIMALTU
 70
     2
  9
$DIMALTTD
 70
     2
  9
$DIMTXSTY
  7
Standard
  9
$DIMAUNIT
 70
     0
  9
$DIMADEC
 70
     0
  9
$DIMALTRND
 40
0.0
  9
$DIMAZIN
 70
     0
  9
$DIMDSEP
 70
    46
  9
$DIMATFIT
 70
     3
  9
$DIMFRAC
 70
     0
  9
$DIMLDRBLK
  1

  9
$DIMLUNIT
 70
     2
  9
$DIMLWD
 70
    -2
  9
$DIMLWE
 70
    -2
  9
$DIMTMOVE
 70
     0
  9
$DIMFXL
 40
1.0
  9
$DIMFXLON
 70
     0
  9
$DIMJOGANG
 40
0.7853981633974483
  9
$DIMTFILL
 70
     0
  9
$DIMTFILLCLR
 70
     0
  9
$DIMARCSYM
 70
     0
  9
$DIMLTYPE
  6

  9
$DIMLTEX1
  6

  9
$DIMLTEX2
  6

  9
$DIMTXTDIRECTION
 70
     0
  9
$LUNITS
 70
     2
  9
$LUPREC
 70
     4
  9
$SKETCHINC
 40
0.1
  9
$FILLETRAD
 40
0.5
  9
$AUNITS
 70
     0
  9
$AUPREC
 70
     0
  9
$MENU
  1
.
  9
$ELEVATION
 40
0.0
  9
$PELEVATION
 40
0.0
  9
$THICKNESS
 40
0.0
  9
$LIMCHECK
 70
     0
  9
$CHAMFERA
 40
0.5
  9
$CHAMFERB
 40
0.5
  9
$CHAMFERC
 40
1.0
  9
$CHAMFERD
 40
0.0
  9
$SKPOLY
 70
     0
  9
$TDCREATE
 40
2459351.652906239
  9
$TDUCREATE
 40
2459351.527906239
  9
$TDUPDATE
 40
2459351.652906308
  9
$TDUUPDATE
 40
2459351.527906308
  9
$TDINDWG
 40
0.0000000116
  9
$TDUSRTIMER
 40
0.0000000116
  9
$USRTIMER
 70
     1
  9
$ANGBASE
 50
0.0
  9
$ANGDIR
 70
     0
  9
$PDMODE
 70
     0
  9
$PDSIZE
 40
0.0
  9
$PLINEWID
 40
0.0
  9
$SPLFRAME
 70
     0
  9
$SPLINETYPE
 70
     6
  9
$SPLINESEGS
 70
     8
  9
$HANDSEED
  5
58
  9
$SURFTAB1
 70
     6
  9
$SURFTAB2
 70
     6
  9
$SURFTYPE
 70
     6
  9
$SURFU
 70
     6
  9
$SURFV
 70
     6
  9
$UCSBASE
  2

  9
$UCSNAME
  2

  9
$UCSORG
 10
0.0
 20
0.0
 30
0.0
  9
$UCSXDIR
 10
1.0
 20
0.0
 30
0.0
  9
$UCSYDIR
 10
0.0
 20
1.0
 30
0.0
  9
$UCSORTHOREF
  2

  9
$UCSORTHOVIEW
 70
     0
  9
$UCSORGTOP
 10
0.0
 20
0.0
 30
0.0
  9
$UCSORGBOTTOM
 10
0.0
 20
0.0
 30
0.0
  9
$UCSORGLEFT
 10
0.0
 20
0.0
 30
0.0
  9
$UCSORGRIGHT
 10
0.0
 20
0.0
 30
0.0
  9
$UCSORGFRONT
 10
0.0
 20
0.0
 30
0.0
  9
$UCSORGBACK
 10
0.0
 20
0.0
 30
0.0
  9
$PUCSBASE
  2

  9
$PUCSNAME
  2

  9
$PUCSORG
 10
0.0
 20
0.0
 30
0.0
  9
$PUCSXDIR
 10
1.0
 20
0.0
 30
0.0
  9
$PUCSYDIR
 10
0.0
 20
1.0
 30
0.0
  9
$PUCSORTHOREF
  2

  9
$PUCSORTHOVIEW
 70
     0
  9
$PUCSORGTOP
 10
0.0
 20
0.0
 30
0.0
  9
$PUCSORGBOTTOM
 10
0.0
 20
0.0
 30
0.0
  9
$PUCSORGLEFT
 10
0.0
 20
0.0
 30
0.0
  9
$PUCSORGRIGHT
 10
0.0
 20
0.0
 30
0.0
  9
$PUCSORGFRONT
 10
0.0
 20
0.0
 30
0.0
  9
$PUCSORGBACK
 10
0.0
 20
0.0
 30
0.0
  9
$USERI1
 70
     0
  9
$USERI2
 70
     0
  9
$USERI3
 70
     0
  9
$USERI4
 70
     0
  9
$USERI5
 70
     0
  9
$USERR1
 40
0.0
  9
$USERR2
 40
0.0
  9
$USERR3
 40
0.0
  9
$USERR4
 40
0.0
  9
$USERR5
 40
0.0
  9
$WORLDVIEW
 70
     1
  9
$SHADEDGE
 70
     3
  9
$SHADEDIF
 70
    70
  9
$TILEMODE
 70
     1
  9
$MAXACTVP
 70
    64
  9
$PINSBASE
 10
0.0
 20
0.0
 30
0.0
  9
$PLIMCHECK
 70
     0
  9
$PEXTMIN
 10
1.000000000000000E+20
 20
1.000000000000000E+20
 30
1.000000000000000E+20
  9
$PEXTMAX
 10
-1.000000000000000E+20
 20
-1.000000000000000E+20
 30
-1.000000000000000E+20
  9
$PLIMMIN
 10
0.0
 20
0.0
  9
$PLIMMAX
 10
12.0
 20
9.0
  9
$UNITMODE
 70
     0
  9
$VISRETAIN
 70
     1
  9
$PLINEGEN
 70
     0
  9
$PSLTSCALE
 70
     1
  9
$TREEDEPTH
 70
  3020
  9
$CMLSTYLE
  2
Standard
  9
$CMLJUST
 70
     0
  9
$CMLSCALE
 40
1.0
  9
$PROXYGRAPHICS
 70
     1
  9
$MEASUREMENT
 70
     0
  9
$CELWEIGHT
370
    -1
  9
$ENDCAPS
280
     0
  9
$JOINSTYLE
280
     0
  9
$LWDISPLAY
290
     1
  9
$INSUNITS
 70
     0
  9
$HYPERLINKBASE
  1

  9
$STYLESHEET
  1

  9
$XEDIT
290
     1
  9
$CEPSNTYPE
380
     0
  9
$PSTYLEMODE
290
     1
  9
$FINGERPRINTGUID
  2
{1E84718F-CC1F-4F43-8707-180CDA81BBF9}
  9
$VERSIONGUID
  2
{FAEB1C32-E019-11D5-929B-00C0DF256EC4}
  9
$EXTNAMES
290
     1
  9
$PSVPSCALE
 40
0.0
  9
$OLESTARTUP
290
     0
  9
$SORTENTS
280
   127
  9
$INDEXCTL
280
     0
  9
$HIDETEXT
280
     1
  9
$XCLIPFRAME
280
     2
  9
$HALOGAP
280
     0
  9
$OBSCOLOR
 70
   257
  9
$OBSLTYPE
280
     0
  9
$INTERSECTIONDISPLAY
280
     0
  9
$INTERSECTIONCOLOR
 70
   257
  9
$DIMASSOC
280
     2
  9
$PROJECTNAME
  1

  9
$CAMERADISPLAY
290
     0
  9
$LENSLENGTH
 40
50.0
  9
$CAMERAHEIGHT
 40
0.0
  9
$STEPSPERSEC
 40
2.0
  9
$STEPSIZE
 40
6.0
  9
$3DDWFPREC
 40
2.0
  9
$PSOLWIDTH
 40
0.25
  9
$PSOLHEIGHT
 40
4.0
  9
$LOFTANG1
 40
1.570796326794897
  9
$LOFTANG2
 40
1.570796326794897
  9
$LOFTMAG1
 40
0.0
  9
$LOFTMAG2
 40
0.0
  9
$LOFTPARAM
 70
     7
  9
$LOFTNORMALS
280
     1
  9
$LATITUDE
 40
37.795
  9
$LONGITUDE
 40
-122.394
  9
$NORTHDIRECTION
 40
0.0
  9
$TIMEZONE
 70
 -8000
  9
$LIGHTGLYPHDISPLAY
280
     1
  9
$TILEMODELIGHTSYNCH
280
     1
  9
$CMATERIAL
347
3C
  9
$SOLIDHIST
280
     1
  9
$SHOWHIST
280
     1
  9
$DWFFRAME
280
     2
  9
$DGNFRAME
280
     2
  9
$REALWORLDSCALE
290
     1
  9
$INTERFERECOLOR
 62
   256
  9
$CSHADOW
280
     0
  9
$SHADOWPLANELOCATION
 40
0.0
  0
ENDSEC
  0
SECTION
  2
CLASSES
  0
CLASS
  1
ACDBDICTIONARYWDFLT
  2
AcDbDictionaryWithDefault
  3
ObjectDBX Classes
 90
        0
 91
        4
280
     0
281
     0
  0
CLASS
  1
VISUALSTYLE
  2
AcDbVisualStyle
  3
ObjectDBX Classes
 90
     4095
 91
        4
280
     0
281
     0
  0
CLASS
  1
MATERIAL
  2
AcDbMaterial
  3
ObjectDBX Classes
 90
     1153
 91
        4
280
     0
281
     0
  0
CLASS
  1
SUN
  2
AcDbSun
  3
SCENEOE
 90
     1024
 91
        4
280
     0
281
     0
  0
ENDSEC
  0
SECTION
  2
TABLES
  0
TABLE
  2
VPORT
  5
8
330
0
100
AcDbSymbolTable
 70
     1
  0
VPORT
  5
29
330
8
100
AcDbSymbolTableRecord
100
AcDbViewportTableRecord
  2
*Active
 70
     0
 10
0.0
 20
0.0
 11
1.0
 21
1.0
 12
0.0
 22
0.0
 13
0.0
 23
0.0
 14
0.5
 24
0.5
 15
0.5
 25
0.5
 16
0.0
 26
0.0
 36
1.0
 17
933.2261727157338
 27
-981.5056151033582
 37
0.0
 40
674.4146302382478
 41
0.999999429414845
 42
50.0
 43
0.0
 44
0.0
 50
0.0
 51
0.0
 71
     0
 72
   100
 73
     1
 74
     3
 75
     0
 76
     0
 77
     0
 78
     0
281
     0
 65
     1
110
0.0
120
0.0
130
0.0
111
1.0
121
0.0
131
0.0
112
0.0
122
1.0
132
0.0
 79
     0
146
0.0
 60
     3
 61
     5
292
     1
282
     1
141
0.0
142
0.0
 63
   250
361
3F
  0
ENDTAB
  0
TABLE
  2
LTYPE
  5
5
330
0
100
AcDbSymbolTable
 70
     1
  0
LTYPE
  5
14
330
5
100
AcDbSymbolTableRecord
100
AcDbLinetypeTableRecord
  2
ByBlock
 70
     0
  3

 72
    65
 73
     0
 40
0.0
  0
LTYPE
  5
15
330
5
100
AcDbSymbolTableRecord
100
AcDbLinetypeTableRecord
  2
ByLayer
 70
     0
  3

 72
    65
 73
     0
 40
0.0
  0
LTYPE
  5
16
330
5
100
AcDbSymbolTableRecord
100
AcDbLinetypeTableRecord
  2
Continuous
 70
     0
  3
Solid line
 72
    65
 73
     0
 40
0.0
  0
ENDTAB
  0
TABLE
  2
LAYER
  5
2
330
0
100
AcDbSymbolTable
 70
     2
  0
LAYER
  5
10
330
2
100
AcDbSymbolTableRecord
100
AcDbLayerTableRecord
  2
0
 70
     0
 62
     7
  6
Continuous
370
    -3
390
F
347
3E
  0
LAYER
  5
40
330
2
100
AcDbSymbolTableRecord
100
AcDbLayerTableRecord
  2
katman 1
 70
     0
 62
     7
  6
Continuous
370
    -3
390
F
347
3E
  0
ENDTAB
  0
TABLE
  2
STYLE
  5
3
330
0
100
AcDbSymbolTable
 70
     1
  0
STYLE
  5
11
330
3
100
AcDbSymbolTableRecord
100
AcDbTextStyleTableRecord
  2
Standard
 70
     0
 40
0.0
 41
1.0
 50
0.0
 71
     0
 42
0.2
  3
txt
  4

  0
ENDTAB
  0
TABLE
  2
VIEW
  5
6
330
0
100
AcDbSymbolTable
 70
     0
  0
ENDTAB
  0
TABLE
  2
UCS
  5
7
330
0
100
AcDbSymbolTable
 70
     0
  0
ENDTAB
  0
TABLE
  2
APPID
  5
9
330
0
100
AcDbSymbolTable
 70
     1
  0
APPID
  5
12
330
9
100
AcDbSymbolTableRecord
100
AcDbRegAppTableRecord
  2
ACAD
 70
     0
  0
ENDTAB
  0
TABLE
  2
DIMSTYLE
  5
A
330
0
100
AcDbSymbolTable
 70
     1
100
AcDbDimStyleTable
  0
DIMSTYLE
105
27
330
A
100
AcDbSymbolTableRecord
100
AcDbDimStyleTableRecord
  2
Standard
 70
     0
178
     0
340
11
  0
ENDTAB
  0
TABLE
  2
BLOCK_RECORD
  5
1
330
0
100
AcDbSymbolTable
 70
     3
  0
BLOCK_RECORD
  5
1F
330
1
100
AcDbSymbolTableRecord
100
AcDbBlockTableRecord
  2
*Model_Space
340
22
 70
     0
280
     1
281
     0
  0
BLOCK_RECORD
  5
1B
330
1
100
AcDbSymbolTableRecord
100
AcDbBlockTableRecord
  2
*Paper_Space
340
1E
 70
     0
280
     1
281
     0
  0
BLOCK_RECORD
  5
23
330
1
100
AcDbSymbolTableRecord
100
AcDbBlockTableRecord
  2
*Paper_Space0
340
26
 70
     0
280
     1
281
     0
  0
BLOCK_RECORD
  5
41
330
1
100
AcDbSymbolTableRecord
100
AcDbBlockTableRecord
  2
block 2
340
0
102
{BLKREFS
331
42
102
}
 70
     0
280
     1
281
     0
  0
BLOCK_RECORD
  5
47
330
1
100
AcDbSymbolTableRecord
100
AcDbBlockTableRecord
  2
block 3
340
0
102
{BLKREFS
331
48
102
}
 70
     0
280
     1
281
     0
  0
ENDTAB
  0
ENDSEC
  0
SECTION
  2
BLOCKS
  0
BLOCK
  5
20
330
1F
100
AcDbEntity
  8
0
100
AcDbBlockBegin
  2
*Model_Space
 70
     0
 10
0.0
 20
0.0
 30
0.0
  3
*Model_Space
  1

  0
ENDBLK
  5
21
330
1F
100
AcDbEntity
  8
0
100
AcDbBlockEnd
  0
BLOCK
  5
1C
330
1B
100
AcDbEntity
 67
     1
  8
0
100
AcDbBlockBegin
  2
*Paper_Space
 70
     0
 10
0.0
 20
0.0
 30
0.0
  3
*Paper_Space
  1

  0
ENDBLK
  5
1D
330
1B
100
AcDbEntity
 67
     1
  8
0
100
AcDbBlockEnd
  0
BLOCK
  5
24
330
23
100
AcDbEntity
  8
0
100
AcDbBlockBegin
  2
*Paper_Space0
 70
     0
 10
0.0
 20
0.0
 30
0.0
  3
*Paper_Space0
  1

  0
ENDBLK
  5
25
330
23
100
AcDbEntity
  8
0
100
AcDbBlockEnd
  0
BLOCK
  5
43
330
41
100
AcDbEntity
  8
0
100
AcDbBlockBegin
  2
block 2
 70
     0
 10
0.0
 20
0.0
 30
0.0
  3
block 2
  1

  0
SPLINE
  5
45
330
41
100
AcDbEntity
  8
katman 1
 62
     1
420
 16711680
370
    70
100
AcDbSpline
210
0.0
220
0.0
230
1.0
 70
    11
 71
     3
 72
    29
 73
    25
 74
     0
 42
0.0000000001
 43
0.0000000001
 12
1.0
 22
0.0
 32
0.0
 13
1.0
 23
0.0
 33
0.0
 40
0.0
 40
0.0
 40
0.0
 40
0.0
 40
1.0
 40
1.0
 40
1.0
 40
2.0
 40
2.0
 40
2.0
 40
3.0
 40
3.0
 40
3.0
 40
4.0
 40
4.0
 40
4.0
 40
5.0
 40
5.0
 40
5.0
 40
6.0
 40
6.0
 40
6.0
 40
7.0
 40
7.0
 40
7.0
 40
8.0
 40
8.0
 40
8.0
 40
8.0
 10
658.1324280858344
 20
-645.2792499821362
 30
0.0
 10
658.1324280858344
 20
-645.2792499821362
 30
0.0
 10
1208.319929534218
 20
-645.2792499821362
 30
0.0
 10
1208.319929534218
 20
-645.2792499821362
 30
0.0
 10
1242.08244361731
 20
-645.2792499821362
 30
0.0
 10
1269.452345431468
 20
-672.6494303924746
 30
0.0
 10
1269.452345431468
 20
-706.4117215986234
 30
0.0
 10
1269.452345431468
 20
-706.4117215986234
 30
0.0
 10
1269.452345431468
 20
-1256.599508608091
 30
0.0
 10
1269.452345431468
 20
-1256.599508608091
 30
0.0
 10
1269.452345431468
 20
-1290.36269132202
 30
0.0
 10
1242.08244361731
 20
-1317.73198022458
 30
0.0
 10
1208.319929534218
 20
-1317.73198022458
 30
0.0
 10
1208.319929534218
 20
-1317.73198022458
 30
0.0
 10
658.1324280858344
 20
-1317.73198022458
 30
0.0
 10
658.1324280858344
 20
-1317.73198022458
 30
0.0
 10
624.3699174851927
 20
-1317.73198022458
 30
0.0
 10
597.0
 20
-1290.36269132202
 30
0.0
 10
597.0
 20
-1256.599508608091
 30
0.0
 10
597.0
 20
-1256.599508608091
 30
0.0
 10
597.0
 20
-706.4117215986234
 30
0.0
 10
597.0
 20
-706.4117215986234
 30
0.0
 10
597.0
 20
-672.6494303924746
 30
0.0
 10
624.3699174851927
 20
-645.2792499821362
 30
0.0
 10
658.1324280858344
 20
-645.2792499821362
 30
0.0
  0
HATCH
  5
46
330
41
100
AcDbEntity
  8
katman 1
 62
     1
420
 16711680
100
AcDbHatch
 10
0.0
 20
0.0
 30
0.0
210
0.0
220
0.0
230
1.0
  2
SOLID
 70
     1
 71
     0
 91
        1
 92
        1
 93
        1
 72
     4
 94
        3
 73
     0
 74
     1
 95
       29
 96
       25
 40
0.0
 40
0.0
 40
0.0
 40
0.0
 40
1.0
 40
1.0
 40
1.0
 40
2.0
 40
2.0
 40
2.0
 40
3.0
 40
3.0
 40
3.0
 40
4.0
 40
4.0
 40
4.0
 40
5.0
 40
5.0
 40
5.0
 40
6.0
 40
6.0
 40
6.0
 40
7.0
 40
7.0
 40
7.0
 40
8.0
 40
8.0
 40
8.0
 40
8.0
 10
658.1324280858344
 20
-645.2792499821362
 10
658.1324280858344
 20
-645.2792499821362
 10
1208.319929534218
 20
-645.2792499821362
 10
1208.319929534218
 20
-645.2792499821362
 10
1242.08244361731
 20
-645.2792499821362
 10
1269.452345431468
 20
-672.6494303924746
 10
1269.452345431468
 20
-706.4117215986234
 10
1269.452345431468
 20
-706.4117215986234
 10
1269.452345431468
 20
-1256.599508608091
 10
1269.452345431468
 20
-1256.599508608091
 10
1269.452345431468
 20
-1290.36269132202
 10
1242.08244361731
 20
-1317.73198022458
 10
1208.319929534218
 20
-1317.73198022458
 10
1208.319929534218
 20
-1317.73198022458
 10
658.1324280858344
 20
-1317.73198022458
 10
658.1324280858344
 20
-1317.73198022458
 10
624.3699174851927
 20
-1317.73198022458
 10
597.0
 20
-1290.36269132202
 10
597.0
 20
-1256.599508608091
 10
597.0
 20
-1256.599508608091
 10
597.0
 20
-706.4117215986234
 10
597.0
 20
-706.4117215986234
 10
597.0
 20
-672.6494303924746
 10
624.3699174851927
 20
-645.2792499821362
 10
658.1324280858344
 20
-645.2792499821362
 97
        0
 97
        0
 75
     2
 76
     1
 98
        0
  0
INSERT
  5
48
330
41
100
AcDbEntity
  8
katman 1
100
AcDbBlockReference
  2
block 3
 10
0.0
 20
0.0
 30
0.0
  0
ENDBLK
  5
44
330
41
100
AcDbEntity
  8
0
100
AcDbBlockEnd
  0
BLOCK
  5
49
330
47
100
AcDbEntity
  8
0
100
AcDbBlockBegin
  2
block 3
 70
     0
 10
0.0
 20
0.0
 30
0.0
  3
block 3
  1

  0
SPLINE
  5
4B
330
47
100
AcDbEntity
  8
katman 1
370
     0
100
AcDbSpline
210
0.0
220
0.0
230
1.0
 70
    11
 71
     3
 72
  1544
 73
  1540
 74
     0
 42
0.0000000001
 43
0.0000000001
 12
1.0
 22
0.0
 32
0.0
 13
1.0
 23
0.0
 33
0.0
 40
0.0
 40
0.0
 40
0.0
 40
0.0
 40
1.0
 40
1.0
 40
1.0
 40
2.0
 40
2.0
 40
2.0
 40
3.0
 40
3.0
 40
3.0
 40
4.0
 40
4.0
 40
4.0
 40
5.0
 40
5.0
 40
5.0
 40
6.0
 40
6.0
 40
6.0
 40
7.0
 40
7.0
 40
7.0
 40
8.0
 40
8.0
 40
8.0
 40
9.0
 40
9.0
 40
9.0
 40
10.0
 40
10.0
 40
10.0
 40
11.0
 40
11.0
 40
11.0
 40
12.0
 40
12.0
 40
12.0
 40
13.0
 40
13.0
 40
13.0
 40
14.0
 40
14.0
 40
14.0
 40
15.0
 40
15.0
 40
15.0
 40
16.0
 40
16.0
 40
16.0
 40
17.0
 40
17.0
 40
17.0
 40
18.0
 40
18.0
 40
18.0
 40
19.0
 40
19.0
 40
19.0
 40
20.0
 40
20.0
 40
20.0
 40
21.0
 40
21.0
 40
21.0
 40
22.0
 40
22.0
 40
22.0
 40
23.0
 40
23.0
 40
23.0
 40
24.0
 40
24.0
 40
24.0
 40
25.0
 40
25.0
 40
25.0
 40
26.0
 40
26.0
 40
26.0
 40
27.0
 40
27.0
 40
27.0
 40
28.0
 40
28.0
 40
28.0
 40
29.0
 40
29.0
 40
29.0
 40
30.0
 40
30.0
 40
30.0
 40
31.0
 40
31.0
 40
31.0
 40
32.0
 40
32.0
 40
32.0
 40
33.0
 40
33.0
 40
33.0
 40
34.0
 40
34.0
 40
34.0
 40
35.0
 40
35.0
 40
35.0
 40
36.0
 40
36.0
 40
36.0
 40
37.0
 40
37.0
 40
37.0
 40
38.0
 40
38.0
 40
38.0
 40
39.0
 40
39.0
 40
39.0
 40
40.0
 40
40.0
 40
40.0
 40
41.0
 40
41.0
 40
41.0
 40
42.0
 40
42.0
 40
42.0
 40
43.0
 40
43.0
 40
43.0
 40
44.0
 40
44.0
 40
44.0
 40
45.0
 40
45.0
 40
45.0
 40
46.0
 40
46.0
 40
46.0
 40
47.0
 40
47.0
 40
47.0
 40
48.0
 40
48.0
 40
48.0
 40
49.0
 40
49.0
 40
49.0
 40
50.0
 40
50.0
 40
50.0
 40
51.0
 40
51.0
 40
51.0
 40
52.0
 40
52.0
 40
52.0
 40
53.0
 40
53.0
 40
53.0
 40
54.0
 40
54.0
 40
54.0
 40
55.0
 40
55.0
 40
55.0
 40
56.0
 40
56.0
 40
56.0
 40
57.0
 40
57.0
 40
57.0
 40
58.0
 40
58.0
 40
58.0
 40
59.0
 40
59.0
 40
59.0
 40
60.0
 40
60.0
 40
60.0
 40
61.0
 40
61.0
 40
61.0
 40
62.0
 40
62.0
 40
62.0
 40
63.0
 40
63.0
 40
63.0
 40
64.0
 40
64.0
 40
64.0
 40
65.0
 40
65.0
 40
65.0
 40
66.0
 40
66.0
 40
66.0
 40
67.0
 40
67.0
 40
67.0
 40
68.0
 40
68.0
 40
68.0
 40
69.0
 40
69.0
 40
69.0
 40
70.0
 40
70.0
 40
70.0
 40
71.0
 40
71.0
 40
71.0
 40
72.0
 40
72.0
 40
72.0
 40
73.0
 40
73.0
 40
73.0
 40
74.0
 40
74.0
 40
74.0
 40
75.0
 40
75.0
 40
75.0
 40
76.0
 40
76.0
 40
76.0
 40
77.0
 40
77.0
 40
77.0
 40
78.0
 40
78.0
 40
78.0
 40
79.0
 40
79.0
 40
79.0
 40
80.0
 40
80.0
 40
80.0
 40
81.0
 40
81.0
 40
81.0
 40
82.0
 40
82.0
 40
82.0
 40
83.0
 40
83.0
 40
83.0
 40
84.0
 40
84.0
 40
84.0
 40
85.0
 40
85.0
 40
85.0
 40
86.0
 40
86.0
 40
86.0
 40
87.0
 40
87.0
 40
87.0
 40
88.0
 40
88.0
 40
88.0
 40
89.0
 40
89.0
 40
89.0
 40
90.0
 40
90.0
 40
90.0
 40
91.0
 40
91.0
 40
91.0
 40
92.0
 40
92.0
 40
92.0
 40
93.0
 40
93.0
 40
93.0
 40
94.0
 40
94.0
 40
94.0
 40
95.0
 40
95.0
 40
95.0
 40
96.0
 40
96.0
 40
96.0
 40
97.0
 40
97.0
 40
97.0
 40
98.0
 40
98.0
 40
98.0
 40
99.0
 40
99.0
 40
99.0
 40
100.0
 40
100.0
 40
100.0
 40
101.0
 40
101.0
 40
101.0
 40
102.0
 40
102.0
 40
102.0
 40
103.0
 40
103.0
 40
103.0
 40
104.0
 40
104.0
 40
104.0
 40
105.0
 40
105.0
 40
105.0
 40
106.0
 40
106.0
 40
106.0
 40
107.0
 40
107.0
 40
107.0
 40
108.0
 40
108.0
 40
108.0
 40
109.0
 40
109.0
 40
109.0
 40
110.0
 40
110.0
 40
110.0
 40
111.0
 40
111.0
 40
111.0
 40
112.0
 40
112.0
 40
112.0
 40
113.0
 40
113.0
 40
113.0
 40
114.0
 40
114.0
 40
114.0
 40
115.0
 40
115.0
 40
115.0
 40
116.0
 40
116.0
 40
116.0
 40
117.0
 40
117.0
 40
117.0
 40
118.0
 40
118.0
 40
118.0
 40
119.0
 40
119.0
 40
119.0
 40
120.0
 40
120.0
 40
120.0
 40
121.0
 40
121.0
 40
121.0
 40
122.0
 40
122.0
 40
122.0
 40
123.0
 40
123.0
 40
123.0
 40
124.0
 40
124.0
 40
124.0
 40
125.0
 40
125.0
 40
125.0
 40
126.0
 40
126.0
 40
126.0
 40
127.0
 40
127.0
 40
127.0
 40
128.0
 40
128.0
 40
128.0
 40
129.0
 40
129.0
 40
129.0
 40
130.0
 40
130.0
 40
130.0
 40
131.0
 40
131.0
 40
131.0
 40
132.0
 40
132.0
 40
132.0
 40
133.0
 40
133.0
 40
133.0
 40
134.0
 40
134.0
 40
134.0
 40
135.0
 40
135.0
 40
135.0
 40
136.0
 40
136.0
 40
136.0
 40
137.0
 40
137.0
 40
137.0
 40
138.0
 40
138.0
 40
138.0
 40
139.0
 40
139.0
 40
139.0
 40
140.0
 40
140.0
 40
140.0
 40
141.0
 40
141.0
 40
141.0
 40
142.0
 40
142.0
 40
142.0
 40
143.0
 40
143.0
 40
143.0
 40
144.0
 40
144.0
 40
144.0
 40
145.0
 40
145.0
 40
145.0
 40
146.0
 40
146.0
 40
146.0
 40
147.0
 40
147.0
 40
147.0
 40
148.0
 40
148.0
 40
148.0
 40
149.0
 40
149.0
 40
149.0
 40
150.0
 40
150.0
 40
150.0
 40
151.0
 40
151.0
 40
151.0
 40
152.0
 40
152.0
 40
152.0
 40
153.0
 40
153.0
 40
153.0
 40
154.0
 40
154.0
 40
154.0
 40
155.0
 40
155.0
 40
155.0
 40
156.0
 40
156.0
 40
156.0
 40
157.0
 40
157.0
 40
157.0
 40
158.0
 40
158.0
 40
158.0
 40
159.0
 40
159.0
 40
159.0
 40
160.0
 40
160.0
 40
160.0
 40
161.0
 40
161.0
 40
161.0
 40
162.0
 40
162.0
 40
162.0
 40
163.0
 40
163.0
 40
163.0
 40
164.0
 40
164.0
 40
164.0
 40
165.0
 40
165.0
 40
165.0
 40
166.0
 40
166.0
 40
166.0
 40
167.0
 40
167.0
 40
167.0
 40
168.0
 40
168.0
 40
168.0
 40
169.0
 40
169.0
 40
169.0
 40
170.0
 40
170.0
 40
170.0
 40
171.0
 40
171.0
 40
171.0
 40
172.0
 40
172.0
 40
172.0
 40
173.0
 40
173.0
 40
173.0
 40
174.0
 40
174.0
 40
174.0
 40
175.0
 40
175.0
 40
175.0
 40
176.0
 40
176.0
 40
176.0
 40
177.0
 40
177.0
 40
177.0
 40
178.0
 40
178.0
 40
178.0
 40
179.0
 40
179.0
 40
179.0
 40
180.0
 40
180.0
 40
180.0
 40
181.0
 40
181.0
 40
181.0
 40
182.0
 40
182.0
 40
182.0
 40
183.0
 40
183.0
 40
183.0
 40
184.0
 40
184.0
 40
184.0
 40
185.0
 40
185.0
 40
185.0
 40
186.0
 40
186.0
 40
186.0
 40
187.0
 40
187.0
 40
187.0
 40
188.0
 40
188.0
 40
188.0
 40
189.0
 40
189.0
 40
189.0
 40
190.0
 40
190.0
 40
190.0
 40
191.0
 40
191.0
 40
191.0
 40
192.0
 40
192.0
 40
192.0
 40
193.0
 40
193.0
 40
193.0
 40
194.0
 40
194.0
 40
194.0
 40
195.0
 40
195.0
 40
195.0
 40
196.0
 40
196.0
 40
196.0
 40
197.0
 40
197.0
 40
197.0
 40
198.0
 40
198.0
 40
198.0
 40
199.0
 40
199.0
 40
199.0
 40
200.0
 40
200.0
 40
200.0
 40
201.0
 40
201.0
 40
201.0
 40
202.0
 40
202.0
 40
202.0
 40
203.0
 40
203.0
 40
203.0
 40
204.0
 40
204.0
 40
204.0
 40
205.0
 40
205.0
 40
205.0
 40
206.0
 40
206.0
 40
206.0
 40
207.0
 40
207.0
 40
207.0
 40
208.0
 40
208.0
 40
208.0
 40
209.0
 40
209.0
 40
209.0
 40
210.0
 40
210.0
 40
210.0
 40
211.0
 40
211.0
 40
211.0
 40
212.0
 40
212.0
 40
212.0
 40
213.0
 40
213.0
 40
213.0
 40
214.0
 40
214.0
 40
214.0
 40
215.0
 40
215.0
 40
215.0
 40
216.0
 40
216.0
 40
216.0
 40
217.0
 40
217.0
 40
217.0
 40
218.0
 40
218.0
 40
218.0
 40
219.0
 40
219.0
 40
219.0
 40
220.0
 40
220.0
 40
220.0
 40
221.0
 40
221.0
 40
221.0
 40
222.0
 40
222.0
 40
222.0
 40
223.0
 40
223.0
 40
223.0
 40
224.0
 40
224.0
 40
224.0
 40
225.0
 40
225.0
 40
225.0
 40
226.0
 40
226.0
 40
226.0
 40
227.0
 40
227.0
 40
227.0
 40
228.0
 40
228.0
 40
228.0
 40
229.0
 40
229.0
 40
229.0
 40
230.0
 40
230.0
 40
230.0
 40
231.0
 40
231.0
 40
231.0
 40
232.0
 40
232.0
 40
232.0
 40
233.0
 40
233.0
 40
233.0
 40
234.0
 40
234.0
 40
234.0
 40
235.0
 40
235.0
 40
235.0
 40
236.0
 40
236.0
 40
236.0
 40
237.0
 40
237.0
 40
237.0
 40
238.0
 40
238.0
 40
238.0
 40
239.0
 40
239.0
 40
239.0
 40
240.0
 40
240.0
 40
240.0
 40
241.0
 40
241.0
 40
241.0
 40
242.0
 40
242.0
 40
242.0
 40
243.0
 40
243.0
 40
243.0
 40
244.0
 40
244.0
 40
244.0
 40
245.0
 40
245.0
 40
245.0
 40
246.0
 40
246.0
 40
246.0
 40
247.0
 40
247.0
 40
247.0
 40
248.0
 40
248.0
 40
248.0
 40
249.0
 40
249.0
 40
249.0
 40
250.0
 40
250.0
 40
250.0
 40
251.0
 40
251.0
 40
251.0
 40
252.0
 40
252.0
 40
252.0
 40
253.0
 40
253.0
 40
253.0
 40
254.0
 40
254.0
 40
254.0
 40
255.0
 40
255.0
 40
255.0
 40
256.0
 40
256.0
 40
256.0
 40
257.0
 40
257.0
 40
257.0
 40
258.0
 40
258.0
 40
258.0
 40
259.0
 40
259.0
 40
259.0
 40
260.0
 40
260.0
 40
260.0
 40
261.0
 40
261.0
 40
261.0
 40
262.0
 40
262.0
 40
262.0
 40
263.0
 40
263.0
 40
263.0
 40
264.0
 40
264.0
 40
264.0
 40
265.0
 40
265.0
 40
265.0
 40
266.0
 40
266.0
 40
266.0
 40
267.0
 40
267.0
 40
267.0
 40
268.0
 40
268.0
 40
268.0
 40
269.0
 40
269.0
 40
269.0
 40
270.0
 40
270.0
 40
270.0
 40
271.0
 40
271.0
 40
271.0
 40
272.0
 40
272.0
 40
272.0
 40
273.0
 40
273.0
 40
273.0
 40
274.0
 40
274.0
 40
274.0
 40
275.0
 40
275.0
 40
275.0
 40
276.0
 40
276.0
 40
276.0
 40
277.0
 40
277.0
 40
277.0
 40
278.0
 40
278.0
 40
278.0
 40
279.0
 40
279.0
 40
279.0
 40
280.0
 40
280.0
 40
280.0
 40
281.0
 40
281.0
 40
281.0
 40
282.0
 40
282.0
 40
282.0
 40
283.0
 40
283.0
 40
283.0
 40
284.0
 40
284.0
 40
284.0
 40
285.0
 40
285.0
 40
285.0
 40
286.0
 40
286.0
 40
286.0
 40
287.0
 40
287.0
 40
287.0
 40
288.0
 40
288.0
 40
288.0
 40
289.0
 40
289.0
 40
289.0
 40
290.0
 40
290.0
 40
290.0
 40
291.0
 40
291.0
 40
291.0
 40
292.0
 40
292.0
 40
292.0
 40
293.0
 40
293.0
 40
293.0
 40
294.0
 40
294.0
 40
294.0
 40
295.0
 40
295.0
 40
295.0
 40
296.0
 40
296.0
 40
296.0
 40
297.0
 40
297.0
 40
297.0
 40
298.0
 40
298.0
 40
298.0
 40
299.0
 40
299.0
 40
299.0
 40
300.0
 40
300.0
 40
300.0
 40
301.0
 40
301.0
 40
301.0
 40
302.0
 40
302.0
 40
302.0
 40
303.0
 40
303.0
 40
303.0
 40
304.0
 40
304.0
 40
304.0
 40
305.0
 40
305.0
 40
305.0
 40
306.0
 40
306.0
 40
306.0
 40
307.0
 40
307.0
 40
307.0
 40
308.0
 40
308.0
 40
308.0
 40
309.0
 40
309.0
 40
309.0
 40
310.0
 40
310.0
 40
310.0
 40
311.0
 40
311.0
 40
311.0
 40
312.0
 40
312.0
 40
312.0
 40
313.0
 40
313.0
 40
313.0
 40
314.0
 40
314.0
 40
314.0
 40
315.0
 40
315.0
 40
315.0
 40
316.0
 40
316.0
 40
316.0
 40
317.0
 40
317.0
 40
317.0
 40
318.0
 40
318.0
 40
318.0
 40
319.0
 40
319.0
 40
319.0
 40
320.0
 40
320.0
 40
320.0
 40
321.0
 40
321.0
 40
321.0
 40
322.0
 40
322.0
 40
322.0
 40
323.0
 40
323.0
 40
323.0
 40
324.0
 40
324.0
 40
324.0
 40
325.0
 40
325.0
 40
325.0
 40
326.0
 40
326.0
 40
326.0
 40
327.0
 40
327.0
 40
327.0
 40
328.0
 40
328.0
 40
328.0
 40
329.0
 40
329.0
 40
329.0
 40
330.0
 40
330.0
 40
330.0
 40
331.0
 40
331.0
 40
331.0
 40
332.0
 40
332.0
 40
332.0
 40
333.0
 40
333.0
 40
333.0
 40
334.0
 40
334.0
 40
334.0
 40
335.0
 40
335.0
 40
335.0
 40
336.0
 40
336.0
 40
336.0
 40
337.0
 40
337.0
 40
337.0
 40
338.0
 40
338.0
 40
338.0
 40
339.0
 40
339.0
 40
339.0
 40
340.0
 40
340.0
 40
340.0
 40
341.0
 40
341.0
 40
341.0
 40
342.0
 40
342.0
 40
342.0
 40
343.0
 40
343.0
 40
343.0
 40
344.0
 40
344.0
 40
344.0
 40
345.0
 40
345.0
 40
345.0
 40
346.0
 40
346.0
 40
346.0
 40
347.0
 40
347.0
 40
347.0
 40
348.0
 40
348.0
 40
348.0
 40
349.0
 40
349.0
 40
349.0
 40
350.0
 40
350.0
 40
350.0
 40
351.0
 40
351.0
 40
351.0
 40
352.0
 40
352.0
 40
352.0
 40
353.0
 40
353.0
 40
353.0
 40
354.0
 40
354.0
 40
354.0
 40
355.0
 40
355.0
 40
355.0
 40
356.0
 40
356.0
 40
356.0
 40
357.0
 40
357.0
 40
357.0
 40
358.0
 40
358.0
 40
358.0
 40
359.0
 40
359.0
 40
359.0
 40
360.0
 40
360.0
 40
360.0
 40
361.0
 40
361.0
 40
361.0
 40
362.0
 40
362.0
 40
362.0
 40
363.0
 40
363.0
 40
363.0
 40
364.0
 40
364.0
 40
364.0
 40
365.0
 40
365.0
 40
365.0
 40
366.0
 40
366.0
 40
366.0
 40
367.0
 40
367.0
 40
367.0
 40
368.0
 40
368.0
 40
368.0
 40
369.0
 40
369.0
 40
369.0
 40
370.0
 40
370.0
 40
370.0
 40
371.0
 40
371.0
 40
371.0
 40
372.0
 40
372.0
 40
372.0
 40
373.0
 40
373.0
 40
373.0
 40
374.0
 40
374.0
 40
374.0
 40
375.0
 40
375.0
 40
375.0
 40
376.0
 40
376.0
 40
376.0
 40
377.0
 40
377.0
 40
377.0
 40
378.0
 40
378.0
 40
378.0
 40
379.0
 40
379.0
 40
379.0
 40
380.0
 40
380.0
 40
380.0
 40
381.0
 40
381.0
 40
381.0
 40
382.0
 40
382.0
 40
382.0
 40
383.0
 40
383.0
 40
383.0
 40
384.0
 40
384.0
 40
384.0
 40
385.0
 40
385.0
 40
385.0
 40
386.0
 40
386.0
 40
386.0
 40
387.0
 40
387.0
 40
387.0
 40
388.0
 40
388.0
 40
388.0
 40
389.0
 40
389.0
 40
389.0
 40
390.0
 40
390.0
 40
390.0
 40
391.0
 40
391.0
 40
391.0
 40
392.0
 40
392.0
 40
392.0
 40
393.0
 40
393.0
 40
393.0
 40
394.0
 40
394.0
 40
394.0
 40
395.0
 40
395.0
 40
395.0
 40
396.0
 40
396.0
 40
396.0
 40
397.0
 40
397.0
 40
397.0
 40
398.0
 40
398.0
 40
398.0
 40
399.0
 40
399.0
 40
399.0
 40
400.0
 40
400.0
 40
400.0
 40
401.0
 40
401.0
 40
401.0
 40
402.0
 40
402.0
 40
402.0
 40
403.0
 40
403.0
 40
403.0
 40
404.0
 40
404.0
 40
404.0
 40
405.0
 40
405.0
 40
405.0
 40
406.0
 40
406.0
 40
406.0
 40
407.0
 40
407.0
 40
407.0
 40
408.0
 40
408.0
 40
408.0
 40
409.0
 40
409.0
 40
409.0
 40
410.0
 40
410.0
 40
410.0
 40
411.0
 40
411.0
 40
411.0
 40
412.0
 40
412.0
 40
412.0
 40
413.0
 40
413.0
 40
413.0
 40
414.0
 40
414.0
 40
414.0
 40
415.0
 40
415.0
 40
415.0
 40
416.0
 40
416.0
 40
416.0
 40
417.0
 40
417.0
 40
417.0
 40
418.0
 40
418.0
 40
418.0
 40
419.0
 40
419.0
 40
419.0
 40
420.0
 40
420.0
 40
420.0
 40
421.0
 40
421.0
 40
421.0
 40
422.0
 40
422.0
 40
422.0
 40
423.0
 40
423.0
 40
423.0
 40
424.0
 40
424.0
 40
424.0
 40
425.0
 40
425.0
 40
425.0
 40
426.0
 40
426.0
 40
426.0
 40
427.0
 40
427.0
 40
427.0
 40
428.0
 40
428.0
 40
428.0
 40
429.0
 40
429.0
 40
429.0
 40
430.0
 40
430.0
 40
430.0
 40
431.0
 40
431.0
 40
431.0
 40
432.0
 40
432.0
 40
432.0
 40
433.0
 40
433.0
 40
433.0
 40
434.0
 40
434.0
 40
434.0
 40
435.0
 40
435.0
 40
435.0
 40
436.0
 40
436.0
 40
436.0
 40
437.0
 40
437.0
 40
437.0
 40
438.0
 40
438.0
 40
438.0
 40
439.0
 40
439.0
 40
439.0
 40
440.0
 40
440.0
 40
440.0
 40
441.0
 40
441.0
 40
441.0
 40
442.0
 40
442.0
 40
442.0
 40
443.0
 40
443.0
 40
443.0
 40
444.0
 40
444.0
 40
444.0
 40
445.0
 40
445.0
 40
445.0
 40
446.0
 40
446.0
 40
446.0
 40
447.0
 40
447.0
 40
447.0
 40
448.0
 40
448.0
 40
448.0
 40
449.0
 40
449.0
 40
449.0
 40
450.0
 40
450.0
 40
450.0
 40
451.0
 40
451.0
 40
451.0
 40
452.0
 40
452.0
 40
452.0
 40
453.0
 40
453.0
 40
453.0
 40
454.0
 40
454.0
 40
454.0
 40
455.0
 40
455.0
 40
455.0
 40
456.0
 40
456.0
 40
456.0
 40
457.0
 40
457.0
 40
457.0
 40
458.0
 40
458.0
 40
458.0
 40
459.0
 40
459.0
 40
459.0
 40
460.0
 40
460.0
 40
460.0
 40
461.0
 40
461.0
 40
461.0
 40
462.0
 40
462.0
 40
462.0
 40
463.0
 40
463.0
 40
463.0
 40
464.0
 40
464.0
 40
464.0
 40
465.0
 40
465.0
 40
465.0
 40
466.0
 40
466.0
 40
466.0
 40
467.0
 40
467.0
 40
467.0
 40
468.0
 40
468.0
 40
468.0
 40
469.0
 40
469.0
 40
469.0
 40
470.0
 40
470.0
 40
470.0
 40
471.0
 40
471.0
 40
471.0
 40
472.0
 40
472.0
 40
472.0
 40
473.0
 40
473.0
 40
473.0
 40
474.0
 40
474.0
 40
474.0
 40
475.0
 40
475.0
 40
475.0
 40
476.0
 40
476.0
 40
476.0
 40
477.0
 40
477.0
 40
477.0
 40
478.0
 40
478.0
 40
478.0
 40
479.0
 40
479.0
 40
479.0
 40
480.0
 40
480.0
 40
480.0
 40
481.0
 40
481.0
 40
481.0
 40
482.0
 40
482.0
 40
482.0
 40
483.0
 40
483.0
 40
483.0
 40
484.0
 40
484.0
 40
484.0
 40
485.0
 40
485.0
 40
485.0
 40
486.0
 40
486.0
 40
486.0
 40
487.0
 40
487.0
 40
487.0
 40
488.0
 40
488.0
 40
488.0
 40
489.0
 40
489.0
 40
489.0
 40
490.0
 40
490.0
 40
490.0
 40
491.0
 40
491.0
 40
491.0
 40
492.0
 40
492.0
 40
492.0
 40
493.0
 40
493.0
 40
493.0
 40
494.0
 40
494.0
 40
494.0
 40
495.0
 40
495.0
 40
495.0
 40
496.0
 40
496.0
 40
496.0
 40
497.0
 40
497.0
 40
497.0
 40
498.0
 40
498.0
 40
498.0
 40
499.0
 40
499.0
 40
499.0
 40
500.0
 40
500.0
 40
500.0
 40
501.0
 40
501.0
 40
501.0
 40
502.0
 40
502.0
 40
502.0
 40
503.0
 40
503.0
 40
503.0
 40
504.0
 40
504.0
 40
504.0
 40
505.0
 40
505.0
 40
505.0
 40
506.0
 40
506.0
 40
506.0
 40
507.0
 40
507.0
 40
507.0
 40
508.0
 40
508.0
 40
508.0
 40
509.0
 40
509.0
 40
509.0
 40
510.0
 40
510.0
 40
510.0
 40
511.0
 40
511.0
 40
511.0
 40
512.0
 40
512.0
 40
512.0
 40
513.0
 40
513.0
 40
513.0
 40
513.0
 10
929.3151536978794
 20
-1236.233839674213
 30
0.0
 10
935.3193745694643
 20
-1204.047279607488
 30
0.0
 10
937.5680233819221
 20
-1160.078388698554
 30
0.0
 10
933.5256745342313
 20
-1160.078388698554
 30
0.0
 10
932.485671516064
 20
-1160.078388698554
 30
0.0
 10
928.319034791918
 20
-1161.971899346052
 30
0.0
 10
924.2664295042232
 20
-1164.286196806104
 30
0.0
 10
914.5394235538834
 20
-1169.841050873001
 30
0.0
 10
889.3677994317841
 20
-1181.732554616647
 30
0.0
 10
887.3358809666752
 20
-1181.732554616647
 30
0.0
 10
886.4554748807705
 20
-1181.732554616647
 30
0.0
 10
885.2454503519366
 20
-1180.951719296227
 30
0.0
 10
884.6470122974388
 20
-1179.997371684382
 30
0.0
 10
883.7284724312485
 20
-1178.532690273203
 30
0.0
 10
881.721875603318
 20
-1179.092779067214
 30
0.0
 10
871.7733809900183
 20
-1183.59065459243
 30
0.0
 10
861.4566297384363
 20
-1188.255200347019
 30
0.0
 10
859.6281082486512
 20
-1188.74704857536
 30
0.0
 10
857.0959277180373
 20
-1187.53774412717
 30
0.0
 10
854.5998801211963
 20
-1186.345664870127
 30
0.0
 10
852.9037003353487
 20
-1186.712255349541
 30
0.0
 10
844.7181532510613
 20
-1190.212810312143
 30
0.0
 10
834.3005694243893
 20
-1194.66801297699
 30
0.0
 10
833.0522093492482
 20
-1194.892600661
 30
0.0
 10
829.5503412630296
 20
-1192.940992504673
 30
0.0
 10
827.6023742815705
 20
-1191.855385335135
 30
0.0
 10
826.1470863255417
 20
-1192.14119146853
 30
0.0
 10
821.5856102882462
 20
-1194.505063869012
 30
0.0
 10
812.5274587380027
 20
-1199.19919854084
 30
0.0
 10
810.4816520442655
 20
-1199.451454563246
 30
0.0
 10
809.5086521629564
 20
-1195.993932569509
 30
0.0
 10
809.050206107835
 20
-1194.363961344921
 30
0.0
 10
808.3126335595944
 20
-1193.207052687245
 30
0.0
 10
807.8696730475203
 20
-1193.422997766635
 30
0.0
 10
800.280479102048
 20
-1197.123593015387
 30
0.0
 10
793.1238883456263
 20
-1199.285564568961
 30
0.0
 10
787.9074461368627
 20
-1199.453615214405
 30
0.0
 10
780.6407751954794
 20
-1199.687685756264
 30
0.0
 10
773.1065624940611
 20
-1201.640554292444
 30
0.0
 10
754.2991434744754
 20
-1208.16518061973
 30
0.0
 10
747.0534057590285
 20
-1210.67885816695
 30
0.0
 10
740.8613323036079
 20
-1212.500527163516
 30
0.0
 10
740.5395743290601
 20
-1212.213160559808
 30
0.0
 10
739.0265392529391
 20
-1210.862933641805
 30
0.0
 10
742.4491889503734
 20
-1207.795709272115
 30
0.0
 10
755.2280574775368
 20
-1199.049213339771
 30
0.0
 10
762.8349900200828
 20
-1193.843064362129
 30
0.0
 10
770.139122188305
 20
-1188.696633381727
 30
0.0
 10
771.4581171889049
 20
-1187.612046519689
 30
0.0
 10
772.777986508976
 20
-1186.527999820431
 30
0.0
 10
775.2784393308657
 20
-1184.76166750069
 30
0.0
 10
777.0147201158261
 20
-1183.686863586929
 30
0.0
 10
778.7567344188737
 20
-1182.608518606012
 30
0.0
 10
780.1877768232498
 20
-1180.583148219914
 30
0.0
 10
780.2075162668352
 20
-1179.167951722013
 30
0.0
 10
780.235057330372
 20
-1177.194797072203
 30
0.0
 10
781.9549278112827
 20
-1175.839738698134
 30
0.0
 10
787.6634941888715
 20
-1173.293591365456
 30
0.0
 10
792.3433060046491
 20
-1171.2062523039
 30
0.0
 10
794.5149642615788
 20
-1169.670389440758
 30
0.0
 10
793.5437298330598
 20
-1169.134758017455
 30
0.0
 10
790.6375423322133
 20
-1167.531914968487
 30
0.0
 10
793.4844442469648
 20
-1164.856458665969
 30
0.0
 10
800.6374032148024
 20
-1162.468128894803
 30
0.0
 10
804.575422209482
 20
-1161.15331264849
 30
0.0
 10
808.9253129332728
 20
-1160.077428409149
 30
0.0
 10
810.3038120998281
 20
-1160.077428409149
 30
0.0
 10
813.1642659664794
 20
-1160.077428409149
 30
0.0
 10
813.3193063491708
 20
-1159.636865636696
 30
0.0
 10
811.5167958638158
 20
-1156.631219824938
 30
0.0
 10
810.3816097194758
 20
-1154.738489412588
 30
0.0
 10
810.8895388942428
 20
-1154.306329172414
 30
0.0
 10
815.6674762574967
 20
-1153.099575492932
 30
0.0
 10
818.66170100416
 20
-1152.343317579427
 30
0.0
 10
824.390326288215
 20
-1151.680717891693
 30
0.0
 10
828.3978536813383
 20
-1151.627121739408
 30
0.0
 10
835.1657926162952
 20
-1151.536644472269
 30
0.0
 10
835.6356552661309
 20
-1151.357400453475
 30
0.0
 10
835.004362975893
 20
-1149.107532410519
 30
0.0
 10
834.3706831209265
 20
-1146.849291844341
 30
0.0
 10
834.95807448511
 20
-1146.634637153855
 30
0.0
 10
843.6823536919019
 20
-1145.935786541177
 30
0.0
 10
848.8931800794035
 20
-1145.518420759583
 30
0.0
 10
854.9306755326406
 20
-1145.685751187968
 30
0.0
 10
857.3052936051572
 20
-1146.313390339661
 30
0.0
 10
860.7228739310103
 20
-1147.216422486546
 30
0.0
 10
861.4398831576855
 20
-1147.135578122463
 30
0.0
 10
860.911525172055
 20
-1145.90673778675
 30
0.0
 10
859.8657045665859
 20
-1143.474654829664
 30
0.0
 10
866.5641182892659
 20
-1142.870602786439
 30
0.0
 10
886.8659678753247
 20
-1143.566392476632
 30
0.0
 10
886.8659678753247
 20
-1143.566392476632
 30
0.0
 10
905.402314229299
 20
-1144.201593907364
 30
0.0
 10
905.402314229299
 20
-1144.201593907364
 30
0.0
 10
905.402314229299
 20
-1144.201593907364
 30
0.0
 10
892.6311632529141
 20
-1140.164897367735
 30
0.0
 10
892.6311632529141
 20
-1140.164897367735
 30
0.0
 10
880.5420991656338
 20
-1136.343665762799
 30
0.0
 10
853.1078034917718
 20
-1128.7542585424
 30
0.0
 10
841.1884246384252
 20
-1125.934038612431
 30
0.0
 10
838.1819762329023
 20
-1125.222614210394
 30
0.0
 10
835.935614102169
 20
-1124.279760062353
 30
0.0
 10
836.1965480246181
 20
-1123.838927208502
 30
0.0
 10
837.1430324864114
 20
-1122.240015344298
 30
0.0
 10
832.494242198245
 20
-1119.610292824544
 30
0.0
 10
828.1323127677997
 20
-1119.277132419977
 30
0.0
 10
825.6760467071763
 20
-1119.089515877957
 30
0.0
 10
818.6916800739282
 20
-1118.147562001217
 30
0.0
 10
812.6118810090557
 20
-1117.183911585798
 30
0.0
 10
803.3261878148569
 20
-1115.712238067401
 30
0.0
 10
801.413159984817
 20
-1115.037274653641
 30
0.0
 10
800.6594461539325
 20
-1112.966170484773
 30
0.0
 10
800.1660273197094
 20
-1111.610061794154
 30
0.0
 10
799.8290107889115
 20
-1109.940448622663
 30
0.0
 10
799.9105242663281
 20
-1109.255852305825
 30
0.0
 10
799.9920713714137
 20
-1108.571285997983
 30
0.0
 10
795.0766640841994
 20
-1107.07815601328
 30
0.0
 10
788.9873820157718
 20
-1105.937782338749
 30
0.0
 10
777.1947290451171
 20
-1103.729296767226
 30
0.0
 10
772.5347407421104
 20
-1101.113618480011
 30
0.0
 10
773.8427058662282
 20
-1097.436040167868
 30
0.0
 10
774.4453473797494
 20
-1095.741639526188
 30
0.0
 10
773.7525668908938
 20
-1095.164835694753
 30
0.0
 10
770.3959199070714
 20
-1094.566275306568
 30
0.0
 10
758.6869998401908
 20
-1092.478456100285
 30
0.0
 10
753.0011489551634
 20
-1090.449424610852
 30
0.0
 10
750.9218322860916
 20
-1087.617831253301
 30
0.0
 10
748.8784467847518
 20
-1084.834882555771
 30
0.0
 10
748.8810865570249
 20
-1084.538513238924
 30
0.0
 10
750.9672296435565
 20
-1082.481483311618
 30
0.0
 10
752.854700442721
 20
-1080.620232386256
 30
0.0
 10
752.8925988292967
 20
-1080.298475418311
 30
0.0
 10
751.2240778038395
 20
-1080.298475418311
 30
0.0
 10
750.1477568996797
 20
-1080.298475418311
 30
0.0
 10
745.1412018069586
 20
-1079.46698483191
 30
0.0
 10
740.0980766207285
 20
-1078.450788580754
 30
0.0
 10
733.2276573547342
 20
-1077.066261325639
 30
0.0
 10
730.4310035891694
 20
-1075.924117117527
 30
0.0
 10
728.9412220483773
 20
-1073.894485447241
 30
0.0
 10
727.0762397550025
 20
-1071.354429950479
 30
0.0
 10
727.1403677258822
 20
-1071.046357106521
 30
0.0
 10
729.9710779164725
 20
-1068.941912889972
 30
0.0
 10
731.6313265345743
 20
-1067.70764091729
 30
0.0
 10
732.5585843747776
 20
-1066.61672214699
 30
0.0
 10
732.03176485515
 20
-1066.517482239051
 30
0.0
 10
731.5049537424329
 20
-1066.418272340168
 30
0.0
 10
730.6429167724664
 20
-1066.267026759275
 30
0.0
 10
730.1160888459153
 20
-1066.18135093915
 30
0.0
 10
724.6621764229967
 20
-1065.294523675937
 30
0.0
 10
709.0056618817734
 20
-1059.022063343931
 30
0.0
 10
706.6431665850814
 20
-1056.777026757036
 30
0.0
 10
703.6985258410859
 20
-1053.979823763699
 30
0.0
 10
703.6823341169265
 20
-1053.858377163331
 30
0.0
 10
706.0471497229946
 20
-1052.315222102545
 30
0.0
 10
708.4370852001884
 20
-1050.755652094769
 30
0.0
 10
708.4370852001884
 20
-1050.71613018407
 30
0.0
 10
706.0471497229946
 20
-1049.974006530174
 30
0.0
 10
699.5912671791439
 20
-1047.969462420535
 30
0.0
 10
691.9867558289825
 20
-1044.696045910676
 30
0.0
 10
689.9338957310138
 20
-1043.037956212014
 30
0.0
 10
687.4917280719574
 20
-1041.065581797333
 30
0.0
 10
686.8147105544504
 20
-1036.989753464581
 30
0.0
 10
688.9293783139192
 20
-1036.989753464581
 30
0.0
 10
692.3388039292577
 20
-1036.989753464581
 30
0.0
 10
689.4428728684434
 20
-1035.004385133911
 30
0.0
 10
682.5591202304231
 20
-1032.62235726196
 30
0.0
 10
678.3530130260424
 20
-1031.166918636252
 30
0.0
 10
673.7081235478518
 20
-1028.610628246772
 30
0.0
 10
672.2370726204736
 20
-1026.941735292356
 30
0.0
 10
672.2370726204736
 20
-1026.941735292356
 30
0.0
 10
669.562403235821
 20
-1023.90737082562
 30
0.0
 10
669.562403235821
 20
-1023.90737082562
 30
0.0
 10
669.562403235821
 20
-1023.90737082562
 30
0.0
 10
672.2368540405987
 20
-1022.322623230104
 30
0.0
 10
672.2368540405987
 20
-1022.322623230104
 30
0.0
 10
674.7933978197343
 20
-1020.807796706669
 30
0.0
 10
674.5311440111418
 20
-1020.539635891017
 30
0.0
 10
666.2930326717433
 20
-1016.243631203686
 30
0.0
 10
656.9382430180895
 20
-1011.365301020833
 30
0.0
 10
655.4524253391564
 20
-1010.015074102828
 30
0.0
 10
656.4099901189329
 20
-1007.263004711405
 30
0.0
 10
656.8162418233414
 20
-1006.095502861252
 30
0.0
 10
655.8208543192513
 20
-1004.964161908918
 30
0.0
 10
653.5889857152397
 20
-1004.056628405469
 30
0.0
 10
648.1704454000082
 20
-1001.853454434709
 30
0.0
 10
640.3098509191168
 20
-995.8821648665889
 30
0.0
 10
640.6911130596218
 20
-994.2586755954653
 30
0.0
 10
641.1967051111624
 20
-992.1052566193757
 30
0.0
 10
626.4202561756756
 20
-981.9266390884259
 30
0.0
 10
611.1235198958848
 20
-973.8908173320378
 30
0.0
 10
601.1165099803693
 20
-968.6338930522561
 30
0.0
 10
598.5088363765235
 20
-966.8071525272808
 30
0.0
 10
600.617013995261
 20
-966.5307392245832
 30
0.0
 10
602.159359791176
 20
-966.3285082782313
 30
0.0
 10
606.4250794005848
 20
-967.0319802836439
 30
0.0
 10
610.0964288529722
 20
-968.0940603628187
 30
0.0
 10
617.9212130155556
 20
-970.3576125297623
 30
0.0
 10
643.8843421669117
 20
-979.518473339278
 30
0.0
 10
647.0534434194014
 20
-981.134070231863
 30
0.0
 10
648.2548592641506
 20
-981.7466148344902
 30
0.0
 10
650.0628762808237
 20
-981.9653207459123
 30
0.0
 10
651.071012876123
 20
-981.6200666966724
 30
0.0
 10
652.0792167267746
 20
-981.2748126474326
 30
0.0
 10
656.5558879782402
 20
-982.6898290910704
 30
0.0
 10
661.0192931130041
 20
-984.7645943632833
 30
0.0
 10
665.4825847543962
 20
-986.8393296264567
 30
0.0
 10
669.5654969816642
 20
-988.7114138166507
 30
0.0
 10
670.0923249082152
 20
-988.9248981544315
 30
0.0
 10
670.6191360209177
 20
-989.138352483189
 30
0.0
 10
671.0501755232044
 20
-988.5009603922772
 30
0.0
 10
671.0501755232044
 20
-987.5085012947784
 30
0.0
 10
671.0501755232044
 20
-986.5160421972851
 30
0.0
 10
671.366073875859
 20
-985.7039674622392
 30
0.0
 10
671.7521615873266
 20
-985.7039674622392
 30
0.0
 10
673.3401275240221
 20
-985.7039674622392
 30
0.0
 10
680.946068050257
 20
-989.6580491042096
 30
0.0
 10
685.4941014255837
 20
-992.84771037274
 30
0.0
 10
690.2476419126479
 20
-996.1818051692044
 30
0.0
 10
690.3754606946959
 20
-996.2043419611273
 30
0.0
 10
691.0708725489003
 20
-993.8312567842113
 30
0.0
 10
691.4623238740851
 20
-992.4954942253225
 30
0.0
 10
692.237576229013
 20
-991.4025048310141
 30
0.0
 10
692.7937106718891
 20
-991.4025048310141
 30
0.0
 10
694.3262497978885
 20
-991.4025048310141
 30
0.0
 10
707.7730984056479
 20
-1001.412861653209
 30
0.0
 10
708.4595905198121
 20
-1003.063899226576
 30
0.0
 10
708.8021303957757
 20
-1003.88833768768
 30
0.0
 10
709.6741211567132
 20
-1003.129979141075
 30
0.0
 10
710.4904160855767
 20
-1001.297716952062
 30
0.0
 10
710.4904160855767
 20
-1001.297716952062
 30
0.0
 10
711.9209204471954
 20
-998.0866292262108
 30
0.0
 10
711.9209204471954
 20
-998.0866292262108
 30
0.0
 10
711.9209204471954
 20
-998.0866292262108
 30
0.0
 10
716.0704995346086
 20
-1000.702007423
 30
0.0
 10
716.0704995346086
 20
-1000.702007423
 30
0.0
 10
718.3527760192555
 20
-1002.140430920839
 30
0.0
 10
722.9231802035156
 20
-1005.716818737188
 30
0.0
 10
726.2270401488868
 20
-1008.649542572455
 30
0.0
 10
726.2270401488868
 20
-1008.649542572455
 30
0.0
 10
732.2340016757644
 20
-1013.981669516075
 30
0.0
 10
732.2340016757644
 20
-1013.981669516075
 30
0.0
 10
732.2340016757644
 20
-1013.981669516075
 30
0.0
 10
733.669575408966
 20
-1010.099939678772
 30
0.0
 10
733.669575408966
 20
-1010.099939678772
 30
0.0
 10
734.4591279315146
 20
-1007.965006273695
 30
0.0
 10
735.4110348554386
 20
-1006.218209841474
 30
0.0
 10
735.7848064319614
 20
-1006.218209841474
 30
0.0
 10
737.0574036518356
 20
-1006.218209841474
 30
0.0
 10
750.8567459265432
 20
-1017.837321494279
 30
0.0
 10
754.8919488938791
 20
-1022.306568391636
 30
0.0
 10
754.8919488938791
 20
-1022.306568391636
 30
0.0
 10
758.9123893131136
 20
-1026.759610405357
 30
0.0
 10
758.9123893131136
 20
-1026.759610405357
 30
0.0
 10
758.9123893131136
 20
-1026.759610405357
 30
0.0
 10
760.2533095559884
 20
-1023.326965908958
 30
0.0
 10
760.2533095559884
 20
-1023.326965908958
 30
0.0
 10
760.9908316627134
 20
-1021.438946916471
 30
0.0
 10
762.1329451075344
 20
-1019.894321412528
 30
0.0
 10
762.7913413015722
 20
-1019.894321412528
 30
0.0
 10
764.5274035066441
 20
-1019.894321412528
 30
0.0
 10
779.6131303468346
 20
-1034.538164628995
 30
0.0
 10
780.8340502414603
 20
-1037.408529671196
 30
0.0
 10
781.8361716869013
 20
-1039.763819485104
 30
0.0
 10
781.9184922284512
 20
-1039.741972901196
 30
0.0
 10
783.4967061402149
 20
-1036.704757575331
 30
0.0
 10
784.3923791893076
 20
-1034.980978079726
 30
0.0
 10
785.8291214841165
 20
-1033.570583028837
 30
0.0
 10
786.6895022912249
 20
-1033.570583028837
 30
0.0
 10
788.6295331420451
 20
-1033.570583028837
 30
0.0
 10
803.8528812307186
 20
-1047.953857717745
 30
0.0
 10
803.9233984593211
 20
-1049.852679965987
 30
0.0
 10
803.9514943794466
 20
-1050.613289190849
 30
0.0
 10
804.8319340930229
 20
-1049.825251699913
 30
0.0
 10
805.8798396141738
 20
-1048.101442195277
 30
0.0
 10
806.9277955768302
 20
-1046.377662699671
 30
0.0
 10
808.2136841341508
 20
-1044.967267648783
 30
0.0
 10
808.7374351286799
 20
-1044.967267648783
 30
0.0
 10
810.0795659677542
 20
-1044.967267648783
 30
0.0
 10
822.2898409994968
 20
-1057.502825491087
 30
0.0
 10
825.4159702903762
 20
-1062.091088256282
 30
0.0
 10
825.4159702903762
 20
-1062.091088256282
 30
0.0
 10
828.0182477036915
 20
-1065.909679065364
 30
0.0
 10
828.0182477036915
 20
-1065.909679065364
 30
0.0
 10
828.0182477036915
 20
-1065.909679065364
 30
0.0
 10
829.3233544756631
 20
-1062.846385880383
 30
0.0
 10
829.3233544756631
 20
-1062.846385880383
 30
0.0
 10
830.0411539526503
 20
-1061.16152811465
 30
0.0
 10
831.1536246044161
 20
-1059.783092695425
 30
0.0
 10
831.7953751007108
 20
-1059.783092695425
 30
0.0
 10
833.2584983043735
 20
-1059.783092695425
 30
0.0
 10
848.5554573674935
 20
-1077.757489641193
 30
0.0
 10
848.6171641459732
 20
-1079.549149593928
 30
0.0
 10
848.6420654372369
 20
-1080.274138083771
 30
0.0
 10
849.3604197708137
 20
-1079.747059237967
 30
0.0
 10
850.2136210699118
 20
-1078.377896613287
 30
0.0
 10
851.0667551136585
 20
-1077.008703979584
 30
0.0
 10
852.1433954807135
 20
-1075.726537572955
 30
0.0
 10
852.6063140162332
 20
-1075.528687946993
 30
0.0
 10
853.6187927847122
 20
-1075.09571746266
 30
0.0
 10
868.4529005676495
 20
-1092.021208299464
 30
0.0
 10
871.1988690242924
 20
-1096.743191363959
 30
0.0
 10
873.1301903080075
 20
-1100.064022163064
 30
0.0
 10
873.1490386182741
 20
-1100.068643555798
 30
0.0
 10
874.6360542830289
 20
-1097.58899626427
 30
0.0
 10
876.1143771945135
 20
-1095.123873349923
 30
0.0
 10
876.1825909275731
 20
-1095.144039427376
 30
0.0
 10
880.6923812326977
 20
-1099.378675620101
 30
0.0
 10
883.200988765102
 20
-1101.734265524454
 30
0.0
 10
887.5732587047514
 20
-1106.333421572583
 30
0.0
 10
890.4086095140992
 20
-1109.599485866695
 30
0.0
 10
895.9078100045672
 20
-1115.933344702331
 30
0.0
 10
911.4396919856799
 20
-1129.209165637792
 30
0.0
 10
918.7971576420068
 20
-1133.865278851088
 30
0.0
 10
918.7971576420068
 20
-1133.865278851088
 30
0.0
 10
923.2498649735626
 20
-1136.682737949006
 30
0.0
 10
923.2498649735626
 20
-1136.682737949006
 30
0.0
 10
923.2498649735626
 20
-1136.682737949006
 30
0.0
 10
920.3935977521114
 20
-1133.103109155925
 30
0.0
 10
920.3935977521114
 20
-1133.103109155925
 30
0.0
 10
918.8226137898746
 20
-1131.134275808427
 30
0.0
 10
917.5373305306475
 20
-1129.189809804517
 30
0.0
 10
917.5373305306475
 20
-1128.782136944128
 30
0.0
 10
917.5373305306475
 20
-1128.374374056559
 30
0.0
 10
915.2823933434993
 20
-1125.077520483488
 30
0.0
 10
912.5262693298573
 20
-1121.45578900192
 30
0.0
 10
907.3374858814859
 20
-1114.637134063221
 30
0.0
 10
897.8873701840612
 20
-1105.808953513586
 30
0.0
 10
882.3250887872637
 20
-1093.241916184326
 30
0.0
 10
877.3577771880036
 20
-1089.230697322919
 30
0.0
 10
872.5557624114545
 20
-1084.292859206153
 30
0.0
 10
871.6537337323189
 20
-1082.268869236086
 30
0.0
 10
870.1563439306929
 20
-1078.908816616702
 30
0.0
 10
867.8790275276988
 20
-1076.997210515779
 30
0.0
 10
854.0396767299871
 20
-1067.483413341804
 30
0.0
 10
850.2895355399014
 20
-1064.905396404587
 30
0.0
 10
846.0180981753547
 20
-1059.825675528635
 30
0.0
 10
846.0180981753547
 20
-1057.943958435368
 30
0.0
 10
846.0180981753547
 20
-1057.702205578282
 30
0.0
 10
847.0238345955586
 20
-1057.477497858092
 30
0.0
 10
848.2531109667252
 20
-1057.444607946058
 30
0.0
 10
850.0454827089043
 20
-1057.396623484985
 30
0.0
 10
849.8632207255714
 20
-1057.001734477226
 30
0.0
 10
847.3322339773231
 20
-1055.450116866097
 30
0.0
 10
836.5326229806069
 20
-1048.829401580486
 30
0.0
 10
826.3099619558516
 20
-1041.232071972519
 30
0.0
 10
824.8719754371614
 20
-1038.757976354078
 30
0.0
 10
823.4228581589814
 20
-1036.265425173686
 30
0.0
 10
823.4854392569459
 20
-1035.736185676726
 30
0.0
 10
825.3386434581471
 20
-1034.810676756006
 30
0.0
 10
826.5157128682094
 20
-1034.22282959644
 30
0.0
 10
827.1962528843969
 20
-1033.532231470836
 30
0.0
 10
826.8507958078608
 20
-1033.276074272721
 30
0.0
 10
826.505439614355
 20
-1033.019887065549
 30
0.0
 10
822.1998533486867
 20
-1030.327835761782
 30
0.0
 10
817.2828991885435
 20
-1027.29374137645
 30
0.0
 10
805.9166787290724
 20
-1020.280087670968
 30
0.0
 10
801.0583544154151
 20
-1015.335377483163
 30
0.0
 10
805.5332223829555
 20
-1015.335377483163
 30
0.0
 10
806.4463818215918
 20
-1015.335377483163
 30
0.0
 10
807.8483362895167
 20
-1014.751041381731
 30
0.0
 10
808.6486580740675
 20
-1014.036796129563
 30
0.0
 10
809.737421216947
 20
-1013.06519331755
 30
0.0
 10
808.2743484548009
 20
-1011.681206225203
 30
0.0
 10
802.8377290622966
 20
-1008.540039571522
 30
0.0
 10
795.8965739878249
 20
-1004.529600945236
 30
0.0
 10
787.2699159134245
 20
-996.9740439262769
 30
0.0
 10
787.2699159134245
 20
-994.9041101101266
 30
0.0
 10
787.2699159134245
 20
-994.3670382527362
 30
0.0
 10
788.706691835916
 20
-993.6057988379362
 30
0.0
 10
790.4627120644473
 20
-993.2124703004702
 30
0.0
 10
792.2187154791318
 20
-992.8191417630151
 30
0.0
 10
793.6555082154582
 20
-992.0831999721668
 30
0.0
 10
793.6555082154582
 20
-991.5768873846955
 30
0.0
 10
793.6555082154582
 20
-991.0706648243413
 30
0.0
 10
790.1484614677147
 20
-988.3892067130582
 30
0.0
 10
785.8621270443773
 20
-985.6180515697652
 30
0.0
 10
781.5757926210408
 20
-982.8468964264684
 30
0.0
 10
777.2733841703857
 20
-979.2071895276513
 30
0.0
 10
776.3012754223964
 20
-977.529713986678
 30
0.0
 10
774.5980506392143
 20
-974.5905081979436
 30
0.0
 10
774.6724350501245
 20
-974.4525566234715
 30
0.0
 10
778.3476369727105
 20
-973.7321595173107
 30
0.0
 10
783.2216149677715
 20
-972.7768516160904
 30
0.0
 10
783.1524092183745
 20
-971.8855530053315
 30
0.0
 10
778.0106708834164
 20
-969.3908411737866
 30
0.0
 10
772.4857956652204
 20
-966.7102533247635
 30
0.0
 10
760.416454207676
 20
-957.0007971850173
 30
0.0
 10
760.4351848210899
 20
-955.2514499840909
 30
0.0
 10
760.4439952712137
 20
-954.4879298819596
 30
0.0
 10
761.9302543133381
 20
-953.1711930568545
 30
0.0
 10
763.739154056404
 20
-952.3254481746426
 30
0.0
 10
763.739154056404
 20
-952.3254481746426
 30
0.0
 10
767.0280244669029
 20
-950.7876947417335
 30
0.0
 10
767.0280244669029
 20
-950.7876947417335
 30
0.0
 10
767.0280244669029
 20
-950.7876947417335
 30
0.0
 10
761.7622168353491
 20
-947.6779775659652
 30
0.0
 10
761.7622168353491
 20
-947.6779775659652
 30
0.0
 10
755.3356492147468
 20
-943.8827037839419
 30
0.0
 10
746.4015669610726
 20
-936.7816337337626
 30
0.0
 10
746.4015669610726
 20
-935.4688581024457
 30
0.0
 10
746.4015669610726
 20
-934.9401287592391
 30
0.0
 10
748.5861046164737
 20
-933.9234523633677
 30
0.0
 10
751.256259486132
 20
-933.2095372106851
 30
0.0
 10
751.256259486132
 20
-933.2095372106851
 30
0.0
 10
756.1109520111931
 20
-931.9115260289291
 30
0.0
 10
756.1109520111931
 20
-931.9115260289291
 30
0.0
 10
756.1109520111931
 20
-931.9115260289291
 30
0.0
 10
744.8703477212184
 20
-922.0230959517885
 30
0.0
 10
744.8703477212184
 20
-922.0230959517885
 30
0.0
 10
738.6881860221638
 20
-916.5843618799809
 30
0.0
 10
733.6297434312455
 20
-911.3067013509062
 30
0.0
 10
733.6297434312455
 20
-910.295831705027
 30
0.0
 10
733.6297434312455
 20
-909.0970454266935
 30
0.0
 10
735.1836613498526
 20
-908.1968041208784
 30
0.0
 10
738.0936992191564
 20
-907.7096523078908
 30
0.0
 10
738.0936992191564
 20
-907.7096523078908
 30
0.0
 10
742.5575373102147
 20
-906.9623220849116
 30
0.0
 10
742.5575373102147
 20
-906.9623220849116
 30
0.0
 10
742.5575373102147
 20
-906.9623220849116
 30
0.0
 10
734.4761183128849
 20
-899.8898656580204
 30
0.0
 10
734.4761183128849
 20
-899.8898656580204
 30
0.0
 10
724.4098259638713
 20
-891.0803507336623
 30
0.0
 10
723.3688477431988
 20
-889.0072809724152
 30
0.0
 10
728.5470636955833
 20
-888.0829424044132
 30
0.0
 10
730.6401424895057
 20
-887.7093898268358
 30
0.0
 10
732.3526232894565
 20
-887.214000531314
 30
0.0
 10
732.3526232894565
 20
-886.9820906406112
 30
0.0
 10
732.3526232894565
 20
-886.7501807499029
 30
0.0
 10
729.5338257017556
 20
-883.4387427815182
 30
0.0
 10
726.088586615525
 20
-879.62339294917
 30
0.0
 10
719.6469201700947
 20
-872.4895830321802
 30
0.0
 10
717.4168758672986
 20
-868.326818499434
 30
0.0
 10
720.0201368900289
 20
-868.2963443154167
 30
0.0
 10
720.8323964982128
 20
-868.2865163535662
 30
0.0
 10
722.3406564448887
 20
-867.8027555625249
 30
0.0
 10
723.3717145022565
 20
-867.2207751710412
 30
0.0
 10
724.9639763740834
 20
-866.322109340028
 30
0.0
 10
724.8578642544508
 20
-865.8524678041267
 30
0.0
 10
722.667483791005
 20
-864.1039908654548
 30
0.0
 10
718.4670008148096
 20
-860.7510053758888
 30
0.0
 10
713.19566983809
 20
-853.9952944066245
 30
0.0
 10
713.19566983809
 20
-851.9656927453689
 30
0.0
 10
713.19566983809
 20
-850.6955149517598
 30
0.0
 10
714.2763623396295
 20
-850.0787690829984
 30
0.0
 10
716.5020686727275
 20
-850.0787690829984
 30
0.0
 10
716.5020686727275
 20
-850.0787690829984
 30
0.0
 10
719.8084675073505
 20
-850.0787690829984
 30
0.0
 10
719.8084675073505
 20
-850.0787690829984
 30
0.0
 10
719.8084675073505
 20
-850.0787690829984
 30
0.0
 10
716.4410260407531
 20
-846.5074828041106
 30
0.0
 10
716.4410260407531
 20
-846.5074828041106
 30
0.0
 10
712.4571725288743
 20
-842.2824795144516
 30
0.0
 10
708.087214491693
 20
-834.9336097848627
 30
0.0
 10
708.087214491693
 20
-832.4585538770289
 30
0.0
 10
708.087214491693
 20
-831.4823296722379
 30
0.0
 10
709.1850907337302
 20
-830.7035949849023
 30
0.0
 10
710.5613368462455
 20
-830.7035949849023
 30
0.0
 10
712.8773334792022
 20
-830.7035949849023
 30
0.0
 10
712.7957947810273
 20
-830.2317327797455
 30
0.0
 10
709.2842251113816
 20
-823.3206049724749
 30
0.0
 10
705.4405401441472
 20
-815.7555951047198
 30
0.0
 10
704.3685992442915
 20
-810.551981891289
 30
0.0
 10
706.946849685828
 20
-811.9738854104953
 30
0.0
 10
707.8888868879658
 20
-812.4934469908139
 30
0.0
 10
708.0856760256902
 20
-811.97978218761
 30
0.0
 10
707.5363848141078
 20
-810.4357568645491
 30
0.0
 10
707.0829492821413
 20
-809.1608676510659
 30
0.0
 10
705.6217008212116
 20
-804.6090958831628
 30
0.0
 10
704.2891622756342
 20
-800.3201733301503
 30
0.0
 10
702.9566237300578
 20
-796.031745926377
 30
0.0
 10
698.381040884271
 20
-785.7540085236542
 30
0.0
 10
694.1211630320504
 20
-777.4792397557821
 30
0.0
 10
689.8612851798162
 20
-769.205348752449
 30
0.0
 10
686.3759366875629
 20
-762.0742921652163
 30
0.0
 10
686.3759366875629
 20
-761.6317938094453
 30
0.0
 10
686.3759366875629
 20
-759.3620597794879
 30
0.0
 10
692.8010751321044
 20
-766.699908687724
 30
0.0
 10
703.8665801329089
 20
-781.6072838248256
 30
0.0
 10
710.6492900228895
 20
-790.7448426118026
 30
0.0
 10
717.4818024954002
 20
-799.3063552957119
 30
0.0
 10
719.048717509304
 20
-800.6328750691064
 30
0.0
 10
720.6164059596595
 20
-801.9596874306744
 30
0.0
 10
723.4336650813693
 20
-805.93993695887
 30
0.0
 10
725.3092316845823
 20
-809.4779882217199
 30
0.0
 10
727.1847982877807
 20
-813.0160394845707
 30
0.0
 10
729.2745731629102
 20
-815.604664618776
 30
0.0
 10
729.9531291464345
 20
-815.2304068286721
 30
0.0
 10
730.631685129958
 20
-814.8561640430935
 30
0.0
 10
732.0685787492903
 20
-815.202978562611
 30
0.0
 10
733.1462447603371
 20
-816.0011291013261
 30
0.0
 10
735.5445535279196
 20
-817.7773343964818
 30
0.0
 10
740.5951692781309
 20
-826.6280517380328
 30
0.0
 10
741.8445129626871
 20
-831.2438327964164
 30
0.0
 10
741.8445129626871
 20
-831.2438327964164
 30
0.0
 10
742.7623802754315
 20
-834.634959780682
 30
0.0
 10
742.7623802754315
 20
-834.634959780682
 30
0.0
 10
742.7623802754315
 20
-834.634959780682
 30
0.0
 10
745.0314410848923
 20
-831.9505457785763
 30
0.0
 10
745.0314410848923
 20
-831.9505457785763
 30
0.0
 10
745.0314410848923
 20
-831.9505457785763
 30
0.0
 10
747.3005018943795
 20
-829.2661317764705
 30
0.0
 10
747.3005018943795
 20
-829.2661317764705
 30
0.0
 10
747.3005018943795
 20
-829.2661317764705
 30
0.0
 10
749.2944042760591
 20
-831.806577390812
 30
0.0
 10
749.2944042760591
 20
-831.806577390812
 30
0.0
 10
750.391069921895
 20
-833.2037984714634
 30
0.0
 10
752.3437279636291
 20
-837.369023745805
 30
0.0
 10
753.6337359107838
 20
-841.0625218557007
 30
0.0
 10
755.968908723813
 20
-847.7489119337188
 30
0.0
 10
757.377487843145
 20
-848.9429717876665
 30
0.0
 10
760.0823464705154
 20
-846.5291793427932
 30
0.0
 10
760.8640385246863
 20
-845.831604114479
 30
0.0
 10
762.0585102551204
 20
-845.566879334352
 30
0.0
 10
762.7367467757513
 20
-845.9409420656666
 30
0.0
 10
764.5871935078258
 20
-846.9614446146225
 30
0.0
 10
768.4817823638541
 20
-854.6942050373782
 30
0.0
 10
769.3036931139632
 20
-858.9790013468701
 30
0.0
 10
769.3036931139632
 20
-858.9790013468701
 30
0.0
 10
770.0275119442649
 20
-862.7528486715964
 30
0.0
 10
770.0275119442649
 20
-862.7528486715964
 30
0.0
 10
770.0275119442649
 20
-862.7528486715964
 30
0.0
 10
773.0593156146206
 20
-860.2276476515199
 30
0.0
 10
773.0593156146206
 20
-860.2276476515199
 30
0.0
 10
776.0020732089752
 20
-857.7765839742242
 30
0.0
 10
776.1323299972564
 20
-857.7661558314976
 30
0.0
 10
777.4961674987317
 20
-859.8728657308675
 30
0.0
 10
780.3360076023146
 20
-864.259527739614
 30
0.0
 10
784.5570034585726
 20
-874.3633027152664
 30
0.0
 10
785.3918104209733
 20
-878.772591543071
 30
0.0
 10
785.3918104209733
 20
-878.772591543071
 30
0.0
 10
786.2504089614595
 20
-883.3077383006894
 30
0.0
 10
786.2504089614595
 20
-883.3077383006894
 30
0.0
 10
786.2504089614595
 20
-883.3077383006894
 30
0.0
 10
789.0769156930146
 20
-880.9380891592937
 30
0.0
 10
789.0769156930146
 20
-880.9380891592937
 30
0.0
 10
790.6314893512172
 20
-879.6347813813118
 30
0.0
 10
792.5386827801331
 20
-878.5684400178998
 30
0.0
 10
793.3151961727781
 20
-878.5684400178998
 30
0.0
 10
794.816217763002
 20
-878.5684400178998
 30
0.0
 10
798.7630472077908
 20
-892.2928661495444
 30
0.0
 10
798.7630472077908
 20
-897.5124141652414
 30
0.0
 10
798.7630472077908
 20
-897.5124141652414
 30
0.0
 10
798.7630472077908
 20
-900.6202557757679
 30
0.0
 10
798.7630472077908
 20
-900.6202557757679
 30
0.0
 10
798.7630472077908
 20
-900.6202557757679
 30
0.0
 10
802.0587608495844
 20
-897.8572780969189
 30
0.0
 10
802.0587608495844
 20
-897.8572780969189
 30
0.0
 10
805.248681834627
 20
-895.1829921470999
 30
0.0
 10
805.4110026083472
 20
-895.1632311917383
 30
0.0
 10
807.1148831311257
 20
-897.2426628702615
 30
0.0
 10
808.0830910691539
 20
-898.4242389619612
 30
0.0
 10
809.2371591514293
 20
-901.5448644251719
 30
0.0
 10
809.6795816207596
 20
-904.1772427452797
 30
0.0
 10
810.8824266415695
 20
-911.3352399515952
 30
0.0
 10
812.0767974889841
 20
-912.5665710379653
 30
0.0
 10
815.2955878306157
 20
-909.9670226117923
 30
0.0
 10
816.7475802747767
 20
-908.7943892151525
 30
0.0
 10
818.2029859276608
 20
-908.0735119643177
 30
0.0
 10
818.5296955769236
 20
-908.3649748024909
 30
0.0
 10
819.866092897897
 20
-909.5575642132844
 30
0.0
 10
825.3462264982227
 20
-923.9233286251074
 30
0.0
 10
826.1840095096122
 20
-928.4309420850059
 30
0.0
 10
826.6792274242944
 20
-931.0950099554102
 30
0.0
 10
827.4278466628384
 20
-933.2746568357943
 30
0.0
 10
827.8476713364507
 20
-933.2746568357943
 30
0.0
 10
828.2674623823677
 20
-933.2746568357943
 30
0.0
 10
829.9387745046342
 20
-932.161411336896
 30
0.0
 10
831.5617804757712
 20
-930.8007712806648
 30
0.0
 10
833.1846687500529
 20
-929.4401312244318
 30
0.0
 10
834.8714832291871
 20
-928.6472622774472
 30
0.0
 10
835.3101562130541
 20
-929.0386252225308
 30
0.0
 10
836.6453429378271
 20
-930.2301193032217
 30
0.0
 10
839.5899836818244
 20
-942.6883138305202
 30
0.0
 10
839.6112531844892
 20
-947.2362444408118
 30
0.0
 10
839.6324049903142
 20
-951.7741520304644
 30
0.0
 10
840.8643547614092
 20
-952.5944492435192
 30
0.0
 10
843.462647295577
 20
-949.80057725404
 30
0.0
 10
844.3370844696728
 20
-948.860333892806
 30
0.0
 10
845.5123211716082
 20
-948.0910520542693
 30
0.0
 10
846.0741723187521
 20
-948.0910520542693
 30
0.0
 10
847.4525537884529
 20
-948.0910520542693
 30
0.0
 10
849.6258598013319
 20
-954.2149676192948
 30
0.0
 10
851.55101040721
 20
-963.5235329425304
 30
0.0
 10
853.0233812207189
 20
-970.6425784099574
 30
0.0
 10
853.2928061303974
 20
-971.0677765519722
 30
0.0
 10
855.2340475774154
 20
-969.3354444788783
 30
0.0
 10
856.3859803025189
 20
-968.3074546734897
 30
0.0
 10
857.5954499747477
 20
-967.4663311840286
 30
0.0
 10
857.9216047674336
 20
-967.4663311840286
 30
0.0
 10
859.1502422128251
 20
-967.4663311840286
 30
0.0
 10
865.574607220904
 20
-986.5204535267203
 30
0.0
 10
866.3161814621262
 20
-992.3634244234345
 30
0.0
 10
866.3161814621262
 20
-992.3634244234345
 30
0.0
 10
867.089399342889
 20
-998.4557704743529
 30
0.0
 10
867.089399342889
 20
-998.4557704743529
 30
0.0
 10
867.089399342889
 20
-998.4557704743529
 30
0.0
 10
870.6049370778619
 20
-995.9822750368003
 30
0.0
 10
870.6049370778619
 20
-995.9822750368003
 30
0.0
 10
873.225507944855
 20
-994.138519383976
 30
0.0
 10
874.2565660022374
 20
-993.8930754144985
 30
0.0
 10
874.6550202901508
 20
-995.0185345942409
 30
0.0
 10
874.9489934005433
 20
-995.8489148460267
 30
0.0
 10
877.0067211040532
 20
-1001.529896924141
 30
0.0
 10
879.22784566681
 20
-1007.642619115824
 30
0.0
 10
881.4488525327106
 20
-1013.755731425077
 30
0.0
 10
883.6493801462311
 20
-1021.111368194062
 30
0.0
 10
884.1176791093158
 20
-1023.989595605741
 30
0.0
 10
884.1176791093158
 20
-1023.989595605741
 30
0.0
 10
884.9692326524801
 20
-1029.221522351992
 30
0.0
 10
884.9692326524801
 20
-1029.221522351992
 30
0.0
 10
884.9692326524801
 20
-1029.221522351992
 30
0.0
 10
888.420104373794
 20
-1026.796521529275
 30
0.0
 10
888.420104373794
 20
-1026.796521529275
 30
0.0
 10
888.420104373794
 20
-1026.796521529275
 30
0.0
 10
891.8709760951315
 20
-1024.371520706534
 30
0.0
 10
891.8709760951315
 20
-1024.371520706534
 30
0.0
 10
891.8709760951315
 20
-1024.371520706534
 30
0.0
 10
893.1320138026776
 20
-1028.685110693568
 30
0.0
 10
893.1320138026776
 20
-1028.685110693568
 30
0.0
 10
896.20810511732
 20
-1039.207781912026
 30
0.0
 10
898.2259335877725
 20
-1047.030239366781
 30
0.0
 10
899.0218333334524
 20
-1051.519172196913
 30
0.0
 10
899.8728824615173
 20
-1056.318548585439
 30
0.0
 10
901.234702302675
 20
-1057.554200974118
 30
0.0
 10
902.9474941585822
 20
-1055.081125663179
 30
0.0
 10
904.0861943946784
 20
-1053.436990169879
 30
0.0
 10
906.3544817676893
 20
-1059.206018782614
 30
0.0
 10
911.0692495487074
 20
-1075.738061045789
 30
0.0
 10
914.4577419381094
 20
-1087.61972182305
 30
0.0
 10
921.3752231313392
 20
-1104.208601215249
 30
0.0
 10
927.9406225966359
 20
-1116.197424288022
 30
0.0
 10
927.9406225966359
 20
-1116.197424288022
 30
0.0
 10
930.4371073532129
 20
-1120.756278190294
 30
0.0
 10
930.4371073532129
 20
-1120.756278190294
 30
0.0
 10
930.4371073532129
 20
-1120.756278190294
 30
0.0
 10
929.8464036633122
 20
-1111.638690421951
 30
0.0
 10
929.8464036633122
 20
-1111.638690421951
 30
0.0
 10
929.5123127399875
 20
-1106.482266429972
 30
0.0
 10
927.8556790966477
 20
-1098.560328994912
 30
0.0
 10
926.0332274016937
 20
-1093.403694939601
 30
0.0
 10
924.2609145659826
 20
-1088.388973652563
 30
0.0
 10
921.9257417529534
 20
-1080.439397888131
 30
0.0
 10
920.8440067935735
 20
-1075.738061045789
 30
0.0
 10
919.1347122155739
 20
-1068.309352255119
 30
0.0
 10
919.1179656348104
 20
-1067.028446228314
 30
0.0
 10
920.716423405247
 20
-1065.953972414058
 30
0.0
 10
921.8673641140103
 20
-1065.180249237032
 30
0.0
 10
922.1052798948404
 20
-1064.315748702424
 30
0.0
 10
921.352221803565
 20
-1063.643726174918
 30
0.0
 10
920.1703100086934
 20
-1062.588998311483
 30
0.0
 10
911.1502922387199
 20
-1040.151806412772
 30
0.0
 10
911.1502922387199
 20
-1038.266758315644
 30
0.0
 10
911.1502922387199
 20
-1037.737308755382
 30
0.0
 10
912.5300020014756
 20
-1037.539519147516
 30
0.0
 10
914.2162616240203
 20
-1037.827155832594
 30
0.0
 10
914.2162616240203
 20
-1037.827155832594
 30
0.0
 10
917.2822310093325
 20
-1038.350213466532
 30
0.0
 10
917.2822310093325
 20
-1038.350213466532
 30
0.0
 10
917.2822310093325
 20
-1038.350213466532
 30
0.0
 10
912.3661679825091
 20
-1027.447957852677
 30
0.0
 10
912.3661679825091
 20
-1027.447957852677
 30
0.0
 10
909.6623013714625
 20
-1021.451970841501
 30
0.0
 10
907.0692715680061
 20
-1014.734416371466
 30
0.0
 10
906.6038309570667
 20
-1012.520919289629
 30
0.0
 10
905.8107223081824
 20
-1008.748242317588
 30
0.0
 10
905.967057356258
 20
-1008.495326096228
 30
0.0
 10
909.0925140936788
 20
-1008.495326096228
 30
0.0
 10
910.9267691015921
 20
-1008.495326096228
 30
0.0
 10
912.4274376012663
 20
-1008.334867738855
 30
0.0
 10
912.4274376012663
 20
-1008.138758637444
 30
0.0
 10
912.4274376012663
 20
-1007.942649536035
 30
0.0
 10
911.0262397559582
 20
-1005.190220036087
 30
0.0
 10
909.3136496660763
 20
-1002.022195288155
 30
0.0
 10
906.4690512468824
 20
-996.7601694709192
 30
0.0
 10
902.2104092115933
 20
-984.3142786515891
 30
0.0
 10
902.2104092115933
 20
-981.2629890841527
 30
0.0
 10
902.2104092115933
 20
-980.5699002078873
 30
0.0
 10
903.9960722331789
 20
-980.002849315706
 30
0.0
 10
906.1784072760411
 20
-980.002849315706
 30
0.0
 10
909.4644025205598
 20
-980.002849315706
 30
0.0
 10
909.9847234925437
 20
-979.6600560080606
 30
0.0
 10
909.2057048383158
 20
-978.008358235742
 30
0.0
 10
906.0874107950704
 20
-971.3975759436307
 30
0.0
 10
900.938173489194
 20
-958.6838243990896
 30
0.0
 10
900.2553299774754
 20
-955.9088581072356
 30
0.0
 10
899.4886526789478
 20
-952.7937393035791
 30
0.0
 10
899.65638750789
 20
-952.6499959836401
 30
0.0
 10
904.0574763626137
 20
-952.6499959836401
 30
0.0
 10
904.0574763626137
 20
-952.6499959836401
 30
0.0
 10
908.6617099851146
 20
-952.6499959836401
 30
0.0
 10
908.6617099851146
 20
-952.6499959836401
 30
0.0
 10
908.6617099851146
 20
-952.6499959836401
 30
0.0
 10
906.8550296684061
 20
-949.515821437144
 30
0.0
 10
906.8550296684061
 20
-949.515821437144
 30
0.0
 10
904.6815050756677
 20
-945.7454251524632
 30
0.0
 10
899.6562529972016
 20
-931.448996636409
 30
0.0
 10
899.6562529972016
 20
-929.0368546889531
 30
0.0
 10
899.6562529972016
 20
-927.7699178720777
 30
0.0
 10
900.6779961893744
 20
-927.4518220074933
 30
0.0
 10
903.542468562855
 20
-927.8269650643888
 30
0.0
 10
906.7254622474156
 20
-928.2438657057792
 30
0.0
 10
907.2653881522847
 20
-928.0094950734783
 30
0.0
 10
906.526016523585
 20
-926.5317147146798
 30
0.0
 10
904.6709459865888
 20
-922.8238422727954
 30
0.0
 10
899.8752027709088
 20
-909.7756549393034
 30
0.0
 10
899.0120813085068
 20
-906.0871683397363
 30
0.0
 10
899.0120813085068
 20
-906.0871683397363
 30
0.0
 10
898.1171144405416
 20
-902.2631759027627
 30
0.0
 10
898.1171144405416
 20
-902.2631759027627
 30
0.0
 10
898.1171144405416
 20
-902.2631759027627
 30
0.0
 10
903.5487569375473
 20
-903.082092699804
 30
0.0
 10
903.5487569375473
 20
-903.082092699804
 30
0.0
 10
908.5268630195787
 20
-903.8326338904808
 30
0.0
 10
908.8946824981276
 20
-903.7236710523321
 30
0.0
 10
907.9538811129469
 20
-901.7774045057922
 30
0.0
 10
904.7289200934656
 20
-895.1062590220263
 30
0.0
 10
902.1574792555548
 20
-887.1158559534706
 30
0.0
 10
901.4105077729437
 20
-881.4429913217136
 30
0.0
 10
901.4105077729437
 20
-881.4429913217136
 30
0.0
 10
900.5598958046021
 20
-874.9843398773046
 30
0.0
 10
900.5598958046021
 20
-874.9843398773046
 30
0.0
 10
900.5598958046021
 20
-874.9843398773046
 30
0.0
 10
905.1247850506215
 20
-875.7485651919505
 30
0.0
 10
905.1247850506215
 20
-875.7485651919505
 30
0.0
 10
905.1247850506215
 20
-875.7485651919505
 30
0.0
 10
909.6896742966401
 20
-876.512790506611
 30
0.0
 10
909.6896742966401
 20
-876.512790506611
 30
0.0
 10
909.6896742966401
 20
-876.512790506611
 30
0.0
 10
906.6189634095517
 20
-869.8480369491881
 30
0.0
 10
906.6189634095517
 20
-869.8480369491881
 30
0.0
 10
904.9300472008999
 20
-866.1824472500648
 30
0.0
 10
903.534599687553
 20
-861.4523167301613
 30
0.0
 10
903.5179539898108
 20
-859.3371592849544
 30
0.0
 10
903.4887651703393
 20
-855.638244542657
 30
0.0
 10
903.6398543015512
 20
-855.5178782678686
 30
0.0
 10
907.4537703719643
 20
-856.1985433999871
 30
0.0
 10
910.8191269228791
 20
-856.7991894167317
 30
0.0
 10
911.294386814101
 20
-856.6144087293615
 30
0.0
 10
910.5908959116441
 20
-854.9785107186217
 30
0.0
 10
904.8307783125601
 20
-841.5835088656004
 30
0.0
 10
904.8614131219383
 20
-837.9431867813819
 30
0.0
 10
910.7299799638695
 20
-838.4692753287309
 30
0.0
 10
910.7299799638695
 20
-838.4692753287309
 30
0.0
 10
914.740718799676
 20
-838.8288286873722
 30
0.0
 10
914.740718799676
 20
-838.8288286873722
 30
0.0
 10
914.740718799676
 20
-838.8288286873722
 30
0.0
 10
912.8083046166157
 20
-833.9104814445873
 30
0.0
 10
912.8083046166157
 20
-833.9104814445873
 30
0.0
 10
911.7455020366879
 20
-831.2054212203129
 30
0.0
 10
910.7940070517407
 20
-826.4277863840471
 30
0.0
 10
910.6939647269382
 20
-823.2934017742527
 30
0.0
 10
910.6939647269382
 20
-823.2934017742527
 30
0.0
 10
910.5119381373142
 20
-817.5948644054788
 30
0.0
 10
910.5119381373142
 20
-817.5948644054788
 30
0.0
 10
910.5119381373142
 20
-817.5948644054788
 30
0.0
 10
915.4288754836089
 20
-817.8589139821306
 30
0.0
 10
915.4288754836089
 20
-817.8589139821306
 30
0.0
 10
919.6603127320777
 20
-818.0861424619998
 30
0.0
 10
920.2131516630716
 20
-817.8477956313909
 30
0.0
 10
919.3947550047042
 20
-816.149388782349
 30
0.0
 10
918.8716765636063
 20
-815.0638866444733
 30
0.0
 10
918.1675467353871
 20
-809.3626934753302
 30
0.0
 10
917.8301603001782
 20
-803.4800806317244
 30
0.0
 10
917.8301603001782
 20
-803.4800806317244
 30
0.0
 10
917.216522537844
 20
-792.784332252997
 30
0.0
 10
917.216522537844
 20
-792.784332252997
 30
0.0
 10
917.216522537844
 20
-792.784332252997
 30
0.0
 10
921.8359558681805
 20
-793.557695321495
 30
0.0
 10
921.8359558681805
 20
-793.557695321495
 30
0.0
 10
926.3943549734558
 20
-794.3208403105782
 30
0.0
 10
926.4386426177562
 20
-794.2917540448389
 30
0.0
 10
925.1886347866784
 20
-791.3576798026061
 30
0.0
 10
923.6250152846433
 20
-787.6876712717849
 30
0.0
 10
923.5668394117411
 20
-779.4003137100171
 30
0.0
 10
925.0896685473863
 20
-777.2546670762813
 30
0.0
 10
925.7104690038959
 20
-776.3797909147816
 30
0.0
 10
927.1384681039335
 20
-775.9790801525323
 30
0.0
 10
928.2629438346848
 20
-776.3641261938892
 30
0.0
 10
929.9949370914237
 20
-776.9572474429051
 30
0.0
 10
930.3075399322097
 20
-776.0385655796645
 30
0.0
 10
930.3075399322097
 20
-770.3550552396064
 30
0.0
 10
930.3075399322097
 20
-762.6912255905172
 30
0.0
 10
931.1493750781101
 20
-759.9621731357074
 30
0.0
 10
933.2867835509114
 20
-760.6964269178388
 30
0.0
 10
934.3447101183729
 20
-761.0599339680011
 30
0.0
 10
934.6484016260292
 20
-759.3519092204106
 30
0.0
 10
934.332738667069
 20
-754.8136190154455
 30
0.0
 10
933.9116865834367
 20
-748.7600071378411
 30
0.0
 10
934.0310311920766
 20
-748.4590989531189
 30
0.0
 10
936.5677346446064
 20
-749.1776279962851
 30
0.0
 10
939.0279687705433
 20
-749.8744605007705
 30
0.0
 10
939.2474565870061
 20
-749.5009979503157
 30
0.0
 10
939.2474565870061
 20
-744.6184890081277
 30
0.0
 10
939.2474565870061
 20
-741.6935525197305
 30
0.0
 10
940.0501491224504
 20
-737.684197970153
 30
0.0
 10
941.0312364589327
 20
-735.708968945195
 30
0.0
 10
942.0122901677496
 20
-733.7337399202379
 30
0.0
 10
943.4798017826251
 20
-726.7324837009628
 30
0.0
 10
944.2922463430168
 20
-720.1506226248548
 30
0.0
 10
946.0009692505937
 20
-706.3101627741225
 30
0.0
 10
949.1635845658193
 20
-685.7967831549022
 30
0.0
 10
950.3546430875176
 20
-680.8309353468612
 30
0.0
 10
950.3546430875176
 20
-680.8309353468612
 30
0.0
 10
951.1921066360255
 20
-677.4384248987835
 30
0.0
 10
951.1921066360255
 20
-677.4384248987835
 30
0.0
 10
951.1921066360255
 20
-677.4384248987835
 30
0.0
 10
952.1254426779715
 20
-680.2876420051252
 30
0.0
 10
952.1254426779715
 20
-680.2876420051252
 30
0.0
 10
952.6387690941265
 20
-681.8546868437033
 30
0.0
 10
953.1160802733484
 20
-689.5205800834492
 30
0.0
 10
953.1860930868916
 20
-697.3229605501074
 30
0.0
 10
953.340544985309
 20
-714.5342950316572
 30
0.0
 10
955.7111277371623
 20
-737.5797664976299
 30
0.0
 10
957.4270133389118
 20
-738.5503189931424
 30
0.0
 10
958.1147328630987
 20
-738.9394837757718
 30
0.0
 10
958.4762303392727
 20
-742.1395919426832
 30
0.0
 10
958.2303784278283
 20
-745.6616108738681
 30
0.0
 10
957.8244587966801
 20
-751.4762757399803
 30
0.0
 10
958.0019120228735
 20
-752.0032420518728
 30
0.0
 10
960.1594970989936
 20
-751.3905323995077
 30
0.0
 10
962.3668511300002
 20
-750.7636959897573
 30
0.0
 10
962.5025051596531
 20
-751.3672978973091
 30
0.0
 10
962.0688763266107
 20
-759.8872480555228
 30
0.0
 10
961.6304387364407
 20
-768.5027470092855
 30
0.0
 10
961.7573495713377
 20
-769.0452580058809
 30
0.0
 10
964.1627369639109
 20
-768.83668764901
 30
0.0
 10
966.4687209574677
 20
-768.6367523944973
 30
0.0
 10
966.7230134146475
 20
-769.2944005900063
 30
0.0
 10
966.7205922222493
 20
-775.4528715690085
 30
0.0
 10
966.7194825090692
 20
-779.2139350410653
 30
0.0
 10
966.2422385851842
 20
-783.4650987146688
 30
0.0
 10
965.6608497604957
 20
-784.8999811453341
 30
0.0
 10
964.6862861924128
 20
-787.3052210127098
 30
0.0
 10
964.8759126359591
 20
-787.4479065138439
 30
0.0
 10
968.0901128003361
 20
-786.7280045569241
 30
0.0
 10
968.0901128003361
 20
-786.7280045569241
 30
0.0
 10
971.5765625988333
 20
-785.94713922747
 30
0.0
 10
971.5765625988333
 20
-785.94713922747
 30
0.0
 10
971.5765625988333
 20
-785.94713922747
 30
0.0
 10
970.9003773662153
 20
-795.6191365782479
 30
0.0
 10
970.9003773662153
 20
-795.6191365782479
 30
0.0
 10
970.5284889393497
 20
-800.9386897325057
 30
0.0
 10
969.5421556859892
 20
-806.4279740386446
 30
0.0
 10
968.7086602028057
 20
-807.8184130753934
 30
0.0
 10
967.2457555790179
 20
-810.2576831984697
 30
0.0
 10
967.351548235758
 20
-810.319036688582
 30
0.0
 10
971.7473911736424
 20
-809.583109902258
 30
0.0
 10
971.7473911736424
 20
-809.583109902258
 30
0.0
 10
976.3016877029168
 20
-808.8206551211742
 30
0.0
 10
976.3016877029168
 20
-808.8206551211742
 30
0.0
 10
976.3016877029168
 20
-808.8206551211742
 30
0.0
 10
976.3016877029168
 20
-813.2579573913899
 30
0.0
 10
976.3016877029168
 20
-813.2579573913899
 30
0.0
 10
976.3016877029168
 20
-817.4521864066055
 30
0.0
 10
974.0404621410489
 20
-826.4730100130919
 30
0.0
 10
971.8181101682858
 20
-831.1448479653573
 30
0.0
 10
970.788733494508
 20
-833.3087851113023
 30
0.0
 10
971.8070802917782
 20
-833.2806516327146
 30
0.0
 10
978.7284286673266
 20
-830.9542605279948
 30
0.0
 10
980.1878023855361
 20
-830.4637477020997
 30
0.0
 10
980.3896693017796
 20
-831.6976145526769
 30
0.0
 10
979.8263049093621
 20
-837.6639526285489
 30
0.0
 10
979.4466484902141
 20
-841.6848193975629
 30
0.0
 10
978.2547492766871
 20
-847.2150960575855
 30
0.0
 10
977.1775204253872
 20
-849.9536913883203
 30
0.0
 10
977.1775204253872
 20
-849.9536913883203
 30
0.0
 10
975.2190784240647
 20
-854.9324168273015
 30
0.0
 10
975.2190784240647
 20
-854.9324168273015
 30
0.0
 10
975.2190784240647
 20
-854.9324168273015
 30
0.0
 10
979.6585700804362
 20
-854.2895180768337
 30
0.0
 10
979.6585700804362
 20
-854.2895180768337
 30
0.0
 10
982.7141821426976
 20
-853.8470197210627
 30
0.0
 10
984.3012401322667
 20
-854.1192017485864
 30
0.0
 10
984.7499677901251
 20
-855.1626762205924
 30
0.0
 10
985.3110118731229
 20
-856.4673644146005
 30
0.0
 10
981.463199109131
 20
-867.8585273704848
 30
0.0
 10
978.2350098331171
 20
-874.4498337931436
 30
0.0
 10
977.3071551017283
 20
-876.3443347390839
 30
0.0
 10
977.6277277008376
 20
-876.4877029459731
 30
0.0
 10
981.2185577938735
 20
-875.7839308501043
 30
0.0
 10
985.1198721843157
 20
-875.0192704043184
 30
0.0
 10
985.2416379853676
 20
-875.1135438155034
 30
0.0
 10
985.2416379853676
 20
-878.8964838805186
 30
0.0
 10
985.2416379853676
 20
-883.4491409152106
 30
0.0
 10
981.2377255670217
 20
-894.4017367000724
 30
0.0
 10
977.5154785310078
 20
-900.0323185890793
 30
0.0
 10
974.3892483571353
 20
-904.7606935799049
 30
0.0
 10
974.8979005268402
 20
-905.4688920097451
 30
0.0
 10
980.2293661883659
 20
-903.8102921573445
 30
0.0
 10
980.2293661883659
 20
-903.8102921573445
 30
0.0
 10
984.2874864143159
 20
-902.5478867060938
 30
0.0
 10
984.2874864143159
 20
-902.5478867060938
 30
0.0
 10
984.2874864143159
 20
-902.5478867060938
 30
0.0
 10
983.6756309186176
 20
-908.230489272577
 30
0.0
 10
983.6756309186176
 20
-908.230489272577
 30
0.0
 10
983.3391188028909
 20
-911.3559311873105
 30
0.0
 10
981.288671490398
 20
-917.1089349706162
 30
0.0
 10
979.1192158459926
 20
-921.0148520972525
 30
0.0
 10
976.9496593185513
 20
-924.9209642826536
 30
0.0
 10
975.3484777066697
 20
-928.2720742069778
 30
0.0
 10
975.5610382226787
 20
-928.4616563413729
 30
0.0
 10
975.7735651109942
 20
-928.6512984938454
 30
0.0
 10
977.4844401895771
 20
-928.2849931003493
 30
0.0
 10
979.3629492141081
 20
-927.6476160139573
 30
0.0
 10
986.6428358306512
 20
-925.1776766480889
 30
0.0
 10
984.978736844103
 20
-933.0400461311456
 30
0.0
 10
973.9798987034183
 20
-953.0816160610193
 30
0.0
 10
973.6855893163092
 20
-953.6178776742454
 30
0.0
 10
975.2370692286695
 20
-953.7053240279492
 30
0.0
 10
977.4275757958949
 20
-953.2759846379013
 30
0.0
 10
981.2668471311408
 20
-952.5234778548602
 30
0.0
 10
981.4095629719795
 20
-952.6320805844698
 30
0.0
 10
981.3888483258743
 20
-956.2899129457692
 30
0.0
 10
981.3770450129578
 20
-958.3769519169145
 30
0.0
 10
979.3752233144714
 20
-964.443850298665
 30
0.0
 10
976.9403108256738
 20
-969.7724361751079
 30
0.0
 10
974.5054319645697
 20
-975.1005419068533
 30
0.0
 10
972.5036775214503
 20
-979.5880943209595
 30
0.0
 10
972.4917733254697
 20
-979.7444414393067
 30
0.0
 10
972.4799700125495
 20
-979.9011486661784
 30
0.0
 10
973.952693916608
 20
-980.0293773104495
 30
0.0
 10
975.7645528948306
 20
-980.0293773104495
 30
0.0
 10
978.8067138882107
 20
-980.0293773104495
 30
0.0
 10
978.9928094261822
 20
-980.3129327655915
 30
0.0
 10
978.1964725207799
 20
-983.7334235992494
 30
0.0
 10
977.7221542043771
 20
-985.7705875395386
 30
0.0
 10
975.3776665261548
 20
-991.1156183720159
 30
0.0
 10
972.9864027558942
 20
-995.611153191765
 30
0.0
 10
970.595239868665
 20
-1000.106778038671
 30
0.0
 10
968.6388155276609
 20
-1004.033431414586
 30
0.0
 10
968.6388155276609
 20
-1004.337182956204
 30
0.0
 10
968.6388155276609
 20
-1004.640874479752
 30
0.0
 10
969.788209363498
 20
-1004.621158537946
 30
0.0
 10
971.1930389973913
 20
-1004.29333974319
 30
0.0
 10
975.2174306681036
 20
-1003.354176707538
 30
0.0
 10
974.468912312579
 20
-1008.952003725195
 30
0.0
 10
969.2773713950792
 20
-1018.61956723975
 30
0.0
 10
966.8188859080856
 20
-1023.197476884816
 30
0.0
 10
964.8073458123354
 20
-1027.167523338125
 30
0.0
 10
964.8073458123354
 20
-1027.441866016787
 30
0.0
 10
964.8073458123354
 20
-1027.716148677378
 30
0.0
 10
966.2441217348305
 20
-1027.61876933018
 30
0.0
 10
968.0001251495132
 20
-1027.225440792696
 30
0.0
 10
970.6496830699516
 20
-1026.632011950995
 30
0.0
 10
971.1929044867156
 20
-1026.919228509474
 30
0.0
 10
971.1929044867156
 20
-1028.913239444764
 30
0.0
 10
971.1929044867156
 20
-1030.234837734964
 30
0.0
 10
971.7676014046328
 20
-1031.316213629319
 30
0.0
 10
972.470016221554
 20
-1031.316213629319
 30
0.0
 10
973.1724310385243
 20
-1031.316213629319
 30
0.0
 10
973.7471279564443
 20
-1028.751880816089
 30
0.0
 10
973.7471279564443
 20
-1025.617676260546
 30
0.0
 10
973.7471279564443
 20
-1021.415869961786
 30
0.0
 10
974.2304921166506
 20
-1019.919138891797
 30
0.0
 10
975.5874359453292
 20
-1019.919138891797
 30
0.0
 10
976.5996288786091
 20
-1019.919138891797
 30
0.0
 10
977.7829866633874
 20
-1020.431993450809
 30
0.0
 10
978.2170526561786
 20
-1021.0588223583
 30
0.0
 10
980.1654399835261
 20
-1023.872140208183
 30
0.0
 10
982.5476915376239
 20
-1022.087082245089
 30
0.0
 10
982.3998979183079
 20
-1017.924647811829
 30
0.0
 10
982.2203261487393
 20
-1012.868724107613
 30
0.0
 10
983.9771702552507
 20
-995.7828649405619
 30
0.0
 10
984.8010818518715
 20
-994.5733504290529
 30
0.0
 10
985.1164757894403
 20
-994.1101908466044
 30
0.0
 10
986.6939498923939
 20
-994.5027391489184
 30
0.0
 10
988.3065985405092
 20
-995.4456833241111
 30
0.0
 10
988.3065985405092
 20
-995.4456833241111
 30
0.0
 10
991.2386625351082
 20
-997.1601300070633
 30
0.0
 10
991.2386625351082
 20
-997.1601300070633
 30
0.0
 10
991.2386625351082
 20
-997.1601300070633
 30
0.0
 10
992.0002956828002
 20
-986.0041779366948
 30
0.0
 10
992.0002956828002
 20
-986.0041779366948
 30
0.0
 10
992.8573641642024
 20
-973.4499244601102
 30
0.0
 10
993.7207210202996
 20
-970.4940036339685
 30
0.0
 10
996.2617288148595
 20
-971.4163916141188
 30
0.0
 10
997.2247244637019
 20
-971.7658469294947
 30
0.0
 10
998.7485288018661
 20
-972.3198438876207
 30
0.0
 10
999.6480017779022
 20
-972.6475426462239
 30
0.0
 10
1000.862734180853
 20
-973.090086015558
 30
0.0
 10
1001.702618921761
 20
-970.0931428264958
 30
0.0
 10
1002.913517770063
 20
-960.995991217038
 30
0.0
 10
1003.810065138614
 20
-954.2598311398233
 30
0.0
 10
1004.835372864032
 20
-948.4879516679339
 30
0.0
 10
1005.191927072405
 20
-948.1693456496123
 30
0.0
 10
1005.548514908416
 20
-947.8511297488549
 30
0.0
 10
1007.45063055884
 20
-948.415479827092
 30
0.0
 10
1009.418757329782
 20
-949.4234836092928
 30
0.0
 10
1009.418757329782
 20
-949.4234836092928
 30
0.0
 10
1012.997212439448
 20
-951.2562259430215
 30
0.0
 10
1012.997212439448
 20
-951.2562259430215
 30
0.0
 10
1012.997212439448
 20
-951.2562259430215
 30
0.0
 10
1013.853204835319
 20
-941.993994583454
 30
0.0
 10
1013.853204835319
 20
-941.993994583454
 30
0.0
 10
1014.323992246138
 20
-936.8998093483624
 30
0.0
 10
1015.296370015534
 20
-930.7701920650106
 30
0.0
 10
1016.014152678672
 20
-928.3738048655559
 30
0.0
 10
1016.014152678672
 20
-928.3738048655559
 30
0.0
 10
1017.319040870769
 20
-924.0154563896467
 30
0.0
 10
1017.319040870769
 20
-924.0154563896467
 30
0.0
 10
1017.319040870769
 20
-924.0154563896467
 30
0.0
 10
1021.545972011158
 20
-926.8924984440964
 30
0.0
 10
1021.545972011158
 20
-926.8924984440964
 30
0.0
 10
1021.545972011158
 20
-926.8924984440964
 30
0.0
 10
1025.77290315157
 20
-929.7695404985425
 30
0.0
 10
1025.77290315157
 20
-929.7695404985425
 30
0.0
 10
1025.77290315157
 20
-929.7695404985425
 30
0.0
 10
1026.588172436437
 20
-923.5792449285582
 30
0.0
 10
1026.588172436437
 20
-923.5792449285582
 30
0.0
 10
1027.658070455178
 20
-915.4556017054183
 30
0.0
 10
1029.741842790827
 20
-906.9244806806382
 30
0.0
 10
1031.150539607039
 20
-904.8997854980553
 30
0.0
 10
1032.109230913818
 20
-903.5219352551903
 30
0.0
 10
1032.769913789565
 20
-903.5683442414775
 30
0.0
 10
1035.579135897604
 20
-905.2109792825559
 30
0.0
 10
1035.579135897604
 20
-905.2109792825559
 30
0.0
 10
1038.880902520408
 20
-907.1416561308324
 30
0.0
 10
1038.880902520408
 20
-907.1416561308324
 30
0.0
 10
1038.880902520408
 20
-907.1416561308324
 30
0.0
 10
1038.887527171813
 20
-902.8415251999504
 30
0.0
 10
1038.887527171813
 20
-902.8415251999504
 30
0.0
 10
1038.891932396862
 20
-900.4764074241812
 30
0.0
 10
1039.497499517895
 20
-896.4899610284319
 30
0.0
 10
1040.23428181581
 20
-893.982555371349
 30
0.0
 10
1042.598307171596
 20
-885.9376858882551
 30
0.0
 10
1042.503107231591
 20
-886.0527405622943
 30
0.0
 10
1045.07397639906
 20
-888.1289462686073
 30
0.0
 10
1048.642612228457
 20
-891.0109998333664
 30
0.0
 10
1050.374605485196
 20
-890.3790093703428
 30
0.0
 10
1050.374605485196
 20
-886.1947283531645
 30
0.0
 10
1050.374605485196
 20
-881.2703793016135
 30
0.0
 10
1053.029442950155
 20
-869.4790007327083
 30
0.0
 10
1054.138180930329
 20
-869.4790007327083
 30
0.0
 10
1054.609371873205
 20
-869.4790007327083
 30
0.0
 10
1056.110477532613
 20
-870.2319876604524
 30
0.0
 10
1057.474012385032
 20
-871.1523500301464
 30
0.0
 10
1061.15207265975
 20
-873.6349832215492
 30
0.0
 10
1061.434713244615
 20
-873.3881588360546
 30
0.0
 10
1061.674377664396
 20
-867.4845996798704
 30
0.0
 10
1061.920700363258
 20
-861.4163358866153
 30
0.0
 10
1065.236523353034
 20
-850.1041267250403
 30
0.0
 10
1066.76883549225
 20
-850.1041267250403
 30
0.0
 10
1067.317370081202
 20
-850.1041267250403
 30
0.0
 10
1068.881763019685
 20
-850.8571136527826
 30
0.0
 10
1070.245264244459
 20
-851.7774760224765
 30
0.0
 10
1073.81083995564
 20
-854.1840963058694
 30
0.0
 10
1074.639123149642
 20
-853.9229125929123
 30
0.0
 10
1074.647193790974
 20
-850.389107609748
 30
0.0
 10
1074.657113954272
 20
-846.199109869729
 30
0.0
 10
1076.81157165687
 20
-839.7857870860125
 30
0.0
 10
1079.115672500813
 20
-837.0894895025504
 30
0.0
 10
1080.878939492692
 20
-835.0261576760295
 30
0.0
 10
1081.12115961555
 20
-835.0117983485652
 30
0.0
 10
1083.381174581204
 20
-836.8369934077773
 30
0.0
 10
1085.683493158482
 20
-838.6963837724234
 30
0.0
 10
1085.806906715468
 20
-838.5782831804427
 30
0.0
 10
1086.538274958191
 20
-833.816583146443
 30
0.0
 10
1086.956872221754
 20
-831.091161785942
 30
0.0
 10
1087.908064557629
 20
-827.4325641940259
 30
0.0
 10
1088.651975922065
 20
-825.6865479969601
 30
0.0
 10
1089.965002010855
 20
-822.6044841550756
 30
0.0
 10
1090.097125134958
 20
-822.5660275654127
 30
0.0
 10
1093.177957951377
 20
-824.3673954438254
 30
0.0
 10
1096.258891650805
 20
-826.1688683538969
 30
0.0
 10
1096.351367749339
 20
-826.141830205399
 30
0.0
 10
1096.351367749339
 20
-823.4419165321542
 30
0.0
 10
1096.351367749339
 20
-821.9123405636919
 30
0.0
 10
1097.520938188523
 20
-818.2259095836289
 30
0.0
 10
1098.950551416825
 20
-815.2498376845488
 30
0.0
 10
1100.928598351074
 20
-811.1319216678075
 30
0.0
 10
1101.905213207145
 20
-810.1560575715412
 30
0.0
 10
1103.037322419477
 20
-811.1664320682094
 30
0.0
 10
1105.236202277076
 20
-813.1286784305757
 30
0.0
 10
1106.568396139013
 20
-812.7842196210013
 30
0.0
 10
1106.568396139013
 20
-810.2533018780705
 30
0.0
 10
1106.568396139013
 20
-809.020890466124
 30
0.0
 10
1107.538958014102
 20
-806.1962592067257
 30
0.0
 10
1108.725174151003
 20
-803.9764752302108
 30
0.0
 10
1110.341891747446
 20
-800.9510459563007
 30
0.0
 10
1111.461222444328
 20
-800.1043933004985
 30
0.0
 10
1113.195199733742
 20
-800.5954687959711
 30
0.0
 10
1114.670882872955
 20
-801.0134422606761
 30
0.0
 10
1115.508346421491
 20
-800.6768908341464
 30
0.0
 10
1115.508346421491
 20
-799.6659686724406
 30
0.0
 10
1115.508346421491
 20
-798.7943860034884
 30
0.0
 10
1117.997668483851
 20
-794.5287279616941
 30
0.0
 10
1121.040165753977
 20
-790.186606876242
 30
0.0
 10
1129.834407332793
 20
-777.6362845843923
 30
0.0
 10
1137.219548563346
 20
-766.2757983735519
 30
0.0
 10
1137.219548563346
 20
-765.2993491009493
 30
0.0
 10
1137.219548563346
 20
-763.5415393496532
 30
0.0
 10
1146.709109520261
 20
-750.7115552760952
 30
0.0
 10
1147.145361311739
 20
-751.8797548365119
 30
0.0
 10
1147.676947553904
 20
-753.3029337400822
 30
0.0
 10
1144.910365334203
 20
-761.74360000449
 30
0.0
 10
1141.156575541674
 20
-770.1521115784481
 30
0.0
 10
1136.899883911377
 20
-779.6863449112761
 30
0.0
 10
1129.40467930974
 20
-806.1756579981356
 30
0.0
 10
1130.841455232205
 20
-806.6063627996864
 30
0.0
 10
1132.8869256492
 20
-807.2184572666474
 30
0.0
 10
1132.308193410641
 20
-811.6676881317953
 30
0.0
 10
1129.556743643427
 20
-816.4839746165253
 30
0.0
 10
1126.501467857881
 20
-821.8317512764925
 30
0.0
 10
1126.528807155364
 20
-821.6126702520223
 30
0.0
 10
1128.918187775982
 20
-821.6126702520223
 30
0.0
 10
1132.206167053164
 20
-821.6126702520223
 30
0.0
 10
1131.251611950056
 20
-824.6406577969246
 30
0.0
 10
1123.388352476151
 20
-839.1544118083857
 30
0.0
 10
1123.085703426334
 20
-839.7130001502082
 30
0.0
 10
1124.349801252043
 20
-839.831460850718
 30
0.0
 10
1126.197440073483
 20
-839.4176361363243
 30
0.0
 10
1129.249521230195
 20
-838.7340451224372
 30
0.0
 10
1129.556743643427
 20
-838.9690159356142
 30
0.0
 10
1129.556743643427
 20
-841.9864102880392
 30
0.0
 10
1129.556743643427
 20
-843.8130607858802
 30
0.0
 10
1127.36018409522
 20
-849.2079366401449
 30
0.0
 10
1124.675485257321
 20
-853.9752483653483
 30
0.0
 10
1124.675485257321
 20
-853.9752483653483
 30
0.0
 10
1119.794226871243
 20
-862.6426704671849
 30
0.0
 10
1119.794226871243
 20
-862.6426704671849
 30
0.0
 10
1119.794226871243
 20
-862.6426704671849
 30
0.0
 10
1123.398373522459
 20
-862.6426704671849
 30
0.0
 10
1123.398373522459
 20
-862.6426704671849
 30
0.0
 10
1126.350614120376
 20
-862.6426704671849
 30
0.0
 10
1127.00252017367
 20
-863.1370694642537
 30
0.0
 10
1127.00252017367
 20
-865.376149255957
 30
0.0
 10
1127.00252017367
 20
-868.391052857738
 30
0.0
 10
1120.875222021828
 20
-879.4231125906572
 30
0.0
 10
1116.081025679063
 20
-885.039920328556
 30
0.0
 10
1112.822571498084
 20
-888.8576258708508
 30
0.0
 10
1113.59466285183
 20
-889.9951486862119
 30
0.0
 10
1119.444263686639
 20
-889.9951486862119
 30
0.0
 10
1124.760563267984
 20
-889.9951486862119
 30
0.0
 10
1121.878402738948
 20
-895.8384346778785
 30
0.0
 10
1112.136163453089
 20
-904.8110787645
 30
0.0
 10
1112.136163453089
 20
-904.8110787645
 30
0.0
 10
1105.330326131574
 20
-911.0794578665245
 30
0.0
 10
1105.330326131574
 20
-911.0794578665245
 30
0.0
 10
1105.330326131574
 20
-911.0794578665245
 30
0.0
 10
1109.757812708982
 20
-912.2363515196776
 30
0.0
 10
1109.757812708982
 20
-912.2363515196776
 30
0.0
 10
1109.757812708982
 20
-912.2363515196776
 30
0.0
 10
1114.185299286391
 20
-913.3932451728251
 30
0.0
 10
1114.185299286391
 20
-913.3932451728251
 30
0.0
 10
1114.185299286391
 20
-913.3932451728251
 30
0.0
 10
1111.534194493028
 20
-917.3650321506593
 30
0.0
 10
1111.534194493028
 20
-917.3650321506593
 30
0.0
 10
1110.076132254035
 20
-919.5495104870952
 30
0.0
 10
1105.97274918131
 20
-923.9993115240795
 30
0.0
 10
1102.415647643484
 20
-927.2534622277908
 30
0.0
 10
1102.415647643484
 20
-927.2534622277908
 30
0.0
 10
1095.948205587332
 20
-933.1699852909223
 30
0.0
 10
1095.948205587332
 20
-933.1699852909223
 30
0.0
 10
1095.948205587332
 20
-933.1699852909223
 30
0.0
 10
1099.381658174465
 20
-933.9390270571203
 30
0.0
 10
1099.381658174465
 20
-933.9390270571203
 30
0.0
 10
1104.233357836672
 20
-935.0257145522355
 30
0.0
 10
1102.892252641605
 20
-938.1389427861268
 30
0.0
 10
1094.335792332928
 20
-945.6515568633695
 30
0.0
 10
1090.527492083775
 20
-948.9954045990853
 30
0.0
 10
1087.411585605259
 20
-951.944423345145
 30
0.0
 10
1087.411585605259
 20
-952.2048118184503
 30
0.0
 10
1087.411585605259
 20
-952.4652603098311
 30
0.0
 10
1088.59978577481
 20
-952.6783545300641
 30
0.0
 10
1090.051862288154
 20
-952.6783545300641
 30
0.0
 10
1095.061813775766
 20
-952.6783545300641
 30
0.0
 10
1090.782457094412
 20
-959.9245483161849
 30
0.0
 10
1082.1883001652
 20
-965.9936973762269
 30
0.0
 10
1082.1883001652
 20
-965.9936973762269
 30
0.0
 10
1076.968310237013
 20
-969.6799182929899
 30
0.0
 10
1076.968310237013
 20
-969.6799182929899
 30
0.0
 10
1076.968310237013
 20
-969.6799182929899
 30
0.0
 10
1080.274280318827
 20
-970.4203614404032
 30
0.0
 10
1080.274280318827
 20
-970.4203614404032
 30
0.0
 10
1082.092528554769
 20
-970.8276141742062
 30
0.0
 10
1083.580250400637
 20
-971.6517825539086
 30
0.0
 10
1083.580250400637
 20
-972.2519334214412
 30
0.0
 10
1083.580250400637
 20
-973.6257474479098
 30
0.0
 10
1080.952516839458
 20
-978.1333759123299
 30
0.0
 10
1079.709570819547
 20
-978.8916144227514
 30
0.0
 10
1079.19584087134
 20
-979.2050288764967
 30
0.0
 10
1076.047382806104
 20
-981.712224470275
 30
0.0
 10
1072.713098224309
 20
-984.4631835270666
 30
0.0
 10
1067.583264085315
 20
-988.6953589781951
 30
0.0
 10
1066.971812121672
 20
-989.6253092373918
 30
0.0
 10
1068.738273742412
 20
-990.5074550897734
 30
0.0
 10
1071.837500895515
 20
-992.0552315433197
 30
0.0
 10
1069.560167678688
 20
-995.1500942423845
 30
0.0
 10
1058.304044217995
 20
-1004.688138723774
 30
0.0
 10
1049.640916933109
 20
-1012.02874096179
 30
0.0
 10
1048.9744837254
 20
-1012.89438184008
 30
0.0
 10
1051.447294600748
 20
-1013.594792923033
 30
0.0
 10
1054.013758543169
 20
-1014.321701991686
 30
0.0
 10
1054.068840670243
 20
-1014.573147769916
 30
0.0
 10
1052.322858301866
 20
-1017.586265833594
 30
0.0
 10
1051.297954108502
 20
-1019.354908849722
 30
0.0
 10
1046.704884873183
 20
-1023.74361147347
 30
0.0
 10
1042.115850958531
 20
-1027.338995014543
 30
0.0
 10
1033.60811714687
 20
-1034.004543811647
 30
0.0
 10
1032.217377507615
 20
-1035.877018119418
 30
0.0
 10
1035.774008258028
 20
-1035.877018119418
 30
0.0
 10
1039.701215956087
 20
-1035.877018119418
 30
0.0
 10
1036.200810673598
 20
-1040.933241914061
 30
0.0
 10
1026.005774781575
 20
-1049.986910419007
 30
0.0
 10
1020.443421522694
 20
-1054.926609096499
 30
0.0
 10
1015.892319622282
 20
-1059.157704222036
 30
0.0
 10
1015.892319622282
 20
-1059.389464067546
 30
0.0
 10
1015.892319622282
 20
-1059.621193903975
 30
0.0
 10
1016.754364999186
 20
-1059.810761033847
 30
0.0
 10
1017.807987224594
 20
-1059.810761033847
 30
0.0
 10
1019.987564798343
 20
-1059.810761033847
 30
0.0
 10
1020.373341453836
 20
-1061.597379467215
 30
0.0
 10
1018.42572756293
 20
-1062.671493172975
 30
0.0
 10
1017.711845709779
 20
-1063.065211828005
 30
0.0
 10
1017.424631761496
 20
-1063.816008095544
 30
0.0
 10
1017.787507972225
 20
-1064.340026018861
 30
0.0
 10
1018.150384182931
 20
-1064.863953915059
 30
0.0
 10
1013.884747591861
 20
-1068.728548588333
 30
0.0
 10
1008.308304338336
 20
-1072.928104208842
 30
0.0
 10
1002.731861084809
 20
-1077.127539793146
 30
0.0
 10
997.6153435039978
 20
-1081.920314192028
 30
0.0
 10
996.938788366997
 20
-1083.578613953985
 30
0.0
 10
996.2617288148595
 20
-1085.236913715948
 30
0.0
 10
991.3654388593013
 20
-1091.209613709139
 30
0.0
 10
986.0581851217594
 20
-1096.850713767988
 30
0.0
 10
973.3465214975076
 20
-1110.362735887418
 30
0.0
 10
951.0989243563636
 20
-1139.543260024808
 30
0.0
 10
957.8172961024902
 20
-1133.891026610683
 30
0.0
 10
970.9730131381702
 20
-1122.823571210571
 30
0.0
 10
983.3166218902052
 20
-1110.682332204206
 30
0.0
 10
989.1611785741497
 20
-1103.060485207428
 30
0.0
 10
997.9430787972933
 20
-1091.607563639329
 30
0.0
 10
999.0066548136701
 20
-1090.668490630829
 30
0.0
 10
1000.711409655934
 20
-1092.862301779889
 30
0.0
 10
1001.681029956189
 20
-1094.110347903674
 30
0.0
 10
1002.210665793369
 20
-1094.197374130776
 30
0.0
 10
1002.673348935195
 20
-1093.184688937752
 30
0.0
 10
1004.889614299305
 20
-1088.333877048099
 30
0.0
 10
1011.05262503903
 20
-1079.330473691532
 30
0.0
 10
1016.532086085914
 20
-1072.937797129993
 30
0.0
 10
1021.843173378107
 20
-1066.742099932115
 30
0.0
 10
1023.156333977546
 20
-1065.778029390096
 30
0.0
 10
1024.335589186325
 20
-1067.208500491288
 30
0.0
 10
1026.264909623556
 20
-1069.54863573808
 30
0.0
 10
1026.982725914364
 20
-1069.37587367275
 30
0.0
 10
1027.844065110141
 20
-1066.364076007007
 30
0.0
 10
1028.247395410523
 20
-1064.953680956118
 30
0.0
 10
1030.910572538211
 20
-1061.038340989729
 30
0.0
 10
1033.762199140903
 20
-1057.663223830332
 30
0.0
 10
1036.613825743598
 20
-1054.288106670958
 30
0.0
 10
1039.506578989396
 20
-1050.698064739672
 30
0.0
 10
1040.190532214294
 20
-1049.685319528546
 30
0.0
 10
1041.316891094661
 20
-1048.017566917788
 30
0.0
 10
1041.606929767426
 20
-1048.042744505554
 30
0.0
 10
1043.265076655996
 20
-1049.951559765395
 30
0.0
 10
1044.975010159797
 20
-1051.920002995312
 30
0.0
 10
1045.306040964937
 20
-1051.694034895298
 30
0.0
 10
1048.276776782572
 20
-1046.532509365825
 30
0.0
 10
1050.026290056529
 20
-1043.492833298384
 30
0.0
 10
1053.209048347391
 20
-1039.210782816383
 30
0.0
 10
1055.349617821388
 20
-1037.016761603998
 30
0.0
 10
1059.309444361475
 20
-1032.958248489515
 30
0.0
 10
1059.834607718241
 20
-1033.000231141847
 30
0.0
 10
1062.487898310301
 20
-1037.586603337262
 30
0.0
 10
1062.881274819705
 20
-1038.266578261366
 30
0.0
 10
1063.451297491198
 20
-1038.142160765663
 30
0.0
 10
1063.901000351561
 20
-1037.278140375758
 30
0.0
 10
1064.565550409599
 20
-1036.001375597043
 30
0.0
 10
1077.92172199927
 20
-1019.015626600209
 30
0.0
 10
1079.291410715705
 20
-1017.704831565779
 30
0.0
 10
1079.582626356983
 20
-1017.426227602878
 30
0.0
 10
1081.04586725749
 20
-1018.291418345489
 30
0.0
 10
1082.542937596232
 20
-1019.627450985779
 30
0.0
 10
1082.542937596232
 20
-1019.627450985779
 30
0.0
 10
1085.264996777922
 20
-1022.056593056561
 30
0.0
 10
1085.264996777922
 20
-1022.056593056561
 30
0.0
 10
1085.264996777922
 20
-1022.056593056561
 30
0.0
 10
1087.935269344462
 20
-1017.653005947068
 30
0.0
 10
1087.935269344462
 20
-1017.653005947068
 30
0.0
 10
1090.876917225623
 20
-1012.801803939863
 30
0.0
 10
1099.367601807488
 20
-1003.964950776555
 30
0.0
 10
1101.087690868248
 20
-1003.964950776555
 30
0.0
 10
1101.687507657318
 20
-1003.964950776555
 30
0.0
 10
1102.867939834614
 20
-1005.595432154898
 30
0.0
 10
1103.710783810673
 20
-1007.588242728403
 30
0.0
 10
1103.710783810673
 20
-1007.588242728403
 30
0.0
 10
1105.243331343596
 20
-1011.211534680253
 30
0.0
 10
1105.243331343596
 20
-1011.211534680253
 30
0.0
 10
1105.243331343596
 20
-1011.211534680253
 30
0.0
 10
1108.780020884366
 20
-1006.539906791317
 30
0.0
 10
1108.780020884366
 20
-1006.539906791317
 30
0.0
 10
1113.100302442785
 20
-1000.833206962619
 30
0.0
 10
1121.586447288899
 20
-992.5676659757319
 30
0.0
 10
1123.124711526087
 20
-992.5676659757319
 30
0.0
 10
1123.744335014067
 20
-992.5676659757319
 30
0.0
 10
1124.915216932444
 20
-994.3626569323242
 30
0.0
 10
1125.726551779657
 20
-996.5566781447142
 30
0.0
 10
1127.35648505127
 20
-1000.963806321359
 30
0.0
 10
1128.989209419671
 20
-1001.660796373337
 30
0.0
 10
1130.135173232964
 20
-998.4385752922335
 30
0.0
 10
1130.943918749408
 20
-996.1646099870977
 30
0.0
 10
1149.029654295875
 20
-981.1711914190873
 30
0.0
 10
1150.96351446886
 20
-981.1711914190873
 30
0.0
 10
1151.608257827964
 20
-981.1711914190873
 30
0.0
 10
1152.855071030192
 20
-982.5799059635174
 30
0.0
 10
1153.734165636864
 20
-984.3016448441467
 30
0.0
 10
1155.328520831299
 20
-987.4244159539758
 30
0.0
 10
1155.337768441144
 20
-987.4263065237428
 30
0.0
 10
1157.462801930576
 20
-985.0844307524058
 30
0.0
 10
1160.358279017846
 20
-981.8934190768978
 30
0.0
 10
1175.644342715144
 20
-972.0532435422465
 30
0.0
 10
1177.704911956984
 20
-972.0532435422465
 30
0.0
 10
1178.618037767939
 20
-972.0532435422465
 30
0.0
 10
1179.365042878231
 20
-972.9934869034787
 30
0.0
 10
1179.365042878231
 20
-974.1427432549863
 30
0.0
 10
1179.365042878231
 20
-977.5761679865245
 30
0.0
 10
1180.733420115474
 20
-977.7740176124771
 30
0.0
 10
1184.044535231127
 20
-974.8191771119164
 30
0.0
 10
1187.180584685295
 20
-972.0205937025603
 30
0.0
 10
1198.552320083021
 20
-966.354826209661
 30
0.0
 10
1201.033840525457
 20
-966.354826209661
 30
0.0
 10
1201.759592946917
 20
-966.354826209661
 30
0.0
 10
1202.353390382646
 20
-967.2036020053038
 30
0.0
 10
1202.353390382646
 20
-968.2410746685418
 30
0.0
 10
1202.353390382646
 20
-969.9403667843708
 30
0.0
 10
1202.574794976423
 20
-969.9549211706362
 30
0.0
 10
1204.588419987853
 20
-968.3875188024267
 30
0.0
 10
1207.969278895649
 20
-965.7557256586679
 30
0.0
 10
1212.839440149908
 20
-963.7111494845485
 30
0.0
 10
1216.402022998294
 20
-963.4279541379474
 30
0.0
 10
1218.158060040674
 20
-963.2883220570056
 30
0.0
 10
1227.64039104806
 20
-959.9978904193031
 30
0.0
 10
1237.475005549442
 20
-956.1157704644265
 30
0.0
 10
1260.350700351977
 20
-947.0985629477254
 30
0.0
 10
1261.122051896928
 20
-946.8330729369827
 30
0.0
 10
1261.122051896928
 20
-948.0524004058188
 30
0.0
 10
1261.122051896928
 20
-948.6064873910673
 30
0.0
 10
1257.242763631757
 20
-951.7767027991831
 30
0.0
 10
1252.501329106697
 20
-955.0972335078513
 30
0.0
 10
1240.123588267379
 20
-963.765825962404
 30
0.0
 10
1225.970575357216
 20
-975.8082751965012
 30
0.0
 10
1226.181084585185
 20
-977.4927128356449
 30
0.0
 10
1226.400807795359
 20
-979.2471915830683
 30
0.0
 10
1217.404598417317
 20
-986.3230840454671
 30
0.0
 10
1211.451827884181
 20
-989.0774041151817
 30
0.0
 10
1207.147015054987
 20
-991.0695544897262
 30
0.0
 10
1207.137195774691
 20
-991.0921512997229
 30
0.0
 10
1209.856060327545
 20
-992.7915634517449
 30
0.0
 10
1212.46724907399
 20
-994.4236953274885
 30
0.0
 10
1212.488434507457
 20
-994.5847838747541
 30
0.0
 10
1210.321265544775
 20
-996.3349113108306
 30
0.0
 10
1209.072602820575
 20
-997.3433352196462
 30
0.0
 10
1204.729857977112
 20
-999.525262787376
 30
0.0
 10
1200.670728921017
 20
-1001.183652576457
 30
0.0
 10
1193.955013760969
 20
-1003.927349444635
 30
0.0
 10
1193.498148206449
 20
-1004.336612784376
 30
0.0
 10
1195.596851228567
 20
-1005.728942390893
 30
0.0
 10
1199.008244062708
 20
-1007.992194467388
 30
0.0
 10
1196.606891990803
 20
-1010.61552506077
 30
0.0
 10
1187.1978693088
 20
-1014.904267559537
 30
0.0
 10
1177.47523495584
 20
-1019.33597314307
 30
0.0
 10
1176.912173212495
 20
-1019.811406424438
 30
0.0
 10
1179.723177587171
 20
-1021.215229494734
 30
0.0
 10
1184.414574136021
 20
-1023.558125573561
 30
0.0
 10
1177.263380620983
 20
-1028.737836583581
 30
0.0
 10
1163.565854530792
 20
-1032.917916334607
 30
0.0
 10
1161.330623159545
 20
-1033.600051909863
 30
0.0
 10
1161.306949278316
 20
-1033.800842422143
 30
0.0
 10
1163.236303343188
 20
-1035.703415800865
 30
0.0
 10
1164.927270839855
 20
-1037.370958348323
 30
0.0
 10
1165.0194106617
 20
-1038.102158710237
 30
0.0
 10
1163.729419528381
 20
-1039.619836092832
 30
0.0
 10
1161.818695193873
 20
-1041.867753547935
 30
0.0
 10
1144.624462865142
 20
-1049.550548912721
 30
0.0
 10
1141.425630546979
 20
-1049.58691987384
 30
0.0
 10
1139.517764564593
 20
-1049.608166276872
 30
0.0
 10
1139.637983492719
 20
-1049.943577359749
 30
0.0
 10
1142.17858775525
 20
-1051.687132815205
 30
0.0
 10
1148.31203977111
 20
-1055.896501393039
 30
0.0
 10
1141.439216126535
 20
-1061.375072470533
 30
0.0
 10
1126.064240863896
 20
-1064.532444007893
 30
0.0
 10
1119.072509770445
 20
-1065.968106673692
 30
0.0
 10
1117.9490092422
 20
-1066.97956149594
 30
0.0
 10
1121.420124822194
 20
-1068.713093930772
 30
0.0
 10
1125.677354495248
 20
-1070.83917466793
 30
0.0
 10
1121.210624424375
 20
-1074.173569554845
 30
0.0
 10
1108.871555408092
 20
-1078.080837088435
 30
0.0
 10
1091.686133529482
 20
-1083.522527051067
 30
0.0
 10
1091.828277699868
 20
-1083.441982777427
 30
0.0
 10
1094.588571544875
 20
-1086.163262889897
 30
0.0
 10
1096.757119242142
 20
-1088.301617325989
 30
0.0
 10
1096.741583257577
 20
-1088.487973488147
 30
0.0
 10
1094.205115198747
 20
-1090.751495646038
 30
0.0
 10
1092.449649826816
 20
-1092.318057761015
 30
0.0
 10
1087.587155681831
 20
-1093.838285912312
 30
0.0
 10
1079.734825201373
 20
-1095.275539057448
 30
0.0
 10
1069.10424369897
 20
-1097.221355468333
 30
0.0
 10
1064.654058442835
 20
-1099.215756521175
 30
0.0
 10
1064.483263495722
 20
-1102.110008762236
 30
0.0
 10
1064.460901093709
 20
-1102.490463419912
 30
0.0
 10
1059.413925539018
 20
-1104.486154861626
 30
0.0
 10
1053.26799765676
 20
-1106.544955322537
 30
0.0
 10
1047.121767125449
 20
-1108.603755783417
 30
0.0
 10
1040.867087351295
 20
-1111.456925643504
 30
0.0
 10
1039.368470139651
 20
-1112.885416147808
 30
0.0
 10
1035.604558417799
 20
-1116.473417464118
 30
0.0
 10
1030.493892051956
 20
-1118.640400528011
 30
0.0
 10
1001.863796354623
 20
-1128.787928689562
 30
0.0
 10
988.1670437008634
 20
-1133.642851818233
 30
0.0
 10
973.7992172206668
 20
-1139.099186194253
 30
0.0
 10
969.9359020998063
 20
-1140.913442956997
 30
0.0
 10
963.5188006689386
 20
-1143.926470993549
 30
0.0
 10
963.2980013732295
 20
-1144.152259039311
 30
0.0
 10
967.3816786300504
 20
-1143.525100032321
 30
0.0
 10
969.840164117044
 20
-1143.147556251934
 30
0.0
 10
977.7171773088794
 20
-1141.367749871506
 30
0.0
 10
984.8866306499513
 20
-1139.570028091934
 30
0.0
 10
1003.968417847022
 20
-1134.785026035373
 30
0.0
 10
1006.973353007286
 20
-1134.387466222728
 30
0.0
 10
1006.973353007286
 20
-1136.648527639045
 30
0.0
 10
1006.973353007286
 20
-1138.313519417768
 30
0.0
 10
1007.278322366463
 20
-1138.334555757501
 30
0.0
 10
1009.846904852238
 20
-1136.846887418764
 30
0.0
 10
1012.14162357561
 20
-1135.517816876634
 30
0.0
 10
1021.73761611505
 20
-1133.556065663486
 30
0.0
 10
1031.877435369348
 20
-1132.343100111939
 30
0.0
 10
1032.57985018627
 20
-1132.259134807293
 30
0.0
 10
1032.967375480735
 20
-1133.383063525802
 30
0.0
 10
1032.738640054426
 20
-1134.840872865943
 30
0.0
 10
1032.355654495712
 20
-1137.281418373395
 30
0.0
 10
1032.556277188072
 20
-1137.379938064283
 30
0.0
 10
1035.270164845431
 20
-1136.083817452267
 30
0.0
 10
1037.887877360274
 20
-1134.833610677348
 30
0.0
 10
1054.634054584607
 20
-1130.550569896925
 30
0.0
 10
1057.10124963869
 20
-1130.500334757569
 30
0.0
 10
1057.628060751395
 20
-1130.489621528917
 30
0.0
 10
1058.059100253669
 20
-1131.561364520194
 30
0.0
 10
1058.059100253669
 20
-1132.882182575273
 30
0.0
 10
1058.059100253669
 20
-1134.699770341871
 30
0.0
 10
1058.601749999983
 20
-1135.097750281115
 30
0.0
 10
1060.291237879084
 20
-1134.519145907077
 30
0.0
 10
1064.89368923495
 20
-1132.943040916154
 30
0.0
 10
1074.832078732754
 20
-1131.434816382363
 30
0.0
 10
1076.607249920587
 20
-1132.042919646501
 30
0.0
 10
1077.654886420374
 20
-1132.401677765491
 30
0.0
 10
1078.1208314464
 20
-1133.439360492026
 30
0.0
 10
1077.687101730324
 20
-1134.447874427962
 30
0.0
 10
1077.062703112882
 20
-1135.899982049788
 30
0.0
 10
1077.472153649611
 20
-1136.036853298694
 30
0.0
 10
1079.943585790401
 20
-1135.202481844086
 30
0.0
 10
1081.604153871371
 20
-1134.641852887269
 30
0.0
 10
1086.059517789046
 20
-1133.805170736312
 30
0.0
 10
1089.844245040002
 20
-1133.343091479424
 30
0.0
 10
1089.844245040002
 20
-1133.343091479424
 30
0.0
 10
1096.725576485625
 20
-1132.503018306506
 30
0.0
 10
1096.725576485625
 20
-1132.503018306506
 30
0.0
 10
1096.725576485625
 20
-1132.503018306506
 30
0.0
 10
1096.089139161531
 20
-1135.474063690721
 30
0.0
 10
1096.089139161531
 20
-1135.474063690721
 30
0.0
 10
1096.089139161531
 20
-1135.474063690721
 30
0.0
 10
1095.452701837436
 20
-1138.44501904784
 30
0.0
 10
1095.452701837436
 20
-1138.44501904784
 30
0.0
 10
1095.452701837436
 20
-1138.44501904784
 30
0.0
 10
1104.213988297483
 20
-1137.718380060565
 30
0.0
 10
1104.213988297483
 20
-1137.718380060565
 30
0.0
 10
1112.572751521286
 20
-1137.025111130051
 30
0.0
 10
1112.975274757531
 20
-1137.103974897236
 30
0.0
 10
1112.975274757531
 20
-1139.434807340429
 30
0.0
 10
1112.975274757531
 20
-1141.67750322189
 30
0.0
 10
1113.644499062026
 20
-1141.877903616592
 30
0.0
 10
1121.134693140524
 20
-1141.877903616592
 30
0.0
 10
1128.121817242911
 20
-1141.877903616592
 30
0.0
 10
1129.268689003342
 20
-1142.164489985165
 30
0.0
 10
1129.116725552662
 20
-1143.872394696553
 30
0.0
 10
1129.019205303292
 20
-1144.969405302745
 30
0.0
 10
1129.662099140445
 20
-1145.737396752404
 30
0.0
 10
1130.545464461491
 20
-1145.579069037165
 30
0.0
 10
1131.428829782541
 20
-1145.420771330975
 30
0.0
 10
1134.58969645881
 20
-1145.777158735487
 30
0.0
 10
1137.569713513991
 20
-1146.37106772189
 30
0.0
 10
1140.549730569115
 20
-1146.964976708317
 30
0.0
 10
1144.994737163739
 20
-1147.764747735382
 30
0.0
 10
1147.447674084815
 20
-1148.148353342636
 30
0.0
 10
1149.900644633581
 20
-1148.531958949887
 30
0.0
 10
1152.371673242287
 20
-1149.585996605318
 30
0.0
 10
1152.938938444642
 20
-1150.490559213431
 30
0.0
 10
1153.506203647023
 20
-1151.395151830598
 30
0.0
 10
1154.990461842674
 20
-1152.135294887581
 30
0.0
 10
1156.237409555575
 20
-1152.135294887581
 30
0.0
 10
1162.29714971397
 20
-1152.135294887581
 30
0.0
 10
1189.265029574377
 20
-1162.558666180012
 30
0.0
 10
1191.479815320923
 20
-1165.756459899423
 30
0.0
 10
1191.80997180659
 20
-1166.233153560648
 30
0.0
 10
1180.668384197428
 20
-1166.56886473395
 30
0.0
 10
1166.720970875103
 20
-1166.50245471995
 30
0.0
 10
1144.247496659766
 20
-1166.395472478722
 30
0.0
 10
1141.079500917
 20
-1166.608656726075
 30
0.0
 10
1138.881159102155
 20
-1168.376189407545
 30
0.0
 10
1137.23710220823
 20
-1169.698087788203
 30
0.0
 10
1134.308770885247
 20
-1170.370680487538
 30
0.0
 10
1130.197754330944
 20
-1170.370680487538
 30
0.0
 10
1125.620523729207
 20
-1170.370680487538
 30
0.0
 10
1123.233799694697
 20
-1171.008822804532
 30
0.0
 10
1121.090439123918
 20
-1172.805704330904
 30
0.0
 10
1118.552625958198
 20
-1174.933345538344
 30
0.0
 10
1116.64267506018
 20
-1175.24712010061
 30
0.0
 10
1105.961181262071
 20
-1175.291863584953
 30
0.0
 10
1095.588456750123
 20
-1175.335226653291
 30
0.0
 10
1093.786148030798
 20
-1175.613890634269
 30
0.0
 10
1094.064955061036
 20
-1177.130697754585
 30
0.0
 10
1094.97717292485
 20
-1182.095964137419
 30
0.0
 10
1090.757471733965
 20
-1182.824703757724
 30
0.0
 10
1077.849220738019
 20
-1179.931051697533
 30
0.0
 10
1070.250543788978
 20
-1178.227708360777
 30
0.0
 10
1069.501689156739
 20
-1178.232029663093
 30
0.0
 10
1067.531040310359
 20
-1179.990649658565
 30
0.0
 10
1065.13503503834
 20
-1182.128734013255
 30
0.0
 10
1060.438358944968
 20
-1181.65291061431
 30
0.0
 10
1052.950552431175
 20
-1178.513274421848
 30
0.0
 10
1050.165374108754
 20
-1177.345472481276
 30
0.0
 10
1045.111101349172
 20
-1176.628106288545
 30
0.0
 10
1039.540273916911
 20
-1176.610220898423
 30
0.0
 10
1029.82043066076
 20
-1176.578951474767
 30
0.0
 10
1006.662532433111
 20
-1170.908922697647
 30
0.0
 10
974.4062639592639
 20
-1160.663445017031
 30
0.0
 10
961.9182916104892
 20
-1156.696669549508
 30
0.0
 10
956.5916683337573
 20
-1155.52748719293
 30
0.0
 10
952.9156929747205
 20
-1155.945603200598
 30
0.0
 10
943.9191473199371
 20
-1156.968671522767
 30
0.0
 10
942.8002537827788
 20
-1153.43159555385
 30
0.0
 10
941.8745512224123
 20
-1176.25050249006
 30
0.0
 10
940.982644472605
 20
-1198.224144688735
 30
0.0
 10
937.8720847939603
 20
-1222.578404334363
 30
0.0
 10
932.834457732125
 20
-1247.030073336218
 30
0.0
 10
926.5819973843545
 20
-1251.792148483266
 30
0.0
 10
928.4422465828629
 20
-1241.267496667928
 30
0.0
 10
929.3534219888379
 20
-1236.268470110805
 30
0.0
 10
929.3534219888379
 20
-1236.268470110805
 30
0.0
 10
929.3151536978794
 20
-1236.233839674213
 30
0.0
 10
929.3151536978794
 20
-1236.233839674213
 30
0.0
  0
SPLINE
  5
4C
330
47
100
AcDbEntity
  8
katman 1
370
     0
100
AcDbSpline
210
0.0
220
0.0
230
1.0
 70
    11
 71
     3
 72
    23
 73
    19
 74
     0
 42
0.0000000001
 43
0.0000000001
 12
1.0
 22
0.0
 32
0.0
 13
1.0
 23
0.0
 33
0.0
 40
0.0
 40
0.0
 40
0.0
 40
0.0
 40
1.0
 40
1.0
 40
1.0
 40
2.0
 40
2.0
 40
2.0
 40
3.0
 40
3.0
 40
3.0
 40
4.0
 40
4.0
 40
4.0
 40
5.0
 40
5.0
 40
5.0
 40
6.0
 40
6.0
 40
6.0
 40
6.0
 10
944.0973067272553
 20
-1148.492707120558
 30
0.0
 10
941.7513394314665
 20
-1147.13374757081
 30
0.0
 10
931.2192533809384
 20
-1147.671389600011
 30
0.0
 10
932.7861683948558
 20
-1149.07008112382
 30
0.0
 10
933.4647075645335
 20
-1149.675603610202
 30
0.0
 10
935.770691558092
 20
-1150.126579520855
 30
0.0
 10
937.9106221062957
 20
-1150.072293160567
 30
0.0
 10
940.0505526545303
 20
-1150.01800680027
 30
0.0
 10
941.8013774077017
 20
-1150.514926557051
 30
0.0
 10
941.8013774077017
 20
-1151.176565955378
 30
0.0
 10
941.8013774077017
 20
-1151.90854655244
 30
0.0
 10
942.5751501450559
 20
-1151.806515803426
 30
0.0
 10
943.7775411922939
 20
-1150.916027436844
 30
0.0
 10
945.3580081580985
 20
-1149.745464664238
 30
0.0
 10
945.4219343629502
 20
-1149.260278443617
 30
0.0
 10
944.0968359398503
 20
-1148.492707120558
 30
0.0
 10
944.0968359398503
 20
-1148.492707120558
 30
0.0
 10
944.0973067272553
 20
-1148.492707120558
 30
0.0
 10
944.0973067272553
 20
-1148.492707120558
 30
0.0
  0
SPLINE
  5
4D
330
47
100
AcDbEntity
  8
katman 1
370
     0
100
AcDbSpline
210
0.0
220
0.0
230
1.0
 70
    11
 71
     3
 72
    20
 73
    16
 74
     0
 42
0.0000000001
 43
0.0000000001
 12
1.0
 22
0.0
 32
0.0
 13
1.0
 23
0.0
 33
0.0
 40
0.0
 40
0.0
 40
0.0
 40
0.0
 40
1.0
 40
1.0
 40
1.0
 40
2.0
 40
2.0
 40
2.0
 40
3.0
 40
3.0
 40
3.0
 40
4.0
 40
4.0
 40
4.0
 40
5.0
 40
5.0
 40
5.0
 40
5.0
 10
960.1565714915359
 20
-1081.388854025814
 30
0.0
 10
961.2232412537433
 20
-1079.480788992076
 30
0.0
 10
962.4527362047693
 20
-1075.506031118908
 30
0.0
 10
962.8887526025692
 20
-1072.55614211057
 30
0.0
 10
962.8887526025692
 20
-1072.55614211057
 30
0.0
 10
963.6815586023677
 20
-1067.19283577042
 30
0.0
 10
963.6815586023677
 20
-1067.19283577042
 30
0.0
 10
963.6815586023677
 20
-1067.19283577042
 30
0.0
 10
960.0199086317098
 20
-1073.461214872434
 30
0.0
 10
960.0199086317098
 20
-1073.461214872434
 30
0.0
 10
957.9839212182405
 20
-1076.946555249797
 30
0.0
 10
956.5950647286327
 20
-1080.868107088274
 30
0.0
 10
956.8915935421273
 20
-1082.293926787677
 30
0.0
 10
957.5811962159542
 20
-1085.6098361036
 30
0.0
 10
957.8365647586452
 20
-1085.53913479634
 30
0.0
 10
960.1565714915359
 20
-1081.388854025814
 30
0.0
  0
SPLINE
  5
4E
330
47
100
AcDbEntity
  8
katman 1
370
     0
100
AcDbSpline
210
0.0
220
0.0
230
1.0
 70
    11
 71
     3
 72
    26
 73
    22
 74
     0
 42
0.0000000001
 43
0.0000000001
 12
1.0
 22
0.0
 32
0.0
 13
1.0
 23
0.0
 33
0.0
 40
0.0
 40
0.0
 40
0.0
 40
0.0
 40
1.0
 40
1.0
 40
1.0
 40
2.0
 40
2.0
 40
2.0
 40
3.0
 40
3.0
 40
3.0
 40
4.0
 40
4.0
 40
4.0
 40
5.0
 40
5.0
 40
5.0
 40
6.0
 40
6.0
 40
6.0
 40
7.0
 40
7.0
 40
7.0
 40
7.0
 10
969.878835940086
 20
-1048.378245615555
 30
0.0
 10
972.0773795209425
 20
-1049.428262059097
 30
0.0
 10
972.2823401830128
 20
-1048.888759469164
 30
0.0
 10
972.671311467373
 20
-1041.023088991275
 30
0.0
 10
972.9022326923696
 20
-1036.354492015771
 30
0.0
 10
972.6109161680843
 20
-1032.965930804734
 30
0.0
 10
972.0238442667942
 20
-1033.492709560112
 30
0.0
 10
969.6591463575814
 20
-1035.615039166783
 30
0.0
 10
962.6451537451258
 20
-1051.594945032564
 30
0.0
 10
964.3319514104251
 20
-1051.016760785125
 30
0.0
 10
965.3785454523486
 20
-1050.658362774691
 30
0.0
 10
966.1481147306895
 20
-1051.262354799819
 30
0.0
 10
966.2714274046702
 20
-1052.539059560455
 30
0.0
 10
966.3838447128182
 20
-1053.703140379601
 30
0.0
 10
966.7076455684546
 20
-1052.988024865179
 30
0.0
 10
966.9910259620883
 20
-1050.949990662604
 30
0.0
 10
967.4370297784999
 20
-1047.742263949689
 30
0.0
 10
967.82489134968
 20
-1047.396799837141
 30
0.0
 10
969.8789031954238
 20
-1048.377765470854
 30
0.0
 10
969.8789031954238
 20
-1048.377765470854
 30
0.0
 10
969.878835940086
 20
-1048.378245615555
 30
0.0
 10
969.878835940086
 20
-1048.378245615555
 30
0.0
  0
POLYLINE
  5
4F
330
47
100
AcDbEntity
  8
katman 1
370
     0
100
AcDb2dPolyline
 66
     1
 10
0.0
 20
0.0
 30
0.0
  0
VERTEX
  5
50
330
4F
100
AcDbEntity
  8
katman 1
370
     0
100
AcDbVertex
100
AcDb2dVertex
 10
928.962533927167
 20
-1144.223080382744
 30
0.0
  0
VERTEX
  5
51
330
4F
100
AcDbEntity
  8
katman 1
370
     0
100
AcDbVertex
100
AcDb2dVertex
 10
948.520354451919
 20
-1144.223080382744
 30
0.0
  0
VERTEX
  5
52
330
4F
100
AcDbEntity
  8
katman 1
370
     0
100
AcDbVertex
100
AcDb2dVertex
 10
948.520354451919
 20
-1154.076099788163
 30
0.0
  0
VERTEX
  5
53
330
4F
100
AcDbEntity
  8
katman 1
370
     0
100
AcDbVertex
100
AcDb2dVertex
 10
928.962533927167
 20
-1154.076099788163
 30
0.0
  0
VERTEX
  5
54
330
4F
100
AcDbEntity
  8
katman 1
370
     0
100
AcDbVertex
100
AcDb2dVertex
 10
928.962533927167
 20
-1144.223080382744
 30
0.0
  0
SEQEND
  5
55
330
4F
100
AcDbEntity
  8
katman 1
370
     0
  0
ENDBLK
  5
4A
330
47
100
AcDbEntity
  8
0
100
AcDbBlockEnd
  0
ENDSEC
  0
SECTION
  2
ENTITIES
  0
INSERT
  5
42
330
1F
100
AcDbEntity
  8
katman 1
100
AcDbBlockReference
  2
block 2
 10
0.0
 20
0.0
 30
0.0
  0
ENDSEC
  0
SECTION
  2
OBJECTS
  0
DICTIONARY
  5
C
330
0
100
AcDbDictionary
281
     1
  3
ACAD_GROUP
350
D
  3
ACAD_LAYOUT
350
1A
  3
ACAD_MATERIAL
350
3B
  3
ACAD_MLEADERSTYLE
350
57
  3
ACAD_MLINESTYLE
350
17
  3
ACAD_PLOTSETTINGS
350
19
  3
ACAD_PLOTSTYLENAME
350
E
  3
ACAD_TABLESTYLE
350
56
  3
ACAD_VISUALSTYLE
350
2A
  0
SUN
  5
3F
330
29
100
AcDbSun
 90
        1
290
     0
 63
     7
421
 16777215
 40
1.0
291
     1
 91
  2455826
 92
 54000000
292
     0
 70
     2
 71
   256
280
     1
  0
DICTIONARY
  5
D
102
{ACAD_REACTORS
330
C
102
}
330
C
100
AcDbDictionary
281
     1
  0
DICTIONARY
  5
1A
102
{ACAD_REACTORS
330
C
102
}
330
C
100
AcDbDictionary
281
     1
  3
Layout1
350
1E
  3
Layout2
350
26
  3
Model
350
22
  0
DICTIONARY
  5
3B
102
{ACAD_REACTORS
330
C
102
}
330
C
100
AcDbDictionary
281
     1
  3
ByBlock
350
3D
  3
ByLayer
350
3C
  3
Global
350
3E
  0
DICTIONARY
  5
57
102
{ACAD_REACTORS
330
C
102
}
330
C
100
AcDbDictionary
281
     1
  0
DICTIONARY
  5
17
102
{ACAD_REACTORS
330
C
102
}
330
C
100
AcDbDictionary
281
     1
  3
Standard
350
18
  0
DICTIONARY
  5
19
102
{ACAD_REACTORS
330
C
102
}
330
C
100
AcDbDictionary
281
     1
  0
ACDBDICTIONARYWDFLT
  5
E
102
{ACAD_REACTORS
330
C
102
}
330
C
100
AcDbDictionary
281
     1
  3
Normal
350
F
100
AcDbDictionaryWithDefault
340
F
  0
DICTIONARY
  5
56
102
{ACAD_REACTORS
330
C
102
}
330
C
100
AcDbDictionary
281
     1
  0
DICTIONARY
  5
2A
102
{ACAD_REACTORS
330
C
102
}
330
C
100
AcDbDictionary
281
     1
  3
2dWireframe
350
2F
  3
3D Hidden
350
31
  3
3dWireframe
350
30
  3
Basic
350
32
  3
Brighten
350
36
  3
ColorChange
350
3A
  3
Conceptual
350
34
  3
Dim
350
35
  3
Facepattern
350
39
  3
Flat
350
2B
  3
FlatWithEdges
350
2C
  3
Gouraud
350
2D
  3
GouraudWithEdges
350
2E
  3
Linepattern
350
38
  3
Realistic
350
33
  3
Thicken
350
37
  0
LAYOUT
  5
1E
102
{ACAD_REACTORS
330
1A
102
}
330
1A
100
AcDbPlotSettings
  1

  2
none_device
  4

  6

 40
0.0
 41
0.0
 42
0.0
 43
0.0
 44
0.0
 45
0.0
 46
0.0
 47
0.0
 48
0.0
 49
0.0
140
0.0
141
0.0
142
1.0
143
1.0
 70
   688
 72
     0
 73
     0
 74
     5
  7

 75
    16
 76
     0
 77
     2
 78
   300
147
1.0
148
0.0
149
0.0
100
AcDbLayout
  1
Layout1
 70
     1
 71
     1
 10
0.0
 20
0.0
 11
12.0
 21
9.0
 12
0.0
 22
0.0
 32
0.0
 14
1.000000000000000E+20
 24
1.000000000000000E+20
 34
1.000000000000000E+20
 15
-1.000000000000000E+20
 25
-1.000000000000000E+20
 35
-1.000000000000000E+20
146
0.0
 13
0.0
 23
0.0
 33
0.0
 16
1.0
 26
0.0
 36
0.0
 17
0.0
 27
1.0
 37
0.0
 76
     0
330
1B
  0
LAYOUT
  5
26
102
{ACAD_REACTORS
330
1A
102
}
330
1A
100
AcDbPlotSettings
  1

  2
none_device
  4

  6

 40
0.0
 41
0.0
 42
0.0
 43
0.0
 44
0.0
 45
0.0
 46
0.0
 47
0.0
 48
0.0
 49
0.0
140
0.0
141
0.0
142
1.0
143
1.0
 70
   688
 72
     0
 73
     0
 74
     5
  7

 75
    16
 76
     0
 77
     2
 78
   300
147
1.0
148
0.0
149
0.0
100
AcDbLayout
  1
Layout2
 70
     1
 71
     2
 10
0.0
 20
0.0
 11
0.0
 21
0.0
 12
0.0
 22
0.0
 32
0.0
 14
0.0
 24
0.0
 34
0.0
 15
0.0
 25
0.0
 35
0.0
146
0.0
 13
0.0
 23
0.0
 33
0.0
 16
1.0
 26
0.0
 36
0.0
 17
0.0
 27
1.0
 37
0.0
 76
     0
330
23
  0
LAYOUT
  5
22
102
{ACAD_REACTORS
330
1A
102
}
330
1A
100
AcDbPlotSettings
  1

  2
none_device
  4

  6

 40
0.0
 41
0.0
 42
0.0
 43
0.0
 44
0.0
 45
0.0
 46
0.0
 47
0.0
 48
0.0
 49
0.0
140
0.0
141
0.0
142
1.0
143
1.0
 70
  1712
 72
     0
 73
     0
 74
     0
  7

 75
     0
 76
     0
 77
     2
 78
   300
147
1.0
148
0.0
149
0.0
100
AcDbLayout
  1
Model
 70
     1
 71
     0
 10
0.0
 20
0.0
 11
12.0
 21
9.0
 12
0.0
 22
0.0
 32
0.0
 14
1.000000000000000E+20
 24
1.000000000000000E+20
 34
1.000000000000000E+20
 15
-1.000000000000000E+20
 25
-1.000000000000000E+20
 35
-1.000000000000000E+20
146
0.0
 13
0.0
 23
0.0
 33
0.0
 16
1.0
 26
0.0
 36
0.0
 17
0.0
 27
1.0
 37
0.0
 76
     0
330
1F
331
29
  0
MATERIAL
  5
3D
102
{ACAD_REACTORS
330
3B
102
}
330
3B
100
AcDbMaterial
  1
ByBlock
 72
     1
 94
      127
  0
MATERIAL
  5
3C
102
{ACAD_REACTORS
330
3B
102
}
330
3B
100
AcDbMaterial
  1
ByLayer
 72
     1
 94
      127
  0
MATERIAL
  5
3E
102
{ACAD_REACTORS
330
3B
102
}
330
3B
100
AcDbMaterial
  1
Global
 72
     1
 94
      127
  0
MLINESTYLE
  5
18
102
{ACAD_REACTORS
330
17
102
}
330
17
100
AcDbMlineStyle
  2
Standard
 70
     0
  3

 62
   256
 51
90.0
 52
90.0
 71
     2
 49
0.5
 62
   256
  6
BYLAYER
 49
-0.5
 62
   256
  6
BYLAYER
  0
ACDBPLACEHOLDER
  5
F
102
{ACAD_REACTORS
330
E
102
}
330
E
  0
VISUALSTYLE
  5
2F
102
{ACAD_REACTORS
330
2A
102
}
330
2A
100
AcDbVisualStyle
  2
2dWireframe
 70
     4
177
     2
291
     0
 71
     0
176
     1
 72
     2
176
     1
 73
     0
176
     1
 90
        0
176
     1
 40
-0.6
176
     1
 41
-30.0
176
     1
 62
     5
 63
     7
421
 16777215
176
     1
 74
     1
176
     1
 91
        4
176
     1
 64
     7
176
     1
 65
   257
176
     1
 75
     1
176
     1
175
     1
176
     1
 42
1.0
176
     1
 92
        0
176
     1
 66
   257
176
     1
 43
1.0
176
     1
 76
     1
176
     1
 77
     6
176
     1
 78
     2
176
     1
 67
     7
176
     1
 79
     5
176
     1
170
     0
176
     1
171
     0
176
     1
290
     0
176
     1
 93
        1
176
     1
 44
0.0
176
     1
173
     0
176
     1
  0
VISUALSTYLE
  5
31
102
{ACAD_REACTORS
330
2A
102
}
330
2A
100
AcDbVisualStyle
  2
3D Hidden
 70
     6
177
     2
291
     0
 71
     1
176
     1
 72
     2
176
     1
 73
     2
176
     1
 90
        0
176
     1
 40
-0.6
176
     1
 41
-30.0
176
     1
 62
     5
 63
     7
421
 16777215
176
     1
 74
     2
176
     1
 91
        2
176
     1
 64
     7
176
     1
 65
   257
176
     1
 75
     2
176
     1
175
     1
176
     1
 42
40.0
176
     1
 92
        0
176
     1
 66
   257
176
     1
 43
1.0
176
     1
 76
     1
176
     1
 77
     6
176
     1
 78
     2
176
     1
 67
     7
176
     1
 79
     3
176
     1
170
     0
176
     1
171
     0
176
     1
290
     0
176
     1
 93
        1
176
     1
 44
0.0
176
     1
173
     0
176
     1
  0
VISUALSTYLE
  5
30
102
{ACAD_REACTORS
330
2A
102
}
330
2A
100
AcDbVisualStyle
  2
3dWireframe
 70
     5
177
     2
291
     0
 71
     0
176
     1
 72
     2
176
     1
 73
     0
176
     1
 90
        0
176
     1
 40
-0.6
176
     1
 41
-30.0
176
     1
 62
     5
 63
     7
421
 16777215
176
     1
 74
     1
176
     1
 91
        4
176
     1
 64
     7
176
     1
 65
   257
176
     1
 75
     1
176
     1
175
     1
176
     1
 42
1.0
176
     1
 92
        0
176
     1
 66
   257
176
     1
 43
1.0
176
     1
 76
     1
176
     1
 77
     6
176
     1
 78
     2
176
     1
 67
     7
176
     1
 79
     5
176
     1
170
     0
176
     1
171
     0
176
     1
290
     0
176
     1
 93
        1
176
     1
 44
0.0
176
     1
173
     0
176
     1
  0
VISUALSTYLE
  5
32
102
{ACAD_REACTORS
330
2A
102
}
330
2A
100
AcDbVisualStyle
  2
Basic
 70
     7
177
     2
291
     1
 71
     1
176
     1
 72
     0
176
     1
 73
     1
176
     1
 90
        0
176
     1
 40
-0.6
176
     1
 41
-30.0
176
     1
 62
     5
 63
     7
421
 16777215
176
     1
 74
     0
176
     1
 91
        4
176
     1
 64
     7
176
     1
 65
   257
176
     1
 75
     1
176
     1
175
     1
176
     1
 42
1.0
176
     1
 92
        8
176
     1
 66
     7
176
     1
 43
1.0
176
     1
 76
     1
176
     1
 77
     6
176
     1
 78
     2
176
     1
 67
     7
176
     1
 79
     5
176
     1
170
     0
176
     1
171
     0
176
     1
290
     0
176
     1
 93
        1
176
     1
 44
0.0
176
     1
173
     0
176
     1
  0
VISUALSTYLE
  5
36
102
{ACAD_REACTORS
330
2A
102
}
330
2A
100
AcDbVisualStyle
  2
Brighten
 70
    12
177
     2
291
     1
 71
     2
176
     1
 72
     2
176
     1
 73
     0
176
     1
 90
        0
176
     1
 40
-0.6
176
     1
 41
-30.0
176
     1
 62
     5
 63
     7
421
 16777215
176
     1
 74
     1
176
     1
 91
        4
176
     1
 64
     7
176
     1
 65
   257
176
     1
 75
     1
176
     1
175
     1
176
     1
 42
1.0
176
     1
 92
        8
176
     1
 66
     7
176
     1
 43
1.0
176
     1
 76
     1
176
     1
 77
     6
176
     1
 78
     2
176
     1
 67
     7
176
     1
 79
     5
176
     1
170
     0
176
     1
171
     0
176
     1
290
     0
176
     1
 93
        1
176
     1
 44
50.0
176
     1
173
     0
176
     1
  0
VISUALSTYLE
  5
3A
102
{ACAD_REACTORS
330
2A
102
}
330
2A
100
AcDbVisualStyle
  2
ColorChange
 70
    16
177
     2
291
     1
 71
     2
176
     1
 72
     2
176
     1
 73
     3
176
     1
 90
        0
176
     1
 40
-0.6
176
     1
 41
-30.0
176
     1
 62
     5
 63
     8
421
  8421504
176
     1
 74
     1
176
     1
 91
        4
176
     1
 64
     7
176
     1
 65
   257
176
     1
 75
     1
176
     1
175
     1
176
     1
 42
1.0
176
     1
 92
        8
176
     1
 66
     8
424
  8421504
176
     1
 43
1.0
176
     1
 76
     1
176
     1
 77
     6
176
     1
 78
     2
176
     1
 67
     7
176
     1
 79
     5
176
     1
170
     0
176
     1
171
     0
176
     1
290
     0
176
     1
 93
        1
176
     1
 44
0.0
176
     1
173
     0
176
     1
  0
VISUALSTYLE
  5
34
102
{ACAD_REACTORS
330
2A
102
}
330
2A
100
AcDbVisualStyle
  2
Conceptual
 70
     9
177
     2
291
     0
 71
     3
176
     1
 72
     2
176
     1
 73
     0
176
     1
 90
        0
176
     1
 40
-0.6
176
     1
 41
-30.0
176
     1
 62
     5
 63
     7
421
 16777215
176
     1
 74
     2
176
     1
 91
        2
176
     1
 64
     7
176
     1
 65
   257
176
     1
 75
     1
176
     1
175
     1
176
     1
 42
40.0
176
     1
 92
        8
176
     1
 66
     7
176
     1
 43
1.0
176
     1
 76
     1
176
     1
 77
     6
176
     1
 78
     2
176
     1
 67
     7
176
     1
 79
     3
176
     1
170
     0
176
     1
171
     0
176
     1
290
     0
176
     1
 93
        1
176
     1
 44
0.0
176
     1
173
     0
176
     1
  0
VISUALSTYLE
  5
35
102
{ACAD_REACTORS
330
2A
102
}
330
2A
100
AcDbVisualStyle
  2
Dim
 70
    11
177
     2
291
     1
 71
     2
176
     1
 72
     2
176
     1
 73
     0
176
     1
 90
        0
176
     1
 40
-0.6
176
     1
 41
-30.0
176
     1
 62
     5
 63
     7
421
 16777215
176
     1
 74
     1
176
     1
 91
        4
176
     1
 64
     7
176
     1
 65
   257
176
     1
 75
     1
176
     1
175
     1
176
     1
 42
1.0
176
     1
 92
        8
176
     1
 66
     7
176
     1
 43
1.0
176
     1
 76
     1
176
     1
 77
     6
176
     1
 78
     2
176
     1
 67
     7
176
     1
 79
     5
176
     1
170
     0
176
     1
171
     0
176
     1
290
     0
176
     1
 93
        1
176
     1
 44
-50.0
176
     1
173
     0
176
     1
  0
VISUALSTYLE
  5
39
102
{ACAD_REACTORS
330
2A
102
}
330
2A
100
AcDbVisualStyle
  2
Facepattern
 70
    15
177
     2
291
     1
 71
     2
176
     1
 72
     2
176
     1
 73
     0
176
     1
 90
        0
176
     1
 40
-0.6
176
     1
 41
-30.0
176
     1
 62
     5
 63
     7
421
 16777215
176
     1
 74
     1
176
     1
 91
        4
176
     1
 64
     7
176
     1
 65
   257
176
     1
 75
     1
176
     1
175
     1
176
     1
 42
1.0
176
     1
 92
        8
176
     1
 66
     7
176
     1
 43
1.0
176
     1
 76
     1
176
     1
 77
     6
176
     1
 78
     2
176
     1
 67
     7
176
     1
 79
     5
176
     1
170
     0
176
     1
171
     0
176
     1
290
     0
176
     1
 93
        1
176
     1
 44
0.0
176
     1
173
     0
176
     1
  0
VISUALSTYLE
  5
2B
102
{ACAD_REACTORS
330
2A
102
}
330
2A
100
AcDbVisualStyle
  2
Flat
 70
     0
177
     2
291
     1
 71
     2
176
     1
 72
     1
176
     1
 73
     1
176
     1
 90
        2
176
     1
 40
-0.6
176
     1
 41
30.0
176
     1
 62
     5
 63
     7
421
 16777215
176
     1
 74
     0
176
     1
 91
        4
176
     1
 64
     7
176
     1
 65
   257
176
     1
 75
     1
176
     1
175
     1
176
     1
 42
1.0
176
     1
 92
        8
176
     1
 66
     7
176
     1
 43
1.0
176
     1
 76
     1
176
     1
 77
     6
176
     1
 78
     2
176
     1
 67
     7
176
     1
 79
     5
176
     1
170
     0
176
     1
171
     0
176
     1
290
     0
176
     1
 93
       13
176
     1
 44
0.0
176
     1
173
     0
176
     1
  0
VISUALSTYLE
  5
2C
102
{ACAD_REACTORS
330
2A
102
}
330
2A
100
AcDbVisualStyle
  2
FlatWithEdges
 70
     1
177
     2
291
     1
 71
     2
176
     1
 72
     1
176
     1
 73
     1
176
     1
 90
        2
176
     1
 40
-0.6
176
     1
 41
30.0
176
     1
 62
     5
 63
     7
421
 16777215
176
     1
 74
     1
176
     1
 91
        4
176
     1
 64
     7
176
     1
 65
   257
176
     1
 75
     1
176
     1
175
     1
176
     1
 42
1.0
176
     1
 92
        0
176
     1
 66
   257
176
     1
 43
1.0
176
     1
 76
     1
176
     1
 77
     6
176
     1
 78
     2
176
     1
 67
     7
176
     1
 79
     5
176
     1
170
     0
176
     1
171
     0
176
     1
290
     0
176
     1
 93
       13
176
     1
 44
0.0
176
     1
173
     0
176
     1
  0
VISUALSTYLE
  5
2D
102
{ACAD_REACTORS
330
2A
102
}
330
2A
100
AcDbVisualStyle
  2
Gouraud
 70
     2
177
     2
291
     1
 71
     2
176
     1
 72
     2
176
     1
 73
     1
176
     1
 90
        2
176
     1
 40
-0.6
176
     1
 41
30.0
176
     1
 62
     5
 63
     7
421
 16777215
176
     1
 74
     0
176
     1
 91
        4
176
     1
 64
     7
176
     1
 65
   257
176
     1
 75
     1
176
     1
175
     1
176
     1
 42
1.0
176
     1
 92
        0
176
     1
 66
     7
176
     1
 43
1.0
176
     1
 76
     1
176
     1
 77
     6
176
     1
 78
     2
176
     1
 67
     7
176
     1
 79
     5
176
     1
170
     0
176
     1
171
     0
176
     1
290
     0
176
     1
 93
       13
176
     1
 44
0.0
176
     1
173
     0
176
     1
  0
VISUALSTYLE
  5
2E
102
{ACAD_REACTORS
330
2A
102
}
330
2A
100
AcDbVisualStyle
  2
GouraudWithEdges
 70
     3
177
     2
291
     1
 71
     2
176
     1
 72
     2
176
     1
 73
     1
176
     1
 90
        2
176
     1
 40
-0.6
176
     1
 41
30.0
176
     1
 62
     5
 63
     7
421
 16777215
176
     1
 74
     1
176
     1
 91
        4
176
     1
 64
     7
176
     1
 65
   257
176
     1
 75
     1
176
     1
175
     1
176
     1
 42
1.0
176
     1
 92
        0
176
     1
 66
   257
176
     1
 43
1.0
176
     1
 76
     1
176
     1
 77
     6
176
     1
 78
     2
176
     1
 67
     7
176
     1
 79
     5
176
     1
170
     0
176
     1
171
     0
176
     1
290
     0
176
     1
 93
       13
176
     1
 44
0.0
176
     1
173
     0
176
     1
  0
VISUALSTYLE
  5
38
102
{ACAD_REACTORS
330
2A
102
}
330
2A
100
AcDbVisualStyle
  2
Linepattern
 70
    14
177
     2
291
     1
 71
     2
176
     1
 72
     2
176
     1
 73
     0
176
     1
 90
        0
176
     1
 40
-0.6
176
     1
 41
-30.0
176
     1
 62
     5
 63
     7
421
 16777215
176
     1
 74
     1
176
     1
 91
        4
176
     1
 64
     7
176
     1
 65
   257
176
     1
 75
     7
176
     1
175
     7
176
     1
 42
1.0
176
     1
 92
        8
176
     1
 66
     7
176
     1
 43
1.0
176
     1
 76
     1
176
     1
 77
     6
176
     1
 78
     2
176
     1
 67
     7
176
     1
 79
     5
176
     1
170
     0
176
     1
171
     0
176
     1
290
     0
176
     1
 93
        1
176
     1
 44
0.0
176
     1
173
     0
176
     1
  0
VISUALSTYLE
  5
33
102
{ACAD_REACTORS
330
2A
102
}
330
2A
100
AcDbVisualStyle
  2
Realistic
 70
     8
177
     2
291
     0
 71
     2
176
     1
 72
     2
176
     1
 73
     0
176
     1
 90
        0
176
     1
 40
-0.6
176
     1
 41
-30.0
176
     1
 62
     5
 63
     7
421
 16777215
176
     1
 74
     1
176
     1
 91
        0
176
     1
 64
     7
176
     1
 65
   257
176
     1
 75
     1
176
     1
175
     1
176
     1
 42
1.0
176
     1
 92
        8
176
     1
 66
     8
424
  7895160
176
     1
 43
1.0
176
     1
 76
     1
176
     1
 77
     6
176
     1
 78
     2
176
     1
 67
     7
176
     1
 79
     5
176
     1
170
     0
176
     1
171
     0
176
     1
290
     0
176
     1
 93
       13
176
     1
 44
0.0
176
     1
173
     0
176
     1
  0
VISUALSTYLE
  5
37
102
{ACAD_REACTORS
330
2A
102
}
330
2A
100
AcDbVisualStyle
  2
Thicken
 70
    13
177
     2
291
     1
 71
     2
176
     1
 72
     2
176
     1
 73
     0
176
     1
 90
        0
176
     1
 40
-0.6
176
     1
 41
-30.0
176
     1
 62
     5
 63
     7
421
 16777215
176
     1
 74
     1
176
     1
 91
        4
176
     1
 64
     7
176
     1
 65
   257
176
     1
 75
     1
176
     1
175
     1
176
     1
 42
1.0
176
     1
 92
       12
176
     1
 66
     7
176
     1
 43
1.0
176
     1
 76
     1
176
     1
 77
     6
176
     1
 78
     2
176
     1
 67
     7
176
     1
 79
     5
176
     1
170
     0
176
     1
171
     0
176
     1
290
     0
176
     1
 93
        1
176
     1
 44
0.0
176
     1
173
     0
176
     1
  0
ENDSEC
  0
EOF
