  0
SECTION
  2
HEADER
  9
$ACADVER
  1
AC1024
  9
$ACADMAINTVER
 70
     6
  9
$DWGCODEPAGE
  3
ANSI_1254
  9
$INSBASE
 10
0.0
 20
0.0
 30
0.0
  9
$EXTMIN
 10
1.000000000000000E+20
 20
1.000000000000000E+20
 30
1.000000000000000E+20
  9
$EXTMAX
 10
-1.000000000000000E+20
 20
-1.000000000000000E+20
 30
-1.000000000000000E+20
  9
$LIMMIN
 10
0.0
 20
0.0
  9
$LIMMAX
 10
12.0
 20
9.0
  9
$ORTHOMODE
 70
     0
  9
$REGENMODE
 70
     1
  9
$FILLMODE
 70
     1
  9
$QTEXTMODE
 70
     0
  9
$MIRRTEXT
 70
     1
  9
$LTSCALE
 40
1.0
  9
$ATTMODE
 70
     1
  9
$TEXTSIZE
 40
0.2
  9
$TRACEWID
 40
0.05
  9
$TEXTSTYLE
  7
Standard
  9
$CLAYER
  8
0
  9
$CELTYPE
  6
ByLayer
  9
$CECOLOR
 62
   256
  9
$CELTSCALE
 40
1.0
  9
$DISPSILH
 70
     0
  9
$DIMSCALE
 40
1.0
  9
$DIMASZ
 40
0.18
  9
$DIMEXO
 40
0.0625
  9
$DIMDLI
 40
0.38
  9
$DIMRND
 40
0.0
  9
$DIMDLE
 40
0.0
  9
$DIMEXE
 40
0.18
  9
$DIMTP
 40
0.0
  9
$DIMTM
 40
0.0
  9
$DIMTXT
 40
0.18
  9
$DIMCEN
 40
0.09
  9
$DIMTSZ
 40
0.0
  9
$DIMTOL
 70
     0
  9
$DIMLIM
 70
     0
  9
$DIMTIH
 70
     1
  9
$DIMTOH
 70
     1
  9
$DIMSE1
 70
     0
  9
$DIMSE2
 70
     0
  9
$DIMTAD
 70
     0
  9
$DIMZIN
 70
     0
  9
$DIMBLK
  1

  9
$DIMASO
 70
     1
  9
$DIMSHO
 70
     1
  9
$DIMPOST
  1

  9
$DIMAPOST
  1

  9
$DIMALT
 70
     0
  9
$DIMALTD
 70
     2
  9
$DIMALTF
 40
25.4
  9
$DIMLFAC
 40
1.0
  9
$DIMTOFL
 70
     0
  9
$DIMTVP
 40
0.0
  9
$DIMTIX
 70
     0
  9
$DIMSOXD
 70
     0
  9
$DIMSAH
 70
     0
  9
$DIMBLK1
  1

  9
$DIMBLK2
  1

  9
$DIMSTYLE
  2
Standard
  9
$DIMCLRD
 70
     0
  9
$DIMCLRE
 70
     0
  9
$DIMCLRT
 70
     0
  9
$DIMTFAC
 40
1.0
  9
$DIMGAP
 40
0.09
  9
$DIMJUST
 70
     0
  9
$DIMSD1
 70
     0
  9
$DIMSD2
 70
     0
  9
$DIMTOLJ
 70
     1
  9
$DIMTZIN
 70
     0
  9
$DIMALTZ
 70
     0
  9
$DIMALTTZ
 70
     0
  9
$DIMUPT
 70
     0
  9
$DIMDEC
 70
     4
  9
$DIMTDEC
 70
     4
  9
$DIMALTU
 70
     2
  9
$DIMALTTD
 70
     2
  9
$DIMTXSTY
  7
Standard
  9
$DIMAUNIT
 70
     0
  9
$DIMADEC
 70
     0
  9
$DIMALTRND
 40
0.0
  9
$DIMAZIN
 70
     0
  9
$DIMDSEP
 70
    46
  9
$DIMATFIT
 70
     3
  9
$DIMFRAC
 70
     0
  9
$DIMLDRBLK
  1

  9
$DIMLUNIT
 70
     2
  9
$DIMLWD
 70
    -2
  9
$DIMLWE
 70
    -2
  9
$DIMTMOVE
 70
     0
  9
$DIMFXL
 40
1.0
  9
$DIMFXLON
 70
     0
  9
$DIMJOGANG
 40
0.7853981633974483
  9
$DIMTFILL
 70
     0
  9
$DIMTFILLCLR
 70
     0
  9
$DIMARCSYM
 70
     0
  9
$DIMLTYPE
  6

  9
$DIMLTEX1
  6

  9
$DIMLTEX2
  6

  9
$DIMTXTDIRECTION
 70
     0
  9
$LUNITS
 70
     2
  9
$LUPREC
 70
     4
  9
$SKETCHINC
 40
0.1
  9
$FILLETRAD
 40
0.5
  9
$AUNITS
 70
     0
  9
$AUPREC
 70
     0
  9
$MENU
  1
.
  9
$ELEVATION
 40
0.0
  9
$PELEVATION
 40
0.0
  9
$THICKNESS
 40
0.0
  9
$LIMCHECK
 70
     0
  9
$CHAMFERA
 40
0.5
  9
$CHAMFERB
 40
0.5
  9
$CHAMFERC
 40
1.0
  9
$CHAMFERD
 40
0.0
  9
$SKPOLY
 70
     0
  9
$TDCREATE
 40
2459351.805891551
  9
$TDUCREATE
 40
2459351.680891551
  9
$TDUPDATE
 40
2459351.805891597
  9
$TDUUPDATE
 40
2459351.680891597
  9
$TDINDWG
 40
0.0000000116
  9
$TDUSRTIMER
 40
0.0000000116
  9
$USRTIMER
 70
     1
  9
$ANGBASE
 50
0.0
  9
$ANGDIR
 70
     0
  9
$PDMODE
 70
     0
  9
$PDSIZE
 40
0.0
  9
$PLINEWID
 40
0.0
  9
$SPLFRAME
 70
     0
  9
$SPLINETYPE
 70
     6
  9
$SPLINESEGS
 70
     8
  9
$HANDSEED
  5
135
  9
$SURFTAB1
 70
     6
  9
$SURFTAB2
 70
     6
  9
$SURFTYPE
 70
     6
  9
$SURFU
 70
     6
  9
$SURFV
 70
     6
  9
$UCSBASE
  2

  9
$UCSNAME
  2

  9
$UCSORG
 10
0.0
 20
0.0
 30
0.0
  9
$UCSXDIR
 10
1.0
 20
0.0
 30
0.0
  9
$UCSYDIR
 10
0.0
 20
1.0
 30
0.0
  9
$UCSORTHOREF
  2

  9
$UCSORTHOVIEW
 70
     0
  9
$UCSORGTOP
 10
0.0
 20
0.0
 30
0.0
  9
$UCSORGBOTTOM
 10
0.0
 20
0.0
 30
0.0
  9
$UCSORGLEFT
 10
0.0
 20
0.0
 30
0.0
  9
$UCSORGRIGHT
 10
0.0
 20
0.0
 30
0.0
  9
$UCSORGFRONT
 10
0.0
 20
0.0
 30
0.0
  9
$UCSORGBACK
 10
0.0
 20
0.0
 30
0.0
  9
$PUCSBASE
  2

  9
$PUCSNAME
  2

  9
$PUCSORG
 10
0.0
 20
0.0
 30
0.0
  9
$PUCSXDIR
 10
1.0
 20
0.0
 30
0.0
  9
$PUCSYDIR
 10
0.0
 20
1.0
 30
0.0
  9
$PUCSORTHOREF
  2

  9
$PUCSORTHOVIEW
 70
     0
  9
$PUCSORGTOP
 10
0.0
 20
0.0
 30
0.0
  9
$PUCSORGBOTTOM
 10
0.0
 20
0.0
 30
0.0
  9
$PUCSORGLEFT
 10
0.0
 20
0.0
 30
0.0
  9
$PUCSORGRIGHT
 10
0.0
 20
0.0
 30
0.0
  9
$PUCSORGFRONT
 10
0.0
 20
0.0
 30
0.0
  9
$PUCSORGBACK
 10
0.0
 20
0.0
 30
0.0
  9
$USERI1
 70
     0
  9
$USERI2
 70
     0
  9
$USERI3
 70
     0
  9
$USERI4
 70
     0
  9
$USERI5
 70
     0
  9
$USERR1
 40
0.0
  9
$USERR2
 40
0.0
  9
$USERR3
 40
0.0
  9
$USERR4
 40
0.0
  9
$USERR5
 40
0.0
  9
$WORLDVIEW
 70
     1
  9
$SHADEDGE
 70
     3
  9
$SHADEDIF
 70
    70
  9
$TILEMODE
 70
     1
  9
$MAXACTVP
 70
    64
  9
$PINSBASE
 10
0.0
 20
0.0
 30
0.0
  9
$PLIMCHECK
 70
     0
  9
$PEXTMIN
 10
1.000000000000000E+20
 20
1.000000000000000E+20
 30
1.000000000000000E+20
  9
$PEXTMAX
 10
-1.000000000000000E+20
 20
-1.000000000000000E+20
 30
-1.000000000000000E+20
  9
$PLIMMIN
 10
0.0
 20
0.0
  9
$PLIMMAX
 10
12.0
 20
9.0
  9
$UNITMODE
 70
     0
  9
$VISRETAIN
 70
     1
  9
$PLINEGEN
 70
     0
  9
$PSLTSCALE
 70
     1
  9
$TREEDEPTH
 70
  3020
  9
$CMLSTYLE
  2
Standard
  9
$CMLJUST
 70
     0
  9
$CMLSCALE
 40
1.0
  9
$PROXYGRAPHICS
 70
     1
  9
$MEASUREMENT
 70
     0
  9
$CELWEIGHT
370
    -1
  9
$ENDCAPS
280
     0
  9
$JOINSTYLE
280
     0
  9
$LWDISPLAY
290
     1
  9
$INSUNITS
 70
     0
  9
$HYPERLINKBASE
  1

  9
$STYLESHEET
  1

  9
$XEDIT
290
     1
  9
$CEPSNTYPE
380
     0
  9
$PSTYLEMODE
290
     1
  9
$FINGERPRINTGUID
  2
{BD04C176-6067-4AE9-AF03-9C9C0D6EB97F}
  9
$VERSIONGUID
  2
{FAEB1C32-E019-11D5-929B-00C0DF256EC4}
  9
$EXTNAMES
290
     1
  9
$PSVPSCALE
 40
0.0
  9
$OLESTARTUP
290
     0
  9
$SORTENTS
280
   127
  9
$INDEXCTL
280
     0
  9
$HIDETEXT
280
     1
  9
$XCLIPFRAME
280
     2
  9
$HALOGAP
280
     0
  9
$OBSCOLOR
 70
   257
  9
$OBSLTYPE
280
     0
  9
$INTERSECTIONDISPLAY
280
     0
  9
$INTERSECTIONCOLOR
 70
   257
  9
$DIMASSOC
280
     2
  9
$PROJECTNAME
  1

  9
$CAMERADISPLAY
290
     0
  9
$LENSLENGTH
 40
50.0
  9
$CAMERAHEIGHT
 40
0.0
  9
$STEPSPERSEC
 40
2.0
  9
$STEPSIZE
 40
6.0
  9
$3DDWFPREC
 40
2.0
  9
$PSOLWIDTH
 40
0.25
  9
$PSOLHEIGHT
 40
4.0
  9
$LOFTANG1
 40
1.570796326794897
  9
$LOFTANG2
 40
1.570796326794897
  9
$LOFTMAG1
 40
0.0
  9
$LOFTMAG2
 40
0.0
  9
$LOFTPARAM
 70
     7
  9
$LOFTNORMALS
280
     1
  9
$LATITUDE
 40
37.795
  9
$LONGITUDE
 40
-122.394
  9
$NORTHDIRECTION
 40
0.0
  9
$TIMEZONE
 70
 -8000
  9
$LIGHTGLYPHDISPLAY
280
     1
  9
$TILEMODELIGHTSYNCH
280
     1
  9
$CMATERIAL
347
3C
  9
$SOLIDHIST
280
     1
  9
$SHOWHIST
280
     1
  9
$DWFFRAME
280
     2
  9
$DGNFRAME
280
     2
  9
$REALWORLDSCALE
290
     1
  9
$INTERFERECOLOR
 62
   256
  9
$CSHADOW
280
     0
  9
$SHADOWPLANELOCATION
 40
0.0
  0
ENDSEC
  0
SECTION
  2
CLASSES
  0
CLASS
  1
ACDBDICTIONARYWDFLT
  2
AcDbDictionaryWithDefault
  3
ObjectDBX Classes
 90
        0
 91
        4
280
     0
281
     0
  0
CLASS
  1
VISUALSTYLE
  2
AcDbVisualStyle
  3
ObjectDBX Classes
 90
     4095
 91
        4
280
     0
281
     0
  0
CLASS
  1
MATERIAL
  2
AcDbMaterial
  3
ObjectDBX Classes
 90
     1153
 91
        4
280
     0
281
     0
  0
CLASS
  1
SUN
  2
AcDbSun
  3
SCENEOE
 90
     1024
 91
        4
280
     0
281
     0
  0
ENDSEC
  0
SECTION
  2
TABLES
  0
TABLE
  2
VPORT
  5
8
330
0
100
AcDbSymbolTable
 70
     1
  0
VPORT
  5
29
330
8
100
AcDbSymbolTableRecord
100
AcDbViewportTableRecord
  2
*Active
 70
     0
 10
0.0
 20
0.0
 11
1.0
 21
1.0
 12
0.0
 22
0.0
 13
0.0
 23
0.0
 14
0.5
 24
0.5
 15
0.5
 25
0.5
 16
0.0
 26
0.0
 36
1.0
 17
999.9031049124169
 27
-999.829268292684
 37
0.0
 40
597.9637716336729
 41
1.676861602254861
 42
50.0
 43
0.0
 44
0.0
 50
0.0
 51
0.0
 71
     0
 72
   100
 73
     1
 74
     3
 75
     0
 76
     0
 77
     0
 78
     0
281
     0
 65
     1
110
0.0
120
0.0
130
0.0
111
1.0
121
0.0
131
0.0
112
0.0
122
1.0
132
0.0
 79
     0
146
0.0
 60
     3
 61
     5
292
     1
282
     1
141
0.0
142
0.0
 63
   250
361
3F
  0
ENDTAB
  0
TABLE
  2
LTYPE
  5
5
330
0
100
AcDbSymbolTable
 70
     1
  0
LTYPE
  5
14
330
5
100
AcDbSymbolTableRecord
100
AcDbLinetypeTableRecord
  2
ByBlock
 70
     0
  3

 72
    65
 73
     0
 40
0.0
  0
LTYPE
  5
15
330
5
100
AcDbSymbolTableRecord
100
AcDbLinetypeTableRecord
  2
ByLayer
 70
     0
  3

 72
    65
 73
     0
 40
0.0
  0
LTYPE
  5
16
330
5
100
AcDbSymbolTableRecord
100
AcDbLinetypeTableRecord
  2
Continuous
 70
     0
  3
Solid line
 72
    65
 73
     0
 40
0.0
  0
ENDTAB
  0
TABLE
  2
LAYER
  5
2
330
0
100
AcDbSymbolTable
 70
     2
  0
LAYER
  5
10
330
2
100
AcDbSymbolTableRecord
100
AcDbLayerTableRecord
  2
0
 70
     0
 62
     7
  6
Continuous
370
    -3
390
F
347
3E
  0
LAYER
  5
40
330
2
100
AcDbSymbolTableRecord
100
AcDbLayerTableRecord
  2
katman 1
 70
     0
 62
     7
  6
Continuous
370
    -3
390
F
347
3E
  0
ENDTAB
  0
TABLE
  2
STYLE
  5
3
330
0
100
AcDbSymbolTable
 70
     1
  0
STYLE
  5
11
330
3
100
AcDbSymbolTableRecord
100
AcDbTextStyleTableRecord
  2
Standard
 70
     0
 40
0.0
 41
1.0
 50
0.0
 71
     0
 42
0.2
  3
txt
  4

  0
ENDTAB
  0
TABLE
  2
VIEW
  5
6
330
0
100
AcDbSymbolTable
 70
     0
  0
ENDTAB
  0
TABLE
  2
UCS
  5
7
330
0
100
AcDbSymbolTable
 70
     0
  0
ENDTAB
  0
TABLE
  2
APPID
  5
9
330
0
100
AcDbSymbolTable
 70
     1
  0
APPID
  5
12
330
9
100
AcDbSymbolTableRecord
100
AcDbRegAppTableRecord
  2
ACAD
 70
     0
  0
ENDTAB
  0
TABLE
  2
DIMSTYLE
  5
A
330
0
100
AcDbSymbolTable
 70
     1
100
AcDbDimStyleTable
  0
DIMSTYLE
105
27
330
A
100
AcDbSymbolTableRecord
100
AcDbDimStyleTableRecord
  2
Standard
 70
     0
178
     0
340
11
  0
ENDTAB
  0
TABLE
  2
BLOCK_RECORD
  5
1
330
0
100
AcDbSymbolTable
 70
     8
  0
BLOCK_RECORD
  5
1F
330
1
100
AcDbSymbolTableRecord
100
AcDbBlockTableRecord
  2
*Model_Space
340
22
 70
     0
280
     1
281
     0
  0
BLOCK_RECORD
  5
1B
330
1
100
AcDbSymbolTableRecord
100
AcDbBlockTableRecord
  2
*Paper_Space
340
1E
 70
     0
280
     1
281
     0
  0
BLOCK_RECORD
  5
23
330
1
100
AcDbSymbolTableRecord
100
AcDbBlockTableRecord
  2
*Paper_Space0
340
26
 70
     0
280
     1
281
     0
  0
BLOCK_RECORD
  5
41
330
1
100
AcDbSymbolTableRecord
100
AcDbBlockTableRecord
  2
block 2
340
0
102
{BLKREFS
331
42
102
}
 70
     0
280
     1
281
     0
  0
BLOCK_RECORD
  5
49
330
1
100
AcDbSymbolTableRecord
100
AcDbBlockTableRecord
  2
block 3
340
0
102
{BLKREFS
331
4A
102
}
 70
     0
280
     1
281
     0
  0
BLOCK_RECORD
  5
5F
330
1
100
AcDbSymbolTableRecord
100
AcDbBlockTableRecord
  2
block 4
340
0
102
{BLKREFS
331
60
102
}
 70
     0
280
     1
281
     0
  0
BLOCK_RECORD
  5
B9
330
1
100
AcDbSymbolTableRecord
100
AcDbBlockTableRecord
  2
block 5
340
0
102
{BLKREFS
331
BA
102
}
 70
     0
280
     1
281
     0
  0
BLOCK_RECORD
  5
BD
330
1
100
AcDbSymbolTableRecord
100
AcDbBlockTableRecord
  2
block 6
340
0
102
{BLKREFS
331
BE
102
}
 70
     0
280
     1
281
     0
  0
BLOCK_RECORD
  5
EB
330
1
100
AcDbSymbolTableRecord
100
AcDbBlockTableRecord
  2
block 7
340
0
102
{BLKREFS
331
EC
102
}
 70
     0
280
     1
281
     0
  0
BLOCK_RECORD
  5
118
330
1
100
AcDbSymbolTableRecord
100
AcDbBlockTableRecord
  2
block 8
340
0
102
{BLKREFS
331
119
102
}
 70
     0
280
     1
281
     0
  0
ENDTAB
  0
ENDSEC
  0
SECTION
  2
BLOCKS
  0
BLOCK
  5
20
330
1F
100
AcDbEntity
  8
0
100
AcDbBlockBegin
  2
*Model_Space
 70
     0
 10
0.0
 20
0.0
 30
0.0
  3
*Model_Space
  1

  0
ENDBLK
  5
21
330
1F
100
AcDbEntity
  8
0
100
AcDbBlockEnd
  0
BLOCK
  5
1C
330
1B
100
AcDbEntity
 67
     1
  8
0
100
AcDbBlockBegin
  2
*Paper_Space
 70
     0
 10
0.0
 20
0.0
 30
0.0
  3
*Paper_Space
  1

  0
ENDBLK
  5
1D
330
1B
100
AcDbEntity
 67
     1
  8
0
100
AcDbBlockEnd
  0
BLOCK
  5
24
330
23
100
AcDbEntity
  8
0
100
AcDbBlockBegin
  2
*Paper_Space0
 70
     0
 10
0.0
 20
0.0
 30
0.0
  3
*Paper_Space0
  1

  0
ENDBLK
  5
25
330
23
100
AcDbEntity
  8
0
100
AcDbBlockEnd
  0
BLOCK
  5
43
330
41
100
AcDbEntity
  8
0
100
AcDbBlockBegin
  2
block 2
 70
     0
 10
0.0
 20
0.0
 30
0.0
  3
block 2
  1

  0
SPLINE
  5
45
330
41
100
AcDbEntity
  8
katman 1
370
     0
100
AcDbSpline
210
0.0
220
0.0
230
1.0
 70
    11
 71
     3
 72
   128
 73
   124
 74
     0
 42
0.0000000001
 43
0.0000000001
 12
1.0
 22
0.0
 32
0.0
 13
1.0
 23
0.0
 33
0.0
 40
0.0
 40
0.0
 40
0.0
 40
0.0
 40
1.0
 40
1.0
 40
1.0
 40
2.0
 40
2.0
 40
2.0
 40
3.0
 40
3.0
 40
3.0
 40
4.0
 40
4.0
 40
4.0
 40
5.0
 40
5.0
 40
5.0
 40
6.0
 40
6.0
 40
6.0
 40
7.0
 40
7.0
 40
7.0
 40
8.0
 40
8.0
 40
8.0
 40
9.0
 40
9.0
 40
9.0
 40
10.0
 40
10.0
 40
10.0
 40
11.0
 40
11.0
 40
11.0
 40
12.0
 40
12.0
 40
12.0
 40
13.0
 40
13.0
 40
13.0
 40
14.0
 40
14.0
 40
14.0
 40
15.0
 40
15.0
 40
15.0
 40
16.0
 40
16.0
 40
16.0
 40
17.0
 40
17.0
 40
17.0
 40
18.0
 40
18.0
 40
18.0
 40
19.0
 40
19.0
 40
19.0
 40
20.0
 40
20.0
 40
20.0
 40
21.0
 40
21.0
 40
21.0
 40
22.0
 40
22.0
 40
22.0
 40
23.0
 40
23.0
 40
23.0
 40
24.0
 40
24.0
 40
24.0
 40
25.0
 40
25.0
 40
25.0
 40
26.0
 40
26.0
 40
26.0
 40
27.0
 40
27.0
 40
27.0
 40
28.0
 40
28.0
 40
28.0
 40
29.0
 40
29.0
 40
29.0
 40
30.0
 40
30.0
 40
30.0
 40
31.0
 40
31.0
 40
31.0
 40
32.0
 40
32.0
 40
32.0
 40
33.0
 40
33.0
 40
33.0
 40
34.0
 40
34.0
 40
34.0
 40
35.0
 40
35.0
 40
35.0
 40
36.0
 40
36.0
 40
36.0
 40
37.0
 40
37.0
 40
37.0
 40
38.0
 40
38.0
 40
38.0
 40
39.0
 40
39.0
 40
39.0
 40
40.0
 40
40.0
 40
40.0
 40
41.0
 40
41.0
 40
41.0
 40
41.0
 10
632.127332940142
 20
-976.8142052613866
 30
0.0
 10
632.127332940142
 20
-976.8142052613866
 30
0.0
 10
1367.685547949513
 20
-976.8142052613866
 30
0.0
 10
1367.685547949513
 20
-976.8142052613866
 30
0.0
 10
1373.737578394826
 20
-976.8142052613866
 30
0.0
 10
1378.693384606026
 20
-981.7732037503074
 30
0.0
 10
1378.693384606026
 20
-987.8380621092065
 30
0.0
 10
1378.693384606026
 20
-987.8380621092065
 30
0.0
 10
1378.693384606026
 20
-994.6656377394565
 30
0.0
 10
1378.693384606026
 20
-994.6656377394565
 30
0.0
 10
1378.693384606026
 20
-994.6656377394565
 30
0.0
 10
1392.62485207194
 20
-994.6656377394565
 30
0.0
 10
1392.62485207194
 20
-994.6656377394565
 30
0.0
 10
1398.682227417406
 20
-994.6656377394565
 30
0.0
 10
1403.64337915905
 20
-999.6241017383518
 30
0.0
 10
1403.64337915905
 20
-1005.684149686982
 30
0.0
 10
1403.64337915905
 20
-1005.684149686982
 30
0.0
 10
1403.64337915905
 20
-1015.428971895442
 30
0.0
 10
1403.64337915905
 20
-1015.428971895442
 30
0.0
 10
1403.64337915905
 20
-1015.428971895442
 30
0.0
 10
1417.814832011627
 20
-1015.428971895442
 30
0.0
 10
1417.814832011627
 20
-1015.428971895442
 30
0.0
 10
1418.232268713717
 20
-1015.428971895442
 30
0.0
 10
1418.66039521612
 20
-1015.449817006574
 30
0.0
 10
1419.072487018057
 20
-1015.507541929703
 30
0.0
 10
1422.556827428991
 20
-1015.126450539039
 30
0.0
 10
1426.16891095362
 20
-1016.253690010173
 30
0.0
 10
1428.822653880492
 20
-1018.895139733406
 30
0.0
 10
1428.822653880492
 20
-1018.895139733406
 30
0.0
 10
1497.782021188064
 20
-1087.856646743159
 30
0.0
 10
1497.782021188064
 20
-1087.856646743159
 30
0.0
 10
1502.411791615203
 20
-1092.497089174813
 30
0.0
 10
1502.411791615203
 20
-1100.070812885519
 30
0.0
 10
1497.782021188064
 20
-1104.710720827137
 30
0.0
 10
1497.782021188064
 20
-1104.710720827137
 30
0.0
 10
1428.822653880492
 20
-1173.672762326925
 30
0.0
 10
1428.822653880492
 20
-1173.672762326925
 30
0.0
 10
1426.16891095362
 20
-1176.324367360721
 30
0.0
 10
1422.556827428991
 20
-1177.456951732132
 30
0.0
 10
1419.072487018057
 20
-1177.070515441177
 30
0.0
 10
1418.66039521612
 20
-1177.117550563726
 30
0.0
 10
1418.232268713717
 20
-1177.138395674854
 30
0.0
 10
1417.814832011627
 20
-1177.138395674854
 30
0.0
 10
1417.814832011627
 20
-1177.138395674854
 30
0.0
 10
1403.64337915905
 20
-1177.138395674854
 30
0.0
 10
1403.64337915905
 20
-1177.138395674854
 30
0.0
 10
1403.64337915905
 20
-1177.138395674854
 30
0.0
 10
1403.64337915905
 20
-1186.893907683887
 30
0.0
 10
1403.64337915905
 20
-1186.893907683887
 30
0.0
 10
1403.64337915905
 20
-1192.943265831957
 30
0.0
 10
1398.682227417406
 20
-1197.902264320866
 30
0.0
 10
1392.62485207194
 20
-1197.902264320866
 30
0.0
 10
1392.62485207194
 20
-1197.902264320866
 30
0.0
 10
1378.693384606026
 20
-1197.902264320866
 30
0.0
 10
1378.693384606026
 20
-1197.902264320866
 30
0.0
 10
1378.693384606026
 20
-1197.902264320866
 30
0.0
 10
1378.693384606026
 20
-1204.745340161975
 30
0.0
 10
1378.693384606026
 20
-1204.745340161975
 30
0.0
 10
1378.693384606026
 20
-1210.794698310026
 30
0.0
 10
1373.737578394826
 20
-1215.75316230892
 30
0.0
 10
1367.685547949513
 20
-1215.75316230892
 30
0.0
 10
1367.685547949513
 20
-1215.75316230892
 30
0.0
 10
632.127332940142
 20
-1215.75316230892
 30
0.0
 10
632.127332940142
 20
-1215.75316230892
 30
0.0
 10
626.0672849915109
 20
-1215.75316230892
 30
0.0
 10
621.1088209926147
 20
-1210.794698310026
 30
0.0
 10
621.1088209926147
 20
-1204.745340161975
 30
0.0
 10
621.1088209926147
 20
-1204.745340161975
 30
0.0
 10
621.1088209926147
 20
-1197.902264320866
 30
0.0
 10
621.1088209926147
 20
-1197.902264320866
 30
0.0
 10
621.1088209926147
 20
-1197.902264320866
 30
0.0
 10
607.1800108372645
 20
-1197.902264320866
 30
0.0
 10
607.1800108372645
 20
-1197.902264320866
 30
0.0
 10
601.120497378658
 20
-1197.902264320866
 30
0.0
 10
596.1641713398776
 20
-1192.943265831957
 30
0.0
 10
596.1641713398776
 20
-1186.893907683887
 30
0.0
 10
596.1641713398776
 20
-1186.893907683887
 30
0.0
 10
596.1641713398776
 20
-1177.138395674854
 30
0.0
 10
596.1641713398776
 20
-1177.138395674854
 30
0.0
 10
596.1641713398776
 20
-1177.138395674854
 30
0.0
 10
581.9980476116589
 20
-1177.138395674854
 30
0.0
 10
581.9980476116589
 20
-1177.138395674854
 30
0.0
 10
581.5699210984412
 20
-1177.138395674854
 30
0.0
 10
581.1498119356602
 20
-1177.117550563726
 30
0.0
 10
580.7350476731644
 20
-1177.070515441177
 30
0.0
 10
577.2587245246477
 20
-1177.456951732132
 30
0.0
 10
573.6364855982147
 20
-1176.324367360721
 30
0.0
 10
570.9875530145637
 20
-1173.672762326925
 30
0.0
 10
570.9875530145637
 20
-1173.672762326925
 30
0.0
 10
502.0281839649342
 20
-1104.710720827137
 30
0.0
 10
502.0281839649342
 20
-1104.710720827137
 30
0.0
 10
497.3930864335771
 20
-1100.070812885519
 30
0.0
 10
497.3930864335771
 20
-1092.497089174813
 30
0.0
 10
502.0281839649342
 20
-1087.856646743159
 30
0.0
 10
502.0281839649342
 20
-1087.856646743159
 30
0.0
 10
570.9875530145637
 20
-1018.895139733406
 30
0.0
 10
570.9875530145637
 20
-1018.895139733406
 30
0.0
 10
573.6364855982147
 20
-1016.253690010173
 30
0.0
 10
577.2587245246477
 20
-1015.126450539039
 30
0.0
 10
580.7350476731644
 20
-1015.507541929703
 30
0.0
 10
581.1498119356602
 20
-1015.449817006574
 30
0.0
 10
581.5699210984412
 20
-1015.428971895442
 30
0.0
 10
581.9980476116589
 20
-1015.428971895442
 30
0.0
 10
581.9980476116589
 20
-1015.428971895442
 30
0.0
 10
596.1641713398776
 20
-1015.428971895442
 30
0.0
 10
596.1641713398776
 20
-1015.428971895442
 30
0.0
 10
596.1641713398776
 20
-1015.428971895442
 30
0.0
 10
596.1641713398776
 20
-1005.684149686982
 30
0.0
 10
596.1641713398776
 20
-1005.684149686982
 30
0.0
 10
596.1641713398776
 20
-999.6241017383518
 30
0.0
 10
601.120497378658
 20
-994.6656377394565
 30
0.0
 10
607.1800108372645
 20
-994.6656377394565
 30
0.0
 10
607.1800108372645
 20
-994.6656377394565
 30
0.0
 10
621.1088209926147
 20
-994.6656377394565
 30
0.0
 10
621.1088209926147
 20
-994.6656377394565
 30
0.0
 10
621.1088209926147
 20
-994.6656377394565
 30
0.0
 10
621.1088209926147
 20
-987.8380621092065
 30
0.0
 10
621.1088209926147
 20
-987.8380621092065
 30
0.0
 10
621.1088209926147
 20
-981.7732037503074
 30
0.0
 10
626.0672849915109
 20
-976.8142052613866
 30
0.0
 10
632.127332940142
 20
-976.8142052613866
 30
0.0
 10
632.127332940142
 20
-976.8142052613866
 30
0.0
 10
632.127332940142
 20
-976.8142052613866
 30
0.0
 10
632.127332940142
 20
-976.8142052613866
 30
0.0
  0
SPLINE
  5
46
330
41
100
AcDbEntity
  8
katman 1
370
     0
100
AcDbSpline
210
0.0
220
0.0
230
1.0
 70
    11
 71
     3
 72
    20
 73
    16
 74
     0
 42
0.0000000001
 43
0.0000000001
 12
1.0
 22
0.0
 32
0.0
 13
1.0
 23
0.0
 33
0.0
 40
0.0
 40
0.0
 40
0.0
 40
0.0
 40
1.0
 40
1.0
 40
1.0
 40
2.0
 40
2.0
 40
2.0
 40
3.0
 40
3.0
 40
3.0
 40
4.0
 40
4.0
 40
4.0
 40
5.0
 40
5.0
 40
5.0
 40
5.0
 10
575.2201795540977
 20
-1078.080289622998
 30
0.0
 10
565.1648186388011
 20
-1078.080289622998
 30
0.0
 10
557.0090352865191
 20
-1086.228055624837
 30
0.0
 10
557.0090352865191
 20
-1096.291433890565
 30
0.0
 10
557.0090352865191
 20
-1106.350001746039
 30
0.0
 10
565.1648186388011
 20
-1114.503112648188
 30
0.0
 10
575.2201795540977
 20
-1114.503112648188
 30
0.0
 10
585.2814198597152
 20
-1114.503112648188
 30
0.0
 10
593.4372032119973
 20
-1106.350001746039
 30
0.0
 10
593.4372032119973
 20
-1096.291433890565
 30
0.0
 10
593.4372032119973
 20
-1086.228055624837
 30
0.0
 10
585.2814198597152
 20
-1078.080289622998
 30
0.0
 10
575.2201795540977
 20
-1078.080289622998
 30
0.0
 10
575.2201795540977
 20
-1078.080289622998
 30
0.0
 10
575.2201795540977
 20
-1078.080289622998
 30
0.0
 10
575.2201795540977
 20
-1078.080289622998
 30
0.0
  0
SPLINE
  5
47
330
41
100
AcDbEntity
  8
katman 1
370
     0
100
AcDbSpline
210
0.0
220
0.0
230
1.0
 70
    11
 71
     3
 72
    17
 73
    13
 74
     0
 42
0.0000000001
 43
0.0000000001
 12
1.0
 22
0.0
 32
0.0
 13
1.0
 23
0.0
 33
0.0
 40
0.0
 40
0.0
 40
0.0
 40
0.0
 40
1.0
 40
1.0
 40
1.0
 40
2.0
 40
2.0
 40
2.0
 40
3.0
 40
3.0
 40
3.0
 40
4.0
 40
4.0
 40
4.0
 40
4.0
 10
1424.58735499781
 20
-1078.080289622998
 30
0.0
 10
1414.528787396437
 20
-1078.080289622998
 30
0.0
 10
1406.370866290126
 20
-1086.228055624837
 30
0.0
 10
1406.370866290126
 20
-1096.291433890565
 30
0.0
 10
1406.370866290126
 20
-1106.350001746039
 30
0.0
 10
1414.528787396437
 20
-1114.503112648188
 30
0.0
 10
1424.58735499781
 20
-1114.503112648188
 30
0.0
 10
1434.648060559241
 20
-1114.503112648188
 30
0.0
 10
1442.798498805336
 20
-1106.350001746039
 30
0.0
 10
1442.798498805336
 20
-1096.291433890565
 30
0.0
 10
1442.798498805336
 20
-1086.228055624837
 30
0.0
 10
1434.648060559241
 20
-1078.080289622998
 30
0.0
 10
1424.58735499781
 20
-1078.080289622998
 30
0.0
  0
HATCH
  5
48
330
41
100
AcDbEntity
  8
katman 1
 62
    75
420
  7576888
100
AcDbHatch
 10
0.0
 20
0.0
 30
0.0
210
0.0
220
0.0
230
1.0
  2
SOLID
 70
     1
 71
     0
 91
        3
 92
        1
 93
        1
 72
     4
 94
        3
 73
     0
 74
     1
 95
      128
 96
      124
 40
0.0
 40
0.0
 40
0.0
 40
0.0
 40
1.0
 40
1.0
 40
1.0
 40
2.0
 40
2.0
 40
2.0
 40
3.0
 40
3.0
 40
3.0
 40
4.0
 40
4.0
 40
4.0
 40
5.0
 40
5.0
 40
5.0
 40
6.0
 40
6.0
 40
6.0
 40
7.0
 40
7.0
 40
7.0
 40
8.0
 40
8.0
 40
8.0
 40
9.0
 40
9.0
 40
9.0
 40
10.0
 40
10.0
 40
10.0
 40
11.0
 40
11.0
 40
11.0
 40
12.0
 40
12.0
 40
12.0
 40
13.0
 40
13.0
 40
13.0
 40
14.0
 40
14.0
 40
14.0
 40
15.0
 40
15.0
 40
15.0
 40
16.0
 40
16.0
 40
16.0
 40
17.0
 40
17.0
 40
17.0
 40
18.0
 40
18.0
 40
18.0
 40
19.0
 40
19.0
 40
19.0
 40
20.0
 40
20.0
 40
20.0
 40
21.0
 40
21.0
 40
21.0
 40
22.0
 40
22.0
 40
22.0
 40
23.0
 40
23.0
 40
23.0
 40
24.0
 40
24.0
 40
24.0
 40
25.0
 40
25.0
 40
25.0
 40
26.0
 40
26.0
 40
26.0
 40
27.0
 40
27.0
 40
27.0
 40
28.0
 40
28.0
 40
28.0
 40
29.0
 40
29.0
 40
29.0
 40
30.0
 40
30.0
 40
30.0
 40
31.0
 40
31.0
 40
31.0
 40
32.0
 40
32.0
 40
32.0
 40
33.0
 40
33.0
 40
33.0
 40
34.0
 40
34.0
 40
34.0
 40
35.0
 40
35.0
 40
35.0
 40
36.0
 40
36.0
 40
36.0
 40
37.0
 40
37.0
 40
37.0
 40
38.0
 40
38.0
 40
38.0
 40
39.0
 40
39.0
 40
39.0
 40
40.0
 40
40.0
 40
40.0
 40
41.0
 40
41.0
 40
41.0
 40
41.0
 10
632.127332940142
 20
-976.8142052613866
 10
632.127332940142
 20
-976.8142052613866
 10
1367.685547949513
 20
-976.8142052613866
 10
1367.685547949513
 20
-976.8142052613866
 10
1373.737578394826
 20
-976.8142052613866
 10
1378.693384606026
 20
-981.7732037503074
 10
1378.693384606026
 20
-987.8380621092065
 10
1378.693384606026
 20
-987.8380621092065
 10
1378.693384606026
 20
-994.6656377394565
 10
1378.693384606026
 20
-994.6656377394565
 10
1378.693384606026
 20
-994.6656377394565
 10
1392.62485207194
 20
-994.6656377394565
 10
1392.62485207194
 20
-994.6656377394565
 10
1398.682227417406
 20
-994.6656377394565
 10
1403.64337915905
 20
-999.6241017383518
 10
1403.64337915905
 20
-1005.684149686982
 10
1403.64337915905
 20
-1005.684149686982
 10
1403.64337915905
 20
-1015.428971895442
 10
1403.64337915905
 20
-1015.428971895442
 10
1403.64337915905
 20
-1015.428971895442
 10
1417.814832011627
 20
-1015.428971895442
 10
1417.814832011627
 20
-1015.428971895442
 10
1418.232268713717
 20
-1015.428971895442
 10
1418.66039521612
 20
-1015.449817006574
 10
1419.072487018057
 20
-1015.507541929703
 10
1422.556827428991
 20
-1015.126450539039
 10
1426.16891095362
 20
-1016.253690010173
 10
1428.822653880492
 20
-1018.895139733406
 10
1428.822653880492
 20
-1018.895139733406
 10
1497.782021188064
 20
-1087.856646743159
 10
1497.782021188064
 20
-1087.856646743159
 10
1502.411791615203
 20
-1092.497089174813
 10
1502.411791615203
 20
-1100.070812885519
 10
1497.782021188064
 20
-1104.710720827137
 10
1497.782021188064
 20
-1104.710720827137
 10
1428.822653880492
 20
-1173.672762326925
 10
1428.822653880492
 20
-1173.672762326925
 10
1426.16891095362
 20
-1176.324367360721
 10
1422.556827428991
 20
-1177.456951732132
 10
1419.072487018057
 20
-1177.070515441177
 10
1418.66039521612
 20
-1177.117550563726
 10
1418.232268713717
 20
-1177.138395674854
 10
1417.814832011627
 20
-1177.138395674854
 10
1417.814832011627
 20
-1177.138395674854
 10
1403.64337915905
 20
-1177.138395674854
 10
1403.64337915905
 20
-1177.138395674854
 10
1403.64337915905
 20
-1177.138395674854
 10
1403.64337915905
 20
-1186.893907683887
 10
1403.64337915905
 20
-1186.893907683887
 10
1403.64337915905
 20
-1192.943265831957
 10
1398.682227417406
 20
-1197.902264320866
 10
1392.62485207194
 20
-1197.902264320866
 10
1392.62485207194
 20
-1197.902264320866
 10
1378.693384606026
 20
-1197.902264320866
 10
1378.693384606026
 20
-1197.902264320866
 10
1378.693384606026
 20
-1197.902264320866
 10
1378.693384606026
 20
-1204.745340161975
 10
1378.693384606026
 20
-1204.745340161975
 10
1378.693384606026
 20
-1210.794698310026
 10
1373.737578394826
 20
-1215.75316230892
 10
1367.685547949513
 20
-1215.75316230892
 10
1367.685547949513
 20
-1215.75316230892
 10
632.127332940142
 20
-1215.75316230892
 10
632.127332940142
 20
-1215.75316230892
 10
626.0672849915109
 20
-1215.75316230892
 10
621.1088209926147
 20
-1210.794698310026
 10
621.1088209926147
 20
-1204.745340161975
 10
621.1088209926147
 20
-1204.745340161975
 10
621.1088209926147
 20
-1197.902264320866
 10
621.1088209926147
 20
-1197.902264320866
 10
621.1088209926147
 20
-1197.902264320866
 10
607.1800108372645
 20
-1197.902264320866
 10
607.1800108372645
 20
-1197.902264320866
 10
601.120497378658
 20
-1197.902264320866
 10
596.1641713398776
 20
-1192.943265831957
 10
596.1641713398776
 20
-1186.893907683887
 10
596.1641713398776
 20
-1186.893907683887
 10
596.1641713398776
 20
-1177.138395674854
 10
596.1641713398776
 20
-1177.138395674854
 10
596.1641713398776
 20
-1177.138395674854
 10
581.9980476116589
 20
-1177.138395674854
 10
581.9980476116589
 20
-1177.138395674854
 10
581.5699210984412
 20
-1177.138395674854
 10
581.1498119356602
 20
-1177.117550563726
 10
580.7350476731644
 20
-1177.070515441177
 10
577.2587245246477
 20
-1177.456951732132
 10
573.6364855982147
 20
-1176.324367360721
 10
570.9875530145637
 20
-1173.672762326925
 10
570.9875530145637
 20
-1173.672762326925
 10
502.0281839649342
 20
-1104.710720827137
 10
502.0281839649342
 20
-1104.710720827137
 10
497.3930864335771
 20
-1100.070812885519
 10
497.3930864335771
 20
-1092.497089174813
 10
502.0281839649342
 20
-1087.856646743159
 10
502.0281839649342
 20
-1087.856646743159
 10
570.9875530145637
 20
-1018.895139733406
 10
570.9875530145637
 20
-1018.895139733406
 10
573.6364855982147
 20
-1016.253690010173
 10
577.2587245246477
 20
-1015.126450539039
 10
580.7350476731644
 20
-1015.507541929703
 10
581.1498119356602
 20
-1015.449817006574
 10
581.5699210984412
 20
-1015.428971895442
 10
581.9980476116589
 20
-1015.428971895442
 10
581.9980476116589
 20
-1015.428971895442
 10
596.1641713398776
 20
-1015.428971895442
 10
596.1641713398776
 20
-1015.428971895442
 10
596.1641713398776
 20
-1015.428971895442
 10
596.1641713398776
 20
-1005.684149686982
 10
596.1641713398776
 20
-1005.684149686982
 10
596.1641713398776
 20
-999.6241017383518
 10
601.120497378658
 20
-994.6656377394565
 10
607.1800108372645
 20
-994.6656377394565
 10
607.1800108372645
 20
-994.6656377394565
 10
621.1088209926147
 20
-994.6656377394565
 10
621.1088209926147
 20
-994.6656377394565
 10
621.1088209926147
 20
-994.6656377394565
 10
621.1088209926147
 20
-987.8380621092065
 10
621.1088209926147
 20
-987.8380621092065
 10
621.1088209926147
 20
-981.7732037503074
 10
626.0672849915109
 20
-976.8142052613866
 10
632.127332940142
 20
-976.8142052613866
 10
632.127332940142
 20
-976.8142052613866
 10
632.127332940142
 20
-976.8142052613866
 10
632.127332940142
 20
-976.8142052613866
 97
        0
 97
        0
 92
        1
 93
        1
 72
     4
 94
        3
 73
     0
 74
     1
 95
       20
 96
       16
 40
0.0
 40
0.0
 40
0.0
 40
0.0
 40
1.0
 40
1.0
 40
1.0
 40
2.0
 40
2.0
 40
2.0
 40
3.0
 40
3.0
 40
3.0
 40
4.0
 40
4.0
 40
4.0
 40
5.0
 40
5.0
 40
5.0
 40
5.0
 10
575.2201795540977
 20
-1078.080289622998
 10
565.1648186388011
 20
-1078.080289622998
 10
557.0090352865191
 20
-1086.228055624837
 10
557.0090352865191
 20
-1096.291433890565
 10
557.0090352865191
 20
-1106.350001746039
 10
565.1648186388011
 20
-1114.503112648188
 10
575.2201795540977
 20
-1114.503112648188
 10
585.2814198597152
 20
-1114.503112648188
 10
593.4372032119973
 20
-1106.350001746039
 10
593.4372032119973
 20
-1096.291433890565
 10
593.4372032119973
 20
-1086.228055624837
 10
585.2814198597152
 20
-1078.080289622998
 10
575.2201795540977
 20
-1078.080289622998
 10
575.2201795540977
 20
-1078.080289622998
 10
575.2201795540977
 20
-1078.080289622998
 10
575.2201795540977
 20
-1078.080289622998
 97
        0
 97
        0
 92
        1
 93
        1
 72
     4
 94
        3
 73
     0
 74
     1
 95
       17
 96
       13
 40
0.0
 40
0.0
 40
0.0
 40
0.0
 40
1.0
 40
1.0
 40
1.0
 40
2.0
 40
2.0
 40
2.0
 40
3.0
 40
3.0
 40
3.0
 40
4.0
 40
4.0
 40
4.0
 40
4.0
 10
1424.58735499781
 20
-1078.080289622998
 10
1414.528787396437
 20
-1078.080289622998
 10
1406.370866290126
 20
-1086.228055624837
 10
1406.370866290126
 20
-1096.291433890565
 10
1406.370866290126
 20
-1106.350001746039
 10
1414.528787396437
 20
-1114.503112648188
 10
1424.58735499781
 20
-1114.503112648188
 10
1434.648060559241
 20
-1114.503112648188
 10
1442.798498805336
 20
-1106.350001746039
 10
1442.798498805336
 20
-1096.291433890565
 10
1442.798498805336
 20
-1086.228055624837
 10
1434.648060559241
 20
-1078.080289622998
 10
1424.58735499781
 20
-1078.080289622998
 97
        0
 97
        0
 75
     0
 76
     1
 98
        0
  0
INSERT
  5
4A
330
41
100
AcDbEntity
  8
katman 1
100
AcDbBlockReference
  2
block 3
 10
0.0
 20
0.0
 30
0.0
  0
INSERT
  5
60
330
41
100
AcDbEntity
  8
katman 1
100
AcDbBlockReference
  2
block 4
 10
0.0
 20
0.0
 30
0.0
  0
INSERT
  5
BA
330
41
100
AcDbEntity
  8
katman 1
100
AcDbBlockReference
  2
block 5
 10
0.0
 20
0.0
 30
0.0
  0
ENDBLK
  5
44
330
41
100
AcDbEntity
  8
0
100
AcDbBlockEnd
  0
BLOCK
  5
4B
330
49
100
AcDbEntity
  8
0
100
AcDbBlockBegin
  2
block 3
 70
     0
 10
0.0
 20
0.0
 30
0.0
  3
block 3
  1

  0
SPLINE
  5
4D
330
49
100
AcDbEntity
  8
katman 1
370
     0
100
AcDbSpline
210
0.0
220
0.0
230
1.0
 70
    11
 71
     3
 72
    35
 73
    31
 74
     0
 42
0.0000000001
 43
0.0000000001
 12
1.0
 22
0.0
 32
0.0
 13
1.0
 23
0.0
 33
0.0
 40
0.0
 40
0.0
 40
0.0
 40
0.0
 40
1.0
 40
1.0
 40
1.0
 40
2.0
 40
2.0
 40
2.0
 40
3.0
 40
3.0
 40
3.0
 40
4.0
 40
4.0
 40
4.0
 40
5.0
 40
5.0
 40
5.0
 40
6.0
 40
6.0
 40
6.0
 40
7.0
 40
7.0
 40
7.0
 40
8.0
 40
8.0
 40
8.0
 40
9.0
 40
9.0
 40
9.0
 40
10.0
 40
10.0
 40
10.0
 40
10.0
 10
718.8753013948663
 20
-1154.726341163521
 30
0.0
 10
711.6983112595681
 20
-1158.312226416576
 30
0.0
 10
697.3443309889717
 20
-1161.903331298821
 30
0.0
 10
678.9529675404465
 20
-1161.903331298821
 30
0.0
 10
636.3399148389381
 20
-1161.903331298821
 30
0.0
 10
604.2679032852366
 20
-1134.98570356956
 30
0.0
 10
604.2679032852366
 20
-1085.420104787896
 30
0.0
 10
604.2679032852366
 20
-1038.098946557631
 30
0.0
 10
636.3399148389381
 20
-1006.024325189333
 30
0.0
 10
683.2147947735157
 20
-1006.024325189333
 30
0.0
 10
702.0524365177271
 20
-1006.024325189333
 30
0.0
 10
713.940141996376
 20
-1010.06431818186
 30
0.0
 10
719.0997454500066
 20
-1012.752427214353
 30
0.0
 10
719.0997454500066
 20
-1012.752427214353
 30
0.0
 10
714.3890301066567
 20
-1028.677515870932
 30
0.0
 10
714.3890301066567
 20
-1028.677515870932
 30
0.0
 10
706.9875959162182
 20
-1025.091630617877
 30
0.0
 10
696.4465547684113
 20
-1022.398301956193
 30
0.0
 10
683.8881269389367
 20
-1022.398301956193
 30
0.0
 10
648.449454558132
 20
-1022.398301956193
 30
0.0
 10
624.9010974705698
 20
-1045.051492637787
 30
0.0
 10
624.9010974705698
 20
-1084.746772622475
 30
0.0
 10
624.9010974705698
 20
-1121.753943574666
 30
0.0
 10
646.207623821324
 20
-1145.529354531962
 30
0.0
 10
682.9903507183753
 20
-1145.529354531962
 30
0.0
 10
694.8754463824289
 20
-1145.529354531962
 30
0.0
 10
706.9875959162182
 20
-1143.060469925418
 30
0.0
 10
714.8379182169365
 20
-1139.250140617223
 30
0.0
 10
714.8379182169365
 20
-1139.250140617223
 30
0.0
 10
718.8753013948663
 20
-1154.726341163521
 30
0.0
 10
718.8753013948663
 20
-1154.726341163521
 30
0.0
  0
SPLINE
  5
4E
330
49
100
AcDbEntity
  8
katman 1
370
     0
100
AcDbSpline
210
0.0
220
0.0
230
1.0
 70
    11
 71
     3
 72
    47
 73
    43
 74
     0
 42
0.0000000001
 43
0.0000000001
 12
1.0
 22
0.0
 32
0.0
 13
1.0
 23
0.0
 33
0.0
 40
0.0
 40
0.0
 40
0.0
 40
0.0
 40
1.0
 40
1.0
 40
1.0
 40
2.0
 40
2.0
 40
2.0
 40
3.0
 40
3.0
 40
3.0
 40
4.0
 40
4.0
 40
4.0
 40
5.0
 40
5.0
 40
5.0
 40
6.0
 40
6.0
 40
6.0
 40
7.0
 40
7.0
 40
7.0
 40
8.0
 40
8.0
 40
8.0
 40
9.0
 40
9.0
 40
9.0
 40
10.0
 40
10.0
 40
10.0
 40
11.0
 40
11.0
 40
11.0
 40
12.0
 40
12.0
 40
12.0
 40
13.0
 40
13.0
 40
13.0
 40
14.0
 40
14.0
 40
14.0
 40
14.0
 10
792.6808581316773
 20
-1159.658890747418
 30
0.0
 10
792.6808581316773
 20
-1159.658890747418
 30
0.0
 10
791.1097497456958
 20
-1145.978242642243
 30
0.0
 10
791.1097497456958
 20
-1145.978242642243
 30
0.0
 10
791.1097497456958
 20
-1145.978242642243
 30
0.0
 10
790.4364175802757
 20
-1145.978242642243
 30
0.0
 10
790.4364175802757
 20
-1145.978242642243
 30
0.0
 10
784.3816477206783
 20
-1154.501897108381
 30
0.0
 10
772.7183862971706
 20
-1162.127775353962
 30
0.0
 10
757.244795565467
 20
-1162.127775353962
 30
0.0
 10
735.2649370492927
 20
-1162.127775353962
 30
0.0
 10
724.0505637360648
 20
-1146.651574807664
 30
0.0
 10
724.0505637360648
 20
-1130.950930206225
 30
0.0
 10
724.0505637360648
 20
-1104.711854271576
 30
0.0
 10
747.3744767684866
 20
-1090.35787400098
 30
0.0
 10
789.3168071191685
 20
-1090.58231805612
 30
0.0
 10
789.3168071191685
 20
-1090.58231805612
 30
0.0
 10
789.3168071191685
 20
-1088.337877504717
 30
0.0
 10
789.3168071191685
 20
-1088.337877504717
 30
0.0
 10
789.3168071191685
 20
-1079.365334928298
 30
0.0
 10
786.8479225126266
 20
-1063.215802216579
 30
0.0
 10
764.6462297559056
 20
-1063.215802216579
 30
0.0
 10
754.5514669037848
 20
-1063.215802216579
 30
0.0
 10
744.0104257559778
 20
-1066.358018988543
 30
0.0
 10
736.384547510399
 20
-1071.29056857244
 30
0.0
 10
736.384547510399
 20
-1071.29056857244
 30
0.0
 10
731.900886036784
 20
-1058.283252632682
 30
0.0
 10
731.900886036784
 20
-1058.283252632682
 30
0.0
 10
740.8708187986094
 20
-1052.452926828228
 30
0.0
 10
753.8781347383638
 20
-1048.637377890842
 30
0.0
 10
767.5613926581345
 20
-1048.637377890842
 30
0.0
 10
800.7530146729423
 20
-1048.637377890842
 30
0.0
 10
808.8277810288009
 20
-1071.29056857244
 30
0.0
 10
808.8277810288009
 20
-1093.045983033473
 30
0.0
 10
808.8277810288009
 20
-1093.045983033473
 30
0.0
 10
808.8277810288009
 20
-1133.644258867909
 30
0.0
 10
808.8277810288009
 20
-1133.644258867909
 30
0.0
 10
808.8277810288009
 20
-1143.060469925418
 30
0.0
 10
809.2766691390816
 20
-1152.257456556981
 30
0.0
 10
810.6233334699227
 20
-1159.658890747418
 30
0.0
 10
810.6233334699227
 20
-1159.658890747418
 30
0.0
 10
792.6808581316773
 20
-1159.658890747418
 30
0.0
 10
792.6808581316773
 20
-1159.658890747418
 30
0.0
  0
SPLINE
  5
4F
330
49
100
AcDbEntity
  8
katman 1
370
     0
100
AcDbSpline
210
0.0
220
0.0
230
1.0
 70
    11
 71
     3
 72
    20
 73
    16
 74
     0
 42
0.0000000001
 43
0.0000000001
 12
1.0
 22
0.0
 32
0.0
 13
1.0
 23
0.0
 33
0.0
 40
0.0
 40
0.0
 40
0.0
 40
0.0
 40
1.0
 40
1.0
 40
1.0
 40
2.0
 40
2.0
 40
2.0
 40
3.0
 40
3.0
 40
3.0
 40
4.0
 40
4.0
 40
4.0
 40
5.0
 40
5.0
 40
5.0
 40
5.0
 10
789.7630854148547
 20
-1104.262966161295
 30
0.0
 10
768.2321150089601
 20
-1103.814078051015
 30
0.0
 10
743.7859817008375
 20
-1107.62440735921
 30
0.0
 10
743.7859817008375
 20
-1128.706489654822
 30
0.0
 10
743.7859817008375
 20
-1141.494581168627
 30
0.0
 10
752.3096361669768
 20
-1147.549351028225
 30
0.0
 10
762.4017892045031
 20
-1147.549351028225
 30
0.0
 10
776.5313254199591
 20
-1147.549351028225
 30
0.0
 10
785.5038679963791
 20
-1138.576808451806
 30
0.0
 10
788.6434749537484
 20
-1129.379821820243
 30
0.0
 10
789.3168071191685
 20
-1127.359825323983
 30
0.0
 10
789.7630854148547
 20
-1125.120604401767
 30
0.0
 10
789.7630854148547
 20
-1123.100607905508
 30
0.0
 10
789.7630854148547
 20
-1123.100607905508
 30
0.0
 10
789.7630854148547
 20
-1104.262966161295
 30
0.0
 10
789.7630854148547
 20
-1104.262966161295
 30
0.0
  0
SPLINE
  5
50
330
49
100
AcDbEntity
  8
katman 1
370
     0
100
AcDbSpline
210
0.0
220
0.0
230
1.0
 70
    11
 71
     3
 72
    50
 73
    46
 74
     0
 42
0.0000000001
 43
0.0000000001
 12
1.0
 22
0.0
 32
0.0
 13
1.0
 23
0.0
 33
0.0
 40
0.0
 40
0.0
 40
0.0
 40
0.0
 40
1.0
 40
1.0
 40
1.0
 40
2.0
 40
2.0
 40
2.0
 40
3.0
 40
3.0
 40
3.0
 40
4.0
 40
4.0
 40
4.0
 40
5.0
 40
5.0
 40
5.0
 40
6.0
 40
6.0
 40
6.0
 40
7.0
 40
7.0
 40
7.0
 40
8.0
 40
8.0
 40
8.0
 40
9.0
 40
9.0
 40
9.0
 40
10.0
 40
10.0
 40
10.0
 40
11.0
 40
11.0
 40
11.0
 40
12.0
 40
12.0
 40
12.0
 40
13.0
 40
13.0
 40
13.0
 40
14.0
 40
14.0
 40
14.0
 40
15.0
 40
15.0
 40
15.0
 40
15.0
 10
832.1699627633852
 20
-1080.487555203999
 30
0.0
 10
832.1699627633852
 20
-1069.275791705364
 30
0.0
 10
831.9481285228394
 20
-1060.078805073805
 30
0.0
 10
831.2747963574193
 20
-1051.106262497386
 30
0.0
 10
831.2747963574193
 20
-1051.106262497386
 30
0.0
 10
848.7683835853841
 20
-1051.106262497386
 30
0.0
 10
848.7683835853841
 20
-1051.106262497386
 30
0.0
 10
848.7683835853841
 20
-1051.106262497386
 30
0.0
 10
849.8879940464903
 20
-1069.051347650224
 30
0.0
 10
849.8879940464903
 20
-1069.051347650224
 30
0.0
 10
849.8879940464903
 20
-1069.051347650224
 30
0.0
 10
850.336882156771
 20
-1069.051347650224
 30
0.0
 10
850.336882156771
 20
-1069.051347650224
 30
0.0
 10
855.7209296655419
 20
-1058.732140742963
 30
0.0
 10
868.2793574950165
 20
-1048.637377890842
 30
0.0
 10
886.221832833261
 20
-1048.637377890842
 30
0.0
 10
901.2491452692784
 20
-1048.637377890842
 30
0.0
 10
924.5756681162948
 20
-1057.609920467261
 30
0.0
 10
924.5756681162948
 20
-1094.841535474596
 30
0.0
 10
924.5756681162948
 20
-1094.841535474596
 30
0.0
 10
924.5756681162948
 20
-1159.658890747418
 30
0.0
 10
924.5756681162948
 20
-1159.658890747418
 30
0.0
 10
924.5756681162948
 20
-1159.658890747418
 30
0.0
 10
904.8376403369275
 20
-1159.658890747418
 30
0.0
 10
904.8376403369275
 20
-1159.658890747418
 30
0.0
 10
904.8376403369275
 20
-1159.658890747418
 30
0.0
 10
904.8376403369275
 20
-1097.085976025995
 30
0.0
 10
904.8376403369275
 20
-1097.085976025995
 30
0.0
 10
904.8376403369275
 20
-1079.589778983438
 30
0.0
 10
898.3339823670503
 20
-1065.011354657701
 30
0.0
 10
879.7181748633839
 20
-1065.011354657701
 30
0.0
 10
866.7108589236295
 20
-1065.011354657701
 30
0.0
 10
856.6187058861024
 20
-1074.208341289261
 30
0.0
 10
853.2546548735936
 20
-1085.195660732756
 30
0.0
 10
852.3568786530332
 20
-1087.664545339296
 30
0.0
 10
851.9079905427525
 20
-1091.031206166401
 30
0.0
 10
851.9079905427525
 20
-1094.392647364315
 30
0.0
 10
851.9079905427525
 20
-1094.392647364315
 30
0.0
 10
851.9079905427525
 20
-1159.658890747418
 30
0.0
 10
851.9079905427525
 20
-1159.658890747418
 30
0.0
 10
851.9079905427525
 20
-1159.658890747418
 30
0.0
 10
832.1699627633852
 20
-1159.658890747418
 30
0.0
 10
832.1699627633852
 20
-1159.658890747418
 30
0.0
 10
832.1699627633852
 20
-1159.658890747418
 30
0.0
 10
832.1699627633852
 20
-1080.487555203999
 30
0.0
 10
832.1699627633852
 20
-1080.487555203999
 30
0.0
  0
SPLINE
  5
51
330
49
100
AcDbEntity
  8
katman 1
370
     0
100
AcDbSpline
210
0.0
220
0.0
230
1.0
 70
    11
 71
     3
 72
    50
 73
    46
 74
     0
 42
0.0000000001
 43
0.0000000001
 12
1.0
 22
0.0
 32
0.0
 13
1.0
 23
0.0
 33
0.0
 40
0.0
 40
0.0
 40
0.0
 40
0.0
 40
1.0
 40
1.0
 40
1.0
 40
2.0
 40
2.0
 40
2.0
 40
3.0
 40
3.0
 40
3.0
 40
4.0
 40
4.0
 40
4.0
 40
5.0
 40
5.0
 40
5.0
 40
6.0
 40
6.0
 40
6.0
 40
7.0
 40
7.0
 40
7.0
 40
8.0
 40
8.0
 40
8.0
 40
9.0
 40
9.0
 40
9.0
 40
10.0
 40
10.0
 40
10.0
 40
11.0
 40
11.0
 40
11.0
 40
12.0
 40
12.0
 40
12.0
 40
13.0
 40
13.0
 40
13.0
 40
14.0
 40
14.0
 40
14.0
 40
15.0
 40
15.0
 40
15.0
 40
15.0
 10
948.1370742768295
 20
-1080.487555203999
 30
0.0
 10
948.1370742768295
 20
-1069.275791705364
 30
0.0
 10
947.9126302216891
 20
-1060.078805073805
 30
0.0
 10
947.2419078708635
 20
-1051.106262497386
 30
0.0
 10
947.2419078708635
 20
-1051.106262497386
 30
0.0
 10
964.7354950988283
 20
-1051.106262497386
 30
0.0
 10
964.7354950988283
 20
-1051.106262497386
 30
0.0
 10
964.7354950988283
 20
-1051.106262497386
 30
0.0
 10
965.8577153745291
 20
-1069.051347650224
 30
0.0
 10
965.8577153745291
 20
-1069.051347650224
 30
0.0
 10
965.8577153745291
 20
-1069.051347650224
 30
0.0
 10
966.3039936702153
 20
-1069.051347650224
 30
0.0
 10
966.3039936702153
 20
-1069.051347650224
 30
0.0
 10
971.6880411789862
 20
-1058.732140742963
 30
0.0
 10
984.2464690084607
 20
-1048.637377890842
 30
0.0
 10
1002.188944346706
 20
-1048.637377890842
 30
0.0
 10
1017.216256782722
 20
-1048.637377890842
 30
0.0
 10
1040.542779629739
 20
-1057.609920467261
 30
0.0
 10
1040.542779629739
 20
-1094.841535474596
 30
0.0
 10
1040.542779629739
 20
-1094.841535474596
 30
0.0
 10
1040.542779629739
 20
-1159.658890747418
 30
0.0
 10
1040.542779629739
 20
-1159.658890747418
 30
0.0
 10
1040.542779629739
 20
-1159.658890747418
 30
0.0
 10
1020.804751850372
 20
-1159.658890747418
 30
0.0
 10
1020.804751850372
 20
-1159.658890747418
 30
0.0
 10
1020.804751850372
 20
-1159.658890747418
 30
0.0
 10
1020.804751850372
 20
-1097.085976025995
 30
0.0
 10
1020.804751850372
 20
-1097.085976025995
 30
0.0
 10
1020.804751850372
 20
-1079.589778983438
 30
0.0
 10
1014.301093880495
 20
-1065.011354657701
 30
0.0
 10
995.6852863768281
 20
-1065.011354657701
 30
0.0
 10
982.6779704370738
 20
-1065.011354657701
 30
0.0
 10
972.5858173995475
 20
-1074.208341289261
 30
0.0
 10
969.2217663870388
 20
-1085.195660732756
 30
0.0
 10
968.3239901664774
 20
-1087.664545339296
 30
0.0
 10
967.8751020561967
 20
-1091.031206166401
 30
0.0
 10
967.8751020561967
 20
-1094.392647364315
 30
0.0
 10
967.8751020561967
 20
-1094.392647364315
 30
0.0
 10
967.8751020561967
 20
-1159.658890747418
 30
0.0
 10
967.8751020561967
 20
-1159.658890747418
 30
0.0
 10
967.8751020561967
 20
-1159.658890747418
 30
0.0
 10
948.1370742768295
 20
-1159.658890747418
 30
0.0
 10
948.1370742768295
 20
-1159.658890747418
 30
0.0
 10
948.1370742768295
 20
-1159.658890747418
 30
0.0
 10
948.1370742768295
 20
-1080.487555203999
 30
0.0
 10
948.1370742768295
 20
-1080.487555203999
 30
0.0
  0
SPLINE
  5
52
330
49
100
AcDbEntity
  8
katman 1
370
     0
100
AcDbSpline
210
0.0
220
0.0
230
1.0
 70
    11
 71
     3
 72
    47
 73
    43
 74
     0
 42
0.0000000001
 43
0.0000000001
 12
1.0
 22
0.0
 32
0.0
 13
1.0
 23
0.0
 33
0.0
 40
0.0
 40
0.0
 40
0.0
 40
0.0
 40
1.0
 40
1.0
 40
1.0
 40
2.0
 40
2.0
 40
2.0
 40
3.0
 40
3.0
 40
3.0
 40
4.0
 40
4.0
 40
4.0
 40
5.0
 40
5.0
 40
5.0
 40
6.0
 40
6.0
 40
6.0
 40
7.0
 40
7.0
 40
7.0
 40
8.0
 40
8.0
 40
8.0
 40
9.0
 40
9.0
 40
9.0
 40
10.0
 40
10.0
 40
10.0
 40
11.0
 40
11.0
 40
11.0
 40
12.0
 40
12.0
 40
12.0
 40
13.0
 40
13.0
 40
13.0
 40
14.0
 40
14.0
 40
14.0
 40
14.0
 10
1124.213435534342
 20
-1159.658890747418
 30
0.0
 10
1124.213435534342
 20
-1159.658890747418
 30
0.0
 10
1122.642327148362
 20
-1145.978242642243
 30
0.0
 10
1122.642327148362
 20
-1145.978242642243
 30
0.0
 10
1122.642327148362
 20
-1145.978242642243
 30
0.0
 10
1121.968994982941
 20
-1145.978242642243
 30
0.0
 10
1121.968994982941
 20
-1145.978242642243
 30
0.0
 10
1115.914225123342
 20
-1154.501897108381
 30
0.0
 10
1104.250963699835
 20
-1162.127775353962
 30
0.0
 10
1088.777372968132
 20
-1162.127775353962
 30
0.0
 10
1066.797514451957
 20
-1162.127775353962
 30
0.0
 10
1055.58314113873
 20
-1146.651574807664
 30
0.0
 10
1055.58314113873
 20
-1130.950930206225
 30
0.0
 10
1055.58314113873
 20
-1104.711854271576
 30
0.0
 10
1078.907054171152
 20
-1090.35787400098
 30
0.0
 10
1120.849384521833
 20
-1090.58231805612
 30
0.0
 10
1120.849384521833
 20
-1090.58231805612
 30
0.0
 10
1120.849384521833
 20
-1088.337877504717
 30
0.0
 10
1120.849384521833
 20
-1088.337877504717
 30
0.0
 10
1120.849384521833
 20
-1079.365334928298
 30
0.0
 10
1118.380499915291
 20
-1063.215802216579
 30
0.0
 10
1096.176197343975
 20
-1063.215802216579
 30
0.0
 10
1086.084044306448
 20
-1063.215802216579
 30
0.0
 10
1075.543003158642
 20
-1066.358018988543
 30
0.0
 10
1067.917124913063
 20
-1071.29056857244
 30
0.0
 10
1067.917124913063
 20
-1071.29056857244
 30
0.0
 10
1063.433463439447
 20
-1058.283252632682
 30
0.0
 10
1063.433463439447
 20
-1058.283252632682
 30
0.0
 10
1072.403396201273
 20
-1052.452926828228
 30
0.0
 10
1085.413321955624
 20
-1048.637377890842
 30
0.0
 10
1099.0939700608
 20
-1048.637377890842
 30
0.0
 10
1132.285592075606
 20
-1048.637377890842
 30
0.0
 10
1140.360358431466
 20
-1071.29056857244
 30
0.0
 10
1140.360358431466
 20
-1093.045983033473
 30
0.0
 10
1140.360358431466
 20
-1093.045983033473
 30
0.0
 10
1140.360358431466
 20
-1133.644258867909
 30
0.0
 10
1140.360358431466
 20
-1133.644258867909
 30
0.0
 10
1140.360358431466
 20
-1143.060469925418
 30
0.0
 10
1140.809246541747
 20
-1152.257456556981
 30
0.0
 10
1142.155910872589
 20
-1159.658890747418
 30
0.0
 10
1142.155910872589
 20
-1159.658890747418
 30
0.0
 10
1124.213435534342
 20
-1159.658890747418
 30
0.0
 10
1124.213435534342
 20
-1159.658890747418
 30
0.0
  0
SPLINE
  5
53
330
49
100
AcDbEntity
  8
katman 1
370
     0
100
AcDbSpline
210
0.0
220
0.0
230
1.0
 70
    11
 71
     3
 72
    20
 73
    16
 74
     0
 42
0.0000000001
 43
0.0000000001
 12
1.0
 22
0.0
 32
0.0
 13
1.0
 23
0.0
 33
0.0
 40
0.0
 40
0.0
 40
0.0
 40
0.0
 40
1.0
 40
1.0
 40
1.0
 40
2.0
 40
2.0
 40
2.0
 40
3.0
 40
3.0
 40
3.0
 40
4.0
 40
4.0
 40
4.0
 40
5.0
 40
5.0
 40
5.0
 40
5.0
 10
1121.298272632113
 20
-1104.262966161295
 30
0.0
 10
1099.767302226221
 20
-1103.814078051015
 30
0.0
 10
1075.318559103502
 20
-1107.62440735921
 30
0.0
 10
1075.318559103502
 20
-1128.706489654822
 30
0.0
 10
1075.318559103502
 20
-1141.494581168627
 30
0.0
 10
1083.842213569642
 20
-1147.549351028225
 30
0.0
 10
1093.934366607169
 20
-1147.549351028225
 30
0.0
 10
1108.063902822625
 20
-1147.549351028225
 30
0.0
 10
1117.036445399044
 20
-1138.576808451806
 30
0.0
 10
1120.176052356412
 20
-1129.379821820243
 30
0.0
 10
1120.849384521833
 20
-1127.359825323983
 30
0.0
 10
1121.298272632113
 20
-1125.120604401767
 30
0.0
 10
1121.298272632113
 20
-1123.100607905508
 30
0.0
 10
1121.298272632113
 20
-1123.100607905508
 30
0.0
 10
1121.298272632113
 20
-1104.262966161295
 30
0.0
 10
1121.298272632113
 20
-1104.262966161295
 30
0.0
  0
SPLINE
  5
54
330
49
100
AcDbEntity
  8
katman 1
370
     0
100
AcDbSpline
210
0.0
220
0.0
230
1.0
 70
    11
 71
     3
 72
    41
 73
    37
 74
     0
 42
0.0000000001
 43
0.0000000001
 12
1.0
 22
0.0
 32
0.0
 13
1.0
 23
0.0
 33
0.0
 40
0.0
 40
0.0
 40
0.0
 40
0.0
 40
1.0
 40
1.0
 40
1.0
 40
2.0
 40
2.0
 40
2.0
 40
3.0
 40
3.0
 40
3.0
 40
4.0
 40
4.0
 40
4.0
 40
5.0
 40
5.0
 40
5.0
 40
6.0
 40
6.0
 40
6.0
 40
7.0
 40
7.0
 40
7.0
 40
8.0
 40
8.0
 40
8.0
 40
9.0
 40
9.0
 40
9.0
 40
10.0
 40
10.0
 40
10.0
 40
11.0
 40
11.0
 40
11.0
 40
12.0
 40
12.0
 40
12.0
 40
12.0
 10
1162.807373760083
 20
-1159.658890747418
 30
0.0
 10
1163.256261870363
 20
-1152.257456556981
 30
0.0
 10
1163.70254016605
 20
-1141.270137113486
 30
0.0
 10
1163.70254016605
 20
-1131.624262371646
 30
0.0
 10
1163.70254016605
 20
-1131.624262371646
 30
0.0
 10
1163.70254016605
 20
-1000.418443440019
 30
0.0
 10
1163.70254016605
 20
-1000.418443440019
 30
0.0
 10
1163.70254016605
 20
-1000.418443440019
 30
0.0
 10
1183.216123890277
 20
-1000.418443440019
 30
0.0
 10
1183.216123890277
 20
-1000.418443440019
 30
0.0
 10
1183.216123890277
 20
-1000.418443440019
 30
0.0
 10
1183.216123890277
 20
-1068.602459539943
 30
0.0
 10
1183.216123890277
 20
-1068.602459539943
 30
0.0
 10
1183.216123890277
 20
-1068.602459539943
 30
0.0
 10
1183.665012000558
 20
-1068.602459539943
 30
0.0
 10
1183.665012000558
 20
-1068.602459539943
 30
0.0
 10
1190.617558080714
 20
-1056.487700191563
 30
0.0
 10
1203.175985910189
 20
-1048.637377890842
 30
0.0
 10
1220.672182952749
 20
-1048.637377890842
 30
0.0
 10
1247.584591052819
 20
-1048.637377890842
 30
0.0
 10
1266.649286666765
 20
-1071.0661245173
 30
0.0
 10
1266.424842611625
 20
-1104.038522106155
 30
0.0
 10
1266.424842611625
 20
-1142.836025870278
 30
0.0
 10
1241.978709303503
 20
-1162.127775353962
 30
0.0
 10
1217.754410235926
 20
-1162.127775353962
 30
0.0
 10
1202.056375449083
 20
-1162.127775353962
 30
0.0
 10
1189.495337805014
 20
-1156.067785865176
 30
0.0
 10
1181.42318126375
 20
-1141.71380559458
 30
0.0
 10
1181.42318126375
 20
-1141.71380559458
 30
0.0
 10
1180.749849098329
 20
-1141.71380559458
 30
0.0
 10
1180.749849098329
 20
-1141.71380559458
 30
0.0
 10
1180.749849098329
 20
-1141.71380559458
 30
0.0
 10
1179.852072877768
 20
-1159.658890747418
 30
0.0
 10
1179.852072877768
 20
-1159.658890747418
 30
0.0
 10
1179.852072877768
 20
-1159.658890747418
 30
0.0
 10
1162.807373760083
 20
-1159.658890747418
 30
0.0
 10
1162.807373760083
 20
-1159.658890747418
 30
0.0
  0
SPLINE
  5
55
330
49
100
AcDbEntity
  8
katman 1
370
     0
100
AcDbSpline
210
0.0
220
0.0
230
1.0
 70
    11
 71
     3
 72
    26
 73
    22
 74
     0
 42
0.0000000001
 43
0.0000000001
 12
1.0
 22
0.0
 32
0.0
 13
1.0
 23
0.0
 33
0.0
 40
0.0
 40
0.0
 40
0.0
 40
0.0
 40
1.0
 40
1.0
 40
1.0
 40
2.0
 40
2.0
 40
2.0
 40
3.0
 40
3.0
 40
3.0
 40
4.0
 40
4.0
 40
4.0
 40
5.0
 40
5.0
 40
5.0
 40
6.0
 40
6.0
 40
6.0
 40
7.0
 40
7.0
 40
7.0
 40
7.0
 10
1183.216123890277
 20
-1116.148061825348
 30
0.0
 10
1183.216123890277
 20
-1118.616946431892
 30
0.0
 10
1183.665012000558
 20
-1121.080611409245
 30
0.0
 10
1184.113900110839
 20
-1123.325051960648
 30
0.0
 10
1187.926839233627
 20
-1137.005700065823
 30
0.0
 10
1199.363046787399
 20
-1146.427130752523
 30
0.0
 10
1213.717027057995
 20
-1146.427130752523
 30
0.0
 10
1234.352831057924
 20
-1146.427130752523
 30
0.0
 10
1246.686814832259
 20
-1129.604265875383
 30
0.0
 10
1246.686814832259
 20
-1104.711854271576
 30
0.0
 10
1246.686814832259
 20
-1082.956439810539
 30
0.0
 10
1235.472441519032
 20
-1064.33802249228
 30
0.0
 10
1214.390359223416
 20
-1064.33802249228
 30
0.0
 10
1200.934155173381
 20
-1064.33802249228
 30
0.0
 10
1188.375727343908
 20
-1073.53500912384
 30
0.0
 10
1184.338344165979
 20
-1088.562321559857
 30
0.0
 10
1183.889456055698
 20
-1090.80676211126
 30
0.0
 10
1183.216123890277
 20
-1093.494871143754
 30
0.0
 10
1183.216123890277
 20
-1096.637087915718
 30
0.0
 10
1183.216123890277
 20
-1096.637087915718
 30
0.0
 10
1183.216123890277
 20
-1116.148061825348
 30
0.0
 10
1183.216123890277
 20
-1116.148061825348
 30
0.0
  0
SPLINE
  5
56
330
49
100
AcDbEntity
  8
katman 1
370
     0
100
AcDbSpline
210
0.0
220
0.0
230
1.0
 70
    11
 71
     3
 72
    17
 73
    13
 74
     0
 42
0.0000000001
 43
0.0000000001
 12
1.0
 22
0.0
 32
0.0
 13
1.0
 23
0.0
 33
0.0
 40
0.0
 40
0.0
 40
0.0
 40
0.0
 40
1.0
 40
1.0
 40
1.0
 40
2.0
 40
2.0
 40
2.0
 40
3.0
 40
3.0
 40
3.0
 40
4.0
 40
4.0
 40
4.0
 40
4.0
 10
1304.789117153039
 20
-1020.60274951507
 30
0.0
 10
1305.013561208178
 20
-1027.330851540089
 30
0.0
 10
1300.081011624283
 20
-1032.717508863454
 30
0.0
 10
1292.230689323564
 20
-1032.717508863454
 30
0.0
 10
1285.278143243406
 20
-1032.717508863454
 30
0.0
 10
1280.342983844916
 20
-1027.330851540089
 30
0.0
 10
1280.342983844916
 20
-1020.60274951507
 30
0.0
 10
1280.342983844916
 20
-1013.650203434914
 30
0.0
 10
1285.502587298546
 20
-1008.268765740737
 30
0.0
 10
1292.679577433842
 20
-1008.268765740737
 30
0.0
 10
1300.081011624283
 20
-1008.268765740737
 30
0.0
 10
1304.789117153039
 20
-1013.650203434914
 30
0.0
 10
1304.789117153039
 20
-1020.60274951507
 30
0.0
  0
POLYLINE
  5
57
330
49
100
AcDbEntity
  8
katman 1
370
     0
100
AcDb2dPolyline
 66
     1
 10
0.0
 20
0.0
 30
0.0
  0
VERTEX
  5
58
330
57
100
AcDbEntity
  8
katman 1
370
     0
100
AcDbVertex
100
AcDb2dVertex
 10
1282.809258636862
 20
-1159.658890747418
 30
0.0
  0
VERTEX
  5
59
330
57
100
AcDbEntity
  8
katman 1
370
     0
100
AcDbVertex
100
AcDb2dVertex
 10
1282.809258636862
 20
-1051.106262497386
 30
0.0
  0
VERTEX
  5
5A
330
57
100
AcDbEntity
  8
katman 1
370
     0
100
AcDbVertex
100
AcDb2dVertex
 10
1302.547286416229
 20
-1051.106262497386
 30
0.0
  0
VERTEX
  5
5B
330
57
100
AcDbEntity
  8
katman 1
370
     0
100
AcDbVertex
100
AcDb2dVertex
 10
1302.547286416229
 20
-1159.658890747418
 30
0.0
  0
VERTEX
  5
5C
330
57
100
AcDbEntity
  8
katman 1
370
     0
100
AcDbVertex
100
AcDb2dVertex
 10
1282.809258636862
 20
-1159.658890747418
 30
0.0
  0
SEQEND
  5
5D
330
57
100
AcDbEntity
  8
katman 1
370
     0
  0
SPLINE
  5
5E
330
49
100
AcDbEntity
  8
katman 1
370
     0
100
AcDbSpline
210
0.0
220
0.0
230
1.0
 70
    11
 71
     3
 72
    47
 73
    43
 74
     0
 42
0.0000000001
 43
0.0000000001
 12
1.0
 22
0.0
 32
0.0
 13
1.0
 23
0.0
 33
0.0
 40
0.0
 40
0.0
 40
0.0
 40
0.0
 40
1.0
 40
1.0
 40
1.0
 40
2.0
 40
2.0
 40
2.0
 40
3.0
 40
3.0
 40
3.0
 40
4.0
 40
4.0
 40
4.0
 40
5.0
 40
5.0
 40
5.0
 40
6.0
 40
6.0
 40
6.0
 40
7.0
 40
7.0
 40
7.0
 40
8.0
 40
8.0
 40
8.0
 40
9.0
 40
9.0
 40
9.0
 40
10.0
 40
10.0
 40
10.0
 40
11.0
 40
11.0
 40
11.0
 40
12.0
 40
12.0
 40
12.0
 40
13.0
 40
13.0
 40
13.0
 40
14.0
 40
14.0
 40
14.0
 40
14.0
 10
1324.101745153475
 20
-1139.474584672364
 30
0.0
 10
1329.934680772527
 20
-1143.284913980558
 30
0.0
 10
1340.251277865194
 20
-1147.324906973085
 30
0.0
 10
1350.118986847581
 20
-1147.324906973085
 30
0.0
 10
1364.472967118178
 20
-1147.324906973085
 30
0.0
 10
1371.201069143193
 20
-1140.147916837785
 30
0.0
 10
1371.201069143193
 20
-1131.175374261366
 30
0.0
 10
1371.201069143193
 20
-1121.753943574666
 30
0.0
 10
1365.595187393879
 20
-1116.596949935629
 30
0.0
 10
1351.016763068143
 20
-1111.215512241452
 30
0.0
 10
1331.503179343916
 20
-1104.262966161295
 30
0.0
 10
1322.30880252695
 20
-1093.494871143754
 30
0.0
 10
1322.30880252695
 20
-1080.487555203999
 30
0.0
 10
1322.30880252695
 20
-1062.991358161438
 30
0.0
 10
1336.438338742406
 20
-1048.637377890842
 30
0.0
 10
1359.762251774828
 20
-1048.637377890842
 30
0.0
 10
1370.752181032913
 20
-1048.637377890842
 30
0.0
 10
1380.395445960159
 20
-1051.779594662807
 30
0.0
 10
1386.452825634351
 20
-1055.370699545048
 30
0.0
 10
1386.452825634351
 20
-1055.370699545048
 30
0.0
 10
1381.517666235861
 20
-1069.724679815645
 30
0.0
 10
1381.517666235861
 20
-1069.724679815645
 30
0.0
 10
1377.255839002792
 20
-1067.031351153964
 30
0.0
 10
1369.408126516668
 20
-1063.440246271719
 30
0.0
 10
1359.313363664547
 20
-1063.440246271719
 30
0.0
 10
1347.652712055631
 20
-1063.440246271719
 30
0.0
 10
1341.146444271159
 20
-1070.168348296738
 30
0.0
 10
1341.146444271159
 20
-1078.243114652596
 30
0.0
 10
1341.146444271159
 20
-1087.215657229015
 30
0.0
 10
1347.652712055631
 20
-1091.255650221541
 30
0.0
 10
1361.782248271087
 20
-1096.637087915718
 30
0.0
 10
1380.619890015299
 20
-1103.814078051015
 30
0.0
 10
1390.26576475714
 20
-1113.230289108527
 30
0.0
 10
1390.26576475714
 20
-1129.379821820243
 30
0.0
 10
1390.26576475714
 20
-1148.447127248786
 30
0.0
 10
1375.462896376263
 20
-1161.903331298821
 30
0.0
 10
1349.670098737301
 20
-1161.903331298821
 30
0.0
 10
1337.782393258651
 20
-1161.903331298821
 30
0.0
 10
1326.792464000566
 20
-1158.985558581997
 30
0.0
 10
1319.169195569581
 20
-1154.501897108381
 30
0.0
 10
1319.169195569581
 20
-1154.501897108381
 30
0.0
 10
1324.101745153475
 20
-1139.474584672364
 30
0.0
 10
1324.101745153475
 20
-1139.474584672364
 30
0.0
  0
ENDBLK
  5
4C
330
49
100
AcDbEntity
  8
0
100
AcDbBlockEnd
  0
BLOCK
  5
61
330
5F
100
AcDbEntity
  8
0
100
AcDbBlockBegin
  2
block 4
 70
     0
 10
0.0
 20
0.0
 30
0.0
  3
block 4
  1

  0
SPLINE
  5
63
330
5F
100
AcDbEntity
  8
katman 1
370
     0
100
AcDbSpline
210
0.0
220
0.0
230
1.0
 70
    11
 71
     3
 72
    32
 73
    28
 74
     0
 42
0.0000000001
 43
0.0000000001
 12
1.0
 22
0.0
 32
0.0
 13
1.0
 23
0.0
 33
0.0
 40
0.0
 40
0.0
 40
0.0
 40
0.0
 40
1.0
 40
1.0
 40
1.0
 40
2.0
 40
2.0
 40
2.0
 40
3.0
 40
3.0
 40
3.0
 40
4.0
 40
4.0
 40
4.0
 40
5.0
 40
5.0
 40
5.0
 40
6.0
 40
6.0
 40
6.0
 40
7.0
 40
7.0
 40
7.0
 40
8.0
 40
8.0
 40
8.0
 40
9.0
 40
9.0
 40
9.0
 40
9.0
 10
664.285175178673
 20
-1234.113850308051
 30
0.0
 10
667.8371328419971
 20
-1233.518812580471
 30
0.0
 10
672.4878224496706
 20
-1233.012508549105
 30
0.0
 10
678.40949176494
 20
-1233.012508549105
 30
0.0
 10
685.6830450402404
 20
-1233.012508549105
 30
0.0
 10
691.0096766279285
 20
-1234.703668406444
 30
0.0
 10
694.3946061571951
 20
-1237.746712223809
 30
0.0
 10
697.5237738561846
 20
-1240.455699773061
 30
0.0
 10
699.3819618475782
 20
-1244.600085349372
 30
0.0
 10
699.3819618475782
 20
-1249.673564921377
 30
0.0
 10
699.3819618475782
 20
-1254.830558560414
 30
0.0
 10
697.8604399388951
 20
-1258.891430069696
 30
0.0
 10
694.9844242555864
 20
-1261.850959820033
 30
0.0
 10
691.0958005095526
 20
-1265.995345396343
 30
0.0
 10
684.7513412299486
 20
-1268.109295218012
 30
0.0
 10
677.5639118362724
 20
-1268.109295218012
 30
0.0
 10
675.3638381329793
 20
-1268.109295218012
 30
0.0
 10
673.3334023783382
 20
-1268.025781150984
 30
0.0
 10
671.6422425210021
 20
-1267.60299118665
 30
0.0
 10
671.6422425210021
 20
-1267.60299118665
 30
0.0
 10
671.6422425210021
 20
-1290.438868889869
 30
0.0
 10
671.6422425210021
 20
-1290.438868889869
 30
0.0
 10
671.6422425210021
 20
-1290.438868889869
 30
0.0
 10
664.285175178673
 20
-1290.438868889869
 30
0.0
 10
664.285175178673
 20
-1290.438868889869
 30
0.0
 10
664.285175178673
 20
-1290.438868889869
 30
0.0
 10
664.285175178673
 20
-1234.113850308051
 30
0.0
 10
664.285175178673
 20
-1234.113850308051
 30
0.0
  0
SPLINE
  5
64
330
5F
100
AcDbEntity
  8
katman 1
370
     0
100
AcDbSpline
210
0.0
220
0.0
230
1.0
 70
    11
 71
     3
 72
    20
 73
    16
 74
     0
 42
0.0000000001
 43
0.0000000001
 12
1.0
 22
0.0
 32
0.0
 13
1.0
 23
0.0
 33
0.0
 40
0.0
 40
0.0
 40
0.0
 40
0.0
 40
1.0
 40
1.0
 40
1.0
 40
2.0
 40
2.0
 40
2.0
 40
3.0
 40
3.0
 40
3.0
 40
4.0
 40
4.0
 40
4.0
 40
5.0
 40
5.0
 40
5.0
 40
5.0
 10
671.6422425210021
 20
-1261.600417618945
 30
0.0
 10
673.2498883113094
 20
-1262.023207583279
 30
0.0
 10
675.2803240659496
 20
-1262.190235717339
 30
0.0
 10
677.7309399703299
 20
-1262.190235717339
 30
0.0
 10
686.6121390359367
 20
-1262.190235717339
 30
0.0
 10
692.024894505249
 20
-1257.878822006969
 30
0.0
 10
692.024894505249
 20
-1250.012840818683
 30
0.0
 10
692.024894505249
 20
-1242.486135527699
 30
0.0
 10
686.6982629175609
 20
-1238.848053982754
 30
0.0
 10
678.579129713592
 20
-1238.848053982754
 30
0.0
 10
675.3638381329793
 20
-1238.848053982754
 30
0.0
 10
672.9106124140044
 20
-1239.103815813029
 30
0.0
 10
671.6422425210021
 20
-1239.443091710335
 30
0.0
 10
671.6422425210021
 20
-1239.443091710335
 30
0.0
 10
671.6422425210021
 20
-1261.600417618945
 30
0.0
 10
671.6422425210021
 20
-1261.600417618945
 30
0.0
  0
HATCH
  5
65
330
5F
100
AcDbEntity
  8
katman 1
 62
     7
420
 16777215
100
AcDbHatch
 10
0.0
 20
0.0
 30
0.0
210
0.0
220
0.0
230
1.0
  2
SOLID
 70
     1
 71
     0
 91
        2
 92
        1
 93
        1
 72
     4
 94
        3
 73
     0
 74
     1
 95
       32
 96
       28
 40
0.0
 40
0.0
 40
0.0
 40
0.0
 40
1.0
 40
1.0
 40
1.0
 40
2.0
 40
2.0
 40
2.0
 40
3.0
 40
3.0
 40
3.0
 40
4.0
 40
4.0
 40
4.0
 40
5.0
 40
5.0
 40
5.0
 40
6.0
 40
6.0
 40
6.0
 40
7.0
 40
7.0
 40
7.0
 40
8.0
 40
8.0
 40
8.0
 40
9.0
 40
9.0
 40
9.0
 40
9.0
 10
664.285175178673
 20
-1234.113850308051
 10
667.8371328419971
 20
-1233.518812580471
 10
672.4878224496706
 20
-1233.012508549105
 10
678.40949176494
 20
-1233.012508549105
 10
685.6830450402404
 20
-1233.012508549105
 10
691.0096766279285
 20
-1234.703668406444
 10
694.3946061571951
 20
-1237.746712223809
 10
697.5237738561846
 20
-1240.455699773061
 10
699.3819618475782
 20
-1244.600085349372
 10
699.3819618475782
 20
-1249.673564921377
 10
699.3819618475782
 20
-1254.830558560414
 10
697.8604399388951
 20
-1258.891430069696
 10
694.9844242555864
 20
-1261.850959820033
 10
691.0958005095526
 20
-1265.995345396343
 10
684.7513412299486
 20
-1268.109295218012
 10
677.5639118362724
 20
-1268.109295218012
 10
675.3638381329793
 20
-1268.109295218012
 10
673.3334023783382
 20
-1268.025781150984
 10
671.6422425210021
 20
-1267.60299118665
 10
671.6422425210021
 20
-1267.60299118665
 10
671.6422425210021
 20
-1290.438868889869
 10
671.6422425210021
 20
-1290.438868889869
 10
671.6422425210021
 20
-1290.438868889869
 10
664.285175178673
 20
-1290.438868889869
 10
664.285175178673
 20
-1290.438868889869
 10
664.285175178673
 20
-1290.438868889869
 10
664.285175178673
 20
-1234.113850308051
 10
664.285175178673
 20
-1234.113850308051
 97
        0
 97
        0
 92
        1
 93
        1
 72
     4
 94
        3
 73
     0
 74
     1
 95
       20
 96
       16
 40
0.0
 40
0.0
 40
0.0
 40
0.0
 40
1.0
 40
1.0
 40
1.0
 40
2.0
 40
2.0
 40
2.0
 40
3.0
 40
3.0
 40
3.0
 40
4.0
 40
4.0
 40
4.0
 40
5.0
 40
5.0
 40
5.0
 40
5.0
 10
671.6422425210021
 20
-1261.600417618945
 10
673.2498883113094
 20
-1262.023207583279
 10
675.2803240659496
 20
-1262.190235717339
 10
677.7309399703299
 20
-1262.190235717339
 10
686.6121390359367
 20
-1262.190235717339
 10
692.024894505249
 20
-1257.878822006969
 10
692.024894505249
 20
-1250.012840818683
 10
692.024894505249
 20
-1242.486135527699
 10
686.6982629175609
 20
-1238.848053982754
 10
678.579129713592
 20
-1238.848053982754
 10
675.3638381329793
 20
-1238.848053982754
 10
672.9106124140044
 20
-1239.103815813029
 10
671.6422425210021
 20
-1239.443091710335
 10
671.6422425210021
 20
-1239.443091710335
 10
671.6422425210021
 20
-1261.600417618945
 10
671.6422425210021
 20
-1261.600417618945
 97
        0
 97
        0
 75
     2
 76
     1
 98
        0
  0
SPLINE
  5
66
330
5F
100
AcDbEntity
  8
katman 1
370
     0
100
AcDbSpline
210
0.0
220
0.0
230
1.0
 70
    11
 71
     3
 72
    47
 73
    43
 74
     0
 42
0.0000000001
 43
0.0000000001
 12
1.0
 22
0.0
 32
0.0
 13
1.0
 23
0.0
 33
0.0
 40
0.0
 40
0.0
 40
0.0
 40
0.0
 40
1.0
 40
1.0
 40
1.0
 40
2.0
 40
2.0
 40
2.0
 40
3.0
 40
3.0
 40
3.0
 40
4.0
 40
4.0
 40
4.0
 40
5.0
 40
5.0
 40
5.0
 40
6.0
 40
6.0
 40
6.0
 40
7.0
 40
7.0
 40
7.0
 40
8.0
 40
8.0
 40
8.0
 40
9.0
 40
9.0
 40
9.0
 40
10.0
 40
10.0
 40
10.0
 40
11.0
 40
11.0
 40
11.0
 40
12.0
 40
12.0
 40
12.0
 40
13.0
 40
13.0
 40
13.0
 40
14.0
 40
14.0
 40
14.0
 40
14.0
 10
709.275768975911
 20
-1234.197364375079
 30
0.0
 10
712.9973645878872
 20
-1233.435298513439
 30
0.0
 10
718.3239961755762
 20
-1233.012508549105
 30
0.0
 10
723.400085562178
 20
-1233.012508549105
 30
0.0
 10
731.2660667504642
 20
-1233.012508549105
 30
0.0
 10
736.3395463224715
 20
-1234.453126205357
 30
0.0
 10
739.8915039857957
 20
-1237.663198156781
 30
0.0
 10
742.7675196691043
 20
-1240.199937942783
 30
0.0
 10
744.3725556448162
 20
-1244.093781318006
 30
0.0
 10
744.3725556448162
 20
-1248.488709095403
 30
0.0
 10
744.3725556448162
 20
-1256.015414386387
 30
0.0
 10
739.638351970114
 20
-1261.005379891365
 30
0.0
 10
733.6331685878158
 20
-1263.035815646006
 30
0.0
 10
733.6331685878158
 20
-1263.035815646006
 30
0.0
 10
733.6331685878158
 20
-1263.291577476281
 30
0.0
 10
733.6331685878158
 20
-1263.291577476281
 30
0.0
 10
738.0307061798076
 20
-1264.810489570369
 30
0.0
 10
740.6535698474345
 20
-1268.871361079651
 30
0.0
 10
742.0054538074655
 20
-1274.790420580324
 30
0.0
 10
743.8662516134536
 20
-1282.745135464829
 30
0.0
 10
745.2207453880792
 20
-1288.241405001172
 30
0.0
 10
746.4029913994573
 20
-1290.438868889869
 30
0.0
 10
746.4029913994573
 20
-1290.438868889869
 30
0.0
 10
738.7927720414464
 20
-1290.438868889869
 30
0.0
 10
738.7927720414464
 20
-1290.438868889869
 30
0.0
 10
737.8610682311546
 20
-1288.831223099565
 30
0.0
 10
736.5926983381532
 20
-1283.924771661616
 30
0.0
 10
734.985052547846
 20
-1276.820856334965
 30
0.0
 10
733.2938926905108
 20
-1268.954875146679
 30
0.0
 10
730.2508488731446
 20
-1265.995345396343
 30
0.0
 10
723.56972351083
 20
-1265.744803195255
 30
0.0
 10
723.56972351083
 20
-1265.744803195255
 30
0.0
 10
716.6328363182402
 20
-1265.744803195255
 30
0.0
 10
716.6328363182402
 20
-1265.744803195255
 30
0.0
 10
716.6328363182402
 20
-1265.744803195255
 30
0.0
 10
716.6328363182402
 20
-1290.438868889869
 30
0.0
 10
716.6328363182402
 20
-1290.438868889869
 30
0.0
 10
716.6328363182402
 20
-1290.438868889869
 30
0.0
 10
709.275768975911
 20
-1290.438868889869
 30
0.0
 10
709.275768975911
 20
-1290.438868889869
 30
0.0
 10
709.275768975911
 20
-1290.438868889869
 30
0.0
 10
709.275768975911
 20
-1234.197364375079
 30
0.0
 10
709.275768975911
 20
-1234.197364375079
 30
0.0
  0
SPLINE
  5
67
330
5F
100
AcDbEntity
  8
katman 1
370
     0
100
AcDbSpline
210
0.0
220
0.0
230
1.0
 70
    11
 71
     3
 72
    20
 73
    16
 74
     0
 42
0.0000000001
 43
0.0000000001
 12
1.0
 22
0.0
 32
0.0
 13
1.0
 23
0.0
 33
0.0
 40
0.0
 40
0.0
 40
0.0
 40
0.0
 40
1.0
 40
1.0
 40
1.0
 40
2.0
 40
2.0
 40
2.0
 40
3.0
 40
3.0
 40
3.0
 40
4.0
 40
4.0
 40
4.0
 40
5.0
 40
5.0
 40
5.0
 40
5.0
 10
716.6328363182402
 20
-1260.159799962697
 30
0.0
 10
716.6328363182402
 20
-1260.159799962697
 30
0.0
 10
724.1595416092223
 20
-1260.159799962697
 30
0.0
 10
724.1595416092223
 20
-1260.159799962697
 30
0.0
 10
732.0255227975085
 20
-1260.159799962697
 30
0.0
 10
737.015488302487
 20
-1255.848386252328
 30
0.0
 10
737.015488302487
 20
-1249.334289024071
 30
0.0
 10
737.015488302487
 20
-1241.979831496337
 30
0.0
 10
731.6888567147989
 20
-1238.764539915723
 30
0.0
 10
723.9063895935406
 20
-1238.681025848695
 30
0.0
 10
720.3544319302164
 20
-1238.681025848695
 30
0.0
 10
717.8176921442137
 20
-1239.020301746001
 30
0.0
 10
716.6328363182402
 20
-1239.354358014116
 30
0.0
 10
716.6328363182402
 20
-1239.354358014116
 30
0.0
 10
716.6328363182402
 20
-1260.159799962697
 30
0.0
 10
716.6328363182402
 20
-1260.159799962697
 30
0.0
  0
HATCH
  5
68
330
5F
100
AcDbEntity
  8
katman 1
 62
     7
420
 16777215
100
AcDbHatch
 10
0.0
 20
0.0
 30
0.0
210
0.0
220
0.0
230
1.0
  2
SOLID
 70
     1
 71
     0
 91
        2
 92
        1
 93
        1
 72
     4
 94
        3
 73
     0
 74
     1
 95
       47
 96
       43
 40
0.0
 40
0.0
 40
0.0
 40
0.0
 40
1.0
 40
1.0
 40
1.0
 40
2.0
 40
2.0
 40
2.0
 40
3.0
 40
3.0
 40
3.0
 40
4.0
 40
4.0
 40
4.0
 40
5.0
 40
5.0
 40
5.0
 40
6.0
 40
6.0
 40
6.0
 40
7.0
 40
7.0
 40
7.0
 40
8.0
 40
8.0
 40
8.0
 40
9.0
 40
9.0
 40
9.0
 40
10.0
 40
10.0
 40
10.0
 40
11.0
 40
11.0
 40
11.0
 40
12.0
 40
12.0
 40
12.0
 40
13.0
 40
13.0
 40
13.0
 40
14.0
 40
14.0
 40
14.0
 40
14.0
 10
709.275768975911
 20
-1234.197364375079
 10
712.9973645878872
 20
-1233.435298513439
 10
718.3239961755762
 20
-1233.012508549105
 10
723.400085562178
 20
-1233.012508549105
 10
731.2660667504642
 20
-1233.012508549105
 10
736.3395463224715
 20
-1234.453126205357
 10
739.8915039857957
 20
-1237.663198156781
 10
742.7675196691043
 20
-1240.199937942783
 10
744.3725556448162
 20
-1244.093781318006
 10
744.3725556448162
 20
-1248.488709095403
 10
744.3725556448162
 20
-1256.015414386387
 10
739.638351970114
 20
-1261.005379891365
 10
733.6331685878158
 20
-1263.035815646006
 10
733.6331685878158
 20
-1263.035815646006
 10
733.6331685878158
 20
-1263.291577476281
 10
733.6331685878158
 20
-1263.291577476281
 10
738.0307061798076
 20
-1264.810489570369
 10
740.6535698474345
 20
-1268.871361079651
 10
742.0054538074655
 20
-1274.790420580324
 10
743.8662516134536
 20
-1282.745135464829
 10
745.2207453880792
 20
-1288.241405001172
 10
746.4029913994573
 20
-1290.438868889869
 10
746.4029913994573
 20
-1290.438868889869
 10
738.7927720414464
 20
-1290.438868889869
 10
738.7927720414464
 20
-1290.438868889869
 10
737.8610682311546
 20
-1288.831223099565
 10
736.5926983381532
 20
-1283.924771661616
 10
734.985052547846
 20
-1276.820856334965
 10
733.2938926905108
 20
-1268.954875146679
 10
730.2508488731446
 20
-1265.995345396343
 10
723.56972351083
 20
-1265.744803195255
 10
723.56972351083
 20
-1265.744803195255
 10
716.6328363182402
 20
-1265.744803195255
 10
716.6328363182402
 20
-1265.744803195255
 10
716.6328363182402
 20
-1265.744803195255
 10
716.6328363182402
 20
-1290.438868889869
 10
716.6328363182402
 20
-1290.438868889869
 10
716.6328363182402
 20
-1290.438868889869
 10
709.275768975911
 20
-1290.438868889869
 10
709.275768975911
 20
-1290.438868889869
 10
709.275768975911
 20
-1290.438868889869
 10
709.275768975911
 20
-1234.197364375079
 10
709.275768975911
 20
-1234.197364375079
 97
        0
 97
        0
 92
        1
 93
        1
 72
     4
 94
        3
 73
     0
 74
     1
 95
       20
 96
       16
 40
0.0
 40
0.0
 40
0.0
 40
0.0
 40
1.0
 40
1.0
 40
1.0
 40
2.0
 40
2.0
 40
2.0
 40
3.0
 40
3.0
 40
3.0
 40
4.0
 40
4.0
 40
4.0
 40
5.0
 40
5.0
 40
5.0
 40
5.0
 10
716.6328363182402
 20
-1260.159799962697
 10
716.6328363182402
 20
-1260.159799962697
 10
724.1595416092223
 20
-1260.159799962697
 10
724.1595416092223
 20
-1260.159799962697
 10
732.0255227975085
 20
-1260.159799962697
 10
737.015488302487
 20
-1255.848386252328
 10
737.015488302487
 20
-1249.334289024071
 10
737.015488302487
 20
-1241.979831496337
 10
731.6888567147989
 20
-1238.764539915723
 10
723.9063895935406
 20
-1238.681025848695
 10
720.3544319302164
 20
-1238.681025848695
 10
717.8176921442137
 20
-1239.020301746001
 10
716.6328363182402
 20
-1239.354358014116
 10
716.6328363182402
 20
-1239.354358014116
 10
716.6328363182402
 20
-1260.159799962697
 10
716.6328363182402
 20
-1260.159799962697
 97
        0
 97
        0
 75
     2
 76
     1
 98
        0
  0
POLYLINE
  5
69
330
5F
100
AcDbEntity
  8
katman 1
370
     0
100
AcDb2dPolyline
 66
     1
 10
0.0
 20
0.0
 30
0.0
  0
VERTEX
  5
6A
330
69
100
AcDbEntity
  8
katman 1
370
     0
100
AcDbVertex
100
AcDb2dVertex
 10
784.2922796846415
 20
-1263.714367440614
 30
0.0
  0
VERTEX
  5
6B
330
69
100
AcDbEntity
  8
katman 1
370
     0
100
AcDbVertex
100
AcDb2dVertex
 10
762.1323439614362
 20
-1263.714367440614
 30
0.0
  0
VERTEX
  5
6C
330
69
100
AcDbEntity
  8
katman 1
370
     0
100
AcDbVertex
100
AcDb2dVertex
 10
762.1323439614362
 20
-1284.264047558918
 30
0.0
  0
VERTEX
  5
6D
330
69
100
AcDbEntity
  8
katman 1
370
     0
100
AcDbVertex
100
AcDb2dVertex
 10
786.8290194706451
 20
-1284.264047558918
 30
0.0
  0
VERTEX
  5
6E
330
69
100
AcDbEntity
  8
katman 1
370
     0
100
AcDbVertex
100
AcDb2dVertex
 10
786.8290194706451
 20
-1290.438868889869
 30
0.0
  0
VERTEX
  5
6F
330
69
100
AcDbEntity
  8
katman 1
370
     0
100
AcDbVertex
100
AcDb2dVertex
 10
754.775276619107
 20
-1290.438868889869
 30
0.0
  0
VERTEX
  5
70
330
69
100
AcDbEntity
  8
katman 1
370
     0
100
AcDbVertex
100
AcDb2dVertex
 10
754.775276619107
 20
-1233.435298513439
 30
0.0
  0
VERTEX
  5
71
330
69
100
AcDbEntity
  8
katman 1
370
     0
100
AcDbVertex
100
AcDb2dVertex
 10
785.5606495776437
 20
-1233.435298513439
 30
0.0
  0
VERTEX
  5
72
330
69
100
AcDbEntity
  8
katman 1
370
     0
100
AcDbVertex
100
AcDb2dVertex
 10
785.5606495776437
 20
-1239.61011984439
 30
0.0
  0
VERTEX
  5
73
330
69
100
AcDbEntity
  8
katman 1
370
     0
100
AcDbVertex
100
AcDb2dVertex
 10
762.1323439614362
 20
-1239.61011984439
 30
0.0
  0
VERTEX
  5
74
330
69
100
AcDbEntity
  8
katman 1
370
     0
100
AcDbVertex
100
AcDb2dVertex
 10
762.1323439614362
 20
-1257.623060176691
 30
0.0
  0
VERTEX
  5
75
330
69
100
AcDbEntity
  8
katman 1
370
     0
100
AcDbVertex
100
AcDb2dVertex
 10
784.2922796846415
 20
-1257.623060176691
 30
0.0
  0
VERTEX
  5
76
330
69
100
AcDbEntity
  8
katman 1
370
     0
100
AcDbVertex
100
AcDb2dVertex
 10
784.2922796846415
 20
-1263.714367440614
 30
0.0
  0
SEQEND
  5
77
330
69
100
AcDbEntity
  8
katman 1
370
     0
  0
HATCH
  5
78
330
5F
100
AcDbEntity
  8
katman 1
 62
     7
420
 16777215
100
AcDbHatch
 10
0.0
 20
0.0
 30
0.0
210
0.0
220
0.0
230
1.0
  2
SOLID
 70
     1
 71
     0
 91
        1
 92
        1
 93
       12
 72
     1
 10
784.2922796846415
 20
-1263.714367440614
 11
762.1323439614362
 21
-1263.714367440614
 72
     1
 10
762.1323439614362
 20
-1263.714367440614
 11
762.1323439614362
 21
-1284.264047558918
 72
     1
 10
762.1323439614362
 20
-1284.264047558918
 11
786.8290194706451
 21
-1284.264047558918
 72
     1
 10
786.8290194706451
 20
-1284.264047558918
 11
786.8290194706451
 21
-1290.438868889869
 72
     1
 10
786.8290194706451
 20
-1290.438868889869
 11
754.775276619107
 21
-1290.438868889869
 72
     1
 10
754.775276619107
 20
-1290.438868889869
 11
754.775276619107
 21
-1233.435298513439
 72
     1
 10
754.775276619107
 20
-1233.435298513439
 11
785.5606495776437
 21
-1233.435298513439
 72
     1
 10
785.5606495776437
 20
-1233.435298513439
 11
785.5606495776437
 21
-1239.61011984439
 72
     1
 10
785.5606495776437
 20
-1239.61011984439
 11
762.1323439614362
 21
-1239.61011984439
 72
     1
 10
762.1323439614362
 20
-1239.61011984439
 11
762.1323439614362
 21
-1257.623060176691
 72
     1
 10
762.1323439614362
 20
-1257.623060176691
 11
784.2922796846415
 21
-1257.623060176691
 72
     1
 10
784.2922796846415
 20
-1257.623060176691
 11
784.2922796846415
 21
-1263.714367440614
 97
        0
 75
     2
 76
     1
 98
        0
  0
SPLINE
  5
79
330
5F
100
AcDbEntity
  8
katman 1
370
     0
100
AcDbSpline
210
0.0
220
0.0
230
1.0
 70
    11
 71
     3
 72
    71
 73
    67
 74
     0
 42
0.0000000001
 43
0.0000000001
 12
1.0
 22
0.0
 32
0.0
 13
1.0
 23
0.0
 33
0.0
 40
0.0
 40
0.0
 40
0.0
 40
0.0
 40
1.0
 40
1.0
 40
1.0
 40
2.0
 40
2.0
 40
2.0
 40
3.0
 40
3.0
 40
3.0
 40
4.0
 40
4.0
 40
4.0
 40
5.0
 40
5.0
 40
5.0
 40
6.0
 40
6.0
 40
6.0
 40
7.0
 40
7.0
 40
7.0
 40
8.0
 40
8.0
 40
8.0
 40
9.0
 40
9.0
 40
9.0
 40
10.0
 40
10.0
 40
10.0
 40
11.0
 40
11.0
 40
11.0
 40
12.0
 40
12.0
 40
12.0
 40
13.0
 40
13.0
 40
13.0
 40
14.0
 40
14.0
 40
14.0
 40
15.0
 40
15.0
 40
15.0
 40
16.0
 40
16.0
 40
16.0
 40
17.0
 40
17.0
 40
17.0
 40
18.0
 40
18.0
 40
18.0
 40
19.0
 40
19.0
 40
19.0
 40
20.0
 40
20.0
 40
20.0
 40
21.0
 40
21.0
 40
21.0
 40
22.0
 40
22.0
 40
22.0
 40
22.0
 10
844.4197981308726
 20
-1265.405527297949
 30
0.0
 10
843.9970081665388
 20
-1257.456032042635
 30
0.0
 10
843.4880943205808
 20
-1247.898890997014
 30
0.0
 10
843.5742182022041
 20
-1240.794975670364
 30
0.0
 10
843.5742182022041
 20
-1240.794975670364
 30
0.0
 10
843.3184563719287
 20
-1240.794975670364
 30
0.0
 10
843.3184563719287
 20
-1240.794975670364
 30
0.0
 10
841.3741444989109
 20
-1247.47610103268
 30
0.0
 10
839.0070426615603
 20
-1254.580016359327
 30
0.0
 10
836.1310269782516
 20
-1262.445997547613
 30
0.0
 10
836.1310269782516
 20
-1262.445997547613
 30
0.0
 10
826.0649720866713
 20
-1290.099592992567
 30
0.0
 10
826.0649720866713
 20
-1290.099592992567
 30
0.0
 10
826.0649720866713
 20
-1290.099592992567
 30
0.0
 10
820.4851884833015
 20
-1290.099592992567
 30
0.0
 10
820.4851884833015
 20
-1290.099592992567
 30
0.0
 10
820.4851884833015
 20
-1290.099592992567
 30
0.0
 10
811.2647135203897
 20
-1262.952301578975
 30
0.0
 10
811.2647135203897
 20
-1262.952301578975
 30
0.0
 10
808.5583357857331
 20
-1254.919292256633
 30
0.0
 10
806.2747480154112
 20
-1247.559615099708
 30
0.0
 10
804.6697120396993
 20
-1240.794975670364
 30
0.0
 10
804.6697120396993
 20
-1240.794975670364
 30
0.0
 10
804.5000740910464
 20
-1240.794975670364
 30
0.0
 10
804.5000740910464
 20
-1240.794975670364
 30
0.0
 10
804.3304361423943
 20
-1247.898890997014
 30
0.0
 10
803.9076461780605
 20
-1257.456032042635
 30
0.0
 10
803.4013421466971
 20
-1265.995345396343
 30
0.0
 10
803.4013421466971
 20
-1265.995345396343
 30
0.0
 10
801.8772104234195
 20
-1290.438868889869
 30
0.0
 10
801.8772104234195
 20
-1290.438868889869
 30
0.0
 10
801.8772104234195
 20
-1290.438868889869
 30
0.0
 10
794.8594189783953
 20
-1290.438868889869
 30
0.0
 10
794.8594189783953
 20
-1290.438868889869
 30
0.0
 10
794.8594189783953
 20
-1290.438868889869
 30
0.0
 10
798.8341666060533
 20
-1233.435298513439
 30
0.0
 10
798.8341666060533
 20
-1233.435298513439
 30
0.0
 10
798.8341666060533
 20
-1233.435298513439
 30
0.0
 10
808.2216697030235
 20
-1233.435298513439
 30
0.0
 10
808.2216697030235
 20
-1233.435298513439
 30
0.0
 10
808.2216697030235
 20
-1233.435298513439
 30
0.0
 10
817.9458388827034
 20
-1261.005379891365
 30
0.0
 10
817.9458388827034
 20
-1261.005379891365
 30
0.0
 10
820.3155505346494
 20
-1268.025781150984
 30
0.0
 10
822.2598624076663
 20
-1274.284116548963
 30
0.0
 10
823.6978702493207
 20
-1280.203176049639
 30
0.0
 10
823.6978702493207
 20
-1280.203176049639
 30
0.0
 10
823.9510222650024
 20
-1280.203176049639
 30
0.0
 10
823.9510222650024
 20
-1280.203176049639
 30
0.0
 10
825.3890301066567
 20
-1274.456364312209
 30
0.0
 10
827.4194658612969
 20
-1268.19802891423
 30
0.0
 10
829.9562056473005
 20
-1261.005379891365
 30
0.0
 10
829.9562056473005
 20
-1261.005379891365
 30
0.0
 10
840.1057746059096
 20
-1233.435298513439
 30
0.0
 10
840.1057746059096
 20
-1233.435298513439
 30
0.0
 10
840.1057746059096
 20
-1233.435298513439
 30
0.0
 10
849.4932777028798
 20
-1233.435298513439
 30
0.0
 10
849.4932777028798
 20
-1233.435298513439
 30
0.0
 10
849.4932777028798
 20
-1233.435298513439
 30
0.0
 10
853.0452353662031
 20
-1290.438868889869
 30
0.0
 10
853.0452353662031
 20
-1290.438868889869
 30
0.0
 10
853.0452353662031
 20
-1290.438868889869
 30
0.0
 10
845.8578059725269
 20
-1290.438868889869
 30
0.0
 10
845.8578059725269
 20
-1290.438868889869
 30
0.0
 10
845.8578059725269
 20
-1290.438868889869
 30
0.0
 10
844.4197981308726
 20
-1265.405527297949
 30
0.0
 10
844.4197981308726
 20
-1265.405527297949
 30
0.0
  0
HATCH
  5
7A
330
5F
100
AcDbEntity
  8
katman 1
 62
     7
420
 16777215
100
AcDbHatch
 10
0.0
 20
0.0
 30
0.0
210
0.0
220
0.0
230
1.0
  2
SOLID
 70
     1
 71
     0
 91
        1
 92
        1
 93
        1
 72
     4
 94
        3
 73
     0
 74
     1
 95
       71
 96
       67
 40
0.0
 40
0.0
 40
0.0
 40
0.0
 40
1.0
 40
1.0
 40
1.0
 40
2.0
 40
2.0
 40
2.0
 40
3.0
 40
3.0
 40
3.0
 40
4.0
 40
4.0
 40
4.0
 40
5.0
 40
5.0
 40
5.0
 40
6.0
 40
6.0
 40
6.0
 40
7.0
 40
7.0
 40
7.0
 40
8.0
 40
8.0
 40
8.0
 40
9.0
 40
9.0
 40
9.0
 40
10.0
 40
10.0
 40
10.0
 40
11.0
 40
11.0
 40
11.0
 40
12.0
 40
12.0
 40
12.0
 40
13.0
 40
13.0
 40
13.0
 40
14.0
 40
14.0
 40
14.0
 40
15.0
 40
15.0
 40
15.0
 40
16.0
 40
16.0
 40
16.0
 40
17.0
 40
17.0
 40
17.0
 40
18.0
 40
18.0
 40
18.0
 40
19.0
 40
19.0
 40
19.0
 40
20.0
 40
20.0
 40
20.0
 40
21.0
 40
21.0
 40
21.0
 40
22.0
 40
22.0
 40
22.0
 40
22.0
 10
844.4197981308726
 20
-1265.405527297949
 10
843.9970081665388
 20
-1257.456032042635
 10
843.4880943205808
 20
-1247.898890997014
 10
843.5742182022041
 20
-1240.794975670364
 10
843.5742182022041
 20
-1240.794975670364
 10
843.3184563719287
 20
-1240.794975670364
 10
843.3184563719287
 20
-1240.794975670364
 10
841.3741444989109
 20
-1247.47610103268
 10
839.0070426615603
 20
-1254.580016359327
 10
836.1310269782516
 20
-1262.445997547613
 10
836.1310269782516
 20
-1262.445997547613
 10
826.0649720866713
 20
-1290.099592992567
 10
826.0649720866713
 20
-1290.099592992567
 10
826.0649720866713
 20
-1290.099592992567
 10
820.4851884833015
 20
-1290.099592992567
 10
820.4851884833015
 20
-1290.099592992567
 10
820.4851884833015
 20
-1290.099592992567
 10
811.2647135203897
 20
-1262.952301578975
 10
811.2647135203897
 20
-1262.952301578975
 10
808.5583357857331
 20
-1254.919292256633
 10
806.2747480154112
 20
-1247.559615099708
 10
804.6697120396993
 20
-1240.794975670364
 10
804.6697120396993
 20
-1240.794975670364
 10
804.5000740910464
 20
-1240.794975670364
 10
804.5000740910464
 20
-1240.794975670364
 10
804.3304361423943
 20
-1247.898890997014
 10
803.9076461780605
 20
-1257.456032042635
 10
803.4013421466971
 20
-1265.995345396343
 10
803.4013421466971
 20
-1265.995345396343
 10
801.8772104234195
 20
-1290.438868889869
 10
801.8772104234195
 20
-1290.438868889869
 10
801.8772104234195
 20
-1290.438868889869
 10
794.8594189783953
 20
-1290.438868889869
 10
794.8594189783953
 20
-1290.438868889869
 10
794.8594189783953
 20
-1290.438868889869
 10
798.8341666060533
 20
-1233.435298513439
 10
798.8341666060533
 20
-1233.435298513439
 10
798.8341666060533
 20
-1233.435298513439
 10
808.2216697030235
 20
-1233.435298513439
 10
808.2216697030235
 20
-1233.435298513439
 10
808.2216697030235
 20
-1233.435298513439
 10
817.9458388827034
 20
-1261.005379891365
 10
817.9458388827034
 20
-1261.005379891365
 10
820.3155505346494
 20
-1268.025781150984
 10
822.2598624076663
 20
-1274.284116548963
 10
823.6978702493207
 20
-1280.203176049639
 10
823.6978702493207
 20
-1280.203176049639
 10
823.9510222650024
 20
-1280.203176049639
 10
823.9510222650024
 20
-1280.203176049639
 10
825.3890301066567
 20
-1274.456364312209
 10
827.4194658612969
 20
-1268.19802891423
 10
829.9562056473005
 20
-1261.005379891365
 10
829.9562056473005
 20
-1261.005379891365
 10
840.1057746059096
 20
-1233.435298513439
 10
840.1057746059096
 20
-1233.435298513439
 10
840.1057746059096
 20
-1233.435298513439
 10
849.4932777028798
 20
-1233.435298513439
 10
849.4932777028798
 20
-1233.435298513439
 10
849.4932777028798
 20
-1233.435298513439
 10
853.0452353662031
 20
-1290.438868889869
 10
853.0452353662031
 20
-1290.438868889869
 10
853.0452353662031
 20
-1290.438868889869
 10
845.8578059725269
 20
-1290.438868889869
 10
845.8578059725269
 20
-1290.438868889869
 10
845.8578059725269
 20
-1290.438868889869
 10
844.4197981308726
 20
-1265.405527297949
 10
844.4197981308726
 20
-1265.405527297949
 97
        0
 97
        0
 75
     2
 76
     1
 98
        0
  0
POLYLINE
  5
7B
330
5F
100
AcDbEntity
  8
katman 1
370
     0
100
AcDb2dPolyline
 66
     1
 10
0.0
 20
0.0
 30
0.0
  0
VERTEX
  5
7C
330
7B
100
AcDbEntity
  8
katman 1
370
     0
100
AcDbVertex
100
AcDb2dVertex
 10
871.7315078639249
 20
-1233.435298513439
 30
0.0
  0
VERTEX
  5
7D
330
7B
100
AcDbEntity
  8
katman 1
370
     0
100
AcDbVertex
100
AcDb2dVertex
 10
871.7315078639249
 20
-1290.438868889869
 30
0.0
  0
VERTEX
  5
7E
330
7B
100
AcDbEntity
  8
katman 1
370
     0
100
AcDbVertex
100
AcDb2dVertex
 10
864.3744405215957
 20
-1290.438868889869
 30
0.0
  0
VERTEX
  5
7F
330
7B
100
AcDbEntity
  8
katman 1
370
     0
100
AcDbVertex
100
AcDb2dVertex
 10
864.3744405215957
 20
-1233.435298513439
 30
0.0
  0
VERTEX
  5
80
330
7B
100
AcDbEntity
  8
katman 1
370
     0
100
AcDbVertex
100
AcDb2dVertex
 10
871.7315078639249
 20
-1233.435298513439
 30
0.0
  0
SEQEND
  5
81
330
7B
100
AcDbEntity
  8
katman 1
370
     0
  0
HATCH
  5
82
330
5F
100
AcDbEntity
  8
katman 1
 62
     7
420
 16777215
100
AcDbHatch
 10
0.0
 20
0.0
 30
0.0
210
0.0
220
0.0
230
1.0
  2
SOLID
 70
     1
 71
     0
 91
        1
 92
        1
 93
        4
 72
     1
 10
871.7315078639249
 20
-1233.435298513439
 11
871.7315078639249
 21
-1290.438868889869
 72
     1
 10
871.7315078639249
 20
-1290.438868889869
 11
864.3744405215957
 21
-1290.438868889869
 72
     1
 10
864.3744405215957
 20
-1290.438868889869
 11
864.3744405215957
 21
-1233.435298513439
 72
     1
 10
864.3744405215957
 20
-1233.435298513439
 11
871.7315078639249
 21
-1233.435298513439
 97
        0
 75
     2
 76
     1
 98
        0
  0
SPLINE
  5
83
330
5F
100
AcDbEntity
  8
katman 1
370
     0
100
AcDbSpline
210
0.0
220
0.0
230
1.0
 70
    11
 71
     3
 72
    35
 73
    31
 74
     0
 42
0.0000000001
 43
0.0000000001
 12
1.0
 22
0.0
 32
0.0
 13
1.0
 23
0.0
 33
0.0
 40
0.0
 40
0.0
 40
0.0
 40
0.0
 40
1.0
 40
1.0
 40
1.0
 40
2.0
 40
2.0
 40
2.0
 40
3.0
 40
3.0
 40
3.0
 40
4.0
 40
4.0
 40
4.0
 40
5.0
 40
5.0
 40
5.0
 40
6.0
 40
6.0
 40
6.0
 40
7.0
 40
7.0
 40
7.0
 40
8.0
 40
8.0
 40
8.0
 40
9.0
 40
9.0
 40
9.0
 40
10.0
 40
10.0
 40
10.0
 40
10.0
 10
891.9445218995188
 20
-1233.435298513439
 30
0.0
 10
891.9445218995188
 20
-1233.435298513439
 30
0.0
 10
891.9445218995188
 20
-1267.180201222316
 30
0.0
 10
891.9445218995188
 20
-1267.180201222316
 30
0.0
 10
891.9445218995188
 20
-1279.952633848552
 30
0.0
 10
897.6104293845128
 20
-1285.365389317863
 30
0.0
 10
905.2232585571182
 20
-1285.365389317863
 30
0.0
 10
913.6816676583912
 20
-1285.365389317863
 30
0.0
 10
919.0944231277035
 20
-1279.780386085306
 30
0.0
 10
919.0944231277035
 20
-1267.180201222316
 30
0.0
 10
919.0944231277035
 20
-1267.180201222316
 30
0.0
 10
919.0944231277035
 20
-1233.435298513439
 30
0.0
 10
919.0944231277035
 20
-1233.435298513439
 30
0.0
 10
919.0944231277035
 20
-1233.435298513439
 30
0.0
 10
926.5350045370615
 20
-1233.435298513439
 30
0.0
 10
926.5350045370615
 20
-1233.435298513439
 30
0.0
 10
926.5350045370615
 20
-1233.435298513439
 30
0.0
 10
926.5350045370615
 20
-1266.673897190951
 30
0.0
 10
926.5350045370615
 20
-1266.673897190951
 30
0.0
 10
926.5350045370615
 20
-1284.18053349189
 30
0.0
 10
917.3171393887442
 20
-1291.367962885568
 30
0.0
 10
904.9701065414365
 20
-1291.367962885568
 30
0.0
 10
893.2990156741444
 20
-1291.367962885568
 30
0.0
 10
884.5013306755664
 20
-1284.686837523255
 30
0.0
 10
884.5013306755664
 20
-1267.013173088257
 30
0.0
 10
884.5013306755664
 20
-1267.013173088257
 30
0.0
 10
884.5013306755664
 20
-1233.435298513439
 30
0.0
 10
884.5013306755664
 20
-1233.435298513439
 30
0.0
 10
884.5013306755664
 20
-1233.435298513439
 30
0.0
 10
891.9445218995188
 20
-1233.435298513439
 30
0.0
 10
891.9445218995188
 20
-1233.435298513439
 30
0.0
  0
HATCH
  5
84
330
5F
100
AcDbEntity
  8
katman 1
 62
     7
420
 16777215
100
AcDbHatch
 10
0.0
 20
0.0
 30
0.0
210
0.0
220
0.0
230
1.0
  2
SOLID
 70
     1
 71
     0
 91
        1
 92
        1
 93
        1
 72
     4
 94
        3
 73
     0
 74
     1
 95
       35
 96
       31
 40
0.0
 40
0.0
 40
0.0
 40
0.0
 40
1.0
 40
1.0
 40
1.0
 40
2.0
 40
2.0
 40
2.0
 40
3.0
 40
3.0
 40
3.0
 40
4.0
 40
4.0
 40
4.0
 40
5.0
 40
5.0
 40
5.0
 40
6.0
 40
6.0
 40
6.0
 40
7.0
 40
7.0
 40
7.0
 40
8.0
 40
8.0
 40
8.0
 40
9.0
 40
9.0
 40
9.0
 40
10.0
 40
10.0
 40
10.0
 40
10.0
 10
891.9445218995188
 20
-1233.435298513439
 10
891.9445218995188
 20
-1233.435298513439
 10
891.9445218995188
 20
-1267.180201222316
 10
891.9445218995188
 20
-1267.180201222316
 10
891.9445218995188
 20
-1279.952633848552
 10
897.6104293845128
 20
-1285.365389317863
 10
905.2232585571182
 20
-1285.365389317863
 10
913.6816676583912
 20
-1285.365389317863
 10
919.0944231277035
 20
-1279.780386085306
 10
919.0944231277035
 20
-1267.180201222316
 10
919.0944231277035
 20
-1267.180201222316
 10
919.0944231277035
 20
-1233.435298513439
 10
919.0944231277035
 20
-1233.435298513439
 10
919.0944231277035
 20
-1233.435298513439
 10
926.5350045370615
 20
-1233.435298513439
 10
926.5350045370615
 20
-1233.435298513439
 10
926.5350045370615
 20
-1233.435298513439
 10
926.5350045370615
 20
-1266.673897190951
 10
926.5350045370615
 20
-1266.673897190951
 10
926.5350045370615
 20
-1284.18053349189
 10
917.3171393887442
 20
-1291.367962885568
 10
904.9701065414365
 20
-1291.367962885568
 10
893.2990156741444
 20
-1291.367962885568
 10
884.5013306755664
 20
-1284.686837523255
 10
884.5013306755664
 20
-1267.013173088257
 10
884.5013306755664
 20
-1267.013173088257
 10
884.5013306755664
 20
-1233.435298513439
 10
884.5013306755664
 20
-1233.435298513439
 10
884.5013306755664
 20
-1233.435298513439
 10
891.9445218995188
 20
-1233.435298513439
 10
891.9445218995188
 20
-1233.435298513439
 97
        0
 97
        0
 75
     2
 76
     1
 98
        0
  0
SPLINE
  5
85
330
5F
100
AcDbEntity
  8
katman 1
370
     0
100
AcDbSpline
210
0.0
220
0.0
230
1.0
 70
    11
 71
     3
 72
    71
 73
    67
 74
     0
 42
0.0000000001
 43
0.0000000001
 12
1.0
 22
0.0
 32
0.0
 13
1.0
 23
0.0
 33
0.0
 40
0.0
 40
0.0
 40
0.0
 40
0.0
 40
1.0
 40
1.0
 40
1.0
 40
2.0
 40
2.0
 40
2.0
 40
3.0
 40
3.0
 40
3.0
 40
4.0
 40
4.0
 40
4.0
 40
5.0
 40
5.0
 40
5.0
 40
6.0
 40
6.0
 40
6.0
 40
7.0
 40
7.0
 40
7.0
 40
8.0
 40
8.0
 40
8.0
 40
9.0
 40
9.0
 40
9.0
 40
10.0
 40
10.0
 40
10.0
 40
11.0
 40
11.0
 40
11.0
 40
12.0
 40
12.0
 40
12.0
 40
13.0
 40
13.0
 40
13.0
 40
14.0
 40
14.0
 40
14.0
 40
15.0
 40
15.0
 40
15.0
 40
16.0
 40
16.0
 40
16.0
 40
17.0
 40
17.0
 40
17.0
 40
18.0
 40
18.0
 40
18.0
 40
19.0
 40
19.0
 40
19.0
 40
20.0
 40
20.0
 40
20.0
 40
21.0
 40
21.0
 40
21.0
 40
22.0
 40
22.0
 40
22.0
 40
22.0
 10
987.3410747779017
 20
-1265.405527297949
 30
0.0
 10
986.9182848135679
 20
-1257.456032042635
 30
0.0
 10
986.4093709676108
 20
-1247.898890997014
 30
0.0
 10
986.4954948492341
 20
-1240.794975670364
 30
0.0
 10
986.4954948492341
 20
-1240.794975670364
 30
0.0
 10
986.2397330189578
 20
-1240.794975670364
 30
0.0
 10
986.2397330189578
 20
-1240.794975670364
 30
0.0
 10
984.295421145941
 20
-1247.47610103268
 30
0.0
 10
981.9283193085894
 20
-1254.580016359327
 30
0.0
 10
979.0523036252816
 20
-1262.445997547613
 30
0.0
 10
979.0523036252816
 20
-1262.445997547613
 30
0.0
 10
968.9862487337014
 20
-1290.099592992567
 30
0.0
 10
968.9862487337014
 20
-1290.099592992567
 30
0.0
 10
968.9862487337014
 20
-1290.099592992567
 30
0.0
 10
963.4064651303315
 20
-1290.099592992567
 30
0.0
 10
963.4064651303315
 20
-1290.099592992567
 30
0.0
 10
963.4064651303315
 20
-1290.099592992567
 30
0.0
 10
954.1859901674188
 20
-1262.952301578975
 30
0.0
 10
954.1859901674188
 20
-1262.952301578975
 30
0.0
 10
951.4796124327631
 20
-1254.919292256633
 30
0.0
 10
949.1960246624412
 20
-1247.559615099708
 30
0.0
 10
947.5909886867285
 20
-1240.794975670364
 30
0.0
 10
947.5909886867285
 20
-1240.794975670364
 30
0.0
 10
947.4213507380764
 20
-1240.794975670364
 30
0.0
 10
947.4213507380764
 20
-1240.794975670364
 30
0.0
 10
947.2517127894243
 20
-1247.898890997014
 30
0.0
 10
946.8289228250896
 20
-1257.456032042635
 30
0.0
 10
946.3226187937271
 20
-1265.995345396343
 30
0.0
 10
946.3226187937271
 20
-1265.995345396343
 30
0.0
 10
944.7984870704495
 20
-1290.438868889869
 30
0.0
 10
944.7984870704495
 20
-1290.438868889869
 30
0.0
 10
944.7984870704495
 20
-1290.438868889869
 30
0.0
 10
937.7806956254253
 20
-1290.438868889869
 30
0.0
 10
937.7806956254253
 20
-1290.438868889869
 30
0.0
 10
937.7806956254253
 20
-1290.438868889869
 30
0.0
 10
941.7554432530833
 20
-1233.435298513439
 30
0.0
 10
941.7554432530833
 20
-1233.435298513439
 30
0.0
 10
941.7554432530833
 20
-1233.435298513439
 30
0.0
 10
951.1429463500526
 20
-1233.435298513439
 30
0.0
 10
951.1429463500526
 20
-1233.435298513439
 30
0.0
 10
951.1429463500526
 20
-1233.435298513439
 30
0.0
 10
960.8671155297334
 20
-1261.005379891365
 30
0.0
 10
960.8671155297334
 20
-1261.005379891365
 30
0.0
 10
963.2368271816786
 20
-1268.025781150984
 30
0.0
 10
965.1811390546964
 20
-1274.284116548963
 30
0.0
 10
966.6191468963507
 20
-1280.203176049639
 30
0.0
 10
966.6191468963507
 20
-1280.203176049639
 30
0.0
 10
966.8722989120315
 20
-1280.203176049639
 30
0.0
 10
966.8722989120315
 20
-1280.203176049639
 30
0.0
 10
968.3103067536858
 20
-1274.456364312209
 30
0.0
 10
970.3407425083269
 20
-1268.19802891423
 30
0.0
 10
972.8774822943305
 20
-1261.005379891365
 30
0.0
 10
972.8774822943305
 20
-1261.005379891365
 30
0.0
 10
983.0270512529387
 20
-1233.435298513439
 30
0.0
 10
983.0270512529387
 20
-1233.435298513439
 30
0.0
 10
983.0270512529387
 20
-1233.435298513439
 30
0.0
 10
992.4145543499089
 20
-1233.435298513439
 30
0.0
 10
992.4145543499089
 20
-1233.435298513439
 30
0.0
 10
992.4145543499089
 20
-1233.435298513439
 30
0.0
 10
995.9665120132331
 20
-1290.438868889869
 30
0.0
 10
995.9665120132331
 20
-1290.438868889869
 30
0.0
 10
995.9665120132331
 20
-1290.438868889869
 30
0.0
 10
988.779082619556
 20
-1290.438868889869
 30
0.0
 10
988.779082619556
 20
-1290.438868889869
 30
0.0
 10
988.779082619556
 20
-1290.438868889869
 30
0.0
 10
987.3410747779017
 20
-1265.405527297949
 30
0.0
 10
987.3410747779017
 20
-1265.405527297949
 30
0.0
  0
HATCH
  5
86
330
5F
100
AcDbEntity
  8
katman 1
 62
     7
420
 16777215
100
AcDbHatch
 10
0.0
 20
0.0
 30
0.0
210
0.0
220
0.0
230
1.0
  2
SOLID
 70
     1
 71
     0
 91
        1
 92
        1
 93
        1
 72
     4
 94
        3
 73
     0
 74
     1
 95
       71
 96
       67
 40
0.0
 40
0.0
 40
0.0
 40
0.0
 40
1.0
 40
1.0
 40
1.0
 40
2.0
 40
2.0
 40
2.0
 40
3.0
 40
3.0
 40
3.0
 40
4.0
 40
4.0
 40
4.0
 40
5.0
 40
5.0
 40
5.0
 40
6.0
 40
6.0
 40
6.0
 40
7.0
 40
7.0
 40
7.0
 40
8.0
 40
8.0
 40
8.0
 40
9.0
 40
9.0
 40
9.0
 40
10.0
 40
10.0
 40
10.0
 40
11.0
 40
11.0
 40
11.0
 40
12.0
 40
12.0
 40
12.0
 40
13.0
 40
13.0
 40
13.0
 40
14.0
 40
14.0
 40
14.0
 40
15.0
 40
15.0
 40
15.0
 40
16.0
 40
16.0
 40
16.0
 40
17.0
 40
17.0
 40
17.0
 40
18.0
 40
18.0
 40
18.0
 40
19.0
 40
19.0
 40
19.0
 40
20.0
 40
20.0
 40
20.0
 40
21.0
 40
21.0
 40
21.0
 40
22.0
 40
22.0
 40
22.0
 40
22.0
 10
987.3410747779017
 20
-1265.405527297949
 10
986.9182848135679
 20
-1257.456032042635
 10
986.4093709676108
 20
-1247.898890997014
 10
986.4954948492341
 20
-1240.794975670364
 10
986.4954948492341
 20
-1240.794975670364
 10
986.2397330189578
 20
-1240.794975670364
 10
986.2397330189578
 20
-1240.794975670364
 10
984.295421145941
 20
-1247.47610103268
 10
981.9283193085894
 20
-1254.580016359327
 10
979.0523036252816
 20
-1262.445997547613
 10
979.0523036252816
 20
-1262.445997547613
 10
968.9862487337014
 20
-1290.099592992567
 10
968.9862487337014
 20
-1290.099592992567
 10
968.9862487337014
 20
-1290.099592992567
 10
963.4064651303315
 20
-1290.099592992567
 10
963.4064651303315
 20
-1290.099592992567
 10
963.4064651303315
 20
-1290.099592992567
 10
954.1859901674188
 20
-1262.952301578975
 10
954.1859901674188
 20
-1262.952301578975
 10
951.4796124327631
 20
-1254.919292256633
 10
949.1960246624412
 20
-1247.559615099708
 10
947.5909886867285
 20
-1240.794975670364
 10
947.5909886867285
 20
-1240.794975670364
 10
947.4213507380764
 20
-1240.794975670364
 10
947.4213507380764
 20
-1240.794975670364
 10
947.2517127894243
 20
-1247.898890997014
 10
946.8289228250896
 20
-1257.456032042635
 10
946.3226187937271
 20
-1265.995345396343
 10
946.3226187937271
 20
-1265.995345396343
 10
944.7984870704495
 20
-1290.438868889869
 10
944.7984870704495
 20
-1290.438868889869
 10
944.7984870704495
 20
-1290.438868889869
 10
937.7806956254253
 20
-1290.438868889869
 10
937.7806956254253
 20
-1290.438868889869
 10
937.7806956254253
 20
-1290.438868889869
 10
941.7554432530833
 20
-1233.435298513439
 10
941.7554432530833
 20
-1233.435298513439
 10
941.7554432530833
 20
-1233.435298513439
 10
951.1429463500526
 20
-1233.435298513439
 10
951.1429463500526
 20
-1233.435298513439
 10
951.1429463500526
 20
-1233.435298513439
 10
960.8671155297334
 20
-1261.005379891365
 10
960.8671155297334
 20
-1261.005379891365
 10
963.2368271816786
 20
-1268.025781150984
 10
965.1811390546964
 20
-1274.284116548963
 10
966.6191468963507
 20
-1280.203176049639
 10
966.6191468963507
 20
-1280.203176049639
 10
966.8722989120315
 20
-1280.203176049639
 10
966.8722989120315
 20
-1280.203176049639
 10
968.3103067536858
 20
-1274.456364312209
 10
970.3407425083269
 20
-1268.19802891423
 10
972.8774822943305
 20
-1261.005379891365
 10
972.8774822943305
 20
-1261.005379891365
 10
983.0270512529387
 20
-1233.435298513439
 10
983.0270512529387
 20
-1233.435298513439
 10
983.0270512529387
 20
-1233.435298513439
 10
992.4145543499089
 20
-1233.435298513439
 10
992.4145543499089
 20
-1233.435298513439
 10
992.4145543499089
 20
-1233.435298513439
 10
995.9665120132331
 20
-1290.438868889869
 10
995.9665120132331
 20
-1290.438868889869
 10
995.9665120132331
 20
-1290.438868889869
 10
988.779082619556
 20
-1290.438868889869
 10
988.779082619556
 20
-1290.438868889869
 10
988.779082619556
 20
-1290.438868889869
 10
987.3410747779017
 20
-1265.405527297949
 10
987.3410747779017
 20
-1265.405527297949
 97
        0
 97
        0
 75
     2
 76
     1
 98
        0
  0
SPLINE
  5
87
330
5F
100
AcDbEntity
  8
katman 1
370
     0
100
AcDbSpline
210
0.0
220
0.0
230
1.0
 70
    11
 71
     3
 72
    32
 73
    28
 74
     0
 42
0.0000000001
 43
0.0000000001
 12
1.0
 22
0.0
 32
0.0
 13
1.0
 23
0.0
 33
0.0
 40
0.0
 40
0.0
 40
0.0
 40
0.0
 40
1.0
 40
1.0
 40
1.0
 40
2.0
 40
2.0
 40
2.0
 40
3.0
 40
3.0
 40
3.0
 40
4.0
 40
4.0
 40
4.0
 40
5.0
 40
5.0
 40
5.0
 40
6.0
 40
6.0
 40
6.0
 40
7.0
 40
7.0
 40
7.0
 40
8.0
 40
8.0
 40
8.0
 40
9.0
 40
9.0
 40
9.0
 40
9.0
 10
1072.246172985775
 20
-1298.81115410952
 30
0.0
 10
1064.549829746142
 20
-1296.780718354879
 30
0.0
 10
1057.023124455161
 20
-1294.499740399151
 30
0.0
 10
1050.425513159875
 20
-1292.213542814236
 30
0.0
 10
1049.240657333903
 20
-1291.790752849902
 30
0.0
 10
1048.058411322523
 20
-1291.367962885568
 30
0.0
 10
1046.957069563581
 20
-1291.367962885568
 30
0.0
 10
1033.425180890299
 20
-1290.861658854203
 30
0.0
 10
1021.84021390463
 20
-1280.881727844248
 30
0.0
 10
1021.84021390463
 20
-1262.529511614641
 30
0.0
 10
1021.84021390463
 20
-1244.260809452066
 30
0.0
 10
1033.002390925965
 20
-1232.506204517744
 30
0.0
 10
1048.395077405235
 20
-1232.506204517744
 30
0.0
 10
1063.873887766127
 20
-1232.506204517744
 30
0.0
 10
1073.937332843112
 20
-1244.51657128234
 30
0.0
 10
1073.937332843112
 20
-1261.344655788671
 30
0.0
 10
1073.937332843112
 20
-1275.975276406298
 30
0.0
 10
1067.170083599174
 20
-1285.365389317863
 30
0.0
 10
1057.699066435176
 20
-1288.664194965506
 30
0.0
 10
1057.699066435176
 20
-1288.664194965506
 30
0.0
 10
1057.699066435176
 20
-1289.003470862812
 30
0.0
 10
1057.699066435176
 20
-1289.003470862812
 30
0.0
 10
1063.364973920168
 20
-1290.438868889869
 30
0.0
 10
1069.539795251119
 20
-1291.790752849902
 30
0.0
 10
1074.360122807446
 20
-1292.636332778569
 30
0.0
 10
1074.360122807446
 20
-1292.636332778569
 30
0.0
 10
1072.246172985775
 20
-1298.81115410952
 30
0.0
 10
1072.246172985775
 20
-1298.81115410952
 30
0.0
  0
SPLINE
  5
88
330
5F
100
AcDbEntity
  8
katman 1
370
     0
100
AcDbSpline
210
0.0
220
0.0
230
1.0
 70
    11
 71
     3
 72
    17
 73
    13
 74
     0
 42
0.0000000001
 43
0.0000000001
 12
1.0
 22
0.0
 32
0.0
 13
1.0
 23
0.0
 33
0.0
 40
0.0
 40
0.0
 40
0.0
 40
0.0
 40
1.0
 40
1.0
 40
1.0
 40
2.0
 40
2.0
 40
2.0
 40
3.0
 40
3.0
 40
3.0
 40
4.0
 40
4.0
 40
4.0
 40
4.0
 10
1066.157475536449
 20
-1261.683931685973
 30
0.0
 10
1066.157475536449
 20
-1250.268602648957
 30
0.0
 10
1060.235806221179
 20
-1238.508778085448
 30
0.0
 10
1048.141925389553
 20
-1238.508778085448
 30
0.0
 10
1035.708768660621
 20
-1238.508778085448
 30
0.0
 10
1029.620071211295
 20
-1250.012840818683
 30
0.0
 10
1029.703585278323
 20
-1262.362483480585
 30
0.0
 10
1029.620071211295
 20
-1274.456364312209
 30
0.0
 10
1036.301196573608
 20
-1285.365389317863
 30
0.0
 10
1047.802649492249
 20
-1285.365389317863
 30
0.0
 10
1059.559864241164
 20
-1285.365389317863
 30
0.0
 10
1066.157475536449
 20
-1274.706906513296
 30
0.0
 10
1066.157475536449
 20
-1261.683931685973
 30
0.0
  0
HATCH
  5
89
330
5F
100
AcDbEntity
  8
katman 1
 62
     7
420
 16777215
100
AcDbHatch
 10
0.0
 20
0.0
 30
0.0
210
0.0
220
0.0
230
1.0
  2
SOLID
 70
     1
 71
     0
 91
        2
 92
        1
 93
        1
 72
     4
 94
        3
 73
     0
 74
     1
 95
       32
 96
       28
 40
0.0
 40
0.0
 40
0.0
 40
0.0
 40
1.0
 40
1.0
 40
1.0
 40
2.0
 40
2.0
 40
2.0
 40
3.0
 40
3.0
 40
3.0
 40
4.0
 40
4.0
 40
4.0
 40
5.0
 40
5.0
 40
5.0
 40
6.0
 40
6.0
 40
6.0
 40
7.0
 40
7.0
 40
7.0
 40
8.0
 40
8.0
 40
8.0
 40
9.0
 40
9.0
 40
9.0
 40
9.0
 10
1072.246172985775
 20
-1298.81115410952
 10
1064.549829746142
 20
-1296.780718354879
 10
1057.023124455161
 20
-1294.499740399151
 10
1050.425513159875
 20
-1292.213542814236
 10
1049.240657333903
 20
-1291.790752849902
 10
1048.058411322523
 20
-1291.367962885568
 10
1046.957069563581
 20
-1291.367962885568
 10
1033.425180890299
 20
-1290.861658854203
 10
1021.84021390463
 20
-1280.881727844248
 10
1021.84021390463
 20
-1262.529511614641
 10
1021.84021390463
 20
-1244.260809452066
 10
1033.002390925965
 20
-1232.506204517744
 10
1048.395077405235
 20
-1232.506204517744
 10
1063.873887766127
 20
-1232.506204517744
 10
1073.937332843112
 20
-1244.51657128234
 10
1073.937332843112
 20
-1261.344655788671
 10
1073.937332843112
 20
-1275.975276406298
 10
1067.170083599174
 20
-1285.365389317863
 10
1057.699066435176
 20
-1288.664194965506
 10
1057.699066435176
 20
-1288.664194965506
 10
1057.699066435176
 20
-1289.003470862812
 10
1057.699066435176
 20
-1289.003470862812
 10
1063.364973920168
 20
-1290.438868889869
 10
1069.539795251119
 20
-1291.790752849902
 10
1074.360122807446
 20
-1292.636332778569
 10
1074.360122807446
 20
-1292.636332778569
 10
1072.246172985775
 20
-1298.81115410952
 10
1072.246172985775
 20
-1298.81115410952
 97
        0
 97
        0
 92
        1
 93
        1
 72
     4
 94
        3
 73
     0
 74
     1
 95
       17
 96
       13
 40
0.0
 40
0.0
 40
0.0
 40
0.0
 40
1.0
 40
1.0
 40
1.0
 40
2.0
 40
2.0
 40
2.0
 40
3.0
 40
3.0
 40
3.0
 40
4.0
 40
4.0
 40
4.0
 40
4.0
 10
1066.157475536449
 20
-1261.683931685973
 10
1066.157475536449
 20
-1250.268602648957
 10
1060.235806221179
 20
-1238.508778085448
 10
1048.141925389553
 20
-1238.508778085448
 10
1035.708768660621
 20
-1238.508778085448
 10
1029.620071211295
 20
-1250.012840818683
 10
1029.703585278323
 20
-1262.362483480585
 10
1029.620071211295
 20
-1274.456364312209
 10
1036.301196573608
 20
-1285.365389317863
 10
1047.802649492249
 20
-1285.365389317863
 10
1059.559864241164
 20
-1285.365389317863
 10
1066.157475536449
 20
-1274.706906513296
 10
1066.157475536449
 20
-1261.683931685973
 97
        0
 97
        0
 75
     2
 76
     1
 98
        0
  0
SPLINE
  5
8A
330
5F
100
AcDbEntity
  8
katman 1
370
     0
100
AcDbSpline
210
0.0
220
0.0
230
1.0
 70
    11
 71
     3
 72
    35
 73
    31
 74
     0
 42
0.0000000001
 43
0.0000000001
 12
1.0
 22
0.0
 32
0.0
 13
1.0
 23
0.0
 33
0.0
 40
0.0
 40
0.0
 40
0.0
 40
0.0
 40
1.0
 40
1.0
 40
1.0
 40
2.0
 40
2.0
 40
2.0
 40
3.0
 40
3.0
 40
3.0
 40
4.0
 40
4.0
 40
4.0
 40
5.0
 40
5.0
 40
5.0
 40
6.0
 40
6.0
 40
6.0
 40
7.0
 40
7.0
 40
7.0
 40
8.0
 40
8.0
 40
8.0
 40
9.0
 40
9.0
 40
9.0
 40
10.0
 40
10.0
 40
10.0
 40
10.0
 10
1090.848931416469
 20
-1233.435298513439
 30
0.0
 10
1090.848931416469
 20
-1233.435298513439
 30
0.0
 10
1090.848931416469
 20
-1267.180201222316
 30
0.0
 10
1090.848931416469
 20
-1267.180201222316
 30
0.0
 10
1090.848931416469
 20
-1279.952633848552
 30
0.0
 10
1096.514838901461
 20
-1285.365389317863
 30
0.0
 10
1104.127668074067
 20
-1285.365389317863
 30
0.0
 10
1112.58607717534
 20
-1285.365389317863
 30
0.0
 10
1117.998832644653
 20
-1279.780386085306
 30
0.0
 10
1117.998832644653
 20
-1267.180201222316
 30
0.0
 10
1117.998832644653
 20
-1267.180201222316
 30
0.0
 10
1117.998832644653
 20
-1233.435298513439
 30
0.0
 10
1117.998832644653
 20
-1233.435298513439
 30
0.0
 10
1117.998832644653
 20
-1233.435298513439
 30
0.0
 10
1125.439414054012
 20
-1233.435298513439
 30
0.0
 10
1125.439414054012
 20
-1233.435298513439
 30
0.0
 10
1125.439414054012
 20
-1233.435298513439
 30
0.0
 10
1125.439414054012
 20
-1266.673897190951
 30
0.0
 10
1125.439414054012
 20
-1266.673897190951
 30
0.0
 10
1125.439414054012
 20
-1284.18053349189
 30
0.0
 10
1116.221548905694
 20
-1291.367962885568
 30
0.0
 10
1103.874516058386
 20
-1291.367962885568
 30
0.0
 10
1092.203425191095
 20
-1291.367962885568
 30
0.0
 10
1083.405740192517
 20
-1284.686837523255
 30
0.0
 10
1083.405740192517
 20
-1267.013173088257
 30
0.0
 10
1083.405740192517
 20
-1267.013173088257
 30
0.0
 10
1083.405740192517
 20
-1233.435298513439
 30
0.0
 10
1083.405740192517
 20
-1233.435298513439
 30
0.0
 10
1083.405740192517
 20
-1233.435298513439
 30
0.0
 10
1090.848931416469
 20
-1233.435298513439
 30
0.0
 10
1090.848931416469
 20
-1233.435298513439
 30
0.0
  0
HATCH
  5
8B
330
5F
100
AcDbEntity
  8
katman 1
 62
     7
420
 16777215
100
AcDbHatch
 10
0.0
 20
0.0
 30
0.0
210
0.0
220
0.0
230
1.0
  2
SOLID
 70
     1
 71
     0
 91
        1
 92
        1
 93
        1
 72
     4
 94
        3
 73
     0
 74
     1
 95
       35
 96
       31
 40
0.0
 40
0.0
 40
0.0
 40
0.0
 40
1.0
 40
1.0
 40
1.0
 40
2.0
 40
2.0
 40
2.0
 40
3.0
 40
3.0
 40
3.0
 40
4.0
 40
4.0
 40
4.0
 40
5.0
 40
5.0
 40
5.0
 40
6.0
 40
6.0
 40
6.0
 40
7.0
 40
7.0
 40
7.0
 40
8.0
 40
8.0
 40
8.0
 40
9.0
 40
9.0
 40
9.0
 40
10.0
 40
10.0
 40
10.0
 40
10.0
 10
1090.848931416469
 20
-1233.435298513439
 10
1090.848931416469
 20
-1233.435298513439
 10
1090.848931416469
 20
-1267.180201222316
 10
1090.848931416469
 20
-1267.180201222316
 10
1090.848931416469
 20
-1279.952633848552
 10
1096.514838901461
 20
-1285.365389317863
 10
1104.127668074067
 20
-1285.365389317863
 10
1112.58607717534
 20
-1285.365389317863
 10
1117.998832644653
 20
-1279.780386085306
 10
1117.998832644653
 20
-1267.180201222316
 10
1117.998832644653
 20
-1267.180201222316
 10
1117.998832644653
 20
-1233.435298513439
 10
1117.998832644653
 20
-1233.435298513439
 10
1117.998832644653
 20
-1233.435298513439
 10
1125.439414054012
 20
-1233.435298513439
 10
1125.439414054012
 20
-1233.435298513439
 10
1125.439414054012
 20
-1233.435298513439
 10
1125.439414054012
 20
-1266.673897190951
 10
1125.439414054012
 20
-1266.673897190951
 10
1125.439414054012
 20
-1284.18053349189
 10
1116.221548905694
 20
-1291.367962885568
 10
1103.874516058386
 20
-1291.367962885568
 10
1092.203425191095
 20
-1291.367962885568
 10
1083.405740192517
 20
-1284.686837523255
 10
1083.405740192517
 20
-1267.013173088257
 10
1083.405740192517
 20
-1267.013173088257
 10
1083.405740192517
 20
-1233.435298513439
 10
1083.405740192517
 20
-1233.435298513439
 10
1083.405740192517
 20
-1233.435298513439
 10
1090.848931416469
 20
-1233.435298513439
 10
1090.848931416469
 20
-1233.435298513439
 97
        0
 97
        0
 75
     2
 76
     1
 98
        0
  0
POLYLINE
  5
8C
330
5F
100
AcDbEntity
  8
katman 1
370
     0
100
AcDb2dPolyline
 66
     1
 10
0.0
 20
0.0
 30
0.0
  0
VERTEX
  5
8D
330
8C
100
AcDbEntity
  8
katman 1
370
     0
100
AcDbVertex
100
AcDb2dVertex
 10
1144.551086330663
 20
-1272.5094426246
 30
0.0
  0
VERTEX
  5
8E
330
8C
100
AcDbEntity
  8
katman 1
370
     0
100
AcDbVertex
100
AcDb2dVertex
 10
1138.632026829986
 20
-1290.438868889869
 30
0.0
  0
VERTEX
  5
8F
330
8C
100
AcDbEntity
  8
katman 1
370
     0
100
AcDbVertex
100
AcDb2dVertex
 10
1131.019197657381
 20
-1290.438868889869
 30
0.0
  0
VERTEX
  5
90
330
8C
100
AcDbEntity
  8
katman 1
370
     0
100
AcDbVertex
100
AcDb2dVertex
 10
1150.386631764308
 20
-1233.435298513439
 30
0.0
  0
VERTEX
  5
91
330
8C
100
AcDbEntity
  8
katman 1
370
     0
100
AcDbVertex
100
AcDb2dVertex
 10
1159.267830829915
 20
-1233.435298513439
 30
0.0
  0
VERTEX
  5
92
330
8C
100
AcDbEntity
  8
katman 1
370
     0
100
AcDbVertex
100
AcDb2dVertex
 10
1178.71877900387
 20
-1290.438868889869
 30
0.0
  0
VERTEX
  5
93
330
8C
100
AcDbEntity
  8
katman 1
370
     0
100
AcDbVertex
100
AcDb2dVertex
 10
1170.852797815583
 20
-1290.438868889869
 30
0.0
  0
VERTEX
  5
94
330
8C
100
AcDbEntity
  8
katman 1
370
     0
100
AcDbVertex
100
AcDb2dVertex
 10
1164.764100366256
 20
-1272.5094426246
 30
0.0
  0
VERTEX
  5
95
330
8C
100
AcDbEntity
  8
katman 1
370
     0
100
AcDbVertex
100
AcDb2dVertex
 10
1144.551086330663
 20
-1272.5094426246
 30
0.0
  0
SEQEND
  5
96
330
8C
100
AcDbEntity
  8
katman 1
370
     0
  0
SPLINE
  5
97
330
5F
100
AcDbEntity
  8
katman 1
370
     0
100
AcDbSpline
210
0.0
220
0.0
230
1.0
 70
    11
 71
     3
 72
    23
 73
    19
 74
     0
 42
0.0000000001
 43
0.0000000001
 12
1.0
 22
0.0
 32
0.0
 13
1.0
 23
0.0
 33
0.0
 40
0.0
 40
0.0
 40
0.0
 40
0.0
 40
1.0
 40
1.0
 40
1.0
 40
2.0
 40
2.0
 40
2.0
 40
3.0
 40
3.0
 40
3.0
 40
4.0
 40
4.0
 40
4.0
 40
5.0
 40
5.0
 40
5.0
 40
6.0
 40
6.0
 40
6.0
 40
6.0
 10
1163.242578457572
 20
-1266.757411257982
 30
0.0
 10
1163.242578457572
 20
-1266.757411257982
 30
0.0
 10
1157.660185039607
 20
-1250.352116715989
 30
0.0
 10
1157.660185039607
 20
-1250.352116715989
 30
0.0
 10
1156.391815146606
 20
-1246.630521104009
 30
0.0
 10
1155.546235217938
 20
-1243.248201389339
 30
0.0
 10
1154.700655289271
 20
-1239.949395741696
 30
0.0
 10
1154.700655289271
 20
-1239.949395741696
 30
0.0
 10
1154.531017340618
 20
-1239.949395741696
 30
0.0
 10
1154.531017340618
 20
-1239.949395741696
 30
0.0
 10
1153.68543741195
 20
-1243.331715456367
 30
0.0
 10
1152.756343416253
 20
-1246.797549238068
 30
0.0
 10
1151.655001657309
 20
-1250.268602648957
 30
0.0
 10
1151.655001657309
 20
-1250.268602648957
 30
0.0
 10
1146.072608239345
 20
-1266.757411257982
 30
0.0
 10
1146.072608239345
 20
-1266.757411257982
 30
0.0
 10
1146.072608239345
 20
-1266.757411257982
 30
0.0
 10
1163.242578457572
 20
-1266.757411257982
 30
0.0
 10
1163.242578457572
 20
-1266.757411257982
 30
0.0
  0
HATCH
  5
98
330
5F
100
AcDbEntity
  8
katman 1
 62
     7
420
 16777215
100
AcDbHatch
 10
0.0
 20
0.0
 30
0.0
210
0.0
220
0.0
230
1.0
  2
SOLID
 70
     1
 71
     0
 91
        2
 92
        1
 93
        8
 72
     1
 10
1144.551086330663
 20
-1272.5094426246
 11
1138.632026829986
 21
-1290.438868889869
 72
     1
 10
1138.632026829986
 20
-1290.438868889869
 11
1131.019197657381
 21
-1290.438868889869
 72
     1
 10
1131.019197657381
 20
-1290.438868889869
 11
1150.386631764308
 21
-1233.435298513439
 72
     1
 10
1150.386631764308
 20
-1233.435298513439
 11
1159.267830829915
 21
-1233.435298513439
 72
     1
 10
1159.267830829915
 20
-1233.435298513439
 11
1178.71877900387
 21
-1290.438868889869
 72
     1
 10
1178.71877900387
 20
-1290.438868889869
 11
1170.852797815583
 21
-1290.438868889869
 72
     1
 10
1170.852797815583
 20
-1290.438868889869
 11
1164.764100366256
 21
-1272.5094426246
 72
     1
 10
1164.764100366256
 20
-1272.5094426246
 11
1144.551086330663
 21
-1272.5094426246
 97
        0
 92
        1
 93
        1
 72
     4
 94
        3
 73
     0
 74
     1
 95
       23
 96
       19
 40
0.0
 40
0.0
 40
0.0
 40
0.0
 40
1.0
 40
1.0
 40
1.0
 40
2.0
 40
2.0
 40
2.0
 40
3.0
 40
3.0
 40
3.0
 40
4.0
 40
4.0
 40
4.0
 40
5.0
 40
5.0
 40
5.0
 40
6.0
 40
6.0
 40
6.0
 40
6.0
 10
1163.242578457572
 20
-1266.757411257982
 10
1163.242578457572
 20
-1266.757411257982
 10
1157.660185039607
 20
-1250.352116715989
 10
1157.660185039607
 20
-1250.352116715989
 10
1156.391815146606
 20
-1246.630521104009
 10
1155.546235217938
 20
-1243.248201389339
 10
1154.700655289271
 20
-1239.949395741696
 10
1154.700655289271
 20
-1239.949395741696
 10
1154.531017340618
 20
-1239.949395741696
 10
1154.531017340618
 20
-1239.949395741696
 10
1153.68543741195
 20
-1243.331715456367
 10
1152.756343416253
 20
-1246.797549238068
 10
1151.655001657309
 20
-1250.268602648957
 10
1151.655001657309
 20
-1250.268602648957
 10
1146.072608239345
 20
-1266.757411257982
 10
1146.072608239345
 20
-1266.757411257982
 10
1146.072608239345
 20
-1266.757411257982
 10
1163.242578457572
 20
-1266.757411257982
 10
1163.242578457572
 20
-1266.757411257982
 97
        0
 97
        0
 75
     2
 76
     1
 98
        0
  0
POLYLINE
  5
99
330
5F
100
AcDbEntity
  8
katman 1
370
     0
100
AcDb2dPolyline
 66
     1
 10
0.0
 20
0.0
 30
0.0
  0
VERTEX
  5
9A
330
99
100
AcDbEntity
  8
katman 1
370
     0
100
AcDbVertex
100
AcDb2dVertex
 10
1187.088454408924
 20
-1233.435298513439
 30
0.0
  0
VERTEX
  5
9B
330
99
100
AcDbEntity
  8
katman 1
370
     0
100
AcDbVertex
100
AcDb2dVertex
 10
1194.445521751255
 20
-1233.435298513439
 30
0.0
  0
VERTEX
  5
9C
330
99
100
AcDbEntity
  8
katman 1
370
     0
100
AcDbVertex
100
AcDb2dVertex
 10
1194.445521751255
 20
-1284.264047558918
 30
0.0
  0
VERTEX
  5
9D
330
99
100
AcDbEntity
  8
katman 1
370
     0
100
AcDbVertex
100
AcDb2dVertex
 10
1218.80292136316
 20
-1284.264047558918
 30
0.0
  0
VERTEX
  5
9E
330
99
100
AcDbEntity
  8
katman 1
370
     0
100
AcDbVertex
100
AcDb2dVertex
 10
1218.80292136316
 20
-1290.438868889869
 30
0.0
  0
VERTEX
  5
9F
330
99
100
AcDbEntity
  8
katman 1
370
     0
100
AcDbVertex
100
AcDb2dVertex
 10
1187.088454408924
 20
-1290.438868889869
 30
0.0
  0
VERTEX
  5
A0
330
99
100
AcDbEntity
  8
katman 1
370
     0
100
AcDbVertex
100
AcDb2dVertex
 10
1187.088454408924
 20
-1233.435298513439
 30
0.0
  0
SEQEND
  5
A1
330
99
100
AcDbEntity
  8
katman 1
370
     0
  0
HATCH
  5
A2
330
5F
100
AcDbEntity
  8
katman 1
 62
     7
420
 16777215
100
AcDbHatch
 10
0.0
 20
0.0
 30
0.0
210
0.0
220
0.0
230
1.0
  2
SOLID
 70
     1
 71
     0
 91
        1
 92
        1
 93
        6
 72
     1
 10
1187.088454408924
 20
-1233.435298513439
 11
1194.445521751255
 21
-1233.435298513439
 72
     1
 10
1194.445521751255
 20
-1233.435298513439
 11
1194.445521751255
 21
-1284.264047558918
 72
     1
 10
1194.445521751255
 20
-1284.264047558918
 11
1218.80292136316
 21
-1284.264047558918
 72
     1
 10
1218.80292136316
 20
-1284.264047558918
 11
1218.80292136316
 21
-1290.438868889869
 72
     1
 10
1218.80292136316
 20
-1290.438868889869
 11
1187.088454408924
 21
-1290.438868889869
 72
     1
 10
1187.088454408924
 20
-1290.438868889869
 11
1187.088454408924
 21
-1233.435298513439
 97
        0
 75
     2
 76
     1
 98
        0
  0
POLYLINE
  5
A3
330
5F
100
AcDbEntity
  8
katman 1
370
     0
100
AcDb2dPolyline
 66
     1
 10
0.0
 20
0.0
 30
0.0
  0
VERTEX
  5
A4
330
A3
100
AcDbEntity
  8
katman 1
370
     0
100
AcDbVertex
100
AcDb2dVertex
 10
1234.362635976486
 20
-1233.435298513439
 30
0.0
  0
VERTEX
  5
A5
330
A3
100
AcDbEntity
  8
katman 1
370
     0
100
AcDbVertex
100
AcDb2dVertex
 10
1234.362635976486
 20
-1290.438868889869
 30
0.0
  0
VERTEX
  5
A6
330
A3
100
AcDbEntity
  8
katman 1
370
     0
100
AcDbVertex
100
AcDb2dVertex
 10
1227.005568634155
 20
-1290.438868889869
 30
0.0
  0
VERTEX
  5
A7
330
A3
100
AcDbEntity
  8
katman 1
370
     0
100
AcDbVertex
100
AcDb2dVertex
 10
1227.005568634155
 20
-1233.435298513439
 30
0.0
  0
VERTEX
  5
A8
330
A3
100
AcDbEntity
  8
katman 1
370
     0
100
AcDbVertex
100
AcDb2dVertex
 10
1234.362635976486
 20
-1233.435298513439
 30
0.0
  0
SEQEND
  5
A9
330
A3
100
AcDbEntity
  8
katman 1
370
     0
  0
HATCH
  5
AA
330
5F
100
AcDbEntity
  8
katman 1
 62
     7
420
 16777215
100
AcDbHatch
 10
0.0
 20
0.0
 30
0.0
210
0.0
220
0.0
230
1.0
  2
SOLID
 70
     1
 71
     0
 91
        1
 92
        1
 93
        4
 72
     1
 10
1234.362635976486
 20
-1233.435298513439
 11
1234.362635976486
 21
-1290.438868889869
 72
     1
 10
1234.362635976486
 20
-1290.438868889869
 11
1227.005568634155
 21
-1290.438868889869
 72
     1
 10
1227.005568634155
 20
-1290.438868889869
 11
1227.005568634155
 21
-1233.435298513439
 72
     1
 10
1227.005568634155
 20
-1233.435298513439
 11
1234.362635976486
 21
-1233.435298513439
 97
        0
 75
     2
 76
     1
 98
        0
  0
POLYLINE
  5
AB
330
5F
100
AcDbEntity
  8
katman 1
370
     0
100
AcDb2dPolyline
 66
     1
 10
0.0
 20
0.0
 30
0.0
  0
VERTEX
  5
AC
330
AB
100
AcDbEntity
  8
katman 1
370
     0
100
AcDbVertex
100
AcDb2dVertex
 10
1258.041483793779
 20
-1239.693633911422
 30
0.0
  0
VERTEX
  5
AD
330
AB
100
AcDbEntity
  8
katman 1
370
     0
100
AcDbVertex
100
AcDb2dVertex
 10
1240.704485441493
 20
-1239.693633911422
 30
0.0
  0
VERTEX
  5
AE
330
AB
100
AcDbEntity
  8
katman 1
370
     0
100
AcDbVertex
100
AcDb2dVertex
 10
1240.704485441493
 20
-1233.435298513439
 30
0.0
  0
VERTEX
  5
AF
330
AB
100
AcDbEntity
  8
katman 1
370
     0
100
AcDbVertex
100
AcDb2dVertex
 10
1282.905187437047
 20
-1233.435298513439
 30
0.0
  0
VERTEX
  5
B0
330
AB
100
AcDbEntity
  8
katman 1
370
     0
100
AcDbVertex
100
AcDb2dVertex
 10
1282.905187437047
 20
-1239.693633911422
 30
0.0
  0
VERTEX
  5
B1
330
AB
100
AcDbEntity
  8
katman 1
370
     0
100
AcDbVertex
100
AcDb2dVertex
 10
1265.484675017731
 20
-1239.693633911422
 30
0.0
  0
VERTEX
  5
B2
330
AB
100
AcDbEntity
  8
katman 1
370
     0
100
AcDbVertex
100
AcDb2dVertex
 10
1265.484675017731
 20
-1290.438868889869
 30
0.0
  0
VERTEX
  5
B3
330
AB
100
AcDbEntity
  8
katman 1
370
     0
100
AcDbVertex
100
AcDb2dVertex
 10
1258.041483793779
 20
-1290.438868889869
 30
0.0
  0
VERTEX
  5
B4
330
AB
100
AcDbEntity
  8
katman 1
370
     0
100
AcDbVertex
100
AcDb2dVertex
 10
1258.041483793779
 20
-1239.693633911422
 30
0.0
  0
SEQEND
  5
B5
330
AB
100
AcDbEntity
  8
katman 1
370
     0
  0
HATCH
  5
B6
330
5F
100
AcDbEntity
  8
katman 1
 62
     7
420
 16777215
100
AcDbHatch
 10
0.0
 20
0.0
 30
0.0
210
0.0
220
0.0
230
1.0
  2
SOLID
 70
     1
 71
     0
 91
        1
 92
        1
 93
        8
 72
     1
 10
1258.041483793779
 20
-1239.693633911422
 11
1240.704485441493
 21
-1239.693633911422
 72
     1
 10
1240.704485441493
 20
-1239.693633911422
 11
1240.704485441493
 21
-1233.435298513439
 72
     1
 10
1240.704485441493
 20
-1233.435298513439
 11
1282.905187437047
 21
-1233.435298513439
 72
     1
 10
1282.905187437047
 20
-1233.435298513439
 11
1282.905187437047
 21
-1239.693633911422
 72
     1
 10
1282.905187437047
 20
-1239.693633911422
 11
1265.484675017731
 21
-1239.693633911422
 72
     1
 10
1265.484675017731
 20
-1239.693633911422
 11
1265.484675017731
 21
-1290.438868889869
 72
     1
 10
1265.484675017731
 20
-1290.438868889869
 11
1258.041483793779
 21
-1290.438868889869
 72
     1
 10
1258.041483793779
 20
-1290.438868889869
 11
1258.041483793779
 21
-1239.693633911422
 97
        0
 75
     2
 76
     1
 98
        0
  0
SPLINE
  5
B7
330
5F
100
AcDbEntity
  8
katman 1
370
     0
100
AcDbSpline
210
0.0
220
0.0
230
1.0
 70
    11
 71
     3
 72
    41
 73
    37
 74
     0
 42
0.0000000001
 43
0.0000000001
 12
1.0
 22
0.0
 32
0.0
 13
1.0
 23
0.0
 33
0.0
 40
0.0
 40
0.0
 40
0.0
 40
0.0
 40
1.0
 40
1.0
 40
1.0
 40
2.0
 40
2.0
 40
2.0
 40
3.0
 40
3.0
 40
3.0
 40
4.0
 40
4.0
 40
4.0
 40
5.0
 40
5.0
 40
5.0
 40
6.0
 40
6.0
 40
6.0
 40
7.0
 40
7.0
 40
7.0
 40
8.0
 40
8.0
 40
8.0
 40
9.0
 40
9.0
 40
9.0
 40
10.0
 40
10.0
 40
10.0
 40
11.0
 40
11.0
 40
11.0
 40
12.0
 40
12.0
 40
12.0
 40
12.0
 10
1304.303057298614
 20
-1290.438868889869
 30
0.0
 10
1304.303057298614
 20
-1290.438868889869
 30
0.0
 10
1304.303057298614
 20
-1266.251107226617
 30
0.0
 10
1304.303057298614
 20
-1266.251107226617
 30
0.0
 10
1304.303057298614
 20
-1266.251107226617
 30
0.0
 10
1286.287507151719
 20
-1233.435298513439
 30
0.0
 10
1286.287507151719
 20
-1233.435298513439
 30
0.0
 10
1286.287507151719
 20
-1233.435298513439
 30
0.0
 10
1294.662402185962
 20
-1233.435298513439
 30
0.0
 10
1294.662402185962
 20
-1233.435298513439
 30
0.0
 10
1294.662402185962
 20
-1233.435298513439
 30
0.0
 10
1302.695411508306
 20
-1249.167260890015
 30
0.0
 10
1302.695411508306
 20
-1249.167260890015
 30
0.0
 10
1304.8954852116
 20
-1253.478674600381
 30
0.0
 10
1306.586645068935
 20
-1256.949728011274
 30
0.0
 10
1308.3613189933
 20
-1260.921865824334
 30
0.0
 10
1308.3613189933
 20
-1260.921865824334
 30
0.0
 10
1308.530956941953
 20
-1260.921865824334
 30
0.0
 10
1308.530956941953
 20
-1260.921865824334
 30
0.0
 10
1310.138602732259
 20
-1257.200270212357
 30
0.0
 10
1312.082914605278
 20
-1253.478674600381
 30
0.0
 10
1314.282988308571
 20
-1249.167260890015
 30
0.0
 10
1314.282988308571
 20
-1249.167260890015
 30
0.0
 10
1322.485635579567
 20
-1233.435298513439
 30
0.0
 10
1322.485635579567
 20
-1233.435298513439
 30
0.0
 10
1322.485635579567
 20
-1233.435298513439
 30
0.0
 10
1330.857920799217
 20
-1233.435298513439
 30
0.0
 10
1330.857920799217
 20
-1233.435298513439
 30
0.0
 10
1330.857920799217
 20
-1233.435298513439
 30
0.0
 10
1311.746248522566
 20
-1266.167593159589
 30
0.0
 10
1311.746248522566
 20
-1266.167593159589
 30
0.0
 10
1311.746248522566
 20
-1266.167593159589
 30
0.0
 10
1311.746248522566
 20
-1290.438868889869
 30
0.0
 10
1311.746248522566
 20
-1290.438868889869
 30
0.0
 10
1311.746248522566
 20
-1290.438868889869
 30
0.0
 10
1304.303057298614
 20
-1290.438868889869
 30
0.0
 10
1304.303057298614
 20
-1290.438868889869
 30
0.0
  0
HATCH
  5
B8
330
5F
100
AcDbEntity
  8
katman 1
 62
     7
420
 16777215
100
AcDbHatch
 10
0.0
 20
0.0
 30
0.0
210
0.0
220
0.0
230
1.0
  2
SOLID
 70
     1
 71
     0
 91
        1
 92
        1
 93
        1
 72
     4
 94
        3
 73
     0
 74
     1
 95
       41
 96
       37
 40
0.0
 40
0.0
 40
0.0
 40
0.0
 40
1.0
 40
1.0
 40
1.0
 40
2.0
 40
2.0
 40
2.0
 40
3.0
 40
3.0
 40
3.0
 40
4.0
 40
4.0
 40
4.0
 40
5.0
 40
5.0
 40
5.0
 40
6.0
 40
6.0
 40
6.0
 40
7.0
 40
7.0
 40
7.0
 40
8.0
 40
8.0
 40
8.0
 40
9.0
 40
9.0
 40
9.0
 40
10.0
 40
10.0
 40
10.0
 40
11.0
 40
11.0
 40
11.0
 40
12.0
 40
12.0
 40
12.0
 40
12.0
 10
1304.303057298614
 20
-1290.438868889869
 10
1304.303057298614
 20
-1290.438868889869
 10
1304.303057298614
 20
-1266.251107226617
 10
1304.303057298614
 20
-1266.251107226617
 10
1304.303057298614
 20
-1266.251107226617
 10
1286.287507151719
 20
-1233.435298513439
 10
1286.287507151719
 20
-1233.435298513439
 10
1286.287507151719
 20
-1233.435298513439
 10
1294.662402185962
 20
-1233.435298513439
 10
1294.662402185962
 20
-1233.435298513439
 10
1294.662402185962
 20
-1233.435298513439
 10
1302.695411508306
 20
-1249.167260890015
 10
1302.695411508306
 20
-1249.167260890015
 10
1304.8954852116
 20
-1253.478674600381
 10
1306.586645068935
 20
-1256.949728011274
 10
1308.3613189933
 20
-1260.921865824334
 10
1308.3613189933
 20
-1260.921865824334
 10
1308.530956941953
 20
-1260.921865824334
 10
1308.530956941953
 20
-1260.921865824334
 10
1310.138602732259
 20
-1257.200270212357
 10
1312.082914605278
 20
-1253.478674600381
 10
1314.282988308571
 20
-1249.167260890015
 10
1314.282988308571
 20
-1249.167260890015
 10
1322.485635579567
 20
-1233.435298513439
 10
1322.485635579567
 20
-1233.435298513439
 10
1322.485635579567
 20
-1233.435298513439
 10
1330.857920799217
 20
-1233.435298513439
 10
1330.857920799217
 20
-1233.435298513439
 10
1330.857920799217
 20
-1233.435298513439
 10
1311.746248522566
 20
-1266.167593159589
 10
1311.746248522566
 20
-1266.167593159589
 10
1311.746248522566
 20
-1266.167593159589
 10
1311.746248522566
 20
-1290.438868889869
 10
1311.746248522566
 20
-1290.438868889869
 10
1311.746248522566
 20
-1290.438868889869
 10
1304.303057298614
 20
-1290.438868889869
 10
1304.303057298614
 20
-1290.438868889869
 97
        0
 97
        0
 75
     2
 76
     1
 98
        0
  0
ENDBLK
  5
62
330
5F
100
AcDbEntity
  8
0
100
AcDbBlockEnd
  0
BLOCK
  5
BB
330
B9
100
AcDbEntity
  8
0
100
AcDbBlockBegin
  2
block 5
 70
     0
 10
0.0
 20
0.0
 30
0.0
  3
block 5
  1

  0
INSERT
  5
BE
330
B9
100
AcDbEntity
  8
katman 1
100
AcDbBlockReference
  2
block 6
 10
0.0
 20
0.0
 30
0.0
  0
INSERT
  5
EC
330
B9
100
AcDbEntity
  8
katman 1
100
AcDbBlockReference
  2
block 7
 10
0.0
 20
0.0
 30
0.0
  0
INSERT
  5
119
330
B9
100
AcDbEntity
  8
katman 1
100
AcDbBlockReference
  2
block 8
 10
0.0
 20
0.0
 30
0.0
  0
ENDBLK
  5
BC
330
B9
100
AcDbEntity
  8
0
100
AcDbBlockEnd
  0
BLOCK
  5
BF
330
BD
100
AcDbEntity
  8
0
100
AcDbBlockBegin
  2
block 6
 70
     0
 10
0.0
 20
0.0
 30
0.0
  3
block 6
  1

  0
POLYLINE
  5
C1
330
BD
100
AcDbEntity
  8
katman 1
370
     0
100
AcDb2dPolyline
 66
     1
 10
0.0
 20
0.0
 30
0.0
  0
VERTEX
  5
C2
330
C1
100
AcDbEntity
  8
katman 1
370
     0
100
AcDbVertex
100
AcDb2dVertex
 10
999.9051114745389
 20
-700.8473824758476
 30
0.0
  0
VERTEX
  5
C3
330
C1
100
AcDbEntity
  8
katman 1
370
     0
100
AcDbVertex
100
AcDb2dVertex
 10
999.9051114745389
 20
-967.815531133393
 30
0.0
  0
VERTEX
  5
C4
330
C1
100
AcDbEntity
  8
katman 1
370
     0
100
AcDbVertex
100
AcDb2dVertex
 10
995.8782635961625
 20
-967.815531133393
 30
0.0
  0
VERTEX
  5
C5
330
C1
100
AcDbEntity
  8
katman 1
370
     0
100
AcDbVertex
100
AcDb2dVertex
 10
968.4097520265614
 20
-905.2112485283933
 30
0.0
  0
VERTEX
  5
C6
330
C1
100
AcDbEntity
  8
katman 1
370
     0
100
AcDbVertex
100
AcDb2dVertex
 10
978.9691370391902
 20
-906.4539378457839
 30
0.0
  0
VERTEX
  5
C7
330
C1
100
AcDbEntity
  8
katman 1
370
     0
100
AcDbVertex
100
AcDb2dVertex
 10
959.5185103943913
 20
-868.0374670124793
 30
0.0
  0
VERTEX
  5
C8
330
C1
100
AcDbEntity
  8
katman 1
370
     0
100
AcDbVertex
100
AcDb2dVertex
 10
969.0099843291109
 20
-868.8461504263314
 30
0.0
  0
VERTEX
  5
C9
330
C1
100
AcDbEntity
  8
katman 1
370
     0
100
AcDbVertex
100
AcDb2dVertex
 10
955.5750429605396
 20
-833.8488123084417
 30
0.0
  0
VERTEX
  5
CA
330
C1
100
AcDbEntity
  8
katman 1
370
     0
100
AcDbVertex
100
AcDb2dVertex
 10
965.2284673740387
 20
-836.7249031544097
 30
0.0
  0
VERTEX
  5
CB
330
C1
100
AcDbEntity
  8
katman 1
370
     0
100
AcDbVertex
100
AcDb2dVertex
 10
954.5231665834981
 20
-808.0169092075985
 30
0.0
  0
VERTEX
  5
CC
330
C1
100
AcDbEntity
  8
katman 1
370
     0
100
AcDbVertex
100
AcDb2dVertex
 10
964.4716294929958
 20
-809.6556556364658
 30
0.0
  0
VERTEX
  5
CD
330
C1
100
AcDbEntity
  8
katman 1
370
     0
100
AcDbVertex
100
AcDb2dVertex
 10
957.9941448317286
 20
-781.7670349040791
 30
0.0
  0
VERTEX
  5
CE
330
C1
100
AcDbEntity
  8
katman 1
370
     0
100
AcDbVertex
100
AcDb2dVertex
 10
973.2928529313685
 20
-787.6496321630884
 30
0.0
  0
VERTEX
  5
CF
330
C1
100
AcDbEntity
  8
katman 1
370
     0
100
AcDbVertex
100
AcDb2dVertex
 10
969.7566668996014
 20
-761.2645318822388
 30
0.0
  0
VERTEX
  5
D0
330
C1
100
AcDbEntity
  8
katman 1
370
     0
100
AcDbVertex
100
AcDb2dVertex
 10
980.5950557073602
 20
-764.9546510423488
 30
0.0
  0
VERTEX
  5
D1
330
C1
100
AcDbEntity
  8
katman 1
370
     0
100
AcDbVertex
100
AcDb2dVertex
 10
977.9487955738596
 20
-742.259669921611
 30
0.0
  0
VERTEX
  5
D2
330
C1
100
AcDbEntity
  8
katman 1
370
     0
100
AcDbVertex
100
AcDb2dVertex
 10
987.3937688760552
 20
-745.2661763346523
 30
0.0
  0
VERTEX
  5
D3
330
C1
100
AcDbEntity
  8
katman 1
370
     0
100
AcDbVertex
100
AcDb2dVertex
 10
999.9051114745389
 20
-700.8473824758476
 30
0.0
  0
SEQEND
  5
D5
330
C1
100
AcDbEntity
  8
katman 1
370
     0
  0
HATCH
  5
D4
330
BD
100
AcDbEntity
  8
katman 1
 62
    75
420
  7576888
100
AcDbHatch
 10
0.0
 20
0.0
 30
0.0
210
0.0
220
0.0
230
1.0
  2
SOLID
 70
     1
 71
     0
 91
        1
 92
        1
 93
       17
 72
     1
 10
999.9051114745389
 20
-700.8473824758476
 11
999.9051114745389
 21
-967.815531133393
 72
     1
 10
999.9051114745389
 20
-967.815531133393
 11
995.8782635961625
 21
-967.815531133393
 72
     1
 10
995.8782635961625
 20
-967.815531133393
 11
968.4097520265614
 21
-905.2112485283933
 72
     1
 10
968.4097520265614
 20
-905.2112485283933
 11
978.9691370391902
 21
-906.4539378457839
 72
     1
 10
978.9691370391902
 20
-906.4539378457839
 11
959.5185103943913
 21
-868.0374670124793
 72
     1
 10
959.5185103943913
 20
-868.0374670124793
 11
969.0099843291109
 21
-868.8461504263314
 72
     1
 10
969.0099843291109
 20
-868.8461504263314
 11
955.5750429605396
 21
-833.8488123084417
 72
     1
 10
955.5750429605396
 20
-833.8488123084417
 11
965.2284673740387
 21
-836.7249031544097
 72
     1
 10
965.2284673740387
 20
-836.7249031544097
 11
954.5231665834981
 21
-808.0169092075985
 72
     1
 10
954.5231665834981
 20
-808.0169092075985
 11
964.4716294929958
 21
-809.6556556364658
 72
     1
 10
964.4716294929958
 20
-809.6556556364658
 11
957.9941448317286
 21
-781.7670349040791
 72
     1
 10
957.9941448317286
 20
-781.7670349040791
 11
973.2928529313685
 21
-787.6496321630884
 72
     1
 10
973.2928529313685
 20
-787.6496321630884
 11
969.7566668996014
 21
-761.2645318822388
 72
     1
 10
969.7566668996014
 20
-761.2645318822388
 11
980.5950557073602
 21
-764.9546510423488
 72
     1
 10
980.5950557073602
 20
-764.9546510423488
 11
977.9487955738596
 21
-742.259669921611
 72
     1
 10
977.9487955738596
 20
-742.259669921611
 11
987.3937688760552
 21
-745.2661763346523
 72
     1
 10
987.3937688760552
 20
-745.2661763346523
 11
999.9051114745389
 21
-700.8473824758476
 97
        0
 75
     0
 76
     1
 98
        0
  0
POLYLINE
  5
D6
330
BD
100
AcDbEntity
  8
katman 1
370
     0
100
AcDb2dPolyline
 66
     1
 10
0.0
 20
0.0
 30
0.0
  0
VERTEX
  5
D7
330
D6
100
AcDbEntity
  8
katman 1
370
     0
100
AcDbVertex
100
AcDb2dVertex
 10
999.9051114745389
 20
-700.8473824758476
 30
0.0
  0
VERTEX
  5
D8
330
D6
100
AcDbEntity
  8
katman 1
370
     0
100
AcDbVertex
100
AcDb2dVertex
 10
999.9051114745389
 20
-967.815531133393
 30
0.0
  0
VERTEX
  5
D9
330
D6
100
AcDbEntity
  8
katman 1
370
     0
100
AcDbVertex
100
AcDb2dVertex
 10
1003.931959352911
 20
-967.815531133393
 30
0.0
  0
VERTEX
  5
DA
330
D6
100
AcDbEntity
  8
katman 1
370
     0
100
AcDbVertex
100
AcDb2dVertex
 10
1031.395126022231
 20
-905.2112485283933
 30
0.0
  0
VERTEX
  5
DB
330
D6
100
AcDbEntity
  8
katman 1
370
     0
100
AcDbVertex
100
AcDb2dVertex
 10
1020.843758360028
 20
-906.4539378457839
 30
0.0
  0
VERTEX
  5
DC
330
D6
100
AcDbEntity
  8
katman 1
370
     0
100
AcDbVertex
100
AcDb2dVertex
 10
1040.292247044716
 20
-868.0374670124793
 30
0.0
  0
VERTEX
  5
DD
330
D6
100
AcDbEntity
  8
katman 1
370
     0
100
AcDbVertex
100
AcDb2dVertex
 10
1030.794893719676
 20
-868.8461504263314
 30
0.0
  0
VERTEX
  5
DE
330
D6
100
AcDbEntity
  8
katman 1
370
     0
100
AcDbVertex
100
AcDb2dVertex
 10
1044.230369578272
 20
-833.8488123084417
 30
0.0
  0
VERTEX
  5
DF
330
D6
100
AcDbEntity
  8
katman 1
370
     0
100
AcDbVertex
100
AcDb2dVertex
 10
1034.579083124885
 20
-836.7249031544097
 30
0.0
  0
VERTEX
  5
E0
330
D6
100
AcDbEntity
  8
katman 1
370
     0
100
AcDbVertex
100
AcDb2dVertex
 10
1045.287056365578
 20
-808.0169092075985
 30
0.0
  0
VERTEX
  5
E1
330
D6
100
AcDbEntity
  8
katman 1
370
     0
100
AcDbVertex
100
AcDb2dVertex
 10
1035.333248555786
 20
-809.6556556364658
 30
0.0
  0
VERTEX
  5
E2
330
D6
100
AcDbEntity
  8
katman 1
370
     0
100
AcDbVertex
100
AcDb2dVertex
 10
1041.816078117348
 20
-781.7670349040791
 30
0.0
  0
VERTEX
  5
E3
330
D6
100
AcDbEntity
  8
katman 1
370
     0
100
AcDbVertex
100
AcDb2dVertex
 10
1026.517370017704
 20
-787.6496321630884
 30
0.0
  0
VERTEX
  5
E4
330
D6
100
AcDbEntity
  8
katman 1
370
     0
100
AcDbVertex
100
AcDb2dVertex
 10
1030.056228499612
 20
-761.2645318822388
 30
0.0
  0
VERTEX
  5
E5
330
D6
100
AcDbEntity
  8
katman 1
370
     0
100
AcDbVertex
100
AcDb2dVertex
 10
1019.217839691853
 20
-764.9546510423488
 30
0.0
  0
VERTEX
  5
E6
330
D6
100
AcDbEntity
  8
katman 1
370
     0
100
AcDbVertex
100
AcDb2dVertex
 10
1021.858754925068
 20
-742.259669921611
 30
0.0
  0
VERTEX
  5
E7
330
D6
100
AcDbEntity
  8
katman 1
370
     0
100
AcDbVertex
100
AcDb2dVertex
 10
1012.416454073022
 20
-745.2661763346523
 30
0.0
  0
VERTEX
  5
E8
330
D6
100
AcDbEntity
  8
katman 1
370
     0
100
AcDbVertex
100
AcDb2dVertex
 10
999.9051114745389
 20
-700.8473824758476
 30
0.0
  0
SEQEND
  5
EA
330
D6
100
AcDbEntity
  8
katman 1
370
     0
  0
HATCH
  5
E9
330
BD
100
AcDbEntity
  8
katman 1
 62
    75
420
  7576888
100
AcDbHatch
 10
0.0
 20
0.0
 30
0.0
210
0.0
220
0.0
230
1.0
  2
SOLID
 70
     1
 71
     0
 91
        1
 92
        1
 93
       17
 72
     1
 10
999.9051114745389
 20
-700.8473824758476
 11
999.9051114745389
 21
-967.815531133393
 72
     1
 10
999.9051114745389
 20
-967.815531133393
 11
1003.931959352911
 21
-967.815531133393
 72
     1
 10
1003.931959352911
 20
-967.815531133393
 11
1031.395126022231
 21
-905.2112485283933
 72
     1
 10
1031.395126022231
 20
-905.2112485283933
 11
1020.843758360028
 21
-906.4539378457839
 72
     1
 10
1020.843758360028
 20
-906.4539378457839
 11
1040.292247044716
 21
-868.0374670124793
 72
     1
 10
1040.292247044716
 20
-868.0374670124793
 11
1030.794893719676
 21
-868.8461504263314
 72
     1
 10
1030.794893719676
 20
-868.8461504263314
 11
1044.230369578272
 21
-833.8488123084417
 72
     1
 10
1044.230369578272
 20
-833.8488123084417
 11
1034.579083124885
 21
-836.7249031544097
 72
     1
 10
1034.579083124885
 20
-836.7249031544097
 11
1045.287056365578
 21
-808.0169092075985
 72
     1
 10
1045.287056365578
 20
-808.0169092075985
 11
1035.333248555786
 21
-809.6556556364658
 72
     1
 10
1035.333248555786
 20
-809.6556556364658
 11
1041.816078117348
 21
-781.7670349040791
 72
     1
 10
1041.816078117348
 20
-781.7670349040791
 11
1026.517370017704
 21
-787.6496321630884
 72
     1
 10
1026.517370017704
 20
-787.6496321630884
 11
1030.056228499612
 21
-761.2645318822388
 72
     1
 10
1030.056228499612
 20
-761.2645318822388
 11
1019.217839691853
 21
-764.9546510423488
 72
     1
 10
1019.217839691853
 20
-764.9546510423488
 11
1021.858754925068
 21
-742.259669921611
 72
     1
 10
1021.858754925068
 20
-742.259669921611
 11
1012.416454073022
 21
-745.2661763346523
 72
     1
 10
1012.416454073022
 20
-745.2661763346523
 11
999.9051114745389
 21
-700.8473824758476
 97
        0
 75
     0
 76
     1
 98
        0
  0
ENDBLK
  5
C0
330
BD
100
AcDbEntity
  8
0
100
AcDbBlockEnd
  0
BLOCK
  5
ED
330
EB
100
AcDbEntity
  8
0
100
AcDbBlockBegin
  2
block 7
 70
     0
 10
0.0
 20
0.0
 30
0.0
  3
block 7
  1

  0
POLYLINE
  5
EF
330
EB
100
AcDbEntity
  8
katman 1
370
     0
100
AcDb2dPolyline
 66
     1
 10
0.0
 20
0.0
 30
0.0
  0
VERTEX
  5
F0
330
EF
100
AcDbEntity
  8
katman 1
370
     0
100
AcDbVertex
100
AcDb2dVertex
 10
1194.245151523493
 20
-858.0783143023937
 30
0.0
  0
VERTEX
  5
F1
330
EF
100
AcDbEntity
  8
katman 1
370
     0
100
AcDbVertex
100
AcDb2dVertex
 10
1004.179962726361
 20
-967.815531133393
 30
0.0
  0
VERTEX
  5
F2
330
EF
100
AcDbEntity
  8
katman 1
370
     0
100
AcDbVertex
100
AcDb2dVertex
 10
1001.424132136915
 20
-967.815531133393
 30
0.0
  0
VERTEX
  5
F3
330
EF
100
AcDbEntity
  8
katman 1
370
     0
100
AcDbVertex
100
AcDb2dVertex
 10
1034.6678084697
 20
-913.8496763768517
 30
0.0
  0
VERTEX
  5
F4
330
EF
100
AcDbEntity
  8
katman 1
370
     0
100
AcDbVertex
100
AcDb2dVertex
 10
1039.083765089174
 20
-923.480117719103
 30
0.0
  0
VERTEX
  5
F5
330
EF
100
AcDbEntity
  8
katman 1
370
     0
100
AcDbVertex
100
AcDb2dVertex
 10
1056.392155697802
 20
-891.0349694896222
 30
0.0
  0
VERTEX
  5
F6
330
EF
100
AcDbEntity
  8
katman 1
370
     0
100
AcDbVertex
100
AcDb2dVertex
 10
1060.562246903941
 20
-899.5900168935577
 30
0.0
  0
VERTEX
  5
F7
330
EF
100
AcDbEntity
  8
katman 1
370
     0
100
AcDbVertex
100
AcDb2dVertex
 10
1078.473542265259
 20
-873.7372686815752
 30
0.0
  0
VERTEX
  5
F8
330
EF
100
AcDbEntity
  8
katman 1
370
     0
100
AcDbVertex
100
AcDb2dVertex
 10
1081.279080427405
 20
-883.2682948784359
 30
0.0
  0
VERTEX
  5
F9
330
EF
100
AcDbEntity
  8
katman 1
370
     0
100
AcDbVertex
100
AcDb2dVertex
 10
1096.131489352843
 20
-862.3216306425102
 30
0.0
  0
VERTEX
  5
FA
330
EF
100
AcDbEntity
  8
katman 1
370
     0
100
AcDbVertex
100
AcDb2dVertex
 10
1099.955231020207
 20
-871.6025155058078
 30
0.0
  0
VERTEX
  5
FB
330
EF
100
AcDbEntity
  8
katman 1
370
     0
100
AcDbVertex
100
AcDb2dVertex
 10
1116.342160818849
 20
-854.6543711767217
 30
0.0
  0
VERTEX
  5
FC
330
EF
100
AcDbEntity
  8
katman 1
370
     0
100
AcDbVertex
100
AcDb2dVertex
 10
1119.852156839203
 20
-870.2919459547384
 30
0.0
  0
VERTEX
  5
FD
330
EF
100
AcDbEntity
  8
katman 1
370
     0
100
AcDbVertex
100
AcDb2dVertex
 10
1136.654385390386
 20
-856.5176034177612
 30
0.0
  0
VERTEX
  5
FE
330
EF
100
AcDbEntity
  8
katman 1
370
     0
100
AcDbVertex
100
AcDb2dVertex
 10
1139.475423763368
 20
-867.4003548979226
 30
0.0
  0
VERTEX
  5
FF
330
EF
100
AcDbEntity
  8
katman 1
370
     0
100
AcDbVertex
100
AcDb2dVertex
 10
1154.118847087462
 20
-855.8858362035053
 30
0.0
  0
VERTEX
  5
100
330
EF
100
AcDbEntity
  8
katman 1
370
     0
100
AcDbVertex
100
AcDb2dVertex
 10
1156.726089448857
 20
-865.2917917335863
 30
0.0
  0
VERTEX
  5
101
330
EF
100
AcDbEntity
  8
katman 1
370
     0
100
AcDbVertex
100
AcDb2dVertex
 10
1194.245151523493
 20
-858.0783143023937
 30
0.0
  0
SEQEND
  5
103
330
EF
100
AcDbEntity
  8
katman 1
370
     0
  0
HATCH
  5
102
330
EB
100
AcDbEntity
  8
katman 1
 62
    75
420
  7576888
100
AcDbHatch
 10
0.0
 20
0.0
 30
0.0
210
0.0
220
0.0
230
1.0
  2
SOLID
 70
     1
 71
     0
 91
        1
 92
        1
 93
       17
 72
     1
 10
1194.245151523493
 20
-858.0783143023937
 11
1004.179962726361
 21
-967.815531133393
 72
     1
 10
1004.179962726361
 20
-967.815531133393
 11
1001.424132136915
 21
-967.815531133393
 72
     1
 10
1001.424132136915
 20
-967.815531133393
 11
1034.6678084697
 21
-913.8496763768517
 72
     1
 10
1034.6678084697
 20
-913.8496763768517
 11
1039.083765089174
 21
-923.480117719103
 72
     1
 10
1039.083765089174
 20
-923.480117719103
 11
1056.392155697802
 21
-891.0349694896222
 72
     1
 10
1056.392155697802
 20
-891.0349694896222
 11
1060.562246903941
 21
-899.5900168935577
 72
     1
 10
1060.562246903941
 20
-899.5900168935577
 11
1078.473542265259
 21
-873.7372686815752
 72
     1
 10
1078.473542265259
 20
-873.7372686815752
 11
1081.279080427405
 21
-883.2682948784359
 72
     1
 10
1081.279080427405
 20
-883.2682948784359
 11
1096.131489352843
 21
-862.3216306425102
 72
     1
 10
1096.131489352843
 20
-862.3216306425102
 11
1099.955231020207
 21
-871.6025155058078
 72
     1
 10
1099.955231020207
 20
-871.6025155058078
 11
1116.342160818849
 21
-854.6543711767217
 72
     1
 10
1116.342160818849
 20
-854.6543711767217
 11
1119.852156839203
 21
-870.2919459547384
 72
     1
 10
1119.852156839203
 20
-870.2919459547384
 11
1136.654385390386
 21
-856.5176034177612
 72
     1
 10
1136.654385390386
 20
-856.5176034177612
 11
1139.475423763368
 21
-867.4003548979226
 72
     1
 10
1139.475423763368
 20
-867.4003548979226
 11
1154.118847087462
 21
-855.8858362035053
 72
     1
 10
1154.118847087462
 20
-855.8858362035053
 11
1156.726089448857
 21
-865.2917917335863
 72
     1
 10
1156.726089448857
 20
-865.2917917335863
 11
1194.245151523493
 21
-858.0783143023937
 97
        0
 75
     0
 76
     1
 98
        0
  0
POLYLINE
  5
104
330
EB
100
AcDbEntity
  8
katman 1
370
     0
100
AcDb2dPolyline
 66
     1
 10
0.0
 20
0.0
 30
0.0
  0
VERTEX
  5
105
330
104
100
AcDbEntity
  8
katman 1
370
     0
100
AcDbVertex
100
AcDb2dVertex
 10
1194.245151523493
 20
-858.0783143023937
 30
0.0
  0
VERTEX
  5
106
330
104
100
AcDbEntity
  8
katman 1
370
     0
100
AcDbVertex
100
AcDb2dVertex
 10
1004.179962726361
 20
-967.815531133393
 30
0.0
  0
VERTEX
  5
107
330
104
100
AcDbEntity
  8
katman 1
370
     0
100
AcDbVertex
100
AcDb2dVertex
 10
1065.750541615296
 20
-967.815531133393
 30
0.0
  0
VERTEX
  5
108
330
104
100
AcDbEntity
  8
katman 1
370
     0
100
AcDbVertex
100
AcDb2dVertex
 10
1060.019739524516
 20
-959.7564904763485
 30
0.0
  0
VERTEX
  5
109
330
104
100
AcDbEntity
  8
katman 1
370
     0
100
AcDbVertex
100
AcDb2dVertex
 10
1096.781429228089
 20
-960.9884899931667
 30
0.0
  0
VERTEX
  5
10A
330
104
100
AcDbEntity
  8
katman 1
370
     0
100
AcDbVertex
100
AcDb2dVertex
 10
1091.452029149077
 20
-953.0962102251733
 30
0.0
  0
VERTEX
  5
10B
330
104
100
AcDbEntity
  8
katman 1
370
     0
100
AcDbVertex
100
AcDb2dVertex
 10
1122.806283229404
 20
-950.5124854250544
 30
0.0
  0
VERTEX
  5
10C
330
104
100
AcDbEntity
  8
katman 1
370
     0
100
AcDbVertex
100
AcDb2dVertex
 10
1115.958396978051
 20
-943.319853105003
 30
0.0
  0
VERTEX
  5
10D
330
104
100
AcDbEntity
  8
katman 1
370
     0
100
AcDbVertex
100
AcDb2dVertex
 10
1141.518779144175
 20
-940.9242687950873
 30
0.0
  0
VERTEX
  5
10E
330
104
100
AcDbEntity
  8
katman 1
370
     0
100
AcDbVertex
100
AcDb2dVertex
 10
1135.383368101444
 20
-932.9747985939966
 30
0.0
  0
VERTEX
  5
10F
330
104
100
AcDbEntity
  8
katman 1
370
     0
100
AcDbVertex
100
AcDb2dVertex
 10
1158.250455011523
 20
-927.2541518137632
 30
0.0
  0
VERTEX
  5
110
330
104
100
AcDbEntity
  8
katman 1
370
     0
100
AcDbVertex
100
AcDb2dVertex
 10
1146.464415382377
 20
-916.3917109547046
 30
0.0
  0
VERTEX
  5
111
330
104
100
AcDbEntity
  8
katman 1
370
     0
100
AcDbVertex
100
AcDb2dVertex
 10
1166.810847315748
 20
-908.7346067994631
 30
0.0
  0
VERTEX
  5
112
330
104
100
AcDbEntity
  8
katman 1
370
     0
100
AcDbVertex
100
AcDb2dVertex
 10
1158.782807080392
 20
-900.8583617323411
 30
0.0
  0
VERTEX
  5
113
330
104
100
AcDbEntity
  8
katman 1
370
     0
100
AcDbVertex
100
AcDb2dVertex
 10
1176.077835438293
 20
-893.9212156461372
 30
0.0
  0
VERTEX
  5
114
330
104
100
AcDbEntity
  8
katman 1
370
     0
100
AcDbVertex
100
AcDb2dVertex
 10
1169.242776947631
 20
-886.9584140385477
 30
0.0
  0
VERTEX
  5
115
330
104
100
AcDbEntity
  8
katman 1
370
     0
100
AcDbVertex
100
AcDb2dVertex
 10
1194.245151523493
 20
-858.0783143023937
 30
0.0
  0
SEQEND
  5
117
330
104
100
AcDbEntity
  8
katman 1
370
     0
  0
HATCH
  5
116
330
EB
100
AcDbEntity
  8
katman 1
 62
    75
420
  7576888
100
AcDbHatch
 10
0.0
 20
0.0
 30
0.0
210
0.0
220
0.0
230
1.0
  2
SOLID
 70
     1
 71
     0
 91
        1
 92
        1
 93
       16
 72
     1
 10
1194.245151523493
 20
-858.0783143023937
 11
1004.179962726361
 21
-967.815531133393
 72
     1
 10
1004.179962726361
 20
-967.815531133393
 11
1065.750541615296
 21
-967.815531133393
 72
     1
 10
1065.750541615296
 20
-967.815531133393
 11
1060.019739524516
 21
-959.7564904763485
 72
     1
 10
1060.019739524516
 20
-959.7564904763485
 11
1096.781429228089
 21
-960.9884899931667
 72
     1
 10
1096.781429228089
 20
-960.9884899931667
 11
1091.452029149077
 21
-953.0962102251733
 72
     1
 10
1091.452029149077
 20
-953.0962102251733
 11
1122.806283229404
 21
-950.5124854250544
 72
     1
 10
1122.806283229404
 20
-950.5124854250544
 11
1115.958396978051
 21
-943.319853105003
 72
     1
 10
1115.958396978051
 20
-943.319853105003
 11
1141.518779144175
 21
-940.9242687950873
 72
     1
 10
1141.518779144175
 20
-940.9242687950873
 11
1135.383368101444
 21
-932.9747985939966
 72
     1
 10
1135.383368101444
 20
-932.9747985939966
 11
1158.250455011523
 21
-927.2541518137632
 72
     1
 10
1158.250455011523
 20
-927.2541518137632
 11
1146.464415382377
 21
-916.3917109547046
 72
     1
 10
1146.464415382377
 20
-916.3917109547046
 11
1166.810847315748
 21
-908.7346067994631
 72
     1
 10
1166.810847315748
 20
-908.7346067994631
 11
1158.782807080392
 21
-900.8583617323411
 72
     1
 10
1158.782807080392
 20
-900.8583617323411
 11
1176.077835438293
 21
-893.9212156461372
 72
     1
 10
1176.077835438293
 20
-893.9212156461372
 11
1169.242776947631
 21
-886.9584140385477
 72
     1
 10
1169.242776947631
 20
-886.9584140385477
 11
1194.245151523493
 21
-858.0783143023937
 97
        0
 75
     0
 76
     1
 98
        0
  0
ENDBLK
  5
EE
330
EB
100
AcDbEntity
  8
0
100
AcDbBlockEnd
  0
BLOCK
  5
11A
330
118
100
AcDbEntity
  8
0
100
AcDbBlockBegin
  2
block 8
 70
     0
 10
0.0
 20
0.0
 30
0.0
  3
block 8
  1

  0
POLYLINE
  5
11C
330
118
100
AcDbEntity
  8
katman 1
370
     0
100
AcDb2dPolyline
 66
     1
 10
0.0
 20
0.0
 30
0.0
  0
VERTEX
  5
11D
330
11C
100
AcDbEntity
  8
katman 1
370
     0
100
AcDbVertex
100
AcDb2dVertex
 10
805.5548626660257
 20
-858.0783143023937
 30
0.0
  0
VERTEX
  5
11E
330
11C
100
AcDbEntity
  8
katman 1
370
     0
100
AcDbVertex
100
AcDb2dVertex
 10
995.6302602227124
 20
-967.815531133393
 30
0.0
  0
VERTEX
  5
11F
330
11C
100
AcDbEntity
  8
katman 1
370
     0
100
AcDbVertex
100
AcDb2dVertex
 10
998.3860908121624
 20
-967.815531133393
 30
0.0
  0
VERTEX
  5
120
330
11C
100
AcDbEntity
  8
katman 1
370
     0
100
AcDbVertex
100
AcDb2dVertex
 10
965.1397420292269
 20
-913.8496763768517
 30
0.0
  0
VERTEX
  5
121
330
11C
100
AcDbEntity
  8
katman 1
370
     0
100
AcDbVertex
100
AcDb2dVertex
 10
960.7318027601914
 20
-923.480117719103
 30
0.0
  0
VERTEX
  5
122
330
11C
100
AcDbEntity
  8
katman 1
370
     0
100
AcDbVertex
100
AcDb2dVertex
 10
943.4207397014206
 20
-891.0349694896222
 30
0.0
  0
VERTEX
  5
123
330
11C
100
AcDbEntity
  8
katman 1
370
     0
100
AcDbVertex
100
AcDb2dVertex
 10
939.2453035949875
 20
-899.5900168935577
 30
0.0
  0
VERTEX
  5
124
330
11C
100
AcDbEntity
  8
katman 1
370
     0
100
AcDbVertex
100
AcDb2dVertex
 10
921.3340082336681
 20
-873.7372686815752
 30
0.0
  0
VERTEX
  5
125
330
11C
100
AcDbEntity
  8
katman 1
370
     0
100
AcDbVertex
100
AcDb2dVertex
 10
918.5284700715238
 20
-883.2682948784359
 30
0.0
  0
VERTEX
  5
126
330
11C
100
AcDbEntity
  8
katman 1
370
     0
100
AcDbVertex
100
AcDb2dVertex
 10
903.676061146085
 20
-862.3216306425102
 30
0.0
  0
VERTEX
  5
127
330
11C
100
AcDbEntity
  8
katman 1
370
     0
100
AcDbVertex
100
AcDb2dVertex
 10
899.8555264189008
 20
-871.6025155058078
 30
0.0
  0
VERTEX
  5
128
330
11C
100
AcDbEntity
  8
katman 1
370
     0
100
AcDbVertex
100
AcDb2dVertex
 10
883.4734070305094
 20
-854.6543711767217
 30
0.0
  0
VERTEX
  5
129
330
11C
100
AcDbEntity
  8
katman 1
370
     0
100
AcDbVertex
100
AcDb2dVertex
 10
879.9580661098707
 20
-870.2919459547384
 30
0.0
  0
VERTEX
  5
12A
330
11C
100
AcDbEntity
  8
katman 1
370
     0
100
AcDbVertex
100
AcDb2dVertex
 10
863.1585100088432
 20
-856.5176034177612
 30
0.0
  0
VERTEX
  5
12B
330
11C
100
AcDbEntity
  8
katman 1
370
     0
100
AcDbVertex
100
AcDb2dVertex
 10
860.3347991857099
 20
-867.4003548979226
 30
0.0
  0
VERTEX
  5
12C
330
11C
100
AcDbEntity
  8
katman 1
370
     0
100
AcDbVertex
100
AcDb2dVertex
 10
845.6859775123175
 20
-855.8858362035053
 30
0.0
  0
VERTEX
  5
12D
330
11C
100
AcDbEntity
  8
katman 1
370
     0
100
AcDbVertex
100
AcDb2dVertex
 10
843.0787351509234
 20
-865.2917917335863
 30
0.0
  0
VERTEX
  5
12E
330
11C
100
AcDbEntity
  8
katman 1
370
     0
100
AcDbVertex
100
AcDb2dVertex
 10
805.5548626660257
 20
-858.0783143023937
 30
0.0
  0
SEQEND
  5
130
330
11C
100
AcDbEntity
  8
katman 1
370
     0
  0
HATCH
  5
12F
330
118
100
AcDbEntity
  8
katman 1
 62
    75
420
  7576888
100
AcDbHatch
 10
0.0
 20
0.0
 30
0.0
210
0.0
220
0.0
230
1.0
  2
SOLID
 70
     1
 71
     0
 91
        1
 92
        1
 93
       17
 72
     1
 10
805.5548626660257
 20
-858.0783143023937
 11
995.6302602227124
 21
-967.815531133393
 72
     1
 10
995.6302602227124
 20
-967.815531133393
 11
998.3860908121624
 21
-967.815531133393
 72
     1
 10
998.3860908121624
 20
-967.815531133393
 11
965.1397420292269
 21
-913.8496763768517
 72
     1
 10
965.1397420292269
 20
-913.8496763768517
 11
960.7318027601914
 21
-923.480117719103
 72
     1
 10
960.7318027601914
 20
-923.480117719103
 11
943.4207397014206
 21
-891.0349694896222
 72
     1
 10
943.4207397014206
 20
-891.0349694896222
 11
939.2453035949875
 21
-899.5900168935577
 72
     1
 10
939.2453035949875
 20
-899.5900168935577
 11
921.3340082336681
 21
-873.7372686815752
 72
     1
 10
921.3340082336681
 20
-873.7372686815752
 11
918.5284700715238
 21
-883.2682948784359
 72
     1
 10
918.5284700715238
 20
-883.2682948784359
 11
903.676061146085
 21
-862.3216306425102
 72
     1
 10
903.676061146085
 20
-862.3216306425102
 11
899.8555264189008
 21
-871.6025155058078
 72
     1
 10
899.8555264189008
 20
-871.6025155058078
 11
883.4734070305094
 21
-854.6543711767217
 72
     1
 10
883.4734070305094
 20
-854.6543711767217
 11
879.9580661098707
 21
-870.2919459547384
 72
     1
 10
879.9580661098707
 20
-870.2919459547384
 11
863.1585100088432
 21
-856.5176034177612
 72
     1
 10
863.1585100088432
 20
-856.5176034177612
 11
860.3347991857099
 21
-867.4003548979226
 72
     1
 10
860.3347991857099
 20
-867.4003548979226
 11
845.6859775123175
 21
-855.8858362035053
 72
     1
 10
845.6859775123175
 20
-855.8858362035053
 11
843.0787351509234
 21
-865.2917917335863
 72
     1
 10
843.0787351509234
 20
-865.2917917335863
 11
805.5548626660257
 21
-858.0783143023937
 97
        0
 75
     0
 76
     1
 98
        0
  0
SPLINE
  5
131
330
118
100
AcDbEntity
  8
katman 1
370
     0
100
AcDbSpline
210
0.0
220
0.0
230
1.0
 70
    11
 71
     3
 72
    56
 73
    52
 74
     0
 42
0.0000000001
 43
0.0000000001
 12
1.0
 22
0.0
 32
0.0
 13
1.0
 23
0.0
 33
0.0
 40
0.0
 40
0.0
 40
0.0
 40
0.0
 40
1.0
 40
1.0
 40
1.0
 40
2.0
 40
2.0
 40
2.0
 40
3.0
 40
3.0
 40
3.0
 40
4.0
 40
4.0
 40
4.0
 40
5.0
 40
5.0
 40
5.0
 40
6.0
 40
6.0
 40
6.0
 40
7.0
 40
7.0
 40
7.0
 40
8.0
 40
8.0
 40
8.0
 40
9.0
 40
9.0
 40
9.0
 40
10.0
 40
10.0
 40
10.0
 40
11.0
 40
11.0
 40
11.0
 40
12.0
 40
12.0
 40
12.0
 40
13.0
 40
13.0
 40
13.0
 40
14.0
 40
14.0
 40
14.0
 40
15.0
 40
15.0
 40
15.0
 40
16.0
 40
16.0
 40
16.0
 40
17.0
 40
17.0
 40
17.0
 40
17.0
 10
805.5548626660257
 20
-858.0783143023937
 30
0.0
 10
805.5548626660257
 20
-858.0783143023937
 30
0.0
 10
995.6302602227124
 20
-967.815531133393
 30
0.0
 10
995.6302602227124
 20
-967.815531133393
 30
0.0
 10
995.6302602227124
 20
-967.815531133393
 30
0.0
 10
934.8293469755099
 20
-967.815531133393
 30
0.0
 10
934.8293469755099
 20
-967.815531133393
 30
0.0
 10
934.5604984909314
 20
-967.815531133393
 30
0.0
 10
934.3050122570803
 20
-967.8315658342553
 30
0.0
 10
934.0409741827616
 20
-967.8417211448132
 30
0.0
 10
934.0409741827616
 20
-967.8417211448132
 30
0.0
 10
939.787810974406
 20
-959.7564904763485
 30
0.0
 10
939.787810974406
 20
-959.7564904763485
 30
0.0
 10
939.787810974406
 20
-959.7564904763485
 30
0.0
 10
903.0261212708419
 20
-960.9884899931667
 30
0.0
 10
903.0261212708419
 20
-960.9884899931667
 30
0.0
 10
903.0261212708419
 20
-960.9884899931667
 30
0.0
 10
908.3501764495595
 20
-953.0962102251733
 30
0.0
 10
908.3501764495595
 20
-953.0962102251733
 30
0.0
 10
908.3501764495595
 20
-953.0962102251733
 30
0.0
 10
877.0114225800753
 20
-950.5124854250544
 30
0.0
 10
877.0114225800753
 20
-950.5124854250544
 30
0.0
 10
877.0114225800753
 20
-950.5124854250544
 30
0.0
 10
883.854498421174
 20
-943.319853105003
 30
0.0
 10
883.854498421174
 20
-943.319853105003
 30
0.0
 10
883.854498421174
 20
-943.319853105003
 30
0.0
 10
858.2914438049038
 20
-940.9242687950873
 30
0.0
 10
858.2914438049038
 20
-940.9242687950873
 30
0.0
 10
858.2914438049038
 20
-940.9242687950873
 30
0.0
 10
864.4193719872173
 20
-932.9747985939966
 30
0.0
 10
864.4193719872173
 20
-932.9747985939966
 30
0.0
 10
864.4193719872173
 20
-932.9747985939966
 30
0.0
 10
841.5598213865551
 20
-927.2541518137632
 30
0.0
 10
841.5598213865551
 20
-927.2541518137632
 30
0.0
 10
841.5598213865551
 20
-927.2541518137632
 30
0.0
 10
853.3377902162692
 20
-916.3917109547046
 30
0.0
 10
853.3377902162692
 20
-916.3917109547046
 30
0.0
 10
853.3377902162692
 20
-916.3917109547046
 30
0.0
 10
833.0074998817681
 20
-908.7346067994631
 30
0.0
 10
833.0074998817681
 20
-908.7346067994631
 30
0.0
 10
833.0074998817681
 20
-908.7346067994631
 30
0.0
 10
841.0248503165449
 20
-900.8583617323411
 30
0.0
 10
841.0248503165449
 20
-900.8583617323411
 30
0.0
 10
841.0248503165449
 20
-900.8583617323411
 30
0.0
 10
823.7296081626318
 20
-893.9212156461372
 30
0.0
 10
823.7296081626318
 20
-893.9212156461372
 30
0.0
 10
823.7296081626318
 20
-893.9212156461372
 30
0.0
 10
830.5725236567205
 20
-886.9584140385477
 30
0.0
 10
830.5725236567205
 20
-886.9584140385477
 30
0.0
 10
830.5725236567205
 20
-886.9584140385477
 30
0.0
 10
805.5548626660257
 20
-858.0783143023937
 30
0.0
 10
805.5548626660257
 20
-858.0783143023937
 30
0.0
  0
HATCH
  5
132
330
118
100
AcDbEntity
  8
katman 1
 62
    75
420
  7576888
100
AcDbHatch
 10
0.0
 20
0.0
 30
0.0
210
0.0
220
0.0
230
1.0
  2
SOLID
 70
     1
 71
     0
 91
        1
 92
        1
 93
        1
 72
     4
 94
        3
 73
     0
 74
     1
 95
       56
 96
       52
 40
0.0
 40
0.0
 40
0.0
 40
0.0
 40
1.0
 40
1.0
 40
1.0
 40
2.0
 40
2.0
 40
2.0
 40
3.0
 40
3.0
 40
3.0
 40
4.0
 40
4.0
 40
4.0
 40
5.0
 40
5.0
 40
5.0
 40
6.0
 40
6.0
 40
6.0
 40
7.0
 40
7.0
 40
7.0
 40
8.0
 40
8.0
 40
8.0
 40
9.0
 40
9.0
 40
9.0
 40
10.0
 40
10.0
 40
10.0
 40
11.0
 40
11.0
 40
11.0
 40
12.0
 40
12.0
 40
12.0
 40
13.0
 40
13.0
 40
13.0
 40
14.0
 40
14.0
 40
14.0
 40
15.0
 40
15.0
 40
15.0
 40
16.0
 40
16.0
 40
16.0
 40
17.0
 40
17.0
 40
17.0
 40
17.0
 10
805.5548626660257
 20
-858.0783143023937
 10
805.5548626660257
 20
-858.0783143023937
 10
995.6302602227124
 20
-967.815531133393
 10
995.6302602227124
 20
-967.815531133393
 10
995.6302602227124
 20
-967.815531133393
 10
934.8293469755099
 20
-967.815531133393
 10
934.8293469755099
 20
-967.815531133393
 10
934.5604984909314
 20
-967.815531133393
 10
934.3050122570803
 20
-967.8315658342553
 10
934.0409741827616
 20
-967.8417211448132
 10
934.0409741827616
 20
-967.8417211448132
 10
939.787810974406
 20
-959.7564904763485
 10
939.787810974406
 20
-959.7564904763485
 10
939.787810974406
 20
-959.7564904763485
 10
903.0261212708419
 20
-960.9884899931667
 10
903.0261212708419
 20
-960.9884899931667
 10
903.0261212708419
 20
-960.9884899931667
 10
908.3501764495595
 20
-953.0962102251733
 10
908.3501764495595
 20
-953.0962102251733
 10
908.3501764495595
 20
-953.0962102251733
 10
877.0114225800753
 20
-950.5124854250544
 10
877.0114225800753
 20
-950.5124854250544
 10
877.0114225800753
 20
-950.5124854250544
 10
883.854498421174
 20
-943.319853105003
 10
883.854498421174
 20
-943.319853105003
 10
883.854498421174
 20
-943.319853105003
 10
858.2914438049038
 20
-940.9242687950873
 10
858.2914438049038
 20
-940.9242687950873
 10
858.2914438049038
 20
-940.9242687950873
 10
864.4193719872173
 20
-932.9747985939966
 10
864.4193719872173
 20
-932.9747985939966
 10
864.4193719872173
 20
-932.9747985939966
 10
841.5598213865551
 20
-927.2541518137632
 10
841.5598213865551
 20
-927.2541518137632
 10
841.5598213865551
 20
-927.2541518137632
 10
853.3377902162692
 20
-916.3917109547046
 10
853.3377902162692
 20
-916.3917109547046
 10
853.3377902162692
 20
-916.3917109547046
 10
833.0074998817681
 20
-908.7346067994631
 10
833.0074998817681
 20
-908.7346067994631
 10
833.0074998817681
 20
-908.7346067994631
 10
841.0248503165449
 20
-900.8583617323411
 10
841.0248503165449
 20
-900.8583617323411
 10
841.0248503165449
 20
-900.8583617323411
 10
823.7296081626318
 20
-893.9212156461372
 10
823.7296081626318
 20
-893.9212156461372
 10
823.7296081626318
 20
-893.9212156461372
 10
830.5725236567205
 20
-886.9584140385477
 10
830.5725236567205
 20
-886.9584140385477
 10
830.5725236567205
 20
-886.9584140385477
 10
805.5548626660257
 20
-858.0783143023937
 10
805.5548626660257
 20
-858.0783143023937
 97
        0
 97
        0
 75
     0
 76
     1
 98
        0
  0
ENDBLK
  5
11B
330
118
100
AcDbEntity
  8
0
100
AcDbBlockEnd
  0
ENDSEC
  0
SECTION
  2
ENTITIES
  0
INSERT
  5
42
330
1F
100
AcDbEntity
  8
katman 1
100
AcDbBlockReference
  2
block 2
 10
0.0
 20
0.0
 30
0.0
  0
ENDSEC
  0
SECTION
  2
OBJECTS
  0
DICTIONARY
  5
C
330
0
100
AcDbDictionary
281
     1
  3
ACAD_GROUP
350
D
  3
ACAD_LAYOUT
350
1A
  3
ACAD_MATERIAL
350
3B
  3
ACAD_MLEADERSTYLE
350
134
  3
ACAD_MLINESTYLE
350
17
  3
ACAD_PLOTSETTINGS
350
19
  3
ACAD_PLOTSTYLENAME
350
E
  3
ACAD_TABLESTYLE
350
133
  3
ACAD_VISUALSTYLE
350
2A
  0
SUN
  5
3F
330
29
100
AcDbSun
 90
        1
290
     0
 63
     7
421
 16777215
 40
1.0
291
     1
 91
  2455826
 92
 54000000
292
     0
 70
     2
 71
   256
280
     1
  0
DICTIONARY
  5
D
102
{ACAD_REACTORS
330
C
102
}
330
C
100
AcDbDictionary
281
     1
  0
DICTIONARY
  5
1A
102
{ACAD_REACTORS
330
C
102
}
330
C
100
AcDbDictionary
281
     1
  3
Layout1
350
1E
  3
Layout2
350
26
  3
Model
350
22
  0
DICTIONARY
  5
3B
102
{ACAD_REACTORS
330
C
102
}
330
C
100
AcDbDictionary
281
     1
  3
ByBlock
350
3D
  3
ByLayer
350
3C
  3
Global
350
3E
  0
DICTIONARY
  5
134
102
{ACAD_REACTORS
330
C
102
}
330
C
100
AcDbDictionary
281
     1
  0
DICTIONARY
  5
17
102
{ACAD_REACTORS
330
C
102
}
330
C
100
AcDbDictionary
281
     1
  3
Standard
350
18
  0
DICTIONARY
  5
19
102
{ACAD_REACTORS
330
C
102
}
330
C
100
AcDbDictionary
281
     1
  0
ACDBDICTIONARYWDFLT
  5
E
102
{ACAD_REACTORS
330
C
102
}
330
C
100
AcDbDictionary
281
     1
  3
Normal
350
F
100
AcDbDictionaryWithDefault
340
F
  0
DICTIONARY
  5
133
102
{ACAD_REACTORS
330
C
102
}
330
C
100
AcDbDictionary
281
     1
  0
DICTIONARY
  5
2A
102
{ACAD_REACTORS
330
C
102
}
330
C
100
AcDbDictionary
281
     1
  3
2dWireframe
350
2F
  3
3D Hidden
350
31
  3
3dWireframe
350
30
  3
Basic
350
32
  3
Brighten
350
36
  3
ColorChange
350
3A
  3
Conceptual
350
34
  3
Dim
350
35
  3
Facepattern
350
39
  3
Flat
350
2B
  3
FlatWithEdges
350
2C
  3
Gouraud
350
2D
  3
GouraudWithEdges
350
2E
  3
Linepattern
350
38
  3
Realistic
350
33
  3
Thicken
350
37
  0
LAYOUT
  5
1E
102
{ACAD_REACTORS
330
1A
102
}
330
1A
100
AcDbPlotSettings
  1

  2
none_device
  4

  6

 40
0.0
 41
0.0
 42
0.0
 43
0.0
 44
0.0
 45
0.0
 46
0.0
 47
0.0
 48
0.0
 49
0.0
140
0.0
141
0.0
142
1.0
143
1.0
 70
   688
 72
     0
 73
     0
 74
     5
  7

 75
    16
 76
     0
 77
     2
 78
   300
147
1.0
148
0.0
149
0.0
100
AcDbLayout
  1
Layout1
 70
     1
 71
     1
 10
0.0
 20
0.0
 11
12.0
 21
9.0
 12
0.0
 22
0.0
 32
0.0
 14
1.000000000000000E+20
 24
1.000000000000000E+20
 34
1.000000000000000E+20
 15
-1.000000000000000E+20
 25
-1.000000000000000E+20
 35
-1.000000000000000E+20
146
0.0
 13
0.0
 23
0.0
 33
0.0
 16
1.0
 26
0.0
 36
0.0
 17
0.0
 27
1.0
 37
0.0
 76
     0
330
1B
  0
LAYOUT
  5
26
102
{ACAD_REACTORS
330
1A
102
}
330
1A
100
AcDbPlotSettings
  1

  2
none_device
  4

  6

 40
0.0
 41
0.0
 42
0.0
 43
0.0
 44
0.0
 45
0.0
 46
0.0
 47
0.0
 48
0.0
 49
0.0
140
0.0
141
0.0
142
1.0
143
1.0
 70
   688
 72
     0
 73
     0
 74
     5
  7

 75
    16
 76
     0
 77
     2
 78
   300
147
1.0
148
0.0
149
0.0
100
AcDbLayout
  1
Layout2
 70
     1
 71
     2
 10
0.0
 20
0.0
 11
0.0
 21
0.0
 12
0.0
 22
0.0
 32
0.0
 14
0.0
 24
0.0
 34
0.0
 15
0.0
 25
0.0
 35
0.0
146
0.0
 13
0.0
 23
0.0
 33
0.0
 16
1.0
 26
0.0
 36
0.0
 17
0.0
 27
1.0
 37
0.0
 76
     0
330
23
  0
LAYOUT
  5
22
102
{ACAD_REACTORS
330
1A
102
}
330
1A
100
AcDbPlotSettings
  1

  2
none_device
  4

  6

 40
0.0
 41
0.0
 42
0.0
 43
0.0
 44
0.0
 45
0.0
 46
0.0
 47
0.0
 48
0.0
 49
0.0
140
0.0
141
0.0
142
1.0
143
1.0
 70
  1712
 72
     0
 73
     0
 74
     0
  7

 75
     0
 76
     0
 77
     2
 78
   300
147
1.0
148
0.0
149
0.0
100
AcDbLayout
  1
Model
 70
     1
 71
     0
 10
0.0
 20
0.0
 11
12.0
 21
9.0
 12
0.0
 22
0.0
 32
0.0
 14
1.000000000000000E+20
 24
1.000000000000000E+20
 34
1.000000000000000E+20
 15
-1.000000000000000E+20
 25
-1.000000000000000E+20
 35
-1.000000000000000E+20
146
0.0
 13
0.0
 23
0.0
 33
0.0
 16
1.0
 26
0.0
 36
0.0
 17
0.0
 27
1.0
 37
0.0
 76
     0
330
1F
331
29
  0
MATERIAL
  5
3D
102
{ACAD_REACTORS
330
3B
102
}
330
3B
100
AcDbMaterial
  1
ByBlock
 72
     1
 94
      127
  0
MATERIAL
  5
3C
102
{ACAD_REACTORS
330
3B
102
}
330
3B
100
AcDbMaterial
  1
ByLayer
 72
     1
 94
      127
  0
MATERIAL
  5
3E
102
{ACAD_REACTORS
330
3B
102
}
330
3B
100
AcDbMaterial
  1
Global
 72
     1
 94
      127
  0
MLINESTYLE
  5
18
102
{ACAD_REACTORS
330
17
102
}
330
17
100
AcDbMlineStyle
  2
Standard
 70
     0
  3

 62
   256
 51
90.0
 52
90.0
 71
     2
 49
0.5
 62
   256
  6
BYLAYER
 49
-0.5
 62
   256
  6
BYLAYER
  0
ACDBPLACEHOLDER
  5
F
102
{ACAD_REACTORS
330
E
102
}
330
E
  0
VISUALSTYLE
  5
2F
102
{ACAD_REACTORS
330
2A
102
}
330
2A
100
AcDbVisualStyle
  2
2dWireframe
 70
     4
177
     2
291
     0
 71
     0
176
     1
 72
     2
176
     1
 73
     0
176
     1
 90
        0
176
     1
 40
-0.6
176
     1
 41
-30.0
176
     1
 62
     5
 63
     7
421
 16777215
176
     1
 74
     1
176
     1
 91
        4
176
     1
 64
     7
176
     1
 65
   257
176
     1
 75
     1
176
     1
175
     1
176
     1
 42
1.0
176
     1
 92
        0
176
     1
 66
   257
176
     1
 43
1.0
176
     1
 76
     1
176
     1
 77
     6
176
     1
 78
     2
176
     1
 67
     7
176
     1
 79
     5
176
     1
170
     0
176
     1
171
     0
176
     1
290
     0
176
     1
 93
        1
176
     1
 44
0.0
176
     1
173
     0
176
     1
  0
VISUALSTYLE
  5
31
102
{ACAD_REACTORS
330
2A
102
}
330
2A
100
AcDbVisualStyle
  2
3D Hidden
 70
     6
177
     2
291
     0
 71
     1
176
     1
 72
     2
176
     1
 73
     2
176
     1
 90
        0
176
     1
 40
-0.6
176
     1
 41
-30.0
176
     1
 62
     5
 63
     7
421
 16777215
176
     1
 74
     2
176
     1
 91
        2
176
     1
 64
     7
176
     1
 65
   257
176
     1
 75
     2
176
     1
175
     1
176
     1
 42
40.0
176
     1
 92
        0
176
     1
 66
   257
176
     1
 43
1.0
176
     1
 76
     1
176
     1
 77
     6
176
     1
 78
     2
176
     1
 67
     7
176
     1
 79
     3
176
     1
170
     0
176
     1
171
     0
176
     1
290
     0
176
     1
 93
        1
176
     1
 44
0.0
176
     1
173
     0
176
     1
  0
VISUALSTYLE
  5
30
102
{ACAD_REACTORS
330
2A
102
}
330
2A
100
AcDbVisualStyle
  2
3dWireframe
 70
     5
177
     2
291
     0
 71
     0
176
     1
 72
     2
176
     1
 73
     0
176
     1
 90
        0
176
     1
 40
-0.6
176
     1
 41
-30.0
176
     1
 62
     5
 63
     7
421
 16777215
176
     1
 74
     1
176
     1
 91
        4
176
     1
 64
     7
176
     1
 65
   257
176
     1
 75
     1
176
     1
175
     1
176
     1
 42
1.0
176
     1
 92
        0
176
     1
 66
   257
176
     1
 43
1.0
176
     1
 76
     1
176
     1
 77
     6
176
     1
 78
     2
176
     1
 67
     7
176
     1
 79
     5
176
     1
170
     0
176
     1
171
     0
176
     1
290
     0
176
     1
 93
        1
176
     1
 44
0.0
176
     1
173
     0
176
     1
  0
VISUALSTYLE
  5
32
102
{ACAD_REACTORS
330
2A
102
}
330
2A
100
AcDbVisualStyle
  2
Basic
 70
     7
177
     2
291
     1
 71
     1
176
     1
 72
     0
176
     1
 73
     1
176
     1
 90
        0
176
     1
 40
-0.6
176
     1
 41
-30.0
176
     1
 62
     5
 63
     7
421
 16777215
176
     1
 74
     0
176
     1
 91
        4
176
     1
 64
     7
176
     1
 65
   257
176
     1
 75
     1
176
     1
175
     1
176
     1
 42
1.0
176
     1
 92
        8
176
     1
 66
     7
176
     1
 43
1.0
176
     1
 76
     1
176
     1
 77
     6
176
     1
 78
     2
176
     1
 67
     7
176
     1
 79
     5
176
     1
170
     0
176
     1
171
     0
176
     1
290
     0
176
     1
 93
        1
176
     1
 44
0.0
176
     1
173
     0
176
     1
  0
VISUALSTYLE
  5
36
102
{ACAD_REACTORS
330
2A
102
}
330
2A
100
AcDbVisualStyle
  2
Brighten
 70
    12
177
     2
291
     1
 71
     2
176
     1
 72
     2
176
     1
 73
     0
176
     1
 90
        0
176
     1
 40
-0.6
176
     1
 41
-30.0
176
     1
 62
     5
 63
     7
421
 16777215
176
     1
 74
     1
176
     1
 91
        4
176
     1
 64
     7
176
     1
 65
   257
176
     1
 75
     1
176
     1
175
     1
176
     1
 42
1.0
176
     1
 92
        8
176
     1
 66
     7
176
     1
 43
1.0
176
     1
 76
     1
176
     1
 77
     6
176
     1
 78
     2
176
     1
 67
     7
176
     1
 79
     5
176
     1
170
     0
176
     1
171
     0
176
     1
290
     0
176
     1
 93
        1
176
     1
 44
50.0
176
     1
173
     0
176
     1
  0
VISUALSTYLE
  5
3A
102
{ACAD_REACTORS
330
2A
102
}
330
2A
100
AcDbVisualStyle
  2
ColorChange
 70
    16
177
     2
291
     1
 71
     2
176
     1
 72
     2
176
     1
 73
     3
176
     1
 90
        0
176
     1
 40
-0.6
176
     1
 41
-30.0
176
     1
 62
     5
 63
     8
421
  8421504
176
     1
 74
     1
176
     1
 91
        4
176
     1
 64
     7
176
     1
 65
   257
176
     1
 75
     1
176
     1
175
     1
176
     1
 42
1.0
176
     1
 92
        8
176
     1
 66
     8
424
  8421504
176
     1
 43
1.0
176
     1
 76
     1
176
     1
 77
     6
176
     1
 78
     2
176
     1
 67
     7
176
     1
 79
     5
176
     1
170
     0
176
     1
171
     0
176
     1
290
     0
176
     1
 93
        1
176
     1
 44
0.0
176
     1
173
     0
176
     1
  0
VISUALSTYLE
  5
34
102
{ACAD_REACTORS
330
2A
102
}
330
2A
100
AcDbVisualStyle
  2
Conceptual
 70
     9
177
     2
291
     0
 71
     3
176
     1
 72
     2
176
     1
 73
     0
176
     1
 90
        0
176
     1
 40
-0.6
176
     1
 41
-30.0
176
     1
 62
     5
 63
     7
421
 16777215
176
     1
 74
     2
176
     1
 91
        2
176
     1
 64
     7
176
     1
 65
   257
176
     1
 75
     1
176
     1
175
     1
176
     1
 42
40.0
176
     1
 92
        8
176
     1
 66
     7
176
     1
 43
1.0
176
     1
 76
     1
176
     1
 77
     6
176
     1
 78
     2
176
     1
 67
     7
176
     1
 79
     3
176
     1
170
     0
176
     1
171
     0
176
     1
290
     0
176
     1
 93
        1
176
     1
 44
0.0
176
     1
173
     0
176
     1
  0
VISUALSTYLE
  5
35
102
{ACAD_REACTORS
330
2A
102
}
330
2A
100
AcDbVisualStyle
  2
Dim
 70
    11
177
     2
291
     1
 71
     2
176
     1
 72
     2
176
     1
 73
     0
176
     1
 90
        0
176
     1
 40
-0.6
176
     1
 41
-30.0
176
     1
 62
     5
 63
     7
421
 16777215
176
     1
 74
     1
176
     1
 91
        4
176
     1
 64
     7
176
     1
 65
   257
176
     1
 75
     1
176
     1
175
     1
176
     1
 42
1.0
176
     1
 92
        8
176
     1
 66
     7
176
     1
 43
1.0
176
     1
 76
     1
176
     1
 77
     6
176
     1
 78
     2
176
     1
 67
     7
176
     1
 79
     5
176
     1
170
     0
176
     1
171
     0
176
     1
290
     0
176
     1
 93
        1
176
     1
 44
-50.0
176
     1
173
     0
176
     1
  0
VISUALSTYLE
  5
39
102
{ACAD_REACTORS
330
2A
102
}
330
2A
100
AcDbVisualStyle
  2
Facepattern
 70
    15
177
     2
291
     1
 71
     2
176
     1
 72
     2
176
     1
 73
     0
176
     1
 90
        0
176
     1
 40
-0.6
176
     1
 41
-30.0
176
     1
 62
     5
 63
     7
421
 16777215
176
     1
 74
     1
176
     1
 91
        4
176
     1
 64
     7
176
     1
 65
   257
176
     1
 75
     1
176
     1
175
     1
176
     1
 42
1.0
176
     1
 92
        8
176
     1
 66
     7
176
     1
 43
1.0
176
     1
 76
     1
176
     1
 77
     6
176
     1
 78
     2
176
     1
 67
     7
176
     1
 79
     5
176
     1
170
     0
176
     1
171
     0
176
     1
290
     0
176
     1
 93
        1
176
     1
 44
0.0
176
     1
173
     0
176
     1
  0
VISUALSTYLE
  5
2B
102
{ACAD_REACTORS
330
2A
102
}
330
2A
100
AcDbVisualStyle
  2
Flat
 70
     0
177
     2
291
     1
 71
     2
176
     1
 72
     1
176
     1
 73
     1
176
     1
 90
        2
176
     1
 40
-0.6
176
     1
 41
30.0
176
     1
 62
     5
 63
     7
421
 16777215
176
     1
 74
     0
176
     1
 91
        4
176
     1
 64
     7
176
     1
 65
   257
176
     1
 75
     1
176
     1
175
     1
176
     1
 42
1.0
176
     1
 92
        8
176
     1
 66
     7
176
     1
 43
1.0
176
     1
 76
     1
176
     1
 77
     6
176
     1
 78
     2
176
     1
 67
     7
176
     1
 79
     5
176
     1
170
     0
176
     1
171
     0
176
     1
290
     0
176
     1
 93
       13
176
     1
 44
0.0
176
     1
173
     0
176
     1
  0
VISUALSTYLE
  5
2C
102
{ACAD_REACTORS
330
2A
102
}
330
2A
100
AcDbVisualStyle
  2
FlatWithEdges
 70
     1
177
     2
291
     1
 71
     2
176
     1
 72
     1
176
     1
 73
     1
176
     1
 90
        2
176
     1
 40
-0.6
176
     1
 41
30.0
176
     1
 62
     5
 63
     7
421
 16777215
176
     1
 74
     1
176
     1
 91
        4
176
     1
 64
     7
176
     1
 65
   257
176
     1
 75
     1
176
     1
175
     1
176
     1
 42
1.0
176
     1
 92
        0
176
     1
 66
   257
176
     1
 43
1.0
176
     1
 76
     1
176
     1
 77
     6
176
     1
 78
     2
176
     1
 67
     7
176
     1
 79
     5
176
     1
170
     0
176
     1
171
     0
176
     1
290
     0
176
     1
 93
       13
176
     1
 44
0.0
176
     1
173
     0
176
     1
  0
VISUALSTYLE
  5
2D
102
{ACAD_REACTORS
330
2A
102
}
330
2A
100
AcDbVisualStyle
  2
Gouraud
 70
     2
177
     2
291
     1
 71
     2
176
     1
 72
     2
176
     1
 73
     1
176
     1
 90
        2
176
     1
 40
-0.6
176
     1
 41
30.0
176
     1
 62
     5
 63
     7
421
 16777215
176
     1
 74
     0
176
     1
 91
        4
176
     1
 64
     7
176
     1
 65
   257
176
     1
 75
     1
176
     1
175
     1
176
     1
 42
1.0
176
     1
 92
        0
176
     1
 66
     7
176
     1
 43
1.0
176
     1
 76
     1
176
     1
 77
     6
176
     1
 78
     2
176
     1
 67
     7
176
     1
 79
     5
176
     1
170
     0
176
     1
171
     0
176
     1
290
     0
176
     1
 93
       13
176
     1
 44
0.0
176
     1
173
     0
176
     1
  0
VISUALSTYLE
  5
2E
102
{ACAD_REACTORS
330
2A
102
}
330
2A
100
AcDbVisualStyle
  2
GouraudWithEdges
 70
     3
177
     2
291
     1
 71
     2
176
     1
 72
     2
176
     1
 73
     1
176
     1
 90
        2
176
     1
 40
-0.6
176
     1
 41
30.0
176
     1
 62
     5
 63
     7
421
 16777215
176
     1
 74
     1
176
     1
 91
        4
176
     1
 64
     7
176
     1
 65
   257
176
     1
 75
     1
176
     1
175
     1
176
     1
 42
1.0
176
     1
 92
        0
176
     1
 66
   257
176
     1
 43
1.0
176
     1
 76
     1
176
     1
 77
     6
176
     1
 78
     2
176
     1
 67
     7
176
     1
 79
     5
176
     1
170
     0
176
     1
171
     0
176
     1
290
     0
176
     1
 93
       13
176
     1
 44
0.0
176
     1
173
     0
176
     1
  0
VISUALSTYLE
  5
38
102
{ACAD_REACTORS
330
2A
102
}
330
2A
100
AcDbVisualStyle
  2
Linepattern
 70
    14
177
     2
291
     1
 71
     2
176
     1
 72
     2
176
     1
 73
     0
176
     1
 90
        0
176
     1
 40
-0.6
176
     1
 41
-30.0
176
     1
 62
     5
 63
     7
421
 16777215
176
     1
 74
     1
176
     1
 91
        4
176
     1
 64
     7
176
     1
 65
   257
176
     1
 75
     7
176
     1
175
     7
176
     1
 42
1.0
176
     1
 92
        8
176
     1
 66
     7
176
     1
 43
1.0
176
     1
 76
     1
176
     1
 77
     6
176
     1
 78
     2
176
     1
 67
     7
176
     1
 79
     5
176
     1
170
     0
176
     1
171
     0
176
     1
290
     0
176
     1
 93
        1
176
     1
 44
0.0
176
     1
173
     0
176
     1
  0
VISUALSTYLE
  5
33
102
{ACAD_REACTORS
330
2A
102
}
330
2A
100
AcDbVisualStyle
  2
Realistic
 70
     8
177
     2
291
     0
 71
     2
176
     1
 72
     2
176
     1
 73
     0
176
     1
 90
        0
176
     1
 40
-0.6
176
     1
 41
-30.0
176
     1
 62
     5
 63
     7
421
 16777215
176
     1
 74
     1
176
     1
 91
        0
176
     1
 64
     7
176
     1
 65
   257
176
     1
 75
     1
176
     1
175
     1
176
     1
 42
1.0
176
     1
 92
        8
176
     1
 66
     8
424
  7895160
176
     1
 43
1.0
176
     1
 76
     1
176
     1
 77
     6
176
     1
 78
     2
176
     1
 67
     7
176
     1
 79
     5
176
     1
170
     0
176
     1
171
     0
176
     1
290
     0
176
     1
 93
       13
176
     1
 44
0.0
176
     1
173
     0
176
     1
  0
VISUALSTYLE
  5
37
102
{ACAD_REACTORS
330
2A
102
}
330
2A
100
AcDbVisualStyle
  2
Thicken
 70
    13
177
     2
291
     1
 71
     2
176
     1
 72
     2
176
     1
 73
     0
176
     1
 90
        0
176
     1
 40
-0.6
176
     1
 41
-30.0
176
     1
 62
     5
 63
     7
421
 16777215
176
     1
 74
     1
176
     1
 91
        4
176
     1
 64
     7
176
     1
 65
   257
176
     1
 75
     1
176
     1
175
     1
176
     1
 42
1.0
176
     1
 92
       12
176
     1
 66
     7
176
     1
 43
1.0
176
     1
 76
     1
176
     1
 77
     6
176
     1
 78
     2
176
     1
 67
     7
176
     1
 79
     5
176
     1
170
     0
176
     1
171
     0
176
     1
290
     0
176
     1
 93
        1
176
     1
 44
0.0
176
     1
173
     0
176
     1
  0
ENDSEC
  0
EOF
