  0
SECTION
  2
HEADER
  9
$ACADVER
  1
AC1024
  9
$ACADMAINTVER
 70
     6
  9
$DWGCODEPAGE
  3
ANSI_1254
  9
$INSBASE
 10
0.0
 20
0.0
 30
0.0
  9
$EXTMIN
 10
1.000000000000000E+20
 20
1.000000000000000E+20
 30
1.000000000000000E+20
  9
$EXTMAX
 10
-1.000000000000000E+20
 20
-1.000000000000000E+20
 30
-1.000000000000000E+20
  9
$LIMMIN
 10
0.0
 20
0.0
  9
$LIMMAX
 10
12.0
 20
9.0
  9
$ORTHOMODE
 70
     0
  9
$REGENMODE
 70
     1
  9
$FILLMODE
 70
     1
  9
$QTEXTMODE
 70
     0
  9
$MIRRTEXT
 70
     1
  9
$LTSCALE
 40
1.0
  9
$ATTMODE
 70
     1
  9
$TEXTSIZE
 40
0.2
  9
$TRACEWID
 40
0.05
  9
$TEXTSTYLE
  7
Standard
  9
$CLAYER
  8
0
  9
$CELTYPE
  6
ByLayer
  9
$CECOLOR
 62
   256
  9
$CELTSCALE
 40
1.0
  9
$DISPSILH
 70
     0
  9
$DIMSCALE
 40
1.0
  9
$DIMASZ
 40
0.18
  9
$DIMEXO
 40
0.0625
  9
$DIMDLI
 40
0.38
  9
$DIMRND
 40
0.0
  9
$DIMDLE
 40
0.0
  9
$DIMEXE
 40
0.18
  9
$DIMTP
 40
0.0
  9
$DIMTM
 40
0.0
  9
$DIMTXT
 40
0.18
  9
$DIMCEN
 40
0.09
  9
$DIMTSZ
 40
0.0
  9
$DIMTOL
 70
     0
  9
$DIMLIM
 70
     0
  9
$DIMTIH
 70
     1
  9
$DIMTOH
 70
     1
  9
$DIMSE1
 70
     0
  9
$DIMSE2
 70
     0
  9
$DIMTAD
 70
     0
  9
$DIMZIN
 70
     0
  9
$DIMBLK
  1

  9
$DIMASO
 70
     1
  9
$DIMSHO
 70
     1
  9
$DIMPOST
  1

  9
$DIMAPOST
  1

  9
$DIMALT
 70
     0
  9
$DIMALTD
 70
     2
  9
$DIMALTF
 40
25.4
  9
$DIMLFAC
 40
1.0
  9
$DIMTOFL
 70
     0
  9
$DIMTVP
 40
0.0
  9
$DIMTIX
 70
     0
  9
$DIMSOXD
 70
     0
  9
$DIMSAH
 70
     0
  9
$DIMBLK1
  1

  9
$DIMBLK2
  1

  9
$DIMSTYLE
  2
Standard
  9
$DIMCLRD
 70
     0
  9
$DIMCLRE
 70
     0
  9
$DIMCLRT
 70
     0
  9
$DIMTFAC
 40
1.0
  9
$DIMGAP
 40
0.09
  9
$DIMJUST
 70
     0
  9
$DIMSD1
 70
     0
  9
$DIMSD2
 70
     0
  9
$DIMTOLJ
 70
     1
  9
$DIMTZIN
 70
     0
  9
$DIMALTZ
 70
     0
  9
$DIMALTTZ
 70
     0
  9
$DIMUPT
 70
     0
  9
$DIMDEC
 70
     4
  9
$DIMTDEC
 70
     4
  9
$DIMALTU
 70
     2
  9
$DIMALTTD
 70
     2
  9
$DIMTXSTY
  7
Standard
  9
$DIMAUNIT
 70
     0
  9
$DIMADEC
 70
     0
  9
$DIMALTRND
 40
0.0
  9
$DIMAZIN
 70
     0
  9
$DIMDSEP
 70
    46
  9
$DIMATFIT
 70
     3
  9
$DIMFRAC
 70
     0
  9
$DIMLDRBLK
  1

  9
$DIMLUNIT
 70
     2
  9
$DIMLWD
 70
    -2
  9
$DIMLWE
 70
    -2
  9
$DIMTMOVE
 70
     0
  9
$DIMFXL
 40
1.0
  9
$DIMFXLON
 70
     0
  9
$DIMJOGANG
 40
0.7853981633974483
  9
$DIMTFILL
 70
     0
  9
$DIMTFILLCLR
 70
     0
  9
$DIMARCSYM
 70
     0
  9
$DIMLTYPE
  6

  9
$DIMLTEX1
  6

  9
$DIMLTEX2
  6

  9
$DIMTXTDIRECTION
 70
     0
  9
$LUNITS
 70
     2
  9
$LUPREC
 70
     4
  9
$SKETCHINC
 40
0.1
  9
$FILLETRAD
 40
0.5
  9
$AUNITS
 70
     0
  9
$AUPREC
 70
     0
  9
$MENU
  1
.
  9
$ELEVATION
 40
0.0
  9
$PELEVATION
 40
0.0
  9
$THICKNESS
 40
0.0
  9
$LIMCHECK
 70
     0
  9
$CHAMFERA
 40
0.5
  9
$CHAMFERB
 40
0.5
  9
$CHAMFERC
 40
1.0
  9
$CHAMFERD
 40
0.0
  9
$SKPOLY
 70
     0
  9
$TDCREATE
 40
2459351.837468669
  9
$TDUCREATE
 40
2459351.712468669
  9
$TDUPDATE
 40
2459351.83746868
  9
$TDUUPDATE
 40
2459351.71246868
  9
$TDINDWG
 40
0.0000000116
  9
$TDUSRTIMER
 40
0.0000000116
  9
$USRTIMER
 70
     1
  9
$ANGBASE
 50
0.0
  9
$ANGDIR
 70
     0
  9
$PDMODE
 70
     0
  9
$PDSIZE
 40
0.0
  9
$PLINEWID
 40
0.0
  9
$SPLFRAME
 70
     0
  9
$SPLINETYPE
 70
     6
  9
$SPLINESEGS
 70
     8
  9
$HANDSEED
  5
60
  9
$SURFTAB1
 70
     6
  9
$SURFTAB2
 70
     6
  9
$SURFTYPE
 70
     6
  9
$SURFU
 70
     6
  9
$SURFV
 70
     6
  9
$UCSBASE
  2

  9
$UCSNAME
  2

  9
$UCSORG
 10
0.0
 20
0.0
 30
0.0
  9
$UCSXDIR
 10
1.0
 20
0.0
 30
0.0
  9
$UCSYDIR
 10
0.0
 20
1.0
 30
0.0
  9
$UCSORTHOREF
  2

  9
$UCSORTHOVIEW
 70
     0
  9
$UCSORGTOP
 10
0.0
 20
0.0
 30
0.0
  9
$UCSORGBOTTOM
 10
0.0
 20
0.0
 30
0.0
  9
$UCSORGLEFT
 10
0.0
 20
0.0
 30
0.0
  9
$UCSORGRIGHT
 10
0.0
 20
0.0
 30
0.0
  9
$UCSORGFRONT
 10
0.0
 20
0.0
 30
0.0
  9
$UCSORGBACK
 10
0.0
 20
0.0
 30
0.0
  9
$PUCSBASE
  2

  9
$PUCSNAME
  2

  9
$PUCSORG
 10
0.0
 20
0.0
 30
0.0
  9
$PUCSXDIR
 10
1.0
 20
0.0
 30
0.0
  9
$PUCSYDIR
 10
0.0
 20
1.0
 30
0.0
  9
$PUCSORTHOREF
  2

  9
$PUCSORTHOVIEW
 70
     0
  9
$PUCSORGTOP
 10
0.0
 20
0.0
 30
0.0
  9
$PUCSORGBOTTOM
 10
0.0
 20
0.0
 30
0.0
  9
$PUCSORGLEFT
 10
0.0
 20
0.0
 30
0.0
  9
$PUCSORGRIGHT
 10
0.0
 20
0.0
 30
0.0
  9
$PUCSORGFRONT
 10
0.0
 20
0.0
 30
0.0
  9
$PUCSORGBACK
 10
0.0
 20
0.0
 30
0.0
  9
$USERI1
 70
     0
  9
$USERI2
 70
     0
  9
$USERI3
 70
     0
  9
$USERI4
 70
     0
  9
$USERI5
 70
     0
  9
$USERR1
 40
0.0
  9
$USERR2
 40
0.0
  9
$USERR3
 40
0.0
  9
$USERR4
 40
0.0
  9
$USERR5
 40
0.0
  9
$WORLDVIEW
 70
     1
  9
$SHADEDGE
 70
     3
  9
$SHADEDIF
 70
    70
  9
$TILEMODE
 70
     1
  9
$MAXACTVP
 70
    64
  9
$PINSBASE
 10
0.0
 20
0.0
 30
0.0
  9
$PLIMCHECK
 70
     0
  9
$PEXTMIN
 10
1.000000000000000E+20
 20
1.000000000000000E+20
 30
1.000000000000000E+20
  9
$PEXTMAX
 10
-1.000000000000000E+20
 20
-1.000000000000000E+20
 30
-1.000000000000000E+20
  9
$PLIMMIN
 10
0.0
 20
0.0
  9
$PLIMMAX
 10
12.0
 20
9.0
  9
$UNITMODE
 70
     0
  9
$VISRETAIN
 70
     1
  9
$PLINEGEN
 70
     0
  9
$PSLTSCALE
 70
     1
  9
$TREEDEPTH
 70
  3020
  9
$CMLSTYLE
  2
Standard
  9
$CMLJUST
 70
     0
  9
$CMLSCALE
 40
1.0
  9
$PROXYGRAPHICS
 70
     1
  9
$MEASUREMENT
 70
     0
  9
$CELWEIGHT
370
    -1
  9
$ENDCAPS
280
     0
  9
$JOINSTYLE
280
     0
  9
$LWDISPLAY
290
     1
  9
$INSUNITS
 70
     0
  9
$HYPERLINKBASE
  1

  9
$STYLESHEET
  1

  9
$XEDIT
290
     1
  9
$CEPSNTYPE
380
     0
  9
$PSTYLEMODE
290
     1
  9
$FINGERPRINTGUID
  2
{B5BE34F5-363C-4FCA-970D-3FC77CC55830}
  9
$VERSIONGUID
  2
{FAEB1C32-E019-11D5-929B-00C0DF256EC4}
  9
$EXTNAMES
290
     1
  9
$PSVPSCALE
 40
0.0
  9
$OLESTARTUP
290
     0
  9
$SORTENTS
280
   127
  9
$INDEXCTL
280
     0
  9
$HIDETEXT
280
     1
  9
$XCLIPFRAME
280
     2
  9
$HALOGAP
280
     0
  9
$OBSCOLOR
 70
   257
  9
$OBSLTYPE
280
     0
  9
$INTERSECTIONDISPLAY
280
     0
  9
$INTERSECTIONCOLOR
 70
   257
  9
$DIMASSOC
280
     2
  9
$PROJECTNAME
  1

  9
$CAMERADISPLAY
290
     0
  9
$LENSLENGTH
 40
50.0
  9
$CAMERAHEIGHT
 40
0.0
  9
$STEPSPERSEC
 40
2.0
  9
$STEPSIZE
 40
6.0
  9
$3DDWFPREC
 40
2.0
  9
$PSOLWIDTH
 40
0.25
  9
$PSOLHEIGHT
 40
4.0
  9
$LOFTANG1
 40
1.570796326794897
  9
$LOFTANG2
 40
1.570796326794897
  9
$LOFTMAG1
 40
0.0
  9
$LOFTMAG2
 40
0.0
  9
$LOFTPARAM
 70
     7
  9
$LOFTNORMALS
280
     1
  9
$LATITUDE
 40
37.795
  9
$LONGITUDE
 40
-122.394
  9
$NORTHDIRECTION
 40
0.0
  9
$TIMEZONE
 70
 -8000
  9
$LIGHTGLYPHDISPLAY
280
     1
  9
$TILEMODELIGHTSYNCH
280
     1
  9
$CMATERIAL
347
3C
  9
$SOLIDHIST
280
     1
  9
$SHOWHIST
280
     1
  9
$DWFFRAME
280
     2
  9
$DGNFRAME
280
     2
  9
$REALWORLDSCALE
290
     1
  9
$INTERFERECOLOR
 62
   256
  9
$CSHADOW
280
     0
  9
$SHADOWPLANELOCATION
 40
0.0
  0
ENDSEC
  0
SECTION
  2
CLASSES
  0
CLASS
  1
ACDBDICTIONARYWDFLT
  2
AcDbDictionaryWithDefault
  3
ObjectDBX Classes
 90
        0
 91
        4
280
     0
281
     0
  0
CLASS
  1
VISUALSTYLE
  2
AcDbVisualStyle
  3
ObjectDBX Classes
 90
     4095
 91
        4
280
     0
281
     0
  0
CLASS
  1
MATERIAL
  2
AcDbMaterial
  3
ObjectDBX Classes
 90
     1153
 91
        4
280
     0
281
     0
  0
CLASS
  1
SUN
  2
AcDbSun
  3
SCENEOE
 90
     1024
 91
        4
280
     0
281
     0
  0
ENDSEC
  0
SECTION
  2
TABLES
  0
TABLE
  2
VPORT
  5
8
330
0
100
AcDbSymbolTable
 70
     1
  0
VPORT
  5
29
330
8
100
AcDbSymbolTableRecord
100
AcDbViewportTableRecord
  2
*Active
 70
     0
 10
0.0
 20
0.0
 11
1.0
 21
1.0
 12
0.0
 22
0.0
 13
0.0
 23
0.0
 14
0.5
 24
0.5
 15
0.5
 25
0.5
 16
0.0
 26
0.0
 36
1.0
 17
941.8563525747695
 27
-951.5868342039453
 37
0.0
 40
1090.826331592109
 41
0.4398420526607187
 42
50.0
 43
0.0
 44
0.0
 50
0.0
 51
0.0
 71
     0
 72
   100
 73
     1
 74
     3
 75
     0
 76
     0
 77
     0
 78
     0
281
     0
 65
     1
110
0.0
120
0.0
130
0.0
111
1.0
121
0.0
131
0.0
112
0.0
122
1.0
132
0.0
 79
     0
146
0.0
 60
     3
 61
     5
292
     1
282
     1
141
0.0
142
0.0
 63
   250
361
3F
  0
ENDTAB
  0
TABLE
  2
LTYPE
  5
5
330
0
100
AcDbSymbolTable
 70
     1
  0
LTYPE
  5
14
330
5
100
AcDbSymbolTableRecord
100
AcDbLinetypeTableRecord
  2
ByBlock
 70
     0
  3

 72
    65
 73
     0
 40
0.0
  0
LTYPE
  5
15
330
5
100
AcDbSymbolTableRecord
100
AcDbLinetypeTableRecord
  2
ByLayer
 70
     0
  3

 72
    65
 73
     0
 40
0.0
  0
LTYPE
  5
16
330
5
100
AcDbSymbolTableRecord
100
AcDbLinetypeTableRecord
  2
Continuous
 70
     0
  3
Solid line
 72
    65
 73
     0
 40
0.0
  0
ENDTAB
  0
TABLE
  2
LAYER
  5
2
330
0
100
AcDbSymbolTable
 70
     2
  0
LAYER
  5
10
330
2
100
AcDbSymbolTableRecord
100
AcDbLayerTableRecord
  2
0
 70
     0
 62
     7
  6
Continuous
370
    -3
390
F
347
3E
  0
LAYER
  5
40
330
2
100
AcDbSymbolTableRecord
100
AcDbLayerTableRecord
  2
katman 1
 70
     0
 62
     7
  6
Continuous
370
    -3
390
F
347
3E
  0
ENDTAB
  0
TABLE
  2
STYLE
  5
3
330
0
100
AcDbSymbolTable
 70
     1
  0
STYLE
  5
11
330
3
100
AcDbSymbolTableRecord
100
AcDbTextStyleTableRecord
  2
Standard
 70
     0
 40
0.0
 41
1.0
 50
0.0
 71
     0
 42
0.2
  3
txt
  4

  0
ENDTAB
  0
TABLE
  2
VIEW
  5
6
330
0
100
AcDbSymbolTable
 70
     0
  0
ENDTAB
  0
TABLE
  2
UCS
  5
7
330
0
100
AcDbSymbolTable
 70
     0
  0
ENDTAB
  0
TABLE
  2
APPID
  5
9
330
0
100
AcDbSymbolTable
 70
     1
  0
APPID
  5
12
330
9
100
AcDbSymbolTableRecord
100
AcDbRegAppTableRecord
  2
ACAD
 70
     0
  0
ENDTAB
  0
TABLE
  2
DIMSTYLE
  5
A
330
0
100
AcDbSymbolTable
 70
     1
100
AcDbDimStyleTable
  0
DIMSTYLE
105
27
330
A
100
AcDbSymbolTableRecord
100
AcDbDimStyleTableRecord
  2
Standard
 70
     0
178
     0
340
11
  0
ENDTAB
  0
TABLE
  2
BLOCK_RECORD
  5
1
330
0
100
AcDbSymbolTable
 70
     1
  0
BLOCK_RECORD
  5
1F
330
1
100
AcDbSymbolTableRecord
100
AcDbBlockTableRecord
  2
*Model_Space
340
22
 70
     0
280
     1
281
     0
  0
BLOCK_RECORD
  5
1B
330
1
100
AcDbSymbolTableRecord
100
AcDbBlockTableRecord
  2
*Paper_Space
340
1E
 70
     0
280
     1
281
     0
  0
BLOCK_RECORD
  5
23
330
1
100
AcDbSymbolTableRecord
100
AcDbBlockTableRecord
  2
*Paper_Space0
340
26
 70
     0
280
     1
281
     0
  0
ENDTAB
  0
ENDSEC
  0
SECTION
  2
BLOCKS
  0
BLOCK
  5
20
330
1F
100
AcDbEntity
  8
0
100
AcDbBlockBegin
  2
*Model_Space
 70
     0
 10
0.0
 20
0.0
 30
0.0
  3
*Model_Space
  1

  0
ENDBLK
  5
21
330
1F
100
AcDbEntity
  8
0
100
AcDbBlockEnd
  0
BLOCK
  5
1C
330
1B
100
AcDbEntity
 67
     1
  8
0
100
AcDbBlockBegin
  2
*Paper_Space
 70
     0
 10
0.0
 20
0.0
 30
0.0
  3
*Paper_Space
  1

  0
ENDBLK
  5
1D
330
1B
100
AcDbEntity
 67
     1
  8
0
100
AcDbBlockEnd
  0
BLOCK
  5
24
330
23
100
AcDbEntity
  8
0
100
AcDbBlockBegin
  2
*Paper_Space0
 70
     0
 10
0.0
 20
0.0
 30
0.0
  3
*Paper_Space0
  1

  0
ENDBLK
  5
25
330
23
100
AcDbEntity
  8
0
100
AcDbBlockEnd
  0
ENDSEC
  0
SECTION
  2
ENTITIES
  0
SPLINE
  5
41
330
1F
100
AcDbEntity
  8
katman 1
370
     0
100
AcDbSpline
210
0.0
220
0.0
230
1.0
 70
    11
 71
     3
 72
    86
 73
    82
 74
     0
 42
0.0000000001
 43
0.0000000001
 12
1.0
 22
0.0
 32
0.0
 13
1.0
 23
0.0
 33
0.0
 40
0.0
 40
0.0
 40
0.0
 40
0.0
 40
1.0
 40
1.0
 40
1.0
 40
2.0
 40
2.0
 40
2.0
 40
3.0
 40
3.0
 40
3.0
 40
4.0
 40
4.0
 40
4.0
 40
5.0
 40
5.0
 40
5.0
 40
6.0
 40
6.0
 40
6.0
 40
7.0
 40
7.0
 40
7.0
 40
8.0
 40
8.0
 40
8.0
 40
9.0
 40
9.0
 40
9.0
 40
10.0
 40
10.0
 40
10.0
 40
11.0
 40
11.0
 40
11.0
 40
12.0
 40
12.0
 40
12.0
 40
13.0
 40
13.0
 40
13.0
 40
14.0
 40
14.0
 40
14.0
 40
15.0
 40
15.0
 40
15.0
 40
16.0
 40
16.0
 40
16.0
 40
17.0
 40
17.0
 40
17.0
 40
18.0
 40
18.0
 40
18.0
 40
19.0
 40
19.0
 40
19.0
 40
20.0
 40
20.0
 40
20.0
 40
21.0
 40
21.0
 40
21.0
 40
22.0
 40
22.0
 40
22.0
 40
23.0
 40
23.0
 40
23.0
 40
24.0
 40
24.0
 40
24.0
 40
25.0
 40
25.0
 40
25.0
 40
26.0
 40
26.0
 40
26.0
 40
27.0
 40
27.0
 40
27.0
 40
27.0
 10
901.4650668282193
 20
-883.308892143139
 30
0.0
 10
901.4533345856071
 20
-826.023069645018
 30
0.0
 10
901.2247445048188
 20
-768.735594521323
 30
0.0
 10
901.6367743973533
 20
-711.45275393456
 30
0.0
 10
901.7243439999438
 20
-699.2778613336386
 30
0.0
 10
899.9832288895886
 20
-690.0115178890183
 30
0.0
 10
890.3706593538318
 20
-680.3646394427433
 30
0.0
 10
870.0219559270481
 20
-659.9433607892697
 30
0.0
 10
873.7491438748166
 20
-638.0088878632841
 30
0.0
 10
897.6806729685377
 20
-621.0821578385385
 30
0.0
 10
941.427618467279
 20
-590.1399055169113
 30
0.0
 10
1047.967556661293
 20
-590.3441125551835
 30
0.0
 10
1091.611499178565
 20
-621.4538548860319
 30
0.0
 10
1116.278997421019
 20
-639.0370365299414
 30
0.0
 10
1119.097502516797
 20
-661.6273503221555
 30
0.0
 10
1097.287928267966
 20
-682.3228929675661
 30
0.0
 10
1089.313129494158
 20
-689.8903373224939
 30
0.0
 10
1087.640359637866
 20
-697.1085028551088
 30
0.0
 10
1087.653367514813
 20
-706.9129555571599
 30
0.0
 10
1087.807629436817
 20
-823.0533014892062
 30
0.0
 10
1087.976588103782
 20
-939.1955874599698
 30
0.0
 10
1087.32863772466
 20
-1055.332843700731
 30
0.0
 10
1087.239882321133
 20
-1071.244897549914
 30
0.0
 10
1092.913939808648
 20
-1080.271179166642
 30
0.0
 10
1105.593996703758
 20
-1089.691288642898
 30
0.0
 10
1199.274462727435
 20
-1159.286872359398
 30
0.0
 10
1207.666232231015
 20
-1291.564604044928
 30
0.0
 10
1124.454016886506
 20
-1373.552436551943
 30
0.0
 10
1104.167406308829
 20
-1393.540439891976
 30
0.0
 10
1104.097911187202
 20
-1396.827009184926
 30
0.0
 10
1123.542495298929
 20
-1416.656647883043
 30
0.0
 10
1141.708534466155
 20
-1435.182580563418
 30
0.0
 10
1138.597567739071
 20
-1455.097796524933
 30
0.0
 10
1114.072689009423
 20
-1470.633051743325
 30
0.0
 10
1086.802249908347
 20
-1487.907443891472
 30
0.0
 10
1055.63756866071
 20
-1492.551465459934
 30
0.0
 10
1024.319559758478
 20
-1495.371994341114
 30
0.0
 10
977.6623173913749
 20
-1499.574118201866
 30
0.0
 10
931.5407695812619
 20
-1496.311691612953
 30
0.0
 10
888.0620486613252
 20
-1477.646219851516
 30
0.0
 10
848.8119837190952
 20
-1460.79590579624
 30
0.0
 10
845.255497206329
 20
-1440.862654659984
 30
0.0
 10
873.4731936232411
 20
-1409.325169718713
 30
0.0
 10
882.2510670988504
 20
-1399.514681340657
 30
0.0
 10
881.286166502392
 20
-1389.377763485154
 30
0.0
 10
871.9593570259731
 20
-1380.792373630156
 30
0.0
 10
819.3501485515517
 20
-1332.365342739538
 30
0.0
 10
798.7763585467419
 20
-1273.272122690152
 30
0.0
 10
810.993234408872
 20
-1202.600679725216
 30
0.0
 10
813.3648901845727
 20
-1188.881157039237
 30
0.0
 10
798.4152821611742
 20
-1179.05874101573
 30
0.0
 10
781.758803521172
 20
-1185.185239577027
 30
0.0
 10
765.808289672841
 20
-1191.052132216693
 30
0.0
 10
749.4855870468182
 20
-1191.044587621687
 30
0.0
 10
733.3407994781737
 20
-1192.904366218308
 30
0.0
 10
708.9948419400225
 20
-1195.708728110172
 30
0.0
 10
697.0145243816505
 20
-1182.235087368246
 30
0.0
 10
703.875586574617
 20
-1158.892469673603
 30
0.0
 10
716.0694111851808
 20
-1117.40675360537
 30
0.0
 10
739.3626739407728
 20
-1082.128083631833
 30
0.0
 10
771.1237861101117
 20
-1053.079883924163
 30
0.0
 10
787.382464468833
 20
-1038.209990132364
 30
0.0
 10
803.5813317469174
 20
-1042.73200482153
 30
0.0
 10
811.9261183800054
 20
-1063.427188200505
 30
0.0
 10
818.274034200469
 20
-1079.170314974752
 30
0.0
 10
828.0080405322642
 20
-1093.870060185753
 30
0.0
 10
827.5749357230634
 20
-1112.143572273077
 30
0.0
 10
827.4133433952647
 20
-1118.962664656297
 30
0.0
 10
830.6849502160585
 20
-1127.367918323773
 30
0.0
 10
837.4921303330748
 20
-1129.775506371403
 30
0.0
 10
844.7467526706387
 20
-1132.341387207673
 30
0.0
 10
846.9230028251313
 20
-1123.419508415234
 30
0.0
 10
851.056094027259
 20
-1119.1976249009
 30
0.0
 10
857.0923418345574
 20
-1113.031750738974
 30
0.0
 10
861.9912268756761
 20
-1104.403967445345
 30
0.0
 10
869.3091278632837
 20
-1101.072058729049
 30
0.0
 10
902.9445151982918
 20
-1085.757752364525
 30
0.0
 10
902.745624040992
 20
-1057.53600915023
 30
0.0
 10
901.8479727310569
 20
-1026.904665996313
 30
0.0
 10
900.4463560225367
 20
-979.0768196560639
 30
0.0
 10
901.4767990708297
 20
-931.1777667095848
 30
0.0
 10
901.4650668282193
 20
-883.308892143139
 30
0.0
  0
HATCH
  5
42
330
1F
100
AcDbEntity
  8
katman 1
 62
     7
420
 16777215
100
AcDbHatch
 10
0.0
 20
0.0
 30
0.0
210
0.0
220
0.0
230
1.0
  2
SOLID
 70
     1
 71
     0
 91
        1
 92
        1
 93
        1
 72
     4
 94
        3
 73
     0
 74
     1
 95
       86
 96
       82
 40
0.0
 40
0.0
 40
0.0
 40
0.0
 40
1.0
 40
1.0
 40
1.0
 40
2.0
 40
2.0
 40
2.0
 40
3.0
 40
3.0
 40
3.0
 40
4.0
 40
4.0
 40
4.0
 40
5.0
 40
5.0
 40
5.0
 40
6.0
 40
6.0
 40
6.0
 40
7.0
 40
7.0
 40
7.0
 40
8.0
 40
8.0
 40
8.0
 40
9.0
 40
9.0
 40
9.0
 40
10.0
 40
10.0
 40
10.0
 40
11.0
 40
11.0
 40
11.0
 40
12.0
 40
12.0
 40
12.0
 40
13.0
 40
13.0
 40
13.0
 40
14.0
 40
14.0
 40
14.0
 40
15.0
 40
15.0
 40
15.0
 40
16.0
 40
16.0
 40
16.0
 40
17.0
 40
17.0
 40
17.0
 40
18.0
 40
18.0
 40
18.0
 40
19.0
 40
19.0
 40
19.0
 40
20.0
 40
20.0
 40
20.0
 40
21.0
 40
21.0
 40
21.0
 40
22.0
 40
22.0
 40
22.0
 40
23.0
 40
23.0
 40
23.0
 40
24.0
 40
24.0
 40
24.0
 40
25.0
 40
25.0
 40
25.0
 40
26.0
 40
26.0
 40
26.0
 40
27.0
 40
27.0
 40
27.0
 40
27.0
 10
901.4650668282193
 20
-883.308892143139
 10
901.4533345856071
 20
-826.023069645018
 10
901.2247445048188
 20
-768.735594521323
 10
901.6367743973533
 20
-711.45275393456
 10
901.7243439999438
 20
-699.2778613336386
 10
899.9832288895886
 20
-690.0115178890183
 10
890.3706593538318
 20
-680.3646394427433
 10
870.0219559270481
 20
-659.9433607892697
 10
873.7491438748166
 20
-638.0088878632841
 10
897.6806729685377
 20
-621.0821578385385
 10
941.427618467279
 20
-590.1399055169113
 10
1047.967556661293
 20
-590.3441125551835
 10
1091.611499178565
 20
-621.4538548860319
 10
1116.278997421019
 20
-639.0370365299414
 10
1119.097502516797
 20
-661.6273503221555
 10
1097.287928267966
 20
-682.3228929675661
 10
1089.313129494158
 20
-689.8903373224939
 10
1087.640359637866
 20
-697.1085028551088
 10
1087.653367514813
 20
-706.9129555571599
 10
1087.807629436817
 20
-823.0533014892062
 10
1087.976588103782
 20
-939.1955874599698
 10
1087.32863772466
 20
-1055.332843700731
 10
1087.239882321133
 20
-1071.244897549914
 10
1092.913939808648
 20
-1080.271179166642
 10
1105.593996703758
 20
-1089.691288642898
 10
1199.274462727435
 20
-1159.286872359398
 10
1207.666232231015
 20
-1291.564604044928
 10
1124.454016886506
 20
-1373.552436551943
 10
1104.167406308829
 20
-1393.540439891976
 10
1104.097911187202
 20
-1396.827009184926
 10
1123.542495298929
 20
-1416.656647883043
 10
1141.708534466155
 20
-1435.182580563418
 10
1138.597567739071
 20
-1455.097796524933
 10
1114.072689009423
 20
-1470.633051743325
 10
1086.802249908347
 20
-1487.907443891472
 10
1055.63756866071
 20
-1492.551465459934
 10
1024.319559758478
 20
-1495.371994341114
 10
977.6623173913749
 20
-1499.574118201866
 10
931.5407695812619
 20
-1496.311691612953
 10
888.0620486613252
 20
-1477.646219851516
 10
848.8119837190952
 20
-1460.79590579624
 10
845.255497206329
 20
-1440.862654659984
 10
873.4731936232411
 20
-1409.325169718713
 10
882.2510670988504
 20
-1399.514681340657
 10
881.286166502392
 20
-1389.377763485154
 10
871.9593570259731
 20
-1380.792373630156
 10
819.3501485515517
 20
-1332.365342739538
 10
798.7763585467419
 20
-1273.272122690152
 10
810.993234408872
 20
-1202.600679725216
 10
813.3648901845727
 20
-1188.881157039237
 10
798.4152821611742
 20
-1179.05874101573
 10
781.758803521172
 20
-1185.185239577027
 10
765.808289672841
 20
-1191.052132216693
 10
749.4855870468182
 20
-1191.044587621687
 10
733.3407994781737
 20
-1192.904366218308
 10
708.9948419400225
 20
-1195.708728110172
 10
697.0145243816505
 20
-1182.235087368246
 10
703.875586574617
 20
-1158.892469673603
 10
716.0694111851808
 20
-1117.40675360537
 10
739.3626739407728
 20
-1082.128083631833
 10
771.1237861101117
 20
-1053.079883924163
 10
787.382464468833
 20
-1038.209990132364
 10
803.5813317469174
 20
-1042.73200482153
 10
811.9261183800054
 20
-1063.427188200505
 10
818.274034200469
 20
-1079.170314974752
 10
828.0080405322642
 20
-1093.870060185753
 10
827.5749357230634
 20
-1112.143572273077
 10
827.4133433952647
 20
-1118.962664656297
 10
830.6849502160585
 20
-1127.367918323773
 10
837.4921303330748
 20
-1129.775506371403
 10
844.7467526706387
 20
-1132.341387207673
 10
846.9230028251313
 20
-1123.419508415234
 10
851.056094027259
 20
-1119.1976249009
 10
857.0923418345574
 20
-1113.031750738974
 10
861.9912268756761
 20
-1104.403967445345
 10
869.3091278632837
 20
-1101.072058729049
 10
902.9445151982918
 20
-1085.757752364525
 10
902.745624040992
 20
-1057.53600915023
 10
901.8479727310569
 20
-1026.904665996313
 10
900.4463560225367
 20
-979.0768196560639
 10
901.4767990708297
 20
-931.1777667095848
 10
901.4650668282193
 20
-883.308892143139
 97
        0
 97
        0
 75
     2
 76
     1
 98
        0
  0
SPLINE
  5
43
330
1F
100
AcDbEntity
  8
katman 1
370
     0
100
AcDbSpline
210
0.0
220
0.0
230
1.0
 70
    11
 71
     3
 72
    62
 73
    58
 74
     0
 42
0.0000000001
 43
0.0000000001
 12
1.0
 22
0.0
 32
0.0
 13
1.0
 23
0.0
 33
0.0
 40
0.0
 40
0.0
 40
0.0
 40
0.0
 40
1.0
 40
1.0
 40
1.0
 40
2.0
 40
2.0
 40
2.0
 40
3.0
 40
3.0
 40
3.0
 40
4.0
 40
4.0
 40
4.0
 40
5.0
 40
5.0
 40
5.0
 40
6.0
 40
6.0
 40
6.0
 40
7.0
 40
7.0
 40
7.0
 40
8.0
 40
8.0
 40
8.0
 40
9.0
 40
9.0
 40
9.0
 40
10.0
 40
10.0
 40
10.0
 40
11.0
 40
11.0
 40
11.0
 40
12.0
 40
12.0
 40
12.0
 40
13.0
 40
13.0
 40
13.0
 40
14.0
 40
14.0
 40
14.0
 40
15.0
 40
15.0
 40
15.0
 40
16.0
 40
16.0
 40
16.0
 40
17.0
 40
17.0
 40
17.0
 40
18.0
 40
18.0
 40
18.0
 40
19.0
 40
19.0
 40
19.0
 40
19.0
 10
991.5055731397788
 20
-506.4083554331883
 30
0.0
 10
970.1655760623262
 20
-501.6979234653118
 30
0.0
 10
951.4518046619069
 20
-499.7560884163004
 30
0.0
 10
934.4668591621275
 20
-491.3830250208657
 30
0.0
 10
928.005070518273
 20
-488.1975892276978
 30
0.0
 10
921.3185186966548
 20
-485.0314101151243
 30
0.0
 10
921.3921820882442
 20
-476.5758771109013
 30
0.0
 10
921.4703371500591
 20
-467.607527205857
 30
0.0
 10
929.1882123873311
 20
-465.1433008056829
 30
0.0
 10
935.6661351106159
 20
-463.1859274836115
 30
0.0
 10
955.8388369315362
 20
-457.0905952850335
 30
0.0
 10
976.6807616817377
 20
-453.0665238665333
 30
0.0
 10
995.5591438123429
 20
-443.132088570449
 30
0.0
 10
1010.169253433902
 20
-435.4437510621428
 30
0.0
 10
1021.381180967897
 20
-425.7150317233345
 30
0.0
 10
1015.978635961781
 20
-406.1736684078905
 30
0.0
 10
1049.508055812978
 20
-431.9827040279288
 30
0.0
 10
1036.60176247227
 20
-454.2469476091428
 30
0.0
 10
970.8420575306718
 20
-482.3271937403479
 30
0.0
 10
992.3579124805456
 20
-485.1009820591098
 30
0.0
 10
1011.285882650362
 20
-487.5818065683034
 30
0.0
 10
1030.225854563001
 20
-489.9670123174101
 30
0.0
 10
1040.972948129369
 20
-491.3204408089268
 30
0.0
 10
1051.132387497639
 20
-494.8109117636823
 30
0.0
 10
1052.648272296527
 20
-506.766472209667
 30
0.0
 10
1054.347201640179
 20
-520.1657268374711
 30
0.0
 10
1044.458807619621
 20
-526.679299049425
 30
0.0
 10
1033.17149189267
 20
-529.3401340029013
 30
0.0
 10
1011.349556567387
 20
-534.4843083305659
 30
0.0
 10
989.2629001660853
 20
-538.5056852508496
 30
0.0
 10
967.3010403301387
 20
-547.2905398272624
 30
0.0
 10
978.101890205694
 20
-547.2905398272624
 30
0.0
 10
988.9120827552979
 20
-547.0185392138264
 30
0.0
 10
999.7001044206972
 20
-547.3904158945352
 30
0.0
 10
1006.394992782236
 20
-547.6211906852359
 30
0.0
 10
1014.791792956465
 20
-543.9259558292433
 30
0.0
 10
1019.171997887363
 20
-551.3972245611185
 30
0.0
 10
1024.15282895995
 20
-559.8930492953614
 30
0.0
 10
1016.590006178638
 20
-565.7534392126627
 30
0.0
 10
1012.363021102252
 20
-572.0047469314113
 30
0.0
 10
1009.323130564728
 20
-576.5004633179678
 30
0.0
 10
1006.090457541384
 20
-580.8658378440668
 30
0.0
 10
1002.862060588104
 20
-585.4041991557497
 30
0.0
 10
996.5187083045766
 20
-576.7086582136017
 30
0.0
 10
1007.7808706783
 20
-570.5015761922696
 30
0.0
 10
1006.37548096681
 20
-561.176851952926
 30
0.0
 10
989.8376183539458
 20
-561.176851952926
 30
0.0
 10
973.0813527683658
 20
-561.4556427018697
 30
0.0
 10
956.3420836628811
 20
-561.0434204011754
 30
0.0
 10
949.3715504833326
 20
-560.8717629013754
 30
0.0
 10
941.7403824479716
 20
-560.107782840003
 30
0.0
 10
939.0225985651887
 20
-551.7956869575828
 30
0.0
 10
936.0364643368339
 20
-542.662810991349
 30
0.0
 10
941.4992695906112
 20
-536.481165033194
 30
0.0
 10
948.1872587467005
 20
-532.1667344867301
 30
0.0
 10
961.1538482684291
 20
-523.8018623658854
 30
0.0
 10
974.6929999763233
 20
-516.3241807282511
 30
0.0
 10
991.5055731397788
 20
-506.4083554331883
 30
0.0
  0
HATCH
  5
44
330
1F
100
AcDbEntity
  8
katman 1
 62
     7
420
 16777215
100
AcDbHatch
 10
0.0
 20
0.0
 30
0.0
210
0.0
220
0.0
230
1.0
  2
SOLID
 70
     1
 71
     0
 91
        1
 92
        1
 93
        1
 72
     4
 94
        3
 73
     0
 74
     1
 95
       62
 96
       58
 40
0.0
 40
0.0
 40
0.0
 40
0.0
 40
1.0
 40
1.0
 40
1.0
 40
2.0
 40
2.0
 40
2.0
 40
3.0
 40
3.0
 40
3.0
 40
4.0
 40
4.0
 40
4.0
 40
5.0
 40
5.0
 40
5.0
 40
6.0
 40
6.0
 40
6.0
 40
7.0
 40
7.0
 40
7.0
 40
8.0
 40
8.0
 40
8.0
 40
9.0
 40
9.0
 40
9.0
 40
10.0
 40
10.0
 40
10.0
 40
11.0
 40
11.0
 40
11.0
 40
12.0
 40
12.0
 40
12.0
 40
13.0
 40
13.0
 40
13.0
 40
14.0
 40
14.0
 40
14.0
 40
15.0
 40
15.0
 40
15.0
 40
16.0
 40
16.0
 40
16.0
 40
17.0
 40
17.0
 40
17.0
 40
18.0
 40
18.0
 40
18.0
 40
19.0
 40
19.0
 40
19.0
 40
19.0
 10
991.5055731397788
 20
-506.4083554331883
 10
970.1655760623262
 20
-501.6979234653118
 10
951.4518046619069
 20
-499.7560884163004
 10
934.4668591621275
 20
-491.3830250208657
 10
928.005070518273
 20
-488.1975892276978
 10
921.3185186966548
 20
-485.0314101151243
 10
921.3921820882442
 20
-476.5758771109013
 10
921.4703371500591
 20
-467.607527205857
 10
929.1882123873311
 20
-465.1433008056829
 10
935.6661351106159
 20
-463.1859274836115
 10
955.8388369315362
 20
-457.0905952850335
 10
976.6807616817377
 20
-453.0665238665333
 10
995.5591438123429
 20
-443.132088570449
 10
1010.169253433902
 20
-435.4437510621428
 10
1021.381180967897
 20
-425.7150317233345
 10
1015.978635961781
 20
-406.1736684078905
 10
1049.508055812978
 20
-431.9827040279288
 10
1036.60176247227
 20
-454.2469476091428
 10
970.8420575306718
 20
-482.3271937403479
 10
992.3579124805456
 20
-485.1009820591098
 10
1011.285882650362
 20
-487.5818065683034
 10
1030.225854563001
 20
-489.9670123174101
 10
1040.972948129369
 20
-491.3204408089268
 10
1051.132387497639
 20
-494.8109117636823
 10
1052.648272296527
 20
-506.766472209667
 10
1054.347201640179
 20
-520.1657268374711
 10
1044.458807619621
 20
-526.679299049425
 10
1033.17149189267
 20
-529.3401340029013
 10
1011.349556567387
 20
-534.4843083305659
 10
989.2629001660853
 20
-538.5056852508496
 10
967.3010403301387
 20
-547.2905398272624
 10
978.101890205694
 20
-547.2905398272624
 10
988.9120827552979
 20
-547.0185392138264
 10
999.7001044206972
 20
-547.3904158945352
 10
1006.394992782236
 20
-547.6211906852359
 10
1014.791792956465
 20
-543.9259558292433
 10
1019.171997887363
 20
-551.3972245611185
 10
1024.15282895995
 20
-559.8930492953614
 10
1016.590006178638
 20
-565.7534392126627
 10
1012.363021102252
 20
-572.0047469314113
 10
1009.323130564728
 20
-576.5004633179678
 10
1006.090457541384
 20
-580.8658378440668
 10
1002.862060588104
 20
-585.4041991557497
 10
996.5187083045766
 20
-576.7086582136017
 10
1007.7808706783
 20
-570.5015761922696
 10
1006.37548096681
 20
-561.176851952926
 10
989.8376183539458
 20
-561.176851952926
 10
973.0813527683658
 20
-561.4556427018697
 10
956.3420836628811
 20
-561.0434204011754
 10
949.3715504833326
 20
-560.8717629013754
 10
941.7403824479716
 20
-560.107782840003
 10
939.0225985651887
 20
-551.7956869575828
 10
936.0364643368339
 20
-542.662810991349
 10
941.4992695906112
 20
-536.481165033194
 10
948.1872587467005
 20
-532.1667344867301
 10
961.1538482684291
 20
-523.8018623658854
 10
974.6929999763233
 20
-516.3241807282511
 10
991.5055731397788
 20
-506.4083554331883
 97
        0
 97
        0
 75
     2
 76
     1
 98
        0
  0
SPLINE
  5
45
330
1F
100
AcDbEntity
  8
katman 1
370
     0
100
AcDbSpline
210
0.0
220
0.0
230
1.0
 70
    11
 71
     3
 72
   110
 73
   106
 74
     0
 42
0.0000000001
 43
0.0000000001
 12
1.0
 22
0.0
 32
0.0
 13
1.0
 23
0.0
 33
0.0
 40
0.0
 40
0.0
 40
0.0
 40
0.0
 40
1.0
 40
1.0
 40
1.0
 40
2.0
 40
2.0
 40
2.0
 40
3.0
 40
3.0
 40
3.0
 40
4.0
 40
4.0
 40
4.0
 40
5.0
 40
5.0
 40
5.0
 40
6.0
 40
6.0
 40
6.0
 40
7.0
 40
7.0
 40
7.0
 40
8.0
 40
8.0
 40
8.0
 40
9.0
 40
9.0
 40
9.0
 40
10.0
 40
10.0
 40
10.0
 40
11.0
 40
11.0
 40
11.0
 40
12.0
 40
12.0
 40
12.0
 40
13.0
 40
13.0
 40
13.0
 40
14.0
 40
14.0
 40
14.0
 40
15.0
 40
15.0
 40
15.0
 40
16.0
 40
16.0
 40
16.0
 40
17.0
 40
17.0
 40
17.0
 40
18.0
 40
18.0
 40
18.0
 40
19.0
 40
19.0
 40
19.0
 40
20.0
 40
20.0
 40
20.0
 40
21.0
 40
21.0
 40
21.0
 40
22.0
 40
22.0
 40
22.0
 40
23.0
 40
23.0
 40
23.0
 40
24.0
 40
24.0
 40
24.0
 40
25.0
 40
25.0
 40
25.0
 40
26.0
 40
26.0
 40
26.0
 40
27.0
 40
27.0
 40
27.0
 40
28.0
 40
28.0
 40
28.0
 40
29.0
 40
29.0
 40
29.0
 40
30.0
 40
30.0
 40
30.0
 40
31.0
 40
31.0
 40
31.0
 40
32.0
 40
32.0
 40
32.0
 40
33.0
 40
33.0
 40
33.0
 40
34.0
 40
34.0
 40
34.0
 40
35.0
 40
35.0
 40
35.0
 40
35.0
 10
1132.800977487979
 20
-1135.752118978509
 30
0.0
 10
1181.875457100177
 20
-1192.119009804403
 30
0.0
 10
1181.0704779302
 20
-1282.74094869418
 30
0.0
 10
1129.245083875687
 20
-1347.617998984839
 30
0.0
 10
1083.078008496241
 20
-1405.411680507066
 30
0.0
 10
1021.794486494775
 20
-1425.805654911937
 30
0.0
 10
950.8712293360695
 20
-1407.788946468092
 30
0.0
 10
880.8073364903621
 20
-1389.990672013111
 30
0.0
 10
839.8948325333376
 20
-1341.633913636022
 30
0.0
 10
822.015200225961
 20
-1271.913233348911
 30
0.0
 10
817.0911438649382
 20
-1252.712095341773
 30
0.0
 10
834.1657970023361
 20
-1240.547118494311
 30
0.0
 10
832.0685104102913
 20
-1223.087201162198
 30
0.0
 10
831.5367325897187
 20
-1218.660320223455
 30
0.0
 10
837.7633194142236
 20
-1217.257528524573
 30
0.0
 10
840.997789105646
 20
-1219.807889051111
 30
0.0
 10
849.1178484943357
 20
-1226.210591643079
 30
0.0
 10
863.8691582609008
 20
-1225.934962438701
 30
0.0
 10
864.5331349193657
 20
-1239.775629764557
 30
0.0
 10
865.1070805399504
 20
-1251.739704824911
 30
0.0
 10
857.8122847039504
 20
-1267.154677642873
 30
0.0
 10
874.352213485111
 20
-1271.966117367265
 30
0.0
 10
892.6295562403593
 20
-1277.283116810633
 30
0.0
 10
902.6441482274022
 20
-1261.945601834796
 30
0.0
 10
912.3996067761682
 20
-1249.937624416807
 30
0.0
 10
924.2916809814105
 20
-1235.299816738179
 30
0.0
 10
926.0824919310662
 20
-1224.650081981848
 30
0.0
 10
922.9626137302739
 20
-1202.112939621133
 30
0.0
 10
915.7884821230364
 20
-1203.48720556554
 30
0.0
 10
915.5506751349612
 20
-1211.502224037771
 30
0.0
 10
910.6261336735579
 20
-1214.845629279807
 30
0.0
 10
906.778568963914
 20
-1215.598939128238
 30
0.0
 10
904.4133452599644
 20
-1214.922943415324
 30
0.0
 10
906.1931785676052
 20
-1210.250036825963
 30
0.0
 10
916.1745501617042
 20
-1193.472869415633
 30
0.0
 10
912.5327758148196
 20
-1181.55197818005
 30
0.0
 10
894.931698927754
 20
-1172.093355342604
 30
0.0
 10
879.1939644810363
 20
-1163.636151749472
 30
0.0
 10
864.6861391737039
 20
-1152.891067682889
 30
0.0
 10
849.1713353033028
 20
-1142.855103693964
 30
0.0
 10
863.8142880175064
 20
-1121.803599870647
 30
0.0
 10
880.2624429927473
 20
-1104.534812278807
 30
0.0
 10
905.1135607137539
 20
-1090.695582018667
 30
0.0
 10
903.8973062518344
 20
-1129.885944871696
 30
0.0
 10
919.9528712832553
 20
-1157.405250363905
 30
0.0
 10
953.9886640682689
 20
-1172.153280982966
 30
0.0
 10
994.6563180983194
 20
-1189.775011914709
 30
0.0
 10
1036.18148587322
 20
-1190.581205781493
 30
0.0
 10
1077.46931379375
 20
-1173.910093821018
 30
0.0
 10
1084.53381271427
 20
-1171.057662080926
 30
0.0
 10
1091.01902990999
 20
-1166.106826982059
 30
0.0
 10
1096.889966286551
 20
-1161.093120258096
 30
0.0
 10
1112.164950900622
 20
-1148.048731045585
 30
0.0
 10
1119.147629556439
 20
-1149.504406762804
 30
0.0
 10
1126.383746212701
 20
-1168.929295901953
 30
0.0
 10
1134.329546763571
 20
-1190.259231207783
 30
0.0
 10
1134.256925439469
 20
-1211.838784828509
 30
0.0
 10
1126.940066519346
 20
-1233.209604653966
 30
0.0
 10
1125.111777073387
 20
-1233.209604653966
 30
0.0
 10
1123.262215077268
 20
-1233.779976036718
 30
0.0
 10
1122.146627928301
 20
-1233.116554648839
 30
0.0
 10
1115.210123642339
 20
-1228.991313803919
 30
0.0
 10
1115.438480156266
 20
-1214.847497465231
 30
0.0
 10
1104.619447999674
 20
-1217.627501093211
 30
0.0
 10
1095.450583614831
 20
-1219.983498481635
 30
0.0
 10
1095.370380351414
 20
-1231.384818607537
 30
0.0
 10
1092.036914248358
 20
-1239.04466628802
 30
0.0
 10
1087.35533621244
 20
-1249.802612092761
 30
0.0
 10
1084.563888938059
 20
-1261.398726476486
 30
0.0
 10
1079.687516148093
 20
-1272.05219760368
 30
0.0
 10
1072.608104882425
 20
-1287.51861737426
 30
0.0
 10
1061.429918775117
 20
-1296.521977792825
 30
0.0
 10
1042.693185956545
 20
-1294.76193155691
 30
0.0
 10
1025.141068274868
 20
-1293.113114207434
 30
0.0
 10
1008.780788335787
 20
-1309.446372018023
 30
0.0
 10
1007.188868543435
 20
-1327.341792115423
 30
0.0
 10
1006.156610860366
 20
-1338.946169627012
 30
0.0
 10
1013.527297956389
 20
-1337.603159861947
 30
0.0
 10
1020.785298029963
 20
-1337.331698148157
 30
0.0
 10
1029.89329129999
 20
-1336.990969866849
 30
0.0
 10
1037.856950731646
 20
-1328.677688405209
 30
0.0
 10
1048.508784956006
 20
-1333.59374651375
 30
0.0
 10
1045.451215204486
 20
-1351.719671952022
 30
0.0
 10
1030.367360141585
 20
-1356.087058370125
 30
0.0
 10
1016.758821112144
 20
-1360.555326801499
 30
0.0
 10
959.5656655456896
 20
-1379.334254901205
 30
0.0
 10
888.649828626194
 20
-1356.031156513764
 30
0.0
 10
852.677964276636
 20
-1307.307084139611
 30
0.0
 10
849.1108774221511
 20
-1302.475597348455
 30
0.0
 10
845.9389497468583
 20
-1297.352458070205
 30
0.0
 10
841.1803126166651
 20
-1293.610554505094
 30
0.0
 10
855.3222464679566
 20
-1344.905393738949
 30
0.0
 10
890.3909976365867
 20
-1377.337380235274
 30
0.0
 10
939.563647193093
 20
-1393.142803808309
 30
0.0
 10
1007.133028099268
 20
-1414.861680950218
 30
0.0
 10
1068.532255525568
 20
-1399.649981077822
 30
0.0
 10
1114.627140781256
 20
-1345.898406148848
 30
0.0
 10
1163.179364913747
 20
-1289.281322181749
 30
0.0
 10
1169.502738248138
 20
-1223.288462215754
 30
0.0
 10
1141.022638457025
 20
-1154.257789032275
 30
0.0
 10
1138.433927209657
 20
-1147.983272702208
 30
0.0
 10
1131.916621521888
 20
-1143.355992949335
 30
0.0
 10
1133.144212959443
 20
-1135.481950623849
 30
0.0
 10
1133.144212959443
 20
-1135.481950623849
 30
0.0
 10
1132.800977487979
 20
-1135.752118978509
 30
0.0
 10
1132.800977487979
 20
-1135.752118978509
 30
0.0
  0
SPLINE
  5
46
330
1F
100
AcDbEntity
  8
katman 1
370
     0
100
AcDbSpline
210
0.0
220
0.0
230
1.0
 70
    11
 71
     3
 72
    32
 73
    28
 74
     0
 42
0.0000000001
 43
0.0000000001
 12
1.0
 22
0.0
 32
0.0
 13
1.0
 23
0.0
 33
0.0
 40
0.0
 40
0.0
 40
0.0
 40
0.0
 40
1.0
 40
1.0
 40
1.0
 40
2.0
 40
2.0
 40
2.0
 40
3.0
 40
3.0
 40
3.0
 40
4.0
 40
4.0
 40
4.0
 40
5.0
 40
5.0
 40
5.0
 40
6.0
 40
6.0
 40
6.0
 40
7.0
 40
7.0
 40
7.0
 40
8.0
 40
8.0
 40
8.0
 40
9.0
 40
9.0
 40
9.0
 40
9.0
 10
981.5049951638102
 20
-902.1948816387121
 30
0.0
 10
981.5021204948662
 20
-971.9075862110894
 30
0.0
 10
981.8407564960298
 20
-1041.624458274055
 30
0.0
 10
980.9697318071512
 20
-1111.326241146991
 30
0.0
 10
980.8841744728206
 20
-1118.173212605105
 30
0.0
 10
989.9178934840984
 20
-1132.281748980447
 30
0.0
 10
973.5703698884518
 20
-1132.853988548639
 30
0.0
 10
958.718680275827
 20
-1133.373918924761
 30
0.0
 10
952.9943879485782
 20
-1124.780194088617
 30
0.0
 10
953.2660441634252
 20
-1108.760647723855
 30
0.0
 10
954.3018233159419
 20
-1047.679462815973
 30
0.0
 10
953.7636134236127
 20
-986.5709018061789
 30
0.0
 10
953.7453233424803
 20
-925.4726158162721
 30
0.0
 10
953.7221103907859
 20
-847.9245978394629
 30
0.0
 10
953.5407187806641
 20
-770.3763643027914
 30
0.0
 10
953.7414784727744
 20
-692.829028932194
 30
0.0
 10
953.7580078191795
 20
-686.437032479831
 30
0.0
 10
949.6686475183042
 20
-677.688679372608
 30
0.0
 10
958.385757679197
 20
-674.1396659532411
 30
0.0
 10
964.681426391664
 20
-671.576587395115
 30
0.0
 10
972.6146502659203
 20
-669.4754176848182
 30
0.0
 10
978.7336346386583
 20
-671.1432761550404
 30
0.0
 10
983.7916865056604
 20
-672.5219970031621
 30
0.0
 10
981.4197612297367
 20
-680.784226705231
 30
0.0
 10
981.4282774364729
 20
-685.9996974557462
 30
0.0
 10
981.5460669962995
 20
-758.0645911924003
 30
0.0
 10
981.5078698327543
 20
-830.1297723422012
 30
0.0
 10
981.5049951638102
 20
-902.1948816387121
 30
0.0
  0
SPLINE
  5
47
330
1F
100
AcDbEntity
  8
katman 1
370
     0
100
AcDbSpline
210
0.0
220
0.0
230
1.0
 70
    11
 71
     3
 72
    41
 73
    37
 74
     0
 42
0.0000000001
 43
0.0000000001
 12
1.0
 22
0.0
 32
0.0
 13
1.0
 23
0.0
 33
0.0
 40
0.0
 40
0.0
 40
0.0
 40
0.0
 40
1.0
 40
1.0
 40
1.0
 40
2.0
 40
2.0
 40
2.0
 40
3.0
 40
3.0
 40
3.0
 40
4.0
 40
4.0
 40
4.0
 40
5.0
 40
5.0
 40
5.0
 40
6.0
 40
6.0
 40
6.0
 40
7.0
 40
7.0
 40
7.0
 40
8.0
 40
8.0
 40
8.0
 40
9.0
 40
9.0
 40
9.0
 40
10.0
 40
10.0
 40
10.0
 40
11.0
 40
11.0
 40
11.0
 40
12.0
 40
12.0
 40
12.0
 40
12.0
 10
1058.347842470883
 20
-1117.076444050501
 30
0.0
 10
1054.640561605531
 20
-1091.79788327628
 30
0.0
 10
1056.421203413813
 20
-1069.778659399675
 30
0.0
 10
1066.736845105615
 20
-1048.086727239934
 30
0.0
 10
1056.963186309122
 20
-1056.440174688343
 30
0.0
 10
1049.435470422242
 20
-1065.804669721383
 30
0.0
 10
1036.901302975844
 20
-1068.317091713016
 30
0.0
 10
1023.877220075308
 20
-1070.927665293064
 30
0.0
 10
1011.604719369187
 20
-1069.307661111194
 30
0.0
 10
1001.46651661772
 20
-1060.884444122261
 30
0.0
 10
986.7257173594626
 20
-1048.63719526253
 30
0.0
 10
980.9775652800163
 20
-1033.282722911234
 30
0.0
 10
990.61564750261
 20
-1015.079914457145
 30
0.0
 10
1002.378649072441
 20
-992.8639562839926
 30
0.0
 10
1020.975744847248
 20
-989.3618271336181
 30
0.0
 10
1056.923084677408
 20
-1002.845311775709
 30
0.0
 10
1056.923084677408
 20
-906.2161507790661
 30
0.0
 10
1056.922114476634
 20
-810.1077464713289
 30
0.0
 10
1056.925312545834
 20
-713.9993062369522
 30
0.0
 10
1056.925528146008
 20
-707.7372564519692
 30
0.0
 10
1056.401727531742
 20
-701.406694558973
 30
0.0
 10
1057.162113399776
 20
-695.2361499334729
 30
0.0
 10
1057.70830049842
 20
-690.8040596314977
 30
0.0
 10
1053.538808800844
 20
-682.85040386534
 30
0.0
 10
1063.210991783742
 20
-683.3051273845858
 30
0.0
 10
1069.172156831664
 20
-683.5853551992477
 30
0.0
 10
1073.53788061778
 20
-687.6830043824166
 30
0.0
 10
1075.01668218733
 20
-693.2573463689096
 30
0.0
 10
1076.189475248211
 20
-697.6781557050062
 30
0.0
 10
1075.67799977703
 20
-702.5822502414694
 30
0.0
 10
1075.678898111075
 20
-707.2718267931359
 30
0.0
 10
1075.702937530084
 20
-833.3657928485791
 30
0.0
 10
1075.556796547828
 20
-959.4601540970907
 30
0.0
 10
1075.897840084232
 20
-1085.553186059815
 30
0.0
 10
1075.934456179857
 20
-1099.094871863419
 30
0.0
 10
1073.56483063909
 20
-1109.831620948857
 30
0.0
 10
1058.347842470883
 20
-1117.076444050501
 30
0.0
  0
SPLINE
  5
48
330
1F
100
AcDbEntity
  8
katman 1
370
     0
100
AcDbSpline
210
0.0
220
0.0
230
1.0
 70
    11
 71
     3
 72
    23
 73
    19
 74
     0
 42
0.0000000001
 43
0.0000000001
 12
1.0
 22
0.0
 32
0.0
 13
1.0
 23
0.0
 33
0.0
 40
0.0
 40
0.0
 40
0.0
 40
0.0
 40
1.0
 40
1.0
 40
1.0
 40
2.0
 40
2.0
 40
2.0
 40
3.0
 40
3.0
 40
3.0
 40
4.0
 40
4.0
 40
4.0
 40
5.0
 40
5.0
 40
5.0
 40
6.0
 40
6.0
 40
6.0
 40
6.0
 10
935.6589843716229
 20
-1118.139800827199
 30
0.0
 10
918.3619216916659
 20
-1113.231359166952
 30
0.0
 10
913.5979664239276
 20
-1103.493586314133
 30
0.0
 10
913.6152144375692
 20
-1089.170999000344
 30
0.0
 10
913.7672305244632
 20
-962.9407272617245
 30
0.0
 10
913.5905821180922
 20
-836.7100244033873
 30
0.0
 10
913.4821531990001
 20
-710.4794652516184
 30
0.0
 10
913.4753797603107
 20
-702.5857351258264
 30
0.0
 10
913.1125965400588
 20
-694.7030344794048
 30
0.0
 10
919.8478919668923
 20
-688.7651148667155
 30
0.0
 10
923.3679420508433
 20
-685.6617714525846
 30
0.0
 10
926.7308735105298
 20
-681.6611960585433
 30
0.0
 10
931.9335930919415
 20
-683.2852240244165
 30
0.0
 10
938.3061591985643
 20
-685.2744463154249
 30
0.0
 10
935.5328582718739
 20
-691.1190644364888
 30
0.0
 10
935.5371343419247
 20
-695.2173962258739
 30
0.0
 10
935.6835627910632
 20
-835.4517655889294
 30
0.0
 10
935.6589843716229
 20
-975.6863505118363
 30
0.0
 10
935.6589843716229
 20
-1118.139800827199
 30
0.0
  0
SPLINE
  5
49
330
1F
100
AcDbEntity
  8
katman 1
370
     0
100
AcDbSpline
210
0.0
220
0.0
230
1.0
 70
    11
 71
     3
 72
    35
 73
    31
 74
     0
 42
0.0000000001
 43
0.0000000001
 12
1.0
 22
0.0
 32
0.0
 13
1.0
 23
0.0
 33
0.0
 40
0.0
 40
0.0
 40
0.0
 40
0.0
 40
1.0
 40
1.0
 40
1.0
 40
2.0
 40
2.0
 40
2.0
 40
3.0
 40
3.0
 40
3.0
 40
4.0
 40
4.0
 40
4.0
 40
5.0
 40
5.0
 40
5.0
 40
6.0
 40
6.0
 40
6.0
 40
7.0
 40
7.0
 40
7.0
 40
8.0
 40
8.0
 40
8.0
 40
9.0
 40
9.0
 40
9.0
 40
10.0
 40
10.0
 40
10.0
 40
10.0
 10
1084.884881658594
 20
-635.6425076750593
 30
0.0
 10
1102.778689677181
 20
-643.0770234512447
 30
0.0
 10
1101.934291609361
 20
-655.4885648489817
 30
0.0
 10
1093.174277014552
 20
-669.1924953719436
 30
0.0
 10
1089.240723770221
 20
-675.3459748420646
 30
0.0
 10
1085.876354976077
 20
-677.7745440491517
 30
0.0
 10
1077.96573318636
 20
-670.2584747935771
 30
0.0
 10
1036.163950392682
 20
-630.5415710621264
 30
0.0
 10
946.4491979720951
 20
-634.1090507759482
 30
0.0
 10
904.1642911296603
 20
-676.006701731726
 30
0.0
 10
886.5134106031983
 20
-657.296357593319
 30
0.0
 10
887.1648285517276
 20
-643.5415190173671
 30
0.0
 10
906.324532971491
 20
-630.3932299535754
 30
0.0
 10
945.4424889092415
 20
-603.5485190351947
 30
0.0
 10
1043.042422299421
 20
-603.5050837239205
 30
0.0
 10
1082.704624934267
 20
-630.4868547849856
 30
0.0
 10
1084.217060130424
 20
-631.5157579111374
 30
0.0
 10
1084.559289467765
 20
-634.264289799944
 30
0.0
 10
1085.446807569684
 20
-636.2114779187505
 30
0.0
 10
1076.669221560964
 20
-642.7168947827668
 30
0.0
 10
1069.174205033289
 20
-635.8573489996343
 30
0.0
 10
1061.268865447746
 20
-633.8078418018322
 30
0.0
 10
1038.105537728246
 20
-627.8027034402694
 30
0.0
 10
1015.015945267072
 20
-621.3163995502755
 30
0.0
 10
990.5369893737343
 20
-626.6078192238901
 30
0.0
 10
1018.773029771819
 20
-630.6570752190682
 30
0.0
 10
1047.033109588921
 20
-633.5853121756809
 30
0.0
 10
1072.918353527801
 20
-647.1217526894188
 30
0.0
 10
1084.856422436096
 20
-653.364653573728
 30
0.0
 10
1081.139942630125
 20
-639.8329553768544
 30
0.0
 10
1084.884881658594
 20
-635.6425076750593
 30
0.0
  0
SPLINE
  5
4A
330
1F
100
AcDbEntity
  8
katman 1
370
     0
100
AcDbSpline
210
0.0
220
0.0
230
1.0
 70
    11
 71
     3
 72
    38
 73
    34
 74
     0
 42
0.0000000001
 43
0.0000000001
 12
1.0
 22
0.0
 32
0.0
 13
1.0
 23
0.0
 33
0.0
 40
0.0
 40
0.0
 40
0.0
 40
0.0
 40
1.0
 40
1.0
 40
1.0
 40
2.0
 40
2.0
 40
2.0
 40
3.0
 40
3.0
 40
3.0
 40
4.0
 40
4.0
 40
4.0
 40
5.0
 40
5.0
 40
5.0
 40
6.0
 40
6.0
 40
6.0
 40
7.0
 40
7.0
 40
7.0
 40
8.0
 40
8.0
 40
8.0
 40
9.0
 40
9.0
 40
9.0
 40
10.0
 40
10.0
 40
10.0
 40
11.0
 40
11.0
 40
11.0
 40
11.0
 10
748.4459720079349
 20
-1173.351650083699
 30
0.0
 10
738.818723693902
 20
-1181.570660034356
 30
0.0
 10
727.8713555358127
 20
-1186.472922312025
 30
0.0
 10
717.0728233620966
 20
-1177.28389300293
 30
0.0
 10
707.6245231895928
 20
-1169.24372588066
 30
0.0
 10
715.8358533171295
 20
-1159.475918354365
 30
0.0
 10
718.9108866824563
 20
-1151.510119382907
 30
0.0
 10
731.4064077982921
 20
-1119.140573391964
 30
0.0
 10
750.0791343162437
 20
-1090.474489458225
 30
0.0
 10
774.861807966453
 20
-1066.111339545223
 30
0.0
 10
779.4040364254924
 20
-1061.64594524528
 30
0.0
 10
784.4068766821547
 20
-1054.19899885065
 30
0.0
 10
792.625177881876
 20
-1058.296145060813
 30
0.0
 10
800.2265391936671
 20
-1062.085831061007
 30
0.0
 10
803.1014237340332
 20
-1069.532777455637
 30
0.0
 10
803.2948350536662
 20
-1077.80582107722
 30
0.0
 10
803.7896733783573
 20
-1098.972864984114
 30
0.0
 10
796.3111322970381
 20
-1117.300410742373
 30
0.0
 10
783.0916258086145
 20
-1133.522295959963
 30
0.0
 10
777.148427441567
 20
-1129.180130045184
 30
0.0
 10
768.8203677883776
 20
-1135.638375227067
 30
0.0
 10
763.3314030472457
 20
-1129.15864591273
 30
0.0
 10
760.2751538467737
 20
-1112.038594622505
 30
0.0
 10
775.890310613212
 20
-1101.707098069041
 30
0.0
 10
778.092073454548
 20
-1086.315405715695
 30
0.0
 10
755.0798365378841
 20
-1106.760970779762
 30
0.0
 10
736.228754778871
 20
-1129.513241878196
 30
0.0
 10
735.7968896706534
 20
-1162.583069992659
 30
0.0
 10
737.8299094452013
 20
-1165.951623884714
 30
0.0
 10
741.208696500762
 20
-1167.585495750736
 30
0.0
 10
744.5383087507626
 20
-1169.292011288726
 30
0.0
 10
746.2228288163551
 20
-1170.28344292632
 30
0.0
 10
747.5321057685096
 20
-1171.630260915546
 30
0.0
 10
748.4459720079349
 20
-1173.351650083699
 30
0.0
  0
SPLINE
  5
4B
330
1F
100
AcDbEntity
  8
katman 1
370
     0
100
AcDbSpline
210
0.0
220
0.0
230
1.0
 70
    11
 71
     3
 72
    26
 73
    22
 74
     0
 42
0.0000000001
 43
0.0000000001
 12
1.0
 22
0.0
 32
0.0
 13
1.0
 23
0.0
 33
0.0
 40
0.0
 40
0.0
 40
0.0
 40
0.0
 40
1.0
 40
1.0
 40
1.0
 40
2.0
 40
2.0
 40
2.0
 40
3.0
 40
3.0
 40
3.0
 40
4.0
 40
4.0
 40
4.0
 40
5.0
 40
5.0
 40
5.0
 40
6.0
 40
6.0
 40
6.0
 40
7.0
 40
7.0
 40
7.0
 40
7.0
 10
1096.37982034975
 20
-1398.62758067404
 30
0.0
 10
1101.25554633922
 20
-1413.533185548884
 30
0.0
 10
1096.429084988713
 20
-1421.547054368553
 30
0.0
 10
1085.431715557746
 20
-1425.806804564503
 30
0.0
 10
1025.117495989562
 20
-1449.168966352896
 30
0.0
 10
964.7001117397776
 20
-1448.190899426452
 30
0.0
 10
904.6353595355522
 20
-1425.12757545374
 30
0.0
 10
892.4622864414005
 20
-1420.453519211813
 30
0.0
 10
892.9099801954753
 20
-1419.287987062688
 30
0.0
 10
892.634389277513
 20
-1404.553464861365
 30
0.0
 10
910.7161108113869
 20
-1408.395388200333
 30
0.0
 10
919.0301744201724
 20
-1433.15552751744
 30
0.0
 10
947.3358536733367
 20
-1424.545923105123
 30
0.0
 10
960.3075816657993
 20
-1420.600459181293
 30
0.0
 10
981.5672317463686
 20
-1421.184338981782
 30
0.0
 10
997.8024635865477
 20
-1432.87537155606
 30
0.0
 10
1011.161876618955
 20
-1442.495520580014
 30
0.0
 10
1064.711892370775
 20
-1426.663008318224
 30
0.0
 10
1076.416574094486
 20
-1413.326822912039
 30
0.0
 10
1081.322699707987
 20
-1407.736852835886
 30
0.0
 10
1088.596941661077
 20
-1404.224448665633
 30
0.0
 10
1096.37982034975
 20
-1398.62758067404
 30
0.0
  0
SPLINE
  5
4C
330
1F
100
AcDbEntity
  8
katman 1
370
     0
100
AcDbSpline
210
0.0
220
0.0
230
1.0
 70
    11
 71
     3
 72
    14
 73
    10
 74
     0
 42
0.0000000001
 43
0.0000000001
 12
1.0
 22
0.0
 32
0.0
 13
1.0
 23
0.0
 33
0.0
 40
0.0
 40
0.0
 40
0.0
 40
0.0
 40
1.0
 40
1.0
 40
1.0
 40
2.0
 40
2.0
 40
2.0
 40
3.0
 40
3.0
 40
3.0
 40
3.0
 10
798.5427916953522
 20
-1127.985209902165
 30
0.0
 10
827.955973091086
 20
-1159.691693771656
 30
0.0
 10
868.3056528029829
 20
-1175.139719101087
 30
0.0
 10
897.8858883975063
 20
-1205.777241637592
 30
0.0
 10
863.4190929049537
 20
-1185.69360157413
 30
0.0
 10
828.5307272123173
 20
-1166.28207714615
 30
0.0
 10
794.7517142303841
 20
-1145.101884087944
 30
0.0
 10
785.0730093423235
 20
-1139.03315556845
 30
0.0
 10
794.6268637649773
 20
-1132.730616456909
 30
0.0
 10
798.5427916953522
 20
-1127.985209902165
 30
0.0
  0
SPLINE
  5
4D
330
1F
100
AcDbEntity
  8
katman 1
370
     0
100
AcDbSpline
210
0.0
220
0.0
230
1.0
 70
    11
 71
     3
 72
    14
 73
    10
 74
     0
 42
0.0000000001
 43
0.0000000001
 12
1.0
 22
0.0
 32
0.0
 13
1.0
 23
0.0
 33
0.0
 40
0.0
 40
0.0
 40
0.0
 40
0.0
 40
1.0
 40
1.0
 40
1.0
 40
2.0
 40
2.0
 40
2.0
 40
3.0
 40
3.0
 40
3.0
 40
3.0
 10
887.257159324754
 20
-1212.571760197057
 30
0.0
 10
842.7053065227574
 20
-1207.669785332526
 30
0.0
 10
814.1536454417183
 20
-1155.907756034336
 30
0.0
 10
759.1327873599603
 20
-1179.418366711203
 30
0.0
 10
776.3612712190215
 20
-1161.228060728845
 30
0.0
 10
787.6443108759231
 20
-1157.935096493457
 30
0.0
 10
806.0615242417953
 20
-1167.421526552514
 30
0.0
 10
833.5783943377692
 20
-1181.59501829824
 30
0.0
 10
860.2347322864953
 20
-1197.43859596605
 30
0.0
 10
887.257159324754
 20
-1212.571760197057
 30
0.0
  0
SPLINE
  5
4E
330
1F
100
AcDbEntity
  8
katman 1
370
     0
100
AcDbSpline
210
0.0
220
0.0
230
1.0
 70
    11
 71
     3
 72
    11
 73
     7
 74
     0
 42
0.0000000001
 43
0.0000000001
 12
1.0
 22
0.0
 32
0.0
 13
1.0
 23
0.0
 33
0.0
 40
0.0
 40
0.0
 40
0.0
 40
0.0
 40
1.0
 40
1.0
 40
1.0
 40
2.0
 40
2.0
 40
2.0
 40
2.0
 10
811.6535817977947
 20
-1098.228464943124
 30
0.0
 10
811.3503760913281
 20
-1138.229548419944
 30
0.0
 10
845.1096975910186
 20
-1147.902940728685
 30
0.0
 10
870.4120125688705
 20
-1166.710969409154
 30
0.0
 10
830.6833691481406
 20
-1160.494079414304
 30
0.0
 10
804.2147650478892
 20
-1130.554683402728
 30
0.0
 10
811.6535817977947
 20
-1098.228464943124
 30
0.0
  0
SPLINE
  5
4F
330
1F
100
AcDbEntity
  8
katman 1
370
     0
100
AcDbSpline
210
0.0
220
0.0
230
1.0
 70
    11
 71
     3
 72
    32
 73
    28
 74
     0
 42
0.0000000001
 43
0.0000000001
 12
1.0
 22
0.0
 32
0.0
 13
1.0
 23
0.0
 33
0.0
 40
0.0
 40
0.0
 40
0.0
 40
0.0
 40
1.0
 40
1.0
 40
1.0
 40
2.0
 40
2.0
 40
2.0
 40
3.0
 40
3.0
 40
3.0
 40
4.0
 40
4.0
 40
4.0
 40
5.0
 40
5.0
 40
5.0
 40
6.0
 40
6.0
 40
6.0
 40
7.0
 40
7.0
 40
7.0
 40
8.0
 40
8.0
 40
8.0
 40
9.0
 40
9.0
 40
9.0
 40
9.0
 10
915.2427980914681
 20
-1279.368514724694
 30
0.0
 10
918.9752682434173
 20
-1280.456876444867
 30
0.0
 10
923.1363156009829
 20
-1280.82677716021
 30
0.0
 10
926.3683418238088
 20
-1282.754169698781
 30
0.0
 10
943.2886432058003
 20
-1292.843736238927
 30
0.0
 10
956.0556947697114
 20
-1294.15728615682
 30
0.0
 10
962.2048272329621
 20
-1270.534153234365
 30
0.0
 10
965.1387862200427
 20
-1259.262887555786
 30
0.0
 10
975.2833132431861
 20
-1258.291934104642
 30
0.0
 10
985.2219061701308
 20
-1262.47357977892
 30
0.0
 10
996.782566979924
 20
-1267.337759815102
 30
0.0
 10
1010.437064779042
 20
-1272.819087723125
 30
0.0
 10
1010.169900234414
 20
-1286.875386759701
 30
0.0
 10
1009.937411383884
 20
-1299.11034870756
 30
0.0
 10
996.221072269178
 20
-1300.043507330369
 30
0.0
 10
986.5162258604496
 20
-1301.411737598766
 30
0.0
 10
972.026960134458
 20
-1303.454526514342
 30
0.0
 10
961.9953716673026
 20
-1306.575258423629
 30
0.0
 10
963.3972399093582
 20
-1325.398591853986
 30
0.0
 10
964.396870099944
 20
-1338.821144909705
 30
0.0
 10
953.9428130986698
 20
-1343.975899633708
 30
0.0
 10
940.7780870202423
 20
-1340.683582077898
 30
0.0
 10
924.1059773678753
 20
-1336.513935902343
 30
0.0
 10
901.4748946026575
 20
-1309.873252389021
 30
0.0
 10
899.9950150322475
 20
-1292.854442378502
 30
0.0
 10
899.0159207578963
 20
-1281.594601372377
 30
0.0
 10
903.4997036040468
 20
-1276.469090935689
 30
0.0
 10
915.2427980914681
 20
-1279.368514724694
 30
0.0
  0
HATCH
  5
50
330
1F
100
AcDbEntity
  8
katman 1
 62
     7
420
 16777215
100
AcDbHatch
 10
0.0
 20
0.0
 30
0.0
210
0.0
220
0.0
230
1.0
  2
SOLID
 70
     1
 71
     0
 91
        1
 92
        1
 93
        1
 72
     4
 94
        3
 73
     0
 74
     1
 95
       32
 96
       28
 40
0.0
 40
0.0
 40
0.0
 40
0.0
 40
1.0
 40
1.0
 40
1.0
 40
2.0
 40
2.0
 40
2.0
 40
3.0
 40
3.0
 40
3.0
 40
4.0
 40
4.0
 40
4.0
 40
5.0
 40
5.0
 40
5.0
 40
6.0
 40
6.0
 40
6.0
 40
7.0
 40
7.0
 40
7.0
 40
8.0
 40
8.0
 40
8.0
 40
9.0
 40
9.0
 40
9.0
 40
9.0
 10
915.2427980914681
 20
-1279.368514724694
 10
918.9752682434173
 20
-1280.456876444867
 10
923.1363156009829
 20
-1280.82677716021
 10
926.3683418238088
 20
-1282.754169698781
 10
943.2886432058003
 20
-1292.843736238927
 10
956.0556947697114
 20
-1294.15728615682
 10
962.2048272329621
 20
-1270.534153234365
 10
965.1387862200427
 20
-1259.262887555786
 10
975.2833132431861
 20
-1258.291934104642
 10
985.2219061701308
 20
-1262.47357977892
 10
996.782566979924
 20
-1267.337759815102
 10
1010.437064779042
 20
-1272.819087723125
 10
1010.169900234414
 20
-1286.875386759701
 10
1009.937411383884
 20
-1299.11034870756
 10
996.221072269178
 20
-1300.043507330369
 10
986.5162258604496
 20
-1301.411737598766
 10
972.026960134458
 20
-1303.454526514342
 10
961.9953716673026
 20
-1306.575258423629
 10
963.3972399093582
 20
-1325.398591853986
 10
964.396870099944
 20
-1338.821144909705
 10
953.9428130986698
 20
-1343.975899633708
 10
940.7780870202423
 20
-1340.683582077898
 10
924.1059773678753
 20
-1336.513935902343
 10
901.4748946026575
 20
-1309.873252389021
 10
899.9950150322475
 20
-1292.854442378502
 10
899.0159207578963
 20
-1281.594601372377
 10
903.4997036040468
 20
-1276.469090935689
 10
915.2427980914681
 20
-1279.368514724694
 97
        0
 97
        0
 75
     2
 76
     1
 98
        0
  0
SPLINE
  5
51
330
1F
100
AcDbEntity
  8
katman 1
370
     0
100
AcDbSpline
210
0.0
220
0.0
230
1.0
 70
    11
 71
     3
 72
    17
 73
    13
 74
     0
 42
0.0000000001
 43
0.0000000001
 12
1.0
 22
0.0
 32
0.0
 13
1.0
 23
0.0
 33
0.0
 40
0.0
 40
0.0
 40
0.0
 40
0.0
 40
1.0
 40
1.0
 40
1.0
 40
2.0
 40
2.0
 40
2.0
 40
3.0
 40
3.0
 40
3.0
 40
4.0
 40
4.0
 40
4.0
 40
4.0
 10
1028.07905179847
 20
-1265.118930349305
 30
0.0
 10
1028.601774411885
 20
-1255.494326421627
 30
0.0
 10
1032.367231389915
 20
-1247.918978205254
 30
0.0
 10
1042.944971022345
 20
-1247.557987297356
 30
0.0
 10
1055.215746927104
 20
-1247.139154494362
 30
0.0
 10
1059.090585058311
 20
-1256.102851899155
 30
0.0
 10
1058.956553618971
 20
-1266.22575836392
 30
0.0
 10
1058.831038386375
 20
-1275.70852390539
 30
0.0
 10
1053.80633267908
 20
-1283.072767168056
 30
0.0
 10
1043.183029543963
 20
-1282.689645448128
 30
0.0
 10
1032.573273286207
 20
-1282.306882994608
 30
0.0
 10
1029.10218240764
 20
-1274.443762368564
 30
0.0
 10
1028.07905179847
 20
-1265.118930349305
 30
0.0
  0
HATCH
  5
52
330
1F
100
AcDbEntity
  8
katman 1
 62
     7
420
 16777215
100
AcDbHatch
 10
0.0
 20
0.0
 30
0.0
210
0.0
220
0.0
230
1.0
  2
SOLID
 70
     1
 71
     0
 91
        1
 92
        1
 93
        1
 72
     4
 94
        3
 73
     0
 74
     1
 95
       17
 96
       13
 40
0.0
 40
0.0
 40
0.0
 40
0.0
 40
1.0
 40
1.0
 40
1.0
 40
2.0
 40
2.0
 40
2.0
 40
3.0
 40
3.0
 40
3.0
 40
4.0
 40
4.0
 40
4.0
 40
4.0
 10
1028.07905179847
 20
-1265.118930349305
 10
1028.601774411885
 20
-1255.494326421627
 10
1032.367231389915
 20
-1247.918978205254
 10
1042.944971022345
 20
-1247.557987297356
 10
1055.215746927104
 20
-1247.139154494362
 10
1059.090585058311
 20
-1256.102851899155
 10
1058.956553618971
 20
-1266.22575836392
 10
1058.831038386375
 20
-1275.70852390539
 10
1053.80633267908
 20
-1283.072767168056
 10
1043.183029543963
 20
-1282.689645448128
 10
1032.573273286207
 20
-1282.306882994608
 10
1029.10218240764
 20
-1274.443762368564
 10
1028.07905179847
 20
-1265.118930349305
 97
        0
 97
        0
 75
     2
 76
     1
 98
        0
  0
SPLINE
  5
53
330
1F
100
AcDbEntity
  8
katman 1
370
     0
100
AcDbSpline
210
0.0
220
0.0
230
1.0
 70
    11
 71
     3
 72
    17
 73
    13
 74
     0
 42
0.0000000001
 43
0.0000000001
 12
1.0
 22
0.0
 32
0.0
 13
1.0
 23
0.0
 33
0.0
 40
0.0
 40
0.0
 40
0.0
 40
0.0
 40
1.0
 40
1.0
 40
1.0
 40
2.0
 40
2.0
 40
2.0
 40
3.0
 40
3.0
 40
3.0
 40
4.0
 40
4.0
 40
4.0
 40
4.0
 10
1036.864471280041
 20
-1005.627327295699
 30
0.0
 10
1022.034521351285
 20
-1010.054064527872
 30
0.0
 10
1006.215254106752
 20
-1010.569899266702
 30
0.0
 10
1004.305324062887
 20
-1028.953634294468
 30
0.0
 10
1002.567335155007
 20
-1045.681941470451
 30
0.0
 10
1014.23680218419
 20
-1052.061291744518
 30
0.0
 10
1027.260525751111
 20
-1057.987535198263
 30
0.0
 10
1004.781980106529
 20
-1058.067939025081
 30
0.0
 10
993.2587618596772
 20
-1047.24827124782
 30
0.0
 10
995.0648804214325
 20
-1028.431189053346
 30
0.0
 10
996.9109209481067
 20
-1009.198507453742
 30
0.0
 10
1009.929146710672
 20
-1001.566323288289
 30
0.0
 10
1036.864471280041
 20
-1005.627327295699
 30
0.0
  0
HATCH
  5
54
330
1F
100
AcDbEntity
  8
katman 1
 62
     7
420
 16777215
100
AcDbHatch
 10
0.0
 20
0.0
 30
0.0
210
0.0
220
0.0
230
1.0
  2
SOLID
 70
     1
 71
     0
 91
        1
 92
        1
 93
        1
 72
     4
 94
        3
 73
     0
 74
     1
 95
       17
 96
       13
 40
0.0
 40
0.0
 40
0.0
 40
0.0
 40
1.0
 40
1.0
 40
1.0
 40
2.0
 40
2.0
 40
2.0
 40
3.0
 40
3.0
 40
3.0
 40
4.0
 40
4.0
 40
4.0
 40
4.0
 10
1036.864471280041
 20
-1005.627327295699
 10
1022.034521351285
 20
-1010.054064527872
 10
1006.215254106752
 20
-1010.569899266702
 10
1004.305324062887
 20
-1028.953634294468
 10
1002.567335155007
 20
-1045.681941470451
 10
1014.23680218419
 20
-1052.061291744518
 10
1027.260525751111
 20
-1057.987535198263
 10
1004.781980106529
 20
-1058.067939025081
 10
993.2587618596772
 20
-1047.24827124782
 10
995.0648804214325
 20
-1028.431189053346
 10
996.9109209481067
 20
-1009.198507453742
 10
1009.929146710672
 20
-1001.566323288289
 10
1036.864471280041
 20
-1005.627327295699
 97
        0
 97
        0
 75
     2
 76
     1
 98
        0
  0
SPLINE
  5
55
330
1F
100
AcDbEntity
  8
katman 1
370
     0
100
AcDbSpline
210
0.0
220
0.0
230
1.0
 70
    11
 71
     3
 72
    17
 73
    13
 74
     0
 42
0.0000000001
 43
0.0000000001
 12
1.0
 22
0.0
 32
0.0
 13
1.0
 23
0.0
 33
0.0
 40
0.0
 40
0.0
 40
0.0
 40
0.0
 40
1.0
 40
1.0
 40
1.0
 40
2.0
 40
2.0
 40
2.0
 40
3.0
 40
3.0
 40
3.0
 40
4.0
 40
4.0
 40
4.0
 40
4.0
 10
1030.093224524773
 20
-1045.414216127521
 30
0.0
 10
1022.13930303415
 20
-1045.034543365302
 30
0.0
 10
1016.797233875863
 20
-1040.393611488131
 30
0.0
 10
1016.003394048021
 20
-1032.752014542239
 30
0.0
 10
1015.16571551886
 20
-1024.688566955359
 30
0.0
 10
1020.643900251465
 20
-1019.199550745763
 30
0.0
 10
1028.29828123852
 20
-1018.270775173392
 30
0.0
 10
1035.519198082762
 20
-1017.394596206221
 30
0.0
 10
1039.843490702762
 20
-1022.051335806276
 30
0.0
 10
1040.214502662866
 20
-1029.550016566691
 30
0.0
 10
1040.584544422192
 20
-1037.028506553785
 30
0.0
 10
1039.613553120915
 20
-1043.789541482076
 30
0.0
 10
1030.093224524773
 20
-1045.414216127521
 30
0.0
  0
HATCH
  5
56
330
1F
100
AcDbEntity
  8
katman 1
 62
     7
420
 16777215
100
AcDbHatch
 10
0.0
 20
0.0
 30
0.0
210
0.0
220
0.0
230
1.0
  2
SOLID
 70
     1
 71
     0
 91
        1
 92
        1
 93
        1
 72
     4
 94
        3
 73
     0
 74
     1
 95
       17
 96
       13
 40
0.0
 40
0.0
 40
0.0
 40
0.0
 40
1.0
 40
1.0
 40
1.0
 40
2.0
 40
2.0
 40
2.0
 40
3.0
 40
3.0
 40
3.0
 40
4.0
 40
4.0
 40
4.0
 40
4.0
 10
1030.093224524773
 20
-1045.414216127521
 10
1022.13930303415
 20
-1045.034543365302
 10
1016.797233875863
 20
-1040.393611488131
 10
1016.003394048021
 20
-1032.752014542239
 10
1015.16571551886
 20
-1024.688566955359
 10
1020.643900251465
 20
-1019.199550745763
 10
1028.29828123852
 20
-1018.270775173392
 10
1035.519198082762
 20
-1017.394596206221
 10
1039.843490702762
 20
-1022.051335806276
 10
1040.214502662866
 20
-1029.550016566691
 10
1040.584544422192
 20
-1037.028506553785
 10
1039.613553120915
 20
-1043.789541482076
 10
1030.093224524773
 20
-1045.414216127521
 97
        0
 97
        0
 75
     2
 76
     1
 98
        0
  0
SPLINE
  5
57
330
1F
100
AcDbEntity
  8
katman 1
370
     0
100
AcDbSpline
210
0.0
220
0.0
230
1.0
 70
    11
 71
     3
 72
    26
 73
    22
 74
     0
 42
0.0000000001
 43
0.0000000001
 12
1.0
 22
0.0
 32
0.0
 13
1.0
 23
0.0
 33
0.0
 40
0.0
 40
0.0
 40
0.0
 40
0.0
 40
1.0
 40
1.0
 40
1.0
 40
2.0
 40
2.0
 40
2.0
 40
3.0
 40
3.0
 40
3.0
 40
4.0
 40
4.0
 40
4.0
 40
5.0
 40
5.0
 40
5.0
 40
6.0
 40
6.0
 40
6.0
 40
7.0
 40
7.0
 40
7.0
 40
7.0
 10
1084.884881658594
 20
-635.6425076750593
 30
0.0
 10
1086.534079229579
 20
-641.392602798649
 30
0.0
 10
1089.463798079982
 20
-647.139320817796
 30
0.0
 10
1089.479105692093
 20
-652.8937630651699
 30
0.0
 10
1089.495060104719
 20
-658.8726749774178
 30
0.0
 10
1087.709639159326
 20
-666.7768238296567
 30
0.0
 10
1078.497762540466
 20
-659.559125343404
 30
0.0
 10
1053.142571620798
 20
-639.6929133228132
 30
0.0
 10
1023.343789320093
 20
-636.292564351782
 30
0.0
 10
992.5815257907279
 20
-635.5464757585769
 30
0.0
 10
987.3072988194326
 20
-635.4185769098358
 30
0.0
 10
977.9984380572059
 20
-641.0034094760549
 30
0.0
 10
977.5534393052621
 20
-627.8998490826862
 30
0.0
 10
977.1091232871877
 20
-614.817808748413
 30
0.0
 10
985.5255071435731
 20
-617.3312366860409
 30
0.0
 10
993.0038146580428
 20
-617.1911587053564
 30
0.0
 10
1025.251707095702
 20
-616.587052204909
 30
0.0
 10
1055.737463406385
 20
-624.543546175858
 30
0.0
 10
1085.452556907563
 20
-636.2136335173236
 30
0.0
 10
1085.446807569684
 20
-636.2114779187505
 30
0.0
 10
1084.884881658594
 20
-635.6425076750593
 30
0.0
 10
1084.884881658594
 20
-635.6425076750593
 30
0.0
  0
HATCH
  5
58
330
1F
100
AcDbEntity
  8
katman 1
 62
     7
420
 16777215
100
AcDbHatch
 10
0.0
 20
0.0
 30
0.0
210
0.0
220
0.0
230
1.0
  2
SOLID
 70
     1
 71
     0
 91
        1
 92
        1
 93
        1
 72
     4
 94
        3
 73
     0
 74
     1
 95
       26
 96
       22
 40
0.0
 40
0.0
 40
0.0
 40
0.0
 40
1.0
 40
1.0
 40
1.0
 40
2.0
 40
2.0
 40
2.0
 40
3.0
 40
3.0
 40
3.0
 40
4.0
 40
4.0
 40
4.0
 40
5.0
 40
5.0
 40
5.0
 40
6.0
 40
6.0
 40
6.0
 40
7.0
 40
7.0
 40
7.0
 40
7.0
 10
1084.884881658594
 20
-635.6425076750593
 10
1086.534079229579
 20
-641.392602798649
 10
1089.463798079982
 20
-647.139320817796
 10
1089.479105692093
 20
-652.8937630651699
 10
1089.495060104719
 20
-658.8726749774178
 10
1087.709639159326
 20
-666.7768238296567
 10
1078.497762540466
 20
-659.559125343404
 10
1053.142571620798
 20
-639.6929133228132
 10
1023.343789320093
 20
-636.292564351782
 10
992.5815257907279
 20
-635.5464757585769
 10
987.3072988194326
 20
-635.4185769098358
 10
977.9984380572059
 20
-641.0034094760549
 10
977.5534393052621
 20
-627.8998490826862
 10
977.1091232871877
 20
-614.817808748413
 10
985.5255071435731
 20
-617.3312366860409
 10
993.0038146580428
 20
-617.1911587053564
 10
1025.251707095702
 20
-616.587052204909
 10
1055.737463406385
 20
-624.543546175858
 10
1085.452556907563
 20
-636.2136335173236
 10
1085.446807569684
 20
-636.2114779187505
 10
1084.884881658594
 20
-635.6425076750593
 10
1084.884881658594
 20
-635.6425076750593
 97
        0
 97
        0
 75
     2
 76
     1
 98
        0
  0
SPLINE
  5
59
330
1F
100
AcDbEntity
  8
katman 1
370
     0
100
AcDbSpline
210
0.0
220
0.0
230
1.0
 70
    11
 71
     3
 72
    17
 73
    13
 74
     0
 42
0.0000000001
 43
0.0000000001
 12
1.0
 22
0.0
 32
0.0
 13
1.0
 23
0.0
 33
0.0
 40
0.0
 40
0.0
 40
0.0
 40
0.0
 40
1.0
 40
1.0
 40
1.0
 40
2.0
 40
2.0
 40
2.0
 40
3.0
 40
3.0
 40
3.0
 40
4.0
 40
4.0
 40
4.0
 40
4.0
 10
921.6159750652441
 20
-646.0883946595413
 30
0.0
 10
920.6421809617505
 20
-655.1999301998858
 30
0.0
 10
912.3475213683068
 20
-657.6038537299455
 30
0.0
 10
906.5499429497631
 20
-661.1088210851076
 30
0.0
 10
901.5845991560855
 20
-664.1106717330331
 30
0.0
 10
898.0652857060559
 20
-658.3413558554976
 30
0.0
 10
897.6387746687342
 20
-654.067917608595
 30
0.0
 10
896.6318320390301
 20
-643.9788181148051
 30
0.0
 10
904.2093695319754
 20
-638.4140685419679
 30
0.0
 10
911.9354914757723
 20
-635.6818832756862
 30
0.0
 10
919.6786637997211
 20
-632.9435904801148
 30
0.0
 10
916.298951460094
 20
-643.9258981698058
 30
0.0
 10
921.6159750652441
 20
-646.0883946595413
 30
0.0
  0
HATCH
  5
5A
330
1F
100
AcDbEntity
  8
katman 1
 62
     7
420
 16777215
100
AcDbHatch
 10
0.0
 20
0.0
 30
0.0
210
0.0
220
0.0
230
1.0
  2
SOLID
 70
     1
 71
     0
 91
        1
 92
        1
 93
        1
 72
     4
 94
        3
 73
     0
 74
     1
 95
       17
 96
       13
 40
0.0
 40
0.0
 40
0.0
 40
0.0
 40
1.0
 40
1.0
 40
1.0
 40
2.0
 40
2.0
 40
2.0
 40
3.0
 40
3.0
 40
3.0
 40
4.0
 40
4.0
 40
4.0
 40
4.0
 10
921.6159750652441
 20
-646.0883946595413
 10
920.6421809617505
 20
-655.1999301998858
 10
912.3475213683068
 20
-657.6038537299455
 10
906.5499429497631
 20
-661.1088210851076
 10
901.5845991560855
 20
-664.1106717330331
 10
898.0652857060559
 20
-658.3413558554976
 10
897.6387746687342
 20
-654.067917608595
 10
896.6318320390301
 20
-643.9788181148051
 10
904.2093695319754
 20
-638.4140685419679
 10
911.9354914757723
 20
-635.6818832756862
 10
919.6786637997211
 20
-632.9435904801148
 10
916.298951460094
 20
-643.9258981698058
 10
921.6159750652441
 20
-646.0883946595413
 97
        0
 97
        0
 75
     2
 76
     1
 98
        0
  0
SPLINE
  5
5B
330
1F
100
AcDbEntity
  8
katman 1
370
     0
100
AcDbSpline
210
0.0
220
0.0
230
1.0
 70
    11
 71
     3
 72
    14
 73
    10
 74
     0
 42
0.0000000001
 43
0.0000000001
 12
1.0
 22
0.0
 32
0.0
 13
1.0
 23
0.0
 33
0.0
 40
0.0
 40
0.0
 40
0.0
 40
0.0
 40
1.0
 40
1.0
 40
1.0
 40
2.0
 40
2.0
 40
2.0
 40
3.0
 40
3.0
 40
3.0
 40
3.0
 10
764.434521319683
 20
-1132.473669106852
 30
0.0
 10
752.9592741107663
 20
-1143.50120843996
 30
0.0
 10
747.0402948295414
 20
-1159.484325188818
 30
0.0
 10
732.7422844214816
 20
-1167.994269093717
 30
0.0
 10
725.0735570397464
 20
-1137.453604786486
 30
0.0
 10
750.4429146872844
 20
-1093.265414785656
 30
0.0
 10
787.1583480915824
 20
-1074.516880625835
 30
0.0
 10
785.8568417289125
 20
-1096.828978495405
 30
0.0
 10
769.3765533449223
 20
-1112.475318893661
 30
0.0
 10
764.434521319683
 20
-1132.473669106852
 30
0.0
  0
HATCH
  5
5C
330
1F
100
AcDbEntity
  8
katman 1
 62
     7
420
 16777215
100
AcDbHatch
 10
0.0
 20
0.0
 30
0.0
210
0.0
220
0.0
230
1.0
  2
SOLID
 70
     1
 71
     0
 91
        1
 92
        1
 93
        1
 72
     4
 94
        3
 73
     0
 74
     1
 95
       14
 96
       10
 40
0.0
 40
0.0
 40
0.0
 40
0.0
 40
1.0
 40
1.0
 40
1.0
 40
2.0
 40
2.0
 40
2.0
 40
3.0
 40
3.0
 40
3.0
 40
3.0
 10
764.434521319683
 20
-1132.473669106852
 10
752.9592741107663
 20
-1143.50120843996
 10
747.0402948295414
 20
-1159.484325188818
 10
732.7422844214816
 20
-1167.994269093717
 10
725.0735570397464
 20
-1137.453604786486
 10
750.4429146872844
 20
-1093.265414785656
 10
787.1583480915824
 20
-1074.516880625835
 10
785.8568417289125
 20
-1096.828978495405
 10
769.3765533449223
 20
-1112.475318893661
 10
764.434521319683
 20
-1132.473669106852
 97
        0
 97
        0
 75
     2
 76
     1
 98
        0
  0
SPLINE
  5
5D
330
1F
100
AcDbEntity
  8
katman 1
370
     0
100
AcDbSpline
210
0.0
220
0.0
230
1.0
 70
    11
 71
     3
 72
    17
 73
    13
 74
     0
 42
0.0000000001
 43
0.0000000001
 12
1.0
 22
0.0
 32
0.0
 13
1.0
 23
0.0
 33
0.0
 40
0.0
 40
0.0
 40
0.0
 40
0.0
 40
1.0
 40
1.0
 40
1.0
 40
2.0
 40
2.0
 40
2.0
 40
3.0
 40
3.0
 40
3.0
 40
4.0
 40
4.0
 40
4.0
 40
4.0
 10
892.634389277513
 20
-1450.779506150455
 30
0.0
 10
892.634389277513
 20
-1450.779506150455
 30
0.0
 10
908.3244703521823
 20
-1432.36737889333
 30
0.0
 10
913.4768728449562
 20
-1442.882292016488
 30
0.0
 10
918.6292753377347
 20
-1453.397205139659
 30
0.0
 10
922.356111144325
 20
-1458.56577553979
 30
0.0
 10
913.4768728449562
 20
-1460.521138831289
 30
0.0
 10
904.597634545592
 20
-1462.476502122805
 30
0.0
 10
897.8858883975063
 20
-1453.397205139659
 30
0.0
 10
897.8858883975063
 20
-1453.397205139659
 30
0.0
 10
897.8858883975063
 20
-1453.397205139659
 30
0.0
 10
892.634389277513
 20
-1450.779506150455
 30
0.0
 10
892.634389277513
 20
-1450.779506150455
 30
0.0
  0
ENDSEC
  0
SECTION
  2
OBJECTS
  0
DICTIONARY
  5
C
330
0
100
AcDbDictionary
281
     1
  3
ACAD_GROUP
350
D
  3
ACAD_LAYOUT
350
1A
  3
ACAD_MATERIAL
350
3B
  3
ACAD_MLEADERSTYLE
350
5F
  3
ACAD_MLINESTYLE
350
17
  3
ACAD_PLOTSETTINGS
350
19
  3
ACAD_PLOTSTYLENAME
350
E
  3
ACAD_TABLESTYLE
350
5E
  3
ACAD_VISUALSTYLE
350
2A
  0
SUN
  5
3F
330
29
100
AcDbSun
 90
        1
290
     0
 63
     7
421
 16777215
 40
1.0
291
     1
 91
  2455826
 92
 54000000
292
     0
 70
     2
 71
   256
280
     1
  0
DICTIONARY
  5
D
102
{ACAD_REACTORS
330
C
102
}
330
C
100
AcDbDictionary
281
     1
  0
DICTIONARY
  5
1A
102
{ACAD_REACTORS
330
C
102
}
330
C
100
AcDbDictionary
281
     1
  3
Layout1
350
1E
  3
Layout2
350
26
  3
Model
350
22
  0
DICTIONARY
  5
3B
102
{ACAD_REACTORS
330
C
102
}
330
C
100
AcDbDictionary
281
     1
  3
ByBlock
350
3D
  3
ByLayer
350
3C
  3
Global
350
3E
  0
DICTIONARY
  5
5F
102
{ACAD_REACTORS
330
C
102
}
330
C
100
AcDbDictionary
281
     1
  0
DICTIONARY
  5
17
102
{ACAD_REACTORS
330
C
102
}
330
C
100
AcDbDictionary
281
     1
  3
Standard
350
18
  0
DICTIONARY
  5
19
102
{ACAD_REACTORS
330
C
102
}
330
C
100
AcDbDictionary
281
     1
  0
ACDBDICTIONARYWDFLT
  5
E
102
{ACAD_REACTORS
330
C
102
}
330
C
100
AcDbDictionary
281
     1
  3
Normal
350
F
100
AcDbDictionaryWithDefault
340
F
  0
DICTIONARY
  5
5E
102
{ACAD_REACTORS
330
C
102
}
330
C
100
AcDbDictionary
281
     1
  0
DICTIONARY
  5
2A
102
{ACAD_REACTORS
330
C
102
}
330
C
100
AcDbDictionary
281
     1
  3
2dWireframe
350
2F
  3
3D Hidden
350
31
  3
3dWireframe
350
30
  3
Basic
350
32
  3
Brighten
350
36
  3
ColorChange
350
3A
  3
Conceptual
350
34
  3
Dim
350
35
  3
Facepattern
350
39
  3
Flat
350
2B
  3
FlatWithEdges
350
2C
  3
Gouraud
350
2D
  3
GouraudWithEdges
350
2E
  3
Linepattern
350
38
  3
Realistic
350
33
  3
Thicken
350
37
  0
LAYOUT
  5
1E
102
{ACAD_REACTORS
330
1A
102
}
330
1A
100
AcDbPlotSettings
  1

  2
none_device
  4

  6

 40
0.0
 41
0.0
 42
0.0
 43
0.0
 44
0.0
 45
0.0
 46
0.0
 47
0.0
 48
0.0
 49
0.0
140
0.0
141
0.0
142
1.0
143
1.0
 70
   688
 72
     0
 73
     0
 74
     5
  7

 75
    16
 76
     0
 77
     2
 78
   300
147
1.0
148
0.0
149
0.0
100
AcDbLayout
  1
Layout1
 70
     1
 71
     1
 10
0.0
 20
0.0
 11
12.0
 21
9.0
 12
0.0
 22
0.0
 32
0.0
 14
1.000000000000000E+20
 24
1.000000000000000E+20
 34
1.000000000000000E+20
 15
-1.000000000000000E+20
 25
-1.000000000000000E+20
 35
-1.000000000000000E+20
146
0.0
 13
0.0
 23
0.0
 33
0.0
 16
1.0
 26
0.0
 36
0.0
 17
0.0
 27
1.0
 37
0.0
 76
     0
330
1B
  0
LAYOUT
  5
26
102
{ACAD_REACTORS
330
1A
102
}
330
1A
100
AcDbPlotSettings
  1

  2
none_device
  4

  6

 40
0.0
 41
0.0
 42
0.0
 43
0.0
 44
0.0
 45
0.0
 46
0.0
 47
0.0
 48
0.0
 49
0.0
140
0.0
141
0.0
142
1.0
143
1.0
 70
   688
 72
     0
 73
     0
 74
     5
  7

 75
    16
 76
     0
 77
     2
 78
   300
147
1.0
148
0.0
149
0.0
100
AcDbLayout
  1
Layout2
 70
     1
 71
     2
 10
0.0
 20
0.0
 11
0.0
 21
0.0
 12
0.0
 22
0.0
 32
0.0
 14
0.0
 24
0.0
 34
0.0
 15
0.0
 25
0.0
 35
0.0
146
0.0
 13
0.0
 23
0.0
 33
0.0
 16
1.0
 26
0.0
 36
0.0
 17
0.0
 27
1.0
 37
0.0
 76
     0
330
23
  0
LAYOUT
  5
22
102
{ACAD_REACTORS
330
1A
102
}
330
1A
100
AcDbPlotSettings
  1

  2
none_device
  4

  6

 40
0.0
 41
0.0
 42
0.0
 43
0.0
 44
0.0
 45
0.0
 46
0.0
 47
0.0
 48
0.0
 49
0.0
140
0.0
141
0.0
142
1.0
143
1.0
 70
  1712
 72
     0
 73
     0
 74
     0
  7

 75
     0
 76
     0
 77
     2
 78
   300
147
1.0
148
0.0
149
0.0
100
AcDbLayout
  1
Model
 70
     1
 71
     0
 10
0.0
 20
0.0
 11
12.0
 21
9.0
 12
0.0
 22
0.0
 32
0.0
 14
1.000000000000000E+20
 24
1.000000000000000E+20
 34
1.000000000000000E+20
 15
-1.000000000000000E+20
 25
-1.000000000000000E+20
 35
-1.000000000000000E+20
146
0.0
 13
0.0
 23
0.0
 33
0.0
 16
1.0
 26
0.0
 36
0.0
 17
0.0
 27
1.0
 37
0.0
 76
     0
330
1F
331
29
  0
MATERIAL
  5
3D
102
{ACAD_REACTORS
330
3B
102
}
330
3B
100
AcDbMaterial
  1
ByBlock
 72
     1
 94
      127
  0
MATERIAL
  5
3C
102
{ACAD_REACTORS
330
3B
102
}
330
3B
100
AcDbMaterial
  1
ByLayer
 72
     1
 94
      127
  0
MATERIAL
  5
3E
102
{ACAD_REACTORS
330
3B
102
}
330
3B
100
AcDbMaterial
  1
Global
 72
     1
 94
      127
  0
MLINESTYLE
  5
18
102
{ACAD_REACTORS
330
17
102
}
330
17
100
AcDbMlineStyle
  2
Standard
 70
     0
  3

 62
   256
 51
90.0
 52
90.0
 71
     2
 49
0.5
 62
   256
  6
BYLAYER
 49
-0.5
 62
   256
  6
BYLAYER
  0
ACDBPLACEHOLDER
  5
F
102
{ACAD_REACTORS
330
E
102
}
330
E
  0
VISUALSTYLE
  5
2F
102
{ACAD_REACTORS
330
2A
102
}
330
2A
100
AcDbVisualStyle
  2
2dWireframe
 70
     4
177
     2
291
     0
 71
     0
176
     1
 72
     2
176
     1
 73
     0
176
     1
 90
        0
176
     1
 40
-0.6
176
     1
 41
-30.0
176
     1
 62
     5
 63
     7
421
 16777215
176
     1
 74
     1
176
     1
 91
        4
176
     1
 64
     7
176
     1
 65
   257
176
     1
 75
     1
176
     1
175
     1
176
     1
 42
1.0
176
     1
 92
        0
176
     1
 66
   257
176
     1
 43
1.0
176
     1
 76
     1
176
     1
 77
     6
176
     1
 78
     2
176
     1
 67
     7
176
     1
 79
     5
176
     1
170
     0
176
     1
171
     0
176
     1
290
     0
176
     1
 93
        1
176
     1
 44
0.0
176
     1
173
     0
176
     1
  0
VISUALSTYLE
  5
31
102
{ACAD_REACTORS
330
2A
102
}
330
2A
100
AcDbVisualStyle
  2
3D Hidden
 70
     6
177
     2
291
     0
 71
     1
176
     1
 72
     2
176
     1
 73
     2
176
     1
 90
        0
176
     1
 40
-0.6
176
     1
 41
-30.0
176
     1
 62
     5
 63
     7
421
 16777215
176
     1
 74
     2
176
     1
 91
        2
176
     1
 64
     7
176
     1
 65
   257
176
     1
 75
     2
176
     1
175
     1
176
     1
 42
40.0
176
     1
 92
        0
176
     1
 66
   257
176
     1
 43
1.0
176
     1
 76
     1
176
     1
 77
     6
176
     1
 78
     2
176
     1
 67
     7
176
     1
 79
     3
176
     1
170
     0
176
     1
171
     0
176
     1
290
     0
176
     1
 93
        1
176
     1
 44
0.0
176
     1
173
     0
176
     1
  0
VISUALSTYLE
  5
30
102
{ACAD_REACTORS
330
2A
102
}
330
2A
100
AcDbVisualStyle
  2
3dWireframe
 70
     5
177
     2
291
     0
 71
     0
176
     1
 72
     2
176
     1
 73
     0
176
     1
 90
        0
176
     1
 40
-0.6
176
     1
 41
-30.0
176
     1
 62
     5
 63
     7
421
 16777215
176
     1
 74
     1
176
     1
 91
        4
176
     1
 64
     7
176
     1
 65
   257
176
     1
 75
     1
176
     1
175
     1
176
     1
 42
1.0
176
     1
 92
        0
176
     1
 66
   257
176
     1
 43
1.0
176
     1
 76
     1
176
     1
 77
     6
176
     1
 78
     2
176
     1
 67
     7
176
     1
 79
     5
176
     1
170
     0
176
     1
171
     0
176
     1
290
     0
176
     1
 93
        1
176
     1
 44
0.0
176
     1
173
     0
176
     1
  0
VISUALSTYLE
  5
32
102
{ACAD_REACTORS
330
2A
102
}
330
2A
100
AcDbVisualStyle
  2
Basic
 70
     7
177
     2
291
     1
 71
     1
176
     1
 72
     0
176
     1
 73
     1
176
     1
 90
        0
176
     1
 40
-0.6
176
     1
 41
-30.0
176
     1
 62
     5
 63
     7
421
 16777215
176
     1
 74
     0
176
     1
 91
        4
176
     1
 64
     7
176
     1
 65
   257
176
     1
 75
     1
176
     1
175
     1
176
     1
 42
1.0
176
     1
 92
        8
176
     1
 66
     7
176
     1
 43
1.0
176
     1
 76
     1
176
     1
 77
     6
176
     1
 78
     2
176
     1
 67
     7
176
     1
 79
     5
176
     1
170
     0
176
     1
171
     0
176
     1
290
     0
176
     1
 93
        1
176
     1
 44
0.0
176
     1
173
     0
176
     1
  0
VISUALSTYLE
  5
36
102
{ACAD_REACTORS
330
2A
102
}
330
2A
100
AcDbVisualStyle
  2
Brighten
 70
    12
177
     2
291
     1
 71
     2
176
     1
 72
     2
176
     1
 73
     0
176
     1
 90
        0
176
     1
 40
-0.6
176
     1
 41
-30.0
176
     1
 62
     5
 63
     7
421
 16777215
176
     1
 74
     1
176
     1
 91
        4
176
     1
 64
     7
176
     1
 65
   257
176
     1
 75
     1
176
     1
175
     1
176
     1
 42
1.0
176
     1
 92
        8
176
     1
 66
     7
176
     1
 43
1.0
176
     1
 76
     1
176
     1
 77
     6
176
     1
 78
     2
176
     1
 67
     7
176
     1
 79
     5
176
     1
170
     0
176
     1
171
     0
176
     1
290
     0
176
     1
 93
        1
176
     1
 44
50.0
176
     1
173
     0
176
     1
  0
VISUALSTYLE
  5
3A
102
{ACAD_REACTORS
330
2A
102
}
330
2A
100
AcDbVisualStyle
  2
ColorChange
 70
    16
177
     2
291
     1
 71
     2
176
     1
 72
     2
176
     1
 73
     3
176
     1
 90
        0
176
     1
 40
-0.6
176
     1
 41
-30.0
176
     1
 62
     5
 63
     8
421
  8421504
176
     1
 74
     1
176
     1
 91
        4
176
     1
 64
     7
176
     1
 65
   257
176
     1
 75
     1
176
     1
175
     1
176
     1
 42
1.0
176
     1
 92
        8
176
     1
 66
     8
424
  8421504
176
     1
 43
1.0
176
     1
 76
     1
176
     1
 77
     6
176
     1
 78
     2
176
     1
 67
     7
176
     1
 79
     5
176
     1
170
     0
176
     1
171
     0
176
     1
290
     0
176
     1
 93
        1
176
     1
 44
0.0
176
     1
173
     0
176
     1
  0
VISUALSTYLE
  5
34
102
{ACAD_REACTORS
330
2A
102
}
330
2A
100
AcDbVisualStyle
  2
Conceptual
 70
     9
177
     2
291
     0
 71
     3
176
     1
 72
     2
176
     1
 73
     0
176
     1
 90
        0
176
     1
 40
-0.6
176
     1
 41
-30.0
176
     1
 62
     5
 63
     7
421
 16777215
176
     1
 74
     2
176
     1
 91
        2
176
     1
 64
     7
176
     1
 65
   257
176
     1
 75
     1
176
     1
175
     1
176
     1
 42
40.0
176
     1
 92
        8
176
     1
 66
     7
176
     1
 43
1.0
176
     1
 76
     1
176
     1
 77
     6
176
     1
 78
     2
176
     1
 67
     7
176
     1
 79
     3
176
     1
170
     0
176
     1
171
     0
176
     1
290
     0
176
     1
 93
        1
176
     1
 44
0.0
176
     1
173
     0
176
     1
  0
VISUALSTYLE
  5
35
102
{ACAD_REACTORS
330
2A
102
}
330
2A
100
AcDbVisualStyle
  2
Dim
 70
    11
177
     2
291
     1
 71
     2
176
     1
 72
     2
176
     1
 73
     0
176
     1
 90
        0
176
     1
 40
-0.6
176
     1
 41
-30.0
176
     1
 62
     5
 63
     7
421
 16777215
176
     1
 74
     1
176
     1
 91
        4
176
     1
 64
     7
176
     1
 65
   257
176
     1
 75
     1
176
     1
175
     1
176
     1
 42
1.0
176
     1
 92
        8
176
     1
 66
     7
176
     1
 43
1.0
176
     1
 76
     1
176
     1
 77
     6
176
     1
 78
     2
176
     1
 67
     7
176
     1
 79
     5
176
     1
170
     0
176
     1
171
     0
176
     1
290
     0
176
     1
 93
        1
176
     1
 44
-50.0
176
     1
173
     0
176
     1
  0
VISUALSTYLE
  5
39
102
{ACAD_REACTORS
330
2A
102
}
330
2A
100
AcDbVisualStyle
  2
Facepattern
 70
    15
177
     2
291
     1
 71
     2
176
     1
 72
     2
176
     1
 73
     0
176
     1
 90
        0
176
     1
 40
-0.6
176
     1
 41
-30.0
176
     1
 62
     5
 63
     7
421
 16777215
176
     1
 74
     1
176
     1
 91
        4
176
     1
 64
     7
176
     1
 65
   257
176
     1
 75
     1
176
     1
175
     1
176
     1
 42
1.0
176
     1
 92
        8
176
     1
 66
     7
176
     1
 43
1.0
176
     1
 76
     1
176
     1
 77
     6
176
     1
 78
     2
176
     1
 67
     7
176
     1
 79
     5
176
     1
170
     0
176
     1
171
     0
176
     1
290
     0
176
     1
 93
        1
176
     1
 44
0.0
176
     1
173
     0
176
     1
  0
VISUALSTYLE
  5
2B
102
{ACAD_REACTORS
330
2A
102
}
330
2A
100
AcDbVisualStyle
  2
Flat
 70
     0
177
     2
291
     1
 71
     2
176
     1
 72
     1
176
     1
 73
     1
176
     1
 90
        2
176
     1
 40
-0.6
176
     1
 41
30.0
176
     1
 62
     5
 63
     7
421
 16777215
176
     1
 74
     0
176
     1
 91
        4
176
     1
 64
     7
176
     1
 65
   257
176
     1
 75
     1
176
     1
175
     1
176
     1
 42
1.0
176
     1
 92
        8
176
     1
 66
     7
176
     1
 43
1.0
176
     1
 76
     1
176
     1
 77
     6
176
     1
 78
     2
176
     1
 67
     7
176
     1
 79
     5
176
     1
170
     0
176
     1
171
     0
176
     1
290
     0
176
     1
 93
       13
176
     1
 44
0.0
176
     1
173
     0
176
     1
  0
VISUALSTYLE
  5
2C
102
{ACAD_REACTORS
330
2A
102
}
330
2A
100
AcDbVisualStyle
  2
FlatWithEdges
 70
     1
177
     2
291
     1
 71
     2
176
     1
 72
     1
176
     1
 73
     1
176
     1
 90
        2
176
     1
 40
-0.6
176
     1
 41
30.0
176
     1
 62
     5
 63
     7
421
 16777215
176
     1
 74
     1
176
     1
 91
        4
176
     1
 64
     7
176
     1
 65
   257
176
     1
 75
     1
176
     1
175
     1
176
     1
 42
1.0
176
     1
 92
        0
176
     1
 66
   257
176
     1
 43
1.0
176
     1
 76
     1
176
     1
 77
     6
176
     1
 78
     2
176
     1
 67
     7
176
     1
 79
     5
176
     1
170
     0
176
     1
171
     0
176
     1
290
     0
176
     1
 93
       13
176
     1
 44
0.0
176
     1
173
     0
176
     1
  0
VISUALSTYLE
  5
2D
102
{ACAD_REACTORS
330
2A
102
}
330
2A
100
AcDbVisualStyle
  2
Gouraud
 70
     2
177
     2
291
     1
 71
     2
176
     1
 72
     2
176
     1
 73
     1
176
     1
 90
        2
176
     1
 40
-0.6
176
     1
 41
30.0
176
     1
 62
     5
 63
     7
421
 16777215
176
     1
 74
     0
176
     1
 91
        4
176
     1
 64
     7
176
     1
 65
   257
176
     1
 75
     1
176
     1
175
     1
176
     1
 42
1.0
176
     1
 92
        0
176
     1
 66
     7
176
     1
 43
1.0
176
     1
 76
     1
176
     1
 77
     6
176
     1
 78
     2
176
     1
 67
     7
176
     1
 79
     5
176
     1
170
     0
176
     1
171
     0
176
     1
290
     0
176
     1
 93
       13
176
     1
 44
0.0
176
     1
173
     0
176
     1
  0
VISUALSTYLE
  5
2E
102
{ACAD_REACTORS
330
2A
102
}
330
2A
100
AcDbVisualStyle
  2
GouraudWithEdges
 70
     3
177
     2
291
     1
 71
     2
176
     1
 72
     2
176
     1
 73
     1
176
     1
 90
        2
176
     1
 40
-0.6
176
     1
 41
30.0
176
     1
 62
     5
 63
     7
421
 16777215
176
     1
 74
     1
176
     1
 91
        4
176
     1
 64
     7
176
     1
 65
   257
176
     1
 75
     1
176
     1
175
     1
176
     1
 42
1.0
176
     1
 92
        0
176
     1
 66
   257
176
     1
 43
1.0
176
     1
 76
     1
176
     1
 77
     6
176
     1
 78
     2
176
     1
 67
     7
176
     1
 79
     5
176
     1
170
     0
176
     1
171
     0
176
     1
290
     0
176
     1
 93
       13
176
     1
 44
0.0
176
     1
173
     0
176
     1
  0
VISUALSTYLE
  5
38
102
{ACAD_REACTORS
330
2A
102
}
330
2A
100
AcDbVisualStyle
  2
Linepattern
 70
    14
177
     2
291
     1
 71
     2
176
     1
 72
     2
176
     1
 73
     0
176
     1
 90
        0
176
     1
 40
-0.6
176
     1
 41
-30.0
176
     1
 62
     5
 63
     7
421
 16777215
176
     1
 74
     1
176
     1
 91
        4
176
     1
 64
     7
176
     1
 65
   257
176
     1
 75
     7
176
     1
175
     7
176
     1
 42
1.0
176
     1
 92
        8
176
     1
 66
     7
176
     1
 43
1.0
176
     1
 76
     1
176
     1
 77
     6
176
     1
 78
     2
176
     1
 67
     7
176
     1
 79
     5
176
     1
170
     0
176
     1
171
     0
176
     1
290
     0
176
     1
 93
        1
176
     1
 44
0.0
176
     1
173
     0
176
     1
  0
VISUALSTYLE
  5
33
102
{ACAD_REACTORS
330
2A
102
}
330
2A
100
AcDbVisualStyle
  2
Realistic
 70
     8
177
     2
291
     0
 71
     2
176
     1
 72
     2
176
     1
 73
     0
176
     1
 90
        0
176
     1
 40
-0.6
176
     1
 41
-30.0
176
     1
 62
     5
 63
     7
421
 16777215
176
     1
 74
     1
176
     1
 91
        0
176
     1
 64
     7
176
     1
 65
   257
176
     1
 75
     1
176
     1
175
     1
176
     1
 42
1.0
176
     1
 92
        8
176
     1
 66
     8
424
  7895160
176
     1
 43
1.0
176
     1
 76
     1
176
     1
 77
     6
176
     1
 78
     2
176
     1
 67
     7
176
     1
 79
     5
176
     1
170
     0
176
     1
171
     0
176
     1
290
     0
176
     1
 93
       13
176
     1
 44
0.0
176
     1
173
     0
176
     1
  0
VISUALSTYLE
  5
37
102
{ACAD_REACTORS
330
2A
102
}
330
2A
100
AcDbVisualStyle
  2
Thicken
 70
    13
177
     2
291
     1
 71
     2
176
     1
 72
     2
176
     1
 73
     0
176
     1
 90
        0
176
     1
 40
-0.6
176
     1
 41
-30.0
176
     1
 62
     5
 63
     7
421
 16777215
176
     1
 74
     1
176
     1
 91
        4
176
     1
 64
     7
176
     1
 65
   257
176
     1
 75
     1
176
     1
175
     1
176
     1
 42
1.0
176
     1
 92
       12
176
     1
 66
     7
176
     1
 43
1.0
176
     1
 76
     1
176
     1
 77
     6
176
     1
 78
     2
176
     1
 67
     7
176
     1
 79
     5
176
     1
170
     0
176
     1
171
     0
176
     1
290
     0
176
     1
 93
        1
176
     1
 44
0.0
176
     1
173
     0
176
     1
  0
ENDSEC
  0
EOF
