  0
SECTION
  2
HEADER
  9
$ACADVER
  1
AC1024
  9
$ACADMAINTVER
 70
     6
  9
$DWGCODEPAGE
  3
ANSI_1254
  9
$INSBASE
 10
0.0
 20
0.0
 30
0.0
  9
$EXTMIN
 10
1.000000000000000E+20
 20
1.000000000000000E+20
 30
1.000000000000000E+20
  9
$EXTMAX
 10
-1.000000000000000E+20
 20
-1.000000000000000E+20
 30
-1.000000000000000E+20
  9
$LIMMIN
 10
0.0
 20
0.0
  9
$LIMMAX
 10
12.0
 20
9.0
  9
$ORTHOMODE
 70
     0
  9
$REGENMODE
 70
     1
  9
$FILLMODE
 70
     1
  9
$QTEXTMODE
 70
     0
  9
$MIRRTEXT
 70
     1
  9
$LTSCALE
 40
1.0
  9
$ATTMODE
 70
     1
  9
$TEXTSIZE
 40
0.2
  9
$TRACEWID
 40
0.05
  9
$TEXTSTYLE
  7
Standard
  9
$CLAYER
  8
0
  9
$CELTYPE
  6
ByLayer
  9
$CECOLOR
 62
   256
  9
$CELTSCALE
 40
1.0
  9
$DISPSILH
 70
     0
  9
$DIMSCALE
 40
1.0
  9
$DIMASZ
 40
0.18
  9
$DIMEXO
 40
0.0625
  9
$DIMDLI
 40
0.38
  9
$DIMRND
 40
0.0
  9
$DIMDLE
 40
0.0
  9
$DIMEXE
 40
0.18
  9
$DIMTP
 40
0.0
  9
$DIMTM
 40
0.0
  9
$DIMTXT
 40
0.18
  9
$DIMCEN
 40
0.09
  9
$DIMTSZ
 40
0.0
  9
$DIMTOL
 70
     0
  9
$DIMLIM
 70
     0
  9
$DIMTIH
 70
     1
  9
$DIMTOH
 70
     1
  9
$DIMSE1
 70
     0
  9
$DIMSE2
 70
     0
  9
$DIMTAD
 70
     0
  9
$DIMZIN
 70
     0
  9
$DIMBLK
  1

  9
$DIMASO
 70
     1
  9
$DIMSHO
 70
     1
  9
$DIMPOST
  1

  9
$DIMAPOST
  1

  9
$DIMALT
 70
     0
  9
$DIMALTD
 70
     2
  9
$DIMALTF
 40
25.4
  9
$DIMLFAC
 40
1.0
  9
$DIMTOFL
 70
     0
  9
$DIMTVP
 40
0.0
  9
$DIMTIX
 70
     0
  9
$DIMSOXD
 70
     0
  9
$DIMSAH
 70
     0
  9
$DIMBLK1
  1

  9
$DIMBLK2
  1

  9
$DIMSTYLE
  2
Standard
  9
$DIMCLRD
 70
     0
  9
$DIMCLRE
 70
     0
  9
$DIMCLRT
 70
     0
  9
$DIMTFAC
 40
1.0
  9
$DIMGAP
 40
0.09
  9
$DIMJUST
 70
     0
  9
$DIMSD1
 70
     0
  9
$DIMSD2
 70
     0
  9
$DIMTOLJ
 70
     1
  9
$DIMTZIN
 70
     0
  9
$DIMALTZ
 70
     0
  9
$DIMALTTZ
 70
     0
  9
$DIMUPT
 70
     0
  9
$DIMDEC
 70
     4
  9
$DIMTDEC
 70
     4
  9
$DIMALTU
 70
     2
  9
$DIMALTTD
 70
     2
  9
$DIMTXSTY
  7
Standard
  9
$DIMAUNIT
 70
     0
  9
$DIMADEC
 70
     0
  9
$DIMALTRND
 40
0.0
  9
$DIMAZIN
 70
     0
  9
$DIMDSEP
 70
    46
  9
$DIMATFIT
 70
     3
  9
$DIMFRAC
 70
     0
  9
$DIMLDRBLK
  1

  9
$DIMLUNIT
 70
     2
  9
$DIMLWD
 70
    -2
  9
$DIMLWE
 70
    -2
  9
$DIMTMOVE
 70
     0
  9
$DIMFXL
 40
1.0
  9
$DIMFXLON
 70
     0
  9
$DIMJOGANG
 40
0.7853981633974483
  9
$DIMTFILL
 70
     0
  9
$DIMTFILLCLR
 70
     0
  9
$DIMARCSYM
 70
     0
  9
$DIMLTYPE
  6

  9
$DIMLTEX1
  6

  9
$DIMLTEX2
  6

  9
$DIMTXTDIRECTION
 70
     0
  9
$LUNITS
 70
     2
  9
$LUPREC
 70
     4
  9
$SKETCHINC
 40
0.1
  9
$FILLETRAD
 40
0.5
  9
$AUNITS
 70
     0
  9
$AUPREC
 70
     0
  9
$MENU
  1
.
  9
$ELEVATION
 40
0.0
  9
$PELEVATION
 40
0.0
  9
$THICKNESS
 40
0.0
  9
$LIMCHECK
 70
     0
  9
$CHAMFERA
 40
0.5
  9
$CHAMFERB
 40
0.5
  9
$CHAMFERC
 40
1.0
  9
$CHAMFERD
 40
0.0
  9
$SKPOLY
 70
     0
  9
$TDCREATE
 40
2459352.873365891
  9
$TDUCREATE
 40
2459352.748365891
  9
$TDUPDATE
 40
2459352.873365891
  9
$TDUUPDATE
 40
2459352.748365891
  9
$TDINDWG
 40
0.0000000116
  9
$TDUSRTIMER
 40
0.0000000116
  9
$USRTIMER
 70
     1
  9
$ANGBASE
 50
0.0
  9
$ANGDIR
 70
     0
  9
$PDMODE
 70
     0
  9
$PDSIZE
 40
0.0
  9
$PLINEWID
 40
0.0
  9
$SPLFRAME
 70
     0
  9
$SPLINETYPE
 70
     6
  9
$SPLINESEGS
 70
     8
  9
$HANDSEED
  5
6E
  9
$SURFTAB1
 70
     6
  9
$SURFTAB2
 70
     6
  9
$SURFTYPE
 70
     6
  9
$SURFU
 70
     6
  9
$SURFV
 70
     6
  9
$UCSBASE
  2

  9
$UCSNAME
  2

  9
$UCSORG
 10
0.0
 20
0.0
 30
0.0
  9
$UCSXDIR
 10
1.0
 20
0.0
 30
0.0
  9
$UCSYDIR
 10
0.0
 20
1.0
 30
0.0
  9
$UCSORTHOREF
  2

  9
$UCSORTHOVIEW
 70
     0
  9
$UCSORGTOP
 10
0.0
 20
0.0
 30
0.0
  9
$UCSORGBOTTOM
 10
0.0
 20
0.0
 30
0.0
  9
$UCSORGLEFT
 10
0.0
 20
0.0
 30
0.0
  9
$UCSORGRIGHT
 10
0.0
 20
0.0
 30
0.0
  9
$UCSORGFRONT
 10
0.0
 20
0.0
 30
0.0
  9
$UCSORGBACK
 10
0.0
 20
0.0
 30
0.0
  9
$PUCSBASE
  2

  9
$PUCSNAME
  2

  9
$PUCSORG
 10
0.0
 20
0.0
 30
0.0
  9
$PUCSXDIR
 10
1.0
 20
0.0
 30
0.0
  9
$PUCSYDIR
 10
0.0
 20
1.0
 30
0.0
  9
$PUCSORTHOREF
  2

  9
$PUCSORTHOVIEW
 70
     0
  9
$PUCSORGTOP
 10
0.0
 20
0.0
 30
0.0
  9
$PUCSORGBOTTOM
 10
0.0
 20
0.0
 30
0.0
  9
$PUCSORGLEFT
 10
0.0
 20
0.0
 30
0.0
  9
$PUCSORGRIGHT
 10
0.0
 20
0.0
 30
0.0
  9
$PUCSORGFRONT
 10
0.0
 20
0.0
 30
0.0
  9
$PUCSORGBACK
 10
0.0
 20
0.0
 30
0.0
  9
$USERI1
 70
     0
  9
$USERI2
 70
     0
  9
$USERI3
 70
     0
  9
$USERI4
 70
     0
  9
$USERI5
 70
     0
  9
$USERR1
 40
0.0
  9
$USERR2
 40
0.0
  9
$USERR3
 40
0.0
  9
$USERR4
 40
0.0
  9
$USERR5
 40
0.0
  9
$WORLDVIEW
 70
     1
  9
$SHADEDGE
 70
     3
  9
$SHADEDIF
 70
    70
  9
$TILEMODE
 70
     1
  9
$MAXACTVP
 70
    64
  9
$PINSBASE
 10
0.0
 20
0.0
 30
0.0
  9
$PLIMCHECK
 70
     0
  9
$PEXTMIN
 10
1.000000000000000E+20
 20
1.000000000000000E+20
 30
1.000000000000000E+20
  9
$PEXTMAX
 10
-1.000000000000000E+20
 20
-1.000000000000000E+20
 30
-1.000000000000000E+20
  9
$PLIMMIN
 10
0.0
 20
0.0
  9
$PLIMMAX
 10
12.0
 20
9.0
  9
$UNITMODE
 70
     0
  9
$VISRETAIN
 70
     1
  9
$PLINEGEN
 70
     0
  9
$PSLTSCALE
 70
     1
  9
$TREEDEPTH
 70
  3020
  9
$CMLSTYLE
  2
Standard
  9
$CMLJUST
 70
     0
  9
$CMLSCALE
 40
1.0
  9
$PROXYGRAPHICS
 70
     1
  9
$MEASUREMENT
 70
     0
  9
$CELWEIGHT
370
    -1
  9
$ENDCAPS
280
     0
  9
$JOINSTYLE
280
     0
  9
$LWDISPLAY
290
     1
  9
$INSUNITS
 70
     0
  9
$HYPERLINKBASE
  1

  9
$STYLESHEET
  1

  9
$XEDIT
290
     1
  9
$CEPSNTYPE
380
     0
  9
$PSTYLEMODE
290
     1
  9
$FINGERPRINTGUID
  2
{D78D5C58-6DD7-490B-AFDD-50B93EFBACDB}
  9
$VERSIONGUID
  2
{FAEB1C32-E019-11D5-929B-00C0DF256EC4}
  9
$EXTNAMES
290
     1
  9
$PSVPSCALE
 40
0.0
  9
$OLESTARTUP
290
     0
  9
$SORTENTS
280
   127
  9
$INDEXCTL
280
     0
  9
$HIDETEXT
280
     1
  9
$XCLIPFRAME
280
     2
  9
$HALOGAP
280
     0
  9
$OBSCOLOR
 70
   257
  9
$OBSLTYPE
280
     0
  9
$INTERSECTIONDISPLAY
280
     0
  9
$INTERSECTIONCOLOR
 70
   257
  9
$DIMASSOC
280
     2
  9
$PROJECTNAME
  1

  9
$CAMERADISPLAY
290
     0
  9
$LENSLENGTH
 40
50.0
  9
$CAMERAHEIGHT
 40
0.0
  9
$STEPSPERSEC
 40
2.0
  9
$STEPSIZE
 40
6.0
  9
$3DDWFPREC
 40
2.0
  9
$PSOLWIDTH
 40
0.25
  9
$PSOLHEIGHT
 40
4.0
  9
$LOFTANG1
 40
1.570796326794897
  9
$LOFTANG2
 40
1.570796326794897
  9
$LOFTMAG1
 40
0.0
  9
$LOFTMAG2
 40
0.0
  9
$LOFTPARAM
 70
     7
  9
$LOFTNORMALS
280
     1
  9
$LATITUDE
 40
37.795
  9
$LONGITUDE
 40
-122.394
  9
$NORTHDIRECTION
 40
0.0
  9
$TIMEZONE
 70
 -8000
  9
$LIGHTGLYPHDISPLAY
280
     1
  9
$TILEMODELIGHTSYNCH
280
     1
  9
$CMATERIAL
347
3C
  9
$SOLIDHIST
280
     1
  9
$SHOWHIST
280
     1
  9
$DWFFRAME
280
     2
  9
$DGNFRAME
280
     2
  9
$REALWORLDSCALE
290
     1
  9
$INTERFERECOLOR
 62
   256
  9
$CSHADOW
280
     0
  9
$SHADOWPLANELOCATION
 40
0.0
  0
ENDSEC
  0
SECTION
  2
CLASSES
  0
CLASS
  1
ACDBDICTIONARYWDFLT
  2
AcDbDictionaryWithDefault
  3
ObjectDBX Classes
 90
        0
 91
        4
280
     0
281
     0
  0
CLASS
  1
VISUALSTYLE
  2
AcDbVisualStyle
  3
ObjectDBX Classes
 90
     4095
 91
        4
280
     0
281
     0
  0
CLASS
  1
MATERIAL
  2
AcDbMaterial
  3
ObjectDBX Classes
 90
     1153
 91
        4
280
     0
281
     0
  0
CLASS
  1
SUN
  2
AcDbSun
  3
SCENEOE
 90
     1024
 91
        4
280
     0
281
     0
  0
ENDSEC
  0
SECTION
  2
TABLES
  0
TABLE
  2
VPORT
  5
8
330
0
100
AcDbSymbolTable
 70
     1
  0
VPORT
  5
29
330
8
100
AcDbSymbolTableRecord
100
AcDbViewportTableRecord
  2
*Active
 70
     0
 10
0.0
 20
0.0
 11
1.0
 21
1.0
 12
0.0
 22
0.0
 13
0.0
 23
0.0
 14
0.5
 24
0.5
 15
0.5
 25
0.5
 16
0.0
 26
0.0
 36
1.0
 17
975.2595204722497
 27
-958.5375930405562
 37
0.0
 40
836.924813918884
 41
0.9988733110404867
 42
50.0
 43
0.0
 44
0.0
 50
0.0
 51
0.0
 71
     0
 72
   100
 73
     1
 74
     3
 75
     0
 76
     0
 77
     0
 78
     0
281
     0
 65
     1
110
0.0
120
0.0
130
0.0
111
1.0
121
0.0
131
0.0
112
0.0
122
1.0
132
0.0
 79
     0
146
0.0
 60
     3
 61
     5
292
     1
282
     1
141
0.0
142
0.0
 63
   250
361
3F
  0
ENDTAB
  0
TABLE
  2
LTYPE
  5
5
330
0
100
AcDbSymbolTable
 70
     1
  0
LTYPE
  5
14
330
5
100
AcDbSymbolTableRecord
100
AcDbLinetypeTableRecord
  2
ByBlock
 70
     0
  3

 72
    65
 73
     0
 40
0.0
  0
LTYPE
  5
15
330
5
100
AcDbSymbolTableRecord
100
AcDbLinetypeTableRecord
  2
ByLayer
 70
     0
  3

 72
    65
 73
     0
 40
0.0
  0
LTYPE
  5
16
330
5
100
AcDbSymbolTableRecord
100
AcDbLinetypeTableRecord
  2
Continuous
 70
     0
  3
Solid line
 72
    65
 73
     0
 40
0.0
  0
ENDTAB
  0
TABLE
  2
LAYER
  5
2
330
0
100
AcDbSymbolTable
 70
     2
  0
LAYER
  5
10
330
2
100
AcDbSymbolTableRecord
100
AcDbLayerTableRecord
  2
0
 70
     0
 62
     7
  6
Continuous
370
    -3
390
F
347
3E
  0
LAYER
  5
40
330
2
100
AcDbSymbolTableRecord
100
AcDbLayerTableRecord
  2
katman 1
 70
     0
 62
     7
  6
Continuous
370
    -3
390
F
347
3E
  0
ENDTAB
  0
TABLE
  2
STYLE
  5
3
330
0
100
AcDbSymbolTable
 70
     1
  0
STYLE
  5
11
330
3
100
AcDbSymbolTableRecord
100
AcDbTextStyleTableRecord
  2
Standard
 70
     0
 40
0.0
 41
1.0
 50
0.0
 71
     0
 42
0.2
  3
txt
  4

  0
ENDTAB
  0
TABLE
  2
VIEW
  5
6
330
0
100
AcDbSymbolTable
 70
     0
  0
ENDTAB
  0
TABLE
  2
UCS
  5
7
330
0
100
AcDbSymbolTable
 70
     0
  0
ENDTAB
  0
TABLE
  2
APPID
  5
9
330
0
100
AcDbSymbolTable
 70
     1
  0
APPID
  5
12
330
9
100
AcDbSymbolTableRecord
100
AcDbRegAppTableRecord
  2
ACAD
 70
     0
  0
ENDTAB
  0
TABLE
  2
DIMSTYLE
  5
A
330
0
100
AcDbSymbolTable
 70
     1
100
AcDbDimStyleTable
  0
DIMSTYLE
105
27
330
A
100
AcDbSymbolTableRecord
100
AcDbDimStyleTableRecord
  2
Standard
 70
     0
178
     0
340
11
  0
ENDTAB
  0
TABLE
  2
BLOCK_RECORD
  5
1
330
0
100
AcDbSymbolTable
 70
     5
  0
BLOCK_RECORD
  5
1F
330
1
100
AcDbSymbolTableRecord
100
AcDbBlockTableRecord
  2
*Model_Space
340
22
 70
     0
280
     1
281
     0
  0
BLOCK_RECORD
  5
1B
330
1
100
AcDbSymbolTableRecord
100
AcDbBlockTableRecord
  2
*Paper_Space
340
1E
 70
     0
280
     1
281
     0
  0
BLOCK_RECORD
  5
23
330
1
100
AcDbSymbolTableRecord
100
AcDbBlockTableRecord
  2
*Paper_Space0
340
26
 70
     0
280
     1
281
     0
  0
BLOCK_RECORD
  5
41
330
1
100
AcDbSymbolTableRecord
100
AcDbBlockTableRecord
  2
block 2
340
0
102
{BLKREFS
331
42
102
}
 70
     0
280
     1
281
     0
  0
BLOCK_RECORD
  5
4A
330
1
100
AcDbSymbolTableRecord
100
AcDbBlockTableRecord
  2
block 3
340
0
102
{BLKREFS
331
4B
102
}
 70
     0
280
     1
281
     0
  0
BLOCK_RECORD
  5
54
330
1
100
AcDbSymbolTableRecord
100
AcDbBlockTableRecord
  2
block 4
340
0
102
{BLKREFS
331
55
102
}
 70
     0
280
     1
281
     0
  0
BLOCK_RECORD
  5
5C
330
1
100
AcDbSymbolTableRecord
100
AcDbBlockTableRecord
  2
block 5
340
0
102
{BLKREFS
331
5D
102
}
 70
     0
280
     1
281
     0
  0
ENDTAB
  0
ENDSEC
  0
SECTION
  2
BLOCKS
  0
BLOCK
  5
20
330
1F
100
AcDbEntity
  8
0
100
AcDbBlockBegin
  2
*Model_Space
 70
     0
 10
0.0
 20
0.0
 30
0.0
  3
*Model_Space
  1

  0
ENDBLK
  5
21
330
1F
100
AcDbEntity
  8
0
100
AcDbBlockEnd
  0
BLOCK
  5
1C
330
1B
100
AcDbEntity
 67
     1
  8
0
100
AcDbBlockBegin
  2
*Paper_Space
 70
     0
 10
0.0
 20
0.0
 30
0.0
  3
*Paper_Space
  1

  0
ENDBLK
  5
1D
330
1B
100
AcDbEntity
 67
     1
  8
0
100
AcDbBlockEnd
  0
BLOCK
  5
24
330
23
100
AcDbEntity
  8
0
100
AcDbBlockBegin
  2
*Paper_Space0
 70
     0
 10
0.0
 20
0.0
 30
0.0
  3
*Paper_Space0
  1

  0
ENDBLK
  5
25
330
23
100
AcDbEntity
  8
0
100
AcDbBlockEnd
  0
BLOCK
  5
43
330
41
100
AcDbEntity
  8
0
100
AcDbBlockBegin
  2
block 2
 70
     0
 10
0.0
 20
0.0
 30
0.0
  3
block 2
  1

  0
SPLINE
  5
45
330
41
100
AcDbEntity
  8
katman 1
370
     0
100
AcDbSpline
210
0.0
220
0.0
230
1.0
 70
    11
 71
     3
 72
   122
 73
   118
 74
     0
 42
0.0000000001
 43
0.0000000001
 12
1.0
 22
0.0
 32
0.0
 13
1.0
 23
0.0
 33
0.0
 40
0.0
 40
0.0
 40
0.0
 40
0.0
 40
1.0
 40
1.0
 40
1.0
 40
2.0
 40
2.0
 40
2.0
 40
3.0
 40
3.0
 40
3.0
 40
4.0
 40
4.0
 40
4.0
 40
5.0
 40
5.0
 40
5.0
 40
6.0
 40
6.0
 40
6.0
 40
7.0
 40
7.0
 40
7.0
 40
8.0
 40
8.0
 40
8.0
 40
9.0
 40
9.0
 40
9.0
 40
10.0
 40
10.0
 40
10.0
 40
11.0
 40
11.0
 40
11.0
 40
12.0
 40
12.0
 40
12.0
 40
13.0
 40
13.0
 40
13.0
 40
14.0
 40
14.0
 40
14.0
 40
15.0
 40
15.0
 40
15.0
 40
16.0
 40
16.0
 40
16.0
 40
17.0
 40
17.0
 40
17.0
 40
18.0
 40
18.0
 40
18.0
 40
19.0
 40
19.0
 40
19.0
 40
20.0
 40
20.0
 40
20.0
 40
21.0
 40
21.0
 40
21.0
 40
22.0
 40
22.0
 40
22.0
 40
23.0
 40
23.0
 40
23.0
 40
24.0
 40
24.0
 40
24.0
 40
25.0
 40
25.0
 40
25.0
 40
26.0
 40
26.0
 40
26.0
 40
27.0
 40
27.0
 40
27.0
 40
28.0
 40
28.0
 40
28.0
 40
29.0
 40
29.0
 40
29.0
 40
30.0
 40
30.0
 40
30.0
 40
31.0
 40
31.0
 40
31.0
 40
32.0
 40
32.0
 40
32.0
 40
33.0
 40
33.0
 40
33.0
 40
34.0
 40
34.0
 40
34.0
 40
35.0
 40
35.0
 40
35.0
 40
36.0
 40
36.0
 40
36.0
 40
37.0
 40
37.0
 40
37.0
 40
38.0
 40
38.0
 40
38.0
 40
39.0
 40
39.0
 40
39.0
 40
39.0
 10
1003.331639146207
 20
-986.8242201240027
 30
0.0
 10
982.1355282990489
 20
-986.8382420160942
 30
0.0
 10
960.9394673518627
 20
-986.8593996041618
 30
0.0
 10
939.7434064046756
 20
-986.9017646802713
 30
0.0
 10
935.2369399459467
 20
-986.9107965751791
 30
0.0
 10
934.0907375923098
 20
-985.6944348611069
 30
0.0
 10
934.405107415032
 20
-981.1995950958226
 30
0.0
 10
936.8759045217075
 20
-945.8734589168198
 30
0.0
 10
939.1696565282209
 20
-910.5344984450512
 30
0.0
 10
941.3637083909589
 20
-875.1898493764893
 30
0.0
 10
942.1478864487481
 20
-862.5564739006631
 30
0.0
 10
941.933566069607
 20
-862.9251348927683
 30
0.0
 10
929.1184049962903
 20
-862.2331719829772
 30
0.0
 10
922.9665867654039
 20
-861.9010377702743
 30
0.0
 10
920.183415834882
 20
-864.0634530508505
 30
0.0
 10
917.6528884618874
 20
-869.4994561853982
 30
0.0
 10
906.3700058244949
 20
-893.7358725180766
 30
0.0
 10
892.9632306847989
 20
-916.7138115604339
 30
0.0
 10
876.3284762654148
 20
-937.7838750786705
 30
0.0
 10
866.886503389901
 20
-949.7432516345798
 30
0.0
 10
855.3020253225804
 20
-957.4196637057248
 30
0.0
 10
840.0725539107343
 20
-959.0949554609979
 30
0.0
 10
829.4581312963855
 20
-960.2626647025081
 30
0.0
 10
818.8332795879169
 20
-961.6122593414475
 30
0.0
 10
808.1781385965305
 20
-962.0729857816368
 30
0.0
 10
787.709269939267
 20
-962.9580615825253
 30
0.0
 10
767.1946430078078
 20
-963.2877506966106
 30
0.0
 10
746.8863524599928
 20
-959.8438043387087
 30
0.0
 10
732.6855689680524
 20
-957.4355318967737
 30
0.0
 10
723.7170969255249
 20
-949.5285819556375
 30
0.0
 10
721.5547315449176
 20
-934.6452666485857
 30
0.0
 10
720.4292875795745
 20
-926.898944716866
 30
0.0
 10
720.0203074102046
 20
-919.1324631965144
 30
0.0
 10
720.0147685133279
 20
-911.3611413788949
 30
0.0
 10
719.9594294445342
 20
-834.259946357548
 30
0.0
 10
719.9903175271165
 20
-757.1585517363128
 30
0.0
 10
720.0724528807996
 20
-680.0574565149109
 30
0.0
 10
720.0835306745521
 20
-669.5987717127373
 30
0.0
 10
719.5743014617146
 20
-659.1500669049365
 30
0.0
 10
720.4566826641258
 20
-648.6710229142445
 30
0.0
 10
721.4457999063461
 20
-636.9241703384905
 30
0.0
 10
727.5944744390054
 20
-629.9817369534458
 30
0.0
 10
738.5480671620908
 20
-626.6510635316681
 30
0.0
 10
748.1706779357401
 20
-623.7252285815939
 30
0.0
 10
758.0636467569302
 20
-622.3236381719744
 30
0.0
 10
768.0231821405805
 20
-621.415608384028
 30
0.0
 10
781.9203742037234
 20
-620.1485981985152
 30
0.0
 10
781.5583998078455
 20
-620.2321806513828
 30
0.0
 10
782.326609874639
 20
-606.5249577811155
 30
0.0
 10
782.7004604638187
 20
-599.8558265419497
 30
0.0
 10
780.5253206904154
 20
-598.3544860885804
 30
0.0
 10
774.1849803658388
 20
-598.3762923762833
 30
0.0
 10
706.6996596219396
 20
-598.6071795460821
 30
0.0
 10
639.2134406785472
 20
-598.5510919777125
 30
0.0
 10
571.7272716351272
 20
-598.568856367694
 30
0.0
 10
557.2585252942945
 20
-598.5726487655547
 30
0.0
 10
557.4854703663177
 20
-598.5643154702548
 30
0.0
 10
557.4172072048123
 20
-613.3134996529425
 30
0.0
 10
557.393454818206
 20
-618.4509013558763
 30
0.0
 10
559.3086656381874
 20
-620.5285365842619
 30
0.0
 10
564.1249610221967
 20
-621.1633640262717
 30
0.0
 10
573.6007161786602
 20
-622.4125100218589
 30
0.0
 10
583.0139466703831
 20
-624.1442386453082
 30
0.0
 10
592.1298731297584
 20
-627.0648340983362
 30
0.0
 10
612.5466462163995
 20
-633.60602180965
 30
0.0
 10
617.5926311708845
 20
-640.6010497650368
 30
0.0
 10
617.5970223684071
 20
-661.9792955094872
 30
0.0
 10
617.6067029629494
 20
-707.883626923267
 30
0.0
 10
617.5938786701809
 20
-753.7879583370459
 30
0.0
 10
617.5872419739235
 20
-799.6923895507698
 30
0.0
 10
617.580854777525
 20
-843.3684876210891
 30
0.0
 10
617.6406848437873
 20
-887.0446854913516
 30
0.0
 10
617.5297572063391
 20
-930.7203843618918
 30
0.0
 10
617.482302333101
 20
-949.3602693505491
 30
0.0
 10
610.9651664082221
 20
-957.1974092310556
 30
0.0
 10
592.7823651618073
 20
-961.5061720012727
 30
0.0
 10
583.2215804532934
 20
-963.7718303236288
 30
0.0
 10
573.4734712504169
 20
-964.5776150692327
 30
0.0
 10
563.73105064433
 20
-965.3442283369259
 30
0.0
 10
559.114554747649
 20
-965.7074502321047
 30
0.0
 10
557.1903619327359
 20
-967.3259059194261
 30
0.0
 10
557.4022871132256
 20
-972.3601144805543
 30
0.0
 10
557.8049798861412
 20
-981.923044887857
 30
0.0
 10
557.7492416175719
 20
-991.5323323690172
 30
0.0
 10
557.2921079753569
 20
-1001.094015277024
 30
0.0
 10
557.0372688190655
 20
-1006.420438073363
 30
0.0
 10
558.8243365113085
 20
-1008.517135091
 30
0.0
 10
564.0821967463144
 20
-1009.347470622766
 30
0.0
 10
592.9151988869016
 20
-1013.901092554903
 30
0.0
 10
613.3332194728373
 20
-1029.483955567461
 30
0.0
 10
624.5682979371895
 20
-1056.645059150864
 30
0.0
 10
644.1675098848655
 20
-1104.026379831746
 30
0.0
 10
663.7891269199072
 20
-1151.398618717749
 30
0.0
 10
683.2748164316026
 20
-1198.826645772289
 30
0.0
 10
706.5507581059092
 20
-1255.480279424351
 30
0.0
 10
729.7872788024479
 20
-1312.15057966703
 30
0.0
 10
752.7607767473064
 20
-1368.927166849766
 30
0.0
 10
755.2756355291358
 20
-1375.142407944884
 30
0.0
 10
758.5701813712867
 20
-1377.252078955204
 30
0.0
 10
765.175290946554
 20
-1376.976431510639
 30
0.0
 10
778.0696432752129
 20
-1376.438110614214
 30
0.0
 10
791.0068596797009
 20
-1376.629127706488
 30
0.0
 10
803.9169803994682
 20
-1376.925234139519
 30
0.0
 10
808.8101217401436
 20
-1377.037409276258
 30
0.0
 10
811.5126044161698
 20
-1375.626138272097
 30
0.0
 10
813.4667372142003
 20
-1370.86308615806
 30
0.0
 10
837.7287023324725
 20
-1311.725930906505
 30
0.0
 10
861.9545897710896
 20
-1252.571809664492
 30
0.0
 10
886.6866126242876
 20
-1193.630761302338
 30
0.0
 10
906.3571316317548
 20
-1146.752232737928
 30
0.0
 10
926.5912708213846
 20
-1100.108832840911
 30
0.0
 10
946.7989131259565
 20
-1053.45804774807
 30
0.0
 10
957.3051526013123
 20
-1029.203517725609
 30
0.0
 10
978.078860186668
 20
-1012.598453789476
 30
0.0
 10
1003.331639146207
 20
-1010.08788640523
 30
0.0
 10
1003.331639146207
 20
-1010.08788640523
 30
0.0
 10
1003.331639146207
 20
-986.8242201240027
 30
0.0
 10
1003.331639146207
 20
-986.8242201240027
 30
0.0
  0
SPLINE
  5
46
330
41
100
AcDbEntity
  8
katman 1
370
     0
100
AcDbSpline
210
0.0
220
0.0
230
1.0
 70
    11
 71
     3
 72
    50
 73
    46
 74
     0
 42
0.0000000001
 43
0.0000000001
 12
1.0
 22
0.0
 32
0.0
 13
1.0
 23
0.0
 33
0.0
 40
0.0
 40
0.0
 40
0.0
 40
0.0
 40
1.0
 40
1.0
 40
1.0
 40
2.0
 40
2.0
 40
2.0
 40
3.0
 40
3.0
 40
3.0
 40
4.0
 40
4.0
 40
4.0
 40
5.0
 40
5.0
 40
5.0
 40
6.0
 40
6.0
 40
6.0
 40
7.0
 40
7.0
 40
7.0
 40
8.0
 40
8.0
 40
8.0
 40
9.0
 40
9.0
 40
9.0
 40
10.0
 40
10.0
 40
10.0
 40
11.0
 40
11.0
 40
11.0
 40
12.0
 40
12.0
 40
12.0
 40
13.0
 40
13.0
 40
13.0
 40
14.0
 40
14.0
 40
14.0
 40
15.0
 40
15.0
 40
15.0
 40
15.0
 10
911.2433867763139
 20
-1043.134791469525
 30
0.0
 10
906.8232971688749
 20
-1062.944930598258
 30
0.0
 10
898.9534728068002
 20
-1081.568398496163
 30
0.0
 10
891.709693491689
 20
-1100.405637873551
 30
0.0
 10
868.9398373319927
 20
-1159.618740882277
 30
0.0
 10
845.6968795390849
 20
-1218.645617196044
 30
0.0
 10
821.8138548071211
 20
-1277.418502653025
 30
0.0
 10
821.1934484569783
 20
-1278.945242192076
 30
0.0
 10
821.1822209633101
 20
-1281.011400426931
 30
0.0
 10
818.7656152260743
 20
-1282.159898179274
 30
0.0
 10
812.9171888240999
 20
-1267.784614485738
 30
0.0
 10
807.1404686816895
 20
-1253.496156743236
 30
0.0
 10
801.2959843774915
 20
-1239.235443385089
 30
0.0
 10
775.2148658850692
 20
-1175.595813672542
 30
0.0
 10
749.0894362176368
 20
-1111.974447349698
 30
0.0
 10
723.0651537931653
 20
-1048.311564250262
 30
0.0
 10
720.8048347677968
 20
-1042.782298068305
 30
0.0
 10
718.8914203468039
 20
-1037.074589586973
 30
0.0
 10
717.3028048426495
 20
-1031.315633834545
 30
0.0
 10
714.889193103726
 20
-1022.565524068883
 30
0.0
 10
716.6265105240236
 20
-1019.382305063949
 30
0.0
 10
725.0795657572044
 20
-1015.725685025986
 30
0.0
 10
736.4572583411327
 20
-1010.803901101455
 30
0.0
 10
748.7275117217323
 20
-1009.93199889314
 30
0.0
 10
760.767726232054
 20
-1008.239641347491
 30
0.0
 10
765.2444024075812
 20
-1007.610402702328
 30
0.0
 10
766.6910524917912
 20
-1006.20227539639
 30
0.0
 10
766.6793259984042
 20
-1001.666268154331
 30
0.0
 10
766.6428491189736
 20
-987.5676299047791
 30
0.0
 10
766.8281277144924
 20
-987.6059031831974
 30
0.0
 10
781.0826035761556
 20
-987.6297054697752
 30
0.0
 10
803.1288602439026
 20
-987.6663320491189
 30
0.0
 10
825.1772127104678
 20
-987.8045549711751
 30
0.0
 10
847.2201260801003
 20
-987.5317019250415
 30
0.0
 10
852.5948021492304
 20
-987.4652850624952
 30
0.0
 10
854.5993339188426
 20
-988.6691717836038
 30
0.0
 10
854.4038258290911
 20
-994.4787261074962
 30
0.0
 10
853.9569216811087
 20
-1007.760801217517
 30
0.0
 10
854.259814510302
 20
-1007.827717079788
 30
0.0
 10
867.171731629056
 20
-1009.684395232764
 30
0.0
 10
876.6324668939887
 20
-1011.044868065574
 30
0.0
 10
886.1397588326681
 20
-1012.199004514738
 30
0.0
 10
895.2716532830409
 20
-1015.145997052881
 30
0.0
 10
911.2555623694461
 20
-1020.304107244134
 30
0.0
 10
914.8754061281561
 20
-1026.857021448832
 30
0.0
 10
911.2433867763139
 20
-1043.134791469525
 30
0.0
  0
HATCH
  5
47
330
41
100
AcDbEntity
  8
katman 1
 62
     7
420
 16777215
100
AcDbHatch
 10
0.0
 20
0.0
 30
0.0
210
0.0
220
0.0
230
1.0
  2
SOLID
 70
     1
 71
     0
 91
        2
 92
        1
 93
        1
 72
     4
 94
        3
 73
     0
 74
     1
 95
      122
 96
      118
 40
0.0
 40
0.0
 40
0.0
 40
0.0
 40
1.0
 40
1.0
 40
1.0
 40
2.0
 40
2.0
 40
2.0
 40
3.0
 40
3.0
 40
3.0
 40
4.0
 40
4.0
 40
4.0
 40
5.0
 40
5.0
 40
5.0
 40
6.0
 40
6.0
 40
6.0
 40
7.0
 40
7.0
 40
7.0
 40
8.0
 40
8.0
 40
8.0
 40
9.0
 40
9.0
 40
9.0
 40
10.0
 40
10.0
 40
10.0
 40
11.0
 40
11.0
 40
11.0
 40
12.0
 40
12.0
 40
12.0
 40
13.0
 40
13.0
 40
13.0
 40
14.0
 40
14.0
 40
14.0
 40
15.0
 40
15.0
 40
15.0
 40
16.0
 40
16.0
 40
16.0
 40
17.0
 40
17.0
 40
17.0
 40
18.0
 40
18.0
 40
18.0
 40
19.0
 40
19.0
 40
19.0
 40
20.0
 40
20.0
 40
20.0
 40
21.0
 40
21.0
 40
21.0
 40
22.0
 40
22.0
 40
22.0
 40
23.0
 40
23.0
 40
23.0
 40
24.0
 40
24.0
 40
24.0
 40
25.0
 40
25.0
 40
25.0
 40
26.0
 40
26.0
 40
26.0
 40
27.0
 40
27.0
 40
27.0
 40
28.0
 40
28.0
 40
28.0
 40
29.0
 40
29.0
 40
29.0
 40
30.0
 40
30.0
 40
30.0
 40
31.0
 40
31.0
 40
31.0
 40
32.0
 40
32.0
 40
32.0
 40
33.0
 40
33.0
 40
33.0
 40
34.0
 40
34.0
 40
34.0
 40
35.0
 40
35.0
 40
35.0
 40
36.0
 40
36.0
 40
36.0
 40
37.0
 40
37.0
 40
37.0
 40
38.0
 40
38.0
 40
38.0
 40
39.0
 40
39.0
 40
39.0
 40
39.0
 10
1003.331639146207
 20
-986.8242201240027
 10
982.1355282990489
 20
-986.8382420160942
 10
960.9394673518627
 20
-986.8593996041618
 10
939.7434064046756
 20
-986.9017646802713
 10
935.2369399459467
 20
-986.9107965751791
 10
934.0907375923098
 20
-985.6944348611069
 10
934.405107415032
 20
-981.1995950958226
 10
936.8759045217075
 20
-945.8734589168198
 10
939.1696565282209
 20
-910.5344984450512
 10
941.3637083909589
 20
-875.1898493764893
 10
942.1478864487481
 20
-862.5564739006631
 10
941.933566069607
 20
-862.9251348927683
 10
929.1184049962903
 20
-862.2331719829772
 10
922.9665867654039
 20
-861.9010377702743
 10
920.183415834882
 20
-864.0634530508505
 10
917.6528884618874
 20
-869.4994561853982
 10
906.3700058244949
 20
-893.7358725180766
 10
892.9632306847989
 20
-916.7138115604339
 10
876.3284762654148
 20
-937.7838750786705
 10
866.886503389901
 20
-949.7432516345798
 10
855.3020253225804
 20
-957.4196637057248
 10
840.0725539107343
 20
-959.0949554609979
 10
829.4581312963855
 20
-960.2626647025081
 10
818.8332795879169
 20
-961.6122593414475
 10
808.1781385965305
 20
-962.0729857816368
 10
787.709269939267
 20
-962.9580615825253
 10
767.1946430078078
 20
-963.2877506966106
 10
746.8863524599928
 20
-959.8438043387087
 10
732.6855689680524
 20
-957.4355318967737
 10
723.7170969255249
 20
-949.5285819556375
 10
721.5547315449176
 20
-934.6452666485857
 10
720.4292875795745
 20
-926.898944716866
 10
720.0203074102046
 20
-919.1324631965144
 10
720.0147685133279
 20
-911.3611413788949
 10
719.9594294445342
 20
-834.259946357548
 10
719.9903175271165
 20
-757.1585517363128
 10
720.0724528807996
 20
-680.0574565149109
 10
720.0835306745521
 20
-669.5987717127373
 10
719.5743014617146
 20
-659.1500669049365
 10
720.4566826641258
 20
-648.6710229142445
 10
721.4457999063461
 20
-636.9241703384905
 10
727.5944744390054
 20
-629.9817369534458
 10
738.5480671620908
 20
-626.6510635316681
 10
748.1706779357401
 20
-623.7252285815939
 10
758.0636467569302
 20
-622.3236381719744
 10
768.0231821405805
 20
-621.415608384028
 10
781.9203742037234
 20
-620.1485981985152
 10
781.5583998078455
 20
-620.2321806513828
 10
782.326609874639
 20
-606.5249577811155
 10
782.7004604638187
 20
-599.8558265419497
 10
780.5253206904154
 20
-598.3544860885804
 10
774.1849803658388
 20
-598.3762923762833
 10
706.6996596219396
 20
-598.6071795460821
 10
639.2134406785472
 20
-598.5510919777125
 10
571.7272716351272
 20
-598.568856367694
 10
557.2585252942945
 20
-598.5726487655547
 10
557.4854703663177
 20
-598.5643154702548
 10
557.4172072048123
 20
-613.3134996529425
 10
557.393454818206
 20
-618.4509013558763
 10
559.3086656381874
 20
-620.5285365842619
 10
564.1249610221967
 20
-621.1633640262717
 10
573.6007161786602
 20
-622.4125100218589
 10
583.0139466703831
 20
-624.1442386453082
 10
592.1298731297584
 20
-627.0648340983362
 10
612.5466462163995
 20
-633.60602180965
 10
617.5926311708845
 20
-640.6010497650368
 10
617.5970223684071
 20
-661.9792955094872
 10
617.6067029629494
 20
-707.883626923267
 10
617.5938786701809
 20
-753.7879583370459
 10
617.5872419739235
 20
-799.6923895507698
 10
617.580854777525
 20
-843.3684876210891
 10
617.6406848437873
 20
-887.0446854913516
 10
617.5297572063391
 20
-930.7203843618918
 10
617.482302333101
 20
-949.3602693505491
 10
610.9651664082221
 20
-957.1974092310556
 10
592.7823651618073
 20
-961.5061720012727
 10
583.2215804532934
 20
-963.7718303236288
 10
573.4734712504169
 20
-964.5776150692327
 10
563.73105064433
 20
-965.3442283369259
 10
559.114554747649
 20
-965.7074502321047
 10
557.1903619327359
 20
-967.3259059194261
 10
557.4022871132256
 20
-972.3601144805543
 10
557.8049798861412
 20
-981.923044887857
 10
557.7492416175719
 20
-991.5323323690172
 10
557.2921079753569
 20
-1001.094015277024
 10
557.0372688190655
 20
-1006.420438073363
 10
558.8243365113085
 20
-1008.517135091
 10
564.0821967463144
 20
-1009.347470622766
 10
592.9151988869016
 20
-1013.901092554903
 10
613.3332194728373
 20
-1029.483955567461
 10
624.5682979371895
 20
-1056.645059150864
 10
644.1675098848655
 20
-1104.026379831746
 10
663.7891269199072
 20
-1151.398618717749
 10
683.2748164316026
 20
-1198.826645772289
 10
706.5507581059092
 20
-1255.480279424351
 10
729.7872788024479
 20
-1312.15057966703
 10
752.7607767473064
 20
-1368.927166849766
 10
755.2756355291358
 20
-1375.142407944884
 10
758.5701813712867
 20
-1377.252078955204
 10
765.175290946554
 20
-1376.976431510639
 10
778.0696432752129
 20
-1376.438110614214
 10
791.0068596797009
 20
-1376.629127706488
 10
803.9169803994682
 20
-1376.925234139519
 10
808.8101217401436
 20
-1377.037409276258
 10
811.5126044161698
 20
-1375.626138272097
 10
813.4667372142003
 20
-1370.86308615806
 10
837.7287023324725
 20
-1311.725930906505
 10
861.9545897710896
 20
-1252.571809664492
 10
886.6866126242876
 20
-1193.630761302338
 10
906.3571316317548
 20
-1146.752232737928
 10
926.5912708213846
 20
-1100.108832840911
 10
946.7989131259565
 20
-1053.45804774807
 10
957.3051526013123
 20
-1029.203517725609
 10
978.078860186668
 20
-1012.598453789476
 10
1003.331639146207
 20
-1010.08788640523
 10
1003.331639146207
 20
-1010.08788640523
 10
1003.331639146207
 20
-986.8242201240027
 10
1003.331639146207
 20
-986.8242201240027
 97
        0
 97
        0
 92
        1
 93
        1
 72
     4
 94
        3
 73
     0
 74
     1
 95
       50
 96
       46
 40
0.0
 40
0.0
 40
0.0
 40
0.0
 40
1.0
 40
1.0
 40
1.0
 40
2.0
 40
2.0
 40
2.0
 40
3.0
 40
3.0
 40
3.0
 40
4.0
 40
4.0
 40
4.0
 40
5.0
 40
5.0
 40
5.0
 40
6.0
 40
6.0
 40
6.0
 40
7.0
 40
7.0
 40
7.0
 40
8.0
 40
8.0
 40
8.0
 40
9.0
 40
9.0
 40
9.0
 40
10.0
 40
10.0
 40
10.0
 40
11.0
 40
11.0
 40
11.0
 40
12.0
 40
12.0
 40
12.0
 40
13.0
 40
13.0
 40
13.0
 40
14.0
 40
14.0
 40
14.0
 40
15.0
 40
15.0
 40
15.0
 40
15.0
 10
911.2433867763139
 20
-1043.134791469525
 10
906.8232971688749
 20
-1062.944930598258
 10
898.9534728068002
 20
-1081.568398496163
 10
891.709693491689
 20
-1100.405637873551
 10
868.9398373319927
 20
-1159.618740882277
 10
845.6968795390849
 20
-1218.645617196044
 10
821.8138548071211
 20
-1277.418502653025
 10
821.1934484569783
 20
-1278.945242192076
 10
821.1822209633101
 20
-1281.011400426931
 10
818.7656152260743
 20
-1282.159898179274
 10
812.9171888240999
 20
-1267.784614485738
 10
807.1404686816895
 20
-1253.496156743236
 10
801.2959843774915
 20
-1239.235443385089
 10
775.2148658850692
 20
-1175.595813672542
 10
749.0894362176368
 20
-1111.974447349698
 10
723.0651537931653
 20
-1048.311564250262
 10
720.8048347677968
 20
-1042.782298068305
 10
718.8914203468039
 20
-1037.074589586973
 10
717.3028048426495
 20
-1031.315633834545
 10
714.889193103726
 20
-1022.565524068883
 10
716.6265105240236
 20
-1019.382305063949
 10
725.0795657572044
 20
-1015.725685025986
 10
736.4572583411327
 20
-1010.803901101455
 10
748.7275117217323
 20
-1009.93199889314
 10
760.767726232054
 20
-1008.239641347491
 10
765.2444024075812
 20
-1007.610402702328
 10
766.6910524917912
 20
-1006.20227539639
 10
766.6793259984042
 20
-1001.666268154331
 10
766.6428491189736
 20
-987.5676299047791
 10
766.8281277144924
 20
-987.6059031831974
 10
781.0826035761556
 20
-987.6297054697752
 10
803.1288602439026
 20
-987.6663320491189
 10
825.1772127104678
 20
-987.8045549711751
 10
847.2201260801003
 20
-987.5317019250415
 10
852.5948021492304
 20
-987.4652850624952
 10
854.5993339188426
 20
-988.6691717836038
 10
854.4038258290911
 20
-994.4787261074962
 10
853.9569216811087
 20
-1007.760801217517
 10
854.259814510302
 20
-1007.827717079788
 10
867.171731629056
 20
-1009.684395232764
 10
876.6324668939887
 20
-1011.044868065574
 10
886.1397588326681
 20
-1012.199004514738
 10
895.2716532830409
 20
-1015.145997052881
 10
911.2555623694461
 20
-1020.304107244134
 10
914.8754061281561
 20
-1026.857021448832
 10
911.2433867763139
 20
-1043.134791469525
 97
        0
 97
        0
 75
     2
 76
     1
 98
        0
  0
SPLINE
  5
48
330
41
100
AcDbEntity
  8
katman 1
370
     0
100
AcDbSpline
210
0.0
220
0.0
230
1.0
 70
    11
 71
     3
 72
   146
 73
   142
 74
     0
 42
0.0000000001
 43
0.0000000001
 12
1.0
 22
0.0
 32
0.0
 13
1.0
 23
0.0
 33
0.0
 40
0.0
 40
0.0
 40
0.0
 40
0.0
 40
1.0
 40
1.0
 40
1.0
 40
2.0
 40
2.0
 40
2.0
 40
3.0
 40
3.0
 40
3.0
 40
4.0
 40
4.0
 40
4.0
 40
5.0
 40
5.0
 40
5.0
 40
6.0
 40
6.0
 40
6.0
 40
7.0
 40
7.0
 40
7.0
 40
8.0
 40
8.0
 40
8.0
 40
9.0
 40
9.0
 40
9.0
 40
10.0
 40
10.0
 40
10.0
 40
11.0
 40
11.0
 40
11.0
 40
12.0
 40
12.0
 40
12.0
 40
13.0
 40
13.0
 40
13.0
 40
14.0
 40
14.0
 40
14.0
 40
15.0
 40
15.0
 40
15.0
 40
16.0
 40
16.0
 40
16.0
 40
17.0
 40
17.0
 40
17.0
 40
18.0
 40
18.0
 40
18.0
 40
19.0
 40
19.0
 40
19.0
 40
20.0
 40
20.0
 40
20.0
 40
21.0
 40
21.0
 40
21.0
 40
22.0
 40
22.0
 40
22.0
 40
23.0
 40
23.0
 40
23.0
 40
24.0
 40
24.0
 40
24.0
 40
25.0
 40
25.0
 40
25.0
 40
26.0
 40
26.0
 40
26.0
 40
27.0
 40
27.0
 40
27.0
 40
28.0
 40
28.0
 40
28.0
 40
29.0
 40
29.0
 40
29.0
 40
30.0
 40
30.0
 40
30.0
 40
31.0
 40
31.0
 40
31.0
 40
32.0
 40
32.0
 40
32.0
 40
33.0
 40
33.0
 40
33.0
 40
34.0
 40
34.0
 40
34.0
 40
35.0
 40
35.0
 40
35.0
 40
36.0
 40
36.0
 40
36.0
 40
37.0
 40
37.0
 40
37.0
 40
38.0
 40
38.0
 40
38.0
 40
39.0
 40
39.0
 40
39.0
 40
40.0
 40
40.0
 40
40.0
 40
41.0
 40
41.0
 40
41.0
 40
42.0
 40
42.0
 40
42.0
 40
43.0
 40
43.0
 40
43.0
 40
44.0
 40
44.0
 40
44.0
 40
45.0
 40
45.0
 40
45.0
 40
46.0
 40
46.0
 40
46.0
 40
47.0
 40
47.0
 40
47.0
 40
47.0
 10
1372.476161979437
 20
-1252.663226412942
 30
0.0
 10
1366.957624291445
 20
-1252.225903059561
 30
0.0
 10
1361.3648354453
 20
-1252.054147356412
 30
0.0
 10
1355.851237854506
 20
-1252.460333127365
 30
0.0
 10
1352.104448567388
 20
-1252.736379771684
 30
0.0
 10
1351.673312810515
 20
-1256.807518875905
 30
0.0
 10
1350.4229692156
 20
-1259.456209382264
 30
0.0
 10
1339.466931393898
 20
-1282.665085494385
 30
0.0
 10
1326.148878404168
 20
-1304.414986229252
 30
0.0
 10
1310.742761091937
 20
-1324.91878486683
 30
0.0
 10
1302.709963421763
 20
-1335.609454638176
 30
0.0
 10
1292.118844094275
 20
-1341.423699559426
 30
0.0
 10
1278.917357438815
 20
-1343.65981709844
 30
0.0
 10
1249.482411937668
 20
-1348.645423086977
 30
0.0
 10
1219.984143372243
 20
-1348.475563582759
 30
0.0
 10
1190.392811359281
 20
-1346.010904172634
 30
0.0
 10
1171.516799703786
 20
-1344.438855459128
 30
0.0
 10
1162.872677478343
 20
-1337.156453565789
 30
0.0
 10
1159.367753354836
 20
-1319.723499196532
 30
0.0
 10
1158.580231998931
 20
-1315.806052005644
 30
0.0
 10
1157.89590378484
 20
-1311.78471307335
 30
0.0
 10
1157.880285093637
 20
-1307.808284115717
 30
0.0
 10
1157.724996381214
 20
-1268.367346357121
 30
0.0
 10
1157.738070173837
 20
-1228.925909598805
 30
0.0
 10
1157.633679432707
 20
-1189.484772240328
 30
0.0
 10
1157.626693436636
 20
-1186.832688535877
 30
0.0
 10
1158.0585776931
 20
-1185.422714930994
 30
0.0
 10
1161.211906614884
 20
-1185.474311501895
 30
0.0
 10
1177.686931224347
 20
-1185.743571750059
 30
0.0
 10
1194.222085299891
 20
-1185.017826559309
 30
0.0
 10
1210.628148148237
 20
-1186.174507907048
 30
0.0
 10
1232.902048487616
 20
-1187.744959821433
 30
0.0
 10
1249.05062748116
 20
-1198.654890069141
 30
0.0
 10
1256.95822612194
 20
-1220.439121984655
 30
0.0
 10
1259.762305140663
 20
-1228.163937028501
 30
0.0
 10
1262.833349008855
 20
-1235.781267532962
 30
0.0
 10
1265.107340626513
 20
-1243.694604670498
 30
0.0
 10
1268.298593526913
 20
-1254.800741607551
 30
0.0
 10
1268.378932481599
 20
-1254.310125084226
 30
0.0
 10
1280.34284993495
 20
-1255.076189452235
 30
0.0
 10
1287.512278292001
 20
-1255.535069593465
 30
0.0
 10
1288.739568099911
 20
-1252.954143248888
 30
0.0
 10
1288.701095221601
 20
-1246.445590119167
 30
0.0
 10
1288.429489674767
 20
-1200.54270580457
 30
0.0
 10
1288.543461210495
 20
-1154.637625891219
 30
0.0
 10
1288.543561010436
 20
-1108.733244577459
 30
0.0
 10
1288.543561010436
 20
-1093.457366191784
 30
0.0
 10
1288.554189704446
 20
-1093.628323495381
 30
0.0
 10
1273.093980822705
 20
-1093.480719378613
 30
0.0
 10
1268.856125912505
 20
-1093.440400201354
 30
0.0
 10
1266.950944986867
 20
-1095.043686297231
 30
0.0
 10
1266.29785415516
 20
-1098.868519140349
 30
0.0
 10
1264.715625847402
 20
-1108.134145515312
 30
0.0
 10
1260.989994148356
 20
-1116.684206293783
 30
0.0
 10
1257.522395203796
 20
-1125.324985221103
 30
0.0
 10
1248.798582723291
 20
-1147.063109562612
 30
0.0
 10
1232.152850310104
 20
-1157.456475301618
 30
0.0
 10
1209.372714756195
 20
-1159.494489952343
 30
0.0
 10
1194.241147089146
 20
-1160.848276188935
 30
0.0
 10
1179.096555529435
 20
-1159.818141169832
 30
0.0
 10
1163.976365055958
 20
-1160.391392046575
 30
0.0
 10
1158.98467127086
 20
-1160.580712539804
 30
0.0
 10
1157.532282689892
 20
-1159.280419073073
 30
0.0
 10
1157.553789577749
 20
-1154.19012294357
 30
0.0
 10
1157.747102068741
 20
-1108.286540029369
 30
0.0
 10
1157.73737157424
 20
-1062.381659715897
 30
0.0
 10
1157.569158769085
 20
-1016.477777401868
 30
0.0
 10
1157.552791578324
 20
-1012.009284821726
 30
0.0
 10
1158.815161066454
 20
-1010.730647942764
 30
0.0
 10
1163.188145100452
 20
-1010.781845313903
 30
0.0
 10
1191.467107853474
 20
-1011.113131227074
 30
0.0
 10
1219.762138397426
 20
-1010.287885492453
 30
0.0
 10
1248.021839761306
 20
-1011.926600568357
 30
0.0
 10
1258.362561030004
 20
-1012.526148730254
 30
0.0
 10
1268.222695669712
 20
-1015.099989278819
 30
0.0
 10
1276.877496489131
 20
-1020.954154177558
 30
0.0
 10
1296.548963596058
 20
-1034.260031574157
 30
0.0
 10
1310.76187278116
 20
-1052.413242137256
 30
0.0
 10
1320.596059435498
 20
-1073.696977335005
 30
0.0
 10
1324.572887592902
 20
-1082.304123681282
 30
0.0
 10
1328.728856649272
 20
-1086.379853582919
 30
0.0
 10
1338.73335190758
 20
-1085.411095529216
 30
0.0
 10
1344.728584026769
 20
-1084.830459456636
 30
0.0
 10
1346.80537095563
 20
-1084.028367308956
 30
0.0
 10
1346.741898191427
 20
-1077.713525870011
 30
0.0
 10
1346.464454347872
 20
-1050.085907449677
 30
0.0
 10
1346.485711735888
 20
-1022.451652333099
 30
0.0
 10
1346.805919855313
 20
-994.8244830125186
 30
0.0
 10
1346.878923514145
 20
-988.5332941602264
 30
0.0
 10
1345.243451936421
 20
-986.3911881681943
 30
0.0
 10
1338.645378257181
 20
-986.4137928554483
 30
0.0
 10
1272.495730060073
 20
-986.6401391278087
 30
0.0
 10
1206.344884263654
 20
-986.5514169778417
 30
0.0
 10
1140.194437666989
 20
-986.5514169778417
 30
0.0
 10
1140.194437666989
 20
-986.6374445293295
 30
0.0
 10
1140.194437666989
 20
-986.7235219807881
 30
0.0
 10
1140.19438776702
 20
-986.8096493322191
 30
0.0
 10
1094.845991939736
 20
-986.8096493322191
 30
0.0
 10
1049.497546212482
 20
-986.794330040857
 30
0.0
 10
1004.149200285174
 20
-986.82382092423
 30
0.0
 10
1004.149200285174
 20
-986.82382092423
 30
0.0
 10
1004.149200285174
 20
-1010.00899454972
 30
0.0
 10
1004.149200285174
 20
-1010.00899454972
 30
0.0
 10
1017.453480882667
 20
-1008.851315202557
 30
0.0
 10
1031.974073294259
 20
-1011.594166955816
 30
0.0
 10
1046.876200890707
 20
-1019.176367880091
 30
0.0
 10
1055.250214568452
 20
-1023.4370769774
 30
0.0
 10
1060.273295435858
 20
-1029.978464288604
 30
0.0
 10
1060.506577804306
 20
-1039.686553714046
 30
0.0
 10
1060.597545453002
 20
-1043.47156637962
 30
0.0
 10
1060.816955629278
 20
-1047.255780645632
 30
0.0
 10
1060.817754028831
 20
-1051.040344211449
 30
0.0
 10
1060.829430622234
 20
-1105.412301650202
 30
0.0
 10
1060.820298927389
 20
-1159.784209188969
 30
0.0
 10
1060.80223513758
 20
-1214.15621652769
 30
0.0
 10
1060.790808044021
 20
-1248.695779450252
 30
0.0
 10
1060.845199013351
 20
-1283.235741572587
 30
0.0
 10
1060.694950198071
 20
-1317.774605895542
 30
0.0
 10
1060.619152140829
 20
-1335.195983471338
 30
0.0
 10
1054.456954715788
 20
-1342.963313291213
 30
0.0
 10
1037.583578630962
 20
-1346.923874057784
 30
0.0
 10
1031.112250880258
 20
-1348.442829201225
 30
0.0
 10
1024.458039732675
 20
-1349.320968906031
 30
0.0
 10
1017.838059965798
 20
-1350.037632301892
 30
0.0
 10
1005.00199080427
 20
-1351.427346518198
 30
0.0
 10
1004.987569712401
 20
-1351.294412993158
 30
0.0
 10
1004.435027323987
 20
-1364.185571723632
 30
0.0
 10
1004.06736433132
 20
-1372.763476686401
 30
0.0
 10
1004.079490024482
 20
-1372.777947678245
 30
0.0
 10
1012.586537027222
 20
-1372.776251079198
 30
0.0
 10
1127.960561365879
 20
-1372.752897892364
 30
0.0
 10
1243.334785304414
 20
-1372.660682744365
 30
0.0
 10
1358.708360543333
 20
-1372.881939219602
 30
0.0
 10
1365.345505900535
 20
-1372.894713612393
 30
0.0
 10
1366.906776220108
 20
-1370.660891472084
 30
0.0
 10
1367.234120035519
 20
-1364.721996421125
 30
0.0
 10
1369.219190816093
 20
-1328.702400333183
 30
0.0
 10
1371.484150538861
 20
-1292.698373036463
 30
0.0
 10
1373.633092827029
 20
-1256.687559343556
 30
0.0
 10
1373.721266077311
 20
-1255.209222777215
 30
0.0
 10
1374.333788231892
 20
-1252.810331529985
 30
0.0
 10
1372.476161979437
 20
-1252.663226412942
 30
0.0
  0
HATCH
  5
49
330
41
100
AcDbEntity
  8
katman 1
 62
     7
420
 16777215
100
AcDbHatch
 10
0.0
 20
0.0
 30
0.0
210
0.0
220
0.0
230
1.0
  2
SOLID
 70
     1
 71
     0
 91
        1
 92
        1
 93
        1
 72
     4
 94
        3
 73
     0
 74
     1
 95
      146
 96
      142
 40
0.0
 40
0.0
 40
0.0
 40
0.0
 40
1.0
 40
1.0
 40
1.0
 40
2.0
 40
2.0
 40
2.0
 40
3.0
 40
3.0
 40
3.0
 40
4.0
 40
4.0
 40
4.0
 40
5.0
 40
5.0
 40
5.0
 40
6.0
 40
6.0
 40
6.0
 40
7.0
 40
7.0
 40
7.0
 40
8.0
 40
8.0
 40
8.0
 40
9.0
 40
9.0
 40
9.0
 40
10.0
 40
10.0
 40
10.0
 40
11.0
 40
11.0
 40
11.0
 40
12.0
 40
12.0
 40
12.0
 40
13.0
 40
13.0
 40
13.0
 40
14.0
 40
14.0
 40
14.0
 40
15.0
 40
15.0
 40
15.0
 40
16.0
 40
16.0
 40
16.0
 40
17.0
 40
17.0
 40
17.0
 40
18.0
 40
18.0
 40
18.0
 40
19.0
 40
19.0
 40
19.0
 40
20.0
 40
20.0
 40
20.0
 40
21.0
 40
21.0
 40
21.0
 40
22.0
 40
22.0
 40
22.0
 40
23.0
 40
23.0
 40
23.0
 40
24.0
 40
24.0
 40
24.0
 40
25.0
 40
25.0
 40
25.0
 40
26.0
 40
26.0
 40
26.0
 40
27.0
 40
27.0
 40
27.0
 40
28.0
 40
28.0
 40
28.0
 40
29.0
 40
29.0
 40
29.0
 40
30.0
 40
30.0
 40
30.0
 40
31.0
 40
31.0
 40
31.0
 40
32.0
 40
32.0
 40
32.0
 40
33.0
 40
33.0
 40
33.0
 40
34.0
 40
34.0
 40
34.0
 40
35.0
 40
35.0
 40
35.0
 40
36.0
 40
36.0
 40
36.0
 40
37.0
 40
37.0
 40
37.0
 40
38.0
 40
38.0
 40
38.0
 40
39.0
 40
39.0
 40
39.0
 40
40.0
 40
40.0
 40
40.0
 40
41.0
 40
41.0
 40
41.0
 40
42.0
 40
42.0
 40
42.0
 40
43.0
 40
43.0
 40
43.0
 40
44.0
 40
44.0
 40
44.0
 40
45.0
 40
45.0
 40
45.0
 40
46.0
 40
46.0
 40
46.0
 40
47.0
 40
47.0
 40
47.0
 40
47.0
 10
1372.476161979437
 20
-1252.663226412942
 10
1366.957624291445
 20
-1252.225903059561
 10
1361.3648354453
 20
-1252.054147356412
 10
1355.851237854506
 20
-1252.460333127365
 10
1352.104448567388
 20
-1252.736379771684
 10
1351.673312810515
 20
-1256.807518875905
 10
1350.4229692156
 20
-1259.456209382264
 10
1339.466931393898
 20
-1282.665085494385
 10
1326.148878404168
 20
-1304.414986229252
 10
1310.742761091937
 20
-1324.91878486683
 10
1302.709963421763
 20
-1335.609454638176
 10
1292.118844094275
 20
-1341.423699559426
 10
1278.917357438815
 20
-1343.65981709844
 10
1249.482411937668
 20
-1348.645423086977
 10
1219.984143372243
 20
-1348.475563582759
 10
1190.392811359281
 20
-1346.010904172634
 10
1171.516799703786
 20
-1344.438855459128
 10
1162.872677478343
 20
-1337.156453565789
 10
1159.367753354836
 20
-1319.723499196532
 10
1158.580231998931
 20
-1315.806052005644
 10
1157.89590378484
 20
-1311.78471307335
 10
1157.880285093637
 20
-1307.808284115717
 10
1157.724996381214
 20
-1268.367346357121
 10
1157.738070173837
 20
-1228.925909598805
 10
1157.633679432707
 20
-1189.484772240328
 10
1157.626693436636
 20
-1186.832688535877
 10
1158.0585776931
 20
-1185.422714930994
 10
1161.211906614884
 20
-1185.474311501895
 10
1177.686931224347
 20
-1185.743571750059
 10
1194.222085299891
 20
-1185.017826559309
 10
1210.628148148237
 20
-1186.174507907048
 10
1232.902048487616
 20
-1187.744959821433
 10
1249.05062748116
 20
-1198.654890069141
 10
1256.95822612194
 20
-1220.439121984655
 10
1259.762305140663
 20
-1228.163937028501
 10
1262.833349008855
 20
-1235.781267532962
 10
1265.107340626513
 20
-1243.694604670498
 10
1268.298593526913
 20
-1254.800741607551
 10
1268.378932481599
 20
-1254.310125084226
 10
1280.34284993495
 20
-1255.076189452235
 10
1287.512278292001
 20
-1255.535069593465
 10
1288.739568099911
 20
-1252.954143248888
 10
1288.701095221601
 20
-1246.445590119167
 10
1288.429489674767
 20
-1200.54270580457
 10
1288.543461210495
 20
-1154.637625891219
 10
1288.543561010436
 20
-1108.733244577459
 10
1288.543561010436
 20
-1093.457366191784
 10
1288.554189704446
 20
-1093.628323495381
 10
1273.093980822705
 20
-1093.480719378613
 10
1268.856125912505
 20
-1093.440400201354
 10
1266.950944986867
 20
-1095.043686297231
 10
1266.29785415516
 20
-1098.868519140349
 10
1264.715625847402
 20
-1108.134145515312
 10
1260.989994148356
 20
-1116.684206293783
 10
1257.522395203796
 20
-1125.324985221103
 10
1248.798582723291
 20
-1147.063109562612
 10
1232.152850310104
 20
-1157.456475301618
 10
1209.372714756195
 20
-1159.494489952343
 10
1194.241147089146
 20
-1160.848276188935
 10
1179.096555529435
 20
-1159.818141169832
 10
1163.976365055958
 20
-1160.391392046575
 10
1158.98467127086
 20
-1160.580712539804
 10
1157.532282689892
 20
-1159.280419073073
 10
1157.553789577749
 20
-1154.19012294357
 10
1157.747102068741
 20
-1108.286540029369
 10
1157.73737157424
 20
-1062.381659715897
 10
1157.569158769085
 20
-1016.477777401868
 10
1157.552791578324
 20
-1012.009284821726
 10
1158.815161066454
 20
-1010.730647942764
 10
1163.188145100452
 20
-1010.781845313903
 10
1191.467107853474
 20
-1011.113131227074
 10
1219.762138397426
 20
-1010.287885492453
 10
1248.021839761306
 20
-1011.926600568357
 10
1258.362561030004
 20
-1012.526148730254
 10
1268.222695669712
 20
-1015.099989278819
 10
1276.877496489131
 20
-1020.954154177558
 10
1296.548963596058
 20
-1034.260031574157
 10
1310.76187278116
 20
-1052.413242137256
 10
1320.596059435498
 20
-1073.696977335005
 10
1324.572887592902
 20
-1082.304123681282
 10
1328.728856649272
 20
-1086.379853582919
 10
1338.73335190758
 20
-1085.411095529216
 10
1344.728584026769
 20
-1084.830459456636
 10
1346.80537095563
 20
-1084.028367308956
 10
1346.741898191427
 20
-1077.713525870011
 10
1346.464454347872
 20
-1050.085907449677
 10
1346.485711735888
 20
-1022.451652333099
 10
1346.805919855313
 20
-994.8244830125186
 10
1346.878923514145
 20
-988.5332941602264
 10
1345.243451936421
 20
-986.3911881681943
 10
1338.645378257181
 20
-986.4137928554483
 10
1272.495730060073
 20
-986.6401391278087
 10
1206.344884263654
 20
-986.5514169778417
 10
1140.194437666989
 20
-986.5514169778417
 10
1140.194437666989
 20
-986.6374445293295
 10
1140.194437666989
 20
-986.7235219807881
 10
1140.19438776702
 20
-986.8096493322191
 10
1094.845991939736
 20
-986.8096493322191
 10
1049.497546212482
 20
-986.794330040857
 10
1004.149200285174
 20
-986.82382092423
 10
1004.149200285174
 20
-986.82382092423
 10
1004.149200285174
 20
-1010.00899454972
 10
1004.149200285174
 20
-1010.00899454972
 10
1017.453480882667
 20
-1008.851315202557
 10
1031.974073294259
 20
-1011.594166955816
 10
1046.876200890707
 20
-1019.176367880091
 10
1055.250214568452
 20
-1023.4370769774
 10
1060.273295435858
 20
-1029.978464288604
 10
1060.506577804306
 20
-1039.686553714046
 10
1060.597545453002
 20
-1043.47156637962
 10
1060.816955629278
 20
-1047.255780645632
 10
1060.817754028831
 20
-1051.040344211449
 10
1060.829430622234
 20
-1105.412301650202
 10
1060.820298927389
 20
-1159.784209188969
 10
1060.80223513758
 20
-1214.15621652769
 10
1060.790808044021
 20
-1248.695779450252
 10
1060.845199013351
 20
-1283.235741572587
 10
1060.694950198071
 20
-1317.774605895542
 10
1060.619152140829
 20
-1335.195983471338
 10
1054.456954715788
 20
-1342.963313291213
 10
1037.583578630962
 20
-1346.923874057784
 10
1031.112250880258
 20
-1348.442829201225
 10
1024.458039732675
 20
-1349.320968906031
 10
1017.838059965798
 20
-1350.037632301892
 10
1005.00199080427
 20
-1351.427346518198
 10
1004.987569712401
 20
-1351.294412993158
 10
1004.435027323987
 20
-1364.185571723632
 10
1004.06736433132
 20
-1372.763476686401
 10
1004.079490024482
 20
-1372.777947678245
 10
1012.586537027222
 20
-1372.776251079198
 10
1127.960561365879
 20
-1372.752897892364
 10
1243.334785304414
 20
-1372.660682744365
 10
1358.708360543333
 20
-1372.881939219602
 10
1365.345505900535
 20
-1372.894713612393
 10
1366.906776220108
 20
-1370.660891472084
 10
1367.234120035519
 20
-1364.721996421125
 10
1369.219190816093
 20
-1328.702400333183
 10
1371.484150538861
 20
-1292.698373036463
 10
1373.633092827029
 20
-1256.687559343556
 10
1373.721266077311
 20
-1255.209222777215
 10
1374.333788231892
 20
-1252.810331529985
 10
1372.476161979437
 20
-1252.663226412942
 97
        0
 97
        0
 75
     2
 76
     1
 98
        0
  0
ENDBLK
  5
44
330
41
100
AcDbEntity
  8
0
100
AcDbBlockEnd
  0
BLOCK
  5
4C
330
4A
100
AcDbEntity
  8
0
100
AcDbBlockBegin
  2
block 3
 70
     0
 10
0.0
 20
0.0
 30
0.0
  3
block 3
  1

  0
SPLINE
  5
4E
330
4A
100
AcDbEntity
  8
katman 1
370
     0
100
AcDbSpline
210
0.0
220
0.0
230
1.0
 70
    11
 71
     3
 72
   119
 73
   115
 74
     0
 42
0.0000000001
 43
0.0000000001
 12
1.0
 22
0.0
 32
0.0
 13
1.0
 23
0.0
 33
0.0
 40
0.0
 40
0.0
 40
0.0
 40
0.0
 40
1.0
 40
1.0
 40
1.0
 40
2.0
 40
2.0
 40
2.0
 40
3.0
 40
3.0
 40
3.0
 40
4.0
 40
4.0
 40
4.0
 40
5.0
 40
5.0
 40
5.0
 40
6.0
 40
6.0
 40
6.0
 40
7.0
 40
7.0
 40
7.0
 40
8.0
 40
8.0
 40
8.0
 40
9.0
 40
9.0
 40
9.0
 40
10.0
 40
10.0
 40
10.0
 40
11.0
 40
11.0
 40
11.0
 40
12.0
 40
12.0
 40
12.0
 40
13.0
 40
13.0
 40
13.0
 40
14.0
 40
14.0
 40
14.0
 40
15.0
 40
15.0
 40
15.0
 40
16.0
 40
16.0
 40
16.0
 40
17.0
 40
17.0
 40
17.0
 40
18.0
 40
18.0
 40
18.0
 40
19.0
 40
19.0
 40
19.0
 40
20.0
 40
20.0
 40
20.0
 40
21.0
 40
21.0
 40
21.0
 40
22.0
 40
22.0
 40
22.0
 40
23.0
 40
23.0
 40
23.0
 40
24.0
 40
24.0
 40
24.0
 40
25.0
 40
25.0
 40
25.0
 40
26.0
 40
26.0
 40
26.0
 40
27.0
 40
27.0
 40
27.0
 40
28.0
 40
28.0
 40
28.0
 40
29.0
 40
29.0
 40
29.0
 40
30.0
 40
30.0
 40
30.0
 40
31.0
 40
31.0
 40
31.0
 40
32.0
 40
32.0
 40
32.0
 40
33.0
 40
33.0
 40
33.0
 40
34.0
 40
34.0
 40
34.0
 40
35.0
 40
35.0
 40
35.0
 40
36.0
 40
36.0
 40
36.0
 40
37.0
 40
37.0
 40
37.0
 40
38.0
 40
38.0
 40
38.0
 40
38.0
 10
1177.33743401074
 20
-875.4536772568463
 30
0.0
 10
1177.33743401074
 20
-875.4536772568463
 30
0.0
 10
1183.716452328703
 20
-844.9607413995273
 30
0.0
 10
1188.966069201579
 20
-835.5376226652124
 30
0.0
 10
1197.998571282566
 20
-819.3299668213722
 30
0.0
 10
1204.908647617078
 20
-796.7234231419525
 30
0.0
 10
1204.908647617078
 20
-796.7234231419525
 30
0.0
 10
1204.908647617078
 20
-796.7234231419525
 30
0.0
 10
1199.282413069195
 20
-807.2782012210764
 30
0.0
 10
1191.734254270894
 20
-809.7993720599025
 30
0.0
 10
1191.734254270894
 20
-809.7993720599025
 30
0.0
 10
1207.084359797173
 20
-787.6967916002695
 30
0.0
 10
1209.100664256308
 20
-770.0422736092787
 30
0.0
 10
1209.100664256308
 20
-770.0422736092787
 30
0.0
 10
1205.012059424724
 20
-774.0392077118022
 30
0.0
 10
1200.420394533252
 20
-774.1701658961601
 30
0.0
 10
1200.420394533252
 20
-774.1701658961601
 30
0.0
 10
1212.367393586068
 20
-755.9082728777248
 30
0.0
 10
1212.912450580952
 20
-739.2576171068094
 30
0.0
 10
1209.170207568
 20
-743.8854083939732
 30
0.0
 10
1209.572565299932
 20
-744.6987038768202
 30
0.0
 10
1203.51416874367
 20
-748.7710518303356
 30
0.0
 10
1203.51416874367
 20
-748.7710518303356
 30
0.0
 10
1215.624188157009
 20
-730.6274727577666
 30
0.0
 10
1215.599351259978
 20
-708.2507832708807
 30
0.0
 10
1215.599351259978
 20
-708.2507832708807
 30
0.0
 10
1213.269198738333
 20
-714.4627170088015
 30
0.0
 10
1208.272015055292
 20
-716.4415403324156
 30
0.0
 10
1208.272015055292
 20
-716.4415403324156
 30
0.0
 10
1215.599351259978
 20
-700.608244263859
 30
0.0
 10
1213.699554426919
 20
-677.2349178360319
 30
0.0
 10
1213.699554426919
 20
-677.2349178360319
 30
0.0
 10
1211.420430439193
 20
-681.4057102177894
 30
0.0
 10
1208.034935583622
 20
-683.7846333736043
 30
0.0
 10
1208.034935583622
 20
-683.7846333736043
 30
0.0
 10
1212.715110144527
 20
-666.1897239354885
 30
0.0
 10
1209.514311486899
 20
-643.9223167955506
 30
0.0
 10
1209.514311486899
 20
-643.9223167955506
 30
0.0
 10
1208.115316814008
 20
-651.6750413094105
 30
0.0
 10
1204.466099269954
 20
-654.7539133816063
 30
0.0
 10
1204.466099269954
 20
-654.7539133816063
 30
0.0
 10
1207.850239385687
 20
-633.58610341031
 30
0.0
 10
1203.530425621724
 20
-617.528372108568
 30
0.0
 10
1203.530425621724
 20
-617.528372108568
 30
0.0
 10
1202.479599087252
 20
-622.6836087727243
 30
0.0
 10
1198.279454009011
 20
-627.0440647318273
 30
0.0
 10
1198.279454009011
 20
-627.0440647318273
 30
0.0
 10
1200.084419053383
 20
-607.8401759459202
 30
0.0
 10
1196.46681210554
 20
-589.0061311358313
 30
0.0
 10
1196.46681210554
 20
-589.0061311358313
 30
0.0
 10
1194.173689139479
 20
-603.9543305101206
 30
0.0
 10
1189.949158744144
 20
-603.9543305101206
 30
0.0
 10
1189.949158744144
 20
-603.9543305101206
 30
0.0
 10
1196.045939595817
 20
-592.4580082434704
 30
0.0
 10
1188.640480060483
 20
-579.7713212390199
 30
0.0
 10
1181.838331333063
 20
-568.1151396714622
 30
0.0
 10
1177.777724458145
 20
-545.385314666768
 30
0.0
 10
1177.33743401074
 20
-540.0751860811142
 30
0.0
 10
1176.895788823502
 20
-545.385314666768
 30
0.0
 10
1172.833827208746
 20
-568.1151396714622
 30
0.0
 10
1166.031678481326
 20
-579.7713212390199
 30
0.0
 10
1158.628928425653
 20
-592.4580082434704
 30
0.0
 10
1164.72570927734
 20
-603.9543305101206
 30
0.0
 10
1164.72570927734
 20
-603.9543305101206
 30
0.0
 10
1160.499824142149
 20
-603.9543305101206
 30
0.0
 10
1158.205798016203
 20
-589.0061311358313
 30
0.0
 10
1158.205798016203
 20
-589.0061311358313
 30
0.0
 10
1154.587739488405
 20
-607.8401759459202
 30
0.0
 10
1156.394059272632
 20
-627.0440647318273
 30
0.0
 10
1156.394059272632
 20
-627.0440647318273
 30
0.0
 10
1152.192559454536
 20
-622.6836087727243
 30
0.0
 10
1151.142184500019
 20
-617.528372108568
 30
0.0
 10
1151.142184500019
 20
-617.528372108568
 30
0.0
 10
1146.823273895956
 20
-633.58610341031
 30
0.0
 10
1150.207865591627
 20
-654.7539133816063
 30
0.0
 10
1150.207865591627
 20
-654.7539133816063
 30
0.0
 10
1146.558648047569
 20
-651.6750413094105
 30
0.0
 10
1145.157847054907
 20
-643.9223167955506
 30
0.0
 10
1145.157847054907
 20
-643.9223167955506
 30
0.0
 10
1141.957499977227
 20
-666.1897239354885
 30
0.0
 10
1146.638577698021
 20
-683.7846333736043
 30
0.0
 10
1146.638577698021
 20
-683.7846333736043
 30
0.0
 10
1143.253082842453
 20
-681.4057102177894
 30
0.0
 10
1140.973055694823
 20
-677.2349178360319
 30
0.0
 10
1140.973055694823
 20
-677.2349178360319
 30
0.0
 10
1139.073710441713
 20
-700.608244263859
 30
0.0
 10
1146.40059506645
 20
-716.4415403324156
 30
0.0
 10
1146.40059506645
 20
-716.4415403324156
 30
0.0
 10
1141.402959803465
 20
-714.4627170088015
 30
0.0
 10
1139.073710441713
 20
-708.2507832708807
 30
0.0
 10
1139.073710441713
 20
-708.2507832708807
 30
0.0
 10
1139.049776704567
 20
-730.6274727577666
 30
0.0
 10
1151.158441378077
 20
-748.7710518303356
 30
0.0
 10
1151.158441378077
 20
-748.7710518303356
 30
0.0
 10
1145.1009479817
 20
-744.6987038768202
 30
0.0
 10
1145.501950973801
 20
-743.8854083939732
 30
0.0
 10
1141.761062700691
 20
-739.2576171068094
 30
0.0
 10
1142.304764955741
 20
-755.9082728777248
 30
0.0
 10
1154.251764008553
 20
-774.1701658961601
 30
0.0
 10
1154.251764008553
 20
-774.1701658961601
 30
0.0
 10
1149.662808596742
 20
-774.0392077118022
 30
0.0
 10
1145.572849025328
 20
-770.0422736092787
 30
0.0
 10
1145.572849025328
 20
-770.0422736092787
 30
0.0
 10
1147.58825032457
 20
-787.6967916002695
 30
0.0
 10
1162.937904270904
 20
-809.7993720599025
 30
0.0
 10
1162.937904270904
 20
-809.7993720599025
 30
0.0
 10
1155.390648632496
 20
-807.2782012210764
 30
0.0
 10
1149.764865664551
 20
-796.7234231419525
 30
0.0
 10
1149.764865664551
 20
-796.7234231419525
 30
0.0
 10
1149.764865664551
 20
-796.7234231419525
 30
0.0
 10
1156.674038839185
 20
-819.3299668213722
 30
0.0
 10
1165.70744408005
 20
-835.5376226652124
 30
0.0
 10
1170.957060952944
 20
-844.9607413995273
 30
0.0
 10
1177.33743401074
 20
-875.4536772568463
 30
0.0
 10
1177.33743401074
 20
-875.4536772568463
 30
0.0
  0
HATCH
  5
4F
330
4A
100
AcDbEntity
  8
katman 1
 62
    96
420
    35584
100
AcDbHatch
 10
0.0
 20
0.0
 30
0.0
210
0.0
220
0.0
230
1.0
  2
SOLID
 70
     1
 71
     0
 91
        1
 92
        1
 93
        1
 72
     4
 94
        3
 73
     0
 74
     1
 95
      119
 96
      115
 40
0.0
 40
0.0
 40
0.0
 40
0.0
 40
1.0
 40
1.0
 40
1.0
 40
2.0
 40
2.0
 40
2.0
 40
3.0
 40
3.0
 40
3.0
 40
4.0
 40
4.0
 40
4.0
 40
5.0
 40
5.0
 40
5.0
 40
6.0
 40
6.0
 40
6.0
 40
7.0
 40
7.0
 40
7.0
 40
8.0
 40
8.0
 40
8.0
 40
9.0
 40
9.0
 40
9.0
 40
10.0
 40
10.0
 40
10.0
 40
11.0
 40
11.0
 40
11.0
 40
12.0
 40
12.0
 40
12.0
 40
13.0
 40
13.0
 40
13.0
 40
14.0
 40
14.0
 40
14.0
 40
15.0
 40
15.0
 40
15.0
 40
16.0
 40
16.0
 40
16.0
 40
17.0
 40
17.0
 40
17.0
 40
18.0
 40
18.0
 40
18.0
 40
19.0
 40
19.0
 40
19.0
 40
20.0
 40
20.0
 40
20.0
 40
21.0
 40
21.0
 40
21.0
 40
22.0
 40
22.0
 40
22.0
 40
23.0
 40
23.0
 40
23.0
 40
24.0
 40
24.0
 40
24.0
 40
25.0
 40
25.0
 40
25.0
 40
26.0
 40
26.0
 40
26.0
 40
27.0
 40
27.0
 40
27.0
 40
28.0
 40
28.0
 40
28.0
 40
29.0
 40
29.0
 40
29.0
 40
30.0
 40
30.0
 40
30.0
 40
31.0
 40
31.0
 40
31.0
 40
32.0
 40
32.0
 40
32.0
 40
33.0
 40
33.0
 40
33.0
 40
34.0
 40
34.0
 40
34.0
 40
35.0
 40
35.0
 40
35.0
 40
36.0
 40
36.0
 40
36.0
 40
37.0
 40
37.0
 40
37.0
 40
38.0
 40
38.0
 40
38.0
 40
38.0
 10
1177.33743401074
 20
-875.4536772568463
 10
1177.33743401074
 20
-875.4536772568463
 10
1183.716452328703
 20
-844.9607413995273
 10
1188.966069201579
 20
-835.5376226652124
 10
1197.998571282566
 20
-819.3299668213722
 10
1204.908647617078
 20
-796.7234231419525
 10
1204.908647617078
 20
-796.7234231419525
 10
1204.908647617078
 20
-796.7234231419525
 10
1199.282413069195
 20
-807.2782012210764
 10
1191.734254270894
 20
-809.7993720599025
 10
1191.734254270894
 20
-809.7993720599025
 10
1207.084359797173
 20
-787.6967916002695
 10
1209.100664256308
 20
-770.0422736092787
 10
1209.100664256308
 20
-770.0422736092787
 10
1205.012059424724
 20
-774.0392077118022
 10
1200.420394533252
 20
-774.1701658961601
 10
1200.420394533252
 20
-774.1701658961601
 10
1212.367393586068
 20
-755.9082728777248
 10
1212.912450580952
 20
-739.2576171068094
 10
1209.170207568
 20
-743.8854083939732
 10
1209.572565299932
 20
-744.6987038768202
 10
1203.51416874367
 20
-748.7710518303356
 10
1203.51416874367
 20
-748.7710518303356
 10
1215.624188157009
 20
-730.6274727577666
 10
1215.599351259978
 20
-708.2507832708807
 10
1215.599351259978
 20
-708.2507832708807
 10
1213.269198738333
 20
-714.4627170088015
 10
1208.272015055292
 20
-716.4415403324156
 10
1208.272015055292
 20
-716.4415403324156
 10
1215.599351259978
 20
-700.608244263859
 10
1213.699554426919
 20
-677.2349178360319
 10
1213.699554426919
 20
-677.2349178360319
 10
1211.420430439193
 20
-681.4057102177894
 10
1208.034935583622
 20
-683.7846333736043
 10
1208.034935583622
 20
-683.7846333736043
 10
1212.715110144527
 20
-666.1897239354885
 10
1209.514311486899
 20
-643.9223167955506
 10
1209.514311486899
 20
-643.9223167955506
 10
1208.115316814008
 20
-651.6750413094105
 10
1204.466099269954
 20
-654.7539133816063
 10
1204.466099269954
 20
-654.7539133816063
 10
1207.850239385687
 20
-633.58610341031
 10
1203.530425621724
 20
-617.528372108568
 10
1203.530425621724
 20
-617.528372108568
 10
1202.479599087252
 20
-622.6836087727243
 10
1198.279454009011
 20
-627.0440647318273
 10
1198.279454009011
 20
-627.0440647318273
 10
1200.084419053383
 20
-607.8401759459202
 10
1196.46681210554
 20
-589.0061311358313
 10
1196.46681210554
 20
-589.0061311358313
 10
1194.173689139479
 20
-603.9543305101206
 10
1189.949158744144
 20
-603.9543305101206
 10
1189.949158744144
 20
-603.9543305101206
 10
1196.045939595817
 20
-592.4580082434704
 10
1188.640480060483
 20
-579.7713212390199
 10
1181.838331333063
 20
-568.1151396714622
 10
1177.777724458145
 20
-545.385314666768
 10
1177.33743401074
 20
-540.0751860811142
 10
1176.895788823502
 20
-545.385314666768
 10
1172.833827208746
 20
-568.1151396714622
 10
1166.031678481326
 20
-579.7713212390199
 10
1158.628928425653
 20
-592.4580082434704
 10
1164.72570927734
 20
-603.9543305101206
 10
1164.72570927734
 20
-603.9543305101206
 10
1160.499824142149
 20
-603.9543305101206
 10
1158.205798016203
 20
-589.0061311358313
 10
1158.205798016203
 20
-589.0061311358313
 10
1154.587739488405
 20
-607.8401759459202
 10
1156.394059272632
 20
-627.0440647318273
 10
1156.394059272632
 20
-627.0440647318273
 10
1152.192559454536
 20
-622.6836087727243
 10
1151.142184500019
 20
-617.528372108568
 10
1151.142184500019
 20
-617.528372108568
 10
1146.823273895956
 20
-633.58610341031
 10
1150.207865591627
 20
-654.7539133816063
 10
1150.207865591627
 20
-654.7539133816063
 10
1146.558648047569
 20
-651.6750413094105
 10
1145.157847054907
 20
-643.9223167955506
 10
1145.157847054907
 20
-643.9223167955506
 10
1141.957499977227
 20
-666.1897239354885
 10
1146.638577698021
 20
-683.7846333736043
 10
1146.638577698021
 20
-683.7846333736043
 10
1143.253082842453
 20
-681.4057102177894
 10
1140.973055694823
 20
-677.2349178360319
 10
1140.973055694823
 20
-677.2349178360319
 10
1139.073710441713
 20
-700.608244263859
 10
1146.40059506645
 20
-716.4415403324156
 10
1146.40059506645
 20
-716.4415403324156
 10
1141.402959803465
 20
-714.4627170088015
 10
1139.073710441713
 20
-708.2507832708807
 10
1139.073710441713
 20
-708.2507832708807
 10
1139.049776704567
 20
-730.6274727577666
 10
1151.158441378077
 20
-748.7710518303356
 10
1151.158441378077
 20
-748.7710518303356
 10
1145.1009479817
 20
-744.6987038768202
 10
1145.501950973801
 20
-743.8854083939732
 10
1141.761062700691
 20
-739.2576171068094
 10
1142.304764955741
 20
-755.9082728777248
 10
1154.251764008553
 20
-774.1701658961601
 10
1154.251764008553
 20
-774.1701658961601
 10
1149.662808596742
 20
-774.0392077118022
 10
1145.572849025328
 20
-770.0422736092787
 10
1145.572849025328
 20
-770.0422736092787
 10
1147.58825032457
 20
-787.6967916002695
 10
1162.937904270904
 20
-809.7993720599025
 10
1162.937904270904
 20
-809.7993720599025
 10
1155.390648632496
 20
-807.2782012210764
 10
1149.764865664551
 20
-796.7234231419525
 10
1149.764865664551
 20
-796.7234231419525
 10
1149.764865664551
 20
-796.7234231419525
 10
1156.674038839185
 20
-819.3299668213722
 10
1165.70744408005
 20
-835.5376226652124
 10
1170.957060952944
 20
-844.9607413995273
 10
1177.33743401074
 20
-875.4536772568463
 10
1177.33743401074
 20
-875.4536772568463
 97
        0
 97
        0
 75
     2
 76
     1
 98
        0
  0
SPLINE
  5
50
330
4A
100
AcDbEntity
  8
katman 1
370
     0
100
AcDbSpline
210
0.0
220
0.0
230
1.0
 70
    11
 71
     3
 72
   119
 73
   115
 74
     0
 42
0.0000000001
 43
0.0000000001
 12
1.0
 22
0.0
 32
0.0
 13
1.0
 23
0.0
 33
0.0
 40
0.0
 40
0.0
 40
0.0
 40
0.0
 40
1.0
 40
1.0
 40
1.0
 40
2.0
 40
2.0
 40
2.0
 40
3.0
 40
3.0
 40
3.0
 40
4.0
 40
4.0
 40
4.0
 40
5.0
 40
5.0
 40
5.0
 40
6.0
 40
6.0
 40
6.0
 40
7.0
 40
7.0
 40
7.0
 40
8.0
 40
8.0
 40
8.0
 40
9.0
 40
9.0
 40
9.0
 40
10.0
 40
10.0
 40
10.0
 40
11.0
 40
11.0
 40
11.0
 40
12.0
 40
12.0
 40
12.0
 40
13.0
 40
13.0
 40
13.0
 40
14.0
 40
14.0
 40
14.0
 40
15.0
 40
15.0
 40
15.0
 40
16.0
 40
16.0
 40
16.0
 40
17.0
 40
17.0
 40
17.0
 40
18.0
 40
18.0
 40
18.0
 40
19.0
 40
19.0
 40
19.0
 40
20.0
 40
20.0
 40
20.0
 40
21.0
 40
21.0
 40
21.0
 40
22.0
 40
22.0
 40
22.0
 40
23.0
 40
23.0
 40
23.0
 40
24.0
 40
24.0
 40
24.0
 40
25.0
 40
25.0
 40
25.0
 40
26.0
 40
26.0
 40
26.0
 40
27.0
 40
27.0
 40
27.0
 40
28.0
 40
28.0
 40
28.0
 40
29.0
 40
29.0
 40
29.0
 40
30.0
 40
30.0
 40
30.0
 40
31.0
 40
31.0
 40
31.0
 40
32.0
 40
32.0
 40
32.0
 40
33.0
 40
33.0
 40
33.0
 40
34.0
 40
34.0
 40
34.0
 40
35.0
 40
35.0
 40
35.0
 40
36.0
 40
36.0
 40
36.0
 40
37.0
 40
37.0
 40
37.0
 40
38.0
 40
38.0
 40
38.0
 40
38.0
 10
1177.33743401074
 20
-875.4536772568463
 30
0.0
 10
1177.33743401074
 20
-875.4536772568463
 30
0.0
 10
1161.80940598571
 20
-851.7186352922345
 30
0.0
 10
1159.125214786371
 20
-842.2702280809399
 30
0.0
 10
1154.506455098119
 20
-826.021930041954
 30
0.0
 10
1144.40145064527
 20
-807.0167364323124
 30
0.0
 10
1144.40145064527
 20
-807.0167364323124
 30
0.0
 10
1144.40145064527
 20
-807.0167364323124
 30
0.0
 10
1147.574251346246
 20
-817.4355889476756
 30
0.0
 10
1144.336423133038
 20
-823.9184706532342
 30
0.0
 10
1144.336423133038
 20
-823.9184706532342
 30
0.0
 10
1139.989966152258
 20
-799.8068110136064
 30
0.0
 10
1129.921991254982
 20
-787.1427030064633
 30
0.0
 10
1129.921991254982
 20
-787.1427030064633
 30
0.0
 10
1129.862382702104
 20
-792.3476134646808
 30
0.0
 10
1126.990785825139
 20
-795.3894559813043
 30
0.0
 10
1126.990785825139
 20
-795.3894559813043
 30
0.0
 10
1122.928824210383
 20
-775.9390045448563
 30
0.0
 10
1112.556484429453
 20
-764.8685221673286
 30
0.0
 10
1113.126378321387
 20
-770.2563225037056
 30
0.0
 10
1113.912127427517
 20
-770.5245609916619
 30
0.0
 10
1112.632349860396
 20
-777.0435690929044
 30
0.0
 10
1112.632349860396
 20
-777.0435690929044
 30
0.0
 10
1108.744698104816
 20
-757.5673775995256
 30
0.0
 10
1094.325750427306
 20
-743.1786857783982
 30
0.0
 10
1094.325750427306
 20
-743.1786857783982
 30
0.0
 10
1096.826600168544
 20
-748.6771232015562
 30
0.0
 10
1094.882548500787
 20
-753.1698920848485
 30
0.0
 10
1094.882548500787
 20
-753.1698920848485
 30
0.0
 10
1089.402625855411
 20
-738.2578191062421
 30
0.0
 10
1073.135813038654
 20
-724.4331506377366
 30
0.0
 10
1073.135813038654
 20
-724.4331506377366
 30
0.0
 10
1074.352820993263
 20
-728.5854282417058
 30
0.0
 10
1073.705255350618
 20
-732.296060658432
 30
0.0
 10
1073.705255350618
 20
-732.296060658432
 30
0.0
 10
1065.391216963821
 20
-717.9561394714801
 30
0.0
 10
1048.994349122582
 20
-705.6812933778301
 30
0.0
 10
1048.994349122582
 20
-705.6812933778301
 30
0.0
 10
1053.084760273945
 20
-711.5735085139513
 30
0.0
 10
1052.716271037956
 20
-715.9046117765574
 30
0.0
 10
1052.716271037956
 20
-715.9046117765574
 30
0.0
 10
1041.268267825548
 20
-700.0961526050305
 30
0.0
 10
1028.150321972611
 20
-692.543929587222
 30
0.0
 10
1028.150321972611
 20
-692.543929587222
 30
0.0
 10
1030.793419396861
 20
-696.5386057900168
 30
0.0
 10
1030.896831204507
 20
-702.0483327118254
 30
0.0
 10
1030.896831204507
 20
-702.0483327118254
 30
0.0
 10
1019.692229583015
 20
-688.5217070077124
 30
0.0
 10
1005.241671309272
 20
-678.7282927176366
 30
0.0
 10
1005.241671309272
 20
-678.7282927176366
 30
0.0
 10
1013.386367216306
 20
-689.825869891918
 30
0.0
 10
1010.667855941061
 20
-692.5452843270587
 30
0.0
 10
1010.667855941061
 20
-692.5452843270587
 30
0.0
 10
1007.190690356441
 20
-681.2210140198549
 30
0.0
 10
994.2569891215062
 20
-677.8206170260637
 30
0.0
 10
982.3736628410898
 20
-674.6956837993694
 30
0.0
 10
965.1260183814875
 20
-662.6764319551876
 30
0.0
 10
961.4244175636804
 20
-659.5433702894616
 30
0.0
 10
964.5579308093447
 20
-663.2436163674329
 30
0.0
 10
976.5780858134258
 20
-680.492163986919
 30
0.0
 10
979.7030190401183
 20
-692.3768450071793
 30
0.0
 10
983.1025128740084
 20
-705.3082883423922
 30
0.0
 10
994.4267831812203
 20
-708.7854539270065
 30
0.0
 10
994.4267831812203
 20
-708.7854539270065
 30
0.0
 10
991.7073687460761
 20
-711.5048683621471
 30
0.0
 10
980.6097915717901
 20
-703.3592692952207
 30
0.0
 10
980.6097915717901
 20
-703.3592692952207
 30
0.0
 10
990.4032058618777
 20
-717.8129886285824
 30
0.0
 10
1003.929831565987
 20
-729.0162355102439
 30
0.0
 10
1003.929831565987
 20
-729.0162355102439
 30
0.0
 10
998.4187499043328
 20
-728.911920542706
 30
0.0
 10
994.4245252814817
 20
-726.2701778582841
 30
0.0
 10
994.4245252814817
 20
-726.2701778582841
 30
0.0
 10
1001.977199879242
 20
-739.3876721312727
 30
0.0
 10
1017.786562210662
 20
-750.8352237637491
 30
0.0
 10
1017.786562210662
 20
-750.8352237637491
 30
0.0
 10
1013.457265267836
 20
-751.204616159619
 30
0.0
 10
1007.562792231991
 20
-747.1128502684214
 30
0.0
 10
1007.562792231991
 20
-747.1128502684214
 30
0.0
 10
1019.837638325642
 20
-763.5083633698232
 30
0.0
 10
1034.178914252432
 20
-771.8242080764066
 30
0.0
 10
1034.178914252432
 20
-771.8242080764066
 30
0.0
 10
1030.467830255766
 20
-772.4713221391012
 30
0.0
 10
1026.314649491895
 20
-771.2534110245979
 30
0.0
 10
1026.314649491895
 20
-771.2534110245979
 30
0.0
 10
1040.14067270025
 20
-787.5224817410954
 30
0.0
 10
1055.05139093901
 20
-793.0019528065204
 30
0.0
 10
1055.05139093901
 20
-793.0019528065204
 30
0.0
 10
1050.55862205572
 20
-794.9451013143926
 30
0.0
 10
1045.060184632559
 20
-792.4433484132514
 30
0.0
 10
1045.060184632559
 20
-792.4433484132514
 30
0.0
 10
1059.448876453687
 20
-806.8668118902224
 30
0.0
 10
1078.929132166577
 20
-810.7499478463424
 30
0.0
 10
1078.929132166577
 20
-810.7499478463424
 30
0.0
 10
1072.406059845831
 20
-812.030628573355
 30
0.0
 10
1072.137821357868
 20
-811.2448794672246
 30
0.0
 10
1066.750924181393
 20
-810.6776950549747
 30
0.0
 10
1077.821858138854
 20
-821.0455190364319
 30
0.0
 10
1097.272761155244
 20
-825.110641710814
 30
0.0
 10
1097.272761155244
 20
-825.110641710814
 30
0.0
 10
1094.228209158959
 20
-827.9813354278849
 30
0.0
 10
1089.022847120777
 20
-828.040492400819
 30
0.0
 10
1089.022847120777
 20
-828.040492400819
 30
0.0
 10
1101.689213027668
 20
-838.1071125582594
 30
0.0
 10
1125.798614767558
 20
-842.4549242788762
 30
0.0
 10
1125.798614767558
 20
-842.4549242788762
 30
0.0
 10
1119.318442541673
 20
-845.6913977522427
 30
0.0
 10
1108.900493186204
 20
-842.5176938913683
 30
0.0
 10
1108.900493186204
 20
-842.5176938913683
 30
0.0
 10
1108.900493186204
 20
-842.5176938913683
 30
0.0
 10
1127.902074156271
 20
-852.626310983801
 30
0.0
 10
1144.151275355151
 20
-857.2437159322089
 30
0.0
 10
1153.597876246658
 20
-859.9292618713853
 30
0.0
 10
1177.33743401074
 20
-875.4536772568463
 30
0.0
 10
1177.33743401074
 20
-875.4536772568463
 30
0.0
  0
HATCH
  5
51
330
4A
100
AcDbEntity
  8
katman 1
 62
    96
420
    35584
100
AcDbHatch
 10
0.0
 20
0.0
 30
0.0
210
0.0
220
0.0
230
1.0
  2
SOLID
 70
     1
 71
     0
 91
        1
 92
        1
 93
        1
 72
     4
 94
        3
 73
     0
 74
     1
 95
      119
 96
      115
 40
0.0
 40
0.0
 40
0.0
 40
0.0
 40
1.0
 40
1.0
 40
1.0
 40
2.0
 40
2.0
 40
2.0
 40
3.0
 40
3.0
 40
3.0
 40
4.0
 40
4.0
 40
4.0
 40
5.0
 40
5.0
 40
5.0
 40
6.0
 40
6.0
 40
6.0
 40
7.0
 40
7.0
 40
7.0
 40
8.0
 40
8.0
 40
8.0
 40
9.0
 40
9.0
 40
9.0
 40
10.0
 40
10.0
 40
10.0
 40
11.0
 40
11.0
 40
11.0
 40
12.0
 40
12.0
 40
12.0
 40
13.0
 40
13.0
 40
13.0
 40
14.0
 40
14.0
 40
14.0
 40
15.0
 40
15.0
 40
15.0
 40
16.0
 40
16.0
 40
16.0
 40
17.0
 40
17.0
 40
17.0
 40
18.0
 40
18.0
 40
18.0
 40
19.0
 40
19.0
 40
19.0
 40
20.0
 40
20.0
 40
20.0
 40
21.0
 40
21.0
 40
21.0
 40
22.0
 40
22.0
 40
22.0
 40
23.0
 40
23.0
 40
23.0
 40
24.0
 40
24.0
 40
24.0
 40
25.0
 40
25.0
 40
25.0
 40
26.0
 40
26.0
 40
26.0
 40
27.0
 40
27.0
 40
27.0
 40
28.0
 40
28.0
 40
28.0
 40
29.0
 40
29.0
 40
29.0
 40
30.0
 40
30.0
 40
30.0
 40
31.0
 40
31.0
 40
31.0
 40
32.0
 40
32.0
 40
32.0
 40
33.0
 40
33.0
 40
33.0
 40
34.0
 40
34.0
 40
34.0
 40
35.0
 40
35.0
 40
35.0
 40
36.0
 40
36.0
 40
36.0
 40
37.0
 40
37.0
 40
37.0
 40
38.0
 40
38.0
 40
38.0
 40
38.0
 10
1177.33743401074
 20
-875.4536772568463
 10
1177.33743401074
 20
-875.4536772568463
 10
1161.80940598571
 20
-851.7186352922345
 10
1159.125214786371
 20
-842.2702280809399
 10
1154.506455098119
 20
-826.021930041954
 10
1144.40145064527
 20
-807.0167364323124
 10
1144.40145064527
 20
-807.0167364323124
 10
1144.40145064527
 20
-807.0167364323124
 10
1147.574251346246
 20
-817.4355889476756
 10
1144.336423133038
 20
-823.9184706532342
 10
1144.336423133038
 20
-823.9184706532342
 10
1139.989966152258
 20
-799.8068110136064
 10
1129.921991254982
 20
-787.1427030064633
 10
1129.921991254982
 20
-787.1427030064633
 10
1129.862382702104
 20
-792.3476134646808
 10
1126.990785825139
 20
-795.3894559813043
 10
1126.990785825139
 20
-795.3894559813043
 10
1122.928824210383
 20
-775.9390045448563
 10
1112.556484429453
 20
-764.8685221673286
 10
1113.126378321387
 20
-770.2563225037056
 10
1113.912127427517
 20
-770.5245609916619
 10
1112.632349860396
 20
-777.0435690929044
 10
1112.632349860396
 20
-777.0435690929044
 10
1108.744698104816
 20
-757.5673775995256
 10
1094.325750427306
 20
-743.1786857783982
 10
1094.325750427306
 20
-743.1786857783982
 10
1096.826600168544
 20
-748.6771232015562
 10
1094.882548500787
 20
-753.1698920848485
 10
1094.882548500787
 20
-753.1698920848485
 10
1089.402625855411
 20
-738.2578191062421
 10
1073.135813038654
 20
-724.4331506377366
 10
1073.135813038654
 20
-724.4331506377366
 10
1074.352820993263
 20
-728.5854282417058
 10
1073.705255350618
 20
-732.296060658432
 10
1073.705255350618
 20
-732.296060658432
 10
1065.391216963821
 20
-717.9561394714801
 10
1048.994349122582
 20
-705.6812933778301
 10
1048.994349122582
 20
-705.6812933778301
 10
1053.084760273945
 20
-711.5735085139513
 10
1052.716271037956
 20
-715.9046117765574
 10
1052.716271037956
 20
-715.9046117765574
 10
1041.268267825548
 20
-700.0961526050305
 10
1028.150321972611
 20
-692.543929587222
 10
1028.150321972611
 20
-692.543929587222
 10
1030.793419396861
 20
-696.5386057900168
 10
1030.896831204507
 20
-702.0483327118254
 10
1030.896831204507
 20
-702.0483327118254
 10
1019.692229583015
 20
-688.5217070077124
 10
1005.241671309272
 20
-678.7282927176366
 10
1005.241671309272
 20
-678.7282927176366
 10
1013.386367216306
 20
-689.825869891918
 10
1010.667855941061
 20
-692.5452843270587
 10
1010.667855941061
 20
-692.5452843270587
 10
1007.190690356441
 20
-681.2210140198549
 10
994.2569891215062
 20
-677.8206170260637
 10
982.3736628410898
 20
-674.6956837993694
 10
965.1260183814875
 20
-662.6764319551876
 10
961.4244175636804
 20
-659.5433702894616
 10
964.5579308093447
 20
-663.2436163674329
 10
976.5780858134258
 20
-680.492163986919
 10
979.7030190401183
 20
-692.3768450071793
 10
983.1025128740084
 20
-705.3082883423922
 10
994.4267831812203
 20
-708.7854539270065
 10
994.4267831812203
 20
-708.7854539270065
 10
991.7073687460761
 20
-711.5048683621471
 10
980.6097915717901
 20
-703.3592692952207
 10
980.6097915717901
 20
-703.3592692952207
 10
990.4032058618777
 20
-717.8129886285824
 10
1003.929831565987
 20
-729.0162355102439
 10
1003.929831565987
 20
-729.0162355102439
 10
998.4187499043328
 20
-728.911920542706
 10
994.4245252814817
 20
-726.2701778582841
 10
994.4245252814817
 20
-726.2701778582841
 10
1001.977199879242
 20
-739.3876721312727
 10
1017.786562210662
 20
-750.8352237637491
 10
1017.786562210662
 20
-750.8352237637491
 10
1013.457265267836
 20
-751.204616159619
 10
1007.562792231991
 20
-747.1128502684214
 10
1007.562792231991
 20
-747.1128502684214
 10
1019.837638325642
 20
-763.5083633698232
 10
1034.178914252432
 20
-771.8242080764066
 10
1034.178914252432
 20
-771.8242080764066
 10
1030.467830255766
 20
-772.4713221391012
 10
1026.314649491895
 20
-771.2534110245979
 10
1026.314649491895
 20
-771.2534110245979
 10
1040.14067270025
 20
-787.5224817410954
 10
1055.05139093901
 20
-793.0019528065204
 10
1055.05139093901
 20
-793.0019528065204
 10
1050.55862205572
 20
-794.9451013143926
 10
1045.060184632559
 20
-792.4433484132514
 10
1045.060184632559
 20
-792.4433484132514
 10
1059.448876453687
 20
-806.8668118902224
 10
1078.929132166577
 20
-810.7499478463424
 10
1078.929132166577
 20
-810.7499478463424
 10
1072.406059845831
 20
-812.030628573355
 10
1072.137821357868
 20
-811.2448794672246
 10
1066.750924181393
 20
-810.6776950549747
 10
1077.821858138854
 20
-821.0455190364319
 10
1097.272761155244
 20
-825.110641710814
 10
1097.272761155244
 20
-825.110641710814
 10
1094.228209158959
 20
-827.9813354278849
 10
1089.022847120777
 20
-828.040492400819
 10
1089.022847120777
 20
-828.040492400819
 10
1101.689213027668
 20
-838.1071125582594
 10
1125.798614767558
 20
-842.4549242788762
 10
1125.798614767558
 20
-842.4549242788762
 10
1119.318442541673
 20
-845.6913977522427
 10
1108.900493186204
 20
-842.5176938913683
 10
1108.900493186204
 20
-842.5176938913683
 10
1108.900493186204
 20
-842.5176938913683
 10
1127.902074156271
 20
-852.626310983801
 10
1144.151275355151
 20
-857.2437159322089
 10
1153.597876246658
 20
-859.9292618713853
 10
1177.33743401074
 20
-875.4536772568463
 10
1177.33743401074
 20
-875.4536772568463
 97
        0
 97
        0
 75
     2
 76
     1
 98
        0
  0
SPLINE
  5
52
330
4A
100
AcDbEntity
  8
katman 1
370
     0
100
AcDbSpline
210
0.0
220
0.0
230
1.0
 70
    11
 71
     3
 72
   119
 73
   115
 74
     0
 42
0.0000000001
 43
0.0000000001
 12
1.0
 22
0.0
 32
0.0
 13
1.0
 23
0.0
 33
0.0
 40
0.0
 40
0.0
 40
0.0
 40
0.0
 40
1.0
 40
1.0
 40
1.0
 40
2.0
 40
2.0
 40
2.0
 40
3.0
 40
3.0
 40
3.0
 40
4.0
 40
4.0
 40
4.0
 40
5.0
 40
5.0
 40
5.0
 40
6.0
 40
6.0
 40
6.0
 40
7.0
 40
7.0
 40
7.0
 40
8.0
 40
8.0
 40
8.0
 40
9.0
 40
9.0
 40
9.0
 40
10.0
 40
10.0
 40
10.0
 40
11.0
 40
11.0
 40
11.0
 40
12.0
 40
12.0
 40
12.0
 40
13.0
 40
13.0
 40
13.0
 40
14.0
 40
14.0
 40
14.0
 40
15.0
 40
15.0
 40
15.0
 40
16.0
 40
16.0
 40
16.0
 40
17.0
 40
17.0
 40
17.0
 40
18.0
 40
18.0
 40
18.0
 40
19.0
 40
19.0
 40
19.0
 40
20.0
 40
20.0
 40
20.0
 40
21.0
 40
21.0
 40
21.0
 40
22.0
 40
22.0
 40
22.0
 40
23.0
 40
23.0
 40
23.0
 40
24.0
 40
24.0
 40
24.0
 40
25.0
 40
25.0
 40
25.0
 40
26.0
 40
26.0
 40
26.0
 40
27.0
 40
27.0
 40
27.0
 40
28.0
 40
28.0
 40
28.0
 40
29.0
 40
29.0
 40
29.0
 40
30.0
 40
30.0
 40
30.0
 40
31.0
 40
31.0
 40
31.0
 40
32.0
 40
32.0
 40
32.0
 40
33.0
 40
33.0
 40
33.0
 40
34.0
 40
34.0
 40
34.0
 40
35.0
 40
35.0
 40
35.0
 40
36.0
 40
36.0
 40
36.0
 40
37.0
 40
37.0
 40
37.0
 40
38.0
 40
38.0
 40
38.0
 40
38.0
 10
1177.33743401074
 20
-875.4536772568463
 30
0.0
 10
1177.33743401074
 20
-875.4536772568463
 30
0.0
 10
1201.074733875084
 20
-859.9292618713853
 30
0.0
 10
1210.52088318664
 20
-857.2437159322089
 30
0.0
 10
1226.770535965472
 20
-852.6236015041177
 30
0.0
 10
1245.773020095432
 20
-842.5176938913683
 30
0.0
 10
1245.773020095432
 20
-842.5176938913683
 30
0.0
 10
1245.773020095432
 20
-842.5176938913683
 30
0.0
 10
1235.355070739955
 20
-845.6904945923498
 30
0.0
 10
1228.873995354184
 20
-842.4549242788762
 30
0.0
 10
1228.873995354184
 20
-842.4549242788762
 30
0.0
 10
1252.98520341386
 20
-838.1071125582594
 30
0.0
 10
1265.648408261128
 20
-828.0391376609814
 30
0.0
 10
1265.648408261128
 20
-828.0391376609814
 30
0.0
 10
1260.445304122688
 20
-827.9799806880455
 30
0.0
 10
1257.401655286278
 20
-825.1097385509274
 30
0.0
 10
1257.401655286278
 20
-825.1097385509274
 30
0.0
 10
1276.851655142782
 20
-821.0455190364319
 30
0.0
 10
1287.922589100253
 20
-810.6763403151381
 30
0.0
 10
1282.536143503712
 20
-811.2435247273806
 30
0.0
 10
1282.266550275926
 20
-812.030628573355
 30
0.0
 10
1275.745284274952
 20
-810.7508510062353
 30
0.0
 10
1275.745284274952
 20
-810.7508510062353
 30
0.0
 10
1295.223282088104
 20
-806.8636508305981
 30
0.0
 10
1309.613328649077
 20
-792.4419936734048
 30
0.0
 10
1309.613328649077
 20
-792.4419936734048
 30
0.0
 10
1304.113988066034
 20
-794.9451013143926
 30
0.0
 10
1299.621219182729
 20
-793.0010496466248
 30
0.0
 10
1299.621219182729
 20
-793.0010496466248
 30
0.0
 10
1314.532840581396
 20
-787.5224817410954
 30
0.0
 10
1328.359315369682
 20
-771.2520562847521
 30
0.0
 10
1328.359315369682
 20
-771.2520562847521
 30
0.0
 10
1324.205683025877
 20
-772.4713221391012
 30
0.0
 10
1320.495953769034
 20
-771.8228533365691
 30
0.0
 10
1320.495953769034
 20
-771.8228533365691
 30
0.0
 10
1334.835874955992
 20
-763.5083633698232
 30
0.0
 10
1347.109817889756
 20
-747.1128502684214
 30
0.0
 10
1347.109817889756
 20
-747.1128502684214
 30
0.0
 10
1341.218505913534
 20
-751.2023582598895
 30
0.0
 10
1336.886047911088
 20
-750.8352237637491
 30
0.0
 10
1336.886047911088
 20
-750.8352237637491
 30
0.0
 10
1352.692700762826
 20
-739.386768971377
 30
0.0
 10
1360.248084840259
 20
-726.2692746983957
 30
0.0
 10
1360.248084840259
 20
-726.2692746983957
 30
0.0
 10
1356.253408637458
 20
-728.9105658028648
 30
0.0
 10
1350.742778555752
 20
-729.0144291904599
 30
0.0
 10
1350.742778555752
 20
-729.0144291904599
 30
0.0
 10
1364.270307419767
 20
-717.8107307288528
 30
0.0
 10
1374.063721709837
 20
-703.3592692952207
 30
0.0
 10
1374.063721709837
 20
-703.3592692952207
 30
0.0
 10
1362.965241375663
 20
-711.5026104624212
 30
0.0
 10
1360.245826940518
 20
-708.7854539270065
 30
0.0
 10
1360.245826940518
 20
-708.7854539270065
 30
0.0
 10
1371.571000407621
 20
-705.3082883423922
 30
0.0
 10
1374.971848981364
 20
-692.37549026734
 30
0.0
 10
1378.095427468219
 20
-680.4903576671377
 30
0.0
 10
1390.116034052233
 20
-663.2436163674329
 30
0.0
 10
1393.250450457799
 20
-659.5433702894616
 30
0.0
 10
1389.546140160321
 20
-662.6741740554553
 30
0.0
 10
1372.298495700717
 20
-674.6965869592605
 30
0.0
 10
1360.41652416014
 20
-677.8206170260637
 30
0.0
 10
1347.482822925187
 20
-681.2210140198549
 30
0.0
 10
1344.005657340571
 20
-692.5452843270587
 30
0.0
 10
1344.005657340571
 20
-692.5452843270587
 30
0.0
 10
1341.285791325485
 20
-689.8245151520769
 30
0.0
 10
1349.431841972364
 20
-678.7282927176366
 30
0.0
 10
1349.431841972364
 20
-678.7282927176366
 30
0.0
 10
1334.97902579889
 20
-688.5217070077124
 30
0.0
 10
1323.775778917236
 20
-702.0474295519325
 30
0.0
 10
1323.775778917236
 20
-702.0474295519325
 30
0.0
 10
1323.880093884767
 20
-696.5372510501802
 30
0.0
 10
1326.520481829342
 20
-692.543929587222
 30
0.0
 10
1326.520481829342
 20
-692.543929587222
 30
0.0
 10
1313.405697036047
 20
-700.0961526050305
 30
0.0
 10
1301.955887503831
 20
-715.9046117765574
 30
0.0
 10
1301.955887503831
 20
-715.9046117765574
 30
0.0
 10
1301.58649510796
 20
-711.5735085139513
 30
0.0
 10
1305.678260999157
 20
-705.6799386379926
 30
0.0
 10
1305.678260999157
 20
-705.6799386379926
 30
0.0
 10
1289.282296317822
 20
-717.9552363115872
 30
0.0
 10
1280.966000031287
 20
-732.296060658432
 30
0.0
 10
1280.966000031287
 20
-732.296060658432
 30
0.0
 10
1280.320692288366
 20
-728.5840735018664
 30
0.0
 10
1281.537700242992
 20
-724.4331506377366
 30
0.0
 10
1281.537700242992
 20
-724.4331506377366
 30
0.0
 10
1265.26953268638
 20
-738.2578191062421
 30
0.0
 10
1259.790061620955
 20
-753.1698920848485
 30
0.0
 10
1259.790061620955
 20
-753.1698920848485
 30
0.0
 10
1257.846913113084
 20
-748.6771232015562
 30
0.0
 10
1260.347762854337
 20
-743.1764278786677
 30
0.0
 10
1260.347762854337
 20
-743.1764278786677
 30
0.0
 10
1245.925202537252
 20
-757.5655712797443
 30
0.0
 10
1242.042518161084
 20
-777.0435690929044
 30
0.0
 10
1242.042518161084
 20
-777.0435690929044
 30
0.0
 10
1240.762740593964
 20
-770.5236578317672
 30
0.0
 10
1241.5475865402
 20
-770.2563225037056
 30
0.0
 10
1242.1143193725
 20
-764.867167427492
 30
0.0
 10
1231.745592231149
 20
-775.9390045448563
 30
0.0
 10
1227.680469556766
 20
-795.3894559813043
 30
0.0
 10
1227.680469556766
 20
-795.3894559813043
 30
0.0
 10
1224.809775839705
 20
-792.3467103047969
 30
0.0
 10
1224.75016728682
 20
-787.1413482666258
 30
0.0
 10
1224.75016728682
 20
-787.1413482666258
 30
0.0
 10
1214.682643969485
 20
-799.8068110136064
 30
0.0
 10
1210.334832248867
 20
-823.9171159133966
 30
0.0
 10
1210.334832248867
 20
-823.9171159133966
 30
0.0
 10
1207.099261935393
 20
-817.4355889476756
 30
0.0
 10
1210.274320536097
 20
-807.0167364323124
 30
0.0
 10
1210.274320536097
 20
-807.0167364323124
 30
0.0
 10
1210.274320536097
 20
-807.0167364323124
 30
0.0
 10
1200.164800283786
 20
-826.0196721422235
 30
0.0
 10
1195.54965323511
 20
-842.2702280809399
 30
0.0
 10
1192.861849396195
 20
-851.7163773924976
 30
0.0
 10
1177.33743401074
 20
-875.4536772568463
 30
0.0
 10
1177.33743401074
 20
-875.4536772568463
 30
0.0
  0
HATCH
  5
53
330
4A
100
AcDbEntity
  8
katman 1
 62
    96
420
    35584
100
AcDbHatch
 10
0.0
 20
0.0
 30
0.0
210
0.0
220
0.0
230
1.0
  2
SOLID
 70
     1
 71
     0
 91
        1
 92
        1
 93
        1
 72
     4
 94
        3
 73
     0
 74
     1
 95
      119
 96
      115
 40
0.0
 40
0.0
 40
0.0
 40
0.0
 40
1.0
 40
1.0
 40
1.0
 40
2.0
 40
2.0
 40
2.0
 40
3.0
 40
3.0
 40
3.0
 40
4.0
 40
4.0
 40
4.0
 40
5.0
 40
5.0
 40
5.0
 40
6.0
 40
6.0
 40
6.0
 40
7.0
 40
7.0
 40
7.0
 40
8.0
 40
8.0
 40
8.0
 40
9.0
 40
9.0
 40
9.0
 40
10.0
 40
10.0
 40
10.0
 40
11.0
 40
11.0
 40
11.0
 40
12.0
 40
12.0
 40
12.0
 40
13.0
 40
13.0
 40
13.0
 40
14.0
 40
14.0
 40
14.0
 40
15.0
 40
15.0
 40
15.0
 40
16.0
 40
16.0
 40
16.0
 40
17.0
 40
17.0
 40
17.0
 40
18.0
 40
18.0
 40
18.0
 40
19.0
 40
19.0
 40
19.0
 40
20.0
 40
20.0
 40
20.0
 40
21.0
 40
21.0
 40
21.0
 40
22.0
 40
22.0
 40
22.0
 40
23.0
 40
23.0
 40
23.0
 40
24.0
 40
24.0
 40
24.0
 40
25.0
 40
25.0
 40
25.0
 40
26.0
 40
26.0
 40
26.0
 40
27.0
 40
27.0
 40
27.0
 40
28.0
 40
28.0
 40
28.0
 40
29.0
 40
29.0
 40
29.0
 40
30.0
 40
30.0
 40
30.0
 40
31.0
 40
31.0
 40
31.0
 40
32.0
 40
32.0
 40
32.0
 40
33.0
 40
33.0
 40
33.0
 40
34.0
 40
34.0
 40
34.0
 40
35.0
 40
35.0
 40
35.0
 40
36.0
 40
36.0
 40
36.0
 40
37.0
 40
37.0
 40
37.0
 40
38.0
 40
38.0
 40
38.0
 40
38.0
 10
1177.33743401074
 20
-875.4536772568463
 10
1177.33743401074
 20
-875.4536772568463
 10
1201.074733875084
 20
-859.9292618713853
 10
1210.52088318664
 20
-857.2437159322089
 10
1226.770535965472
 20
-852.6236015041177
 10
1245.773020095432
 20
-842.5176938913683
 10
1245.773020095432
 20
-842.5176938913683
 10
1245.773020095432
 20
-842.5176938913683
 10
1235.355070739955
 20
-845.6904945923498
 10
1228.873995354184
 20
-842.4549242788762
 10
1228.873995354184
 20
-842.4549242788762
 10
1252.98520341386
 20
-838.1071125582594
 10
1265.648408261128
 20
-828.0391376609814
 10
1265.648408261128
 20
-828.0391376609814
 10
1260.445304122688
 20
-827.9799806880455
 10
1257.401655286278
 20
-825.1097385509274
 10
1257.401655286278
 20
-825.1097385509274
 10
1276.851655142782
 20
-821.0455190364319
 10
1287.922589100253
 20
-810.6763403151381
 10
1282.536143503712
 20
-811.2435247273806
 10
1282.266550275926
 20
-812.030628573355
 10
1275.745284274952
 20
-810.7508510062353
 10
1275.745284274952
 20
-810.7508510062353
 10
1295.223282088104
 20
-806.8636508305981
 10
1309.613328649077
 20
-792.4419936734048
 10
1309.613328649077
 20
-792.4419936734048
 10
1304.113988066034
 20
-794.9451013143926
 10
1299.621219182729
 20
-793.0010496466248
 10
1299.621219182729
 20
-793.0010496466248
 10
1314.532840581396
 20
-787.5224817410954
 10
1328.359315369682
 20
-771.2520562847521
 10
1328.359315369682
 20
-771.2520562847521
 10
1324.205683025877
 20
-772.4713221391012
 10
1320.495953769034
 20
-771.8228533365691
 10
1320.495953769034
 20
-771.8228533365691
 10
1334.835874955992
 20
-763.5083633698232
 10
1347.109817889756
 20
-747.1128502684214
 10
1347.109817889756
 20
-747.1128502684214
 10
1341.218505913534
 20
-751.2023582598895
 10
1336.886047911088
 20
-750.8352237637491
 10
1336.886047911088
 20
-750.8352237637491
 10
1352.692700762826
 20
-739.386768971377
 10
1360.248084840259
 20
-726.2692746983957
 10
1360.248084840259
 20
-726.2692746983957
 10
1356.253408637458
 20
-728.9105658028648
 10
1350.742778555752
 20
-729.0144291904599
 10
1350.742778555752
 20
-729.0144291904599
 10
1364.270307419767
 20
-717.8107307288528
 10
1374.063721709837
 20
-703.3592692952207
 10
1374.063721709837
 20
-703.3592692952207
 10
1362.965241375663
 20
-711.5026104624212
 10
1360.245826940518
 20
-708.7854539270065
 10
1360.245826940518
 20
-708.7854539270065
 10
1371.571000407621
 20
-705.3082883423922
 10
1374.971848981364
 20
-692.37549026734
 10
1378.095427468219
 20
-680.4903576671377
 10
1390.116034052233
 20
-663.2436163674329
 10
1393.250450457799
 20
-659.5433702894616
 10
1389.546140160321
 20
-662.6741740554553
 10
1372.298495700717
 20
-674.6965869592605
 10
1360.41652416014
 20
-677.8206170260637
 10
1347.482822925187
 20
-681.2210140198549
 10
1344.005657340571
 20
-692.5452843270587
 10
1344.005657340571
 20
-692.5452843270587
 10
1341.285791325485
 20
-689.8245151520769
 10
1349.431841972364
 20
-678.7282927176366
 10
1349.431841972364
 20
-678.7282927176366
 10
1334.97902579889
 20
-688.5217070077124
 10
1323.775778917236
 20
-702.0474295519325
 10
1323.775778917236
 20
-702.0474295519325
 10
1323.880093884767
 20
-696.5372510501802
 10
1326.520481829342
 20
-692.543929587222
 10
1326.520481829342
 20
-692.543929587222
 10
1313.405697036047
 20
-700.0961526050305
 10
1301.955887503831
 20
-715.9046117765574
 10
1301.955887503831
 20
-715.9046117765574
 10
1301.58649510796
 20
-711.5735085139513
 10
1305.678260999157
 20
-705.6799386379926
 10
1305.678260999157
 20
-705.6799386379926
 10
1289.282296317822
 20
-717.9552363115872
 10
1280.966000031287
 20
-732.296060658432
 10
1280.966000031287
 20
-732.296060658432
 10
1280.320692288366
 20
-728.5840735018664
 10
1281.537700242992
 20
-724.4331506377366
 10
1281.537700242992
 20
-724.4331506377366
 10
1265.26953268638
 20
-738.2578191062421
 10
1259.790061620955
 20
-753.1698920848485
 10
1259.790061620955
 20
-753.1698920848485
 10
1257.846913113084
 20
-748.6771232015562
 10
1260.347762854337
 20
-743.1764278786677
 10
1260.347762854337
 20
-743.1764278786677
 10
1245.925202537252
 20
-757.5655712797443
 10
1242.042518161084
 20
-777.0435690929044
 10
1242.042518161084
 20
-777.0435690929044
 10
1240.762740593964
 20
-770.5236578317672
 10
1241.5475865402
 20
-770.2563225037056
 10
1242.1143193725
 20
-764.867167427492
 10
1231.745592231149
 20
-775.9390045448563
 10
1227.680469556766
 20
-795.3894559813043
 10
1227.680469556766
 20
-795.3894559813043
 10
1224.809775839705
 20
-792.3467103047969
 10
1224.75016728682
 20
-787.1413482666258
 10
1224.75016728682
 20
-787.1413482666258
 10
1214.682643969485
 20
-799.8068110136064
 10
1210.334832248867
 20
-823.9171159133966
 10
1210.334832248867
 20
-823.9171159133966
 10
1207.099261935393
 20
-817.4355889476756
 10
1210.274320536097
 20
-807.0167364323124
 10
1210.274320536097
 20
-807.0167364323124
 10
1210.274320536097
 20
-807.0167364323124
 10
1200.164800283786
 20
-826.0196721422235
 10
1195.54965323511
 20
-842.2702280809399
 10
1192.861849396195
 20
-851.7163773924976
 10
1177.33743401074
 20
-875.4536772568463
 10
1177.33743401074
 20
-875.4536772568463
 97
        0
 97
        0
 75
     2
 76
     1
 98
        0
  0
INSERT
  5
55
330
4A
100
AcDbEntity
  8
katman 1
100
AcDbBlockReference
  2
block 4
 10
0.0
 20
0.0
 30
0.0
  0
INSERT
  5
5D
330
4A
100
AcDbEntity
  8
katman 1
100
AcDbBlockReference
  2
block 5
 10
0.0
 20
0.0
 30
0.0
  0
POLYLINE
  5
64
330
4A
100
AcDbEntity
  8
katman 1
370
     0
100
AcDb2dPolyline
 66
     1
 10
0.0
 20
0.0
 30
0.0
  0
VERTEX
  5
65
330
64
100
AcDbEntity
  8
katman 1
370
     0
100
AcDbVertex
100
AcDb2dVertex
 10
1178.556248285138
 20
-860.0597684757995
 30
0.0
  0
VERTEX
  5
66
330
64
100
AcDbEntity
  8
katman 1
370
     0
100
AcDbVertex
100
AcDb2dVertex
 10
1180.408629223846
 20
-965.6892852373167
 30
0.0
  0
VERTEX
  5
67
330
64
100
AcDbEntity
  8
katman 1
370
     0
100
AcDbVertex
100
AcDb2dVertex
 10
1174.265787217675
 20
-965.6892852373167
 30
0.0
  0
VERTEX
  5
68
330
64
100
AcDbEntity
  8
katman 1
370
     0
100
AcDbVertex
100
AcDb2dVertex
 10
1176.11816815639
 20
-860.0597684757995
 30
0.0
  0
VERTEX
  5
69
330
64
100
AcDbEntity
  8
katman 1
370
     0
100
AcDbVertex
100
AcDb2dVertex
 10
1178.556248285138
 20
-860.0597684757995
 30
0.0
  0
SEQEND
  5
6B
330
64
100
AcDbEntity
  8
katman 1
370
     0
  0
HATCH
  5
6A
330
4A
100
AcDbEntity
  8
katman 1
 62
    96
420
    35584
100
AcDbHatch
 10
0.0
 20
0.0
 30
0.0
210
0.0
220
0.0
230
1.0
  2
SOLID
 70
     1
 71
     0
 91
        1
 92
        1
 93
        4
 72
     1
 10
1178.556248285138
 20
-860.0597684757995
 11
1180.408629223846
 21
-965.6892852373167
 72
     1
 10
1180.408629223846
 20
-965.6892852373167
 11
1174.265787217675
 21
-965.6892852373167
 72
     1
 10
1174.265787217675
 20
-965.6892852373167
 11
1176.11816815639
 21
-860.0597684757995
 72
     1
 10
1176.11816815639
 20
-860.0597684757995
 11
1178.556248285138
 21
-860.0597684757995
 97
        0
 75
     2
 76
     1
 98
        0
  0
ENDBLK
  5
4D
330
4A
100
AcDbEntity
  8
0
100
AcDbBlockEnd
  0
BLOCK
  5
56
330
54
100
AcDbEntity
  8
0
100
AcDbBlockBegin
  2
block 4
 70
     0
 10
0.0
 20
0.0
 30
0.0
  3
block 4
  1

  0
SPLINE
  5
58
330
54
100
AcDbEntity
  8
katman 1
370
     0
100
AcDbSpline
210
0.0
220
0.0
230
1.0
 70
    11
 71
     3
 72
   119
 73
   115
 74
     0
 42
0.0000000001
 43
0.0000000001
 12
1.0
 22
0.0
 32
0.0
 13
1.0
 23
0.0
 33
0.0
 40
0.0
 40
0.0
 40
0.0
 40
0.0
 40
1.0
 40
1.0
 40
1.0
 40
2.0
 40
2.0
 40
2.0
 40
3.0
 40
3.0
 40
3.0
 40
4.0
 40
4.0
 40
4.0
 40
5.0
 40
5.0
 40
5.0
 40
6.0
 40
6.0
 40
6.0
 40
7.0
 40
7.0
 40
7.0
 40
8.0
 40
8.0
 40
8.0
 40
9.0
 40
9.0
 40
9.0
 40
10.0
 40
10.0
 40
10.0
 40
11.0
 40
11.0
 40
11.0
 40
12.0
 40
12.0
 40
12.0
 40
13.0
 40
13.0
 40
13.0
 40
14.0
 40
14.0
 40
14.0
 40
15.0
 40
15.0
 40
15.0
 40
16.0
 40
16.0
 40
16.0
 40
17.0
 40
17.0
 40
17.0
 40
18.0
 40
18.0
 40
18.0
 40
19.0
 40
19.0
 40
19.0
 40
20.0
 40
20.0
 40
20.0
 40
21.0
 40
21.0
 40
21.0
 40
22.0
 40
22.0
 40
22.0
 40
23.0
 40
23.0
 40
23.0
 40
24.0
 40
24.0
 40
24.0
 40
25.0
 40
25.0
 40
25.0
 40
26.0
 40
26.0
 40
26.0
 40
27.0
 40
27.0
 40
27.0
 40
28.0
 40
28.0
 40
28.0
 40
29.0
 40
29.0
 40
29.0
 40
30.0
 40
30.0
 40
30.0
 40
31.0
 40
31.0
 40
31.0
 40
32.0
 40
32.0
 40
32.0
 40
33.0
 40
33.0
 40
33.0
 40
34.0
 40
34.0
 40
34.0
 40
35.0
 40
35.0
 40
35.0
 40
36.0
 40
36.0
 40
36.0
 40
37.0
 40
37.0
 40
37.0
 40
38.0
 40
38.0
 40
38.0
 40
38.0
 10
1177.33743401074
 20
-875.4536772568463
 30
0.0
 10
1177.33743401074
 20
-875.4536772568463
 30
0.0
 10
1196.968969005557
 20
-879.559442126374
 30
0.0
 10
1203.035494000851
 20
-882.9404211824831
 30
0.0
 10
1213.470603394271
 20
-888.755867727762
 30
0.0
 10
1228.023218735823
 20
-893.2043817763515
 30
0.0
 10
1228.023218735823
 20
-893.2043817763515
 30
0.0
 10
1228.023218735823
 20
-893.2043817763515
 30
0.0
 10
1221.226940547698
 20
-889.5809042892106
 30
0.0
 10
1219.605316961428
 20
-884.7241619693987
 30
0.0
 10
1219.605316961428
 20
-884.7241619693987
 30
0.0
 10
1233.833697901704
 20
-894.6051827690117
 30
0.0
 10
1245.199965143889
 20
-895.902120374074
 30
0.0
 10
1245.199965143889
 20
-895.902120374074
 30
0.0
 10
1242.628217351106
 20
-893.2698608685268
 30
0.0
 10
1242.541062421515
 20
-890.3129153817608
 30
0.0
 10
1242.541062421515
 20
-890.3129153817608
 30
0.0
 10
1254.299752636834
 20
-898.0078376625261
 30
0.0
 10
1265.019808976213
 20
-898.3578121207247
 30
0.0
 10
1262.041187652041
 20
-895.9472783686797
 30
0.0
 10
1261.515548594831
 20
-896.2064852577132
 30
0.0
 10
1258.89367542804
 20
-892.3061892636433
 30
0.0
 10
1258.89367542804
 20
-892.3061892636433
 30
0.0
 10
1270.57514547258
 20
-900.1022654523313
 30
0.0
 10
1284.980997331655
 20
-900.086911734159
 30
0.0
 10
1284.980997331655
 20
-900.086911734159
 30
0.0
 10
1280.97954742967
 20
-898.5890210531034
 30
0.0
 10
1279.70744672163
 20
-895.3710623575171
 30
0.0
 10
1279.70744672163
 20
-895.3710623575171
 30
0.0
 10
1289.901864003805
 20
-900.086911734159
 30
0.0
 10
1304.948507806337
 20
-898.8631300803572
 30
0.0
 10
1304.948507806337
 20
-898.8631300803572
 30
0.0
 10
1302.263865027049
 20
-897.3954952556778
 30
0.0
 10
1300.732105850024
 20
-895.2175251758599
 30
0.0
 10
1300.732105850024
 20
-895.2175251758599
 30
0.0
 10
1312.059537216861
 20
-898.2309181558758
 30
0.0
 10
1326.394942604344
 20
-896.1694557021365
 30
0.0
 10
1326.394942604344
 20
-896.1694557021365
 30
0.0
 10
1321.402274720771
 20
-895.2685537097641
 30
0.0
 10
1319.420741917485
 20
-892.9176285106068
 30
0.0
 10
1319.420741917485
 20
-892.9176285106068
 30
0.0
 10
1333.049876269357
 20
-895.1001143898866
 30
0.0
 10
1343.386089654588
 20
-892.3179303422494
 30
0.0
 10
1343.386089654588
 20
-892.3179303422494
 30
0.0
 10
1340.065622311253
 20
-891.6428183228909
 30
0.0
 10
1337.261310846257
 20
-888.9360481262447
 30
0.0
 10
1337.261310846257
 20
-888.9360481262447
 30
0.0
 10
1349.626021349166
 20
-890.0993180672776
 30
0.0
 10
1361.747330261154
 20
-887.7691655456383
 30
0.0
 10
1361.747330261154
 20
-887.7691655456383
 30
0.0
 10
1352.127774250308
 20
-886.2920475420924
 30
0.0
 10
1352.126871090419
 20
-883.5739878467939
 30
0.0
 10
1352.126871090419
 20
-883.5739878467939
 30
0.0
 10
1359.52736324635
 20
-887.4982175780078
 30
0.0
 10
1367.694186570752
 20
-882.7313396674599
 30
0.0
 10
1375.198090534337
 20
-878.3532720904586
 30
0.0
 10
1389.831990266164
 20
-875.738624202806
 30
0.0
 10
1393.250450457799
 20
-875.4536772568463
 30
0.0
 10
1389.831990266164
 20
-875.1700850507177
 30
0.0
 10
1375.198090534337
 20
-872.5554371630742
 30
0.0
 10
1367.694186570752
 20
-868.1760148462354
 30
0.0
 10
1359.52736324635
 20
-863.4086853557365
 30
0.0
 10
1352.126871090419
 20
-867.3324635070003
 30
0.0
 10
1352.126871090419
 20
-867.3324635070003
 30
0.0
 10
1352.125516350585
 20
-864.6153069715938
 30
0.0
 10
1361.748233421047
 20
-863.1390921279435
 30
0.0
 10
1361.748233421047
 20
-863.1390921279435
 30
0.0
 10
1349.626021349166
 20
-860.8089396063042
 30
0.0
 10
1337.25905294652
 20
-861.9713063874506
 30
0.0
 10
1337.25905294652
 20
-861.9713063874506
 30
0.0
 10
1340.066977051087
 20
-859.2681488303624
 30
0.0
 10
1343.385186494696
 20
-858.5894241714477
 30
0.0
 10
1343.385186494696
 20
-858.5894241714477
 30
0.0
 10
1333.049876269357
 20
-855.809498023531
 30
0.0
 10
1319.420741917485
 20
-857.9897260030884
 30
0.0
 10
1319.420741917485
 20
-857.9897260030884
 30
0.0
 10
1321.402274720771
 20
-855.6410587036535
 30
0.0
 10
1326.394942604344
 20
-854.7392535513873
 30
0.0
 10
1326.394942604344
 20
-854.7392535513873
 30
0.0
 10
1312.059537216861
 20
-852.6759847778694
 30
0.0
 10
1300.732105850024
 20
-855.6907324977228
 30
0.0
 10
1300.732105850024
 20
-855.6907324977228
 30
0.0
 10
1302.263865027049
 20
-853.5105045181726
 30
0.0
 10
1304.947153066503
 20
-852.0442244333381
 30
0.0
 10
1304.947153066503
 20
-852.0442244333381
 30
0.0
 10
1289.901864003805
 20
-850.821345939421
 30
0.0
 10
1279.70744672163
 20
-855.5385500559023
 30
0.0
 10
1279.70744672163
 20
-855.5385500559023
 30
0.0
 10
1280.980902169511
 20
-852.3205913603233
 30
0.0
 10
1284.980997331655
 20
-850.8199911995844
 30
0.0
 10
1284.980997331655
 20
-850.8199911995844
 30
0.0
 10
1270.573790732735
 20
-850.8041859014711
 30
0.0
 10
1258.896384907715
 20
-858.6020684099376
 30
0.0
 10
1258.896384907715
 20
-858.6020684099376
 30
0.0
 10
1261.515548594831
 20
-854.700869255973
 30
0.0
 10
1262.041187652041
 20
-854.9587214051699
 30
0.0
 10
1265.019808976213
 20
-852.5495423929733
 30
0.0
 10
1254.299752636834
 20
-852.9017747508933
 30
0.0
 10
1242.541062421515
 20
-860.5903749124163
 30
0.0
 10
1242.541062421515
 20
-860.5903749124163
 30
0.0
 10
1242.626862611269
 20
-857.6365904852755
 30
0.0
 10
1245.199965143889
 20
-855.0052341396131
 30
0.0
 10
1245.199965143889
 20
-855.0052341396131
 30
0.0
 10
1233.835052641542
 20
-856.3030749045693
 30
0.0
 10
1219.605316961428
 20
-866.1854504440262
 30
0.0
 10
1219.605316961428
 20
-866.1854504440262
 30
0.0
 10
1221.226940547698
 20
-861.3264502244874
 30
0.0
 10
1228.023218735823
 20
-857.7047790571314
 30
0.0
 10
1228.023218735823
 20
-857.7047790571314
 30
0.0
 10
1228.023218735823
 20
-857.7047790571314
 30
0.0
 10
1213.470603394271
 20
-862.1528415257617
 30
0.0
 10
1203.035494000851
 20
-867.9669333312122
 30
0.0
 10
1196.968969005557
 20
-871.3465576474846
 30
0.0
 10
1177.33743401074
 20
-875.4536772568463
 30
0.0
 10
1177.33743401074
 20
-875.4536772568463
 30
0.0
  0
HATCH
  5
59
330
54
100
AcDbEntity
  8
katman 1
 62
    96
420
    35584
100
AcDbHatch
 10
0.0
 20
0.0
 30
0.0
210
0.0
220
0.0
230
1.0
  2
SOLID
 70
     1
 71
     0
 91
        1
 92
        1
 93
        1
 72
     4
 94
        3
 73
     0
 74
     1
 95
      119
 96
      115
 40
0.0
 40
0.0
 40
0.0
 40
0.0
 40
1.0
 40
1.0
 40
1.0
 40
2.0
 40
2.0
 40
2.0
 40
3.0
 40
3.0
 40
3.0
 40
4.0
 40
4.0
 40
4.0
 40
5.0
 40
5.0
 40
5.0
 40
6.0
 40
6.0
 40
6.0
 40
7.0
 40
7.0
 40
7.0
 40
8.0
 40
8.0
 40
8.0
 40
9.0
 40
9.0
 40
9.0
 40
10.0
 40
10.0
 40
10.0
 40
11.0
 40
11.0
 40
11.0
 40
12.0
 40
12.0
 40
12.0
 40
13.0
 40
13.0
 40
13.0
 40
14.0
 40
14.0
 40
14.0
 40
15.0
 40
15.0
 40
15.0
 40
16.0
 40
16.0
 40
16.0
 40
17.0
 40
17.0
 40
17.0
 40
18.0
 40
18.0
 40
18.0
 40
19.0
 40
19.0
 40
19.0
 40
20.0
 40
20.0
 40
20.0
 40
21.0
 40
21.0
 40
21.0
 40
22.0
 40
22.0
 40
22.0
 40
23.0
 40
23.0
 40
23.0
 40
24.0
 40
24.0
 40
24.0
 40
25.0
 40
25.0
 40
25.0
 40
26.0
 40
26.0
 40
26.0
 40
27.0
 40
27.0
 40
27.0
 40
28.0
 40
28.0
 40
28.0
 40
29.0
 40
29.0
 40
29.0
 40
30.0
 40
30.0
 40
30.0
 40
31.0
 40
31.0
 40
31.0
 40
32.0
 40
32.0
 40
32.0
 40
33.0
 40
33.0
 40
33.0
 40
34.0
 40
34.0
 40
34.0
 40
35.0
 40
35.0
 40
35.0
 40
36.0
 40
36.0
 40
36.0
 40
37.0
 40
37.0
 40
37.0
 40
38.0
 40
38.0
 40
38.0
 40
38.0
 10
1177.33743401074
 20
-875.4536772568463
 10
1177.33743401074
 20
-875.4536772568463
 10
1196.968969005557
 20
-879.559442126374
 10
1203.035494000851
 20
-882.9404211824831
 10
1213.470603394271
 20
-888.755867727762
 10
1228.023218735823
 20
-893.2043817763515
 10
1228.023218735823
 20
-893.2043817763515
 10
1228.023218735823
 20
-893.2043817763515
 10
1221.226940547698
 20
-889.5809042892106
 10
1219.605316961428
 20
-884.7241619693987
 10
1219.605316961428
 20
-884.7241619693987
 10
1233.833697901704
 20
-894.6051827690117
 10
1245.199965143889
 20
-895.902120374074
 10
1245.199965143889
 20
-895.902120374074
 10
1242.628217351106
 20
-893.2698608685268
 10
1242.541062421515
 20
-890.3129153817608
 10
1242.541062421515
 20
-890.3129153817608
 10
1254.299752636834
 20
-898.0078376625261
 10
1265.019808976213
 20
-898.3578121207247
 10
1262.041187652041
 20
-895.9472783686797
 10
1261.515548594831
 20
-896.2064852577132
 10
1258.89367542804
 20
-892.3061892636433
 10
1258.89367542804
 20
-892.3061892636433
 10
1270.57514547258
 20
-900.1022654523313
 10
1284.980997331655
 20
-900.086911734159
 10
1284.980997331655
 20
-900.086911734159
 10
1280.97954742967
 20
-898.5890210531034
 10
1279.70744672163
 20
-895.3710623575171
 10
1279.70744672163
 20
-895.3710623575171
 10
1289.901864003805
 20
-900.086911734159
 10
1304.948507806337
 20
-898.8631300803572
 10
1304.948507806337
 20
-898.8631300803572
 10
1302.263865027049
 20
-897.3954952556778
 10
1300.732105850024
 20
-895.2175251758599
 10
1300.732105850024
 20
-895.2175251758599
 10
1312.059537216861
 20
-898.2309181558758
 10
1326.394942604344
 20
-896.1694557021365
 10
1326.394942604344
 20
-896.1694557021365
 10
1321.402274720771
 20
-895.2685537097641
 10
1319.420741917485
 20
-892.9176285106068
 10
1319.420741917485
 20
-892.9176285106068
 10
1333.049876269357
 20
-895.1001143898866
 10
1343.386089654588
 20
-892.3179303422494
 10
1343.386089654588
 20
-892.3179303422494
 10
1340.065622311253
 20
-891.6428183228909
 10
1337.261310846257
 20
-888.9360481262447
 10
1337.261310846257
 20
-888.9360481262447
 10
1349.626021349166
 20
-890.0993180672776
 10
1361.747330261154
 20
-887.7691655456383
 10
1361.747330261154
 20
-887.7691655456383
 10
1352.127774250308
 20
-886.2920475420924
 10
1352.126871090419
 20
-883.5739878467939
 10
1352.126871090419
 20
-883.5739878467939
 10
1359.52736324635
 20
-887.4982175780078
 10
1367.694186570752
 20
-882.7313396674599
 10
1375.198090534337
 20
-878.3532720904586
 10
1389.831990266164
 20
-875.738624202806
 10
1393.250450457799
 20
-875.4536772568463
 10
1389.831990266164
 20
-875.1700850507177
 10
1375.198090534337
 20
-872.5554371630742
 10
1367.694186570752
 20
-868.1760148462354
 10
1359.52736324635
 20
-863.4086853557365
 10
1352.126871090419
 20
-867.3324635070003
 10
1352.126871090419
 20
-867.3324635070003
 10
1352.125516350585
 20
-864.6153069715938
 10
1361.748233421047
 20
-863.1390921279435
 10
1361.748233421047
 20
-863.1390921279435
 10
1349.626021349166
 20
-860.8089396063042
 10
1337.25905294652
 20
-861.9713063874506
 10
1337.25905294652
 20
-861.9713063874506
 10
1340.066977051087
 20
-859.2681488303624
 10
1343.385186494696
 20
-858.5894241714477
 10
1343.385186494696
 20
-858.5894241714477
 10
1333.049876269357
 20
-855.809498023531
 10
1319.420741917485
 20
-857.9897260030884
 10
1319.420741917485
 20
-857.9897260030884
 10
1321.402274720771
 20
-855.6410587036535
 10
1326.394942604344
 20
-854.7392535513873
 10
1326.394942604344
 20
-854.7392535513873
 10
1312.059537216861
 20
-852.6759847778694
 10
1300.732105850024
 20
-855.6907324977228
 10
1300.732105850024
 20
-855.6907324977228
 10
1302.263865027049
 20
-853.5105045181726
 10
1304.947153066503
 20
-852.0442244333381
 10
1304.947153066503
 20
-852.0442244333381
 10
1289.901864003805
 20
-850.821345939421
 10
1279.70744672163
 20
-855.5385500559023
 10
1279.70744672163
 20
-855.5385500559023
 10
1280.980902169511
 20
-852.3205913603233
 10
1284.980997331655
 20
-850.8199911995844
 10
1284.980997331655
 20
-850.8199911995844
 10
1270.573790732735
 20
-850.8041859014711
 10
1258.896384907715
 20
-858.6020684099376
 10
1258.896384907715
 20
-858.6020684099376
 10
1261.515548594831
 20
-854.700869255973
 10
1262.041187652041
 20
-854.9587214051699
 10
1265.019808976213
 20
-852.5495423929733
 10
1254.299752636834
 20
-852.9017747508933
 10
1242.541062421515
 20
-860.5903749124163
 10
1242.541062421515
 20
-860.5903749124163
 10
1242.626862611269
 20
-857.6365904852755
 10
1245.199965143889
 20
-855.0052341396131
 10
1245.199965143889
 20
-855.0052341396131
 10
1233.835052641542
 20
-856.3030749045693
 10
1219.605316961428
 20
-866.1854504440262
 10
1219.605316961428
 20
-866.1854504440262
 10
1221.226940547698
 20
-861.3264502244874
 10
1228.023218735823
 20
-857.7047790571314
 10
1228.023218735823
 20
-857.7047790571314
 10
1228.023218735823
 20
-857.7047790571314
 10
1213.470603394271
 20
-862.1528415257617
 10
1203.035494000851
 20
-867.9669333312122
 10
1196.968969005557
 20
-871.3465576474846
 10
1177.33743401074
 20
-875.4536772568463
 10
1177.33743401074
 20
-875.4536772568463
 97
        0
 97
        0
 75
     2
 76
     1
 98
        0
  0
SPLINE
  5
5A
330
54
100
AcDbEntity
  8
katman 1
370
     0
100
AcDbSpline
210
0.0
220
0.0
230
1.0
 70
    11
 71
     3
 72
   119
 73
   115
 74
     0
 42
0.0000000001
 43
0.0000000001
 12
1.0
 22
0.0
 32
0.0
 13
1.0
 23
0.0
 33
0.0
 40
0.0
 40
0.0
 40
0.0
 40
0.0
 40
1.0
 40
1.0
 40
1.0
 40
2.0
 40
2.0
 40
2.0
 40
3.0
 40
3.0
 40
3.0
 40
4.0
 40
4.0
 40
4.0
 40
5.0
 40
5.0
 40
5.0
 40
6.0
 40
6.0
 40
6.0
 40
7.0
 40
7.0
 40
7.0
 40
8.0
 40
8.0
 40
8.0
 40
9.0
 40
9.0
 40
9.0
 40
10.0
 40
10.0
 40
10.0
 40
11.0
 40
11.0
 40
11.0
 40
12.0
 40
12.0
 40
12.0
 40
13.0
 40
13.0
 40
13.0
 40
14.0
 40
14.0
 40
14.0
 40
15.0
 40
15.0
 40
15.0
 40
16.0
 40
16.0
 40
16.0
 40
17.0
 40
17.0
 40
17.0
 40
18.0
 40
18.0
 40
18.0
 40
19.0
 40
19.0
 40
19.0
 40
20.0
 40
20.0
 40
20.0
 40
21.0
 40
21.0
 40
21.0
 40
22.0
 40
22.0
 40
22.0
 40
23.0
 40
23.0
 40
23.0
 40
24.0
 40
24.0
 40
24.0
 40
25.0
 40
25.0
 40
25.0
 40
26.0
 40
26.0
 40
26.0
 40
27.0
 40
27.0
 40
27.0
 40
28.0
 40
28.0
 40
28.0
 40
29.0
 40
29.0
 40
29.0
 40
30.0
 40
30.0
 40
30.0
 40
31.0
 40
31.0
 40
31.0
 40
32.0
 40
32.0
 40
32.0
 40
33.0
 40
33.0
 40
33.0
 40
34.0
 40
34.0
 40
34.0
 40
35.0
 40
35.0
 40
35.0
 40
36.0
 40
36.0
 40
36.0
 40
37.0
 40
37.0
 40
37.0
 40
38.0
 40
38.0
 40
38.0
 40
38.0
 10
1177.33743401074
 20
-875.4536772568463
 30
0.0
 10
1177.33743401074
 20
-875.4536772568463
 30
0.0
 10
1183.82437993581
 20
-885.3739855117665
 30
0.0
 10
1184.948362421535
 20
-889.3207942402814
 30
0.0
 10
1186.87886669092
 20
-896.112105048991
 30
0.0
 10
1191.103397086259
 20
-904.0544931401928
 30
0.0
 10
1191.103397086259
 20
-904.0544931401928
 30
0.0
 10
1191.103397086259
 20
-904.0544931401928
 30
0.0
 10
1189.776203624802
 20
-899.7012624602303
 30
0.0
 10
1191.12913714318
 20
-896.9944922635823
 30
0.0
 10
1191.12913714318
 20
-896.9944922635823
 30
0.0
 10
1192.945391686208
 20
-907.0692408600553
 30
0.0
 10
1197.152310463647
 20
-912.3617578278136
 30
0.0
 10
1197.152310463647
 20
-912.3617578278136
 30
0.0
 10
1197.176695780745
 20
-910.1874003875637
 30
0.0
 10
1198.377446857296
 20
-908.9134933597434
 30
0.0
 10
1198.377446857296
 20
-908.9134933597434
 30
0.0
 10
1200.074935874516
 20
-917.0441902884486
 30
0.0
 10
1204.410103356644
 20
-921.6697236758864
 30
0.0
 10
1204.171669145122
 20
-919.4185976448061
 30
0.0
 10
1203.845176844126
 20
-919.3061542382384
 30
0.0
 10
1204.378492760414
 20
-916.5826755835824
 30
0.0
 10
1204.378492760414
 20
-916.5826755835824
 30
0.0
 10
1206.003728986259
 20
-924.7215009513166
 30
0.0
 10
1212.029160206475
 20
-930.7356426728675
 30
0.0
 10
1212.029160206475
 20
-930.7356426728675
 30
0.0
 10
1210.984655791253
 20
-928.437100747451
 30
0.0
 10
1211.795693374363
 20
-926.5598829117043
 30
0.0
 10
1211.795693374363
 20
-926.5598829117043
 30
0.0
 10
1214.086558440686
 20
-932.7903314274154
 30
0.0
 10
1220.886449268382
 20
-938.5701031569624
 30
0.0
 10
1220.886449268382
 20
-938.5701031569624
 30
0.0
 10
1220.377067089223
 20
-936.833778264383
 30
0.0
 10
1220.646660317027
 20
-935.2821495697481
 30
0.0
 10
1220.646660317027
 20
-935.2821495697481
 30
0.0
 10
1224.12292274175
 20
-941.2755186137802
 30
0.0
 10
1230.975196843174
 20
-946.4063699608414
 30
0.0
 10
1230.975196843174
 20
-946.4063699608414
 30
0.0
 10
1229.265515167412
 20
-943.9425497751727
 30
0.0
 10
1229.419052349069
 20
-942.132165771447
 30
0.0
 10
1229.419052349069
 20
-942.132165771447
 30
0.0
 10
1234.203541877519
 20
-948.7392319621649
 30
0.0
 10
1239.686625582512
 20
-951.8966789449805
 30
0.0
 10
1239.686625582512
 20
-951.8966789449805
 30
0.0
 10
1238.581609454519
 20
-950.2276394643541
 30
0.0
 10
1238.53735461981
 20
-947.9254848993714
 30
0.0
 10
1238.53735461981
 20
-947.9254848993714
 30
0.0
 10
1243.220690240327
 20
-953.5770079242429
 30
0.0
 10
1249.259668858918
 20
-957.6701285552772
 30
0.0
 10
1249.259668858918
 20
-957.6701285552772
 30
0.0
 10
1245.856562385452
 20
-953.0333056691925
 30
0.0
 10
1246.992285949778
 20
-951.8939694652981
 30
0.0
 10
1246.992285949778
 20
-951.8939694652981
 30
0.0
 10
1248.445018636241
 20
-956.6287851996804
 30
0.0
 10
1253.852688490231
 20
-958.0490041300163
 30
0.0
 10
1258.816003677312
 20
-959.3554249139524
 30
0.0
 10
1266.025025936135
 20
-964.3797033937553
 30
0.0
 10
1267.5730419912
 20
-965.6892852373167
 30
0.0
 10
1266.262105407801
 20
-964.1435270819729
 30
0.0
 10
1261.237826928009
 20
-956.9331500833232
 30
0.0
 10
1259.932760883916
 20
-951.9662222566658
 30
0.0
 10
1258.511638793672
 20
-946.5635197820775
 30
0.0
 10
1253.780435698864
 20
-945.1094323557809
 30
0.0
 10
1253.780435698864
 20
-945.1094323557809
 30
0.0
 10
1254.914804523356
 20
-943.9705477318294
 30
0.0
 10
1259.553885309171
 20
-947.3768152649172
 30
0.0
 10
1259.553885309171
 20
-947.3768152649172
 30
0.0
 10
1255.460764678133
 20
-941.3360303265508
 30
0.0
 10
1249.806983753533
 20
-936.6535978659085
 30
0.0
 10
1249.806983753533
 20
-936.6535978659085
 30
0.0
 10
1252.110041478416
 20
-936.6978527006195
 30
0.0
 10
1253.780435698864
 20
-937.8015140887837
 30
0.0
 10
1253.780435698864
 20
-937.8015140887837
 30
0.0
 10
1250.623891875945
 20
-932.3197851236255
 30
0.0
 10
1244.016825685227
 20
-927.5352955951839
 30
0.0
 10
1244.016825685227
 20
-927.5352955951839
 30
0.0
 10
1245.826306529067
 20
-927.3817584135286
 30
0.0
 10
1248.289223554842
 20
-929.0891821895584
 30
0.0
 10
1248.289223554842
 20
-929.0891821895584
 30
0.0
 10
1243.160630107508
 20
-922.2391659878576
 30
0.0
 10
1237.167261063478
 20
-918.7642583029683
 30
0.0
 10
1237.167261063478
 20
-918.7642583029683
 30
0.0
 10
1238.717535018284
 20
-918.4924071754449
 30
0.0
 10
1240.452505171026
 20
-919.0013377746454
 30
0.0
 10
1240.452505171026
 20
-919.0013377746454
 30
0.0
 10
1234.674539761258
 20
-912.2028016868007
 30
0.0
 10
1228.444091245539
 20
-909.9146461001455
 30
0.0
 10
1228.444091245539
 20
-909.9146461001455
 30
0.0
 10
1230.320857501345
 20
-909.1008990373521
 30
0.0
 10
1232.618496266867
 20
-910.1445002926866
 30
0.0
 10
1232.618496266867
 20
-910.1445002926866
 30
0.0
 10
1226.605257705207
 20
-904.1199722323763
 30
0.0
 10
1218.466432337467
 20
-902.4960907463665
 30
0.0
 10
1218.466432337467
 20
-902.4960907463665
 30
0.0
 10
1221.190814152022
 20
-901.9614200902324
 30
0.0
 10
1221.303709138527
 20
-902.2861060714495
 30
0.0
 10
1223.554835169616
 20
-902.5254434428571
 30
0.0
 10
1218.927043882453
 20
-898.1916307005777
 30
0.0
 10
1210.797250113625
 20
-896.4936901034125
 30
0.0
 10
1210.797250113625
 20
-896.4936901034125
 30
0.0
 10
1212.069802401613
 20
-895.2942937666867
 30
0.0
 10
1214.245514581704
 20
-895.2699084495998
 30
0.0
 10
1214.245514581704
 20
-895.2699084495998
 30
0.0
 10
1208.952997613949
 20
-891.0638928320532
 30
0.0
 10
1198.875991117744
 20
-889.2453803892913
 30
0.0
 10
1198.875991117744
 20
-889.2453803892913
 30
0.0
 10
1201.585922374015
 20
-887.8924468709092
 30
0.0
 10
1205.938249894094
 20
-889.2196403323651
 30
0.0
 10
1205.938249894094
 20
-889.2196403323651
 30
0.0
 10
1205.938249894094
 20
-889.2196403323651
 30
0.0
 10
1197.997216542728
 20
-884.9973678367596
 30
0.0
 10
1191.208163633743
 20
-883.0646056676487
 30
0.0
 10
1187.25774226565
 20
-881.9433326615908
 30
0.0
 10
1177.33743401074
 20
-875.4536772568463
 30
0.0
 10
1177.33743401074
 20
-875.4536772568463
 30
0.0
  0
HATCH
  5
5B
330
54
100
AcDbEntity
  8
katman 1
 62
    96
420
    35584
100
AcDbHatch
 10
0.0
 20
0.0
 30
0.0
210
0.0
220
0.0
230
1.0
  2
SOLID
 70
     1
 71
     0
 91
        1
 92
        1
 93
        1
 72
     4
 94
        3
 73
     0
 74
     1
 95
      119
 96
      115
 40
0.0
 40
0.0
 40
0.0
 40
0.0
 40
1.0
 40
1.0
 40
1.0
 40
2.0
 40
2.0
 40
2.0
 40
3.0
 40
3.0
 40
3.0
 40
4.0
 40
4.0
 40
4.0
 40
5.0
 40
5.0
 40
5.0
 40
6.0
 40
6.0
 40
6.0
 40
7.0
 40
7.0
 40
7.0
 40
8.0
 40
8.0
 40
8.0
 40
9.0
 40
9.0
 40
9.0
 40
10.0
 40
10.0
 40
10.0
 40
11.0
 40
11.0
 40
11.0
 40
12.0
 40
12.0
 40
12.0
 40
13.0
 40
13.0
 40
13.0
 40
14.0
 40
14.0
 40
14.0
 40
15.0
 40
15.0
 40
15.0
 40
16.0
 40
16.0
 40
16.0
 40
17.0
 40
17.0
 40
17.0
 40
18.0
 40
18.0
 40
18.0
 40
19.0
 40
19.0
 40
19.0
 40
20.0
 40
20.0
 40
20.0
 40
21.0
 40
21.0
 40
21.0
 40
22.0
 40
22.0
 40
22.0
 40
23.0
 40
23.0
 40
23.0
 40
24.0
 40
24.0
 40
24.0
 40
25.0
 40
25.0
 40
25.0
 40
26.0
 40
26.0
 40
26.0
 40
27.0
 40
27.0
 40
27.0
 40
28.0
 40
28.0
 40
28.0
 40
29.0
 40
29.0
 40
29.0
 40
30.0
 40
30.0
 40
30.0
 40
31.0
 40
31.0
 40
31.0
 40
32.0
 40
32.0
 40
32.0
 40
33.0
 40
33.0
 40
33.0
 40
34.0
 40
34.0
 40
34.0
 40
35.0
 40
35.0
 40
35.0
 40
36.0
 40
36.0
 40
36.0
 40
37.0
 40
37.0
 40
37.0
 40
38.0
 40
38.0
 40
38.0
 40
38.0
 10
1177.33743401074
 20
-875.4536772568463
 10
1177.33743401074
 20
-875.4536772568463
 10
1183.82437993581
 20
-885.3739855117665
 10
1184.948362421535
 20
-889.3207942402814
 10
1186.87886669092
 20
-896.112105048991
 10
1191.103397086259
 20
-904.0544931401928
 10
1191.103397086259
 20
-904.0544931401928
 10
1191.103397086259
 20
-904.0544931401928
 10
1189.776203624802
 20
-899.7012624602303
 10
1191.12913714318
 20
-896.9944922635823
 10
1191.12913714318
 20
-896.9944922635823
 10
1192.945391686208
 20
-907.0692408600553
 10
1197.152310463647
 20
-912.3617578278136
 10
1197.152310463647
 20
-912.3617578278136
 10
1197.176695780745
 20
-910.1874003875637
 10
1198.377446857296
 20
-908.9134933597434
 10
1198.377446857296
 20
-908.9134933597434
 10
1200.074935874516
 20
-917.0441902884486
 10
1204.410103356644
 20
-921.6697236758864
 10
1204.171669145122
 20
-919.4185976448061
 10
1203.845176844126
 20
-919.3061542382384
 10
1204.378492760414
 20
-916.5826755835824
 10
1204.378492760414
 20
-916.5826755835824
 10
1206.003728986259
 20
-924.7215009513166
 10
1212.029160206475
 20
-930.7356426728675
 10
1212.029160206475
 20
-930.7356426728675
 10
1210.984655791253
 20
-928.437100747451
 10
1211.795693374363
 20
-926.5598829117043
 10
1211.795693374363
 20
-926.5598829117043
 10
1214.086558440686
 20
-932.7903314274154
 10
1220.886449268382
 20
-938.5701031569624
 10
1220.886449268382
 20
-938.5701031569624
 10
1220.377067089223
 20
-936.833778264383
 10
1220.646660317027
 20
-935.2821495697481
 10
1220.646660317027
 20
-935.2821495697481
 10
1224.12292274175
 20
-941.2755186137802
 10
1230.975196843174
 20
-946.4063699608414
 10
1230.975196843174
 20
-946.4063699608414
 10
1229.265515167412
 20
-943.9425497751727
 10
1229.419052349069
 20
-942.132165771447
 10
1229.419052349069
 20
-942.132165771447
 10
1234.203541877519
 20
-948.7392319621649
 10
1239.686625582512
 20
-951.8966789449805
 10
1239.686625582512
 20
-951.8966789449805
 10
1238.581609454519
 20
-950.2276394643541
 10
1238.53735461981
 20
-947.9254848993714
 10
1238.53735461981
 20
-947.9254848993714
 10
1243.220690240327
 20
-953.5770079242429
 10
1249.259668858918
 20
-957.6701285552772
 10
1249.259668858918
 20
-957.6701285552772
 10
1245.856562385452
 20
-953.0333056691925
 10
1246.992285949778
 20
-951.8939694652981
 10
1246.992285949778
 20
-951.8939694652981
 10
1248.445018636241
 20
-956.6287851996804
 10
1253.852688490231
 20
-958.0490041300163
 10
1258.816003677312
 20
-959.3554249139524
 10
1266.025025936135
 20
-964.3797033937553
 10
1267.5730419912
 20
-965.6892852373167
 10
1266.262105407801
 20
-964.1435270819729
 10
1261.237826928009
 20
-956.9331500833232
 10
1259.932760883916
 20
-951.9662222566658
 10
1258.511638793672
 20
-946.5635197820775
 10
1253.780435698864
 20
-945.1094323557809
 10
1253.780435698864
 20
-945.1094323557809
 10
1254.914804523356
 20
-943.9705477318294
 10
1259.553885309171
 20
-947.3768152649172
 10
1259.553885309171
 20
-947.3768152649172
 10
1255.460764678133
 20
-941.3360303265508
 10
1249.806983753533
 20
-936.6535978659085
 10
1249.806983753533
 20
-936.6535978659085
 10
1252.110041478416
 20
-936.6978527006195
 10
1253.780435698864
 20
-937.8015140887837
 10
1253.780435698864
 20
-937.8015140887837
 10
1250.623891875945
 20
-932.3197851236255
 10
1244.016825685227
 20
-927.5352955951839
 10
1244.016825685227
 20
-927.5352955951839
 10
1245.826306529067
 20
-927.3817584135286
 10
1248.289223554842
 20
-929.0891821895584
 10
1248.289223554842
 20
-929.0891821895584
 10
1243.160630107508
 20
-922.2391659878576
 10
1237.167261063478
 20
-918.7642583029683
 10
1237.167261063478
 20
-918.7642583029683
 10
1238.717535018284
 20
-918.4924071754449
 10
1240.452505171026
 20
-919.0013377746454
 10
1240.452505171026
 20
-919.0013377746454
 10
1234.674539761258
 20
-912.2028016868007
 10
1228.444091245539
 20
-909.9146461001455
 10
1228.444091245539
 20
-909.9146461001455
 10
1230.320857501345
 20
-909.1008990373521
 10
1232.618496266867
 20
-910.1445002926866
 10
1232.618496266867
 20
-910.1445002926866
 10
1226.605257705207
 20
-904.1199722323763
 10
1218.466432337467
 20
-902.4960907463665
 10
1218.466432337467
 20
-902.4960907463665
 10
1221.190814152022
 20
-901.9614200902324
 10
1221.303709138527
 20
-902.2861060714495
 10
1223.554835169616
 20
-902.5254434428571
 10
1218.927043882453
 20
-898.1916307005777
 10
1210.797250113625
 20
-896.4936901034125
 10
1210.797250113625
 20
-896.4936901034125
 10
1212.069802401613
 20
-895.2942937666867
 10
1214.245514581704
 20
-895.2699084495998
 10
1214.245514581704
 20
-895.2699084495998
 10
1208.952997613949
 20
-891.0638928320532
 10
1198.875991117744
 20
-889.2453803892913
 10
1198.875991117744
 20
-889.2453803892913
 10
1201.585922374015
 20
-887.8924468709092
 10
1205.938249894094
 20
-889.2196403323651
 10
1205.938249894094
 20
-889.2196403323651
 10
1205.938249894094
 20
-889.2196403323651
 10
1197.997216542728
 20
-884.9973678367596
 10
1191.208163633743
 20
-883.0646056676487
 10
1187.25774226565
 20
-881.9433326615908
 10
1177.33743401074
 20
-875.4536772568463
 10
1177.33743401074
 20
-875.4536772568463
 97
        0
 97
        0
 75
     2
 76
     1
 98
        0
  0
ENDBLK
  5
57
330
54
100
AcDbEntity
  8
0
100
AcDbBlockEnd
  0
BLOCK
  5
5E
330
5C
100
AcDbEntity
  8
0
100
AcDbBlockBegin
  2
block 5
 70
     0
 10
0.0
 20
0.0
 30
0.0
  3
block 5
  1

  0
SPLINE
  5
60
330
5C
100
AcDbEntity
  8
katman 1
370
     0
100
AcDbSpline
210
0.0
220
0.0
230
1.0
 70
    11
 71
     3
 72
   119
 73
   115
 74
     0
 42
0.0000000001
 43
0.0000000001
 12
1.0
 22
0.0
 32
0.0
 13
1.0
 23
0.0
 33
0.0
 40
0.0
 40
0.0
 40
0.0
 40
0.0
 40
1.0
 40
1.0
 40
1.0
 40
2.0
 40
2.0
 40
2.0
 40
3.0
 40
3.0
 40
3.0
 40
4.0
 40
4.0
 40
4.0
 40
5.0
 40
5.0
 40
5.0
 40
6.0
 40
6.0
 40
6.0
 40
7.0
 40
7.0
 40
7.0
 40
8.0
 40
8.0
 40
8.0
 40
9.0
 40
9.0
 40
9.0
 40
10.0
 40
10.0
 40
10.0
 40
11.0
 40
11.0
 40
11.0
 40
12.0
 40
12.0
 40
12.0
 40
13.0
 40
13.0
 40
13.0
 40
14.0
 40
14.0
 40
14.0
 40
15.0
 40
15.0
 40
15.0
 40
16.0
 40
16.0
 40
16.0
 40
17.0
 40
17.0
 40
17.0
 40
18.0
 40
18.0
 40
18.0
 40
19.0
 40
19.0
 40
19.0
 40
20.0
 40
20.0
 40
20.0
 40
21.0
 40
21.0
 40
21.0
 40
22.0
 40
22.0
 40
22.0
 40
23.0
 40
23.0
 40
23.0
 40
24.0
 40
24.0
 40
24.0
 40
25.0
 40
25.0
 40
25.0
 40
26.0
 40
26.0
 40
26.0
 40
27.0
 40
27.0
 40
27.0
 40
28.0
 40
28.0
 40
28.0
 40
29.0
 40
29.0
 40
29.0
 40
30.0
 40
30.0
 40
30.0
 40
31.0
 40
31.0
 40
31.0
 40
32.0
 40
32.0
 40
32.0
 40
33.0
 40
33.0
 40
33.0
 40
34.0
 40
34.0
 40
34.0
 40
35.0
 40
35.0
 40
35.0
 40
36.0
 40
36.0
 40
36.0
 40
37.0
 40
37.0
 40
37.0
 40
38.0
 40
38.0
 40
38.0
 40
38.0
 10
1177.33743401074
 20
-875.4536772568463
 30
0.0
 10
1177.33743401074
 20
-875.4536772568463
 30
0.0
 10
1157.704995856027
 20
-879.559442126374
 30
0.0
 10
1151.638470860729
 20
-882.9404211824831
 30
0.0
 10
1141.203361467309
 20
-888.755867727762
 30
0.0
 10
1126.650294545823
 20
-893.2043817763515
 30
0.0
 10
1126.650294545823
 20
-893.2043817763515
 30
0.0
 10
1126.650294545823
 20
-893.2043817763515
 30
0.0
 10
1133.445669574041
 20
-889.5809042892106
 30
0.0
 10
1135.067744740267
 20
-884.7241619693987
 30
0.0
 10
1135.067744740267
 20
-884.7241619693987
 30
0.0
 10
1120.839363799987
 20
-894.6051827690117
 30
0.0
 10
1109.473548137754
 20
-895.902120374074
 30
0.0
 10
1109.473548137754
 20
-895.902120374074
 30
0.0
 10
1112.04665067036
 20
-893.2698608685268
 30
0.0
 10
1112.131547700224
 20
-890.3129153817608
 30
0.0
 10
1112.131547700224
 20
-890.3129153817608
 30
0.0
 10
1100.375115384646
 20
-898.0078376625261
 30
0.0
 10
1089.653704305423
 20
-898.3578121207247
 30
0.0
 10
1092.631422469702
 20
-895.9472783686797
 30
0.0
 10
1093.158867846691
 20
-896.2064852577132
 30
0.0
 10
1095.780741013485
 20
-892.3061892636433
 30
0.0
 10
1095.780741013485
 20
-892.3061892636433
 30
0.0
 10
1084.098819389015
 20
-900.1022654523313
 30
0.0
 10
1069.69341910987
 20
-900.086911734159
 30
0.0
 10
1069.69341910987
 20
-900.086911734159
 30
0.0
 10
1073.693514272021
 20
-898.5890210531034
 30
0.0
 10
1074.967421299843
 20
-895.3710623575171
 30
0.0
 10
1074.967421299843
 20
-895.3710623575171
 30
0.0
 10
1064.771649277831
 20
-900.086911734159
 30
0.0
 10
1049.726360215143
 20
-898.8631300803572
 30
0.0
 10
1049.726360215143
 20
-898.8631300803572
 30
0.0
 10
1052.411002994435
 20
-897.3954952556778
 30
0.0
 10
1053.942762171442
 20
-895.2175251758599
 30
0.0
 10
1053.942762171442
 20
-895.2175251758599
 30
0.0
 10
1042.616233964505
 20
-898.2309181558758
 30
0.0
 10
1028.278570677285
 20
-896.1694557021365
 30
0.0
 10
1028.278570677285
 20
-896.1694557021365
 30
0.0
 10
1033.26988382102
 20
-895.2685537097641
 30
0.0
 10
1035.252319784209
 20
-892.9176285106068
 30
0.0
 10
1035.252319784209
 20
-892.9176285106068
 30
0.0
 10
1021.624088592231
 20
-895.1001143898866
 30
0.0
 10
1011.287423627055
 20
-892.3179303422494
 30
0.0
 10
1011.287423627055
 20
-892.3179303422494
 30
0.0
 10
1014.607890970394
 20
-891.6428183228909
 30
0.0
 10
1017.413105595271
 20
-888.9360481262447
 30
0.0
 10
1017.413105595271
 20
-888.9360481262447
 30
0.0
 10
1005.048846672307
 20
-890.0993180672776
 30
0.0
 10
992.9261830204741
 20
-887.7691655456383
 30
0.0
 10
992.9261830204741
 20
-887.7691655456383
 30
0.0
 10
1002.545739031331
 20
-886.2920475420924
 30
0.0
 10
1002.546642191224
 20
-883.5739878467939
 30
0.0
 10
1002.546642191224
 20
-883.5739878467939
 30
0.0
 10
995.1470531951763
 20
-887.4982175780078
 30
0.0
 10
986.9784235509997
 20
-882.7313396674599
 30
0.0
 10
979.474068007471
 20
-878.3532720904586
 30
0.0
 10
964.8410714355232
 20
-875.738624202806
 30
0.0
 10
961.4235144037793
 20
-875.4536772568463
 30
0.0
 10
964.8410714355232
 20
-875.1700850507177
 30
0.0
 10
979.4754227473059
 20
-872.5554371630742
 30
0.0
 10
986.9793267108953
 20
-868.1760148462354
 30
0.0
 10
995.1470531951763
 20
-863.4086853557365
 30
0.0
 10
1002.546642191224
 20
-867.3324635070003
 30
0.0
 10
1002.546642191224
 20
-867.3324635070003
 30
0.0
 10
1002.547996931062
 20
-864.6153069715938
 30
0.0
 10
992.9252798605876
 20
-863.1390921279435
 30
0.0
 10
992.9252798605876
 20
-863.1390921279435
 30
0.0
 10
1005.048846672307
 20
-860.8089396063042
 30
0.0
 10
1017.415815074944
 20
-861.9713063874506
 30
0.0
 10
1017.415815074944
 20
-861.9713063874506
 30
0.0
 10
1014.606536230547
 20
-859.2681488303624
 30
0.0
 10
1011.288778366892
 20
-858.5894241714477
 30
0.0
 10
1011.288778366892
 20
-858.5894241714477
 30
0.0
 10
1021.624088592231
 20
-855.809498023531
 30
0.0
 10
1035.252319784209
 20
-857.9897260030884
 30
0.0
 10
1035.252319784209
 20
-857.9897260030884
 30
0.0
 10
1033.271238560867
 20
-855.6410587036535
 30
0.0
 10
1028.278570677285
 20
-854.7392535513873
 30
0.0
 10
1028.278570677285
 20
-854.7392535513873
 30
0.0
 10
1042.614879224671
 20
-852.6759847778694
 30
0.0
 10
1053.942762171442
 20
-855.6907324977228
 30
0.0
 10
1053.942762171442
 20
-855.6907324977228
 30
0.0
 10
1052.411002994435
 20
-853.5105045181726
 30
0.0
 10
1049.727714954981
 20
-852.0442244333381
 30
0.0
 10
1049.727714954981
 20
-852.0442244333381
 30
0.0
 10
1064.771649277831
 20
-850.821345939421
 30
0.0
 10
1074.967421299843
 20
-855.5385500559023
 30
0.0
 10
1074.967421299843
 20
-855.5385500559023
 30
0.0
 10
1073.692611112136
 20
-852.3205913603233
 30
0.0
 10
1069.69341910987
 20
-850.8199911995844
 30
0.0
 10
1069.69341910987
 20
-850.8199911995844
 30
0.0
 10
1084.098819389015
 20
-850.8041859014711
 30
0.0
 10
1095.778483113765
 20
-858.6020684099376
 30
0.0
 10
1095.778483113765
 20
-858.6020684099376
 30
0.0
 10
1093.158867846691
 20
-854.700869255973
 30
0.0
 10
1092.632325629602
 20
-854.9587214051699
 30
0.0
 10
1089.653704305423
 20
-852.5495423929733
 30
0.0
 10
1100.375115384646
 20
-852.9017747508933
 30
0.0
 10
1112.131547700224
 20
-860.5903749124163
 30
0.0
 10
1112.131547700224
 20
-860.5903749124163
 30
0.0
 10
1112.04665067036
 20
-857.6365904852755
 30
0.0
 10
1109.473548137754
 20
-855.0052341396131
 30
0.0
 10
1109.473548137754
 20
-855.0052341396131
 30
0.0
 10
1120.839363799987
 20
-856.3030749045693
 30
0.0
 10
1135.067744740267
 20
-866.1854504440262
 30
0.0
 10
1135.067744740267
 20
-866.1854504440262
 30
0.0
 10
1133.445669574041
 20
-861.3264502244874
 30
0.0
 10
1126.650294545823
 20
-857.7047790571314
 30
0.0
 10
1126.650294545823
 20
-857.7047790571314
 30
0.0
 10
1126.650294545823
 20
-857.7047790571314
 30
0.0
 10
1141.203361467309
 20
-862.1528415257617
 30
0.0
 10
1151.638470860729
 20
-867.9669333312122
 30
0.0
 10
1157.704995856027
 20
-871.3465576474846
 30
0.0
 10
1177.33743401074
 20
-875.4536772568463
 30
0.0
 10
1177.33743401074
 20
-875.4536772568463
 30
0.0
  0
HATCH
  5
61
330
5C
100
AcDbEntity
  8
katman 1
 62
    96
420
    35584
100
AcDbHatch
 10
0.0
 20
0.0
 30
0.0
210
0.0
220
0.0
230
1.0
  2
SOLID
 70
     1
 71
     0
 91
        1
 92
        1
 93
        1
 72
     4
 94
        3
 73
     0
 74
     1
 95
      119
 96
      115
 40
0.0
 40
0.0
 40
0.0
 40
0.0
 40
1.0
 40
1.0
 40
1.0
 40
2.0
 40
2.0
 40
2.0
 40
3.0
 40
3.0
 40
3.0
 40
4.0
 40
4.0
 40
4.0
 40
5.0
 40
5.0
 40
5.0
 40
6.0
 40
6.0
 40
6.0
 40
7.0
 40
7.0
 40
7.0
 40
8.0
 40
8.0
 40
8.0
 40
9.0
 40
9.0
 40
9.0
 40
10.0
 40
10.0
 40
10.0
 40
11.0
 40
11.0
 40
11.0
 40
12.0
 40
12.0
 40
12.0
 40
13.0
 40
13.0
 40
13.0
 40
14.0
 40
14.0
 40
14.0
 40
15.0
 40
15.0
 40
15.0
 40
16.0
 40
16.0
 40
16.0
 40
17.0
 40
17.0
 40
17.0
 40
18.0
 40
18.0
 40
18.0
 40
19.0
 40
19.0
 40
19.0
 40
20.0
 40
20.0
 40
20.0
 40
21.0
 40
21.0
 40
21.0
 40
22.0
 40
22.0
 40
22.0
 40
23.0
 40
23.0
 40
23.0
 40
24.0
 40
24.0
 40
24.0
 40
25.0
 40
25.0
 40
25.0
 40
26.0
 40
26.0
 40
26.0
 40
27.0
 40
27.0
 40
27.0
 40
28.0
 40
28.0
 40
28.0
 40
29.0
 40
29.0
 40
29.0
 40
30.0
 40
30.0
 40
30.0
 40
31.0
 40
31.0
 40
31.0
 40
32.0
 40
32.0
 40
32.0
 40
33.0
 40
33.0
 40
33.0
 40
34.0
 40
34.0
 40
34.0
 40
35.0
 40
35.0
 40
35.0
 40
36.0
 40
36.0
 40
36.0
 40
37.0
 40
37.0
 40
37.0
 40
38.0
 40
38.0
 40
38.0
 40
38.0
 10
1177.33743401074
 20
-875.4536772568463
 10
1177.33743401074
 20
-875.4536772568463
 10
1157.704995856027
 20
-879.559442126374
 10
1151.638470860729
 20
-882.9404211824831
 10
1141.203361467309
 20
-888.755867727762
 10
1126.650294545823
 20
-893.2043817763515
 10
1126.650294545823
 20
-893.2043817763515
 10
1126.650294545823
 20
-893.2043817763515
 10
1133.445669574041
 20
-889.5809042892106
 10
1135.067744740267
 20
-884.7241619693987
 10
1135.067744740267
 20
-884.7241619693987
 10
1120.839363799987
 20
-894.6051827690117
 10
1109.473548137754
 20
-895.902120374074
 10
1109.473548137754
 20
-895.902120374074
 10
1112.04665067036
 20
-893.2698608685268
 10
1112.131547700224
 20
-890.3129153817608
 10
1112.131547700224
 20
-890.3129153817608
 10
1100.375115384646
 20
-898.0078376625261
 10
1089.653704305423
 20
-898.3578121207247
 10
1092.631422469702
 20
-895.9472783686797
 10
1093.158867846691
 20
-896.2064852577132
 10
1095.780741013485
 20
-892.3061892636433
 10
1095.780741013485
 20
-892.3061892636433
 10
1084.098819389015
 20
-900.1022654523313
 10
1069.69341910987
 20
-900.086911734159
 10
1069.69341910987
 20
-900.086911734159
 10
1073.693514272021
 20
-898.5890210531034
 10
1074.967421299843
 20
-895.3710623575171
 10
1074.967421299843
 20
-895.3710623575171
 10
1064.771649277831
 20
-900.086911734159
 10
1049.726360215143
 20
-898.8631300803572
 10
1049.726360215143
 20
-898.8631300803572
 10
1052.411002994435
 20
-897.3954952556778
 10
1053.942762171442
 20
-895.2175251758599
 10
1053.942762171442
 20
-895.2175251758599
 10
1042.616233964505
 20
-898.2309181558758
 10
1028.278570677285
 20
-896.1694557021365
 10
1028.278570677285
 20
-896.1694557021365
 10
1033.26988382102
 20
-895.2685537097641
 10
1035.252319784209
 20
-892.9176285106068
 10
1035.252319784209
 20
-892.9176285106068
 10
1021.624088592231
 20
-895.1001143898866
 10
1011.287423627055
 20
-892.3179303422494
 10
1011.287423627055
 20
-892.3179303422494
 10
1014.607890970394
 20
-891.6428183228909
 10
1017.413105595271
 20
-888.9360481262447
 10
1017.413105595271
 20
-888.9360481262447
 10
1005.048846672307
 20
-890.0993180672776
 10
992.9261830204741
 20
-887.7691655456383
 10
992.9261830204741
 20
-887.7691655456383
 10
1002.545739031331
 20
-886.2920475420924
 10
1002.546642191224
 20
-883.5739878467939
 10
1002.546642191224
 20
-883.5739878467939
 10
995.1470531951763
 20
-887.4982175780078
 10
986.9784235509997
 20
-882.7313396674599
 10
979.474068007471
 20
-878.3532720904586
 10
964.8410714355232
 20
-875.738624202806
 10
961.4235144037793
 20
-875.4536772568463
 10
964.8410714355232
 20
-875.1700850507177
 10
979.4754227473059
 20
-872.5554371630742
 10
986.9793267108953
 20
-868.1760148462354
 10
995.1470531951763
 20
-863.4086853557365
 10
1002.546642191224
 20
-867.3324635070003
 10
1002.546642191224
 20
-867.3324635070003
 10
1002.547996931062
 20
-864.6153069715938
 10
992.9252798605876
 20
-863.1390921279435
 10
992.9252798605876
 20
-863.1390921279435
 10
1005.048846672307
 20
-860.8089396063042
 10
1017.415815074944
 20
-861.9713063874506
 10
1017.415815074944
 20
-861.9713063874506
 10
1014.606536230547
 20
-859.2681488303624
 10
1011.288778366892
 20
-858.5894241714477
 10
1011.288778366892
 20
-858.5894241714477
 10
1021.624088592231
 20
-855.809498023531
 10
1035.252319784209
 20
-857.9897260030884
 10
1035.252319784209
 20
-857.9897260030884
 10
1033.271238560867
 20
-855.6410587036535
 10
1028.278570677285
 20
-854.7392535513873
 10
1028.278570677285
 20
-854.7392535513873
 10
1042.614879224671
 20
-852.6759847778694
 10
1053.942762171442
 20
-855.6907324977228
 10
1053.942762171442
 20
-855.6907324977228
 10
1052.411002994435
 20
-853.5105045181726
 10
1049.727714954981
 20
-852.0442244333381
 10
1049.727714954981
 20
-852.0442244333381
 10
1064.771649277831
 20
-850.821345939421
 10
1074.967421299843
 20
-855.5385500559023
 10
1074.967421299843
 20
-855.5385500559023
 10
1073.692611112136
 20
-852.3205913603233
 10
1069.69341910987
 20
-850.8199911995844
 10
1069.69341910987
 20
-850.8199911995844
 10
1084.098819389015
 20
-850.8041859014711
 10
1095.778483113765
 20
-858.6020684099376
 10
1095.778483113765
 20
-858.6020684099376
 10
1093.158867846691
 20
-854.700869255973
 10
1092.632325629602
 20
-854.9587214051699
 10
1089.653704305423
 20
-852.5495423929733
 10
1100.375115384646
 20
-852.9017747508933
 10
1112.131547700224
 20
-860.5903749124163
 10
1112.131547700224
 20
-860.5903749124163
 10
1112.04665067036
 20
-857.6365904852755
 10
1109.473548137754
 20
-855.0052341396131
 10
1109.473548137754
 20
-855.0052341396131
 10
1120.839363799987
 20
-856.3030749045693
 10
1135.067744740267
 20
-866.1854504440262
 10
1135.067744740267
 20
-866.1854504440262
 10
1133.445669574041
 20
-861.3264502244874
 10
1126.650294545823
 20
-857.7047790571314
 10
1126.650294545823
 20
-857.7047790571314
 10
1126.650294545823
 20
-857.7047790571314
 10
1141.203361467309
 20
-862.1528415257617
 10
1151.638470860729
 20
-867.9669333312122
 10
1157.704995856027
 20
-871.3465576474846
 10
1177.33743401074
 20
-875.4536772568463
 10
1177.33743401074
 20
-875.4536772568463
 97
        0
 97
        0
 75
     2
 76
     1
 98
        0
  0
SPLINE
  5
62
330
5C
100
AcDbEntity
  8
katman 1
370
     0
100
AcDbSpline
210
0.0
220
0.0
230
1.0
 70
    11
 71
     3
 72
   119
 73
   115
 74
     0
 42
0.0000000001
 43
0.0000000001
 12
1.0
 22
0.0
 32
0.0
 13
1.0
 23
0.0
 33
0.0
 40
0.0
 40
0.0
 40
0.0
 40
0.0
 40
1.0
 40
1.0
 40
1.0
 40
2.0
 40
2.0
 40
2.0
 40
3.0
 40
3.0
 40
3.0
 40
4.0
 40
4.0
 40
4.0
 40
5.0
 40
5.0
 40
5.0
 40
6.0
 40
6.0
 40
6.0
 40
7.0
 40
7.0
 40
7.0
 40
8.0
 40
8.0
 40
8.0
 40
9.0
 40
9.0
 40
9.0
 40
10.0
 40
10.0
 40
10.0
 40
11.0
 40
11.0
 40
11.0
 40
12.0
 40
12.0
 40
12.0
 40
13.0
 40
13.0
 40
13.0
 40
14.0
 40
14.0
 40
14.0
 40
15.0
 40
15.0
 40
15.0
 40
16.0
 40
16.0
 40
16.0
 40
17.0
 40
17.0
 40
17.0
 40
18.0
 40
18.0
 40
18.0
 40
19.0
 40
19.0
 40
19.0
 40
20.0
 40
20.0
 40
20.0
 40
21.0
 40
21.0
 40
21.0
 40
22.0
 40
22.0
 40
22.0
 40
23.0
 40
23.0
 40
23.0
 40
24.0
 40
24.0
 40
24.0
 40
25.0
 40
25.0
 40
25.0
 40
26.0
 40
26.0
 40
26.0
 40
27.0
 40
27.0
 40
27.0
 40
28.0
 40
28.0
 40
28.0
 40
29.0
 40
29.0
 40
29.0
 40
30.0
 40
30.0
 40
30.0
 40
31.0
 40
31.0
 40
31.0
 40
32.0
 40
32.0
 40
32.0
 40
33.0
 40
33.0
 40
33.0
 40
34.0
 40
34.0
 40
34.0
 40
35.0
 40
35.0
 40
35.0
 40
36.0
 40
36.0
 40
36.0
 40
37.0
 40
37.0
 40
37.0
 40
38.0
 40
38.0
 40
38.0
 40
38.0
 10
1177.33743401074
 20
-875.4536772568463
 30
0.0
 10
1177.33743401074
 20
-875.4536772568463
 30
0.0
 10
1170.847778605999
 20
-885.3739855117665
 30
0.0
 10
1169.725150860093
 20
-889.3207942402814
 30
0.0
 10
1167.79600133056
 20
-896.112105048991
 30
0.0
 10
1163.571470935221
 20
-904.0544931401928
 30
0.0
 10
1163.571470935221
 20
-904.0544931401928
 30
0.0
 10
1163.571470935221
 20
-904.0544931401928
 30
0.0
 10
1164.898664396678
 20
-899.7012624602303
 30
0.0
 10
1163.544827718404
 20
-896.9944922635823
 30
0.0
 10
1163.544827718404
 20
-896.9944922635823
 30
0.0
 10
1161.728121595421
 20
-907.0692408600553
 30
0.0
 10
1157.521202817978
 20
-912.3617578278136
 30
0.0
 10
1157.521202817978
 20
-912.3617578278136
 30
0.0
 10
1157.496817500902
 20
-910.1874003875637
 30
0.0
 10
1156.296066424333
 20
-908.9134933597434
 30
0.0
 10
1156.296066424333
 20
-908.9134933597434
 30
0.0
 10
1154.597222667282
 20
-917.0441902884486
 30
0.0
 10
1150.263409925003
 20
-921.6697236758864
 30
0.0
 10
1150.50274729641
 20
-919.4185976448061
 30
0.0
 10
1150.829239597406
 20
-919.3061542382384
 30
0.0
 10
1150.295923681115
 20
-916.5826755835824
 30
0.0
 10
1150.295923681115
 20
-916.5826755835824
 30
0.0
 10
1148.671139035203
 20
-924.7215009513166
 30
0.0
 10
1142.645256235057
 20
-930.7356426728675
 30
0.0
 10
1142.645256235057
 20
-930.7356426728675
 30
0.0
 10
1143.688857490393
 20
-928.437100747451
 30
0.0
 10
1142.87781990728
 20
-926.5598829117043
 30
0.0
 10
1142.87781990728
 20
-926.5598829117043
 30
0.0
 10
1140.587406420895
 20
-932.7903314274154
 30
0.0
 10
1133.788418753098
 20
-938.5701031569624
 30
0.0
 10
1133.788418753098
 20
-938.5701031569624
 30
0.0
 10
1134.297349352299
 20
-936.833778264383
 30
0.0
 10
1134.026401384672
 20
-935.2821495697481
 30
0.0
 10
1134.026401384672
 20
-935.2821495697481
 30
0.0
 10
1130.550590539886
 20
-941.2755186137802
 30
0.0
 10
1123.699671178292
 20
-946.4063699608414
 30
0.0
 10
1123.699671178292
 20
-946.4063699608414
 30
0.0
 10
1125.409352854054
 20
-943.9425497751727
 30
0.0
 10
1125.255815672397
 20
-942.132165771447
 30
0.0
 10
1125.255815672397
 20
-942.132165771447
 30
0.0
 10
1120.469971404116
 20
-948.7392319621649
 30
0.0
 10
1114.987790859017
 20
-951.8966789449805
 30
0.0
 10
1114.987790859017
 20
-951.8966789449805
 30
0.0
 10
1116.093258566962
 20
-950.2276394643541
 30
0.0
 10
1116.135255501944
 20
-947.9254848993714
 30
0.0
 10
1116.135255501944
 20
-947.9254848993714
 30
0.0
 10
1111.454177781136
 20
-953.5770079242429
 30
0.0
 10
1105.414296002669
 20
-957.6701285552772
 30
0.0
 10
1105.414296002669
 20
-957.6701285552772
 30
0.0
 10
1108.816950896184
 20
-953.0333056691925
 30
0.0
 10
1107.682582071702
 20
-951.8939694652981
 30
0.0
 10
1107.682582071702
 20
-951.8939694652981
 30
0.0
 10
1106.229849385243
 20
-956.6287851996804
 30
0.0
 10
1100.82353427108
 20
-958.0490041300163
 30
0.0
 10
1095.857509604317
 20
-959.3554249139524
 30
0.0
 10
1088.648487345512
 20
-964.3797033937553
 30
0.0
 10
1087.101826030263
 20
-965.6892852373167
 30
0.0
 10
1088.410504713938
 20
-964.1435270819729
 30
0.0
 10
1093.436589513523
 20
-956.9331500833232
 30
0.0
 10
1094.740752397727
 20
-951.9662222566658
 30
0.0
 10
1096.163229227794
 20
-946.5635197820775
 30
0.0
 10
1100.894432322606
 20
-945.1094323557809
 30
0.0
 10
1100.894432322606
 20
-945.1094323557809
 30
0.0
 10
1099.75645085856
 20
-943.9705477318294
 30
0.0
 10
1095.120982712309
 20
-947.3768152649172
 30
0.0
 10
1095.120982712309
 20
-947.3768152649172
 30
0.0
 10
1099.212748603502
 20
-941.3360303265508
 30
0.0
 10
1104.866529528095
 20
-936.6535978659085
 30
0.0
 10
1104.866529528095
 20
-936.6535978659085
 30
0.0
 10
1102.562117063389
 20
-936.6978527006195
 30
0.0
 10
1100.894432322606
 20
-937.8015140887837
 30
0.0
 10
1100.894432322606
 20
-937.8015140887837
 30
0.0
 10
1104.049621405684
 20
-932.3197851236255
 30
0.0
 10
1110.657590756298
 20
-927.5352955951839
 30
0.0
 10
1110.657590756298
 20
-927.5352955951839
 30
0.0
 10
1108.847206752573
 20
-927.3817584135286
 30
0.0
 10
1106.3833865669
 20
-929.0891821895584
 30
0.0
 10
1106.3833865669
 20
-929.0891821895584
 30
0.0
 10
1111.514237913972
 20
-922.2391659878576
 30
0.0
 10
1117.506252218169
 20
-918.7642583029683
 30
0.0
 10
1117.506252218169
 20
-918.7642583029683
 30
0.0
 10
1115.956429843303
 20
-918.4924071754449
 30
0.0
 10
1114.22100811062
 20
-919.0013377746454
 30
0.0
 10
1114.22100811062
 20
-919.0013377746454
 30
0.0
 10
1119.999425100319
 20
-912.2028016868007
 30
0.0
 10
1126.229873616037
 20
-909.9146461001455
 30
0.0
 10
1126.229873616037
 20
-909.9146461001455
 30
0.0
 10
1124.352655780291
 20
-909.1008990373521
 30
0.0
 10
1122.05546859471
 20
-910.1445002926866
 30
0.0
 10
1122.05546859471
 20
-910.1445002926866
 30
0.0
 10
1128.068255576425
 20
-904.1199722323763
 30
0.0
 10
1136.207080944161
 20
-902.4960907463665
 30
0.0
 10
1136.207080944161
 20
-902.4960907463665
 30
0.0
 10
1133.482699129618
 20
-901.9614200902324
 30
0.0
 10
1133.372513622773
 20
-902.2861060714495
 30
0.0
 10
1131.120032851864
 20
-902.5254434428571
 30
0.0
 10
1135.745566239297
 20
-898.1916307005777
 30
0.0
 10
1143.876263168
 20
-896.4936901034125
 30
0.0
 10
1143.876263168
 20
-896.4936901034125
 30
0.0
 10
1142.603710880019
 20
-895.2942937666867
 30
0.0
 10
1140.429353439777
 20
-895.2699084495998
 30
0.0
 10
1140.429353439777
 20
-895.2699084495998
 30
0.0
 10
1145.72051566769
 20
-891.0638928320532
 30
0.0
 10
1155.797522163899
 20
-889.2453803892913
 30
0.0
 10
1155.797522163899
 20
-889.2453803892913
 30
0.0
 10
1153.089848807351
 20
-887.8924468709092
 30
0.0
 10
1148.733908647715
 20
-889.2196403323651
 30
0.0
 10
1148.733908647715
 20
-889.2196403323651
 30
0.0
 10
1148.733908647715
 20
-889.2196403323651
 30
0.0
 10
1156.675393579018
 20
-884.9973678367596
 30
0.0
 10
1163.466704387742
 20
-883.0646056676487
 30
0.0
 10
1167.415771015978
 20
-881.9433326615908
 30
0.0
 10
1177.33743401074
 20
-875.4536772568463
 30
0.0
 10
1177.33743401074
 20
-875.4536772568463
 30
0.0
  0
HATCH
  5
63
330
5C
100
AcDbEntity
  8
katman 1
 62
    96
420
    35584
100
AcDbHatch
 10
0.0
 20
0.0
 30
0.0
210
0.0
220
0.0
230
1.0
  2
SOLID
 70
     1
 71
     0
 91
        1
 92
        1
 93
        1
 72
     4
 94
        3
 73
     0
 74
     1
 95
      119
 96
      115
 40
0.0
 40
0.0
 40
0.0
 40
0.0
 40
1.0
 40
1.0
 40
1.0
 40
2.0
 40
2.0
 40
2.0
 40
3.0
 40
3.0
 40
3.0
 40
4.0
 40
4.0
 40
4.0
 40
5.0
 40
5.0
 40
5.0
 40
6.0
 40
6.0
 40
6.0
 40
7.0
 40
7.0
 40
7.0
 40
8.0
 40
8.0
 40
8.0
 40
9.0
 40
9.0
 40
9.0
 40
10.0
 40
10.0
 40
10.0
 40
11.0
 40
11.0
 40
11.0
 40
12.0
 40
12.0
 40
12.0
 40
13.0
 40
13.0
 40
13.0
 40
14.0
 40
14.0
 40
14.0
 40
15.0
 40
15.0
 40
15.0
 40
16.0
 40
16.0
 40
16.0
 40
17.0
 40
17.0
 40
17.0
 40
18.0
 40
18.0
 40
18.0
 40
19.0
 40
19.0
 40
19.0
 40
20.0
 40
20.0
 40
20.0
 40
21.0
 40
21.0
 40
21.0
 40
22.0
 40
22.0
 40
22.0
 40
23.0
 40
23.0
 40
23.0
 40
24.0
 40
24.0
 40
24.0
 40
25.0
 40
25.0
 40
25.0
 40
26.0
 40
26.0
 40
26.0
 40
27.0
 40
27.0
 40
27.0
 40
28.0
 40
28.0
 40
28.0
 40
29.0
 40
29.0
 40
29.0
 40
30.0
 40
30.0
 40
30.0
 40
31.0
 40
31.0
 40
31.0
 40
32.0
 40
32.0
 40
32.0
 40
33.0
 40
33.0
 40
33.0
 40
34.0
 40
34.0
 40
34.0
 40
35.0
 40
35.0
 40
35.0
 40
36.0
 40
36.0
 40
36.0
 40
37.0
 40
37.0
 40
37.0
 40
38.0
 40
38.0
 40
38.0
 40
38.0
 10
1177.33743401074
 20
-875.4536772568463
 10
1177.33743401074
 20
-875.4536772568463
 10
1170.847778605999
 20
-885.3739855117665
 10
1169.725150860093
 20
-889.3207942402814
 10
1167.79600133056
 20
-896.112105048991
 10
1163.571470935221
 20
-904.0544931401928
 10
1163.571470935221
 20
-904.0544931401928
 10
1163.571470935221
 20
-904.0544931401928
 10
1164.898664396678
 20
-899.7012624602303
 10
1163.544827718404
 20
-896.9944922635823
 10
1163.544827718404
 20
-896.9944922635823
 10
1161.728121595421
 20
-907.0692408600553
 10
1157.521202817978
 20
-912.3617578278136
 10
1157.521202817978
 20
-912.3617578278136
 10
1157.496817500902
 20
-910.1874003875637
 10
1156.296066424333
 20
-908.9134933597434
 10
1156.296066424333
 20
-908.9134933597434
 10
1154.597222667282
 20
-917.0441902884486
 10
1150.263409925003
 20
-921.6697236758864
 10
1150.50274729641
 20
-919.4185976448061
 10
1150.829239597406
 20
-919.3061542382384
 10
1150.295923681115
 20
-916.5826755835824
 10
1150.295923681115
 20
-916.5826755835824
 10
1148.671139035203
 20
-924.7215009513166
 10
1142.645256235057
 20
-930.7356426728675
 10
1142.645256235057
 20
-930.7356426728675
 10
1143.688857490393
 20
-928.437100747451
 10
1142.87781990728
 20
-926.5598829117043
 10
1142.87781990728
 20
-926.5598829117043
 10
1140.587406420895
 20
-932.7903314274154
 10
1133.788418753098
 20
-938.5701031569624
 10
1133.788418753098
 20
-938.5701031569624
 10
1134.297349352299
 20
-936.833778264383
 10
1134.026401384672
 20
-935.2821495697481
 10
1134.026401384672
 20
-935.2821495697481
 10
1130.550590539886
 20
-941.2755186137802
 10
1123.699671178292
 20
-946.4063699608414
 10
1123.699671178292
 20
-946.4063699608414
 10
1125.409352854054
 20
-943.9425497751727
 10
1125.255815672397
 20
-942.132165771447
 10
1125.255815672397
 20
-942.132165771447
 10
1120.469971404116
 20
-948.7392319621649
 10
1114.987790859017
 20
-951.8966789449805
 10
1114.987790859017
 20
-951.8966789449805
 10
1116.093258566962
 20
-950.2276394643541
 10
1116.135255501944
 20
-947.9254848993714
 10
1116.135255501944
 20
-947.9254848993714
 10
1111.454177781136
 20
-953.5770079242429
 10
1105.414296002669
 20
-957.6701285552772
 10
1105.414296002669
 20
-957.6701285552772
 10
1108.816950896184
 20
-953.0333056691925
 10
1107.682582071702
 20
-951.8939694652981
 10
1107.682582071702
 20
-951.8939694652981
 10
1106.229849385243
 20
-956.6287851996804
 10
1100.82353427108
 20
-958.0490041300163
 10
1095.857509604317
 20
-959.3554249139524
 10
1088.648487345512
 20
-964.3797033937553
 10
1087.101826030263
 20
-965.6892852373167
 10
1088.410504713938
 20
-964.1435270819729
 10
1093.436589513523
 20
-956.9331500833232
 10
1094.740752397727
 20
-951.9662222566658
 10
1096.163229227794
 20
-946.5635197820775
 10
1100.894432322606
 20
-945.1094323557809
 10
1100.894432322606
 20
-945.1094323557809
 10
1099.75645085856
 20
-943.9705477318294
 10
1095.120982712309
 20
-947.3768152649172
 10
1095.120982712309
 20
-947.3768152649172
 10
1099.212748603502
 20
-941.3360303265508
 10
1104.866529528095
 20
-936.6535978659085
 10
1104.866529528095
 20
-936.6535978659085
 10
1102.562117063389
 20
-936.6978527006195
 10
1100.894432322606
 20
-937.8015140887837
 10
1100.894432322606
 20
-937.8015140887837
 10
1104.049621405684
 20
-932.3197851236255
 10
1110.657590756298
 20
-927.5352955951839
 10
1110.657590756298
 20
-927.5352955951839
 10
1108.847206752573
 20
-927.3817584135286
 10
1106.3833865669
 20
-929.0891821895584
 10
1106.3833865669
 20
-929.0891821895584
 10
1111.514237913972
 20
-922.2391659878576
 10
1117.506252218169
 20
-918.7642583029683
 10
1117.506252218169
 20
-918.7642583029683
 10
1115.956429843303
 20
-918.4924071754449
 10
1114.22100811062
 20
-919.0013377746454
 10
1114.22100811062
 20
-919.0013377746454
 10
1119.999425100319
 20
-912.2028016868007
 10
1126.229873616037
 20
-909.9146461001455
 10
1126.229873616037
 20
-909.9146461001455
 10
1124.352655780291
 20
-909.1008990373521
 10
1122.05546859471
 20
-910.1445002926866
 10
1122.05546859471
 20
-910.1445002926866
 10
1128.068255576425
 20
-904.1199722323763
 10
1136.207080944161
 20
-902.4960907463665
 10
1136.207080944161
 20
-902.4960907463665
 10
1133.482699129618
 20
-901.9614200902324
 10
1133.372513622773
 20
-902.2861060714495
 10
1131.120032851864
 20
-902.5254434428571
 10
1135.745566239297
 20
-898.1916307005777
 10
1143.876263168
 20
-896.4936901034125
 10
1143.876263168
 20
-896.4936901034125
 10
1142.603710880019
 20
-895.2942937666867
 10
1140.429353439777
 20
-895.2699084495998
 10
1140.429353439777
 20
-895.2699084495998
 10
1145.72051566769
 20
-891.0638928320532
 10
1155.797522163899
 20
-889.2453803892913
 10
1155.797522163899
 20
-889.2453803892913
 10
1153.089848807351
 20
-887.8924468709092
 10
1148.733908647715
 20
-889.2196403323651
 10
1148.733908647715
 20
-889.2196403323651
 10
1148.733908647715
 20
-889.2196403323651
 10
1156.675393579018
 20
-884.9973678367596
 10
1163.466704387742
 20
-883.0646056676487
 10
1167.415771015978
 20
-881.9433326615908
 10
1177.33743401074
 20
-875.4536772568463
 10
1177.33743401074
 20
-875.4536772568463
 97
        0
 97
        0
 75
     2
 76
     1
 98
        0
  0
ENDBLK
  5
5F
330
5C
100
AcDbEntity
  8
0
100
AcDbBlockEnd
  0
ENDSEC
  0
SECTION
  2
ENTITIES
  0
INSERT
  5
42
330
1F
100
AcDbEntity
  8
katman 1
100
AcDbBlockReference
  2
block 2
 10
0.0
 20
0.0
 30
0.0
  0
INSERT
  5
4B
330
1F
100
AcDbEntity
  8
katman 1
100
AcDbBlockReference
  2
block 3
 10
0.0
 20
0.0
 30
0.0
  0
ENDSEC
  0
SECTION
  2
OBJECTS
  0
DICTIONARY
  5
C
330
0
100
AcDbDictionary
281
     1
  3
ACAD_GROUP
350
D
  3
ACAD_LAYOUT
350
1A
  3
ACAD_MATERIAL
350
3B
  3
ACAD_MLEADERSTYLE
350
6D
  3
ACAD_MLINESTYLE
350
17
  3
ACAD_PLOTSETTINGS
350
19
  3
ACAD_PLOTSTYLENAME
350
E
  3
ACAD_TABLESTYLE
350
6C
  3
ACAD_VISUALSTYLE
350
2A
  0
SUN
  5
3F
330
29
100
AcDbSun
 90
        1
290
     0
 63
     7
421
 16777215
 40
1.0
291
     1
 91
  2455826
 92
 54000000
292
     0
 70
     2
 71
   256
280
     1
  0
DICTIONARY
  5
D
102
{ACAD_REACTORS
330
C
102
}
330
C
100
AcDbDictionary
281
     1
  0
DICTIONARY
  5
1A
102
{ACAD_REACTORS
330
C
102
}
330
C
100
AcDbDictionary
281
     1
  3
Layout1
350
1E
  3
Layout2
350
26
  3
Model
350
22
  0
DICTIONARY
  5
3B
102
{ACAD_REACTORS
330
C
102
}
330
C
100
AcDbDictionary
281
     1
  3
ByBlock
350
3D
  3
ByLayer
350
3C
  3
Global
350
3E
  0
DICTIONARY
  5
6D
102
{ACAD_REACTORS
330
C
102
}
330
C
100
AcDbDictionary
281
     1
  0
DICTIONARY
  5
17
102
{ACAD_REACTORS
330
C
102
}
330
C
100
AcDbDictionary
281
     1
  3
Standard
350
18
  0
DICTIONARY
  5
19
102
{ACAD_REACTORS
330
C
102
}
330
C
100
AcDbDictionary
281
     1
  0
ACDBDICTIONARYWDFLT
  5
E
102
{ACAD_REACTORS
330
C
102
}
330
C
100
AcDbDictionary
281
     1
  3
Normal
350
F
100
AcDbDictionaryWithDefault
340
F
  0
DICTIONARY
  5
6C
102
{ACAD_REACTORS
330
C
102
}
330
C
100
AcDbDictionary
281
     1
  0
DICTIONARY
  5
2A
102
{ACAD_REACTORS
330
C
102
}
330
C
100
AcDbDictionary
281
     1
  3
2dWireframe
350
2F
  3
3D Hidden
350
31
  3
3dWireframe
350
30
  3
Basic
350
32
  3
Brighten
350
36
  3
ColorChange
350
3A
  3
Conceptual
350
34
  3
Dim
350
35
  3
Facepattern
350
39
  3
Flat
350
2B
  3
FlatWithEdges
350
2C
  3
Gouraud
350
2D
  3
GouraudWithEdges
350
2E
  3
Linepattern
350
38
  3
Realistic
350
33
  3
Thicken
350
37
  0
LAYOUT
  5
1E
102
{ACAD_REACTORS
330
1A
102
}
330
1A
100
AcDbPlotSettings
  1

  2
none_device
  4

  6

 40
0.0
 41
0.0
 42
0.0
 43
0.0
 44
0.0
 45
0.0
 46
0.0
 47
0.0
 48
0.0
 49
0.0
140
0.0
141
0.0
142
1.0
143
1.0
 70
   688
 72
     0
 73
     0
 74
     5
  7

 75
    16
 76
     0
 77
     2
 78
   300
147
1.0
148
0.0
149
0.0
100
AcDbLayout
  1
Layout1
 70
     1
 71
     1
 10
0.0
 20
0.0
 11
12.0
 21
9.0
 12
0.0
 22
0.0
 32
0.0
 14
1.000000000000000E+20
 24
1.000000000000000E+20
 34
1.000000000000000E+20
 15
-1.000000000000000E+20
 25
-1.000000000000000E+20
 35
-1.000000000000000E+20
146
0.0
 13
0.0
 23
0.0
 33
0.0
 16
1.0
 26
0.0
 36
0.0
 17
0.0
 27
1.0
 37
0.0
 76
     0
330
1B
  0
LAYOUT
  5
26
102
{ACAD_REACTORS
330
1A
102
}
330
1A
100
AcDbPlotSettings
  1

  2
none_device
  4

  6

 40
0.0
 41
0.0
 42
0.0
 43
0.0
 44
0.0
 45
0.0
 46
0.0
 47
0.0
 48
0.0
 49
0.0
140
0.0
141
0.0
142
1.0
143
1.0
 70
   688
 72
     0
 73
     0
 74
     5
  7

 75
    16
 76
     0
 77
     2
 78
   300
147
1.0
148
0.0
149
0.0
100
AcDbLayout
  1
Layout2
 70
     1
 71
     2
 10
0.0
 20
0.0
 11
0.0
 21
0.0
 12
0.0
 22
0.0
 32
0.0
 14
0.0
 24
0.0
 34
0.0
 15
0.0
 25
0.0
 35
0.0
146
0.0
 13
0.0
 23
0.0
 33
0.0
 16
1.0
 26
0.0
 36
0.0
 17
0.0
 27
1.0
 37
0.0
 76
     0
330
23
  0
LAYOUT
  5
22
102
{ACAD_REACTORS
330
1A
102
}
330
1A
100
AcDbPlotSettings
  1

  2
none_device
  4

  6

 40
0.0
 41
0.0
 42
0.0
 43
0.0
 44
0.0
 45
0.0
 46
0.0
 47
0.0
 48
0.0
 49
0.0
140
0.0
141
0.0
142
1.0
143
1.0
 70
  1712
 72
     0
 73
     0
 74
     0
  7

 75
     0
 76
     0
 77
     2
 78
   300
147
1.0
148
0.0
149
0.0
100
AcDbLayout
  1
Model
 70
     1
 71
     0
 10
0.0
 20
0.0
 11
12.0
 21
9.0
 12
0.0
 22
0.0
 32
0.0
 14
1.000000000000000E+20
 24
1.000000000000000E+20
 34
1.000000000000000E+20
 15
-1.000000000000000E+20
 25
-1.000000000000000E+20
 35
-1.000000000000000E+20
146
0.0
 13
0.0
 23
0.0
 33
0.0
 16
1.0
 26
0.0
 36
0.0
 17
0.0
 27
1.0
 37
0.0
 76
     0
330
1F
331
29
  0
MATERIAL
  5
3D
102
{ACAD_REACTORS
330
3B
102
}
330
3B
100
AcDbMaterial
  1
ByBlock
 72
     1
 94
      127
  0
MATERIAL
  5
3C
102
{ACAD_REACTORS
330
3B
102
}
330
3B
100
AcDbMaterial
  1
ByLayer
 72
     1
 94
      127
  0
MATERIAL
  5
3E
102
{ACAD_REACTORS
330
3B
102
}
330
3B
100
AcDbMaterial
  1
Global
 72
     1
 94
      127
  0
MLINESTYLE
  5
18
102
{ACAD_REACTORS
330
17
102
}
330
17
100
AcDbMlineStyle
  2
Standard
 70
     0
  3

 62
   256
 51
90.0
 52
90.0
 71
     2
 49
0.5
 62
   256
  6
BYLAYER
 49
-0.5
 62
   256
  6
BYLAYER
  0
ACDBPLACEHOLDER
  5
F
102
{ACAD_REACTORS
330
E
102
}
330
E
  0
VISUALSTYLE
  5
2F
102
{ACAD_REACTORS
330
2A
102
}
330
2A
100
AcDbVisualStyle
  2
2dWireframe
 70
     4
177
     2
291
     0
 71
     0
176
     1
 72
     2
176
     1
 73
     0
176
     1
 90
        0
176
     1
 40
-0.6
176
     1
 41
-30.0
176
     1
 62
     5
 63
     7
421
 16777215
176
     1
 74
     1
176
     1
 91
        4
176
     1
 64
     7
176
     1
 65
   257
176
     1
 75
     1
176
     1
175
     1
176
     1
 42
1.0
176
     1
 92
        0
176
     1
 66
   257
176
     1
 43
1.0
176
     1
 76
     1
176
     1
 77
     6
176
     1
 78
     2
176
     1
 67
     7
176
     1
 79
     5
176
     1
170
     0
176
     1
171
     0
176
     1
290
     0
176
     1
 93
        1
176
     1
 44
0.0
176
     1
173
     0
176
     1
  0
VISUALSTYLE
  5
31
102
{ACAD_REACTORS
330
2A
102
}
330
2A
100
AcDbVisualStyle
  2
3D Hidden
 70
     6
177
     2
291
     0
 71
     1
176
     1
 72
     2
176
     1
 73
     2
176
     1
 90
        0
176
     1
 40
-0.6
176
     1
 41
-30.0
176
     1
 62
     5
 63
     7
421
 16777215
176
     1
 74
     2
176
     1
 91
        2
176
     1
 64
     7
176
     1
 65
   257
176
     1
 75
     2
176
     1
175
     1
176
     1
 42
40.0
176
     1
 92
        0
176
     1
 66
   257
176
     1
 43
1.0
176
     1
 76
     1
176
     1
 77
     6
176
     1
 78
     2
176
     1
 67
     7
176
     1
 79
     3
176
     1
170
     0
176
     1
171
     0
176
     1
290
     0
176
     1
 93
        1
176
     1
 44
0.0
176
     1
173
     0
176
     1
  0
VISUALSTYLE
  5
30
102
{ACAD_REACTORS
330
2A
102
}
330
2A
100
AcDbVisualStyle
  2
3dWireframe
 70
     5
177
     2
291
     0
 71
     0
176
     1
 72
     2
176
     1
 73
     0
176
     1
 90
        0
176
     1
 40
-0.6
176
     1
 41
-30.0
176
     1
 62
     5
 63
     7
421
 16777215
176
     1
 74
     1
176
     1
 91
        4
176
     1
 64
     7
176
     1
 65
   257
176
     1
 75
     1
176
     1
175
     1
176
     1
 42
1.0
176
     1
 92
        0
176
     1
 66
   257
176
     1
 43
1.0
176
     1
 76
     1
176
     1
 77
     6
176
     1
 78
     2
176
     1
 67
     7
176
     1
 79
     5
176
     1
170
     0
176
     1
171
     0
176
     1
290
     0
176
     1
 93
        1
176
     1
 44
0.0
176
     1
173
     0
176
     1
  0
VISUALSTYLE
  5
32
102
{ACAD_REACTORS
330
2A
102
}
330
2A
100
AcDbVisualStyle
  2
Basic
 70
     7
177
     2
291
     1
 71
     1
176
     1
 72
     0
176
     1
 73
     1
176
     1
 90
        0
176
     1
 40
-0.6
176
     1
 41
-30.0
176
     1
 62
     5
 63
     7
421
 16777215
176
     1
 74
     0
176
     1
 91
        4
176
     1
 64
     7
176
     1
 65
   257
176
     1
 75
     1
176
     1
175
     1
176
     1
 42
1.0
176
     1
 92
        8
176
     1
 66
     7
176
     1
 43
1.0
176
     1
 76
     1
176
     1
 77
     6
176
     1
 78
     2
176
     1
 67
     7
176
     1
 79
     5
176
     1
170
     0
176
     1
171
     0
176
     1
290
     0
176
     1
 93
        1
176
     1
 44
0.0
176
     1
173
     0
176
     1
  0
VISUALSTYLE
  5
36
102
{ACAD_REACTORS
330
2A
102
}
330
2A
100
AcDbVisualStyle
  2
Brighten
 70
    12
177
     2
291
     1
 71
     2
176
     1
 72
     2
176
     1
 73
     0
176
     1
 90
        0
176
     1
 40
-0.6
176
     1
 41
-30.0
176
     1
 62
     5
 63
     7
421
 16777215
176
     1
 74
     1
176
     1
 91
        4
176
     1
 64
     7
176
     1
 65
   257
176
     1
 75
     1
176
     1
175
     1
176
     1
 42
1.0
176
     1
 92
        8
176
     1
 66
     7
176
     1
 43
1.0
176
     1
 76
     1
176
     1
 77
     6
176
     1
 78
     2
176
     1
 67
     7
176
     1
 79
     5
176
     1
170
     0
176
     1
171
     0
176
     1
290
     0
176
     1
 93
        1
176
     1
 44
50.0
176
     1
173
     0
176
     1
  0
VISUALSTYLE
  5
3A
102
{ACAD_REACTORS
330
2A
102
}
330
2A
100
AcDbVisualStyle
  2
ColorChange
 70
    16
177
     2
291
     1
 71
     2
176
     1
 72
     2
176
     1
 73
     3
176
     1
 90
        0
176
     1
 40
-0.6
176
     1
 41
-30.0
176
     1
 62
     5
 63
     8
421
  8421504
176
     1
 74
     1
176
     1
 91
        4
176
     1
 64
     7
176
     1
 65
   257
176
     1
 75
     1
176
     1
175
     1
176
     1
 42
1.0
176
     1
 92
        8
176
     1
 66
     8
424
  8421504
176
     1
 43
1.0
176
     1
 76
     1
176
     1
 77
     6
176
     1
 78
     2
176
     1
 67
     7
176
     1
 79
     5
176
     1
170
     0
176
     1
171
     0
176
     1
290
     0
176
     1
 93
        1
176
     1
 44
0.0
176
     1
173
     0
176
     1
  0
VISUALSTYLE
  5
34
102
{ACAD_REACTORS
330
2A
102
}
330
2A
100
AcDbVisualStyle
  2
Conceptual
 70
     9
177
     2
291
     0
 71
     3
176
     1
 72
     2
176
     1
 73
     0
176
     1
 90
        0
176
     1
 40
-0.6
176
     1
 41
-30.0
176
     1
 62
     5
 63
     7
421
 16777215
176
     1
 74
     2
176
     1
 91
        2
176
     1
 64
     7
176
     1
 65
   257
176
     1
 75
     1
176
     1
175
     1
176
     1
 42
40.0
176
     1
 92
        8
176
     1
 66
     7
176
     1
 43
1.0
176
     1
 76
     1
176
     1
 77
     6
176
     1
 78
     2
176
     1
 67
     7
176
     1
 79
     3
176
     1
170
     0
176
     1
171
     0
176
     1
290
     0
176
     1
 93
        1
176
     1
 44
0.0
176
     1
173
     0
176
     1
  0
VISUALSTYLE
  5
35
102
{ACAD_REACTORS
330
2A
102
}
330
2A
100
AcDbVisualStyle
  2
Dim
 70
    11
177
     2
291
     1
 71
     2
176
     1
 72
     2
176
     1
 73
     0
176
     1
 90
        0
176
     1
 40
-0.6
176
     1
 41
-30.0
176
     1
 62
     5
 63
     7
421
 16777215
176
     1
 74
     1
176
     1
 91
        4
176
     1
 64
     7
176
     1
 65
   257
176
     1
 75
     1
176
     1
175
     1
176
     1
 42
1.0
176
     1
 92
        8
176
     1
 66
     7
176
     1
 43
1.0
176
     1
 76
     1
176
     1
 77
     6
176
     1
 78
     2
176
     1
 67
     7
176
     1
 79
     5
176
     1
170
     0
176
     1
171
     0
176
     1
290
     0
176
     1
 93
        1
176
     1
 44
-50.0
176
     1
173
     0
176
     1
  0
VISUALSTYLE
  5
39
102
{ACAD_REACTORS
330
2A
102
}
330
2A
100
AcDbVisualStyle
  2
Facepattern
 70
    15
177
     2
291
     1
 71
     2
176
     1
 72
     2
176
     1
 73
     0
176
     1
 90
        0
176
     1
 40
-0.6
176
     1
 41
-30.0
176
     1
 62
     5
 63
     7
421
 16777215
176
     1
 74
     1
176
     1
 91
        4
176
     1
 64
     7
176
     1
 65
   257
176
     1
 75
     1
176
     1
175
     1
176
     1
 42
1.0
176
     1
 92
        8
176
     1
 66
     7
176
     1
 43
1.0
176
     1
 76
     1
176
     1
 77
     6
176
     1
 78
     2
176
     1
 67
     7
176
     1
 79
     5
176
     1
170
     0
176
     1
171
     0
176
     1
290
     0
176
     1
 93
        1
176
     1
 44
0.0
176
     1
173
     0
176
     1
  0
VISUALSTYLE
  5
2B
102
{ACAD_REACTORS
330
2A
102
}
330
2A
100
AcDbVisualStyle
  2
Flat
 70
     0
177
     2
291
     1
 71
     2
176
     1
 72
     1
176
     1
 73
     1
176
     1
 90
        2
176
     1
 40
-0.6
176
     1
 41
30.0
176
     1
 62
     5
 63
     7
421
 16777215
176
     1
 74
     0
176
     1
 91
        4
176
     1
 64
     7
176
     1
 65
   257
176
     1
 75
     1
176
     1
175
     1
176
     1
 42
1.0
176
     1
 92
        8
176
     1
 66
     7
176
     1
 43
1.0
176
     1
 76
     1
176
     1
 77
     6
176
     1
 78
     2
176
     1
 67
     7
176
     1
 79
     5
176
     1
170
     0
176
     1
171
     0
176
     1
290
     0
176
     1
 93
       13
176
     1
 44
0.0
176
     1
173
     0
176
     1
  0
VISUALSTYLE
  5
2C
102
{ACAD_REACTORS
330
2A
102
}
330
2A
100
AcDbVisualStyle
  2
FlatWithEdges
 70
     1
177
     2
291
     1
 71
     2
176
     1
 72
     1
176
     1
 73
     1
176
     1
 90
        2
176
     1
 40
-0.6
176
     1
 41
30.0
176
     1
 62
     5
 63
     7
421
 16777215
176
     1
 74
     1
176
     1
 91
        4
176
     1
 64
     7
176
     1
 65
   257
176
     1
 75
     1
176
     1
175
     1
176
     1
 42
1.0
176
     1
 92
        0
176
     1
 66
   257
176
     1
 43
1.0
176
     1
 76
     1
176
     1
 77
     6
176
     1
 78
     2
176
     1
 67
     7
176
     1
 79
     5
176
     1
170
     0
176
     1
171
     0
176
     1
290
     0
176
     1
 93
       13
176
     1
 44
0.0
176
     1
173
     0
176
     1
  0
VISUALSTYLE
  5
2D
102
{ACAD_REACTORS
330
2A
102
}
330
2A
100
AcDbVisualStyle
  2
Gouraud
 70
     2
177
     2
291
     1
 71
     2
176
     1
 72
     2
176
     1
 73
     1
176
     1
 90
        2
176
     1
 40
-0.6
176
     1
 41
30.0
176
     1
 62
     5
 63
     7
421
 16777215
176
     1
 74
     0
176
     1
 91
        4
176
     1
 64
     7
176
     1
 65
   257
176
     1
 75
     1
176
     1
175
     1
176
     1
 42
1.0
176
     1
 92
        0
176
     1
 66
     7
176
     1
 43
1.0
176
     1
 76
     1
176
     1
 77
     6
176
     1
 78
     2
176
     1
 67
     7
176
     1
 79
     5
176
     1
170
     0
176
     1
171
     0
176
     1
290
     0
176
     1
 93
       13
176
     1
 44
0.0
176
     1
173
     0
176
     1
  0
VISUALSTYLE
  5
2E
102
{ACAD_REACTORS
330
2A
102
}
330
2A
100
AcDbVisualStyle
  2
GouraudWithEdges
 70
     3
177
     2
291
     1
 71
     2
176
     1
 72
     2
176
     1
 73
     1
176
     1
 90
        2
176
     1
 40
-0.6
176
     1
 41
30.0
176
     1
 62
     5
 63
     7
421
 16777215
176
     1
 74
     1
176
     1
 91
        4
176
     1
 64
     7
176
     1
 65
   257
176
     1
 75
     1
176
     1
175
     1
176
     1
 42
1.0
176
     1
 92
        0
176
     1
 66
   257
176
     1
 43
1.0
176
     1
 76
     1
176
     1
 77
     6
176
     1
 78
     2
176
     1
 67
     7
176
     1
 79
     5
176
     1
170
     0
176
     1
171
     0
176
     1
290
     0
176
     1
 93
       13
176
     1
 44
0.0
176
     1
173
     0
176
     1
  0
VISUALSTYLE
  5
38
102
{ACAD_REACTORS
330
2A
102
}
330
2A
100
AcDbVisualStyle
  2
Linepattern
 70
    14
177
     2
291
     1
 71
     2
176
     1
 72
     2
176
     1
 73
     0
176
     1
 90
        0
176
     1
 40
-0.6
176
     1
 41
-30.0
176
     1
 62
     5
 63
     7
421
 16777215
176
     1
 74
     1
176
     1
 91
        4
176
     1
 64
     7
176
     1
 65
   257
176
     1
 75
     7
176
     1
175
     7
176
     1
 42
1.0
176
     1
 92
        8
176
     1
 66
     7
176
     1
 43
1.0
176
     1
 76
     1
176
     1
 77
     6
176
     1
 78
     2
176
     1
 67
     7
176
     1
 79
     5
176
     1
170
     0
176
     1
171
     0
176
     1
290
     0
176
     1
 93
        1
176
     1
 44
0.0
176
     1
173
     0
176
     1
  0
VISUALSTYLE
  5
33
102
{ACAD_REACTORS
330
2A
102
}
330
2A
100
AcDbVisualStyle
  2
Realistic
 70
     8
177
     2
291
     0
 71
     2
176
     1
 72
     2
176
     1
 73
     0
176
     1
 90
        0
176
     1
 40
-0.6
176
     1
 41
-30.0
176
     1
 62
     5
 63
     7
421
 16777215
176
     1
 74
     1
176
     1
 91
        0
176
     1
 64
     7
176
     1
 65
   257
176
     1
 75
     1
176
     1
175
     1
176
     1
 42
1.0
176
     1
 92
        8
176
     1
 66
     8
424
  7895160
176
     1
 43
1.0
176
     1
 76
     1
176
     1
 77
     6
176
     1
 78
     2
176
     1
 67
     7
176
     1
 79
     5
176
     1
170
     0
176
     1
171
     0
176
     1
290
     0
176
     1
 93
       13
176
     1
 44
0.0
176
     1
173
     0
176
     1
  0
VISUALSTYLE
  5
37
102
{ACAD_REACTORS
330
2A
102
}
330
2A
100
AcDbVisualStyle
  2
Thicken
 70
    13
177
     2
291
     1
 71
     2
176
     1
 72
     2
176
     1
 73
     0
176
     1
 90
        0
176
     1
 40
-0.6
176
     1
 41
-30.0
176
     1
 62
     5
 63
     7
421
 16777215
176
     1
 74
     1
176
     1
 91
        4
176
     1
 64
     7
176
     1
 65
   257
176
     1
 75
     1
176
     1
175
     1
176
     1
 42
1.0
176
     1
 92
       12
176
     1
 66
     7
176
     1
 43
1.0
176
     1
 76
     1
176
     1
 77
     6
176
     1
 78
     2
176
     1
 67
     7
176
     1
 79
     5
176
     1
170
     0
176
     1
171
     0
176
     1
290
     0
176
     1
 93
        1
176
     1
 44
0.0
176
     1
173
     0
176
     1
  0
ENDSEC
  0
EOF
