  0
SECTION
  2
HEADER
  9
$ACADVER
  1
AC1024
  9
$ACADMAINTVER
 70
     6
  9
$DWGCODEPAGE
  3
ANSI_1254
  9
$INSBASE
 10
0.0
 20
0.0
 30
0.0
  9
$EXTMIN
 10
1.000000000000000E+20
 20
1.000000000000000E+20
 30
1.000000000000000E+20
  9
$EXTMAX
 10
-1.000000000000000E+20
 20
-1.000000000000000E+20
 30
-1.000000000000000E+20
  9
$LIMMIN
 10
0.0
 20
0.0
  9
$LIMMAX
 10
12.0
 20
9.0
  9
$ORTHOMODE
 70
     0
  9
$REGENMODE
 70
     1
  9
$FILLMODE
 70
     1
  9
$QTEXTMODE
 70
     0
  9
$MIRRTEXT
 70
     1
  9
$LTSCALE
 40
1.0
  9
$ATTMODE
 70
     1
  9
$TEXTSIZE
 40
0.2
  9
$TRACEWID
 40
0.05
  9
$TEXTSTYLE
  7
Standard
  9
$CLAYER
  8
0
  9
$CELTYPE
  6
ByLayer
  9
$CECOLOR
 62
   256
  9
$CELTSCALE
 40
1.0
  9
$DISPSILH
 70
     0
  9
$DIMSCALE
 40
1.0
  9
$DIMASZ
 40
0.18
  9
$DIMEXO
 40
0.0625
  9
$DIMDLI
 40
0.38
  9
$DIMRND
 40
0.0
  9
$DIMDLE
 40
0.0
  9
$DIMEXE
 40
0.18
  9
$DIMTP
 40
0.0
  9
$DIMTM
 40
0.0
  9
$DIMTXT
 40
0.18
  9
$DIMCEN
 40
0.09
  9
$DIMTSZ
 40
0.0
  9
$DIMTOL
 70
     0
  9
$DIMLIM
 70
     0
  9
$DIMTIH
 70
     1
  9
$DIMTOH
 70
     1
  9
$DIMSE1
 70
     0
  9
$DIMSE2
 70
     0
  9
$DIMTAD
 70
     0
  9
$DIMZIN
 70
     0
  9
$DIMBLK
  1

  9
$DIMASO
 70
     1
  9
$DIMSHO
 70
     1
  9
$DIMPOST
  1

  9
$DIMAPOST
  1

  9
$DIMALT
 70
     0
  9
$DIMALTD
 70
     2
  9
$DIMALTF
 40
25.4
  9
$DIMLFAC
 40
1.0
  9
$DIMTOFL
 70
     0
  9
$DIMTVP
 40
0.0
  9
$DIMTIX
 70
     0
  9
$DIMSOXD
 70
     0
  9
$DIMSAH
 70
     0
  9
$DIMBLK1
  1

  9
$DIMBLK2
  1

  9
$DIMSTYLE
  2
Standard
  9
$DIMCLRD
 70
     0
  9
$DIMCLRE
 70
     0
  9
$DIMCLRT
 70
     0
  9
$DIMTFAC
 40
1.0
  9
$DIMGAP
 40
0.09
  9
$DIMJUST
 70
     0
  9
$DIMSD1
 70
     0
  9
$DIMSD2
 70
     0
  9
$DIMTOLJ
 70
     1
  9
$DIMTZIN
 70
     0
  9
$DIMALTZ
 70
     0
  9
$DIMALTTZ
 70
     0
  9
$DIMUPT
 70
     0
  9
$DIMDEC
 70
     4
  9
$DIMTDEC
 70
     4
  9
$DIMALTU
 70
     2
  9
$DIMALTTD
 70
     2
  9
$DIMTXSTY
  7
Standard
  9
$DIMAUNIT
 70
     0
  9
$DIMADEC
 70
     0
  9
$DIMALTRND
 40
0.0
  9
$DIMAZIN
 70
     0
  9
$DIMDSEP
 70
    46
  9
$DIMATFIT
 70
     3
  9
$DIMFRAC
 70
     0
  9
$DIMLDRBLK
  1

  9
$DIMLUNIT
 70
     2
  9
$DIMLWD
 70
    -2
  9
$DIMLWE
 70
    -2
  9
$DIMTMOVE
 70
     0
  9
$DIMFXL
 40
1.0
  9
$DIMFXLON
 70
     0
  9
$DIMJOGANG
 40
0.7853981633974483
  9
$DIMTFILL
 70
     0
  9
$DIMTFILLCLR
 70
     0
  9
$DIMARCSYM
 70
     0
  9
$DIMLTYPE
  6

  9
$DIMLTEX1
  6

  9
$DIMLTEX2
  6

  9
$DIMTXTDIRECTION
 70
     0
  9
$LUNITS
 70
     2
  9
$LUPREC
 70
     4
  9
$SKETCHINC
 40
0.1
  9
$FILLETRAD
 40
0.5
  9
$AUNITS
 70
     0
  9
$AUPREC
 70
     0
  9
$MENU
  1
.
  9
$ELEVATION
 40
0.0
  9
$PELEVATION
 40
0.0
  9
$THICKNESS
 40
0.0
  9
$LIMCHECK
 70
     0
  9
$CHAMFERA
 40
0.5
  9
$CHAMFERB
 40
0.5
  9
$CHAMFERC
 40
1.0
  9
$CHAMFERD
 40
0.0
  9
$SKPOLY
 70
     0
  9
$TDCREATE
 40
2459350.658636447
  9
$TDUCREATE
 40
2459350.533636447
  9
$TDUPDATE
 40
2459350.65863647
  9
$TDUUPDATE
 40
2459350.53363647
  9
$TDINDWG
 40
0.0000000116
  9
$TDUSRTIMER
 40
0.0000000116
  9
$USRTIMER
 70
     1
  9
$ANGBASE
 50
0.0
  9
$ANGDIR
 70
     0
  9
$PDMODE
 70
     0
  9
$PDSIZE
 40
0.0
  9
$PLINEWID
 40
0.0
  9
$SPLFRAME
 70
     0
  9
$SPLINETYPE
 70
     6
  9
$SPLINESEGS
 70
     8
  9
$HANDSEED
  5
5C
  9
$SURFTAB1
 70
     6
  9
$SURFTAB2
 70
     6
  9
$SURFTYPE
 70
     6
  9
$SURFU
 70
     6
  9
$SURFV
 70
     6
  9
$UCSBASE
  2

  9
$UCSNAME
  2

  9
$UCSORG
 10
0.0
 20
0.0
 30
0.0
  9
$UCSXDIR
 10
1.0
 20
0.0
 30
0.0
  9
$UCSYDIR
 10
0.0
 20
1.0
 30
0.0
  9
$UCSORTHOREF
  2

  9
$UCSORTHOVIEW
 70
     0
  9
$UCSORGTOP
 10
0.0
 20
0.0
 30
0.0
  9
$UCSORGBOTTOM
 10
0.0
 20
0.0
 30
0.0
  9
$UCSORGLEFT
 10
0.0
 20
0.0
 30
0.0
  9
$UCSORGRIGHT
 10
0.0
 20
0.0
 30
0.0
  9
$UCSORGFRONT
 10
0.0
 20
0.0
 30
0.0
  9
$UCSORGBACK
 10
0.0
 20
0.0
 30
0.0
  9
$PUCSBASE
  2

  9
$PUCSNAME
  2

  9
$PUCSORG
 10
0.0
 20
0.0
 30
0.0
  9
$PUCSXDIR
 10
1.0
 20
0.0
 30
0.0
  9
$PUCSYDIR
 10
0.0
 20
1.0
 30
0.0
  9
$PUCSORTHOREF
  2

  9
$PUCSORTHOVIEW
 70
     0
  9
$PUCSORGTOP
 10
0.0
 20
0.0
 30
0.0
  9
$PUCSORGBOTTOM
 10
0.0
 20
0.0
 30
0.0
  9
$PUCSORGLEFT
 10
0.0
 20
0.0
 30
0.0
  9
$PUCSORGRIGHT
 10
0.0
 20
0.0
 30
0.0
  9
$PUCSORGFRONT
 10
0.0
 20
0.0
 30
0.0
  9
$PUCSORGBACK
 10
0.0
 20
0.0
 30
0.0
  9
$USERI1
 70
     0
  9
$USERI2
 70
     0
  9
$USERI3
 70
     0
  9
$USERI4
 70
     0
  9
$USERI5
 70
     0
  9
$USERR1
 40
0.0
  9
$USERR2
 40
0.0
  9
$USERR3
 40
0.0
  9
$USERR4
 40
0.0
  9
$USERR5
 40
0.0
  9
$WORLDVIEW
 70
     1
  9
$SHADEDGE
 70
     3
  9
$SHADEDIF
 70
    70
  9
$TILEMODE
 70
     1
  9
$MAXACTVP
 70
    64
  9
$PINSBASE
 10
0.0
 20
0.0
 30
0.0
  9
$PLIMCHECK
 70
     0
  9
$PEXTMIN
 10
1.000000000000000E+20
 20
1.000000000000000E+20
 30
1.000000000000000E+20
  9
$PEXTMAX
 10
-1.000000000000000E+20
 20
-1.000000000000000E+20
 30
-1.000000000000000E+20
  9
$PLIMMIN
 10
0.0
 20
0.0
  9
$PLIMMAX
 10
12.0
 20
9.0
  9
$UNITMODE
 70
     0
  9
$VISRETAIN
 70
     1
  9
$PLINEGEN
 70
     0
  9
$PSLTSCALE
 70
     1
  9
$TREEDEPTH
 70
  3020
  9
$CMLSTYLE
  2
Standard
  9
$CMLJUST
 70
     0
  9
$CMLSCALE
 40
1.0
  9
$PROXYGRAPHICS
 70
     1
  9
$MEASUREMENT
 70
     0
  9
$CELWEIGHT
370
    -1
  9
$ENDCAPS
280
     0
  9
$JOINSTYLE
280
     0
  9
$LWDISPLAY
290
     1
  9
$INSUNITS
 70
     0
  9
$HYPERLINKBASE
  1

  9
$STYLESHEET
  1

  9
$XEDIT
290
     1
  9
$CEPSNTYPE
380
     0
  9
$PSTYLEMODE
290
     1
  9
$FINGERPRINTGUID
  2
{06402B7F-09BB-48B5-A888-F7B51F9BE80E}
  9
$VERSIONGUID
  2
{FAEB1C32-E019-11D5-929B-00C0DF256EC4}
  9
$EXTNAMES
290
     1
  9
$PSVPSCALE
 40
0.0
  9
$OLESTARTUP
290
     0
  9
$SORTENTS
280
   127
  9
$INDEXCTL
280
     0
  9
$HIDETEXT
280
     1
  9
$XCLIPFRAME
280
     2
  9
$HALOGAP
280
     0
  9
$OBSCOLOR
 70
   257
  9
$OBSLTYPE
280
     0
  9
$INTERSECTIONDISPLAY
280
     0
  9
$INTERSECTIONCOLOR
 70
   257
  9
$DIMASSOC
280
     2
  9
$PROJECTNAME
  1

  9
$CAMERADISPLAY
290
     0
  9
$LENSLENGTH
 40
50.0
  9
$CAMERAHEIGHT
 40
0.0
  9
$STEPSPERSEC
 40
2.0
  9
$STEPSIZE
 40
6.0
  9
$3DDWFPREC
 40
2.0
  9
$PSOLWIDTH
 40
0.25
  9
$PSOLHEIGHT
 40
4.0
  9
$LOFTANG1
 40
1.570796326794897
  9
$LOFTANG2
 40
1.570796326794897
  9
$LOFTMAG1
 40
0.0
  9
$LOFTMAG2
 40
0.0
  9
$LOFTPARAM
 70
     7
  9
$LOFTNORMALS
280
     1
  9
$LATITUDE
 40
37.795
  9
$LONGITUDE
 40
-122.394
  9
$NORTHDIRECTION
 40
0.0
  9
$TIMEZONE
 70
 -8000
  9
$LIGHTGLYPHDISPLAY
280
     1
  9
$TILEMODELIGHTSYNCH
280
     1
  9
$CMATERIAL
347
3C
  9
$SOLIDHIST
280
     1
  9
$SHOWHIST
280
     1
  9
$DWFFRAME
280
     2
  9
$DGNFRAME
280
     2
  9
$REALWORLDSCALE
290
     1
  9
$INTERFERECOLOR
 62
   256
  9
$CSHADOW
280
     0
  9
$SHADOWPLANELOCATION
 40
0.0
  0
ENDSEC
  0
SECTION
  2
CLASSES
  0
CLASS
  1
ACDBDICTIONARYWDFLT
  2
AcDbDictionaryWithDefault
  3
ObjectDBX Classes
 90
        0
 91
        4
280
     0
281
     0
  0
CLASS
  1
VISUALSTYLE
  2
AcDbVisualStyle
  3
ObjectDBX Classes
 90
     4095
 91
        4
280
     0
281
     0
  0
CLASS
  1
MATERIAL
  2
AcDbMaterial
  3
ObjectDBX Classes
 90
     1153
 91
        4
280
     0
281
     0
  0
CLASS
  1
SUN
  2
AcDbSun
  3
SCENEOE
 90
     1024
 91
        4
280
     0
281
     0
  0
ENDSEC
  0
SECTION
  2
TABLES
  0
TABLE
  2
VPORT
  5
8
330
0
100
AcDbSymbolTable
 70
     1
  0
VPORT
  5
29
330
8
100
AcDbSymbolTableRecord
100
AcDbViewportTableRecord
  2
*Active
 70
     0
 10
0.0
 20
0.0
 11
1.0
 21
1.0
 12
0.0
 22
0.0
 13
0.0
 23
0.0
 14
0.5
 24
0.5
 15
0.5
 25
0.5
 16
0.0
 26
0.0
 36
1.0
 17
1015.54071664309
 27
-945.8126089240104
 37
0.0
 40
937.3938332083271
 41
0.9921828112427296
 42
50.0
 43
0.0
 44
0.0
 50
0.0
 51
0.0
 71
     0
 72
   100
 73
     1
 74
     3
 75
     0
 76
     0
 77
     0
 78
     0
281
     0
 65
     1
110
0.0
120
0.0
130
0.0
111
1.0
121
0.0
131
0.0
112
0.0
122
1.0
132
0.0
 79
     0
146
0.0
 60
     3
 61
     5
292
     1
282
     1
141
0.0
142
0.0
 63
   250
361
3F
  0
ENDTAB
  0
TABLE
  2
LTYPE
  5
5
330
0
100
AcDbSymbolTable
 70
     1
  0
LTYPE
  5
14
330
5
100
AcDbSymbolTableRecord
100
AcDbLinetypeTableRecord
  2
ByBlock
 70
     0
  3

 72
    65
 73
     0
 40
0.0
  0
LTYPE
  5
15
330
5
100
AcDbSymbolTableRecord
100
AcDbLinetypeTableRecord
  2
ByLayer
 70
     0
  3

 72
    65
 73
     0
 40
0.0
  0
LTYPE
  5
16
330
5
100
AcDbSymbolTableRecord
100
AcDbLinetypeTableRecord
  2
Continuous
 70
     0
  3
Solid line
 72
    65
 73
     0
 40
0.0
  0
ENDTAB
  0
TABLE
  2
LAYER
  5
2
330
0
100
AcDbSymbolTable
 70
     2
  0
LAYER
  5
10
330
2
100
AcDbSymbolTableRecord
100
AcDbLayerTableRecord
  2
0
 70
     0
 62
     7
  6
Continuous
370
    -3
390
F
347
3E
  0
LAYER
  5
40
330
2
100
AcDbSymbolTableRecord
100
AcDbLayerTableRecord
  2
katman 1
 70
     0
 62
     7
  6
Continuous
370
    -3
390
F
347
3E
  0
ENDTAB
  0
TABLE
  2
STYLE
  5
3
330
0
100
AcDbSymbolTable
 70
     1
  0
STYLE
  5
11
330
3
100
AcDbSymbolTableRecord
100
AcDbTextStyleTableRecord
  2
Standard
 70
     0
 40
0.0
 41
1.0
 50
0.0
 71
     0
 42
0.2
  3
txt
  4

  0
ENDTAB
  0
TABLE
  2
VIEW
  5
6
330
0
100
AcDbSymbolTable
 70
     0
  0
ENDTAB
  0
TABLE
  2
UCS
  5
7
330
0
100
AcDbSymbolTable
 70
     0
  0
ENDTAB
  0
TABLE
  2
APPID
  5
9
330
0
100
AcDbSymbolTable
 70
     1
  0
APPID
  5
12
330
9
100
AcDbSymbolTableRecord
100
AcDbRegAppTableRecord
  2
ACAD
 70
     0
  0
ENDTAB
  0
TABLE
  2
DIMSTYLE
  5
A
330
0
100
AcDbSymbolTable
 70
     1
100
AcDbDimStyleTable
  0
DIMSTYLE
105
27
330
A
100
AcDbSymbolTableRecord
100
AcDbDimStyleTableRecord
  2
Standard
 70
     0
178
     0
340
11
  0
ENDTAB
  0
TABLE
  2
BLOCK_RECORD
  5
1
330
0
100
AcDbSymbolTable
 70
     2
  0
BLOCK_RECORD
  5
1F
330
1
100
AcDbSymbolTableRecord
100
AcDbBlockTableRecord
  2
*Model_Space
340
22
 70
     0
280
     1
281
     0
  0
BLOCK_RECORD
  5
1B
330
1
100
AcDbSymbolTableRecord
100
AcDbBlockTableRecord
  2
*Paper_Space
340
1E
 70
     0
280
     1
281
     0
  0
BLOCK_RECORD
  5
23
330
1
100
AcDbSymbolTableRecord
100
AcDbBlockTableRecord
  2
*Paper_Space0
340
26
 70
     0
280
     1
281
     0
  0
BLOCK_RECORD
  5
48
330
1
100
AcDbSymbolTableRecord
100
AcDbBlockTableRecord
  2
block 2
340
0
102
{BLKREFS
331
49
102
}
 70
     0
280
     1
281
     0
  0
ENDTAB
  0
ENDSEC
  0
SECTION
  2
BLOCKS
  0
BLOCK
  5
20
330
1F
100
AcDbEntity
  8
0
100
AcDbBlockBegin
  2
*Model_Space
 70
     0
 10
0.0
 20
0.0
 30
0.0
  3
*Model_Space
  1

  0
ENDBLK
  5
21
330
1F
100
AcDbEntity
  8
0
100
AcDbBlockEnd
  0
BLOCK
  5
1C
330
1B
100
AcDbEntity
 67
     1
  8
0
100
AcDbBlockBegin
  2
*Paper_Space
 70
     0
 10
0.0
 20
0.0
 30
0.0
  3
*Paper_Space
  1

  0
ENDBLK
  5
1D
330
1B
100
AcDbEntity
 67
     1
  8
0
100
AcDbBlockEnd
  0
BLOCK
  5
24
330
23
100
AcDbEntity
  8
0
100
AcDbBlockBegin
  2
*Paper_Space0
 70
     0
 10
0.0
 20
0.0
 30
0.0
  3
*Paper_Space0
  1

  0
ENDBLK
  5
25
330
23
100
AcDbEntity
  8
0
100
AcDbBlockEnd
  0
BLOCK
  5
4A
330
48
100
AcDbEntity
  8
0
100
AcDbBlockBegin
  2
block 2
 70
     0
 10
0.0
 20
0.0
 30
0.0
  3
block 2
  1

  0
SPLINE
  5
4C
330
48
100
AcDbEntity
  8
katman 1
370
     0
100
AcDbSpline
210
0.0
220
0.0
230
1.0
 70
    11
 71
     3
 72
    20
 73
    16
 74
     0
 42
0.0000000001
 43
0.0000000001
 12
1.0
 22
0.0
 32
0.0
 13
1.0
 23
0.0
 33
0.0
 40
0.0
 40
0.0
 40
0.0
 40
0.0
 40
1.0
 40
1.0
 40
1.0
 40
2.0
 40
2.0
 40
2.0
 40
3.0
 40
3.0
 40
3.0
 40
4.0
 40
4.0
 40
4.0
 40
5.0
 40
5.0
 40
5.0
 40
5.0
 10
983.4906393203219
 20
-1086.288534677118
 30
0.0
 10
983.3510398428489
 20
-1093.869302795816
 30
0.0
 10
982.0914427703838
 20
-1100.983219619433
 30
0.0
 10
977.9489486027742
 20
-1107.232942557835
 30
0.0
 10
972.4136562379235
 20
-1115.583956319633
 30
0.0
 10
963.9425335335081
 20
-1115.663356228153
 30
0.0
 10
958.9747610192444
 20
-1106.929646965926
 30
0.0
 10
951.2069113545112
 20
-1093.273200549884
 30
0.0
 10
951.3052879763809
 20
-1079.101891778613
 30
0.0
 10
959.0543012234248
 20
-1065.470628169382
 30
0.0
 10
963.9781168987201
 20
-1056.809156399207
 30
0.0
 10
972.5152658211064
 20
-1056.981886024765
 30
0.0
 10
978.0023704297728
 20
-1065.396701428161
 30
0.0
 10
982.1616219402704
 20
-1071.775181536888
 30
0.0
 10
983.4145347872536
 20
-1079.001404842798
 30
0.0
 10
983.4906393203219
 20
-1086.288534677118
 30
0.0
  0
HATCH
  5
4D
330
48
100
AcDbEntity
  8
katman 1
 62
     7
420
 16777215
100
AcDbHatch
 10
0.0
 20
0.0
 30
0.0
210
0.0
220
0.0
230
1.0
  2
SOLID
 70
     1
 71
     0
 91
        1
 92
        1
 93
        1
 72
     4
 94
        3
 73
     0
 74
     1
 95
       20
 96
       16
 40
0.0
 40
0.0
 40
0.0
 40
0.0
 40
1.0
 40
1.0
 40
1.0
 40
2.0
 40
2.0
 40
2.0
 40
3.0
 40
3.0
 40
3.0
 40
4.0
 40
4.0
 40
4.0
 40
5.0
 40
5.0
 40
5.0
 40
5.0
 10
983.4906393203219
 20
-1086.288534677118
 10
983.3510398428489
 20
-1093.869302795816
 10
982.0914427703838
 20
-1100.983219619433
 10
977.9489486027742
 20
-1107.232942557835
 10
972.4136562379235
 20
-1115.583956319633
 10
963.9425335335081
 20
-1115.663356228153
 10
958.9747610192444
 20
-1106.929646965926
 10
951.2069113545112
 20
-1093.273200549884
 10
951.3052879763809
 20
-1079.101891778613
 10
959.0543012234248
 20
-1065.470628169382
 10
963.9781168987201
 20
-1056.809156399207
 10
972.5152658211064
 20
-1056.981886024765
 10
978.0023704297728
 20
-1065.396701428161
 10
982.1616219402704
 20
-1071.775181536888
 10
983.4145347872536
 20
-1079.001404842798
 10
983.4906393203219
 20
-1086.288534677118
 97
        0
 97
        0
 75
     2
 76
     1
 98
        0
  0
SPLINE
  5
4E
330
48
100
AcDbEntity
  8
katman 1
370
     0
100
AcDbSpline
210
0.0
220
0.0
230
1.0
 70
    11
 71
     3
 72
    26
 73
    22
 74
     0
 42
0.0000000001
 43
0.0000000001
 12
1.0
 22
0.0
 32
0.0
 13
1.0
 23
0.0
 33
0.0
 40
0.0
 40
0.0
 40
0.0
 40
0.0
 40
1.0
 40
1.0
 40
1.0
 40
2.0
 40
2.0
 40
2.0
 40
3.0
 40
3.0
 40
3.0
 40
4.0
 40
4.0
 40
4.0
 40
5.0
 40
5.0
 40
5.0
 40
6.0
 40
6.0
 40
6.0
 40
7.0
 40
7.0
 40
7.0
 40
7.0
 10
1077.653652268418
 20
-1087.547056492414
 30
0.0
 10
1077.824864078235
 20
-1092.997639830439
 30
0.0
 10
1076.584030655844
 20
-1099.416906210592
 30
0.0
 10
1073.390280691914
 20
-1105.332968653602
 30
0.0
 10
1071.058806210714
 20
-1109.651770643035
 30
0.0
 10
1068.04190234931
 20
-1113.454015830379
 30
0.0
 10
1062.502145171327
 20
-1113.30863644825
 30
0.0
 10
1057.152010010514
 20
-1113.168226057522
 30
0.0
 10
1054.038023751302
 20
-1109.362591976462
 30
0.0
 10
1052.072643156338
 20
-1105.135986607704
 30
0.0
 10
1046.312732747732
 20
-1092.749159074563
 30
0.0
 10
1046.296058567834
 20
-1080.147193965242
 30
0.0
 10
1051.934727729449
 20
-1067.634145734377
 30
0.0
 10
1052.44135667682
 20
-1066.509828268256
 30
0.0
 10
1053.186382736178
 20
-1065.477270816873
 30
0.0
 10
1053.916917644177
 20
-1064.472032422778
 30
0.0
 10
1059.073147893729
 20
-1057.37700920138
 30
0.0
 10
1066.426294903393
 20
-1057.266870155718
 30
0.0
 10
1071.595290672214
 20
-1064.391047218887
 30
0.0
 10
1076.31038283061
 20
-1070.889645937594
 30
0.0
 10
1077.688518352821
 20
-1078.420464257852
 30
0.0
 10
1077.653652268418
 20
-1087.547056492414
 30
0.0
  0
HATCH
  5
4F
330
48
100
AcDbEntity
  8
katman 1
 62
     7
420
 16777215
100
AcDbHatch
 10
0.0
 20
0.0
 30
0.0
210
0.0
220
0.0
230
1.0
  2
SOLID
 70
     1
 71
     0
 91
        1
 92
        1
 93
        1
 72
     4
 94
        3
 73
     0
 74
     1
 95
       26
 96
       22
 40
0.0
 40
0.0
 40
0.0
 40
0.0
 40
1.0
 40
1.0
 40
1.0
 40
2.0
 40
2.0
 40
2.0
 40
3.0
 40
3.0
 40
3.0
 40
4.0
 40
4.0
 40
4.0
 40
5.0
 40
5.0
 40
5.0
 40
6.0
 40
6.0
 40
6.0
 40
7.0
 40
7.0
 40
7.0
 40
7.0
 10
1077.653652268418
 20
-1087.547056492414
 10
1077.824864078235
 20
-1092.997639830439
 10
1076.584030655844
 20
-1099.416906210592
 10
1073.390280691914
 20
-1105.332968653602
 10
1071.058806210714
 20
-1109.651770643035
 10
1068.04190234931
 20
-1113.454015830379
 10
1062.502145171327
 20
-1113.30863644825
 10
1057.152010010514
 20
-1113.168226057522
 10
1054.038023751302
 20
-1109.362591976462
 10
1052.072643156338
 20
-1105.135986607704
 10
1046.312732747732
 20
-1092.749159074563
 10
1046.296058567834
 20
-1080.147193965242
 10
1051.934727729449
 20
-1067.634145734377
 10
1052.44135667682
 20
-1066.509828268256
 10
1053.186382736178
 20
-1065.477270816873
 10
1053.916917644177
 20
-1064.472032422778
 10
1059.073147893729
 20
-1057.37700920138
 10
1066.426294903393
 20
-1057.266870155718
 10
1071.595290672214
 20
-1064.391047218887
 10
1076.31038283061
 20
-1070.889645937594
 10
1077.688518352821
 20
-1078.420464257852
 10
1077.653652268418
 20
-1087.547056492414
 97
        0
 97
        0
 75
     2
 76
     1
 98
        0
  0
SPLINE
  5
50
330
48
100
AcDbEntity
  8
katman 1
370
     0
100
AcDbSpline
210
0.0
220
0.0
230
1.0
 70
    11
 71
     3
 72
    35
 73
    31
 74
     0
 42
0.0000000001
 43
0.0000000001
 12
1.0
 22
0.0
 32
0.0
 13
1.0
 23
0.0
 33
0.0
 40
0.0
 40
0.0
 40
0.0
 40
0.0
 40
1.0
 40
1.0
 40
1.0
 40
2.0
 40
2.0
 40
2.0
 40
3.0
 40
3.0
 40
3.0
 40
4.0
 40
4.0
 40
4.0
 40
5.0
 40
5.0
 40
5.0
 40
6.0
 40
6.0
 40
6.0
 40
7.0
 40
7.0
 40
7.0
 40
8.0
 40
8.0
 40
8.0
 40
9.0
 40
9.0
 40
9.0
 40
10.0
 40
10.0
 40
10.0
 40
10.0
 10
1106.252906245156
 20
-1149.806439593813
 30
0.0
 10
1104.042932895294
 20
-1164.604459805912
 30
0.0
 10
1096.555664770249
 20
-1176.521036754884
 30
0.0
 10
1085.780776454043
 20
-1186.474363124684
 30
0.0
 10
1070.158171797915
 20
-1200.905811069933
 30
0.0
 10
1051.325174184083
 20
-1208.352998562215
 30
0.0
 10
1030.463675264349
 20
-1211.065173861163
 30
0.0
 10
1012.377460528081
 20
-1213.416504747345
 30
0.0
 10
994.6185025607747
 20
-1211.800584587594
 30
0.0
 10
977.4865207856628
 20
-1205.509966226286
 30
0.0
 10
955.6292697810077
 20
-1197.484255074782
 30
0.0
 10
938.0131130663685
 20
-1184.412377231136
 30
0.0
 10
928.4523862417054
 20
-1162.327965256654
 30
0.0
 10
927.4646100074924
 20
-1160.046293808407
 30
0.0
 10
926.5404300725777
 20
-1157.719038621117
 30
0.0
 10
926.216806486831
 20
-1155.216402986491
 30
0.0
 10
925.9677151338346
 20
-1154.154338250437
 30
0.0
 10
925.1991929303877
 20
-1152.958381026579
 30
0.0
 10
926.9403816919375
 20
-1152.409359454346
 30
0.0
 10
934.0625434912754
 20
-1171.836067918401
 30
0.0
 10
947.6300866609172
 20
-1185.606307355991
 30
0.0
 10
965.9544750086325
 20
-1194.229337012821
 30
0.0
 10
1001.676566484017
 20
-1211.039372529276
 30
0.0
 10
1037.302459168386
 20
-1210.267099787172
 30
0.0
 10
1071.790890029441
 20
-1190.613907190238
 30
0.0
 10
1088.60262151767
 20
-1181.033743757895
 30
0.0
 10
1100.57501533743
 20
-1167.010200108338
 30
0.0
 10
1105.492443055406
 20
-1147.759724512733
 30
0.0
 10
1107.130088694204
 20
-1147.927672263726
 30
0.0
 10
1106.26296896719
 20
-1149.026276758686
 30
0.0
 10
1106.252906245156
 20
-1149.806439593813
 30
0.0
  0
HATCH
  5
51
330
48
100
AcDbEntity
  8
katman 1
 62
     7
420
 16777215
100
AcDbHatch
 10
0.0
 20
0.0
 30
0.0
210
0.0
220
0.0
230
1.0
  2
SOLID
 70
     1
 71
     0
 91
        1
 92
        1
 93
        1
 72
     4
 94
        3
 73
     0
 74
     1
 95
       35
 96
       31
 40
0.0
 40
0.0
 40
0.0
 40
0.0
 40
1.0
 40
1.0
 40
1.0
 40
2.0
 40
2.0
 40
2.0
 40
3.0
 40
3.0
 40
3.0
 40
4.0
 40
4.0
 40
4.0
 40
5.0
 40
5.0
 40
5.0
 40
6.0
 40
6.0
 40
6.0
 40
7.0
 40
7.0
 40
7.0
 40
8.0
 40
8.0
 40
8.0
 40
9.0
 40
9.0
 40
9.0
 40
10.0
 40
10.0
 40
10.0
 40
10.0
 10
1106.252906245156
 20
-1149.806439593813
 10
1104.042932895294
 20
-1164.604459805912
 10
1096.555664770249
 20
-1176.521036754884
 10
1085.780776454043
 20
-1186.474363124684
 10
1070.158171797915
 20
-1200.905811069933
 10
1051.325174184083
 20
-1208.352998562215
 10
1030.463675264349
 20
-1211.065173861163
 10
1012.377460528081
 20
-1213.416504747345
 10
994.6185025607747
 20
-1211.800584587594
 10
977.4865207856628
 20
-1205.509966226286
 10
955.6292697810077
 20
-1197.484255074782
 10
938.0131130663685
 20
-1184.412377231136
 10
928.4523862417054
 20
-1162.327965256654
 10
927.4646100074924
 20
-1160.046293808407
 10
926.5404300725777
 20
-1157.719038621117
 10
926.216806486831
 20
-1155.216402986491
 10
925.9677151338346
 20
-1154.154338250437
 10
925.1991929303877
 20
-1152.958381026579
 10
926.9403816919375
 20
-1152.409359454346
 10
934.0625434912754
 20
-1171.836067918401
 10
947.6300866609172
 20
-1185.606307355991
 10
965.9544750086325
 20
-1194.229337012821
 10
1001.676566484017
 20
-1211.039372529276
 10
1037.302459168386
 20
-1210.267099787172
 10
1071.790890029441
 20
-1190.613907190238
 10
1088.60262151767
 20
-1181.033743757895
 10
1100.57501533743
 20
-1167.010200108338
 10
1105.492443055406
 20
-1147.759724512733
 10
1107.130088694204
 20
-1147.927672263726
 10
1106.26296896719
 20
-1149.026276758686
 10
1106.252906245156
 20
-1149.806439593813
 97
        0
 97
        0
 75
     2
 76
     1
 98
        0
  0
SPLINE
  5
52
330
48
100
AcDbEntity
  8
katman 1
370
     0
100
AcDbSpline
210
0.0
220
0.0
230
1.0
 70
    11
 71
     3
 72
    26
 73
    22
 74
     0
 42
0.0000000001
 43
0.0000000001
 12
1.0
 22
0.0
 32
0.0
 13
1.0
 23
0.0
 33
0.0
 40
0.0
 40
0.0
 40
0.0
 40
0.0
 40
1.0
 40
1.0
 40
1.0
 40
2.0
 40
2.0
 40
2.0
 40
3.0
 40
3.0
 40
3.0
 40
4.0
 40
4.0
 40
4.0
 40
5.0
 40
5.0
 40
5.0
 40
6.0
 40
6.0
 40
6.0
 40
7.0
 40
7.0
 40
7.0
 40
7.0
 10
1102.699871364966
 20
-1122.424219975941
 30
0.0
 10
1096.424080126135
 20
-1123.117290321725
 30
0.0
 10
1090.934990001037
 20
-1121.316218057927
 30
0.0
 10
1086.039496522209
 20
-1117.71761835474
 30
0.0
 10
1083.701223466409
 20
-1115.998783938063
 30
0.0
 10
1083.63394460587
 20
-1112.828900080302
 30
0.0
 10
1085.587879894056
 20
-1110.623707438945
 30
0.0
 10
1087.201075613208
 20
-1108.803039884806
 30
0.0
 10
1089.197756679292
 20
-1107.392376493031
 30
0.0
 10
1091.429830594287
 20
-1106.653961501925
 30
0.0
 10
1099.947966377622
 20
-1103.835971635179
 30
0.0
 10
1108.445727227916
 20
-1104.478166993758
 30
0.0
 10
1116.563537158434
 20
-1108.014404815402
 30
0.0
 10
1118.815154376549
 20
-1108.995250451528
 30
0.0
 10
1121.673819854892
 20
-1110.897230664006
 30
0.0
 10
1120.965998839083
 20
-1114.211402389046
 30
0.0
 10
1120.111748585086
 20
-1118.211242949685
 30
0.0
 10
1116.601521855033
 20
-1119.738147474887
 30
0.0
 10
1113.212422022858
 20
-1121.0507824381
 30
0.0
 10
1109.810494299163
 20
-1122.368386392714
 30
0.0
 10
1106.240078353638
 20
-1122.896689973632
 30
0.0
 10
1102.699871364966
 20
-1122.424219975941
 30
0.0
  0
HATCH
  5
53
330
48
100
AcDbEntity
  8
katman 1
 62
   242
420
 15269929
100
AcDbHatch
 10
0.0
 20
0.0
 30
0.0
210
0.0
220
0.0
230
1.0
  2
SOLID
 70
     1
 71
     0
 91
        1
 92
        1
 93
        1
 72
     4
 94
        3
 73
     0
 74
     1
 95
       26
 96
       22
 40
0.0
 40
0.0
 40
0.0
 40
0.0
 40
1.0
 40
1.0
 40
1.0
 40
2.0
 40
2.0
 40
2.0
 40
3.0
 40
3.0
 40
3.0
 40
4.0
 40
4.0
 40
4.0
 40
5.0
 40
5.0
 40
5.0
 40
6.0
 40
6.0
 40
6.0
 40
7.0
 40
7.0
 40
7.0
 40
7.0
 10
1102.699871364966
 20
-1122.424219975941
 10
1096.424080126135
 20
-1123.117290321725
 10
1090.934990001037
 20
-1121.316218057927
 10
1086.039496522209
 20
-1117.71761835474
 10
1083.701223466409
 20
-1115.998783938063
 10
1083.63394460587
 20
-1112.828900080302
 10
1085.587879894056
 20
-1110.623707438945
 10
1087.201075613208
 20
-1108.803039884806
 10
1089.197756679292
 20
-1107.392376493031
 10
1091.429830594287
 20
-1106.653961501925
 10
1099.947966377622
 20
-1103.835971635179
 10
1108.445727227916
 20
-1104.478166993758
 10
1116.563537158434
 20
-1108.014404815402
 10
1118.815154376549
 20
-1108.995250451528
 10
1121.673819854892
 20
-1110.897230664006
 10
1120.965998839083
 20
-1114.211402389046
 10
1120.111748585086
 20
-1118.211242949685
 10
1116.601521855033
 20
-1119.738147474887
 10
1113.212422022858
 20
-1121.0507824381
 10
1109.810494299163
 20
-1122.368386392714
 10
1106.240078353638
 20
-1122.896689973632
 10
1102.699871364966
 20
-1122.424219975941
 97
        0
 97
        0
 75
     2
 76
     1
 98
        0
  0
SPLINE
  5
54
330
48
100
AcDbEntity
  8
katman 1
370
     0
100
AcDbSpline
210
0.0
220
0.0
230
1.0
 70
    11
 71
     3
 72
    26
 73
    22
 74
     0
 42
0.0000000001
 43
0.0000000001
 12
1.0
 22
0.0
 32
0.0
 13
1.0
 23
0.0
 33
0.0
 40
0.0
 40
0.0
 40
0.0
 40
0.0
 40
1.0
 40
1.0
 40
1.0
 40
2.0
 40
2.0
 40
2.0
 40
3.0
 40
3.0
 40
3.0
 40
4.0
 40
4.0
 40
4.0
 40
5.0
 40
5.0
 40
5.0
 40
6.0
 40
6.0
 40
6.0
 40
7.0
 40
7.0
 40
7.0
 40
7.0
 10
928.3850502066061
 20
-1122.456268930895
 30
0.0
 10
921.7974367303614
 20
-1122.857364253025
 30
0.0
 10
916.1984882928109
 20
-1121.560228800627
 30
0.0
 10
911.7759999241389
 20
-1117.093687677923
 30
0.0
 10
909.4334647650021
 20
-1114.727813655831
 30
0.0
 10
909.7555368411795
 20
-1111.384347751396
 30
0.0
 10
912.5041880764602
 20
-1109.588182106716
 30
0.0
 10
918.2676485052843
 20
-1105.821936118533
 30
0.0
 10
924.7066029356083
 20
-1104.081832755433
 30
0.0
 10
931.5175168419491
 20
-1105.071223393496
 30
0.0
 10
934.9106136954324
 20
-1105.564130707256
 30
0.0
 10
938.4541627968456
 20
-1106.019011722849
 30
0.0
 10
941.6371743394311
 20
-1107.596053163319
 30
0.0
 10
944.3199292989102
 20
-1108.925216779928
 30
0.0
 10
946.8686618990678
 20
-1110.261334905397
 30
0.0
 10
946.7918348875073
 20
-1113.963961171114
 30
0.0
 10
946.7187086290878
 20
-1117.488233910974
 30
0.0
 10
944.3180425385299
 20
-1118.709056882559
 30
0.0
 10
941.6645609522393
 20
-1119.851561065087
 30
0.0
 10
937.2676400059281
 20
-1121.744736391138
 30
0.0
 10
932.7838605121424
 20
-1123.169080102329
 30
0.0
 10
928.3850502066061
 20
-1122.456268930895
 30
0.0
  0
HATCH
  5
55
330
48
100
AcDbEntity
  8
katman 1
 62
   242
420
 15269929
100
AcDbHatch
 10
0.0
 20
0.0
 30
0.0
210
0.0
220
0.0
230
1.0
  2
SOLID
 70
     1
 71
     0
 91
        1
 92
        1
 93
        1
 72
     4
 94
        3
 73
     0
 74
     1
 95
       26
 96
       22
 40
0.0
 40
0.0
 40
0.0
 40
0.0
 40
1.0
 40
1.0
 40
1.0
 40
2.0
 40
2.0
 40
2.0
 40
3.0
 40
3.0
 40
3.0
 40
4.0
 40
4.0
 40
4.0
 40
5.0
 40
5.0
 40
5.0
 40
6.0
 40
6.0
 40
6.0
 40
7.0
 40
7.0
 40
7.0
 40
7.0
 10
928.3850502066061
 20
-1122.456268930895
 10
921.7974367303614
 20
-1122.857364253025
 10
916.1984882928109
 20
-1121.560228800627
 10
911.7759999241389
 20
-1117.093687677923
 10
909.4334647650021
 20
-1114.727813655831
 10
909.7555368411795
 20
-1111.384347751396
 10
912.5041880764602
 20
-1109.588182106716
 10
918.2676485052843
 20
-1105.821936118533
 10
924.7066029356083
 20
-1104.081832755433
 10
931.5175168419491
 20
-1105.071223393496
 10
934.9106136954324
 20
-1105.564130707256
 10
938.4541627968456
 20
-1106.019011722849
 10
941.6371743394311
 20
-1107.596053163319
 10
944.3199292989102
 20
-1108.925216779928
 10
946.8686618990678
 20
-1110.261334905397
 10
946.7918348875073
 20
-1113.963961171114
 10
946.7187086290878
 20
-1117.488233910974
 10
944.3180425385299
 20
-1118.709056882559
 10
941.6645609522393
 20
-1119.851561065087
 10
937.2676400059281
 20
-1121.744736391138
 10
932.7838605121424
 20
-1123.169080102329
 10
928.3850502066061
 20
-1122.456268930895
 97
        0
 97
        0
 75
     2
 76
     1
 98
        0
  0
SPLINE
  5
56
330
48
100
AcDbEntity
  8
katman 1
370
     0
100
AcDbSpline
210
0.0
220
0.0
230
1.0
 70
    11
 71
     3
 72
    14
 73
    10
 74
     0
 42
0.0000000001
 43
0.0000000001
 12
1.0
 22
0.0
 32
0.0
 13
1.0
 23
0.0
 33
0.0
 40
0.0
 40
0.0
 40
0.0
 40
0.0
 40
1.0
 40
1.0
 40
1.0
 40
2.0
 40
2.0
 40
2.0
 40
3.0
 40
3.0
 40
3.0
 40
3.0
 10
929.4922277066089
 20
-1135.327713462655
 30
0.0
 10
928.7755966113355
 20
-1138.40976675913
 30
0.0
 10
926.4977362715526
 20
-1139.090476998706
 30
0.0
 10
923.8796717244868
 20
-1139.023260474944
 30
0.0
 10
921.3491830057019
 20
-1138.958268562386
 30
0.0
 10
919.3989042903177
 20
-1137.924739143022
 30
0.0
 10
918.346752103751
 20
-1134.476934814673
 30
0.0
 10
922.3083615660371
 20
-1138.140193778272
 30
0.0
 10
925.8307093021749
 20
-1138.358933353438
 30
0.0
 10
929.4922277066089
 20
-1135.327713462655
 30
0.0
  0
HATCH
  5
57
330
48
100
AcDbEntity
  8
katman 1
 62
     7
420
 16777215
100
AcDbHatch
 10
0.0
 20
0.0
 30
0.0
210
0.0
220
0.0
230
1.0
  2
SOLID
 70
     1
 71
     0
 91
        1
 92
        1
 93
        1
 72
     4
 94
        3
 73
     0
 74
     1
 95
       14
 96
       10
 40
0.0
 40
0.0
 40
0.0
 40
0.0
 40
1.0
 40
1.0
 40
1.0
 40
2.0
 40
2.0
 40
2.0
 40
3.0
 40
3.0
 40
3.0
 40
3.0
 10
929.4922277066089
 20
-1135.327713462655
 10
928.7755966113355
 20
-1138.40976675913
 10
926.4977362715526
 20
-1139.090476998706
 10
923.8796717244868
 20
-1139.023260474944
 10
921.3491830057019
 20
-1138.958268562386
 10
919.3989042903177
 20
-1137.924739143022
 10
918.346752103751
 20
-1134.476934814673
 10
922.3083615660371
 20
-1138.140193778272
 10
925.8307093021749
 20
-1138.358933353438
 10
929.4922277066089
 20
-1135.327713462655
 97
        0
 97
        0
 75
     2
 76
     1
 98
        0
  0
SPLINE
  5
58
330
48
100
AcDbEntity
  8
katman 1
370
     0
100
AcDbSpline
210
0.0
220
0.0
230
1.0
 70
    11
 71
     3
 72
    17
 73
    13
 74
     0
 42
0.0000000001
 43
0.0000000001
 12
1.0
 22
0.0
 32
0.0
 13
1.0
 23
0.0
 33
0.0
 40
0.0
 40
0.0
 40
0.0
 40
0.0
 40
1.0
 40
1.0
 40
1.0
 40
2.0
 40
2.0
 40
2.0
 40
3.0
 40
3.0
 40
3.0
 40
4.0
 40
4.0
 40
4.0
 40
4.0
 10
1106.053980368251
 20
-1138.92978522259
 30
0.0
 10
1103.788724419444
 20
-1138.781671855659
 30
0.0
 10
1102.335534296939
 20
-1137.565433246429
 30
0.0
 10
1101.115242133576
 20
-1134.726018502563
 30
0.0
 10
1105.170810183778
 20
-1137.883729370946
 30
0.0
 10
1108.761767388329
 20
-1138.587694074429
 30
0.0
 10
1112.271807001645
 20
-1135.022130887253
 30
0.0
 10
1111.753161001932
 20
-1137.864123685231
 30
0.0
 10
1111.112764381904
 20
-1138.381231442434
 30
0.0
 10
1107.575114655236
 20
-1138.964110765663
 30
0.0
 10
1107.061042620082
 20
-1139.264090231518
 30
0.0
 10
1106.553748368777
 20
-1139.263715997859
 30
0.0
 10
1106.053980368251
 20
-1138.92978522259
 30
0.0
  0
HATCH
  5
59
330
48
100
AcDbEntity
  8
katman 1
 62
     7
420
 16777215
100
AcDbHatch
 10
0.0
 20
0.0
 30
0.0
210
0.0
220
0.0
230
1.0
  2
SOLID
 70
     1
 71
     0
 91
        1
 92
        1
 93
        1
 72
     4
 94
        3
 73
     0
 74
     1
 95
       17
 96
       13
 40
0.0
 40
0.0
 40
0.0
 40
0.0
 40
1.0
 40
1.0
 40
1.0
 40
2.0
 40
2.0
 40
2.0
 40
3.0
 40
3.0
 40
3.0
 40
4.0
 40
4.0
 40
4.0
 40
4.0
 10
1106.053980368251
 20
-1138.92978522259
 10
1103.788724419444
 20
-1138.781671855659
 10
1102.335534296939
 20
-1137.565433246429
 10
1101.115242133576
 20
-1134.726018502563
 10
1105.170810183778
 20
-1137.883729370946
 10
1108.761767388329
 20
-1138.587694074429
 10
1112.271807001645
 20
-1135.022130887253
 10
1111.753161001932
 20
-1137.864123685231
 10
1111.112764381904
 20
-1138.381231442434
 10
1107.575114655236
 20
-1138.964110765663
 10
1107.061042620082
 20
-1139.264090231518
 10
1106.553748368777
 20
-1139.263715997859
 10
1106.053980368251
 20
-1138.92978522259
 97
        0
 97
        0
 75
     2
 76
     1
 98
        0
  0
ENDBLK
  5
4B
330
48
100
AcDbEntity
  8
0
100
AcDbBlockEnd
  0
ENDSEC
  0
SECTION
  2
ENTITIES
  0
SPLINE
  5
41
330
1F
100
AcDbEntity
  8
katman 1
370
     0
100
AcDbSpline
210
0.0
220
0.0
230
1.0
 70
    11
 71
     3
 72
   992
 73
   988
 74
     0
 42
0.0000000001
 43
0.0000000001
 12
1.0
 22
0.0
 32
0.0
 13
1.0
 23
0.0
 33
0.0
 40
0.0
 40
0.0
 40
0.0
 40
0.0
 40
1.0
 40
1.0
 40
1.0
 40
2.0
 40
2.0
 40
2.0
 40
3.0
 40
3.0
 40
3.0
 40
4.0
 40
4.0
 40
4.0
 40
5.0
 40
5.0
 40
5.0
 40
6.0
 40
6.0
 40
6.0
 40
7.0
 40
7.0
 40
7.0
 40
8.0
 40
8.0
 40
8.0
 40
9.0
 40
9.0
 40
9.0
 40
10.0
 40
10.0
 40
10.0
 40
11.0
 40
11.0
 40
11.0
 40
12.0
 40
12.0
 40
12.0
 40
13.0
 40
13.0
 40
13.0
 40
14.0
 40
14.0
 40
14.0
 40
15.0
 40
15.0
 40
15.0
 40
16.0
 40
16.0
 40
16.0
 40
17.0
 40
17.0
 40
17.0
 40
18.0
 40
18.0
 40
18.0
 40
19.0
 40
19.0
 40
19.0
 40
20.0
 40
20.0
 40
20.0
 40
21.0
 40
21.0
 40
21.0
 40
22.0
 40
22.0
 40
22.0
 40
23.0
 40
23.0
 40
23.0
 40
24.0
 40
24.0
 40
24.0
 40
25.0
 40
25.0
 40
25.0
 40
26.0
 40
26.0
 40
26.0
 40
27.0
 40
27.0
 40
27.0
 40
28.0
 40
28.0
 40
28.0
 40
29.0
 40
29.0
 40
29.0
 40
30.0
 40
30.0
 40
30.0
 40
31.0
 40
31.0
 40
31.0
 40
32.0
 40
32.0
 40
32.0
 40
33.0
 40
33.0
 40
33.0
 40
34.0
 40
34.0
 40
34.0
 40
35.0
 40
35.0
 40
35.0
 40
36.0
 40
36.0
 40
36.0
 40
37.0
 40
37.0
 40
37.0
 40
38.0
 40
38.0
 40
38.0
 40
39.0
 40
39.0
 40
39.0
 40
40.0
 40
40.0
 40
40.0
 40
41.0
 40
41.0
 40
41.0
 40
42.0
 40
42.0
 40
42.0
 40
43.0
 40
43.0
 40
43.0
 40
44.0
 40
44.0
 40
44.0
 40
45.0
 40
45.0
 40
45.0
 40
46.0
 40
46.0
 40
46.0
 40
47.0
 40
47.0
 40
47.0
 40
48.0
 40
48.0
 40
48.0
 40
49.0
 40
49.0
 40
49.0
 40
50.0
 40
50.0
 40
50.0
 40
51.0
 40
51.0
 40
51.0
 40
52.0
 40
52.0
 40
52.0
 40
53.0
 40
53.0
 40
53.0
 40
54.0
 40
54.0
 40
54.0
 40
55.0
 40
55.0
 40
55.0
 40
56.0
 40
56.0
 40
56.0
 40
57.0
 40
57.0
 40
57.0
 40
58.0
 40
58.0
 40
58.0
 40
59.0
 40
59.0
 40
59.0
 40
60.0
 40
60.0
 40
60.0
 40
61.0
 40
61.0
 40
61.0
 40
62.0
 40
62.0
 40
62.0
 40
63.0
 40
63.0
 40
63.0
 40
64.0
 40
64.0
 40
64.0
 40
65.0
 40
65.0
 40
65.0
 40
66.0
 40
66.0
 40
66.0
 40
67.0
 40
67.0
 40
67.0
 40
68.0
 40
68.0
 40
68.0
 40
69.0
 40
69.0
 40
69.0
 40
70.0
 40
70.0
 40
70.0
 40
71.0
 40
71.0
 40
71.0
 40
72.0
 40
72.0
 40
72.0
 40
73.0
 40
73.0
 40
73.0
 40
74.0
 40
74.0
 40
74.0
 40
75.0
 40
75.0
 40
75.0
 40
76.0
 40
76.0
 40
76.0
 40
77.0
 40
77.0
 40
77.0
 40
78.0
 40
78.0
 40
78.0
 40
79.0
 40
79.0
 40
79.0
 40
80.0
 40
80.0
 40
80.0
 40
81.0
 40
81.0
 40
81.0
 40
82.0
 40
82.0
 40
82.0
 40
83.0
 40
83.0
 40
83.0
 40
84.0
 40
84.0
 40
84.0
 40
85.0
 40
85.0
 40
85.0
 40
86.0
 40
86.0
 40
86.0
 40
87.0
 40
87.0
 40
87.0
 40
88.0
 40
88.0
 40
88.0
 40
89.0
 40
89.0
 40
89.0
 40
90.0
 40
90.0
 40
90.0
 40
91.0
 40
91.0
 40
91.0
 40
92.0
 40
92.0
 40
92.0
 40
93.0
 40
93.0
 40
93.0
 40
94.0
 40
94.0
 40
94.0
 40
95.0
 40
95.0
 40
95.0
 40
96.0
 40
96.0
 40
96.0
 40
97.0
 40
97.0
 40
97.0
 40
98.0
 40
98.0
 40
98.0
 40
99.0
 40
99.0
 40
99.0
 40
100.0
 40
100.0
 40
100.0
 40
101.0
 40
101.0
 40
101.0
 40
102.0
 40
102.0
 40
102.0
 40
103.0
 40
103.0
 40
103.0
 40
104.0
 40
104.0
 40
104.0
 40
105.0
 40
105.0
 40
105.0
 40
106.0
 40
106.0
 40
106.0
 40
107.0
 40
107.0
 40
107.0
 40
108.0
 40
108.0
 40
108.0
 40
109.0
 40
109.0
 40
109.0
 40
110.0
 40
110.0
 40
110.0
 40
111.0
 40
111.0
 40
111.0
 40
112.0
 40
112.0
 40
112.0
 40
113.0
 40
113.0
 40
113.0
 40
114.0
 40
114.0
 40
114.0
 40
115.0
 40
115.0
 40
115.0
 40
116.0
 40
116.0
 40
116.0
 40
117.0
 40
117.0
 40
117.0
 40
118.0
 40
118.0
 40
118.0
 40
119.0
 40
119.0
 40
119.0
 40
120.0
 40
120.0
 40
120.0
 40
121.0
 40
121.0
 40
121.0
 40
122.0
 40
122.0
 40
122.0
 40
123.0
 40
123.0
 40
123.0
 40
124.0
 40
124.0
 40
124.0
 40
125.0
 40
125.0
 40
125.0
 40
126.0
 40
126.0
 40
126.0
 40
127.0
 40
127.0
 40
127.0
 40
128.0
 40
128.0
 40
128.0
 40
129.0
 40
129.0
 40
129.0
 40
130.0
 40
130.0
 40
130.0
 40
131.0
 40
131.0
 40
131.0
 40
132.0
 40
132.0
 40
132.0
 40
133.0
 40
133.0
 40
133.0
 40
134.0
 40
134.0
 40
134.0
 40
135.0
 40
135.0
 40
135.0
 40
136.0
 40
136.0
 40
136.0
 40
137.0
 40
137.0
 40
137.0
 40
138.0
 40
138.0
 40
138.0
 40
139.0
 40
139.0
 40
139.0
 40
140.0
 40
140.0
 40
140.0
 40
141.0
 40
141.0
 40
141.0
 40
142.0
 40
142.0
 40
142.0
 40
143.0
 40
143.0
 40
143.0
 40
144.0
 40
144.0
 40
144.0
 40
145.0
 40
145.0
 40
145.0
 40
146.0
 40
146.0
 40
146.0
 40
147.0
 40
147.0
 40
147.0
 40
148.0
 40
148.0
 40
148.0
 40
149.0
 40
149.0
 40
149.0
 40
150.0
 40
150.0
 40
150.0
 40
151.0
 40
151.0
 40
151.0
 40
152.0
 40
152.0
 40
152.0
 40
153.0
 40
153.0
 40
153.0
 40
154.0
 40
154.0
 40
154.0
 40
155.0
 40
155.0
 40
155.0
 40
156.0
 40
156.0
 40
156.0
 40
157.0
 40
157.0
 40
157.0
 40
158.0
 40
158.0
 40
158.0
 40
159.0
 40
159.0
 40
159.0
 40
160.0
 40
160.0
 40
160.0
 40
161.0
 40
161.0
 40
161.0
 40
162.0
 40
162.0
 40
162.0
 40
163.0
 40
163.0
 40
163.0
 40
164.0
 40
164.0
 40
164.0
 40
165.0
 40
165.0
 40
165.0
 40
166.0
 40
166.0
 40
166.0
 40
167.0
 40
167.0
 40
167.0
 40
168.0
 40
168.0
 40
168.0
 40
169.0
 40
169.0
 40
169.0
 40
170.0
 40
170.0
 40
170.0
 40
171.0
 40
171.0
 40
171.0
 40
172.0
 40
172.0
 40
172.0
 40
173.0
 40
173.0
 40
173.0
 40
174.0
 40
174.0
 40
174.0
 40
175.0
 40
175.0
 40
175.0
 40
176.0
 40
176.0
 40
176.0
 40
177.0
 40
177.0
 40
177.0
 40
178.0
 40
178.0
 40
178.0
 40
179.0
 40
179.0
 40
179.0
 40
180.0
 40
180.0
 40
180.0
 40
181.0
 40
181.0
 40
181.0
 40
182.0
 40
182.0
 40
182.0
 40
183.0
 40
183.0
 40
183.0
 40
184.0
 40
184.0
 40
184.0
 40
185.0
 40
185.0
 40
185.0
 40
186.0
 40
186.0
 40
186.0
 40
187.0
 40
187.0
 40
187.0
 40
188.0
 40
188.0
 40
188.0
 40
189.0
 40
189.0
 40
189.0
 40
190.0
 40
190.0
 40
190.0
 40
191.0
 40
191.0
 40
191.0
 40
192.0
 40
192.0
 40
192.0
 40
193.0
 40
193.0
 40
193.0
 40
194.0
 40
194.0
 40
194.0
 40
195.0
 40
195.0
 40
195.0
 40
196.0
 40
196.0
 40
196.0
 40
197.0
 40
197.0
 40
197.0
 40
198.0
 40
198.0
 40
198.0
 40
199.0
 40
199.0
 40
199.0
 40
200.0
 40
200.0
 40
200.0
 40
201.0
 40
201.0
 40
201.0
 40
202.0
 40
202.0
 40
202.0
 40
203.0
 40
203.0
 40
203.0
 40
204.0
 40
204.0
 40
204.0
 40
205.0
 40
205.0
 40
205.0
 40
206.0
 40
206.0
 40
206.0
 40
207.0
 40
207.0
 40
207.0
 40
208.0
 40
208.0
 40
208.0
 40
209.0
 40
209.0
 40
209.0
 40
210.0
 40
210.0
 40
210.0
 40
211.0
 40
211.0
 40
211.0
 40
212.0
 40
212.0
 40
212.0
 40
213.0
 40
213.0
 40
213.0
 40
214.0
 40
214.0
 40
214.0
 40
215.0
 40
215.0
 40
215.0
 40
216.0
 40
216.0
 40
216.0
 40
217.0
 40
217.0
 40
217.0
 40
218.0
 40
218.0
 40
218.0
 40
219.0
 40
219.0
 40
219.0
 40
220.0
 40
220.0
 40
220.0
 40
221.0
 40
221.0
 40
221.0
 40
222.0
 40
222.0
 40
222.0
 40
223.0
 40
223.0
 40
223.0
 40
224.0
 40
224.0
 40
224.0
 40
225.0
 40
225.0
 40
225.0
 40
226.0
 40
226.0
 40
226.0
 40
227.0
 40
227.0
 40
227.0
 40
228.0
 40
228.0
 40
228.0
 40
229.0
 40
229.0
 40
229.0
 40
230.0
 40
230.0
 40
230.0
 40
231.0
 40
231.0
 40
231.0
 40
232.0
 40
232.0
 40
232.0
 40
233.0
 40
233.0
 40
233.0
 40
234.0
 40
234.0
 40
234.0
 40
235.0
 40
235.0
 40
235.0
 40
236.0
 40
236.0
 40
236.0
 40
237.0
 40
237.0
 40
237.0
 40
238.0
 40
238.0
 40
238.0
 40
239.0
 40
239.0
 40
239.0
 40
240.0
 40
240.0
 40
240.0
 40
241.0
 40
241.0
 40
241.0
 40
242.0
 40
242.0
 40
242.0
 40
243.0
 40
243.0
 40
243.0
 40
244.0
 40
244.0
 40
244.0
 40
245.0
 40
245.0
 40
245.0
 40
246.0
 40
246.0
 40
246.0
 40
247.0
 40
247.0
 40
247.0
 40
248.0
 40
248.0
 40
248.0
 40
249.0
 40
249.0
 40
249.0
 40
250.0
 40
250.0
 40
250.0
 40
251.0
 40
251.0
 40
251.0
 40
252.0
 40
252.0
 40
252.0
 40
253.0
 40
253.0
 40
253.0
 40
254.0
 40
254.0
 40
254.0
 40
255.0
 40
255.0
 40
255.0
 40
256.0
 40
256.0
 40
256.0
 40
257.0
 40
257.0
 40
257.0
 40
258.0
 40
258.0
 40
258.0
 40
259.0
 40
259.0
 40
259.0
 40
260.0
 40
260.0
 40
260.0
 40
261.0
 40
261.0
 40
261.0
 40
262.0
 40
262.0
 40
262.0
 40
263.0
 40
263.0
 40
263.0
 40
264.0
 40
264.0
 40
264.0
 40
265.0
 40
265.0
 40
265.0
 40
266.0
 40
266.0
 40
266.0
 40
267.0
 40
267.0
 40
267.0
 40
268.0
 40
268.0
 40
268.0
 40
269.0
 40
269.0
 40
269.0
 40
270.0
 40
270.0
 40
270.0
 40
271.0
 40
271.0
 40
271.0
 40
272.0
 40
272.0
 40
272.0
 40
273.0
 40
273.0
 40
273.0
 40
274.0
 40
274.0
 40
274.0
 40
275.0
 40
275.0
 40
275.0
 40
276.0
 40
276.0
 40
276.0
 40
277.0
 40
277.0
 40
277.0
 40
278.0
 40
278.0
 40
278.0
 40
279.0
 40
279.0
 40
279.0
 40
280.0
 40
280.0
 40
280.0
 40
281.0
 40
281.0
 40
281.0
 40
282.0
 40
282.0
 40
282.0
 40
283.0
 40
283.0
 40
283.0
 40
284.0
 40
284.0
 40
284.0
 40
285.0
 40
285.0
 40
285.0
 40
286.0
 40
286.0
 40
286.0
 40
287.0
 40
287.0
 40
287.0
 40
288.0
 40
288.0
 40
288.0
 40
289.0
 40
289.0
 40
289.0
 40
290.0
 40
290.0
 40
290.0
 40
291.0
 40
291.0
 40
291.0
 40
292.0
 40
292.0
 40
292.0
 40
293.0
 40
293.0
 40
293.0
 40
294.0
 40
294.0
 40
294.0
 40
295.0
 40
295.0
 40
295.0
 40
296.0
 40
296.0
 40
296.0
 40
297.0
 40
297.0
 40
297.0
 40
298.0
 40
298.0
 40
298.0
 40
299.0
 40
299.0
 40
299.0
 40
300.0
 40
300.0
 40
300.0
 40
301.0
 40
301.0
 40
301.0
 40
302.0
 40
302.0
 40
302.0
 40
303.0
 40
303.0
 40
303.0
 40
304.0
 40
304.0
 40
304.0
 40
305.0
 40
305.0
 40
305.0
 40
306.0
 40
306.0
 40
306.0
 40
307.0
 40
307.0
 40
307.0
 40
308.0
 40
308.0
 40
308.0
 40
309.0
 40
309.0
 40
309.0
 40
310.0
 40
310.0
 40
310.0
 40
311.0
 40
311.0
 40
311.0
 40
312.0
 40
312.0
 40
312.0
 40
313.0
 40
313.0
 40
313.0
 40
314.0
 40
314.0
 40
314.0
 40
315.0
 40
315.0
 40
315.0
 40
316.0
 40
316.0
 40
316.0
 40
317.0
 40
317.0
 40
317.0
 40
318.0
 40
318.0
 40
318.0
 40
319.0
 40
319.0
 40
319.0
 40
320.0
 40
320.0
 40
320.0
 40
321.0
 40
321.0
 40
321.0
 40
322.0
 40
322.0
 40
322.0
 40
323.0
 40
323.0
 40
323.0
 40
324.0
 40
324.0
 40
324.0
 40
325.0
 40
325.0
 40
325.0
 40
326.0
 40
326.0
 40
326.0
 40
327.0
 40
327.0
 40
327.0
 40
328.0
 40
328.0
 40
328.0
 40
329.0
 40
329.0
 40
329.0
 40
329.0
 10
1030.15170727385
 20
-1409.932320936847
 30
0.0
 10
1030.00404340006
 20
-1386.498824546044
 30
0.0
 10
1020.080664972553
 20
-1321.427776834069
 30
0.0
 10
1009.757383110622
 20
-1276.424934850773
 30
0.0
 10
1006.9028141938
 20
-1263.942315254026
 30
0.0
 10
1004.521933711272
 20
-1248.303556368834
 30
0.0
 10
1004.485041211337
 20
-1241.640845979589
 30
0.0
 10
1004.41120927444
 20
-1223.916581296475
 30
0.0
 10
999.5017844355962
 20
-1218.059685714996
 30
0.0
 10
994.2663350362473
 20
-1229.484250943346
 30
0.0
 10
991.9592864906163
 20
-1234.572036468906
 30
0.0
 10
987.9357979574916
 20
-1238.74933762581
 30
0.0
 10
985.2965291643432
 20
-1238.74933762581
 30
0.0
 10
980.2087436387828
 20
-1238.74933762581
 30
0.0
 10
973.6505619993541
 20
-1245.559711888845
 30
0.0
 10
963.2903876374867
 20
-1261.635266708392
 30
0.0
 10
959.7036950387228
 20
-1267.159848168309
 30
0.0
 10
954.3574742655192
 20
-1271.700160259697
 30
0.0
 10
951.3921339748422
 20
-1271.700160259697
 30
0.0
 10
948.3837524342389
 20
-1271.700160259697
 30
0.0
 10
945.9721282017645
 20
-1273.348870123258
 30
0.0
 10
945.9721282017645
 20
-1275.366786608321
 30
0.0
 10
945.9721282017645
 20
-1277.384703093387
 30
0.0
 10
942.7853390374257
 20
-1279.027311143984
 30
0.0
 10
938.8664261911445
 20
-1279.027311143984
 30
0.0
 10
934.9475133448623
 20
-1279.027311143984
 30
0.0
 10
930.6656365011177
 20
-1280.780690568437
 30
0.0
 10
929.3429042610378
 20
-1282.94617705324
 30
0.0
 10
927.9894282710084
 20
-1285.105655599125
 30
0.0
 10
924.661123982868
 20
-1285.985349280814
 30
0.0
 10
921.9111307528883
 20
-1284.921005351356
 30
0.0
 10
919.1611375229058
 20
-1283.856661421896
 30
0.0
 10
915.9804971085568
 20
-1284.5518926039
 30
0.0
 10
914.8115774922562
 20
-1286.422145215169
 30
0.0
 10
913.6426578759556
 20
-1288.292397826448
 30
0.0
 10
905.7617909334676
 20
-1291.657594614524
 30
0.0
 10
897.3087616828061
 20
-1293.927750660217
 30
0.0
 10
886.8563091340775
 20
-1296.708487640144
 30
0.0
 10
876.8590987696734
 20
-1303.414380090391
 30
0.0
 10
866.2835773471097
 20
-1314.728080070839
 30
0.0
 10
857.6939613600434
 20
-1323.919381753425
 30
0.0
 10
849.5977942938835
 20
-1330.323750769076
 30
0.0
 10
848.2941654220904
 20
-1329.044153652971
 30
0.0
 10
842.1463072361503
 20
-1322.89202419795
 30
0.0
 10
869.0520637640802
 20
-1262.951756324437
 30
0.0
 10
880.7780116159547
 20
-1256.652056869678
 30
0.0
 10
884.4138942146337
 20
-1254.714121071502
 30
0.0
 10
887.3853832553004
 20
-1250.832147662177
 30
0.0
 10
887.3853832553004
 20
-1248.008228621256
 30
0.0
 10
887.3853832553004
 20
-1245.184309580334
 30
0.0
 10
890.6767950435042
 20
-1241.862294853254
 30
0.0
 10
894.7064323266177
 20
-1240.576502050131
 30
0.0
 10
898.7360696097303
 20
-1239.290709247009
 30
0.0
 10
902.0274813979358
 20
-1236.14696133259
 30
0.0
 10
902.0274813979358
 20
-1233.581571413362
 30
0.0
 10
902.0274813979358
 20
-1231.016181494128
 30
0.0
 10
908.5487236004055
 20
-1226.955659650002
 30
0.0
 10
916.5280174797472
 20
-1224.574826104501
 30
0.0
 10
924.4765676091401
 20
-1222.193898684951
 30
0.0
 10
933.8155331655216
 20
-1217.40144090697
 30
0.0
 10
937.2545618904951
 20
-1213.91937093207
 30
0.0
 10
940.6997393654574
 20
-1210.480295270077
 30
0.0
 10
948.6052482449259
 20
-1203.706813506971
 30
0.0
 10
954.7942701998791
 20
-1198.908160041981
 30
0.0
 10
961.4939200260869
 20
-1193.746495642505
 30
0.0
 10
963.1057843267363
 20
-1191.291783223085
 30
0.0
 10
958.7870149830551
 20
-1192.940586960693
 30
0.0
 10
954.7573776999425
 20
-1194.441726824509
 30
0.0
 10
943.517415782344
 20
-1198.686617294272
 30
0.0
 10
933.7785937285616
 20
-1202.347141829934
 30
0.0
 10
924.0705623617514
 20
-1206.050754552543
 30
0.0
 10
913.8948974365885
 20
-1210.880198704503
 30
0.0
 10
911.181843643566
 20
-1213.113368376211
 30
0.0
 10
908.4379991635742
 20
-1215.383524421906
 30
0.0
 10
904.045350945974
 20
-1216.773892911873
 30
0.0
 10
901.369189652889
 20
-1216.226419477702
 30
0.0
 10
898.7360696097303
 20
-1215.678852169493
 30
0.0
 10
892.8361797153457
 20
-1217.542909093754
 30
0.0
 10
888.0805675002821
 20
-1219.923836513302
 30
0.0
 10
874.8965679715375
 20
-1226.48197121571
 30
0.0
 10
870.0056363196845
 20
-1216.447868351366
 30
0.0
 10
855.8889512104915
 20
-1225.269963412456
 30
0.0
 10
837.829368436358
 20
-1236.546864767013
 30
0.0
 10
841.7033625518006
 20
-1222.926022366893
 30
0.0
 10
817.8361680701446
 20
-1232.812555231481
 30
0.0
 10
780.2749563697871
 20
-1248.377435242757
 30
0.0
 10
801.812948031039
 20
-1232.960125231228
 30
0.0
 10
773.2990821642843
 20
-1244.753803207035
 30
0.0
 10
737.4622897452991
 20
-1259.617350223329
 30
0.0
 10
762.2960114008574
 20
-1236.036189958733
 30
0.0
 10
724.4376414090284
 20
-1253.391341894394
 30
0.0
 10
709.0148397658331
 20
-1260.497137779064
 30
0.0
 10
667.9413775849034
 20
-1262.914863824506
 30
0.0
 10
661.6471697618117
 20
-1269.177764653372
 30
0.0
 10
657.3265229372164
 20
-1273.496533997051
 30
0.0
 10
652.4454011231337
 20
-1271.92160913336
 30
0.0
 10
653.6826141076363
 20
-1266.612280860099
 30
0.0
 10
654.9198270921379
 20
-1261.30295258683
 30
0.0
 10
698.8386115963958
 20
-1224.907046352018
 30
0.0
 10
704.7120759469326
 20
-1222.230885058929
 30
0.0
 10
710.962632338802
 20
-1219.376269205086
 30
0.0
 10
705.8729693323303
 20
-1213.408696123799
 30
0.0
 10
722.6289232346717
 20
-1208.53625765893
 30
0.0
 10
732.544885612574
 20
-1205.644749305149
 30
0.0
 10
727.8834290652876
 20
-1191.107226849355
 30
0.0
 10
752.6475900530259
 20
-1185.687221076285
 30
0.0
 10
775.6903826658781
 20
-1180.673220550594
 30
0.0
 10
760.3845011465255
 20
-1171.045122933645
 30
0.0
 10
788.3121235982644
 20
-1166.941700650657
 30
0.0
 10
803.2482352518427
 20
-1164.745329604841
 30
0.0
 10
806.6350230704174
 20
-1153.79454668483
 30
0.0
 10
830.6264598514763
 20
-1153.5423071242
 30
0.0
 10
849.3596827771198
 20
-1153.320858250536
 30
0.0
 10
864.3579859859337
 20
-1148.928210032933
 30
0.0
 10
865.3054097915483
 20
-1148.159193851061
 30
0.0
 10
869.5073059484084
 20
-1144.861680249884
 30
0.0
 10
854.8855315366536
 20
-1139.989147910977
 30
0.0
 10
840.5830696911407
 20
-1139.952255411039
 30
0.0
 10
830.0629339555044
 20
-1139.915362911108
 30
0.0
 10
824.211623879738
 20
-1138.088198486777
 30
0.0
 10
822.7978807524105
 20
-1134.390781451184
 30
0.0
 10
821.3293621194507
 20
-1130.582593041738
 30
0.0
 10
815.3685479694477
 20
-1128.896896804192
 30
0.0
 10
803.2187118644888
 20
-1128.896896804192
 30
0.0
 10
792.1608655954296
 20
-1128.896896804192
 30
0.0
 10
784.0794367544331
 20
-1126.885176006144
 30
0.0
 10
781.1940771506415
 20
-1123.403012157198
 30
0.0
 10
778.685856525205
 20
-1120.400826303608
 30
0.0
 10
773.4897872880019
 20
-1117.90922138425
 30
0.0
 10
769.6447063786154
 20
-1117.90922138425
 30
0.0
 10
765.7996254692298
 20
-1117.90922138425
 30
0.0
 10
761.7391974991469
 20
-1115.528293964702
 30
0.0
 10
760.6152435507074
 20
-1112.599893110983
 30
0.0
 10
759.494903753025
 20
-1109.671492257261
 30
0.0
 10
752.9552153005852
 20
-1105.426507913451
 30
0.0
 10
746.0857473258166
 20
-1103.156351867758
 30
0.0
 10
737.630887531267
 20
-1100.369513074867
 30
0.0
 10
733.5920036546586
 20
-1096.745881039144
 30
0.0
 10
733.5920036546586
 20
-1091.984120074085
 30
0.0
 10
733.5920036546586
 20
-1086.970119548401
 30
0.0
 10
731.0327155483947
 20
-1084.958398750354
 30
0.0
 10
724.69786026354
 20
-1084.958398750354
 30
0.0
 10
714.8950630476556
 20
-1084.958398750354
 30
0.0
 10
703.0349691845649
 20
-1075.324105446389
 30
0.0
 10
706.3122059918778
 20
-1070.014871047166
 30
0.0
 10
707.4546531273081
 20
-1068.150814122904
 30
0.0
 10
703.1961509209268
 20
-1066.64967425909
 30
0.0
 10
696.8471675922037
 20
-1066.64967425909
 30
0.0
 10
688.49444275931
 20
-1066.64967425909
 30
0.0
 10
684.7889994928128
 20
-1064.668650273965
 30
0.0
 10
683.441672252774
 20
-1059.543972248466
 30
0.0
 10
682.4198063289678
 20
-1055.625012465163
 30
0.0
 10
678.0407229109624
 20
-1051.890702929633
 30
0.0
 10
673.7158048172905
 20
-1051.306243121484
 30
0.0
 10
669.3914499678949
 20
-1050.684890813398
 30
0.0
 10
664.3491464174476
 20
-1046.765931030095
 30
0.0
 10
662.5115150370357
 20
-1042.588629873193
 30
0.0
 10
660.6769815001298
 20
-1038.380631903359
 30
0.0
 10
654.3894856713005
 20
-1032.228502448348
 30
0.0
 10
648.5455916451383
 20
-1028.857109973254
 30
0.0
 10
642.6979895941768
 20
-1025.528805685111
 30
0.0
 10
638.7907640665771
 20
-1021.351504528207
 30
0.0
 10
639.8673585589904
 20
-1019.62891579073
 30
0.0
 10
640.9402919636259
 20
-1017.875583303301
 30
0.0
 10
637.6593940685316
 20
-1014.54113026517
 30
0.0
 10
632.5734156183507
 20
-1012.234081719536
 30
0.0
 10
627.4874371681717
 20
-1009.927033173904
 30
0.0
 10
624.2428215917162
 20
-1006.561789448806
 30
0.0
 10
625.3600400773812
 20
-1004.728476274489
 30
0.0
 10
626.4803564065523
 20
-1002.932055600118
 30
0.0
 10
622.4525496673305
 20
-999.7144757488059
 30
0.0
 10
616.4142424926513
 20
-997.622774263873
 30
0.0
 10
610.3722272931691
 20
-995.5002820919653
 30
0.0
 10
605.4326923541848
 20
-991.3660221849859
 30
0.0
 10
605.4326923541848
 20
-988.4314725812801
 30
0.0
 10
605.4326923541848
 20
-985.466132290605
 30
0.0
 10
593.0749017696244
 20
-971.6607804537762
 30
0.0
 10
577.9701923300772
 20
-957.7508059930769
 30
0.0
 10
562.8654828905319
 20
-943.840831532385
 30
0.0
 10
550.5076923059714
 20
-931.4565919354609
 30
0.0
 10
550.5076923059714
 20
-930.2877192561864
 30
0.0
 10
550.5076923059714
 20
-929.1188465769046
 30
0.0
 10
564.0995980315292
 20
-932.994624299221
 30
0.0
 10
580.7165010037679
 20
-938.9253048805695
 30
0.0
 10
597.3297194197139
 20
-944.8990267118497
 30
0.0
 10
619.9880039416266
 20
-950.5343795456301
 30
0.0
 10
631.0649066419501
 20
-951.5248446011647
 30
0.0
 10
664.8474767887237
 20
-954.5270773917782
 30
0.0
 10
666.9822664606063
 20
-954.8531488893095
 30
0.0
 10
669.8202666083735
 20
-957.7139134931458
 30
0.0
 10
671.328775584775
 20
-959.2150064199377
 30
0.0
 10
676.311985423491
 20
-960.457757973134
 30
0.0
 10
680.8928511025997
 20
-960.457757973134
 30
0.0
 10
685.4737167817048
 20
-960.457757973134
 30
0.0
 10
690.2373082906488
 20
-962.106514773719
 30
0.0
 10
691.4825005690309
 20
-964.1182825087963
 30
0.0
 10
692.7276928474148
 20
-966.1300502438662
 30
0.0
 10
698.2824548130056
 20
-967.7849088574221
 30
0.0
 10
703.8224785534321
 20
-967.7849088574221
 30
0.0
 10
709.3661633816382
 20
-967.7849088574221
 30
0.0
 10
717.3270110110107
 20
-970.9655962087963
 30
0.0
 10
721.5085834369902
 20
-974.8845090550749
 30
0.0
 10
725.8876668549965
 20
-978.9510388381241
 30
0.0
 10
732.116115909118
 20
-981.1842554468567
 30
0.0
 10
736.18818426086
 20
-980.1199584544192
 30
0.0
 10
740.1206149697118
 20
-979.0617632749545
 30
0.0
 10
745.3714597125472
 20
-980.8151426994082
 30
0.0
 10
748.0261238491803
 20
-984.0019318637442
 30
0.0
 10
750.6518747797572
 20
-987.1518285281509
 30
0.0
 10
755.6498228436403
 20
-989.7542048213636
 30
0.0
 10
759.1356477803629
 20
-989.7542048213636
 30
0.0
 10
762.6257439861647
 20
-989.7542048213636
 30
0.0
 10
769.9234184201187
 20
-993.8514783543578
 30
0.0
 10
775.3532809679873
 20
-998.9085670669956
 30
0.0
 10
780.7874617219559
 20
-1003.959460092618
 30
0.0
 10
787.7922491335139
 20
-1008.062929312628
 30
0.0
 10
790.9230893666527
 20
-1008.062929312628
 30
0.0
 10
794.0539295997924
 20
-1008.062929312628
 30
0.0
 10
801.5090308082827
 20
-1012.160249782644
 30
0.0
 10
807.4919992330579
 20
-1017.217291558252
 30
0.0
 10
813.4749676578331
 20
-1022.274333333868
 30
0.0
 10
822.1094554387137
 20
-1026.371653803884
 30
0.0
 10
826.6792439804349
 20
-1026.371653803884
 30
0.0
 10
831.2453714343765
 20
-1026.371653803884
 30
0.0
 10
837.9683958979494
 20
-1029.663065592089
 30
0.0
 10
841.6116945462336
 20
-1033.692655938177
 30
0.0
 10
845.2549931945177
 20
-1037.722293221295
 30
0.0
 10
851.1831861136625
 20
-1041.0137050095
 30
0.0
 10
854.7791253059213
 20
-1041.0137050095
 30
0.0
 10
858.3750644981819
 20
-1041.0137050095
 30
0.0
 10
862.3339207508807
 20
-1042.662508747107
 30
0.0
 10
863.5828210540676
 20
-1044.680425232171
 30
0.0
 10
864.8317213572527
 20
-1046.698341717234
 30
0.0
 10
868.6337140796886
 20
-1048.267070893909
 30
0.0
 10
872.0358503047255
 20
-1048.19328589404
 30
0.0
 10
875.5979009665089
 20
-1048.082514520185
 30
0.0
 10
872.669500112791
 20
-1045.080328666596
 30
0.0
 10
865.1515971677672
 20
-1041.087583883416
 30
0.0
 10
850.98572205866
 20
-1033.618870938308
 30
0.0
 10
841.1503036119157
 20
-1023.769324447696
 30
0.0
 10
844.4859770126413
 20
-1020.434871409565
 30
0.0
 10
845.6357932606525
 20
-1019.302844293199
 30
0.0
 10
840.9269772573398
 20
-1013.409103148804
 30
0.0
 10
834.0248880517101
 20
-1007.330805630685
 30
0.0
 10
827.1185275770031
 20
-1001.283251862504
 30
0.0
 10
821.4727077871421
 20
-994.146806101935
 30
0.0
 10
821.4727077871421
 20
-991.4706448088546
 30
0.0
 10
821.4727077871421
 20
-988.7944835157723
 30
0.0
 10
816.4267431489152
 20
-982.6853953106784
 30
0.0
 10
810.2567776252272
 20
-977.8498024087257
 30
0.0
 10
804.0904731893188
 20
-973.0204051937908
 30
0.0
 10
798.6489233227676
 20
-966.3883916174673
 30
0.0
 10
798.1696493827558
 20
-963.1339192662163
 30
0.0
 10
797.6898121984705
 20
-959.8363587280255
 30
0.0
 10
792.8492909091246
 20
-953.6842292730053
 30
0.0
 10
787.4151101551588
 20
-949.4023524292643
 30
0.0
 10
781.9772683134106
 20
-945.1143268355263
 30
0.0
 10
777.53233225239
 20
-938.7837897567697
 30
0.0
 10
777.53233225239
 20
-935.3386122818083
 30
0.0
 10
777.53233225239
 20
-931.8934348068469
 30
0.0
 10
772.5891127571149
 20
-926.1473105992227
 30
0.0
 10
766.5470975576327
 20
-922.5975574374152
 30
0.0
 10
755.9174577477579
 20
-916.2977641086109
 30
0.0
 10
751.4682504176608
 20
-905.531537562325
 30
0.0
 10
759.5059808904107
 20
-905.531537562325
 30
0.0
 10
761.6733917931533
 20
-905.531537562325
 30
0.0
 10
758.2497114746429
 20
-901.1758287816829
 30
0.0
 10
751.900117964623
 20
-895.829608008482
 30
0.0
 10
743.8045141427356
 20
-889.0192337454373
 30
0.0
 10
740.9265705885482
 20
-883.9314012828618
 30
0.0
 10
742.266481778981
 20
-878.8005275703545
 30
0.0
 10
743.5775267003801
 20
-873.7865270446637
 30
0.0
 10
740.647858547045
 20
-868.1819648978617
 30
0.0
 10
732.9693840469554
 20
-861.0085797003394
 30
0.0
 10
723.5916954467493
 20
-852.2559514330151
 30
0.0
 10
722.5187620421157
 20
-849.6191233650588
 30
0.0
 10
726.4038332949431
 20
-844.9687439551562
 30
0.0
 10
730.2741663226061
 20
-840.2820352895869
 30
0.0
 10
729.3261323356946
 20
-837.5720324030481
 30
0.0
 10
720.684228505208
 20
-828.5277844129523
 30
0.0
 10
714.9867310532227
 20
-822.5958834690064
 30
0.0
 10
711.394499885766
 20
-816.6603214372772
 30
0.0
 10
712.7018367823621
 20
-815.3529845406847
 30
0.0
 10
714.0091736789573
 20
-814.045647644085
 30
0.0
 10
711.0068939513212
 20
-808.1322398871289
 30
0.0
 10
706.0267819561113
 20
-802.2151241053725
 30
0.0
 10
695.5176764208363
 20
-789.7287495467954
 30
0.0
 10
694.7745225385333
 20
-785.3127736288534
 30
0.0
 10
702.665246255814
 20
-782.2846785386682
 30
0.0
 10
707.6158818006943
 20
-780.3842923587472
 30
0.0
 10
707.4399149021419
 20
-779.0880325995386
 30
0.0
 10
701.3031807906091
 20
-772.328068699002
 30
0.0
 10
694.4373739036191
 20
-764.7671245040565
 30
0.0
 10
690.797783280138
 20
-754.0931761446373
 30
0.0
 10
687.4178013298715
 20
-731.6028322903767
 30
0.0
 10
684.3607930336284
 20
-711.2589654266721
 30
0.0
 10
682.5336286093052
 20
-698.7135440933926
 30
0.0
 10
680.7501156162043
 20
-685.8322414248123
 30
0.0
 10
676.1255515688526
 20
-652.4372537439776
 30
0.0
 10
674.1593596829362
 20
-642.4849151733888
 30
0.0
 10
669.0106499017575
 20
-626.3768095285159
 30
0.0
 10
659.0177108064308
 20
-595.1319833945308
 30
0.0
 10
664.9902122751182
 20
-594.3223666879167
 30
0.0
 10
681.6618672844752
 20
-624.6671284723052
 30
0.0
 10
690.2889859527731
 20
-640.3649106636894
 30
0.0
 10
705.5031994665578
 20
-662.2141886602858
 30
0.0
 10
715.470276262311
 20
-673.2209674485166
 30
0.0
 10
725.4373530580642
 20
-684.2277462367492
 30
0.0
 10
733.5920036546586
 20
-694.9349260083236
 30
0.0
 10
733.5920036546586
 20
-697.0149401745712
 30
0.0
 10
733.5920036546586
 20
-699.0980521843321
 30
0.0
 10
736.1365065987357
 20
-700.3137210753612
 30
0.0
 10
739.249510763203
 20
-699.7243328798158
 30
0.0
 10
742.4166333149815
 20
-699.1202064591052
 30
0.0
 10
747.6526928956282
 20
-703.4814538084374
 30
0.0
 10
751.1495480327139
 20
-709.6329730821544
 30
0.0
 10
754.5843054886109
 20
-715.6749882816366
 30
0.0
 10
757.8947737080807
 20
-721.3939828900766
 30
0.0
 10
758.5062692413749
 20
-722.3426270582859
 30
0.0
 10
759.1214727994729
 20
-723.2907079822216
 30
0.0
 10
761.1024967845997
 20
-721.6689869067759
 30
0.0
 10
762.9148760467342
 20
-718.739365690466
 30
0.0
 10
765.4557179030298
 20
-714.6272600582597
 30
0.0
 10
767.4957886628636
 20
-716.4987330321273
 30
0.0
 10
771.8674560312629
 20
-726.9671911056394
 30
0.0
 10
774.9835111022139
 20
-734.4223392511485
 30
0.0
 10
777.53233225239
 20
-742.2220051441618
 30
0.0
 10
777.53233225239
 20
-744.3020662474337
 30
0.0
 10
777.53233225239
 20
-746.3821273507128
 30
0.0
 10
779.1799156274037
 20
-748.0806843325099
 30
0.0
 10
781.1940771506415
 20
-748.0806843325099
 30
0.0
 10
783.2082386738784
 20
-748.0806843325099
 30
0.0
 10
784.8558689859155
 20
-746.1470667404283
 30
0.0
 10
784.8558689859155
 20
-743.7815816013863
 30
0.0
 10
784.8558689859155
 20
-741.4160964623443
 30
0.0
 10
788.9752967936838
 20
-743.3497140544277
 30
0.0
 10
794.0096210502516
 20
-748.0806843325099
 30
0.0
 10
799.7587492273378
 20
-753.4816336743206
 30
0.0
 10
803.1639832958817
 20
-760.6950092152947
 30
0.0
 10
803.1639832958817
 20
-767.4765172092939
 30
0.0
 10
803.1639832958817
 20
-776.5355034245549
 30
0.0
 10
804.0246674833252
 20
-777.5574162853845
 30
0.0
 10
808.5212342694485
 20
-773.8261107193193
 30
0.0
 10
812.9846165804365
 20
-770.120104208545
 30
0.0
 10
814.9693016533438
 20
-771.8924931272359
 30
0.0
 10
820.3924052699258
 20
-784.4120990979663
 30
0.0
 10
824.2553222479828
 20
-793.3320578516377
 30
0.0
 10
828.770382221096
 20
-798.7330071934484
 30
0.0
 10
831.4908520637227
 20
-797.68898699487
 30
0.0
 10
834.4383093487068
 20
-796.5576169968299
 30
0.0
 10
837.5728106696251
 20
-801.8743143826814
 30
0.0
 10
840.2717833558008
 20
-812.588863266832
 30
0.0
 10
842.8310714620648
 20
-822.742326980202
 30
0.0
 10
845.5404641673076
 20
-827.5028206456409
 30
0.0
 10
847.2212320174549
 20
-824.792817759102
 30
0.0
 10
850.6048750555019
 20
-819.3002004117225
 30
0.0
 10
856.0169015346992
 20
-828.4915020943154
 30
0.0
 10
859.8115251445524
 20
-846.1769967965774
 30
0.0
 10
861.8294416296167
 20
-855.5510243090048
 30
0.0
 10
863.8412093646884
 20
-857.7479585991005
 30
0.0
 10
868.9412923902255
 20
-856.1373146610458
 30
0.0
 10
875.8193967771949
 20
-853.9767096266078
 30
0.0
 10
879.9105684972246
 20
-862.398948190299
 30
0.0
 10
880.0089954340774
 20
-878.9850839440769
 30
0.0
 10
880.0458879340122
 20
-884.5896930279032
 30
0.0
 10
882.260658292782
 20
-887.2228130710682
 30
0.0
 10
886.9670335709079
 20
-887.2228130710682
 30
0.0
 10
892.3255518440901
 20
-887.2228130710682
 30
0.0
 10
894.411104579035
 20
-890.8525469197539
 30
0.0
 10
896.2813571903071
 20
-903.2613815166296
 30
0.0
 10
898.0408853647486
 20
-915.0181200554744
 30
0.0
 10
900.3109944734215
 20
-919.1892724623904
 30
0.0
 10
904.6667032540618
 20
-918.8262615278982
 30
0.0
 10
908.7332799741334
 20
-918.4940882174033
 30
0.0
 10
911.9139203884852
 20
-923.071245871708
 30
0.0
 10
914.5901286185936
 20
-933.1053956730757
 30
0.0
 10
917.5185294723096
 20
-944.166903029909
 30
0.0
 10
920.1208588284999
 20
-947.5320998179923
 30
0.0
 10
924.913363543501
 20
-946.5785272623871
 30
0.0
 10
930.9917079986453
 20
-945.3358226462133
 30
0.0
 10
933.2249246073816
 20
-954.8224051393645
 30
0.0
 10
932.2775008017661
 20
-977.9605737825805
 30
0.0
 10
932.1667294279123
 20
-980.8151426994082
 30
0.0
 10
934.6214418473346
 20
-981.8794396918438
 30
0.0
 10
938.5342059436271
 20
-980.63673507567
 30
0.0
 10
943.9173192167664
 20
-978.9141463381857
 30
0.0
 10
945.3138364567194
 20
-981.4057512575419
 30
0.0
 10
946.8826125704209
 20
-995.3157257182393
 30
0.0
 10
947.9100639999442
 20
-1004.506980463804
 30
0.0
 10
951.6813129724333
 20
-1015.23631451015
 30
0.0
 10
955.2680055711962
 20
-1019.192119856369
 30
0.0
 10
959.5929236648681
 20
-1023.990773321359
 30
0.0
 10
961.6785233368364
 20
-1031.933174700762
 30
0.0
 10
961.5308594630469
 20
-1042.92085012071
 30
0.0
 10
961.346303089319
 20
-1055.588119965225
 30
0.0
 10
962.8843354530736
 20
-1060.276002056362
 30
0.0
 10
968.2674487262148
 20
-1063.167510410143
 30
0.0
 10
973.835118373082
 20
-1066.132897637848
 30
0.0
 10
975.2624263000025
 20
-1070.968443602771
 30
0.0
 10
975.2624263000025
 20
-1086.7117781748
 30
0.0
 10
975.2624263000025
 20
-1097.588682220894
 30
0.0
 10
977.0588469743807
 20
-1107.585892585292
 30
0.0
 10
979.2551241461579
 20
-1108.976261075259
 30
0.0
 10
981.4514482549575
 20
-1110.329737065287
 30
0.0
 10
986.2870411569056
 20
-1118.241441631768
 30
0.0
 10
989.9844581925017
 20
-1126.552955758627
 30
0.0
 10
1004.374269837483
 20
-1158.888527897399
 30
0.0
 10
991.8116226168249
 20
-1099.637389392925
 30
0.0
 10
976.6896872899033
 20
-1063.788862718229
 30
0.0
 10
970.6852217086771
 20
-1049.583654384
 30
0.0
 10
970.1745938374215
 20
-1043.357646055065
 30
0.0
 10
975.2624263000025
 20
-1046.507589656494
 30
0.0
 10
981.2299524442706
 20
-1050.205006692087
 30
0.0
 10
979.6181350806446
 20
-1044.932664792803
 30
0.0
 10
966.1080171173498
 20
-1016.48516787631
 30
0.0
 10
959.0761470436246
 20
-1001.615472110021
 30
0.0
 10
953.2931772730826
 20
-988.7268003288664
 30
0.0
 10
953.2931772730826
 20
-987.7731808362387
 30
0.0
 10
953.2931772730826
 20
-986.8565477175871
 30
0.0
 10
956.4430270004641
 20
-986.0875315357152
 30
0.0
 10
960.251215409915
 20
-986.0875315357152
 30
0.0
 10
967.0616366099775
 20
-986.0875315357152
 30
0.0
 10
967.0616366099775
 20
-985.6507356013517
 30
0.0
 10
960.7249038442105
 20
-968.695440163101
 30
0.0
 10
948.3837524342389
 20
-935.781556966158
 30
0.0
 10
948.2791767473982
 20
-934.8279844105527
 30
0.0
 10
957.2858751192371
 20
-934.8279844105527
 30
0.0
 10
964.6069241905543
 20
-934.8279844105527
 30
0.0
 10
964.9022050011126
 20
-934.1696926655113
 30
0.0
 10
960.1404909730818
 20
-928.4174666449162
 30
0.0
 10
956.732205998057
 20
-924.3201461748995
 30
0.0
 10
940.1460702442773
 20
-895.3189801372264
 30
0.0
 10
953.0347420254393
 20
-896.3771753166911
 30
0.0
 10
957.57505411683
 20
-896.7462880641488
 30
0.0
 10
954.431306202413
 20
-879.7172076260194
 30
0.0
 10
952.4503291543115
 20
-877.1948120196939
 30
0.0
 10
939.7092743099156
 20
-859.6551037103109
 30
0.0
 10
957.6857785536604
 20
-861.0824116372314
 30
0.0
 10
947.7992926260895
 20
-844.6396215511431
 30
0.0
 10
941.7579345449267
 20
-835.4120375499133
 30
0.0
 10
943.4805232824074
 20
-826.6606296451864
 30
0.0
 10
950.5123933561326
 20
-831.0181689697201
 30
0.0
 10
953.0716814623966
 20
-832.5924836521099
 30
0.0
 10
953.7299732074434
 20
-831.3842308106869
 30
0.0
 10
952.3026652805202
 20
-827.6855464754808
 30
0.0
 10
951.0599137273248
 20
-824.4636953550907
 30
0.0
 10
948.974360992378
 20
-815.9497418488136
 30
0.0
 10
947.6147362523616
 20
-808.7585205826108
 30
0.0
 10
945.4184121435619
 20
-797.1180919863218
 30
0.0
 10
946.009020701701
 20
-795.6828047655144
 30
0.0
 10
952.8932738386602
 20
-795.6828047655144
 30
0.0
 10
961.8999722104991
 20
-795.6828047655144
 30
0.0
 10
962.2260437080286
 20
-793.4785013628352
 30
0.0
 10
955.1264904473965
 20
-781.0358251725083
 30
0.0
 10
947.9469564998808
 20
-768.4725677705501
 30
0.0
 10
948.1315128736069
 20
-755.404174129013
 30
0.0
 10
955.5263938818198
 20
-755.404174129013
 30
0.0
 10
961.346303089319
 20
-755.404174129013
 30
0.0
 10
961.0940635286861
 20
-748.516259904276
 30
0.0
 10
954.7573776999425
 20
-731.9725552191267
 30
0.0
 10
953.4407942098505
 20
-728.5562909502187
 30
0.0
 10
954.7942701998791
 20
-725.2975003928714
 30
0.0
 10
958.0918307380734
 20
-724.0455491832072
 30
0.0
 10
962.4475395187128
 20
-722.3684893578575
 30
0.0
 10
962.9212279530102
 20
-719.4609754792964
 30
0.0
 10
960.2881079098497
 20
-710.3066132336644
 30
0.0
 10
955.8216746923781
 20
-694.6968144915554
 30
0.0
 10
956.0370217530754
 20
-693.1551210400194
 30
0.0
 10
962.6689883923782
 20
-693.1551210400194
 30
0.0
 10
967.3938568574949
 20
-693.1551210400194
 30
0.0
 10
967.9413772286853
 20
-690.2186939553976
 30
0.0
 10
965.8865682436872
 20
-676.4508447998014
 30
0.0
 10
963.6902441348875
 20
-661.7712439759362
 30
0.0
 10
964.2439601930901
 20
-659.5226320237125
 30
0.0
 10
970.5744972718458
 20
-657.8640184483356
 30
0.0
 10
976.8373511636946
 20
-656.2269489664359
 30
0.0
 10
977.5694748456344
 20
-653.6018082171558
 30
0.0
 10
976.0683349818164
 20
-637.9514089503027
 30
0.0
 10
974.7148589917897
 20
-623.9676260212236
 30
0.0
 10
975.5208146106261
 20
-619.9213730320353
 30
0.0
 10
979.5504518937378
 20
-619.9213730320353
 30
0.0
 10
983.3585933661661
 20
-619.9213730320353
 30
0.0
 10
984.3798491086754
 20
-616.4614338633965
 30
0.0
 10
983.284808366293
 20
-607.1058760694505
 30
0.0
 10
982.1097400000026
 20
-597.1492662297842
 30
0.0
 10
983.1002050555435
 20
-594.2897689255678
 30
0.0
 10
987.6774096468689
 20
-594.2897689255678
 30
0.0
 10
991.9592864906163
 20
-594.2897689255678
 30
0.0
 10
993.5711507912656
 20
-590.8255115508255
 30
0.0
 10
993.5711507912656
 20
-581.6569743243072
 30
0.0
 10
993.5711507912656
 20
-574.7069154813544
 30
0.0
 10
995.8412598999366
 20
-567.7057891575769
 30
0.0
 10
998.6589363168232
 20
-566.0945585067329
 30
0.0
 10
1001.445868983765
 20
-564.4833043873787
 30
0.0
 10
1006.422930072491
 20
-552.4546596753407
 30
0.0
 10
1009.720490610687
 20
-539.364158696053
 30
0.0
 10
1017.189156618771
 20
-509.7305866814277
 30
0.0
 10
1030.410142521498
 20
-477.1156923198469
 30
0.0
 10
1034.950360738841
 20
-477.1156923198469
 30
0.0
 10
1036.814417663101
 20
-477.1156923198469
 30
0.0
 10
1037.33128815839
 20
-480.8229661302375
 30
0.0
 10
1036.045401481222
 20
-485.3546183409144
 30
0.0
 10
1030.410142521498
 20
-505.3545776384162
 30
0.0
 10
1029.493415528805
 20
-538.2438658353967
 30
0.0
 10
1033.923003183367
 20
-561.7997505132025
 30
0.0
 10
1036.562271976514
 20
-575.6408214243966
 30
0.0
 10
1039.964361264529
 20
-586.9662791290611
 30
0.0
 10
1041.502393628285
 20
-586.9662791290611
 30
0.0
 10
1043.040425992038
 20
-586.9662791290611
 30
0.0
 10
1045.458245911525
 20
-596.0511276438992
 30
0.0
 10
1046.811628027508
 20
-607.1532589939852
 30
0.0
 10
1048.202090391513
 20
-618.2553903440712
 30
0.0
 10
1050.841359184664
 20
-628.274121333443
 30
0.0
 10
1052.705416108925
 20
-629.4091993562906
 30
0.0
 10
1054.538776220257
 20
-630.5479619354246
 30
0.0
 10
1055.012464654554
 20
-636.8858681267666
 30
0.0
 10
1053.806652538315
 20
-643.4957039598121
 30
0.0
 10
1052.047171300899
 20
-652.7891406040562
 30
0.0
 10
1052.926864982588
 20
-656.055300273978
 30
0.0
 10
1057.725518447574
 20
-657.8966396791948
 30
0.0
 10
1062.591855099472
 20
-659.7607435404789
 30
0.0
 10
1063.434750155264
 20
-662.9905739547412
 30
0.0
 10
1061.607585730942
 20
-672.7706536515852
 30
0.0
 10
1060.254109740914
 20
-680.0246297172889
 30
0.0
 10
1060.838569549065
 20
-686.241954697005
 30
0.0
 10
1063.034846720844
 20
-687.6003590744313
 30
0.0
 10
1067.169059690796
 20
-690.1528413123833
 30
0.0
 10
1064.351430210934
 20
-706.8319123713482
 30
0.0
 10
1058.531521003437
 20
-714.2101307364592
 30
0.0
 10
1055.892252210286
 20
-717.5679584119589
 30
0.0
 10
1056.993488639679
 20
-718.7873353277864
 30
0.0
 10
1062.702626473327
 20
-718.7873353277864
 30
0.0
 10
1070.651129665695
 20
-718.7873353277864
 30
0.0
 10
1073.431960519669
 20
-727.5018037955524
 30
0.0
 10
1066.806048756311
 20
-731.6028322903767
 30
0.0
 10
1061.822838917595
 20
-734.6788970178823
 30
0.0
 10
1062.155059165112
 20
-748.0806843325099
 30
0.0
 10
1067.205952190734
 20
-748.0806843325099
 30
0.0
 10
1069.439215736495
 20
-748.0806843325099
 30
0.0
 10
1070.245124418308
 20
-750.70582508179
 30
0.0
 10
1069.002419802135
 20
-753.9135481583107
 30
0.0
 10
1062.48727941263
 20
-770.9001975278079
 30
0.0
 10
1062.413494412756
 20
-777.3740802742577
 30
0.0
 10
1068.639408867646
 20
-777.3740802742577
 30
0.0
 10
1073.948737140916
 20
-777.3740802742577
 30
0.0
 10
1074.533196949063
 20
-779.5673065395476
 30
0.0
 10
1072.373812277223
 20
-791.1056001741854
 30
0.0
 10
1070.977248100247
 20
-798.6561243500746
 30
0.0
 10
1068.048847246531
 20
-806.9787156143157
 30
0.0
 10
1065.889462574691
 20
-809.6007585200896
 30
0.0
 10
1062.887182847055
 20
-813.2071177314137
 30
0.0
 10
1064.898903645102
 20
-812.7057364536558
 30
0.0
 10
1069.88211348382
 20
-816.4333339949226
 30
0.0
 10
1072.263040903368
 20
-818.2383441444726
 30
0.0
 10
1073.39506801973
 20
-824.4267559181353
 30
0.0
 10
1071.383253347638
 20
-828.2349443275834
 30
0.0
 10
1068.454852493918
 20
-833.8740051861605
 30
0.0
 10
1065.631027327043
 20
-832.9954849300466
 30
0.0
 10
1069.734543484077
 20
-839.6963551188419
 30
0.0
 10
1073.468853019609
 20
-845.7746526369665
 30
0.0
 10
1073.616516893399
 20
-850.2417429727593
 30
0.0
 10
1070.319003292225
 20
-860.1657315815664
 30
0.0
 10
1067.538172438251
 20
-868.6249095822095
 30
0.0
 10
1062.850290347116
 20
-875.6875703429105
 30
0.0
 10
1067.796607685896
 20
-880.4492843709377
 30
0.0
 10
1076.950922994505
 20
-889.2776220560627
 30
0.0
 10
1072.958178211329
 20
-897.2569159354043
 30
0.0
 10
1065.852476200705
 20
-907.1064624260162
 30
0.0
 10
1061.896717791511
 20
-912.5634076360548
 30
0.0
 10
1062.739518973262
 20
-918.7524765280286
 30
0.0
 10
1066.258575322143
 20
-920.1797375179267
 30
0.0
 10
1074.496210575082
 20
-923.5511299930185
 30
0.0
 10
1076.692581620908
 20
-928.1282876473233
 30
0.0
 10
1069.039312302069
 20
-934.4957641630353
 30
0.0
 10
1062.628841473454
 20
-939.8050454992808
 30
0.0
 10
1059.448107185055
 20
-959.8363587280255
 30
0.0
 10
1064.720542958386
 20
-961.6327794024019
 30
0.0
 10
1067.464387438378
 20
-962.5802501450362
 30
0.0
 10
1067.353616064527
 20
-966.4253310544227
 30
0.0
 10
1064.388322710869
 20
-974.52149812059
 30
0.0
 10
1062.044381665304
 20
-980.8889746363002
 30
0.0
 10
1061.607585730942
 20
-986.0875315357152
 30
0.0
 10
1063.397857655329
 20
-986.0875315357152
 30
0.0
 10
1065.188129579717
 20
-986.0875315357152
 30
0.0
 10
1067.648943812106
 20
-981.5472194443264
 30
0.0
 10
1068.854755928342
 20
-976.0226379844025
 30
0.0
 10
1072.699836837728
 20
-958.5198221749579
 30
0.0
 10
1073.764180767186
 20
-956.7972334374736
 30
0.0
 10
1080.42689115644
 20
-956.7972334374736
 30
0.0
 10
1085.773111929639
 20
-956.7972334374736
 30
0.0
 10
1086.837455859099
 20
-953.9426175836306
 30
0.0
 10
1086.283692863872
 20
-940.7955574918469
 30
0.0
 10
1085.699326929769
 20
-927.1008831548261
 30
0.0
 10
1086.874348359037
 20
-924.2093748010448
 30
0.0
 10
1094.453738803953
 20
-920.7641973260761
 30
0.0
 10
1101.959344248999
 20
-917.3251686011063
 30
0.0
 10
1100.310634385432
 20
-915.2026764291986
 30
0.0
 10
1100.93198669352
 20
-905.0578021910078
 30
0.0
 10
1101.553339001608
 20
-895.5712196978566
 30
0.0
 10
1102.654575431001
 20
-893.5963913997421
 30
0.0
 10
1106.499656340387
 20
-895.4666440110195
 30
0.0
 10
1112.867132856103
 20
-898.5734524884701
 30
0.0
 10
1112.577906921486
 20
-895.7927155085436
 30
0.0
 10
1114.478950219729
 20
-885.9800615178701
 30
0.0
 10
1116.970555139087
 20
-873.01751086279
 30
0.0
 10
1121.547759730414
 20
-866.428585473408
 30
0.0
 10
1125.208284266073
 20
-870.5259059434338
 30
0.0
 10
1132.240107402777
 20
-878.4006241359293
 30
0.0
 10
1132.387771276564
 20
-873.860358981563
 30
0.0
 10
1138.429223231777
 20
-856.0272004055078
 30
0.0
 10
1142.600328701667
 20
-843.6509401024687
 30
0.0
 10
1146.408517111118
 20
-838.5243845960631
 30
0.0
 10
1149.232342277992
 20
-846.0306002224061
 30
0.0
 10
1151.096399202253
 20
-850.9375373990333
 30
0.0
 10
1153.366555247949
 20
-848.0078692457009
 30
0.0
 10
1157.943759839276
 20
-834.13051601587
 30
0.0
 10
1162.853184678117
 20
-819.2269786561246
 30
0.0
 10
1165.41237891034
 20
-815.9718961235849
 30
0.0
 10
1171.749158613129
 20
-816.6240391186402
 30
0.0
 10
1177.316828259993
 20
-817.198642151996
 30
0.0
 10
1180.792702547878
 20
-814.3169905730065
 30
0.0
 10
1184.053417523159
 20
-806.4957805865233
 30
0.0
 10
1187.676955684836
 20
-797.7222184070324
 30
0.0
 10
1189.584100796044
 20
-796.4001432852656
 30
0.0
 10
1193.681421266063
 20
-799.8059405980875
 30
0.0
 10
1199.648994347357
 20
-804.7492070303815
 30
0.0
 10
1199.581311160451
 20
-804.8039355989913
 30
0.0
 10
1205.764231302437
 20
-789.2747277250637
 30
0.0
 10
1208.36660759565
 20
-782.7276232230179
 30
0.0
 10
1212.470029878634
 20
-777.3740802742577
 30
0.0
 10
1214.91864048509
 20
-777.3740802742577
 30
0.0
 10
1217.336366530531
 20
-777.3740802742577
 30
0.0
 10
1225.68486703137
 20
-770.9586341212162
 30
0.0
 10
1233.485706349951
 20
-763.1152698599599
 30
0.0
 10
1241.286639542577
 20
-755.2756136235112
 30
0.0
 10
1249.487382295583
 20
-749.5633779463587
 30
0.0
 10
1251.757538341277
 20
-750.4277232215863
 30
0.0
 10
1253.990801887034
 20
-751.2921154338292
 30
0.0
 10
1258.863240351897
 20
-748.6848576902448
 30
0.0
 10
1262.523764887555
 20
-744.6348966762544
 30
0.0
 10
1266.184289423218
 20
-740.5812745744788
 30
0.0
 10
1270.613830140752
 20
-738.1499367924225
 30
0.0
 10
1272.336418878233
 20
-739.2302393096379
 30
0.0
 10
1274.095900115652
 20
-740.3068807390755
 30
0.0
 10
1275.523254979596
 20
-739.4424885268254
 30
0.0
 10
1275.523254979596
 20
-737.311406879744
 30
0.0
 10
1275.523254979596
 20
-735.1803252326627
 30
0.0
 10
1276.987408469433
 20
-733.4337047394984
 30
0.0
 10
1278.814666767803
 20
-733.4337047394984
 30
0.0
 10
1282.185965368844
 20
-733.4337047394984
 30
0.0
 10
1309.427650169098
 20
-715.2098893225157
 30
0.0
 10
1337.622813650905
 20
-694.0705337960735
 30
0.0
 10
1364.759922764317
 20
-673.7592881632372
 30
0.0
 10
1367.688323618037
 20
-679.237120348429
 30
0.0
 10
1343.412026045484
 20
-704.854596411029
 30
0.0
 10
1325.140194054158
 20
-724.151392169666
 30
0.0
 10
1310.196666350974
 20
-750.2043968670096
 30
0.0
 10
1311.697806214792
 20
-760.2009970501113
 30
0.0
 10
1312.251475335972
 20
-763.8442956983981
 30
0.0
 10
1310.744139785142
 20
-769.1277616720945
 30
0.0
 10
1308.443286926526
 20
-771.9398995202846
 30
0.0
 10
1306.099345880953
 20
-774.752647549778
 30
0.0
 10
1305.108786951372
 20
-778.5349736596527
 30
0.0
 10
1306.203921567798
 20
-780.3436918340103
 30
0.0
 10
1307.342050497127
 20
-782.1524100083589
 30
0.0
 10
1304.155214395767
 20
-787.4733786632896
 30
0.0
 10
1299.178200244061
 20
-792.1637953536592
 30
0.0
 10
1292.619971667609
 20
-798.3042374899942
 30
0.0
 10
1291.340374551495
 20
-801.4682621982647
 30
0.0
 10
1294.564103152796
 20
-803.4597062024604
 30
0.0
 10
1297.750845380117
 20
-805.4191391570857
 30
0.0
 10
1296.175920516425
 20
-808.4730965468498
 30
0.0
 10
1289.291667379464
 20
-813.9066201824953
 30
0.0
 10
1283.908554106325
 20
-818.1288400702397
 30
0.0
 10
1280.38959163149
 20
-823.8410757473903
 30
0.0
 10
1281.453935560949
 20
-826.6236902082328
 30
0.0
 10
1282.555078116296
 20
-829.5164189246043
 30
0.0
 10
1278.599319707102
 20
-835.2287015387792
 30
0.0
 10
1272.11497000457
 20
-839.989195204218
 30
0.0
 10
1263.9511197515
 20
-846.0674927223372
 30
0.0
 10
1262.117759640169
 20
-849.1798867055095
 30
0.0
 10
1265.452165741275
 20
-851.3767740585827
 30
0.0
 10
1268.786665716429
 20
-853.610647785641
 30
0.0
 10
1267.064076978944
 20
-856.8694383429865
 30
0.0
 10
1259.041694912654
 20
-863.4940358697022
 30
0.0
 10
1252.784989770798
 20
-868.6249095822095
 30
0.0
 10
1248.49691724004
 20
-875.3983913453158
 30
0.0
 10
1249.081377048187
 20
-879.1327478178719
 30
0.0
 10
1249.635046169367
 20
-882.793272353525
 30
0.0
 10
1246.042204820616
 20
-889.5667541166313
 30
0.0
 10
1241.102083168849
 20
-894.217743707828
 30
0.0
 10
1236.15576583007
 20
-898.8318407990955
 30
0.0
 10
1232.93823291578
 20
-904.8363533173451
 30
0.0
 10
1233.959488658291
 20
-907.4756221104944
 30
0.0
 10
1234.986846213766
 20
-910.1456346535906
 30
0.0
 10
1231.547770551773
 20
-915.1288444923048
 30
0.0
 10
1226.26932683952
 20
-918.5678732172819
 30
0.0
 10
1219.901850323808
 20
-922.745174374184
 30
0.0
 10
1217.410245404451
 20
-926.9163267810945
 30
0.0
 10
1218.800613894411
 20
-931.2720355617366
 30
0.0
 10
1220.264767384248
 20
-935.9230720899559
 30
0.0
 10
1217.114917656863
 20
-940.0634338099062
 30
0.0
 10
1207.597591413769
 20
-945.9202824543609
 30
0.0
 10
1198.221733357455
 20
-951.709400974898
 30
0.0
 10
1195.699337751126
 20
-954.9638733261418
 30
0.0
 10
1198.990749539331
 20
-957.0186823111362
 30
0.0
 10
1204.958322620623
 20
-960.7161462837594
 30
0.0
 10
1197.378932175705
 20
-970.7133566481571
 30
0.0
 10
1185.043882578702
 20
-975.4012856763165
 30
0.0
 10
1180.245229113712
 20
-977.2284501006379
 30
0.0
 10
1176.658489577927
 20
-981.6579908181811
 30
0.0
 10
1176.658489577927
 20
-985.7245206012303
 30
0.0
 10
1176.658489577927
 20
-989.6803728844698
 30
0.0
 10
1170.506360122909
 20
-997.9549945113904
 30
0.0
 10
1163.00075467786
 20
-1004.14401646634
 30
0.0
 10
1155.49514923282
 20
-1010.333038421299
 30
0.0
 10
1151.391726949832
 20
-1015.383931446921
 30
0.0
 10
1153.846439369256
 20
-1015.383931446921
 30
0.0
 10
1162.194845996049
 20
-1015.383931446921
 30
0.0
 10
1158.275980086793
 20
-1020.840876656952
 30
0.0
 10
1142.015868893515
 20
-1031.748618327038
 30
0.0
 10
1129.970045231124
 20
-1039.807892893257
 30
0.0
 10
1126.783209129764
 20
-1043.763745176499
 30
0.0
 10
1129.600838609629
 20
-1047.165834464511
 30
0.0
 10
1135.789954438626
 20
-1054.634547409622
 30
0.0
 10
1131.544970094816
 20
-1059.943781808845
 30
0.0
 10
1114.263603159032
 20
-1066.317454011572
 30
0.0
 10
1103.054478865426
 20
-1070.457862668538
 30
0.0
 10
1097.929706965884
 20
-1074.4444117647
 30
0.0
 10
1097.929706965884
 20
-1079.095401355906
 30
0.0
 10
1097.929706965884
 20
-1083.346487512677
 30
0.0
 10
1092.220569132238
 20
-1088.729600785817
 30
0.0
 10
1082.47559832847
 20
-1093.6329238117
 30
0.0
 10
1073.764180767186
 20
-1098.025478155248
 30
0.0
 10
1066.953712630104
 20
-1104.103822610399
 30
0.0
 10
1066.916820130165
 20
-1107.512107585422
 30
0.0
 10
1066.843035130296
 20
-1110.846513686529
 30
0.0
 10
1061.459921857153
 20
-1118.093777757975
 30
0.0
 10
1054.907888967713
 20
-1123.587568530922
 30
0.0
 10
1048.355856078269
 20
-1129.081359303869
 30
0.0
 10
1040.770269946343
 20
-1136.771614996687
 30
0.0
 10
1038.026425466351
 20
-1140.684379092982
 30
0.0
 10
1028.76133878389
 20
-1153.868425558747
 30
0.0
 10
1062.702626473327
 20
-1133.695550269182
 30
0.0
 10
1089.359757591381
 20
-1110.151376378572
 30
0.0
 10
1102.80223930479
 20
-1098.320805902835
 30
0.0
 10
1115.32175140148
 20
-1088.618923286009
 30
0.0
 10
1117.19200401275
 20
-1088.618923286009
 30
0.0
 10
1119.062256624024
 20
-1088.618923286009
 30
0.0
 10
1125.577397013529
 20
-1086.601006800945
 30
0.0
 10
1127.226200751136
 20
-1081.291678527683
 30
0.0
 10
1128.831822427748
 20
-1076.09312162827
 30
0.0
 10
1136.269744685889
 20
-1073.970723330407
 30
0.0
 10
1139.272024413525
 20
-1073.970723330407
 30
0.0
 10
1142.237317767178
 20
-1073.970723330407
 30
0.0
 10
1152.89286681365
 20
-1073.12782827461
 30
0.0
 10
1156.922504096765
 20
-1066.391239011442
 30
0.0
 10
1161.019824566782
 20
-1059.580864748405
 30
0.0
 10
1170.869371057393
 20
-1059.839206122007
 30
0.0
 10
1172.924180042392
 20
-1061.118897112157
 30
0.0
 10
1174.972793340381
 20
-1062.361601728331
 30
0.0
 10
1182.146178537909
 20
-1062.693821975849
 30
0.0
 10
1184.785447331054
 20
-1057.710612137134
 30
0.0
 10
1187.350931124332
 20
-1052.881167985175
 30
0.0
 10
1196.468353933005
 20
-1052.001474303488
 30
0.0
 10
1200.824109650666
 20
-1052.001474303488
 30
0.0
 10
1205.179865368333
 20
-1052.001474303488
 30
0.0
 10
1211.627228696883
 20
-1050.684890813398
 30
0.0
 10
1213.276032434494
 20
-1046.507589656494
 30
0.0
 10
1214.740185924331
 20
-1042.847065120832
 30
0.0
 10
1221.661331561223
 20
-1041.0137050095
 30
0.0
 10
1226.306219339458
 20
-1041.0137050095
 30
0.0
 10
1230.994101430593
 20
-1041.0137050095
 30
0.0
 10
1235.718969895706
 20
-1039.22343308511
 30
0.0
 10
1237.14623088561
 20
-1037.24250297403
 30
0.0
 10
1240.554515860636
 20
-1032.486843821942
 30
0.0
 10
1244.688728830592
 20
-1033.84031981197
 30
0.0
 10
1251.099293533251
 20
-1034.240223246394
 30
0.0
 10
1257.466770048966
 20
-1034.683214867766
 30
0.0
 10
1266.36884579694
 20
-1033.182075003944
 30
0.0
 10
1270.687709014666
 20
-1030.690470084588
 30
0.0
 10
1280.758704378943
 20
-1024.901304627037
 30
0.0
 10
1281.416949186969
 20
-1027.466741483287
 30
0.0
 10
1284.788341662061
 20
-1028.746385536424
 30
0.0
 10
1288.159734137145
 20
-1030.026029589553
 30
0.0
 10
1292.109390733376
 20
-1029.152437720833
 30
0.0
 10
1293.610530597194
 20
-1026.734617801347
 30
0.0
 10
1298.261520188396
 20
-1019.192119856369
 30
0.0
 10
1344.322510414138
 20
-1017.912475803239
 30
0.0
 10
1385.849384235507
 20
-1024.169180945097
 30
0.0
 10
1407.234173454273
 20
-1027.392909546395
 30
0.0
 10
1437.330380234327
 20
-1030.032178339545
 30
0.0
 10
1452.673811371933
 20
-1030.032178339545
 30
0.0
 10
1468.823151191353
 20
-1030.032178339545
 30
0.0
 10
1480.573740980208
 20
-1031.570163766275
 30
0.0
 10
1480.573740980208
 20
-1033.692655938177
 30
0.0
 10
1480.573740980208
 20
-1035.704470610279
 30
0.0
 10
1477.466885565729
 20
-1037.353180473838
 30
0.0
 10
1473.68948784325
 20
-1037.353180473838
 30
0.0
 10
1469.8812994338
 20
-1037.353180473838
 30
0.0
 10
1453.627383927538
 20
-1043.942105863212
 30
0.0
 10
1437.514936608055
 20
-1052.001474303488
 30
0.0
 10
1421.40248928857
 20
-1060.060842743755
 30
0.0
 10
1406.612821146191
 20
-1066.64967425909
 30
0.0
 10
1404.594904661128
 20
-1066.64967425909
 30
0.0
 10
1402.576988176064
 20
-1066.64967425909
 30
0.0
 10
1398.848780453498
 20
-1069.135083491437
 30
0.0
 10
1396.357175534136
 20
-1072.137363219073
 30
0.0
 10
1393.86557061478
 20
-1075.139642946711
 30
0.0
 10
1389.2884598975
 20
-1077.631153992021
 30
0.0
 10
1386.249287669929
 20
-1077.631153992021
 30
0.0
 10
1383.173222942418
 20
-1077.631153992021
 30
0.0
 10
1378.669803350967
 20
-1080.381194159027
 30
0.0
 10
1376.221286618555
 20
-1083.746390947103
 30
0.0
 10
1373.545125325469
 20
-1087.370022982825
 30
0.0
 10
1366.365544440931
 20
-1089.972399276037
 30
0.0
 10
1358.460129435507
 20
-1090.156955649762
 30
0.0
 10
1347.583131515372
 20
-1090.409195210401
 30
0.0
 10
1345.571410717324
 20
-1091.584216639667
 30
0.0
 10
1347.220120580885
 20
-1096.856558538952
 30
0.0
 10
1348.899715005466
 20
-1102.202779312152
 30
0.0
 10
1346.887900333368
 20
-1103.267123241611
 30
0.0
 10
1334.768291671109
 20
-1103.267123241611
 30
0.0
 10
1323.196062568964
 20
-1103.267123241611
 30
0.0
 10
1320.378433089103
 20
-1104.546720357725
 30
0.0
 10
1320.778336523528
 20
-1109.671492257261
 30
0.0
 10
1321.184341770919
 20
-1114.870049156676
 30
0.0
 10
1318.803508225415
 20
-1115.86051421222
 30
0.0
 10
1307.926510305275
 20
-1114.906941656614
 30
0.0
 10
1296.871151698428
 20
-1113.95956478802
 30
0.0
 10
1294.674780652607
 20
-1114.906941656614
 30
0.0
 10
1295.111576586965
 20
-1120.400826303608
 30
0.0
 10
1295.585358895307
 20
-1126.07917345028
 30
0.0
 10
1293.136748288849
 20
-1126.952859193043
 30
0.0
 10
1278.777680393818
 20
-1126.22073551111
 30
0.0
 10
1262.63453626141
 20
-1125.414826829292
 30
0.0
 10
1264.830813433189
 20
-1125.710060702831
 30
0.0
 10
1263.655792003921
 20
-1134.464566451063
 30
0.0
 10
1262.63453626141
 20
-1142.333182830589
 30
0.0
 10
1258.604898978299
 20
-1140.099919284832
 30
0.0
 10
1247.106548750076
 20
-1139.041771042383
 30
0.0
 10
1235.534413521984
 20
-1137.977427112923
 30
0.0
 10
1234.217830031894
 20
-1135.301265819842
 30
0.0
 10
1231.06798030451
 20
-1140.942720466583
 30
0.0
 10
1228.13957945079
 20
-1146.141277365998
 30
0.0
 10
1224.36828354128
 20
-1146.947279921855
 30
0.0
 10
1211.221223449493
 20
-1145.157007997463
 30
0.0
 10
1197.378932175705
 20
-1143.249769012215
 30
0.0
 10
1195.293332503739
 20
-1143.797336320426
 30
0.0
 10
1197.200477614948
 20
-1148.743653659209
 30
0.0
 10
1199.027642039269
 20
-1153.50541462426
 30
0.0
 10
1196.431461433067
 20
-1154.526670366773
 30
0.0
 10
1182.552277659344
 20
-1154.526670366773
 30
0.0
 10
1172.991863229299
 20
-1154.526670366773
 30
0.0
 10
1165.670814157978
 20
-1156.212366604319
 30
0.0
 10
1165.670814157978
 20
-1158.445536276027
 30
0.0
 10
1165.670814157978
 20
-1161.084805069178
 30
0.0
 10
1158.971117394751
 20
-1161.558587377518
 30
0.0
 10
1145.534925242397
 20
-1159.872891139972
 30
0.0
 10
1130.775953912938
 20
-1158.008740341673
 30
0.0
 10
1125.392840639801
 20
-1158.556307649882
 30
0.0
 10
1125.392840639801
 20
-1161.816928751119
 30
0.0
 10
1125.392840639801
 20
-1164.819208478755
 30
0.0
 10
1120.194283740386
 20
-1165.840464221266
 30
0.0
 10
1109.280393320318
 20
-1164.96687235255
 30
0.0
 10
1100.384419385307
 20
-1164.265445483528
 30
0.0
 10
1093.900069682773
 20
-1164.929885978563
 30
0.0
 10
1094.81674973844
 20
-1166.431025842379
 30
0.0
 10
1095.770322294044
 20
-1167.932165706201
 30
0.0
 10
1106.715003401083
 20
-1169.174870322375
 30
0.0
 10
1119.203818684846
 20
-1169.174870322375
 30
0.0
 10
1147.946549474871
 20
-1169.174870322375
 30
0.0
 10
1203.168050696235
 20
-1176.754354641338
 30
0.0
 10
1202.288263140505
 20
-1180.636328050656
 30
0.0
 10
1200.276542342453
 20
-1189.316954924971
 30
0.0
 10
1222.608802303861
 20
-1194.804643884954
 30
0.0
 10
1231.726225112532
 20
-1194.804643884954
 30
0.0
 10
1236.377214703733
 20
-1194.804643884954
 30
0.0
 10
1242.566236658682
 20
-1197.665361551768
 30
0.0
 10
1241.397410916432
 20
-1201.725789521846
 30
0.0
 10
1239.053375996818
 20
-1210.074290022683
 30
0.0
 10
1247.580237184373
 20
-1210.074290022683
 30
0.0
 10
1253.953909387099
 20
-1210.806319830586
 30
0.0
 10
1276.876730969625
 20
-1213.445588623728
 30
0.0
 10
1276.507618222169
 20
-1219.849957639379
 30
0.0
 10
1282.844304050912
 20
-1228.383014513947
 30
0.0
 10
1286.141817652086
 20
-1232.886340231358
 30
0.0
 10
1291.340374551495
 20
-1236.657636140868
 30
0.0
 10
1297.197176258936
 20
-1238.601673752015
 30
0.0
 10
1301.700595850387
 20
-1240.102813615829
 30
0.0
 10
1304.813553077831
 20
-1244.384690459579
 30
0.0
 10
1304.813553077831
 20
-1246.470196257502
 30
0.0
 10
1304.813553077831
 20
-1250.27838466695
 30
0.0
 10
1322.027142952669
 20
-1267.418283415956
 30
0.0
 10
1346.703343959643
 20
-1288.144733952655
 30
0.0
 10
1360.582621607413
 20
-1299.784552367659
 30
0.0
 10
1363.953920208458
 20
-1307.222474625791
 30
0.0
 10
1353.335357535965
 20
-1302.719148908387
 30
0.0
 10
1333.045609059576
 20
-1294.112307033942
 30
0.0
 10
1317.77605679589
 20
-1290.045777250893
 30
0.0
 10
1299.325864117851
 20
-1288.25550532651
 30
0.0
 10
1287.932089576472
 20
-1287.11737639718
 30
0.0
 10
1274.022115115775
 20
-1283.856755295943
 30
0.0
 10
1268.454445468911
 20
-1280.965246942162
 30
0.0
 10
1261.791641205613
 20
-1277.526171280162
 30
0.0
 10
1257.066866614543
 20
-1276.972502158982
 30
0.0
 10
1254.685939194993
 20
-1279.353335704483
 30
0.0
 10
1252.305011775445
 20
-1281.734169249994
 30
0.0
 10
1247.580237184373
 20
-1281.623491750186
 30
0.0
 10
1240.880634295187
 20
-1279.101096143853
 30
0.0
 10
1233.522692723933
 20
-1276.277270976978
 30
0.0
 10
1229.308405193047
 20
-1276.351149850894
 30
0.0
 10
1225.647880657385
 20
-1279.39032207847
 30
0.0
 10
1221.802799748
 20
-1282.577064305791
 30
0.0
 10
1218.253046586196
 20
-1281.992604497635
 30
0.0
 10
1210.562884767429
 20
-1276.831033972205
 30
0.0
 10
1204.995215120558
 20
-1273.127421249595
 30
0.0
 10
1198.406289731183
 20
-1270.5312406434
 30
0.0
 10
1195.914684811825
 20
-1271.041821577634
 30
0.0
 10
1193.429181705431
 20
-1271.589388885843
 30
0.0
 10
1187.676955684836
 20
-1269.872901961327
 30
0.0
 10
1183.099751093509
 20
-1267.307512042102
 30
0.0
 10
1178.559532876166
 20
-1264.711331435899
 30
0.0
 10
1173.176419603027
 20
-1262.434979703195
 30
0.0
 10
1171.164698804976
 20
-1262.25661901648
 30
0.0
 10
1164.901797976107
 20
-1261.7029498953
 30
0.0
 10
1145.897842302838
 20
-1252.296301152013
 30
0.0
 10
1138.207680484067
 20
-1245.922722823332
 30
0.0
 10
1129.090257675396
 20
-1238.343238504367
 30
0.0
 10
1118.07179156848
 20
-1234.276708721318
 30
0.0
 10
1118.07179156848
 20
-1238.454009878222
 30
0.0
 10
1118.07179156848
 20
-1240.213491115637
 30
0.0
 10
1120.557294674874
 20
-1242.594418535187
 30
0.0
 10
1123.63335940238
 20
-1243.763338151492
 30
0.0
 10
1126.672437755909
 20
-1244.932163893749
 30
0.0
 10
1130.739061413004
 20
-1250.063131480296
 30
0.0
 10
1132.676903337135
 20
-1255.114024505925
 30
0.0
 10
1134.621034822325
 20
-1260.201810031478
 30
0.0
 10
1137.949339110466
 20
-1264.379111188382
 30
0.0
 10
1140.114825595276
 20
-1264.379111188382
 30
0.0
 10
1142.280312080082
 20
-1264.379111188382
 30
0.0
 10
1143.701565131061
 20
-1266.427724486373
 30
0.0
 10
1143.295559883674
 20
-1268.956315779709
 30
0.0
 10
1142.889554636278
 20
-1271.484907073043
 30
0.0
 10
1143.443129883417
 20
-1276.025031416348
 30
0.0
 10
1144.54436631281
 20
-1279.027311143984
 30
0.0
 10
1153.809546869321
 20
-1304.620192206625
 30
0.0
 10
1157.832988465421
 20
-1337.614009153423
 30
0.0
 10
1151.717751510338
 20
-1337.614009153423
 30
0.0
 10
1150.075143459742
 20
-1337.614009153423
 30
0.0
 10
1146.082398676563
 20
-1332.04633950656
 30
0.0
 10
1142.821777575329
 20
-1325.272857743454
 30
0.0
 10
1137.112639741687
 20
-1313.227034081065
 30
0.0
 10
1108.111473704013
 20
-1286.348360215299
 30
0.0
 10
1100.858107819604
 20
-1286.348360215299
 30
0.0
 10
1098.883279521489
 20
-1286.348360215299
 30
0.0
 10
1094.269182430226
 20
-1283.050846614131
 30
0.0
 10
1090.608657894569
 20
-1279.027311143984
 30
0.0
 10
1086.948133358906
 20
-1275.003775673837
 30
0.0
 10
1082.223358767835
 20
-1271.700160259697
 30
0.0
 10
1080.094670908922
 20
-1271.700160259697
 30
0.0
 10
1077.935286237078
 20
-1271.700160259697
 30
0.0
 10
1072.847500711521
 20
-1267.818092976333
 30
0.0
 10
1068.743984554487
 20
-1263.062527698292
 30
0.0
 10
1064.64666408447
 20
-1258.2638742333
 30
0.0
 10
1059.884903119419
 20
-1254.566457197709
 30
0.0
 10
1058.162314381934
 20
-1254.818696758339
 30
0.0
 10
1056.445921331466
 20
-1255.040145632001
 30
0.0
 10
1052.342405174435
 20
-1250.136916480173
 30
0.0
 10
1049.007999073325
 20
-1243.911002025285
 30
0.0
 10
1045.716587285122
 20
-1237.721886196281
 30
0.0
 10
1038.973896208989
 20
-1224.943938851957
 30
0.0
 10
1034.033680683175
 20
-1215.531188295699
 30
0.0
 10
1023.562781884477
 20
-1195.610552566766
 30
0.0
 10
1018.142729174375
 20
-1193.525046768842
 30
0.0
 10
1020.671273530694
 20
-1210.369523896223
 30
0.0
 10
1021.618697336306
 20
-1216.921556785666
 30
0.0
 10
1024.147241692624
 20
-1237.100533888193
 30
0.0
 10
1026.26973386453
 20
-1255.224702005733
 30
0.0
 10
1033.486207249005
 20
-1317.219684990196
 30
0.0
 10
1037.583433844979
 20
-1346.76841833608
 30
0.0
 10
1042.966547118122
 20
-1376.058716434321
 30
0.0
 10
1049.998464128868
 20
-1414.398754154319
 30
0.0
 10
1049.998464128868
 20
-1414.509525528174
 30
0.0
 10
1039.343008956441
 20
-1414.509525528174
 30
0.0
 10
1034.292115930819
 20
-1414.509525528174
 30
0.0
 10
1030.18859977379
 20
-1412.45471654318
 30
0.0
 10
1030.15170727385
 20
-1409.932320936847
 30
0.0
  0
SPLINE
  5
42
330
1F
100
AcDbEntity
  8
katman 1
370
     0
100
AcDbSpline
210
0.0
220
0.0
230
1.0
 70
    11
 71
     3
 72
    14
 73
    10
 74
     0
 42
0.0000000001
 43
0.0000000001
 12
1.0
 22
0.0
 32
0.0
 13
1.0
 23
0.0
 33
0.0
 40
0.0
 40
0.0
 40
0.0
 40
0.0
 40
1.0
 40
1.0
 40
1.0
 40
2.0
 40
2.0
 40
2.0
 40
3.0
 40
3.0
 40
3.0
 40
3.0
 10
900.0157136628623
 20
-1154.82199811435
 30
0.0
 10
901.1538425921926
 20
-1152.988638003018
 30
0.0
 10
894.411104579035
 20
-1151.487498139197
 30
0.0
 10
884.9430152728783
 20
-1151.487498139197
 30
0.0
 10
873.3462381078052
 20
-1151.487498139197
 30
0.0
 10
869.488859698441
 20
-1152.551842068657
 30
0.0
 10
873.0140178602878
 20
-1154.785011740372
 30
0.0
 10
879.8244390603495
 20
-1159.1038749581
 30
0.0
 10
897.345701119767
 20
-1159.14076745803
 30
0.0
 10
900.0157136628623
 20
-1154.82199811435
 30
0.0
  0
SPLINE
  5
43
330
1F
100
AcDbEntity
  8
katman 1
370
     0
100
AcDbSpline
210
0.0
220
0.0
230
1.0
 70
    11
 71
     3
 72
    20
 73
    16
 74
     0
 42
0.0000000001
 43
0.0000000001
 12
1.0
 22
0.0
 32
0.0
 13
1.0
 23
0.0
 33
0.0
 40
0.0
 40
0.0
 40
0.0
 40
0.0
 40
1.0
 40
1.0
 40
1.0
 40
2.0
 40
2.0
 40
2.0
 40
3.0
 40
3.0
 40
3.0
 40
4.0
 40
4.0
 40
4.0
 40
5.0
 40
5.0
 40
5.0
 40
5.0
 10
959.5190917279733
 20
-1123.772124904654
 30
0.0
 10
935.3535655292762
 20
-1098.942158210913
 30
0.0
 10
928.0632602079049
 20
-1094.002036559148
 30
0.0
 10
935.0213452817588
 20
-1107.038419151128
 30
0.0
 10
937.2176224535351
 20
-1111.098753247159
 30
0.0
 10
940.5151829917295
 20
-1113.516573166648
 30
0.0
 10
942.3423474160536
 20
-1112.421532424267
 30
0.0
 10
944.175707527389
 20
-1111.283309620892
 30
0.0
 10
948.1315128736069
 20
-1115.165376904255
 30
0.0
 10
951.1706851011795
 20
-1121.022178611696
 30
0.0
 10
954.2098573287503
 20
-1126.878980319128
 30
0.0
 10
961.8999722104991
 20
-1136.070282001721
 30
0.0
 10
968.2674487262148
 20
-1141.416502774922
 30
0.0
 10
988.7724973262748
 20
-1158.667079023737
 30
0.0
 10
983.7953893005251
 20
-1148.632882285354
 30
0.0
 10
959.5190917279733
 20
-1123.772124904654
 30
0.0
  0
SPLINE
  5
44
330
1F
100
AcDbEntity
  8
katman 1
370
     0
100
AcDbSpline
210
0.0
220
0.0
230
1.0
 70
    11
 71
     3
 72
    38
 73
    34
 74
     0
 42
0.0000000001
 43
0.0000000001
 12
1.0
 22
0.0
 32
0.0
 13
1.0
 23
0.0
 33
0.0
 40
0.0
 40
0.0
 40
0.0
 40
0.0
 40
1.0
 40
1.0
 40
1.0
 40
2.0
 40
2.0
 40
2.0
 40
3.0
 40
3.0
 40
3.0
 40
4.0
 40
4.0
 40
4.0
 40
5.0
 40
5.0
 40
5.0
 40
6.0
 40
6.0
 40
6.0
 40
7.0
 40
7.0
 40
7.0
 40
8.0
 40
8.0
 40
8.0
 40
9.0
 40
9.0
 40
9.0
 40
10.0
 40
10.0
 40
10.0
 40
11.0
 40
11.0
 40
11.0
 40
11.0
 10
1038.137196840205
 20
-1090.44608771033
 30
0.0
 10
1040.222702638126
 20
-1080.381194159027
 30
0.0
 10
1043.446431239425
 20
-1070.568540168346
 30
0.0
 10
1045.236703163815
 20
-1068.661395057137
 30
0.0
 10
1047.0269750882
 20
-1066.754249945927
 30
0.0
 10
1048.49732426505
 20
-1058.479628319008
 30
0.0
 10
1048.49732426505
 20
-1050.241899192026
 30
0.0
 10
1048.49732426505
 20
-1042.041156439022
 30
0.0
 10
1051.062808058326
 20
-1031.644042640191
 30
0.0
 10
1054.20655597274
 20
-1027.177609422719
 30
0.0
 10
1057.319513200184
 20
-1022.704980518236
 30
0.0
 10
1058.568413503372
 20
-1019.081395419536
 30
0.0
 10
1056.956502265699
 20
-1019.081395419536
 30
0.0
 10
1055.307792402136
 20
-1019.118287919475
 30
0.0
 10
1050.398367563292
 20
-1024.685957566338
 30
0.0
 10
1046.005719345692
 20
-1031.459486266467
 30
0.0
 10
1040.370366511919
 20
-1040.207796327682
 30
0.0
 10
1039.195345082651
 20
-1044.895678418818
 30
0.0
 10
1041.982277749592
 20
-1047.682611085762
 30
0.0
 10
1044.769210416531
 20
-1050.469543752697
 30
0.0
 10
1043.224982365762
 20
-1057.199937328856
 30
0.0
 10
1036.636056976387
 20
-1071.005336102709
 30
0.0
 10
1031.542075763819
 20
-1081.697777649117
 30
0.0
 10
1026.26973386453
 20
-1097.847117468533
 30
0.0
 10
1024.95315037444
 20
-1106.927647777273
 30
0.0
 10
1023.599674384412
 20
-1116.008178086006
 30
0.0
 10
1021.655636773266
 20
-1127.506528314225
 30
0.0
 10
1020.597441593798
 20
-1132.557421339854
 30
0.0
 10
1019.570037101297
 20
-1137.608314365476
 30
0.0
 10
1022.209305894448
 20
-1134.31690257727
 30
0.0
 10
1026.52812217515
 20
-1125.23637226853
 30
0.0
 10
1030.809952081876
 20
-1116.155841959799
 30
0.0
 10
1036.045401481222
 20
-1100.517083074606
 30
0.0
 10
1038.137196840205
 20
-1090.44608771033
 30
0.0
  0
HATCH
  5
45
330
1F
100
AcDbEntity
  8
katman 1
 62
    96
420
    32768
100
AcDbHatch
 10
0.0
 20
0.0
 30
0.0
210
0.0
220
0.0
230
1.0
  2
SOLID
 70
     1
 71
     0
 91
        4
 92
        1
 93
        1
 72
     4
 94
        3
 73
     0
 74
     1
 95
      992
 96
      988
 40
0.0
 40
0.0
 40
0.0
 40
0.0
 40
1.0
 40
1.0
 40
1.0
 40
2.0
 40
2.0
 40
2.0
 40
3.0
 40
3.0
 40
3.0
 40
4.0
 40
4.0
 40
4.0
 40
5.0
 40
5.0
 40
5.0
 40
6.0
 40
6.0
 40
6.0
 40
7.0
 40
7.0
 40
7.0
 40
8.0
 40
8.0
 40
8.0
 40
9.0
 40
9.0
 40
9.0
 40
10.0
 40
10.0
 40
10.0
 40
11.0
 40
11.0
 40
11.0
 40
12.0
 40
12.0
 40
12.0
 40
13.0
 40
13.0
 40
13.0
 40
14.0
 40
14.0
 40
14.0
 40
15.0
 40
15.0
 40
15.0
 40
16.0
 40
16.0
 40
16.0
 40
17.0
 40
17.0
 40
17.0
 40
18.0
 40
18.0
 40
18.0
 40
19.0
 40
19.0
 40
19.0
 40
20.0
 40
20.0
 40
20.0
 40
21.0
 40
21.0
 40
21.0
 40
22.0
 40
22.0
 40
22.0
 40
23.0
 40
23.0
 40
23.0
 40
24.0
 40
24.0
 40
24.0
 40
25.0
 40
25.0
 40
25.0
 40
26.0
 40
26.0
 40
26.0
 40
27.0
 40
27.0
 40
27.0
 40
28.0
 40
28.0
 40
28.0
 40
29.0
 40
29.0
 40
29.0
 40
30.0
 40
30.0
 40
30.0
 40
31.0
 40
31.0
 40
31.0
 40
32.0
 40
32.0
 40
32.0
 40
33.0
 40
33.0
 40
33.0
 40
34.0
 40
34.0
 40
34.0
 40
35.0
 40
35.0
 40
35.0
 40
36.0
 40
36.0
 40
36.0
 40
37.0
 40
37.0
 40
37.0
 40
38.0
 40
38.0
 40
38.0
 40
39.0
 40
39.0
 40
39.0
 40
40.0
 40
40.0
 40
40.0
 40
41.0
 40
41.0
 40
41.0
 40
42.0
 40
42.0
 40
42.0
 40
43.0
 40
43.0
 40
43.0
 40
44.0
 40
44.0
 40
44.0
 40
45.0
 40
45.0
 40
45.0
 40
46.0
 40
46.0
 40
46.0
 40
47.0
 40
47.0
 40
47.0
 40
48.0
 40
48.0
 40
48.0
 40
49.0
 40
49.0
 40
49.0
 40
50.0
 40
50.0
 40
50.0
 40
51.0
 40
51.0
 40
51.0
 40
52.0
 40
52.0
 40
52.0
 40
53.0
 40
53.0
 40
53.0
 40
54.0
 40
54.0
 40
54.0
 40
55.0
 40
55.0
 40
55.0
 40
56.0
 40
56.0
 40
56.0
 40
57.0
 40
57.0
 40
57.0
 40
58.0
 40
58.0
 40
58.0
 40
59.0
 40
59.0
 40
59.0
 40
60.0
 40
60.0
 40
60.0
 40
61.0
 40
61.0
 40
61.0
 40
62.0
 40
62.0
 40
62.0
 40
63.0
 40
63.0
 40
63.0
 40
64.0
 40
64.0
 40
64.0
 40
65.0
 40
65.0
 40
65.0
 40
66.0
 40
66.0
 40
66.0
 40
67.0
 40
67.0
 40
67.0
 40
68.0
 40
68.0
 40
68.0
 40
69.0
 40
69.0
 40
69.0
 40
70.0
 40
70.0
 40
70.0
 40
71.0
 40
71.0
 40
71.0
 40
72.0
 40
72.0
 40
72.0
 40
73.0
 40
73.0
 40
73.0
 40
74.0
 40
74.0
 40
74.0
 40
75.0
 40
75.0
 40
75.0
 40
76.0
 40
76.0
 40
76.0
 40
77.0
 40
77.0
 40
77.0
 40
78.0
 40
78.0
 40
78.0
 40
79.0
 40
79.0
 40
79.0
 40
80.0
 40
80.0
 40
80.0
 40
81.0
 40
81.0
 40
81.0
 40
82.0
 40
82.0
 40
82.0
 40
83.0
 40
83.0
 40
83.0
 40
84.0
 40
84.0
 40
84.0
 40
85.0
 40
85.0
 40
85.0
 40
86.0
 40
86.0
 40
86.0
 40
87.0
 40
87.0
 40
87.0
 40
88.0
 40
88.0
 40
88.0
 40
89.0
 40
89.0
 40
89.0
 40
90.0
 40
90.0
 40
90.0
 40
91.0
 40
91.0
 40
91.0
 40
92.0
 40
92.0
 40
92.0
 40
93.0
 40
93.0
 40
93.0
 40
94.0
 40
94.0
 40
94.0
 40
95.0
 40
95.0
 40
95.0
 40
96.0
 40
96.0
 40
96.0
 40
97.0
 40
97.0
 40
97.0
 40
98.0
 40
98.0
 40
98.0
 40
99.0
 40
99.0
 40
99.0
 40
100.0
 40
100.0
 40
100.0
 40
101.0
 40
101.0
 40
101.0
 40
102.0
 40
102.0
 40
102.0
 40
103.0
 40
103.0
 40
103.0
 40
104.0
 40
104.0
 40
104.0
 40
105.0
 40
105.0
 40
105.0
 40
106.0
 40
106.0
 40
106.0
 40
107.0
 40
107.0
 40
107.0
 40
108.0
 40
108.0
 40
108.0
 40
109.0
 40
109.0
 40
109.0
 40
110.0
 40
110.0
 40
110.0
 40
111.0
 40
111.0
 40
111.0
 40
112.0
 40
112.0
 40
112.0
 40
113.0
 40
113.0
 40
113.0
 40
114.0
 40
114.0
 40
114.0
 40
115.0
 40
115.0
 40
115.0
 40
116.0
 40
116.0
 40
116.0
 40
117.0
 40
117.0
 40
117.0
 40
118.0
 40
118.0
 40
118.0
 40
119.0
 40
119.0
 40
119.0
 40
120.0
 40
120.0
 40
120.0
 40
121.0
 40
121.0
 40
121.0
 40
122.0
 40
122.0
 40
122.0
 40
123.0
 40
123.0
 40
123.0
 40
124.0
 40
124.0
 40
124.0
 40
125.0
 40
125.0
 40
125.0
 40
126.0
 40
126.0
 40
126.0
 40
127.0
 40
127.0
 40
127.0
 40
128.0
 40
128.0
 40
128.0
 40
129.0
 40
129.0
 40
129.0
 40
130.0
 40
130.0
 40
130.0
 40
131.0
 40
131.0
 40
131.0
 40
132.0
 40
132.0
 40
132.0
 40
133.0
 40
133.0
 40
133.0
 40
134.0
 40
134.0
 40
134.0
 40
135.0
 40
135.0
 40
135.0
 40
136.0
 40
136.0
 40
136.0
 40
137.0
 40
137.0
 40
137.0
 40
138.0
 40
138.0
 40
138.0
 40
139.0
 40
139.0
 40
139.0
 40
140.0
 40
140.0
 40
140.0
 40
141.0
 40
141.0
 40
141.0
 40
142.0
 40
142.0
 40
142.0
 40
143.0
 40
143.0
 40
143.0
 40
144.0
 40
144.0
 40
144.0
 40
145.0
 40
145.0
 40
145.0
 40
146.0
 40
146.0
 40
146.0
 40
147.0
 40
147.0
 40
147.0
 40
148.0
 40
148.0
 40
148.0
 40
149.0
 40
149.0
 40
149.0
 40
150.0
 40
150.0
 40
150.0
 40
151.0
 40
151.0
 40
151.0
 40
152.0
 40
152.0
 40
152.0
 40
153.0
 40
153.0
 40
153.0
 40
154.0
 40
154.0
 40
154.0
 40
155.0
 40
155.0
 40
155.0
 40
156.0
 40
156.0
 40
156.0
 40
157.0
 40
157.0
 40
157.0
 40
158.0
 40
158.0
 40
158.0
 40
159.0
 40
159.0
 40
159.0
 40
160.0
 40
160.0
 40
160.0
 40
161.0
 40
161.0
 40
161.0
 40
162.0
 40
162.0
 40
162.0
 40
163.0
 40
163.0
 40
163.0
 40
164.0
 40
164.0
 40
164.0
 40
165.0
 40
165.0
 40
165.0
 40
166.0
 40
166.0
 40
166.0
 40
167.0
 40
167.0
 40
167.0
 40
168.0
 40
168.0
 40
168.0
 40
169.0
 40
169.0
 40
169.0
 40
170.0
 40
170.0
 40
170.0
 40
171.0
 40
171.0
 40
171.0
 40
172.0
 40
172.0
 40
172.0
 40
173.0
 40
173.0
 40
173.0
 40
174.0
 40
174.0
 40
174.0
 40
175.0
 40
175.0
 40
175.0
 40
176.0
 40
176.0
 40
176.0
 40
177.0
 40
177.0
 40
177.0
 40
178.0
 40
178.0
 40
178.0
 40
179.0
 40
179.0
 40
179.0
 40
180.0
 40
180.0
 40
180.0
 40
181.0
 40
181.0
 40
181.0
 40
182.0
 40
182.0
 40
182.0
 40
183.0
 40
183.0
 40
183.0
 40
184.0
 40
184.0
 40
184.0
 40
185.0
 40
185.0
 40
185.0
 40
186.0
 40
186.0
 40
186.0
 40
187.0
 40
187.0
 40
187.0
 40
188.0
 40
188.0
 40
188.0
 40
189.0
 40
189.0
 40
189.0
 40
190.0
 40
190.0
 40
190.0
 40
191.0
 40
191.0
 40
191.0
 40
192.0
 40
192.0
 40
192.0
 40
193.0
 40
193.0
 40
193.0
 40
194.0
 40
194.0
 40
194.0
 40
195.0
 40
195.0
 40
195.0
 40
196.0
 40
196.0
 40
196.0
 40
197.0
 40
197.0
 40
197.0
 40
198.0
 40
198.0
 40
198.0
 40
199.0
 40
199.0
 40
199.0
 40
200.0
 40
200.0
 40
200.0
 40
201.0
 40
201.0
 40
201.0
 40
202.0
 40
202.0
 40
202.0
 40
203.0
 40
203.0
 40
203.0
 40
204.0
 40
204.0
 40
204.0
 40
205.0
 40
205.0
 40
205.0
 40
206.0
 40
206.0
 40
206.0
 40
207.0
 40
207.0
 40
207.0
 40
208.0
 40
208.0
 40
208.0
 40
209.0
 40
209.0
 40
209.0
 40
210.0
 40
210.0
 40
210.0
 40
211.0
 40
211.0
 40
211.0
 40
212.0
 40
212.0
 40
212.0
 40
213.0
 40
213.0
 40
213.0
 40
214.0
 40
214.0
 40
214.0
 40
215.0
 40
215.0
 40
215.0
 40
216.0
 40
216.0
 40
216.0
 40
217.0
 40
217.0
 40
217.0
 40
218.0
 40
218.0
 40
218.0
 40
219.0
 40
219.0
 40
219.0
 40
220.0
 40
220.0
 40
220.0
 40
221.0
 40
221.0
 40
221.0
 40
222.0
 40
222.0
 40
222.0
 40
223.0
 40
223.0
 40
223.0
 40
224.0
 40
224.0
 40
224.0
 40
225.0
 40
225.0
 40
225.0
 40
226.0
 40
226.0
 40
226.0
 40
227.0
 40
227.0
 40
227.0
 40
228.0
 40
228.0
 40
228.0
 40
229.0
 40
229.0
 40
229.0
 40
230.0
 40
230.0
 40
230.0
 40
231.0
 40
231.0
 40
231.0
 40
232.0
 40
232.0
 40
232.0
 40
233.0
 40
233.0
 40
233.0
 40
234.0
 40
234.0
 40
234.0
 40
235.0
 40
235.0
 40
235.0
 40
236.0
 40
236.0
 40
236.0
 40
237.0
 40
237.0
 40
237.0
 40
238.0
 40
238.0
 40
238.0
 40
239.0
 40
239.0
 40
239.0
 40
240.0
 40
240.0
 40
240.0
 40
241.0
 40
241.0
 40
241.0
 40
242.0
 40
242.0
 40
242.0
 40
243.0
 40
243.0
 40
243.0
 40
244.0
 40
244.0
 40
244.0
 40
245.0
 40
245.0
 40
245.0
 40
246.0
 40
246.0
 40
246.0
 40
247.0
 40
247.0
 40
247.0
 40
248.0
 40
248.0
 40
248.0
 40
249.0
 40
249.0
 40
249.0
 40
250.0
 40
250.0
 40
250.0
 40
251.0
 40
251.0
 40
251.0
 40
252.0
 40
252.0
 40
252.0
 40
253.0
 40
253.0
 40
253.0
 40
254.0
 40
254.0
 40
254.0
 40
255.0
 40
255.0
 40
255.0
 40
256.0
 40
256.0
 40
256.0
 40
257.0
 40
257.0
 40
257.0
 40
258.0
 40
258.0
 40
258.0
 40
259.0
 40
259.0
 40
259.0
 40
260.0
 40
260.0
 40
260.0
 40
261.0
 40
261.0
 40
261.0
 40
262.0
 40
262.0
 40
262.0
 40
263.0
 40
263.0
 40
263.0
 40
264.0
 40
264.0
 40
264.0
 40
265.0
 40
265.0
 40
265.0
 40
266.0
 40
266.0
 40
266.0
 40
267.0
 40
267.0
 40
267.0
 40
268.0
 40
268.0
 40
268.0
 40
269.0
 40
269.0
 40
269.0
 40
270.0
 40
270.0
 40
270.0
 40
271.0
 40
271.0
 40
271.0
 40
272.0
 40
272.0
 40
272.0
 40
273.0
 40
273.0
 40
273.0
 40
274.0
 40
274.0
 40
274.0
 40
275.0
 40
275.0
 40
275.0
 40
276.0
 40
276.0
 40
276.0
 40
277.0
 40
277.0
 40
277.0
 40
278.0
 40
278.0
 40
278.0
 40
279.0
 40
279.0
 40
279.0
 40
280.0
 40
280.0
 40
280.0
 40
281.0
 40
281.0
 40
281.0
 40
282.0
 40
282.0
 40
282.0
 40
283.0
 40
283.0
 40
283.0
 40
284.0
 40
284.0
 40
284.0
 40
285.0
 40
285.0
 40
285.0
 40
286.0
 40
286.0
 40
286.0
 40
287.0
 40
287.0
 40
287.0
 40
288.0
 40
288.0
 40
288.0
 40
289.0
 40
289.0
 40
289.0
 40
290.0
 40
290.0
 40
290.0
 40
291.0
 40
291.0
 40
291.0
 40
292.0
 40
292.0
 40
292.0
 40
293.0
 40
293.0
 40
293.0
 40
294.0
 40
294.0
 40
294.0
 40
295.0
 40
295.0
 40
295.0
 40
296.0
 40
296.0
 40
296.0
 40
297.0
 40
297.0
 40
297.0
 40
298.0
 40
298.0
 40
298.0
 40
299.0
 40
299.0
 40
299.0
 40
300.0
 40
300.0
 40
300.0
 40
301.0
 40
301.0
 40
301.0
 40
302.0
 40
302.0
 40
302.0
 40
303.0
 40
303.0
 40
303.0
 40
304.0
 40
304.0
 40
304.0
 40
305.0
 40
305.0
 40
305.0
 40
306.0
 40
306.0
 40
306.0
 40
307.0
 40
307.0
 40
307.0
 40
308.0
 40
308.0
 40
308.0
 40
309.0
 40
309.0
 40
309.0
 40
310.0
 40
310.0
 40
310.0
 40
311.0
 40
311.0
 40
311.0
 40
312.0
 40
312.0
 40
312.0
 40
313.0
 40
313.0
 40
313.0
 40
314.0
 40
314.0
 40
314.0
 40
315.0
 40
315.0
 40
315.0
 40
316.0
 40
316.0
 40
316.0
 40
317.0
 40
317.0
 40
317.0
 40
318.0
 40
318.0
 40
318.0
 40
319.0
 40
319.0
 40
319.0
 40
320.0
 40
320.0
 40
320.0
 40
321.0
 40
321.0
 40
321.0
 40
322.0
 40
322.0
 40
322.0
 40
323.0
 40
323.0
 40
323.0
 40
324.0
 40
324.0
 40
324.0
 40
325.0
 40
325.0
 40
325.0
 40
326.0
 40
326.0
 40
326.0
 40
327.0
 40
327.0
 40
327.0
 40
328.0
 40
328.0
 40
328.0
 40
329.0
 40
329.0
 40
329.0
 40
329.0
 10
1030.15170727385
 20
-1409.932320936847
 10
1030.00404340006
 20
-1386.498824546044
 10
1020.080664972553
 20
-1321.427776834069
 10
1009.757383110622
 20
-1276.424934850773
 10
1006.9028141938
 20
-1263.942315254026
 10
1004.521933711272
 20
-1248.303556368834
 10
1004.485041211337
 20
-1241.640845979589
 10
1004.41120927444
 20
-1223.916581296475
 10
999.5017844355962
 20
-1218.059685714996
 10
994.2663350362473
 20
-1229.484250943346
 10
991.9592864906163
 20
-1234.572036468906
 10
987.9357979574916
 20
-1238.74933762581
 10
985.2965291643432
 20
-1238.74933762581
 10
980.2087436387828
 20
-1238.74933762581
 10
973.6505619993541
 20
-1245.559711888845
 10
963.2903876374867
 20
-1261.635266708392
 10
959.7036950387228
 20
-1267.159848168309
 10
954.3574742655192
 20
-1271.700160259697
 10
951.3921339748422
 20
-1271.700160259697
 10
948.3837524342389
 20
-1271.700160259697
 10
945.9721282017645
 20
-1273.348870123258
 10
945.9721282017645
 20
-1275.366786608321
 10
945.9721282017645
 20
-1277.384703093387
 10
942.7853390374257
 20
-1279.027311143984
 10
938.8664261911445
 20
-1279.027311143984
 10
934.9475133448623
 20
-1279.027311143984
 10
930.6656365011177
 20
-1280.780690568437
 10
929.3429042610378
 20
-1282.94617705324
 10
927.9894282710084
 20
-1285.105655599125
 10
924.661123982868
 20
-1285.985349280814
 10
921.9111307528883
 20
-1284.921005351356
 10
919.1611375229058
 20
-1283.856661421896
 10
915.9804971085568
 20
-1284.5518926039
 10
914.8115774922562
 20
-1286.422145215169
 10
913.6426578759556
 20
-1288.292397826448
 10
905.7617909334676
 20
-1291.657594614524
 10
897.3087616828061
 20
-1293.927750660217
 10
886.8563091340775
 20
-1296.708487640144
 10
876.8590987696734
 20
-1303.414380090391
 10
866.2835773471097
 20
-1314.728080070839
 10
857.6939613600434
 20
-1323.919381753425
 10
849.5977942938835
 20
-1330.323750769076
 10
848.2941654220904
 20
-1329.044153652971
 10
842.1463072361503
 20
-1322.89202419795
 10
869.0520637640802
 20
-1262.951756324437
 10
880.7780116159547
 20
-1256.652056869678
 10
884.4138942146337
 20
-1254.714121071502
 10
887.3853832553004
 20
-1250.832147662177
 10
887.3853832553004
 20
-1248.008228621256
 10
887.3853832553004
 20
-1245.184309580334
 10
890.6767950435042
 20
-1241.862294853254
 10
894.7064323266177
 20
-1240.576502050131
 10
898.7360696097303
 20
-1239.290709247009
 10
902.0274813979358
 20
-1236.14696133259
 10
902.0274813979358
 20
-1233.581571413362
 10
902.0274813979358
 20
-1231.016181494128
 10
908.5487236004055
 20
-1226.955659650002
 10
916.5280174797472
 20
-1224.574826104501
 10
924.4765676091401
 20
-1222.193898684951
 10
933.8155331655216
 20
-1217.40144090697
 10
937.2545618904951
 20
-1213.91937093207
 10
940.6997393654574
 20
-1210.480295270077
 10
948.6052482449259
 20
-1203.706813506971
 10
954.7942701998791
 20
-1198.908160041981
 10
961.4939200260869
 20
-1193.746495642505
 10
963.1057843267363
 20
-1191.291783223085
 10
958.7870149830551
 20
-1192.940586960693
 10
954.7573776999425
 20
-1194.441726824509
 10
943.517415782344
 20
-1198.686617294272
 10
933.7785937285616
 20
-1202.347141829934
 10
924.0705623617514
 20
-1206.050754552543
 10
913.8948974365885
 20
-1210.880198704503
 10
911.181843643566
 20
-1213.113368376211
 10
908.4379991635742
 20
-1215.383524421906
 10
904.045350945974
 20
-1216.773892911873
 10
901.369189652889
 20
-1216.226419477702
 10
898.7360696097303
 20
-1215.678852169493
 10
892.8361797153457
 20
-1217.542909093754
 10
888.0805675002821
 20
-1219.923836513302
 10
874.8965679715375
 20
-1226.48197121571
 10
870.0056363196845
 20
-1216.447868351366
 10
855.8889512104915
 20
-1225.269963412456
 10
837.829368436358
 20
-1236.546864767013
 10
841.7033625518006
 20
-1222.926022366893
 10
817.8361680701446
 20
-1232.812555231481
 10
780.2749563697871
 20
-1248.377435242757
 10
801.812948031039
 20
-1232.960125231228
 10
773.2990821642843
 20
-1244.753803207035
 10
737.4622897452991
 20
-1259.617350223329
 10
762.2960114008574
 20
-1236.036189958733
 10
724.4376414090284
 20
-1253.391341894394
 10
709.0148397658331
 20
-1260.497137779064
 10
667.9413775849034
 20
-1262.914863824506
 10
661.6471697618117
 20
-1269.177764653372
 10
657.3265229372164
 20
-1273.496533997051
 10
652.4454011231337
 20
-1271.92160913336
 10
653.6826141076363
 20
-1266.612280860099
 10
654.9198270921379
 20
-1261.30295258683
 10
698.8386115963958
 20
-1224.907046352018
 10
704.7120759469326
 20
-1222.230885058929
 10
710.962632338802
 20
-1219.376269205086
 10
705.8729693323303
 20
-1213.408696123799
 10
722.6289232346717
 20
-1208.53625765893
 10
732.544885612574
 20
-1205.644749305149
 10
727.8834290652876
 20
-1191.107226849355
 10
752.6475900530259
 20
-1185.687221076285
 10
775.6903826658781
 20
-1180.673220550594
 10
760.3845011465255
 20
-1171.045122933645
 10
788.3121235982644
 20
-1166.941700650657
 10
803.2482352518427
 20
-1164.745329604841
 10
806.6350230704174
 20
-1153.79454668483
 10
830.6264598514763
 20
-1153.5423071242
 10
849.3596827771198
 20
-1153.320858250536
 10
864.3579859859337
 20
-1148.928210032933
 10
865.3054097915483
 20
-1148.159193851061
 10
869.5073059484084
 20
-1144.861680249884
 10
854.8855315366536
 20
-1139.989147910977
 10
840.5830696911407
 20
-1139.952255411039
 10
830.0629339555044
 20
-1139.915362911108
 10
824.211623879738
 20
-1138.088198486777
 10
822.7978807524105
 20
-1134.390781451184
 10
821.3293621194507
 20
-1130.582593041738
 10
815.3685479694477
 20
-1128.896896804192
 10
803.2187118644888
 20
-1128.896896804192
 10
792.1608655954296
 20
-1128.896896804192
 10
784.0794367544331
 20
-1126.885176006144
 10
781.1940771506415
 20
-1123.403012157198
 10
778.685856525205
 20
-1120.400826303608
 10
773.4897872880019
 20
-1117.90922138425
 10
769.6447063786154
 20
-1117.90922138425
 10
765.7996254692298
 20
-1117.90922138425
 10
761.7391974991469
 20
-1115.528293964702
 10
760.6152435507074
 20
-1112.599893110983
 10
759.494903753025
 20
-1109.671492257261
 10
752.9552153005852
 20
-1105.426507913451
 10
746.0857473258166
 20
-1103.156351867758
 10
737.630887531267
 20
-1100.369513074867
 10
733.5920036546586
 20
-1096.745881039144
 10
733.5920036546586
 20
-1091.984120074085
 10
733.5920036546586
 20
-1086.970119548401
 10
731.0327155483947
 20
-1084.958398750354
 10
724.69786026354
 20
-1084.958398750354
 10
714.8950630476556
 20
-1084.958398750354
 10
703.0349691845649
 20
-1075.324105446389
 10
706.3122059918778
 20
-1070.014871047166
 10
707.4546531273081
 20
-1068.150814122904
 10
703.1961509209268
 20
-1066.64967425909
 10
696.8471675922037
 20
-1066.64967425909
 10
688.49444275931
 20
-1066.64967425909
 10
684.7889994928128
 20
-1064.668650273965
 10
683.441672252774
 20
-1059.543972248466
 10
682.4198063289678
 20
-1055.625012465163
 10
678.0407229109624
 20
-1051.890702929633
 10
673.7158048172905
 20
-1051.306243121484
 10
669.3914499678949
 20
-1050.684890813398
 10
664.3491464174476
 20
-1046.765931030095
 10
662.5115150370357
 20
-1042.588629873193
 10
660.6769815001298
 20
-1038.380631903359
 10
654.3894856713005
 20
-1032.228502448348
 10
648.5455916451383
 20
-1028.857109973254
 10
642.6979895941768
 20
-1025.528805685111
 10
638.7907640665771
 20
-1021.351504528207
 10
639.8673585589904
 20
-1019.62891579073
 10
640.9402919636259
 20
-1017.875583303301
 10
637.6593940685316
 20
-1014.54113026517
 10
632.5734156183507
 20
-1012.234081719536
 10
627.4874371681717
 20
-1009.927033173904
 10
624.2428215917162
 20
-1006.561789448806
 10
625.3600400773812
 20
-1004.728476274489
 10
626.4803564065523
 20
-1002.932055600118
 10
622.4525496673305
 20
-999.7144757488059
 10
616.4142424926513
 20
-997.622774263873
 10
610.3722272931691
 20
-995.5002820919653
 10
605.4326923541848
 20
-991.3660221849859
 10
605.4326923541848
 20
-988.4314725812801
 10
605.4326923541848
 20
-985.466132290605
 10
593.0749017696244
 20
-971.6607804537762
 10
577.9701923300772
 20
-957.7508059930769
 10
562.8654828905319
 20
-943.840831532385
 10
550.5076923059714
 20
-931.4565919354609
 10
550.5076923059714
 20
-930.2877192561864
 10
550.5076923059714
 20
-929.1188465769046
 10
564.0995980315292
 20
-932.994624299221
 10
580.7165010037679
 20
-938.9253048805695
 10
597.3297194197139
 20
-944.8990267118497
 10
619.9880039416266
 20
-950.5343795456301
 10
631.0649066419501
 20
-951.5248446011647
 10
664.8474767887237
 20
-954.5270773917782
 10
666.9822664606063
 20
-954.8531488893095
 10
669.8202666083735
 20
-957.7139134931458
 10
671.328775584775
 20
-959.2150064199377
 10
676.311985423491
 20
-960.457757973134
 10
680.8928511025997
 20
-960.457757973134
 10
685.4737167817048
 20
-960.457757973134
 10
690.2373082906488
 20
-962.106514773719
 10
691.4825005690309
 20
-964.1182825087963
 10
692.7276928474148
 20
-966.1300502438662
 10
698.2824548130056
 20
-967.7849088574221
 10
703.8224785534321
 20
-967.7849088574221
 10
709.3661633816382
 20
-967.7849088574221
 10
717.3270110110107
 20
-970.9655962087963
 10
721.5085834369902
 20
-974.8845090550749
 10
725.8876668549965
 20
-978.9510388381241
 10
732.116115909118
 20
-981.1842554468567
 10
736.18818426086
 20
-980.1199584544192
 10
740.1206149697118
 20
-979.0617632749545
 10
745.3714597125472
 20
-980.8151426994082
 10
748.0261238491803
 20
-984.0019318637442
 10
750.6518747797572
 20
-987.1518285281509
 10
755.6498228436403
 20
-989.7542048213636
 10
759.1356477803629
 20
-989.7542048213636
 10
762.6257439861647
 20
-989.7542048213636
 10
769.9234184201187
 20
-993.8514783543578
 10
775.3532809679873
 20
-998.9085670669956
 10
780.7874617219559
 20
-1003.959460092618
 10
787.7922491335139
 20
-1008.062929312628
 10
790.9230893666527
 20
-1008.062929312628
 10
794.0539295997924
 20
-1008.062929312628
 10
801.5090308082827
 20
-1012.160249782644
 10
807.4919992330579
 20
-1017.217291558252
 10
813.4749676578331
 20
-1022.274333333868
 10
822.1094554387137
 20
-1026.371653803884
 10
826.6792439804349
 20
-1026.371653803884
 10
831.2453714343765
 20
-1026.371653803884
 10
837.9683958979494
 20
-1029.663065592089
 10
841.6116945462336
 20
-1033.692655938177
 10
845.2549931945177
 20
-1037.722293221295
 10
851.1831861136625
 20
-1041.0137050095
 10
854.7791253059213
 20
-1041.0137050095
 10
858.3750644981819
 20
-1041.0137050095
 10
862.3339207508807
 20
-1042.662508747107
 10
863.5828210540676
 20
-1044.680425232171
 10
864.8317213572527
 20
-1046.698341717234
 10
868.6337140796886
 20
-1048.267070893909
 10
872.0358503047255
 20
-1048.19328589404
 10
875.5979009665089
 20
-1048.082514520185
 10
872.669500112791
 20
-1045.080328666596
 10
865.1515971677672
 20
-1041.087583883416
 10
850.98572205866
 20
-1033.618870938308
 10
841.1503036119157
 20
-1023.769324447696
 10
844.4859770126413
 20
-1020.434871409565
 10
845.6357932606525
 20
-1019.302844293199
 10
840.9269772573398
 20
-1013.409103148804
 10
834.0248880517101
 20
-1007.330805630685
 10
827.1185275770031
 20
-1001.283251862504
 10
821.4727077871421
 20
-994.146806101935
 10
821.4727077871421
 20
-991.4706448088546
 10
821.4727077871421
 20
-988.7944835157723
 10
816.4267431489152
 20
-982.6853953106784
 10
810.2567776252272
 20
-977.8498024087257
 10
804.0904731893188
 20
-973.0204051937908
 10
798.6489233227676
 20
-966.3883916174673
 10
798.1696493827558
 20
-963.1339192662163
 10
797.6898121984705
 20
-959.8363587280255
 10
792.8492909091246
 20
-953.6842292730053
 10
787.4151101551588
 20
-949.4023524292643
 10
781.9772683134106
 20
-945.1143268355263
 10
777.53233225239
 20
-938.7837897567697
 10
777.53233225239
 20
-935.3386122818083
 10
777.53233225239
 20
-931.8934348068469
 10
772.5891127571149
 20
-926.1473105992227
 10
766.5470975576327
 20
-922.5975574374152
 10
755.9174577477579
 20
-916.2977641086109
 10
751.4682504176608
 20
-905.531537562325
 10
759.5059808904107
 20
-905.531537562325
 10
761.6733917931533
 20
-905.531537562325
 10
758.2497114746429
 20
-901.1758287816829
 10
751.900117964623
 20
-895.829608008482
 10
743.8045141427356
 20
-889.0192337454373
 10
740.9265705885482
 20
-883.9314012828618
 10
742.266481778981
 20
-878.8005275703545
 10
743.5775267003801
 20
-873.7865270446637
 10
740.647858547045
 20
-868.1819648978617
 10
732.9693840469554
 20
-861.0085797003394
 10
723.5916954467493
 20
-852.2559514330151
 10
722.5187620421157
 20
-849.6191233650588
 10
726.4038332949431
 20
-844.9687439551562
 10
730.2741663226061
 20
-840.2820352895869
 10
729.3261323356946
 20
-837.5720324030481
 10
720.684228505208
 20
-828.5277844129523
 10
714.9867310532227
 20
-822.5958834690064
 10
711.394499885766
 20
-816.6603214372772
 10
712.7018367823621
 20
-815.3529845406847
 10
714.0091736789573
 20
-814.045647644085
 10
711.0068939513212
 20
-808.1322398871289
 10
706.0267819561113
 20
-802.2151241053725
 10
695.5176764208363
 20
-789.7287495467954
 10
694.7745225385333
 20
-785.3127736288534
 10
702.665246255814
 20
-782.2846785386682
 10
707.6158818006943
 20
-780.3842923587472
 10
707.4399149021419
 20
-779.0880325995386
 10
701.3031807906091
 20
-772.328068699002
 10
694.4373739036191
 20
-764.7671245040565
 10
690.797783280138
 20
-754.0931761446373
 10
687.4178013298715
 20
-731.6028322903767
 10
684.3607930336284
 20
-711.2589654266721
 10
682.5336286093052
 20
-698.7135440933926
 10
680.7501156162043
 20
-685.8322414248123
 10
676.1255515688526
 20
-652.4372537439776
 10
674.1593596829362
 20
-642.4849151733888
 10
669.0106499017575
 20
-626.3768095285159
 10
659.0177108064308
 20
-595.1319833945308
 10
664.9902122751182
 20
-594.3223666879167
 10
681.6618672844752
 20
-624.6671284723052
 10
690.2889859527731
 20
-640.3649106636894
 10
705.5031994665578
 20
-662.2141886602858
 10
715.470276262311
 20
-673.2209674485166
 10
725.4373530580642
 20
-684.2277462367492
 10
733.5920036546586
 20
-694.9349260083236
 10
733.5920036546586
 20
-697.0149401745712
 10
733.5920036546586
 20
-699.0980521843321
 10
736.1365065987357
 20
-700.3137210753612
 10
739.249510763203
 20
-699.7243328798158
 10
742.4166333149815
 20
-699.1202064591052
 10
747.6526928956282
 20
-703.4814538084374
 10
751.1495480327139
 20
-709.6329730821544
 10
754.5843054886109
 20
-715.6749882816366
 10
757.8947737080807
 20
-721.3939828900766
 10
758.5062692413749
 20
-722.3426270582859
 10
759.1214727994729
 20
-723.2907079822216
 10
761.1024967845997
 20
-721.6689869067759
 10
762.9148760467342
 20
-718.739365690466
 10
765.4557179030298
 20
-714.6272600582597
 10
767.4957886628636
 20
-716.4987330321273
 10
771.8674560312629
 20
-726.9671911056394
 10
774.9835111022139
 20
-734.4223392511485
 10
777.53233225239
 20
-742.2220051441618
 10
777.53233225239
 20
-744.3020662474337
 10
777.53233225239
 20
-746.3821273507128
 10
779.1799156274037
 20
-748.0806843325099
 10
781.1940771506415
 20
-748.0806843325099
 10
783.2082386738784
 20
-748.0806843325099
 10
784.8558689859155
 20
-746.1470667404283
 10
784.8558689859155
 20
-743.7815816013863
 10
784.8558689859155
 20
-741.4160964623443
 10
788.9752967936838
 20
-743.3497140544277
 10
794.0096210502516
 20
-748.0806843325099
 10
799.7587492273378
 20
-753.4816336743206
 10
803.1639832958817
 20
-760.6950092152947
 10
803.1639832958817
 20
-767.4765172092939
 10
803.1639832958817
 20
-776.5355034245549
 10
804.0246674833252
 20
-777.5574162853845
 10
808.5212342694485
 20
-773.8261107193193
 10
812.9846165804365
 20
-770.120104208545
 10
814.9693016533438
 20
-771.8924931272359
 10
820.3924052699258
 20
-784.4120990979663
 10
824.2553222479828
 20
-793.3320578516377
 10
828.770382221096
 20
-798.7330071934484
 10
831.4908520637227
 20
-797.68898699487
 10
834.4383093487068
 20
-796.5576169968299
 10
837.5728106696251
 20
-801.8743143826814
 10
840.2717833558008
 20
-812.588863266832
 10
842.8310714620648
 20
-822.742326980202
 10
845.5404641673076
 20
-827.5028206456409
 10
847.2212320174549
 20
-824.792817759102
 10
850.6048750555019
 20
-819.3002004117225
 10
856.0169015346992
 20
-828.4915020943154
 10
859.8115251445524
 20
-846.1769967965774
 10
861.8294416296167
 20
-855.5510243090048
 10
863.8412093646884
 20
-857.7479585991005
 10
868.9412923902255
 20
-856.1373146610458
 10
875.8193967771949
 20
-853.9767096266078
 10
879.9105684972246
 20
-862.398948190299
 10
880.0089954340774
 20
-878.9850839440769
 10
880.0458879340122
 20
-884.5896930279032
 10
882.260658292782
 20
-887.2228130710682
 10
886.9670335709079
 20
-887.2228130710682
 10
892.3255518440901
 20
-887.2228130710682
 10
894.411104579035
 20
-890.8525469197539
 10
896.2813571903071
 20
-903.2613815166296
 10
898.0408853647486
 20
-915.0181200554744
 10
900.3109944734215
 20
-919.1892724623904
 10
904.6667032540618
 20
-918.8262615278982
 10
908.7332799741334
 20
-918.4940882174033
 10
911.9139203884852
 20
-923.071245871708
 10
914.5901286185936
 20
-933.1053956730757
 10
917.5185294723096
 20
-944.166903029909
 10
920.1208588284999
 20
-947.5320998179923
 10
924.913363543501
 20
-946.5785272623871
 10
930.9917079986453
 20
-945.3358226462133
 10
933.2249246073816
 20
-954.8224051393645
 10
932.2775008017661
 20
-977.9605737825805
 10
932.1667294279123
 20
-980.8151426994082
 10
934.6214418473346
 20
-981.8794396918438
 10
938.5342059436271
 20
-980.63673507567
 10
943.9173192167664
 20
-978.9141463381857
 10
945.3138364567194
 20
-981.4057512575419
 10
946.8826125704209
 20
-995.3157257182393
 10
947.9100639999442
 20
-1004.506980463804
 10
951.6813129724333
 20
-1015.23631451015
 10
955.2680055711962
 20
-1019.192119856369
 10
959.5929236648681
 20
-1023.990773321359
 10
961.6785233368364
 20
-1031.933174700762
 10
961.5308594630469
 20
-1042.92085012071
 10
961.346303089319
 20
-1055.588119965225
 10
962.8843354530736
 20
-1060.276002056362
 10
968.2674487262148
 20
-1063.167510410143
 10
973.835118373082
 20
-1066.132897637848
 10
975.2624263000025
 20
-1070.968443602771
 10
975.2624263000025
 20
-1086.7117781748
 10
975.2624263000025
 20
-1097.588682220894
 10
977.0588469743807
 20
-1107.585892585292
 10
979.2551241461579
 20
-1108.976261075259
 10
981.4514482549575
 20
-1110.329737065287
 10
986.2870411569056
 20
-1118.241441631768
 10
989.9844581925017
 20
-1126.552955758627
 10
1004.374269837483
 20
-1158.888527897399
 10
991.8116226168249
 20
-1099.637389392925
 10
976.6896872899033
 20
-1063.788862718229
 10
970.6852217086771
 20
-1049.583654384
 10
970.1745938374215
 20
-1043.357646055065
 10
975.2624263000025
 20
-1046.507589656494
 10
981.2299524442706
 20
-1050.205006692087
 10
979.6181350806446
 20
-1044.932664792803
 10
966.1080171173498
 20
-1016.48516787631
 10
959.0761470436246
 20
-1001.615472110021
 10
953.2931772730826
 20
-988.7268003288664
 10
953.2931772730826
 20
-987.7731808362387
 10
953.2931772730826
 20
-986.8565477175871
 10
956.4430270004641
 20
-986.0875315357152
 10
960.251215409915
 20
-986.0875315357152
 10
967.0616366099775
 20
-986.0875315357152
 10
967.0616366099775
 20
-985.6507356013517
 10
960.7249038442105
 20
-968.695440163101
 10
948.3837524342389
 20
-935.781556966158
 10
948.2791767473982
 20
-934.8279844105527
 10
957.2858751192371
 20
-934.8279844105527
 10
964.6069241905543
 20
-934.8279844105527
 10
964.9022050011126
 20
-934.1696926655113
 10
960.1404909730818
 20
-928.4174666449162
 10
956.732205998057
 20
-924.3201461748995
 10
940.1460702442773
 20
-895.3189801372264
 10
953.0347420254393
 20
-896.3771753166911
 10
957.57505411683
 20
-896.7462880641488
 10
954.431306202413
 20
-879.7172076260194
 10
952.4503291543115
 20
-877.1948120196939
 10
939.7092743099156
 20
-859.6551037103109
 10
957.6857785536604
 20
-861.0824116372314
 10
947.7992926260895
 20
-844.6396215511431
 10
941.7579345449267
 20
-835.4120375499133
 10
943.4805232824074
 20
-826.6606296451864
 10
950.5123933561326
 20
-831.0181689697201
 10
953.0716814623966
 20
-832.5924836521099
 10
953.7299732074434
 20
-831.3842308106869
 10
952.3026652805202
 20
-827.6855464754808
 10
951.0599137273248
 20
-824.4636953550907
 10
948.974360992378
 20
-815.9497418488136
 10
947.6147362523616
 20
-808.7585205826108
 10
945.4184121435619
 20
-797.1180919863218
 10
946.009020701701
 20
-795.6828047655144
 10
952.8932738386602
 20
-795.6828047655144
 10
961.8999722104991
 20
-795.6828047655144
 10
962.2260437080286
 20
-793.4785013628352
 10
955.1264904473965
 20
-781.0358251725083
 10
947.9469564998808
 20
-768.4725677705501
 10
948.1315128736069
 20
-755.404174129013
 10
955.5263938818198
 20
-755.404174129013
 10
961.346303089319
 20
-755.404174129013
 10
961.0940635286861
 20
-748.516259904276
 10
954.7573776999425
 20
-731.9725552191267
 10
953.4407942098505
 20
-728.5562909502187
 10
954.7942701998791
 20
-725.2975003928714
 10
958.0918307380734
 20
-724.0455491832072
 10
962.4475395187128
 20
-722.3684893578575
 10
962.9212279530102
 20
-719.4609754792964
 10
960.2881079098497
 20
-710.3066132336644
 10
955.8216746923781
 20
-694.6968144915554
 10
956.0370217530754
 20
-693.1551210400194
 10
962.6689883923782
 20
-693.1551210400194
 10
967.3938568574949
 20
-693.1551210400194
 10
967.9413772286853
 20
-690.2186939553976
 10
965.8865682436872
 20
-676.4508447998014
 10
963.6902441348875
 20
-661.7712439759362
 10
964.2439601930901
 20
-659.5226320237125
 10
970.5744972718458
 20
-657.8640184483356
 10
976.8373511636946
 20
-656.2269489664359
 10
977.5694748456344
 20
-653.6018082171558
 10
976.0683349818164
 20
-637.9514089503027
 10
974.7148589917897
 20
-623.9676260212236
 10
975.5208146106261
 20
-619.9213730320353
 10
979.5504518937378
 20
-619.9213730320353
 10
983.3585933661661
 20
-619.9213730320353
 10
984.3798491086754
 20
-616.4614338633965
 10
983.284808366293
 20
-607.1058760694505
 10
982.1097400000026
 20
-597.1492662297842
 10
983.1002050555435
 20
-594.2897689255678
 10
987.6774096468689
 20
-594.2897689255678
 10
991.9592864906163
 20
-594.2897689255678
 10
993.5711507912656
 20
-590.8255115508255
 10
993.5711507912656
 20
-581.6569743243072
 10
993.5711507912656
 20
-574.7069154813544
 10
995.8412598999366
 20
-567.7057891575769
 10
998.6589363168232
 20
-566.0945585067329
 10
1001.445868983765
 20
-564.4833043873787
 10
1006.422930072491
 20
-552.4546596753407
 10
1009.720490610687
 20
-539.364158696053
 10
1017.189156618771
 20
-509.7305866814277
 10
1030.410142521498
 20
-477.1156923198469
 10
1034.950360738841
 20
-477.1156923198469
 10
1036.814417663101
 20
-477.1156923198469
 10
1037.33128815839
 20
-480.8229661302375
 10
1036.045401481222
 20
-485.3546183409144
 10
1030.410142521498
 20
-505.3545776384162
 10
1029.493415528805
 20
-538.2438658353967
 10
1033.923003183367
 20
-561.7997505132025
 10
1036.562271976514
 20
-575.6408214243966
 10
1039.964361264529
 20
-586.9662791290611
 10
1041.502393628285
 20
-586.9662791290611
 10
1043.040425992038
 20
-586.9662791290611
 10
1045.458245911525
 20
-596.0511276438992
 10
1046.811628027508
 20
-607.1532589939852
 10
1048.202090391513
 20
-618.2553903440712
 10
1050.841359184664
 20
-628.274121333443
 10
1052.705416108925
 20
-629.4091993562906
 10
1054.538776220257
 20
-630.5479619354246
 10
1055.012464654554
 20
-636.8858681267666
 10
1053.806652538315
 20
-643.4957039598121
 10
1052.047171300899
 20
-652.7891406040562
 10
1052.926864982588
 20
-656.055300273978
 10
1057.725518447574
 20
-657.8966396791948
 10
1062.591855099472
 20
-659.7607435404789
 10
1063.434750155264
 20
-662.9905739547412
 10
1061.607585730942
 20
-672.7706536515852
 10
1060.254109740914
 20
-680.0246297172889
 10
1060.838569549065
 20
-686.241954697005
 10
1063.034846720844
 20
-687.6003590744313
 10
1067.169059690796
 20
-690.1528413123833
 10
1064.351430210934
 20
-706.8319123713482
 10
1058.531521003437
 20
-714.2101307364592
 10
1055.892252210286
 20
-717.5679584119589
 10
1056.993488639679
 20
-718.7873353277864
 10
1062.702626473327
 20
-718.7873353277864
 10
1070.651129665695
 20
-718.7873353277864
 10
1073.431960519669
 20
-727.5018037955524
 10
1066.806048756311
 20
-731.6028322903767
 10
1061.822838917595
 20
-734.6788970178823
 10
1062.155059165112
 20
-748.0806843325099
 10
1067.205952190734
 20
-748.0806843325099
 10
1069.439215736495
 20
-748.0806843325099
 10
1070.245124418308
 20
-750.70582508179
 10
1069.002419802135
 20
-753.9135481583107
 10
1062.48727941263
 20
-770.9001975278079
 10
1062.413494412756
 20
-777.3740802742577
 10
1068.639408867646
 20
-777.3740802742577
 10
1073.948737140916
 20
-777.3740802742577
 10
1074.533196949063
 20
-779.5673065395476
 10
1072.373812277223
 20
-791.1056001741854
 10
1070.977248100247
 20
-798.6561243500746
 10
1068.048847246531
 20
-806.9787156143157
 10
1065.889462574691
 20
-809.6007585200896
 10
1062.887182847055
 20
-813.2071177314137
 10
1064.898903645102
 20
-812.7057364536558
 10
1069.88211348382
 20
-816.4333339949226
 10
1072.263040903368
 20
-818.2383441444726
 10
1073.39506801973
 20
-824.4267559181353
 10
1071.383253347638
 20
-828.2349443275834
 10
1068.454852493918
 20
-833.8740051861605
 10
1065.631027327043
 20
-832.9954849300466
 10
1069.734543484077
 20
-839.6963551188419
 10
1073.468853019609
 20
-845.7746526369665
 10
1073.616516893399
 20
-850.2417429727593
 10
1070.319003292225
 20
-860.1657315815664
 10
1067.538172438251
 20
-868.6249095822095
 10
1062.850290347116
 20
-875.6875703429105
 10
1067.796607685896
 20
-880.4492843709377
 10
1076.950922994505
 20
-889.2776220560627
 10
1072.958178211329
 20
-897.2569159354043
 10
1065.852476200705
 20
-907.1064624260162
 10
1061.896717791511
 20
-912.5634076360548
 10
1062.739518973262
 20
-918.7524765280286
 10
1066.258575322143
 20
-920.1797375179267
 10
1074.496210575082
 20
-923.5511299930185
 10
1076.692581620908
 20
-928.1282876473233
 10
1069.039312302069
 20
-934.4957641630353
 10
1062.628841473454
 20
-939.8050454992808
 10
1059.448107185055
 20
-959.8363587280255
 10
1064.720542958386
 20
-961.6327794024019
 10
1067.464387438378
 20
-962.5802501450362
 10
1067.353616064527
 20
-966.4253310544227
 10
1064.388322710869
 20
-974.52149812059
 10
1062.044381665304
 20
-980.8889746363002
 10
1061.607585730942
 20
-986.0875315357152
 10
1063.397857655329
 20
-986.0875315357152
 10
1065.188129579717
 20
-986.0875315357152
 10
1067.648943812106
 20
-981.5472194443264
 10
1068.854755928342
 20
-976.0226379844025
 10
1072.699836837728
 20
-958.5198221749579
 10
1073.764180767186
 20
-956.7972334374736
 10
1080.42689115644
 20
-956.7972334374736
 10
1085.773111929639
 20
-956.7972334374736
 10
1086.837455859099
 20
-953.9426175836306
 10
1086.283692863872
 20
-940.7955574918469
 10
1085.699326929769
 20
-927.1008831548261
 10
1086.874348359037
 20
-924.2093748010448
 10
1094.453738803953
 20
-920.7641973260761
 10
1101.959344248999
 20
-917.3251686011063
 10
1100.310634385432
 20
-915.2026764291986
 10
1100.93198669352
 20
-905.0578021910078
 10
1101.553339001608
 20
-895.5712196978566
 10
1102.654575431001
 20
-893.5963913997421
 10
1106.499656340387
 20
-895.4666440110195
 10
1112.867132856103
 20
-898.5734524884701
 10
1112.577906921486
 20
-895.7927155085436
 10
1114.478950219729
 20
-885.9800615178701
 10
1116.970555139087
 20
-873.01751086279
 10
1121.547759730414
 20
-866.428585473408
 10
1125.208284266073
 20
-870.5259059434338
 10
1132.240107402777
 20
-878.4006241359293
 10
1132.387771276564
 20
-873.860358981563
 10
1138.429223231777
 20
-856.0272004055078
 10
1142.600328701667
 20
-843.6509401024687
 10
1146.408517111118
 20
-838.5243845960631
 10
1149.232342277992
 20
-846.0306002224061
 10
1151.096399202253
 20
-850.9375373990333
 10
1153.366555247949
 20
-848.0078692457009
 10
1157.943759839276
 20
-834.13051601587
 10
1162.853184678117
 20
-819.2269786561246
 10
1165.41237891034
 20
-815.9718961235849
 10
1171.749158613129
 20
-816.6240391186402
 10
1177.316828259993
 20
-817.198642151996
 10
1180.792702547878
 20
-814.3169905730065
 10
1184.053417523159
 20
-806.4957805865233
 10
1187.676955684836
 20
-797.7222184070324
 10
1189.584100796044
 20
-796.4001432852656
 10
1193.681421266063
 20
-799.8059405980875
 10
1199.648994347357
 20
-804.7492070303815
 10
1199.581311160451
 20
-804.8039355989913
 10
1205.764231302437
 20
-789.2747277250637
 10
1208.36660759565
 20
-782.7276232230179
 10
1212.470029878634
 20
-777.3740802742577
 10
1214.91864048509
 20
-777.3740802742577
 10
1217.336366530531
 20
-777.3740802742577
 10
1225.68486703137
 20
-770.9586341212162
 10
1233.485706349951
 20
-763.1152698599599
 10
1241.286639542577
 20
-755.2756136235112
 10
1249.487382295583
 20
-749.5633779463587
 10
1251.757538341277
 20
-750.4277232215863
 10
1253.990801887034
 20
-751.2921154338292
 10
1258.863240351897
 20
-748.6848576902448
 10
1262.523764887555
 20
-744.6348966762544
 10
1266.184289423218
 20
-740.5812745744788
 10
1270.613830140752
 20
-738.1499367924225
 10
1272.336418878233
 20
-739.2302393096379
 10
1274.095900115652
 20
-740.3068807390755
 10
1275.523254979596
 20
-739.4424885268254
 10
1275.523254979596
 20
-737.311406879744
 10
1275.523254979596
 20
-735.1803252326627
 10
1276.987408469433
 20
-733.4337047394984
 10
1278.814666767803
 20
-733.4337047394984
 10
1282.185965368844
 20
-733.4337047394984
 10
1309.427650169098
 20
-715.2098893225157
 10
1337.622813650905
 20
-694.0705337960735
 10
1364.759922764317
 20
-673.7592881632372
 10
1367.688323618037
 20
-679.237120348429
 10
1343.412026045484
 20
-704.854596411029
 10
1325.140194054158
 20
-724.151392169666
 10
1310.196666350974
 20
-750.2043968670096
 10
1311.697806214792
 20
-760.2009970501113
 10
1312.251475335972
 20
-763.8442956983981
 10
1310.744139785142
 20
-769.1277616720945
 10
1308.443286926526
 20
-771.9398995202846
 10
1306.099345880953
 20
-774.752647549778
 10
1305.108786951372
 20
-778.5349736596527
 10
1306.203921567798
 20
-780.3436918340103
 10
1307.342050497127
 20
-782.1524100083589
 10
1304.155214395767
 20
-787.4733786632896
 10
1299.178200244061
 20
-792.1637953536592
 10
1292.619971667609
 20
-798.3042374899942
 10
1291.340374551495
 20
-801.4682621982647
 10
1294.564103152796
 20
-803.4597062024604
 10
1297.750845380117
 20
-805.4191391570857
 10
1296.175920516425
 20
-808.4730965468498
 10
1289.291667379464
 20
-813.9066201824953
 10
1283.908554106325
 20
-818.1288400702397
 10
1280.38959163149
 20
-823.8410757473903
 10
1281.453935560949
 20
-826.6236902082328
 10
1282.555078116296
 20
-829.5164189246043
 10
1278.599319707102
 20
-835.2287015387792
 10
1272.11497000457
 20
-839.989195204218
 10
1263.9511197515
 20
-846.0674927223372
 10
1262.117759640169
 20
-849.1798867055095
 10
1265.452165741275
 20
-851.3767740585827
 10
1268.786665716429
 20
-853.610647785641
 10
1267.064076978944
 20
-856.8694383429865
 10
1259.041694912654
 20
-863.4940358697022
 10
1252.784989770798
 20
-868.6249095822095
 10
1248.49691724004
 20
-875.3983913453158
 10
1249.081377048187
 20
-879.1327478178719
 10
1249.635046169367
 20
-882.793272353525
 10
1246.042204820616
 20
-889.5667541166313
 10
1241.102083168849
 20
-894.217743707828
 10
1236.15576583007
 20
-898.8318407990955
 10
1232.93823291578
 20
-904.8363533173451
 10
1233.959488658291
 20
-907.4756221104944
 10
1234.986846213766
 20
-910.1456346535906
 10
1231.547770551773
 20
-915.1288444923048
 10
1226.26932683952
 20
-918.5678732172819
 10
1219.901850323808
 20
-922.745174374184
 10
1217.410245404451
 20
-926.9163267810945
 10
1218.800613894411
 20
-931.2720355617366
 10
1220.264767384248
 20
-935.9230720899559
 10
1217.114917656863
 20
-940.0634338099062
 10
1207.597591413769
 20
-945.9202824543609
 10
1198.221733357455
 20
-951.709400974898
 10
1195.699337751126
 20
-954.9638733261418
 10
1198.990749539331
 20
-957.0186823111362
 10
1204.958322620623
 20
-960.7161462837594
 10
1197.378932175705
 20
-970.7133566481571
 10
1185.043882578702
 20
-975.4012856763165
 10
1180.245229113712
 20
-977.2284501006379
 10
1176.658489577927
 20
-981.6579908181811
 10
1176.658489577927
 20
-985.7245206012303
 10
1176.658489577927
 20
-989.6803728844698
 10
1170.506360122909
 20
-997.9549945113904
 10
1163.00075467786
 20
-1004.14401646634
 10
1155.49514923282
 20
-1010.333038421299
 10
1151.391726949832
 20
-1015.383931446921
 10
1153.846439369256
 20
-1015.383931446921
 10
1162.194845996049
 20
-1015.383931446921
 10
1158.275980086793
 20
-1020.840876656952
 10
1142.015868893515
 20
-1031.748618327038
 10
1129.970045231124
 20
-1039.807892893257
 10
1126.783209129764
 20
-1043.763745176499
 10
1129.600838609629
 20
-1047.165834464511
 10
1135.789954438626
 20
-1054.634547409622
 10
1131.544970094816
 20
-1059.943781808845
 10
1114.263603159032
 20
-1066.317454011572
 10
1103.054478865426
 20
-1070.457862668538
 10
1097.929706965884
 20
-1074.4444117647
 10
1097.929706965884
 20
-1079.095401355906
 10
1097.929706965884
 20
-1083.346487512677
 10
1092.220569132238
 20
-1088.729600785817
 10
1082.47559832847
 20
-1093.6329238117
 10
1073.764180767186
 20
-1098.025478155248
 10
1066.953712630104
 20
-1104.103822610399
 10
1066.916820130165
 20
-1107.512107585422
 10
1066.843035130296
 20
-1110.846513686529
 10
1061.459921857153
 20
-1118.093777757975
 10
1054.907888967713
 20
-1123.587568530922
 10
1048.355856078269
 20
-1129.081359303869
 10
1040.770269946343
 20
-1136.771614996687
 10
1038.026425466351
 20
-1140.684379092982
 10
1028.76133878389
 20
-1153.868425558747
 10
1062.702626473327
 20
-1133.695550269182
 10
1089.359757591381
 20
-1110.151376378572
 10
1102.80223930479
 20
-1098.320805902835
 10
1115.32175140148
 20
-1088.618923286009
 10
1117.19200401275
 20
-1088.618923286009
 10
1119.062256624024
 20
-1088.618923286009
 10
1125.577397013529
 20
-1086.601006800945
 10
1127.226200751136
 20
-1081.291678527683
 10
1128.831822427748
 20
-1076.09312162827
 10
1136.269744685889
 20
-1073.970723330407
 10
1139.272024413525
 20
-1073.970723330407
 10
1142.237317767178
 20
-1073.970723330407
 10
1152.89286681365
 20
-1073.12782827461
 10
1156.922504096765
 20
-1066.391239011442
 10
1161.019824566782
 20
-1059.580864748405
 10
1170.869371057393
 20
-1059.839206122007
 10
1172.924180042392
 20
-1061.118897112157
 10
1174.972793340381
 20
-1062.361601728331
 10
1182.146178537909
 20
-1062.693821975849
 10
1184.785447331054
 20
-1057.710612137134
 10
1187.350931124332
 20
-1052.881167985175
 10
1196.468353933005
 20
-1052.001474303488
 10
1200.824109650666
 20
-1052.001474303488
 10
1205.179865368333
 20
-1052.001474303488
 10
1211.627228696883
 20
-1050.684890813398
 10
1213.276032434494
 20
-1046.507589656494
 10
1214.740185924331
 20
-1042.847065120832
 10
1221.661331561223
 20
-1041.0137050095
 10
1226.306219339458
 20
-1041.0137050095
 10
1230.994101430593
 20
-1041.0137050095
 10
1235.718969895706
 20
-1039.22343308511
 10
1237.14623088561
 20
-1037.24250297403
 10
1240.554515860636
 20
-1032.486843821942
 10
1244.688728830592
 20
-1033.84031981197
 10
1251.099293533251
 20
-1034.240223246394
 10
1257.466770048966
 20
-1034.683214867766
 10
1266.36884579694
 20
-1033.182075003944
 10
1270.687709014666
 20
-1030.690470084588
 10
1280.758704378943
 20
-1024.901304627037
 10
1281.416949186969
 20
-1027.466741483287
 10
1284.788341662061
 20
-1028.746385536424
 10
1288.159734137145
 20
-1030.026029589553
 10
1292.109390733376
 20
-1029.152437720833
 10
1293.610530597194
 20
-1026.734617801347
 10
1298.261520188396
 20
-1019.192119856369
 10
1344.322510414138
 20
-1017.912475803239
 10
1385.849384235507
 20
-1024.169180945097
 10
1407.234173454273
 20
-1027.392909546395
 10
1437.330380234327
 20
-1030.032178339545
 10
1452.673811371933
 20
-1030.032178339545
 10
1468.823151191353
 20
-1030.032178339545
 10
1480.573740980208
 20
-1031.570163766275
 10
1480.573740980208
 20
-1033.692655938177
 10
1480.573740980208
 20
-1035.704470610279
 10
1477.466885565729
 20
-1037.353180473838
 10
1473.68948784325
 20
-1037.353180473838
 10
1469.8812994338
 20
-1037.353180473838
 10
1453.627383927538
 20
-1043.942105863212
 10
1437.514936608055
 20
-1052.001474303488
 10
1421.40248928857
 20
-1060.060842743755
 10
1406.612821146191
 20
-1066.64967425909
 10
1404.594904661128
 20
-1066.64967425909
 10
1402.576988176064
 20
-1066.64967425909
 10
1398.848780453498
 20
-1069.135083491437
 10
1396.357175534136
 20
-1072.137363219073
 10
1393.86557061478
 20
-1075.139642946711
 10
1389.2884598975
 20
-1077.631153992021
 10
1386.249287669929
 20
-1077.631153992021
 10
1383.173222942418
 20
-1077.631153992021
 10
1378.669803350967
 20
-1080.381194159027
 10
1376.221286618555
 20
-1083.746390947103
 10
1373.545125325469
 20
-1087.370022982825
 10
1366.365544440931
 20
-1089.972399276037
 10
1358.460129435507
 20
-1090.156955649762
 10
1347.583131515372
 20
-1090.409195210401
 10
1345.571410717324
 20
-1091.584216639667
 10
1347.220120580885
 20
-1096.856558538952
 10
1348.899715005466
 20
-1102.202779312152
 10
1346.887900333368
 20
-1103.267123241611
 10
1334.768291671109
 20
-1103.267123241611
 10
1323.196062568964
 20
-1103.267123241611
 10
1320.378433089103
 20
-1104.546720357725
 10
1320.778336523528
 20
-1109.671492257261
 10
1321.184341770919
 20
-1114.870049156676
 10
1318.803508225415
 20
-1115.86051421222
 10
1307.926510305275
 20
-1114.906941656614
 10
1296.871151698428
 20
-1113.95956478802
 10
1294.674780652607
 20
-1114.906941656614
 10
1295.111576586965
 20
-1120.400826303608
 10
1295.585358895307
 20
-1126.07917345028
 10
1293.136748288849
 20
-1126.952859193043
 10
1278.777680393818
 20
-1126.22073551111
 10
1262.63453626141
 20
-1125.414826829292
 10
1264.830813433189
 20
-1125.710060702831
 10
1263.655792003921
 20
-1134.464566451063
 10
1262.63453626141
 20
-1142.333182830589
 10
1258.604898978299
 20
-1140.099919284832
 10
1247.106548750076
 20
-1139.041771042383
 10
1235.534413521984
 20
-1137.977427112923
 10
1234.217830031894
 20
-1135.301265819842
 10
1231.06798030451
 20
-1140.942720466583
 10
1228.13957945079
 20
-1146.141277365998
 10
1224.36828354128
 20
-1146.947279921855
 10
1211.221223449493
 20
-1145.157007997463
 10
1197.378932175705
 20
-1143.249769012215
 10
1195.293332503739
 20
-1143.797336320426
 10
1197.200477614948
 20
-1148.743653659209
 10
1199.027642039269
 20
-1153.50541462426
 10
1196.431461433067
 20
-1154.526670366773
 10
1182.552277659344
 20
-1154.526670366773
 10
1172.991863229299
 20
-1154.526670366773
 10
1165.670814157978
 20
-1156.212366604319
 10
1165.670814157978
 20
-1158.445536276027
 10
1165.670814157978
 20
-1161.084805069178
 10
1158.971117394751
 20
-1161.558587377518
 10
1145.534925242397
 20
-1159.872891139972
 10
1130.775953912938
 20
-1158.008740341673
 10
1125.392840639801
 20
-1158.556307649882
 10
1125.392840639801
 20
-1161.816928751119
 10
1125.392840639801
 20
-1164.819208478755
 10
1120.194283740386
 20
-1165.840464221266
 10
1109.280393320318
 20
-1164.96687235255
 10
1100.384419385307
 20
-1164.265445483528
 10
1093.900069682773
 20
-1164.929885978563
 10
1094.81674973844
 20
-1166.431025842379
 10
1095.770322294044
 20
-1167.932165706201
 10
1106.715003401083
 20
-1169.174870322375
 10
1119.203818684846
 20
-1169.174870322375
 10
1147.946549474871
 20
-1169.174870322375
 10
1203.168050696235
 20
-1176.754354641338
 10
1202.288263140505
 20
-1180.636328050656
 10
1200.276542342453
 20
-1189.316954924971
 10
1222.608802303861
 20
-1194.804643884954
 10
1231.726225112532
 20
-1194.804643884954
 10
1236.377214703733
 20
-1194.804643884954
 10
1242.566236658682
 20
-1197.665361551768
 10
1241.397410916432
 20
-1201.725789521846
 10
1239.053375996818
 20
-1210.074290022683
 10
1247.580237184373
 20
-1210.074290022683
 10
1253.953909387099
 20
-1210.806319830586
 10
1276.876730969625
 20
-1213.445588623728
 10
1276.507618222169
 20
-1219.849957639379
 10
1282.844304050912
 20
-1228.383014513947
 10
1286.141817652086
 20
-1232.886340231358
 10
1291.340374551495
 20
-1236.657636140868
 10
1297.197176258936
 20
-1238.601673752015
 10
1301.700595850387
 20
-1240.102813615829
 10
1304.813553077831
 20
-1244.384690459579
 10
1304.813553077831
 20
-1246.470196257502
 10
1304.813553077831
 20
-1250.27838466695
 10
1322.027142952669
 20
-1267.418283415956
 10
1346.703343959643
 20
-1288.144733952655
 10
1360.582621607413
 20
-1299.784552367659
 10
1363.953920208458
 20
-1307.222474625791
 10
1353.335357535965
 20
-1302.719148908387
 10
1333.045609059576
 20
-1294.112307033942
 10
1317.77605679589
 20
-1290.045777250893
 10
1299.325864117851
 20
-1288.25550532651
 10
1287.932089576472
 20
-1287.11737639718
 10
1274.022115115775
 20
-1283.856755295943
 10
1268.454445468911
 20
-1280.965246942162
 10
1261.791641205613
 20
-1277.526171280162
 10
1257.066866614543
 20
-1276.972502158982
 10
1254.685939194993
 20
-1279.353335704483
 10
1252.305011775445
 20
-1281.734169249994
 10
1247.580237184373
 20
-1281.623491750186
 10
1240.880634295187
 20
-1279.101096143853
 10
1233.522692723933
 20
-1276.277270976978
 10
1229.308405193047
 20
-1276.351149850894
 10
1225.647880657385
 20
-1279.39032207847
 10
1221.802799748
 20
-1282.577064305791
 10
1218.253046586196
 20
-1281.992604497635
 10
1210.562884767429
 20
-1276.831033972205
 10
1204.995215120558
 20
-1273.127421249595
 10
1198.406289731183
 20
-1270.5312406434
 10
1195.914684811825
 20
-1271.041821577634
 10
1193.429181705431
 20
-1271.589388885843
 10
1187.676955684836
 20
-1269.872901961327
 10
1183.099751093509
 20
-1267.307512042102
 10
1178.559532876166
 20
-1264.711331435899
 10
1173.176419603027
 20
-1262.434979703195
 10
1171.164698804976
 20
-1262.25661901648
 10
1164.901797976107
 20
-1261.7029498953
 10
1145.897842302838
 20
-1252.296301152013
 10
1138.207680484067
 20
-1245.922722823332
 10
1129.090257675396
 20
-1238.343238504367
 10
1118.07179156848
 20
-1234.276708721318
 10
1118.07179156848
 20
-1238.454009878222
 10
1118.07179156848
 20
-1240.213491115637
 10
1120.557294674874
 20
-1242.594418535187
 10
1123.63335940238
 20
-1243.763338151492
 10
1126.672437755909
 20
-1244.932163893749
 10
1130.739061413004
 20
-1250.063131480296
 10
1132.676903337135
 20
-1255.114024505925
 10
1134.621034822325
 20
-1260.201810031478
 10
1137.949339110466
 20
-1264.379111188382
 10
1140.114825595276
 20
-1264.379111188382
 10
1142.280312080082
 20
-1264.379111188382
 10
1143.701565131061
 20
-1266.427724486373
 10
1143.295559883674
 20
-1268.956315779709
 10
1142.889554636278
 20
-1271.484907073043
 10
1143.443129883417
 20
-1276.025031416348
 10
1144.54436631281
 20
-1279.027311143984
 10
1153.809546869321
 20
-1304.620192206625
 10
1157.832988465421
 20
-1337.614009153423
 10
1151.717751510338
 20
-1337.614009153423
 10
1150.075143459742
 20
-1337.614009153423
 10
1146.082398676563
 20
-1332.04633950656
 10
1142.821777575329
 20
-1325.272857743454
 10
1137.112639741687
 20
-1313.227034081065
 10
1108.111473704013
 20
-1286.348360215299
 10
1100.858107819604
 20
-1286.348360215299
 10
1098.883279521489
 20
-1286.348360215299
 10
1094.269182430226
 20
-1283.050846614131
 10
1090.608657894569
 20
-1279.027311143984
 10
1086.948133358906
 20
-1275.003775673837
 10
1082.223358767835
 20
-1271.700160259697
 10
1080.094670908922
 20
-1271.700160259697
 10
1077.935286237078
 20
-1271.700160259697
 10
1072.847500711521
 20
-1267.818092976333
 10
1068.743984554487
 20
-1263.062527698292
 10
1064.64666408447
 20
-1258.2638742333
 10
1059.884903119419
 20
-1254.566457197709
 10
1058.162314381934
 20
-1254.818696758339
 10
1056.445921331466
 20
-1255.040145632001
 10
1052.342405174435
 20
-1250.136916480173
 10
1049.007999073325
 20
-1243.911002025285
 10
1045.716587285122
 20
-1237.721886196281
 10
1038.973896208989
 20
-1224.943938851957
 10
1034.033680683175
 20
-1215.531188295699
 10
1023.562781884477
 20
-1195.610552566766
 10
1018.142729174375
 20
-1193.525046768842
 10
1020.671273530694
 20
-1210.369523896223
 10
1021.618697336306
 20
-1216.921556785666
 10
1024.147241692624
 20
-1237.100533888193
 10
1026.26973386453
 20
-1255.224702005733
 10
1033.486207249005
 20
-1317.219684990196
 10
1037.583433844979
 20
-1346.76841833608
 10
1042.966547118122
 20
-1376.058716434321
 10
1049.998464128868
 20
-1414.398754154319
 10
1049.998464128868
 20
-1414.509525528174
 10
1039.343008956441
 20
-1414.509525528174
 10
1034.292115930819
 20
-1414.509525528174
 10
1030.18859977379
 20
-1412.45471654318
 10
1030.15170727385
 20
-1409.932320936847
 97
        0
 97
        0
 92
        1
 93
        1
 72
     4
 94
        3
 73
     0
 74
     1
 95
       14
 96
       10
 40
0.0
 40
0.0
 40
0.0
 40
0.0
 40
1.0
 40
1.0
 40
1.0
 40
2.0
 40
2.0
 40
2.0
 40
3.0
 40
3.0
 40
3.0
 40
3.0
 10
900.0157136628623
 20
-1154.82199811435
 10
901.1538425921926
 20
-1152.988638003018
 10
894.411104579035
 20
-1151.487498139197
 10
884.9430152728783
 20
-1151.487498139197
 10
873.3462381078052
 20
-1151.487498139197
 10
869.488859698441
 20
-1152.551842068657
 10
873.0140178602878
 20
-1154.785011740372
 10
879.8244390603495
 20
-1159.1038749581
 10
897.345701119767
 20
-1159.14076745803
 10
900.0157136628623
 20
-1154.82199811435
 97
        0
 97
        0
 92
        1
 93
        1
 72
     4
 94
        3
 73
     0
 74
     1
 95
       20
 96
       16
 40
0.0
 40
0.0
 40
0.0
 40
0.0
 40
1.0
 40
1.0
 40
1.0
 40
2.0
 40
2.0
 40
2.0
 40
3.0
 40
3.0
 40
3.0
 40
4.0
 40
4.0
 40
4.0
 40
5.0
 40
5.0
 40
5.0
 40
5.0
 10
959.5190917279733
 20
-1123.772124904654
 10
935.3535655292762
 20
-1098.942158210913
 10
928.0632602079049
 20
-1094.002036559148
 10
935.0213452817588
 20
-1107.038419151128
 10
937.2176224535351
 20
-1111.098753247159
 10
940.5151829917295
 20
-1113.516573166648
 10
942.3423474160536
 20
-1112.421532424267
 10
944.175707527389
 20
-1111.283309620892
 10
948.1315128736069
 20
-1115.165376904255
 10
951.1706851011795
 20
-1121.022178611696
 10
954.2098573287503
 20
-1126.878980319128
 10
961.8999722104991
 20
-1136.070282001721
 10
968.2674487262148
 20
-1141.416502774922
 10
988.7724973262748
 20
-1158.667079023737
 10
983.7953893005251
 20
-1148.632882285354
 10
959.5190917279733
 20
-1123.772124904654
 97
        0
 97
        0
 92
        1
 93
        1
 72
     4
 94
        3
 73
     0
 74
     1
 95
       38
 96
       34
 40
0.0
 40
0.0
 40
0.0
 40
0.0
 40
1.0
 40
1.0
 40
1.0
 40
2.0
 40
2.0
 40
2.0
 40
3.0
 40
3.0
 40
3.0
 40
4.0
 40
4.0
 40
4.0
 40
5.0
 40
5.0
 40
5.0
 40
6.0
 40
6.0
 40
6.0
 40
7.0
 40
7.0
 40
7.0
 40
8.0
 40
8.0
 40
8.0
 40
9.0
 40
9.0
 40
9.0
 40
10.0
 40
10.0
 40
10.0
 40
11.0
 40
11.0
 40
11.0
 40
11.0
 10
1038.137196840205
 20
-1090.44608771033
 10
1040.222702638126
 20
-1080.381194159027
 10
1043.446431239425
 20
-1070.568540168346
 10
1045.236703163815
 20
-1068.661395057137
 10
1047.0269750882
 20
-1066.754249945927
 10
1048.49732426505
 20
-1058.479628319008
 10
1048.49732426505
 20
-1050.241899192026
 10
1048.49732426505
 20
-1042.041156439022
 10
1051.062808058326
 20
-1031.644042640191
 10
1054.20655597274
 20
-1027.177609422719
 10
1057.319513200184
 20
-1022.704980518236
 10
1058.568413503372
 20
-1019.081395419536
 10
1056.956502265699
 20
-1019.081395419536
 10
1055.307792402136
 20
-1019.118287919475
 10
1050.398367563292
 20
-1024.685957566338
 10
1046.005719345692
 20
-1031.459486266467
 10
1040.370366511919
 20
-1040.207796327682
 10
1039.195345082651
 20
-1044.895678418818
 10
1041.982277749592
 20
-1047.682611085762
 10
1044.769210416531
 20
-1050.469543752697
 10
1043.224982365762
 20
-1057.199937328856
 10
1036.636056976387
 20
-1071.005336102709
 10
1031.542075763819
 20
-1081.697777649117
 10
1026.26973386453
 20
-1097.847117468533
 10
1024.95315037444
 20
-1106.927647777273
 10
1023.599674384412
 20
-1116.008178086006
 10
1021.655636773266
 20
-1127.506528314225
 10
1020.597441593798
 20
-1132.557421339854
 10
1019.570037101297
 20
-1137.608314365476
 10
1022.209305894448
 20
-1134.31690257727
 10
1026.52812217515
 20
-1125.23637226853
 10
1030.809952081876
 20
-1116.155841959799
 10
1036.045401481222
 20
-1100.517083074606
 10
1038.137196840205
 20
-1090.44608771033
 97
        0
 97
        0
 75
     2
 76
     1
 98
        0
  0
SPLINE
  5
46
330
1F
100
AcDbEntity
  8
katman 1
370
     0
100
AcDbSpline
210
0.0
220
0.0
230
1.0
 70
    11
 71
     3
 72
    17
 73
    13
 74
     0
 42
0.0000000001
 43
0.0000000001
 12
1.0
 22
0.0
 32
0.0
 13
1.0
 23
0.0
 33
0.0
 40
0.0
 40
0.0
 40
0.0
 40
0.0
 40
1.0
 40
1.0
 40
1.0
 40
2.0
 40
2.0
 40
2.0
 40
3.0
 40
3.0
 40
3.0
 40
4.0
 40
4.0
 40
4.0
 40
4.0
 10
1144.240465899133
 20
-1112.385010887818
 30
0.0
 10
1144.240465899133
 20
-1184.201584654516
 30
0.0
 10
1086.021629865536
 20
-1242.420420688113
 30
0.0
 10
1014.205056098845
 20
-1242.420420688113
 30
0.0
 10
942.3884823321487
 20
-1242.420420688113
 30
0.0
 10
884.1696462985519
 20
-1184.201584654516
 30
0.0
 10
884.1696462985519
 20
-1112.385010887818
 30
0.0
 10
884.1696462985519
 20
-1040.568437121125
 30
0.0
 10
942.3884823321487
 20
-982.3496010875278
 30
0.0
 10
1014.205056098845
 20
-982.3496010875278
 30
0.0
 10
1086.021629865536
 20
-982.3496010875278
 30
0.0
 10
1144.240465899133
 20
-1040.568437121125
 30
0.0
 10
1144.240465899133
 20
-1112.385010887818
 30
0.0
  0
HATCH
  5
47
330
1F
100
AcDbEntity
  8
katman 1
 62
    40
420
 16700931
100
AcDbHatch
 10
0.0
 20
0.0
 30
0.0
210
0.0
220
0.0
230
1.0
  2
SOLID
 70
     1
 71
     0
 91
        1
 92
        1
 93
        1
 72
     4
 94
        3
 73
     0
 74
     1
 95
       17
 96
       13
 40
0.0
 40
0.0
 40
0.0
 40
0.0
 40
1.0
 40
1.0
 40
1.0
 40
2.0
 40
2.0
 40
2.0
 40
3.0
 40
3.0
 40
3.0
 40
4.0
 40
4.0
 40
4.0
 40
4.0
 10
1144.240465899133
 20
-1112.385010887818
 10
1144.240465899133
 20
-1184.201584654516
 10
1086.021629865536
 20
-1242.420420688113
 10
1014.205056098845
 20
-1242.420420688113
 10
942.3884823321487
 20
-1242.420420688113
 10
884.1696462985519
 20
-1184.201584654516
 10
884.1696462985519
 20
-1112.385010887818
 10
884.1696462985519
 20
-1040.568437121125
 10
942.3884823321487
 20
-982.3496010875278
 10
1014.205056098845
 20
-982.3496010875278
 10
1086.021629865536
 20
-982.3496010875278
 10
1144.240465899133
 20
-1040.568437121125
 10
1144.240465899133
 20
-1112.385010887818
 97
        0
 97
        0
 75
     2
 76
     1
 98
        0
  0
INSERT
  5
49
330
1F
100
AcDbEntity
  8
katman 1
100
AcDbBlockReference
  2
block 2
 10
0.0
 20
0.0
 30
0.0
  0
ENDSEC
  0
SECTION
  2
OBJECTS
  0
DICTIONARY
  5
C
330
0
100
AcDbDictionary
281
     1
  3
ACAD_GROUP
350
D
  3
ACAD_LAYOUT
350
1A
  3
ACAD_MATERIAL
350
3B
  3
ACAD_MLEADERSTYLE
350
5B
  3
ACAD_MLINESTYLE
350
17
  3
ACAD_PLOTSETTINGS
350
19
  3
ACAD_PLOTSTYLENAME
350
E
  3
ACAD_TABLESTYLE
350
5A
  3
ACAD_VISUALSTYLE
350
2A
  0
SUN
  5
3F
330
29
100
AcDbSun
 90
        1
290
     0
 63
     7
421
 16777215
 40
1.0
291
     1
 91
  2455826
 92
 54000000
292
     0
 70
     2
 71
   256
280
     1
  0
DICTIONARY
  5
D
102
{ACAD_REACTORS
330
C
102
}
330
C
100
AcDbDictionary
281
     1
  0
DICTIONARY
  5
1A
102
{ACAD_REACTORS
330
C
102
}
330
C
100
AcDbDictionary
281
     1
  3
Layout1
350
1E
  3
Layout2
350
26
  3
Model
350
22
  0
DICTIONARY
  5
3B
102
{ACAD_REACTORS
330
C
102
}
330
C
100
AcDbDictionary
281
     1
  3
ByBlock
350
3D
  3
ByLayer
350
3C
  3
Global
350
3E
  0
DICTIONARY
  5
5B
102
{ACAD_REACTORS
330
C
102
}
330
C
100
AcDbDictionary
281
     1
  0
DICTIONARY
  5
17
102
{ACAD_REACTORS
330
C
102
}
330
C
100
AcDbDictionary
281
     1
  3
Standard
350
18
  0
DICTIONARY
  5
19
102
{ACAD_REACTORS
330
C
102
}
330
C
100
AcDbDictionary
281
     1
  0
ACDBDICTIONARYWDFLT
  5
E
102
{ACAD_REACTORS
330
C
102
}
330
C
100
AcDbDictionary
281
     1
  3
Normal
350
F
100
AcDbDictionaryWithDefault
340
F
  0
DICTIONARY
  5
5A
102
{ACAD_REACTORS
330
C
102
}
330
C
100
AcDbDictionary
281
     1
  0
DICTIONARY
  5
2A
102
{ACAD_REACTORS
330
C
102
}
330
C
100
AcDbDictionary
281
     1
  3
2dWireframe
350
2F
  3
3D Hidden
350
31
  3
3dWireframe
350
30
  3
Basic
350
32
  3
Brighten
350
36
  3
ColorChange
350
3A
  3
Conceptual
350
34
  3
Dim
350
35
  3
Facepattern
350
39
  3
Flat
350
2B
  3
FlatWithEdges
350
2C
  3
Gouraud
350
2D
  3
GouraudWithEdges
350
2E
  3
Linepattern
350
38
  3
Realistic
350
33
  3
Thicken
350
37
  0
LAYOUT
  5
1E
102
{ACAD_REACTORS
330
1A
102
}
330
1A
100
AcDbPlotSettings
  1

  2
none_device
  4

  6

 40
0.0
 41
0.0
 42
0.0
 43
0.0
 44
0.0
 45
0.0
 46
0.0
 47
0.0
 48
0.0
 49
0.0
140
0.0
141
0.0
142
1.0
143
1.0
 70
   688
 72
     0
 73
     0
 74
     5
  7

 75
    16
 76
     0
 77
     2
 78
   300
147
1.0
148
0.0
149
0.0
100
AcDbLayout
  1
Layout1
 70
     1
 71
     1
 10
0.0
 20
0.0
 11
12.0
 21
9.0
 12
0.0
 22
0.0
 32
0.0
 14
1.000000000000000E+20
 24
1.000000000000000E+20
 34
1.000000000000000E+20
 15
-1.000000000000000E+20
 25
-1.000000000000000E+20
 35
-1.000000000000000E+20
146
0.0
 13
0.0
 23
0.0
 33
0.0
 16
1.0
 26
0.0
 36
0.0
 17
0.0
 27
1.0
 37
0.0
 76
     0
330
1B
  0
LAYOUT
  5
26
102
{ACAD_REACTORS
330
1A
102
}
330
1A
100
AcDbPlotSettings
  1

  2
none_device
  4

  6

 40
0.0
 41
0.0
 42
0.0
 43
0.0
 44
0.0
 45
0.0
 46
0.0
 47
0.0
 48
0.0
 49
0.0
140
0.0
141
0.0
142
1.0
143
1.0
 70
   688
 72
     0
 73
     0
 74
     5
  7

 75
    16
 76
     0
 77
     2
 78
   300
147
1.0
148
0.0
149
0.0
100
AcDbLayout
  1
Layout2
 70
     1
 71
     2
 10
0.0
 20
0.0
 11
0.0
 21
0.0
 12
0.0
 22
0.0
 32
0.0
 14
0.0
 24
0.0
 34
0.0
 15
0.0
 25
0.0
 35
0.0
146
0.0
 13
0.0
 23
0.0
 33
0.0
 16
1.0
 26
0.0
 36
0.0
 17
0.0
 27
1.0
 37
0.0
 76
     0
330
23
  0
LAYOUT
  5
22
102
{ACAD_REACTORS
330
1A
102
}
330
1A
100
AcDbPlotSettings
  1

  2
none_device
  4

  6

 40
0.0
 41
0.0
 42
0.0
 43
0.0
 44
0.0
 45
0.0
 46
0.0
 47
0.0
 48
0.0
 49
0.0
140
0.0
141
0.0
142
1.0
143
1.0
 70
  1712
 72
     0
 73
     0
 74
     0
  7

 75
     0
 76
     0
 77
     2
 78
   300
147
1.0
148
0.0
149
0.0
100
AcDbLayout
  1
Model
 70
     1
 71
     0
 10
0.0
 20
0.0
 11
12.0
 21
9.0
 12
0.0
 22
0.0
 32
0.0
 14
1.000000000000000E+20
 24
1.000000000000000E+20
 34
1.000000000000000E+20
 15
-1.000000000000000E+20
 25
-1.000000000000000E+20
 35
-1.000000000000000E+20
146
0.0
 13
0.0
 23
0.0
 33
0.0
 16
1.0
 26
0.0
 36
0.0
 17
0.0
 27
1.0
 37
0.0
 76
     0
330
1F
331
29
  0
MATERIAL
  5
3D
102
{ACAD_REACTORS
330
3B
102
}
330
3B
100
AcDbMaterial
  1
ByBlock
 72
     1
 94
      127
  0
MATERIAL
  5
3C
102
{ACAD_REACTORS
330
3B
102
}
330
3B
100
AcDbMaterial
  1
ByLayer
 72
     1
 94
      127
  0
MATERIAL
  5
3E
102
{ACAD_REACTORS
330
3B
102
}
330
3B
100
AcDbMaterial
  1
Global
 72
     1
 94
      127
  0
MLINESTYLE
  5
18
102
{ACAD_REACTORS
330
17
102
}
330
17
100
AcDbMlineStyle
  2
Standard
 70
     0
  3

 62
   256
 51
90.0
 52
90.0
 71
     2
 49
0.5
 62
   256
  6
BYLAYER
 49
-0.5
 62
   256
  6
BYLAYER
  0
ACDBPLACEHOLDER
  5
F
102
{ACAD_REACTORS
330
E
102
}
330
E
  0
VISUALSTYLE
  5
2F
102
{ACAD_REACTORS
330
2A
102
}
330
2A
100
AcDbVisualStyle
  2
2dWireframe
 70
     4
177
     2
291
     0
 71
     0
176
     1
 72
     2
176
     1
 73
     0
176
     1
 90
        0
176
     1
 40
-0.6
176
     1
 41
-30.0
176
     1
 62
     5
 63
     7
421
 16777215
176
     1
 74
     1
176
     1
 91
        4
176
     1
 64
     7
176
     1
 65
   257
176
     1
 75
     1
176
     1
175
     1
176
     1
 42
1.0
176
     1
 92
        0
176
     1
 66
   257
176
     1
 43
1.0
176
     1
 76
     1
176
     1
 77
     6
176
     1
 78
     2
176
     1
 67
     7
176
     1
 79
     5
176
     1
170
     0
176
     1
171
     0
176
     1
290
     0
176
     1
 93
        1
176
     1
 44
0.0
176
     1
173
     0
176
     1
  0
VISUALSTYLE
  5
31
102
{ACAD_REACTORS
330
2A
102
}
330
2A
100
AcDbVisualStyle
  2
3D Hidden
 70
     6
177
     2
291
     0
 71
     1
176
     1
 72
     2
176
     1
 73
     2
176
     1
 90
        0
176
     1
 40
-0.6
176
     1
 41
-30.0
176
     1
 62
     5
 63
     7
421
 16777215
176
     1
 74
     2
176
     1
 91
        2
176
     1
 64
     7
176
     1
 65
   257
176
     1
 75
     2
176
     1
175
     1
176
     1
 42
40.0
176
     1
 92
        0
176
     1
 66
   257
176
     1
 43
1.0
176
     1
 76
     1
176
     1
 77
     6
176
     1
 78
     2
176
     1
 67
     7
176
     1
 79
     3
176
     1
170
     0
176
     1
171
     0
176
     1
290
     0
176
     1
 93
        1
176
     1
 44
0.0
176
     1
173
     0
176
     1
  0
VISUALSTYLE
  5
30
102
{ACAD_REACTORS
330
2A
102
}
330
2A
100
AcDbVisualStyle
  2
3dWireframe
 70
     5
177
     2
291
     0
 71
     0
176
     1
 72
     2
176
     1
 73
     0
176
     1
 90
        0
176
     1
 40
-0.6
176
     1
 41
-30.0
176
     1
 62
     5
 63
     7
421
 16777215
176
     1
 74
     1
176
     1
 91
        4
176
     1
 64
     7
176
     1
 65
   257
176
     1
 75
     1
176
     1
175
     1
176
     1
 42
1.0
176
     1
 92
        0
176
     1
 66
   257
176
     1
 43
1.0
176
     1
 76
     1
176
     1
 77
     6
176
     1
 78
     2
176
     1
 67
     7
176
     1
 79
     5
176
     1
170
     0
176
     1
171
     0
176
     1
290
     0
176
     1
 93
        1
176
     1
 44
0.0
176
     1
173
     0
176
     1
  0
VISUALSTYLE
  5
32
102
{ACAD_REACTORS
330
2A
102
}
330
2A
100
AcDbVisualStyle
  2
Basic
 70
     7
177
     2
291
     1
 71
     1
176
     1
 72
     0
176
     1
 73
     1
176
     1
 90
        0
176
     1
 40
-0.6
176
     1
 41
-30.0
176
     1
 62
     5
 63
     7
421
 16777215
176
     1
 74
     0
176
     1
 91
        4
176
     1
 64
     7
176
     1
 65
   257
176
     1
 75
     1
176
     1
175
     1
176
     1
 42
1.0
176
     1
 92
        8
176
     1
 66
     7
176
     1
 43
1.0
176
     1
 76
     1
176
     1
 77
     6
176
     1
 78
     2
176
     1
 67
     7
176
     1
 79
     5
176
     1
170
     0
176
     1
171
     0
176
     1
290
     0
176
     1
 93
        1
176
     1
 44
0.0
176
     1
173
     0
176
     1
  0
VISUALSTYLE
  5
36
102
{ACAD_REACTORS
330
2A
102
}
330
2A
100
AcDbVisualStyle
  2
Brighten
 70
    12
177
     2
291
     1
 71
     2
176
     1
 72
     2
176
     1
 73
     0
176
     1
 90
        0
176
     1
 40
-0.6
176
     1
 41
-30.0
176
     1
 62
     5
 63
     7
421
 16777215
176
     1
 74
     1
176
     1
 91
        4
176
     1
 64
     7
176
     1
 65
   257
176
     1
 75
     1
176
     1
175
     1
176
     1
 42
1.0
176
     1
 92
        8
176
     1
 66
     7
176
     1
 43
1.0
176
     1
 76
     1
176
     1
 77
     6
176
     1
 78
     2
176
     1
 67
     7
176
     1
 79
     5
176
     1
170
     0
176
     1
171
     0
176
     1
290
     0
176
     1
 93
        1
176
     1
 44
50.0
176
     1
173
     0
176
     1
  0
VISUALSTYLE
  5
3A
102
{ACAD_REACTORS
330
2A
102
}
330
2A
100
AcDbVisualStyle
  2
ColorChange
 70
    16
177
     2
291
     1
 71
     2
176
     1
 72
     2
176
     1
 73
     3
176
     1
 90
        0
176
     1
 40
-0.6
176
     1
 41
-30.0
176
     1
 62
     5
 63
     8
421
  8421504
176
     1
 74
     1
176
     1
 91
        4
176
     1
 64
     7
176
     1
 65
   257
176
     1
 75
     1
176
     1
175
     1
176
     1
 42
1.0
176
     1
 92
        8
176
     1
 66
     8
424
  8421504
176
     1
 43
1.0
176
     1
 76
     1
176
     1
 77
     6
176
     1
 78
     2
176
     1
 67
     7
176
     1
 79
     5
176
     1
170
     0
176
     1
171
     0
176
     1
290
     0
176
     1
 93
        1
176
     1
 44
0.0
176
     1
173
     0
176
     1
  0
VISUALSTYLE
  5
34
102
{ACAD_REACTORS
330
2A
102
}
330
2A
100
AcDbVisualStyle
  2
Conceptual
 70
     9
177
     2
291
     0
 71
     3
176
     1
 72
     2
176
     1
 73
     0
176
     1
 90
        0
176
     1
 40
-0.6
176
     1
 41
-30.0
176
     1
 62
     5
 63
     7
421
 16777215
176
     1
 74
     2
176
     1
 91
        2
176
     1
 64
     7
176
     1
 65
   257
176
     1
 75
     1
176
     1
175
     1
176
     1
 42
40.0
176
     1
 92
        8
176
     1
 66
     7
176
     1
 43
1.0
176
     1
 76
     1
176
     1
 77
     6
176
     1
 78
     2
176
     1
 67
     7
176
     1
 79
     3
176
     1
170
     0
176
     1
171
     0
176
     1
290
     0
176
     1
 93
        1
176
     1
 44
0.0
176
     1
173
     0
176
     1
  0
VISUALSTYLE
  5
35
102
{ACAD_REACTORS
330
2A
102
}
330
2A
100
AcDbVisualStyle
  2
Dim
 70
    11
177
     2
291
     1
 71
     2
176
     1
 72
     2
176
     1
 73
     0
176
     1
 90
        0
176
     1
 40
-0.6
176
     1
 41
-30.0
176
     1
 62
     5
 63
     7
421
 16777215
176
     1
 74
     1
176
     1
 91
        4
176
     1
 64
     7
176
     1
 65
   257
176
     1
 75
     1
176
     1
175
     1
176
     1
 42
1.0
176
     1
 92
        8
176
     1
 66
     7
176
     1
 43
1.0
176
     1
 76
     1
176
     1
 77
     6
176
     1
 78
     2
176
     1
 67
     7
176
     1
 79
     5
176
     1
170
     0
176
     1
171
     0
176
     1
290
     0
176
     1
 93
        1
176
     1
 44
-50.0
176
     1
173
     0
176
     1
  0
VISUALSTYLE
  5
39
102
{ACAD_REACTORS
330
2A
102
}
330
2A
100
AcDbVisualStyle
  2
Facepattern
 70
    15
177
     2
291
     1
 71
     2
176
     1
 72
     2
176
     1
 73
     0
176
     1
 90
        0
176
     1
 40
-0.6
176
     1
 41
-30.0
176
     1
 62
     5
 63
     7
421
 16777215
176
     1
 74
     1
176
     1
 91
        4
176
     1
 64
     7
176
     1
 65
   257
176
     1
 75
     1
176
     1
175
     1
176
     1
 42
1.0
176
     1
 92
        8
176
     1
 66
     7
176
     1
 43
1.0
176
     1
 76
     1
176
     1
 77
     6
176
     1
 78
     2
176
     1
 67
     7
176
     1
 79
     5
176
     1
170
     0
176
     1
171
     0
176
     1
290
     0
176
     1
 93
        1
176
     1
 44
0.0
176
     1
173
     0
176
     1
  0
VISUALSTYLE
  5
2B
102
{ACAD_REACTORS
330
2A
102
}
330
2A
100
AcDbVisualStyle
  2
Flat
 70
     0
177
     2
291
     1
 71
     2
176
     1
 72
     1
176
     1
 73
     1
176
     1
 90
        2
176
     1
 40
-0.6
176
     1
 41
30.0
176
     1
 62
     5
 63
     7
421
 16777215
176
     1
 74
     0
176
     1
 91
        4
176
     1
 64
     7
176
     1
 65
   257
176
     1
 75
     1
176
     1
175
     1
176
     1
 42
1.0
176
     1
 92
        8
176
     1
 66
     7
176
     1
 43
1.0
176
     1
 76
     1
176
     1
 77
     6
176
     1
 78
     2
176
     1
 67
     7
176
     1
 79
     5
176
     1
170
     0
176
     1
171
     0
176
     1
290
     0
176
     1
 93
       13
176
     1
 44
0.0
176
     1
173
     0
176
     1
  0
VISUALSTYLE
  5
2C
102
{ACAD_REACTORS
330
2A
102
}
330
2A
100
AcDbVisualStyle
  2
FlatWithEdges
 70
     1
177
     2
291
     1
 71
     2
176
     1
 72
     1
176
     1
 73
     1
176
     1
 90
        2
176
     1
 40
-0.6
176
     1
 41
30.0
176
     1
 62
     5
 63
     7
421
 16777215
176
     1
 74
     1
176
     1
 91
        4
176
     1
 64
     7
176
     1
 65
   257
176
     1
 75
     1
176
     1
175
     1
176
     1
 42
1.0
176
     1
 92
        0
176
     1
 66
   257
176
     1
 43
1.0
176
     1
 76
     1
176
     1
 77
     6
176
     1
 78
     2
176
     1
 67
     7
176
     1
 79
     5
176
     1
170
     0
176
     1
171
     0
176
     1
290
     0
176
     1
 93
       13
176
     1
 44
0.0
176
     1
173
     0
176
     1
  0
VISUALSTYLE
  5
2D
102
{ACAD_REACTORS
330
2A
102
}
330
2A
100
AcDbVisualStyle
  2
Gouraud
 70
     2
177
     2
291
     1
 71
     2
176
     1
 72
     2
176
     1
 73
     1
176
     1
 90
        2
176
     1
 40
-0.6
176
     1
 41
30.0
176
     1
 62
     5
 63
     7
421
 16777215
176
     1
 74
     0
176
     1
 91
        4
176
     1
 64
     7
176
     1
 65
   257
176
     1
 75
     1
176
     1
175
     1
176
     1
 42
1.0
176
     1
 92
        0
176
     1
 66
     7
176
     1
 43
1.0
176
     1
 76
     1
176
     1
 77
     6
176
     1
 78
     2
176
     1
 67
     7
176
     1
 79
     5
176
     1
170
     0
176
     1
171
     0
176
     1
290
     0
176
     1
 93
       13
176
     1
 44
0.0
176
     1
173
     0
176
     1
  0
VISUALSTYLE
  5
2E
102
{ACAD_REACTORS
330
2A
102
}
330
2A
100
AcDbVisualStyle
  2
GouraudWithEdges
 70
     3
177
     2
291
     1
 71
     2
176
     1
 72
     2
176
     1
 73
     1
176
     1
 90
        2
176
     1
 40
-0.6
176
     1
 41
30.0
176
     1
 62
     5
 63
     7
421
 16777215
176
     1
 74
     1
176
     1
 91
        4
176
     1
 64
     7
176
     1
 65
   257
176
     1
 75
     1
176
     1
175
     1
176
     1
 42
1.0
176
     1
 92
        0
176
     1
 66
   257
176
     1
 43
1.0
176
     1
 76
     1
176
     1
 77
     6
176
     1
 78
     2
176
     1
 67
     7
176
     1
 79
     5
176
     1
170
     0
176
     1
171
     0
176
     1
290
     0
176
     1
 93
       13
176
     1
 44
0.0
176
     1
173
     0
176
     1
  0
VISUALSTYLE
  5
38
102
{ACAD_REACTORS
330
2A
102
}
330
2A
100
AcDbVisualStyle
  2
Linepattern
 70
    14
177
     2
291
     1
 71
     2
176
     1
 72
     2
176
     1
 73
     0
176
     1
 90
        0
176
     1
 40
-0.6
176
     1
 41
-30.0
176
     1
 62
     5
 63
     7
421
 16777215
176
     1
 74
     1
176
     1
 91
        4
176
     1
 64
     7
176
     1
 65
   257
176
     1
 75
     7
176
     1
175
     7
176
     1
 42
1.0
176
     1
 92
        8
176
     1
 66
     7
176
     1
 43
1.0
176
     1
 76
     1
176
     1
 77
     6
176
     1
 78
     2
176
     1
 67
     7
176
     1
 79
     5
176
     1
170
     0
176
     1
171
     0
176
     1
290
     0
176
     1
 93
        1
176
     1
 44
0.0
176
     1
173
     0
176
     1
  0
VISUALSTYLE
  5
33
102
{ACAD_REACTORS
330
2A
102
}
330
2A
100
AcDbVisualStyle
  2
Realistic
 70
     8
177
     2
291
     0
 71
     2
176
     1
 72
     2
176
     1
 73
     0
176
     1
 90
        0
176
     1
 40
-0.6
176
     1
 41
-30.0
176
     1
 62
     5
 63
     7
421
 16777215
176
     1
 74
     1
176
     1
 91
        0
176
     1
 64
     7
176
     1
 65
   257
176
     1
 75
     1
176
     1
175
     1
176
     1
 42
1.0
176
     1
 92
        8
176
     1
 66
     8
424
  7895160
176
     1
 43
1.0
176
     1
 76
     1
176
     1
 77
     6
176
     1
 78
     2
176
     1
 67
     7
176
     1
 79
     5
176
     1
170
     0
176
     1
171
     0
176
     1
290
     0
176
     1
 93
       13
176
     1
 44
0.0
176
     1
173
     0
176
     1
  0
VISUALSTYLE
  5
37
102
{ACAD_REACTORS
330
2A
102
}
330
2A
100
AcDbVisualStyle
  2
Thicken
 70
    13
177
     2
291
     1
 71
     2
176
     1
 72
     2
176
     1
 73
     0
176
     1
 90
        0
176
     1
 40
-0.6
176
     1
 41
-30.0
176
     1
 62
     5
 63
     7
421
 16777215
176
     1
 74
     1
176
     1
 91
        4
176
     1
 64
     7
176
     1
 65
   257
176
     1
 75
     1
176
     1
175
     1
176
     1
 42
1.0
176
     1
 92
       12
176
     1
 66
     7
176
     1
 43
1.0
176
     1
 76
     1
176
     1
 77
     6
176
     1
 78
     2
176
     1
 67
     7
176
     1
 79
     5
176
     1
170
     0
176
     1
171
     0
176
     1
290
     0
176
     1
 93
        1
176
     1
 44
0.0
176
     1
173
     0
176
     1
  0
ENDSEC
  0
EOF
