  0
SECTION
  2
HEADER
  9
$ACADVER
  1
AC1009
  9
$FILLMODE
 70
 0
  9
$SPLFRAME
 70
 1
  9
$EXTMIN
 10
0
 20
0
 30
0.0
  9
$EXTMAX
 10
41.6667
 20
41.6667
 30
0.0
  0
ENDSEC
  0
SECTION
  2
TABLES
  0
TABLE
  2
LAYER
 70
1
  0
LAYER
  2
0
 70
     0
 62
     7
  6
CONTINUOUS
  0
ENDTAB
  0
ENDSEC
  0
SECTION
  2
ENTITIES
  0
POLYLINE
  8
0
 62
     0
 66
     1
 10
0
 20
0
 30
0.0
 70
     1
 40
0
 41
0
  0
VERTEX
  8
0
 10
1.66758
 20
4.39729
 30
0.0
 40
0
 41
0
  0
VERTEX
  8
0
 10
1.66758
 20
2.18365
 30
0.0
 40
0
 41
0
  0
VERTEX
  8
0
 10
9.40679
 20
2.18365
 30
0.0
 40
0
 41
0
  0
VERTEX
  8
0
 10
9.40679
 20
4.39729
 30
0.0
 40
0
 41
0
  0
VERTEX
  8
0
 10
1.66758
 20
4.39729
 30
0.0
 40
0
 41
0
  0
SEQEND
 8
0
  0
POLYLINE
  8
0
 62
     0
 66
     1
 10
0
 20
0
 30
0.0
 70
     1
 40
0
 41
0
  0
VERTEX
  8
0
 10
5.71164
 20
4.18326
 30
0.0
 40
0
 41
0
  0
VERTEX
  8
0
 10
5.71164
 20
4.18317
 30
0.0
 40
0
 41
0
  0
VERTEX
  8
0
 10
5.71397
 20
4.18311
 30
0.0
 40
0
 41
0
  0
VERTEX
  8
0
 10
5.73633
 20
4.17774
 30
0.0
 40
0
 41
0
  0
VERTEX
  8
0
 10
5.73833
 20
4.17671
 30
0.0
 40
0
 41
0
  0
VERTEX
  8
0
 10
5.74013
 20
4.17578
 30
0.0
 40
0
 41
0
  0
VERTEX
  8
0
 10
5.75325
 20
4.1671
 30
0.0
 40
0
 41
0
  0
VERTEX
  8
0
 10
5.75358
 20
4.16661
 30
0.0
 40
0
 41
0
  0
VERTEX
  8
0
 10
5.7539
 20
4.16613
 30
0.0
 40
0
 41
0
  0
VERTEX
  8
0
 10
5.76118
 20
4.16471
 30
0.0
 40
0
 41
0
  0
VERTEX
  8
0
 10
5.77485
 20
4.16499
 30
0.0
 40
0
 41
0
  0
VERTEX
  8
0
 10
5.77838
 20
4.16531
 30
0.0
 40
0
 41
0
  0
VERTEX
  8
0
 10
5.78549
 20
4.16601
 30
0.0
 40
0
 41
0
  0
VERTEX
  8
0
 10
5.81099
 20
4.16211
 30
0.0
 40
0
 41
0
  0
VERTEX
  8
0
 10
5.82975
 20
4.14546
 30
0.0
 40
0
 41
0
  0
VERTEX
  8
0
 10
5.83356
 20
4.13971
 30
0.0
 40
0
 41
0
  0
VERTEX
  8
0
 10
5.83501
 20
4.13743
 30
0.0
 40
0
 41
0
  0
VERTEX
  8
0
 10
5.84353
 20
4.12679
 30
0.0
 40
0
 41
0
  0
VERTEX
  8
0
 10
5.85118
 20
4.11951
 30
0.0
 40
0
 41
0
  0
VERTEX
  8
0
 10
5.85226
 20
4.11893
 30
0.0
 40
0
 41
0
  0
VERTEX
  8
0
 10
5.85476
 20
4.11757
 30
0.0
 40
0
 41
0
  0
VERTEX
  8
0
 10
5.86165
 20
4.1096
 30
0.0
 40
0
 41
0
  0
VERTEX
  8
0
 10
5.87294
 20
4.09256
 30
0.0
 40
0
 41
0
  0
VERTEX
  8
0
 10
5.88363
 20
4.07221
 30
0.0
 40
0
 41
0
  0
VERTEX
  8
0
 10
5.88965
 20
4.05789
 30
0.0
 40
0
 41
0
  0
VERTEX
  8
0
 10
5.89111
 20
4.05296
 30
0.0
 40
0
 41
0
  0
VERTEX
  8
0
 10
5.89182
 20
4.05051
 30
0.0
 40
0
 41
0
  0
VERTEX
  8
0
 10
5.89535
 20
4.03429
 30
0.0
 40
0
 41
0
  0
VERTEX
  8
0
 10
5.89806
 20
4.01714
 30
0.0
 40
0
 41
0
  0
VERTEX
  8
0
 10
5.89839
 20
4.01421
 30
0.0
 40
0
 41
0
  0
VERTEX
  8
0
 10
5.89865
 20
4.01133
 30
0.0
 40
0
 41
0
  0
VERTEX
  8
0
 10
5.90126
 20
3.99571
 30
0.0
 40
0
 41
0
  0
VERTEX
  8
0
 10
5.90462
 20
3.98236
 30
0.0
 40
0
 41
0
  0
VERTEX
  8
0
 10
5.90528
 20
3.98063
 30
0.0
 40
0
 41
0
  0
VERTEX
  8
0
 10
5.90733
 20
3.9751
 30
0.0
 40
0
 41
0
  0
VERTEX
  8
0
 10
5.90967
 20
3.94894
 30
0.0
 40
0
 41
0
  0
VERTEX
  8
0
 10
5.90056
 20
3.91982
 30
0.0
 40
0
 41
0
  0
VERTEX
  8
0
 10
5.89697
 20
3.91282
 30
0.0
 40
0
 41
0
  0
VERTEX
  8
0
 10
5.89513
 20
3.90935
 30
0.0
 40
0
 41
0
  0
VERTEX
  8
0
 10
5.8846
 20
3.89106
 30
0.0
 40
0
 41
0
  0
VERTEX
  8
0
 10
5.87478
 20
3.87614
 30
0.0
 40
0
 41
0
  0
VERTEX
  8
0
 10
5.87337
 20
3.87429
 30
0.0
 40
0
 41
0
  0
VERTEX
  8
0
 10
5.8719
 20
3.8725
 30
0.0
 40
0
 41
0
  0
VERTEX
  8
0
 10
5.866
 20
3.86421
 30
0.0
 40
0
 41
0
  0
VERTEX
  8
0
 10
5.86296
 20
3.85997
 30
0.0
 40
0
 41
0
  0
VERTEX
  8
0
 10
5.86296
 20
3.85851
 30
0.0
 40
0
 41
0
  0
VERTEX
  8
0
 10
5.86296
 20
3.85633
 30
0.0
 40
0
 41
0
  0
VERTEX
  8
0
 10
5.86968
 20
3.84967
 30
0.0
 40
0
 41
0
  0
VERTEX
  8
0
 10
5.88271
 20
3.83535
 30
0.0
 40
0
 41
0
  0
VERTEX
  8
0
 10
5.88585
 20
3.83203
 30
0.0
 40
0
 41
0
  0
VERTEX
  8
0
 10
5.89187
 20
3.82574
 30
0.0
 40
0
 41
0
  0
VERTEX
  8
0
 10
5.92188
 20
3.78293
 30
0.0
 40
0
 41
0
  0
VERTEX
  8
0
 10
5.94949
 20
3.72825
 30
0.0
 40
0
 41
0
  0
VERTEX
  8
0
 10
5.95437
 20
3.71599
 30
0.0
 40
0
 41
0
  0
VERTEX
  8
0
 10
5.95583
 20
3.71229
 30
0.0
 40
0
 41
0
  0
VERTEX
  8
0
 10
5.96001
 20
3.70101
 30
0.0
 40
0
 41
0
  0
VERTEX
  8
0
 10
5.96278
 20
3.6894
 30
0.0
 40
0
 41
0
  0
VERTEX
  8
0
 10
5.96326
 20
3.67643
 30
0.0
 40
0
 41
0
  0
VERTEX
  8
0
 10
5.96257
 20
3.66211
 30
0.0
 40
0
 41
0
  0
VERTEX
  8
0
 10
5.96224
 20
3.65733
 30
0.0
 40
0
 41
0
  0
VERTEX
  8
0
 10
5.96158
 20
3.64854
 30
0.0
 40
0
 41
0
  0
VERTEX
  8
0
 10
5.95318
 20
3.59799
 30
0.0
 40
0
 41
0
  0
VERTEX
  8
0
 10
5.93886
 20
3.54438
 30
0.0
 40
0
 41
0
  0
VERTEX
  8
0
 10
5.93533
 20
3.53401
 30
0.0
 40
0
 41
0
  0
VERTEX
  8
0
 10
5.93414
 20
3.53054
 30
0.0
 40
0
 41
0
  0
VERTEX
  8
0
 10
5.92817
 20
3.509
 30
0.0
 40
0
 41
0
  0
VERTEX
  8
0
 10
5.92361
 20
3.48768
 30
0.0
 40
0
 41
0
  0
VERTEX
  8
0
 10
5.92318
 20
3.48432
 30
0.0
 40
0
 41
0
  0
VERTEX
  8
0
 10
5.91976
 20
3.45979
 30
0.0
 40
0
 41
0
  0
VERTEX
  8
0
 10
5.93278
 20
3.44493
 30
0.0
 40
0
 41
0
  0
VERTEX
  8
0
 10
5.93733
 20
3.43978
 30
0.0
 40
0
 41
0
  0
VERTEX
  8
0
 10
5.95139
 20
3.41064
 30
0.0
 40
0
 41
0
  0
VERTEX
  8
0
 10
5.95247
 20
3.38238
 30
0.0
 40
0
 41
0
  0
VERTEX
  8
0
 10
5.95053
 20
3.37761
 30
0.0
 40
0
 41
0
  0
VERTEX
  8
0
 10
5.94993
 20
3.37625
 30
0.0
 40
0
 41
0
  0
VERTEX
  8
0
 10
5.95156
 20
3.36888
 30
0.0
 40
0
 41
0
  0
VERTEX
  8
0
 10
5.96083
 20
3.35742
 30
0.0
 40
0
 41
0
  0
VERTEX
  8
0
 10
5.96414
 20
3.354
 30
0.0
 40
0
 41
0
  0
VERTEX
  8
0
 10
5.96718
 20
3.35086
 30
0.0
 40
0
 41
0
  0
VERTEX
  8
0
 10
5.97879
 20
3.33556
 30
0.0
 40
0
 41
0
  0
VERTEX
  8
0
 10
5.98742
 20
3.31743
 30
0.0
 40
0
 41
0
  0
VERTEX
  8
0
 10
5.98904
 20
3.31282
 30
0.0
 40
0
 41
0
  0
VERTEX
  8
0
 10
5.99018
 20
3.30951
 30
0.0
 40
0
 41
0
  0
VERTEX
  8
0
 10
5.99501
 20
3.29394
 30
0.0
 40
0
 41
0
  0
VERTEX
  8
0
 10
5.9975
 20
3.28342
 30
0.0
 40
0
 41
0
  0
VERTEX
  8
0
 10
5.99756
 20
3.28261
 30
0.0
 40
0
 41
0
  0
VERTEX
  8
0
 10
5.99756
 20
3.28011
 30
0.0
 40
0
 41
0
  0
VERTEX
  8
0
 10
6.00564
 20
3.25976
 30
0.0
 40
0
 41
0
  0
VERTEX
  8
0
 10
6.02279
 20
3.23199
 30
0.0
 40
0
 41
0
  0
VERTEX
  8
0
 10
6.02735
 20
3.22569
 30
0.0
 40
0
 41
0
  0
VERTEX
  8
0
 10
6.03049
 20
3.2214
 30
0.0
 40
0
 41
0
  0
VERTEX
  8
0
 10
6.04308
 20
3.20008
 30
0.0
 40
0
 41
0
  0
VERTEX
  8
0
 10
6.05311
 20
3.176
 30
0.0
 40
0
 41
0
  0
VERTEX
  8
0
 10
6.05501
 20
3.17025
 30
0.0
 40
0
 41
0
  0
VERTEX
  8
0
 10
6.05637
 20
3.1659
 30
0.0
 40
0
 41
0
  0
VERTEX
  8
0
 10
6.06651
 20
3.13883
 30
0.0
 40
0
 41
0
  0
VERTEX
  8
0
 10
6.0779
 20
3.11182
 30
0.0
 40
0
 41
0
  0
VERTEX
  8
0
 10
6.07997
 20
3.10753
 30
0.0
 40
0
 41
0
  0
VERTEX
  8
0
 10
6.08197
 20
3.10325
 30
0.0
 40
0
 41
0
  0
VERTEX
  8
0
 10
6.09239
 20
3.07785
 30
0.0
 40
0
 41
0
  0
VERTEX
  8
0
 10
6.10081
 20
3.05387
 30
0.0
 40
0
 41
0
  0
VERTEX
  8
0
 10
6.10178
 20
3.05029
 30
0.0
 40
0
 41
0
  0
VERTEX
  8
0
 10
6.10394
 20
3.04226
 30
0.0
 40
0
 41
0
  0
VERTEX
  8
0
 10
6.12517
 20
2.99963
 30
0.0
 40
0
 41
0
  0
VERTEX
  8
0
 10
6.15462
 20
2.96229
 30
0.0
 40
0
 41
0
  0
VERTEX
  8
0
 10
6.16103
 20
2.95688
 30
0.0
 40
0
 41
0
  0
VERTEX
  8
0
 10
6.16347
 20
2.95475
 30
0.0
 40
0
 41
0
  0
VERTEX
  8
0
 10
6.17974
 20
2.93826
 30
0.0
 40
0
 41
0
  0
VERTEX
  8
0
 10
6.19661
 20
2.91872
 30
0.0
 40
0
 41
0
  0
VERTEX
  8
0
 10
6.19943
 20
2.9151
 30
0.0
 40
0
 41
0
  0
VERTEX
  8
0
 10
6.20226
 20
2.91146
 30
0.0
 40
0
 41
0
  0
VERTEX
  8
0
 10
6.22151
 20
2.89046
 30
0.0
 40
0
 41
0
  0
VERTEX
  8
0
 10
6.2424
 20
2.87104
 30
0.0
 40
0
 41
0
  0
VERTEX
  8
0
 10
6.2461
 20
2.86817
 30
0.0
 40
0
 41
0
  0
VERTEX
  8
0
 10
6.24968
 20
2.86535
 30
0.0
 40
0
 41
0
  0
VERTEX
  8
0
 10
6.26779
 20
2.84918
 30
0.0
 40
0
 41
0
  0
VERTEX
  8
0
 10
6.28157
 20
2.83469
 30
0.0
 40
0
 41
0
  0
VERTEX
  8
0
 10
6.28304
 20
2.83263
 30
0.0
 40
0
 41
0
  0
VERTEX
  8
0
 10
6.2845
 20
2.83062
 30
0.0
 40
0
 41
0
  0
VERTEX
  8
0
 10
6.29508
 20
2.81689
 30
0.0
 40
0
 41
0
  0
VERTEX
  8
0
 10
6.30701
 20
2.80236
 30
0.0
 40
0
 41
0
  0
VERTEX
  8
0
 10
6.30919
 20
2.79992
 30
0.0
 40
0
 41
0
  0
VERTEX
  8
0
 10
6.31131
 20
2.79747
 30
0.0
 40
0
 41
0
  0
VERTEX
  8
0
 10
6.32275
 20
2.78136
 30
0.0
 40
0
 41
0
  0
VERTEX
  8
0
 10
6.33251
 20
2.76465
 30
0.0
 40
0
 41
0
  0
VERTEX
  8
0
 10
6.33382
 20
2.76183
 30
0.0
 40
0
 41
0
  0
VERTEX
  8
0
 10
6.33507
 20
2.75906
 30
0.0
 40
0
 41
0
  0
VERTEX
  8
0
 10
6.34283
 20
2.74468
 30
0.0
 40
0
 41
0
  0
VERTEX
  8
0
 10
6.35032
 20
2.73296
 30
0.0
 40
0
 41
0
  0
VERTEX
  8
0
 10
6.35151
 20
2.73156
 30
0.0
 40
0
 41
0
  0
VERTEX
  8
0
 10
6.35699
 20
2.72504
 30
0.0
 40
0
 41
0
  0
VERTEX
  8
0
 10
6.37158
 20
2.70367
 30
0.0
 40
0
 41
0
  0
VERTEX
  8
0
 10
6.39378
 20
2.66667
 30
0.0
 40
0
 41
0
  0
VERTEX
  8
0
 10
6.41525
 20
2.62528
 30
0.0
 40
0
 41
0
  0
VERTEX
  8
0
 10
6.42931
 20
2.59467
 30
0.0
 40
0
 41
0
  0
VERTEX
  8
0
 10
6.43349
 20
2.58425
 30
0.0
 40
0
 41
0
  0
VERTEX
  8
0
 10
6.43435
 20
2.58208
 30
0.0
 40
0
 41
0
  0
VERTEX
  8
0
 10
6.44222
 20
2.56776
 30
0.0
 40
0
 41
0
  0
VERTEX
  8
0
 10
6.45226
 20
2.55306
 30
0.0
 40
0
 41
0
  0
VERTEX
  8
0
 10
6.45426
 20
2.55063
 30
0.0
 40
0
 41
0
  0
VERTEX
  8
0
 10
6.45871
 20
2.54514
 30
0.0
 40
0
 41
0
  0
VERTEX
  8
0
 10
6.47179
 20
2.52268
 30
0.0
 40
0
 41
0
  0
VERTEX
  8
0
 10
6.47342
 20
2.50407
 30
0.0
 40
0
 41
0
  0
VERTEX
  8
0
 10
6.47222
 20
2.50049
 30
0.0
 40
0
 41
0
  0
VERTEX
  8
0
 10
6.47086
 20
2.49664
 30
0.0
 40
0
 41
0
  0
VERTEX
  8
0
 10
6.46832
 20
2.48443
 30
0.0
 40
0
 41
0
  0
VERTEX
  8
0
 10
6.47006
 20
2.47038
 30
0.0
 40
0
 41
0
  0
VERTEX
  8
0
 10
6.47846
 20
2.45535
 30
0.0
 40
0
 41
0
  0
VERTEX
  8
0
 10
6.4904
 20
2.44081
 30
0.0
 40
0
 41
0
  0
VERTEX
  8
0
 10
6.49463
 20
2.43619
 30
0.0
 40
0
 41
0
  0
VERTEX
  8
0
 10
6.49664
 20
2.43403
 30
0.0
 40
0
 41
0
  0
VERTEX
  8
0
 10
6.50467
 20
2.42367
 30
0.0
 40
0
 41
0
  0
VERTEX
  8
0
 10
6.50825
 20
2.41667
 30
0.0
 40
0
 41
0
  0
VERTEX
  8
0
 10
6.50808
 20
2.41607
 30
0.0
 40
0
 41
0
  0
VERTEX
  8
0
 10
6.50786
 20
2.41553
 30
0.0
 40
0
 41
0
  0
VERTEX
  8
0
 10
6.49778
 20
2.40679
 30
0.0
 40
0
 41
0
  0
VERTEX
  8
0
 10
6.49636
 20
2.40593
 30
0.0
 40
0
 41
0
  0
VERTEX
  8
0
 10
6.49317
 20
2.40408
 30
0.0
 40
0
 41
0
  0
VERTEX
  8
0
 10
6.47949
 20
2.40115
 30
0.0
 40
0
 41
0
  0
VERTEX
  8
0
 10
6.45394
 20
2.39828
 30
0.0
 40
0
 41
0
  0
VERTEX
  8
0
 10
6.42865
 20
2.39785
 30
0.0
 40
0
 41
0
  0
VERTEX
  8
0
 10
6.41542
 20
2.39903
 30
0.0
 40
0
 41
0
  0
VERTEX
  8
0
 10
6.41265
 20
2.40044
 30
0.0
 40
0
 41
0
  0
VERTEX
  8
0
 10
6.41168
 20
2.40099
 30
0.0
 40
0
 41
0
  0
VERTEX
  8
0
 10
6.40489
 20
2.40739
 30
0.0
 40
0
 41
0
  0
VERTEX
  8
0
 10
6.39751
 20
2.41683
 30
0.0
 40
0
 41
0
  0
VERTEX
  8
0
 10
6.39626
 20
2.41883
 30
0.0
 40
0
 41
0
  0
VERTEX
  8
0
 10
6.39475
 20
2.42122
 30
0.0
 40
0
 41
0
  0
VERTEX
  8
0
 10
6.38992
 20
2.42817
 30
0.0
 40
0
 41
0
  0
VERTEX
  8
0
 10
6.38351
 20
2.4336
 30
0.0
 40
0
 41
0
  0
VERTEX
  8
0
 10
6.37321
 20
2.43713
 30
0.0
 40
0
 41
0
  0
VERTEX
  8
0
 10
6.35969
 20
2.43994
 30
0.0
 40
0
 41
0
  0
VERTEX
  8
0
 10
6.35519
 20
2.44075
 30
0.0
 40
0
 41
0
  0
VERTEX
  8
0
 10
6.35004
 20
2.44174
 30
0.0
 40
0
 41
0
  0
VERTEX
  8
0
 10
6.33014
 20
2.4496
 30
0.0
 40
0
 41
0
  0
VERTEX
  8
0
 10
6.32047
 20
2.45899
 30
0.0
 40
0
 41
0
  0
VERTEX
  8
0
 10
6.32047
 20
2.46208
 30
0.0
 40
0
 41
0
  0
VERTEX
  8
0
 10
6.32047
 20
2.4655
 30
0.0
 40
0
 41
0
  0
VERTEX
  8
0
 10
6.31424
 20
2.4745
 30
0.0
 40
0
 41
0
  0
VERTEX
  8
0
 10
6.31326
 20
2.47575
 30
0.0
 40
0
 41
0
  0
VERTEX
  8
0
 10
6.31164
 20
2.47786
 30
0.0
 40
0
 41
0
  0
VERTEX
  8
0
 10
6.30778
 20
2.48606
 30
0.0
 40
0
 41
0
  0
VERTEX
  8
0
 10
6.30886
 20
2.49729
 30
0.0
 40
0
 41
0
  0
VERTEX
  8
0
 10
6.30974
 20
2.50088
 30
0.0
 40
0
 41
0
  0
VERTEX
  8
0
 10
6.31108
 20
2.50689
 30
0.0
 40
0
 41
0
  0
VERTEX
  8
0
 10
6.31087
 20
2.52588
 30
0.0
 40
0
 41
0
  0
VERTEX
  8
0
 10
6.30393
 20
2.55063
 30
0.0
 40
0
 41
0
  0
VERTEX
  8
0
 10
6.28976
 20
2.57297
 30
0.0
 40
0
 41
0
  0
VERTEX
  8
0
 10
6.27512
 20
2.58703
 30
0.0
 40
0
 41
0
  0
VERTEX
  8
0
 10
6.26953
 20
2.59056
 30
0.0
 40
0
 41
0
  0
VERTEX
  8
0
 10
6.26774
 20
2.59169
 30
0.0
 40
0
 41
0
  0
VERTEX
  8
0
 10
6.25657
 20
2.60146
 30
0.0
 40
0
 41
0
  0
VERTEX
  8
0
 10
6.25657
 20
2.60465
 30
0.0
 40
0
 41
0
  0
VERTEX
  8
0
 10
6.25657
 20
2.60732
 30
0.0
 40
0
 41
0
  0
VERTEX
  8
0
 10
6.24903
 20
2.61529
 30
0.0
 40
0
 41
0
  0
VERTEX
  8
0
 10
6.23449
 20
2.62939
 30
0.0
 40
0
 41
0
  0
VERTEX
  8
0
 10
6.23096
 20
2.63238
 30
0.0
 40
0
 41
0
  0
VERTEX
  8
0
 10
6.22743
 20
2.63542
 30
0.0
 40
0
 41
0
  0
VERTEX
  8
0
 10
6.21104
 20
2.65039
 30
0.0
 40
0
 41
0
  0
VERTEX
  8
0
 10
6.19997
 20
2.66178
 30
0.0
 40
0
 41
0
  0
VERTEX
  8
0
 10
6.19911
 20
2.66297
 30
0.0
 40
0
 41
0
  0
VERTEX
  8
0
 10
6.19824
 20
2.66422
 30
0.0
 40
0
 41
0
  0
VERTEX
  8
0
 10
6.18782
 20
2.67383
 30
0.0
 40
0
 41
0
  0
VERTEX
  8
0
 10
6.17269
 20
2.68539
 30
0.0
 40
0
 41
0
  0
VERTEX
  8
0
 10
6.16949
 20
2.68756
 30
0.0
 40
0
 41
0
  0
VERTEX
  8
0
 10
6.16624
 20
2.68978
 30
0.0
 40
0
 41
0
  0
VERTEX
  8
0
 10
6.14963
 20
2.70301
 30
0.0
 40
0
 41
0
  0
VERTEX
  8
0
 10
6.13639
 20
2.71582
 30
0.0
 40
0
 41
0
  0
VERTEX
  8
0
 10
6.13488
 20
2.71778
 30
0.0
 40
0
 41
0
  0
VERTEX
  8
0
 10
6.13331
 20
2.71978
 30
0.0
 40
0
 41
0
  0
VERTEX
  8
0
 10
6.1225
 20
2.73188
 30
0.0
 40
0
 41
0
  0
VERTEX
  8
0
 10
6.11062
 20
2.74371
 30
0.0
 40
0
 41
0
  0
VERTEX
  8
0
 10
6.10856
 20
2.7455
 30
0.0
 40
0
 41
0
  0
VERTEX
  8
0
 10
6.10644
 20
2.74735
 30
0.0
 40
0
 41
0
  0
VERTEX
  8
0
 10
6.09386
 20
2.75874
 30
0.0
 40
0
 41
0
  0
VERTEX
  8
0
 10
6.08176
 20
2.76986
 30
0.0
 40
0
 41
0
  0
VERTEX
  8
0
 10
6.07992
 20
2.7716
 30
0.0
 40
0
 41
0
  0
VERTEX
  8
0
 10
6.07807
 20
2.77333
 30
0.0
 40
0
 41
0
  0
VERTEX
  8
0
 10
6.06521
 20
2.78401
 30
0.0
 40
0
 41
0
  0
VERTEX
  8
0
 10
6.05122
 20
2.79449
 30
0.0
 40
0
 41
0
  0
VERTEX
  8
0
 10
6.04883
 20
2.79611
 30
0.0
 40
0
 41
0
  0
VERTEX
  8
0
 10
6.04639
 20
2.79775
 30
0.0
 40
0
 41
0
  0
VERTEX
  8
0
 10
6.03629
 20
2.80583
 30
0.0
 40
0
 41
0
  0
VERTEX
  8
0
 10
6.03114
 20
2.81087
 30
0.0
 40
0
 41
0
  0
VERTEX
  8
0
 10
6.03114
 20
2.8125
 30
0.0
 40
0
 41
0
  0
VERTEX
  8
0
 10
6.03114
 20
2.81401
 30
0.0
 40
0
 41
0
  0
VERTEX
  8
0
 10
6.02756
 20
2.81853
 30
0.0
 40
0
 41
0
  0
VERTEX
  8
0
 10
6.02061
 20
2.82525
 30
0.0
 40
0
 41
0
  0
VERTEX
  8
0
 10
6.01899
 20
2.8265
 30
0.0
 40
0
 41
0
  0
VERTEX
  8
0
 10
6.01731
 20
2.82781
 30
0.0
 40
0
 41
0
  0
VERTEX
  8
0
 10
6.00379
 20
2.8386
 30
0.0
 40
0
 41
0
  0
VERTEX
  8
0
 10
5.98753
 20
2.85194
 30
0.0
 40
0
 41
0
  0
VERTEX
  8
0
 10
5.98449
 20
2.85449
 30
0.0
 40
0
 41
0
  0
VERTEX
  8
0
 10
5.98139
 20
2.85704
 30
0.0
 40
0
 41
0
  0
VERTEX
  8
0
 10
5.96463
 20
2.87028
 30
0.0
 40
0
 41
0
  0
VERTEX
  8
0
 10
5.95019
 20
2.88081
 30
0.0
 40
0
 41
0
  0
VERTEX
  8
0
 10
5.94829
 20
2.882
 30
0.0
 40
0
 41
0
  0
VERTEX
  8
0
 10
5.94635
 20
2.88325
 30
0.0
 40
0
 41
0
  0
VERTEX
  8
0
 10
5.93474
 20
2.89285
 30
0.0
 40
0
 41
0
  0
VERTEX
  8
0
 10
5.9235
 20
2.90419
 30
0.0
 40
0
 41
0
  0
VERTEX
  8
0
 10
5.92182
 20
2.90631
 30
0.0
 40
0
 41
0
  0
VERTEX
  8
0
 10
5.9196
 20
2.90901
 30
0.0
 40
0
 41
0
  0
VERTEX
  8
0
 10
5.90554
 20
2.92165
 30
0.0
 40
0
 41
0
  0
VERTEX
  8
0
 10
5.90088
 20
2.92165
 30
0.0
 40
0
 41
0
  0
VERTEX
  8
0
 10
5.89751
 20
2.92165
 30
0.0
 40
0
 41
0
  0
VERTEX
  8
0
 10
5.88758
 20
2.92383
 30
0.0
 40
0
 41
0
  0
VERTEX
  8
0
 10
5.86838
 20
2.92904
 30
0.0
 40
0
 41
0
  0
VERTEX
  8
0
 10
5.84939
 20
2.93544
 30
0.0
 40
0
 41
0
  0
VERTEX
  8
0
 10
5.83925
 20
2.93956
 30
0.0
 40
0
 41
0
  0
VERTEX
  8
0
 10
5.83686
 20
2.94108
 30
0.0
 40
0
 41
0
  0
VERTEX
  8
0
 10
5.83578
 20
2.94179
 30
0.0
 40
0
 41
0
  0
VERTEX
  8
0
 10
5.82801
 20
2.95031
 30
0.0
 40
0
 41
0
  0
VERTEX
  8
0
 10
5.81901
 20
2.96289
 30
0.0
 40
0
 41
0
  0
VERTEX
  8
0
 10
5.81739
 20
2.96556
 30
0.0
 40
0
 41
0
  0
VERTEX
  8
0
 10
5.81575
 20
2.96826
 30
0.0
 40
0
 41
0
  0
VERTEX
  8
0
 10
5.80306
 20
2.98594
 30
0.0
 40
0
 41
0
  0
VERTEX
  8
0
 10
5.78814
 20
3.00435
 30
0.0
 40
0
 41
0
  0
VERTEX
  8
0
 10
5.78538
 20
3.00738
 30
0.0
 40
0
 41
0
  0
VERTEX
  8
0
 10
5.78261
 20
3.01047
 30
0.0
 40
0
 41
0
  0
VERTEX
  8
0
 10
5.76753
 20
3.02869
 30
0.0
 40
0
 41
0
  0
VERTEX
  8
0
 10
5.75467
 20
3.04617
 30
0.0
 40
0
 41
0
  0
VERTEX
  8
0
 10
5.75299
 20
3.04878
 30
0.0
 40
0
 41
0
  0
VERTEX
  8
0
 10
5.74869
 20
3.05556
 30
0.0
 40
0
 41
0
  0
VERTEX
  8
0
 10
5.73562
 20
3.07563
 30
0.0
 40
0
 41
0
  0
VERTEX
  8
0
 10
5.72424
 20
3.09233
 30
0.0
 40
0
 41
0
  0
VERTEX
  8
0
 10
5.71733
 20
3.10097
 30
0.0
 40
0
 41
0
  0
VERTEX
  8
0
 10
5.71442
 20
3.10335
 30
0.0
 40
0
 41
0
  0
VERTEX
  8
0
 10
5.71349
 20
3.10335
 30
0.0
 40
0
 41
0
  0
VERTEX
  8
0
 10
5.71158
 20
3.10335
 30
0.0
 40
0
 41
0
  0
VERTEX
  8
0
 10
5.70606
 20
3.09868
 30
0.0
 40
0
 41
0
  0
VERTEX
  8
0
 10
5.69596
 20
3.08957
 30
0.0
 40
0
 41
0
  0
VERTEX
  8
0
 10
5.69379
 20
3.08735
 30
0.0
 40
0
 41
0
  0
VERTEX
  8
0
 10
5.68506
 20
3.0785
 30
0.0
 40
0
 41
0
  0
VERTEX
  8
0
 10
5.92469
 20
2.66732
 30
0.0
 40
0
 41
0
  0
VERTEX
  8
0
 10
5.92079
 20
2.66504
 30
0.0
 40
0
 41
0
  0
VERTEX
  8
0
 10
5.92449
 20
2.65864
 30
0.0
 40
0
 41
0
  0
VERTEX
  8
0
 10
5.93554
 20
2.63926
 30
0.0
 40
0
 41
0
  0
VERTEX
  8
0
 10
5.94314
 20
2.62483
 30
0.0
 40
0
 41
0
  0
VERTEX
  8
0
 10
5.94564
 20
2.61811
 30
0.0
 40
0
 41
0
  0
VERTEX
  8
0
 10
5.94536
 20
2.61604
 30
0.0
 40
0
 41
0
  0
VERTEX
  8
0
 10
5.94499
 20
2.61567
 30
0.0
 40
0
 41
0
  0
VERTEX
  8
0
 10
5.94385
 20
2.61469
 30
0.0
 40
0
 41
0
  0
VERTEX
  8
0
 10
5.93024
 20
2.61501
 30
0.0
 40
0
 41
0
  0
VERTEX
  8
0
 10
5.90115
 20
2.61783
 30
0.0
 40
0
 41
0
  0
VERTEX
  8
0
 10
5.87039
 20
2.62261
 30
0.0
 40
0
 41
0
  0
VERTEX
  8
0
 10
5.85406
 20
2.62614
 30
0.0
 40
0
 41
0
  0
VERTEX
  8
0
 10
5.85081
 20
2.62765
 30
0.0
 40
0
 41
0
  0
VERTEX
  8
0
 10
5.84776
 20
2.62907
 30
0.0
 40
0
 41
0
  0
VERTEX
  8
0
 10
5.83996
 20
2.63579
 30
0.0
 40
0
 41
0
  0
VERTEX
  8
0
 10
5.82844
 20
2.64871
 30
0.0
 40
0
 41
0
  0
VERTEX
  8
0
 10
5.81885
 20
2.66319
 30
0.0
 40
0
 41
0
  0
VERTEX
  8
0
 10
5.81429
 20
2.67264
 30
0.0
 40
0
 41
0
  0
VERTEX
  8
0
 10
5.81369
 20
2.67589
 30
0.0
 40
0
 41
0
  0
VERTEX
  8
0
 10
5.8131
 20
2.67882
 30
0.0
 40
0
 41
0
  0
VERTEX
  8
0
 10
5.81831
 20
2.68901
 30
0.0
 40
0
 41
0
  0
VERTEX
  8
0
 10
5.83604
 20
2.69287
 30
0.0
 40
0
 41
0
  0
VERTEX
  8
0
 10
5.84201
 20
2.69287
 30
0.0
 40
0
 41
0
  0
VERTEX
  8
0
 10
5.84636
 20
2.69287
 30
0.0
 40
0
 41
0
  0
VERTEX
  8
0
 10
5.85824
 20
2.69075
 30
0.0
 40
0
 41
0
  0
VERTEX
  8
0
 10
5.85954
 20
2.69026
 30
0.0
 40
0
 41
0
  0
VERTEX
  8
0
 10
5.64199
 20
3.06364
 30
0.0
 40
0
 41
0
  0
VERTEX
  8
0
 10
5.63878
 20
3.06364
 30
0.0
 40
0
 41
0
  0
VERTEX
  8
0
 10
5.63043
 20
3.06347
 30
0.0
 40
0
 41
0
  0
VERTEX
  8
0
 10
5.62918
 20
3.06342
 30
0.0
 40
0
 41
0
  0
VERTEX
  8
0
 10
5.60069
 20
3.06244
 30
0.0
 40
0
 41
0
  0
VERTEX
  8
0
 10
5.57796
 20
3.07872
 30
0.0
 40
0
 41
0
  0
VERTEX
  8
0
 10
5.57032
 20
3.08421
 30
0.0
 40
0
 41
0
  0
VERTEX
  8
0
 10
5.54428
 20
3.1065
 30
0.0
 40
0
 41
0
  0
VERTEX
  8
0
 10
5.53217
 20
3.12446
 30
0.0
 40
0
 41
0
  0
VERTEX
  8
0
 10
5.53153
 20
3.12771
 30
0.0
 40
0
 41
0
  0
VERTEX
  8
0
 10
5.53071
 20
3.13172
 30
0.0
 40
0
 41
0
  0
VERTEX
  8
0
 10
5.52783
 20
3.14361
 30
0.0
 40
0
 41
0
  0
VERTEX
  8
0
 10
5.52339
 20
3.14974
 30
0.0
 40
0
 41
0
  0
VERTEX
  8
0
 10
5.51557
 20
3.14692
 30
0.0
 40
0
 41
0
  0
VERTEX
  8
0
 10
5.5051
 20
3.13872
 30
0.0
 40
0
 41
0
  0
VERTEX
  8
0
 10
5.50174
 20
3.13585
 30
0.0
 40
0
 41
0
  0
VERTEX
  8
0
 10
5.49479
 20
3.13004
 30
0.0
 40
0
 41
0
  0
VERTEX
  8
0
 10
5.47125
 20
3.11253
 30
0.0
 40
0
 41
0
  0
VERTEX
  8
0
 10
5.43012
 20
3.08344
 30
0.0
 40
0
 41
0
  0
VERTEX
  8
0
 10
5.39144
 20
3.05761
 30
0.0
 40
0
 41
0
  0
VERTEX
  8
0
 10
5.3719
 20
3.04557
 30
0.0
 40
0
 41
0
  0
VERTEX
  8
0
 10
5.36822
 20
3.04406
 30
0.0
 40
0
 41
0
  0
VERTEX
  8
0
 10
5.36615
 20
3.04324
 30
0.0
 40
0
 41
0
  0
VERTEX
  8
0
 10
5.35042
 20
3.0306
 30
0.0
 40
0
 41
0
  0
VERTEX
  8
0
 10
5.34972
 20
3.02919
 30
0.0
 40
0
 41
0
  0
VERTEX
  8
0
 10
5.34901
 20
3.02789
 30
0.0
 40
0
 41
0
  0
VERTEX
  8
0
 10
5.33897
 20
3.0179
 30
0.0
 40
0
 41
0
  0
VERTEX
  8
0
 10
5.33806
 20
3.01758
 30
0.0
 40
0
 41
0
  0
VERTEX
  8
0
 10
5.33713
 20
3.01731
 30
0.0
 40
0
 41
0
  0
VERTEX
  8
0
 10
5.33132
 20
3.01292
 30
0.0
 40
0
 41
0
  0
VERTEX
  8
0
 10
5.33132
 20
3.01139
 30
0.0
 40
0
 41
0
  0
VERTEX
  8
0
 10
5.33132
 20
3.009
 30
0.0
 40
0
 41
0
  0
VERTEX
  8
0
 10
5.32622
 20
3.00168
 30
0.0
 40
0
 41
0
  0
VERTEX
  8
0
 10
5.31646
 20
2.98714
 30
0.0
 40
0
 41
0
  0
VERTEX
  8
0
 10
5.31413
 20
2.98389
 30
0.0
 40
0
 41
0
  0
VERTEX
  8
0
 10
5.30875
 20
2.97661
 30
0.0
 40
0
 41
0
  0
VERTEX
  8
0
 10
5.28808
 20
2.94075
 30
0.0
 40
0
 41
0
  0
VERTEX
  8
0
 10
5.27431
 20
2.90321
 30
0.0
 40
0
 41
0
  0
VERTEX
  8
0
 10
5.2724
 20
2.89507
 30
0.0
 40
0
 41
0
  0
VERTEX
  8
0
 10
5.27035
 20
2.88633
 30
0.0
 40
0
 41
0
  0
VERTEX
  8
0
 10
5.26226
 20
2.8604
 30
0.0
 40
0
 41
0
  0
VERTEX
  8
0
 10
5.24875
 20
2.82981
 30
0.0
 40
0
 41
0
  0
VERTEX
  8
0
 10
5.23042
 20
2.80089
 30
0.0
 40
0
 41
0
  0
VERTEX
  8
0
 10
5.21246
 20
2.77832
 30
0.0
 40
0
 41
0
  0
VERTEX
  8
0
 10
5.20606
 20
2.77115
 30
0.0
 40
0
 41
0
  0
VERTEX
  8
0
 10
5.20383
 20
2.76878
 30
0.0
 40
0
 41
0
  0
VERTEX
  8
0
 10
5.19422
 20
2.75603
 30
0.0
 40
0
 41
0
  0
VERTEX
  8
0
 10
5.18847
 20
2.74556
 30
0.0
 40
0
 41
0
  0
VERTEX
  8
0
 10
5.18821
 20
2.74425
 30
0.0
 40
0
 41
0
  0
VERTEX
  8
0
 10
5.18658
 20
2.73665
 30
0.0
 40
0
 41
0
  0
VERTEX
  8
0
 10
5.17979
 20
2.71283
 30
0.0
 40
0
 41
0
  0
VERTEX
  8
0
 10
5.1716
 20
2.70096
 30
0.0
 40
0
 41
0
  0
VERTEX
  8
0
 10
5.16932
 20
2.69933
 30
0.0
 40
0
 41
0
  0
VERTEX
  8
0
 10
5.16781
 20
2.69829
 30
0.0
 40
0
 41
0
  0
VERTEX
  8
0
 10
5.15972
 20
2.68787
 30
0.0
 40
0
 41
0
  0
VERTEX
  8
0
 10
5.15972
 20
2.68435
 30
0.0
 40
0
 41
0
  0
VERTEX
  8
0
 10
5.15972
 20
2.68186
 30
0.0
 40
0
 41
0
  0
VERTEX
  8
0
 10
5.15826
 20
2.67426
 30
0.0
 40
0
 41
0
  0
VERTEX
  8
0
 10
5.1536
 20
2.65875
 30
0.0
 40
0
 41
0
  0
VERTEX
  8
0
 10
5.14524
 20
2.63629
 30
0.0
 40
0
 41
0
  0
VERTEX
  8
0
 10
5.13585
 20
2.61313
 30
0.0
 40
0
 41
0
  0
VERTEX
  8
0
 10
5.13265
 20
2.60542
 30
0.0
 40
0
 41
0
  0
VERTEX
  8
0
 10
5.13037
 20
2.6001
 30
0.0
 40
0
 41
0
  0
VERTEX
  8
0
 10
5.11951
 20
2.57172
 30
0.0
 40
0
 41
0
  0
VERTEX
  8
0
 10
5.11165
 20
2.5479
 30
0.0
 40
0
 41
0
  0
VERTEX
  8
0
 10
5.11094
 20
2.54486
 30
0.0
 40
0
 41
0
  0
VERTEX
  8
0
 10
5.10921
 20
2.53814
 30
0.0
 40
0
 41
0
  0
VERTEX
  8
0
 10
5.10075
 20
2.51753
 30
0.0
 40
0
 41
0
  0
VERTEX
  8
0
 10
5.08746
 20
2.50765
 30
0.0
 40
0
 41
0
  0
VERTEX
  8
0
 10
5.08339
 20
2.50624
 30
0.0
 40
0
 41
0
  0
VERTEX
  8
0
 10
5.08143
 20
2.50564
 30
0.0
 40
0
 41
0
  0
VERTEX
  8
0
 10
5.0759
 20
2.50315
 30
0.0
 40
0
 41
0
  0
VERTEX
  8
0
 10
5.07081
 20
2.4981
 30
0.0
 40
0
 41
0
  0
VERTEX
  8
0
 10
5.06597
 20
2.48817
 30
0.0
 40
0
 41
0
  0
VERTEX
  8
0
 10
5.06114
 20
2.47487
 30
0.0
 40
0
 41
0
  0
VERTEX
  8
0
 10
5.05963
 20
2.47038
 30
0.0
 40
0
 41
0
  0
VERTEX
  8
0
 10
5.05658
 20
2.46169
 30
0.0
 40
0
 41
0
  0
VERTEX
  8
0
 10
5.04085
 20
2.43235
 30
0.0
 40
0
 41
0
  0
VERTEX
  8
0
 10
5.02463
 20
2.42036
 30
0.0
 40
0
 41
0
  0
VERTEX
  8
0
 10
5.01926
 20
2.42036
 30
0.0
 40
0
 41
0
  0
VERTEX
  8
0
 10
5.01394
 20
2.42036
 30
0.0
 40
0
 41
0
  0
VERTEX
  8
0
 10
4.99804
 20
2.42512
 30
0.0
 40
0
 41
0
  0
VERTEX
  8
0
 10
4.96322
 20
2.43608
 30
0.0
 40
0
 41
0
  0
VERTEX
  8
0
 10
4.92914
 20
2.4484
 30
0.0
 40
0
 41
0
  0
VERTEX
  8
0
 10
4.91228
 20
2.45546
 30
0.0
 40
0
 41
0
  0
VERTEX
  8
0
 10
4.91
 20
2.45731
 30
0.0
 40
0
 41
0
  0
VERTEX
  8
0
 10
4.90826
 20
2.45871
 30
0.0
 40
0
 41
0
  0
VERTEX
  8
0
 10
4.90424
 20
2.46431
 30
0.0
 40
0
 41
0
  0
VERTEX
  8
0
 10
4.90565
 20
2.47244
 30
0.0
 40
0
 41
0
  0
VERTEX
  8
0
 10
4.90657
 20
2.47493
 30
0.0
 40
0
 41
0
  0
VERTEX
  8
0
 10
4.90788
 20
2.47857
 30
0.0
 40
0
 41
0
  0
VERTEX
  8
0
 10
4.90956
 20
2.49078
 30
0.0
 40
0
 41
0
  0
VERTEX
  8
0
 10
4.91069
 20
2.51172
 30
0.0
 40
0
 41
0
  0
VERTEX
  8
0
 10
4.90983
 20
2.5306
 30
0.0
 40
0
 41
0
  0
VERTEX
  8
0
 10
4.90831
 20
2.53928
 30
0.0
 40
0
 41
0
  0
VERTEX
  8
0
 10
4.90707
 20
2.54004
 30
0.0
 40
0
 41
0
  0
VERTEX
  8
0
 10
4.90587
 20
2.54081
 30
0.0
 40
0
 41
0
  0
VERTEX
  8
0
 10
4.90543
 20
2.5555
 30
0.0
 40
0
 41
0
  0
VERTEX
  8
0
 10
4.91097
 20
2.57574
 30
0.0
 40
0
 41
0
  0
VERTEX
  8
0
 10
4.91276
 20
2.57915
 30
0.0
 40
0
 41
0
  0
VERTEX
  8
0
 10
4.91374
 20
2.58106
 30
0.0
 40
0
 41
0
  0
VERTEX
  8
0
 10
4.92356
 20
2.59022
 30
0.0
 40
0
 41
0
  0
VERTEX
  8
0
 10
4.94303
 20
2.60107
 30
0.0
 40
0
 41
0
  0
VERTEX
  8
0
 10
4.94883
 20
2.60379
 30
0.0
 40
0
 41
0
  0
VERTEX
  8
0
 10
4.97976
 20
2.61843
 30
0.0
 40
0
 41
0
  0
VERTEX
  8
0
 10
4.96121
 20
2.61893
 30
0.0
 40
0
 41
0
  0
VERTEX
  8
0
 10
4.94276
 20
2.61947
 30
0.0
 40
0
 41
0
  0
VERTEX
  8
0
 10
4.96457
 20
2.6295
 30
0.0
 40
0
 41
0
  0
VERTEX
  8
0
 10
4.9719
 20
2.63292
 30
0.0
 40
0
 41
0
  0
VERTEX
  8
0
 10
4.99283
 20
2.64578
 30
0.0
 40
0
 41
0
  0
VERTEX
  8
0
 10
4.99718
 20
2.65901
 30
0.0
 40
0
 41
0
  0
VERTEX
  8
0
 10
4.99658
 20
2.66271
 30
0.0
 40
0
 41
0
  0
VERTEX
  8
0
 10
4.99593
 20
2.66644
 30
0.0
 40
0
 41
0
  0
VERTEX
  8
0
 10
4.99837
 20
2.6849
 30
0.0
 40
0
 41
0
  0
VERTEX
  8
0
 10
5.00564
 20
2.7206
 30
0.0
 40
0
 41
0
  0
VERTEX
  8
0
 10
5.01531
 20
2.75678
 30
0.0
 40
0
 41
0
  0
VERTEX
  8
0
 10
5.02175
 20
2.7761
 30
0.0
 40
0
 41
0
  0
VERTEX
  8
0
 10
5.02431
 20
2.78043
 30
0.0
 40
0
 41
0
  0
VERTEX
  8
0
 10
5.02522
 20
2.78207
 30
0.0
 40
0
 41
0
  0
VERTEX
  8
0
 10
5.03326
 20
2.80263
 30
0.0
 40
0
 41
0
  0
VERTEX
  8
0
 10
5.04335
 20
2.8329
 30
0.0
 40
0
 41
0
  0
VERTEX
  8
0
 10
5.04531
 20
2.83936
 30
0.0
 40
0
 41
0
  0
VERTEX
  8
0
 10
5.04969
 20
2.854
 30
0.0
 40
0
 41
0
  0
VERTEX
  8
0
 10
5.07753
 20
2.93056
 30
0.0
 40
0
 41
0
  0
VERTEX
  8
0
 10
5.10835
 20
3.00037
 30
0.0
 40
0
 41
0
  0
VERTEX
  8
0
 10
5.11431
 20
3.01161
 30
0.0
 40
0
 41
0
  0
VERTEX
  8
0
 10
5.11681
 20
3.01633
 30
0.0
 40
0
 41
0
  0
VERTEX
  8
0
 10
5.12776
 20
3.03965
 30
0.0
 40
0
 41
0
  0
VERTEX
  8
0
 10
5.13439
 20
3.05701
 30
0.0
 40
0
 41
0
  0
VERTEX
  8
0
 10
5.13471
 20
3.05875
 30
0.0
 40
0
 41
0
  0
VERTEX
  8
0
 10
5.13499
 20
3.06054
 30
0.0
 40
0
 41
0
  0
VERTEX
  8
0
 10
5.13965
 20
3.07215
 30
0.0
 40
0
 41
0
  0
VERTEX
  8
0
 10
5.14681
 20
3.08436
 30
0.0
 40
0
 41
0
  0
VERTEX
  8
0
 10
5.14839
 20
3.08637
 30
0.0
 40
0
 41
0
  0
VERTEX
  8
0
 10
5.1499
 20
3.08843
 30
0.0
 40
0
 41
0
  0
VERTEX
  8
0
 10
5.15636
 20
3.09896
 30
0.0
 40
0
 41
0
  0
VERTEX
  8
0
 10
5.15972
 20
3.10596
 30
0.0
 40
0
 41
0
  0
VERTEX
  8
0
 10
5.15972
 20
3.10824
 30
0.0
 40
0
 41
0
  0
VERTEX
  8
0
 10
5.15972
 20
3.11074
 30
0.0
 40
0
 41
0
  0
VERTEX
  8
0
 10
5.16319
 20
3.11811
 30
0.0
 40
0
 41
0
  0
VERTEX
  8
0
 10
5.16992
 20
3.12956
 30
0.0
 40
0
 41
0
  0
VERTEX
  8
0
 10
5.17156
 20
3.13183
 30
0.0
 40
0
 41
0
  0
VERTEX
  8
0
 10
5.17372
 20
3.13499
 30
0.0
 40
0
 41
0
  0
VERTEX
  8
0
 10
5.18072
 20
3.14779
 30
0.0
 40
0
 41
0
  0
VERTEX
  8
0
 10
5.18332
 20
3.15858
 30
0.0
 40
0
 41
0
  0
VERTEX
  8
0
 10
5.18332
 20
3.16217
 30
0.0
 40
0
 41
0
  0
VERTEX
  8
0
 10
5.18332
 20
3.16775
 30
0.0
 40
0
 41
0
  0
VERTEX
  8
0
 10
5.18619
 20
3.1844
 30
0.0
 40
0
 41
0
  0
VERTEX
  8
0
 10
5.19368
 20
3.21556
 30
0.0
 40
0
 41
0
  0
VERTEX
  8
0
 10
5.20372
 20
3.24837
 30
0.0
 40
0
 41
0
  0
VERTEX
  8
0
 10
5.21132
 20
3.2691
 30
0.0
 40
0
 41
0
  0
VERTEX
  8
0
 10
5.21442
 20
3.27572
 30
0.0
 40
0
 41
0
  0
VERTEX
  8
0
 10
5.21604
 20
3.27929
 30
0.0
 40
0
 41
0
  0
VERTEX
  8
0
 10
5.22743
 20
3.3004
 30
0.0
 40
0
 41
0
  0
VERTEX
  8
0
 10
5.23975
 20
3.32032
 30
0.0
 40
0
 41
0
  0
VERTEX
  8
0
 10
5.24186
 20
3.32324
 30
0.0
 40
0
 41
0
  0
VERTEX
  8
0
 10
5.24397
 20
3.32622
 30
0.0
 40
0
 41
0
  0
VERTEX
  8
0
 10
5.25424
 20
3.34267
 30
0.0
 40
0
 41
0
  0
VERTEX
  8
0
 10
5.2615
 20
3.35693
 30
0.0
 40
0
 41
0
  0
VERTEX
  8
0
 10
5.26221
 20
3.35883
 30
0.0
 40
0
 41
0
  0
VERTEX
  8
0
 10
5.26389
 20
3.36361
 30
0.0
 40
0
 41
0
  0
VERTEX
  8
0
 10
5.2786
 20
3.38906
 30
0.0
 40
0
 41
0
  0
VERTEX
  8
0
 10
5.30117
 20
3.4159
 30
0.0
 40
0
 41
0
  0
VERTEX
  8
0
 10
5.30681
 20
3.42133
 30
0.0
 40
0
 41
0
  0
VERTEX
  8
0
 10
5.32557
 20
3.43972
 30
0.0
 40
0
 41
0
  0
VERTEX
  8
0
 10
5.30533
 20
3.45921
 30
0.0
 40
0
 41
0
  0
VERTEX
  8
0
 10
5.30236
 20
3.46208
 30
0.0
 40
0
 41
0
  0
VERTEX
  8
0
 10
5.28787
 20
3.479
 30
0.0
 40
0
 41
0
  0
VERTEX
  8
0
 10
5.27626
 20
3.49625
 30
0.0
 40
0
 41
0
  0
VERTEX
  8
0
 10
5.27474
 20
3.49929
 30
0.0
 40
0
 41
0
  0
VERTEX
  8
0
 10
5.27306
 20
3.50261
 30
0.0
 40
0
 41
0
  0
VERTEX
  8
0
 10
5.25217
 20
3.52919
 30
0.0
 40
0
 41
0
  0
VERTEX
  8
0
 10
5.24989
 20
3.53093
 30
0.0
 40
0
 41
0
  0
VERTEX
  8
0
 10
5.24371
 20
3.53564
 30
0.0
 40
0
 41
0
  0
VERTEX
  8
0
 10
5.22597
 20
3.55072
 30
0.0
 40
0
 41
0
  0
VERTEX
  8
0
 10
5.21343
 20
3.56592
 30
0.0
 40
0
 41
0
  0
VERTEX
  8
0
 10
5.2105
 20
3.58018
 30
0.0
 40
0
 41
0
  0
VERTEX
  8
0
 10
5.2136
 20
3.59289
 30
0.0
 40
0
 41
0
  0
VERTEX
  8
0
 10
5.21528
 20
3.59685
 30
0.0
 40
0
 41
0
  0
VERTEX
  8
0
 10
5.21604
 20
3.59874
 30
0.0
 40
0
 41
0
  0
VERTEX
  8
0
 10
5.21853
 20
3.61968
 30
0.0
 40
0
 41
0
  0
VERTEX
  8
0
 10
5.21821
 20
3.62169
 30
0.0
 40
0
 41
0
  0
VERTEX
  8
0
 10
5.21615
 20
3.6345
 30
0.0
 40
0
 41
0
  0
VERTEX
  8
0
 10
5.19553
 20
3.63683
 30
0.0
 40
0
 41
0
  0
VERTEX
  8
0
 10
5.19135
 20
3.63732
 30
0.0
 40
0
 41
0
  0
VERTEX
  8
0
 10
5.17899
 20
3.63981
 30
0.0
 40
0
 41
0
  0
VERTEX
  8
0
 10
5.16515
 20
3.64572
 30
0.0
 40
0
 41
0
  0
VERTEX
  8
0
 10
5.15061
 20
3.65663
 30
0.0
 40
0
 41
0
  0
VERTEX
  8
0
 10
5.13661
 20
3.66986
 30
0.0
 40
0
 41
0
  0
VERTEX
  8
0
 10
5.13217
 20
3.67443
 30
0.0
 40
0
 41
0
  0
VERTEX
  8
0
 10
5.12831
 20
3.67839
 30
0.0
 40
0
 41
0
  0
VERTEX
  8
0
 10
5.10042
 20
3.71685
 30
0.0
 40
0
 41
0
  0
VERTEX
  8
0
 10
5.09853
 20
3.72086
 30
0.0
 40
0
 41
0
  0
VERTEX
  8
0
 10
5.0874
 20
3.74442
 30
0.0
 40
0
 41
0
  0
VERTEX
  8
0
 10
5.08762
 20
3.81011
 30
0.0
 40
0
 41
0
  0
VERTEX
  8
0
 10
5.08778
 20
3.87576
 30
0.0
 40
0
 41
0
  0
VERTEX
  8
0
 10
5.09765
 20
3.89388
 30
0.0
 40
0
 41
0
  0
VERTEX
  8
0
 10
5.10021
 20
3.8986
 30
0.0
 40
0
 41
0
  0
VERTEX
  8
0
 10
5.1104
 20
3.9114
 30
0.0
 40
0
 41
0
  0
VERTEX
  8
0
 10
5.12929
 20
3.93028
 30
0.0
 40
0
 41
0
  0
VERTEX
  8
0
 10
5.15126
 20
3.94781
 30
0.0
 40
0
 41
0
  0
VERTEX
  8
0
 10
5.16749
 20
3.95839
 30
0.0
 40
0
 41
0
  0
VERTEX
  8
0
 10
5.17324
 20
3.96121
 30
0.0
 40
0
 41
0
  0
VERTEX
  8
0
 10
5.17779
 20
3.96354
 30
0.0
 40
0
 41
0
  0
VERTEX
  8
0
 10
5.19228
 20
3.96913
 30
0.0
 40
0
 41
0
  0
VERTEX
  8
0
 10
5.22097
 20
3.9784
 30
0.0
 40
0
 41
0
  0
VERTEX
  8
0
 10
5.26025
 20
3.98942
 30
0.0
 40
0
 41
0
  0
VERTEX
  8
0
 10
5.29839
 20
3.99924
 30
0.0
 40
0
 41
0
  0
VERTEX
  8
0
 10
5.31114
 20
4.00239
 30
0.0
 40
0
 41
0
  0
VERTEX
  8
0
 10
5.31793
 20
4.00407
 30
0.0
 40
0
 41
0
  0
VERTEX
  8
0
 10
5.33838
 20
4.00879
 30
0.0
 40
0
 41
0
  0
VERTEX
  8
0
 10
5.36035
 20
4.01215
 30
0.0
 40
0
 41
0
  0
VERTEX
  8
0
 10
5.38753
 20
4.01346
 30
0.0
 40
0
 41
0
  0
VERTEX
  8
0
 10
5.41982
 20
4.01361
 30
0.0
 40
0
 41
0
  0
VERTEX
  8
0
 10
5.43061
 20
4.01361
 30
0.0
 40
0
 41
0
  0
VERTEX
  8
0
 10
5.44108
 20
4.01361
 30
0.0
 40
0
 41
0
  0
VERTEX
  8
0
 10
5.47265
 20
4.0134
 30
0.0
 40
0
 41
0
  0
VERTEX
  8
0
 10
5.49983
 20
4.01221
 30
0.0
 40
0
 41
0
  0
VERTEX
  8
0
 10
5.52121
 20
4.00922
 30
0.0
 40
0
 41
0
  0
VERTEX
  8
0
 10
5.53971
 20
4.00521
 30
0.0
 40
0
 41
0
  0
VERTEX
  8
0
 10
5.5459
 20
4.00375
 30
0.0
 40
0
 41
0
  0
VERTEX
  8
0
 10
5.553
 20
4.00206
 30
0.0
 40
0
 41
0
  0
VERTEX
  8
0
 10
5.57813
 20
3.99718
 30
0.0
 40
0
 41
0
  0
VERTEX
  8
0
 10
5.59011
 20
3.99681
 30
0.0
 40
0
 41
0
  0
VERTEX
  8
0
 10
5.59071
 20
3.9974
 30
0.0
 40
0
 41
0
  0
VERTEX
  8
0
 10
5.59119
 20
3.99789
 30
0.0
 40
0
 41
0
  0
VERTEX
  8
0
 10
5.59462
 20
4.00722
 30
0.0
 40
0
 41
0
  0
VERTEX
  8
0
 10
5.59836
 20
4.02235
 30
0.0
 40
0
 41
0
  0
VERTEX
  8
0
 10
5.59907
 20
4.02576
 30
0.0
 40
0
 41
0
  0
VERTEX
  8
0
 10
5.59972
 20
4.02919
 30
0.0
 40
0
 41
0
  0
VERTEX
  8
0
 10
5.60357
 20
4.0491
 30
0.0
 40
0
 41
0
  0
VERTEX
  8
0
 10
5.60726
 20
4.0676
 30
0.0
 40
0
 41
0
  0
VERTEX
  8
0
 10
5.60781
 20
4.07026
 30
0.0
 40
0
 41
0
  0
VERTEX
  8
0
 10
5.60889
 20
4.07596
 30
0.0
 40
0
 41
0
  0
VERTEX
  8
0
 10
5.61469
 20
4.0925
 30
0.0
 40
0
 41
0
  0
VERTEX
  8
0
 10
5.62646
 20
4.11854
 30
0.0
 40
0
 41
0
  0
VERTEX
  8
0
 10
5.64025
 20
4.14301
 30
0.0
 40
0
 41
0
  0
VERTEX
  8
0
 10
5.64968
 20
4.15674
 30
0.0
 40
0
 41
0
  0
VERTEX
  8
0
 10
5.65349
 20
4.16064
 30
0.0
 40
0
 41
0
  0
VERTEX
  8
0
 10
5.65712
 20
4.16444
 30
0.0
 40
0
 41
0
  0
VERTEX
  8
0
 10
5.68012
 20
4.1779
 30
0.0
 40
0
 41
0
  0
VERTEX
  8
0
 10
5.70632
 20
4.18343
 30
0.0
 40
0
 41
0
  0
VERTEX
  8
0
 10
5.71158
 20
4.18326
 30
0.0
 40
0
 41
0
  0
VERTEX
  8
0
 10
5.71164
 20
4.18326
 30
0.0
 40
0
 41
0
  0
SEQEND
 8
0
  0
POLYLINE
  8
0
 62
     0
 66
     1
 10
0
 20
0
 30
0.0
 70
     1
 40
0
 41
0
  0
VERTEX
  8
0
 10
1.84375
 20
4.13693
 30
0.0
 40
0
 41
0
  0
VERTEX
  8
0
 10
2.29926
 20
4.13693
 30
0.0
 40
0
 41
0
  0
VERTEX
  8
0
 10
2.34006
 20
4.13693
 30
0.0
 40
0
 41
0
  0
VERTEX
  8
0
 10
2.46251
 20
4.12972
 30
0.0
 40
0
 41
0
  0
VERTEX
  8
0
 10
2.56635
 20
4.11285
 30
0.0
 40
0
 41
0
  0
VERTEX
  8
0
 10
2.58285
 20
4.10796
 30
0.0
 40
0
 41
0
  0
VERTEX
  8
0
 10
2.5995
 20
4.10314
 30
0.0
 40
0
 41
0
  0
VERTEX
  8
0
 10
2.67014
 20
4.07254
 30
0.0
 40
0
 41
0
  0
VERTEX
  8
0
 10
2.72396
 20
4.03336
 30
0.0
 40
0
 41
0
  0
VERTEX
  8
0
 10
2.73221
 20
4.02419
 30
0.0
 40
0
 41
0
  0
VERTEX
  8
0
 10
2.74061
 20
4.01508
 30
0.0
 40
0
 41
0
  0
VERTEX
  8
0
 10
2.77431
 20
3.96349
 30
0.0
 40
0
 41
0
  0
VERTEX
  8
0
 10
2.79699
 20
3.90403
 30
0.0
 40
0
 41
0
  0
VERTEX
  8
0
 10
2.79986
 20
3.89094
 30
0.0
 40
0
 41
0
  0
VERTEX
  8
0
 10
2.8029
 20
3.8781
 30
0.0
 40
0
 41
0
  0
VERTEX
  8
0
 10
2.81353
 20
3.79215
 30
0.0
 40
0
 41
0
  0
VERTEX
  8
0
 10
2.81814
 20
3.68582
 30
0.0
 40
0
 41
0
  0
VERTEX
  8
0
 10
2.81814
 20
3.65033
 30
0.0
 40
0
 41
0
  0
VERTEX
  8
0
 10
2.81814
 20
3.49881
 30
0.0
 40
0
 41
0
  0
VERTEX
  8
0
 10
2.81814
 20
3.46283
 30
0.0
 40
0
 41
0
  0
VERTEX
  8
0
 10
2.80951
 20
3.35493
 30
0.0
 40
0
 41
0
  0
VERTEX
  8
0
 10
2.78944
 20
3.26882
 30
0.0
 40
0
 41
0
  0
VERTEX
  8
0
 10
2.78375
 20
3.25608
 30
0.0
 40
0
 41
0
  0
VERTEX
  8
0
 10
2.778
 20
3.24337
 30
0.0
 40
0
 41
0
  0
VERTEX
  8
0
 10
2.73486
 20
3.18864
 30
0.0
 40
0
 41
0
  0
VERTEX
  8
0
 10
2.67236
 20
3.14578
 30
0.0
 40
0
 41
0
  0
VERTEX
  8
0
 10
2.65701
 20
3.13894
 30
0.0
 40
0
 41
0
  0
VERTEX
  8
0
 10
2.64176
 20
3.13217
 30
0.0
 40
0
 41
0
  0
VERTEX
  8
0
 10
2.55143
 20
3.10835
 30
0.0
 40
0
 41
0
  0
VERTEX
  8
0
 10
2.4509
 20
3.09814
 30
0.0
 40
0
 41
0
  0
VERTEX
  8
0
 10
2.41743
 20
3.09814
 30
0.0
 40
0
 41
0
  0
VERTEX
  8
0
 10
2.29606
 20
3.09814
 30
0.0
 40
0
 41
0
  0
VERTEX
  8
0
 10
2.29606
 20
2.39768
 30
0.0
 40
0
 41
0
  0
VERTEX
  8
0
 10
1.84375
 20
2.39768
 30
0.0
 40
0
 41
0
  0
VERTEX
  8
0
 10
1.84375
 20
4.13693
 30
0.0
 40
0
 41
0
  0
SEQEND
 8
0
  0
POLYLINE
  8
0
 62
     0
 66
     1
 10
0
 20
0
 30
0.0
 70
     1
 40
0
 41
0
  0
VERTEX
  8
0
 10
2.94814
 20
4.13693
 30
0.0
 40
0
 41
0
  0
VERTEX
  8
0
 10
3.70226
 20
4.13693
 30
0.0
 40
0
 41
0
  0
VERTEX
  8
0
 10
3.70226
 20
3.7889
 30
0.0
 40
0
 41
0
  0
VERTEX
  8
0
 10
3.40039
 20
3.7889
 30
0.0
 40
0
 41
0
  0
VERTEX
  8
0
 10
3.40039
 20
3.4591
 30
0.0
 40
0
 41
0
  0
VERTEX
  8
0
 10
3.68294
 20
3.4591
 30
0.0
 40
0
 41
0
  0
VERTEX
  8
0
 10
3.68294
 20
3.12819
 30
0.0
 40
0
 41
0
  0
VERTEX
  8
0
 10
3.40039
 20
3.12819
 30
0.0
 40
0
 41
0
  0
VERTEX
  8
0
 10
3.40039
 20
2.74576
 30
0.0
 40
0
 41
0
  0
VERTEX
  8
0
 10
3.73236
 20
2.74576
 30
0.0
 40
0
 41
0
  0
VERTEX
  8
0
 10
3.73236
 20
2.39768
 30
0.0
 40
0
 41
0
  0
VERTEX
  8
0
 10
2.94814
 20
2.39768
 30
0.0
 40
0
 41
0
  0
VERTEX
  8
0
 10
2.94814
 20
4.13693
 30
0.0
 40
0
 41
0
  0
SEQEND
 8
0
  0
POLYLINE
  8
0
 62
     0
 66
     1
 10
0
 20
0
 30
0.0
 70
     1
 40
0
 41
0
  0
VERTEX
  8
0
 10
3.86344
 20
4.13693
 30
0.0
 40
0
 41
0
  0
VERTEX
  8
0
 10
4.2416
 20
4.13693
 30
0.0
 40
0
 41
0
  0
VERTEX
  8
0
 10
4.49511
 20
3.35379
 30
0.0
 40
0
 41
0
  0
VERTEX
  8
0
 10
4.49511
 20
4.13693
 30
0.0
 40
0
 41
0
  0
VERTEX
  8
0
 10
4.87326
 20
4.13693
 30
0.0
 40
0
 41
0
  0
VERTEX
  8
0
 10
4.87326
 20
2.39768
 30
0.0
 40
0
 41
0
  0
VERTEX
  8
0
 10
4.47689
 20
2.39768
 30
0.0
 40
0
 41
0
  0
VERTEX
  8
0
 10
4.2416
 20
3.18838
 30
0.0
 40
0
 41
0
  0
VERTEX
  8
0
 10
4.2416
 20
2.39768
 30
0.0
 40
0
 41
0
  0
VERTEX
  8
0
 10
3.86344
 20
2.39768
 30
0.0
 40
0
 41
0
  0
VERTEX
  8
0
 10
3.86344
 20
4.13693
 30
0.0
 40
0
 41
0
  0
SEQEND
 8
0
  0
POLYLINE
  8
0
 62
     0
 66
     1
 10
0
 20
0
 30
0.0
 70
     1
 40
0
 41
0
  0
VERTEX
  8
0
 10
6.51807
 20
4.13693
 30
0.0
 40
0
 41
0
  0
VERTEX
  8
0
 10
6.97038
 20
4.13693
 30
0.0
 40
0
 41
0
  0
VERTEX
  8
0
 10
6.97038
 20
2.74576
 30
0.0
 40
0
 41
0
  0
VERTEX
  8
0
 10
7.24539
 20
2.74576
 30
0.0
 40
0
 41
0
  0
VERTEX
  8
0
 10
7.24539
 20
2.39768
 30
0.0
 40
0
 41
0
  0
VERTEX
  8
0
 10
6.51807
 20
2.39768
 30
0.0
 40
0
 41
0
  0
VERTEX
  8
0
 10
6.51807
 20
4.13693
 30
0.0
 40
0
 41
0
  0
SEQEND
 8
0
  0
POLYLINE
  8
0
 62
     0
 66
     1
 10
0
 20
0
 30
0.0
 70
     1
 40
0
 41
0
  0
VERTEX
  8
0
 10
7.11968
 20
4.13693
 30
0.0
 40
0
 41
0
  0
VERTEX
  8
0
 10
8.10801
 20
4.13693
 30
0.0
 40
0
 41
0
  0
VERTEX
  8
0
 10
8.10801
 20
3.7889
 30
0.0
 40
0
 41
0
  0
VERTEX
  8
0
 10
7.83946
 20
3.7889
 30
0.0
 40
0
 41
0
  0
VERTEX
  8
0
 10
7.83946
 20
2.39768
 30
0.0
 40
0
 41
0
  0
VERTEX
  8
0
 10
7.38715
 20
2.39768
 30
0.0
 40
0
 41
0
  0
VERTEX
  8
0
 10
7.38715
 20
3.7889
 30
0.0
 40
0
 41
0
  0
VERTEX
  8
0
 10
7.11968
 20
3.7889
 30
0.0
 40
0
 41
0
  0
VERTEX
  8
0
 10
7.11968
 20
4.13693
 30
0.0
 40
0
 41
0
  0
SEQEND
 8
0
  0
POLYLINE
  8
0
 62
     0
 66
     1
 10
0
 20
0
 30
0.0
 70
     1
 40
0
 41
0
  0
VERTEX
  8
0
 10
8.1639
 20
4.13693
 30
0.0
 40
0
 41
0
  0
VERTEX
  8
0
 10
8.57964
 20
4.13693
 30
0.0
 40
0
 41
0
  0
VERTEX
  8
0
 10
8.59082
 20
4.07872
 30
0.0
 40
0
 41
0
  0
VERTEX
  8
0
 10
8.6231
 20
3.90365
 30
0.0
 40
0
 41
0
  0
VERTEX
  8
0
 10
8.65593
 20
3.71181
 30
0.0
 40
0
 41
0
  0
VERTEX
  8
0
 10
8.67796
 20
3.56153
 30
0.0
 40
0
 41
0
  0
VERTEX
  8
0
 10
8.68739
 20
3.47993
 30
0.0
 40
0
 41
0
  0
VERTEX
  8
0
 10
8.68924
 20
3.45264
 30
0.0
 40
0
 41
0
  0
VERTEX
  8
0
 10
8.69547
 20
3.49903
 30
0.0
 40
0
 41
0
  0
VERTEX
  8
0
 10
8.73942
 20
3.76286
 30
0.0
 40
0
 41
0
  0
VERTEX
  8
0
 10
8.80024
 20
4.06928
 30
0.0
 40
0
 41
0
  0
VERTEX
  8
0
 10
8.81494
 20
4.13693
 30
0.0
 40
0
 41
0
  0
VERTEX
  8
0
 10
9.23068
 20
4.13693
 30
0.0
 40
0
 41
0
  0
VERTEX
  8
0
 10
8.90087
 20
3.02724
 30
0.0
 40
0
 41
0
  0
VERTEX
  8
0
 10
8.90087
 20
2.39768
 30
0.0
 40
0
 41
0
  0
VERTEX
  8
0
 10
8.48188
 20
2.39768
 30
0.0
 40
0
 41
0
  0
VERTEX
  8
0
 10
8.48188
 20
3.02724
 30
0.0
 40
0
 41
0
  0
VERTEX
  8
0
 10
8.1639
 20
4.13693
 30
0.0
 40
0
 41
0
  0
SEQEND
 8
0
  0
POLYLINE
  8
0
 62
     0
 66
     1
 10
0
 20
0
 30
0.0
 70
     1
 40
0
 41
0
  0
VERTEX
  8
0
 10
2.29606
 20
3.83936
 30
0.0
 40
0
 41
0
  0
VERTEX
  8
0
 10
2.29606
 20
3.39675
 30
0.0
 40
0
 41
0
  0
VERTEX
  8
0
 10
2.29926
 20
3.3966
 30
0.0
 40
0
 41
0
  0
VERTEX
  8
0
 10
2.32178
 20
3.39572
 30
0.0
 40
0
 41
0
  0
VERTEX
  8
0
 10
2.32932
 20
3.39572
 30
0.0
 40
0
 41
0
  0
VERTEX
  8
0
 10
2.34244
 20
3.39572
 30
0.0
 40
0
 41
0
  0
VERTEX
  8
0
 10
2.38194
 20
3.40326
 30
0.0
 40
0
 41
0
  0
VERTEX
  8
0
 10
2.41129
 20
3.42079
 30
0.0
 40
0
 41
0
  0
VERTEX
  8
0
 10
2.41525
 20
3.42578
 30
0.0
 40
0
 41
0
  0
VERTEX
  8
0
 10
2.41938
 20
3.43099
 30
0.0
 40
0
 41
0
  0
VERTEX
  8
0
 10
2.43381
 20
3.47336
 30
0.0
 40
0
 41
0
  0
VERTEX
  8
0
 10
2.44
 20
3.53358
 30
0.0
 40
0
 41
0
  0
VERTEX
  8
0
 10
2.44
 20
3.55365
 30
0.0
 40
0
 41
0
  0
VERTEX
  8
0
 10
2.44
 20
3.6965
 30
0.0
 40
0
 41
0
  0
VERTEX
  8
0
 10
2.44
 20
3.71496
 30
0.0
 40
0
 41
0
  0
VERTEX
  8
0
 10
2.433
 20
3.77013
 30
0.0
 40
0
 41
0
  0
VERTEX
  8
0
 10
2.41667
 20
3.80811
 30
0.0
 40
0
 41
0
  0
VERTEX
  8
0
 10
2.41206
 20
3.81256
 30
0.0
 40
0
 41
0
  0
VERTEX
  8
0
 10
2.40739
 20
3.81706
 30
0.0
 40
0
 41
0
  0
VERTEX
  8
0
 10
2.36908
 20
3.83268
 30
0.0
 40
0
 41
0
  0
VERTEX
  8
0
 10
2.31429
 20
3.83936
 30
0.0
 40
0
 41
0
  0
VERTEX
  8
0
 10
2.29606
 20
3.83936
 30
0.0
 40
0
 41
0
  0
SEQEND
 8
0
  0
POLYLINE
  8
0
 62
     0
 66
     1
 10
0
 20
0
 30
0.0
 70
     1
 40
0
 41
0
  0
VERTEX
  8
0
 10
5.36133
 20
3.76421
 30
0.0
 40
0
 41
0
  0
VERTEX
  8
0
 10
5.35975
 20
3.76432
 30
0.0
 40
0
 41
0
  0
VERTEX
  8
0
 10
5.34413
 20
3.75896
 30
0.0
 40
0
 41
0
  0
VERTEX
  8
0
 10
5.34185
 20
3.75771
 30
0.0
 40
0
 41
0
  0
VERTEX
  8
0
 10
5.3374
 20
3.75537
 30
0.0
 40
0
 41
0
  0
VERTEX
  8
0
 10
5.31679
 20
3.74989
 30
0.0
 40
0
 41
0
  0
VERTEX
  8
0
 10
5.29639
 20
3.75276
 30
0.0
 40
0
 41
0
  0
VERTEX
  8
0
 10
5.29204
 20
3.75456
 30
0.0
 40
0
 41
0
  0
VERTEX
  8
0
 10
5.29036
 20
3.75526
 30
0.0
 40
0
 41
0
  0
VERTEX
  8
0
 10
5.27854
 20
3.75831
 30
0.0
 40
0
 41
0
  0
VERTEX
  8
0
 10
5.27832
 20
3.75808
 30
0.0
 40
0
 41
0
  0
VERTEX
  8
0
 10
5.27724
 20
3.75706
 30
0.0
 40
0
 41
0
  0
VERTEX
  8
0
 10
5.28011
 20
3.74143
 30
0.0
 40
0
 41
0
  0
VERTEX
  8
0
 10
5.29031
 20
3.72228
 30
0.0
 40
0
 41
0
  0
VERTEX
  8
0
 10
5.29286
 20
3.7194
 30
0.0
 40
0
 41
0
  0
VERTEX
  8
0
 10
5.29443
 20
3.71767
 30
0.0
 40
0
 41
0
  0
VERTEX
  8
0
 10
5.30106
 20
3.70822
 30
0.0
 40
0
 41
0
  0
VERTEX
  8
0
 10
5.30447
 20
3.70156
 30
0.0
 40
0
 41
0
  0
VERTEX
  8
0
 10
5.30447
 20
3.69928
 30
0.0
 40
0
 41
0
  0
VERTEX
  8
0
 10
5.30447
 20
3.69499
 30
0.0
 40
0
 41
0
  0
VERTEX
  8
0
 10
5.30974
 20
3.68201
 30
0.0
 40
0
 41
0
  0
VERTEX
  8
0
 10
5.31657
 20
3.6721
 30
0.0
 40
0
 41
0
  0
VERTEX
  8
0
 10
5.3189
 20
3.6721
 30
0.0
 40
0
 41
0
  0
VERTEX
  8
0
 10
5.32058
 20
3.6721
 30
0.0
 40
0
 41
0
  0
VERTEX
  8
0
 10
5.32568
 20
3.67469
 30
0.0
 40
0
 41
0
  0
VERTEX
  8
0
 10
5.33425
 20
3.67974
 30
0.0
 40
0
 41
0
  0
VERTEX
  8
0
 10
5.33604
 20
3.68093
 30
0.0
 40
0
 41
0
  0
VERTEX
  8
0
 10
5.34907
 20
3.68972
 30
0.0
 40
0
 41
0
  0
VERTEX
  8
0
 10
5.36882
 20
3.66851
 30
0.0
 40
0
 41
0
  0
VERTEX
  8
0
 10
5.37153
 20
3.66564
 30
0.0
 40
0
 41
0
  0
VERTEX
  8
0
 10
5.38276
 20
3.65278
 30
0.0
 40
0
 41
0
  0
VERTEX
  8
0
 10
5.38857
 20
3.64665
 30
0.0
 40
0
 41
0
  0
VERTEX
  8
0
 10
5.38857
 20
3.64458
 30
0.0
 40
0
 41
0
  0
VERTEX
  8
0
 10
5.38857
 20
3.64453
 30
0.0
 40
0
 41
0
  0
VERTEX
  8
0
 10
5.39165
 20
3.64437
 30
0.0
 40
0
 41
0
  0
VERTEX
  8
0
 10
5.40044
 20
3.66064
 30
0.0
 40
0
 41
0
  0
VERTEX
  8
0
 10
5.40315
 20
3.66618
 30
0.0
 40
0
 41
0
  0
VERTEX
  8
0
 10
5.40582
 20
3.67176
 30
0.0
 40
0
 41
0
  0
VERTEX
  8
0
 10
5.4126
 20
3.6894
 30
0.0
 40
0
 41
0
  0
VERTEX
  8
0
 10
5.41276
 20
3.70361
 30
0.0
 40
0
 41
0
  0
VERTEX
  8
0
 10
5.41217
 20
3.70742
 30
0.0
 40
0
 41
0
  0
VERTEX
  8
0
 10
5.41151
 20
3.71115
 30
0.0
 40
0
 41
0
  0
VERTEX
  8
0
 10
5.40483
 20
3.736
 30
0.0
 40
0
 41
0
  0
VERTEX
  8
0
 10
5.39768
 20
3.75493
 30
0.0
 40
0
 41
0
  0
VERTEX
  8
0
 10
5.39686
 20
3.75575
 30
0.0
 40
0
 41
0
  0
VERTEX
  8
0
 10
5.39665
 20
3.75597
 30
0.0
 40
0
 41
0
  0
VERTEX
  8
0
 10
5.39031
 20
3.75797
 30
0.0
 40
0
 41
0
  0
VERTEX
  8
0
 10
5.37907
 20
3.7609
 30
0.0
 40
0
 41
0
  0
VERTEX
  8
0
 10
5.37646
 20
3.7615
 30
0.0
 40
0
 41
0
  0
VERTEX
  8
0
 10
5.37472
 20
3.76193
 30
0.0
 40
0
 41
0
  0
VERTEX
  8
0
 10
5.36225
 20
3.76421
 30
0.0
 40
0
 41
0
  0
VERTEX
  8
0
 10
5.36133
 20
3.76421
 30
0.0
 40
0
 41
0
  0
SEQEND
 8
0
  0
POLYLINE
  8
0
 62
     0
 66
     1
 10
0
 20
0
 30
0.0
 70
     1
 40
0
 41
0
  0
VERTEX
  8
0
 10
4.99349
 20
2.49447
 30
0.0
 40
0
 41
0
  0
VERTEX
  8
0
 10
4.98904
 20
2.49447
 30
0.0
 40
0
 41
0
  0
VERTEX
  8
0
 10
4.97586
 20
2.48633
 30
0.0
 40
0
 41
0
  0
VERTEX
  8
0
 10
4.96463
 20
2.47672
 30
0.0
 40
0
 41
0
  0
VERTEX
  8
0
 10
4.96463
 20
2.47353
 30
0.0
 40
0
 41
0
  0
VERTEX
  8
0
 10
4.96463
 20
2.47319
 30
0.0
 40
0
 41
0
  0
VERTEX
  8
0
 10
4.97917
 20
2.47206
 30
0.0
 40
0
 41
0
  0
VERTEX
  8
0
 10
4.99696
 20
2.47515
 30
0.0
 40
0
 41
0
  0
VERTEX
  8
0
 10
4.99858
 20
2.47613
 30
0.0
 40
0
 41
0
  0
VERTEX
  8
0
 10
4.99897
 20
2.4764
 30
0.0
 40
0
 41
0
  0
VERTEX
  8
0
 10
5.00168
 20
2.48383
 30
0.0
 40
0
 41
0
  0
VERTEX
  8
0
 10
5.00168
 20
2.48628
 30
0.0
 40
0
 41
0
  0
VERTEX
  8
0
 10
5.00168
 20
2.48796
 30
0.0
 40
0
 41
0
  0
VERTEX
  8
0
 10
4.99994
 20
2.49283
 30
0.0
 40
0
 41
0
  0
VERTEX
  8
0
 10
4.99507
 20
2.49447
 30
0.0
 40
0
 41
0
  0
VERTEX
  8
0
 10
4.99349
 20
2.49447
 30
0.0
 40
0
 41
0
  0
SEQEND
 8
0
  0
POLYLINE
  8
0
 62
     0
 66
     1
 10
0
 20
0
 30
0.0
 70
     1
 40
0
 41
0
  0
VERTEX
  8
0
 10
6.43864
 20
2.46625
 30
0.0
 40
0
 41
0
  0
VERTEX
  8
0
 10
6.43712
 20
2.46636
 30
0.0
 40
0
 41
0
  0
VERTEX
  8
0
 10
6.41624
 20
2.45692
 30
0.0
 40
0
 41
0
  0
VERTEX
  8
0
 10
6.4139
 20
2.45486
 30
0.0
 40
0
 41
0
  0
VERTEX
  8
0
 10
6.41276
 20
2.45389
 30
0.0
 40
0
 41
0
  0
VERTEX
  8
0
 10
6.41108
 20
2.44601
 30
0.0
 40
0
 41
0
  0
VERTEX
  8
0
 10
6.41178
 20
2.44515
 30
0.0
 40
0
 41
0
  0
VERTEX
  8
0
 10
6.41319
 20
2.44347
 30
0.0
 40
0
 41
0
  0
VERTEX
  8
0
 10
6.42421
 20
2.44092
 30
0.0
 40
0
 41
0
  0
VERTEX
  8
0
 10
6.43619
 20
2.44596
 30
0.0
 40
0
 41
0
  0
VERTEX
  8
0
 10
6.43815
 20
2.44803
 30
0.0
 40
0
 41
0
  0
VERTEX
  8
0
 10
6.4406
 20
2.45068
 30
0.0
 40
0
 41
0
  0
VERTEX
  8
0
 10
6.44515
 20
2.46115
 30
0.0
 40
0
 41
0
  0
VERTEX
  8
0
 10
6.44032
 20
2.46619
 30
0.0
 40
0
 41
0
  0
VERTEX
  8
0
 10
6.43869
 20
2.46625
 30
0.0
 40
0
 41
0
  0
VERTEX
  8
0
 10
6.43864
 20
2.46625
 30
0.0
 40
0
 41
0
  0
SEQEND
 8
0
  0
POLYLINE
  8
0
 62
     0
 66
     1
 10
0
 20
0
 30
0.0
 70
     1
 40
0
 41
0
  0
VERTEX
  8
0
 10
3.60906
 20
9.99701
 30
0.0
 40
0
 41
0
  0
VERTEX
  8
0
 10
3.60906
 20
9.83138
 30
0.0
 40
0
 41
0
  0
VERTEX
  8
0
 10
3.67626
 20
9.83138
 30
0.0
 40
0
 41
0
  0
VERTEX
  8
0
 10
3.67626
 20
9.2245
 30
0.0
 40
0
 41
0
  0
VERTEX
  8
0
 10
3.60792
 20
9.2245
 30
0.0
 40
0
 41
0
  0
VERTEX
  8
0
 10
3.60792
 20
9.06114
 30
0.0
 40
0
 41
0
  0
VERTEX
  8
0
 10
3.92529
 20
9.06114
 30
0.0
 40
0
 41
0
  0
VERTEX
  8
0
 10
3.92529
 20
9.2245
 30
0.0
 40
0
 41
0
  0
VERTEX
  8
0
 10
3.85926
 20
9.2245
 30
0.0
 40
0
 41
0
  0
VERTEX
  8
0
 10
3.85926
 20
9.8291
 30
0.0
 40
0
 41
0
  0
VERTEX
  8
0
 10
3.92529
 20
9.8291
 30
0.0
 40
0
 41
0
  0
VERTEX
  8
0
 10
3.92529
 20
9.99701
 30
0.0
 40
0
 41
0
  0
VERTEX
  8
0
 10
3.60906
 20
9.99701
 30
0.0
 40
0
 41
0
  0
SEQEND
 8
0
  0
POLYLINE
  8
0
 62
     0
 66
     1
 10
0
 20
0
 30
0.0
 70
     1
 40
0
 41
0
  0
VERTEX
  8
0
 10
3.9776
 20
9.99701
 30
0.0
 40
0
 41
0
  0
VERTEX
  8
0
 10
3.9776
 20
9.80246
 30
0.0
 40
0
 41
0
  0
VERTEX
  8
0
 10
4.04249
 20
9.80246
 30
0.0
 40
0
 41
0
  0
VERTEX
  8
0
 10
3.98226
 20
9.65533
 30
0.0
 40
0
 41
0
  0
VERTEX
  8
0
 10
4.07954
 20
9.65533
 30
0.0
 40
0
 41
0
  0
VERTEX
  8
0
 10
4.15365
 20
9.80126
 30
0.0
 40
0
 41
0
  0
VERTEX
  8
0
 10
4.15365
 20
9.99701
 30
0.0
 40
0
 41
0
  0
VERTEX
  8
0
 10
3.9776
 20
9.99701
 30
0.0
 40
0
 41
0
  0
SEQEND
 8
0
  0
POLYLINE
  8
0
 62
     0
 66
     1
 10
0
 20
0
 30
0.0
 70
     1
 40
0
 41
0
  0
VERTEX
  8
0
 10
6.3335
 20
9.99701
 30
0.0
 40
0
 41
0
  0
VERTEX
  8
0
 10
6.24431
 20
9.90668
 30
0.0
 40
0
 41
0
  0
VERTEX
  8
0
 10
6.24431
 20
9.13644
 30
0.0
 40
0
 41
0
  0
VERTEX
  8
0
 10
6.31961
 20
9.06114
 30
0.0
 40
0
 41
0
  0
VERTEX
  8
0
 10
6.72038
 20
9.06114
 30
0.0
 40
0
 41
0
  0
VERTEX
  8
0
 10
6.80604
 20
9.148
 30
0.0
 40
0
 41
0
  0
VERTEX
  8
0
 10
6.80604
 20
9.91015
 30
0.0
 40
0
 41
0
  0
VERTEX
  8
0
 10
6.71804
 20
9.99701
 30
0.0
 40
0
 41
0
  0
VERTEX
  8
0
 10
6.3335
 20
9.99701
 30
0.0
 40
0
 41
0
  0
SEQEND
 8
0
  0
POLYLINE
  8
0
 62
     0
 66
     1
 10
0
 20
0
 30
0.0
 70
     1
 40
0
 41
0
  0
VERTEX
  8
0
 10
4.22418
 20
9.99588
 30
0.0
 40
0
 41
0
  0
VERTEX
  8
0
 10
4.22418
 20
9.82676
 30
0.0
 40
0
 41
0
  0
VERTEX
  8
0
 10
4.29368
 20
9.82676
 30
0.0
 40
0
 41
0
  0
VERTEX
  8
0
 10
4.29368
 20
9.2245
 30
0.0
 40
0
 41
0
  0
VERTEX
  8
0
 10
4.22651
 20
9.2245
 30
0.0
 40
0
 41
0
  0
VERTEX
  8
0
 10
4.22651
 20
9.06
 30
0.0
 40
0
 41
0
  0
VERTEX
  8
0
 10
4.54383
 20
9.06
 30
0.0
 40
0
 41
0
  0
VERTEX
  8
0
 10
4.54383
 20
9.2245
 30
0.0
 40
0
 41
0
  0
VERTEX
  8
0
 10
4.48475
 20
9.2245
 30
0.0
 40
0
 41
0
  0
VERTEX
  8
0
 10
4.48475
 20
9.56847
 30
0.0
 40
0
 41
0
  0
VERTEX
  8
0
 10
4.62722
 20
9.06
 30
0.0
 40
0
 41
0
  0
VERTEX
  8
0
 10
4.75
 20
9.06
 30
0.0
 40
0
 41
0
  0
VERTEX
  8
0
 10
4.89481
 20
9.56847
 30
0.0
 40
0
 41
0
  0
VERTEX
  8
0
 10
4.89481
 20
9.2245
 30
0.0
 40
0
 41
0
  0
VERTEX
  8
0
 10
4.84614
 20
9.2245
 30
0.0
 40
0
 41
0
  0
VERTEX
  8
0
 10
4.84614
 20
9.06
 30
0.0
 40
0
 41
0
  0
VERTEX
  8
0
 10
5.14035
 20
9.06
 30
0.0
 40
0
 41
0
  0
VERTEX
  8
0
 10
5.14035
 20
9.2245
 30
0.0
 40
0
 41
0
  0
VERTEX
  8
0
 10
5.08475
 20
9.2245
 30
0.0
 40
0
 41
0
  0
VERTEX
  8
0
 10
5.08475
 20
9.82676
 30
0.0
 40
0
 41
0
  0
VERTEX
  8
0
 10
5.14035
 20
9.82676
 30
0.0
 40
0
 41
0
  0
VERTEX
  8
0
 10
5.14035
 20
9.99588
 30
0.0
 40
0
 41
0
  0
VERTEX
  8
0
 10
4.81489
 20
9.99588
 30
0.0
 40
0
 41
0
  0
VERTEX
  8
0
 10
4.69558
 20
9.36464
 30
0.0
 40
0
 41
0
  0
VERTEX
  8
0
 10
4.56586
 20
9.99588
 30
0.0
 40
0
 41
0
  0
VERTEX
  8
0
 10
4.22418
 20
9.99588
 30
0.0
 40
0
 41
0
  0
SEQEND
 8
0
  0
POLYLINE
  8
0
 62
     0
 66
     1
 10
0
 20
0
 30
0.0
 70
     1
 40
0
 41
0
  0
VERTEX
  8
0
 10
5.55208
 20
9.99588
 30
0.0
 40
0
 41
0
  0
VERTEX
  8
0
 10
5.55208
 20
9.83257
 30
0.0
 40
0
 41
0
  0
VERTEX
  8
0
 10
5.62392
 20
9.83257
 30
0.0
 40
0
 41
0
  0
VERTEX
  8
0
 10
5.62392
 20
9.22911
 30
0.0
 40
0
 41
0
  0
VERTEX
  8
0
 10
5.55442
 20
9.22911
 30
0.0
 40
0
 41
0
  0
VERTEX
  8
0
 10
5.55442
 20
9.06
 30
0.0
 40
0
 41
0
  0
VERTEX
  8
0
 10
5.86133
 20
9.06
 30
0.0
 40
0
 41
0
  0
VERTEX
  8
0
 10
5.86133
 20
9.22678
 30
0.0
 40
0
 41
0
  0
VERTEX
  8
0
 10
5.80458
 20
9.22678
 30
0.0
 40
0
 41
0
  0
VERTEX
  8
0
 10
5.80458
 20
9.53722
 30
0.0
 40
0
 41
0
  0
VERTEX
  8
0
 10
5.95979
 20
9.06
 30
0.0
 40
0
 41
0
  0
VERTEX
  8
0
 10
6.21229
 20
9.06
 30
0.0
 40
0
 41
0
  0
VERTEX
  8
0
 10
6.21229
 20
9.22911
 30
0.0
 40
0
 41
0
  0
VERTEX
  8
0
 10
6.14626
 20
9.22911
 30
0.0
 40
0
 41
0
  0
VERTEX
  8
0
 10
6.14626
 20
9.83257
 30
0.0
 40
0
 41
0
  0
VERTEX
  8
0
 10
6.21229
 20
9.83257
 30
0.0
 40
0
 41
0
  0
VERTEX
  8
0
 10
6.21229
 20
9.99588
 30
0.0
 40
0
 41
0
  0
VERTEX
  8
0
 10
5.89258
 20
9.99588
 30
0.0
 40
0
 41
0
  0
VERTEX
  8
0
 10
5.89258
 20
9.83599
 30
0.0
 40
0
 41
0
  0
VERTEX
  8
0
 10
5.95861
 20
9.83599
 30
0.0
 40
0
 41
0
  0
VERTEX
  8
0
 10
5.95861
 20
9.59625
 30
0.0
 40
0
 41
0
  0
VERTEX
  8
0
 10
5.82308
 20
9.99588
 30
0.0
 40
0
 41
0
  0
VERTEX
  8
0
 10
5.55208
 20
9.99588
 30
0.0
 40
0
 41
0
  0
SEQEND
 8
0
  0
POLYLINE
  8
0
 62
     0
 66
     1
 10
0
 20
0
 30
0.0
 70
     1
 40
0
 41
0
  0
VERTEX
  8
0
 10
6.86187
 20
9.9924
 30
0.0
 40
0
 41
0
  0
VERTEX
  8
0
 10
6.86187
 20
9.71789
 30
0.0
 40
0
 41
0
  0
VERTEX
  8
0
 10
7.01243
 20
9.71789
 30
0.0
 40
0
 41
0
  0
VERTEX
  8
0
 10
7.01243
 20
9.83024
 30
0.0
 40
0
 41
0
  0
VERTEX
  8
0
 10
7.0715
 20
9.83024
 30
0.0
 40
0
 41
0
  0
VERTEX
  8
0
 10
7.0715
 20
9.2245
 30
0.0
 40
0
 41
0
  0
VERTEX
  8
0
 10
7.01014
 20
9.2245
 30
0.0
 40
0
 41
0
  0
VERTEX
  8
0
 10
7.01014
 20
9.06114
 30
0.0
 40
0
 41
0
  0
VERTEX
  8
0
 10
7.32172
 20
9.06114
 30
0.0
 40
0
 41
0
  0
VERTEX
  8
0
 10
7.32172
 20
9.2245
 30
0.0
 40
0
 41
0
  0
VERTEX
  8
0
 10
7.25683
 20
9.2245
 30
0.0
 40
0
 41
0
  0
VERTEX
  8
0
 10
7.25683
 20
9.83024
 30
0.0
 40
0
 41
0
  0
VERTEX
  8
0
 10
7.31592
 20
9.83024
 30
0.0
 40
0
 41
0
  0
VERTEX
  8
0
 10
7.31592
 20
9.71789
 30
0.0
 40
0
 41
0
  0
VERTEX
  8
0
 10
7.46647
 20
9.71789
 30
0.0
 40
0
 41
0
  0
VERTEX
  8
0
 10
7.46647
 20
9.9924
 30
0.0
 40
0
 41
0
  0
VERTEX
  8
0
 10
6.86187
 20
9.9924
 30
0.0
 40
0
 41
0
  0
SEQEND
 8
0
  0
POLYLINE
  8
0
 62
     0
 66
     1
 10
0
 20
0
 30
0.0
 70
     1
 40
0
 41
0
  0
VERTEX
  8
0
 10
6.42617
 20
9.8291
 30
0.0
 40
0
 41
0
  0
VERTEX
  8
0
 10
6.62418
 20
9.8291
 30
0.0
 40
0
 41
0
  0
VERTEX
  8
0
 10
6.62418
 20
9.22331
 30
0.0
 40
0
 41
0
  0
VERTEX
  8
0
 10
6.42617
 20
9.22331
 30
0.0
 40
0
 41
0
  0
VERTEX
  8
0
 10
6.42617
 20
9.8291
 30
0.0
 40
0
 41
0
  0
SEQEND
 8
0
  0
POLYLINE
  8
0
 62
     0
 66
     1
 10
0
 20
0
 30
0.0
 70
     1
 40
0
 41
0
  0
VERTEX
  8
0
 10
1.70535
 20
9.7666
 30
0.0
 40
0
 41
0
  0
VERTEX
  8
0
 10
1.70535
 20
9.63271
 30
0.0
 40
0
 41
0
  0
VERTEX
  8
0
 10
3.41667
 20
9.63271
 30
0.0
 40
0
 41
0
  0
VERTEX
  8
0
 10
3.41667
 20
9.7666
 30
0.0
 40
0
 41
0
  0
VERTEX
  8
0
 10
1.70535
 20
9.7666
 30
0.0
 40
0
 41
0
  0
SEQEND
 8
0
  0
POLYLINE
  8
0
 62
     0
 66
     1
 10
0
 20
0
 30
0.0
 70
     1
 40
0
 41
0
  0
VERTEX
  8
0
 10
7.65771
 20
9.7666
 30
0.0
 40
0
 41
0
  0
VERTEX
  8
0
 10
7.65771
 20
9.63271
 30
0.0
 40
0
 41
0
  0
VERTEX
  8
0
 10
9.36903
 20
9.63271
 30
0.0
 40
0
 41
0
  0
VERTEX
  8
0
 10
9.36903
 20
9.7666
 30
0.0
 40
0
 41
0
  0
VERTEX
  8
0
 10
7.65771
 20
9.7666
 30
0.0
 40
0
 41
0
  0
SEQEND
 8
0
  0
POLYLINE
  8
0
 62
     0
 66
     1
 10
0
 20
0
 30
0.0
 70
     1
 40
0
 41
0
  0
VERTEX
  8
0
 10
1.70535
 20
9.42437
 30
0.0
 40
0
 41
0
  0
VERTEX
  8
0
 10
1.70535
 20
9.29042
 30
0.0
 40
0
 41
0
  0
VERTEX
  8
0
 10
3.41667
 20
9.29042
 30
0.0
 40
0
 41
0
  0
VERTEX
  8
0
 10
3.41667
 20
9.42437
 30
0.0
 40
0
 41
0
  0
VERTEX
  8
0
 10
1.70535
 20
9.42437
 30
0.0
 40
0
 41
0
  0
SEQEND
 8
0
  0
POLYLINE
  8
0
 62
     0
 66
     1
 10
0
 20
0
 30
0.0
 70
     1
 40
0
 41
0
  0
VERTEX
  8
0
 10
7.65771
 20
9.42437
 30
0.0
 40
0
 41
0
  0
VERTEX
  8
0
 10
7.65771
 20
9.29042
 30
0.0
 40
0
 41
0
  0
VERTEX
  8
0
 10
9.36903
 20
9.29042
 30
0.0
 40
0
 41
0
  0
VERTEX
  8
0
 10
9.36903
 20
9.42437
 30
0.0
 40
0
 41
0
  0
VERTEX
  8
0
 10
7.65771
 20
9.42437
 30
0.0
 40
0
 41
0
  0
SEQEND
 8
0
  0
POLYLINE
  8
0
 62
     0
 66
     1
 10
0
 20
0
 30
0.0
 70
     1
 40
0
 41
0
  0
VERTEX
  8
0
 10
1.59179
 20
6.55496
 30
0.0
 40
0
 41
0
  0
VERTEX
  8
0
 10
1.59179
 20
6.38932
 30
0.0
 40
0
 41
0
  0
VERTEX
  8
0
 10
1.65896
 20
6.38932
 30
0.0
 40
0
 41
0
  0
VERTEX
  8
0
 10
1.65896
 20
5.78244
 30
0.0
 40
0
 41
0
  0
VERTEX
  8
0
 10
1.59065
 20
5.78244
 30
0.0
 40
0
 41
0
  0
VERTEX
  8
0
 10
1.59065
 20
5.61908
 30
0.0
 40
0
 41
0
  0
VERTEX
  8
0
 10
1.90799
 20
5.61908
 30
0.0
 40
0
 41
0
  0
VERTEX
  8
0
 10
1.90799
 20
5.78244
 30
0.0
 40
0
 41
0
  0
VERTEX
  8
0
 10
1.84196
 20
5.78244
 30
0.0
 40
0
 41
0
  0
VERTEX
  8
0
 10
1.84196
 20
6.38704
 30
0.0
 40
0
 41
0
  0
VERTEX
  8
0
 10
1.90799
 20
6.38704
 30
0.0
 40
0
 41
0
  0
VERTEX
  8
0
 10
1.90799
 20
6.55496
 30
0.0
 40
0
 41
0
  0
VERTEX
  8
0
 10
1.59179
 20
6.55496
 30
0.0
 40
0
 41
0
  0
SEQEND
 8
0
  0
POLYLINE
  8
0
 62
     0
 66
     1
 10
0
 20
0
 30
0.0
 70
     1
 40
0
 41
0
  0
VERTEX
  8
0
 10
1.96035
 20
6.55496
 30
0.0
 40
0
 41
0
  0
VERTEX
  8
0
 10
1.96035
 20
6.3604
 30
0.0
 40
0
 41
0
  0
VERTEX
  8
0
 10
2.02518
 20
6.3604
 30
0.0
 40
0
 41
0
  0
VERTEX
  8
0
 10
1.96496
 20
6.21326
 30
0.0
 40
0
 41
0
  0
VERTEX
  8
0
 10
2.06228
 20
6.21326
 30
0.0
 40
0
 41
0
  0
VERTEX
  8
0
 10
2.13639
 20
6.35921
 30
0.0
 40
0
 41
0
  0
VERTEX
  8
0
 10
2.13639
 20
6.55496
 30
0.0
 40
0
 41
0
  0
VERTEX
  8
0
 10
1.96035
 20
6.55496
 30
0.0
 40
0
 41
0
  0
SEQEND
 8
0
  0
POLYLINE
  8
0
 62
     0
 66
     1
 10
0
 20
0
 30
0.0
 70
     1
 40
0
 41
0
  0
VERTEX
  8
0
 10
3.53017
 20
6.55496
 30
0.0
 40
0
 41
0
  0
VERTEX
  8
0
 10
3.53017
 20
6.38932
 30
0.0
 40
0
 41
0
  0
VERTEX
  8
0
 10
3.60086
 20
6.38932
 30
0.0
 40
0
 41
0
  0
VERTEX
  8
0
 10
3.60086
 20
5.78244
 30
0.0
 40
0
 41
0
  0
VERTEX
  8
0
 10
3.53483
 20
5.78244
 30
0.0
 40
0
 41
0
  0
VERTEX
  8
0
 10
3.53483
 20
5.61908
 30
0.0
 40
0
 41
0
  0
VERTEX
  8
0
 10
4.14404
 20
5.61908
 30
0.0
 40
0
 41
0
  0
VERTEX
  8
0
 10
4.14404
 20
5.90636
 30
0.0
 40
0
 41
0
  0
VERTEX
  8
0
 10
3.96685
 20
5.90636
 30
0.0
 40
0
 41
0
  0
VERTEX
  8
0
 10
3.96685
 20
5.78244
 30
0.0
 40
0
 41
0
  0
VERTEX
  8
0
 10
3.78386
 20
5.78244
 30
0.0
 40
0
 41
0
  0
VERTEX
  8
0
 10
3.78386
 20
6.00711
 30
0.0
 40
0
 41
0
  0
VERTEX
  8
0
 10
3.92399
 20
6.00711
 30
0.0
 40
0
 41
0
  0
VERTEX
  8
0
 10
3.92399
 20
6.1716
 30
0.0
 40
0
 41
0
  0
VERTEX
  8
0
 10
3.78386
 20
6.1716
 30
0.0
 40
0
 41
0
  0
VERTEX
  8
0
 10
3.78386
 20
6.38704
 30
0.0
 40
0
 41
0
  0
VERTEX
  8
0
 10
3.96451
 20
6.38704
 30
0.0
 40
0
 41
0
  0
VERTEX
  8
0
 10
3.96451
 20
6.2851
 30
0.0
 40
0
 41
0
  0
VERTEX
  8
0
 10
4.14404
 20
6.2851
 30
0.0
 40
0
 41
0
  0
VERTEX
  8
0
 10
4.14404
 20
6.55496
 30
0.0
 40
0
 41
0
  0
VERTEX
  8
0
 10
3.53017
 20
6.55496
 30
0.0
 40
0
 41
0
  0
SEQEND
 8
0
  0
POLYLINE
  8
0
 62
     0
 66
     1
 10
0
 20
0
 30
0.0
 70
     1
 40
0
 41
0
  0
VERTEX
  8
0
 10
5.48492
 20
6.55496
 30
0.0
 40
0
 41
0
  0
VERTEX
  8
0
 10
5.48492
 20
6.38932
 30
0.0
 40
0
 41
0
  0
VERTEX
  8
0
 10
5.55328
 20
6.38932
 30
0.0
 40
0
 41
0
  0
VERTEX
  8
0
 10
5.55328
 20
5.78244
 30
0.0
 40
0
 41
0
  0
VERTEX
  8
0
 10
5.48378
 20
5.78244
 30
0.0
 40
0
 41
0
  0
VERTEX
  8
0
 10
5.48378
 20
5.61908
 30
0.0
 40
0
 41
0
  0
VERTEX
  8
0
 10
6.08838
 20
5.61908
 30
0.0
 40
0
 41
0
  0
VERTEX
  8
0
 10
6.08838
 20
5.90636
 30
0.0
 40
0
 41
0
  0
VERTEX
  8
0
 10
5.91114
 20
5.90636
 30
0.0
 40
0
 41
0
  0
VERTEX
  8
0
 10
5.91114
 20
5.78244
 30
0.0
 40
0
 41
0
  0
VERTEX
  8
0
 10
5.73628
 20
5.78244
 30
0.0
 40
0
 41
0
  0
VERTEX
  8
0
 10
5.73628
 20
6.38704
 30
0.0
 40
0
 41
0
  0
VERTEX
  8
0
 10
5.80111
 20
6.38704
 30
0.0
 40
0
 41
0
  0
VERTEX
  8
0
 10
5.80111
 20
6.55496
 30
0.0
 40
0
 41
0
  0
VERTEX
  8
0
 10
5.48492
 20
6.55496
 30
0.0
 40
0
 41
0
  0
SEQEND
 8
0
  0
POLYLINE
  8
0
 62
     0
 66
     1
 10
0
 20
0
 30
0.0
 70
     1
 40
0
 41
0
  0
VERTEX
  8
0
 10
6.75185
 20
6.55496
 30
0.0
 40
0
 41
0
  0
VERTEX
  8
0
 10
6.75185
 20
6.38932
 30
0.0
 40
0
 41
0
  0
VERTEX
  8
0
 10
6.81901
 20
6.38932
 30
0.0
 40
0
 41
0
  0
VERTEX
  8
0
 10
6.81901
 20
5.78244
 30
0.0
 40
0
 41
0
  0
VERTEX
  8
0
 10
6.75071
 20
5.78244
 30
0.0
 40
0
 41
0
  0
VERTEX
  8
0
 10
6.75071
 20
5.61908
 30
0.0
 40
0
 41
0
  0
VERTEX
  8
0
 10
7.06803
 20
5.61908
 30
0.0
 40
0
 41
0
  0
VERTEX
  8
0
 10
7.06803
 20
5.78244
 30
0.0
 40
0
 41
0
  0
VERTEX
  8
0
 10
7.00206
 20
5.78244
 30
0.0
 40
0
 41
0
  0
VERTEX
  8
0
 10
7.00206
 20
6.38704
 30
0.0
 40
0
 41
0
  0
VERTEX
  8
0
 10
7.06803
 20
6.38704
 30
0.0
 40
0
 41
0
  0
VERTEX
  8
0
 10
7.06803
 20
6.55496
 30
0.0
 40
0
 41
0
  0
VERTEX
  8
0
 10
6.75185
 20
6.55496
 30
0.0
 40
0
 41
0
  0
SEQEND
 8
0
  0
POLYLINE
  8
0
 62
     0
 66
     1
 10
0
 20
0
 30
0.0
 70
     1
 40
0
 41
0
  0
VERTEX
  8
0
 10
7.82189
 20
6.55496
 30
0.0
 40
0
 41
0
  0
VERTEX
  8
0
 10
7.82189
 20
6.38932
 30
0.0
 40
0
 41
0
  0
VERTEX
  8
0
 10
7.88906
 20
6.38932
 30
0.0
 40
0
 41
0
  0
VERTEX
  8
0
 10
7.88906
 20
5.78244
 30
0.0
 40
0
 41
0
  0
VERTEX
  8
0
 10
7.82075
 20
5.78244
 30
0.0
 40
0
 41
0
  0
VERTEX
  8
0
 10
7.82075
 20
5.61908
 30
0.0
 40
0
 41
0
  0
VERTEX
  8
0
 10
8.13807
 20
5.61908
 30
0.0
 40
0
 41
0
  0
VERTEX
  8
0
 10
8.13807
 20
5.78244
 30
0.0
 40
0
 41
0
  0
VERTEX
  8
0
 10
8.07206
 20
5.78244
 30
0.0
 40
0
 41
0
  0
VERTEX
  8
0
 10
8.07206
 20
6.38704
 30
0.0
 40
0
 41
0
  0
VERTEX
  8
0
 10
8.13807
 20
6.38704
 30
0.0
 40
0
 41
0
  0
VERTEX
  8
0
 10
8.13807
 20
6.55496
 30
0.0
 40
0
 41
0
  0
VERTEX
  8
0
 10
7.82189
 20
6.55496
 30
0.0
 40
0
 41
0
  0
SEQEND
 8
0
  0
POLYLINE
  8
0
 62
     0
 66
     1
 10
0
 20
0
 30
0.0
 70
     1
 40
0
 41
0
  0
VERTEX
  8
0
 10
8.96024
 20
6.55496
 30
0.0
 40
0
 41
0
  0
VERTEX
  8
0
 10
8.8826
 20
6.47965
 30
0.0
 40
0
 41
0
  0
VERTEX
  8
0
 10
8.8826
 20
5.70714
 30
0.0
 40
0
 41
0
  0
VERTEX
  8
0
 10
8.97065
 20
5.61908
 30
0.0
 40
0
 41
0
  0
VERTEX
  8
0
 10
9.39919
 20
5.61908
 30
0.0
 40
0
 41
0
  0
VERTEX
  8
0
 10
9.48372
 20
5.70367
 30
0.0
 40
0
 41
0
  0
VERTEX
  8
0
 10
9.48372
 20
6.02219
 30
0.0
 40
0
 41
0
  0
VERTEX
  8
0
 10
9.39572
 20
6.11139
 30
0.0
 40
0
 41
0
  0
VERTEX
  8
0
 10
9.14903
 20
6.11139
 30
0.0
 40
0
 41
0
  0
VERTEX
  8
0
 10
9.14903
 20
5.94342
 30
0.0
 40
0
 41
0
  0
VERTEX
  8
0
 10
9.29958
 20
5.94342
 30
0.0
 40
0
 41
0
  0
VERTEX
  8
0
 10
9.29958
 20
5.78244
 30
0.0
 40
0
 41
0
  0
VERTEX
  8
0
 10
9.06332
 20
5.78244
 30
0.0
 40
0
 41
0
  0
VERTEX
  8
0
 10
9.06332
 20
6.38704
 30
0.0
 40
0
 41
0
  0
VERTEX
  8
0
 10
9.30192
 20
6.38704
 30
0.0
 40
0
 41
0
  0
VERTEX
  8
0
 10
9.30192
 20
6.2909
 30
0.0
 40
0
 41
0
  0
VERTEX
  8
0
 10
9.48372
 20
6.2909
 30
0.0
 40
0
 41
0
  0
VERTEX
  8
0
 10
9.48372
 20
6.47157
 30
0.0
 40
0
 41
0
  0
VERTEX
  8
0
 10
9.39919
 20
6.55496
 30
0.0
 40
0
 41
0
  0
VERTEX
  8
0
 10
8.96024
 20
6.55496
 30
0.0
 40
0
 41
0
  0
SEQEND
 8
0
  0
POLYLINE
  8
0
 62
     0
 66
     1
 10
0
 20
0
 30
0.0
 70
     1
 40
0
 41
0
  0
VERTEX
  8
0
 10
2.20692
 20
6.55382
 30
0.0
 40
0
 41
0
  0
VERTEX
  8
0
 10
2.20692
 20
6.38471
 30
0.0
 40
0
 41
0
  0
VERTEX
  8
0
 10
2.27636
 20
6.38471
 30
0.0
 40
0
 41
0
  0
VERTEX
  8
0
 10
2.27636
 20
5.78244
 30
0.0
 40
0
 41
0
  0
VERTEX
  8
0
 10
2.20921
 20
5.78244
 30
0.0
 40
0
 41
0
  0
VERTEX
  8
0
 10
2.20921
 20
5.61794
 30
0.0
 40
0
 41
0
  0
VERTEX
  8
0
 10
2.52658
 20
5.61794
 30
0.0
 40
0
 41
0
  0
VERTEX
  8
0
 10
2.52658
 20
5.78244
 30
0.0
 40
0
 41
0
  0
VERTEX
  8
0
 10
2.4675
 20
5.78244
 30
0.0
 40
0
 41
0
  0
VERTEX
  8
0
 10
2.4675
 20
6.12642
 30
0.0
 40
0
 41
0
  0
VERTEX
  8
0
 10
2.60997
 20
5.61794
 30
0.0
 40
0
 41
0
  0
VERTEX
  8
0
 10
2.73275
 20
5.61794
 30
0.0
 40
0
 41
0
  0
VERTEX
  8
0
 10
2.87756
 20
6.12642
 30
0.0
 40
0
 41
0
  0
VERTEX
  8
0
 10
2.87756
 20
5.78244
 30
0.0
 40
0
 41
0
  0
VERTEX
  8
0
 10
2.82889
 20
5.78244
 30
0.0
 40
0
 41
0
  0
VERTEX
  8
0
 10
2.82889
 20
5.61794
 30
0.0
 40
0
 41
0
  0
VERTEX
  8
0
 10
3.12304
 20
5.61794
 30
0.0
 40
0
 41
0
  0
VERTEX
  8
0
 10
3.12304
 20
5.78244
 30
0.0
 40
0
 41
0
  0
VERTEX
  8
0
 10
3.06749
 20
5.78244
 30
0.0
 40
0
 41
0
  0
VERTEX
  8
0
 10
3.06749
 20
6.38471
 30
0.0
 40
0
 41
0
  0
VERTEX
  8
0
 10
3.12304
 20
6.38471
 30
0.0
 40
0
 41
0
  0
VERTEX
  8
0
 10
3.12304
 20
6.55382
 30
0.0
 40
0
 41
0
  0
VERTEX
  8
0
 10
2.79764
 20
6.55382
 30
0.0
 40
0
 41
0
  0
VERTEX
  8
0
 10
2.67833
 20
5.92258
 30
0.0
 40
0
 41
0
  0
VERTEX
  8
0
 10
2.54861
 20
6.55382
 30
0.0
 40
0
 41
0
  0
VERTEX
  8
0
 10
2.20692
 20
6.55382
 30
0.0
 40
0
 41
0
  0
SEQEND
 8
0
  0
POLYLINE
  8
0
 62
     0
 66
     1
 10
0
 20
0
 30
0.0
 70
     1
 40
0
 41
0
  0
VERTEX
  8
0
 10
4.21061
 20
6.55382
 30
0.0
 40
0
 41
0
  0
VERTEX
  8
0
 10
4.21061
 20
6.38704
 30
0.0
 40
0
 41
0
  0
VERTEX
  8
0
 10
4.24994
 20
6.38704
 30
0.0
 40
0
 41
0
  0
VERTEX
  8
0
 10
4.39128
 20
6.08936
 30
0.0
 40
0
 41
0
  0
VERTEX
  8
0
 10
4.23953
 20
5.78125
 30
0.0
 40
0
 41
0
  0
VERTEX
  8
0
 10
4.18858
 20
5.78125
 30
0.0
 40
0
 41
0
  0
VERTEX
  8
0
 10
4.18858
 20
5.61908
 30
0.0
 40
0
 41
0
  0
VERTEX
  8
0
 10
4.46078
 20
5.61908
 30
0.0
 40
0
 41
0
  0
VERTEX
  8
0
 10
4.46078
 20
5.78472
 30
0.0
 40
0
 41
0
  0
VERTEX
  8
0
 10
4.42025
 20
5.78472
 30
0.0
 40
0
 41
0
  0
VERTEX
  8
0
 10
4.49203
 20
5.93647
 30
0.0
 40
0
 41
0
  0
VERTEX
  8
0
 10
4.56619
 20
5.78244
 30
0.0
 40
0
 41
0
  0
VERTEX
  8
0
 10
4.52214
 20
5.78244
 30
0.0
 40
0
 41
0
  0
VERTEX
  8
0
 10
4.52214
 20
5.61908
 30
0.0
 40
0
 41
0
  0
VERTEX
  8
0
 10
4.78971
 20
5.61908
 30
0.0
 40
0
 41
0
  0
VERTEX
  8
0
 10
4.78971
 20
5.78244
 30
0.0
 40
0
 41
0
  0
VERTEX
  8
0
 10
4.73876
 20
5.78244
 30
0.0
 40
0
 41
0
  0
VERTEX
  8
0
 10
4.57775
 20
6.09169
 30
0.0
 40
0
 41
0
  0
VERTEX
  8
0
 10
4.71094
 20
6.38704
 30
0.0
 40
0
 41
0
  0
VERTEX
  8
0
 10
4.76188
 20
6.38704
 30
0.0
 40
0
 41
0
  0
VERTEX
  8
0
 10
4.76188
 20
6.55382
 30
0.0
 40
0
 41
0
  0
VERTEX
  8
0
 10
4.50597
 20
6.55382
 30
0.0
 40
0
 41
0
  0
VERTEX
  8
0
 10
4.50597
 20
6.38585
 30
0.0
 40
0
 41
0
  0
VERTEX
  8
0
 10
4.5465
 20
6.38585
 30
0.0
 40
0
 41
0
  0
VERTEX
  8
0
 10
4.49089
 20
6.25379
 30
0.0
 40
0
 41
0
  0
VERTEX
  8
0
 10
4.43181
 20
6.38704
 30
0.0
 40
0
 41
0
  0
VERTEX
  8
0
 10
4.47119
 20
6.38704
 30
0.0
 40
0
 41
0
  0
VERTEX
  8
0
 10
4.47119
 20
6.55382
 30
0.0
 40
0
 41
0
  0
VERTEX
  8
0
 10
4.21061
 20
6.55382
 30
0.0
 40
0
 41
0
  0
SEQEND
 8
0
  0
POLYLINE
  8
0
 62
     0
 66
     1
 10
0
 20
0
 30
0.0
 70
     1
 40
0
 41
0
  0
VERTEX
  8
0
 10
4.86447
 20
6.55382
 30
0.0
 40
0
 41
0
  0
VERTEX
  8
0
 10
4.86447
 20
6.38471
 30
0.0
 40
0
 41
0
  0
VERTEX
  8
0
 10
4.93164
 20
6.38471
 30
0.0
 40
0
 41
0
  0
VERTEX
  8
0
 10
4.93164
 20
5.78244
 30
0.0
 40
0
 41
0
  0
VERTEX
  8
0
 10
4.86681
 20
5.78244
 30
0.0
 40
0
 41
0
  0
VERTEX
  8
0
 10
4.86681
 20
5.61794
 30
0.0
 40
0
 41
0
  0
VERTEX
  8
0
 10
5.18881
 20
5.61794
 30
0.0
 40
0
 41
0
  0
VERTEX
  8
0
 10
5.18994
 20
5.78244
 30
0.0
 40
0
 41
0
  0
VERTEX
  8
0
 10
5.12272
 20
5.78244
 30
0.0
 40
0
 41
0
  0
VERTEX
  8
0
 10
5.12158
 20
6.01292
 30
0.0
 40
0
 41
0
  0
VERTEX
  8
0
 10
5.34283
 20
6.01292
 30
0.0
 40
0
 41
0
  0
VERTEX
  8
0
 10
5.43778
 20
6.11019
 30
0.0
 40
0
 41
0
  0
VERTEX
  8
0
 10
5.43778
 20
6.46229
 30
0.0
 40
0
 41
0
  0
VERTEX
  8
0
 10
5.34744
 20
6.55382
 30
0.0
 40
0
 41
0
  0
VERTEX
  8
0
 10
4.86447
 20
6.55382
 30
0.0
 40
0
 41
0
  0
SEQEND
 8
0
  0
POLYLINE
  8
0
 62
     0
 66
     1
 10
0
 20
0
 30
0.0
 70
     1
 40
0
 41
0
  0
VERTEX
  8
0
 10
7.12039
 20
6.55382
 30
0.0
 40
0
 41
0
  0
VERTEX
  8
0
 10
7.12039
 20
6.39051
 30
0.0
 40
0
 41
0
  0
VERTEX
  8
0
 10
7.19217
 20
6.39051
 30
0.0
 40
0
 41
0
  0
VERTEX
  8
0
 10
7.19217
 20
5.78706
 30
0.0
 40
0
 41
0
  0
VERTEX
  8
0
 10
7.12267
 20
5.78706
 30
0.0
 40
0
 41
0
  0
VERTEX
  8
0
 10
7.12267
 20
5.61794
 30
0.0
 40
0
 41
0
  0
VERTEX
  8
0
 10
7.42964
 20
5.61794
 30
0.0
 40
0
 41
0
  0
VERTEX
  8
0
 10
7.42964
 20
5.78472
 30
0.0
 40
0
 41
0
  0
VERTEX
  8
0
 10
7.37289
 20
5.78472
 30
0.0
 40
0
 41
0
  0
VERTEX
  8
0
 10
7.37289
 20
6.09517
 30
0.0
 40
0
 41
0
  0
VERTEX
  8
0
 10
7.5281
 20
5.61794
 30
0.0
 40
0
 41
0
  0
VERTEX
  8
0
 10
7.7806
 20
5.61794
 30
0.0
 40
0
 41
0
  0
VERTEX
  8
0
 10
7.7806
 20
5.78706
 30
0.0
 40
0
 41
0
  0
VERTEX
  8
0
 10
7.71457
 20
5.78706
 30
0.0
 40
0
 41
0
  0
VERTEX
  8
0
 10
7.71457
 20
6.39051
 30
0.0
 40
0
 41
0
  0
VERTEX
  8
0
 10
7.7806
 20
6.39051
 30
0.0
 40
0
 41
0
  0
VERTEX
  8
0
 10
7.7806
 20
6.55382
 30
0.0
 40
0
 41
0
  0
VERTEX
  8
0
 10
7.46089
 20
6.55382
 30
0.0
 40
0
 41
0
  0
VERTEX
  8
0
 10
7.46089
 20
6.39393
 30
0.0
 40
0
 41
0
  0
VERTEX
  8
0
 10
7.52692
 20
6.39393
 30
0.0
 40
0
 41
0
  0
VERTEX
  8
0
 10
7.52692
 20
6.15419
 30
0.0
 40
0
 41
0
  0
VERTEX
  8
0
 10
7.39139
 20
6.55382
 30
0.0
 40
0
 41
0
  0
VERTEX
  8
0
 10
7.12039
 20
6.55382
 30
0.0
 40
0
 41
0
  0
SEQEND
 8
0
  0
POLYLINE
  8
0
 62
     0
 66
     1
 10
0
 20
0
 30
0.0
 70
     1
 40
0
 41
0
  0
VERTEX
  8
0
 10
8.19037
 20
6.55382
 30
0.0
 40
0
 41
0
  0
VERTEX
  8
0
 10
8.19037
 20
6.39051
 30
0.0
 40
0
 41
0
  0
VERTEX
  8
0
 10
8.26221
 20
6.39051
 30
0.0
 40
0
 41
0
  0
VERTEX
  8
0
 10
8.26221
 20
5.78706
 30
0.0
 40
0
 41
0
  0
VERTEX
  8
0
 10
8.19271
 20
5.78706
 30
0.0
 40
0
 41
0
  0
VERTEX
  8
0
 10
8.19271
 20
5.61794
 30
0.0
 40
0
 41
0
  0
VERTEX
  8
0
 10
8.49963
 20
5.61794
 30
0.0
 40
0
 41
0
  0
VERTEX
  8
0
 10
8.49963
 20
5.78472
 30
0.0
 40
0
 41
0
  0
VERTEX
  8
0
 10
8.44288
 20
5.78472
 30
0.0
 40
0
 41
0
  0
VERTEX
  8
0
 10
8.44288
 20
6.09517
 30
0.0
 40
0
 41
0
  0
VERTEX
  8
0
 10
8.5981
 20
5.61794
 30
0.0
 40
0
 41
0
  0
VERTEX
  8
0
 10
8.85058
 20
5.61794
 30
0.0
 40
0
 41
0
  0
VERTEX
  8
0
 10
8.85058
 20
5.78706
 30
0.0
 40
0
 41
0
  0
VERTEX
  8
0
 10
8.78456
 20
5.78706
 30
0.0
 40
0
 41
0
  0
VERTEX
  8
0
 10
8.78456
 20
6.39051
 30
0.0
 40
0
 41
0
  0
VERTEX
  8
0
 10
8.85058
 20
6.39051
 30
0.0
 40
0
 41
0
  0
VERTEX
  8
0
 10
8.85058
 20
6.55382
 30
0.0
 40
0
 41
0
  0
VERTEX
  8
0
 10
8.53093
 20
6.55382
 30
0.0
 40
0
 41
0
  0
VERTEX
  8
0
 10
8.53093
 20
6.39393
 30
0.0
 40
0
 41
0
  0
VERTEX
  8
0
 10
8.59694
 20
6.39393
 30
0.0
 40
0
 41
0
  0
VERTEX
  8
0
 10
8.59694
 20
6.15419
 30
0.0
 40
0
 41
0
  0
VERTEX
  8
0
 10
8.46143
 20
6.55382
 30
0.0
 40
0
 41
0
  0
VERTEX
  8
0
 10
8.19037
 20
6.55382
 30
0.0
 40
0
 41
0
  0
SEQEND
 8
0
  0
POLYLINE
  8
0
 62
     0
 66
     1
 10
0
 20
0
 30
0.0
 70
     1
 40
0
 41
0
  0
VERTEX
  8
0
 10
6.26617
 20
6.55263
 30
0.0
 40
0
 41
0
  0
VERTEX
  8
0
 10
6.26731
 20
6.38471
 30
0.0
 40
0
 41
0
  0
VERTEX
  8
0
 10
6.30783
 20
6.38471
 30
0.0
 40
0
 41
0
  0
VERTEX
  8
0
 10
6.16769
 20
5.78011
 30
0.0
 40
0
 41
0
  0
VERTEX
  8
0
 10
6.13411
 20
5.78011
 30
0.0
 40
0
 41
0
  0
VERTEX
  8
0
 10
6.13411
 20
5.61908
 30
0.0
 40
0
 41
0
  0
VERTEX
  8
0
 10
6.37967
 20
5.61908
 30
0.0
 40
0
 41
0
  0
VERTEX
  8
0
 10
6.37967
 20
5.78244
 30
0.0
 40
0
 41
0
  0
VERTEX
  8
0
 10
6.33681
 20
5.78244
 30
0.0
 40
0
 41
0
  0
VERTEX
  8
0
 10
6.35069
 20
5.83339
 30
0.0
 40
0
 41
0
  0
VERTEX
  8
0
 10
6.48161
 20
5.83339
 30
0.0
 40
0
 41
0
  0
VERTEX
  8
0
 10
6.49431
 20
5.78244
 30
0.0
 40
0
 41
0
  0
VERTEX
  8
0
 10
6.45378
 20
5.78244
 30
0.0
 40
0
 41
0
  0
VERTEX
  8
0
 10
6.45378
 20
5.61908
 30
0.0
 40
0
 41
0
  0
VERTEX
  8
0
 10
6.70053
 20
5.61908
 30
0.0
 40
0
 41
0
  0
VERTEX
  8
0
 10
6.70053
 20
5.78244
 30
0.0
 40
0
 41
0
  0
VERTEX
  8
0
 10
6.66694
 20
5.78244
 30
0.0
 40
0
 41
0
  0
VERTEX
  8
0
 10
6.51286
 20
6.38704
 30
0.0
 40
0
 41
0
  0
VERTEX
  8
0
 10
6.54411
 20
6.38704
 30
0.0
 40
0
 41
0
  0
VERTEX
  8
0
 10
6.54411
 20
6.55263
 30
0.0
 40
0
 41
0
  0
VERTEX
  8
0
 10
6.26617
 20
6.55263
 30
0.0
 40
0
 41
0
  0
SEQEND
 8
0
  0
POLYLINE
  8
0
 62
     0
 66
     1
 10
0
 20
0
 30
0.0
 70
     1
 40
0
 41
0
  0
VERTEX
  8
0
 10
5.11931
 20
6.38704
 30
0.0
 40
0
 41
0
  0
VERTEX
  8
0
 10
5.24203
 20
6.38704
 30
0.0
 40
0
 41
0
  0
VERTEX
  8
0
 10
5.24203
 20
6.18201
 30
0.0
 40
0
 41
0
  0
VERTEX
  8
0
 10
5.11931
 20
6.18201
 30
0.0
 40
0
 41
0
  0
VERTEX
  8
0
 10
5.11931
 20
6.38704
 30
0.0
 40
0
 41
0
  0
SEQEND
 8
0
  0
POLYLINE
  8
0
 62
     0
 66
     1
 10
0
 20
0
 30
0.0
 70
     1
 40
0
 41
0
  0
VERTEX
  8
0
 10
6.41439
 20
6.10325
 30
0.0
 40
0
 41
0
  0
VERTEX
  8
0
 10
6.45031
 20
5.9585
 30
0.0
 40
0
 41
0
  0
VERTEX
  8
0
 10
6.37733
 20
5.9585
 30
0.0
 40
0
 41
0
  0
VERTEX
  8
0
 10
6.41439
 20
6.10325
 30
0.0
 40
0
 41
0
  0
SEQEND
 8
0
  0
POLYLINE
  8
0
 62
     0
 66
     1
 10
0
 20
0
 30
0.0
 70
     1
 40
0
 41
0
  0
VERTEX
  8
0
 10
1.59463
 20
5.4815
 30
0.0
 40
0
 41
0
  0
VERTEX
  8
0
 10
1.59463
 20
5.31282
 30
0.0
 40
0
 41
0
  0
VERTEX
  8
0
 10
1.65201
 20
5.31282
 30
0.0
 40
0
 41
0
  0
VERTEX
  8
0
 10
1.76687
 20
4.53494
 30
0.0
 40
0
 41
0
  0
VERTEX
  8
0
 10
1.93435
 20
4.53494
 30
0.0
 40
0
 41
0
  0
VERTEX
  8
0
 10
2.03629
 20
4.96137
 30
0.0
 40
0
 41
0
  0
VERTEX
  8
0
 10
2.13818
 20
4.53494
 30
0.0
 40
0
 41
0
  0
VERTEX
  8
0
 10
2.30572
 20
4.53494
 30
0.0
 40
0
 41
0
  0
VERTEX
  8
0
 10
2.41704
 20
5.31164
 30
0.0
 40
0
 41
0
  0
VERTEX
  8
0
 10
2.47211
 20
5.31164
 30
0.0
 40
0
 41
0
  0
VERTEX
  8
0
 10
2.47211
 20
5.4815
 30
0.0
 40
0
 41
0
  0
VERTEX
  8
0
 10
2.19211
 20
5.4815
 30
0.0
 40
0
 41
0
  0
VERTEX
  8
0
 10
2.19211
 20
5.31164
 30
0.0
 40
0
 41
0
  0
VERTEX
  8
0
 10
2.25304
 20
5.31164
 30
0.0
 40
0
 41
0
  0
VERTEX
  8
0
 10
2.20264
 20
4.86996
 30
0.0
 40
0
 41
0
  0
VERTEX
  8
0
 10
2.09836
 20
5.23899
 30
0.0
 40
0
 41
0
  0
VERTEX
  8
0
 10
1.97657
 20
5.23899
 30
0.0
 40
0
 41
0
  0
VERTEX
  8
0
 10
1.88167
 20
4.86649
 30
0.0
 40
0
 41
0
  0
VERTEX
  8
0
 10
1.83712
 20
5.31164
 30
0.0
 40
0
 41
0
  0
VERTEX
  8
0
 10
1.884
 20
5.31164
 30
0.0
 40
0
 41
0
  0
VERTEX
  8
0
 10
1.884
 20
5.4815
 30
0.0
 40
0
 41
0
  0
VERTEX
  8
0
 10
1.59463
 20
5.4815
 30
0.0
 40
0
 41
0
  0
SEQEND
 8
0
  0
POLYLINE
  8
0
 62
     0
 66
     1
 10
0
 20
0
 30
0.0
 70
     1
 40
0
 41
0
  0
VERTEX
  8
0
 10
2.54156
 20
5.4815
 30
0.0
 40
0
 41
0
  0
VERTEX
  8
0
 10
2.54156
 20
5.31396
 30
0.0
 40
0
 41
0
  0
VERTEX
  8
0
 10
2.60954
 20
5.31396
 30
0.0
 40
0
 41
0
  0
VERTEX
  8
0
 10
2.60954
 20
4.70008
 30
0.0
 40
0
 41
0
  0
VERTEX
  8
0
 10
2.54275
 20
4.70008
 30
0.0
 40
0
 41
0
  0
VERTEX
  8
0
 10
2.54042
 20
4.53494
 30
0.0
 40
0
 41
0
  0
VERTEX
  8
0
 10
2.86139
 20
4.53494
 30
0.0
 40
0
 41
0
  0
VERTEX
  8
0
 10
2.86139
 20
4.70008
 30
0.0
 40
0
 41
0
  0
VERTEX
  8
0
 10
2.7946
 20
4.70008
 30
0.0
 40
0
 41
0
  0
VERTEX
  8
0
 10
2.7946
 20
4.9274
 30
0.0
 40
0
 41
0
  0
VERTEX
  8
0
 10
2.96212
 20
4.9274
 30
0.0
 40
0
 41
0
  0
VERTEX
  8
0
 10
2.96212
 20
4.70008
 30
0.0
 40
0
 41
0
  0
VERTEX
  8
0
 10
2.89187
 20
4.70008
 30
0.0
 40
0
 41
0
  0
VERTEX
  8
0
 10
2.89187
 20
4.53494
 30
0.0
 40
0
 41
0
  0
VERTEX
  8
0
 10
3.21283
 20
4.53494
 30
0.0
 40
0
 41
0
  0
VERTEX
  8
0
 10
3.21283
 20
4.70008
 30
0.0
 40
0
 41
0
  0
VERTEX
  8
0
 10
3.14725
 20
4.70008
 30
0.0
 40
0
 41
0
  0
VERTEX
  8
0
 10
3.14725
 20
5.31164
 30
0.0
 40
0
 41
0
  0
VERTEX
  8
0
 10
3.21283
 20
5.31164
 30
0.0
 40
0
 41
0
  0
VERTEX
  8
0
 10
3.21283
 20
5.4815
 30
0.0
 40
0
 41
0
  0
VERTEX
  8
0
 10
2.89301
 20
5.4815
 30
0.0
 40
0
 41
0
  0
VERTEX
  8
0
 10
2.89301
 20
5.31164
 30
0.0
 40
0
 41
0
  0
VERTEX
  8
0
 10
2.96212
 20
5.31164
 30
0.0
 40
0
 41
0
  0
VERTEX
  8
0
 10
2.96212
 20
5.10075
 30
0.0
 40
0
 41
0
  0
VERTEX
  8
0
 10
2.7946
 20
5.10075
 30
0.0
 40
0
 41
0
  0
VERTEX
  8
0
 10
2.7946
 20
5.31164
 30
0.0
 40
0
 41
0
  0
VERTEX
  8
0
 10
2.86139
 20
5.31164
 30
0.0
 40
0
 41
0
  0
VERTEX
  8
0
 10
2.86139
 20
5.4815
 30
0.0
 40
0
 41
0
  0
VERTEX
  8
0
 10
2.54156
 20
5.4815
 30
0.0
 40
0
 41
0
  0
SEQEND
 8
0
  0
POLYLINE
  8
0
 62
     0
 66
     1
 10
0
 20
0
 30
0.0
 70
     1
 40
0
 41
0
  0
VERTEX
  8
0
 10
4.26682
 20
5.4815
 30
0.0
 40
0
 41
0
  0
VERTEX
  8
0
 10
4.26682
 20
5.31396
 30
0.0
 40
0
 41
0
  0
VERTEX
  8
0
 10
4.33475
 20
5.31396
 30
0.0
 40
0
 41
0
  0
VERTEX
  8
0
 10
4.33475
 20
4.70008
 30
0.0
 40
0
 41
0
  0
VERTEX
  8
0
 10
4.26563
 20
4.70008
 30
0.0
 40
0
 41
0
  0
VERTEX
  8
0
 10
4.26563
 20
4.53494
 30
0.0
 40
0
 41
0
  0
VERTEX
  8
0
 10
4.58658
 20
4.53494
 30
0.0
 40
0
 41
0
  0
VERTEX
  8
0
 10
4.58658
 20
4.70008
 30
0.0
 40
0
 41
0
  0
VERTEX
  8
0
 10
4.51986
 20
4.70008
 30
0.0
 40
0
 41
0
  0
VERTEX
  8
0
 10
4.51986
 20
5.31164
 30
0.0
 40
0
 41
0
  0
VERTEX
  8
0
 10
4.58658
 20
5.31164
 30
0.0
 40
0
 41
0
  0
VERTEX
  8
0
 10
4.58658
 20
5.4815
 30
0.0
 40
0
 41
0
  0
VERTEX
  8
0
 10
4.26682
 20
5.4815
 30
0.0
 40
0
 41
0
  0
SEQEND
 8
0
  0
POLYLINE
  8
0
 62
     0
 66
     1
 10
0
 20
0
 30
0.0
 70
     1
 40
0
 41
0
  0
VERTEX
  8
0
 10
5.30306
 20
5.4815
 30
0.0
 40
0
 41
0
  0
VERTEX
  8
0
 10
5.30306
 20
5.28467
 30
0.0
 40
0
 41
0
  0
VERTEX
  8
0
 10
5.36871
 20
5.28467
 30
0.0
 40
0
 41
0
  0
VERTEX
  8
0
 10
5.30778
 20
5.1359
 30
0.0
 40
0
 41
0
  0
VERTEX
  8
0
 10
5.40619
 20
5.1359
 30
0.0
 40
0
 41
0
  0
VERTEX
  8
0
 10
5.48118
 20
5.28353
 30
0.0
 40
0
 41
0
  0
VERTEX
  8
0
 10
5.48118
 20
5.4815
 30
0.0
 40
0
 41
0
  0
VERTEX
  8
0
 10
5.30306
 20
5.4815
 30
0.0
 40
0
 41
0
  0
SEQEND
 8
0
  0
POLYLINE
  8
0
 62
     0
 66
     1
 10
0
 20
0
 30
0.0
 70
     1
 40
0
 41
0
  0
VERTEX
  8
0
 10
7.33817
 20
5.4815
 30
0.0
 40
0
 41
0
  0
VERTEX
  8
0
 10
7.24799
 20
5.39014
 30
0.0
 40
0
 41
0
  0
VERTEX
  8
0
 10
7.24799
 20
4.61106
 30
0.0
 40
0
 41
0
  0
VERTEX
  8
0
 10
7.32411
 20
4.53494
 30
0.0
 40
0
 41
0
  0
VERTEX
  8
0
 10
7.72944
 20
4.53494
 30
0.0
 40
0
 41
0
  0
VERTEX
  8
0
 10
7.81614
 20
4.62278
 30
0.0
 40
0
 41
0
  0
VERTEX
  8
0
 10
7.81614
 20
5.39367
 30
0.0
 40
0
 41
0
  0
VERTEX
  8
0
 10
7.72711
 20
5.4815
 30
0.0
 40
0
 41
0
  0
VERTEX
  8
0
 10
7.33817
 20
5.4815
 30
0.0
 40
0
 41
0
  0
SEQEND
 8
0
  0
POLYLINE
  8
0
 62
     0
 66
     1
 10
0
 20
0
 30
0.0
 70
     1
 40
0
 41
0
  0
VERTEX
  8
0
 10
3.2985
 20
5.48036
 30
0.0
 40
0
 41
0
  0
VERTEX
  8
0
 10
3.2985
 20
5.31164
 30
0.0
 40
0
 41
0
  0
VERTEX
  8
0
 10
3.33832
 20
5.31164
 30
0.0
 40
0
 41
0
  0
VERTEX
  8
0
 10
3.48708
 20
4.94379
 30
0.0
 40
0
 41
0
  0
VERTEX
  8
0
 10
3.48708
 20
4.70008
 30
0.0
 40
0
 41
0
  0
VERTEX
  8
0
 10
3.42969
 20
4.70008
 30
0.0
 40
0
 41
0
  0
VERTEX
  8
0
 10
3.42969
 20
4.53494
 30
0.0
 40
0
 41
0
  0
VERTEX
  8
0
 10
3.7366
 20
4.53494
 30
0.0
 40
0
 41
0
  0
VERTEX
  8
0
 10
3.7366
 20
4.70008
 30
0.0
 40
0
 41
0
  0
VERTEX
  8
0
 10
3.67686
 20
4.70008
 30
0.0
 40
0
 41
0
  0
VERTEX
  8
0
 10
3.67686
 20
4.94499
 30
0.0
 40
0
 41
0
  0
VERTEX
  8
0
 10
3.80458
 20
5.31164
 30
0.0
 40
0
 41
0
  0
VERTEX
  8
0
 10
3.85612
 20
5.31164
 30
0.0
 40
0
 41
0
  0
VERTEX
  8
0
 10
3.85612
 20
5.48036
 30
0.0
 40
0
 41
0
  0
VERTEX
  8
0
 10
3.59722
 20
5.48036
 30
0.0
 40
0
 41
0
  0
VERTEX
  8
0
 10
3.59722
 20
5.31044
 30
0.0
 40
0
 41
0
  0
VERTEX
  8
0
 10
3.63938
 20
5.31044
 30
0.0
 40
0
 41
0
  0
VERTEX
  8
0
 10
3.58197
 20
5.16407
 30
0.0
 40
0
 41
0
  0
VERTEX
  8
0
 10
3.52225
 20
5.31164
 30
0.0
 40
0
 41
0
  0
VERTEX
  8
0
 10
3.56326
 20
5.31164
 30
0.0
 40
0
 41
0
  0
VERTEX
  8
0
 10
3.56326
 20
5.48036
 30
0.0
 40
0
 41
0
  0
VERTEX
  8
0
 10
3.2985
 20
5.48036
 30
0.0
 40
0
 41
0
  0
SEQEND
 8
0
  0
POLYLINE
  8
0
 62
     0
 66
     1
 10
0
 20
0
 30
0.0
 70
     1
 40
0
 41
0
  0
VERTEX
  8
0
 10
6.54779
 20
5.48036
 30
0.0
 40
0
 41
0
  0
VERTEX
  8
0
 10
6.54779
 20
5.31515
 30
0.0
 40
0
 41
0
  0
VERTEX
  8
0
 10
6.62044
 20
5.31515
 30
0.0
 40
0
 41
0
  0
VERTEX
  8
0
 10
6.62044
 20
4.70481
 30
0.0
 40
0
 41
0
  0
VERTEX
  8
0
 10
6.55013
 20
4.70481
 30
0.0
 40
0
 41
0
  0
VERTEX
  8
0
 10
6.55013
 20
4.53375
 30
0.0
 40
0
 41
0
  0
VERTEX
  8
0
 10
6.86063
 20
4.53375
 30
0.0
 40
0
 41
0
  0
VERTEX
  8
0
 10
6.86063
 20
4.70247
 30
0.0
 40
0
 41
0
  0
VERTEX
  8
0
 10
6.80322
 20
4.70247
 30
0.0
 40
0
 41
0
  0
VERTEX
  8
0
 10
6.80322
 20
5.01644
 30
0.0
 40
0
 41
0
  0
VERTEX
  8
0
 10
6.96018
 20
4.53375
 30
0.0
 40
0
 41
0
  0
VERTEX
  8
0
 10
7.2156
 20
4.53375
 30
0.0
 40
0
 41
0
  0
VERTEX
  8
0
 10
7.2156
 20
4.70481
 30
0.0
 40
0
 41
0
  0
VERTEX
  8
0
 10
7.14876
 20
4.70481
 30
0.0
 40
0
 41
0
  0
VERTEX
  8
0
 10
7.14876
 20
5.31515
 30
0.0
 40
0
 41
0
  0
VERTEX
  8
0
 10
7.2156
 20
5.31515
 30
0.0
 40
0
 41
0
  0
VERTEX
  8
0
 10
7.2156
 20
5.48036
 30
0.0
 40
0
 41
0
  0
VERTEX
  8
0
 10
6.89225
 20
5.48036
 30
0.0
 40
0
 41
0
  0
VERTEX
  8
0
 10
6.89225
 20
5.31868
 30
0.0
 40
0
 41
0
  0
VERTEX
  8
0
 10
6.95899
 20
5.31868
 30
0.0
 40
0
 41
0
  0
VERTEX
  8
0
 10
6.95899
 20
5.07617
 30
0.0
 40
0
 41
0
  0
VERTEX
  8
0
 10
6.82194
 20
5.48036
 30
0.0
 40
0
 41
0
  0
VERTEX
  8
0
 10
6.54779
 20
5.48036
 30
0.0
 40
0
 41
0
  0
SEQEND
 8
0
  0
POLYLINE
  8
0
 62
     0
 66
     1
 10
0
 20
0
 30
0.0
 70
     1
 40
0
 41
0
  0
VERTEX
  8
0
 10
5.63917
 20
5.47917
 30
0.0
 40
0
 41
0
  0
VERTEX
  8
0
 10
5.55251
 20
5.396
 30
0.0
 40
0
 41
0
  0
VERTEX
  8
0
 10
5.55251
 20
5.01406
 30
0.0
 40
0
 41
0
  0
VERTEX
  8
0
 10
5.64154
 20
4.9274
 30
0.0
 40
0
 41
0
  0
VERTEX
  8
0
 10
5.95199
 20
4.9274
 30
0.0
 40
0
 41
0
  0
VERTEX
  8
0
 10
5.95199
 20
4.69894
 30
0.0
 40
0
 41
0
  0
VERTEX
  8
0
 10
5.73643
 20
4.69894
 30
0.0
 40
0
 41
0
  0
VERTEX
  8
0
 10
5.73643
 20
4.81375
 30
0.0
 40
0
 41
0
  0
VERTEX
  8
0
 10
5.55251
 20
4.81375
 30
0.0
 40
0
 41
0
  0
VERTEX
  8
0
 10
5.55251
 20
4.63569
 30
0.0
 40
0
 41
0
  0
VERTEX
  8
0
 10
5.6544
 20
4.53494
 30
0.0
 40
0
 41
0
  0
VERTEX
  8
0
 10
6.04568
 20
4.53494
 30
0.0
 40
0
 41
0
  0
VERTEX
  8
0
 10
6.1359
 20
4.62397
 30
0.0
 40
0
 41
0
  0
VERTEX
  8
0
 10
6.1359
 20
5.01058
 30
0.0
 40
0
 41
0
  0
VERTEX
  8
0
 10
6.04921
 20
5.09722
 30
0.0
 40
0
 41
0
  0
VERTEX
  8
0
 10
5.73757
 20
5.09722
 30
0.0
 40
0
 41
0
  0
VERTEX
  8
0
 10
5.73757
 20
5.31044
 30
0.0
 40
0
 41
0
  0
VERTEX
  8
0
 10
5.94965
 20
5.31044
 30
0.0
 40
0
 41
0
  0
VERTEX
  8
0
 10
5.94965
 20
5.2015
 30
0.0
 40
0
 41
0
  0
VERTEX
  8
0
 10
6.13943
 20
5.2015
 30
0.0
 40
0
 41
0
  0
VERTEX
  8
0
 10
6.13943
 20
5.38308
 30
0.0
 40
0
 41
0
  0
VERTEX
  8
0
 10
6.04215
 20
5.47917
 30
0.0
 40
0
 41
0
  0
VERTEX
  8
0
 10
5.63917
 20
5.47917
 30
0.0
 40
0
 41
0
  0
SEQEND
 8
0
  0
POLYLINE
  8
0
 62
     0
 66
     1
 10
0
 20
0
 30
0.0
 70
     1
 40
0
 41
0
  0
VERTEX
  8
0
 10
9.04047
 20
5.47917
 30
0.0
 40
0
 41
0
  0
VERTEX
  8
0
 10
9.04161
 20
5.30931
 30
0.0
 40
0
 41
0
  0
VERTEX
  8
0
 10
9.08262
 20
5.30931
 30
0.0
 40
0
 41
0
  0
VERTEX
  8
0
 10
8.94086
 20
4.69775
 30
0.0
 40
0
 41
0
  0
VERTEX
  8
0
 10
8.9069
 20
4.69775
 30
0.0
 40
0
 41
0
  0
VERTEX
  8
0
 10
8.9069
 20
4.53494
 30
0.0
 40
0
 41
0
  0
VERTEX
  8
0
 10
9.15528
 20
4.53494
 30
0.0
 40
0
 41
0
  0
VERTEX
  8
0
 10
9.15528
 20
4.70008
 30
0.0
 40
0
 41
0
  0
VERTEX
  8
0
 10
9.11193
 20
4.70008
 30
0.0
 40
0
 41
0
  0
VERTEX
  8
0
 10
9.12597
 20
4.75168
 30
0.0
 40
0
 41
0
  0
VERTEX
  8
0
 10
9.25836
 20
4.75168
 30
0.0
 40
0
 41
0
  0
VERTEX
  8
0
 10
9.27126
 20
4.70008
 30
0.0
 40
0
 41
0
  0
VERTEX
  8
0
 10
9.23025
 20
4.70008
 30
0.0
 40
0
 41
0
  0
VERTEX
  8
0
 10
9.23025
 20
4.53494
 30
0.0
 40
0
 41
0
  0
VERTEX
  8
0
 10
9.47976
 20
4.53494
 30
0.0
 40
0
 41
0
  0
VERTEX
  8
0
 10
9.47976
 20
4.70008
 30
0.0
 40
0
 41
0
  0
VERTEX
  8
0
 10
9.44581
 20
4.70008
 30
0.0
 40
0
 41
0
  0
VERTEX
  8
0
 10
9.28999
 20
5.31164
 30
0.0
 40
0
 41
0
  0
VERTEX
  8
0
 10
9.32161
 20
5.31164
 30
0.0
 40
0
 41
0
  0
VERTEX
  8
0
 10
9.32161
 20
5.47917
 30
0.0
 40
0
 41
0
  0
VERTEX
  8
0
 10
9.04047
 20
5.47917
 30
0.0
 40
0
 41
0
  0
SEQEND
 8
0
  0
POLYLINE
  8
0
 62
     0
 66
     1
 10
0
 20
0
 30
0.0
 70
     1
 40
0
 41
0
  0
VERTEX
  8
0
 10
4.63954
 20
5.47683
 30
0.0
 40
0
 41
0
  0
VERTEX
  8
0
 10
4.63954
 20
5.19917
 30
0.0
 40
0
 41
0
  0
VERTEX
  8
0
 10
4.79183
 20
5.19917
 30
0.0
 40
0
 41
0
  0
VERTEX
  8
0
 10
4.79183
 20
5.31282
 30
0.0
 40
0
 41
0
  0
VERTEX
  8
0
 10
4.85157
 20
5.31282
 30
0.0
 40
0
 41
0
  0
VERTEX
  8
0
 10
4.85157
 20
4.70008
 30
0.0
 40
0
 41
0
  0
VERTEX
  8
0
 10
4.7895
 20
4.70008
 30
0.0
 40
0
 41
0
  0
VERTEX
  8
0
 10
4.7895
 20
4.53494
 30
0.0
 40
0
 41
0
  0
VERTEX
  8
0
 10
5.10465
 20
4.53494
 30
0.0
 40
0
 41
0
  0
VERTEX
  8
0
 10
5.10465
 20
4.70008
 30
0.0
 40
0
 41
0
  0
VERTEX
  8
0
 10
5.03901
 20
4.70008
 30
0.0
 40
0
 41
0
  0
VERTEX
  8
0
 10
5.03901
 20
5.31282
 30
0.0
 40
0
 41
0
  0
VERTEX
  8
0
 10
5.09879
 20
5.31282
 30
0.0
 40
0
 41
0
  0
VERTEX
  8
0
 10
5.09879
 20
5.19917
 30
0.0
 40
0
 41
0
  0
VERTEX
  8
0
 10
5.25108
 20
5.19917
 30
0.0
 40
0
 41
0
  0
VERTEX
  8
0
 10
5.25108
 20
5.47683
 30
0.0
 40
0
 41
0
  0
VERTEX
  8
0
 10
4.63954
 20
5.47683
 30
0.0
 40
0
 41
0
  0
SEQEND
 8
0
  0
POLYLINE
  8
0
 62
     0
 66
     1
 10
0
 20
0
 30
0.0
 70
     1
 40
0
 41
0
  0
VERTEX
  8
0
 10
7.87261
 20
5.47683
 30
0.0
 40
0
 41
0
  0
VERTEX
  8
0
 10
7.87261
 20
5.19917
 30
0.0
 40
0
 41
0
  0
VERTEX
  8
0
 10
8.0249
 20
5.19917
 30
0.0
 40
0
 41
0
  0
VERTEX
  8
0
 10
8.0249
 20
5.31282
 30
0.0
 40
0
 41
0
  0
VERTEX
  8
0
 10
8.08464
 20
5.31282
 30
0.0
 40
0
 41
0
  0
VERTEX
  8
0
 10
8.08464
 20
4.70008
 30
0.0
 40
0
 41
0
  0
VERTEX
  8
0
 10
8.02257
 20
4.70008
 30
0.0
 40
0
 41
0
  0
VERTEX
  8
0
 10
8.02257
 20
4.53494
 30
0.0
 40
0
 41
0
  0
VERTEX
  8
0
 10
8.33772
 20
4.53494
 30
0.0
 40
0
 41
0
  0
VERTEX
  8
0
 10
8.33772
 20
4.70008
 30
0.0
 40
0
 41
0
  0
VERTEX
  8
0
 10
8.27208
 20
4.70008
 30
0.0
 40
0
 41
0
  0
VERTEX
  8
0
 10
8.27208
 20
5.31282
 30
0.0
 40
0
 41
0
  0
VERTEX
  8
0
 10
8.33188
 20
5.31282
 30
0.0
 40
0
 41
0
  0
VERTEX
  8
0
 10
8.33188
 20
5.19917
 30
0.0
 40
0
 41
0
  0
VERTEX
  8
0
 10
8.48415
 20
5.19917
 30
0.0
 40
0
 41
0
  0
VERTEX
  8
0
 10
8.48415
 20
5.47683
 30
0.0
 40
0
 41
0
  0
VERTEX
  8
0
 10
7.87261
 20
5.47683
 30
0.0
 40
0
 41
0
  0
SEQEND
 8
0
  0
POLYLINE
  8
0
 62
     0
 66
     1
 10
0
 20
0
 30
0.0
 70
     1
 40
0
 41
0
  0
VERTEX
  8
0
 10
7.43192
 20
5.31164
 30
0.0
 40
0
 41
0
  0
VERTEX
  8
0
 10
7.63222
 20
5.31164
 30
0.0
 40
0
 41
0
  0
VERTEX
  8
0
 10
7.63222
 20
4.69894
 30
0.0
 40
0
 41
0
  0
VERTEX
  8
0
 10
7.43192
 20
4.69894
 30
0.0
 40
0
 41
0
  0
VERTEX
  8
0
 10
7.43192
 20
5.31164
 30
0.0
 40
0
 41
0
  0
SEQEND
 8
0
  0
POLYLINE
  8
0
 62
     0
 66
     1
 10
0
 20
0
 30
0.0
 70
     1
 40
0
 41
0
  0
VERTEX
  8
0
 10
9.19037
 20
5.02463
 30
0.0
 40
0
 41
0
  0
VERTEX
  8
0
 10
9.22672
 20
4.87819
 30
0.0
 40
0
 41
0
  0
VERTEX
  8
0
 10
9.15294
 20
4.87819
 30
0.0
 40
0
 41
0
  0
VERTEX
  8
0
 10
9.19037
 20
5.02463
 30
0.0
 40
0
 41
0
  0
SEQEND
 8
0
  0
POLYLINE
  8
0
 62
     0
 66
     1
 10
0
 20
0
 30
0.0
 70
     1
 40
0
 41
0
  0
VERTEX
  8
0
 10
1.65479
 20
8.92356
 30
0.0
 40
0
 41
0
  0
VERTEX
  8
0
 10
1.65479
 20
6.6914
 30
0.0
 40
0
 41
0
  0
VERTEX
  8
0
 10
9.4196
 20
6.6914
 30
0.0
 40
0
 41
0
  0
VERTEX
  8
0
 10
9.4196
 20
8.92356
 30
0.0
 40
0
 41
0
  0
VERTEX
  8
0
 10
1.65479
 20
8.92356
 30
0.0
 40
0
 41
0
  0
SEQEND
 8
0
  0
POLYLINE
  8
0
 62
     0
 66
     1
 10
0
 20
0
 30
0.0
 70
     1
 40
0
 41
0
  0
VERTEX
  8
0
 10
4.65679
 20
8.76807
 30
0.0
 40
0
 41
0
  0
VERTEX
  8
0
 10
4.69938
 20
8.76807
 30
0.0
 40
0
 41
0
  0
VERTEX
  8
0
 10
4.82726
 20
8.74642
 30
0.0
 40
0
 41
0
  0
VERTEX
  8
0
 10
4.94553
 20
8.6959
 30
0.0
 40
0
 41
0
  0
VERTEX
  8
0
 10
4.96604
 20
8.68147
 30
0.0
 40
0
 41
0
  0
VERTEX
  8
0
 10
4.98068
 20
8.67117
 30
0.0
 40
0
 41
0
  0
VERTEX
  8
0
 10
5.02208
 20
8.63618
 30
0.0
 40
0
 41
0
  0
VERTEX
  8
0
 10
5.06749
 20
8.58669
 30
0.0
 40
0
 41
0
  0
VERTEX
  8
0
 10
5.10215
 20
8.5331
 30
0.0
 40
0
 41
0
  0
VERTEX
  8
0
 10
5.12153
 20
8.49024
 30
0.0
 40
0
 41
0
  0
VERTEX
  8
0
 10
5.12619
 20
8.47537
 30
0.0
 40
0
 41
0
  0
VERTEX
  8
0
 10
5.13238
 20
8.45568
 30
0.0
 40
0
 41
0
  0
VERTEX
  8
0
 10
5.15414
 20
8.32992
 30
0.0
 40
0
 41
0
  0
VERTEX
  8
0
 10
5.16347
 20
8.18024
 30
0.0
 40
0
 41
0
  0
VERTEX
  8
0
 10
5.16347
 20
8.13032
 30
0.0
 40
0
 41
0
  0
VERTEX
  8
0
 10
5.16347
 20
8.05063
 30
0.0
 40
0
 41
0
  0
VERTEX
  8
0
 10
4.73942
 20
8.05063
 30
0.0
 40
0
 41
0
  0
VERTEX
  8
0
 10
4.73942
 20
8.21799
 30
0.0
 40
0
 41
0
  0
VERTEX
  8
0
 10
4.73942
 20
8.23594
 30
0.0
 40
0
 41
0
  0
VERTEX
  8
0
 10
4.73867
 20
8.28976
 30
0.0
 40
0
 41
0
  0
VERTEX
  8
0
 10
4.73639
 20
8.34674
 30
0.0
 40
0
 41
0
  0
VERTEX
  8
0
 10
4.73258
 20
8.38889
 30
0.0
 40
0
 41
0
  0
VERTEX
  8
0
 10
4.72933
 20
8.40961
 30
0.0
 40
0
 41
0
  0
VERTEX
  8
0
 10
4.72732
 20
8.41618
 30
0.0
 40
0
 41
0
  0
VERTEX
  8
0
 10
4.72532
 20
8.42285
 30
0.0
 40
0
 41
0
  0
VERTEX
  8
0
 10
4.70692
 20
8.44607
 30
0.0
 40
0
 41
0
  0
VERTEX
  8
0
 10
4.67914
 20
8.456
 30
0.0
 40
0
 41
0
  0
VERTEX
  8
0
 10
4.66992
 20
8.456
 30
0.0
 40
0
 41
0
  0
VERTEX
  8
0
 10
4.66162
 20
8.456
 30
0.0
 40
0
 41
0
  0
VERTEX
  8
0
 10
4.63688
 20
8.44749
 30
0.0
 40
0
 41
0
  0
VERTEX
  8
0
 10
4.61882
 20
8.42757
 30
0.0
 40
0
 41
0
  0
VERTEX
  8
0
 10
4.61649
 20
8.42188
 30
0.0
 40
0
 41
0
  0
VERTEX
  8
0
 10
4.61415
 20
8.41629
 30
0.0
 40
0
 41
0
  0
VERTEX
  8
0
 10
4.61029
 20
8.39811
 30
0.0
 40
0
 41
0
  0
VERTEX
  8
0
 10
4.6059
 20
8.36094
 30
0.0
 40
0
 41
0
  0
VERTEX
  8
0
 10
4.60331
 20
8.31044
 30
0.0
 40
0
 41
0
  0
VERTEX
  8
0
 10
4.60243
 20
8.26247
 30
0.0
 40
0
 41
0
  0
VERTEX
  8
0
 10
4.60243
 20
8.24647
 30
0.0
 40
0
 41
0
  0
VERTEX
  8
0
 10
4.60243
 20
7.36165
 30
0.0
 40
0
 41
0
  0
VERTEX
  8
0
 10
4.60243
 20
7.33589
 30
0.0
 40
0
 41
0
  0
VERTEX
  8
0
 10
4.6059
 20
7.25857
 30
0.0
 40
0
 41
0
  0
VERTEX
  8
0
 10
4.6141
 20
7.20432
 30
0.0
 40
0
 41
0
  0
VERTEX
  8
0
 10
4.61649
 20
7.19764
 30
0.0
 40
0
 41
0
  0
VERTEX
  8
0
 10
4.61882
 20
7.19119
 30
0.0
 40
0
 41
0
  0
VERTEX
  8
0
 10
4.63764
 20
7.16862
 30
0.0
 40
0
 41
0
  0
VERTEX
  8
0
 10
4.66407
 20
7.15896
 30
0.0
 40
0
 41
0
  0
VERTEX
  8
0
 10
4.6729
 20
7.15896
 30
0.0
 40
0
 41
0
  0
VERTEX
  8
0
 10
4.68257
 20
7.15896
 30
0.0
 40
0
 41
0
  0
VERTEX
  8
0
 10
4.71169
 20
7.17008
 30
0.0
 40
0
 41
0
  0
VERTEX
  8
0
 10
4.73264
 20
7.19596
 30
0.0
 40
0
 41
0
  0
VERTEX
  8
0
 10
4.73535
 20
7.20335
 30
0.0
 40
0
 41
0
  0
VERTEX
  8
0
 10
4.73817
 20
7.21078
 30
0.0
 40
0
 41
0
  0
VERTEX
  8
0
 10
4.74821
 20
7.26888
 30
0.0
 40
0
 41
0
  0
VERTEX
  8
0
 10
4.7525
 20
7.34961
 30
0.0
 40
0
 41
0
  0
VERTEX
  8
0
 10
4.7525
 20
7.37646
 30
0.0
 40
0
 41
0
  0
VERTEX
  8
0
 10
4.7525
 20
7.59511
 30
0.0
 40
0
 41
0
  0
VERTEX
  8
0
 10
4.66689
 20
7.59511
 30
0.0
 40
0
 41
0
  0
VERTEX
  8
0
 10
4.66689
 20
7.87528
 30
0.0
 40
0
 41
0
  0
VERTEX
  8
0
 10
5.16347
 20
7.87528
 30
0.0
 40
0
 41
0
  0
VERTEX
  8
0
 10
5.16347
 20
6.88564
 30
0.0
 40
0
 41
0
  0
VERTEX
  8
0
 10
4.89654
 20
6.88564
 30
0.0
 40
0
 41
0
  0
VERTEX
  8
0
 10
4.85726
 20
7.01774
 30
0.0
 40
0
 41
0
  0
VERTEX
  8
0
 10
4.85004
 20
7.00353
 30
0.0
 40
0
 41
0
  0
VERTEX
  8
0
 10
4.80811
 20
6.94287
 30
0.0
 40
0
 41
0
  0
VERTEX
  8
0
 10
4.75851
 20
6.89626
 30
0.0
 40
0
 41
0
  0
VERTEX
  8
0
 10
4.74744
 20
6.88906
 30
0.0
 40
0
 41
0
  0
VERTEX
  8
0
 10
4.73654
 20
6.88206
 30
0.0
 40
0
 41
0
  0
VERTEX
  8
0
 10
4.67594
 20
6.85747
 30
0.0
 40
0
 41
0
  0
VERTEX
  8
0
 10
4.61322
 20
6.8469
 30
0.0
 40
0
 41
0
  0
VERTEX
  8
0
 10
4.59233
 20
6.8469
 30
0.0
 40
0
 41
0
  0
VERTEX
  8
0
 10
4.56646
 20
6.8469
 30
0.0
 40
0
 41
0
  0
VERTEX
  8
0
 10
4.48882
 20
6.86143
 30
0.0
 40
0
 41
0
  0
VERTEX
  8
0
 10
4.4075
 20
6.89535
 30
0.0
 40
0
 41
0
  0
VERTEX
  8
0
 10
4.39193
 20
6.905
 30
0.0
 40
0
 41
0
  0
VERTEX
  8
0
 10
4.37646
 20
6.91488
 30
0.0
 40
0
 41
0
  0
VERTEX
  8
0
 10
4.31028
 20
6.97108
 30
0.0
 40
0
 41
0
  0
VERTEX
  8
0
 10
4.2589
 20
7.03635
 30
0.0
 40
0
 41
0
  0
VERTEX
  8
0
 10
4.25087
 20
7.05072
 30
0.0
 40
0
 41
0
  0
VERTEX
  8
0
 10
4.24278
 20
7.06515
 30
0.0
 40
0
 41
0
  0
VERTEX
  8
0
 10
4.21158
 20
7.13932
 30
0.0
 40
0
 41
0
  0
VERTEX
  8
0
 10
4.19243
 20
7.2161
 30
0.0
 40
0
 41
0
  0
VERTEX
  8
0
 10
4.19043
 20
7.23182
 30
0.0
 40
0
 41
0
  0
VERTEX
  8
0
 10
4.18842
 20
7.24778
 30
0.0
 40
0
 41
0
  0
VERTEX
  8
0
 10
4.18137
 20
7.35113
 30
0.0
 40
0
 41
0
  0
VERTEX
  8
0
 10
4.17833
 20
7.47607
 30
0.0
 40
0
 41
0
  0
VERTEX
  8
0
 10
4.17833
 20
7.51768
 30
0.0
 40
0
 41
0
  0
VERTEX
  8
0
 10
4.17833
 20
8.06543
 30
0.0
 40
0
 41
0
  0
VERTEX
  8
0
 10
4.17833
 20
8.12244
 30
0.0
 40
0
 41
0
  0
VERTEX
  8
0
 10
4.18463
 20
8.29346
 30
0.0
 40
0
 41
0
  0
VERTEX
  8
0
 10
4.19928
 20
8.42925
 30
0.0
 40
0
 41
0
  0
VERTEX
  8
0
 10
4.2035
 20
8.44917
 30
0.0
 40
0
 41
0
  0
VERTEX
  8
0
 10
4.20665
 20
8.46414
 30
0.0
 40
0
 41
0
  0
VERTEX
  8
0
 10
4.22194
 20
8.50771
 30
0.0
 40
0
 41
0
  0
VERTEX
  8
0
 10
4.25211
 20
8.56364
 30
0.0
 40
0
 41
0
  0
VERTEX
  8
0
 10
4.29394
 20
8.61708
 30
0.0
 40
0
 41
0
  0
VERTEX
  8
0
 10
4.33339
 20
8.65608
 30
0.0
 40
0
 41
0
  0
VERTEX
  8
0
 10
4.34754
 20
8.66786
 30
0.0
 40
0
 41
0
  0
VERTEX
  8
0
 10
4.36751
 20
8.68457
 30
0.0
 40
0
 41
0
  0
VERTEX
  8
0
 10
4.48475
 20
8.74306
 30
0.0
 40
0
 41
0
  0
VERTEX
  8
0
 10
4.61376
 20
8.76807
 30
0.0
 40
0
 41
0
  0
VERTEX
  8
0
 10
4.65679
 20
8.76807
 30
0.0
 40
0
 41
0
  0
SEQEND
 8
0
  0
POLYLINE
  8
0
 62
     0
 66
     1
 10
0
 20
0
 30
0.0
 70
     1
 40
0
 41
0
  0
VERTEX
  8
0
 10
8.63362
 20
8.76807
 30
0.0
 40
0
 41
0
  0
VERTEX
  8
0
 10
8.67622
 20
8.76807
 30
0.0
 40
0
 41
0
  0
VERTEX
  8
0
 10
8.8041
 20
8.74642
 30
0.0
 40
0
 41
0
  0
VERTEX
  8
0
 10
8.92236
 20
8.6959
 30
0.0
 40
0
 41
0
  0
VERTEX
  8
0
 10
8.94288
 20
8.68147
 30
0.0
 40
0
 41
0
  0
VERTEX
  8
0
 10
8.95751
 20
8.67117
 30
0.0
 40
0
 41
0
  0
VERTEX
  8
0
 10
8.99892
 20
8.63618
 30
0.0
 40
0
 41
0
  0
VERTEX
  8
0
 10
9.04432
 20
8.58669
 30
0.0
 40
0
 41
0
  0
VERTEX
  8
0
 10
9.079
 20
8.5331
 30
0.0
 40
0
 41
0
  0
VERTEX
  8
0
 10
9.09836
 20
8.49024
 30
0.0
 40
0
 41
0
  0
VERTEX
  8
0
 10
9.10303
 20
8.47537
 30
0.0
 40
0
 41
0
  0
VERTEX
  8
0
 10
9.10921
 20
8.45568
 30
0.0
 40
0
 41
0
  0
VERTEX
  8
0
 10
9.13097
 20
8.32992
 30
0.0
 40
0
 41
0
  0
VERTEX
  8
0
 10
9.14031
 20
8.18024
 30
0.0
 40
0
 41
0
  0
VERTEX
  8
0
 10
9.14031
 20
8.13032
 30
0.0
 40
0
 41
0
  0
VERTEX
  8
0
 10
9.14031
 20
8.05063
 30
0.0
 40
0
 41
0
  0
VERTEX
  8
0
 10
8.71625
 20
8.05063
 30
0.0
 40
0
 41
0
  0
VERTEX
  8
0
 10
8.71625
 20
8.21799
 30
0.0
 40
0
 41
0
  0
VERTEX
  8
0
 10
8.71625
 20
8.23594
 30
0.0
 40
0
 41
0
  0
VERTEX
  8
0
 10
8.7155
 20
8.28976
 30
0.0
 40
0
 41
0
  0
VERTEX
  8
0
 10
8.71322
 20
8.34674
 30
0.0
 40
0
 41
0
  0
VERTEX
  8
0
 10
8.70942
 20
8.38889
 30
0.0
 40
0
 41
0
  0
VERTEX
  8
0
 10
8.70617
 20
8.40961
 30
0.0
 40
0
 41
0
  0
VERTEX
  8
0
 10
8.70415
 20
8.41618
 30
0.0
 40
0
 41
0
  0
VERTEX
  8
0
 10
8.7021
 20
8.42285
 30
0.0
 40
0
 41
0
  0
VERTEX
  8
0
 10
8.68375
 20
8.44607
 30
0.0
 40
0
 41
0
  0
VERTEX
  8
0
 10
8.65597
 20
8.456
 30
0.0
 40
0
 41
0
  0
VERTEX
  8
0
 10
8.64675
 20
8.456
 30
0.0
 40
0
 41
0
  0
VERTEX
  8
0
 10
8.63846
 20
8.456
 30
0.0
 40
0
 41
0
  0
VERTEX
  8
0
 10
8.61372
 20
8.44749
 30
0.0
 40
0
 41
0
  0
VERTEX
  8
0
 10
8.59571
 20
8.42757
 30
0.0
 40
0
 41
0
  0
VERTEX
  8
0
 10
8.59338
 20
8.42188
 30
0.0
 40
0
 41
0
  0
VERTEX
  8
0
 10
8.59104
 20
8.41629
 30
0.0
 40
0
 41
0
  0
VERTEX
  8
0
 10
8.58713
 20
8.39811
 30
0.0
 40
0
 41
0
  0
VERTEX
  8
0
 10
8.58274
 20
8.36094
 30
0.0
 40
0
 41
0
  0
VERTEX
  8
0
 10
8.58014
 20
8.31044
 30
0.0
 40
0
 41
0
  0
VERTEX
  8
0
 10
8.57926
 20
8.26247
 30
0.0
 40
0
 41
0
  0
VERTEX
  8
0
 10
8.57926
 20
8.24647
 30
0.0
 40
0
 41
0
  0
VERTEX
  8
0
 10
8.57926
 20
7.36165
 30
0.0
 40
0
 41
0
  0
VERTEX
  8
0
 10
8.57926
 20
7.33589
 30
0.0
 40
0
 41
0
  0
VERTEX
  8
0
 10
8.58274
 20
7.25857
 30
0.0
 40
0
 41
0
  0
VERTEX
  8
0
 10
8.59099
 20
7.20432
 30
0.0
 40
0
 41
0
  0
VERTEX
  8
0
 10
8.59338
 20
7.19764
 30
0.0
 40
0
 41
0
  0
VERTEX
  8
0
 10
8.59571
 20
7.19119
 30
0.0
 40
0
 41
0
  0
VERTEX
  8
0
 10
8.61447
 20
7.16862
 30
0.0
 40
0
 41
0
  0
VERTEX
  8
0
 10
8.6409
 20
7.15896
 30
0.0
 40
0
 41
0
  0
VERTEX
  8
0
 10
8.64974
 20
7.15896
 30
0.0
 40
0
 41
0
  0
VERTEX
  8
0
 10
8.6594
 20
7.15896
 30
0.0
 40
0
 41
0
  0
VERTEX
  8
0
 10
8.68853
 20
7.17008
 30
0.0
 40
0
 41
0
  0
VERTEX
  8
0
 10
8.70953
 20
7.19596
 30
0.0
 40
0
 41
0
  0
VERTEX
  8
0
 10
8.71224
 20
7.20335
 30
0.0
 40
0
 41
0
  0
VERTEX
  8
0
 10
8.71506
 20
7.21078
 30
0.0
 40
0
 41
0
  0
VERTEX
  8
0
 10
8.72504
 20
7.26888
 30
0.0
 40
0
 41
0
  0
VERTEX
  8
0
 10
8.72933
 20
7.34961
 30
0.0
 40
0
 41
0
  0
VERTEX
  8
0
 10
8.72933
 20
7.37646
 30
0.0
 40
0
 41
0
  0
VERTEX
  8
0
 10
8.72933
 20
7.59511
 30
0.0
 40
0
 41
0
  0
VERTEX
  8
0
 10
8.64372
 20
7.59511
 30
0.0
 40
0
 41
0
  0
VERTEX
  8
0
 10
8.64372
 20
7.87528
 30
0.0
 40
0
 41
0
  0
VERTEX
  8
0
 10
9.14031
 20
7.87528
 30
0.0
 40
0
 41
0
  0
VERTEX
  8
0
 10
9.14031
 20
6.88564
 30
0.0
 40
0
 41
0
  0
VERTEX
  8
0
 10
8.87338
 20
6.88564
 30
0.0
 40
0
 41
0
  0
VERTEX
  8
0
 10
8.8341
 20
7.01774
 30
0.0
 40
0
 41
0
  0
VERTEX
  8
0
 10
8.82687
 20
7.00353
 30
0.0
 40
0
 41
0
  0
VERTEX
  8
0
 10
8.78494
 20
6.94287
 30
0.0
 40
0
 41
0
  0
VERTEX
  8
0
 10
8.73535
 20
6.89626
 30
0.0
 40
0
 41
0
  0
VERTEX
  8
0
 10
8.72428
 20
6.88906
 30
0.0
 40
0
 41
0
  0
VERTEX
  8
0
 10
8.71337
 20
6.88206
 30
0.0
 40
0
 41
0
  0
VERTEX
  8
0
 10
8.65278
 20
6.85747
 30
0.0
 40
0
 41
0
  0
VERTEX
  8
0
 10
8.59006
 20
6.8469
 30
0.0
 40
0
 41
0
  0
VERTEX
  8
0
 10
8.56917
 20
6.8469
 30
0.0
 40
0
 41
0
  0
VERTEX
  8
0
 10
8.54329
 20
6.8469
 30
0.0
 40
0
 41
0
  0
VERTEX
  8
0
 10
8.46565
 20
6.86143
 30
0.0
 40
0
 41
0
  0
VERTEX
  8
0
 10
8.38428
 20
6.89535
 30
0.0
 40
0
 41
0
  0
VERTEX
  8
0
 10
8.36871
 20
6.905
 30
0.0
 40
0
 41
0
  0
VERTEX
  8
0
 10
8.35325
 20
6.91488
 30
0.0
 40
0
 41
0
  0
VERTEX
  8
0
 10
8.28711
 20
6.97108
 30
0.0
 40
0
 41
0
  0
VERTEX
  8
0
 10
8.23574
 20
7.03635
 30
0.0
 40
0
 41
0
  0
VERTEX
  8
0
 10
8.22771
 20
7.05072
 30
0.0
 40
0
 41
0
  0
VERTEX
  8
0
 10
8.21962
 20
7.06515
 30
0.0
 40
0
 41
0
  0
VERTEX
  8
0
 10
8.18837
 20
7.13932
 30
0.0
 40
0
 41
0
  0
VERTEX
  8
0
 10
8.16928
 20
7.2161
 30
0.0
 40
0
 41
0
  0
VERTEX
  8
0
 10
8.16726
 20
7.23182
 30
0.0
 40
0
 41
0
  0
VERTEX
  8
0
 10
8.16521
 20
7.24778
 30
0.0
 40
0
 41
0
  0
VERTEX
  8
0
 10
8.15815
 20
7.35113
 30
0.0
 40
0
 41
0
  0
VERTEX
  8
0
 10
8.15517
 20
7.47607
 30
0.0
 40
0
 41
0
  0
VERTEX
  8
0
 10
8.15517
 20
7.51768
 30
0.0
 40
0
 41
0
  0
VERTEX
  8
0
 10
8.15517
 20
8.06543
 30
0.0
 40
0
 41
0
  0
VERTEX
  8
0
 10
8.15517
 20
8.12244
 30
0.0
 40
0
 41
0
  0
VERTEX
  8
0
 10
8.16146
 20
8.29346
 30
0.0
 40
0
 41
0
  0
VERTEX
  8
0
 10
8.17611
 20
8.42925
 30
0.0
 40
0
 41
0
  0
VERTEX
  8
0
 10
8.18033
 20
8.44917
 30
0.0
 40
0
 41
0
  0
VERTEX
  8
0
 10
8.18349
 20
8.46414
 30
0.0
 40
0
 41
0
  0
VERTEX
  8
0
 10
8.19879
 20
8.50771
 30
0.0
 40
0
 41
0
  0
VERTEX
  8
0
 10
8.22894
 20
8.56364
 30
0.0
 40
0
 41
0
  0
VERTEX
  8
0
 10
8.27078
 20
8.61708
 30
0.0
 40
0
 41
0
  0
VERTEX
  8
0
 10
8.31022
 20
8.65608
 30
0.0
 40
0
 41
0
  0
VERTEX
  8
0
 10
8.32437
 20
8.66786
 30
0.0
 40
0
 41
0
  0
VERTEX
  8
0
 10
8.34435
 20
8.68457
 30
0.0
 40
0
 41
0
  0
VERTEX
  8
0
 10
8.46158
 20
8.74306
 30
0.0
 40
0
 41
0
  0
VERTEX
  8
0
 10
8.5906
 20
8.76807
 30
0.0
 40
0
 41
0
  0
VERTEX
  8
0
 10
8.63362
 20
8.76807
 30
0.0
 40
0
 41
0
  0
SEQEND
 8
0
  0
POLYLINE
  8
0
 62
     0
 66
     1
 10
0
 20
0
 30
0.0
 70
     1
 40
0
 41
0
  0
VERTEX
  8
0
 10
2.14962
 20
8.72933
 30
0.0
 40
0
 41
0
  0
VERTEX
  8
0
 10
2.76307
 20
8.72933
 30
0.0
 40
0
 41
0
  0
VERTEX
  8
0
 10
3.00581
 20
6.88564
 30
0.0
 40
0
 41
0
  0
VERTEX
  8
0
 10
2.57172
 20
6.88564
 30
0.0
 40
0
 41
0
  0
VERTEX
  8
0
 10
2.55057
 20
7.21701
 30
0.0
 40
0
 41
0
  0
VERTEX
  8
0
 10
2.39844
 20
7.21701
 30
0.0
 40
0
 41
0
  0
VERTEX
  8
0
 10
2.37326
 20
6.88564
 30
0.0
 40
0
 41
0
  0
VERTEX
  8
0
 10
1.93408
 20
6.88564
 30
0.0
 40
0
 41
0
  0
VERTEX
  8
0
 10
2.14962
 20
8.72933
 30
0.0
 40
0
 41
0
  0
SEQEND
 8
0
  0
POLYLINE
  8
0
 62
     0
 66
     1
 10
0
 20
0
 30
0.0
 70
     1
 40
0
 41
0
  0
VERTEX
  8
0
 10
3.0784
 20
8.72933
 30
0.0
 40
0
 41
0
  0
VERTEX
  8
0
 10
3.37853
 20
8.72933
 30
0.0
 40
0
 41
0
  0
VERTEX
  8
0
 10
3.4414
 20
8.72933
 30
0.0
 40
0
 41
0
  0
VERTEX
  8
0
 10
3.6301
 20
8.72282
 30
0.0
 40
0
 41
0
  0
VERTEX
  8
0
 10
3.76682
 20
8.70751
 30
0.0
 40
0
 41
0
  0
VERTEX
  8
0
 10
3.78444
 20
8.70313
 30
0.0
 40
0
 41
0
  0
VERTEX
  8
0
 10
3.79747
 20
8.69997
 30
0.0
 40
0
 41
0
  0
VERTEX
  8
0
 10
3.83529
 20
8.68494
 30
0.0
 40
0
 41
0
  0
VERTEX
  8
0
 10
3.88113
 20
8.65647
 30
0.0
 40
0
 41
0
  0
VERTEX
  8
0
 10
3.92193
 20
8.61774
 30
0.0
 40
0
 41
0
  0
VERTEX
  8
0
 10
3.94982
 20
8.58165
 30
0.0
 40
0
 41
0
  0
VERTEX
  8
0
 10
3.95774
 20
8.56874
 30
0.0
 40
0
 41
0
  0
VERTEX
  8
0
 10
3.96897
 20
8.55094
 30
0.0
 40
0
 41
0
  0
VERTEX
  8
0
 10
4.00831
 20
8.42958
 30
0.0
 40
0
 41
0
  0
VERTEX
  8
0
 10
4.02522
 20
8.27692
 30
0.0
 40
0
 41
0
  0
VERTEX
  8
0
 10
4.02522
 20
8.22597
 30
0.0
 40
0
 41
0
  0
VERTEX
  8
0
 10
4.02522
 20
8.18099
 30
0.0
 40
0
 41
0
  0
VERTEX
  8
0
 10
4.01335
 20
8.04606
 30
0.0
 40
0
 41
0
  0
VERTEX
  8
0
 10
3.98574
 20
7.94911
 30
0.0
 40
0
 41
0
  0
VERTEX
  8
0
 10
3.97786
 20
7.93674
 30
0.0
 40
0
 41
0
  0
VERTEX
  8
0
 10
3.97194
 20
7.92751
 30
0.0
 40
0
 41
0
  0
VERTEX
  8
0
 10
3.94846
 20
7.90343
 30
0.0
 40
0
 41
0
  0
VERTEX
  8
0
 10
3.90761
 20
7.87756
 30
0.0
 40
0
 41
0
  0
VERTEX
  8
0
 10
3.85531
 20
7.85906
 30
0.0
 40
0
 41
0
  0
VERTEX
  8
0
 10
3.80757
 20
7.84967
 30
0.0
 40
0
 41
0
  0
VERTEX
  8
0
 10
3.79156
 20
7.84793
 30
0.0
 40
0
 41
0
  0
VERTEX
  8
0
 10
3.8125
 20
7.84207
 30
0.0
 40
0
 41
0
  0
VERTEX
  8
0
 10
3.89681
 20
7.80664
 30
0.0
 40
0
 41
0
  0
VERTEX
  8
0
 10
3.95356
 20
7.76324
 30
0.0
 40
0
 41
0
  0
VERTEX
  8
0
 10
3.96078
 20
7.75336
 30
0.0
 40
0
 41
0
  0
VERTEX
  8
0
 10
3.96799
 20
7.74354
 30
0.0
 40
0
 41
0
  0
VERTEX
  8
0
 10
3.99576
 20
7.69646
 30
0.0
 40
0
 41
0
  0
VERTEX
  8
0
 10
4.01247
 20
7.6524
 30
0.0
 40
0
 41
0
  0
VERTEX
  8
0
 10
4.01417
 20
7.64404
 30
0.0
 40
0
 41
0
  0
VERTEX
  8
0
 10
4.016
 20
7.6359
 30
0.0
 40
0
 41
0
  0
VERTEX
  8
0
 10
4.02246
 20
7.55154
 30
0.0
 40
0
 41
0
  0
VERTEX
  8
0
 10
4.02522
 20
7.41683
 30
0.0
 40
0
 41
0
  0
VERTEX
  8
0
 10
4.02522
 20
7.3719
 30
0.0
 40
0
 41
0
  0
VERTEX
  8
0
 10
4.02522
 20
6.88564
 30
0.0
 40
0
 41
0
  0
VERTEX
  8
0
 10
3.63135
 20
6.88564
 30
0.0
 40
0
 41
0
  0
VERTEX
  8
0
 10
3.63135
 20
7.49826
 30
0.0
 40
0
 41
0
  0
VERTEX
  8
0
 10
3.63135
 20
7.51503
 30
0.0
 40
0
 41
0
  0
VERTEX
  8
0
 10
3.62999
 20
7.56526
 30
0.0
 40
0
 41
0
  0
VERTEX
  8
0
 10
3.62603
 20
7.61817
 30
0.0
 40
0
 41
0
  0
VERTEX
  8
0
 10
3.61942
 20
7.65696
 30
0.0
 40
0
 41
0
  0
VERTEX
  8
0
 10
3.6135
 20
7.67611
 30
0.0
 40
0
 41
0
  0
VERTEX
  8
0
 10
3.61019
 20
7.68164
 30
0.0
 40
0
 41
0
  0
VERTEX
  8
0
 10
3.60682
 20
7.68756
 30
0.0
 40
0
 41
0
  0
VERTEX
  8
0
 10
3.57319
 20
7.70817
 30
0.0
 40
0
 41
0
  0
VERTEX
  8
0
 10
3.52013
 20
7.71696
 30
0.0
 40
0
 41
0
  0
VERTEX
  8
0
 10
3.50244
 20
7.71696
 30
0.0
 40
0
 41
0
  0
VERTEX
  8
0
 10
3.50244
 20
6.88564
 30
0.0
 40
0
 41
0
  0
VERTEX
  8
0
 10
3.0784
 20
6.88564
 30
0.0
 40
0
 41
0
  0
VERTEX
  8
0
 10
3.0784
 20
8.72933
 30
0.0
 40
0
 41
0
  0
SEQEND
 8
0
  0
POLYLINE
  8
0
 62
     0
 66
     1
 10
0
 20
0
 30
0.0
 70
     1
 40
0
 41
0
  0
VERTEX
  8
0
 10
5.32064
 20
8.72933
 30
0.0
 40
0
 41
0
  0
VERTEX
  8
0
 10
5.74468
 20
8.72933
 30
0.0
 40
0
 41
0
  0
VERTEX
  8
0
 10
5.74468
 20
7.34685
 30
0.0
 40
0
 41
0
  0
VERTEX
  8
0
 10
5.74468
 20
7.3221
 30
0.0
 40
0
 41
0
  0
VERTEX
  8
0
 10
5.74744
 20
7.24778
 30
0.0
 40
0
 41
0
  0
VERTEX
  8
0
 10
5.7539
 20
7.19764
 30
0.0
 40
0
 41
0
  0
VERTEX
  8
0
 10
5.75575
 20
7.19194
 30
0.0
 40
0
 41
0
  0
VERTEX
  8
0
 10
5.75776
 20
7.18647
 30
0.0
 40
0
 41
0
  0
VERTEX
  8
0
 10
5.77365
 20
7.16726
 30
0.0
 40
0
 41
0
  0
VERTEX
  8
0
 10
5.79574
 20
7.15896
 30
0.0
 40
0
 41
0
  0
VERTEX
  8
0
 10
5.80311
 20
7.15896
 30
0.0
 40
0
 41
0
  0
VERTEX
  8
0
 10
5.81136
 20
7.15896
 30
0.0
 40
0
 41
0
  0
VERTEX
  8
0
 10
5.8361
 20
7.16808
 30
0.0
 40
0
 41
0
  0
VERTEX
  8
0
 10
5.85265
 20
7.18935
 30
0.0
 40
0
 41
0
  0
VERTEX
  8
0
 10
5.85449
 20
7.19536
 30
0.0
 40
0
 41
0
  0
VERTEX
  8
0
 10
5.85644
 20
7.20144
 30
0.0
 40
0
 41
0
  0
VERTEX
  8
0
 10
5.85975
 20
7.22043
 30
0.0
 40
0
 41
0
  0
VERTEX
  8
0
 10
5.86356
 20
7.25803
 30
0.0
 40
0
 41
0
  0
VERTEX
  8
0
 10
5.86583
 20
7.30817
 30
0.0
 40
0
 41
0
  0
VERTEX
  8
0
 10
5.8666
 20
7.35514
 30
0.0
 40
0
 41
0
  0
VERTEX
  8
0
 10
5.8666
 20
7.37076
 30
0.0
 40
0
 41
0
  0
VERTEX
  8
0
 10
5.8666
 20
8.72933
 30
0.0
 40
0
 41
0
  0
VERTEX
  8
0
 10
6.29064
 20
8.72933
 30
0.0
 40
0
 41
0
  0
VERTEX
  8
0
 10
6.29064
 20
7.49718
 30
0.0
 40
0
 41
0
  0
VERTEX
  8
0
 10
6.29064
 20
7.45258
 30
0.0
 40
0
 41
0
  0
VERTEX
  8
0
 10
6.2876
 20
7.31868
 30
0.0
 40
0
 41
0
  0
VERTEX
  8
0
 10
6.28054
 20
7.21647
 30
0.0
 40
0
 41
0
  0
VERTEX
  8
0
 10
6.27854
 20
7.20221
 30
0.0
 40
0
 41
0
  0
VERTEX
  8
0
 10
6.27653
 20
7.18821
 30
0.0
 40
0
 41
0
  0
VERTEX
  8
0
 10
6.25461
 20
7.11654
 30
0.0
 40
0
 41
0
  0
VERTEX
  8
0
 10
6.2169
 20
7.04303
 30
0.0
 40
0
 41
0
  0
VERTEX
  8
0
 10
6.20703
 20
7.028
 30
0.0
 40
0
 41
0
  0
VERTEX
  8
0
 10
6.1971
 20
7.01318
 30
0.0
 40
0
 41
0
  0
VERTEX
  8
0
 10
6.13803
 20
6.94971
 30
0.0
 40
0
 41
0
  0
VERTEX
  8
0
 10
6.06619
 20
6.90028
 30
0.0
 40
0
 41
0
  0
VERTEX
  8
0
 10
6.04992
 20
6.89247
 30
0.0
 40
0
 41
0
  0
VERTEX
  8
0
 10
6.03381
 20
6.88488
 30
0.0
 40
0
 41
0
  0
VERTEX
  8
0
 10
5.94439
 20
6.85829
 30
0.0
 40
0
 41
0
  0
VERTEX
  8
0
 10
5.852
 20
6.8469
 30
0.0
 40
0
 41
0
  0
VERTEX
  8
0
 10
5.82124
 20
6.8469
 30
0.0
 40
0
 41
0
  0
VERTEX
  8
0
 10
5.78683
 20
6.8469
 30
0.0
 40
0
 41
0
  0
VERTEX
  8
0
 10
5.68371
 20
6.86057
 30
0.0
 40
0
 41
0
  0
VERTEX
  8
0
 10
5.58197
 20
6.89247
 30
0.0
 40
0
 41
0
  0
VERTEX
  8
0
 10
5.56337
 20
6.90158
 30
0.0
 40
0
 41
0
  0
VERTEX
  8
0
 10
5.54471
 20
6.91069
 30
0.0
 40
0
 41
0
  0
VERTEX
  8
0
 10
5.46565
 20
6.96451
 30
0.0
 40
0
 41
0
  0
VERTEX
  8
0
 10
5.40539
 20
7.02929
 30
0.0
 40
0
 41
0
  0
VERTEX
  8
0
 10
5.39615
 20
7.04389
 30
0.0
 40
0
 41
0
  0
VERTEX
  8
0
 10
5.38688
 20
7.05854
 30
0.0
 40
0
 41
0
  0
VERTEX
  8
0
 10
5.35206
 20
7.1339
 30
0.0
 40
0
 41
0
  0
VERTEX
  8
0
 10
5.33236
 20
7.21229
 30
0.0
 40
0
 41
0
  0
VERTEX
  8
0
 10
5.33068
 20
7.2284
 30
0.0
 40
0
 41
0
  0
VERTEX
  8
0
 10
5.32904
 20
7.24397
 30
0.0
 40
0
 41
0
  0
VERTEX
  8
0
 10
5.32628
 20
7.29081
 30
0.0
 40
0
 41
0
  0
VERTEX
  8
0
 10
5.32314
 20
7.37989
 30
0.0
 40
0
 41
0
  0
VERTEX
  8
0
 10
5.32124
 20
7.49576
 30
0.0
 40
0
 41
0
  0
VERTEX
  8
0
 10
5.32064
 20
7.60275
 30
0.0
 40
0
 41
0
  0
VERTEX
  8
0
 10
5.32064
 20
7.6384
 30
0.0
 40
0
 41
0
  0
VERTEX
  8
0
 10
5.32064
 20
8.72933
 30
0.0
 40
0
 41
0
  0
SEQEND
 8
0
  0
POLYLINE
  8
0
 62
     0
 66
     1
 10
0
 20
0
 30
0.0
 70
     1
 40
0
 41
0
  0
VERTEX
  8
0
 10
6.45481
 20
8.72933
 30
0.0
 40
0
 41
0
  0
VERTEX
  8
0
 10
6.8789
 20
8.72933
 30
0.0
 40
0
 41
0
  0
VERTEX
  8
0
 10
6.8789
 20
6.88564
 30
0.0
 40
0
 41
0
  0
VERTEX
  8
0
 10
6.45481
 20
6.88564
 30
0.0
 40
0
 41
0
  0
VERTEX
  8
0
 10
6.45481
 20
8.72933
 30
0.0
 40
0
 41
0
  0
SEQEND
 8
0
  0
POLYLINE
  8
0
 62
     0
 66
     1
 10
0
 20
0
 30
0.0
 70
     1
 40
0
 41
0
  0
VERTEX
  8
0
 10
7.05117
 20
8.72933
 30
0.0
 40
0
 41
0
  0
VERTEX
  8
0
 10
7.40571
 20
8.72933
 30
0.0
 40
0
 41
0
  0
VERTEX
  8
0
 10
7.64344
 20
7.89914
 30
0.0
 40
0
 41
0
  0
VERTEX
  8
0
 10
7.64344
 20
8.72933
 30
0.0
 40
0
 41
0
  0
VERTEX
  8
0
 10
7.99804
 20
8.72933
 30
0.0
 40
0
 41
0
  0
VERTEX
  8
0
 10
7.99804
 20
6.88564
 30
0.0
 40
0
 41
0
  0
VERTEX
  8
0
 10
7.62636
 20
6.88564
 30
0.0
 40
0
 41
0
  0
VERTEX
  8
0
 10
7.40571
 20
7.72379
 30
0.0
 40
0
 41
0
  0
VERTEX
  8
0
 10
7.40571
 20
6.88564
 30
0.0
 40
0
 41
0
  0
VERTEX
  8
0
 10
7.05117
 20
6.88564
 30
0.0
 40
0
 41
0
  0
VERTEX
  8
0
 10
7.05117
 20
8.72933
 30
0.0
 40
0
 41
0
  0
SEQEND
 8
0
  0
POLYLINE
  8
0
 62
     0
 66
     1
 10
0
 20
0
 30
0.0
 70
     1
 40
0
 41
0
  0
VERTEX
  8
0
 10
3.50244
 20
8.4139
 30
0.0
 40
0
 41
0
  0
VERTEX
  8
0
 10
3.50244
 20
8.0039
 30
0.0
 40
0
 41
0
  0
VERTEX
  8
0
 10
3.51758
 20
8.0039
 30
0.0
 40
0
 41
0
  0
VERTEX
  8
0
 10
3.5631
 20
8.00933
 30
0.0
 40
0
 41
0
  0
VERTEX
  8
0
 10
3.59744
 20
8.02197
 30
0.0
 40
0
 41
0
  0
VERTEX
  8
0
 10
3.60215
 20
8.02556
 30
0.0
 40
0
 41
0
  0
VERTEX
  8
0
 10
3.60622
 20
8.02875
 30
0.0
 40
0
 41
0
  0
VERTEX
  8
0
 10
3.6149
 20
8.04318
 30
0.0
 40
0
 41
0
  0
VERTEX
  8
0
 10
3.62403
 20
8.07314
 30
0.0
 40
0
 41
0
  0
VERTEX
  8
0
 10
3.6295
 20
8.11546
 30
0.0
 40
0
 41
0
  0
VERTEX
  8
0
 10
3.63135
 20
8.15653
 30
0.0
 40
0
 41
0
  0
VERTEX
  8
0
 10
3.63135
 20
8.17019
 30
0.0
 40
0
 41
0
  0
VERTEX
  8
0
 10
3.63135
 20
8.27154
 30
0.0
 40
0
 41
0
  0
VERTEX
  8
0
 10
3.63135
 20
8.28971
 30
0.0
 40
0
 41
0
  0
VERTEX
  8
0
 10
3.62429
 20
8.34412
 30
0.0
 40
0
 41
0
  0
VERTEX
  8
0
 10
3.60786
 20
8.382
 30
0.0
 40
0
 41
0
  0
VERTEX
  8
0
 10
3.60319
 20
8.38656
 30
0.0
 40
0
 41
0
  0
VERTEX
  8
0
 10
3.59864
 20
8.39111
 30
0.0
 40
0
 41
0
  0
VERTEX
  8
0
 10
3.56435
 20
8.40707
 30
0.0
 40
0
 41
0
  0
VERTEX
  8
0
 10
3.5179
 20
8.4139
 30
0.0
 40
0
 41
0
  0
VERTEX
  8
0
 10
3.50244
 20
8.4139
 30
0.0
 40
0
 41
0
  0
SEQEND
 8
0
  0
POLYLINE
  8
0
 62
     0
 66
     1
 10
0
 20
0
 30
0.0
 70
     1
 40
0
 41
0
  0
VERTEX
  8
0
 10
2.47401
 20
8.31706
 30
0.0
 40
0
 41
0
  0
VERTEX
  8
0
 10
2.46647
 20
8.25549
 30
0.0
 40
0
 41
0
  0
VERTEX
  8
0
 10
2.44476
 20
8.07064
 30
0.0
 40
0
 41
0
  0
VERTEX
  8
0
 10
2.42156
 20
7.8596
 30
0.0
 40
0
 41
0
  0
VERTEX
  8
0
 10
2.40446
 20
7.68403
 30
0.0
 40
0
 41
0
  0
VERTEX
  8
0
 10
2.39567
 20
7.57894
 30
0.0
 40
0
 41
0
  0
VERTEX
  8
0
 10
2.39339
 20
7.54383
 30
0.0
 40
0
 41
0
  0
VERTEX
  8
0
 10
2.53847
 20
7.54383
 30
0.0
 40
0
 41
0
  0
VERTEX
  8
0
 10
2.5331
 20
7.59608
 30
0.0
 40
0
 41
0
  0
VERTEX
  8
0
 10
2.50624
 20
7.89378
 30
0.0
 40
0
 41
0
  0
VERTEX
  8
0
 10
2.47939
 20
8.2404
 30
0.0
 40
0
 41
0
  0
VERTEX
  8
0
 10
2.47401
 20
8.31706
 30
0.0
 40
0
 41
0
  0
SEQEND
 8
0
  0
ENDSEC
  0
EOF
