<?xml version="1.0" encoding="utf-8"?>
<!-- Generator: Adobe Illustrator 24.1.2, SVG Export Plug-In . SVG Version: 6.00 Build 0)  -->
<svg version="1.1" id="katman_1" xmlns="http://www.w3.org/2000/svg" xmlns:xlink="http://www.w3.org/1999/xlink" x="0px" y="0px"
	 viewBox="0 0 641.51 984.31" style="enable-background:new 0 0 641.51 984.31;" xml:space="preserve">
<style type="text/css">
	.st0{fill:#000100;}
	.st1{fill:#010101;}
	.st2{fill:#72B25F;}
	.st3{fill:#73B25F;}
	.st4{fill:#FAFAFA;}
	.st5{fill:#47FEF0;}
	.st6{fill:#F7001D;}
	.st7{fill:#F5001D;}
	.st8{fill:#F1001C;}
</style>
<g>
	<path class="st0" d="M641.49,598.53c0.05-5.41,0.11-10.83-1.01-16.16c-3.96-18.69-8.49-37.25-13.58-55.66
		c-9.14-33.05-18.32-66.08-26.74-99.32c-4.7-18.57-14.36-34.13-30.25-45.22c-11.94-8.34-20.55-19.22-26.66-32.29
		c-4.22-9.03-7.39-18.47-11.08-27.72c-3.78-9.49-9.38-17.5-19.1-21.65c-13.67-5.84-26.9-4.57-39.58,3.11
		c-6.49,3.93-11.73,9.22-16.73,15.54c-0.22-1.05-0.37-1.52-0.42-2c-2.07-18.26-4.15-36.51-6.99-54.67
		c-3.17-20.29-6.94-40.45-12.62-60.21c-2.98-10.39-7.03-20.26-14.33-28.45c-9.62-10.78-21.48-15.56-35.8-12.24
		c-11.38,2.64-19.08,10.07-23.9,20.52c-1.77,3.83-4.54,5.62-8.7,5.93c-5.94,0.45-11.59,2.09-16.79,5.08
		c-10.86,6.24-16.81,16.02-19.81,27.83c-2.95,11.59-5.75,23.22-8.6,34.83c-0.68,2.78-1.05,3.09-2.84,1.8
		c-10.83-7.78-22.69-13.8-34.3-20.26c-27.67-15.38-55.19-30.96-80.96-49.46c-8.03-5.76-17.29-3.67-22.88,4.76
		c-4.54,6.86-8.81,13.89-12.83,21.07c-3.98,7.1-3.45,13.08,1.79,19.32c2.67,3.18,5.43,6.31,8.32,9.29
		c7.85,8.08,16.67,14.7,27.57,18.25c5.3,1.72,10.31,4.2,15,7.2c19.52,12.51,39,25.07,58.49,37.62c6.5,4.18,13.02,8.33,19.47,12.57
		c4.9,3.22,5.76,5.84,4.01,11.46c-0.84,2.69-1.76,5.37-2.58,8.07c-5.94,19.37-10.24,39.06-11.53,59.33
		c-0.99,15.6,0.94,31.08,2.11,46.58c0.64,8.46,1.45,16.9,2.18,25.35c0.24,2.81,0,5.57-1.81,7.83c-5.06,6.36-8.7,13.54-12.31,20.73
		c-10.21,20.31-21.24,40.21-30.37,61.06c-4.44,10.14-11.12,18.82-20.21,25.22c-8.61,6.06-16.48,12.89-24.11,20.11
		c-9.7,9.19-17.52,19.53-21.56,32.43c-4.6,14.65-3.76,29.28,0.73,43.71c7.8,25.04,14.9,50.29,22.25,75.47
		c10.26,35.15,23.69,69.01,41.38,101.14c7.47,13.57,16.53,26.1,24.73,39.19c12.66,20.18,21.1,41.92,23.79,65.71
		c0.84,7.41,5.2,11.99,12.53,12.95c8.08,1.06,16.18,2.02,24.23,3.28c18.5,2.9,37.04,5.34,55.76,6.25
		c16.65,0.81,33.29,0.81,49.85-1.22c19.48-2.38,38.95-4.86,58.35-7.84c17.59-2.7,34.98-6.24,51.74-12.43
		c10.23-3.78,19.72-8.77,27.6-16.48c2.98-2.92,4.11-6.51,3.19-10.49c-3.71-16.2-2.8-32.37-0.05-48.56
		c3.02-17.76,8.59-34.78,15.01-51.56c8.36-21.87,16.4-43.85,21.9-66.66c4.41-18.28,6.71-36.95,10.34-55.37
		c4.43-22.5,9.54-44.83,16.36-66.76c2.51-8.09,6.13-15.78,8.29-23.97c0.63-2.4,0.5-5.4,1.92-7.12c2.77-3.37,1.94-6.95,2-10.57
		C641.38,602.68,641.47,600.61,641.49,598.53z M377.61,459.07c-0.76,6.33-1.98,20.08-10.75,20.39c-3.55,0.13-3.53-5.38,0-5.5
		c0.2-0.01,0.62-0.2,0.71-0.27c0.59-0.54,0.79-0.83,1.22-1.57c0.96-1.67,1.49-3.55,1.96-5.41c2.12-8.48,2.33-17.49,2.42-26.2
		c0.06-5.72-0.38-11.31-1.4-16.95c-1.43-7.87-3.24-15.7-3.31-23.74c-0.03-3.55,5.47-3.54,5.5,0c0.09,10.09,3.07,19.79,4.26,29.75
		C379.36,439.2,378.77,449.48,377.61,459.07z M511.31,546.52c-0.1,4.07-0.59,7.89-3.14,11.17c-1.02,1.32-2.2,2.51-3.11,3.91
		c-0.88,1.37-1.38,2.91-2.2,4.3c-4.25,7.25-12.79-2.32-15.41-6.34c-2.42-3.72-4.15-7.76-4.7-12.19c-0.61-4.89,0.03-9.79-0.05-14.7
		c-0.16-9.8-5.38-17.81-8.35-26.84c-1.59-4.83-2.28-10.09-2.92-15.11c-0.53-4.15-1.01-8.35-0.75-12.54
		c0.07-1.21,0.16-2.42,0.24-3.63c-0.19-5.02-0.97-9.97-1.66-14.93c-0.08-0.1-0.17-0.19-0.26-0.28c-1.12-1.11-0.97-2.5-0.23-3.48
		c-0.25-2.11-0.46-4.23-0.57-6.35c-0.09-1.75,1.21-2.63,2.57-2.65c0.39-0.1,0.83-0.11,1.31,0c4.61,1.03,9.31-1.48,13.82,0.73
		c4.07,2,5.34,6.05,5.58,10.28c0.64,10.96,3.58,21.77,6.39,32.37c2.48,9.35,6.36,18.22,9.24,27.43
		C510,526.89,511.54,536.83,511.31,546.52z"/>
	<path d="M134.29,184.95c-4.04,1.84-7.85,3.64-11.72,5.31c-2.84,1.23-5.75,2.09-8.95,1.36c-2.33-0.52-4.28-1.59-5.43-3.62
		c-2.22-3.93-5.57-4.78-9.75-4.3c-13.33,1.53-26.56,1.31-39.51-2.73c-0.71-0.22-1.43-0.44-2.13-0.68c-4.46-1.55-5.54-0.93-7.51,3.29
		c-4.16,8.93,3.15,20.7,13.86,21.42c3.65,0.25,7.11-0.42,10.51-1.64c0.86-0.31,1.7-0.66,2.56-0.98c5.85-2.19,8.06-0.94,9.22,5.22
		c2.06,10.93,12.36,20.2,24.14,21.88c7.18,1.02,13.9,0.01,20.05-3.97c1.11-0.72,2.26-1.29,3.26,0.12c1.02,1.43,0.56,2.62-0.69,3.68
		c-5.83,4.99-12.73,5.77-19.96,5.01c-10.8-1.13-19.48-6.17-26.34-14.54c-2.76-3.37-4.3-7.28-5.29-11.41
		c-0.53-2.21-1.5-2.38-3.37-1.66c-5.25,2.01-10.59,3.36-16.32,2.31c-13.29-2.44-20.34-14.48-15.71-27.17
		c2.09-5.75,2.77-4.81-2.6-8.72c-10.1-7.37-14.18-17.31-12.18-29.63c2.03-12.53,6.69-23.66,17.49-31.3
		c6.7-4.74,14.41-6.62,22.39-7.7c10.24-1.39,20.41-0.68,30.54,1.07c4.57,0.79,5.35,0.34,7.14-4.02
		c3.81-9.28,10.07-16.12,19.58-19.76c5.18-1.98,10.57-2.42,15.97-1.58c8.41,1.31,13.57,6.88,17.26,14.07
		c1.05,2.06,1.84,4.26,2.6,6.45c1.12,3.21,1.07,3.25,4.39,1.97c7.04-2.71,14.24-4.48,21.87-4.31c8.12,0.19,15.44,2.44,21.29,8.27
		c7.59,7.56,9.06,18.44,4.12,29.07c-4.33,9.33-11.46,15.99-20.21,21.1c-1.41,0.82-2.68,0.93-3.59-0.71
		c-0.96-1.73,0.11-2.58,1.45-3.36c7.24-4.22,13.32-9.63,17.44-17.05c7.66-13.82,0.65-29.67-14.44-32.1
		c-11.68-1.89-22.68,0.17-32.53,7.08c-0.41,0.29-0.81,0.58-1.22,0.86c-0.99,0.65-2.02,0.76-3.05,0.14
		c-1.13-0.68-1.12-1.78-0.85-2.88c0.46-1.86,0.79-3.74,0.67-5.66c-0.8-12.8-12.22-21.16-25.2-18.46
		c-11.9,2.48-20.44,11.99-21.74,24.21c-0.56,5.3-0.87,5.48-5.67,3.22c-9.33-4.4-19.14-5.18-29.23-3.97
		c-6.28,0.75-12.54,1.49-18.48,3.87c-16.71,6.71-26.91,25.83-22.98,43c1.8,7.86,6.74,13.2,13.65,16.88
		c12.51,6.67,25.91,9.12,39.99,8.27c5.49-0.33,10.92-1.01,16.31-2.13c3.33-0.69,4.38-0.11,5.97,2.96c3.11,6,7.03,7.14,12.82,3.64
		c1.63-0.99,3.11-2.22,4.65-3.35c0.94-0.69,1.82-1.47,2.8-2.08c1.99-1.23,4.13-2.7,6.45-1.14c2.4,1.62,2.02,4.21,1.38,6.59
		c-1.31,4.85-0.29,9.42,1.63,13.84c1.56,3.58,4.6,5.32,8.37,5.9c0.49,0.08,1.01,0.04,1.49,0.15c1.1,0.25,2.08,0.6,2,2.07
		c-0.07,1.39-0.92,1.8-2.1,2.01c-4.82,0.84-9.85-1.61-12.67-6.21c-2.8-4.56-3.19-9.72-3.72-14.85
		C134.35,186.8,134.34,185.99,134.29,184.95z"/>
	<path d="M89.04,18.12c-0.16-2.7-0.14-5.12-0.47-7.5c-0.47-3.43-2.09-4.9-5.51-5.44C76.58,4.18,71.04,7,68.14,13.5
		c-3.03,6.78-3.26,5.84-9.06,3.18c-15.02-6.88-35.81-2.62-46.89,9.58c-6.8,7.49-8.07,16.48-6.84,26.11
		c1.19,9.27,5.62,16.2,14.46,19.89c2.86,1.19,5.87,1.78,8.98,1.82c1.59,0.02,3.14,0.27,3.02,2.39c-0.12,2.16-1.52,2.77-3.46,2.54
		C17.08,77.66,8.11,72.87,3.15,62.1c-0.27-0.59-0.39-1.57-1.1-1.5c-2.57,0.25-1.99-1.52-1.99-2.9c-0.01-6.83,0.01-13.66-0.02-20.49
		c-0.01-1.39,0.04-2.62,1.51-3.38c0.74-0.38,1.11-1.21,1.44-1.99C7.68,20.81,16.38,14.63,27.6,11.51
		c10.15-2.82,20.28-3.2,30.46-0.06c4.14,1.28,5.56,0.66,7.93-2.98C67.84,5.63,71,3.83,72.26,0.5c0.29-0.76,1.19-0.42,1.82-0.43
		c4.33-0.02,8.66,0.05,12.99-0.04c1.53-0.03,2.32,0.48,2.59,1.98c0.13,0.73,0.46,1.42,0.71,2.12c1.67,4.7,3.31,6.07,8.3,5.8
		c12.2-0.65,18.28,8.41,18.28,18.34c0,2.84-0.25,5.65-0.48,8.46c-0.05,0.6-0.36,1.41,0.46,1.76c0.67,0.28,1.31-0.05,1.87-0.43
		c0.48-0.32,0.98-0.65,1.36-1.08c7.71-8.81,17.77-13.11,28.99-15.21c14.55-2.73,28.62-1.58,41.97,5.29
		c18.03,9.28,30.28,33.39,20.02,55.82c-0.49,1.06-0.82,2.22-2.27,2.34c-2.16,0.18-3.35-1.55-2.31-3.6c2.42-4.76,3.7-9.79,3.76-15.11
		c0.18-17.7-12.24-33.96-30.05-39.43c-22.04-6.77-45.7,0.44-60.17,18.34c-2.74,3.39-3.3,3.49-7.02,1.25
		c-18.52-11.18-45.09-6.62-58.11,9.99c-8.47,10.8-8.66,22.85-0.56,34.31c0.24,0.34,0.48,0.68,0.74,1c0.88,1.11,1.63,2.3,0.3,3.5
		c-1.38,1.24-2.62,0.47-3.68-0.61c-7.41-7.57-9.33-16.6-7.02-26.71c3.23-14.18,12.87-22.6,25.61-28.13
		c10.89-4.73,22.11-5.64,33.64-2.69c6.62,1.69,8.32,0.45,8.7-6.31c0.12-2.16,0.08-4.34-0.48-6.45c-1.84-7-7.58-10.33-15.25-8.91
		C94.33,16.16,91.84,17.08,89.04,18.12z"/>
	<path d="M217.85,186.49c-1.08-0.12-3.15-0.32-5.21-0.58c-1.7-0.21-2.52-1.18-2.23-2.92c0.28-1.68,1.45-1.81,2.81-1.55
		c3.9,0.74,7.78,0.73,11.58-0.56c7.96-2.7,12.61-10.55,11.38-19.14c-0.15-1.07-0.23-2.15-0.41-3.22c-0.39-2.31,0.48-4.04,2.36-5.35
		c1.5-1.04,3.06-2.02,4.45-3.2c7.19-6.12,8.67-13.88,6.05-22.59c-2.58-8.55-8.49-13.44-17.28-14.86c-0.98-0.16-1.99-0.16-2.98-0.26
		c-1.39-0.13-2.66-0.29-2.58-2.24c0.08-2,1.31-2.33,2.86-2.22c11.57,0.82,21.92,6.84,25.25,20.58c2.31,9.52,0.05,17.55-7.37,24.09
		c-3.83,3.38-5.53,7.78-5.65,12.85C240.58,177.75,231.41,186.55,217.85,186.49z"/>
	<path d="M9.26,145.66c0.71-14.87,6.16-27.59,17.08-37.83c0.73-0.68,1.48-1.34,2.24-1.98c1.34-1.14,2.58-0.94,3.69,0.36
		c1.1,1.3,0.42,2.3-0.6,3.19c-2.57,2.25-5,4.64-7.17,7.28c-9.12,11.05-12.2,23.74-10.27,37.79c0.17,1.23,0.38,2.47,0.46,3.71
		c0.08,1.28-0.31,2.33-1.8,2.53c-1.45,0.19-2.19-0.58-2.4-1.91C9.78,154.44,9.09,150.09,9.26,145.66z"/>
	<path d="M226.31,69.85c-0.3-11.77-1.44-23.37-6.97-34.07c-1.34-2.59-2.83-5.07-4.82-7.22c-1.07-1.15-2.01-2.42-0.43-3.83
		c1.69-1.5,3.12-0.68,4.22,0.79c4.43,5.9,7.57,12.46,9.47,19.58c3.07,11.54,3.05,23.33,2.63,35.14c-0.05,1.42-0.76,2.24-2.14,2.17
		c-1.35-0.07-2.01-0.87-1.98-2.32C226.36,76.67,226.31,73.26,226.31,69.85z"/>
	<path class="st1" d="M117.24,249.56c-2.32-0.07-5.1-0.58-7.86-1.15c-1.83-0.37-2.39-1.71-1.88-3.41c0.5-1.69,1.73-1.71,3.2-1.24
		c7.22,2.33,13.9,1.1,20.12-3.1c1.3-0.88,2.73-1.69,3.89,0.04c1.13,1.67-0.04,2.75-1.34,3.68
		C128.69,247.71,123.45,249.29,117.24,249.56z"/>
	<path class="st2" d="M284.45,890.04c-3.52,2.12-6.48,3.93-9.46,5.7c-1,0.59-2.02,1.17-3.09,1.61c-2.9,1.19-4.75,0.74-6.48-1.83
		c-1.34-1.99-2.53-4.11-3.57-6.27c-1.13-2.34-0.64-3.32,1.89-4.02c4.03-1.1,7.47-3.2,10.56-5.93c0.54-0.48,1.36-1.02,0.91-1.83
		c-0.36-0.65-1.21-0.32-1.85-0.25c-2.32,0.28-4.17,1.62-6.06,2.8c-7.01,4.36-8.87,3.93-13.02-3.13c-3.14-5.33-3.14-5.34,2.28-8.04
		c4.82-2.4,8.95-5.73,12.81-9.43c0.39-0.38,0.66-0.89,1.16-1.56c-2.88-0.42-4.92,0.79-6.79,2.26c-3.14,2.47-6.2,5.04-9.91,6.66
		c-3.66,1.6-5.15,1.18-7.35-2.12c-4.11-6.17-3.93-6.98,2.43-10.63c4.71-2.71,7.04-5.44,8.03-9.55c-2.06-0.01-3.34,1.23-4.54,2.53
		c-1.64,1.79-3.33,3.5-5.48,4.67c-4.17,2.28-6.92,1.61-9.52-2.4c-4.44-6.85-8.01-14.17-11.47-21.54
		c-12.73-27.14-21.62-55.66-29.98-84.36c-2.99-10.28-5.84-20.6-8.78-30.9c-1.35-4.73-0.75-6.33,3.64-8.71
		c9.41-5.09,19.58-7.7,30.14-8.92c12.66-1.45,25.4-1.58,38.09-2.54c3.23-0.24,6.49-0.44,9.68-0.96c10.02-1.62,18.43,1.88,26.17,7.84
		c18.52,14.29,33.34,31.71,44.42,52.31c0.75,1.39,1.39,2.84,2.03,4.28c0.9,1.99,2.37,3.12,4.85,3.25
		c-1.49-4.09-3.61-7.72-5.63-11.37c-12.99-23.53-30.4-42.98-53.12-57.52c-0.53-0.34-1.45-0.54-1.41-1.24
		c0.05-0.82,1.02-1.01,1.67-1.27c5.4-2.16,10.76-4.38,15.65-7.6c6.28-4.13,11.54-9.24,15.64-15.55c4.25-6.54,10.3-7.48,16.26-2.43
		c8.72,7.4,17.98,13.96,28.25,19.08c5.18,2.58,7.36,6.73,6.24,13.14c-1.45,8.28-0.89,16.58-1.01,24.86
		c-0.21,13.93,1.08,27.75,4.64,41.27c2.42,9.17,5.48,18.12,10.35,26.34c0.41,0.68,0.64,1.52,1.76,2.02
		c-1.62-4.75-3.15-9.28-4.7-13.81c-4.78-13.91-7.5-28.18-8.54-42.87c-0.35-4.87,0.24-9.6,0.2-14.39c-0.05-6.48-1.3-12.97,0.05-19.46
		c0.3-1.45,0.18-2.99,0.36-4.48c0.42-3.62,1.94-4.56,5.44-3.55c3.06,0.89,5.81,2.43,8.6,3.9c7.95,4.19,16.18,7.72,24.77,10.4
		c4.62,1.44,5.28,2.38,5.6,7.3c0.73,11.31,3.48,22.09,8.08,32.45c4.93,11.09,12.35,20.49,20,29.72
		c16.8,20.27,36.05,37.8,58.58,51.57c12.73,7.78,26.52,12.5,41.35,14.31c6.76,0.83,13.49,1.94,20.22,3.03
		c3.43,0.55,4.19,2.07,3.04,5.83c-2.06,6.75-4.14,13.49-5.91,20.32c-4.29,16.59-6.75,33.39-6.17,50.57c0.11,3.26-1.24,5.76-3.8,7.72
		c-9.24,7.07-19.78,10.76-31.26,11.92c-15.87,1.61-31.85,2.18-47.47,5.92c-9.07,2.17-17.83,5.22-26.57,8.39
		c-0.16,0.06-0.33,0.1-0.46,0.19c-1.09,0.76-3.12,1.15-2.36,2.93c0.84,1.95,2.45,0.59,3.64,0.07c15.94-6.94,32.69-10.44,49.91-12.13
		c9.76-0.96,19.62-0.95,29.28-2.88c9.82-1.96,18.99-5.4,26.79-11.91c1.96-1.64,2.62-1.41,3.55,0.98c2.11,5.47,0.72,10.27-3.97,13.97
		c-10.48,8.26-22.65,12.79-35.42,15.93c-21.08,5.19-42.46,8.72-63.95,11.65c-23.69,3.23-47.5,4.9-71.4,5.26
		c-16.18,0.25-32.21-1.75-48.19-4.08c-12.42-1.81-24.85-3.59-37.29-5.27c-5.45-0.74-8.15-3.04-8.7-8.5
		c-1.85-18.38-7.69-35.46-16.52-51.6c-0.44-0.8-0.81-1.64-1.12-2.5c-0.92-2.56-0.35-4.13,2.05-5.39c1.54-0.81,3.2-1.39,4.74-2.21
		C280.99,896.47,283.27,894.16,284.45,890.04z"/>
	<path class="st2" d="M601.05,624.67c3.03,4.27,7,6.71,10.33,9.81c2.02,1.88,4.03,3.73,5.63,5.98c2.65,3.72,3.26,7.93,2.95,12.36
		c-0.04,0.54,0.09,1.28-0.55,1.54c-0.8,0.33-1.18-0.42-1.59-0.91c-2.63-3.12-5.29-6.21-8.27-9.01c-3.07-2.88-6.52-5.05-11.47-5.72
		c3.77,3.31,7.06,6.19,10.34,9.07c7.33,6.42,9.45,14.13,6.65,23.58c-4.73,15.94-7.59,32.31-10.28,48.71
		c-4.38,26.74-9.47,53.31-18.31,79.01c-0.48,1.41-0.82,2.87-1.28,4.29c-1.25,3.88-2.74,4.47-6.24,2.39
		c-4.24-2.53-8.59-4.69-13.59-5.29c-3.71-0.44-7.25,0-11.01,1.43c3.03,1.62,6.05,1.67,8.97,1.75c5.09,0.15,9.58,1.91,13.83,4.47
		c2.84,1.71,3.81,4.08,3.01,7.5c-1.48,6.35-3.87,12.36-6.95,18.09c-1.41,2.62-3.78,3.95-6.71,4.11
		c-11.56,0.63-22.91-0.75-34.08-3.73c-16.53-4.41-30.82-12.99-44.16-23.46c-16.83-13.21-32.22-27.85-45.53-44.64
		c-11.89-15-18.99-32.07-22.18-50.85c-0.11-0.65-0.11-1.33-0.12-1.99c-0.07-5.98,1.59-7.27,7.41-5.79
		c15.66,3.99,30.49-6.97,31.48-23.32c0.22-3.66,0.16-7.31-0.43-10.95c-0.52-3.25-0.2-3.5,3.14-3.77
		c16.7-1.34,31.12-12.46,36.08-28.33c4.81-15.39,1.3-29.16-8.86-41.46c-6.33-7.66-13.8-14.21-20.75-21.27
		c-12.47-12.66-23.65-26.39-34.08-40.75c-14.72-20.26-34.04-34.61-56.92-44.4c-1.67-0.72-3.44-1.22-5.18-1.78
		c-2.93-0.95-2.98-1.21-0.74-3.48c3.22-3.25,7.1-5.42,11.6-5.8c10.19-0.88,20.23-3.08,30.49-3.41c6.34-0.2,12.63,0.14,18.84,1.5
		c1.24,0.27,2.78,1.03,3.26-0.96c0.45-1.86-1.18-2.2-2.4-2.58c-7.61-2.39-15.4-2.43-23.22-1.45c-3.79,0.48-7.53,1.28-11.31,1.88
		c-1.14,0.18-2.36,0.43-3.46,0.23c-3.2-0.61-6.21-0.27-9.28,0.8c-2.09,0.73-3.33-0.24-3.65-2.47c-0.21-1.48-0.17-2.98,0.16-4.47
		c2.68-12.13,1.88-24.32,0.49-36.51c-1.95-17.11-4.32-34.18-4.16-51.46c0.01-0.82,0-1.64,0-2.72c1.6,0.54,2.44,1.71,3.48,2.56
		c8.72,7.2,18.69,12.41,28.42,17.99c7.31,4.19,14.29,8.81,20.55,14.51c5.21,4.74,11.81,7.01,18.13,9.75
		c3.35,1.45,6.74,2.85,9.69,5.07c3.41,2.57,5.27,5.95,5.13,10.28c-0.33,9.74-0.34,19.49,0.16,29.22c0.35,6.81,0.24,13.63,0.61,20.43
		c0.35,6.62,3.01,12.73,5.43,18.83c2.91,7.34,5.85,14.67,7.06,22.54c0.5,3.23,0.44,6.48,0.15,9.72c-0.31,3.47-2.42,5.48-5.65,6.54
		c-4.49,1.47-8.96,2.99-13.42,4.57c-3.17,1.12-3.79,4.03-1.44,6.19c1.39,1.27,2.78,0.78,4.14,0.05c4.5-2.43,9.31-3.48,14.41-3.31
		c0.5,0.02,1,0.02,1.5,0.09c3.32,0.45,3.53,0.92,1.73,3.7c-1.98,3.06-1.52,4.56,1.83,5.93c0.38,0.16,0.78,0.34,1.18,0.39
		c9.4,1.28,14.78,7.62,19.13,15.23c0.81,1.42,1.73,2.68,3.46,2.97c2.08,0.34,4.06-1.3,4.17-3.64c0.21-4.43,1.44-8.68,2.16-13.03
		c0.31-1.87,1.28-3.43,2.8-4.58c2.12-1.61,4.43-1.53,5.94,0.61c6.56,9.25,16.63,11.58,26.78,13.78c1.02,0.22,2.17,0.35,3.18-0.22
		c1.22-0.69,1.7-1.85,1.62-3.16c-0.08-1.37-0.9-2.34-2.25-2.65c-2.35-0.54-4.74-0.88-7.07-1.47c-9.3-2.34-17.29-6.52-21.47-15.8
		c-2.1-4.67-2.64-9.59-1.86-14.63c0.57-3.71,1.99-4.68,5.66-3.88c2.6,0.56,5.16,1.23,7.82,1.53c5.85,0.67,11.63-0.14,17.41-0.7
		c1.85-0.18,3.03-1.41,2.94-3.39c-0.1-2.07-1.59-2.41-3.34-2.53c-5.48-0.36-10.96,0.84-16.44-0.01c-3.79-0.59-7.5-1.46-11.15-2.6
		c-1.09-0.34-2.24-0.87-3.05-1.64c-6.46-6.21-11.37-13.26-11.51-22.68c-0.06-3.89-1.34-7.49-2.41-11.16
		c-3.03-10.47-4.9-21.19-6.64-31.93c-0.11-0.65-0.07-1.33-0.08-1.99c-0.02-1.73,0.88-2.22,2.43-1.74c0.95,0.3,1.88,0.66,2.82,1
		c1.74,0.63,3.15,0.21,4.02-1.43c0.86-1.62,0.21-2.91-1.21-3.84c-3.34-2.19-6.7-4.34-10.06-6.5c-4.76-3.06-5.3-4.74-3.2-9.93
		c2.58-6.37,1.03-10-5.42-12.54c-6.81-2.68-11.74-7.47-15.27-13.74c-2.51-4.46-5.55-8.5-9.16-12.1c-5.59-5.58-7.77-12.66-8.85-20.18
		c-2.39-16.65-0.53-32.8,5.83-48.42c7.17-17.62,28.34-28.79,46.06-24.01c10.54,2.84,16.97,10.18,20.41,20.17
		c3.63,10.54,7.2,21.07,12.52,30.92c6.44,11.93,14.63,22.31,25.69,30.43c11.92,8.76,19.72,20.77,25.53,34.19
		c5.75,13.27,8.85,27.31,12.16,41.29c5.84,24.63,12.62,49.01,19.35,73.41c3.86,14,8.45,27.82,11.39,42.05
		c4.52,21.93,0.7,42.77-8.82,62.78c-0.87,1.82-1.61,1.72-2.85,0.4c-3.36-3.57-6.44-7.43-10.34-10.47
		C608.08,627.47,605.11,625.72,601.05,624.67z"/>
	<path class="st3" d="M275.51,558.71c-4.17,6.23-9.84,11.3-11.04,19.2c1.81-0.54,2.65-1.88,3.48-3.12c1.71-2.56,3.28-5.21,4.95-7.79
		c1.87-2.88,4.25-5.13,7.74-5.87c0.87-0.19,1.88-0.66,2.54,0.24c0.58,0.79-0.09,1.58-0.49,2.29c-1.18,2.1-2.38,4.19-3.58,6.29
		c-1.1,1.94-1.53,4.02-1.26,6.25c0.07,0.61,0.17,1.21,0.79,1.42c0.53,0.18,0.91-0.27,1.29-0.6c1.31-1.14,1.92-2.68,2.49-4.25
		c0.97-2.68,2.29-5.16,4.06-7.4c3.84-4.87,7.45-5.97,13.39-3.86c6.7,2.38,12.78,5.95,18.75,9.76c8.76,5.6,17.14,11.77,26.23,16.85
		c4.94,2.76,10.07,5.09,15.41,6.98c0.73,0.26,1.88,0.2,2,1.2c0.11,0.93-0.96,1.27-1.56,1.78c-9.98,8.41-17.44,18.46-20.43,31.42
		c-0.18,0.76-0.92,1.65,0.1,2.23c1.05,0.59,1.69-0.35,2.25-1.04c0.63-0.77,1.02-1.68,1.29-2.67c2.89-10.77,9.32-19.19,17.61-26.33
		c3.37-2.91,5.41-2.97,9.15-0.3c7.57,5.4,13.95,12.08,20.15,18.95c5.03,5.57,10.22,10.97,16.39,15.31
		c5.81,4.09,5.89,4.35,2.47,10.24c1.76,0.32,2.99-0.8,4.41-1.41c0.63-0.27,1.45-1.45,2.1-0.31c0.54,0.95-0.58,1.41-1.22,1.87
		c-1.5,1.06-2.92,2.19-4.2,3.52c-5.03,5.24-6.02,11.36-2.77,17.86c3.21,6.42,7.73,11.84,13.19,16.44c4.9,4.13,10.34,4.49,16.24,1.3
		c4.42-2.39,8.33-5.48,12.1-8.76c1.82-1.58,2.26-1.43,2.96,0.9c3.78,12.68-4.92,24.17-18.5,24.59c-9.51,0.3-18.52-1.79-27.09-5.69
		c-16.26-7.4-32.45-14.96-47.63-24.47c-10.18-6.38-19.82-13.46-28.05-22.3c-0.17-0.18-0.34-0.37-0.53-0.53
		c-1.42-1.22-2.64-3.19-4.82-2.44c-2.01,0.69-1.75,2.82-1.89,4.52c-0.18,2.03-1.53,2.33-3.14,2.41
		c-14.08,0.67-27.91-0.84-41.46-4.74c-5.88-1.69-11.91-3.07-16.95-6.88c-1.74-1.32-3.23-2.87-4.72-4.44
		c-2.43-2.56-3.8-2.88-5.46-1.29c-1.42,1.37-1.12,2.87,0.99,5.43c5.06,6.15,11.67,9.8,19.23,11.84c6.49,1.75,13.03,3.34,19.55,4.97
		c2.77,0.69,2.87,0.99,0.89,3.2c-6.71,7.5-15.14,10.92-25.15,11.39c-19.97,0.94-38.19-4.01-54.65-15.37
		c-1.3-0.89-2.47-1.96-3.73-2.92c-2.11-1.61-3.12-1.51-4.61,0.43c-1.45,1.89-1.3,3.47,0.75,4.89c3.01,2.08,6.09,4.07,9.2,5.98
		c16.8,10.34,35.05,14.97,54.74,13.48c11.32-0.86,21.22-4.92,28.36-14.13c4.7-6.06,11.39-5.86,17.18-4.37
		c2.15,0.55,1.11,1.78,0.47,2.82c-4.23,6.83-10.07,11.9-17.11,15.65c-10.9,5.8-22.7,8.33-34.86,9.55
		c-11.35,1.13-22.77,1.13-34.13,2.03c-14.17,1.13-27.97,3.77-40.74,10.44c-3.45,1.8-4.19,1.47-5.34-2.22
		c-3.43-11.01-7.57-21.81-9.5-33.25c-3.1-18.37,1.17-34.55,13.87-48.46c19.55-21.39,41.72-39.34,67.78-52.27
		c5.67-2.82,11.5-5.22,17.75-6.44C273.83,558.55,274.46,558.4,275.51,558.71z"/>
	<path class="st3" d="M316.44,315.1c21.31,9.36,42.58,11.69,63.88-0.7c0.26,5.46-0.18,10.57-0.73,15.65
		c-1.96,18.09-6.85,35.5-12.31,52.78c-1.11,3.52-3.35,5.76-6.96,6.8c-9.66,2.78-19.54,3.93-29.53,4.2
		c-4.91,0.13-9.83,0.03-14.74,0.02c-2.04,0-3.94,0.36-5.58,1.85c3.28,1.71,6.75,1.26,10.12,1.33c11.58,0.24,23.13-0.08,34.51-2.61
		c2.2-0.49,4.3-1.23,6.37-2.14c2.32-1.02,3.42-0.41,4.04,1.98c0.85,3.3-0.49,6.29-3.76,8.18c-5.82,3.38-12.15,4.85-18.84,4.9
		c-7.58,0.06-15.16,0.06-22.74,0.06c-1.04,0-2.08-0.13-2.2,1.32c-0.11,1.46,0.77,1.9,2.02,1.88c9.57-0.19,19.15,0.55,28.7-0.61
		c4.16-0.5,8.09-1.79,11.94-3.38c3.62-1.49,4.63-1.03,5.34,2.77c2.04,10.92,2.58,21.93,1.98,33.03c-0.72,13.24-2.82,26.27-5.58,39.2
		c-0.63,2.97-2,3.73-4.38,2.51c-8.71-4.47-17.5-8.83-25.83-13.99c-3.73-2.31-7.14-5.14-11.25-6.87c-10.06-4.24-19.9-4.62-29.65,1.05
		c-4.67,2.72-4.91,2.47-5.61-2.91c-2.5-19.08-4.16-38.21-3.1-57.49c1.71-30.99,8.21-61.01,18.2-90.34
		c6.41-18.81,10.54-38.24,15.09-57.54c2.79-11.86,4.93-23.9,9.18-35.39c3.24-8.76,7.59-16.73,15.94-21.66
		c8.81-5.21,18.34-7.08,28.3-4.4c10.01,2.7,15,10.22,17.04,19.88c4.6,21.72,4.56,43.4-0.9,65c-1.76,6.96-2.44,14.09-2.53,21.26
		c-0.07,5.29-2.15,9.27-6.67,12.02c-9.99,6.07-20.9,7.74-32.36,6.96c-8.42-0.57-16.53-2.82-24.78-4.34
		C318.21,315.21,317.32,315.19,316.44,315.1z"/>
	<path class="st3" d="M443.58,575.72c1.9-0.05,3.62-0.62,5.36-1.15c1.52-0.46,3.07-0.8,4.67-0.57c0.72,0.11,1.64,0.12,1.78,1.06
		c0.14,0.96-0.53,1.52-1.38,1.82c-2.51,0.87-4.98,1.83-7.32,3.12c-12.11,6.64-16.04,17.48-10.99,30.43
		c3.26,8.34,8.23,15.75,12.96,23.27c1.69,2.68,4.58,3.1,7.49,3.15c11.69,0.21,22.23-3.4,31.95-9.7c3.94-2.55,3.95-2.54,4.41,2.09
		c1.93,19.38-17.29,36.96-36.2,33.11c-2.72-0.55-5.27-1.59-7.52-3.21c-13.76-9.93-27.72-19.61-40.55-30.76
		c-7.74-6.73-14.6-14.35-21.56-21.86c-7.52-8.11-16.44-14.23-26.76-18.27c-13.69-5.36-25.6-13.71-37.51-22.1
		c-6.73-4.74-13.51-9.43-21.33-12.27c-13.68-4.98-27.12-3.68-40.36,1.75c-6.23,2.56-12.19,5.7-18.22,8.68
		c-0.62,0.31-1.34,1.13-1.99,0.57c-0.65-0.56-0.01-1.37,0.26-2.05c4.26-10.67,9.88-20.68,15.05-30.91
		c3.03-6.01,5.95-12.07,8.89-18.13c1.28-2.63,2.5-5.29,5.2-6.82c0.63-0.36,0.89-0.92,1.01-1.62c2.09-12.28,9.36-21.44,18.01-29.76
		c1.8-1.73,3.65-3.41,5.49-5.09c2.34-2.13,5.27-2.69,8.26-3.11c1.69-0.24,2.17,0.52,1.59,2.02c-0.3,0.76-0.62,1.55-1.39,2.02
		c-3.35,2.08-4.75,5.46-5.86,8.98c-1.03,3.24-2.03,6.49-3.42,9.6c-0.13,0.3-0.2,0.64-0.33,0.94c-0.55,1.18-0.5,2.75,0.46,3.15
		c1.08,0.45,1.76-1.11,2.09-2.03c1.39-3.84,3.31-7.43,4.97-11.14c1.88-4.19,4.86-7.5,7.99-10.74c2.58-2.68,8.58-1.2,11,0.41
		c0.96,0.64,0.14,1.09-0.25,1.55c-2.22,2.61-4.67,4.98-7.43,7.02c-2.69,1.99-4.09,4.74-5.01,7.83c-0.24,0.79-0.2,1.56,0.63,1.91
		c0.75,0.32,1.23-0.29,1.62-0.84c2.27-3.18,5.08-5.9,7.38-9.08c4.06-5.61,8.55-5.52,14.49-2.11c5.03,2.88,9.62,6.69,15.34,8.36
		c4.55,1.32,8.21,4.34,12.28,6.56c12.55,6.84,25.63,12.62,38.35,19.13c1.42,0.72,2.8,1.35,3.38,3.07c0.39,1.16,1.56,1.67,2.61,2.19
		c2.01,1,4.04,1.94,6,3.03c3.13,1.73,3.29,2.88,0.96,5.58c-4.61,5.36-9.68,10.31-13.98,15.96c-2.83,3.72-5.34,7.63-7.67,11.67
		c-0.27,0.47-0.89,0.93-0.38,1.54c0.5,0.62,1.18,0.44,1.83,0.2c1.15-0.42,1.94-1.21,2.55-2.26c5.05-8.72,11.82-16.06,18.85-23.17
		c3.09-3.12,4.99-3.15,7.98-0.01c5.81,6.11,10.46,13.13,15.46,19.88c5.3,7.16,10.64,14.28,16.99,20.57c1.8,1.78,1.59,2.37-0.92,3.01
		c-1.53,0.39-3.07,0.72-4.6,1.1C444.99,573.61,443.94,574.2,443.58,575.72z"/>
	<path class="st3" d="M395.92,238.63c-0.34-10.64-1.27-21.36-5.29-31.59c-3.57-9.1-9.42-15.72-19.13-18.48
		c-3.38-0.96-3.73-2.12-2.16-5.36c8.67-17.88,33.21-21.11,47.19-6.29c7.74,8.21,11.58,18.25,14.31,28.92
		c6.19,24.25,11,48.78,14.3,73.58c1.95,14.67,3.54,29.39,5.03,44.11c0.99,9.82-1.49,19.29-3.43,28.84c-1.07,5.27-3.9,8.43-8.66,10.3
		c-2.32,0.91-4.58,1.96-6.9,2.87c-3.22,1.25-4.42,0.97-6.35-1.9c-3.84-5.71-8.44-10.71-13.67-15.15
		c-6.04-5.14-12.57-9.57-19.49-13.41c-4.97-2.76-5.86-3.88-5.22-9.47c1.11-9.66,2.46-19.3,3.63-28.95
		c1.31-10.81,2.58-21.63,3.79-32.45C394.83,255.76,395.74,247.32,395.92,238.63z"/>
	<path class="st4" d="M307.13,267.3c-0.11,0.57-0.09,1.64-0.5,2.51c-3.32,7.07-4.62,14.69-6.12,22.26c-0.26,1.3-0.47,2.68-1.08,3.82
		c-3.66,6.78-4.66,14.27-6.01,21.67c-0.25,1.37-0.52,1.78-1.78,0.75c-4.86-3.92-10.27-7.04-15.51-10.4
		c-5.29-3.39-10.15-7.25-13.63-12.6c-1.01-1.55-2.54-2.23-4.25-2.21c-4.14,0.05-7.53-1.73-10.76-4.03
		c-14.42-10.27-29.16-20.04-45.1-27.84c-1.79-0.87-3.68-1.53-5.5-2.34c-1.8-0.8-2.65-2.13-1.57-3.98c1.98-3.4,3.11-7.14,4.45-10.78
		c0.83-2.25,1.94-4.21,3.92-5.62c1.25-0.89,1.87-2.07,1.69-3.64c-0.07-0.58-0.06-1.16-0.04-1.75c0.12-3.94,1.63-4.85,5.28-3.18
		c0.23,0.1,0.44,0.24,0.68,0.31c1.06,0.32,2.02,1.97,3.22,0.41c1.12-1.45,1.21-3.06,0.16-4.64c-0.23-0.34-0.54-0.63-0.84-0.91
		c-3.44-3.07-3.54-4.2-0.52-7.79c1.04-1.24,2.02-2.5,1.98-4.17c-0.03-1.39,0.73-1.56,1.73-1.35c0.8,0.17,1.6,0.47,2.31,0.86
		c23.09,12.59,46.18,25.17,69.22,37.82c4.51,2.48,8.88,5.2,13.25,7.91C304.93,260.33,307.02,263.01,307.13,267.3z"/>
	<path class="st4" d="M384.54,344.14c3.64,7.44,5.95,15.27,10.21,23.01c-0.2-6.01-1.68-10.98-3.55-15.83
		c-1.84-4.79-3.85-9.52-5.91-14.57c2.91,0.37,5.28,1.47,7.5,2.75c16.57,9.57,30.15,22.02,38.08,39.87c2.31,5.2,5.27,9.99,9.17,14.16
		c0.65,0.7,1.22,1.53,2.49,1.96c-1.38-4.93-5.42-8.4-6.3-13.64c7.85,1.23,14.59,4.08,19.35,10.6c6.03,8.26,12.1,16.5,18.03,24.83
		c2.31,3.24,4.97,5.72,9,6.57c2.4,0.51,4.42,1.93,6.31,3.42c2.07,1.63,2.47,3.62,1.39,6.01c-1.04,2.31-2.51,4.3-4.55,5.83
		c-4.1,3.08-7.5,3.12-11.58-0.01c-5.15-3.96-9.75-8.56-14.45-13.03c-3.78-3.6-7.86-6.24-13.19-6.89c-5.69-0.7-10.6-3.41-14.88-7.09
		c-9.89-8.52-20.95-15.22-32.43-21.31c-5.75-3.05-11.03-6.81-16.13-10.82c-3.87-3.04-5.43-6.96-4.25-11.91
		c1.8-7.51,3.46-15.06,5.19-22.59C384.12,345.06,384.32,344.7,384.54,344.14z"/>
	<path class="st5" d="M458.34,630.51c-2.6,0.18-5.46-1.39-7.26-4.5c-3.53-6.11-7.08-12.22-10.2-18.54
		c-3.34-6.76-0.69-15.06,5.96-20.37c4.45-3.55,9.63-4.72,15.17-4.7c1.65,0,3.1,0.72,4.24,1.87c7.37,7.35,14.81,14.63,20.92,23.12
		c0.68,0.94,1.34,1.91,1.91,2.92c2.09,3.72,1.59,6.5-1.74,9.24c-5.62,4.63-12.1,7.54-19.11,9.32
		C465.35,629.6,462.45,630.37,458.34,630.51z"/>
	<path class="st5" d="M430.95,680.5c-1.03-0.07-2.02-0.2-2.93-0.65c-7.4-3.71-12.76-9.25-14.79-17.44
		c-1.39-5.64,4.09-12.38,9.9-12.56c1.65-0.05,3.16,0.36,4.39,1.44c4.93,4.36,10.43,7.96,15.65,11.93c4.49,3.41,4.67,5.29,0.84,9.5
		c-2.86,3.14-5.75,6.27-10.15,7.27C432.91,680.21,431.92,680.34,430.95,680.5z"/>
	<path class="st2" d="M446.12,361.46c0.59,6.23,1.13,12.14,1.71,18.05c0.15,1.5-0.35,2.27-1.94,1.86
		c-5.1-1.31-10.01-2.98-13.77-6.95c-2.39-2.52-2.29-4.27,0.7-5.93C437.12,366.08,441.54,363.87,446.12,361.46z"/>
	<path class="st6" d="M175.14,225.61c-0.09,3.91-1.54,6.73-4.7,8.08c-3.39,1.45-6.53,0.22-9.14-2.19c-2.53-2.33-3.36-5.46-3.78-8.74
		c-0.05-0.39-0.15-0.89,0.29-1.12c0.53-0.28,0.96,0.08,1.34,0.4c1.26,1.04,1.88,2.52,2.69,3.87c1.62,2.7,3.08,3.37,5.47,2.51
		c2.85-1.02,3.81-2.73,3.34-5.81c-0.22-1.45-0.93-3.71,0.36-4.12c1.38-0.45,2.33,1.68,3.07,3.03
		C174.95,223.11,175.19,224.29,175.14,225.61z"/>
	<path class="st6" d="M191.85,201.52c0.12,1.95-1.18,3.04-2.49,4.06c-1.95,1.52-4.22,2.64-5.7,4.73c-0.3,0.42-0.72,0.71-1.26,0.35
		c-0.76-0.51-1.5-1.03-1.52-2.1c-0.02-1.59,0.75-2.86,1.65-4.05c1.84-2.44,3.74-4.81,4.35-7.97c0.31-1.61,1.65-1.65,2.58-0.61
		C190.85,197.48,191.6,199.43,191.85,201.52z"/>
	<path class="st7" d="M171.23,208.26c-0.74,0.24-0.91-0.26-0.74-0.94c0.75-2.92,2.16-5.74,1.09-8.9c-0.16-0.49,0.3-1.11,0.92-1.33
		c0.73-0.26,1.06,0.25,1.33,0.78c0.75,1.46,1.58,2.89,2.21,4.41c1.29,3.11,0.69,4.31-2.53,5.35
		C172.81,207.85,172.09,208.02,171.23,208.26z"/>
	<path class="st8" d="M179.17,193.11c0.09-0.89,0.09-1.75,1.34-1.65c1.8,0.15,2.6,1.29,2.79,2.9c0.12,1-0.36,1.82-1.54,1.74
		C179.89,195.99,179.4,194.61,179.17,193.11z"/>
	<path d="M544.15,898.56c-2.85,2.7-5.8,3.02-8.8,3.13c-9.6,0.36-19.1-0.62-28.59-1.94c-11.96-1.66-23.56,0.22-34.79,4.32
		c-11,4.01-21.44,9.4-32.54,13.19c-15.8,5.39-31.86,9.77-48.23,13.05c-15.37,3.08-29.95,8.65-44.34,14.79
		c-9.63,4.1-19.61,6.3-30.16,4.67c-1.58-0.24-3.08-0.72-4.44-1.55c-0.7-0.43-1.61-0.79-1.28-1.86c0.32-1.04,1.22-1.4,2.19-1.25
		c2.05,0.31,4.07,0.82,6.12,1.13c8.04,1.24,15.77,0.01,23.14-3.27c22.64-10.09,46.28-16.89,70.55-21.65
		c15.91-3.12,30.78-9.33,45.52-15.82c10.15-4.47,20.41-8.45,31.57-9.46c6.49-0.59,13-0.68,19.43,0.3
		c9.83,1.51,19.71,1.73,29.61,1.87C540.59,898.24,542.06,898.41,544.15,898.56z"/>
	<path class="st1" d="M447.24,855.3c2.84,1.6,4.26,4.03,6.06,6.04c3.83,4.27,7.55,8.64,12.09,12.19c4.94,3.87,10.48,6.33,16.81,6.83
		c0.33,0.03,0.66,0.07,0.98,0.15c0.15,0.04,0.26,0.18,0.39,0.27c-2.01,1.27-5.62,1.74-8.87,0.81
		c-13.11-3.75-21.86-12.38-27.28-24.66C447.27,856.58,447.33,856.13,447.24,855.3z"/>
	<path class="st0" d="M328.31,782.46c-6.32-1.79-12.59-3.62-19.26-3.08c-6.6,0.53-12.76,2.58-18.72,5.43
		c4.28-6.54,10.92-8.38,18.02-8.94C315.85,775.28,322.61,777.36,328.31,782.46z"/>
	<path d="M578.42,440.14c-6.64,13.2-43.18,26.48-56.94,20.89c9.58-3.77,19.74-4.58,29.2-7.9
		C560.18,449.8,568.54,443.99,578.42,440.14z"/>
	<path class="st0" d="M562.84,622.62c-18.28,5.03-58.08-16.55-60.53-29.58C518.61,611.15,540.61,616.68,562.84,622.62z"/>
	<path class="st0" d="M425.09,507.57c0.71-0.12,1.03,0.35,1.39,0.63c8.85,6.84,18.97,10.82,29.8,13.2c4.69,1.03,8.2,3.86,11.24,7.4
		c0.62,0.72,0.9,1.41,0.08,2.15c-0.71,0.64-1.49,1.22-2.42,0.49c-2.83-2.25-6.53-2.74-9.34-5.35c-3.2-2.99-7.84-3.39-12.08-4.15
		c-4.08-0.73-7.88-1.84-10.79-5.11c-1.02-1.14-2.58-1.79-3.84-2.73C426.94,512.46,425.5,510.35,425.09,507.57z"/>
	<path class="st1" d="M229.39,680.2c-12.05,3.69-34.41-9.75-36.46-21.59c5.06,5.53,10.21,10.3,16.47,13.77
		C215.56,675.8,222.13,678.14,229.39,680.2z"/>
</g>
</svg>
