<?xml version="1.0" encoding="utf-8"?>
<!-- Generator: Adobe Illustrator 24.1.2, SVG Export Plug-In . SVG Version: 6.00 Build 0)  -->
<svg version="1.1" id="katman_1" xmlns="http://www.w3.org/2000/svg" xmlns:xlink="http://www.w3.org/1999/xlink" x="0px" y="0px"
	 viewBox="0 0 1225 231" style="enable-background:new 0 0 1225 231;" xml:space="preserve">
<style type="text/css">
	.st0{fill:#E21F1F;}
	.st1{fill:#04B4E8;}
	.st2{fill:#F4BA14;}
	.st3{fill:#E31C20;}
	.st4{fill:#FABC17;}
	.st5{fill:#05AFDE;}
</style>
<g>
	<g>
		<path d="M100.31,89.51c0,1.33-0.79,3.81-2.38,7.44c-1.59,3.63-2.99,5.67-4.2,6.11c-1.21,0.44-7.45,2.37-18.72,5.77
			c-7.49,2.22-15.36,5.48-23.6,9.77c-3.1,1.48-6.17,2.97-9.19,4.44c-4.24,2.22-7.49,4.59-9.76,7.11
			c-2.88,3.26-5.56,13.77-8.06,31.54c-2.04,15.25-4.08,30.5-6.13,45.76C15.7,223.15,12.78,231,9.53,231c-3.1,0-5.56-3.33-7.37-9.99
			C0.72,215.97,0,211.08,0,206.35c0-9.77,2.16-22.55,6.47-38.32s6.47-25.28,6.47-28.54c0-2.07-0.93-5.4-2.78-9.99
			c-1.85-4.59-2.78-9.11-2.78-13.55c0-6.07,2.27-9.85,6.81-11.33c2.42-0.44,4.88-0.89,7.38-1.33c0.07-0.29,4.2-20.21,12.37-59.75
			c2.57-12.29,5.48-19.77,8.74-22.43c2.87-2.22,9.99-3.33,21.33-3.33c0.45,0,1.47-0.07,3.06-0.22c1.59-0.15,2.87-0.22,3.86-0.22
			c8.93,0,13.39,5.41,13.39,16.21c0,7.41-1.25,12.51-3.74,15.33c-1.66,1.78-4.24,2.66-7.72,2.66H55.72c-3.48,0-7,5.48-10.55,16.44
			c-3.25,9.92-4.62,16.96-4.09,21.1l47.2-11.11c2.73,0,5.18,0.74,7.38,2.22C98.76,82.26,100.31,85.37,100.31,89.51z"/>
		<path d="M296.83,49.98c0,9.18-3.4,16.74-10.21,22.66c-4.92,4.3-11.39,7.55-19.41,9.77c-3.86,0.74-7.68,1.48-11.46,2.22
			c4.46,4.74,8.93,9.41,13.39,13.99c6.65,7.26,11.76,13.99,15.32,20.21c4.84,8.59,7.26,16.96,7.26,25.1c0,3.55-0.3,6.74-0.91,9.55
			c-0.83,3.7-2,5.55-3.52,5.55c-0.76,0-2.99-4.07-6.69-12.22c-3.71-8.14-5.98-12.44-6.81-12.88l-32.91-16.44
			c-1.74,0-4.35-0.89-7.83-2.66c-4.54-2.52-6.81-5.4-6.81-8.66c0-10.51,4.39-19.69,13.16-27.54c2.42-2.07,7.42-5.25,14.98-9.55
			c4.24-2.52,7.45-4.59,9.64-6.22c4.77-3.7,8.06-7.48,9.87-11.33c-0.45-2.52-2.2-3.78-5.22-3.78c-5.83,0-13.81,2.74-23.94,8.22
			c-11.05,6.07-17.17,11.85-18.38,17.32c-3.1,13.33-8.02,35.09-14.75,65.3c-1.06,4.89-2.16,13.77-3.29,26.66
			c-0.38,5.63-0.76,11.18-1.13,16.66c-1.06,11.55-2.46,20.88-4.2,27.99c-2.42,9.77-5.41,14.66-8.96,14.66
			c-0.98,0-2.27-1.48-3.86-4.44c-0.3-15.4,0.41-29.84,2.16-43.31c1.06-7.85,3.48-21.47,7.26-40.87
			c4.24-21.32,7.68-40.79,10.33-58.42c-0.38-0.44-2.04-1.4-4.99-2.89c-2.27-1.33-3.44-2.52-3.52-3.55
			c-0.15-2.67,0.11-6.22,0.79-10.66c0.98-6.67,1.48-10.36,1.48-11.11c0.07,0,1.89-1.33,5.45-4c2.42-1.78,3.93-3.48,4.54-5.11
			c1.14-3.55,2.31-7.03,3.52-10.44c1.36-2.96,3.48-4.44,6.35-4.44c0.45,0,2.63,0.52,6.52,1.56c3.9,1.04,6.15,1.55,6.75,1.55
			c0.68,0,2.99-1.48,6.92-4.44c4.84-3.7,8.96-6.44,12.37-8.22c5.67-2.96,10.97-4.44,15.89-4.44c5.9,0,11.23,2.89,16,8.66
			C293.88,27.1,296.83,37.09,296.83,49.98z"/>
		<path d="M436.06,15.77c0.38,16.73-1.55,35.91-5.79,57.53c-3.78,18.21-7.56,36.43-11.34,54.64c-1.97,11.11-4.09,29.99-6.35,56.64
			c-1.74,2.52-3.26,3.78-4.54,3.78c-4.99,0-7.49-7.03-7.49-21.1c0-12.73,1.21-26.06,3.63-39.98c1.13-6.81,4.24-21.88,9.3-45.2
			c5.07-23.32,9.38-45.2,12.94-65.64c1.82-2.81,3.67-4.22,5.56-4.22C433.34,12.22,434.7,13.4,436.06,15.77z"/>
		<path d="M630.43,91.51c-8.78,3.7-21.18,7.33-37.22,10.88c-10.44,2.22-17.47,5.7-21.11,10.44c-4.69,6.07-8.06,18.21-10.1,36.43
			c1.36,1.48,4.2,2.22,8.51,2.22c0.91,0,6.54-3.66,16.91-11c10.36-7.33,16-10.99,16.91-10.99c2.72,0,4.69,0.59,5.9,1.78
			c2.12,1.78,4.16,5.85,6.13,12.22c-3.18,11.55-11.46,22.95-24.85,34.21c-12.79,10.66-23.45,15.99-32,15.99c-5.9,0-10.21-2-12.94-6
			c-3.1-4.74-4.65-12.73-4.65-23.99c0-14.51,3.44-41.16,10.33-79.96c6.5-36.72,10.89-57.01,13.16-60.86
			c2.57-4.59,10.06-6.89,22.47-6.89c6.43,0,10.51,0.44,12.25,1.33c3.78,1.78,7.34,6.59,10.67,14.44l-1.81,10
			c-1.97,0.59-4.54,0.89-7.72,0.89c-0.68,0-1.78-0.07-3.29-0.22c-1.44,0-2.53,0-3.29,0c-6.43,0-11.05,1.48-13.85,4.44
			c-4.08,4.15-6.13,12-6.13,23.54l-0.11,9.33c4.54,0.15,12.14-0.59,22.81-2.22c11.19-1.63,18.57-2.44,22.13-2.44
			c2.8,0,5.43,1.11,7.89,3.33s3.69,5.11,3.69,8.66C631.11,88.55,630.88,90.03,630.43,91.51z"/>
		<path d="M835.69,13.1c0,6.22-2.83,22.29-8.51,48.2c-6.13,28.14-12.33,52.2-18.61,72.19c-7.79,24.73-14.03,37.09-18.72,37.09
			c-4.16,0-8.55-7.62-13.16-22.88c-3.33-10.96-6.73-25.69-10.21-44.2c-1.66-9.33-3.33-18.66-4.99-27.99
			c-4.61,19.1-9.68,48.2-15.2,87.29c-0.38,3.11-1.87,6.37-4.48,9.77c-2.61,3.41-4.59,5.11-5.96,5.11c-3.4,0-6.01-3.03-7.83-9.11
			c-1.36-4.44-2.04-9.33-2.04-14.66c0-7.85,0.68-15.03,2.04-21.55c3.48-16.44,9.3-39.31,17.47-68.63
			c4.92-17.77,9.53-31.1,13.84-39.98c0.61-1.18,2.08-2.07,4.43-2.66c3.4-0.89,5.41-1.48,6.01-1.78
			c8.24,26.21,13.5,62.12,15.77,107.73c0.98,1.78,2.53,4.59,4.65,8.44c4.38-14.95,9.83-37.68,16.34-68.19
			c4.16-19.25,6.88-31.32,8.17-36.2C820.45,10.37,825.93,0,831.15,0c2.27,0,3.71,1.85,4.31,5.55
			C835.61,6.44,835.69,8.96,835.69,13.1z"/>
		<path d="M1052.76,64.41c0,18.21-7.26,36.43-21.79,54.64c-10.36,13.18-23.9,25.62-40.62,37.31c-0.45,0.3-7.79,4.89-22.01,13.77
			c-4.46,2.81-10.63,7.4-18.5,13.77c-4.31,3.4-7.98,5.11-11.01,5.11s-4.99-1.11-5.9-3.33c-0.68-1.78-1.02-5.26-1.02-10.44
			c0-11.11,1.85-28.54,5.56-52.31c3.71-23.77,5.56-40.61,5.56-50.53c0-5.77-0.42-10.96-1.25-15.55c0.83-2.52,2.38-3.78,4.65-3.78
			c1.13,0,2.38,0.37,3.74,1.11c1.13-2.96,2.08-8.29,2.84-15.99c0.76-8.74,1.48-14.44,2.16-17.1c1.36-5.48,3.55-8.22,6.58-8.22
			c0.83,0,1.78,0.22,2.84,0.67c1.44,2.08,2.16,5.41,2.16,10v1.33c0,3.26,0.19,5.92,0.57,7.99c10.82-10.96,18.34-17.47,22.58-19.55
			c2.87-1.33,9.15-2,18.84-2c11.65,0,20.65,2.3,27,6.88C1047.08,26.21,1052.76,41.61,1052.76,64.41z M1038.57,70.85
			c0-11.69-4.95-20.73-14.86-27.1c-6.96-4.44-13.65-6.66-20.08-6.66c-10.21,0-19.48,4.22-27.8,12.66c-2.8,2.81-5.64,5.63-8.51,8.44
			c-3.33,3.7-5.22,6.44-5.67,8.22c-2.72,10.52-5.22,24.29-7.49,41.31c-1.82,14.22-3.63,28.43-5.45,42.65
			c11.5-6.37,28.44-16.14,50.83-29.32C1025.56,104.77,1038.57,88.03,1038.57,70.85z"/>
		<path d="M1225,149.48c0,12.74-4.43,23.84-13.28,33.32c-6.58,7.11-15.17,12.88-25.76,17.33c-7.79,3.25-13.5,4.89-17.13,4.89
			c-1.44,0-4.31-0.96-8.62-2.89c-4.99-2.22-9-4.59-12.03-7.11v-9.55c-0.08-8.29,1.93-15.55,6.01-21.77l31.2,6
			c8.25-0.59,15.96-5.18,23.15-13.77v-4.89c-4.62-11.4-13.05-18.73-25.3-21.99c-9.68-2.37-19.33-4.74-28.93-7.11
			c-9.23-4.74-13.84-15.33-13.84-31.76c0-10.51,3.86-22.28,11.57-35.32c6.5-10.81,14.41-20.66,23.71-29.54
			c8.7-8.14,15.05-12.22,19.06-12.22c5.6,0,8.77,0.15,9.53,0.44c3.1,1.48,4.5,5.55,4.2,12.22c-0.38,8.44-4.35,15.18-11.91,20.21
			c-7.19,4.3-14.34,8.59-21.45,12.88c-7.79,6.37-12.1,15.25-12.94,26.65c7.79,2.22,15.55,4.44,23.26,6.66
			c11.65,3.55,20.58,8.81,26.78,15.77C1220.76,117.72,1225,131.57,1225,149.48z"/>
	</g>
	<g>
		<path class="st0" d="M134.08,172.04c-0.5,0.93-1,1.84-1.56,2.73c-2.3,3.69-5.32,6.66-8.94,9.03c-3.28,2.15-6.84,3.71-10.53,5.01
			c-1.21,0.42-2.43,0.81-3.66,1.19c-0.05,0.01-0.09,0.02-0.19,0.04c0.1-0.16,0.17-0.28,0.25-0.4c1.35-2.23,2.46-4.59,3.63-6.91
			c1.21-2.39,2.5-4.73,4.19-6.83c0.7-0.86,1.46-1.66,2.34-2.48c-0.4,0.15-0.71,0.28-1.03,0.39c-1.39,0.47-2.83,0.55-4.28,0.49
			c-1.88-0.07-3.75-0.07-5.63,0.05c-1.96,0.12-3.86-0.1-5.69-0.86c-0.77-0.32-1.56-0.57-2.39-0.66c-0.36-0.04-0.71-0.07-1.06,0.01
			c-0.87,0.19-1.68,0.03-2.43-0.4c-3.81-2.19-7.98-3.38-12.19-4.44c-0.5-0.13-1.01-0.23-1.55-0.35c0.59-0.65,1.29-1.01,2.08-1.18
			c1.03-0.23,2.08-0.37,3.09-0.68c1.94-0.59,3.74-1.48,5.43-2.59c0.12-0.08,0.23-0.14,0.38-0.11c0.63,0.12,1.22-0.06,1.76-0.37
			c0.53-0.3,1.05-0.64,1.57-0.95c0.84-0.51,1.72-0.74,2.68-0.33c0.1,0.05,0.14,0.01,0.17-0.07c0.33-0.77,0.97-0.97,1.73-0.99
			c0.44-0.01,0.89,0.03,1.33-0.02c0.51-0.05,0.93-0.23,1.24-0.66c0.14-0.19,0.33-0.26,0.54-0.14c0.73,0.42,1.5,0.36,2.27,0.17
			c0.59-0.14,1.18-0.33,1.79-0.42c0.77-0.11,1.47,0.04,2.08,0.56c0.15,0.13,0.32,0.27,0.53,0.15c0.24-0.14,0.35-0.4,0.44-0.65
			c0.03-0.08-0.06-0.08-0.11-0.1c-0.46-0.14-0.69-0.5-0.84-0.92c-0.1-0.28-0.19-0.56-0.3-0.84c-0.17-0.43-0.48-0.71-0.93-0.84
			c-0.48-0.13-0.94-0.29-1.4-0.49c-0.43-0.19-0.81-0.45-1.1-0.83c-0.34-0.44-0.67-0.88-0.98-1.34c-0.22-0.32-0.5-0.54-0.86-0.63
			c-0.9-0.21-1.76-0.58-2.65-0.83c-0.88-0.24-1.05-0.67-0.59-1.47c0.05-0.09,0.1-0.17,0.15-0.25c0.24-0.4,0.15-0.59-0.32-0.59
			c-1.37,0-2.59-0.45-3.73-1.17c-0.23-0.14-0.44-0.3-0.62-0.5c-0.32-0.36-0.29-0.69,0.08-0.99c0.34-0.27,0.75-0.39,1.19-0.57
			c-0.46-0.2-0.88-0.38-1.3-0.56c-1.09-0.46-2.18-0.92-3.22-1.48c-0.32-0.17-0.64-0.36-0.88-0.65c-0.29-0.34-0.25-0.64,0.12-0.9
			c0.32-0.22,0.69-0.31,1.1-0.45c-0.61-0.36-1.19-0.7-1.76-1.05c-0.68-0.41-1.35-0.82-1.98-1.3c-0.23-0.17-0.45-0.36-0.61-0.6
			c-0.25-0.36-0.2-0.66,0.16-0.92c0.38-0.27,0.83-0.37,1.27-0.5c-0.05-0.13-0.17-0.17-0.26-0.22c-1.39-0.86-2.66-1.88-3.99-2.82
			c-0.1-0.07-0.2-0.17-0.28-0.26c-0.22-0.25-0.2-0.51,0.05-0.76c0.22-0.22,0.49-0.36,0.77-0.49c0.46-0.21,0.49-0.4,0.11-0.72
			c-1.68-1.4-2.9-3.14-3.77-5.13c-0.58-1.32-0.95-2.7-1.14-4.12c-0.07-0.49-0.3-0.86-0.6-1.22c-2.17-2.58-4.13-5.29-5.68-8.29
			c-0.04-0.09-0.08-0.18-0.14-0.3c0.75,0.19,1.44,0.44,2.12,0.72c1.51,0.62,2.94,1.4,4.31,2.28c1.18,0.76,2.44,1.26,3.79,1.62
			c1.85,0.49,3.69,1.02,5.53,1.53c0.87,0.24,1.61,0.74,2.31,1.29c0.74,0.58,1.54,1.07,2.22,1.72c0.29,0.27,0.4,0.23,0.61-0.12
			c0.21-0.36,0.41-0.72,0.74-0.99c0.35-0.29,0.65-0.27,0.96,0.06c0.25,0.27,0.42,0.6,0.6,0.91c0.21,0.38,0.45,0.7,0.85,0.92
			c0.41,0.23,0.66,0.64,0.93,1.02c0.24,0.35,0.47,0.7,0.73,1.07c0.2-0.34,0.36-0.66,0.59-0.93c0.42-0.52,0.86-0.57,1.38-0.15
			c0.43,0.34,0.77,0.77,1.1,1.2c0.55,0.73,1.06,1.5,1.59,2.29c0.17-0.22,0.31-0.43,0.48-0.63c0.53-0.65,0.88-0.67,1.44-0.04
			c0.56,0.63,0.96,1.38,1.37,2.11c0.43,0.75,0.84,1.52,1.27,2.3c0.16-0.3,0.27-0.6,0.46-0.87c0.44-0.6,0.95-0.64,1.45-0.08
			c0.5,0.55,0.78,1.23,1.08,1.89c0.26,0.58,0.53,1.17,0.64,1.81c0.08,0.42,0.29,0.52,0.69,0.39c0.2-0.07,0.4-0.17,0.59-0.27
			c0.32-0.16,0.55-0.12,0.8,0.14c0.24,0.26,0.4,0.57,0.53,0.89c0.29,0.7,0.74,1.33,0.9,2.08c0.07,0.3,0.31,0.44,0.63,0.44
			c0.25,0,0.49-0.05,0.73-0.13c0.36-0.13,0.66-0.03,0.92,0.23c0.52,0.53,0.78,1.2,1,1.89c0.16,0.48,0.26,0.97,0.41,1.45
			c0.33,1.08,1.02,1.05,1.95,0.67c0.14-0.06,0.06-0.14,0.02-0.21c-0.23-0.42-0.46-0.85-0.7-1.27c-0.22-0.41-0.45-0.81-0.58-1.26
			c-0.07-0.26-0.06-0.5,0.07-0.74c0.5-0.93,0.5-1.89,0.1-2.85c-0.26-0.61-0.58-1.19-0.89-1.77c-0.42-0.79-0.52-1.65-0.68-2.5
			c-0.1-0.52,0.12-0.81,0.61-1.02c0.14-0.06,0.28-0.09,0.42-0.14c0.26-0.1,0.34-0.26,0.22-0.51c-0.17-0.37-0.3-0.73-0.34-1.15
			c-0.04-0.4-0.33-0.73-0.56-1.06c-0.24-0.35-0.51-0.68-0.67-1.08c-0.22-0.55-0.1-0.94,0.37-1.29c0.29-0.21,0.62-0.36,0.96-0.45
			c0.27-0.07,0.26-0.17,0.19-0.4c-0.15-0.46-0.41-0.85-0.65-1.26c-0.64-1.07-1.09-2.21-1.25-3.46c-0.04-0.3-0.06-0.61,0.02-0.91
			c0.11-0.44,0.38-0.61,0.83-0.55c0.45,0.06,0.82,0.35,1.26,0.42c0.04,0.01,0.08,0.01,0.15,0.03c-0.19-0.57-0.37-1.11-0.54-1.66
			c-0.43-1.35-0.91-2.69-1.24-4.08c-0.07-0.28-0.08-0.57-0.04-0.85c0.06-0.44,0.31-0.66,0.76-0.66c0.21,0,0.41,0.04,0.61,0.11
			c0.19,0.06,0.37,0.13,0.59,0.2c-0.07-0.63-0.14-1.24-0.2-1.86c-0.11-1.18-0.34-2.35-0.39-3.53c0-0.09,0-0.18,0.01-0.27
			c0.09-0.58,0.4-0.8,0.98-0.68c0.35,0.07,0.67,0.23,1,0.37c0.13,0.06,0.14,0.18,0.2,0.27c0.05,0.09,0.12,0.13,0.22,0.09
			c0.09-0.04,0.1-0.11,0.08-0.2c-0.32-1.54-0.54-3.09-0.73-4.65c-0.07-0.55-0.12-1.1-0.04-1.65c0.11-0.68,0.51-0.95,1.18-0.76
			c0.44,0.12,0.82,0.36,1.26,0.6c0-0.4,0.02-0.77,0-1.13c-0.18-2.48,0.55-4.74,1.62-6.92c0.73-1.48,1.59-2.87,2.67-4.11
			c0.36-0.41,0.44-0.92,0.49-1.43c0.16-1.58,0.5-3.14,0.8-4.7c0.42-2.17,0.98-4.31,1.78-6.38c0.11-0.28,0.23-0.56,0.36-0.89
			c0.45,0.77,0.78,1.53,1.06,2.32c0.53,1.48,0.83,3.02,1.14,4.56c0.61,3.11,1.6,6.08,3.3,8.79c0.8,1.27,1.52,2.59,1.95,4.04
			c0.22,0.73,0.35,1.48,0.34,2.25c-0.01,1.22,0,2.43,0,3.65c0.14,0.02,0.22-0.09,0.31-0.15c0.35-0.21,0.69-0.42,1.09-0.52
			c0.6-0.15,0.95,0.07,1.08,0.68c0.09,0.43,0.08,0.87,0.04,1.3c-0.15,1.48-0.32,2.97-0.5,4.45c-0.05,0.47,0.07,0.59,0.53,0.45
			c0.28-0.08,0.51-0.25,0.76-0.39c0.41-0.22,0.58-0.16,0.73,0.28c0.4,1.15,0.31,2.31,0.06,3.48c-0.16,0.75-0.38,1.49-0.6,2.23
			c-0.06,0.19-0.02,0.24,0.18,0.23c0.36-0.01,0.71-0.02,1.07,0c0.65,0.05,0.91,0.38,0.84,1.03c-0.11,1.02-0.41,1.99-0.72,2.96
			c-0.28,0.86-0.57,1.72-0.87,2.58c-0.07,0.19-0.17,0.37-0.27,0.56c0.28,0,0.52-0.04,0.75-0.17c0.24-0.13,0.5-0.24,0.78-0.28
			c0.4-0.05,0.62,0.09,0.71,0.49c0.14,0.61,0.03,1.22-0.1,1.82c-0.25,1.17-0.8,2.2-1.46,3.18c-0.12,0.18-0.25,0.36-0.35,0.55
			c-0.13,0.26-0.06,0.4,0.21,0.5c0.2,0.07,0.4,0.09,0.61,0.11c0.69,0.06,0.92,0.38,0.72,1.06c-0.39,1.3-0.85,2.59-1.39,3.84
			c-0.2,0.47-0.19,0.47,0.28,0.64c0.85,0.3,1.13,0.83,0.84,1.69c-0.29,0.85-0.6,1.69-0.92,2.53c-0.17,0.45-0.49,0.81-0.74,1.21
			c-0.33,0.53-0.51,1.08-0.14,1.66c0.11,0.18,0.24,0.34,0.41,0.47c0.2,0.15,0.21,0.33,0.14,0.55c-0.29,0.85-0.66,1.67-1.01,2.49
			c-0.17,0.41-0.36,0.81-0.54,1.21c-0.06,0.13-0.07,0.2,0.11,0.19c0.31-0.02,0.61,0,0.92-0.04c0.52-0.06,0.88-0.36,1.11-0.83
			c0.27-0.56,0.34-1.17,0.53-1.75c0.06-0.18,0.11-0.36,0.18-0.53c0.43-1.08,1.21-1.53,2.37-1.36c0.45,0.07,0.53,0.02,0.67-0.41
			c0.13-0.42,0.27-0.81,0.57-1.16c0.21-0.25,0.27-0.59,0.37-0.9c0.37-1.09,0.86-1.28,1.88-0.76c0.44,0.23,0.48,0.19,0.62-0.31
			c0.32-1.14,0.74-2.25,1.41-3.24c0.19-0.28,0.4-0.54,0.68-0.73c0.34-0.23,0.67-0.19,0.97,0.09c0.28,0.27,0.42,0.63,0.63,1.02
			c0.15-0.29,0.29-0.54,0.42-0.8c0.43-0.84,0.84-1.7,1.48-2.42c0.18-0.21,0.25-0.49,0.36-0.74c0.11-0.24,0.21-0.49,0.39-0.7
			c0.23-0.26,0.5-0.3,0.79-0.11c0.3,0.19,0.5,0.47,0.7,0.75c0.22,0.31,0.35,0.32,0.58,0.02c0.34-0.45,0.66-0.91,1-1.36
			c0.46-0.61,0.93-1.2,1.5-1.72c0.19-0.17,0.39-0.34,0.62-0.45c0.4-0.19,0.69-0.08,0.85,0.33c0.15,0.39,0.18,0.81,0.18,1.22
			c0,0.05,0,0.09,0,0.22c0.35-0.42,0.65-0.77,0.96-1.13c0.76-0.89,1.49-1.8,2.31-2.63c0.16-0.16,0.34-0.31,0.52-0.43
			c0.58-0.38,0.96-0.24,1.15,0.43c0.11,0.37,0.11,0.76,0.13,1.17c0.21-0.1,0.34-0.26,0.48-0.4c2.45-2.46,5.49-3.61,8.88-3.97
			c0.35-0.04,0.71-0.07,1.06-0.11c0.4-0.04,0.72-0.24,1.05-0.45c1.81-1.14,3.63-2.27,5.53-3.26c1.2-0.62,2.43-1.17,3.75-1.63
			c-0.21,0.63-0.48,1.19-0.77,1.75c-0.69,1.32-1.55,2.53-2.45,3.7c-2.22,2.9-3.68,6.15-4.54,9.68c-0.17,0.72-0.56,1.29-1.09,1.76
			c-0.79,0.7-1.49,1.5-2.33,2.15c-0.37,0.28-0.33,0.54,0.08,0.78c0.21,0.13,0.45,0.2,0.68,0.29c0.37,0.14,0.45,0.35,0.24,0.69
			c-0.25,0.41-0.61,0.72-0.96,1.04c-0.92,0.84-1.97,1.49-3.07,2.06c-0.13,0.07-0.26,0.14-0.4,0.21c0.24,0.22,0.47,0.42,0.68,0.64
			c0.57,0.59,0.57,1.13-0.03,1.7c-0.65,0.62-1.45,1.02-2.24,1.43c-0.4,0.21-0.81,0.42-1.22,0.6c-0.24,0.1-0.19,0.2-0.05,0.33
			c0.21,0.2,0.48,0.27,0.73,0.38c0.48,0.2,0.51,0.32,0.21,0.74c-0.61,0.83-1.45,1.33-2.39,1.69c-0.78,0.3-1.58,0.57-2.36,0.86
			c-0.11,0.04-0.27,0.04-0.28,0.21c-0.01,0.18,0.09,0.3,0.24,0.38c0.21,0.1,0.44,0.18,0.65,0.28c0.39,0.18,0.45,0.39,0.19,0.75
			c-0.46,0.64-1.08,1.09-1.81,1.39c-0.81,0.33-1.65,0.45-2.51,0.53c-0.27,0.02-0.54,0.05-0.85,0.07c0.22,0.25,0.45,0.46,0.6,0.73
			c0.28,0.49,0.23,0.85-0.24,1.15c-0.75,0.48-1.49,0.93-2.44,0.98c-1.04,0.05-1.33,0.57-0.94,1.54c0.12,0.3,0.04,0.44-0.19,0.61
			c-0.77,0.57-1.67,0.84-2.55,1.15c-0.68,0.24-1.36,0.49-1.96,0.9c-0.68,0.46-1.13,1.09-1.44,1.84c-0.08,0.2-0.02,0.29,0.15,0.37
			c0.31,0.15,0.65,0.2,0.95,0.08c1.23-0.48,2.43-0.24,3.64,0.02c0.94,0.2,1.87,0.32,2.79-0.07c0.08-0.03,0.12-0.02,0.18,0.04
			c0.28,0.29,0.31,0.47,0.09,0.73c0.58,0.05,1.16,0.09,1.72-0.12c0.17-0.07,0.36-0.11,0.54-0.15c0.35-0.06,0.69-0.05,0.97,0.22
			c0.38,0.36,0.45,0.64,0.22,1.11c0.2-0.02,0.4-0.02,0.58-0.1c1.05-0.47,2.08-0.34,3.08,0.15c0.5,0.24,0.97,0.53,1.43,0.84
			c1.21,0.82,2.59,1.3,3.93,1.85c2.61,1.08,5.27,2.02,7.98,2.8c0.25,0.07,0.32,0.12,0.68,0.44c-0.51,0.37-1.07,0.61-1.67,0.78
			c-0.62,0.18-1.25,0.29-1.9,0.31c-0.94,0.04-1.85,0.23-2.7,0.62c-1.68,0.78-3.38,1.51-5.19,1.98c-0.85,0.22-1.64,0.62-2.45,0.96
			c-1.43,0.61-2.93,0.91-4.47,1.07c-1.12,0.12-2.19,0.43-3.05,1.22c-0.23,0.21-0.47,0.27-0.79,0.05c-0.77-0.52-1.65-0.45-2.52-0.3
			c-0.6,0.1-1.2,0.25-1.81,0.3c-0.54,0.05-1.06-0.01-1.58-0.18c-1.2-0.39-2.44-0.66-3.67-0.31c-1.27,0.36-2.35,0.09-3.4-0.59
			c-0.23-0.15-0.46-0.24-0.69,0c-0.36,0.37-0.31,0.63,0.18,0.81c0.18,0.07,0.36,0.13,0.5,0.29c2.02,2.33,3.87,4.77,5.34,7.49
			c0.74,1.37,1.38,2.79,1.88,4.27c0.17,0.52,0.44,0.97,0.8,1.37c0.34,0.39,0.7,0.76,0.96,1.2c0.23,0.39,0.35,0.81,0.32,1.3
			c-0.52-0.21-1.02-0.42-1.53-0.61c-2.07-0.8-4.2-1.44-6.28-2.21c-2.11-0.78-4.16-1.67-5.97-3.03c-2.81-2.1-5.44-4.4-7.63-7.17
			c-1.78-2.26-3.15-4.73-4-7.48c-0.02-0.06-0.05-0.13-0.09-0.24c-0.17,0.81-0.28,1.57-0.37,2.34c-0.28,2.36-0.32,4.73-0.11,7.1
			c0.1,1.14,0.25,2.28,0.37,3.42c0.19,1.92,0.22,3.85,0.15,5.77c-0.02,0.5-0.25,0.69-0.71,0.65c-0.28-0.03-0.46-0.17-0.48-0.46
			c-0.01-0.16-0.02-0.31-0.02-0.47c0.03-1.89-0.11-3.77-0.3-5.65c-0.31-2.93-0.71-5.85-0.69-8.8
			C134.08,172.85,134.08,172.44,134.08,172.04z"/>
	</g>
	<g>
		<path class="st1" d="M346.08,167.87c-0.5,0.93-1,1.84-1.56,2.73c-2.3,3.69-5.32,6.66-8.94,9.03c-3.28,2.15-6.84,3.71-10.53,5.01
			c-1.21,0.42-2.43,0.81-3.66,1.19c-0.05,0.01-0.09,0.02-0.19,0.04c0.1-0.16,0.17-0.28,0.25-0.4c1.35-2.23,2.46-4.59,3.63-6.91
			c1.21-2.39,2.5-4.73,4.19-6.83c0.7-0.86,1.46-1.66,2.34-2.48c-0.4,0.15-0.71,0.28-1.03,0.39c-1.39,0.47-2.83,0.55-4.28,0.49
			c-1.88-0.07-3.75-0.07-5.63,0.05c-1.96,0.12-3.86-0.1-5.69-0.86c-0.77-0.32-1.56-0.57-2.39-0.66c-0.36-0.04-0.71-0.07-1.06,0.01
			c-0.87,0.19-1.68,0.03-2.43-0.4c-3.81-2.19-7.98-3.38-12.19-4.44c-0.5-0.13-1.01-0.23-1.55-0.35c0.59-0.65,1.29-1.01,2.08-1.18
			c1.03-0.23,2.08-0.37,3.09-0.68c1.94-0.59,3.74-1.48,5.43-2.59c0.12-0.08,0.23-0.14,0.38-0.11c0.63,0.12,1.22-0.06,1.76-0.37
			c0.53-0.3,1.05-0.64,1.57-0.95c0.84-0.51,1.72-0.74,2.68-0.33c0.1,0.05,0.14,0.01,0.17-0.07c0.33-0.77,0.97-0.97,1.73-0.99
			c0.44-0.01,0.89,0.03,1.33-0.02c0.51-0.05,0.93-0.23,1.24-0.66c0.14-0.19,0.33-0.26,0.54-0.14c0.73,0.42,1.5,0.36,2.27,0.17
			c0.59-0.14,1.18-0.33,1.79-0.42c0.77-0.11,1.47,0.04,2.08,0.56c0.15,0.13,0.32,0.27,0.53,0.15c0.24-0.14,0.35-0.4,0.44-0.65
			c0.03-0.08-0.06-0.08-0.11-0.1c-0.46-0.14-0.69-0.5-0.84-0.92c-0.1-0.28-0.19-0.56-0.3-0.84c-0.17-0.43-0.48-0.71-0.93-0.84
			c-0.48-0.13-0.94-0.29-1.4-0.49c-0.43-0.19-0.81-0.45-1.1-0.83c-0.34-0.44-0.67-0.88-0.98-1.34c-0.22-0.32-0.5-0.54-0.86-0.63
			c-0.9-0.21-1.76-0.58-2.65-0.83c-0.88-0.24-1.05-0.67-0.59-1.47c0.05-0.09,0.1-0.17,0.15-0.25c0.24-0.4,0.15-0.59-0.32-0.59
			c-1.37,0-2.59-0.45-3.73-1.17c-0.23-0.14-0.44-0.3-0.62-0.5c-0.32-0.36-0.29-0.69,0.08-0.99c0.34-0.27,0.75-0.39,1.19-0.57
			c-0.46-0.2-0.88-0.38-1.3-0.56c-1.09-0.46-2.18-0.92-3.22-1.48c-0.32-0.17-0.64-0.36-0.88-0.65c-0.29-0.34-0.25-0.64,0.12-0.9
			c0.32-0.22,0.69-0.31,1.1-0.45c-0.61-0.36-1.19-0.7-1.76-1.05c-0.68-0.41-1.35-0.82-1.98-1.3c-0.23-0.17-0.45-0.36-0.61-0.6
			c-0.25-0.36-0.2-0.66,0.16-0.92c0.38-0.27,0.83-0.37,1.27-0.5c-0.05-0.13-0.17-0.17-0.26-0.22c-1.39-0.86-2.66-1.88-3.99-2.82
			c-0.1-0.07-0.2-0.17-0.28-0.26c-0.22-0.25-0.2-0.51,0.05-0.76c0.22-0.22,0.49-0.36,0.77-0.49c0.46-0.21,0.49-0.4,0.11-0.72
			c-1.68-1.4-2.9-3.14-3.77-5.13c-0.58-1.32-0.95-2.7-1.14-4.12c-0.07-0.49-0.3-0.86-0.6-1.22c-2.17-2.58-4.13-5.29-5.68-8.29
			c-0.04-0.09-0.08-0.18-0.14-0.3c0.75,0.19,1.44,0.44,2.12,0.72c1.51,0.62,2.94,1.4,4.31,2.28c1.18,0.76,2.44,1.26,3.79,1.62
			c1.85,0.49,3.69,1.02,5.53,1.53c0.87,0.24,1.61,0.74,2.31,1.29c0.74,0.58,1.54,1.07,2.22,1.72c0.29,0.27,0.4,0.23,0.61-0.12
			c0.21-0.36,0.41-0.72,0.74-0.99c0.35-0.29,0.65-0.27,0.96,0.06c0.25,0.27,0.42,0.6,0.6,0.91c0.21,0.38,0.45,0.7,0.85,0.92
			c0.41,0.23,0.66,0.64,0.93,1.02c0.24,0.35,0.47,0.7,0.73,1.07c0.2-0.34,0.36-0.66,0.59-0.93c0.42-0.52,0.86-0.57,1.38-0.15
			c0.43,0.34,0.77,0.77,1.1,1.2c0.55,0.73,1.06,1.5,1.59,2.29c0.17-0.22,0.31-0.43,0.48-0.63c0.53-0.65,0.88-0.67,1.44-0.04
			c0.56,0.63,0.96,1.38,1.37,2.11c0.43,0.75,0.84,1.52,1.27,2.3c0.16-0.3,0.27-0.6,0.46-0.87c0.44-0.6,0.95-0.64,1.45-0.08
			c0.5,0.55,0.78,1.23,1.08,1.89c0.26,0.58,0.53,1.17,0.64,1.81c0.08,0.42,0.29,0.52,0.69,0.39c0.2-0.07,0.4-0.17,0.59-0.27
			c0.32-0.16,0.55-0.12,0.8,0.14c0.24,0.26,0.4,0.57,0.53,0.89c0.29,0.7,0.74,1.33,0.9,2.08c0.07,0.3,0.31,0.44,0.63,0.44
			c0.25,0,0.49-0.05,0.73-0.13c0.36-0.13,0.66-0.03,0.92,0.23c0.52,0.53,0.78,1.2,1,1.89c0.16,0.48,0.26,0.97,0.41,1.45
			c0.33,1.08,1.02,1.05,1.95,0.67c0.14-0.06,0.06-0.14,0.02-0.21c-0.23-0.42-0.46-0.85-0.7-1.27c-0.22-0.41-0.45-0.81-0.58-1.26
			c-0.07-0.26-0.06-0.5,0.07-0.74c0.5-0.93,0.5-1.89,0.1-2.85c-0.26-0.61-0.58-1.19-0.89-1.77c-0.42-0.79-0.52-1.65-0.68-2.5
			c-0.1-0.52,0.12-0.81,0.61-1.02c0.14-0.06,0.28-0.09,0.42-0.14c0.26-0.1,0.34-0.26,0.22-0.51c-0.17-0.37-0.3-0.73-0.34-1.15
			c-0.04-0.4-0.33-0.73-0.56-1.06c-0.24-0.35-0.51-0.68-0.67-1.08c-0.22-0.55-0.1-0.94,0.37-1.29c0.29-0.21,0.62-0.36,0.96-0.45
			c0.27-0.07,0.26-0.17,0.19-0.4c-0.15-0.46-0.41-0.85-0.65-1.26c-0.64-1.07-1.09-2.21-1.25-3.46c-0.04-0.3-0.06-0.61,0.02-0.91
			c0.11-0.44,0.38-0.61,0.83-0.55c0.45,0.06,0.82,0.35,1.26,0.42c0.04,0.01,0.08,0.01,0.15,0.03c-0.19-0.57-0.37-1.11-0.54-1.66
			c-0.43-1.35-0.91-2.69-1.24-4.08c-0.07-0.28-0.08-0.57-0.04-0.85c0.06-0.44,0.31-0.66,0.76-0.66c0.21,0,0.41,0.04,0.61,0.11
			c0.19,0.06,0.37,0.13,0.59,0.2c-0.07-0.63-0.14-1.24-0.2-1.86c-0.11-1.18-0.34-2.35-0.39-3.53c0-0.09,0-0.18,0.01-0.27
			c0.09-0.58,0.4-0.8,0.98-0.68c0.35,0.07,0.67,0.23,1,0.37c0.13,0.06,0.14,0.18,0.2,0.27c0.05,0.09,0.12,0.13,0.22,0.09
			c0.09-0.04,0.1-0.11,0.08-0.2c-0.32-1.54-0.54-3.09-0.73-4.65c-0.07-0.55-0.12-1.1-0.04-1.65c0.11-0.68,0.51-0.95,1.18-0.76
			c0.44,0.12,0.82,0.36,1.26,0.6c0-0.4,0.02-0.77,0-1.13c-0.18-2.48,0.55-4.74,1.62-6.92c0.73-1.48,1.59-2.87,2.67-4.11
			c0.36-0.41,0.44-0.92,0.49-1.43c0.16-1.58,0.5-3.14,0.8-4.7c0.42-2.17,0.98-4.31,1.78-6.38c0.11-0.28,0.23-0.56,0.36-0.89
			c0.45,0.77,0.78,1.53,1.06,2.32c0.53,1.48,0.83,3.02,1.14,4.56c0.61,3.11,1.6,6.08,3.3,8.79c0.8,1.27,1.52,2.59,1.95,4.04
			c0.22,0.73,0.35,1.48,0.34,2.25c-0.01,1.22,0,2.43,0,3.65c0.14,0.02,0.22-0.09,0.31-0.15c0.35-0.21,0.69-0.42,1.09-0.52
			c0.6-0.15,0.95,0.07,1.08,0.68c0.09,0.43,0.08,0.87,0.04,1.3c-0.15,1.48-0.32,2.97-0.5,4.45c-0.05,0.47,0.07,0.59,0.53,0.45
			c0.28-0.08,0.51-0.25,0.76-0.39c0.41-0.22,0.58-0.16,0.73,0.28c0.4,1.15,0.31,2.31,0.06,3.48c-0.16,0.75-0.38,1.49-0.6,2.23
			c-0.06,0.19-0.02,0.24,0.18,0.23c0.36-0.01,0.71-0.02,1.07,0c0.65,0.05,0.91,0.38,0.84,1.03c-0.11,1.02-0.41,1.99-0.72,2.96
			c-0.28,0.86-0.57,1.72-0.87,2.58c-0.07,0.19-0.17,0.37-0.27,0.56c0.28,0,0.52-0.04,0.75-0.17c0.24-0.13,0.5-0.24,0.78-0.28
			c0.4-0.05,0.62,0.09,0.71,0.49c0.14,0.61,0.03,1.22-0.1,1.82c-0.25,1.17-0.8,2.2-1.46,3.18c-0.12,0.18-0.25,0.36-0.35,0.55
			c-0.13,0.26-0.06,0.4,0.21,0.5c0.2,0.07,0.4,0.09,0.61,0.11c0.69,0.06,0.92,0.38,0.72,1.06c-0.39,1.3-0.85,2.59-1.39,3.84
			c-0.2,0.47-0.19,0.47,0.28,0.64c0.85,0.3,1.13,0.83,0.84,1.69c-0.29,0.85-0.6,1.69-0.92,2.53c-0.17,0.45-0.49,0.81-0.74,1.21
			c-0.33,0.53-0.51,1.08-0.14,1.66c0.11,0.18,0.24,0.34,0.41,0.47c0.2,0.15,0.21,0.33,0.14,0.55c-0.29,0.85-0.66,1.67-1.01,2.49
			c-0.17,0.41-0.36,0.81-0.54,1.21c-0.06,0.13-0.07,0.2,0.11,0.19c0.31-0.02,0.61,0,0.92-0.04c0.52-0.06,0.88-0.36,1.11-0.83
			c0.27-0.56,0.34-1.17,0.53-1.75c0.06-0.18,0.11-0.36,0.18-0.53c0.43-1.08,1.21-1.53,2.37-1.36c0.45,0.07,0.53,0.02,0.67-0.41
			c0.13-0.42,0.27-0.81,0.57-1.16c0.21-0.25,0.27-0.59,0.37-0.9c0.37-1.09,0.86-1.28,1.88-0.76c0.44,0.23,0.48,0.19,0.62-0.31
			c0.32-1.14,0.74-2.25,1.41-3.24c0.19-0.28,0.4-0.54,0.68-0.73c0.34-0.23,0.67-0.19,0.97,0.09c0.28,0.27,0.42,0.63,0.63,1.02
			c0.15-0.29,0.29-0.54,0.42-0.8c0.43-0.84,0.84-1.7,1.48-2.42c0.18-0.21,0.25-0.49,0.36-0.74c0.11-0.24,0.21-0.49,0.39-0.7
			c0.23-0.26,0.5-0.3,0.79-0.11c0.3,0.19,0.5,0.47,0.7,0.75c0.22,0.31,0.35,0.32,0.58,0.02c0.34-0.45,0.66-0.91,1-1.36
			c0.46-0.61,0.93-1.2,1.5-1.72c0.19-0.17,0.39-0.34,0.62-0.45c0.4-0.19,0.69-0.08,0.85,0.33c0.15,0.39,0.18,0.81,0.18,1.22
			c0,0.05,0,0.09,0,0.22c0.35-0.42,0.65-0.77,0.96-1.13c0.76-0.89,1.49-1.8,2.31-2.63c0.16-0.16,0.34-0.31,0.52-0.43
			c0.58-0.38,0.96-0.24,1.15,0.43c0.11,0.37,0.11,0.76,0.13,1.17c0.21-0.1,0.34-0.26,0.48-0.4c2.45-2.46,5.49-3.61,8.88-3.97
			c0.35-0.04,0.71-0.07,1.06-0.11c0.4-0.04,0.72-0.24,1.05-0.45c1.81-1.14,3.63-2.27,5.53-3.26c1.2-0.62,2.43-1.17,3.75-1.63
			c-0.21,0.63-0.48,1.19-0.77,1.75c-0.69,1.32-1.55,2.53-2.45,3.7c-2.22,2.9-3.68,6.15-4.54,9.68c-0.17,0.72-0.56,1.29-1.09,1.76
			c-0.79,0.7-1.49,1.5-2.33,2.15c-0.37,0.28-0.33,0.54,0.08,0.78c0.21,0.13,0.45,0.2,0.68,0.29c0.37,0.14,0.45,0.35,0.24,0.69
			c-0.25,0.41-0.61,0.72-0.96,1.04c-0.92,0.84-1.97,1.49-3.07,2.06c-0.13,0.07-0.26,0.14-0.4,0.21c0.24,0.22,0.47,0.42,0.68,0.64
			c0.57,0.59,0.57,1.13-0.03,1.7c-0.65,0.62-1.45,1.02-2.24,1.43c-0.4,0.21-0.81,0.42-1.22,0.6c-0.24,0.1-0.19,0.2-0.05,0.33
			c0.21,0.2,0.48,0.27,0.73,0.38c0.48,0.2,0.51,0.32,0.21,0.74c-0.61,0.83-1.45,1.33-2.39,1.69c-0.78,0.3-1.58,0.57-2.36,0.86
			c-0.11,0.04-0.27,0.04-0.28,0.21c-0.01,0.18,0.09,0.3,0.24,0.38c0.21,0.1,0.44,0.18,0.65,0.28c0.39,0.18,0.45,0.39,0.19,0.75
			c-0.46,0.64-1.08,1.09-1.81,1.39c-0.81,0.33-1.65,0.45-2.51,0.53c-0.27,0.02-0.54,0.05-0.85,0.07c0.22,0.25,0.45,0.46,0.6,0.73
			c0.28,0.49,0.23,0.85-0.24,1.15c-0.75,0.48-1.49,0.93-2.44,0.98c-1.04,0.05-1.33,0.57-0.94,1.54c0.12,0.3,0.04,0.44-0.19,0.61
			c-0.77,0.57-1.67,0.84-2.55,1.15c-0.68,0.24-1.36,0.49-1.96,0.9c-0.68,0.46-1.13,1.09-1.44,1.84c-0.08,0.2-0.02,0.29,0.15,0.37
			c0.31,0.15,0.65,0.2,0.95,0.08c1.23-0.48,2.43-0.24,3.64,0.02c0.94,0.2,1.87,0.32,2.79-0.07c0.08-0.03,0.12-0.02,0.18,0.04
			c0.28,0.29,0.31,0.47,0.09,0.73c0.58,0.05,1.16,0.09,1.72-0.12c0.17-0.07,0.36-0.11,0.54-0.15c0.35-0.06,0.69-0.05,0.97,0.22
			c0.38,0.36,0.45,0.64,0.22,1.11c0.2-0.02,0.4-0.02,0.58-0.1c1.05-0.47,2.08-0.34,3.08,0.15c0.5,0.24,0.97,0.53,1.43,0.84
			c1.21,0.82,2.59,1.3,3.93,1.85c2.61,1.08,5.27,2.02,7.98,2.8c0.25,0.07,0.32,0.12,0.68,0.44c-0.51,0.37-1.07,0.61-1.67,0.78
			c-0.62,0.18-1.25,0.29-1.9,0.31c-0.94,0.04-1.85,0.23-2.7,0.62c-1.68,0.78-3.38,1.51-5.19,1.98c-0.85,0.22-1.64,0.62-2.45,0.96
			c-1.43,0.61-2.93,0.91-4.47,1.07c-1.12,0.12-2.19,0.43-3.05,1.22c-0.23,0.21-0.47,0.27-0.79,0.05c-0.77-0.52-1.65-0.45-2.52-0.3
			c-0.6,0.1-1.2,0.25-1.81,0.3c-0.54,0.05-1.06-0.01-1.58-0.18c-1.2-0.39-2.44-0.66-3.67-0.31c-1.27,0.36-2.35,0.09-3.4-0.59
			c-0.23-0.15-0.46-0.24-0.69,0c-0.36,0.37-0.31,0.63,0.18,0.81c0.18,0.07,0.36,0.13,0.5,0.29c2.02,2.33,3.87,4.77,5.34,7.49
			c0.74,1.37,1.38,2.79,1.88,4.27c0.17,0.52,0.44,0.97,0.8,1.37c0.34,0.39,0.7,0.76,0.96,1.2c0.23,0.39,0.35,0.81,0.32,1.3
			c-0.52-0.21-1.02-0.42-1.53-0.61c-2.07-0.8-4.2-1.44-6.28-2.21c-2.11-0.78-4.16-1.67-5.97-3.03c-2.81-2.1-5.44-4.4-7.63-7.17
			c-1.78-2.26-3.15-4.73-4-7.48c-0.02-0.06-0.05-0.13-0.09-0.24c-0.17,0.81-0.28,1.57-0.37,2.34c-0.28,2.36-0.32,4.73-0.11,7.1
			c0.1,1.14,0.25,2.28,0.37,3.42c0.19,1.92,0.22,3.85,0.15,5.77c-0.02,0.5-0.25,0.69-0.71,0.65c-0.28-0.03-0.46-0.17-0.48-0.46
			c-0.01-0.16-0.02-0.31-0.02-0.47c0.03-1.89-0.11-3.77-0.3-5.65c-0.31-2.93-0.71-5.85-0.69-8.8
			C346.08,168.68,346.08,168.27,346.08,167.87z"/>
	</g>
	<g>
		<path class="st2" d="M486.08,168.87c-0.5,0.93-1,1.84-1.56,2.73c-2.3,3.69-5.32,6.66-8.94,9.03c-3.28,2.15-6.84,3.71-10.53,5.01
			c-1.21,0.42-2.43,0.81-3.66,1.19c-0.05,0.01-0.09,0.02-0.19,0.04c0.1-0.16,0.17-0.28,0.25-0.4c1.35-2.23,2.46-4.59,3.63-6.91
			c1.21-2.39,2.5-4.73,4.19-6.83c0.7-0.86,1.46-1.66,2.34-2.48c-0.4,0.15-0.71,0.28-1.03,0.39c-1.39,0.47-2.83,0.55-4.28,0.49
			c-1.88-0.07-3.75-0.07-5.63,0.05c-1.96,0.12-3.86-0.1-5.69-0.86c-0.77-0.32-1.56-0.57-2.39-0.66c-0.36-0.04-0.71-0.07-1.06,0.01
			c-0.87,0.19-1.68,0.03-2.43-0.4c-3.81-2.19-7.98-3.38-12.19-4.44c-0.5-0.13-1.01-0.23-1.55-0.35c0.59-0.65,1.29-1.01,2.08-1.18
			c1.03-0.23,2.08-0.37,3.09-0.68c1.94-0.59,3.74-1.48,5.43-2.59c0.12-0.08,0.23-0.14,0.38-0.11c0.63,0.12,1.22-0.06,1.76-0.37
			c0.53-0.3,1.05-0.64,1.57-0.95c0.84-0.51,1.72-0.74,2.68-0.33c0.1,0.05,0.14,0.01,0.17-0.07c0.33-0.77,0.97-0.97,1.73-0.99
			c0.44-0.01,0.89,0.03,1.33-0.02c0.51-0.05,0.93-0.23,1.24-0.66c0.14-0.19,0.33-0.26,0.54-0.14c0.73,0.42,1.5,0.36,2.27,0.17
			c0.59-0.14,1.18-0.33,1.79-0.42c0.77-0.11,1.47,0.04,2.08,0.56c0.15,0.13,0.32,0.27,0.53,0.15c0.24-0.14,0.35-0.4,0.44-0.65
			c0.03-0.08-0.06-0.08-0.11-0.1c-0.46-0.14-0.69-0.5-0.84-0.92c-0.1-0.28-0.19-0.56-0.3-0.84c-0.17-0.43-0.48-0.71-0.93-0.84
			c-0.48-0.13-0.94-0.29-1.4-0.49c-0.43-0.19-0.81-0.45-1.1-0.83c-0.34-0.44-0.67-0.88-0.98-1.34c-0.22-0.32-0.5-0.54-0.86-0.63
			c-0.9-0.21-1.76-0.58-2.65-0.83c-0.88-0.24-1.05-0.67-0.59-1.47c0.05-0.09,0.1-0.17,0.15-0.25c0.24-0.4,0.15-0.59-0.32-0.59
			c-1.37,0-2.59-0.45-3.73-1.17c-0.23-0.14-0.44-0.3-0.62-0.5c-0.32-0.36-0.29-0.69,0.08-0.99c0.34-0.27,0.75-0.39,1.19-0.57
			c-0.46-0.2-0.88-0.38-1.3-0.56c-1.09-0.46-2.18-0.92-3.22-1.48c-0.32-0.17-0.64-0.36-0.88-0.65c-0.29-0.34-0.25-0.64,0.12-0.9
			c0.32-0.22,0.69-0.31,1.1-0.45c-0.61-0.36-1.19-0.7-1.76-1.05c-0.68-0.41-1.35-0.82-1.98-1.3c-0.23-0.17-0.45-0.36-0.61-0.6
			c-0.25-0.36-0.2-0.66,0.16-0.92c0.38-0.27,0.83-0.37,1.27-0.5c-0.05-0.13-0.17-0.17-0.26-0.22c-1.39-0.86-2.66-1.88-3.99-2.82
			c-0.1-0.07-0.2-0.17-0.28-0.26c-0.22-0.25-0.2-0.51,0.05-0.76c0.22-0.22,0.49-0.36,0.77-0.49c0.46-0.21,0.49-0.4,0.11-0.72
			c-1.68-1.4-2.9-3.14-3.77-5.13c-0.58-1.32-0.95-2.7-1.14-4.12c-0.07-0.49-0.3-0.86-0.6-1.22c-2.17-2.58-4.13-5.29-5.68-8.29
			c-0.04-0.09-0.08-0.18-0.14-0.3c0.75,0.19,1.44,0.44,2.12,0.72c1.51,0.62,2.94,1.4,4.31,2.28c1.18,0.76,2.44,1.26,3.79,1.62
			c1.85,0.49,3.69,1.02,5.53,1.53c0.87,0.24,1.61,0.74,2.31,1.29c0.74,0.58,1.54,1.07,2.22,1.72c0.29,0.27,0.4,0.23,0.61-0.12
			c0.21-0.36,0.41-0.72,0.74-0.99c0.35-0.29,0.65-0.27,0.96,0.06c0.25,0.27,0.42,0.6,0.6,0.91c0.21,0.38,0.45,0.7,0.85,0.92
			c0.41,0.23,0.66,0.64,0.93,1.02c0.24,0.35,0.47,0.7,0.73,1.07c0.2-0.34,0.36-0.66,0.59-0.93c0.42-0.52,0.86-0.57,1.38-0.15
			c0.43,0.34,0.77,0.77,1.1,1.2c0.55,0.73,1.06,1.5,1.59,2.29c0.17-0.22,0.31-0.43,0.48-0.63c0.53-0.65,0.88-0.67,1.44-0.04
			c0.56,0.63,0.96,1.38,1.37,2.11c0.43,0.75,0.84,1.52,1.27,2.3c0.16-0.3,0.27-0.6,0.46-0.87c0.44-0.6,0.95-0.64,1.45-0.08
			c0.5,0.55,0.78,1.23,1.08,1.89c0.26,0.58,0.53,1.17,0.64,1.81c0.08,0.42,0.29,0.52,0.69,0.39c0.2-0.07,0.4-0.17,0.59-0.27
			c0.32-0.16,0.55-0.12,0.8,0.14c0.24,0.26,0.4,0.57,0.53,0.89c0.29,0.7,0.74,1.33,0.9,2.08c0.07,0.3,0.31,0.44,0.63,0.44
			c0.25,0,0.49-0.05,0.73-0.13c0.36-0.13,0.66-0.03,0.92,0.23c0.52,0.53,0.78,1.2,1,1.89c0.16,0.48,0.26,0.97,0.41,1.45
			c0.33,1.08,1.02,1.05,1.95,0.67c0.14-0.06,0.06-0.14,0.02-0.21c-0.23-0.42-0.46-0.85-0.7-1.27c-0.22-0.41-0.45-0.81-0.58-1.26
			c-0.07-0.26-0.06-0.5,0.07-0.74c0.5-0.93,0.5-1.89,0.1-2.85c-0.26-0.61-0.58-1.19-0.89-1.77c-0.42-0.79-0.52-1.65-0.68-2.5
			c-0.1-0.52,0.12-0.81,0.61-1.02c0.14-0.06,0.28-0.09,0.42-0.14c0.26-0.1,0.34-0.26,0.22-0.51c-0.17-0.37-0.3-0.73-0.34-1.15
			c-0.04-0.4-0.33-0.73-0.56-1.06c-0.24-0.35-0.51-0.68-0.67-1.08c-0.22-0.55-0.1-0.94,0.37-1.29c0.29-0.21,0.62-0.36,0.96-0.45
			c0.27-0.07,0.26-0.17,0.19-0.4c-0.15-0.46-0.41-0.85-0.65-1.26c-0.64-1.07-1.09-2.21-1.25-3.46c-0.04-0.3-0.06-0.61,0.02-0.91
			c0.11-0.44,0.38-0.61,0.83-0.55c0.45,0.06,0.82,0.35,1.26,0.42c0.04,0.01,0.08,0.01,0.15,0.03c-0.19-0.57-0.37-1.11-0.54-1.66
			c-0.43-1.35-0.91-2.69-1.24-4.08c-0.07-0.28-0.08-0.57-0.04-0.85c0.06-0.44,0.31-0.66,0.76-0.66c0.21,0,0.41,0.04,0.61,0.11
			c0.19,0.06,0.37,0.13,0.59,0.2c-0.07-0.63-0.14-1.24-0.2-1.86c-0.11-1.18-0.34-2.35-0.39-3.53c0-0.09,0-0.18,0.01-0.27
			c0.09-0.58,0.4-0.8,0.98-0.68c0.35,0.07,0.67,0.23,1,0.37c0.13,0.06,0.14,0.18,0.2,0.27c0.05,0.09,0.12,0.13,0.22,0.09
			c0.09-0.04,0.1-0.11,0.08-0.2c-0.32-1.54-0.54-3.09-0.73-4.65c-0.07-0.55-0.12-1.1-0.04-1.65c0.11-0.68,0.51-0.95,1.18-0.76
			c0.44,0.12,0.82,0.36,1.26,0.6c0-0.4,0.02-0.77,0-1.13c-0.18-2.48,0.55-4.74,1.62-6.92c0.73-1.48,1.59-2.87,2.67-4.11
			c0.36-0.41,0.44-0.92,0.49-1.43c0.16-1.58,0.5-3.14,0.8-4.7c0.42-2.17,0.98-4.31,1.78-6.38c0.11-0.28,0.23-0.56,0.36-0.89
			c0.45,0.77,0.78,1.53,1.06,2.32c0.53,1.48,0.83,3.02,1.14,4.56c0.61,3.11,1.6,6.08,3.3,8.79c0.8,1.27,1.52,2.59,1.95,4.04
			c0.22,0.73,0.35,1.48,0.34,2.25c-0.01,1.22,0,2.43,0,3.65c0.14,0.02,0.22-0.09,0.31-0.15c0.35-0.21,0.69-0.42,1.09-0.52
			c0.6-0.15,0.95,0.07,1.08,0.68c0.09,0.43,0.08,0.87,0.04,1.3c-0.15,1.48-0.32,2.97-0.5,4.45c-0.05,0.47,0.07,0.59,0.53,0.45
			c0.28-0.08,0.51-0.25,0.76-0.39c0.41-0.22,0.58-0.16,0.73,0.28c0.4,1.15,0.31,2.31,0.06,3.48c-0.16,0.75-0.38,1.49-0.6,2.23
			c-0.06,0.19-0.02,0.24,0.18,0.23c0.36-0.01,0.71-0.02,1.07,0c0.65,0.05,0.91,0.38,0.84,1.03c-0.11,1.02-0.41,1.99-0.72,2.96
			c-0.28,0.86-0.57,1.72-0.87,2.58c-0.07,0.19-0.17,0.37-0.27,0.56c0.28,0,0.52-0.04,0.75-0.17c0.24-0.13,0.5-0.24,0.78-0.28
			c0.4-0.05,0.62,0.09,0.71,0.49c0.14,0.61,0.03,1.22-0.1,1.82c-0.25,1.17-0.8,2.2-1.46,3.18c-0.12,0.18-0.25,0.36-0.35,0.55
			c-0.13,0.26-0.06,0.4,0.21,0.5c0.2,0.07,0.4,0.09,0.61,0.11c0.69,0.06,0.92,0.38,0.72,1.06c-0.39,1.3-0.85,2.59-1.39,3.84
			c-0.2,0.47-0.19,0.47,0.28,0.64c0.85,0.3,1.13,0.83,0.84,1.69c-0.29,0.85-0.6,1.69-0.92,2.53c-0.17,0.45-0.49,0.81-0.74,1.21
			c-0.33,0.53-0.51,1.08-0.14,1.66c0.11,0.18,0.24,0.34,0.41,0.47c0.2,0.15,0.21,0.33,0.14,0.55c-0.29,0.85-0.66,1.67-1.01,2.49
			c-0.17,0.41-0.36,0.81-0.54,1.21c-0.06,0.13-0.07,0.2,0.11,0.19c0.31-0.02,0.61,0,0.92-0.04c0.52-0.06,0.88-0.36,1.11-0.83
			c0.27-0.56,0.34-1.17,0.53-1.75c0.06-0.18,0.11-0.36,0.18-0.53c0.43-1.08,1.21-1.53,2.37-1.36c0.45,0.07,0.53,0.02,0.67-0.41
			c0.13-0.42,0.27-0.81,0.57-1.16c0.21-0.25,0.27-0.59,0.37-0.9c0.37-1.09,0.86-1.28,1.88-0.76c0.44,0.23,0.48,0.19,0.62-0.31
			c0.32-1.14,0.74-2.25,1.41-3.24c0.19-0.28,0.4-0.54,0.68-0.73c0.34-0.23,0.67-0.19,0.97,0.09c0.28,0.27,0.42,0.63,0.63,1.02
			c0.15-0.29,0.29-0.54,0.42-0.8c0.43-0.84,0.84-1.7,1.48-2.42c0.18-0.21,0.25-0.49,0.36-0.74c0.11-0.24,0.21-0.49,0.39-0.7
			c0.23-0.26,0.5-0.3,0.79-0.11c0.3,0.19,0.5,0.47,0.7,0.75c0.22,0.31,0.35,0.32,0.58,0.02c0.34-0.45,0.66-0.91,1-1.36
			c0.46-0.61,0.93-1.2,1.5-1.72c0.19-0.17,0.39-0.34,0.62-0.45c0.4-0.19,0.69-0.08,0.85,0.33c0.15,0.39,0.18,0.81,0.18,1.22
			c0,0.05,0,0.09,0,0.22c0.35-0.42,0.65-0.77,0.96-1.13c0.76-0.89,1.49-1.8,2.31-2.63c0.16-0.16,0.34-0.31,0.52-0.43
			c0.58-0.38,0.96-0.24,1.15,0.43c0.11,0.37,0.11,0.76,0.13,1.17c0.21-0.1,0.34-0.26,0.48-0.4c2.45-2.46,5.49-3.61,8.88-3.97
			c0.35-0.04,0.71-0.07,1.06-0.11c0.4-0.04,0.72-0.24,1.05-0.45c1.81-1.14,3.63-2.27,5.53-3.26c1.2-0.62,2.43-1.17,3.75-1.63
			c-0.21,0.63-0.48,1.19-0.77,1.75c-0.69,1.32-1.55,2.53-2.45,3.7c-2.22,2.9-3.68,6.15-4.54,9.68c-0.17,0.72-0.56,1.29-1.09,1.76
			c-0.79,0.7-1.49,1.5-2.33,2.15c-0.37,0.28-0.33,0.54,0.08,0.78c0.21,0.13,0.45,0.2,0.68,0.29c0.37,0.14,0.45,0.35,0.24,0.69
			c-0.25,0.41-0.61,0.72-0.96,1.04c-0.92,0.84-1.97,1.49-3.07,2.06c-0.13,0.07-0.26,0.14-0.4,0.21c0.24,0.22,0.47,0.42,0.68,0.64
			c0.57,0.59,0.57,1.13-0.03,1.7c-0.65,0.62-1.45,1.02-2.24,1.43c-0.4,0.21-0.81,0.42-1.22,0.6c-0.24,0.1-0.19,0.2-0.05,0.33
			c0.21,0.2,0.48,0.27,0.73,0.38c0.48,0.2,0.51,0.32,0.21,0.74c-0.61,0.83-1.45,1.33-2.39,1.69c-0.78,0.3-1.58,0.57-2.36,0.86
			c-0.11,0.04-0.27,0.04-0.28,0.21c-0.01,0.18,0.09,0.3,0.24,0.38c0.21,0.1,0.44,0.18,0.65,0.28c0.39,0.18,0.45,0.39,0.19,0.75
			c-0.46,0.64-1.08,1.09-1.81,1.39c-0.81,0.33-1.65,0.45-2.51,0.53c-0.27,0.02-0.54,0.05-0.85,0.07c0.22,0.25,0.45,0.46,0.6,0.73
			c0.28,0.49,0.23,0.85-0.24,1.15c-0.75,0.48-1.49,0.93-2.44,0.98c-1.04,0.05-1.33,0.57-0.94,1.54c0.12,0.3,0.04,0.44-0.19,0.61
			c-0.77,0.57-1.67,0.84-2.55,1.15c-0.68,0.24-1.36,0.49-1.96,0.9c-0.68,0.46-1.13,1.09-1.44,1.84c-0.08,0.2-0.02,0.29,0.15,0.37
			c0.31,0.15,0.65,0.2,0.95,0.08c1.23-0.48,2.43-0.24,3.64,0.02c0.94,0.2,1.87,0.32,2.79-0.07c0.08-0.03,0.12-0.02,0.18,0.04
			c0.28,0.29,0.31,0.47,0.09,0.73c0.58,0.05,1.16,0.09,1.72-0.12c0.17-0.07,0.36-0.11,0.54-0.15c0.35-0.06,0.69-0.05,0.97,0.22
			c0.38,0.36,0.45,0.64,0.22,1.11c0.2-0.02,0.4-0.02,0.58-0.1c1.05-0.47,2.08-0.34,3.08,0.15c0.5,0.24,0.97,0.53,1.43,0.84
			c1.21,0.82,2.59,1.3,3.93,1.85c2.61,1.08,5.27,2.02,7.98,2.8c0.25,0.07,0.32,0.12,0.68,0.44c-0.51,0.37-1.07,0.61-1.67,0.78
			c-0.62,0.18-1.25,0.29-1.9,0.31c-0.94,0.04-1.85,0.23-2.7,0.62c-1.68,0.78-3.38,1.51-5.19,1.98c-0.85,0.22-1.64,0.62-2.45,0.96
			c-1.43,0.61-2.93,0.91-4.47,1.07c-1.12,0.12-2.19,0.43-3.05,1.22c-0.23,0.21-0.47,0.27-0.79,0.05c-0.77-0.52-1.65-0.45-2.52-0.3
			c-0.6,0.1-1.2,0.25-1.81,0.3c-0.54,0.05-1.06-0.01-1.58-0.18c-1.2-0.39-2.44-0.66-3.67-0.31c-1.27,0.36-2.35,0.09-3.4-0.59
			c-0.23-0.15-0.46-0.24-0.69,0c-0.36,0.37-0.31,0.63,0.18,0.81c0.18,0.07,0.36,0.13,0.5,0.29c2.02,2.33,3.87,4.77,5.34,7.49
			c0.74,1.37,1.38,2.79,1.88,4.27c0.17,0.52,0.44,0.97,0.8,1.37c0.34,0.39,0.7,0.76,0.96,1.2c0.23,0.39,0.35,0.81,0.32,1.3
			c-0.52-0.21-1.02-0.42-1.53-0.61c-2.07-0.8-4.2-1.44-6.28-2.21c-2.11-0.78-4.16-1.67-5.97-3.03c-2.81-2.1-5.44-4.4-7.63-7.17
			c-1.78-2.26-3.15-4.73-4-7.48c-0.02-0.06-0.05-0.13-0.09-0.24c-0.17,0.81-0.28,1.57-0.37,2.34c-0.28,2.36-0.32,4.73-0.11,7.1
			c0.1,1.14,0.25,2.28,0.37,3.42c0.19,1.92,0.22,3.85,0.15,5.77c-0.02,0.5-0.25,0.69-0.71,0.65c-0.28-0.03-0.46-0.17-0.48-0.46
			c-0.01-0.16-0.02-0.31-0.02-0.47c0.03-1.89-0.11-3.77-0.3-5.65c-0.31-2.93-0.71-5.85-0.69-8.8
			C486.08,169.68,486.08,169.27,486.08,168.87z"/>
	</g>
	<g>
		<path class="st3" d="M668.08,160.87c-0.5,0.93-1,1.84-1.56,2.73c-2.3,3.69-5.32,6.66-8.94,9.03c-3.28,2.15-6.84,3.71-10.53,5.01
			c-1.21,0.42-2.43,0.81-3.66,1.19c-0.05,0.01-0.09,0.02-0.19,0.04c0.1-0.16,0.17-0.28,0.25-0.4c1.35-2.23,2.46-4.59,3.63-6.91
			c1.21-2.39,2.5-4.73,4.19-6.83c0.7-0.86,1.46-1.66,2.34-2.48c-0.4,0.15-0.71,0.28-1.03,0.39c-1.39,0.47-2.83,0.55-4.28,0.49
			c-1.88-0.07-3.75-0.07-5.63,0.05c-1.96,0.12-3.86-0.1-5.69-0.86c-0.77-0.32-1.56-0.57-2.39-0.66c-0.36-0.04-0.71-0.07-1.06,0.01
			c-0.87,0.19-1.68,0.03-2.43-0.4c-3.81-2.19-7.98-3.38-12.19-4.44c-0.5-0.13-1.01-0.23-1.55-0.35c0.59-0.65,1.29-1.01,2.08-1.18
			c1.03-0.23,2.08-0.37,3.09-0.68c1.94-0.59,3.74-1.48,5.43-2.59c0.12-0.08,0.23-0.14,0.38-0.11c0.63,0.12,1.22-0.06,1.76-0.37
			c0.53-0.3,1.05-0.64,1.57-0.95c0.84-0.51,1.72-0.74,2.68-0.33c0.1,0.05,0.14,0.01,0.17-0.07c0.33-0.77,0.97-0.97,1.73-0.99
			c0.44-0.01,0.89,0.03,1.33-0.02c0.51-0.05,0.93-0.23,1.24-0.66c0.14-0.19,0.33-0.26,0.54-0.14c0.73,0.42,1.5,0.36,2.27,0.17
			c0.59-0.14,1.18-0.33,1.79-0.42c0.77-0.11,1.47,0.04,2.08,0.56c0.15,0.13,0.32,0.27,0.53,0.15c0.24-0.14,0.35-0.4,0.44-0.65
			c0.03-0.08-0.06-0.08-0.11-0.1c-0.46-0.14-0.69-0.5-0.84-0.92c-0.1-0.28-0.19-0.56-0.3-0.84c-0.17-0.43-0.48-0.71-0.93-0.84
			c-0.48-0.13-0.94-0.29-1.4-0.49c-0.43-0.19-0.81-0.45-1.1-0.83c-0.34-0.44-0.67-0.88-0.98-1.34c-0.22-0.32-0.5-0.54-0.86-0.63
			c-0.9-0.21-1.76-0.58-2.65-0.83c-0.88-0.24-1.05-0.67-0.59-1.47c0.05-0.09,0.1-0.17,0.15-0.25c0.24-0.4,0.15-0.59-0.32-0.59
			c-1.37,0-2.59-0.45-3.73-1.17c-0.23-0.14-0.44-0.3-0.62-0.5c-0.32-0.36-0.29-0.69,0.08-0.99c0.34-0.27,0.75-0.39,1.19-0.57
			c-0.46-0.2-0.88-0.38-1.3-0.56c-1.09-0.46-2.18-0.92-3.22-1.48c-0.32-0.17-0.64-0.36-0.88-0.65c-0.29-0.34-0.25-0.64,0.12-0.9
			c0.32-0.22,0.69-0.31,1.1-0.45c-0.61-0.36-1.19-0.7-1.76-1.05c-0.68-0.41-1.35-0.82-1.98-1.3c-0.23-0.17-0.45-0.36-0.61-0.6
			c-0.25-0.36-0.2-0.66,0.16-0.92c0.38-0.27,0.83-0.37,1.27-0.5c-0.05-0.13-0.17-0.17-0.26-0.22c-1.39-0.86-2.66-1.88-3.99-2.82
			c-0.1-0.07-0.2-0.17-0.28-0.26c-0.22-0.25-0.2-0.51,0.05-0.76c0.22-0.22,0.49-0.36,0.77-0.49c0.46-0.21,0.49-0.4,0.11-0.72
			c-1.68-1.4-2.9-3.14-3.77-5.13c-0.58-1.32-0.95-2.7-1.14-4.12c-0.07-0.49-0.3-0.86-0.6-1.22c-2.17-2.58-4.13-5.29-5.68-8.29
			c-0.04-0.09-0.08-0.18-0.14-0.3c0.75,0.19,1.44,0.44,2.12,0.72c1.51,0.62,2.94,1.4,4.31,2.28c1.18,0.76,2.44,1.26,3.79,1.62
			c1.85,0.49,3.69,1.02,5.53,1.53c0.87,0.24,1.61,0.74,2.31,1.29c0.74,0.58,1.54,1.07,2.22,1.72c0.29,0.27,0.4,0.23,0.61-0.12
			c0.21-0.36,0.41-0.72,0.74-0.99c0.35-0.29,0.65-0.27,0.96,0.06c0.25,0.27,0.42,0.6,0.6,0.91c0.21,0.38,0.45,0.7,0.85,0.92
			c0.41,0.23,0.66,0.64,0.93,1.02c0.24,0.35,0.47,0.7,0.73,1.07c0.2-0.34,0.36-0.66,0.59-0.93c0.42-0.52,0.86-0.57,1.38-0.15
			c0.43,0.34,0.77,0.77,1.1,1.2c0.55,0.73,1.06,1.5,1.59,2.29c0.17-0.22,0.31-0.43,0.48-0.63c0.53-0.65,0.88-0.67,1.44-0.04
			c0.56,0.63,0.96,1.38,1.37,2.11c0.43,0.75,0.84,1.52,1.27,2.3c0.16-0.3,0.27-0.6,0.46-0.87c0.44-0.6,0.95-0.64,1.45-0.08
			c0.5,0.55,0.78,1.23,1.08,1.89c0.26,0.58,0.53,1.17,0.64,1.81c0.08,0.42,0.29,0.52,0.69,0.39c0.2-0.07,0.4-0.17,0.59-0.27
			c0.32-0.16,0.55-0.12,0.8,0.14c0.24,0.26,0.4,0.57,0.53,0.89c0.29,0.7,0.74,1.33,0.9,2.08c0.07,0.3,0.31,0.44,0.63,0.44
			c0.25,0,0.49-0.05,0.73-0.13c0.36-0.13,0.66-0.03,0.92,0.23c0.52,0.53,0.78,1.2,1,1.89c0.16,0.48,0.26,0.97,0.41,1.45
			c0.33,1.08,1.02,1.05,1.95,0.67c0.14-0.06,0.06-0.14,0.02-0.21c-0.23-0.42-0.46-0.85-0.7-1.27c-0.22-0.41-0.45-0.81-0.58-1.26
			c-0.07-0.26-0.06-0.5,0.07-0.74c0.5-0.93,0.5-1.89,0.1-2.85c-0.26-0.61-0.58-1.19-0.89-1.77c-0.42-0.79-0.52-1.65-0.68-2.5
			c-0.1-0.52,0.12-0.81,0.61-1.02c0.14-0.06,0.28-0.09,0.42-0.14c0.26-0.1,0.34-0.26,0.22-0.51c-0.17-0.37-0.3-0.73-0.34-1.15
			c-0.04-0.4-0.33-0.73-0.56-1.06c-0.24-0.35-0.51-0.68-0.67-1.08c-0.22-0.55-0.1-0.94,0.37-1.29c0.29-0.21,0.62-0.36,0.96-0.45
			c0.27-0.07,0.26-0.17,0.19-0.4c-0.15-0.46-0.41-0.85-0.65-1.26c-0.64-1.07-1.09-2.21-1.25-3.46c-0.04-0.3-0.06-0.61,0.02-0.91
			c0.11-0.44,0.38-0.61,0.83-0.55c0.45,0.06,0.82,0.35,1.26,0.42c0.04,0.01,0.08,0.01,0.15,0.03c-0.19-0.57-0.37-1.11-0.54-1.66
			c-0.43-1.35-0.91-2.69-1.24-4.08c-0.07-0.28-0.08-0.57-0.04-0.85c0.06-0.44,0.31-0.66,0.76-0.66c0.21,0,0.41,0.04,0.61,0.11
			c0.19,0.06,0.37,0.13,0.59,0.2c-0.07-0.63-0.14-1.24-0.2-1.86c-0.11-1.18-0.34-2.35-0.39-3.53c0-0.09,0-0.18,0.01-0.27
			c0.09-0.58,0.4-0.8,0.98-0.68c0.35,0.07,0.67,0.23,1,0.37c0.13,0.06,0.14,0.18,0.2,0.27c0.05,0.09,0.12,0.13,0.22,0.09
			c0.09-0.04,0.1-0.11,0.08-0.2c-0.32-1.54-0.54-3.09-0.73-4.65c-0.07-0.55-0.12-1.1-0.04-1.65c0.11-0.68,0.51-0.95,1.18-0.76
			c0.44,0.12,0.82,0.36,1.26,0.6c0-0.4,0.02-0.77,0-1.13c-0.18-2.48,0.55-4.74,1.62-6.92c0.73-1.48,1.59-2.87,2.67-4.11
			c0.36-0.41,0.44-0.92,0.49-1.43c0.16-1.58,0.5-3.14,0.8-4.7c0.42-2.17,0.98-4.31,1.78-6.38c0.11-0.28,0.23-0.56,0.36-0.89
			c0.45,0.77,0.78,1.53,1.06,2.32c0.53,1.48,0.83,3.02,1.14,4.56c0.61,3.11,1.6,6.08,3.3,8.79c0.8,1.27,1.52,2.59,1.95,4.04
			c0.22,0.73,0.35,1.48,0.34,2.25c-0.01,1.22,0,2.43,0,3.65c0.14,0.02,0.22-0.09,0.31-0.15c0.35-0.21,0.69-0.42,1.09-0.52
			c0.6-0.15,0.95,0.07,1.08,0.68c0.09,0.43,0.08,0.87,0.04,1.3c-0.15,1.48-0.32,2.97-0.5,4.45c-0.05,0.47,0.07,0.59,0.53,0.45
			c0.28-0.08,0.51-0.25,0.76-0.39c0.41-0.22,0.58-0.16,0.73,0.28c0.4,1.15,0.31,2.31,0.06,3.48c-0.16,0.75-0.38,1.49-0.6,2.23
			c-0.06,0.19-0.02,0.24,0.18,0.23c0.36-0.01,0.71-0.02,1.07,0c0.65,0.05,0.91,0.38,0.84,1.03c-0.11,1.02-0.41,1.99-0.72,2.96
			c-0.28,0.86-0.57,1.72-0.87,2.58c-0.07,0.19-0.17,0.37-0.27,0.56c0.28,0,0.52-0.04,0.75-0.17c0.24-0.13,0.5-0.24,0.78-0.28
			c0.4-0.05,0.62,0.09,0.71,0.49c0.14,0.61,0.03,1.22-0.1,1.82c-0.25,1.17-0.8,2.2-1.46,3.18c-0.12,0.18-0.25,0.36-0.35,0.55
			c-0.13,0.26-0.06,0.4,0.21,0.5c0.2,0.07,0.4,0.09,0.61,0.11c0.69,0.06,0.92,0.38,0.72,1.06c-0.39,1.3-0.85,2.59-1.39,3.84
			c-0.2,0.47-0.19,0.47,0.28,0.64c0.85,0.3,1.13,0.83,0.84,1.69c-0.29,0.85-0.6,1.69-0.92,2.53c-0.17,0.45-0.49,0.81-0.74,1.21
			c-0.33,0.53-0.51,1.08-0.14,1.66c0.11,0.18,0.24,0.34,0.41,0.47c0.2,0.15,0.21,0.33,0.14,0.55c-0.29,0.85-0.66,1.67-1.01,2.49
			c-0.17,0.41-0.36,0.81-0.54,1.21c-0.06,0.13-0.07,0.2,0.11,0.19c0.31-0.02,0.61,0,0.92-0.04c0.52-0.06,0.88-0.36,1.11-0.83
			c0.27-0.56,0.34-1.17,0.53-1.75c0.06-0.18,0.11-0.36,0.18-0.53c0.43-1.08,1.21-1.53,2.37-1.36c0.45,0.07,0.53,0.02,0.67-0.41
			c0.13-0.42,0.27-0.81,0.57-1.16c0.21-0.25,0.27-0.59,0.37-0.9c0.37-1.09,0.86-1.28,1.88-0.76c0.44,0.23,0.48,0.19,0.62-0.31
			c0.32-1.14,0.74-2.25,1.41-3.24c0.19-0.28,0.4-0.54,0.68-0.73c0.34-0.23,0.67-0.19,0.97,0.09c0.28,0.27,0.42,0.63,0.63,1.02
			c0.15-0.29,0.29-0.54,0.42-0.8c0.43-0.84,0.84-1.7,1.48-2.42c0.18-0.21,0.25-0.49,0.36-0.74c0.11-0.24,0.21-0.49,0.39-0.7
			c0.23-0.26,0.5-0.3,0.79-0.11c0.3,0.19,0.5,0.47,0.7,0.75c0.22,0.31,0.35,0.32,0.58,0.02c0.34-0.45,0.66-0.91,1-1.36
			c0.46-0.61,0.93-1.2,1.5-1.72c0.19-0.17,0.39-0.34,0.62-0.45c0.4-0.19,0.69-0.08,0.85,0.33c0.15,0.39,0.18,0.81,0.18,1.22
			c0,0.05,0,0.09,0,0.22c0.35-0.42,0.65-0.77,0.96-1.13c0.76-0.89,1.49-1.8,2.31-2.63c0.16-0.16,0.34-0.31,0.52-0.43
			c0.58-0.38,0.96-0.24,1.15,0.43c0.11,0.37,0.11,0.76,0.13,1.17c0.21-0.1,0.34-0.26,0.48-0.4c2.45-2.46,5.49-3.61,8.88-3.97
			c0.35-0.04,0.71-0.07,1.06-0.11c0.4-0.04,0.72-0.24,1.05-0.45c1.81-1.14,3.63-2.27,5.53-3.26c1.2-0.62,2.43-1.17,3.75-1.63
			c-0.21,0.63-0.48,1.19-0.77,1.75c-0.69,1.32-1.55,2.53-2.45,3.7c-2.22,2.9-3.68,6.15-4.54,9.68c-0.17,0.72-0.56,1.29-1.09,1.76
			c-0.79,0.7-1.49,1.5-2.33,2.15c-0.37,0.28-0.33,0.54,0.08,0.78c0.21,0.13,0.45,0.2,0.68,0.29c0.37,0.14,0.45,0.35,0.24,0.69
			c-0.25,0.41-0.61,0.72-0.96,1.04c-0.92,0.84-1.97,1.49-3.07,2.06c-0.13,0.07-0.26,0.14-0.4,0.21c0.24,0.22,0.47,0.42,0.68,0.64
			c0.57,0.59,0.57,1.13-0.03,1.7c-0.65,0.62-1.45,1.02-2.24,1.43c-0.4,0.21-0.81,0.42-1.22,0.6c-0.24,0.1-0.19,0.2-0.05,0.33
			c0.21,0.2,0.48,0.27,0.73,0.38c0.48,0.2,0.51,0.32,0.21,0.74c-0.61,0.83-1.45,1.33-2.39,1.69c-0.78,0.3-1.58,0.57-2.36,0.86
			c-0.11,0.04-0.27,0.04-0.28,0.21c-0.01,0.18,0.09,0.3,0.24,0.38c0.21,0.1,0.44,0.18,0.65,0.28c0.39,0.18,0.45,0.39,0.19,0.75
			c-0.46,0.64-1.08,1.09-1.81,1.39c-0.81,0.33-1.65,0.45-2.51,0.53c-0.27,0.02-0.54,0.05-0.85,0.07c0.22,0.25,0.45,0.46,0.6,0.73
			c0.28,0.49,0.23,0.85-0.24,1.15c-0.75,0.48-1.49,0.93-2.44,0.98c-1.04,0.05-1.33,0.57-0.94,1.54c0.12,0.3,0.04,0.44-0.19,0.61
			c-0.77,0.57-1.67,0.84-2.55,1.15c-0.68,0.24-1.36,0.49-1.96,0.9c-0.68,0.46-1.13,1.09-1.44,1.84c-0.08,0.2-0.02,0.29,0.15,0.37
			c0.31,0.15,0.65,0.2,0.95,0.08c1.23-0.48,2.43-0.24,3.64,0.02c0.94,0.2,1.87,0.32,2.79-0.07c0.08-0.03,0.12-0.02,0.18,0.04
			c0.28,0.29,0.31,0.47,0.09,0.73c0.58,0.05,1.16,0.09,1.72-0.12c0.17-0.07,0.36-0.11,0.54-0.15c0.35-0.06,0.69-0.05,0.97,0.22
			c0.38,0.36,0.45,0.64,0.22,1.11c0.2-0.02,0.4-0.02,0.58-0.1c1.05-0.47,2.08-0.34,3.08,0.15c0.5,0.24,0.97,0.53,1.43,0.84
			c1.21,0.82,2.59,1.3,3.93,1.85c2.61,1.08,5.27,2.02,7.98,2.8c0.25,0.07,0.32,0.12,0.68,0.44c-0.51,0.37-1.07,0.61-1.67,0.78
			c-0.62,0.18-1.25,0.29-1.9,0.31c-0.94,0.04-1.85,0.23-2.7,0.62c-1.68,0.78-3.38,1.51-5.19,1.98c-0.85,0.22-1.64,0.62-2.45,0.96
			c-1.43,0.61-2.93,0.91-4.47,1.07c-1.12,0.12-2.19,0.43-3.05,1.22c-0.23,0.21-0.47,0.27-0.79,0.05c-0.77-0.52-1.65-0.45-2.52-0.3
			c-0.6,0.1-1.2,0.25-1.81,0.3c-0.54,0.05-1.06-0.01-1.58-0.18c-1.2-0.39-2.44-0.66-3.67-0.31c-1.27,0.36-2.35,0.09-3.4-0.59
			c-0.23-0.15-0.46-0.24-0.69,0c-0.36,0.37-0.31,0.63,0.18,0.81c0.18,0.07,0.36,0.13,0.5,0.29c2.02,2.33,3.87,4.77,5.34,7.49
			c0.74,1.37,1.38,2.79,1.88,4.27c0.17,0.52,0.44,0.97,0.8,1.37c0.34,0.39,0.7,0.76,0.96,1.2c0.23,0.39,0.35,0.81,0.32,1.3
			c-0.52-0.21-1.02-0.42-1.53-0.61c-2.07-0.8-4.2-1.44-6.28-2.21c-2.11-0.78-4.16-1.67-5.97-3.03c-2.81-2.1-5.44-4.4-7.63-7.17
			c-1.78-2.26-3.15-4.73-4-7.48c-0.02-0.06-0.05-0.13-0.09-0.24c-0.17,0.81-0.28,1.57-0.37,2.34c-0.28,2.36-0.32,4.73-0.11,7.1
			c0.1,1.14,0.25,2.28,0.37,3.42c0.19,1.92,0.22,3.85,0.15,5.77c-0.02,0.5-0.25,0.69-0.71,0.65c-0.28-0.03-0.46-0.17-0.48-0.46
			c-0.01-0.16-0.02-0.31-0.02-0.47c0.03-1.89-0.11-3.77-0.3-5.65c-0.31-2.93-0.71-5.85-0.69-8.8
			C668.08,161.68,668.08,161.27,668.08,160.87z"/>
	</g>
	<g>
		<path class="st4" d="M879.08,159.87c-0.5,0.93-1,1.84-1.56,2.73c-2.3,3.69-5.32,6.66-8.94,9.03c-3.28,2.15-6.84,3.71-10.53,5.01
			c-1.21,0.42-2.43,0.81-3.66,1.19c-0.05,0.01-0.09,0.02-0.19,0.04c0.1-0.16,0.17-0.28,0.25-0.4c1.35-2.23,2.46-4.59,3.63-6.91
			c1.21-2.39,2.5-4.73,4.19-6.83c0.7-0.86,1.46-1.66,2.34-2.48c-0.4,0.15-0.71,0.28-1.03,0.39c-1.39,0.47-2.83,0.55-4.28,0.49
			c-1.88-0.07-3.75-0.07-5.63,0.05c-1.96,0.12-3.86-0.1-5.69-0.86c-0.77-0.32-1.56-0.57-2.39-0.66c-0.36-0.04-0.71-0.07-1.06,0.01
			c-0.87,0.19-1.68,0.03-2.43-0.4c-3.81-2.19-7.98-3.38-12.19-4.44c-0.5-0.13-1.01-0.23-1.55-0.35c0.59-0.65,1.29-1.01,2.08-1.18
			c1.03-0.23,2.08-0.37,3.09-0.68c1.94-0.59,3.74-1.48,5.43-2.59c0.12-0.08,0.23-0.14,0.38-0.11c0.63,0.12,1.22-0.06,1.76-0.37
			c0.53-0.3,1.05-0.64,1.57-0.95c0.84-0.51,1.72-0.74,2.68-0.33c0.1,0.05,0.14,0.01,0.17-0.07c0.33-0.77,0.97-0.97,1.73-0.99
			c0.44-0.01,0.89,0.03,1.33-0.02c0.51-0.05,0.93-0.23,1.24-0.66c0.14-0.19,0.33-0.26,0.54-0.14c0.73,0.42,1.5,0.36,2.27,0.17
			c0.59-0.14,1.18-0.33,1.79-0.42c0.77-0.11,1.47,0.04,2.08,0.56c0.15,0.13,0.32,0.27,0.53,0.15c0.24-0.14,0.35-0.4,0.44-0.65
			c0.03-0.08-0.06-0.08-0.11-0.1c-0.46-0.14-0.69-0.5-0.84-0.92c-0.1-0.28-0.19-0.56-0.3-0.84c-0.17-0.43-0.48-0.71-0.93-0.84
			c-0.48-0.13-0.94-0.29-1.4-0.49c-0.43-0.19-0.81-0.45-1.1-0.83c-0.34-0.44-0.67-0.88-0.98-1.34c-0.22-0.32-0.5-0.54-0.86-0.63
			c-0.9-0.21-1.76-0.58-2.65-0.83c-0.88-0.24-1.05-0.67-0.59-1.47c0.05-0.09,0.1-0.17,0.15-0.25c0.24-0.4,0.15-0.59-0.32-0.59
			c-1.37,0-2.59-0.45-3.73-1.17c-0.23-0.14-0.44-0.3-0.62-0.5c-0.32-0.36-0.29-0.69,0.08-0.99c0.34-0.27,0.75-0.39,1.19-0.57
			c-0.46-0.2-0.88-0.38-1.3-0.56c-1.09-0.46-2.18-0.92-3.22-1.48c-0.32-0.17-0.64-0.36-0.88-0.65c-0.29-0.34-0.25-0.64,0.12-0.9
			c0.32-0.22,0.69-0.31,1.1-0.45c-0.61-0.36-1.19-0.7-1.76-1.05c-0.68-0.41-1.35-0.82-1.98-1.3c-0.23-0.17-0.45-0.36-0.61-0.6
			c-0.25-0.36-0.2-0.66,0.16-0.92c0.38-0.27,0.83-0.37,1.27-0.5c-0.05-0.13-0.17-0.17-0.26-0.22c-1.39-0.86-2.66-1.88-3.99-2.82
			c-0.1-0.07-0.2-0.17-0.28-0.26c-0.22-0.25-0.2-0.51,0.05-0.76c0.22-0.22,0.49-0.36,0.77-0.49c0.46-0.21,0.49-0.4,0.11-0.72
			c-1.68-1.4-2.9-3.14-3.77-5.13c-0.58-1.32-0.95-2.7-1.14-4.12c-0.07-0.49-0.3-0.86-0.6-1.22c-2.17-2.58-4.13-5.29-5.68-8.29
			c-0.04-0.09-0.08-0.18-0.14-0.3c0.75,0.19,1.44,0.44,2.12,0.72c1.51,0.62,2.94,1.4,4.31,2.28c1.18,0.76,2.44,1.26,3.79,1.62
			c1.85,0.49,3.69,1.02,5.53,1.53c0.87,0.24,1.61,0.74,2.31,1.29c0.74,0.58,1.54,1.07,2.22,1.72c0.29,0.27,0.4,0.23,0.61-0.12
			c0.21-0.36,0.41-0.72,0.74-0.99c0.35-0.29,0.65-0.27,0.96,0.06c0.25,0.27,0.42,0.6,0.6,0.91c0.21,0.38,0.45,0.7,0.85,0.92
			c0.41,0.23,0.66,0.64,0.93,1.02c0.24,0.35,0.47,0.7,0.73,1.07c0.2-0.34,0.36-0.66,0.59-0.93c0.42-0.52,0.86-0.57,1.38-0.15
			c0.43,0.34,0.77,0.77,1.1,1.2c0.55,0.73,1.06,1.5,1.59,2.29c0.17-0.22,0.31-0.43,0.48-0.63c0.53-0.65,0.88-0.67,1.44-0.04
			c0.56,0.63,0.96,1.38,1.37,2.11c0.43,0.75,0.84,1.52,1.27,2.3c0.16-0.3,0.27-0.6,0.46-0.87c0.44-0.6,0.95-0.64,1.45-0.08
			c0.5,0.55,0.78,1.23,1.08,1.89c0.26,0.58,0.53,1.17,0.64,1.81c0.08,0.42,0.29,0.52,0.69,0.39c0.2-0.07,0.4-0.17,0.59-0.27
			c0.32-0.16,0.55-0.12,0.8,0.14c0.24,0.26,0.4,0.57,0.53,0.89c0.29,0.7,0.74,1.33,0.9,2.08c0.07,0.3,0.31,0.44,0.63,0.44
			c0.25,0,0.49-0.05,0.73-0.13c0.36-0.13,0.66-0.03,0.92,0.23c0.52,0.53,0.78,1.2,1,1.89c0.16,0.48,0.26,0.97,0.41,1.45
			c0.33,1.08,1.02,1.05,1.95,0.67c0.14-0.06,0.06-0.14,0.02-0.21c-0.23-0.42-0.46-0.85-0.7-1.27c-0.22-0.41-0.45-0.81-0.58-1.26
			c-0.07-0.26-0.06-0.5,0.07-0.74c0.5-0.93,0.5-1.89,0.1-2.85c-0.26-0.61-0.58-1.19-0.89-1.77c-0.42-0.79-0.52-1.65-0.68-2.5
			c-0.1-0.52,0.12-0.81,0.61-1.02c0.14-0.06,0.28-0.09,0.42-0.14c0.26-0.1,0.34-0.26,0.22-0.51c-0.17-0.37-0.3-0.73-0.34-1.15
			c-0.04-0.4-0.33-0.73-0.56-1.06c-0.24-0.35-0.51-0.68-0.67-1.08c-0.22-0.55-0.1-0.94,0.37-1.29c0.29-0.21,0.62-0.36,0.96-0.45
			c0.27-0.07,0.26-0.17,0.19-0.4c-0.15-0.46-0.41-0.85-0.65-1.26c-0.64-1.07-1.09-2.21-1.25-3.46c-0.04-0.3-0.06-0.61,0.02-0.91
			c0.11-0.44,0.38-0.61,0.83-0.55c0.45,0.06,0.82,0.35,1.26,0.42c0.04,0.01,0.08,0.01,0.15,0.03c-0.19-0.57-0.37-1.11-0.54-1.66
			c-0.43-1.35-0.91-2.69-1.24-4.08c-0.07-0.28-0.08-0.57-0.04-0.85c0.06-0.44,0.31-0.66,0.76-0.66c0.21,0,0.41,0.04,0.61,0.11
			c0.19,0.06,0.37,0.13,0.59,0.2c-0.07-0.63-0.14-1.24-0.2-1.86c-0.11-1.18-0.34-2.35-0.39-3.53c0-0.09,0-0.18,0.01-0.27
			c0.09-0.58,0.4-0.8,0.98-0.68c0.35,0.07,0.67,0.23,1,0.37c0.13,0.06,0.14,0.18,0.2,0.27c0.05,0.09,0.12,0.13,0.22,0.09
			c0.09-0.04,0.1-0.11,0.08-0.2c-0.32-1.54-0.54-3.09-0.73-4.65c-0.07-0.55-0.12-1.1-0.04-1.65c0.11-0.68,0.51-0.95,1.18-0.76
			c0.44,0.12,0.82,0.36,1.26,0.6c0-0.4,0.02-0.77,0-1.13c-0.18-2.48,0.55-4.74,1.62-6.92c0.73-1.48,1.59-2.87,2.67-4.11
			c0.36-0.41,0.44-0.92,0.49-1.43c0.16-1.58,0.5-3.14,0.8-4.7c0.42-2.17,0.98-4.31,1.78-6.38c0.11-0.28,0.23-0.56,0.36-0.89
			c0.45,0.77,0.78,1.53,1.06,2.32c0.53,1.48,0.83,3.02,1.14,4.56c0.61,3.11,1.6,6.08,3.3,8.79c0.8,1.27,1.52,2.59,1.95,4.04
			c0.22,0.73,0.35,1.48,0.34,2.25c-0.01,1.22,0,2.43,0,3.65c0.14,0.02,0.22-0.09,0.31-0.15c0.35-0.21,0.69-0.42,1.09-0.52
			c0.6-0.15,0.95,0.07,1.08,0.68c0.09,0.43,0.08,0.87,0.04,1.3c-0.15,1.48-0.32,2.97-0.5,4.45c-0.05,0.47,0.07,0.59,0.53,0.45
			c0.28-0.08,0.51-0.25,0.76-0.39c0.41-0.22,0.58-0.16,0.73,0.28c0.4,1.15,0.31,2.31,0.06,3.48c-0.16,0.75-0.38,1.49-0.6,2.23
			c-0.06,0.19-0.02,0.24,0.18,0.23c0.36-0.01,0.71-0.02,1.07,0c0.65,0.05,0.91,0.38,0.84,1.03c-0.11,1.02-0.41,1.99-0.72,2.96
			c-0.28,0.86-0.57,1.72-0.87,2.58c-0.07,0.19-0.17,0.37-0.27,0.56c0.28,0,0.52-0.04,0.75-0.17c0.24-0.13,0.5-0.24,0.78-0.28
			c0.4-0.05,0.62,0.09,0.71,0.49c0.14,0.61,0.03,1.22-0.1,1.82c-0.25,1.17-0.8,2.2-1.46,3.18c-0.12,0.18-0.25,0.36-0.35,0.55
			c-0.13,0.26-0.06,0.4,0.21,0.5c0.2,0.07,0.4,0.09,0.61,0.11c0.69,0.06,0.92,0.38,0.72,1.06c-0.39,1.3-0.85,2.59-1.39,3.84
			c-0.2,0.47-0.19,0.47,0.28,0.64c0.85,0.3,1.13,0.83,0.84,1.69c-0.29,0.85-0.6,1.69-0.92,2.53c-0.17,0.45-0.49,0.81-0.74,1.21
			c-0.33,0.53-0.51,1.08-0.14,1.66c0.11,0.18,0.24,0.34,0.41,0.47c0.2,0.15,0.21,0.33,0.14,0.55c-0.29,0.85-0.66,1.67-1.01,2.49
			c-0.17,0.41-0.36,0.81-0.54,1.21c-0.06,0.13-0.07,0.2,0.11,0.19c0.31-0.02,0.61,0,0.92-0.04c0.52-0.06,0.88-0.36,1.11-0.83
			c0.27-0.56,0.34-1.17,0.53-1.75c0.06-0.18,0.11-0.36,0.18-0.53c0.43-1.08,1.21-1.53,2.37-1.36c0.45,0.07,0.53,0.02,0.67-0.41
			c0.13-0.42,0.27-0.81,0.57-1.16c0.21-0.25,0.27-0.59,0.37-0.9c0.37-1.09,0.86-1.28,1.88-0.76c0.44,0.23,0.48,0.19,0.62-0.31
			c0.32-1.14,0.74-2.25,1.41-3.24c0.19-0.28,0.4-0.54,0.68-0.73c0.34-0.23,0.67-0.19,0.97,0.09c0.28,0.27,0.42,0.63,0.63,1.02
			c0.15-0.29,0.29-0.54,0.42-0.8c0.43-0.84,0.84-1.7,1.48-2.42c0.18-0.21,0.25-0.49,0.36-0.74c0.11-0.24,0.21-0.49,0.39-0.7
			c0.23-0.26,0.5-0.3,0.79-0.11c0.3,0.19,0.5,0.47,0.7,0.75c0.22,0.31,0.35,0.32,0.58,0.02c0.34-0.45,0.66-0.91,1-1.36
			c0.46-0.61,0.93-1.2,1.5-1.72c0.19-0.17,0.39-0.34,0.62-0.45c0.4-0.19,0.69-0.08,0.85,0.33c0.15,0.39,0.18,0.81,0.18,1.22
			c0,0.05,0,0.09,0,0.22c0.35-0.42,0.65-0.77,0.96-1.13c0.76-0.89,1.49-1.8,2.31-2.63c0.16-0.16,0.34-0.31,0.52-0.43
			c0.58-0.38,0.96-0.24,1.15,0.43c0.11,0.37,0.11,0.76,0.13,1.17c0.21-0.1,0.34-0.26,0.48-0.4c2.45-2.46,5.49-3.61,8.88-3.97
			c0.35-0.04,0.71-0.07,1.06-0.11c0.4-0.04,0.72-0.24,1.05-0.45c1.81-1.14,3.63-2.27,5.53-3.26c1.2-0.62,2.43-1.17,3.75-1.63
			c-0.21,0.63-0.48,1.19-0.77,1.75c-0.69,1.32-1.55,2.53-2.45,3.7c-2.22,2.9-3.68,6.15-4.54,9.68c-0.17,0.72-0.56,1.29-1.09,1.76
			c-0.79,0.7-1.49,1.5-2.33,2.15c-0.37,0.28-0.33,0.54,0.08,0.78c0.21,0.13,0.45,0.2,0.68,0.29c0.37,0.14,0.45,0.35,0.24,0.69
			c-0.25,0.41-0.61,0.72-0.96,1.04c-0.92,0.84-1.97,1.49-3.07,2.06c-0.13,0.07-0.26,0.14-0.4,0.21c0.24,0.22,0.47,0.42,0.68,0.64
			c0.57,0.59,0.57,1.13-0.03,1.7c-0.65,0.62-1.45,1.02-2.24,1.43c-0.4,0.21-0.81,0.42-1.22,0.6c-0.24,0.1-0.19,0.2-0.05,0.33
			c0.21,0.2,0.48,0.27,0.73,0.38c0.48,0.2,0.51,0.32,0.21,0.74c-0.61,0.83-1.45,1.33-2.39,1.69c-0.78,0.3-1.58,0.57-2.36,0.86
			c-0.11,0.04-0.27,0.04-0.28,0.21c-0.01,0.18,0.09,0.3,0.24,0.38c0.21,0.1,0.44,0.18,0.65,0.28c0.39,0.18,0.45,0.39,0.19,0.75
			c-0.46,0.64-1.08,1.09-1.81,1.39c-0.81,0.33-1.65,0.45-2.51,0.53c-0.27,0.02-0.54,0.05-0.85,0.07c0.22,0.25,0.45,0.46,0.6,0.73
			c0.28,0.49,0.23,0.85-0.24,1.15c-0.75,0.48-1.49,0.93-2.44,0.98c-1.04,0.05-1.33,0.57-0.94,1.54c0.12,0.3,0.04,0.44-0.19,0.61
			c-0.77,0.57-1.67,0.84-2.55,1.15c-0.68,0.24-1.36,0.49-1.96,0.9c-0.68,0.46-1.13,1.09-1.44,1.84c-0.08,0.2-0.02,0.29,0.15,0.37
			c0.31,0.15,0.65,0.2,0.95,0.08c1.23-0.48,2.43-0.24,3.64,0.02c0.94,0.2,1.87,0.32,2.79-0.07c0.08-0.03,0.12-0.02,0.18,0.04
			c0.28,0.29,0.31,0.47,0.09,0.73c0.58,0.05,1.16,0.09,1.72-0.12c0.17-0.07,0.36-0.11,0.54-0.15c0.35-0.06,0.69-0.05,0.97,0.22
			c0.38,0.36,0.45,0.64,0.22,1.11c0.2-0.02,0.4-0.02,0.58-0.1c1.05-0.47,2.08-0.34,3.08,0.15c0.5,0.24,0.97,0.53,1.43,0.84
			c1.21,0.82,2.59,1.3,3.93,1.85c2.61,1.08,5.27,2.02,7.98,2.8c0.25,0.07,0.32,0.12,0.68,0.44c-0.51,0.37-1.07,0.61-1.67,0.78
			c-0.62,0.18-1.25,0.29-1.9,0.31c-0.94,0.04-1.85,0.23-2.7,0.62c-1.68,0.78-3.38,1.51-5.19,1.98c-0.85,0.22-1.64,0.62-2.45,0.96
			c-1.43,0.61-2.93,0.91-4.47,1.07c-1.12,0.12-2.19,0.43-3.05,1.22c-0.23,0.21-0.47,0.27-0.79,0.05c-0.77-0.52-1.65-0.45-2.52-0.3
			c-0.6,0.1-1.2,0.25-1.81,0.3c-0.54,0.05-1.06-0.01-1.58-0.18c-1.2-0.39-2.44-0.66-3.67-0.31c-1.27,0.36-2.35,0.09-3.4-0.59
			c-0.23-0.15-0.46-0.24-0.69,0c-0.36,0.37-0.31,0.63,0.18,0.81c0.18,0.07,0.36,0.13,0.5,0.29c2.02,2.33,3.87,4.77,5.34,7.49
			c0.74,1.37,1.38,2.79,1.88,4.27c0.17,0.52,0.44,0.97,0.8,1.37c0.34,0.39,0.7,0.76,0.96,1.2c0.23,0.39,0.35,0.81,0.32,1.3
			c-0.52-0.21-1.02-0.42-1.53-0.61c-2.07-0.8-4.2-1.44-6.28-2.21c-2.11-0.78-4.16-1.67-5.97-3.03c-2.81-2.1-5.44-4.4-7.63-7.17
			c-1.78-2.26-3.15-4.73-4-7.48c-0.02-0.06-0.05-0.13-0.09-0.24c-0.17,0.81-0.28,1.57-0.37,2.34c-0.28,2.36-0.32,4.73-0.11,7.1
			c0.1,1.14,0.25,2.28,0.37,3.42c0.19,1.92,0.22,3.85,0.15,5.77c-0.02,0.5-0.25,0.69-0.71,0.65c-0.28-0.03-0.46-0.17-0.48-0.46
			c-0.01-0.16-0.02-0.31-0.02-0.47c0.03-1.89-0.11-3.77-0.3-5.65c-0.31-2.93-0.71-5.85-0.69-8.8
			C879.08,160.68,879.08,160.27,879.08,159.87z"/>
	</g>
	<g>
		<path class="st5" d="M1092.08,171.87c-0.5,0.93-1,1.84-1.56,2.73c-2.3,3.69-5.32,6.66-8.94,9.03c-3.28,2.15-6.84,3.71-10.53,5.01
			c-1.21,0.42-2.43,0.81-3.66,1.19c-0.05,0.01-0.09,0.02-0.19,0.04c0.1-0.16,0.17-0.28,0.25-0.4c1.35-2.23,2.46-4.59,3.63-6.91
			c1.21-2.39,2.5-4.73,4.19-6.83c0.7-0.86,1.46-1.66,2.34-2.48c-0.4,0.15-0.71,0.28-1.03,0.39c-1.39,0.47-2.83,0.55-4.28,0.49
			c-1.88-0.07-3.75-0.07-5.63,0.05c-1.96,0.12-3.86-0.1-5.69-0.86c-0.77-0.32-1.56-0.57-2.39-0.66c-0.36-0.04-0.71-0.07-1.06,0.01
			c-0.87,0.19-1.68,0.03-2.43-0.4c-3.81-2.19-7.98-3.38-12.19-4.44c-0.5-0.13-1.01-0.23-1.55-0.35c0.59-0.65,1.29-1.01,2.08-1.18
			c1.03-0.23,2.08-0.37,3.09-0.68c1.94-0.59,3.74-1.48,5.43-2.59c0.12-0.08,0.23-0.14,0.38-0.11c0.63,0.12,1.22-0.06,1.76-0.37
			c0.53-0.3,1.05-0.64,1.57-0.95c0.84-0.51,1.72-0.74,2.68-0.33c0.1,0.05,0.14,0.01,0.17-0.07c0.33-0.77,0.97-0.97,1.73-0.99
			c0.44-0.01,0.89,0.03,1.33-0.02c0.51-0.05,0.93-0.23,1.24-0.66c0.14-0.19,0.33-0.26,0.54-0.14c0.73,0.42,1.5,0.36,2.27,0.17
			c0.59-0.14,1.18-0.33,1.79-0.42c0.77-0.11,1.47,0.04,2.08,0.56c0.15,0.13,0.32,0.27,0.53,0.15c0.24-0.14,0.35-0.4,0.44-0.65
			c0.03-0.08-0.06-0.08-0.11-0.1c-0.46-0.14-0.69-0.5-0.84-0.92c-0.1-0.28-0.19-0.56-0.3-0.84c-0.17-0.43-0.48-0.71-0.93-0.84
			c-0.48-0.13-0.94-0.29-1.4-0.49c-0.43-0.19-0.81-0.45-1.1-0.83c-0.34-0.44-0.67-0.88-0.98-1.34c-0.22-0.32-0.5-0.54-0.86-0.63
			c-0.9-0.21-1.76-0.58-2.65-0.83c-0.88-0.24-1.05-0.67-0.59-1.47c0.05-0.09,0.1-0.17,0.15-0.25c0.24-0.4,0.15-0.59-0.32-0.59
			c-1.37,0-2.59-0.45-3.73-1.17c-0.23-0.14-0.44-0.3-0.62-0.5c-0.32-0.36-0.29-0.69,0.08-0.99c0.34-0.27,0.75-0.39,1.19-0.57
			c-0.46-0.2-0.88-0.38-1.3-0.56c-1.09-0.46-2.18-0.92-3.22-1.48c-0.32-0.17-0.64-0.36-0.88-0.65c-0.29-0.34-0.25-0.64,0.12-0.9
			c0.32-0.22,0.69-0.31,1.1-0.45c-0.61-0.36-1.19-0.7-1.76-1.05c-0.68-0.41-1.35-0.82-1.98-1.3c-0.23-0.17-0.45-0.36-0.61-0.6
			c-0.25-0.36-0.2-0.66,0.16-0.92c0.38-0.27,0.83-0.37,1.27-0.5c-0.05-0.13-0.17-0.17-0.26-0.22c-1.39-0.86-2.66-1.88-3.99-2.82
			c-0.1-0.07-0.2-0.17-0.28-0.26c-0.22-0.25-0.2-0.51,0.05-0.76c0.22-0.22,0.49-0.36,0.77-0.49c0.46-0.21,0.49-0.4,0.11-0.72
			c-1.68-1.4-2.9-3.14-3.77-5.13c-0.58-1.32-0.95-2.7-1.14-4.12c-0.07-0.49-0.3-0.86-0.6-1.22c-2.17-2.58-4.13-5.29-5.68-8.29
			c-0.04-0.09-0.08-0.18-0.14-0.3c0.75,0.19,1.44,0.44,2.12,0.72c1.51,0.62,2.94,1.4,4.31,2.28c1.18,0.76,2.44,1.26,3.79,1.62
			c1.85,0.49,3.69,1.02,5.53,1.53c0.87,0.24,1.61,0.74,2.31,1.29c0.74,0.58,1.54,1.07,2.22,1.72c0.29,0.27,0.4,0.23,0.61-0.12
			c0.21-0.36,0.41-0.72,0.74-0.99c0.35-0.29,0.65-0.27,0.96,0.06c0.25,0.27,0.42,0.6,0.6,0.91c0.21,0.38,0.45,0.7,0.85,0.92
			c0.41,0.23,0.66,0.64,0.93,1.02c0.24,0.35,0.47,0.7,0.73,1.07c0.2-0.34,0.36-0.66,0.59-0.93c0.42-0.52,0.86-0.57,1.38-0.15
			c0.43,0.34,0.77,0.77,1.09,1.2c0.55,0.73,1.06,1.5,1.59,2.29c0.17-0.22,0.31-0.43,0.48-0.63c0.53-0.65,0.88-0.67,1.44-0.04
			c0.56,0.63,0.96,1.38,1.37,2.11c0.43,0.75,0.84,1.52,1.27,2.3c0.16-0.3,0.27-0.6,0.46-0.87c0.44-0.6,0.95-0.64,1.45-0.08
			c0.5,0.55,0.78,1.23,1.08,1.89c0.26,0.58,0.53,1.17,0.64,1.81c0.08,0.42,0.29,0.52,0.69,0.39c0.2-0.07,0.4-0.17,0.59-0.27
			c0.32-0.16,0.55-0.12,0.8,0.14c0.24,0.26,0.4,0.57,0.53,0.89c0.29,0.7,0.74,1.33,0.9,2.08c0.07,0.3,0.31,0.44,0.63,0.44
			c0.25,0,0.49-0.05,0.73-0.13c0.36-0.13,0.66-0.03,0.92,0.23c0.52,0.53,0.78,1.2,1,1.89c0.16,0.48,0.26,0.97,0.41,1.45
			c0.33,1.08,1.02,1.05,1.95,0.67c0.14-0.06,0.06-0.14,0.02-0.21c-0.23-0.42-0.46-0.85-0.7-1.27c-0.22-0.41-0.45-0.81-0.58-1.26
			c-0.07-0.26-0.06-0.5,0.07-0.74c0.5-0.93,0.5-1.89,0.09-2.85c-0.26-0.61-0.58-1.19-0.89-1.77c-0.42-0.79-0.52-1.65-0.68-2.5
			c-0.1-0.52,0.12-0.81,0.61-1.02c0.14-0.06,0.28-0.09,0.42-0.14c0.26-0.1,0.34-0.26,0.22-0.51c-0.17-0.37-0.3-0.73-0.34-1.15
			c-0.04-0.4-0.33-0.73-0.56-1.06c-0.24-0.35-0.51-0.68-0.67-1.08c-0.22-0.55-0.1-0.94,0.37-1.29c0.29-0.21,0.62-0.36,0.96-0.45
			c0.27-0.07,0.26-0.17,0.19-0.4c-0.15-0.46-0.41-0.85-0.65-1.26c-0.64-1.07-1.09-2.21-1.25-3.46c-0.04-0.3-0.06-0.61,0.02-0.91
			c0.11-0.44,0.38-0.61,0.83-0.55c0.45,0.06,0.82,0.35,1.26,0.42c0.04,0.01,0.08,0.01,0.15,0.03c-0.19-0.57-0.37-1.11-0.54-1.66
			c-0.43-1.35-0.91-2.69-1.24-4.08c-0.07-0.28-0.08-0.57-0.04-0.85c0.06-0.44,0.31-0.66,0.76-0.66c0.21,0,0.41,0.04,0.61,0.11
			c0.19,0.06,0.37,0.13,0.59,0.2c-0.07-0.63-0.14-1.24-0.2-1.86c-0.11-1.18-0.34-2.35-0.39-3.53c0-0.09,0-0.18,0.01-0.27
			c0.09-0.58,0.4-0.8,0.98-0.68c0.35,0.07,0.67,0.23,1,0.37c0.13,0.06,0.14,0.18,0.2,0.27c0.05,0.09,0.12,0.13,0.22,0.09
			c0.09-0.04,0.1-0.11,0.08-0.2c-0.32-1.54-0.54-3.09-0.73-4.65c-0.07-0.55-0.12-1.1-0.04-1.65c0.11-0.68,0.51-0.95,1.18-0.76
			c0.44,0.12,0.82,0.36,1.26,0.6c0-0.4,0.02-0.77,0-1.13c-0.18-2.48,0.55-4.74,1.62-6.92c0.73-1.48,1.59-2.87,2.67-4.11
			c0.36-0.41,0.44-0.92,0.49-1.43c0.16-1.58,0.5-3.14,0.8-4.7c0.42-2.17,0.98-4.31,1.78-6.38c0.11-0.28,0.23-0.56,0.36-0.89
			c0.45,0.77,0.78,1.53,1.06,2.32c0.53,1.48,0.83,3.02,1.14,4.56c0.61,3.11,1.6,6.08,3.3,8.79c0.8,1.27,1.52,2.59,1.95,4.04
			c0.22,0.73,0.35,1.48,0.34,2.25c-0.01,1.22,0,2.43,0,3.65c0.14,0.02,0.22-0.09,0.31-0.15c0.35-0.21,0.69-0.42,1.09-0.52
			c0.6-0.15,0.95,0.07,1.08,0.68c0.09,0.43,0.08,0.87,0.04,1.3c-0.15,1.48-0.32,2.97-0.5,4.45c-0.05,0.47,0.07,0.59,0.53,0.45
			c0.28-0.08,0.51-0.25,0.76-0.39c0.41-0.22,0.58-0.16,0.73,0.28c0.4,1.15,0.31,2.31,0.06,3.48c-0.16,0.75-0.38,1.49-0.6,2.23
			c-0.06,0.19-0.02,0.24,0.18,0.23c0.36-0.01,0.71-0.02,1.07,0c0.65,0.05,0.91,0.38,0.84,1.03c-0.11,1.02-0.41,1.99-0.72,2.96
			c-0.28,0.86-0.57,1.72-0.87,2.58c-0.07,0.19-0.17,0.37-0.27,0.56c0.28,0,0.52-0.04,0.75-0.17c0.24-0.13,0.5-0.24,0.78-0.28
			c0.4-0.05,0.62,0.09,0.71,0.49c0.14,0.61,0.03,1.22-0.1,1.82c-0.25,1.17-0.8,2.2-1.46,3.18c-0.12,0.18-0.25,0.36-0.35,0.55
			c-0.13,0.26-0.06,0.4,0.21,0.5c0.2,0.07,0.4,0.09,0.61,0.11c0.69,0.06,0.92,0.38,0.72,1.06c-0.39,1.3-0.85,2.59-1.39,3.84
			c-0.2,0.47-0.19,0.47,0.28,0.64c0.85,0.3,1.13,0.83,0.84,1.69c-0.29,0.85-0.6,1.69-0.92,2.53c-0.17,0.45-0.49,0.81-0.74,1.21
			c-0.33,0.53-0.51,1.08-0.14,1.66c0.11,0.18,0.24,0.34,0.41,0.47c0.2,0.15,0.21,0.33,0.14,0.55c-0.29,0.85-0.66,1.67-1.01,2.49
			c-0.17,0.41-0.36,0.81-0.54,1.21c-0.06,0.13-0.07,0.2,0.11,0.19c0.31-0.02,0.61,0,0.92-0.04c0.52-0.06,0.88-0.36,1.11-0.83
			c0.27-0.56,0.34-1.17,0.53-1.75c0.06-0.18,0.11-0.36,0.18-0.53c0.43-1.08,1.21-1.53,2.37-1.36c0.45,0.07,0.53,0.02,0.67-0.41
			c0.13-0.42,0.27-0.81,0.57-1.16c0.21-0.25,0.27-0.59,0.37-0.9c0.37-1.09,0.86-1.28,1.88-0.76c0.44,0.23,0.48,0.19,0.62-0.31
			c0.32-1.14,0.74-2.25,1.41-3.24c0.19-0.28,0.4-0.54,0.68-0.73c0.34-0.23,0.67-0.19,0.97,0.09c0.28,0.27,0.42,0.63,0.63,1.02
			c0.15-0.29,0.29-0.54,0.42-0.8c0.43-0.84,0.84-1.7,1.48-2.42c0.18-0.21,0.25-0.49,0.36-0.74c0.11-0.24,0.21-0.49,0.39-0.7
			c0.23-0.26,0.5-0.3,0.79-0.11c0.3,0.19,0.5,0.47,0.7,0.75c0.22,0.31,0.35,0.32,0.58,0.02c0.34-0.45,0.66-0.91,1-1.36
			c0.46-0.61,0.93-1.2,1.5-1.72c0.19-0.17,0.39-0.34,0.62-0.45c0.4-0.19,0.69-0.08,0.85,0.33c0.15,0.39,0.18,0.81,0.18,1.22
			c0,0.05,0,0.09,0,0.22c0.35-0.42,0.65-0.77,0.96-1.13c0.76-0.89,1.49-1.8,2.31-2.63c0.16-0.16,0.34-0.31,0.52-0.43
			c0.58-0.38,0.96-0.24,1.15,0.43c0.11,0.37,0.11,0.76,0.13,1.17c0.21-0.1,0.34-0.26,0.48-0.4c2.45-2.46,5.49-3.61,8.88-3.97
			c0.35-0.04,0.71-0.07,1.06-0.11c0.4-0.04,0.72-0.24,1.05-0.45c1.81-1.14,3.63-2.27,5.53-3.26c1.2-0.62,2.43-1.17,3.75-1.63
			c-0.21,0.63-0.48,1.19-0.77,1.75c-0.69,1.32-1.55,2.53-2.45,3.7c-2.22,2.9-3.68,6.15-4.54,9.68c-0.17,0.72-0.56,1.29-1.09,1.76
			c-0.79,0.7-1.49,1.5-2.33,2.15c-0.37,0.28-0.33,0.54,0.08,0.78c0.21,0.13,0.45,0.2,0.68,0.29c0.37,0.14,0.45,0.35,0.24,0.69
			c-0.25,0.41-0.61,0.72-0.96,1.04c-0.92,0.84-1.97,1.49-3.07,2.06c-0.13,0.07-0.26,0.14-0.4,0.21c0.24,0.22,0.47,0.42,0.68,0.64
			c0.57,0.59,0.57,1.13-0.03,1.7c-0.65,0.62-1.45,1.02-2.24,1.43c-0.4,0.21-0.81,0.42-1.22,0.6c-0.24,0.1-0.19,0.2-0.05,0.33
			c0.21,0.2,0.48,0.27,0.73,0.38c0.48,0.2,0.51,0.32,0.21,0.74c-0.61,0.83-1.45,1.33-2.39,1.69c-0.78,0.3-1.58,0.57-2.36,0.86
			c-0.11,0.04-0.27,0.04-0.28,0.21c-0.01,0.18,0.09,0.3,0.24,0.38c0.21,0.1,0.44,0.18,0.65,0.28c0.39,0.18,0.45,0.39,0.19,0.75
			c-0.46,0.64-1.08,1.09-1.81,1.39c-0.81,0.33-1.65,0.45-2.51,0.53c-0.27,0.02-0.54,0.05-0.85,0.07c0.22,0.25,0.45,0.46,0.6,0.73
			c0.28,0.49,0.23,0.85-0.24,1.15c-0.75,0.48-1.49,0.93-2.44,0.98c-1.04,0.05-1.33,0.57-0.94,1.54c0.12,0.3,0.04,0.44-0.19,0.61
			c-0.77,0.57-1.67,0.84-2.55,1.15c-0.68,0.24-1.36,0.49-1.96,0.9c-0.68,0.46-1.13,1.09-1.44,1.84c-0.08,0.2-0.02,0.29,0.15,0.37
			c0.31,0.15,0.65,0.2,0.95,0.08c1.23-0.48,2.43-0.24,3.64,0.02c0.94,0.2,1.87,0.32,2.79-0.07c0.08-0.03,0.12-0.02,0.18,0.04
			c0.28,0.29,0.31,0.47,0.09,0.73c0.58,0.05,1.16,0.09,1.72-0.12c0.17-0.07,0.36-0.11,0.54-0.15c0.35-0.06,0.69-0.05,0.97,0.22
			c0.38,0.36,0.45,0.64,0.22,1.11c0.2-0.02,0.4-0.02,0.58-0.1c1.05-0.47,2.08-0.34,3.08,0.15c0.5,0.24,0.97,0.53,1.43,0.84
			c1.21,0.82,2.59,1.3,3.93,1.85c2.61,1.08,5.27,2.02,7.98,2.8c0.25,0.07,0.32,0.12,0.68,0.44c-0.51,0.37-1.07,0.61-1.67,0.78
			c-0.62,0.18-1.25,0.29-1.9,0.31c-0.94,0.04-1.85,0.23-2.7,0.62c-1.68,0.78-3.38,1.51-5.19,1.98c-0.85,0.22-1.64,0.62-2.45,0.96
			c-1.43,0.61-2.93,0.91-4.47,1.07c-1.12,0.12-2.19,0.43-3.05,1.22c-0.23,0.21-0.47,0.27-0.79,0.05c-0.77-0.52-1.65-0.45-2.52-0.3
			c-0.6,0.1-1.2,0.25-1.81,0.3c-0.54,0.05-1.06-0.01-1.58-0.18c-1.2-0.39-2.44-0.66-3.67-0.31c-1.27,0.36-2.35,0.09-3.4-0.59
			c-0.23-0.15-0.46-0.24-0.69,0c-0.36,0.37-0.31,0.63,0.18,0.81c0.18,0.07,0.36,0.13,0.5,0.29c2.02,2.33,3.87,4.77,5.34,7.49
			c0.74,1.37,1.38,2.79,1.88,4.27c0.17,0.52,0.44,0.97,0.8,1.37c0.34,0.39,0.7,0.76,0.96,1.2c0.23,0.39,0.35,0.81,0.32,1.3
			c-0.52-0.21-1.02-0.42-1.53-0.61c-2.07-0.8-4.2-1.44-6.28-2.21c-2.11-0.78-4.16-1.67-5.97-3.03c-2.81-2.1-5.44-4.4-7.63-7.17
			c-1.78-2.26-3.15-4.73-4-7.48c-0.02-0.06-0.05-0.13-0.09-0.24c-0.17,0.81-0.28,1.57-0.37,2.34c-0.28,2.36-0.32,4.73-0.11,7.1
			c0.1,1.14,0.25,2.28,0.37,3.42c0.19,1.92,0.22,3.85,0.15,5.77c-0.02,0.5-0.25,0.69-0.71,0.65c-0.28-0.03-0.46-0.17-0.48-0.46
			c-0.01-0.16-0.02-0.31-0.02-0.47c0.03-1.89-0.11-3.77-0.3-5.65c-0.31-2.93-0.71-5.85-0.69-8.8
			C1092.08,172.68,1092.08,172.27,1092.08,171.87z"/>
	</g>
</g>
</svg>
