<?xml version="1.0" encoding="utf-8"?>
<!-- Generator: Adobe Illustrator 22.0.0, SVG Export Plug-In . SVG Version: 6.00 Build 0)  -->
<svg version="1.1" id="Layer_1" xmlns="http://www.w3.org/2000/svg" xmlns:xlink="http://www.w3.org/1999/xlink" x="0px" y="0px"
	 viewBox="0 0 1080 1296" style="enable-background:new 0 0 1080 1296;" xml:space="preserve">
<style type="text/css">
	.st0{fill:#FF00FF;}
	.st1{fill:#FFFFFF;}
	.st2{fill:none;stroke:#FF00FF;stroke-width:4;stroke-miterlimit:10;}
	.st3{fill:#F2F2F2;}
</style>
<g>
	<g>
		<path class="st0" d="M184.92,1016.34l-66.6,87.64l66.6,87.64h-44.07l-52.08-68.61v68.61H53.72v-175.28h35.05v68.36l52.08-68.36
			H184.92z"/>
		<path class="st0" d="M327.88,1156.82v35.06H196.43v-175.29h131.45v35.06h-96.4v35.06h78.87v35.06h-78.87v35.06H327.88z"/>
		<path class="st0" d="M476.61,1156.82v35.06H345.16v-175.29h131.45v35.06h-96.4v35.06h78.87v35.06h-78.87v35.06H476.61z"/>
		<path class="st0" d="M630.35,1060.41c0,7.85,0.16,15.61,0.5,23.29c0.33,7.68,0.08,15.44-0.75,23.29
			c-0.34,4.34-1.42,8.01-3.26,11.02c-1.84,3-4.59,5.76-8.26,8.26c-3.67,2.34-7.35,3.63-11.02,3.88c-3.67,0.25-7.43,0.38-11.27,0.38
			h-40.31h-25.29v61.35h-35.05v-175.29h26.29h8.76h72.11c7.84,0,14.4,2.5,19.65,7.51c5.26,5.01,7.89,11.52,7.89,19.53V1060.41z
			 M595.29,1095.47v-8.76v-26.29v-8.76h-64.6v8.76v26.29v8.76H595.29z"/>
		<path class="st0" d="M748.78,1146.8v-130.21h26.29h8.76v140.23h70.11v-140.23h8.76h26.29v130.21c0,0.67-0.04,2.21-0.12,4.63
			c-0.09,2.42-0.17,5.05-0.25,7.89c-0.09,2.84-0.17,5.47-0.25,7.89c-0.09,2.42-0.21,3.97-0.38,4.63c-1.34,5.18-3.3,9.18-5.88,12.02
			c-2.59,2.84-6.38,5.09-11.39,6.76c-1.34,0.5-4.55,0.84-9.64,1c-5.09,0.16-10.56,0.25-16.4,0.25c-5.85,0-11.27,0-16.28,0
			s-8.18,0-9.51,0c-1.34,0-4.51,0-9.51,0c-5.01,0-10.35,0-16.03,0c-5.68,0-10.98-0.09-15.9-0.25c-4.92-0.16-8.06-0.5-9.39-1
			c-5.18-1.67-9.1-3.71-11.77-6.13c-2.67-2.42-4.68-6.22-6.01-11.39c-1.17-4.34-1.71-8.76-1.63-13.27
			C748.73,1155.32,748.78,1150.98,748.78,1146.8z"/>
		<path class="st0" d="M1044.98,1060.41c0,7.85,0.16,15.61,0.5,23.29c0.33,7.68,0.08,15.44-0.75,23.29
			c-0.34,4.34-1.42,8.01-3.26,11.02c-1.84,3-4.59,5.76-8.26,8.26c-3.67,2.34-7.35,3.63-11.02,3.88c-3.67,0.25-7.43,0.38-11.27,0.38
			h-40.31h-25.29v61.35h-35.05v-175.29h26.29h8.76h72.11c7.84,0,14.4,2.5,19.65,7.51c5.26,5.01,7.89,11.52,7.89,19.53V1060.41z
			 M1009.92,1095.47v-8.76v-26.29v-8.76h-64.6v8.76v26.29v8.76H1009.92z"/>
	</g>
	<g>
		<path class="st1" d="M179.98,1010.17l-66.6,87.64l66.6,87.64h-44.07l-52.08-68.61v68.61H48.78v-175.28h35.05v68.36l52.08-68.36
			H179.98z"/>
		<path class="st1" d="M322.95,1150.65v35.06H191.49v-175.29h131.45v35.06h-96.4v35.06h78.87v35.06h-78.87v35.06H322.95z"/>
		<path class="st1" d="M471.67,1150.65v35.06H340.22v-175.29h131.45v35.06h-96.4v35.06h78.87v35.06h-78.87v35.06H471.67z"/>
		<path class="st1" d="M625.41,1054.24c0,7.85,0.16,15.61,0.5,23.29c0.33,7.68,0.08,15.44-0.75,23.29
			c-0.34,4.34-1.42,8.01-3.26,11.02c-1.84,3-4.59,5.76-8.26,8.26c-3.67,2.34-7.35,3.63-11.02,3.88c-3.67,0.25-7.43,0.38-11.27,0.38
			h-40.31h-25.29v61.35H490.7v-175.29h26.29h8.76h72.11c7.84,0,14.4,2.5,19.65,7.51c5.26,5.01,7.89,11.52,7.89,19.53V1054.24z
			 M590.35,1089.3v-8.76v-26.29v-8.76h-64.6v8.76v26.29v8.76H590.35z"/>
		<path class="st1" d="M743.84,1140.63v-130.21h26.29h8.76v140.23H849v-140.23h8.76h26.29v130.21c0,0.67-0.04,2.21-0.12,4.63
			c-0.09,2.42-0.17,5.05-0.25,7.89c-0.09,2.84-0.17,5.47-0.25,7.89c-0.09,2.42-0.21,3.97-0.38,4.63c-1.34,5.18-3.3,9.18-5.88,12.02
			c-2.59,2.84-6.38,5.09-11.39,6.76c-1.34,0.5-4.55,0.84-9.64,1c-5.09,0.16-10.56,0.25-16.4,0.25c-5.85,0-11.27,0-16.28,0
			s-8.18,0-9.51,0c-1.34,0-4.51,0-9.51,0s-10.35,0-16.02,0c-5.68,0-10.98-0.09-15.9-0.25c-4.92-0.16-8.06-0.5-9.39-1
			c-5.18-1.67-9.1-3.71-11.77-6.13c-2.67-2.42-4.68-6.22-6.01-11.39c-1.17-4.34-1.71-8.76-1.63-13.27
			C743.79,1149.14,743.84,1144.8,743.84,1140.63z"/>
		<path class="st1" d="M1040.04,1054.24c0,7.85,0.16,15.61,0.5,23.29c0.33,7.68,0.08,15.44-0.75,23.29
			c-0.34,4.34-1.42,8.01-3.26,11.02c-1.84,3-4.59,5.76-8.26,8.26c-3.67,2.34-7.35,3.63-11.02,3.88c-3.67,0.25-7.43,0.38-11.27,0.38
			h-40.31h-25.29v61.35h-35.05v-175.29h26.29h8.76h72.11c7.84,0,14.4,2.5,19.65,7.51c5.26,5.01,7.89,11.52,7.89,19.53V1054.24z
			 M1004.98,1089.3v-8.76v-26.29v-8.76h-64.6v8.76v26.29v8.76H1004.98z"/>
	</g>
	<g>
		<path class="st0" d="M426.52,140.59c-3.53,3.35-20.48,16.26-38.84,32.99c0.71,30.12,0,69.33,0,84.16
			c-0.71,23.43-28.95,33.47-40.25,37.3c-11.3,4.3-31.78,1.43-29.66-22c2.12-16.74,5.65-51.64,45.19-92.28c0-13.87,0-23.91,0-23.91
			s-34.6,54.03-46.61,54.99c-12.71,0.96-34.6-3.35-37.43-40.16c-2.12-36.34,11.3-56.42,16.95-56.42
			c15.54,0.48,15.54,0.96,16.24,5.74c0,4.78-4.24,44.95-4.24,54.03c0,9.08,2.12,17.21,7.06,14.34c4.94-2.87,24.72-23.91,35.31-44.95
			c9.89-21.52,9.89-27.25,9.18-32.04c-0.71-4.3,12-8.61,20.48-6.22c9.18,2.39,7.06,21.04,7.77,28.69c0,2.39,0,11.48,0,23.43
			c11.3-8.61,24.01-17.21,38.84-26.3C426.52,131.98,433.58,133.89,426.52,140.59z M363.67,198.44
			c-7.06,7.65-13.42,15.78-18.36,23.43c-22.6,36.34-14.83,65.03-9.89,63.12c4.94-1.43,25.42-9.08,27.54-33.47
			C363.67,240.04,363.67,218.05,363.67,198.44z"/>
		<path class="st0" d="M507.73,165.93c0,0-6.36,12.43-13.42,21.52c-7.77,9.56-33.9,22.95-52.96,17.69
			c-19.07-5.26-27.54-17.69-26.13-44.95c1.41-27.25,28.95-63.59,41.66-65.99c12-2.87,28.95,3.83,29.66,14.35
			c0.71,10.52-3.53,26.78-11.3,36.82c-8.47,9.56-31.07,18.65-31.07,18.65s-7.77,14.82,1.41,23.43c9.18,9.08,14.12,5.26,24.72,1.43
			c10.59-4.3,24.72-21.04,26.83-22.95C499.25,164.01,507.73,165.93,507.73,165.93z M442.76,150.15c0,0,24.01-15.3,26.13-22.95
			c2.12-7.65,7.06-17.69,0-17.69S449.12,124.33,442.76,150.15z"/>
		<path class="st0" d="M551.5,123.85c-4.24,1.91-11.3,1.91-19.07,21.99c-8.47,20.08-7.06,41.6-7.06,43.99
			c0.71,2.39,2.12,13.39,6.36,7.65c4.24-5.74,12-30.6,14.83-34.43c5.65-7.17,6.36-11.48,21.18-17.21c4.94-1.91,17.65-4.3,18.36,0.96
			c0.71,5.26-2.82,21.99-2.82,25.82c0,3.35,4.94,26.78,8.47,28.69c7.77,4.3,20.48-20.08,26.13-29.65
			c12-20.08,24.01-42.56,24.01-25.82c0,0-25.42,60.25-40.25,65.99c-14.83,5.74-26.13-0.48-30.36-8.13
			c-3.53-7.17-9.18-31.56-9.18-31.56s-17.65,44.95-25.42,54.03c-7.77,9.56-29.66,12.91-33.9,2.39c-3.53-10.04-11.3-38.73-5.65-72.2
			c6.36-33.47,49.43-46.38,63.55-45.42c13.42,0.48,7.06,9.56,7.06,9.56C564.92,120.5,555.03,121.46,551.5,123.85z"/>
		<path class="st0" d="M797.24,165.45c-7.77,31.08-21.89,50.21-29.66,54.99c-46.61,28.69-31.07-52.12-40.96-55.94
			c-11.3-3.82-35.31,17.69-34.6,30.6c0,12.91-0.71,25.34-1.41,38.25c-0.71,8.61-2.82,17.21-4.24,25.82
			c-24.72-0.48-42.37-9.08-46.61-24.39c-4.24-12.91-7.06-26.3-7.06-39.69c0.71-25.34,3.53-51.16,5.65-76.98
			c1.41-16.26-2.12-33.95-10.59-47.82c4.94,0,10.59,0,15.54,0c16.95,1.43,28.95,5.74,33.9,18.17c8.47,21.99,9.89,44.47,9.89,66.94
			c0,3.35,0.71,6.69,1.41,9.56c6.36-8.61,21.89-14.82,38.13-14.82c18.36,0,23.3,9.08,23.3,21.52c0,14.82,1.41,29.65,2.12,44.47
			c0,0.48,1.41,2.39,3.53,2.87c7.77,0,27.54-22.95,40.25-57.86C795.83,161.15,797.24,163.54,797.24,165.45z"/>
	</g>
	<g>
		<path class="st1" d="M422.82,134.41c-3.53,3.35-20.48,16.26-38.84,32.99c0.71,30.12,0,69.33,0,84.16
			c-0.71,23.43-28.95,33.47-40.25,37.3c-11.3,4.3-31.78,1.43-29.66-22c2.12-16.74,5.65-51.64,45.19-92.28c0-13.87,0-23.91,0-23.91
			s-34.6,54.03-46.61,54.99c-12.71,0.96-34.6-3.35-37.43-40.16c-2.12-36.34,11.3-56.42,16.95-56.42
			c15.54,0.48,15.54,0.96,16.24,5.74c0,4.78-4.24,44.95-4.24,54.03c0,9.08,2.12,17.21,7.06,14.34c4.94-2.87,24.72-23.91,35.31-44.95
			c9.89-21.52,9.89-27.25,9.18-32.04c-0.71-4.3,12-8.61,20.48-6.22c9.18,2.39,7.06,21.04,7.77,28.69c0,2.39,0,11.48,0,23.43
			c11.3-8.61,24.01-17.21,38.84-26.3C422.82,125.81,429.88,127.72,422.82,134.41z M359.97,192.27
			c-7.06,7.65-13.42,15.78-18.36,23.43c-22.6,36.34-14.83,65.03-9.89,63.12c4.94-1.43,25.42-9.08,27.54-33.47
			C359.97,233.87,359.97,211.87,359.97,192.27z"/>
		<path class="st1" d="M504.02,159.76c0,0-6.36,12.43-13.42,21.52c-7.77,9.56-33.9,22.95-52.96,17.69
			c-19.07-5.26-27.54-17.69-26.13-44.95c1.41-27.25,28.95-63.59,41.66-65.99c12-2.87,28.95,3.83,29.66,14.35
			c0.71,10.52-3.53,26.78-11.3,36.82c-8.47,9.56-31.07,18.65-31.07,18.65s-7.77,14.82,1.41,23.43c9.18,9.08,14.12,5.26,24.72,1.43
			c10.59-4.3,24.72-21.04,26.83-22.95C495.55,157.84,504.02,159.76,504.02,159.76z M439.06,143.98c0,0,24.01-15.3,26.13-22.95
			c2.12-7.65,7.06-17.69,0-17.69S445.41,118.16,439.06,143.98z"/>
		<path class="st1" d="M547.8,117.68c-4.24,1.91-11.3,1.91-19.07,21.99c-8.47,20.08-7.06,41.6-7.06,43.99
			c0.71,2.39,2.12,13.39,6.36,7.65c4.24-5.74,12-30.6,14.83-34.43c5.65-7.17,6.36-11.48,21.18-17.21c4.94-1.91,17.65-4.3,18.36,0.96
			c0.71,5.26-2.82,21.99-2.82,25.82c0,3.35,4.94,26.78,8.47,28.69c7.77,4.3,20.48-20.08,26.13-29.65
			c12-20.08,24.01-42.56,24.01-25.82c0,0-25.42,60.25-40.25,65.99c-14.83,5.74-26.13-0.48-30.36-8.13
			c-3.53-7.17-9.18-31.56-9.18-31.56s-17.65,44.95-25.42,54.03c-7.77,9.56-29.66,12.91-33.9,2.39c-3.53-10.04-11.3-38.73-5.65-72.2
			c6.36-33.47,49.43-46.38,63.55-45.42c13.42,0.48,7.06,9.56,7.06,9.56C561.22,114.33,551.33,115.29,547.8,117.68z"/>
		<path class="st1" d="M793.54,159.28c-7.77,31.08-21.89,50.21-29.66,54.99c-46.61,28.69-31.07-52.12-40.96-55.94
			c-11.3-3.82-35.31,17.69-34.6,30.6c0,12.91-0.71,25.34-1.41,38.25c-0.71,8.61-2.82,17.21-4.24,25.82
			c-24.72-0.48-42.37-9.08-46.61-24.39c-4.24-12.91-7.06-26.3-7.06-39.69c0.71-25.34,3.53-51.16,5.65-76.98
			c1.41-16.26-2.12-33.95-10.59-47.82c4.94,0,10.59,0,15.54,0c16.95,1.43,28.95,5.74,33.9,18.17c8.47,21.99,9.89,44.47,9.89,66.94
			c0,3.35,0.71,6.69,1.41,9.56c6.36-8.61,21.89-14.82,38.13-14.82c18.36,0,23.3,9.08,23.3,21.52c0,14.82,1.41,29.65,2.12,44.47
			c0,0.48,1.41,2.39,3.53,2.87c7.77,0,27.54-22.95,40.25-57.86C792.12,154.97,793.54,157.36,793.54,159.28z"/>
	</g>
	<polygon class="st0" points="862.55,133.75 872.69,164.97 905.52,164.97 878.96,184.27 889.11,215.49 862.55,196.19 835.99,215.49 
		846.13,184.27 819.57,164.97 852.4,164.97 	"/>
	<polygon class="st0" points="969.65,133.75 979.8,164.97 1012.63,164.97 986.07,184.27 996.21,215.49 969.65,196.19 943.09,215.49 
		953.24,184.27 926.68,164.97 959.51,164.97 	"/>
	<polygon class="st0" points="92.01,133.75 102.15,164.97 134.98,164.97 108.42,184.27 118.57,215.49 92.01,196.19 65.45,215.49 
		75.59,184.27 49.03,164.97 81.86,164.97 	"/>
	<polygon class="st0" points="199.11,133.75 209.26,164.97 242.09,164.97 215.53,184.27 225.67,215.49 199.11,196.19 172.55,215.49 
		182.7,184.27 156.14,164.97 188.97,164.97 	"/>
	<g>
		<path class="st0" d="M228.96,313.68v-13.11c0-6.26-1.57-11.35-4.71-15.26c-3.14-3.91-7.05-5.87-11.74-5.87h-64v136.95h20.94
			v-47.93h39.18c2.29,0,4.53-0.1,6.73-0.29c2.19-0.2,4.39-1.21,6.58-3.03c2.19-1.96,3.84-4.11,4.94-6.46
			c1.1-2.35,1.74-5.22,1.94-8.61c0.5-6.13,0.65-12.19,0.45-18.19C229.06,325.88,228.96,319.82,228.96,313.68z M208.03,341.07h-38.58
			v-34.24h38.58V341.07z M262.46,279.25h-20.94V416.2h68.19v-27.39h-47.26V279.25z M57.29,416.39h20.94V279.45H57.29V416.39z
			 M982.04,279.06h-22.28L921.63,416h22.28l7.63-27.39h38.73l7.63,27.39h22.28L982.04,279.06z M959.16,361.22l11.81-42.06
			l11.66,42.06H959.16z M601.47,279.25h-20.94V416.2h68.19v-27.39h-47.25V279.25z M660.98,416.39h20.94V279.45h-20.94V416.39z
			 M745.02,279.25l-31.1,53.41v-53.41h-20.94V416.2h20.94v-53.6l31.1,53.6h26.32l-39.78-68.47l39.78-68.47H745.02z M352.2,309.85
			c-1.59,0.59-3.25,1.07-4.96,1.43L318.09,416h22.28l7.63-27.39h38.73l7.63,27.39h22.28l-33.88-121.67
			C371.89,303.13,358.6,307.69,352.2,309.85z M355.62,361.22l11.81-42.06l11.66,42.06H355.62z M778.22,416.39h78.51V389h-57.57
			v-27.39h47.11v-27.39h-47.11v-27.39h57.57v-27.39h-78.51V416.39z M467.03,326.79L444,279.25h-24.82l37.39,77.28v59.67h20.94
			v-59.67l37.24-77.28h-24.82L467.03,326.79z"/>
	</g>
	<g>
		<path class="st1" d="M226.49,307.51V294.4c0-6.26-1.57-11.35-4.71-15.26c-3.14-3.91-7.05-5.87-11.74-5.87h-64v136.95h20.94v-47.93
			h39.18c2.29,0,4.53-0.1,6.73-0.29c2.19-0.2,4.39-1.21,6.58-3.03c2.19-1.96,3.84-4.11,4.94-6.46c1.1-2.35,1.74-5.22,1.94-8.61
			c0.5-6.13,0.65-12.19,0.45-18.19C226.59,319.71,226.49,313.64,226.49,307.51z M205.56,334.9h-38.58v-34.24h38.58V334.9z
			 M259.99,273.08h-20.94v136.95h68.19v-27.39h-47.26V273.08z M54.82,410.22h20.94V273.27H54.82V410.22z M979.57,272.88h-22.28
			l-38.13,136.95h22.28l7.63-27.39h38.73l7.63,27.39h22.28L979.57,272.88z M956.69,355.05l11.81-42.06l11.66,42.06H956.69z
			 M599,273.08h-20.94v136.95h68.19v-27.39H599V273.08z M658.51,410.22h20.94V273.27h-20.94V410.22z M742.55,273.08l-31.1,53.41
			v-53.41h-20.94v136.95h20.94v-53.61l31.1,53.61h26.32l-39.78-68.47l39.78-68.47H742.55z M349.73,303.68
			c-1.59,0.59-3.25,1.07-4.96,1.43l-29.16,104.72h22.28l7.63-27.39h38.73l7.63,27.39h22.28l-33.88-121.67
			C369.42,296.96,356.13,301.51,349.73,303.68z M353.15,355.05l11.81-42.06l11.66,42.06H353.15z M775.75,410.22h78.51v-27.39h-57.57
			v-27.39h47.11v-27.39h-47.11v-27.39h57.57v-27.39h-78.51V410.22z M464.56,320.62l-23.03-47.54h-24.82l37.39,77.28v59.67h20.94
			v-59.67l37.24-77.28h-24.82L464.56,320.62z"/>
	</g>
	<g>
		<g>
			<path class="st1" d="M655.39,615.79c-2.96,12.63-21.46,68.37-36.27,84.48c-14.06,15.68-51.81,32.66-88.07,25.26
				c-36.27-7.4-61.43-62.27-54.77-121.49c6.66-58.79,44.41-150.23,105.83-159.38c11.1-1.74,43.67,3.05,50.33,5.66
				c6.66,2.61,11.1,8.27,8.14,10.45c-3.7,2.18-22.2,11.76-24.42,16.98c-2.96,5.23-50.33,52.69-59.21,105.38
				c-9.62,53.13-10.36,68.8-10.36,68.8l3.7,2.18l-2.96,5.23c0,0,0.74,2.61,1.48,5.66c-0.74,0.44-2.22,0.87-2.22,1.31
				c0,0.87,1.48,0.87,1.48,0.87v1.74v0.87c0,0,2.22,0,2.22,1.74c-0.74,1.74,0,1.31,0,2.18c0,0.44,0.74,1.31,0.74,1.31
				s-0.74,0.87,0,1.31c0.74,0.44,0.74,0.87,0.74,0.87s0.74,0,1.48,0c2.22,3.48,5.18,8.27,5.18,8.27s6.66,8.71,11.1,8.27
				c3.7,0,17.76-10.02,31.09-30.92c14.06-20.9,20.72-55.74,22.94-72.29c2.96-16.11-0.74-26.56-0.74-26.56l-23.68,0.44
				c0,0-0.74-10.02,5.92-11.76c5.92-1.31,25.9-1.31,36.27-0.43c10.36,0.43,16.28,2.61,17.76,6.97
				C661.31,563.97,658.35,603.16,655.39,615.79z M551.77,688.52c0,0-6.66-6.1-9.62-8.27c-2.22-2.18-5.92-12.63-6.66-13.5
				c0,0-2.22,0.87-1.48,4.79c0.74,4.35,6.66,12.19,11.1,16.98C547.33,691.56,551.77,688.52,551.77,688.52z"/>
			<path class="st1" d="M805.63,600.12c-8.88,9.14-54.03,53.13-78.45,59.22c-25.16,6.53-32.56,4.35-32.56-16.98
				c0-21.34-5.18-56.17,0-59.22c5.18-3.48,9.62-6.53,9.62-6.53c16.28-2.61,33.3-6.1,31.08,0c-2.22,6.53,0.74,20.47,0.74,29.61
				c-0.74,9.58-10.36,36.58,0,31.79c28.86-13.5,63.65-45.29,81.41-64.88C817.47,573.12,823.39,580.08,805.63,600.12z M705.71,539.59
				c2.96-8.71,7.4-13.5,7.4-13.5s25.9-6.97,25.9,0c0,6.53-7.4,18.29-13.32,19.16C720.52,546.12,702.75,547.86,705.71,539.59z"/>
			<path class="st1" d="M946.25,624.94c-3.7,2.61-24.42,11.32-59.21,24.82c-5.18,1.74-28.12,8.27-42.19,6.97
				c0,5.66,0,12.19-0.74,13.93c0,1.74-2.96,0.87-2.96,1.74c-0.74,1.31-0.74,3.05-1.48,3.48c-0.74,0.44-0.74,2.18-0.74,2.61
				c-0.74,0.44-3.7,0-6.66,0c-2.22,0-4.44,2.61-6.66,3.48c-2.96,0.87-10.36,3.48-11.84-1.74c-1.48-5.23-5.92-44.85-6.66-60.09
				c-0.74-15.24,2.22-75.34,8.88-77.51c4.44-1.31,12.58-3.48,20.72,0c8.14,3.92,11.84,5.66,14.06,18.29
				c9.62-0.43,24.42-2.18,34.05,6.97c10.36,10.89,7.4,20.03,1.48,26.56c-4.44,5.23-30.34,32.66-39.23,40.06
				c-0.74,6.97,0-0.44,0,5.23c1.48,3.48,6.66,4.35,19.24,3.92c8.88,0,76.23-26.56,79.93-26.56
				C949.21,617.1,949.21,621.89,946.25,624.94z M851.52,571.38c0,7.4-3.7,27.87-4.44,35.71c8.88-5.23,22.94-22.64,25.9-26.56
				c3.7-5.23,3.7-9.58,0-10.02C870.76,570.07,859.66,570.5,851.52,571.38z"/>
			<path class="st1" d="M1008.41,587.05c-2.96,14.37-5.92,24.39-7.4,27c-0.74,2.18-2.96,11.32-2.96,13.06c0,1.74,1.48,6.97,0,7.84
				c-1.48,0.87-2.96,0-1.48,0.87c1.48,0.87,2.22,1.31,2.22,1.74c-0.74,0.87-3.7,6.53-1.48,6.53c2.96,0,3.7-0.44,3.7,1.31
				c0,1.74,0,5.23,0.74,6.53c0.74,1.31,2.22,1.31,2.22,2.18c0,0.87-1.48,3.92,0,4.79c1.48,0.44,8.88-2.61,14.06-3.92
				c5.92-1.31,16.28-4.35,20.72-6.53c4.44-1.74,8.14-5.23,10.36-5.23c1.48-0.44,2.96,0.87,0.74,2.61
				c-1.48,1.74-23.68,20.47-34.05,23.08c-10.36,2.18-16.28,5.66-21.46,6.97c-5.18,1.31-22.94,4.35-24.42,0
				c-1.48-4.35-2.22-27.87-2.96-44.42c-0.74-16.55,2.22-69.67,4.44-82.3c2.96-12.19,5.18-30.48,9.62-32.22
				c4.44-2.18,20.72-2.61,25.9,0.87c4.44,3.05,4.44,42.24,4.44,42.24C1012.11,565.71,1011.37,573.12,1008.41,587.05z"/>
		</g>
		<g>
			<path class="st0" d="M648.95,611.34c-2.96,12.63-21.46,68.37-36.27,84.48c-14.06,15.68-51.81,32.66-88.07,25.26
				c-36.27-7.4-61.43-62.27-54.77-121.49c6.66-58.79,44.41-150.23,105.83-159.38c11.1-1.74,43.67,3.05,50.33,5.66
				c6.66,2.61,11.1,8.27,8.14,10.45c-3.7,2.18-22.2,11.76-24.42,16.98c-2.96,5.23-50.33,52.69-59.21,105.38
				c-9.62,53.13-10.36,68.8-10.36,68.8l3.7,2.18l-2.96,5.23c0,0,0.74,2.61,1.48,5.66c-0.74,0.44-2.22,0.87-2.22,1.31
				c0,0.87,1.48,0.87,1.48,0.87v1.74v0.87c0,0,2.22,0,2.22,1.74c-0.74,1.74,0,1.31,0,2.18c0,0.44,0.74,1.31,0.74,1.31
				s-0.74,0.87,0,1.31c0.74,0.44,0.74,0.87,0.74,0.87s0.74,0,1.48,0c2.22,3.48,5.18,8.27,5.18,8.27s6.66,8.71,11.1,8.27
				c3.7,0,17.76-10.02,31.09-30.92c14.06-20.9,20.72-55.74,22.94-72.29c2.96-16.11-0.74-26.56-0.74-26.56l-23.68,0.44
				c0,0-0.74-10.02,5.92-11.76c5.92-1.31,25.9-1.31,36.27-0.43c10.36,0.43,16.28,2.61,17.76,6.97
				C654.87,559.52,651.91,598.71,648.95,611.34z M545.34,684.06c0,0-6.66-6.1-9.62-8.27c-2.22-2.18-5.92-12.63-6.66-13.5
				c0,0-2.22,0.87-1.48,4.79c0.74,4.35,6.66,12.19,11.1,16.98C540.9,687.11,545.34,684.06,545.34,684.06z"/>
			<path class="st0" d="M799.2,595.66c-8.88,9.14-54.03,53.13-78.45,59.22c-25.16,6.53-32.56,4.35-32.56-16.98
				c0-21.34-5.18-56.17,0-59.22c5.18-3.48,9.62-6.53,9.62-6.53c16.28-2.61,33.3-6.1,31.08,0c-2.22,6.53,0.74,20.47,0.74,29.61
				c-0.74,9.58-10.36,36.58,0,31.79c28.86-13.5,63.65-45.29,81.41-64.88C811.04,568.67,816.96,575.63,799.2,595.66z M699.28,535.13
				c2.96-8.71,7.4-13.5,7.4-13.5s25.9-6.97,25.9,0c0,6.53-7.4,18.29-13.32,19.16C714.08,541.67,696.32,543.41,699.28,535.13z"/>
			<path class="st0" d="M939.82,620.48c-3.7,2.61-24.42,11.32-59.21,24.82c-5.18,1.74-28.12,8.27-42.19,6.97
				c0,5.66,0,12.19-0.74,13.93c0,1.74-2.96,0.87-2.96,1.74c-0.74,1.31-0.74,3.05-1.48,3.48c-0.74,0.44-0.74,2.18-0.74,2.61
				c-0.74,0.44-3.7,0-6.66,0c-2.22,0-4.44,2.61-6.66,3.48c-2.96,0.87-10.36,3.48-11.84-1.74c-1.48-5.23-5.92-44.85-6.66-60.09
				c-0.74-15.24,2.22-75.34,8.88-77.51c4.44-1.31,12.58-3.48,20.72,0c8.14,3.92,11.84,5.66,14.06,18.29
				c9.62-0.43,24.42-2.18,34.05,6.97c10.36,10.89,7.4,20.03,1.48,26.56c-4.44,5.23-30.34,32.66-39.23,40.06
				c-0.74,6.97,0-0.44,0,5.23c1.48,3.48,6.66,4.36,19.24,3.92c8.88,0,76.23-26.56,79.93-26.56
				C942.78,612.65,942.78,617.44,939.82,620.48z M845.08,566.92c0,7.4-3.7,27.87-4.44,35.71c8.88-5.23,22.94-22.64,25.9-26.56
				c3.7-5.23,3.7-9.58,0-10.02C864.33,565.62,853.22,566.05,845.08,566.92z"/>
			<path class="st0" d="M1001.98,582.6c-2.96,14.37-5.92,24.39-7.4,27c-0.74,2.18-2.96,11.32-2.96,13.06c0,1.74,1.48,6.97,0,7.84
				c-1.48,0.87-2.96,0-1.48,0.87c1.48,0.87,2.22,1.31,2.22,1.74c-0.74,0.87-3.7,6.53-1.48,6.53c2.96,0,3.7-0.44,3.7,1.31
				c0,1.74,0,5.23,0.74,6.53c0.74,1.31,2.22,1.31,2.22,2.18c0,0.87-1.48,3.92,0,4.79c1.48,0.44,8.88-2.61,14.06-3.92
				c5.92-1.31,16.28-4.35,20.72-6.53c4.44-1.74,8.14-5.23,10.36-5.23c1.48-0.44,2.96,0.87,0.74,2.61
				c-1.48,1.74-23.68,20.47-34.05,23.08c-10.36,2.18-16.28,5.66-21.46,6.97c-5.18,1.31-22.94,4.36-24.42,0
				c-1.48-4.35-2.22-27.87-2.96-44.42c-0.74-16.55,2.22-69.67,4.44-82.3c2.96-12.19,5.18-30.48,9.62-32.22
				c4.44-2.18,20.72-2.61,25.9,0.87c4.44,3.05,4.44,42.24,4.44,42.24C1005.68,561.26,1004.94,568.67,1001.98,582.6z"/>
		</g>
	</g>
	<g>
		<path class="st1" d="M695.67,811.9v22.02h-25v88.09H654v-88.09h-25V811.9H695.67z"/>
		<path class="st1" d="M767.46,839.9c0,4.93,0.04,9.65,0.12,14.16c0.08,4.51-0.08,9.28-0.48,14.31c-0.24,2.73-0.77,5.03-1.61,6.92
			c-0.83,1.89-2.12,3.57-3.87,5.03c-1.75,1.57-3.49,2.44-5.24,2.6c-1.75,0.16-3.57,0.24-5.48,0.24l16.19,38.54h-19.05l-16.19-38.54
			h-12.98v38.54h-16.67V811.58h12.5h4.17h35.12c1.91,0,3.67,0.45,5.3,1.34c1.63,0.89,3.04,2.15,4.23,3.78
			c1.19,1.63,2.14,3.51,2.86,5.66c0.71,2.15,1.07,4.48,1.07,7V839.9z M750.44,861.14v-5.51v-16.52v-5.51h-31.55v5.51v16.52v5.51
			H750.44z"/>
		<path class="st1" d="M847.94,811.74l-29.64,62.14v47.98h-16.67v-47.98l-29.76-62.14h19.76l18.33,38.23l18.21-38.23H847.94z"/>
		<path class="st1" d="M964.49,811.9v22.02h-25v88.09h-16.67v-88.09h-25V811.9H964.49z"/>
		<path class="st1" d="M1037.59,897.63c0,1.99,0.02,3.91,0.06,5.74c0.04,1.84-0.06,3.57-0.3,5.19c-0.24,1.63-0.7,3.22-1.37,4.8
			c-0.68,1.57-1.73,3.15-3.15,4.72c-1.43,1.47-2.84,2.52-4.23,3.15c-1.39,0.63-2.78,1.02-4.17,1.18c-1.39,0.16-2.8,0.18-4.23,0.08
			c-1.43-0.11-2.86-0.16-4.29-0.16c-2.94,0-5.83,0.03-8.69,0.08c-2.86,0.05-5.76,0.08-8.69,0.08c-2.78,0-5.54,0.02-8.27,0.08
			c-2.74,0.05-5.54-0.24-8.39-0.86c-1.51-0.31-2.94-0.92-4.29-1.81c-1.35-0.89-2.52-2.05-3.51-3.46c-0.99-1.42-1.77-3.01-2.32-4.8
			c-0.56-1.78-0.83-3.72-0.83-5.82v-45.93v-22.81c0-1.99,0-3.88,0-5.66c0-1.78,0.16-3.49,0.48-5.11c0.32-1.62,0.85-3.2,1.61-4.72
			c0.75-1.52,1.85-3.07,3.27-4.64c1.43-1.47,2.8-2.54,4.11-3.22c1.31-0.68,2.62-1.13,3.93-1.34c1.31-0.21,2.66-0.29,4.05-0.24
			c1.39,0.05,2.8,0.08,4.23,0.08h17.26c2.86,0,5.66,0,8.39,0c2.74,0,5.58,0.31,8.51,0.94c1.51,0.31,2.92,0.92,4.23,1.81
			c1.31,0.89,2.46,2.02,3.45,3.38c0.99,1.36,1.77,2.96,2.32,4.8c0.55,1.84,0.83,3.75,0.83,5.74v45.93V897.63z M1020.92,900.3v-66.07
			h-33.34v66.07H1020.92z"/>
	</g>
	<g>
		<path class="st0" d="M628.78,770.07c35.23-3.11,70.47-4.72,105.7-5.88c35.23-1.1,70.47-1.61,105.7-1.62
			c35.23-0.01,70.47,0.5,105.7,1.6c35.23,1.15,70.47,2.77,105.7,5.9c-35.23,3.13-70.47,4.74-105.7,5.9
			c-35.23,1.1-70.47,1.61-105.7,1.6c-35.23-0.01-70.47-0.52-105.7-1.62C699.24,774.79,664.01,773.18,628.78,770.07z"/>
	</g>
	<g>
		<path class="st0" d="M628.78,963.63c35.23-3.11,70.47-4.72,105.7-5.88c35.23-1.1,70.47-1.61,105.7-1.62
			c35.23-0.01,70.47,0.5,105.7,1.6c35.23,1.15,70.47,2.77,105.7,5.9c-35.23,3.13-70.47,4.74-105.7,5.9
			c-35.23,1.1-70.47,1.61-105.7,1.6c-35.23-0.01-70.47-0.52-105.7-1.62C699.24,968.35,664.01,966.74,628.78,963.63z"/>
	</g>
	<g>
		<g>
			<path class="st0" d="M587.47,857.23l-0.66-3.87c-0.03-0.06-0.05-0.13-0.09-0.19l-1.21-2.29c0,0,0,0.01,0,0.01l-1.86-3.52
				l0.1,0.18l-8.19-15.46c-4.16-7.85-23.16-5.93-42.44,4.28c-19.28,10.21-31.54,24.86-27.38,32.71l11.17,21.07
				c4.16,7.85,23.16,5.93,42.44-4.28c13.04-6.91,22.86-15.84,26.56-23.33l0.01-0.01l0.01-0.03c0.94-1.91,1.49-3.73,1.58-5.39
				C587.49,857.16,587.48,857.2,587.47,857.23z"/>
			<g>
				<path class="st1" d="M587.47,857.23c-0.23,0.54-0.4,1.19-0.79,1.78c-0.35,0.62-0.73,1.28-1.13,1.98c-0.44,0.67-1,1.32-1.54,2.01
					c-0.54,0.69-1.07,1.42-1.77,2.01c-0.66,0.63-1.33,1.27-2,1.91c-0.64,0.68-1.39,1.22-2.12,1.74c-0.73,0.53-1.45,1.06-2.15,1.57
					c-0.71,0.49-1.33,1.05-2.04,1.4c-0.69,0.39-1.34,0.75-1.94,1.09c-2.39,1.34-3.99,2.23-3.99,2.23s1.54-0.98,3.85-2.46
					c0.58-0.37,1.2-0.77,1.86-1.19c0.69-0.38,1.27-0.98,1.95-1.5c0.66-0.54,1.33-1.1,2.03-1.67c0.7-0.56,1.4-1.13,1.98-1.82
					c0.62-0.66,1.24-1.32,1.84-1.97c0.65-0.61,1.11-1.35,1.59-2.03c0.47-0.69,0.97-1.33,1.35-1.99c0.34-0.68,0.66-1.32,0.95-1.92
					c0.34-0.58,0.45-1.17,0.63-1.67c0.17-0.5,0.31-0.94,0.34-1.28c0.06-0.36,0.13-0.6,0.14-0.82c0.01-0.19,0.24-1.09,0.29-1.28
					c-0.03-0.06-0.05-0.13-0.09-0.19l-1.21-2.29c-0.15,0.72-0.58,1.73-0.93,2.57c-0.37,0.86-0.64,1.9-1.27,2.86
					c-0.56,0.99-1.18,2.06-1.82,3.19c-0.72,1.07-1.62,2.1-2.47,3.22c-0.87,1.1-1.72,2.28-2.84,3.23c-1.05,1.01-2.13,2.03-3.21,3.06
					c-1.02,1.08-2.22,1.96-3.41,2.8c-1.18,0.86-2.33,1.7-3.45,2.51c-1.14,0.78-2.14,1.69-3.28,2.24c-1.11,0.62-2.15,1.21-3.11,1.75
					c-3.84,2.15-6.4,3.59-6.4,3.59s2.47-1.58,6.18-3.95c0.92-0.59,1.93-1.23,2.98-1.91c1.1-0.61,2.04-1.57,3.12-2.4
					c1.05-0.87,2.15-1.76,3.25-2.68c1.13-0.89,2.25-1.81,3.19-2.92c0.99-1.06,1.98-2.12,2.95-3.16c1.04-0.98,1.79-2.16,2.56-3.26
					c0.75-1.12,1.55-2.15,2.17-3.2c0.55-1.09,1.06-2.12,1.53-3.07c0.55-0.92,0.72-1.88,1.02-2.68c0.28-0.81,0.5-1.51,0.56-2.06
					c0.09-0.57,0.21-0.96,0.22-1.32c0.02-0.35,0.44-2.18,0.44-2.18l0.24,0.45l-8.19-15.46c-4.16-7.85-23.16-5.93-42.44,4.28
					c-19.28,10.21-31.54,24.86-27.38,32.71l11.17,21.07c4.16,7.85,23.16,5.93,42.44-4.28c16.39-8.69,27.7-20.57,28.16-28.76
					C587.49,857.16,587.48,857.2,587.47,857.23z M533.34,872.15c-2.53,0.8-5.06,1.34-7.46,1.77c-2.4,0.43-4.71,0.65-6.84,0.75
					c-2.14,0.04-4.11-0.05-5.82-0.41c-0.86-0.16-1.65-0.35-2.36-0.64c-0.73-0.21-1.34-0.54-1.89-0.86c-0.57-0.26-0.98-0.67-1.33-1
					c-0.18-0.16-0.34-0.32-0.49-0.45c-0.11-0.18-0.21-0.33-0.3-0.47c-0.35-0.56-0.54-0.85-0.54-0.85s0.22,0.27,0.64,0.77
					c0.1,0.12,0.22,0.26,0.34,0.41c0.16,0.12,0.34,0.24,0.53,0.38c0.39,0.27,0.79,0.61,1.37,0.81c0.54,0.26,1.14,0.52,1.86,0.65
					c0.69,0.21,1.46,0.32,2.3,0.39c1.66,0.19,3.56,0.09,5.61-0.04c2.06-0.22,4.27-0.56,6.58-1.12c2.31-0.55,4.72-1.23,7.18-2.06
					c2.47-0.79,4.95-1.81,7.47-2.85c2.48-1.04,4.98-2.27,7.44-3.56c2.44-1.31,4.84-2.68,7.12-4.16c2.28-1.49,4.51-2.97,6.55-4.58
					c2.07-1.57,3.99-3.17,5.73-4.78c1.76-1.6,3.28-3.24,4.62-4.82c1.26-1.62,2.41-3.14,3.18-4.62c0.41-0.73,0.75-1.43,0.97-2.12
					c0.29-0.67,0.42-1.31,0.51-1.9c0.16-0.59,0.1-1.11,0.1-1.57c0-0.24-0.01-0.45-0.01-0.65c-0.06-0.19-0.11-0.37-0.15-0.53
					c-0.18-0.63-0.28-0.96-0.28-0.96s0.14,0.32,0.4,0.92c0.07,0.15,0.14,0.32,0.22,0.51c0.03,0.2,0.06,0.42,0.1,0.66
					c0.08,0.48,0.19,1.06,0.08,1.68c-0.04,0.63-0.11,1.33-0.34,2.05c-0.16,0.75-0.45,1.51-0.8,2.31c-0.66,1.62-1.68,3.3-2.92,5.05
					c-1.28,1.71-2.76,3.48-4.47,5.23c-1.7,1.74-3.56,3.53-5.65,5.18c-2.05,1.69-4.27,3.32-6.59,4.86c-2.33,1.54-4.78,2.97-7.26,4.33
					c-2.52,1.29-5.06,2.5-7.66,3.57C538.48,870.49,535.89,871.4,533.34,872.15z"/>
			</g>
		</g>
		<path class="st2" d="M579.35,960.79c-3.31-1.88-8.43-4.37-14.78-4.37c-0.23,0-0.45,0-0.68,0.01c-3.4,0.09-7.08,0.14-11.92,0.14
			c-1.93,0-3.87-0.01-5.8-0.01c-1.95-0.01-3.91-0.01-5.86-0.01c-4.65,0-8.22,0.04-11.57,0.12l-0.33,0c-3,0-5.71-0.95-9.15-5.61
			c-4.38-5.92-7.28-13.34-10.08-20.52c-3.4-8.71-6.67-17.73-9.82-26.46c-1.32-3.66-2.66-7.32-4-10.97c-0.03-0.1-0.06-0.19-0.1-0.29
			c-0.04-0.1-0.08-0.21-0.12-0.31c-0.32-0.88-0.64-1.76-0.96-2.64c-3.01-8.14-6.03-16.28-9.05-24.42c-0.25-0.67-0.58-1.3-0.97-1.88
			c-1.26-3.47-2.5-6.94-3.72-10.35c-1.73-4.83-3.46-9.67-5.22-14.48c-0.73-2-1.46-4-2.19-6c-2.93-8.06-5.96-16.4-9.35-24.51
			c-0.4-0.95-0.26-1.89,0.43-4.86c0.18-0.79,0.37-1.58,0.53-2.38c0.04-0.09,0.08-0.17,0.13-0.26c0.11-0.23,0.23-0.48,0.35-0.76
			c5.83-2.35,8.61-6.09,9.93-9c2.37-5.2,1.9-11.37-1.38-18.34c-1.61-3.42-3.88-6.17-5.89-8.47c-2.85-3.28-5.77-6.56-8.59-9.73
			c-3.06-3.44-6.23-6.99-9.27-10.52c-2.52-2.92-4.26-5.24-5.62-7.49c-1.14-1.88-1.64-3.73-1.58-5.83
			c0.34-13.08-7.54-17.86-14.21-19.57c-0.64-0.17-0.86-0.31-0.86-0.31c-0.01-0.02-0.24-0.28-0.52-1.1
			c-2.31-6.77-4.81-13.52-7.24-20.05c-1.23-3.31-2.45-6.61-3.66-9.93c-0.66-1.82-1.29-3.66-1.91-5.5c-1.19-3.5-2.41-7.12-3.92-10.7
			c-1.78-4.24-2.15-8.82-1.2-14.78l0.06-0.28c0.21-0.89,0.56-2.39,0.44-4.26c-0.07-1.12,0.45-2.44,1.47-4.85
			c3.81-9.1,4.9-18.58,5.45-26.66c0.25-3.63,0.18-7.15,0.1-10.54l-0.01-0.43c-0.08-3.9,0.35-7.89,1.32-12.22
			c0.73-3.24,0.56-6.36,0.43-8.87c-0.03-0.66-0.07-1.32-0.08-1.96c-0.01-0.38-0.04-0.74-0.07-1.08c0.7,0.06,1.4,0.09,2.1,0.09
			c2.42,0,4.75-0.37,6.93-1.1c9.36-3.15,17.9-9,26.87-18.43c2.94-3.09,4.68-6.75,6.22-9.97c0.51-1.07,1-2.09,1.48-2.98
			c0.8-1.49,1.46-2.97,2.04-4.28c0.18-0.4,0.36-0.81,0.54-1.21c1.84-4.05,3.53-8.55,3.45-14.05c-0.02-1.64,0.23-3.56,0.5-5.59
			c0.15-1.12,0.29-2.24,0.41-3.36c0.73-7.1-0.69-13.45-4.2-18.88c0.02-0.19,0.18-1.45,0.18-1.45c0.61-4.89,1.3-10.42,0.38-16.01
			c-0.73-4.47-2.85-8.22-4.55-11.23c-0.51-0.9-0.98-1.74-1.38-2.53c-1.58-3.1-3.37-6.61-5.6-9.98c-0.29-0.44-0.58-0.88-0.87-1.32
			c-2.25-3.45-4.8-7.36-8.95-10.6l-0.63-0.49c-3.29-2.56-6.4-4.99-9.13-7.78c-3.26-3.32-7-5.31-10.31-7.07
			c-1.26-0.67-2.44-1.3-3.48-1.94c-4.58-2.82-9.38-4.25-14.27-4.25c-0.89,0-1.8,0.05-2.7,0.14c-0.48,0.05-0.87,0.08-1.19,0.08
			c-0.26,0-0.4-0.02-0.45-0.02c-1.36-0.21-2.72-0.32-4.06-0.32c-10.34,0-17.52,6.15-22.02,10.77c-0.16,0.16-0.31,0.33-0.47,0.5
			c-11.31,4.17-15.6,14.74-18.77,22.55c-0.2,0.48-0.38,0.96-0.55,1.45c-0.5-0.58-1-1.19-1.52-1.84c-4.04-5.03-9.42-7.7-15.53-7.7
			c-0.6,0-1.22,0.03-1.84,0.08c-1.14,0.1-2.07,0.16-2.92,0.16c-0.42,0-0.78-0.02-1.12-0.05c-0.31-0.03-0.67-0.13-0.9-0.25
			c-4.6-2.44-9.14-3.64-13.87-3.68l-0.75,0c-9.15,0-18.73,1.2-29.28,3.68c-3.79,0.89-7.72,1.46-11.88,2.06
			c-1.94,0.28-3.87,0.56-5.8,0.87c-4.11,0.67-9.45,1.88-14.38,5.36c-1.4,0.99-4.57,3.9-3.8,9.65c0.46,3.44,2.15,5.47,3.72,6.63
			c-0.04,0.01-0.08,0.02-0.12,0.02c-3.87,0.78-6.82,2.83-9.19,4.48c-0.56,0.39-1.13,0.79-1.68,1.14c-4.27,2.66-7.57,7.76-5.29,13.15
			c1.65,3.91,5.16,6.33,9.17,6.33c1.71,0,3.11-0.44,4.14-0.9c2.69-0.23,5.29-0.69,7.79-1.29c0.08,0.14,0.17,0.28,0.26,0.42
			l0.01,0.02c2.54,4.4,6.02,5.33,8.5,5.33c0,0,2.57,0,2.57,0c3.89,0,7.7-0.03,11.6-0.34c3.66-0.29,7.28-1.16,10.45-2.51
			c0.21-0.09,0.42-0.18,0.63-0.27c0.97,0.68,2.06,1.22,3.21,1.57c-1.98,2.11-3.83,4.64-5.21,7.82c-0.07,0.17-0.15,0.34-0.23,0.51
			c-0.59,1.27-1.48,3.19-1.71,5.65c-0.22,2.26-0.37,4.49-0.52,6.65c-0.18,2.66-0.35,5.18-0.63,7.65c-0.27,2.37-0.71,3.69-1.03,4.37
			c-3.6,7.7-6.75,14-9.92,19.81c-0.79,1.45-2.36,2.97-3.48,3.99c-4.55,4.15-10.04,7.16-15.86,10.34c-2.1,1.15-4.28,2.34-6.44,3.61
			c-9.24,5.41-18.14,11-25.45,19.93c-3.28,4.01-6.8,7.78-10.53,11.76l-0.33,0.36c-1.85,1.98-3.85,3.87-5.96,5.87l-1.31,1.24
			c-3.89,3.7-8.48,9.03-9.45,17.46c-0.06,0.55-0.4,1.56-0.73,2.53c-0.35,1.05-0.75,2.24-1.08,3.57c-0.1,0.42-0.22,0.84-0.33,1.26
			c-0.76,2.81-1.83,6.81-0.66,11.47c-3.78,6.9-6.03,14.16-8.21,21.2l-0.55,1.78c-1.15,3.69-1.73,7.44-1.68,10.84
			c0.04,2.61-0.3,5.44-0.67,8.44c-0.71,5.79-1.5,12.32,0.27,19.32c-0.01,0.39-0.02,0.88,0.01,1.44c0.11,2.19,0.21,4.39,0.32,6.58
			c0.25,5.58,0.52,11.34,1.03,17.08c0.42,4.74,1.64,9.15,2.78,12.85c0.47,1.51,0.36,1.91,0.25,2.31c-0.81,2.94-0.96,5.83-0.99,8.53
			c-0.03,2.64-0.01,5.27,0.01,7.82c0.02,3.19,0.04,6.21-0.02,9.25c-0.03,1.42-0.21,3-0.4,4.67c-0.16,1.38-0.32,2.8-0.42,4.3
			l-0.03,0.4c-0.16,2.42-0.35,5.17-0.06,8.09c0.65,6.47,1.47,12.97,2.25,19.26l0.12,0.94c0.18,1.45,0.41,2.9,0.63,4.35
			c0.23,1.47,0.45,2.88,0.61,4.24c-0.67,1.21-1.53,2.45-2.36,3.61c-2.09,2.93-3.06,6.13-2.91,9.45c-0.02,0-0.04,0-0.05,0
			c-0.79,0-1.26-0.09-1.51-0.16c-2.38-0.69-4.82-1.04-7.25-1.04c-6.4,0-11.8,2.34-16.24,4.62c-4.42,2.28-8.61,4.88-12.66,7.38
			c-2.31,1.43-4.49,2.79-6.72,4.08c-1.14,0.67-2.45,1.3-3.84,1.97c-1.29,0.62-2.62,1.26-4.05,2.05c-2.03,1.11-4.55,2.49-6.88,4.53
			c-1.09,0.95-2.64,1.48-5.12,2.13c-1.76,0.46-3.51,0.94-5.26,1.43c-2.64,0.73-5.13,1.42-7.62,2.01l-0.14,0.03
			c-2.72,0.64-5.28,1.25-7.47,1.31c-2.55,0.08-5.3,0.12-8.4,0.12c-3.67,0-7.44-0.05-11.09-0.11l-1.68-0.02
			c-0.62-0.01-1.5-0.13-2.42-0.26c-0.95-0.13-2.03-0.29-3.19-0.37c-0.82-0.06-1.58-0.09-2.32-0.09c-5.54,0-10.08,1.75-13.52,5.22
			c-1.63-0.7-3.36-1.52-5.23-2.48c-2.54-1.31-5.24-1.97-8.04-1.97c-9.92,0-17.79,8.2-17.92,18.67c-0.09,6.79-0.01,13.65,0.06,20.28
			c0.03,2.79,0.06,5.58,0.08,8.36c-0.03,0.68-0.12,2.28,0.48,4.11c1.67,5.18,2.13,10.94,2.61,17.05c0.27,3.45,0.55,7.02,1.07,10.63
			c1,6.97,2.27,13.9,3.5,20.59c0.57,3.1,1.14,6.21,1.69,9.31c1.6,9.16,5.97,15.19,12.97,17.93c1.97,0.77,4.63,1.66,7.68,1.66
			c0,0,0,0,0,0c3.33,0,8-1.07,11.85-5.95c1.87,0.67,3.81,1.01,5.79,1.01c5.9,0,10.61-3.04,14.05-5.26l0.68-0.44
			c5.72-3.66,8.15-10.69,6.03-17.48c-0.23-0.75-0.3-1.18-0.32-1.38c0.05-0.07,0.12-0.16,0.24-0.29c3.48-3.87,4-9.46,4.01-12.44
			c0-2.44,0.46-4.7,1.39-6.91c1.22-2.92,2.4-5.62,3.56-8.15c0.43,0.06,0.78,0.08,1,0.08c0.74,0.02,1.49,0.04,2.24,0.04
			c2.14,0,4.98-0.12,7.97-1.06c2.02-0.64,4.26-1.89,5.82-4.31c1.83,0.55,3.74,0.83,5.71,0.83c3.38,0,6.42-0.81,8.86-1.46
			c1.01-0.27,2.02-0.54,3.02-0.82c5.97-1.63,11.61-3.17,17.14-3.44c2.04-0.1,3.74-0.61,4.97-0.98c0.31-0.09,0.63-0.19,0.94-0.27
			c1.82-0.41,3.66-0.79,5.49-1.17c4.1-0.86,8.35-1.74,12.62-2.97c11.67-3.38,21.09-6.36,29.65-9.39c3.75-1.33,7.81-2.23,13.58-3.01
			c3.23-0.44,6.46-0.83,9.69-1.23c3.41-0.42,6.94-0.85,10.44-1.33c4.52-0.62,10.96-3,16.02-10.85c0.67-1.05,1.36-2.09,2.04-3.13
			c1.77-2.71,3.61-5.52,5.35-8.44c3.16-5.3,4.9-11.55,5.17-18.57c0.1-2.53,0.6-4.96,1.58-7.62l1.13-3.07
			c4.43-12.01,9.01-24.44,11.16-37.97c0.6-3.79,0.97-7.54,1.33-11.18c0.2-2.01,0.39-4.01,0.63-6.01l0.05-0.44
			c0.15-1.23,0.29-2.42,0.47-3.48c1.84,2.18,3.69,4.35,5.53,6.53c1.7,2,3.42,3.98,5.14,5.95l1.21,1.39c1.96,2.25,3.92,4.5,5.91,6.73
			c1.53,1.71,4.37,4.89,9.12,4.89c4.73,0,7.56-3.1,9.25-4.95c0.11-0.12,0.22-0.24,0.33-0.36c-0.12,0.53-0.23,1.04-0.34,1.55
			c-0.26,1.23-0.51,2.39-0.79,3.43c-2.84,10.54-2.83,20.98-2.81,31.09c0,1.5,0,3,0,4.49c0,0.89-0.15,2.03-0.3,3.23
			c-0.04,0.28-0.07,0.56-0.11,0.85c-0.73,0.03-1.48,0.13-2.22,0.29c-5.68,1.2-9.79,5.68-10.72,11.68c-0.29,1.89-0.27,3.63-0.25,5.02
			l0.01,0.82c0.01,3.8,0.03,7.59,0.04,11.39c0.04,8.75,0.08,17.79,0,26.65c-0.02,1.82-0.34,3.91-0.69,6.11
			c-0.18,1.13-0.35,2.26-0.5,3.39c-0.25,1.94-0.51,3.87-0.77,5.8c-0.49,3.62-0.99,7.36-1.43,11.08c-0.61,5.2,0.46,10.06,3.1,14.15
			c-1.53,3.17-3.08,6.58-4.24,10.22c-3.29,10.29,0.89,19.31,10.64,22.96l0.28,0.1c1.53,0.58,3.63,1.37,6.21,1.5
			c10.08,0.52,20.12,0.94,29.46,1.32c0.96,0.04,1.92,0.05,2.88,0.05c0.75,0,1.5-0.01,2.25-0.02c0.68-0.01,1.37-0.02,2.05-0.02
			c0.34,0,0.67-0.02,1-0.06c1.92,0.01,3.85,0.03,5.77,0.05c2.33,0.03,4.66,0.05,6.98,0.05c3.61,0,6.59-0.07,9.38-0.2
			c6.74-0.33,14.7-1.07,22.59-3.95c4.38-1.6,7.63-4.52,9.67-8.68c1.53-3.12,5.49-11.21-0.56-19.13c2.44-4.26,2.95-8.99,1.44-13.68
			c0-0.33,0-0.71-0.03-1.13c-0.68-10.65-7.33-17.8-16.92-18.23c-1.39-0.06-2.56-0.37-4.4-1.75c-2.51-1.88-5.11-3.12-7.45-4.18
			c0.88-3.61,0.54-6.96,0.29-9.48l-0.03-0.29c-0.35-3.5-1.69-6.62-3.84-9.15c0.65-1.96,1.07-3.87,1.45-5.6
			c0.31-1.44,0.61-2.79,0.98-3.87c0.78-2.29,1.58-4.58,2.38-6.86c1.45-4.14,2.94-8.41,4.34-12.71c3.21-9.88,5.28-19.93,7.28-30.21
			c2.34-11.96,5.05-24.73,9.03-37.1c0.34-1.06,0.73-2.13,1.14-3.2c1.13,1.38,2.37,2.6,3.69,3.6c1.08,0.82,2.14,1.66,3.21,2.51
			c5.58,4.43,12.32,9.79,21.16,11.25c4.79,13.16,9.96,27.22,15.76,42.88c2.06,5.55,4.13,11.09,6.21,16.63
			c0.09,0.56,0.22,1.11,0.42,1.65l0.87,2.37c0.42,1.14,0.84,2.28,1.26,3.42c5.77,15.42,12.6,33.61,19.59,51.65
			c3.51,9.07,7.16,18.22,10.7,27.07c2.32,5.82,4.65,11.63,6.94,17.46c3.49,8.84,9.83,15.2,18.85,18.9
			c9.65,3.95,18.02,5.79,26.36,5.79c0.7,0,1.41-0.01,2.12-0.04c3.21-0.13,6.53-0.19,9.86-0.19c2.87,0,5.83,0.05,8.8,0.14
			c0.21,0.01,0.41,0.01,0.61,0.01c6.71,0,11.55-3.35,15.09-5.8c8.92-6.17,9.03-15.88,9.1-21.69
			C589.39,970.94,585.85,964.48,579.35,960.79z"/>
		<g>
			<path class="st3" d="M476.67,868.59c3.02,8.13,6.04,16.27,9.05,24.4c5.03,13.6,9.79,27.33,15.06,40.82
				c3.08,7.89,6.21,15.81,11.24,22.6c4.49,6.06,9.71,9.43,16.94,9.25c11.72-0.29,23.46,0.09,35.18-0.23
				c4.01-0.11,7.51,1.34,10.77,3.19c3.4,1.93,5.44,5.25,5.38,10.25c-0.07,5.77-0.42,11.07-5.22,14.39c-3.14,2.17-6.28,4.32-10.3,4.2
				c-6.43-0.2-12.87-0.2-19.29,0.05c-8.6,0.33-16.7-1.8-24.72-5.09c-6.38-2.61-11.12-6.85-13.89-13.87
				c-5.85-14.84-11.86-29.6-17.62-44.48c-6.63-17.13-13.11-34.34-19.55-51.56c-0.72-1.92-1.41-3.84-2.12-5.76
				C470.54,873.95,473.58,871.24,476.67,868.59z"/>
			<path class="st3" d="M37.61,910.71c0,0.42-0.08,0.89,0.04,1.27c3.04,9.41,2.63,19.46,4.02,29.17c1.43,9.96,3.42,19.76,5.15,29.63
				c0.81,4.65,2.57,9.22,7.38,11.1c3.71,1.45,6.89,1.88,9.62-2.08c0.77-1.11,2.24-1.58,3.15-2.6c1.4-1.56,2.62-1.91,4.47-0.72
				c5.48,3.52,10.13,0.13,14.67-2.78c2.38-1.52,3.16-4.43,2.29-7.23c-1.24-4-1.07-7.14,1.81-10.35c1.26-1.4,1.7-4.25,1.71-6.44
				c0-3.71,0.72-7.12,2.09-10.38c1.85-4.4,3.78-8.76,5.85-13.03c0.79-1.64,2.03-3.01,3.13-4.45c0.6-0.79,1.34-0.91,1.53,0.34
				c0.27,1.81,0.8,3.51,2.61,3.56c2.42,0.07,4.96,0.11,7.25-0.61c1.96-0.62,1.44-3.13,1.55-4.99c0.07-1.23,0.53-1.89,1.82-1.53
				c1.99,0.55,4.17,0.54,5.99,1.47c3.89,1.99,7.6,1.02,11.42,0c7.27-1.94,14.5-4.18,22.04-4.56c1.47-0.07,2.92-0.7,4.38-1.03
				c5.87-1.33,11.8-2.34,17.59-4.02c9.77-2.83,19.52-5.82,29.14-9.23c5.06-1.79,10.18-2.74,15.39-3.44
				c6.7-0.9,13.41-1.64,20.11-2.56c4.14-0.56,7.27-3.08,9.68-6.81c2.42-3.76,4.93-7.45,7.22-11.3c2.56-4.3,3.71-9.22,3.91-14.31
				c0.14-3.66,0.88-7,2.12-10.37c4.71-12.83,9.66-25.59,11.85-39.35c0.88-5.56,1.24-11.23,1.9-16.84c0.27-2.28,0.52-4.59,1.12-6.77
				c1.11-4,2.42-7.93,3.77-11.84c0.48-1.41,1.43-1.91,2.56-0.57c4.8,5.68,9.59,11.36,14.4,17.03c1.67,1.97,3.36,3.91,5.06,5.86
				c2.34,2.69,4.68,5.39,7.05,8.04c2.24,2.51,2.55,2.55,5-0.13c4.33-4.74,8.58-9.57,12.86-14.36c0.8-0.9,1.59-1.81,2.42-2.68
				c1.24-1.31,2.79-1.75,4.09-0.53c1.07,1,2.34,2.44,1.35,4.35c-0.89,1.72-0.62,3.21,0.3,4.73c1.38,2.26,1.2,4-0.74,6.02
				c-3.95,4.11-4.3,10.16-5.74,15.51c-2.93,10.85-2.45,22.1-2.5,33.28c-0.01,2.9-0.74,5.79-0.74,8.69c0,3.24,0.47,6.41-0.04,9.74
				c-0.81,5.3-0.96,10.72-1.5,16.08c-0.1,1-0.69,1.95-1.08,2.9c-0.07,0.17-0.38,0.39-0.41,0.37c-0.22-0.21-0.58-0.47-0.57-0.72
				c0.01-2.96-0.6-6.2,0.27-8.82c1.51-4.55,0.05-8.22-1.31-12.15c-0.81-2.34-2.22-3.42-4.37-2.97c-2.05,0.43-3.34,1.98-3.69,4.26
				c-0.22,1.45-0.14,2.96-0.14,4.44c0.03,12.71,0.16,25.43,0.04,38.14c-0.03,3.53-0.81,7.06-1.27,10.58
				c-0.73,5.59-1.53,11.18-2.19,16.78c-0.39,3.27,0.28,6.35,2.21,8.91c1.87,2.48,1.63,4.87,0.32,7.56c-1.51,3.1-2.98,6.27-4.04,9.59
				c-1.85,5.79,0.06,9.86,5.23,11.79c1.23,0.46,2.51,0.98,3.79,1.05c9.79,0.5,19.58,0.92,29.37,1.31c2.27,0.09,4.54,0.01,6.81,0.01
				v-0.06c7.57,0,15.15,0.29,22.7-0.09c6.72-0.33,13.45-1.04,19.96-3.41c2.14-0.78,3.62-2.03,4.68-4.19
				c1.69-3.44,2.96-6.77-0.06-10.23c-0.76-0.87-1.01-2.26-1.61-3.33c-0.93-1.67-0.85-3.12,0.35-4.6c2.08-2.55,2.79-5.4,1.43-8.72
				c-0.29-0.72-0.1-1.67-0.15-2.52c-0.37-5.83-3.29-9.59-8.34-9.81c-3.55-0.16-6.41-1.3-9.38-3.53c-3.24-2.42-7.19-3.6-10.71-5.59
				c-2.49-1.41-2.99-2.74-1.45-4.97c2.15-3.1,1.73-6.44,1.4-9.7c-0.35-3.41-2.46-5.55-5.35-6.72c-0.36-0.14-0.83-1.14-0.76-1.21
				c3.5-4.05,3.48-9.65,5.14-14.5c2.22-6.48,4.56-12.91,6.68-19.43c3.08-9.49,5.08-19.29,7.01-29.16c2.51-12.87,5.3-25.71,9.3-38.13
				c1.46-4.55,3.51-8.86,5.26-13.29c0.45-1.15,0.78-2.36,1.13-3.55c0.38-1.28,0.71-2.57,1.07-3.86c0.73,0.88,1.45,1.78,2.2,2.65
				c1.83,2.12,3.21,4.46,4.3,7.25c1.02,2.59,2.81,5.22,4.89,6.8c7.35,5.58,14.24,12.49,23.96,12.32c1.79-0.03,1.91,1.39,2.43,2.82
				c5.52,15.21,11.11,30.39,16.73,45.55c5.6,15.1,11.29,30.15,16.89,45.25c2.78-2.45,5.6-4.88,8.46-7.25
				c0.18-0.15,0.38-0.27,0.57-0.4c-2.79-7.23-5.64-14.44-8.34-21.72c-4.01-10.79-7.79-21.7-11.76-32.51
				c-3.7-10.1-7.27-20.27-11.39-30.15c-1.96-4.69-0.29-8.62,0.51-12.84c0.27-1.41,1.28-2.65,1.52-4.07c0.31-1.8,1.15-2.17,2.62-2.58
				c7.94-2.26,9.24-7.8,5.5-15.74c-1.12-2.37-2.85-4.46-4.54-6.41c-5.91-6.81-11.98-13.44-17.88-20.26
				c-2.35-2.72-4.63-5.6-6.51-8.73c-1.9-3.14-2.98-6.64-2.87-10.72c0.16-6.25-2.01-9.22-7.45-10.62c-3.78-0.97-6.22-2.99-7.66-7.22
				c-3.42-10.02-7.23-19.88-10.84-29.81c-1.91-5.26-3.51-10.67-5.66-15.79c-2.7-6.43-2.85-12.99-1.77-19.76
				c0.13-0.82,0.45-1.66,0.4-2.46c-0.21-3.28,0.91-5.96,2.15-8.91c3.13-7.46,4.21-15.61,4.77-23.8c0.23-3.37,0.15-6.78,0.07-10.17
				c-0.1-4.88,0.47-9.61,1.53-14.38c0.61-2.73,0.19-5.77,0.13-8.67c-0.02-1.03-0.62-2.07-0.52-3.06c0.41-4.33-1.58-6.63-4.93-8.12
				c-3.17-1.41-5.27-4.23-6.2-7.79c-0.35-1.35,0.18-3.43,0.99-4.56c0.46-0.64,2.49-0.44,3.5,0.11c1.95,1.07,3.73,1.68,5.82,0.56
				c0.32-0.17,0.97,0.4,1.47,0.63c-0.39,0.54-0.73,1.17-1.21,1.6c-0.24,0.22-0.73,0.1-1.11,0.13c-1.44,0.09-1.37,0.91-0.84,2.05
				c2.95,6.34,11.83,9.75,18.14,7.62c9.09-3.05,16.5-9.05,23.21-16.1c2.75-2.89,4.28-7.27,6.3-11.02c0.86-1.59,1.56-3.29,2.31-4.94
				c1.46-3.21,2.7-6.39,2.64-10.19c-0.05-3.33,0.61-6.67,0.95-10c0.52-5.04-0.41-9.71-3.24-13.71c-1.34-1.9-1.16-3.6-0.89-5.85
				c0.59-4.77,1.31-9.8,0.55-14.42c-0.64-3.93-3.22-7.49-5.07-11.13c-1.58-3.11-3.19-6.23-5.08-9.09c-2.33-3.51-4.44-7.14-7.85-9.8
				c-3.63-2.83-7.31-5.65-10.66-9.06c-3.34-3.4-8.02-5.14-12.09-7.65c-3.53-2.18-7.24-3.25-11.29-2.82
				c-1.31,0.14-2.67,0.2-3.97-0.01c-7.39-1.15-13.08,2.53-18.24,7.84c-0.82,0.85-1.65,1.99-2.65,2.28
				c-8.35,2.44-11.57,10.16-14.7,17.87c-1.15,2.84-1.76,5.96-2.56,8.96c-0.61,2.27-2.13,3.15-3.91,2.53
				c-1.74-0.61-3.46-1.68-4.87-2.98c-2.18-2.02-4.19-4.3-6.09-6.65c-2.61-3.24-5.75-4.61-9.6-4.29c-1.88,0.16-3.79,0.28-5.67,0.1
				c-1.44-0.14-2.93-0.57-4.24-1.26c-3.1-1.64-6.28-2.6-9.72-2.63c-9.43-0.07-18.69,1.27-27.91,3.44
				c-6.02,1.41-12.19,2.06-18.29,3.05c-3.74,0.61-7.39,1.54-10.63,3.83c-0.22,0.15-0.08,1.65,0.13,1.73
				c1.05,0.38,2.16,0.63,3.27,0.69c2.95,0.17,5.86-0.46,8.6,2.02c1,0.9,3.51-0.39,5.33-0.46c0.56-0.02,1.23,0.58,1.66,1.1
				c0.12,0.14-0.34,1.3-0.73,1.49c-7.35,3.58-13.66,9.57-21.88,11.22c-2.78,0.56-5.31,2.82-7.89,4.43
				c-0.74,0.46-1.89,1.71-1.76,2.02c0.76,1.8,1.82,0.11,2.79,0.06c6.64-0.33,12.87-2.41,19.1-4.86c1.99-0.79,4.44-0.21,6.68-0.1
				c0.71,0.03,1.4,0.56,2.09,0.89c1.24,0.6,3.29-0.96,3.66,1.45c0.07,0.44-1.99,1.51-3.17,1.92c-3.19,1.13-6.44,2.06-9.66,3.09
				c-0.34,0.11-0.63,0.39-0.94,0.59c0.35,0.47,0.7,1.36,1.05,1.36c4.48-0.01,8.97,0.05,13.44-0.31c2.59-0.21,5.24-0.8,7.66-1.82
				c2.93-1.24,5.69-3.03,8.44-4.76c2.28-1.44,4.28-3.56,6.68-4.58c1.79-0.76,4.06-0.54,6.04-0.2c1.15,0.19,2.16,1.47,3.23,2.26
				c-1.1,0.34-2.27,1.13-3.3,0.94c-4.03-0.74-7.14,2.62-10.92,2.87c-0.39,0.03-0.88,0.79-1.08,1.33c-0.26,0.71-0.57,1.72-0.3,2.25
				c0.28,0.56,1.23,1.02,1.86,0.97c3.36-0.24,6.71-0.61,10.06-1.04c1.28-0.16,2.74-0.26,3.77-0.99c2.81-2,5.82-1.47,8.8-1.31
				c0.59,0.03,1.16,0.74,1.73,1.13c-0.38,0.67-0.63,1.6-1.18,1.98c-3.99,2.77-8.25,5.12-12.01,8.23c-4.19,3.46-9,6.33-11.45,11.94
				c-0.48,1.11-1.12,2.25-1.24,3.42c-0.47,4.81-0.62,9.66-1.17,14.46c-0.28,2.44-0.81,5-1.82,7.16c-3.21,6.87-6.56,13.68-10.16,20.3
				c-1.32,2.43-3.32,4.52-5.32,6.34c-7.16,6.53-15.73,10.34-23.82,15.07c-8.35,4.89-16.54,9.93-23.03,17.86
				c-3.57,4.37-7.42,8.47-11.25,12.56c-2.45,2.62-5.06,5.04-7.64,7.49c-3.37,3.2-6.11,6.73-6.72,11.97
				c-0.28,2.46-1.42,4.77-2.01,7.2c-0.78,3.2-2.07,6.31-0.51,9.82c0.44,0.99-0.09,2.94-0.73,4.05c-4.01,6.93-6.27,14.71-8.66,22.4
				c-0.79,2.54-1.31,5.34-1.27,8.01c0.14,8.79-3.01,17.5-0.5,26.34c0.22,0.78,0.05,1.69,0.1,2.53c0.41,7.79,0.63,15.59,1.32,23.35
				c0.33,3.72,1.32,7.43,2.42,10.98c0.78,2.52,1.04,4.77,0.32,7.36c-0.55,1.97-0.64,4.15-0.66,6.24
				c-0.07,5.72,0.11,11.45-0.02,17.16c-0.07,3.13-0.63,6.25-0.84,9.38c-0.16,2.32-0.34,4.68-0.11,6.98
				c0.67,6.67,1.51,13.32,2.35,19.97c0.42,3.32,1.07,6.6,1.38,9.93c0.11,1.12-0.31,2.46-0.83,3.47c-0.94,1.81-2.09,3.5-3.26,5.15
				c-1.43,2.01-1.65,3.88-0.63,6.35c1.44,3.47,0.82,5.3-2.49,5.97c-3.66,0.74-7.71,1.4-11.2,0.39c-6.22-1.8-11.62,0.24-16.87,2.94
				c-6.48,3.34-12.62,7.53-18.96,11.24c-2.61,1.53-5.41,2.66-8.06,4.11c-1.84,1.01-3.73,2.03-5.33,3.43
				c-2.62,2.3-5.64,3.25-8.77,4.07c-4.37,1.14-8.7,2.46-13.08,3.5c-3.1,0.73-6.26,1.49-9.41,1.58c-7.18,0.22-14.38,0.09-21.56-0.01
				c-2.05-0.03-4.1-0.51-6.16-0.66c-3.62-0.27-7.14,0.16-9.67,3.5c-1.69,2.24-3.74,2.99-6.06,2.13c-3-1.11-5.94-2.47-8.81-3.95
				c-5.93-3.06-12.74,1.42-12.84,8.81C37.35,891.63,37.55,901.17,37.61,910.71z M315.4,472.96c-0.34,0.41-0.63,1.1-1.02,1.18
				c-2.74,0.55-5.51,1-8.27,1.42c-0.32,0.05-0.68-0.24-1.02-0.37c0.18-0.24,0.31-0.6,0.53-0.69c2.43-1.02,4.86-2,6.24-2.55
				c1.56,0,1.99-0.12,2.3,0.03C314.61,472.2,314.99,472.62,315.4,472.96z M442.49,532c-0.15,0.53-0.67,0.94-1.02,1.4
				c-0.38-0.49-0.76-0.97-0.92-1.17c0.08-1.39,0.01-2.27,0.22-3.05c0.12-0.45,0.71-0.73,1.09-1.09c0.29,0.48,0.75,0.93,0.81,1.44
				C442.78,530.33,442.71,531.22,442.49,532z M448.26,521.6c-0.16,0.23-0.55,0.26-0.83,0.38c-2.52-0.97-3.51-3.52-4.43-5.91
				c-0.33-0.85,0.15-2.74,0.81-3.24c0.71-0.53,2.24-0.36,3.1,0.16C449.3,514.4,449.96,519.2,448.26,521.6z M446.03,524.11
				c0.41,0.73,0.82,1.46,1.23,2.19c-0.53,0.36-1.11,1.08-1.56,0.98c-0.55-0.12-0.98-0.92-1.69-1.66
				C444.87,524.97,445.45,524.54,446.03,524.11z M454.76,510.39c-1.6,0.51-2.16,0.86-2.7,0.83c-0.64-0.04-1.27-0.4-1.91-0.62
				c0.45-0.57,0.87-1.57,1.34-1.6C452.22,508.95,452.98,509.58,454.76,510.39z M450.84,530.27c0.5-1.95,0.95-3.93,1.55-5.85
				c0.15-0.49,0.79-0.8,1.2-1.19c0.22,0.53,0.45,1.05,0.65,1.59c0.29,0.76,0.7,1.52,0.8,2.31
				C455.33,529.49,453.42,530.87,450.84,530.27z M446.3,535.3c0.35-1.32,0.82-2.63,1.01-3.98c0.49-3.54,2.09-1.6,3.44-1.01
				c0.05,1.79,0.27,3.62-2.13,3.87C447.83,534.26,447.08,534.89,446.3,535.3z M440,544.7c2.85-2.46,2.97-7.21,6.24-9.26
				c1.52,6.12,0.57,9.4-3.58,11.98c-0.52,0.32-1.69,0.28-1.98-0.12C440.18,546.62,439.74,544.92,440,544.7z M439.92,517.65
				c0.67,0.81,1.28,1.31,1.54,1.97c0.14,0.34-0.34,0.98-0.54,1.48c-0.48-0.46-1.11-0.84-1.38-1.43
				C439.37,519.29,439.72,518.6,439.92,517.65z M438.89,536.3c-1.36,1.31-2.72,2.63-4.08,3.94c-0.16-0.29-0.51-0.76-0.46-0.83
				c1.14-1.46,2.33-2.88,3.56-4.36C438.5,535.81,438.7,536.06,438.89,536.3z M434.23,556.35c0.91-1.51,1.78-3.13,4.02-3.05
				c0.13,0.27,0.58,0.93,0.49,1.03c-0.97,1.17-2.01,2.29-3.08,3.34c-0.13,0.13-0.68-0.11-0.92-0.34
				C434.49,557.09,434.15,556.49,434.23,556.35z M385.08,683.26c1.36-1.11,2.75-2.18,4.16-3.21c4.24-3.13,4.23-3.11,6.25,2.09
				c4.15,10.71,8.3,21.41,12.46,32.11c1.27,3.27,2.59,6.51,3.81,9.79c0.16,0.44-0.14,1.1-0.27,1.65c-0.02,0.09-0.32,0.1-0.48,0.15
				c-0.3-0.22-0.66-0.38-0.89-0.67c-1.74-2.2-3.41-4.47-5.17-6.64c-1.99-2.46-4.27-4.5-4.57-8.36c-0.14-1.81-1.74-3.7-3.06-5.11
				c-1.88-2.02-4.14-3.58-6.16-5.45c-2.45-2.27-5.04-4.43-7.15-7.06C381.04,688.87,381.5,686.17,385.08,683.26z M375.39,971.21
				c0.37-0.27,0.72-0.68,1.13-0.79c0.53-0.14,1.11-0.03,1.67-0.03v-0.06c0.19,0,0.39-0.05,0.56,0.01c0.75,0.26,1.49,0.54,2.24,0.82
				c-0.75,0.48-1.46,1.13-2.26,1.39c-0.67,0.21-1.49,0.07-2.18-0.16C376.09,972.22,375.77,971.61,375.39,971.21z M347.33,971.73
				c0.62-0.57,0.95-1.11,1.36-1.2c0.49-0.11,1.06,0.15,1.59,0.25c-0.42,0.56-0.75,1.27-1.28,1.61
				C348.73,972.55,348.12,972.06,347.33,971.73z M342.74,959.67c2.35-3.22,4.94-5.97,8.44-4.79c6.29,0.09,11.18,2.83,16.28,4.8
				c2.08,0.81,3.69,1.95,5.07,3.71c1.15,1.47,0.25,2.25-0.85,2.83c-0.49,0.25-1.1,0.27-1.65,0.29c-3.2,0.13-6.39,0.32-9.59,0.3
				c-3.33-0.02-6.68,0.01-9.97-0.46c-2.37-0.34-4.73-1.26-6.97-2.27C341.42,963.17,341.24,961.72,342.74,959.67z M340.93,971.15
				c-0.33,0.48-1.34,0.39-2.25,0.59c-0.68-0.37-1.48-0.75-2.2-1.26c-0.12-0.09-0.03-0.81,0.13-1.12c0.92-1.75,3.61-2.29,4.71-0.78
				C341.66,969.05,341.36,970.51,340.93,971.15z M53.06,920.51c0.2-0.02,0.39-0.05,0.59-0.07c0-2.54-0.59-5.32,0.16-7.54
				c0.8-2.39-0.28-6.69,2.74-6.86c1.81-0.11,3.91,2.8,5.58,4.69c0.8,0.9,1.34,2.63,1.24,3.9c-0.56,7.3-1.46,14.56-1.99,21.86
				c-0.17,2.35-1.02,3.95-2.45,5.44c-1.96,2.05-2.76,1.92-3.18-0.97C54.75,934.16,53.95,927.33,53.06,920.51z M52.12,949.72
				c0.27-0.48,0.6-1.06,0.92-1.63c0.14,0.58,0.44,1.18,0.39,1.73c-0.06,0.65-0.42,1.26-0.65,1.89
				C52.59,951.15,52.4,950.58,52.12,949.72z M50.14,933.54c0.02-0.22,0.37-0.41,0.57-0.62c0.11,0.16,0.28,0.31,0.3,0.49
				c0.07,0.6,0.09,1.2,0.12,1.65c0,0.55,0.09,0.99-0.02,1.35c-0.14,0.44-0.45,0.82-0.68,1.22c-0.13-0.36-0.34-0.72-0.36-1.09
				C50.05,935.55,50.06,934.54,50.14,933.54z M47.86,916.97c0.02-0.22,0.4-0.4,0.62-0.59c0.11,0.16,0.31,0.31,0.33,0.48
				c0.07,0.61,0.09,1.22,0.09,1.2c0,1.05,0.09,1.49-0.02,1.86c-0.14,0.45-0.46,0.82-0.7,1.23c-0.13-0.37-0.35-0.73-0.36-1.11
				C47.77,919.02,47.78,917.99,47.86,916.97z M46.74,903.85c0.08-0.39,0.12-1.26,0.44-1.98c0.21-0.46,1.18-1.01,1.21-0.98
				c0.88,1.22,2.25,2.46,2.34,3.8c0.09,1.35-1.1,2.81-1.73,4.22c-0.7-1.12-1.44-2.22-2.09-3.38
				C46.73,905.22,46.81,904.72,46.74,903.85z"/>
			<polygon class="st3" points="454.86,514.56 454.82,514.24 454.56,514.44 			"/>
			<polygon class="st3" points="438.77,540.95 438.81,541.3 439.1,541.08 			"/>
		</g>
	</g>
</g>
</svg>
