  0
SECTION
  2
HEADER
  9
$ACADVER
  1
AC1024
  9
$ACADMAINTVER
 70
     6
  9
$DWGCODEPAGE
  3
ANSI_1252
  9
$INSBASE
 10
0.0
 20
0.0
 30
0.0
  9
$EXTMIN
 10
1.000000000000000E+20
 20
1.000000000000000E+20
 30
1.000000000000000E+20
  9
$EXTMAX
 10
-1.000000000000000E+20
 20
-1.000000000000000E+20
 30
-1.000000000000000E+20
  9
$LIMMIN
 10
0.0
 20
0.0
  9
$LIMMAX
 10
12.0
 20
9.0
  9
$ORTHOMODE
 70
     0
  9
$REGENMODE
 70
     1
  9
$FILLMODE
 70
     1
  9
$QTEXTMODE
 70
     0
  9
$MIRRTEXT
 70
     1
  9
$LTSCALE
 40
1.0
  9
$ATTMODE
 70
     1
  9
$TEXTSIZE
 40
0.2
  9
$TRACEWID
 40
0.05
  9
$TEXTSTYLE
  7
Standard
  9
$CLAYER
  8
0
  9
$CELTYPE
  6
ByLayer
  9
$CECOLOR
 62
   256
  9
$CELTSCALE
 40
1.0
  9
$DISPSILH
 70
     0
  9
$DIMSCALE
 40
1.0
  9
$DIMASZ
 40
0.18
  9
$DIMEXO
 40
0.0625
  9
$DIMDLI
 40
0.38
  9
$DIMRND
 40
0.0
  9
$DIMDLE
 40
0.0
  9
$DIMEXE
 40
0.18
  9
$DIMTP
 40
0.0
  9
$DIMTM
 40
0.0
  9
$DIMTXT
 40
0.18
  9
$DIMCEN
 40
0.09
  9
$DIMTSZ
 40
0.0
  9
$DIMTOL
 70
     0
  9
$DIMLIM
 70
     0
  9
$DIMTIH
 70
     1
  9
$DIMTOH
 70
     1
  9
$DIMSE1
 70
     0
  9
$DIMSE2
 70
     0
  9
$DIMTAD
 70
     0
  9
$DIMZIN
 70
     0
  9
$DIMBLK
  1

  9
$DIMASO
 70
     1
  9
$DIMSHO
 70
     1
  9
$DIMPOST
  1

  9
$DIMAPOST
  1

  9
$DIMALT
 70
     0
  9
$DIMALTD
 70
     2
  9
$DIMALTF
 40
25.4
  9
$DIMLFAC
 40
1.0
  9
$DIMTOFL
 70
     0
  9
$DIMTVP
 40
0.0
  9
$DIMTIX
 70
     0
  9
$DIMSOXD
 70
     0
  9
$DIMSAH
 70
     0
  9
$DIMBLK1
  1

  9
$DIMBLK2
  1

  9
$DIMSTYLE
  2
Standard
  9
$DIMCLRD
 70
     0
  9
$DIMCLRE
 70
     0
  9
$DIMCLRT
 70
     0
  9
$DIMTFAC
 40
1.0
  9
$DIMGAP
 40
0.09
  9
$DIMJUST
 70
     0
  9
$DIMSD1
 70
     0
  9
$DIMSD2
 70
     0
  9
$DIMTOLJ
 70
     1
  9
$DIMTZIN
 70
     0
  9
$DIMALTZ
 70
     0
  9
$DIMALTTZ
 70
     0
  9
$DIMUPT
 70
     0
  9
$DIMDEC
 70
     4
  9
$DIMTDEC
 70
     4
  9
$DIMALTU
 70
     2
  9
$DIMALTTD
 70
     2
  9
$DIMTXSTY
  7
Standard
  9
$DIMAUNIT
 70
     0
  9
$DIMADEC
 70
     0
  9
$DIMALTRND
 40
0.0
  9
$DIMAZIN
 70
     0
  9
$DIMDSEP
 70
    46
  9
$DIMATFIT
 70
     3
  9
$DIMFRAC
 70
     0
  9
$DIMLDRBLK
  1

  9
$DIMLUNIT
 70
     2
  9
$DIMLWD
 70
    -2
  9
$DIMLWE
 70
    -2
  9
$DIMTMOVE
 70
     0
  9
$DIMFXL
 40
1.0
  9
$DIMFXLON
 70
     0
  9
$DIMJOGANG
 40
0.7853981633974483
  9
$DIMTFILL
 70
     0
  9
$DIMTFILLCLR
 70
     0
  9
$DIMARCSYM
 70
     0
  9
$DIMLTYPE
  6

  9
$DIMLTEX1
  6

  9
$DIMLTEX2
  6

  9
$DIMTXTDIRECTION
 70
     0
  9
$LUNITS
 70
     2
  9
$LUPREC
 70
     4
  9
$SKETCHINC
 40
0.1
  9
$FILLETRAD
 40
0.5
  9
$AUNITS
 70
     0
  9
$AUPREC
 70
     0
  9
$MENU
  1
.
  9
$ELEVATION
 40
0.0
  9
$PELEVATION
 40
0.0
  9
$THICKNESS
 40
0.0
  9
$LIMCHECK
 70
     0
  9
$CHAMFERA
 40
0.5
  9
$CHAMFERB
 40
0.5
  9
$CHAMFERC
 40
1.0
  9
$CHAMFERD
 40
0.0
  9
$SKPOLY
 70
     0
  9
$TDCREATE
 40
2459136.322820868
  9
$TDUCREATE
 40
2459136.072820868
  9
$TDUPDATE
 40
2459136.322821053
  9
$TDUUPDATE
 40
2459136.072821053
  9
$TDINDWG
 40
0.0000000116
  9
$TDUSRTIMER
 40
0.0000000116
  9
$USRTIMER
 70
     1
  9
$ANGBASE
 50
0.0
  9
$ANGDIR
 70
     0
  9
$PDMODE
 70
     0
  9
$PDSIZE
 40
0.0
  9
$PLINEWID
 40
0.0
  9
$SPLFRAME
 70
     0
  9
$SPLINETYPE
 70
     6
  9
$SPLINESEGS
 70
     8
  9
$HANDSEED
  5
13C
  9
$SURFTAB1
 70
     6
  9
$SURFTAB2
 70
     6
  9
$SURFTYPE
 70
     6
  9
$SURFU
 70
     6
  9
$SURFV
 70
     6
  9
$UCSBASE
  2

  9
$UCSNAME
  2

  9
$UCSORG
 10
0.0
 20
0.0
 30
0.0
  9
$UCSXDIR
 10
1.0
 20
0.0
 30
0.0
  9
$UCSYDIR
 10
0.0
 20
1.0
 30
0.0
  9
$UCSORTHOREF
  2

  9
$UCSORTHOVIEW
 70
     0
  9
$UCSORGTOP
 10
0.0
 20
0.0
 30
0.0
  9
$UCSORGBOTTOM
 10
0.0
 20
0.0
 30
0.0
  9
$UCSORGLEFT
 10
0.0
 20
0.0
 30
0.0
  9
$UCSORGRIGHT
 10
0.0
 20
0.0
 30
0.0
  9
$UCSORGFRONT
 10
0.0
 20
0.0
 30
0.0
  9
$UCSORGBACK
 10
0.0
 20
0.0
 30
0.0
  9
$PUCSBASE
  2

  9
$PUCSNAME
  2

  9
$PUCSORG
 10
0.0
 20
0.0
 30
0.0
  9
$PUCSXDIR
 10
1.0
 20
0.0
 30
0.0
  9
$PUCSYDIR
 10
0.0
 20
1.0
 30
0.0
  9
$PUCSORTHOREF
  2

  9
$PUCSORTHOVIEW
 70
     0
  9
$PUCSORGTOP
 10
0.0
 20
0.0
 30
0.0
  9
$PUCSORGBOTTOM
 10
0.0
 20
0.0
 30
0.0
  9
$PUCSORGLEFT
 10
0.0
 20
0.0
 30
0.0
  9
$PUCSORGRIGHT
 10
0.0
 20
0.0
 30
0.0
  9
$PUCSORGFRONT
 10
0.0
 20
0.0
 30
0.0
  9
$PUCSORGBACK
 10
0.0
 20
0.0
 30
0.0
  9
$USERI1
 70
     0
  9
$USERI2
 70
     0
  9
$USERI3
 70
     0
  9
$USERI4
 70
     0
  9
$USERI5
 70
     0
  9
$USERR1
 40
0.0
  9
$USERR2
 40
0.0
  9
$USERR3
 40
0.0
  9
$USERR4
 40
0.0
  9
$USERR5
 40
0.0
  9
$WORLDVIEW
 70
     1
  9
$SHADEDGE
 70
     3
  9
$SHADEDIF
 70
    70
  9
$TILEMODE
 70
     1
  9
$MAXACTVP
 70
    64
  9
$PINSBASE
 10
0.0
 20
0.0
 30
0.0
  9
$PLIMCHECK
 70
     0
  9
$PEXTMIN
 10
1.000000000000000E+20
 20
1.000000000000000E+20
 30
1.000000000000000E+20
  9
$PEXTMAX
 10
-1.000000000000000E+20
 20
-1.000000000000000E+20
 30
-1.000000000000000E+20
  9
$PLIMMIN
 10
0.0
 20
0.0
  9
$PLIMMAX
 10
12.0
 20
9.0
  9
$UNITMODE
 70
     0
  9
$VISRETAIN
 70
     1
  9
$PLINEGEN
 70
     0
  9
$PSLTSCALE
 70
     1
  9
$TREEDEPTH
 70
  3020
  9
$CMLSTYLE
  2
Standard
  9
$CMLJUST
 70
     0
  9
$CMLSCALE
 40
1.0
  9
$PROXYGRAPHICS
 70
     1
  9
$MEASUREMENT
 70
     0
  9
$CELWEIGHT
370
    -1
  9
$ENDCAPS
280
     0
  9
$JOINSTYLE
280
     0
  9
$LWDISPLAY
290
     1
  9
$INSUNITS
 70
     1
  9
$HYPERLINKBASE
  1

  9
$STYLESHEET
  1

  9
$XEDIT
290
     1
  9
$CEPSNTYPE
380
     0
  9
$PSTYLEMODE
290
     1
  9
$FINGERPRINTGUID
  2
{A14CC48F-06CB-4EE3-8C8E-3635C9369899}
  9
$VERSIONGUID
  2
{FAEB1C32-E019-11D5-929B-00C0DF256EC4}
  9
$EXTNAMES
290
     1
  9
$PSVPSCALE
 40
0.0
  9
$OLESTARTUP
290
     0
  9
$SORTENTS
280
   127
  9
$INDEXCTL
280
     0
  9
$HIDETEXT
280
     1
  9
$XCLIPFRAME
280
     2
  9
$HALOGAP
280
     0
  9
$OBSCOLOR
 70
   257
  9
$OBSLTYPE
280
     0
  9
$INTERSECTIONDISPLAY
280
     0
  9
$INTERSECTIONCOLOR
 70
   257
  9
$DIMASSOC
280
     2
  9
$PROJECTNAME
  1

  9
$CAMERADISPLAY
290
     0
  9
$LENSLENGTH
 40
50.0
  9
$CAMERAHEIGHT
 40
0.0
  9
$STEPSPERSEC
 40
2.0
  9
$STEPSIZE
 40
6.0
  9
$3DDWFPREC
 40
2.0
  9
$PSOLWIDTH
 40
0.25
  9
$PSOLHEIGHT
 40
4.0
  9
$LOFTANG1
 40
1.570796326794897
  9
$LOFTANG2
 40
1.570796326794897
  9
$LOFTMAG1
 40
0.0
  9
$LOFTMAG2
 40
0.0
  9
$LOFTPARAM
 70
     7
  9
$LOFTNORMALS
280
     1
  9
$LATITUDE
 40
37.795
  9
$LONGITUDE
 40
-122.394
  9
$NORTHDIRECTION
 40
0.0
  9
$TIMEZONE
 70
 -8000
  9
$LIGHTGLYPHDISPLAY
280
     1
  9
$TILEMODELIGHTSYNCH
280
     1
  9
$CMATERIAL
347
3C
  9
$SOLIDHIST
280
     1
  9
$SHOWHIST
280
     1
  9
$DWFFRAME
280
     2
  9
$DGNFRAME
280
     2
  9
$REALWORLDSCALE
290
     1
  9
$INTERFERECOLOR
 62
   256
  9
$CSHADOW
280
     0
  9
$SHADOWPLANELOCATION
 40
0.0
  0
ENDSEC
  0
SECTION
  2
CLASSES
  0
CLASS
  1
ACDBDICTIONARYWDFLT
  2
AcDbDictionaryWithDefault
  3
ObjectDBX Classes
 90
        0
 91
        4
280
     0
281
     0
  0
CLASS
  1
VISUALSTYLE
  2
AcDbVisualStyle
  3
ObjectDBX Classes
 90
     4095
 91
        4
280
     0
281
     0
  0
CLASS
  1
MATERIAL
  2
AcDbMaterial
  3
ObjectDBX Classes
 90
     1153
 91
        4
280
     0
281
     0
  0
CLASS
  1
SUN
  2
AcDbSun
  3
SCENEOE
 90
     1024
 91
        4
280
     0
281
     0
  0
ENDSEC
  0
SECTION
  2
TABLES
  0
TABLE
  2
VPORT
  5
8
330
0
100
AcDbSymbolTable
 70
     1
  0
VPORT
  5
29
330
8
100
AcDbSymbolTableRecord
100
AcDbViewportTableRecord
  2
*Active
 70
     0
 10
0.0
 20
0.0
 11
1.0
 21
1.0
 12
0.0
 22
0.0
 13
0.0
 23
0.0
 14
0.5
 24
0.5
 15
0.5
 25
0.5
 16
0.0
 26
0.0
 36
1.0
 17
3.332499999999994
 27
-5.0
 37
0.0
 40
10.0
 41
0.6664999999999989
 42
50.0
 43
0.0
 44
0.0
 50
0.0
 51
0.0
 71
     0
 72
   100
 73
     1
 74
     3
 75
     0
 76
     0
 77
     0
 78
     0
281
     0
 65
     1
110
0.0
120
0.0
130
0.0
111
1.0
121
0.0
131
0.0
112
0.0
122
1.0
132
0.0
 79
     0
146
0.0
 60
     3
 61
     5
292
     1
282
     1
141
0.0
142
0.0
 63
   250
361
3F
  0
ENDTAB
  0
TABLE
  2
LTYPE
  5
5
330
0
100
AcDbSymbolTable
 70
     1
  0
LTYPE
  5
14
330
5
100
AcDbSymbolTableRecord
100
AcDbLinetypeTableRecord
  2
ByBlock
 70
     0
  3

 72
    65
 73
     0
 40
0.0
  0
LTYPE
  5
15
330
5
100
AcDbSymbolTableRecord
100
AcDbLinetypeTableRecord
  2
ByLayer
 70
     0
  3

 72
    65
 73
     0
 40
0.0
  0
LTYPE
  5
16
330
5
100
AcDbSymbolTableRecord
100
AcDbLinetypeTableRecord
  2
Continuous
 70
     0
  3
Solid line
 72
    65
 73
     0
 40
0.0
  0
ENDTAB
  0
TABLE
  2
LAYER
  5
2
330
0
100
AcDbSymbolTable
 70
     2
  0
LAYER
  5
10
330
2
100
AcDbSymbolTableRecord
100
AcDbLayerTableRecord
  2
0
 70
     0
 62
     7
  6
Continuous
370
    -3
390
F
347
3E
  0
LAYER
  5
40
330
2
100
AcDbSymbolTableRecord
100
AcDbLayerTableRecord
  2
Layer 1
 70
     0
 62
     7
  6
Continuous
370
    -3
390
F
347
3E
  0
ENDTAB
  0
TABLE
  2
STYLE
  5
3
330
0
100
AcDbSymbolTable
 70
     1
  0
STYLE
  5
11
330
3
100
AcDbSymbolTableRecord
100
AcDbTextStyleTableRecord
  2
Standard
 70
     0
 40
0.0
 41
1.0
 50
0.0
 71
     0
 42
0.2
  3
txt
  4

  0
ENDTAB
  0
TABLE
  2
VIEW
  5
6
330
0
100
AcDbSymbolTable
 70
     0
  0
ENDTAB
  0
TABLE
  2
UCS
  5
7
330
0
100
AcDbSymbolTable
 70
     0
  0
ENDTAB
  0
TABLE
  2
APPID
  5
9
330
0
100
AcDbSymbolTable
 70
     1
  0
APPID
  5
12
330
9
100
AcDbSymbolTableRecord
100
AcDbRegAppTableRecord
  2
ACAD
 70
     0
  0
ENDTAB
  0
TABLE
  2
DIMSTYLE
  5
A
330
0
100
AcDbSymbolTable
 70
     1
100
AcDbDimStyleTable
  0
DIMSTYLE
105
27
330
A
100
AcDbSymbolTableRecord
100
AcDbDimStyleTableRecord
  2
Standard
 70
     0
178
     0
340
11
  0
ENDTAB
  0
TABLE
  2
BLOCK_RECORD
  5
1
330
0
100
AcDbSymbolTable
 70
    13
  0
BLOCK_RECORD
  5
1F
330
1
100
AcDbSymbolTableRecord
100
AcDbBlockTableRecord
  2
*Model_Space
340
22
 70
     0
280
     1
281
     0
  0
BLOCK_RECORD
  5
1B
330
1
100
AcDbSymbolTableRecord
100
AcDbBlockTableRecord
  2
*Paper_Space
340
1E
 70
     0
280
     1
281
     0
  0
BLOCK_RECORD
  5
23
330
1
100
AcDbSymbolTableRecord
100
AcDbBlockTableRecord
  2
*Paper_Space0
340
26
 70
     0
280
     1
281
     0
  0
BLOCK_RECORD
  5
41
330
1
100
AcDbSymbolTableRecord
100
AcDbBlockTableRecord
  2
block 2
340
0
102
{BLKREFS
331
42
102
}
 70
     0
280
     1
281
     0
  0
BLOCK_RECORD
  5
45
330
1
100
AcDbSymbolTableRecord
100
AcDbBlockTableRecord
  2
block 3
340
0
102
{BLKREFS
331
46
102
}
 70
     0
280
     1
281
     0
  0
BLOCK_RECORD
  5
7D
330
1
100
AcDbSymbolTableRecord
100
AcDbBlockTableRecord
  2
block 4
340
0
102
{BLKREFS
331
7E
102
}
 70
     0
280
     1
281
     0
  0
BLOCK_RECORD
  5
B9
330
1
100
AcDbSymbolTableRecord
100
AcDbBlockTableRecord
  2
block 5
340
0
102
{BLKREFS
331
BA
102
}
 70
     0
280
     1
281
     0
  0
BLOCK_RECORD
  5
107
330
1
100
AcDbSymbolTableRecord
100
AcDbBlockTableRecord
  2
block 6
340
0
102
{BLKREFS
331
108
102
}
 70
     0
280
     1
281
     0
  0
BLOCK_RECORD
  5
10B
330
1
100
AcDbSymbolTableRecord
100
AcDbBlockTableRecord
  2
block 7
340
0
102
{BLKREFS
331
10C
102
}
 70
     0
280
     1
281
     0
  0
BLOCK_RECORD
  5
111
330
1
100
AcDbSymbolTableRecord
100
AcDbBlockTableRecord
  2
block 8
340
0
102
{BLKREFS
331
112
102
}
 70
     0
280
     1
281
     0
  0
BLOCK_RECORD
  5
118
330
1
100
AcDbSymbolTableRecord
100
AcDbBlockTableRecord
  2
block 9
340
0
102
{BLKREFS
331
119
102
}
 70
     0
280
     1
281
     0
  0
BLOCK_RECORD
  5
11C
330
1
100
AcDbSymbolTableRecord
100
AcDbBlockTableRecord
  2
block 10
340
0
102
{BLKREFS
331
11D
102
}
 70
     0
280
     1
281
     0
  0
BLOCK_RECORD
  5
122
330
1
100
AcDbSymbolTableRecord
100
AcDbBlockTableRecord
  2
block 11
340
0
102
{BLKREFS
331
123
102
}
 70
     0
280
     1
281
     0
  0
BLOCK_RECORD
  5
12E
330
1
100
AcDbSymbolTableRecord
100
AcDbBlockTableRecord
  2
block 12
340
0
102
{BLKREFS
331
12F
102
}
 70
     0
280
     1
281
     0
  0
BLOCK_RECORD
  5
134
330
1
100
AcDbSymbolTableRecord
100
AcDbBlockTableRecord
  2
block 13
340
0
102
{BLKREFS
331
135
102
}
 70
     0
280
     1
281
     0
  0
ENDTAB
  0
ENDSEC
  0
SECTION
  2
BLOCKS
  0
BLOCK
  5
20
330
1F
100
AcDbEntity
  8
0
100
AcDbBlockBegin
  2
*Model_Space
 70
     0
 10
0.0
 20
0.0
 30
0.0
  3
*Model_Space
  1

  0
ENDBLK
  5
21
330
1F
100
AcDbEntity
  8
0
100
AcDbBlockEnd
  0
BLOCK
  5
1C
330
1B
100
AcDbEntity
 67
     1
  8
0
100
AcDbBlockBegin
  2
*Paper_Space
 70
     0
 10
0.0
 20
0.0
 30
0.0
  3
*Paper_Space
  1

  0
ENDBLK
  5
1D
330
1B
100
AcDbEntity
 67
     1
  8
0
100
AcDbBlockEnd
  0
BLOCK
  5
24
330
23
100
AcDbEntity
  8
0
100
AcDbBlockBegin
  2
*Paper_Space0
 70
     0
 10
0.0
 20
0.0
 30
0.0
  3
*Paper_Space0
  1

  0
ENDBLK
  5
25
330
23
100
AcDbEntity
  8
0
100
AcDbBlockEnd
  0
BLOCK
  5
43
330
41
100
AcDbEntity
  8
0
100
AcDbBlockBegin
  2
block 2
 70
     0
 10
0.0
 20
0.0
 30
0.0
  3
block 2
  1

  0
INSERT
  5
46
330
41
100
AcDbEntity
  8
Layer 1
100
AcDbBlockReference
  2
block 3
 10
0.0
 20
0.0
 30
0.0
  0
INSERT
  5
7E
330
41
100
AcDbEntity
  8
Layer 1
100
AcDbBlockReference
  2
block 4
 10
0.0
 20
0.0
 30
0.0
  0
INSERT
  5
BA
330
41
100
AcDbEntity
  8
Layer 1
100
AcDbBlockReference
  2
block 5
 10
0.0
 20
0.0
 30
0.0
  0
INSERT
  5
108
330
41
100
AcDbEntity
  8
Layer 1
100
AcDbBlockReference
  2
block 6
 10
0.0
 20
0.0
 30
0.0
  0
INSERT
  5
119
330
41
100
AcDbEntity
  8
Layer 1
100
AcDbBlockReference
  2
block 9
 10
0.0
 20
0.0
 30
0.0
  0
ENDBLK
  5
44
330
41
100
AcDbEntity
  8
0
100
AcDbBlockEnd
  0
BLOCK
  5
47
330
45
100
AcDbEntity
  8
0
100
AcDbBlockBegin
  2
block 3
 70
     0
 10
0.0
 20
0.0
 30
0.0
  3
block 3
  1

  0
POLYLINE
  5
49
330
45
100
AcDbEntity
  8
Layer 1
370
     0
100
AcDb2dPolyline
 66
     1
 10
0.0
 20
0.0
 30
0.0
  0
VERTEX
  5
4A
330
49
100
AcDbEntity
  8
Layer 1
370
     0
100
AcDbVertex
100
AcDb2dVertex
 10
1.661701813935401
 20
-1.779511506073605
 30
0.0
  0
VERTEX
  5
4B
330
49
100
AcDbEntity
  8
Layer 1
370
     0
100
AcDbVertex
100
AcDb2dVertex
 10
2.373834334602571
 20
-1.779511506073605
 30
0.0
  0
VERTEX
  5
4C
330
49
100
AcDbEntity
  8
Layer 1
370
     0
100
AcDbVertex
100
AcDb2dVertex
 10
2.373834334602571
 20
-1.973535141653833
 30
0.0
  0
VERTEX
  5
4D
330
49
100
AcDbEntity
  8
Layer 1
370
     0
100
AcDbVertex
100
AcDb2dVertex
 10
1.855725449515628
 20
-1.973535141653833
 30
0.0
  0
VERTEX
  5
4E
330
49
100
AcDbEntity
  8
Layer 1
370
     0
100
AcDbVertex
100
AcDb2dVertex
 10
1.857854330823216
 20
-1.977792904269007
 30
0.0
  0
VERTEX
  5
4F
330
49
100
AcDbEntity
  8
Layer 1
370
     0
100
AcDbVertex
100
AcDb2dVertex
 10
1.857854330823216
 20
-2.365848864740908
 30
0.0
  0
VERTEX
  5
50
330
49
100
AcDbEntity
  8
Layer 1
370
     0
100
AcDbVertex
100
AcDb2dVertex
 10
1.855725449515628
 20
-2.370106627356083
 30
0.0
  0
VERTEX
  5
51
330
49
100
AcDbEntity
  8
Layer 1
370
     0
100
AcDbVertex
100
AcDb2dVertex
 10
2.307734742329798
 20
-2.370106627356083
 30
0.0
  0
VERTEX
  5
52
330
49
100
AcDbEntity
  8
Layer 1
370
     0
100
AcDbVertex
100
AcDb2dVertex
 10
2.307734742329798
 20
-2.562001381628723
 30
0.0
  0
VERTEX
  5
53
330
49
100
AcDbEntity
  8
Layer 1
370
     0
100
AcDbVertex
100
AcDb2dVertex
 10
1.855725449515628
 20
-2.562001381628723
 30
0.0
  0
VERTEX
  5
54
330
49
100
AcDbEntity
  8
Layer 1
370
     0
100
AcDbVertex
100
AcDb2dVertex
 10
1.857854330823216
 20
-2.566267833555356
 30
0.0
  0
VERTEX
  5
55
330
49
100
AcDbEntity
  8
Layer 1
370
     0
100
AcDbVertex
100
AcDb2dVertex
 10
1.857854330823216
 20
-3.073714933481432
 30
0.0
  0
VERTEX
  5
56
330
49
100
AcDbEntity
  8
Layer 1
370
     0
100
AcDbVertex
100
AcDb2dVertex
 10
1.855725449515628
 20
-3.077981385408066
 30
0.0
  0
VERTEX
  5
57
330
49
100
AcDbEntity
  8
Layer 1
370
     0
100
AcDbVertex
100
AcDb2dVertex
 10
2.448458141417152
 20
-3.077981385408066
 30
0.0
  0
VERTEX
  5
58
330
49
100
AcDbEntity
  8
Layer 1
370
     0
100
AcDbVertex
100
AcDb2dVertex
 10
2.448458141417152
 20
-3.272005020988293
 30
0.0
  0
VERTEX
  5
59
330
49
100
AcDbEntity
  8
Layer 1
370
     0
100
AcDbVertex
100
AcDb2dVertex
 10
1.661701813935401
 20
-3.272005020988293
 30
0.0
  0
VERTEX
  5
5A
330
49
100
AcDbEntity
  8
Layer 1
370
     0
100
AcDbVertex
100
AcDb2dVertex
 10
1.661701813935401
 20
-1.779511506073605
 30
0.0
  0
SEQEND
  5
5B
330
49
100
AcDbEntity
  8
Layer 1
370
     0
  0
HATCH
  5
5C
330
45
100
AcDbEntity
  8
Layer 1
 62
     7
420
 15921906
100
AcDbHatch
 10
0.0
 20
0.0
 30
0.0
210
0.0
220
0.0
230
1.0
  2
SOLID
 70
     1
 71
     0
 91
        1
 92
        1
 93
       16
 72
     1
 10
1.661701813935401
 20
-1.779511506073605
 11
2.373834334602571
 21
-1.779511506073605
 72
     1
 10
2.373834334602571
 20
-1.779511506073605
 11
2.373834334602571
 21
-1.973535141653833
 72
     1
 10
2.373834334602571
 20
-1.973535141653833
 11
1.855725449515628
 21
-1.973535141653833
 72
     1
 10
1.855725449515628
 20
-1.973535141653833
 11
1.857854330823216
 21
-1.977792904269007
 72
     1
 10
1.857854330823216
 20
-1.977792904269007
 11
1.857854330823216
 21
-2.365848864740908
 72
     1
 10
1.857854330823216
 20
-2.365848864740908
 11
1.855725449515628
 21
-2.370106627356083
 72
     1
 10
1.855725449515628
 20
-2.370106627356083
 11
2.307734742329798
 21
-2.370106627356083
 72
     1
 10
2.307734742329798
 20
-2.370106627356083
 11
2.307734742329798
 21
-2.562001381628723
 72
     1
 10
2.307734742329798
 20
-2.562001381628723
 11
1.855725449515628
 21
-2.562001381628723
 72
     1
 10
1.855725449515628
 20
-2.562001381628723
 11
1.857854330823216
 21
-2.566267833555356
 72
     1
 10
1.857854330823216
 20
-2.566267833555356
 11
1.857854330823216
 21
-3.073714933481432
 72
     1
 10
1.857854330823216
 20
-3.073714933481432
 11
1.855725449515628
 21
-3.077981385408066
 72
     1
 10
1.855725449515628
 20
-3.077981385408066
 11
2.448458141417152
 21
-3.077981385408066
 72
     1
 10
2.448458141417152
 20
-3.077981385408066
 11
2.448458141417152
 21
-3.272005020988293
 72
     1
 10
2.448458141417152
 20
-3.272005020988293
 11
1.661701813935401
 21
-3.272005020988293
 72
     1
 10
1.661701813935401
 20
-3.272005020988293
 11
1.661701813935401
 21
-1.779511506073605
 97
        0
 75
     2
 76
     1
 98
        0
  0
POLYLINE
  5
5D
330
45
100
AcDbEntity
  8
Layer 1
370
     0
100
AcDb2dPolyline
 66
     1
 10
0.0
 20
0.0
 30
0.0
  0
VERTEX
  5
5E
330
5D
100
AcDbEntity
  8
Layer 1
370
     0
100
AcDbVertex
100
AcDb2dVertex
 10
4.058239982412791
 20
-3.272005020988293
 30
0.0
  0
VERTEX
  5
5F
330
5D
100
AcDbEntity
  8
Layer 1
370
     0
100
AcDbVertex
100
AcDb2dVertex
 10
3.845021657818456
 20
-3.272005020988293
 30
0.0
  0
VERTEX
  5
60
330
5D
100
AcDbEntity
  8
Layer 1
370
     0
100
AcDbVertex
100
AcDb2dVertex
 10
3.646731570311608
 20
-2.830648824023531
 30
0.0
  0
VERTEX
  5
61
330
5D
100
AcDbEntity
  8
Layer 1
370
     0
100
AcDbVertex
100
AcDb2dVertex
 10
2.977254879599336
 20
-2.830648824023531
 30
0.0
  0
VERTEX
  5
62
330
5D
100
AcDbEntity
  8
Layer 1
370
     0
100
AcDbVertex
100
AcDb2dVertex
 10
2.778964792092476
 20
-3.272005020988293
 30
0.0
  0
VERTEX
  5
63
330
5D
100
AcDbEntity
  8
Layer 1
370
     0
100
AcDbVertex
100
AcDb2dVertex
 10
2.565755156809574
 20
-3.272005020988293
 30
0.0
  0
VERTEX
  5
64
330
5D
100
AcDbEntity
  8
Layer 1
370
     0
100
AcDbVertex
100
AcDb2dVertex
 10
3.256564107155011
 20
-1.779511506073605
 30
0.0
  0
VERTEX
  5
65
330
5D
100
AcDbEntity
  8
Layer 1
370
     0
100
AcDbVertex
100
AcDb2dVertex
 10
3.375955246609212
 20
-1.779511506073605
 30
0.0
  0
VERTEX
  5
66
330
5D
100
AcDbEntity
  8
Layer 1
370
     0
100
AcDbVertex
100
AcDb2dVertex
 10
4.058239982412791
 20
-3.272005020988293
 30
0.0
  0
SEQEND
  5
67
330
5D
100
AcDbEntity
  8
Layer 1
370
     0
  0
POLYLINE
  5
68
330
45
100
AcDbEntity
  8
Layer 1
370
     0
100
AcDb2dPolyline
 66
     1
 10
0.0
 20
0.0
 30
0.0
  0
VERTEX
  5
69
330
68
100
AcDbEntity
  8
Layer 1
370
     0
100
AcDbVertex
100
AcDb2dVertex
 10
3.068935804809017
 20
-2.638762759062363
 30
0.0
  0
VERTEX
  5
6A
330
68
100
AcDbEntity
  8
Layer 1
370
     0
100
AcDbVertex
100
AcDb2dVertex
 10
3.555059334413373
 20
-2.638762759062363
 30
0.0
  0
VERTEX
  5
6B
330
68
100
AcDbEntity
  8
Layer 1
370
     0
100
AcDbVertex
100
AcDb2dVertex
 10
3.312001914266918
 20
-2.099330303653687
 30
0.0
  0
VERTEX
  5
6C
330
68
100
AcDbEntity
  8
Layer 1
370
     0
100
AcDbVertex
100
AcDb2dVertex
 10
3.068935804809017
 20
-2.638762759062363
 30
0.0
  0
SEQEND
  5
6D
330
68
100
AcDbEntity
  8
Layer 1
370
     0
  0
HATCH
  5
6E
330
45
100
AcDbEntity
  8
Layer 1
 62
     7
420
 15921906
100
AcDbHatch
 10
0.0
 20
0.0
 30
0.0
210
0.0
220
0.0
230
1.0
  2
SOLID
 70
     1
 71
     0
 91
        2
 92
        1
 93
        8
 72
     1
 10
4.058239982412791
 20
-3.272005020988293
 11
3.845021657818456
 21
-3.272005020988293
 72
     1
 10
3.845021657818456
 20
-3.272005020988293
 11
3.646731570311608
 21
-2.830648824023531
 72
     1
 10
3.646731570311608
 20
-2.830648824023531
 11
2.977254879599336
 21
-2.830648824023531
 72
     1
 10
2.977254879599336
 20
-2.830648824023531
 11
2.778964792092476
 21
-3.272005020988293
 72
     1
 10
2.778964792092476
 20
-3.272005020988293
 11
2.565755156809574
 21
-3.272005020988293
 72
     1
 10
2.565755156809574
 20
-3.272005020988293
 11
3.256564107155011
 21
-1.779511506073605
 72
     1
 10
3.256564107155011
 20
-1.779511506073605
 11
3.375955246609212
 21
-1.779511506073605
 72
     1
 10
3.375955246609212
 20
-1.779511506073605
 11
4.058239982412791
 21
-3.272005020988293
 97
        0
 92
        1
 93
        3
 72
     1
 10
3.068935804809017
 20
-2.638762759062363
 11
3.555059334413373
 21
-2.638762759062363
 72
     1
 10
3.555059334413373
 20
-2.638762759062363
 11
3.312001914266918
 21
-2.099330303653687
 72
     1
 10
3.312001914266918
 20
-2.099330303653687
 11
3.068935804809017
 21
-2.638762759062363
 97
        0
 75
     2
 76
     1
 98
        0
  0
POLYLINE
  5
6F
330
45
100
AcDbEntity
  8
Layer 1
370
     0
100
AcDb2dPolyline
 66
     1
 10
0.0
 20
0.0
 30
0.0
  0
VERTEX
  5
70
330
6F
100
AcDbEntity
  8
Layer 1
370
     0
100
AcDbVertex
100
AcDb2dVertex
 10
4.122245450623824
 20
-1.779511506073605
 30
0.0
  0
VERTEX
  5
71
330
6F
100
AcDbEntity
  8
Layer 1
370
     0
100
AcDbVertex
100
AcDb2dVertex
 10
4.987892036846814
 20
-1.779511506073605
 30
0.0
  0
VERTEX
  5
72
330
6F
100
AcDbEntity
  8
Layer 1
370
     0
100
AcDbVertex
100
AcDb2dVertex
 10
4.987892036846814
 20
-1.973535141653833
 30
0.0
  0
VERTEX
  5
73
330
6F
100
AcDbEntity
  8
Layer 1
370
     0
100
AcDbVertex
100
AcDb2dVertex
 10
4.64888723956402
 20
-1.973535141653833
 30
0.0
  0
VERTEX
  5
74
330
6F
100
AcDbEntity
  8
Layer 1
370
     0
100
AcDbVertex
100
AcDb2dVertex
 10
4.651024810183117
 20
-1.977792904269007
 30
0.0
  0
VERTEX
  5
75
330
6F
100
AcDbEntity
  8
Layer 1
370
     0
100
AcDbVertex
100
AcDb2dVertex
 10
4.651024810183117
 20
-3.272005020988293
 30
0.0
  0
VERTEX
  5
76
330
6F
100
AcDbEntity
  8
Layer 1
370
     0
100
AcDbVertex
100
AcDb2dVertex
 10
4.452734722676218
 20
-3.272005020988293
 30
0.0
  0
VERTEX
  5
77
330
6F
100
AcDbEntity
  8
Layer 1
370
     0
100
AcDbVertex
100
AcDb2dVertex
 10
4.452734722676218
 20
-1.977792904269007
 30
0.0
  0
VERTEX
  5
78
330
6F
100
AcDbEntity
  8
Layer 1
370
     0
100
AcDbVertex
100
AcDb2dVertex
 10
4.454854914672372
 20
-1.973535141653833
 30
0.0
  0
VERTEX
  5
79
330
6F
100
AcDbEntity
  8
Layer 1
370
     0
100
AcDbVertex
100
AcDb2dVertex
 10
4.122245450623824
 20
-1.973535141653833
 30
0.0
  0
VERTEX
  5
7A
330
6F
100
AcDbEntity
  8
Layer 1
370
     0
100
AcDbVertex
100
AcDb2dVertex
 10
4.122245450623824
 20
-1.779511506073605
 30
0.0
  0
SEQEND
  5
7B
330
6F
100
AcDbEntity
  8
Layer 1
370
     0
  0
HATCH
  5
7C
330
45
100
AcDbEntity
  8
Layer 1
 62
     7
420
 15921906
100
AcDbHatch
 10
0.0
 20
0.0
 30
0.0
210
0.0
220
0.0
230
1.0
  2
SOLID
 70
     1
 71
     0
 91
        1
 92
        1
 93
       10
 72
     1
 10
4.122245450623824
 20
-1.779511506073605
 11
4.987892036846814
 21
-1.779511506073605
 72
     1
 10
4.987892036846814
 20
-1.779511506073605
 11
4.987892036846814
 21
-1.973535141653833
 72
     1
 10
4.987892036846814
 20
-1.973535141653833
 11
4.64888723956402
 21
-1.973535141653833
 72
     1
 10
4.64888723956402
 20
-1.973535141653833
 11
4.651024810183117
 21
-1.977792904269007
 72
     1
 10
4.651024810183117
 20
-1.977792904269007
 11
4.651024810183117
 21
-3.272005020988293
 72
     1
 10
4.651024810183117
 20
-3.272005020988293
 11
4.452734722676218
 21
-3.272005020988293
 72
     1
 10
4.452734722676218
 20
-3.272005020988293
 11
4.452734722676218
 21
-1.977792904269007
 72
     1
 10
4.452734722676218
 20
-1.977792904269007
 11
4.454854914672372
 21
-1.973535141653833
 72
     1
 10
4.454854914672372
 20
-1.973535141653833
 11
4.122245450623824
 21
-1.973535141653833
 72
     1
 10
4.122245450623824
 20
-1.973535141653833
 11
4.122245450623824
 21
-1.779511506073605
 97
        0
 75
     2
 76
     1
 98
        0
  0
ENDBLK
  5
48
330
45
100
AcDbEntity
  8
0
100
AcDbBlockEnd
  0
BLOCK
  5
7F
330
7D
100
AcDbEntity
  8
0
100
AcDbBlockBegin
  2
block 4
 70
     0
 10
0.0
 20
0.0
 30
0.0
  3
block 4
  1

  0
SPLINE
  5
81
330
7D
100
AcDbEntity
  8
Layer 1
370
     0
100
AcDbSpline
210
0.0
220
0.0
230
1.0
 70
    11
 71
     3
 72
    47
 73
    43
 74
     0
 42
0.0000000001
 43
0.0000000001
 12
1.0
 22
0.0
 32
0.0
 13
1.0
 23
0.0
 33
0.0
 40
0.0
 40
0.0
 40
0.0
 40
0.0
 40
1.0
 40
1.0
 40
1.0
 40
2.0
 40
2.0
 40
2.0
 40
3.0
 40
3.0
 40
3.0
 40
4.0
 40
4.0
 40
4.0
 40
5.0
 40
5.0
 40
5.0
 40
6.0
 40
6.0
 40
6.0
 40
7.0
 40
7.0
 40
7.0
 40
8.0
 40
8.0
 40
8.0
 40
9.0
 40
9.0
 40
9.0
 40
10.0
 40
10.0
 40
10.0
 40
11.0
 40
11.0
 40
11.0
 40
12.0
 40
12.0
 40
12.0
 40
13.0
 40
13.0
 40
13.0
 40
14.0
 40
14.0
 40
14.0
 40
14.0
 10
0.9101024406189834
 20
-3.917177707548186
 30
0.0
 10
0.914360203234158
 20
-4.04297286954804
 30
0.0
 10
1.055083602321525
 20
-4.147444461226175
 30
0.0
 10
1.187274097555612
 20
-4.268981860610855
 30
0.0
 10
1.323731044716333
 20
-4.390510570684076
 30
0.0
 10
1.466583325111287
 20
-4.505643947523077
 30
0.0
 10
1.47084977703792
 20
-4.708209176268029
 30
0.0
 10
1.475116228964554
 20
-4.95979950026775
 30
0.0
 10
1.293883259852793
 20
-5.117580017750217
 30
0.0
 10
1.050817150394879
 20
-5.121837780365391
 30
0.0
 10
0.8631888480488845
 20
-5.126095542980566
 30
0.0
 10
0.7203365676539432
 20
-5.053609306785019
 30
0.0
 10
0.6009367388883093
 20
-4.936338359326972
 30
0.0
 10
0.6009367388883093
 20
-4.936338359326972
 30
0.0
 10
0.7203365676539432
 20
-4.774300079229343
 30
0.0
 10
0.7203365676539432
 20
-4.774300079229343
 30
0.0
 10
0.8077597302484365
 20
-4.855319219278158
 30
0.0
 10
0.9250219883950245
 20
-4.923547692858518
 30
0.0
 10
1.050817150394879
 20
-4.919289930243344
 30
0.0
 10
1.170216979160513
 20
-4.917152359624297
 30
0.0
 10
1.257640141755019
 20
-4.831858078337391
 30
0.0
 10
1.255502571135973
 20
-4.720999842736483
 30
0.0
 10
1.253373689828385
 20
-4.627181346907756
 30
0.0
 10
1.161692764618705
 20
-4.541895754932309
 30
0.0
 10
1.059350054248158
 20
-4.450214829722628
 30
0.0
 10
0.8951742035314838
 20
-4.307353860016216
 30
0.0
 10
0.6968841160246231
 20
-4.155977365079454
 30
0.0
 10
0.6904887827903899
 20
-3.934234825943273
 30
0.0
 10
0.6862223308637567
 20
-3.723154071967959
 30
0.0
 10
0.8631888480488845
 20
-3.588826006114825
 30
0.0
 10
1.046559387779704
 20
-3.586697124807238
 30
0.0
 10
1.208597667877332
 20
-3.586697124807238
 30
0.0
 10
1.3173357114821
 20
-3.631473146758291
 30
0.0
 10
1.404758874076606
 20
-3.689039835177785
 30
0.0
 10
1.404758874076606
 20
-3.689039835177785
 30
0.0
 10
1.310940378247879
 20
-3.859611019128693
 30
0.0
 10
1.310940378247879
 20
-3.859611019128693
 30
0.0
 10
1.246978356594152
 20
-3.825496782338506
 30
0.0
 10
1.172354549779571
 20
-3.789244974929273
 30
0.0
 10
1.067874268789978
 20
-3.789244974929273
 30
0.0
 10
0.9911215806677975
 20
-3.791382545548332
 30
0.0
 10
0.9101024406189834
 20
-3.82975454495368
 30
0.0
 10
0.9101024406189834
 20
-3.917177707548186
 30
0.0
  0
HATCH
  5
82
330
7D
100
AcDbEntity
  8
Layer 1
 62
     7
420
 15921906
100
AcDbHatch
 10
0.0
 20
0.0
 30
0.0
210
0.0
220
0.0
230
1.0
  2
SOLID
 70
     1
 71
     0
 91
        1
 92
        1
 93
        1
 72
     4
 94
        3
 73
     0
 74
     1
 95
       47
 96
       43
 40
0.0
 40
0.0
 40
0.0
 40
0.0
 40
1.0
 40
1.0
 40
1.0
 40
2.0
 40
2.0
 40
2.0
 40
3.0
 40
3.0
 40
3.0
 40
4.0
 40
4.0
 40
4.0
 40
5.0
 40
5.0
 40
5.0
 40
6.0
 40
6.0
 40
6.0
 40
7.0
 40
7.0
 40
7.0
 40
8.0
 40
8.0
 40
8.0
 40
9.0
 40
9.0
 40
9.0
 40
10.0
 40
10.0
 40
10.0
 40
11.0
 40
11.0
 40
11.0
 40
12.0
 40
12.0
 40
12.0
 40
13.0
 40
13.0
 40
13.0
 40
14.0
 40
14.0
 40
14.0
 40
14.0
 10
0.9101024406189834
 20
-3.917177707548186
 10
0.914360203234158
 20
-4.04297286954804
 10
1.055083602321525
 20
-4.147444461226175
 10
1.187274097555612
 20
-4.268981860610855
 10
1.323731044716333
 20
-4.390510570684076
 10
1.466583325111287
 20
-4.505643947523077
 10
1.47084977703792
 20
-4.708209176268029
 10
1.475116228964554
 20
-4.95979950026775
 10
1.293883259852793
 20
-5.117580017750217
 10
1.050817150394879
 20
-5.121837780365391
 10
0.8631888480488845
 20
-5.126095542980566
 10
0.7203365676539432
 20
-5.053609306785019
 10
0.6009367388883093
 20
-4.936338359326972
 10
0.6009367388883093
 20
-4.936338359326972
 10
0.7203365676539432
 20
-4.774300079229343
 10
0.7203365676539432
 20
-4.774300079229343
 10
0.8077597302484365
 20
-4.855319219278158
 10
0.9250219883950245
 20
-4.923547692858518
 10
1.050817150394879
 20
-4.919289930243344
 10
1.170216979160513
 20
-4.917152359624297
 10
1.257640141755019
 20
-4.831858078337391
 10
1.255502571135973
 20
-4.720999842736483
 10
1.253373689828385
 20
-4.627181346907756
 10
1.161692764618705
 20
-4.541895754932309
 10
1.059350054248158
 20
-4.450214829722628
 10
0.8951742035314838
 20
-4.307353860016216
 10
0.6968841160246231
 20
-4.155977365079454
 10
0.6904887827903899
 20
-3.934234825943273
 10
0.6862223308637567
 20
-3.723154071967959
 10
0.8631888480488845
 20
-3.588826006114825
 10
1.046559387779704
 20
-3.586697124807238
 10
1.208597667877332
 20
-3.586697124807238
 10
1.3173357114821
 20
-3.631473146758291
 10
1.404758874076606
 20
-3.689039835177785
 10
1.404758874076606
 20
-3.689039835177785
 10
1.310940378247879
 20
-3.859611019128693
 10
1.310940378247879
 20
-3.859611019128693
 10
1.246978356594152
 20
-3.825496782338506
 10
1.172354549779571
 20
-3.789244974929273
 10
1.067874268789978
 20
-3.789244974929273
 10
0.9911215806677975
 20
-3.791382545548332
 10
0.9101024406189834
 20
-3.82975454495368
 10
0.9101024406189834
 20
-3.917177707548186
 97
        0
 97
        0
 75
     2
 76
     1
 98
        0
  0
POLYLINE
  5
83
330
7D
100
AcDbEntity
  8
Layer 1
370
     0
100
AcDb2dPolyline
 66
     1
 10
0.0
 20
0.0
 30
0.0
  0
VERTEX
  5
84
330
83
100
AcDbEntity
  8
Layer 1
370
     0
100
AcDbVertex
100
AcDb2dVertex
 10
1.750185072527971
 20
-3.608020695128971
 30
0.0
  0
VERTEX
  5
85
330
83
100
AcDbEntity
  8
Layer 1
370
     0
100
AcDbVertex
100
AcDb2dVertex
 10
1.950604041342419
 20
-3.608020695128971
 30
0.0
  0
VERTEX
  5
86
330
83
100
AcDbEntity
  8
Layer 1
370
     0
100
AcDbVertex
100
AcDb2dVertex
 10
1.948466470723373
 20
-4.908619455771018
 30
0.0
  0
VERTEX
  5
87
330
83
100
AcDbEntity
  8
Layer 1
370
     0
100
AcDbVertex
100
AcDb2dVertex
 10
1.946337589415786
 20
-4.915014789005252
 30
0.0
  0
VERTEX
  5
88
330
83
100
AcDbEntity
  8
Layer 1
370
     0
100
AcDbVertex
100
AcDb2dVertex
 10
2.566789184873262
 20
-4.915014789005252
 30
0.0
  0
VERTEX
  5
89
330
83
100
AcDbEntity
  8
Layer 1
370
     0
100
AcDbVertex
100
AcDb2dVertex
 10
2.566789184873262
 20
-5.100514210043658
 30
0.0
  0
VERTEX
  5
8A
330
83
100
AcDbEntity
  8
Layer 1
370
     0
100
AcDbVertex
100
AcDb2dVertex
 10
1.750185072527971
 20
-5.100514210043658
 30
0.0
  0
VERTEX
  5
8B
330
83
100
AcDbEntity
  8
Layer 1
370
     0
100
AcDbVertex
100
AcDb2dVertex
 10
1.750185072527971
 20
-3.608020695128971
 30
0.0
  0
SEQEND
  5
8C
330
83
100
AcDbEntity
  8
Layer 1
370
     0
  0
HATCH
  5
8D
330
7D
100
AcDbEntity
  8
Layer 1
 62
     7
420
 15921906
100
AcDbHatch
 10
0.0
 20
0.0
 30
0.0
210
0.0
220
0.0
230
1.0
  2
SOLID
 70
     1
 71
     0
 91
        1
 92
        1
 93
        7
 72
     1
 10
1.750185072527971
 20
-3.608020695128971
 11
1.950604041342419
 21
-3.608020695128971
 72
     1
 10
1.950604041342419
 20
-3.608020695128971
 11
1.948466470723373
 21
-4.908619455771018
 72
     1
 10
1.948466470723373
 20
-4.908619455771018
 11
1.946337589415786
 21
-4.915014789005252
 72
     1
 10
1.946337589415786
 20
-4.915014789005252
 11
2.566789184873262
 21
-4.915014789005252
 72
     1
 10
2.566789184873262
 20
-4.915014789005252
 11
2.566789184873262
 21
-5.100514210043658
 72
     1
 10
2.566789184873262
 20
-5.100514210043658
 11
1.750185072527971
 21
-5.100514210043658
 72
     1
 10
1.750185072527971
 20
-5.100514210043658
 11
1.750185072527971
 21
-3.608020695128971
 97
        0
 75
     2
 76
     1
 98
        0
  0
POLYLINE
  5
8E
330
7D
100
AcDbEntity
  8
Layer 1
370
     0
100
AcDb2dPolyline
 66
     1
 10
0.0
 20
0.0
 30
0.0
  0
VERTEX
  5
8F
330
8E
100
AcDbEntity
  8
Layer 1
370
     0
100
AcDbVertex
100
AcDb2dVertex
 10
2.833342503206331
 20
-3.608020695128971
 30
0.0
  0
VERTEX
  5
90
330
8E
100
AcDbEntity
  8
Layer 1
370
     0
100
AcDbVertex
100
AcDb2dVertex
 10
3.545466334562004
 20
-3.608020695128971
 30
0.0
  0
VERTEX
  5
91
330
8E
100
AcDbEntity
  8
Layer 1
370
     0
100
AcDbVertex
100
AcDb2dVertex
 10
3.545466334562004
 20
-3.802044330709186
 30
0.0
  0
VERTEX
  5
92
330
8E
100
AcDbEntity
  8
Layer 1
370
     0
100
AcDbVertex
100
AcDb2dVertex
 10
3.027366138786546
 20
-3.802044330709186
 30
0.0
  0
VERTEX
  5
93
330
8E
100
AcDbEntity
  8
Layer 1
370
     0
100
AcDbVertex
100
AcDb2dVertex
 10
3.029495020094133
 20
-3.806302093324373
 30
0.0
  0
VERTEX
  5
94
330
8E
100
AcDbEntity
  8
Layer 1
370
     0
100
AcDbVertex
100
AcDb2dVertex
 10
3.029495020094133
 20
-4.194358053796273
 30
0.0
  0
VERTEX
  5
95
330
8E
100
AcDbEntity
  8
Layer 1
370
     0
100
AcDbVertex
100
AcDb2dVertex
 10
3.027366138786546
 20
-4.198615816411449
 30
0.0
  0
VERTEX
  5
96
330
8E
100
AcDbEntity
  8
Layer 1
370
     0
100
AcDbVertex
100
AcDb2dVertex
 10
3.479375431600702
 20
-4.198615816411449
 30
0.0
  0
VERTEX
  5
97
330
8E
100
AcDbEntity
  8
Layer 1
370
     0
100
AcDbVertex
100
AcDb2dVertex
 10
3.479375431600702
 20
-4.390510570684076
 30
0.0
  0
VERTEX
  5
98
330
8E
100
AcDbEntity
  8
Layer 1
370
     0
100
AcDbVertex
100
AcDb2dVertex
 10
3.027366138786546
 20
-4.390510570684076
 30
0.0
  0
VERTEX
  5
99
330
8E
100
AcDbEntity
  8
Layer 1
370
     0
100
AcDbVertex
100
AcDb2dVertex
 10
3.029495020094133
 20
-4.394777022610722
 30
0.0
  0
VERTEX
  5
9A
330
8E
100
AcDbEntity
  8
Layer 1
370
     0
100
AcDbVertex
100
AcDb2dVertex
 10
3.029495020094133
 20
-4.902224122536798
 30
0.0
  0
VERTEX
  5
9B
330
8E
100
AcDbEntity
  8
Layer 1
370
     0
100
AcDbVertex
100
AcDb2dVertex
 10
3.027366138786546
 20
-4.906481885151972
 30
0.0
  0
VERTEX
  5
9C
330
8E
100
AcDbEntity
  8
Layer 1
370
     0
100
AcDbVertex
100
AcDb2dVertex
 10
3.620090141376598
 20
-4.906481885151972
 30
0.0
  0
VERTEX
  5
9D
330
8E
100
AcDbEntity
  8
Layer 1
370
     0
100
AcDbVertex
100
AcDb2dVertex
 10
3.620090141376598
 20
-5.100514210043658
 30
0.0
  0
VERTEX
  5
9E
330
8E
100
AcDbEntity
  8
Layer 1
370
     0
100
AcDbVertex
100
AcDb2dVertex
 10
2.833342503206331
 20
-5.100514210043658
 30
0.0
  0
VERTEX
  5
9F
330
8E
100
AcDbEntity
  8
Layer 1
370
     0
100
AcDbVertex
100
AcDb2dVertex
 10
2.833342503206331
 20
-3.608020695128971
 30
0.0
  0
SEQEND
  5
A0
330
8E
100
AcDbEntity
  8
Layer 1
370
     0
  0
HATCH
  5
A1
330
7D
100
AcDbEntity
  8
Layer 1
 62
     7
420
 15921906
100
AcDbHatch
 10
0.0
 20
0.0
 30
0.0
210
0.0
220
0.0
230
1.0
  2
SOLID
 70
     1
 71
     0
 91
        1
 92
        1
 93
       16
 72
     1
 10
2.833342503206331
 20
-3.608020695128971
 11
3.545466334562004
 21
-3.608020695128971
 72
     1
 10
3.545466334562004
 20
-3.608020695128971
 11
3.545466334562004
 21
-3.802044330709186
 72
     1
 10
3.545466334562004
 20
-3.802044330709186
 11
3.027366138786546
 21
-3.802044330709186
 72
     1
 10
3.027366138786546
 20
-3.802044330709186
 11
3.029495020094133
 21
-3.806302093324373
 72
     1
 10
3.029495020094133
 20
-3.806302093324373
 11
3.029495020094133
 21
-4.194358053796273
 72
     1
 10
3.029495020094133
 20
-4.194358053796273
 11
3.027366138786546
 21
-4.198615816411449
 72
     1
 10
3.027366138786546
 20
-4.198615816411449
 11
3.479375431600702
 21
-4.198615816411449
 72
     1
 10
3.479375431600702
 20
-4.198615816411449
 11
3.479375431600702
 21
-4.390510570684076
 72
     1
 10
3.479375431600702
 20
-4.390510570684076
 11
3.027366138786546
 21
-4.390510570684076
 72
     1
 10
3.027366138786546
 20
-4.390510570684076
 11
3.029495020094133
 21
-4.394777022610722
 72
     1
 10
3.029495020094133
 20
-4.394777022610722
 11
3.029495020094133
 21
-4.902224122536798
 72
     1
 10
3.029495020094133
 20
-4.902224122536798
 11
3.027366138786546
 21
-4.906481885151972
 72
     1
 10
3.027366138786546
 20
-4.906481885151972
 11
3.620090141376598
 21
-4.906481885151972
 72
     1
 10
3.620090141376598
 20
-4.906481885151972
 11
3.620090141376598
 21
-5.100514210043658
 72
     1
 10
3.620090141376598
 20
-5.100514210043658
 11
2.833342503206331
 21
-5.100514210043658
 72
     1
 10
2.833342503206331
 20
-5.100514210043658
 11
2.833342503206331
 21
-3.608020695128971
 97
        0
 75
     2
 76
     1
 98
        0
  0
POLYLINE
  5
A2
330
7D
100
AcDbEntity
  8
Layer 1
370
     0
100
AcDb2dPolyline
 66
     1
 10
0.0
 20
0.0
 30
0.0
  0
VERTEX
  5
A3
330
A2
100
AcDbEntity
  8
Layer 1
370
     0
100
AcDbVertex
100
AcDb2dVertex
 10
3.939961074825431
 20
-3.608020695128971
 30
0.0
  0
VERTEX
  5
A4
330
A2
100
AcDbEntity
  8
Layer 1
370
     0
100
AcDbVertex
100
AcDb2dVertex
 10
4.652084906181143
 20
-3.608020695128971
 30
0.0
  0
VERTEX
  5
A5
330
A2
100
AcDbEntity
  8
Layer 1
370
     0
100
AcDbVertex
100
AcDb2dVertex
 10
4.652084906181143
 20
-3.802044330709186
 30
0.0
  0
VERTEX
  5
A6
330
A2
100
AcDbEntity
  8
Layer 1
370
     0
100
AcDbVertex
100
AcDb2dVertex
 10
4.133976021094238
 20
-3.802044330709186
 30
0.0
  0
VERTEX
  5
A7
330
A2
100
AcDbEntity
  8
Layer 1
370
     0
100
AcDbVertex
100
AcDb2dVertex
 10
4.136113591713285
 20
-3.806302093324373
 30
0.0
  0
VERTEX
  5
A8
330
A2
100
AcDbEntity
  8
Layer 1
370
     0
100
AcDbVertex
100
AcDb2dVertex
 10
4.136113591713285
 20
-4.194358053796273
 30
0.0
  0
VERTEX
  5
A9
330
A2
100
AcDbEntity
  8
Layer 1
370
     0
100
AcDbVertex
100
AcDb2dVertex
 10
4.133976021094238
 20
-4.198615816411449
 30
0.0
  0
VERTEX
  5
AA
330
A2
100
AcDbEntity
  8
Layer 1
370
     0
100
AcDbVertex
100
AcDb2dVertex
 10
4.585994003219841
 20
-4.198615816411449
 30
0.0
  0
VERTEX
  5
AB
330
A2
100
AcDbEntity
  8
Layer 1
370
     0
100
AcDbVertex
100
AcDb2dVertex
 10
4.585994003219841
 20
-4.390510570684076
 30
0.0
  0
VERTEX
  5
AC
330
A2
100
AcDbEntity
  8
Layer 1
370
     0
100
AcDbVertex
100
AcDb2dVertex
 10
4.133976021094238
 20
-4.390510570684076
 30
0.0
  0
VERTEX
  5
AD
330
A2
100
AcDbEntity
  8
Layer 1
370
     0
100
AcDbVertex
100
AcDb2dVertex
 10
4.136113591713285
 20
-4.394777022610722
 30
0.0
  0
VERTEX
  5
AE
330
A2
100
AcDbEntity
  8
Layer 1
370
     0
100
AcDbVertex
100
AcDb2dVertex
 10
4.136113591713285
 20
-4.902224122536798
 30
0.0
  0
VERTEX
  5
AF
330
A2
100
AcDbEntity
  8
Layer 1
370
     0
100
AcDbVertex
100
AcDb2dVertex
 10
4.133976021094238
 20
-4.906481885151972
 30
0.0
  0
VERTEX
  5
B0
330
A2
100
AcDbEntity
  8
Layer 1
370
     0
100
AcDbVertex
100
AcDb2dVertex
 10
4.726708712995737
 20
-4.906481885151972
 30
0.0
  0
VERTEX
  5
B1
330
A2
100
AcDbEntity
  8
Layer 1
370
     0
100
AcDbVertex
100
AcDb2dVertex
 10
4.726708712995737
 20
-5.100514210043658
 30
0.0
  0
VERTEX
  5
B2
330
A2
100
AcDbEntity
  8
Layer 1
370
     0
100
AcDbVertex
100
AcDb2dVertex
 10
3.939961074825431
 20
-5.100514210043658
 30
0.0
  0
VERTEX
  5
B3
330
A2
100
AcDbEntity
  8
Layer 1
370
     0
100
AcDbVertex
100
AcDb2dVertex
 10
3.939961074825431
 20
-3.608020695128971
 30
0.0
  0
SEQEND
  5
B4
330
A2
100
AcDbEntity
  8
Layer 1
370
     0
  0
HATCH
  5
B5
330
7D
100
AcDbEntity
  8
Layer 1
 62
     7
420
 15921906
100
AcDbHatch
 10
0.0
 20
0.0
 30
0.0
210
0.0
220
0.0
230
1.0
  2
SOLID
 70
     1
 71
     0
 91
        1
 92
        1
 93
       16
 72
     1
 10
3.939961074825431
 20
-3.608020695128971
 11
4.652084906181143
 21
-3.608020695128971
 72
     1
 10
4.652084906181143
 20
-3.608020695128971
 11
4.652084906181143
 21
-3.802044330709186
 72
     1
 10
4.652084906181143
 20
-3.802044330709186
 11
4.133976021094238
 21
-3.802044330709186
 72
     1
 10
4.133976021094238
 20
-3.802044330709186
 11
4.136113591713285
 21
-3.806302093324373
 72
     1
 10
4.136113591713285
 20
-3.806302093324373
 11
4.136113591713285
 21
-4.194358053796273
 72
     1
 10
4.136113591713285
 20
-4.194358053796273
 11
4.133976021094238
 21
-4.198615816411449
 72
     1
 10
4.133976021094238
 20
-4.198615816411449
 11
4.585994003219841
 21
-4.198615816411449
 72
     1
 10
4.585994003219841
 20
-4.198615816411449
 11
4.585994003219841
 21
-4.390510570684076
 72
     1
 10
4.585994003219841
 20
-4.390510570684076
 11
4.133976021094238
 21
-4.390510570684076
 72
     1
 10
4.133976021094238
 20
-4.390510570684076
 11
4.136113591713285
 21
-4.394777022610722
 72
     1
 10
4.136113591713285
 20
-4.394777022610722
 11
4.136113591713285
 21
-4.902224122536798
 72
     1
 10
4.136113591713285
 20
-4.902224122536798
 11
4.133976021094238
 21
-4.906481885151972
 72
     1
 10
4.133976021094238
 20
-4.906481885151972
 11
4.726708712995737
 21
-4.906481885151972
 72
     1
 10
4.726708712995737
 20
-4.906481885151972
 11
4.726708712995737
 21
-5.100514210043658
 72
     1
 10
4.726708712995737
 20
-5.100514210043658
 11
3.939961074825431
 21
-5.100514210043658
 72
     1
 10
3.939961074825431
 20
-5.100514210043658
 11
3.939961074825431
 21
-3.608020695128971
 97
        0
 75
     2
 76
     1
 98
        0
  0
SPLINE
  5
B6
330
7D
100
AcDbEntity
  8
Layer 1
370
     0
100
AcDbSpline
210
0.0
220
0.0
230
1.0
 70
    11
 71
     3
 72
    26
 73
    22
 74
     0
 42
0.0000000001
 43
0.0000000001
 12
1.0
 22
0.0
 32
0.0
 13
1.0
 23
0.0
 33
0.0
 40
0.0
 40
0.0
 40
0.0
 40
0.0
 40
1.0
 40
1.0
 40
1.0
 40
2.0
 40
2.0
 40
2.0
 40
3.0
 40
3.0
 40
3.0
 40
4.0
 40
4.0
 40
4.0
 40
5.0
 40
5.0
 40
5.0
 40
6.0
 40
6.0
 40
6.0
 40
7.0
 40
7.0
 40
7.0
 40
7.0
 10
5.430369154989825
 20
-4.492853281054622
 30
0.0
 10
5.430369154989825
 20
-4.492853281054622
 30
0.0
 10
5.242732163332372
 20
-4.492853281054622
 30
0.0
 10
5.242732163332372
 20
-4.492853281054622
 30
0.0
 10
5.242732163332372
 20
-4.492853281054622
 30
0.0
 10
5.242732163332372
 20
-5.100514210043658
 30
0.0
 10
5.242732163332372
 20
-5.100514210043658
 30
0.0
 10
5.242732163332372
 20
-5.100514210043658
 30
0.0
 10
5.04657964644457
 20
-5.100514210043658
 30
0.0
 10
5.04657964644457
 20
-5.100514210043658
 30
0.0
 10
5.04657964644457
 20
-5.100514210043658
 30
0.0
 10
5.04657964644457
 20
-3.608020695128971
 30
0.0
 10
5.04657964644457
 20
-3.608020695128971
 30
0.0
 10
5.04657964644457
 20
-3.608020695128971
 30
0.0
 10
5.451675346688666
 20
-3.608020695128971
 30
0.0
 10
5.451675346688666
 20
-3.608020695128971
 30
0.0
 10
5.709678382545513
 20
-3.608020695128971
 30
0.0
 10
5.899435566199119
 20
-3.802044330709186
 30
0.0
 10
5.899435566199119
 20
-4.04297286954804
 30
0.0
 10
5.899435566199119
 20
-4.322282097103716
 30
0.0
 10
5.664893671283001
 20
-4.492853281054622
 30
0.0
 10
5.430369154989825
 20
-4.492853281054622
 30
0.0
  0
SPLINE
  5
B7
330
7D
100
AcDbEntity
  8
Layer 1
370
     0
100
AcDbSpline
210
0.0
220
0.0
230
1.0
 70
    11
 71
     3
 72
    20
 73
    16
 74
     0
 42
0.0000000001
 43
0.0000000001
 12
1.0
 22
0.0
 32
0.0
 13
1.0
 23
0.0
 33
0.0
 40
0.0
 40
0.0
 40
0.0
 40
0.0
 40
1.0
 40
1.0
 40
1.0
 40
2.0
 40
2.0
 40
2.0
 40
3.0
 40
3.0
 40
3.0
 40
4.0
 40
4.0
 40
4.0
 40
5.0
 40
5.0
 40
5.0
 40
5.0
 10
5.242732163332372
 20
-4.298829645474408
 30
0.0
 10
5.242732163332372
 20
-4.298829645474408
 30
0.0
 10
5.430369154989825
 20
-4.298829645474408
 30
0.0
 10
5.430369154989825
 20
-4.298829645474408
 30
0.0
 10
5.579616768619013
 20
-4.298829645474408
 30
0.0
 10
5.679821908370538
 20
-4.175163364782128
 30
0.0
 10
5.679821908370538
 20
-4.04297286954804
 30
0.0
 10
5.679821908370538
 20
-3.92144415947482
 30
0.0
 10
5.586012101853258
 20
-3.79990676009014
 30
0.0
 10
5.451675346688666
 20
-3.79990676009014
 30
0.0
 10
5.451675346688666
 20
-3.79990676009014
 30
0.0
 10
5.242732163332372
 20
-3.79990676009014
 30
0.0
 10
5.242732163332372
 20
-3.79990676009014
 30
0.0
 10
5.242732163332372
 20
-3.79990676009014
 30
0.0
 10
5.242732163332372
 20
-4.298829645474408
 30
0.0
 10
5.242732163332372
 20
-4.298829645474408
 30
0.0
  0
HATCH
  5
B8
330
7D
100
AcDbEntity
  8
Layer 1
 62
     7
420
 15921906
100
AcDbHatch
 10
0.0
 20
0.0
 30
0.0
210
0.0
220
0.0
230
1.0
  2
SOLID
 70
     1
 71
     0
 91
        2
 92
        1
 93
        1
 72
     4
 94
        3
 73
     0
 74
     1
 95
       26
 96
       22
 40
0.0
 40
0.0
 40
0.0
 40
0.0
 40
1.0
 40
1.0
 40
1.0
 40
2.0
 40
2.0
 40
2.0
 40
3.0
 40
3.0
 40
3.0
 40
4.0
 40
4.0
 40
4.0
 40
5.0
 40
5.0
 40
5.0
 40
6.0
 40
6.0
 40
6.0
 40
7.0
 40
7.0
 40
7.0
 40
7.0
 10
5.430369154989825
 20
-4.492853281054622
 10
5.430369154989825
 20
-4.492853281054622
 10
5.242732163332372
 20
-4.492853281054622
 10
5.242732163332372
 20
-4.492853281054622
 10
5.242732163332372
 20
-4.492853281054622
 10
5.242732163332372
 20
-5.100514210043658
 10
5.242732163332372
 20
-5.100514210043658
 10
5.242732163332372
 20
-5.100514210043658
 10
5.04657964644457
 20
-5.100514210043658
 10
5.04657964644457
 20
-5.100514210043658
 10
5.04657964644457
 20
-5.100514210043658
 10
5.04657964644457
 20
-3.608020695128971
 10
5.04657964644457
 20
-3.608020695128971
 10
5.04657964644457
 20
-3.608020695128971
 10
5.451675346688666
 20
-3.608020695128971
 10
5.451675346688666
 20
-3.608020695128971
 10
5.709678382545513
 20
-3.608020695128971
 10
5.899435566199119
 20
-3.802044330709186
 10
5.899435566199119
 20
-4.04297286954804
 10
5.899435566199119
 20
-4.322282097103716
 10
5.664893671283001
 20
-4.492853281054622
 10
5.430369154989825
 20
-4.492853281054622
 97
        0
 97
        0
 92
        1
 93
        1
 72
     4
 94
        3
 73
     0
 74
     1
 95
       20
 96
       16
 40
0.0
 40
0.0
 40
0.0
 40
0.0
 40
1.0
 40
1.0
 40
1.0
 40
2.0
 40
2.0
 40
2.0
 40
3.0
 40
3.0
 40
3.0
 40
4.0
 40
4.0
 40
4.0
 40
5.0
 40
5.0
 40
5.0
 40
5.0
 10
5.242732163332372
 20
-4.298829645474408
 10
5.242732163332372
 20
-4.298829645474408
 10
5.430369154989825
 20
-4.298829645474408
 10
5.430369154989825
 20
-4.298829645474408
 10
5.579616768619013
 20
-4.298829645474408
 10
5.679821908370538
 20
-4.175163364782128
 10
5.679821908370538
 20
-4.04297286954804
 10
5.679821908370538
 20
-3.92144415947482
 10
5.586012101853258
 20
-3.79990676009014
 10
5.451675346688666
 20
-3.79990676009014
 10
5.451675346688666
 20
-3.79990676009014
 10
5.242732163332372
 20
-3.79990676009014
 10
5.242732163332372
 20
-3.79990676009014
 10
5.242732163332372
 20
-3.79990676009014
 10
5.242732163332372
 20
-4.298829645474408
 10
5.242732163332372
 20
-4.298829645474408
 97
        0
 97
        0
 75
     2
 76
     1
 98
        0
  0
ENDBLK
  5
80
330
7D
100
AcDbEntity
  8
0
100
AcDbBlockEnd
  0
BLOCK
  5
BB
330
B9
100
AcDbEntity
  8
0
100
AcDbBlockBegin
  2
block 5
 70
     0
 10
0.0
 20
0.0
 30
0.0
  3
block 5
  1

  0
POLYLINE
  5
BD
330
B9
100
AcDbEntity
  8
Layer 1
370
     0
100
AcDb2dPolyline
 66
     1
 10
0.0
 20
0.0
 30
0.0
  0
VERTEX
  5
BE
330
BD
100
AcDbEntity
  8
Layer 1
370
     0
100
AcDbVertex
100
AcDb2dVertex
 10
0.8060479358909131
 20
-6.275491594915037
 30
0.0
  0
VERTEX
  5
BF
330
BD
100
AcDbEntity
  8
Layer 1
370
     0
100
AcDbVertex
100
AcDb2dVertex
 10
0.8078987592317869
 20
-6.271616162004092
 30
0.0
  0
VERTEX
  5
C0
330
BD
100
AcDbEntity
  8
Layer 1
370
     0
100
AcDbVertex
100
AcDb2dVertex
 10
0.4001875762383962
 20
-6.271616162004092
 30
0.0
  0
VERTEX
  5
C1
330
BD
100
AcDbEntity
  8
Layer 1
370
     0
100
AcDbVertex
100
AcDb2dVertex
 10
0.402029710267824
 20
-6.275491594915037
 30
0.0
  0
VERTEX
  5
C2
330
BD
100
AcDbEntity
  8
Layer 1
370
     0
100
AcDbVertex
100
AcDb2dVertex
 10
0.402029710267824
 20
-6.86759865639149
 30
0.0
  0
VERTEX
  5
C3
330
BD
100
AcDbEntity
  8
Layer 1
370
     0
100
AcDbVertex
100
AcDb2dVertex
 10
0.2323013895284905
 20
-6.86759865639149
 30
0.0
  0
VERTEX
  5
C4
330
BD
100
AcDbEntity
  8
Layer 1
370
     0
100
AcDbVertex
100
AcDb2dVertex
 10
0.2323013895284905
 20
-5.513108786077307
 30
0.0
  0
VERTEX
  5
C5
330
BD
100
AcDbEntity
  8
Layer 1
370
     0
100
AcDbVertex
100
AcDb2dVertex
 10
0.402029710267824
 20
-5.513108786077307
 30
0.0
  0
VERTEX
  5
C6
330
BD
100
AcDbEntity
  8
Layer 1
370
     0
100
AcDbVertex
100
AcDb2dVertex
 10
0.402029710267824
 20
-6.093589548820874
 30
0.0
  0
VERTEX
  5
C7
330
BD
100
AcDbEntity
  8
Layer 1
370
     0
100
AcDbVertex
100
AcDb2dVertex
 10
0.4001875762383962
 20
-6.097464981731845
 30
0.0
  0
VERTEX
  5
C8
330
BD
100
AcDbEntity
  8
Layer 1
370
     0
100
AcDbVertex
100
AcDb2dVertex
 10
0.8078987592317869
 20
-6.097464981731845
 30
0.0
  0
VERTEX
  5
C9
330
BD
100
AcDbEntity
  8
Layer 1
370
     0
100
AcDbVertex
100
AcDb2dVertex
 10
0.8060479358909131
 20
-6.093589548820874
 30
0.0
  0
VERTEX
  5
CA
330
BD
100
AcDbEntity
  8
Layer 1
370
     0
100
AcDbVertex
100
AcDb2dVertex
 10
0.8060479358909131
 20
-5.513108786077307
 30
0.0
  0
VERTEX
  5
CB
330
BD
100
AcDbEntity
  8
Layer 1
370
     0
100
AcDbVertex
100
AcDb2dVertex
 10
0.9776270799711204
 20
-5.513108786077307
 30
0.0
  0
VERTEX
  5
CC
330
BD
100
AcDbEntity
  8
Layer 1
370
     0
100
AcDbVertex
100
AcDb2dVertex
 10
0.9776270799711204
 20
-6.86759865639149
 30
0.0
  0
VERTEX
  5
CD
330
BD
100
AcDbEntity
  8
Layer 1
370
     0
100
AcDbVertex
100
AcDb2dVertex
 10
0.8060479358909131
 20
-6.86759865639149
 30
0.0
  0
VERTEX
  5
CE
330
BD
100
AcDbEntity
  8
Layer 1
370
     0
100
AcDbVertex
100
AcDb2dVertex
 10
0.8060479358909131
 20
-6.275491594915037
 30
0.0
  0
SEQEND
  5
CF
330
BD
100
AcDbEntity
  8
Layer 1
370
     0
  0
HATCH
  5
D0
330
B9
100
AcDbEntity
  8
Layer 1
 62
     1
420
 16711680
100
AcDbHatch
 10
0.0
 20
0.0
 30
0.0
210
0.0
220
0.0
230
1.0
  2
SOLID
 70
     1
 71
     0
 91
        1
 92
        1
 93
       16
 72
     1
 10
0.8060479358909131
 20
-6.275491594915037
 11
0.8078987592317869
 21
-6.271616162004092
 72
     1
 10
0.8078987592317869
 20
-6.271616162004092
 11
0.4001875762383962
 21
-6.271616162004092
 72
     1
 10
0.4001875762383962
 20
-6.271616162004092
 11
0.402029710267824
 21
-6.275491594915037
 72
     1
 10
0.402029710267824
 20
-6.275491594915037
 11
0.402029710267824
 21
-6.86759865639149
 72
     1
 10
0.402029710267824
 20
-6.86759865639149
 11
0.2323013895284905
 21
-6.86759865639149
 72
     1
 10
0.2323013895284905
 20
-6.86759865639149
 11
0.2323013895284905
 21
-5.513108786077307
 72
     1
 10
0.2323013895284905
 20
-5.513108786077307
 11
0.402029710267824
 21
-5.513108786077307
 72
     1
 10
0.402029710267824
 20
-5.513108786077307
 11
0.402029710267824
 21
-6.093589548820874
 72
     1
 10
0.402029710267824
 20
-6.093589548820874
 11
0.4001875762383962
 21
-6.097464981731845
 72
     1
 10
0.4001875762383962
 20
-6.097464981731845
 11
0.8078987592317869
 21
-6.097464981731845
 72
     1
 10
0.8078987592317869
 20
-6.097464981731845
 11
0.8060479358909131
 21
-6.093589548820874
 72
     1
 10
0.8060479358909131
 20
-6.093589548820874
 11
0.8060479358909131
 21
-5.513108786077307
 72
     1
 10
0.8060479358909131
 20
-5.513108786077307
 11
0.9776270799711204
 21
-5.513108786077307
 72
     1
 10
0.9776270799711204
 20
-5.513108786077307
 11
0.9776270799711204
 21
-6.86759865639149
 72
     1
 10
0.9776270799711204
 20
-6.86759865639149
 11
0.8060479358909131
 21
-6.86759865639149
 72
     1
 10
0.8060479358909131
 20
-6.86759865639149
 11
0.8060479358909131
 21
-6.275491594915037
 97
        0
 75
     2
 76
     1
 98
        0
  0
SPLINE
  5
D1
330
B9
100
AcDbEntity
  8
Layer 1
370
     0
100
AcDbSpline
210
0.0
220
0.0
230
1.0
 70
    11
 71
     3
 72
    17
 73
    13
 74
     0
 42
0.0000000001
 43
0.0000000001
 12
1.0
 22
0.0
 32
0.0
 13
1.0
 23
0.0
 33
0.0
 40
0.0
 40
0.0
 40
0.0
 40
0.0
 40
1.0
 40
1.0
 40
1.0
 40
2.0
 40
2.0
 40
2.0
 40
3.0
 40
3.0
 40
3.0
 40
4.0
 40
4.0
 40
4.0
 40
4.0
 10
1.816988499028968
 20
-5.493749000145448
 30
0.0
 10
2.169357457336509
 20
-5.493749000145448
 30
0.0
 10
2.425787727819195
 20
-5.793669274483161
 30
0.0
 10
2.425787727819195
 20
-6.190353721234411
 30
0.0
 10
2.425787727819195
 20
-6.587020789362718
 30
0.0
 10
2.169357457336509
 20
-6.886941063700432
 30
0.0
 10
1.816988499028968
 20
-6.886941063700432
 30
0.0
 10
1.464619540721426
 20
-6.886941063700432
 30
0.0
 10
1.20818927023874
 20
-6.57541186925275
 30
0.0
 10
1.20818927023874
 20
-6.190353721234411
 30
0.0
 10
1.20818927023874
 20
-5.793669274483161
 30
0.0
 10
1.464619540721426
 20
-5.493749000145448
 30
0.0
 10
1.816988499028968
 20
-5.493749000145448
 30
0.0
  0
SPLINE
  5
D2
330
B9
100
AcDbEntity
  8
Layer 1
370
     0
100
AcDbSpline
210
0.0
220
0.0
230
1.0
 70
    11
 71
     3
 72
    17
 73
    13
 74
     0
 42
0.0000000001
 43
0.0000000001
 12
1.0
 22
0.0
 32
0.0
 13
1.0
 23
0.0
 33
0.0
 40
0.0
 40
0.0
 40
0.0
 40
0.0
 40
1.0
 40
1.0
 40
1.0
 40
2.0
 40
2.0
 40
2.0
 40
3.0
 40
3.0
 40
3.0
 40
4.0
 40
4.0
 40
4.0
 40
4.0
 10
1.822523590428697
 20
-6.703127369085172
 30
0.0
 10
2.066041544082496
 20
-6.703127369085172
 30
0.0
 10
2.241304956221559
 20
-6.472860615407196
 30
0.0
 10
2.241304956221559
 20
-6.190353721234411
 30
0.0
 10
2.241304956221559
 20
-5.907846827061601
 30
0.0
 10
2.066041544082496
 20
-5.677580073383624
 30
0.0
 10
1.822523590428697
 20
-5.677580073383624
 30
0.0
 10
1.579005636774898
 20
-5.677580073383624
 30
0.0
 10
1.392672041836376
 20
-5.907846827061601
 30
0.0
 10
1.392672041836376
 20
-6.190353721234411
 30
0.0
 10
1.392672041836376
 20
-6.467056155352211
 30
0.0
 10
1.579005636774898
 20
-6.703127369085172
 30
0.0
 10
1.822523590428697
 20
-6.703127369085172
 30
0.0
  0
HATCH
  5
D3
330
B9
100
AcDbEntity
  8
Layer 1
 62
     1
420
 16711680
100
AcDbHatch
 10
0.0
 20
0.0
 30
0.0
210
0.0
220
0.0
230
1.0
  2
SOLID
 70
     1
 71
     0
 91
        2
 92
        1
 93
        1
 72
     4
 94
        3
 73
     0
 74
     1
 95
       17
 96
       13
 40
0.0
 40
0.0
 40
0.0
 40
0.0
 40
1.0
 40
1.0
 40
1.0
 40
2.0
 40
2.0
 40
2.0
 40
3.0
 40
3.0
 40
3.0
 40
4.0
 40
4.0
 40
4.0
 40
4.0
 10
1.816988499028968
 20
-5.493749000145448
 10
2.169357457336509
 20
-5.493749000145448
 10
2.425787727819195
 20
-5.793669274483161
 10
2.425787727819195
 20
-6.190353721234411
 10
2.425787727819195
 20
-6.587020789362718
 10
2.169357457336509
 20
-6.886941063700432
 10
1.816988499028968
 20
-6.886941063700432
 10
1.464619540721426
 20
-6.886941063700432
 10
1.20818927023874
 20
-6.57541186925275
 10
1.20818927023874
 20
-6.190353721234411
 10
1.20818927023874
 20
-5.793669274483161
 10
1.464619540721426
 20
-5.493749000145448
 10
1.816988499028968
 20
-5.493749000145448
 97
        0
 97
        0
 92
        1
 93
        1
 72
     4
 94
        3
 73
     0
 74
     1
 95
       17
 96
       13
 40
0.0
 40
0.0
 40
0.0
 40
0.0
 40
1.0
 40
1.0
 40
1.0
 40
2.0
 40
2.0
 40
2.0
 40
3.0
 40
3.0
 40
3.0
 40
4.0
 40
4.0
 40
4.0
 40
4.0
 10
1.822523590428697
 20
-6.703127369085172
 10
2.066041544082496
 20
-6.703127369085172
 10
2.241304956221559
 20
-6.472860615407196
 10
2.241304956221559
 20
-6.190353721234411
 10
2.241304956221559
 20
-5.907846827061601
 10
2.066041544082496
 20
-5.677580073383624
 10
1.822523590428697
 20
-5.677580073383624
 10
1.579005636774898
 20
-5.677580073383624
 10
1.392672041836376
 20
-5.907846827061601
 10
1.392672041836376
 20
-6.190353721234411
 10
1.392672041836376
 20
-6.467056155352211
 10
1.579005636774898
 20
-6.703127369085172
 10
1.822523590428697
 20
-6.703127369085172
 97
        0
 97
        0
 75
     2
 76
     1
 98
        0
  0
SPLINE
  5
D4
330
B9
100
AcDbEntity
  8
Layer 1
370
     0
100
AcDbSpline
210
0.0
220
0.0
230
1.0
 70
    11
 71
     3
 72
    35
 73
    31
 74
     0
 42
0.0000000001
 43
0.0000000001
 12
1.0
 22
0.0
 32
0.0
 13
1.0
 23
0.0
 33
0.0
 40
0.0
 40
0.0
 40
0.0
 40
0.0
 40
1.0
 40
1.0
 40
1.0
 40
2.0
 40
2.0
 40
2.0
 40
3.0
 40
3.0
 40
3.0
 40
4.0
 40
4.0
 40
4.0
 40
5.0
 40
5.0
 40
5.0
 40
6.0
 40
6.0
 40
6.0
 40
7.0
 40
7.0
 40
7.0
 40
8.0
 40
8.0
 40
8.0
 40
9.0
 40
9.0
 40
9.0
 40
10.0
 40
10.0
 40
10.0
 40
10.0
 10
3.381377376959942
 20
-5.75109164833139
 30
0.0
 10
3.314973658786092
 20
-5.71046042794655
 30
0.0
 10
3.219043660272695
 20
-5.675633667616694
 30
0.0
 10
3.12864006384757
 20
-5.677580073383624
 30
0.0
 10
2.883279976164343
 20
-5.679509100527639
 30
0.0
 10
2.700639338596122
 20
-5.907846827061601
 30
0.0
 10
2.704323606654978
 20
-6.190353721234411
 30
0.0
 10
2.708016564025279
 20
-6.48446953551714
 30
0.0
 10
2.874051927394298
 20
-6.705056396229186
 30
0.0
 10
3.134175155247299
 20
-6.703127369085172
 30
0.0
 10
3.257780610759356
 20
-6.701180963318241
 30
0.0
 10
3.355552743302168
 20
-6.660549742933401
 30
0.0
 10
3.45518438849735
 20
-6.583145356451748
 30
0.0
 10
3.45518438849735
 20
-6.583145356451748
 30
0.0
 10
3.549254874358414
 20
-6.730220642216055
 30
0.0
 10
3.549254874358414
 20
-6.730220642216055
 30
0.0
 10
3.412745791328891
 20
-6.836629950349661
 30
0.0
 10
3.292833293187174
 20
-6.885012036556418
 30
0.0
 10
3.136017289276714
 20
-6.886941063700432
 30
0.0
 10
2.761516654681714
 20
-6.890816496611402
 30
0.0
 10
2.523533792427644
 20
-6.608309602438592
 30
0.0
 10
2.519840835057329
 20
-6.194211775522439
 30
0.0
 10
2.516156566998486
 20
-5.843980387833956
 30
0.0
 10
2.744911380482512
 20
-5.497607054433476
 30
0.0
 10
3.113885612989255
 20
-5.493749000145448
 30
0.0
 10
3.237491068501312
 20
-5.491802594378517
 30
0.0
 10
3.361096524013343
 20
-5.518913246132292
 30
0.0
 10
3.477307375473325
 20
-5.609838201244984
 30
0.0
 10
3.477307375473325
 20
-5.609838201244984
 30
0.0
 10
3.381377376959942
 20
-5.75109164833139
 30
0.0
 10
3.381377376959942
 20
-5.75109164833139
 30
0.0
  0
HATCH
  5
D5
330
B9
100
AcDbEntity
  8
Layer 1
 62
     1
420
 16711680
100
AcDbHatch
 10
0.0
 20
0.0
 30
0.0
210
0.0
220
0.0
230
1.0
  2
SOLID
 70
     1
 71
     0
 91
        1
 92
        1
 93
        1
 72
     4
 94
        3
 73
     0
 74
     1
 95
       35
 96
       31
 40
0.0
 40
0.0
 40
0.0
 40
0.0
 40
1.0
 40
1.0
 40
1.0
 40
2.0
 40
2.0
 40
2.0
 40
3.0
 40
3.0
 40
3.0
 40
4.0
 40
4.0
 40
4.0
 40
5.0
 40
5.0
 40
5.0
 40
6.0
 40
6.0
 40
6.0
 40
7.0
 40
7.0
 40
7.0
 40
8.0
 40
8.0
 40
8.0
 40
9.0
 40
9.0
 40
9.0
 40
10.0
 40
10.0
 40
10.0
 40
10.0
 10
3.381377376959942
 20
-5.75109164833139
 10
3.314973658786092
 20
-5.71046042794655
 10
3.219043660272695
 20
-5.675633667616694
 10
3.12864006384757
 20
-5.677580073383624
 10
2.883279976164343
 20
-5.679509100527639
 10
2.700639338596122
 20
-5.907846827061601
 10
2.704323606654978
 20
-6.190353721234411
 10
2.708016564025279
 20
-6.48446953551714
 10
2.874051927394298
 20
-6.705056396229186
 10
3.134175155247299
 20
-6.703127369085172
 10
3.257780610759356
 20
-6.701180963318241
 10
3.355552743302168
 20
-6.660549742933401
 10
3.45518438849735
 20
-6.583145356451748
 10
3.45518438849735
 20
-6.583145356451748
 10
3.549254874358414
 20
-6.730220642216055
 10
3.549254874358414
 20
-6.730220642216055
 10
3.412745791328891
 20
-6.836629950349661
 10
3.292833293187174
 20
-6.885012036556418
 10
3.136017289276714
 20
-6.886941063700432
 10
2.761516654681714
 20
-6.890816496611402
 10
2.523533792427644
 20
-6.608309602438592
 10
2.519840835057329
 20
-6.194211775522439
 10
2.516156566998486
 20
-5.843980387833956
 10
2.744911380482512
 20
-5.497607054433476
 10
3.113885612989255
 20
-5.493749000145448
 10
3.237491068501312
 20
-5.491802594378517
 10
3.361096524013343
 20
-5.518913246132292
 10
3.477307375473325
 20
-5.609838201244984
 10
3.477307375473325
 20
-5.609838201244984
 10
3.381377376959942
 20
-5.75109164833139
 10
3.381377376959942
 20
-5.75109164833139
 97
        0
 97
        0
 75
     2
 76
     1
 98
        0
  0
POLYLINE
  5
D6
330
B9
100
AcDbEntity
  8
Layer 1
370
     0
100
AcDb2dPolyline
 66
     1
 10
0.0
 20
0.0
 30
0.0
  0
VERTEX
  5
D7
330
D6
100
AcDbEntity
  8
Layer 1
370
     0
100
AcDbVertex
100
AcDb2dVertex
 10
4.036273403043095
 20
-6.141971635027655
 30
0.0
  0
VERTEX
  5
D8
330
D6
100
AcDbEntity
  8
Layer 1
370
     0
100
AcDbVertex
100
AcDb2dVertex
 10
3.93111535575963
 20
-6.287100515025005
 30
0.0
  0
VERTEX
  5
D9
330
D6
100
AcDbEntity
  8
Layer 1
370
     0
100
AcDbVertex
100
AcDb2dVertex
 10
3.93111535575963
 20
-6.86759865639149
 30
0.0
  0
VERTEX
  5
DA
330
D6
100
AcDbEntity
  8
Layer 1
370
     0
100
AcDbVertex
100
AcDb2dVertex
 10
3.76139572433178
 20
-6.86759865639149
 30
0.0
  0
VERTEX
  5
DB
330
D6
100
AcDbEntity
  8
Layer 1
370
     0
100
AcDbVertex
100
AcDb2dVertex
 10
3.76139572433178
 20
-5.513108786077307
 30
0.0
  0
VERTEX
  5
DC
330
D6
100
AcDbEntity
  8
Layer 1
370
     0
100
AcDbVertex
100
AcDb2dVertex
 10
3.93111535575963
 20
-5.513108786077307
 30
0.0
  0
VERTEX
  5
DD
330
D6
100
AcDbEntity
  8
Layer 1
370
     0
100
AcDbVertex
100
AcDb2dVertex
 10
3.93111535575963
 20
-6.025865055305176
 30
0.0
  0
VERTEX
  5
DE
330
D6
100
AcDbEntity
  8
Layer 1
370
     0
100
AcDbVertex
100
AcDb2dVertex
 10
4.318536996495014
 20
-5.513108786077307
 30
0.0
  0
VERTEX
  5
DF
330
D6
100
AcDbEntity
  8
Layer 1
370
     0
100
AcDbVertex
100
AcDb2dVertex
 10
4.503011078781179
 20
-5.513108786077307
 30
0.0
  0
VERTEX
  5
E0
330
D6
100
AcDbEntity
  8
Layer 1
370
     0
100
AcDbVertex
100
AcDb2dVertex
 10
4.161729681896
 20
-5.981375780632308
 30
0.0
  0
VERTEX
  5
E1
330
D6
100
AcDbEntity
  8
Layer 1
370
     0
100
AcDbVertex
100
AcDb2dVertex
 10
4.549133944008442
 20
-6.86759865639149
 30
0.0
  0
VERTEX
  5
E2
330
D6
100
AcDbEntity
  8
Layer 1
370
     0
100
AcDbVertex
100
AcDb2dVertex
 10
4.362817727692851
 20
-6.86759865639149
 30
0.0
  0
VERTEX
  5
E3
330
D6
100
AcDbEntity
  8
Layer 1
370
     0
100
AcDbVertex
100
AcDb2dVertex
 10
4.036273403043095
 20
-6.141971635027655
 30
0.0
  0
SEQEND
  5
E4
330
D6
100
AcDbEntity
  8
Layer 1
370
     0
  0
HATCH
  5
E5
330
B9
100
AcDbEntity
  8
Layer 1
 62
     1
420
 16711680
100
AcDbHatch
 10
0.0
 20
0.0
 30
0.0
210
0.0
220
0.0
230
1.0
  2
SOLID
 70
     1
 71
     0
 91
        1
 92
        1
 93
       12
 72
     1
 10
4.036273403043095
 20
-6.141971635027655
 11
3.93111535575963
 21
-6.287100515025005
 72
     1
 10
3.93111535575963
 20
-6.287100515025005
 11
3.93111535575963
 21
-6.86759865639149
 72
     1
 10
3.93111535575963
 20
-6.86759865639149
 11
3.76139572433178
 21
-6.86759865639149
 72
     1
 10
3.76139572433178
 20
-6.86759865639149
 11
3.76139572433178
 21
-5.513108786077307
 72
     1
 10
3.76139572433178
 20
-5.513108786077307
 11
3.93111535575963
 21
-5.513108786077307
 72
     1
 10
3.93111535575963
 20
-5.513108786077307
 11
3.93111535575963
 21
-6.025865055305176
 72
     1
 10
3.93111535575963
 20
-6.025865055305176
 11
4.318536996495014
 21
-5.513108786077307
 72
     1
 10
4.318536996495014
 20
-5.513108786077307
 11
4.503011078781179
 21
-5.513108786077307
 72
     1
 10
4.503011078781179
 20
-5.513108786077307
 11
4.161729681896
 21
-5.981375780632308
 72
     1
 10
4.161729681896
 20
-5.981375780632308
 11
4.549133944008442
 21
-6.86759865639149
 72
     1
 10
4.549133944008442
 20
-6.86759865639149
 11
4.362817727692851
 21
-6.86759865639149
 72
     1
 10
4.362817727692851
 20
-6.86759865639149
 11
4.036273403043095
 21
-6.141971635027655
 97
        0
 75
     2
 76
     1
 98
        0
  0
POLYLINE
  5
E6
330
B9
100
AcDbEntity
  8
Layer 1
370
     0
100
AcDb2dPolyline
 66
     1
 10
0.0
 20
0.0
 30
0.0
  0
VERTEX
  5
E7
330
E6
100
AcDbEntity
  8
Layer 1
370
     0
100
AcDbVertex
100
AcDb2dVertex
 10
4.742836075064688
 20
-5.513108786077307
 30
0.0
  0
VERTEX
  5
E8
330
E6
100
AcDbEntity
  8
Layer 1
370
     0
100
AcDbVertex
100
AcDb2dVertex
 10
5.359012529284073
 20
-5.513108786077307
 30
0.0
  0
VERTEX
  5
E9
330
E6
100
AcDbEntity
  8
Layer 1
370
     0
100
AcDbVertex
100
AcDb2dVertex
 10
5.359012529284073
 20
-5.689188993493568
 30
0.0
  0
VERTEX
  5
EA
330
E6
100
AcDbEntity
  8
Layer 1
370
     0
100
AcDbVertex
100
AcDb2dVertex
 10
4.91071357246311
 20
-5.689188993493568
 30
0.0
  0
VERTEX
  5
EB
330
E6
100
AcDbEntity
  8
Layer 1
370
     0
100
AcDbVertex
100
AcDb2dVertex
 10
4.912555706492538
 20
-5.693047047781621
 30
0.0
  0
VERTEX
  5
EC
330
E6
100
AcDbEntity
  8
Layer 1
370
     0
100
AcDbVertex
100
AcDb2dVertex
 10
4.912555706492538
 20
-6.045224841237061
 30
0.0
  0
VERTEX
  5
ED
330
E6
100
AcDbEntity
  8
Layer 1
370
     0
100
AcDbVertex
100
AcDb2dVertex
 10
4.91071357246311
 20
-6.049100274148006
 30
0.0
  0
VERTEX
  5
EE
330
E6
100
AcDbEntity
  8
Layer 1
370
     0
100
AcDbVertex
100
AcDb2dVertex
 10
5.3018194812573
 20
-6.049100274148006
 30
0.0
  0
VERTEX
  5
EF
330
E6
100
AcDbEntity
  8
Layer 1
370
     0
100
AcDbVertex
100
AcDb2dVertex
 10
5.3018194812573
 20
-6.223251454420253
 30
0.0
  0
VERTEX
  5
F0
330
E6
100
AcDbEntity
  8
Layer 1
370
     0
100
AcDbVertex
100
AcDb2dVertex
 10
4.91071357246311
 20
-6.223251454420253
 30
0.0
  0
VERTEX
  5
F1
330
E6
100
AcDbEntity
  8
Layer 1
370
     0
100
AcDbVertex
100
AcDb2dVertex
 10
4.912555706492538
 20
-6.227109508708281
 30
0.0
  0
VERTEX
  5
F2
330
E6
100
AcDbEntity
  8
Layer 1
370
     0
100
AcDbVertex
100
AcDb2dVertex
 10
4.912555706492538
 20
-6.687643016064258
 30
0.0
  0
VERTEX
  5
F3
330
E6
100
AcDbEntity
  8
Layer 1
370
     0
100
AcDbVertex
100
AcDb2dVertex
 10
4.91071357246311
 20
-6.691518448975229
 30
0.0
  0
VERTEX
  5
F4
330
E6
100
AcDbEntity
  8
Layer 1
370
     0
100
AcDbVertex
100
AcDb2dVertex
 10
5.423574113428509
 20
-6.691518448975229
 30
0.0
  0
VERTEX
  5
F5
330
E6
100
AcDbEntity
  8
Layer 1
370
     0
100
AcDbVertex
100
AcDb2dVertex
 10
5.423574113428509
 20
-6.86759865639149
 30
0.0
  0
VERTEX
  5
F6
330
E6
100
AcDbEntity
  8
Layer 1
370
     0
100
AcDbVertex
100
AcDb2dVertex
 10
4.742836075064688
 20
-6.86759865639149
 30
0.0
  0
VERTEX
  5
F7
330
E6
100
AcDbEntity
  8
Layer 1
370
     0
100
AcDbVertex
100
AcDb2dVertex
 10
4.742836075064688
 20
-5.513108786077307
 30
0.0
  0
SEQEND
  5
F8
330
E6
100
AcDbEntity
  8
Layer 1
370
     0
  0
HATCH
  5
F9
330
B9
100
AcDbEntity
  8
Layer 1
 62
     1
420
 16711680
100
AcDbHatch
 10
0.0
 20
0.0
 30
0.0
210
0.0
220
0.0
230
1.0
  2
SOLID
 70
     1
 71
     0
 91
        1
 92
        1
 93
       16
 72
     1
 10
4.742836075064688
 20
-5.513108786077307
 11
5.359012529284073
 21
-5.513108786077307
 72
     1
 10
5.359012529284073
 20
-5.513108786077307
 11
5.359012529284073
 21
-5.689188993493568
 72
     1
 10
5.359012529284073
 20
-5.689188993493568
 11
4.91071357246311
 21
-5.689188993493568
 72
     1
 10
4.91071357246311
 20
-5.689188993493568
 11
4.912555706492538
 21
-5.693047047781621
 72
     1
 10
4.912555706492538
 20
-5.693047047781621
 11
4.912555706492538
 21
-6.045224841237061
 72
     1
 10
4.912555706492538
 20
-6.045224841237061
 11
4.91071357246311
 21
-6.049100274148006
 72
     1
 10
4.91071357246311
 20
-6.049100274148006
 11
5.3018194812573
 21
-6.049100274148006
 72
     1
 10
5.3018194812573
 20
-6.049100274148006
 11
5.3018194812573
 21
-6.223251454420253
 72
     1
 10
5.3018194812573
 20
-6.223251454420253
 11
4.91071357246311
 21
-6.223251454420253
 72
     1
 10
4.91071357246311
 20
-6.223251454420253
 11
4.912555706492538
 21
-6.227109508708281
 72
     1
 10
4.912555706492538
 20
-6.227109508708281
 11
4.912555706492538
 21
-6.687643016064258
 72
     1
 10
4.912555706492538
 20
-6.687643016064258
 11
4.91071357246311
 21
-6.691518448975229
 72
     1
 10
4.91071357246311
 20
-6.691518448975229
 11
5.423574113428509
 21
-6.691518448975229
 72
     1
 10
5.423574113428509
 20
-6.691518448975229
 11
5.423574113428509
 21
-6.86759865639149
 72
     1
 10
5.423574113428509
 20
-6.86759865639149
 11
4.742836075064688
 21
-6.86759865639149
 72
     1
 10
4.742836075064688
 20
-6.86759865639149
 11
4.742836075064688
 21
-5.513108786077307
 97
        0
 75
     2
 76
     1
 98
        0
  0
POLYLINE
  5
FA
330
B9
100
AcDbEntity
  8
Layer 1
370
     0
100
AcDb2dPolyline
 66
     1
 10
0.0
 20
0.0
 30
0.0
  0
VERTEX
  5
FB
330
FA
100
AcDbEntity
  8
Layer 1
370
     0
100
AcDbVertex
100
AcDb2dVertex
 10
6.432698610471511
 20
-5.513108786077307
 30
0.0
  0
VERTEX
  5
FC
330
FA
100
AcDbEntity
  8
Layer 1
370
     0
100
AcDbVertex
100
AcDb2dVertex
 10
6.063715688653297
 20
-6.405136121891474
 30
0.0
  0
VERTEX
  5
FD
330
FA
100
AcDbEntity
  8
Layer 1
370
     0
100
AcDbVertex
100
AcDb2dVertex
 10
6.063715688653297
 20
-6.86759865639149
 30
0.0
  0
VERTEX
  5
FE
330
FA
100
AcDbEntity
  8
Layer 1
370
     0
100
AcDbVertex
100
AcDb2dVertex
 10
5.893996057225447
 20
-6.86759865639149
 30
0.0
  0
VERTEX
  5
FF
330
FA
100
AcDbEntity
  8
Layer 1
370
     0
100
AcDbVertex
100
AcDb2dVertex
 10
5.893996057225447
 20
-6.422549502056401
 30
0.0
  0
VERTEX
  5
100
330
FA
100
AcDbEntity
  8
Layer 1
370
     0
100
AcDbVertex
100
AcDb2dVertex
 10
5.525030514030176
 20
-5.513108786077307
 30
0.0
  0
VERTEX
  5
101
330
FA
100
AcDbEntity
  8
Layer 1
370
     0
100
AcDbVertex
100
AcDb2dVertex
 10
5.70950459631634
 20
-5.513108786077307
 30
0.0
  0
VERTEX
  5
102
330
FA
100
AcDbEntity
  8
Layer 1
370
     0
100
AcDbVertex
100
AcDb2dVertex
 10
5.978855872939372
 20
-6.180673828268456
 30
0.0
  0
VERTEX
  5
103
330
FA
100
AcDbEntity
  8
Layer 1
370
     0
100
AcDbVertex
100
AcDb2dVertex
 10
6.248207149562404
 20
-5.513108786077307
 30
0.0
  0
VERTEX
  5
104
330
FA
100
AcDbEntity
  8
Layer 1
370
     0
100
AcDbVertex
100
AcDb2dVertex
 10
6.432698610471511
 20
-5.513108786077307
 30
0.0
  0
SEQEND
  5
105
330
FA
100
AcDbEntity
  8
Layer 1
370
     0
  0
HATCH
  5
106
330
B9
100
AcDbEntity
  8
Layer 1
 62
     1
420
 16711680
100
AcDbHatch
 10
0.0
 20
0.0
 30
0.0
210
0.0
220
0.0
230
1.0
  2
SOLID
 70
     1
 71
     0
 91
        1
 92
        1
 93
        9
 72
     1
 10
6.432698610471511
 20
-5.513108786077307
 11
6.063715688653297
 21
-6.405136121891474
 72
     1
 10
6.063715688653297
 20
-6.405136121891474
 11
6.063715688653297
 21
-6.86759865639149
 72
     1
 10
6.063715688653297
 20
-6.86759865639149
 11
5.893996057225447
 21
-6.86759865639149
 72
     1
 10
5.893996057225447
 20
-6.86759865639149
 11
5.893996057225447
 21
-6.422549502056401
 72
     1
 10
5.893996057225447
 20
-6.422549502056401
 11
5.525030514030176
 21
-5.513108786077307
 72
     1
 10
5.525030514030176
 20
-5.513108786077307
 11
5.70950459631634
 21
-5.513108786077307
 72
     1
 10
5.70950459631634
 20
-5.513108786077307
 11
5.978855872939372
 21
-6.180673828268456
 72
     1
 10
5.978855872939372
 20
-6.180673828268456
 11
6.248207149562404
 21
-5.513108786077307
 72
     1
 10
6.248207149562404
 20
-5.513108786077307
 11
6.432698610471511
 21
-5.513108786077307
 97
        0
 75
     2
 76
     1
 98
        0
  0
ENDBLK
  5
BC
330
B9
100
AcDbEntity
  8
0
100
AcDbBlockEnd
  0
BLOCK
  5
109
330
107
100
AcDbEntity
  8
0
100
AcDbBlockBegin
  2
block 6
 70
     0
 10
0.0
 20
0.0
 30
0.0
  3
block 6
  1

  0
INSERT
  5
10C
330
107
100
AcDbEntity
  8
Layer 1
100
AcDbBlockReference
  2
block 7
 10
0.0
 20
0.0
 30
0.0
  0
INSERT
  5
112
330
107
100
AcDbEntity
  8
Layer 1
100
AcDbBlockReference
  2
block 8
 10
0.0
 20
0.0
 30
0.0
  0
ENDBLK
  5
10A
330
107
100
AcDbEntity
  8
0
100
AcDbBlockEnd
  0
BLOCK
  5
10D
330
10B
100
AcDbEntity
  8
0
100
AcDbBlockBegin
  2
block 7
 70
     0
 10
0.0
 20
0.0
 30
0.0
  3
block 7
  1

  0
SPLINE
  5
10F
330
10B
100
AcDbEntity
  8
Layer 1
370
     0
100
AcDbSpline
210
0.0
220
0.0
230
1.0
 70
    11
 71
     3
 72
    23
 73
    19
 74
     0
 42
0.0000000001
 43
0.0000000001
 12
1.0
 22
0.0
 32
0.0
 13
1.0
 23
0.0
 33
0.0
 40
0.0
 40
0.0
 40
0.0
 40
0.0
 40
1.0
 40
1.0
 40
1.0
 40
2.0
 40
2.0
 40
2.0
 40
3.0
 40
3.0
 40
3.0
 40
4.0
 40
4.0
 40
4.0
 40
5.0
 40
5.0
 40
5.0
 40
6.0
 40
6.0
 40
6.0
 40
6.0
 10
3.244843312160015
 20
-0.4441424656261764
 30
0.0
 10
2.753650655482968
 20
-0.4441424656261764
 30
0.0
 10
2.35537606473464
 20
-0.5985232900000912
 30
0.0
 10
2.35537606473464
 20
-0.7889647569310985
 30
0.0
 10
2.35537606473464
 20
-0.7889647569310985
 30
0.0
 10
2.35537606473464
 20
-1.133751204826265
 30
0.0
 10
2.35537606473464
 20
-1.133751204826265
 30
0.0
 10
2.35537606473464
 20
-1.324192671757285
 30
0.0
 10
2.753650655482968
 20
-1.478435553311771
 30
0.0
 10
3.244843312160015
 20
-1.478435553311771
 30
0.0
 10
3.736070726082895
 20
-1.478435553311771
 30
0.0
 10
4.13434531683126
 20
-1.324192671757285
 30
0.0
 10
4.13434531683126
 20
-1.133751204826265
 30
0.0
 10
4.13434531683126
 20
-1.133751204826265
 30
0.0
 10
4.13434531683126
 20
-0.7889647569310985
 30
0.0
 10
4.13434531683126
 20
-0.7889647569310985
 30
0.0
 10
4.13434531683126
 20
-0.5985232900000912
 30
0.0
 10
3.736070726082895
 20
-0.4441424656261764
 30
0.0
 10
3.244843312160015
 20
-0.4441424656261764
 30
0.0
  0
HATCH
  5
110
330
10B
100
AcDbEntity
  8
Layer 1
 62
     7
420
 15921906
100
AcDbHatch
 10
0.0
 20
0.0
 30
0.0
210
0.0
220
0.0
230
1.0
  2
SOLID
 70
     1
 71
     0
 91
        1
 92
        1
 93
        1
 72
     4
 94
        3
 73
     0
 74
     1
 95
       23
 96
       19
 40
0.0
 40
0.0
 40
0.0
 40
0.0
 40
1.0
 40
1.0
 40
1.0
 40
2.0
 40
2.0
 40
2.0
 40
3.0
 40
3.0
 40
3.0
 40
4.0
 40
4.0
 40
4.0
 40
5.0
 40
5.0
 40
5.0
 40
6.0
 40
6.0
 40
6.0
 40
6.0
 10
3.244843312160015
 20
-0.4441424656261764
 10
2.753650655482968
 20
-0.4441424656261764
 10
2.35537606473464
 20
-0.5985232900000912
 10
2.35537606473464
 20
-0.7889647569310985
 10
2.35537606473464
 20
-0.7889647569310985
 10
2.35537606473464
 20
-1.133751204826265
 10
2.35537606473464
 20
-1.133751204826265
 10
2.35537606473464
 20
-1.324192671757285
 10
2.753650655482968
 20
-1.478435553311771
 10
3.244843312160015
 20
-1.478435553311771
 10
3.736070726082895
 20
-1.478435553311771
 10
4.13434531683126
 20
-1.324192671757285
 10
4.13434531683126
 20
-1.133751204826265
 10
4.13434531683126
 20
-1.133751204826265
 10
4.13434531683126
 20
-0.7889647569310985
 10
4.13434531683126
 20
-0.7889647569310985
 10
4.13434531683126
 20
-0.5985232900000912
 10
3.736070726082895
 20
-0.4441424656261764
 10
3.244843312160015
 20
-0.4441424656261764
 97
        0
 97
        0
 75
     2
 76
     1
 98
        0
  0
ENDBLK
  5
10E
330
10B
100
AcDbEntity
  8
0
100
AcDbBlockEnd
  0
BLOCK
  5
113
330
111
100
AcDbEntity
  8
0
100
AcDbBlockBegin
  2
block 8
 70
     0
 10
0.0
 20
0.0
 30
0.0
  3
block 8
  1

  0
SPLINE
  5
115
330
111
100
AcDbEntity
  8
Layer 1
370
     0
100
AcDbSpline
210
0.0
220
0.0
230
1.0
 70
    11
 71
     3
 72
    23
 73
    19
 74
     0
 42
0.0000000001
 43
0.0000000001
 12
1.0
 22
0.0
 32
0.0
 13
1.0
 23
0.0
 33
0.0
 40
0.0
 40
0.0
 40
0.0
 40
0.0
 40
1.0
 40
1.0
 40
1.0
 40
2.0
 40
2.0
 40
2.0
 40
3.0
 40
3.0
 40
3.0
 40
4.0
 40
4.0
 40
4.0
 40
5.0
 40
5.0
 40
5.0
 40
6.0
 40
6.0
 40
6.0
 40
6.0
 10
3.244842225996081
 20
-1.514026973050073
 30
0.0
 10
2.726116399795513
 20
-1.514026973050073
 30
0.0
 10
2.319786817324193
 20
-1.346992338863199
 30
0.0
 10
2.319786817324193
 20
-1.133747946334463
 30
0.0
 10
2.319786817324193
 20
-1.133747946334463
 30
0.0
 10
2.319786817324193
 20
-0.7889647569310985
 30
0.0
 10
2.319786817324193
 20
-0.7889647569310985
 30
0.0
 10
2.319786817324193
 20
-0.5756508499106935
 30
0.0
 10
2.726116399795513
 20
-0.4085553905435972
 30
0.0
 10
3.244842225996081
 20
-0.4085553905435972
 30
0.0
 10
3.763585430819552
 20
-0.4085553905435972
 30
0.0
 10
4.16993239191384
 20
-0.5756508499106935
 30
0.0
 10
4.16993239191384
 20
-0.7889647569310985
 30
0.0
 10
4.16993239191384
 20
-0.7889647569310985
 30
0.0
 10
4.16993239191384
 20
-1.133747946334463
 30
0.0
 10
4.16993239191384
 20
-1.133747946334463
 30
0.0
 10
4.16993239191384
 20
-1.346992338863199
 30
0.0
 10
3.763585430819552
 20
-1.514026973050073
 30
0.0
 10
3.244842225996081
 20
-1.514026973050073
 30
0.0
  0
SPLINE
  5
116
330
111
100
AcDbEntity
  8
Layer 1
370
     0
100
AcDbSpline
210
0.0
220
0.0
230
1.0
 70
    11
 71
     3
 72
    23
 73
    19
 74
     0
 42
0.0000000001
 43
0.0000000001
 12
1.0
 22
0.0
 32
0.0
 13
1.0
 23
0.0
 33
0.0
 40
0.0
 40
0.0
 40
0.0
 40
0.0
 40
1.0
 40
1.0
 40
1.0
 40
2.0
 40
2.0
 40
2.0
 40
3.0
 40
3.0
 40
3.0
 40
4.0
 40
4.0
 40
4.0
 40
5.0
 40
5.0
 40
5.0
 40
6.0
 40
6.0
 40
6.0
 40
6.0
 10
3.244842225996081
 20
-0.4797382300202142
 30
0.0
 10
2.734075809092461
 20
-0.4797382300202142
 30
0.0
 10
2.390969656800798
 20
-0.6396302501873379
 30
0.0
 10
2.390969656800798
 20
-0.7889647569310985
 30
0.0
 10
2.390969656800798
 20
-0.7889647569310985
 30
0.0
 10
2.390969656800798
 20
-1.133747946334463
 30
0.0
 10
2.390969656800798
 20
-1.133747946334463
 30
0.0
 10
2.390969656800798
 20
-1.283021627898014
 30
0.0
 10
2.734075809092461
 20
-1.442844133573468
 30
0.0
 10
3.244842225996081
 20
-1.442844133573468
 30
0.0
 10
3.755626021522605
 20
-1.442844133573468
 30
0.0
 10
4.09874955243721
 20
-1.283021627898014
 30
0.0
 10
4.09874955243721
 20
-1.133747946334463
 30
0.0
 10
4.09874955243721
 20
-1.133747946334463
 30
0.0
 10
4.09874955243721
 20
-0.7889647569310985
 30
0.0
 10
4.09874955243721
 20
-0.7889647569310985
 30
0.0
 10
4.09874955243721
 20
-0.6396302501873379
 30
0.0
 10
3.755626021522605
 20
-0.4797382300202142
 30
0.0
 10
3.244842225996081
 20
-0.4797382300202142
 30
0.0
  0
HATCH
  5
117
330
111
100
AcDbEntity
  8
Layer 1
 62
     7
420
 15921906
100
AcDbHatch
 10
0.0
 20
0.0
 30
0.0
210
0.0
220
0.0
230
1.0
  2
SOLID
 70
     1
 71
     0
 91
        2
 92
        1
 93
        1
 72
     4
 94
        3
 73
     0
 74
     1
 95
       23
 96
       19
 40
0.0
 40
0.0
 40
0.0
 40
0.0
 40
1.0
 40
1.0
 40
1.0
 40
2.0
 40
2.0
 40
2.0
 40
3.0
 40
3.0
 40
3.0
 40
4.0
 40
4.0
 40
4.0
 40
5.0
 40
5.0
 40
5.0
 40
6.0
 40
6.0
 40
6.0
 40
6.0
 10
3.244842225996081
 20
-1.514026973050073
 10
2.726116399795513
 20
-1.514026973050073
 10
2.319786817324193
 20
-1.346992338863199
 10
2.319786817324193
 20
-1.133747946334463
 10
2.319786817324193
 20
-1.133747946334463
 10
2.319786817324193
 20
-0.7889647569310985
 10
2.319786817324193
 20
-0.7889647569310985
 10
2.319786817324193
 20
-0.5756508499106935
 10
2.726116399795513
 20
-0.4085553905435972
 10
3.244842225996081
 20
-0.4085553905435972
 10
3.763585430819552
 20
-0.4085553905435972
 10
4.16993239191384
 20
-0.5756508499106935
 10
4.16993239191384
 20
-0.7889647569310985
 10
4.16993239191384
 20
-0.7889647569310985
 10
4.16993239191384
 20
-1.133747946334463
 10
4.16993239191384
 20
-1.133747946334463
 10
4.16993239191384
 20
-1.346992338863199
 10
3.763585430819552
 20
-1.514026973050073
 10
3.244842225996081
 20
-1.514026973050073
 97
        0
 97
        0
 92
        1
 93
        1
 72
     4
 94
        3
 73
     0
 74
     1
 95
       23
 96
       19
 40
0.0
 40
0.0
 40
0.0
 40
0.0
 40
1.0
 40
1.0
 40
1.0
 40
2.0
 40
2.0
 40
2.0
 40
3.0
 40
3.0
 40
3.0
 40
4.0
 40
4.0
 40
4.0
 40
5.0
 40
5.0
 40
5.0
 40
6.0
 40
6.0
 40
6.0
 40
6.0
 10
3.244842225996081
 20
-0.4797382300202142
 10
2.734075809092461
 20
-0.4797382300202142
 10
2.390969656800798
 20
-0.6396302501873379
 10
2.390969656800798
 20
-0.7889647569310985
 10
2.390969656800798
 20
-0.7889647569310985
 10
2.390969656800798
 20
-1.133747946334463
 10
2.390969656800798
 20
-1.133747946334463
 10
2.390969656800798
 20
-1.283021627898014
 10
2.734075809092461
 20
-1.442844133573468
 10
3.244842225996081
 20
-1.442844133573468
 10
3.755626021522605
 20
-1.442844133573468
 10
4.09874955243721
 20
-1.283021627898014
 10
4.09874955243721
 20
-1.133747946334463
 10
4.09874955243721
 20
-1.133747946334463
 10
4.09874955243721
 20
-0.7889647569310985
 10
4.09874955243721
 20
-0.7889647569310985
 10
4.09874955243721
 20
-0.6396302501873379
 10
3.755626021522605
 20
-0.4797382300202142
 10
3.244842225996081
 20
-0.4797382300202142
 97
        0
 97
        0
 75
     2
 76
     1
 98
        0
  0
ENDBLK
  5
114
330
111
100
AcDbEntity
  8
0
100
AcDbBlockEnd
  0
BLOCK
  5
11A
330
118
100
AcDbEntity
  8
0
100
AcDbBlockBegin
  2
block 9
 70
     0
 10
0.0
 20
0.0
 30
0.0
  3
block 9
  1

  0
INSERT
  5
11D
330
118
100
AcDbEntity
  8
Layer 1
100
AcDbBlockReference
  2
block 10
 10
0.0
 20
0.0
 30
0.0
  0
INSERT
  5
123
330
118
100
AcDbEntity
  8
Layer 1
100
AcDbBlockReference
  2
block 11
 10
0.0
 20
0.0
 30
0.0
  0
INSERT
  5
12F
330
118
100
AcDbEntity
  8
Layer 1
100
AcDbBlockReference
  2
block 12
 10
0.0
 20
0.0
 30
0.0
  0
INSERT
  5
135
330
118
100
AcDbEntity
  8
Layer 1
100
AcDbBlockReference
  2
block 13
 10
0.0
 20
0.0
 30
0.0
  0
ENDBLK
  5
11B
330
118
100
AcDbEntity
  8
0
100
AcDbBlockEnd
  0
BLOCK
  5
11E
330
11C
100
AcDbEntity
  8
0
100
AcDbBlockBegin
  2
block 10
 70
     0
 10
0.0
 20
0.0
 30
0.0
  3
block 10
  1

  0
SPLINE
  5
120
330
11C
100
AcDbEntity
  8
Layer 1
370
     0
100
AcDbSpline
210
0.0
220
0.0
230
1.0
 70
    11
 71
     3
 72
    17
 73
    13
 74
     0
 42
0.0000000001
 43
0.0000000001
 12
1.0
 22
0.0
 32
0.0
 13
1.0
 23
0.0
 33
0.0
 40
0.0
 40
0.0
 40
0.0
 40
0.0
 40
1.0
 40
1.0
 40
1.0
 40
2.0
 40
2.0
 40
2.0
 40
3.0
 40
3.0
 40
3.0
 40
4.0
 40
4.0
 40
4.0
 40
4.0
 10
2.355375706455245
 20
-1.133751640651389
 30
0.0
 10
2.355375706455245
 20
-1.324192669701435
 30
0.0
 10
2.753650746113092
 20
-1.478435331563446
 30
0.0
 10
3.244843423142306
 20
-1.478435331563446
 30
0.0
 10
3.736070548559635
 20
-1.478435331563446
 30
0.0
 10
4.134345588217507
 20
-1.324192669701435
 30
0.0
 10
4.134345588217507
 20
-1.133751640651389
 30
0.0
 10
4.134345588217507
 20
-0.9432761632123174
 30
0.0
 10
3.736070548559635
 20
-0.788964604572306
 30
0.0
 10
3.244843423142306
 20
-0.788964604572306
 30
0.0
 10
2.753650746113092
 20
-0.788964604572306
 30
0.0
 10
2.355375706455245
 20
-0.9432761632123174
 30
0.0
 10
2.355375706455245
 20
-1.133751640651389
 30
0.0
  0
HATCH
  5
121
330
11C
100
AcDbEntity
  8
Layer 1
 62
     7
420
 16777215
100
AcDbHatch
 10
0.0
 20
0.0
 30
0.0
210
0.0
220
0.0
230
1.0
  2
SOLID
 70
     1
 71
     0
 91
        1
 92
        1
 93
        1
 72
     4
 94
        3
 73
     0
 74
     1
 95
       17
 96
       13
 40
0.0
 40
0.0
 40
0.0
 40
0.0
 40
1.0
 40
1.0
 40
1.0
 40
2.0
 40
2.0
 40
2.0
 40
3.0
 40
3.0
 40
3.0
 40
4.0
 40
4.0
 40
4.0
 40
4.0
 10
2.355375706455245
 20
-1.133751640651389
 10
2.355375706455245
 20
-1.324192669701435
 10
2.753650746113092
 20
-1.478435331563446
 10
3.244843423142306
 20
-1.478435331563446
 10
3.736070548559635
 20
-1.478435331563446
 10
4.134345588217507
 20
-1.324192669701435
 10
4.134345588217507
 20
-1.133751640651389
 10
4.134345588217507
 20
-0.9432761632123174
 10
3.736070548559635
 20
-0.788964604572306
 10
3.244843423142306
 20
-0.788964604572306
 10
2.753650746113092
 20
-0.788964604572306
 10
2.355375706455245
 20
-0.9432761632123174
 10
2.355375706455245
 20
-1.133751640651389
 97
        0
 97
        0
 75
     2
 76
     1
 98
        0
  0
ENDBLK
  5
11F
330
11C
100
AcDbEntity
  8
0
100
AcDbBlockEnd
  0
BLOCK
  5
124
330
122
100
AcDbEntity
  8
0
100
AcDbBlockBegin
  2
block 11
 70
     0
 10
0.0
 20
0.0
 30
0.0
  3
block 11
  1

  0
POLYLINE
  5
126
330
122
100
AcDbEntity
  8
Layer 1
370
     0
100
AcDb2dPolyline
 66
     1
 10
0.0
 20
0.0
 30
0.0
  0
VERTEX
  5
127
330
126
100
AcDbEntity
  8
Layer 1
370
     0
100
AcDbVertex
100
AcDb2dVertex
 10
2.355375706455245
 20
-1.133751640651389
 30
0.0
  0
VERTEX
  5
128
330
126
100
AcDbEntity
  8
Layer 1
370
     0
100
AcDbVertex
100
AcDb2dVertex
 10
4.134345588217507
 20
-1.133751640651389
 30
0.0
  0
VERTEX
  5
129
330
126
100
AcDbEntity
  8
Layer 1
370
     0
100
AcDbVertex
100
AcDb2dVertex
 10
4.134345588217507
 20
-0.788964604572306
 30
0.0
  0
VERTEX
  5
12A
330
126
100
AcDbEntity
  8
Layer 1
370
     0
100
AcDbVertex
100
AcDb2dVertex
 10
2.355375706455245
 20
-0.788964604572306
 30
0.0
  0
VERTEX
  5
12B
330
126
100
AcDbEntity
  8
Layer 1
370
     0
100
AcDbVertex
100
AcDb2dVertex
 10
2.355375706455245
 20
-1.133751640651389
 30
0.0
  0
SEQEND
  5
12D
330
126
100
AcDbEntity
  8
Layer 1
370
     0
  0
HATCH
  5
12C
330
122
100
AcDbEntity
  8
Layer 1
 62
     7
420
 16777215
100
AcDbHatch
 10
0.0
 20
0.0
 30
0.0
210
0.0
220
0.0
230
1.0
  2
SOLID
 70
     1
 71
     0
 91
        1
 92
        1
 93
        4
 72
     1
 10
2.355375706455245
 20
-1.133751640651389
 11
4.134345588217507
 21
-1.133751640651389
 72
     1
 10
4.134345588217507
 20
-1.133751640651389
 11
4.134345588217507
 21
-0.788964604572306
 72
     1
 10
4.134345588217507
 20
-0.788964604572306
 11
2.355375706455245
 21
-0.788964604572306
 72
     1
 10
2.355375706455245
 20
-0.788964604572306
 11
2.355375706455245
 21
-1.133751640651389
 97
        0
 75
     2
 76
     1
 98
        0
  0
ENDBLK
  5
125
330
122
100
AcDbEntity
  8
0
100
AcDbBlockEnd
  0
BLOCK
  5
130
330
12E
100
AcDbEntity
  8
0
100
AcDbBlockBegin
  2
block 12
 70
     0
 10
0.0
 20
0.0
 30
0.0
  3
block 12
  1

  0
SPLINE
  5
132
330
12E
100
AcDbEntity
  8
Layer 1
370
     0
100
AcDbSpline
210
0.0
220
0.0
230
1.0
 70
    11
 71
     3
 72
    17
 73
    13
 74
     0
 42
0.0000000001
 43
0.0000000001
 12
1.0
 22
0.0
 32
0.0
 13
1.0
 23
0.0
 33
0.0
 40
0.0
 40
0.0
 40
0.0
 40
0.0
 40
1.0
 40
1.0
 40
1.0
 40
2.0
 40
2.0
 40
2.0
 40
3.0
 40
3.0
 40
3.0
 40
4.0
 40
4.0
 40
4.0
 40
4.0
 10
2.355375706455245
 20
-0.788964604572306
 30
0.0
 10
2.355375706455245
 20
-0.9794400820113651
 30
0.0
 10
2.753650746113092
 20
-1.133751640651389
 30
0.0
 10
3.244843423142306
 20
-1.133751640651389
 30
0.0
 10
3.736070548559635
 20
-1.133751640651389
 30
0.0
 10
4.134345588217507
 20
-0.9794400820113651
 30
0.0
 10
4.134345588217507
 20
-0.788964604572306
 30
0.0
 10
4.134345588217507
 20
-0.5985235755222472
 30
0.0
 10
3.736070548559635
 20
-0.4441431201041597
 30
0.0
 10
3.244843423142306
 20
-0.4441431201041597
 30
0.0
 10
2.753650746113092
 20
-0.4441431201041597
 30
0.0
 10
2.355375706455245
 20
-0.5985235755222472
 30
0.0
 10
2.355375706455245
 20
-0.788964604572306
 30
0.0
  0
HATCH
  5
133
330
12E
100
AcDbEntity
  8
Layer 1
 62
     7
420
 16777215
100
AcDbHatch
 10
0.0
 20
0.0
 30
0.0
210
0.0
220
0.0
230
1.0
  2
SOLID
 70
     1
 71
     0
 91
        1
 92
        1
 93
        1
 72
     4
 94
        3
 73
     0
 74
     1
 95
       17
 96
       13
 40
0.0
 40
0.0
 40
0.0
 40
0.0
 40
1.0
 40
1.0
 40
1.0
 40
2.0
 40
2.0
 40
2.0
 40
3.0
 40
3.0
 40
3.0
 40
4.0
 40
4.0
 40
4.0
 40
4.0
 10
2.355375706455245
 20
-0.788964604572306
 10
2.355375706455245
 20
-0.9794400820113651
 10
2.753650746113092
 20
-1.133751640651389
 10
3.244843423142306
 20
-1.133751640651389
 10
3.736070548559635
 20
-1.133751640651389
 10
4.134345588217507
 20
-0.9794400820113651
 10
4.134345588217507
 20
-0.788964604572306
 10
4.134345588217507
 20
-0.5985235755222472
 10
3.736070548559635
 20
-0.4441431201041597
 10
3.244843423142306
 20
-0.4441431201041597
 10
2.753650746113092
 20
-0.4441431201041597
 10
2.355375706455245
 20
-0.5985235755222472
 10
2.355375706455245
 20
-0.788964604572306
 97
        0
 97
        0
 75
     2
 76
     1
 98
        0
  0
ENDBLK
  5
131
330
12E
100
AcDbEntity
  8
0
100
AcDbBlockEnd
  0
BLOCK
  5
136
330
134
100
AcDbEntity
  8
0
100
AcDbBlockBegin
  2
block 13
 70
     0
 10
0.0
 20
0.0
 30
0.0
  3
block 13
  1

  0
SPLINE
  5
138
330
134
100
AcDbEntity
  8
Layer 1
370
     0
100
AcDbSpline
210
0.0
220
0.0
230
1.0
 70
    11
 71
     3
 72
    17
 73
    13
 74
     0
 42
0.0000000001
 43
0.0000000001
 12
1.0
 22
0.0
 32
0.0
 13
1.0
 23
0.0
 33
0.0
 40
0.0
 40
0.0
 40
0.0
 40
0.0
 40
1.0
 40
1.0
 40
1.0
 40
2.0
 40
2.0
 40
2.0
 40
3.0
 40
3.0
 40
3.0
 40
4.0
 40
4.0
 40
4.0
 40
4.0
 10
2.818713416822056
 20
-0.6042075597114263
 30
0.0
 10
2.818713416822056
 20
-0.6042075597114263
 30
0.0
 10
2.673148307832902
 20
-0.7282768776259065
 30
0.0
 10
2.764147169984021
 20
-0.8276845938370216
 30
0.0
 10
2.855211484072647
 20
-0.9268270574526316
 30
0.0
 10
3.530286724697564
 20
-1.033331141802945
 30
0.0
 10
3.530286724697564
 20
-1.033331141802945
 30
0.0
 10
3.530286724697564
 20
-1.033331141802945
 30
0.0
 10
2.453740119259515
 20
-1.097890867675788
 30
0.0
 10
2.469113949627702
 20
-0.8385840641247012
 30
0.0
 10
2.479510473172986
 20
-0.662139415535762
 30
0.0
 10
2.73871392500895
 20
-0.6042075597114263
 30
0.0
 10
2.818713416822056
 20
-0.6042075597114263
 30
0.0
  0
HATCH
  5
139
330
134
100
AcDbEntity
  8
Layer 1
 62
     1
420
 16711680
100
AcDbHatch
 10
0.0
 20
0.0
 30
0.0
210
0.0
220
0.0
230
1.0
  2
SOLID
 70
     1
 71
     0
 91
        1
 92
        1
 93
        1
 72
     4
 94
        3
 73
     0
 74
     1
 95
       17
 96
       13
 40
0.0
 40
0.0
 40
0.0
 40
0.0
 40
1.0
 40
1.0
 40
1.0
 40
2.0
 40
2.0
 40
2.0
 40
3.0
 40
3.0
 40
3.0
 40
4.0
 40
4.0
 40
4.0
 40
4.0
 10
2.818713416822056
 20
-0.6042075597114263
 10
2.818713416822056
 20
-0.6042075597114263
 10
2.673148307832902
 20
-0.7282768776259065
 10
2.764147169984021
 20
-0.8276845938370216
 10
2.855211484072647
 20
-0.9268270574526316
 10
3.530286724697564
 20
-1.033331141802945
 10
3.530286724697564
 20
-1.033331141802945
 10
3.530286724697564
 20
-1.033331141802945
 10
2.453740119259515
 20
-1.097890867675788
 10
2.469113949627702
 20
-0.8385840641247012
 10
2.479510473172986
 20
-0.662139415535762
 10
2.73871392500895
 20
-0.6042075597114263
 10
2.818713416822056
 20
-0.6042075597114263
 97
        0
 97
        0
 75
     2
 76
     1
 98
        0
  0
ENDBLK
  5
137
330
134
100
AcDbEntity
  8
0
100
AcDbBlockEnd
  0
ENDSEC
  0
SECTION
  2
ENTITIES
  0
INSERT
  5
42
330
1F
100
AcDbEntity
  8
Layer 1
100
AcDbBlockReference
  2
block 2
 10
0.0
 20
0.0
 30
0.0
  0
ENDSEC
  0
SECTION
  2
OBJECTS
  0
DICTIONARY
  5
C
330
0
100
AcDbDictionary
281
     1
  3
ACAD_GROUP
350
D
  3
ACAD_LAYOUT
350
1A
  3
ACAD_MATERIAL
350
3B
  3
ACAD_MLEADERSTYLE
350
13B
  3
ACAD_MLINESTYLE
350
17
  3
ACAD_PLOTSETTINGS
350
19
  3
ACAD_PLOTSTYLENAME
350
E
  3
ACAD_TABLESTYLE
350
13A
  3
ACAD_VISUALSTYLE
350
2A
  0
SUN
  5
3F
330
29
100
AcDbSun
 90
        1
290
     0
 63
     7
421
 16777215
 40
1.0
291
     1
 91
  2455826
 92
 54000000
292
     0
 70
     2
 71
   256
280
     1
  0
DICTIONARY
  5
D
102
{ACAD_REACTORS
330
C
102
}
330
C
100
AcDbDictionary
281
     1
  0
DICTIONARY
  5
1A
102
{ACAD_REACTORS
330
C
102
}
330
C
100
AcDbDictionary
281
     1
  3
Layout1
350
1E
  3
Layout2
350
26
  3
Model
350
22
  0
DICTIONARY
  5
3B
102
{ACAD_REACTORS
330
C
102
}
330
C
100
AcDbDictionary
281
     1
  3
ByBlock
350
3D
  3
ByLayer
350
3C
  3
Global
350
3E
  0
DICTIONARY
  5
13B
102
{ACAD_REACTORS
330
C
102
}
330
C
100
AcDbDictionary
281
     1
  0
DICTIONARY
  5
17
102
{ACAD_REACTORS
330
C
102
}
330
C
100
AcDbDictionary
281
     1
  3
Standard
350
18
  0
DICTIONARY
  5
19
102
{ACAD_REACTORS
330
C
102
}
330
C
100
AcDbDictionary
281
     1
  0
ACDBDICTIONARYWDFLT
  5
E
102
{ACAD_REACTORS
330
C
102
}
330
C
100
AcDbDictionary
281
     1
  3
Normal
350
F
100
AcDbDictionaryWithDefault
340
F
  0
DICTIONARY
  5
13A
102
{ACAD_REACTORS
330
C
102
}
330
C
100
AcDbDictionary
281
     1
  0
DICTIONARY
  5
2A
102
{ACAD_REACTORS
330
C
102
}
330
C
100
AcDbDictionary
281
     1
  3
2dWireframe
350
2F
  3
3D Hidden
350
31
  3
3dWireframe
350
30
  3
Basic
350
32
  3
Brighten
350
36
  3
ColorChange
350
3A
  3
Conceptual
350
34
  3
Dim
350
35
  3
Facepattern
350
39
  3
Flat
350
2B
  3
FlatWithEdges
350
2C
  3
Gouraud
350
2D
  3
GouraudWithEdges
350
2E
  3
Linepattern
350
38
  3
Realistic
350
33
  3
Thicken
350
37
  0
LAYOUT
  5
1E
102
{ACAD_REACTORS
330
1A
102
}
330
1A
100
AcDbPlotSettings
  1

  2
none_device
  4

  6

 40
0.0
 41
0.0
 42
0.0
 43
0.0
 44
0.0
 45
0.0
 46
0.0
 47
0.0
 48
0.0
 49
0.0
140
0.0
141
0.0
142
1.0
143
1.0
 70
   688
 72
     0
 73
     0
 74
     5
  7

 75
    16
 76
     0
 77
     2
 78
   300
147
1.0
148
0.0
149
0.0
100
AcDbLayout
  1
Layout1
 70
     1
 71
     1
 10
0.0
 20
0.0
 11
12.0
 21
9.0
 12
0.0
 22
0.0
 32
0.0
 14
1.000000000000000E+20
 24
1.000000000000000E+20
 34
1.000000000000000E+20
 15
-1.000000000000000E+20
 25
-1.000000000000000E+20
 35
-1.000000000000000E+20
146
0.0
 13
0.0
 23
0.0
 33
0.0
 16
1.0
 26
0.0
 36
0.0
 17
0.0
 27
1.0
 37
0.0
 76
     0
330
1B
  0
LAYOUT
  5
26
102
{ACAD_REACTORS
330
1A
102
}
330
1A
100
AcDbPlotSettings
  1

  2
none_device
  4

  6

 40
0.0
 41
0.0
 42
0.0
 43
0.0
 44
0.0
 45
0.0
 46
0.0
 47
0.0
 48
0.0
 49
0.0
140
0.0
141
0.0
142
1.0
143
1.0
 70
   688
 72
     0
 73
     0
 74
     5
  7

 75
    16
 76
     0
 77
     2
 78
   300
147
1.0
148
0.0
149
0.0
100
AcDbLayout
  1
Layout2
 70
     1
 71
     2
 10
0.0
 20
0.0
 11
0.0
 21
0.0
 12
0.0
 22
0.0
 32
0.0
 14
0.0
 24
0.0
 34
0.0
 15
0.0
 25
0.0
 35
0.0
146
0.0
 13
0.0
 23
0.0
 33
0.0
 16
1.0
 26
0.0
 36
0.0
 17
0.0
 27
1.0
 37
0.0
 76
     0
330
23
  0
LAYOUT
  5
22
102
{ACAD_REACTORS
330
1A
102
}
330
1A
100
AcDbPlotSettings
  1

  2
none_device
  4

  6

 40
0.0
 41
0.0
 42
0.0
 43
0.0
 44
0.0
 45
0.0
 46
0.0
 47
0.0
 48
0.0
 49
0.0
140
0.0
141
0.0
142
1.0
143
1.0
 70
  1712
 72
     0
 73
     0
 74
     0
  7

 75
     0
 76
     0
 77
     2
 78
   300
147
1.0
148
0.0
149
0.0
100
AcDbLayout
  1
Model
 70
     1
 71
     0
 10
0.0
 20
0.0
 11
12.0
 21
9.0
 12
0.0
 22
0.0
 32
0.0
 14
1.000000000000000E+20
 24
1.000000000000000E+20
 34
1.000000000000000E+20
 15
-1.000000000000000E+20
 25
-1.000000000000000E+20
 35
-1.000000000000000E+20
146
0.0
 13
0.0
 23
0.0
 33
0.0
 16
1.0
 26
0.0
 36
0.0
 17
0.0
 27
1.0
 37
0.0
 76
     0
330
1F
331
29
  0
MATERIAL
  5
3D
102
{ACAD_REACTORS
330
3B
102
}
330
3B
100
AcDbMaterial
  1
ByBlock
 72
     1
 94
      127
  0
MATERIAL
  5
3C
102
{ACAD_REACTORS
330
3B
102
}
330
3B
100
AcDbMaterial
  1
ByLayer
 72
     1
 94
      127
  0
MATERIAL
  5
3E
102
{ACAD_REACTORS
330
3B
102
}
330
3B
100
AcDbMaterial
  1
Global
 72
     1
 94
      127
  0
MLINESTYLE
  5
18
102
{ACAD_REACTORS
330
17
102
}
330
17
100
AcDbMlineStyle
  2
Standard
 70
     0
  3

 62
   256
 51
90.0
 52
90.0
 71
     2
 49
0.5
 62
   256
  6
BYLAYER
 49
-0.5
 62
   256
  6
BYLAYER
  0
ACDBPLACEHOLDER
  5
F
102
{ACAD_REACTORS
330
E
102
}
330
E
  0
VISUALSTYLE
  5
2F
102
{ACAD_REACTORS
330
2A
102
}
330
2A
100
AcDbVisualStyle
  2
2dWireframe
 70
     4
177
     2
291
     0
 71
     0
176
     1
 72
     2
176
     1
 73
     0
176
     1
 90
        0
176
     1
 40
-0.6
176
     1
 41
-30.0
176
     1
 62
     5
 63
     7
421
 16777215
176
     1
 74
     1
176
     1
 91
        4
176
     1
 64
     7
176
     1
 65
   257
176
     1
 75
     1
176
     1
175
     1
176
     1
 42
1.0
176
     1
 92
        0
176
     1
 66
   257
176
     1
 43
1.0
176
     1
 76
     1
176
     1
 77
     6
176
     1
 78
     2
176
     1
 67
     7
176
     1
 79
     5
176
     1
170
     0
176
     1
171
     0
176
     1
290
     0
176
     1
 93
        1
176
     1
 44
0.0
176
     1
173
     0
176
     1
  0
VISUALSTYLE
  5
31
102
{ACAD_REACTORS
330
2A
102
}
330
2A
100
AcDbVisualStyle
  2
3D Hidden
 70
     6
177
     2
291
     0
 71
     1
176
     1
 72
     2
176
     1
 73
     2
176
     1
 90
        0
176
     1
 40
-0.6
176
     1
 41
-30.0
176
     1
 62
     5
 63
     7
421
 16777215
176
     1
 74
     2
176
     1
 91
        2
176
     1
 64
     7
176
     1
 65
   257
176
     1
 75
     2
176
     1
175
     1
176
     1
 42
40.0
176
     1
 92
        0
176
     1
 66
   257
176
     1
 43
1.0
176
     1
 76
     1
176
     1
 77
     6
176
     1
 78
     2
176
     1
 67
     7
176
     1
 79
     3
176
     1
170
     0
176
     1
171
     0
176
     1
290
     0
176
     1
 93
        1
176
     1
 44
0.0
176
     1
173
     0
176
     1
  0
VISUALSTYLE
  5
30
102
{ACAD_REACTORS
330
2A
102
}
330
2A
100
AcDbVisualStyle
  2
3dWireframe
 70
     5
177
     2
291
     0
 71
     0
176
     1
 72
     2
176
     1
 73
     0
176
     1
 90
        0
176
     1
 40
-0.6
176
     1
 41
-30.0
176
     1
 62
     5
 63
     7
421
 16777215
176
     1
 74
     1
176
     1
 91
        4
176
     1
 64
     7
176
     1
 65
   257
176
     1
 75
     1
176
     1
175
     1
176
     1
 42
1.0
176
     1
 92
        0
176
     1
 66
   257
176
     1
 43
1.0
176
     1
 76
     1
176
     1
 77
     6
176
     1
 78
     2
176
     1
 67
     7
176
     1
 79
     5
176
     1
170
     0
176
     1
171
     0
176
     1
290
     0
176
     1
 93
        1
176
     1
 44
0.0
176
     1
173
     0
176
     1
  0
VISUALSTYLE
  5
32
102
{ACAD_REACTORS
330
2A
102
}
330
2A
100
AcDbVisualStyle
  2
Basic
 70
     7
177
     2
291
     1
 71
     1
176
     1
 72
     0
176
     1
 73
     1
176
     1
 90
        0
176
     1
 40
-0.6
176
     1
 41
-30.0
176
     1
 62
     5
 63
     7
421
 16777215
176
     1
 74
     0
176
     1
 91
        4
176
     1
 64
     7
176
     1
 65
   257
176
     1
 75
     1
176
     1
175
     1
176
     1
 42
1.0
176
     1
 92
        8
176
     1
 66
     7
176
     1
 43
1.0
176
     1
 76
     1
176
     1
 77
     6
176
     1
 78
     2
176
     1
 67
     7
176
     1
 79
     5
176
     1
170
     0
176
     1
171
     0
176
     1
290
     0
176
     1
 93
        1
176
     1
 44
0.0
176
     1
173
     0
176
     1
  0
VISUALSTYLE
  5
36
102
{ACAD_REACTORS
330
2A
102
}
330
2A
100
AcDbVisualStyle
  2
Brighten
 70
    12
177
     2
291
     1
 71
     2
176
     1
 72
     2
176
     1
 73
     0
176
     1
 90
        0
176
     1
 40
-0.6
176
     1
 41
-30.0
176
     1
 62
     5
 63
     7
421
 16777215
176
     1
 74
     1
176
     1
 91
        4
176
     1
 64
     7
176
     1
 65
   257
176
     1
 75
     1
176
     1
175
     1
176
     1
 42
1.0
176
     1
 92
        8
176
     1
 66
     7
176
     1
 43
1.0
176
     1
 76
     1
176
     1
 77
     6
176
     1
 78
     2
176
     1
 67
     7
176
     1
 79
     5
176
     1
170
     0
176
     1
171
     0
176
     1
290
     0
176
     1
 93
        1
176
     1
 44
50.0
176
     1
173
     0
176
     1
  0
VISUALSTYLE
  5
3A
102
{ACAD_REACTORS
330
2A
102
}
330
2A
100
AcDbVisualStyle
  2
ColorChange
 70
    16
177
     2
291
     1
 71
     2
176
     1
 72
     2
176
     1
 73
     3
176
     1
 90
        0
176
     1
 40
-0.6
176
     1
 41
-30.0
176
     1
 62
     5
 63
     8
421
  8421504
176
     1
 74
     1
176
     1
 91
        4
176
     1
 64
     7
176
     1
 65
   257
176
     1
 75
     1
176
     1
175
     1
176
     1
 42
1.0
176
     1
 92
        8
176
     1
 66
     8
424
  8421504
176
     1
 43
1.0
176
     1
 76
     1
176
     1
 77
     6
176
     1
 78
     2
176
     1
 67
     7
176
     1
 79
     5
176
     1
170
     0
176
     1
171
     0
176
     1
290
     0
176
     1
 93
        1
176
     1
 44
0.0
176
     1
173
     0
176
     1
  0
VISUALSTYLE
  5
34
102
{ACAD_REACTORS
330
2A
102
}
330
2A
100
AcDbVisualStyle
  2
Conceptual
 70
     9
177
     2
291
     0
 71
     3
176
     1
 72
     2
176
     1
 73
     0
176
     1
 90
        0
176
     1
 40
-0.6
176
     1
 41
-30.0
176
     1
 62
     5
 63
     7
421
 16777215
176
     1
 74
     2
176
     1
 91
        2
176
     1
 64
     7
176
     1
 65
   257
176
     1
 75
     1
176
     1
175
     1
176
     1
 42
40.0
176
     1
 92
        8
176
     1
 66
     7
176
     1
 43
1.0
176
     1
 76
     1
176
     1
 77
     6
176
     1
 78
     2
176
     1
 67
     7
176
     1
 79
     3
176
     1
170
     0
176
     1
171
     0
176
     1
290
     0
176
     1
 93
        1
176
     1
 44
0.0
176
     1
173
     0
176
     1
  0
VISUALSTYLE
  5
35
102
{ACAD_REACTORS
330
2A
102
}
330
2A
100
AcDbVisualStyle
  2
Dim
 70
    11
177
     2
291
     1
 71
     2
176
     1
 72
     2
176
     1
 73
     0
176
     1
 90
        0
176
     1
 40
-0.6
176
     1
 41
-30.0
176
     1
 62
     5
 63
     7
421
 16777215
176
     1
 74
     1
176
     1
 91
        4
176
     1
 64
     7
176
     1
 65
   257
176
     1
 75
     1
176
     1
175
     1
176
     1
 42
1.0
176
     1
 92
        8
176
     1
 66
     7
176
     1
 43
1.0
176
     1
 76
     1
176
     1
 77
     6
176
     1
 78
     2
176
     1
 67
     7
176
     1
 79
     5
176
     1
170
     0
176
     1
171
     0
176
     1
290
     0
176
     1
 93
        1
176
     1
 44
-50.0
176
     1
173
     0
176
     1
  0
VISUALSTYLE
  5
39
102
{ACAD_REACTORS
330
2A
102
}
330
2A
100
AcDbVisualStyle
  2
Facepattern
 70
    15
177
     2
291
     1
 71
     2
176
     1
 72
     2
176
     1
 73
     0
176
     1
 90
        0
176
     1
 40
-0.6
176
     1
 41
-30.0
176
     1
 62
     5
 63
     7
421
 16777215
176
     1
 74
     1
176
     1
 91
        4
176
     1
 64
     7
176
     1
 65
   257
176
     1
 75
     1
176
     1
175
     1
176
     1
 42
1.0
176
     1
 92
        8
176
     1
 66
     7
176
     1
 43
1.0
176
     1
 76
     1
176
     1
 77
     6
176
     1
 78
     2
176
     1
 67
     7
176
     1
 79
     5
176
     1
170
     0
176
     1
171
     0
176
     1
290
     0
176
     1
 93
        1
176
     1
 44
0.0
176
     1
173
     0
176
     1
  0
VISUALSTYLE
  5
2B
102
{ACAD_REACTORS
330
2A
102
}
330
2A
100
AcDbVisualStyle
  2
Flat
 70
     0
177
     2
291
     1
 71
     2
176
     1
 72
     1
176
     1
 73
     1
176
     1
 90
        2
176
     1
 40
-0.6
176
     1
 41
30.0
176
     1
 62
     5
 63
     7
421
 16777215
176
     1
 74
     0
176
     1
 91
        4
176
     1
 64
     7
176
     1
 65
   257
176
     1
 75
     1
176
     1
175
     1
176
     1
 42
1.0
176
     1
 92
        8
176
     1
 66
     7
176
     1
 43
1.0
176
     1
 76
     1
176
     1
 77
     6
176
     1
 78
     2
176
     1
 67
     7
176
     1
 79
     5
176
     1
170
     0
176
     1
171
     0
176
     1
290
     0
176
     1
 93
       13
176
     1
 44
0.0
176
     1
173
     0
176
     1
  0
VISUALSTYLE
  5
2C
102
{ACAD_REACTORS
330
2A
102
}
330
2A
100
AcDbVisualStyle
  2
FlatWithEdges
 70
     1
177
     2
291
     1
 71
     2
176
     1
 72
     1
176
     1
 73
     1
176
     1
 90
        2
176
     1
 40
-0.6
176
     1
 41
30.0
176
     1
 62
     5
 63
     7
421
 16777215
176
     1
 74
     1
176
     1
 91
        4
176
     1
 64
     7
176
     1
 65
   257
176
     1
 75
     1
176
     1
175
     1
176
     1
 42
1.0
176
     1
 92
        0
176
     1
 66
   257
176
     1
 43
1.0
176
     1
 76
     1
176
     1
 77
     6
176
     1
 78
     2
176
     1
 67
     7
176
     1
 79
     5
176
     1
170
     0
176
     1
171
     0
176
     1
290
     0
176
     1
 93
       13
176
     1
 44
0.0
176
     1
173
     0
176
     1
  0
VISUALSTYLE
  5
2D
102
{ACAD_REACTORS
330
2A
102
}
330
2A
100
AcDbVisualStyle
  2
Gouraud
 70
     2
177
     2
291
     1
 71
     2
176
     1
 72
     2
176
     1
 73
     1
176
     1
 90
        2
176
     1
 40
-0.6
176
     1
 41
30.0
176
     1
 62
     5
 63
     7
421
 16777215
176
     1
 74
     0
176
     1
 91
        4
176
     1
 64
     7
176
     1
 65
   257
176
     1
 75
     1
176
     1
175
     1
176
     1
 42
1.0
176
     1
 92
        0
176
     1
 66
     7
176
     1
 43
1.0
176
     1
 76
     1
176
     1
 77
     6
176
     1
 78
     2
176
     1
 67
     7
176
     1
 79
     5
176
     1
170
     0
176
     1
171
     0
176
     1
290
     0
176
     1
 93
       13
176
     1
 44
0.0
176
     1
173
     0
176
     1
  0
VISUALSTYLE
  5
2E
102
{ACAD_REACTORS
330
2A
102
}
330
2A
100
AcDbVisualStyle
  2
GouraudWithEdges
 70
     3
177
     2
291
     1
 71
     2
176
     1
 72
     2
176
     1
 73
     1
176
     1
 90
        2
176
     1
 40
-0.6
176
     1
 41
30.0
176
     1
 62
     5
 63
     7
421
 16777215
176
     1
 74
     1
176
     1
 91
        4
176
     1
 64
     7
176
     1
 65
   257
176
     1
 75
     1
176
     1
175
     1
176
     1
 42
1.0
176
     1
 92
        0
176
     1
 66
   257
176
     1
 43
1.0
176
     1
 76
     1
176
     1
 77
     6
176
     1
 78
     2
176
     1
 67
     7
176
     1
 79
     5
176
     1
170
     0
176
     1
171
     0
176
     1
290
     0
176
     1
 93
       13
176
     1
 44
0.0
176
     1
173
     0
176
     1
  0
VISUALSTYLE
  5
38
102
{ACAD_REACTORS
330
2A
102
}
330
2A
100
AcDbVisualStyle
  2
Linepattern
 70
    14
177
     2
291
     1
 71
     2
176
     1
 72
     2
176
     1
 73
     0
176
     1
 90
        0
176
     1
 40
-0.6
176
     1
 41
-30.0
176
     1
 62
     5
 63
     7
421
 16777215
176
     1
 74
     1
176
     1
 91
        4
176
     1
 64
     7
176
     1
 65
   257
176
     1
 75
     7
176
     1
175
     7
176
     1
 42
1.0
176
     1
 92
        8
176
     1
 66
     7
176
     1
 43
1.0
176
     1
 76
     1
176
     1
 77
     6
176
     1
 78
     2
176
     1
 67
     7
176
     1
 79
     5
176
     1
170
     0
176
     1
171
     0
176
     1
290
     0
176
     1
 93
        1
176
     1
 44
0.0
176
     1
173
     0
176
     1
  0
VISUALSTYLE
  5
33
102
{ACAD_REACTORS
330
2A
102
}
330
2A
100
AcDbVisualStyle
  2
Realistic
 70
     8
177
     2
291
     0
 71
     2
176
     1
 72
     2
176
     1
 73
     0
176
     1
 90
        0
176
     1
 40
-0.6
176
     1
 41
-30.0
176
     1
 62
     5
 63
     7
421
 16777215
176
     1
 74
     1
176
     1
 91
        0
176
     1
 64
     7
176
     1
 65
   257
176
     1
 75
     1
176
     1
175
     1
176
     1
 42
1.0
176
     1
 92
        8
176
     1
 66
     8
424
  7895160
176
     1
 43
1.0
176
     1
 76
     1
176
     1
 77
     6
176
     1
 78
     2
176
     1
 67
     7
176
     1
 79
     5
176
     1
170
     0
176
     1
171
     0
176
     1
290
     0
176
     1
 93
       13
176
     1
 44
0.0
176
     1
173
     0
176
     1
  0
VISUALSTYLE
  5
37
102
{ACAD_REACTORS
330
2A
102
}
330
2A
100
AcDbVisualStyle
  2
Thicken
 70
    13
177
     2
291
     1
 71
     2
176
     1
 72
     2
176
     1
 73
     0
176
     1
 90
        0
176
     1
 40
-0.6
176
     1
 41
-30.0
176
     1
 62
     5
 63
     7
421
 16777215
176
     1
 74
     1
176
     1
 91
        4
176
     1
 64
     7
176
     1
 65
   257
176
     1
 75
     1
176
     1
175
     1
176
     1
 42
1.0
176
     1
 92
       12
176
     1
 66
     7
176
     1
 43
1.0
176
     1
 76
     1
176
     1
 77
     6
176
     1
 78
     2
176
     1
 67
     7
176
     1
 79
     5
176
     1
170
     0
176
     1
171
     0
176
     1
290
     0
176
     1
 93
        1
176
     1
 44
0.0
176
     1
173
     0
176
     1
  0
ENDSEC
  0
EOF
