  0
SECTION
  2
HEADER
  9
$ACADVER
  1
AC1009
  9
$FILLMODE
 70
 0
  9
$SPLFRAME
 70
 1
  9
$EXTMIN
 10
0
 20
0
 30
0.0
  9
$EXTMAX
 10
41.6667
 20
41.6667
 30
0.0
  0
ENDSEC
  0
SECTION
  2
TABLES
  0
TABLE
  2
LAYER
 70
1
  0
LAYER
  2
0
 70
     0
 62
     7
  6
CONTINUOUS
  0
ENDTAB
  0
ENDSEC
  0
SECTION
  2
ENTITIES
  0
POLYLINE
  8
0
 62
     0
 66
     1
 10
0
 20
0
 30
0.0
 70
     1
 40
0
 41
0
  0
VERTEX
  8
0
 10
1.5249
 20
6.21278
 30
0.0
 40
0
 41
0
  0
VERTEX
  8
0
 10
1.5249
 20
3.47472
 30
0.0
 40
0
 41
0
  0
VERTEX
  8
0
 10
10.8702
 20
3.47472
 30
0.0
 40
0
 41
0
  0
VERTEX
  8
0
 10
10.8702
 20
6.21278
 30
0.0
 40
0
 41
0
  0
VERTEX
  8
0
 10
1.5249
 20
6.21278
 30
0.0
 40
0
 41
0
  0
SEQEND
 8
0
  0
POLYLINE
  8
0
 62
     0
 66
     1
 10
0
 20
0
 30
0.0
 70
     1
 40
0
 41
0
  0
VERTEX
  8
0
 10
5.56392
 20
5.99685
 30
0.0
 40
0
 41
0
  0
VERTEX
  8
0
 10
5.6219
 20
5.99685
 30
0.0
 40
0
 41
0
  0
VERTEX
  8
0
 10
5.79596
 20
5.97228
 30
0.0
 40
0
 41
0
  0
VERTEX
  8
0
 10
5.956
 20
5.91482
 30
0.0
 40
0
 41
0
  0
VERTEX
  8
0
 10
5.98361
 20
5.89839
 30
0.0
 40
0
 41
0
  0
VERTEX
  8
0
 10
6.01118
 20
5.882
 30
0.0
 40
0
 41
0
  0
VERTEX
  8
0
 10
6.12061
 20
5.78771
 30
0.0
 40
0
 41
0
  0
VERTEX
  8
0
 10
6.19228
 20
5.67697
 30
0.0
 40
0
 41
0
  0
VERTEX
  8
0
 10
6.20096
 20
5.65235
 30
0.0
 40
0
 41
0
  0
VERTEX
  8
0
 10
6.20958
 20
5.62799
 30
0.0
 40
0
 41
0
  0
VERTEX
  8
0
 10
6.23986
 20
5.46506
 30
0.0
 40
0
 41
0
  0
VERTEX
  8
0
 10
6.25288
 20
5.26307
 30
0.0
 40
0
 41
0
  0
VERTEX
  8
0
 10
6.25288
 20
5.19575
 30
0.0
 40
0
 41
0
  0
VERTEX
  8
0
 10
6.25288
 20
4.98525
 30
0.0
 40
0
 41
0
  0
VERTEX
  8
0
 10
5.67736
 20
4.98525
 30
0.0
 40
0
 41
0
  0
VERTEX
  8
0
 10
5.67736
 20
5.37071
 30
0.0
 40
0
 41
0
  0
VERTEX
  8
0
 10
5.67736
 20
5.38976
 30
0.0
 40
0
 41
0
  0
VERTEX
  8
0
 10
5.67617
 20
5.44689
 30
0.0
 40
0
 41
0
  0
VERTEX
  8
0
 10
5.67258
 20
5.50711
 30
0.0
 40
0
 41
0
  0
VERTEX
  8
0
 10
5.66661
 20
5.55143
 30
0.0
 40
0
 41
0
  0
VERTEX
  8
0
 10
5.66135
 20
5.57324
 30
0.0
 40
0
 41
0
  0
VERTEX
  8
0
 10
5.65826
 20
5.57986
 30
0.0
 40
0
 41
0
  0
VERTEX
  8
0
 10
5.65528
 20
5.58697
 30
0.0
 40
0
 41
0
  0
VERTEX
  8
0
 10
5.62918
 20
5.61171
 30
0.0
 40
0
 41
0
  0
VERTEX
  8
0
 10
5.59044
 20
5.62229
 30
0.0
 40
0
 41
0
  0
VERTEX
  8
0
 10
5.57758
 20
5.62229
 30
0.0
 40
0
 41
0
  0
VERTEX
  8
0
 10
5.56304
 20
5.62229
 30
0.0
 40
0
 41
0
  0
VERTEX
  8
0
 10
5.51947
 20
5.60965
 30
0.0
 40
0
 41
0
  0
VERTEX
  8
0
 10
5.4905
 20
5.58014
 30
0.0
 40
0
 41
0
  0
VERTEX
  8
0
 10
5.48736
 20
5.57167
 30
0.0
 40
0
 41
0
  0
VERTEX
  8
0
 10
5.48438
 20
5.56386
 30
0.0
 40
0
 41
0
  0
VERTEX
  8
0
 10
5.47894
 20
5.53907
 30
0.0
 40
0
 41
0
  0
VERTEX
  8
0
 10
5.47299
 20
5.49175
 30
0.0
 40
0
 41
0
  0
VERTEX
  8
0
 10
5.4694
 20
5.42974
 30
0.0
 40
0
 41
0
  0
VERTEX
  8
0
 10
5.46821
 20
5.37218
 30
0.0
 40
0
 41
0
  0
VERTEX
  8
0
 10
5.46821
 20
5.35297
 30
0.0
 40
0
 41
0
  0
VERTEX
  8
0
 10
5.46821
 20
4.32497
 30
0.0
 40
0
 41
0
  0
VERTEX
  8
0
 10
5.46821
 20
4.30658
 30
0.0
 40
0
 41
0
  0
VERTEX
  8
0
 10
5.4694
 20
4.25136
 30
0.0
 40
0
 41
0
  0
VERTEX
  8
0
 10
5.47299
 20
4.19168
 30
0.0
 40
0
 41
0
  0
VERTEX
  8
0
 10
5.47894
 20
4.14606
 30
0.0
 40
0
 41
0
  0
VERTEX
  8
0
 10
5.48438
 20
4.12201
 30
0.0
 40
0
 41
0
  0
VERTEX
  8
0
 10
5.48736
 20
4.11442
 30
0.0
 40
0
 41
0
  0
VERTEX
  8
0
 10
5.4905
 20
4.10622
 30
0.0
 40
0
 41
0
  0
VERTEX
  8
0
 10
5.51844
 20
4.07753
 30
0.0
 40
0
 41
0
  0
VERTEX
  8
0
 10
5.55968
 20
4.06521
 30
0.0
 40
0
 41
0
  0
VERTEX
  8
0
 10
5.57346
 20
4.06521
 30
0.0
 40
0
 41
0
  0
VERTEX
  8
0
 10
5.58669
 20
4.06521
 30
0.0
 40
0
 41
0
  0
VERTEX
  8
0
 10
5.62642
 20
4.07753
 30
0.0
 40
0
 41
0
  0
VERTEX
  8
0
 10
5.65365
 20
4.10622
 30
0.0
 40
0
 41
0
  0
VERTEX
  8
0
 10
5.65685
 20
4.11442
 30
0.0
 40
0
 41
0
  0
VERTEX
  8
0
 10
5.66026
 20
4.12267
 30
0.0
 40
0
 41
0
  0
VERTEX
  8
0
 10
5.67219
 20
4.19683
 30
0.0
 40
0
 41
0
  0
VERTEX
  8
0
 10
5.67736
 20
4.30832
 30
0.0
 40
0
 41
0
  0
VERTEX
  8
0
 10
5.67736
 20
4.34549
 30
0.0
 40
0
 41
0
  0
VERTEX
  8
0
 10
5.67736
 20
4.62299
 30
0.0
 40
0
 41
0
  0
VERTEX
  8
0
 10
6.25288
 20
4.62299
 30
0.0
 40
0
 41
0
  0
VERTEX
  8
0
 10
6.25288
 20
4.53683
 30
0.0
 40
0
 41
0
  0
VERTEX
  8
0
 10
6.25288
 20
4.49707
 30
0.0
 40
0
 41
0
  0
VERTEX
  8
0
 10
6.24978
 20
4.37776
 30
0.0
 40
0
 41
0
  0
VERTEX
  8
0
 10
6.24056
 20
4.24365
 30
0.0
 40
0
 41
0
  0
VERTEX
  8
0
 10
6.22515
 20
4.13444
 30
0.0
 40
0
 41
0
  0
VERTEX
  8
0
 10
6.21067
 20
4.07069
 30
0.0
 40
0
 41
0
  0
VERTEX
  8
0
 10
6.20367
 20
4.05018
 30
0.0
 40
0
 41
0
  0
VERTEX
  8
0
 10
6.19569
 20
4.02626
 30
0.0
 40
0
 41
0
  0
VERTEX
  8
0
 10
6.12608
 20
3.91558
 30
0.0
 40
0
 41
0
  0
VERTEX
  8
0
 10
6.01682
 20
3.81668
 30
0.0
 40
0
 41
0
  0
VERTEX
  8
0
 10
5.98904
 20
3.79867
 30
0.0
 40
0
 41
0
  0
VERTEX
  8
0
 10
5.96149
 20
3.78071
 30
0.0
 40
0
 41
0
  0
VERTEX
  8
0
 10
5.80414
 20
3.71767
 30
0.0
 40
0
 41
0
  0
VERTEX
  8
0
 10
5.63624
 20
3.69065
 30
0.0
 40
0
 41
0
  0
VERTEX
  8
0
 10
5.58029
 20
3.69065
 30
0.0
 40
0
 41
0
  0
VERTEX
  8
0
 10
5.52263
 20
3.69065
 30
0.0
 40
0
 41
0
  0
VERTEX
  8
0
 10
5.34961
 20
3.7136
 30
0.0
 40
0
 41
0
  0
VERTEX
  8
0
 10
5.19069
 20
3.76704
 30
0.0
 40
0
 41
0
  0
VERTEX
  8
0
 10
5.16336
 20
3.78228
 30
0.0
 40
0
 41
0
  0
VERTEX
  8
0
 10
5.13601
 20
3.79758
 30
0.0
 40
0
 41
0
  0
VERTEX
  8
0
 10
5.02701
 20
3.89133
 30
0.0
 40
0
 41
0
  0
VERTEX
  8
0
 10
4.95486
 20
4.00831
 30
0.0
 40
0
 41
0
  0
VERTEX
  8
0
 10
4.94601
 20
4.03515
 30
0.0
 40
0
 41
0
  0
VERTEX
  8
0
 10
4.93946
 20
4.05507
 30
0.0
 40
0
 41
0
  0
VERTEX
  8
0
 10
4.91411
 20
4.17654
 30
0.0
 40
0
 41
0
  0
VERTEX
  8
0
 10
4.89833
 20
4.32726
 30
0.0
 40
0
 41
0
  0
VERTEX
  8
0
 10
4.8966
 20
4.36171
 30
0.0
 40
0
 41
0
  0
VERTEX
  8
0
 10
4.92643
 20
4.39296
 30
0.0
 40
0
 41
0
  0
VERTEX
  8
0
 10
5.05604
 20
4.55072
 30
0.0
 40
0
 41
0
  0
VERTEX
  8
0
 10
5.15761
 20
4.70751
 30
0.0
 40
0
 41
0
  0
VERTEX
  8
0
 10
5.17339
 20
4.73828
 30
0.0
 40
0
 41
0
  0
VERTEX
  8
0
 10
5.19049
 20
4.77165
 30
0.0
 40
0
 41
0
  0
VERTEX
  8
0
 10
5.24778
 20
4.93317
 30
0.0
 40
0
 41
0
  0
VERTEX
  8
0
 10
5.25982
 20
5.08539
 30
0.0
 40
0
 41
0
  0
VERTEX
  8
0
 10
5.25429
 20
5.1141
 30
0.0
 40
0
 41
0
  0
VERTEX
  8
0
 10
5.25299
 20
5.12061
 30
0.0
 40
0
 41
0
  0
VERTEX
  8
0
 10
5.2404
 20
5.16043
 30
0.0
 40
0
 41
0
  0
VERTEX
  8
0
 10
5.21485
 20
5.21067
 30
0.0
 40
0
 41
0
  0
VERTEX
  8
0
 10
5.20714
 20
5.22228
 30
0.0
 40
0
 41
0
  0
VERTEX
  8
0
 10
5.20036
 20
5.23247
 30
0.0
 40
0
 41
0
  0
VERTEX
  8
0
 10
5.17931
 20
5.26258
 30
0.0
 40
0
 41
0
  0
VERTEX
  8
0
 10
5.14025
 20
5.31635
 30
0.0
 40
0
 41
0
  0
VERTEX
  8
0
 10
5.08713
 20
5.38803
 30
0.0
 40
0
 41
0
  0
VERTEX
  8
0
 10
5.03461
 20
5.45844
 30
0.0
 40
0
 41
0
  0
VERTEX
  8
0
 10
5.01714
 20
5.48188
 30
0.0
 40
0
 41
0
  0
VERTEX
  8
0
 10
4.92632
 20
5.60351
 30
0.0
 40
0
 41
0
  0
VERTEX
  8
0
 10
4.9305
 20
5.61686
 30
0.0
 40
0
 41
0
  0
VERTEX
  8
0
 10
4.95871
 20
5.6824
 30
0.0
 40
0
 41
0
  0
VERTEX
  8
0
 10
4.99696
 20
5.74642
 30
0.0
 40
0
 41
0
  0
VERTEX
  8
0
 10
5.00613
 20
5.759
 30
0.0
 40
0
 41
0
  0
VERTEX
  8
0
 10
5.01981
 20
5.77746
 30
0.0
 40
0
 41
0
  0
VERTEX
  8
0
 10
5.10351
 20
5.85775
 30
0.0
 40
0
 41
0
  0
VERTEX
  8
0
 10
5.20779
 20
5.9221
 30
0.0
 40
0
 41
0
  0
VERTEX
  8
0
 10
5.23172
 20
5.93257
 30
0.0
 40
0
 41
0
  0
VERTEX
  8
0
 10
5.25586
 20
5.94331
 30
0.0
 40
0
 41
0
  0
VERTEX
  8
0
 10
5.38721
 20
5.98079
 30
0.0
 40
0
 41
0
  0
VERTEX
  8
0
 10
5.51969
 20
5.99685
 30
0.0
 40
0
 41
0
  0
VERTEX
  8
0
 10
5.56392
 20
5.99685
 30
0.0
 40
0
 41
0
  0
SEQEND
 8
0
  0
POLYLINE
  8
0
 62
     0
 66
     1
 10
0
 20
0
 30
0.0
 70
     1
 40
0
 41
0
  0
VERTEX
  8
0
 10
1.82508
 20
5.95036
 30
0.0
 40
0
 41
0
  0
VERTEX
  8
0
 10
2.40061
 20
5.95036
 30
0.0
 40
0
 41
0
  0
VERTEX
  8
0
 10
2.40061
 20
5.15886
 30
0.0
 40
0
 41
0
  0
VERTEX
  8
0
 10
2.57286
 20
5.15886
 30
0.0
 40
0
 41
0
  0
VERTEX
  8
0
 10
2.57286
 20
5.95036
 30
0.0
 40
0
 41
0
  0
VERTEX
  8
0
 10
3.14839
 20
5.95036
 30
0.0
 40
0
 41
0
  0
VERTEX
  8
0
 10
3.14839
 20
5.2494
 30
0.0
 40
0
 41
0
  0
VERTEX
  8
0
 10
3.11849
 20
5.21615
 30
0.0
 40
0
 41
0
  0
VERTEX
  8
0
 10
2.99262
 20
5.05447
 30
0.0
 40
0
 41
0
  0
VERTEX
  8
0
 10
2.89958
 20
4.9005
 30
0.0
 40
0
 41
0
  0
VERTEX
  8
0
 10
2.88607
 20
4.87104
 30
0.0
 40
0
 41
0
  0
VERTEX
  8
0
 10
2.87358
 20
4.84397
 30
0.0
 40
0
 41
0
  0
VERTEX
  8
0
 10
2.84472
 20
4.75885
 30
0.0
 40
0
 41
0
  0
VERTEX
  8
0
 10
2.82781
 20
4.65132
 30
0.0
 40
0
 41
0
  0
VERTEX
  8
0
 10
2.83919
 20
4.55219
 30
0.0
 40
0
 41
0
  0
VERTEX
  8
0
 10
2.86849
 20
4.484
 30
0.0
 40
0
 41
0
  0
VERTEX
  8
0
 10
2.88314
 20
4.46496
 30
0.0
 40
0
 41
0
  0
VERTEX
  8
0
 10
2.88807
 20
4.4585
 30
0.0
 40
0
 41
0
  0
VERTEX
  8
0
 10
2.91764
 20
4.43169
 30
0.0
 40
0
 41
0
  0
VERTEX
  8
0
 10
2.95096
 20
4.40924
 30
0.0
 40
0
 41
0
  0
VERTEX
  8
0
 10
2.95779
 20
4.40494
 30
0.0
 40
0
 41
0
  0
VERTEX
  8
0
 10
2.95751
 20
4.4025
 30
0.0
 40
0
 41
0
  0
VERTEX
  8
0
 10
2.95806
 20
4.38189
 30
0.0
 40
0
 41
0
  0
VERTEX
  8
0
 10
2.95833
 20
4.38058
 30
0.0
 40
0
 41
0
  0
VERTEX
  8
0
 10
2.95947
 20
4.37462
 30
0.0
 40
0
 41
0
  0
VERTEX
  8
0
 10
2.96544
 20
4.35704
 30
0.0
 40
0
 41
0
  0
VERTEX
  8
0
 10
2.97157
 20
4.34744
 30
0.0
 40
0
 41
0
  0
VERTEX
  8
0
 10
2.97276
 20
4.34543
 30
0.0
 40
0
 41
0
  0
VERTEX
  8
0
 10
2.97396
 20
4.34347
 30
0.0
 40
0
 41
0
  0
VERTEX
  8
0
 10
2.98813
 20
4.3221
 30
0.0
 40
0
 41
0
  0
VERTEX
  8
0
 10
2.98986
 20
4.31961
 30
0.0
 40
0
 41
0
  0
VERTEX
  8
0
 10
2.99567
 20
4.31131
 30
0.0
 40
0
 41
0
  0
VERTEX
  8
0
 10
3.01367
 20
4.28668
 30
0.0
 40
0
 41
0
  0
VERTEX
  8
0
 10
3.04775
 20
4.24132
 30
0.0
 40
0
 41
0
  0
VERTEX
  8
0
 10
3.09244
 20
4.18261
 30
0.0
 40
0
 41
0
  0
VERTEX
  8
0
 10
3.13439
 20
4.12788
 30
0.0
 40
0
 41
0
  0
VERTEX
  8
0
 10
3.14839
 20
4.10965
 30
0.0
 40
0
 41
0
  0
VERTEX
  8
0
 10
3.14839
 20
3.73714
 30
0.0
 40
0
 41
0
  0
VERTEX
  8
0
 10
2.57286
 20
3.73714
 30
0.0
 40
0
 41
0
  0
VERTEX
  8
0
 10
2.57286
 20
4.66672
 30
0.0
 40
0
 41
0
  0
VERTEX
  8
0
 10
2.40061
 20
4.66672
 30
0.0
 40
0
 41
0
  0
VERTEX
  8
0
 10
2.40061
 20
3.73714
 30
0.0
 40
0
 41
0
  0
VERTEX
  8
0
 10
1.82508
 20
3.73714
 30
0.0
 40
0
 41
0
  0
VERTEX
  8
0
 10
1.82508
 20
5.95036
 30
0.0
 40
0
 41
0
  0
SEQEND
 8
0
  0
POLYLINE
  8
0
 62
     0
 66
     1
 10
0
 20
0
 30
0.0
 70
     1
 40
0
 41
0
  0
VERTEX
  8
0
 10
6.46203
 20
5.95036
 30
0.0
 40
0
 41
0
  0
VERTEX
  8
0
 10
7.03754
 20
5.95036
 30
0.0
 40
0
 41
0
  0
VERTEX
  8
0
 10
7.03754
 20
5.0905
 30
0.0
 40
0
 41
0
  0
VERTEX
  8
0
 10
7.29318
 20
5.95036
 30
0.0
 40
0
 41
0
  0
VERTEX
  8
0
 10
7.83317
 20
5.95036
 30
0.0
 40
0
 41
0
  0
VERTEX
  8
0
 10
7.50375
 20
4.95107
 30
0.0
 40
0
 41
0
  0
VERTEX
  8
0
 10
7.86464
 20
3.73714
 30
0.0
 40
0
 41
0
  0
VERTEX
  8
0
 10
7.26997
 20
3.73714
 30
0.0
 40
0
 41
0
  0
VERTEX
  8
0
 10
7.03754
 20
4.68587
 30
0.0
 40
0
 41
0
  0
VERTEX
  8
0
 10
7.03754
 20
3.73714
 30
0.0
 40
0
 41
0
  0
VERTEX
  8
0
 10
6.46203
 20
3.73714
 30
0.0
 40
0
 41
0
  0
VERTEX
  8
0
 10
6.46203
 20
5.95036
 30
0.0
 40
0
 41
0
  0
SEQEND
 8
0
  0
POLYLINE
  8
0
 62
     0
 66
     1
 10
0
 20
0
 30
0.0
 70
     1
 40
0
 41
0
  0
VERTEX
  8
0
 10
7.96576
 20
5.95036
 30
0.0
 40
0
 41
0
  0
VERTEX
  8
0
 10
8.92546
 20
5.95036
 30
0.0
 40
0
 41
0
  0
VERTEX
  8
0
 10
8.92546
 20
5.50743
 30
0.0
 40
0
 41
0
  0
VERTEX
  8
0
 10
8.54129
 20
5.50743
 30
0.0
 40
0
 41
0
  0
VERTEX
  8
0
 10
8.54129
 20
5.08778
 30
0.0
 40
0
 41
0
  0
VERTEX
  8
0
 10
8.90082
 20
5.08778
 30
0.0
 40
0
 41
0
  0
VERTEX
  8
0
 10
8.90082
 20
4.66672
 30
0.0
 40
0
 41
0
  0
VERTEX
  8
0
 10
8.54129
 20
4.66672
 30
0.0
 40
0
 41
0
  0
VERTEX
  8
0
 10
8.54129
 20
4.18007
 30
0.0
 40
0
 41
0
  0
VERTEX
  8
0
 10
8.96371
 20
4.18007
 30
0.0
 40
0
 41
0
  0
VERTEX
  8
0
 10
8.96371
 20
3.73714
 30
0.0
 40
0
 41
0
  0
VERTEX
  8
0
 10
7.96576
 20
3.73714
 30
0.0
 40
0
 41
0
  0
VERTEX
  8
0
 10
7.96576
 20
5.95036
 30
0.0
 40
0
 41
0
  0
SEQEND
 8
0
  0
POLYLINE
  8
0
 62
     0
 66
     1
 10
0
 20
0
 30
0.0
 70
     1
 40
0
 41
0
  0
VERTEX
  8
0
 10
8.99924
 20
5.95036
 30
0.0
 40
0
 41
0
  0
VERTEX
  8
0
 10
9.52832
 20
5.95036
 30
0.0
 40
0
 41
0
  0
VERTEX
  8
0
 10
9.54254
 20
5.87625
 30
0.0
 40
0
 41
0
  0
VERTEX
  8
0
 10
9.58365
 20
5.65349
 30
0.0
 40
0
 41
0
  0
VERTEX
  8
0
 10
9.62532
 20
5.4094
 30
0.0
 40
0
 41
0
  0
VERTEX
  8
0
 10
9.65338
 20
5.21804
 30
0.0
 40
0
 41
0
  0
VERTEX
  8
0
 10
9.66542
 20
5.11426
 30
0.0
 40
0
 41
0
  0
VERTEX
  8
0
 10
9.66775
 20
5.07954
 30
0.0
 40
0
 41
0
  0
VERTEX
  8
0
 10
9.67404
 20
5.12646
 30
0.0
 40
0
 41
0
  0
VERTEX
  8
0
 10
9.69569
 20
5.26676
 30
0.0
 40
0
 41
0
  0
VERTEX
  8
0
 10
9.73167
 20
5.47428
 30
0.0
 40
0
 41
0
  0
VERTEX
  8
0
 10
9.77567
 20
5.70215
 30
0.0
 40
0
 41
0
  0
VERTEX
  8
0
 10
9.81424
 20
5.8884
 30
0.0
 40
0
 41
0
  0
VERTEX
  8
0
 10
9.82769
 20
5.95036
 30
0.0
 40
0
 41
0
  0
VERTEX
  8
0
 10
10.3567
 20
5.95036
 30
0.0
 40
0
 41
0
  0
VERTEX
  8
0
 10
9.93707
 20
4.53819
 30
0.0
 40
0
 41
0
  0
VERTEX
  8
0
 10
9.93707
 20
3.73714
 30
0.0
 40
0
 41
0
  0
VERTEX
  8
0
 10
9.40392
 20
3.73714
 30
0.0
 40
0
 41
0
  0
VERTEX
  8
0
 10
9.40392
 20
4.53819
 30
0.0
 40
0
 41
0
  0
VERTEX
  8
0
 10
8.99924
 20
5.95036
 30
0.0
 40
0
 41
0
  0
SEQEND
 8
0
  0
POLYLINE
  8
0
 62
     0
 66
     1
 10
0
 20
0
 30
0.0
 70
     1
 40
0
 41
0
  0
VERTEX
  8
0
 10
4.45117
 20
5.90332
 30
0.0
 40
0
 41
0
  0
VERTEX
  8
0
 10
4.46837
 20
5.90321
 30
0.0
 40
0
 41
0
  0
VERTEX
  8
0
 10
4.51997
 20
5.89763
 30
0.0
 40
0
 41
0
  0
VERTEX
  8
0
 10
4.57915
 20
5.88135
 30
0.0
 40
0
 41
0
  0
VERTEX
  8
0
 10
4.62804
 20
5.85444
 30
0.0
 40
0
 41
0
  0
VERTEX
  8
0
 10
4.6581
 20
5.82731
 30
0.0
 40
0
 41
0
  0
VERTEX
  8
0
 10
4.66601
 20
5.81668
 30
0.0
 40
0
 41
0
  0
VERTEX
  8
0
 10
4.67324
 20
5.80697
 30
0.0
 40
0
 41
0
  0
VERTEX
  8
0
 10
4.69097
 20
5.77479
 30
0.0
 40
0
 41
0
  0
VERTEX
  8
0
 10
4.70458
 20
5.72954
 30
0.0
 40
0
 41
0
  0
VERTEX
  8
0
 10
4.70742
 20
5.67774
 30
0.0
 40
0
 41
0
  0
VERTEX
  8
0
 10
4.70269
 20
5.63129
 30
0.0
 40
0
 41
0
  0
VERTEX
  8
0
 10
4.69993
 20
5.61604
 30
0.0
 40
0
 41
0
  0
VERTEX
  8
0
 10
4.69353
 20
5.58122
 30
0.0
 40
0
 41
0
  0
VERTEX
  8
0
 10
4.65506
 20
5.48019
 30
0.0
 40
0
 41
0
  0
VERTEX
  8
0
 10
4.56933
 20
5.32954
 30
0.0
 40
0
 41
0
  0
VERTEX
  8
0
 10
4.44586
 20
5.16872
 30
0.0
 40
0
 41
0
  0
VERTEX
  8
0
 10
4.3291
 20
5.04221
 30
0.0
 40
0
 41
0
  0
VERTEX
  8
0
 10
4.28782
 20
5.00256
 30
0.0
 40
0
 41
0
  0
VERTEX
  8
0
 10
4.26361
 20
4.97933
 30
0.0
 40
0
 41
0
  0
VERTEX
  8
0
 10
4.18696
 20
4.91385
 30
0.0
 40
0
 41
0
  0
VERTEX
  8
0
 10
4.06136
 20
4.81461
 30
0.0
 40
0
 41
0
  0
VERTEX
  8
0
 10
3.93257
 20
4.72114
 30
0.0
 40
0
 41
0
  0
VERTEX
  8
0
 10
3.85047
 20
4.66629
 30
0.0
 40
0
 41
0
  0
VERTEX
  8
0
 10
3.82215
 20
4.64974
 30
0.0
 40
0
 41
0
  0
VERTEX
  8
0
 10
3.78885
 20
4.63037
 30
0.0
 40
0
 41
0
  0
VERTEX
  8
0
 10
3.63976
 20
4.5529
 30
0.0
 40
0
 41
0
  0
VERTEX
  8
0
 10
3.49431
 20
4.4924
 30
0.0
 40
0
 41
0
  0
VERTEX
  8
0
 10
3.46289
 20
4.4815
 30
0.0
 40
0
 41
0
  0
VERTEX
  8
0
 10
3.4279
 20
4.4694
 30
0.0
 40
0
 41
0
  0
VERTEX
  8
0
 10
3.27653
 20
4.4311
 30
0.0
 40
0
 41
0
  0
VERTEX
  8
0
 10
3.14908
 20
4.42128
 30
0.0
 40
0
 41
0
  0
VERTEX
  8
0
 10
3.12608
 20
4.42339
 30
0.0
 40
0
 41
0
  0
VERTEX
  8
0
 10
3.11062
 20
4.42486
 30
0.0
 40
0
 41
0
  0
VERTEX
  8
0
 10
3.06467
 20
4.43289
 30
0.0
 40
0
 41
0
  0
VERTEX
  8
0
 10
3.01551
 20
4.4496
 30
0.0
 40
0
 41
0
  0
VERTEX
  8
0
 10
2.97569
 20
4.47493
 30
0.0
 40
0
 41
0
  0
VERTEX
  8
0
 10
2.94949
 20
4.50076
 30
0.0
 40
0
 41
0
  0
VERTEX
  8
0
 10
2.94211
 20
4.51036
 30
0.0
 40
0
 41
0
  0
VERTEX
  8
0
 10
2.93143
 20
4.52431
 30
0.0
 40
0
 41
0
  0
VERTEX
  8
0
 10
2.91032
 20
4.57438
 30
0.0
 40
0
 41
0
  0
VERTEX
  8
0
 10
2.90213
 20
4.65164
 30
0.0
 40
0
 41
0
  0
VERTEX
  8
0
 10
2.91678
 20
4.74067
 30
0.0
 40
0
 41
0
  0
VERTEX
  8
0
 10
2.95367
 20
4.84
 30
0.0
 40
0
 41
0
  0
VERTEX
  8
0
 10
3.0121
 20
4.94819
 30
0.0
 40
0
 41
0
  0
VERTEX
  8
0
 10
3.09142
 20
5.06381
 30
0.0
 40
0
 41
0
  0
VERTEX
  8
0
 10
3.19092
 20
5.18544
 30
0.0
 40
0
 41
0
  0
VERTEX
  8
0
 10
3.27924
 20
5.28097
 30
0.0
 40
0
 41
0
  0
VERTEX
  8
0
 10
3.31
 20
5.31153
 30
0.0
 40
0
 41
0
  0
VERTEX
  8
0
 10
3.31982
 20
5.32135
 30
0.0
 40
0
 41
0
  0
VERTEX
  8
0
 10
3.35097
 20
5.34924
 30
0.0
 40
0
 41
0
  0
VERTEX
  8
0
 10
3.40701
 20
5.39638
 30
0.0
 40
0
 41
0
  0
VERTEX
  8
0
 10
3.47336
 20
5.44949
 30
0.0
 40
0
 41
0
  0
VERTEX
  8
0
 10
3.54531
 20
5.50493
 30
0.0
 40
0
 41
0
  0
VERTEX
  8
0
 10
3.61817
 20
5.55925
 30
0.0
 40
0
 41
0
  0
VERTEX
  8
0
 10
3.68722
 20
5.60872
 30
0.0
 40
0
 41
0
  0
VERTEX
  8
0
 10
3.74783
 20
5.6499
 30
0.0
 40
0
 41
0
  0
VERTEX
  8
0
 10
3.7831
 20
5.67231
 30
0.0
 40
0
 41
0
  0
VERTEX
  8
0
 10
3.79519
 20
5.67914
 30
0.0
 40
0
 41
0
  0
VERTEX
  8
0
 10
3.84174
 20
5.70551
 30
0.0
 40
0
 41
0
  0
VERTEX
  8
0
 10
3.98574
 20
5.77713
 30
0.0
 40
0
 41
0
  0
VERTEX
  8
0
 10
4.16064
 20
5.84744
 30
0.0
 40
0
 41
0
  0
VERTEX
  8
0
 10
4.31679
 20
5.88965
 30
0.0
 40
0
 41
0
  0
VERTEX
  8
0
 10
4.41758
 20
5.90354
 30
0.0
 40
0
 41
0
  0
VERTEX
  8
0
 10
4.45117
 20
5.90332
 30
0.0
 40
0
 41
0
  0
SEQEND
 8
0
  0
POLYLINE
  8
0
 62
     0
 66
     1
 10
0
 20
0
 30
0.0
 70
     1
 40
0
 41
0
  0
VERTEX
  8
0
 10
4.74365
 20
5.72379
 30
0.0
 40
0
 41
0
  0
VERTEX
  8
0
 10
4.95751
 20
5.43733
 30
0.0
 40
0
 41
0
  0
VERTEX
  8
0
 10
4.97499
 20
5.4139
 30
0.0
 40
0
 41
0
  0
VERTEX
  8
0
 10
5.0275
 20
5.34347
 30
0.0
 40
0
 41
0
  0
VERTEX
  8
0
 10
5.08046
 20
5.27203
 30
0.0
 40
0
 41
0
  0
VERTEX
  8
0
 10
5.11882
 20
5.21924
 30
0.0
 40
0
 41
0
  0
VERTEX
  8
0
 10
5.14513
 20
5.18121
 30
0.0
 40
0
 41
0
  0
VERTEX
  8
0
 10
5.162
 20
5.15408
 30
0.0
 40
0
 41
0
  0
VERTEX
  8
0
 10
5.17193
 20
5.13406
 30
0.0
 40
0
 41
0
  0
VERTEX
  8
0
 10
5.17751
 20
5.11735
 30
0.0
 40
0
 41
0
  0
VERTEX
  8
0
 10
5.18039
 20
5.10439
 30
0.0
 40
0
 41
0
  0
VERTEX
  8
0
 10
5.18126
 20
5.09999
 30
0.0
 40
0
 41
0
  0
VERTEX
  8
0
 10
5.18815
 20
5.06407
 30
0.0
 40
0
 41
0
  0
VERTEX
  8
0
 10
5.17458
 20
4.94965
 30
0.0
 40
0
 41
0
  0
VERTEX
  8
0
 10
5.10715
 20
4.77235
 30
0.0
 40
0
 41
0
  0
VERTEX
  8
0
 10
4.98469
 20
4.57954
 30
0.0
 40
0
 41
0
  0
VERTEX
  8
0
 10
4.8591
 20
4.42882
 30
0.0
 40
0
 41
0
  0
VERTEX
  8
0
 10
4.81321
 20
4.38265
 30
0.0
 40
0
 41
0
  0
VERTEX
  8
0
 10
4.80447
 20
4.37392
 30
0.0
 40
0
 41
0
  0
VERTEX
  8
0
 10
4.7774
 20
4.34868
 30
0.0
 40
0
 41
0
  0
VERTEX
  8
0
 10
4.73047
 20
4.30697
 30
0.0
 40
0
 41
0
  0
VERTEX
  8
0
 10
4.67611
 20
4.26053
 30
0.0
 40
0
 41
0
  0
VERTEX
  8
0
 10
4.61789
 20
4.21235
 30
0.0
 40
0
 41
0
  0
VERTEX
  8
0
 10
4.55957
 20
4.16542
 30
0.0
 40
0
 41
0
  0
VERTEX
  8
0
 10
4.50478
 20
4.12272
 30
0.0
 40
0
 41
0
  0
VERTEX
  8
0
 10
4.45719
 20
4.08729
 30
0.0
 40
0
 41
0
  0
VERTEX
  8
0
 10
4.42985
 20
4.06803
 30
0.0
 40
0
 41
0
  0
VERTEX
  8
0
 10
4.42046
 20
4.06207
 30
0.0
 40
0
 41
0
  0
VERTEX
  8
0
 10
4.38579
 20
4.0401
 30
0.0
 40
0
 41
0
  0
VERTEX
  8
0
 10
4.27908
 20
3.97857
 30
0.0
 40
0
 41
0
  0
VERTEX
  8
0
 10
4.14139
 20
3.90935
 30
0.0
 40
0
 41
0
  0
VERTEX
  8
0
 10
4.00917
 20
3.85476
 30
0.0
 40
0
 41
0
  0
VERTEX
  8
0
 10
3.88428
 20
3.81543
 30
0.0
 40
0
 41
0
  0
VERTEX
  8
0
 10
3.76856
 20
3.79172
 30
0.0
 40
0
 41
0
  0
VERTEX
  8
0
 10
3.66379
 20
3.78424
 30
0.0
 40
0
 41
0
  0
VERTEX
  8
0
 10
3.57183
 20
3.79329
 30
0.0
 40
0
 41
0
  0
VERTEX
  8
0
 10
3.51253
 20
3.81044
 30
0.0
 40
0
 41
0
  0
VERTEX
  8
0
 10
3.49451
 20
3.8195
 30
0.0
 40
0
 41
0
  0
VERTEX
  8
0
 10
3.4464
 20
3.84369
 30
0.0
 40
0
 41
0
  0
VERTEX
  8
0
 10
3.22863
 20
4.12717
 30
0.0
 40
0
 41
0
  0
VERTEX
  8
0
 10
3.21212
 20
4.1486
 30
0.0
 40
0
 41
0
  0
VERTEX
  8
0
 10
3.16282
 20
4.21294
 30
0.0
 40
0
 41
0
  0
VERTEX
  8
0
 10
3.11231
 20
4.27919
 30
0.0
 40
0
 41
0
  0
VERTEX
  8
0
 10
3.07547
 20
4.32829
 30
0.0
 40
0
 41
0
  0
VERTEX
  8
0
 10
3.05072
 20
4.36236
 30
0.0
 40
0
 41
0
  0
VERTEX
  8
0
 10
3.03657
 20
4.38374
 30
0.0
 40
0
 41
0
  0
VERTEX
  8
0
 10
3.03142
 20
4.39458
 30
0.0
 40
0
 41
0
  0
VERTEX
  8
0
 10
3.03364
 20
4.39714
 30
0.0
 40
0
 41
0
  0
VERTEX
  8
0
 10
3.03982
 20
4.39469
 30
0.0
 40
0
 41
0
  0
VERTEX
  8
0
 10
3.04178
 20
4.39361
 30
0.0
 40
0
 41
0
  0
VERTEX
  8
0
 10
3.07015
 20
4.37799
 30
0.0
 40
0
 41
0
  0
VERTEX
  8
0
 10
3.17063
 20
4.35872
 30
0.0
 40
0
 41
0
  0
VERTEX
  8
0
 10
3.33925
 20
4.36979
 30
0.0
 40
0
 41
0
  0
VERTEX
  8
0
 10
3.53868
 20
4.42518
 30
0.0
 40
0
 41
0
  0
VERTEX
  8
0
 10
3.70643
 20
4.4955
 30
0.0
 40
0
 41
0
  0
VERTEX
  8
0
 10
3.7601
 20
4.52328
 30
0.0
 40
0
 41
0
  0
VERTEX
  8
0
 10
3.81326
 20
4.55089
 30
0.0
 40
0
 41
0
  0
VERTEX
  8
0
 10
3.96701
 20
4.64492
 30
0.0
 40
0
 41
0
  0
VERTEX
  8
0
 10
4.16174
 20
4.7864
 30
0.0
 40
0
 41
0
  0
VERTEX
  8
0
 10
4.33849
 20
4.94108
 30
0.0
 40
0
 41
0
  0
VERTEX
  8
0
 10
4.4916
 20
5.10226
 30
0.0
 40
0
 41
0
  0
VERTEX
  8
0
 10
4.61535
 20
5.26346
 30
0.0
 40
0
 41
0
  0
VERTEX
  8
0
 10
4.704
 20
5.41781
 30
0.0
 40
0
 41
0
  0
VERTEX
  8
0
 10
4.7519
 20
5.55886
 30
0.0
 40
0
 41
0
  0
VERTEX
  8
0
 10
4.75956
 20
5.65104
 30
0.0
 40
0
 41
0
  0
VERTEX
  8
0
 10
4.75331
 20
5.67979
 30
0.0
 40
0
 41
0
  0
VERTEX
  8
0
 10
4.74365
 20
5.72379
 30
0.0
 40
0
 41
0
  0
SEQEND
 8
0
  0
POLYLINE
  8
0
 62
     0
 66
     1
 10
0
 20
0
 30
0.0
 70
     1
 40
0
 41
0
  0
VERTEX
  8
0
 10
10.1531
 20
4.14176
 30
0.0
 40
0
 41
0
  0
VERTEX
  8
0
 10
10.57
 20
4.14176
 30
0.0
 40
0
 41
0
  0
VERTEX
  8
0
 10
10.57
 20
3.69065
 30
0.0
 40
0
 41
0
  0
VERTEX
  8
0
 10
10.1531
 20
3.69065
 30
0.0
 40
0
 41
0
  0
VERTEX
  8
0
 10
10.1531
 20
4.14176
 30
0.0
 40
0
 41
0
  0
SEQEND
 8
0
  0
POLYLINE
  8
0
 62
     0
 66
     1
 10
0
 20
0
 30
0.0
 70
     1
 40
0
 41
0
  0
VERTEX
  8
0
 10
1.5249
 20
10.9633
 30
0.0
 40
0
 41
0
  0
VERTEX
  8
0
 10
1.5249
 20
8.75011
 30
0.0
 40
0
 41
0
  0
VERTEX
  8
0
 10
2.52285
 20
8.75011
 30
0.0
 40
0
 41
0
  0
VERTEX
  8
0
 10
2.52285
 20
9.19303
 30
0.0
 40
0
 41
0
  0
VERTEX
  8
0
 10
2.10042
 20
9.19303
 30
0.0
 40
0
 41
0
  0
VERTEX
  8
0
 10
2.10042
 20
9.67969
 30
0.0
 40
0
 41
0
  0
VERTEX
  8
0
 10
2.45996
 20
9.67969
 30
0.0
 40
0
 41
0
  0
VERTEX
  8
0
 10
2.45996
 20
10.1008
 30
0.0
 40
0
 41
0
  0
VERTEX
  8
0
 10
2.10042
 20
10.1008
 30
0.0
 40
0
 41
0
  0
VERTEX
  8
0
 10
2.10042
 20
10.5204
 30
0.0
 40
0
 41
0
  0
VERTEX
  8
0
 10
2.4846
 20
10.5204
 30
0.0
 40
0
 41
0
  0
VERTEX
  8
0
 10
2.4846
 20
10.9633
 30
0.0
 40
0
 41
0
  0
VERTEX
  8
0
 10
1.5249
 20
10.9633
 30
0.0
 40
0
 41
0
  0
SEQEND
 8
0
  0
POLYLINE
  8
0
 62
     0
 66
     1
 10
0
 20
0
 30
0.0
 70
     1
 40
0
 41
0
  0
VERTEX
  8
0
 10
2.85097
 20
10.9633
 30
0.0
 40
0
 41
0
  0
VERTEX
  8
0
 10
2.55838
 20
8.75011
 30
0.0
 40
0
 41
0
  0
VERTEX
  8
0
 10
3.1544
 20
8.75011
 30
0.0
 40
0
 41
0
  0
VERTEX
  8
0
 10
3.18858
 20
9.14789
 30
0.0
 40
0
 41
0
  0
VERTEX
  8
0
 10
3.39501
 20
9.14789
 30
0.0
 40
0
 41
0
  0
VERTEX
  8
0
 10
3.42372
 20
8.75011
 30
0.0
 40
0
 41
0
  0
VERTEX
  8
0
 10
4.01292
 20
8.75011
 30
0.0
 40
0
 41
0
  0
VERTEX
  8
0
 10
3.68349
 20
10.9633
 30
0.0
 40
0
 41
0
  0
VERTEX
  8
0
 10
2.85097
 20
10.9633
 30
0.0
 40
0
 41
0
  0
SEQEND
 8
0
  0
POLYLINE
  8
0
 62
     0
 66
     1
 10
0
 20
0
 30
0.0
 70
     1
 40
0
 41
0
  0
VERTEX
  8
0
 10
3.85981
 20
10.9633
 30
0.0
 40
0
 41
0
  0
VERTEX
  8
0
 10
3.85981
 20
10.5204
 30
0.0
 40
0
 41
0
  0
VERTEX
  8
0
 10
4.20019
 20
10.5204
 30
0.0
 40
0
 41
0
  0
VERTEX
  8
0
 10
4.20019
 20
8.75011
 30
0.0
 40
0
 41
0
  0
VERTEX
  8
0
 10
4.77572
 20
8.75011
 30
0.0
 40
0
 41
0
  0
VERTEX
  8
0
 10
4.77572
 20
10.5204
 30
0.0
 40
0
 41
0
  0
VERTEX
  8
0
 10
5.11746
 20
10.5204
 30
0.0
 40
0
 41
0
  0
VERTEX
  8
0
 10
5.11746
 20
10.9633
 30
0.0
 40
0
 41
0
  0
VERTEX
  8
0
 10
3.85981
 20
10.9633
 30
0.0
 40
0
 41
0
  0
SEQEND
 8
0
  0
POLYLINE
  8
0
 62
     0
 66
     1
 10
0
 20
0
 30
0.0
 70
     1
 40
0
 41
0
  0
VERTEX
  8
0
 10
3.29113
 20
10.4685
 30
0.0
 40
0
 41
0
  0
VERTEX
  8
0
 10
3.29839
 20
10.3765
 30
0.0
 40
0
 41
0
  0
VERTEX
  8
0
 10
3.33485
 20
9.96029
 30
0.0
 40
0
 41
0
  0
VERTEX
  8
0
 10
3.37131
 20
9.60292
 30
0.0
 40
0
 41
0
  0
VERTEX
  8
0
 10
3.37864
 20
9.54025
 30
0.0
 40
0
 41
0
  0
VERTEX
  8
0
 10
3.18175
 20
9.54025
 30
0.0
 40
0
 41
0
  0
VERTEX
  8
0
 10
3.18485
 20
9.58236
 30
0.0
 40
0
 41
0
  0
VERTEX
  8
0
 10
3.19678
 20
9.7085
 30
0.0
 40
0
 41
0
  0
VERTEX
  8
0
 10
3.22
 20
9.91928
 30
0.0
 40
0
 41
0
  0
VERTEX
  8
0
 10
3.25146
 20
10.1726
 30
0.0
 40
0
 41
0
  0
VERTEX
  8
0
 10
3.28093
 20
10.3946
 30
0.0
 40
0
 41
0
  0
VERTEX
  8
0
 10
3.29113
 20
10.4685
 30
0.0
 40
0
 41
0
  0
SEQEND
 8
0
  0
POLYLINE
  8
0
 62
     0
 66
     1
 10
0
 20
0
 30
0.0
 70
     1
 40
0
 41
0
  0
VERTEX
  8
0
 10
4.9534
 20
9.20122
 30
0.0
 40
0
 41
0
  0
VERTEX
  8
0
 10
4.9534
 20
8.75011
 30
0.0
 40
0
 41
0
  0
VERTEX
  8
0
 10
5.37039
 20
8.75011
 30
0.0
 40
0
 41
0
  0
VERTEX
  8
0
 10
5.37039
 20
9.20122
 30
0.0
 40
0
 41
0
  0
VERTEX
  8
0
 10
4.9534
 20
9.20122
 30
0.0
 40
0
 41
0
  0
SEQEND
 8
0
  0
POLYLINE
  8
0
 62
     0
 66
     1
 10
0
 20
0
 30
0.0
 70
     1
 40
0
 41
0
  0
VERTEX
  8
0
 10
2.14962
 20
8.63456
 30
0.0
 40
0
 41
0
  0
VERTEX
  8
0
 10
2.10211
 20
8.63456
 30
0.0
 40
0
 41
0
  0
VERTEX
  8
0
 10
1.95964
 20
8.61783
 30
0.0
 40
0
 41
0
  0
VERTEX
  8
0
 10
1.82383
 20
8.57872
 30
0.0
 40
0
 41
0
  0
VERTEX
  8
0
 10
1.79969
 20
8.56754
 30
0.0
 40
0
 41
0
  0
VERTEX
  8
0
 10
1.78228
 20
8.55968
 30
0.0
 40
0
 41
0
  0
VERTEX
  8
0
 10
1.73215
 20
8.53153
 30
0.0
 40
0
 41
0
  0
VERTEX
  8
0
 10
1.67458
 20
8.48899
 30
0.0
 40
0
 41
0
  0
VERTEX
  8
0
 10
1.6269
 20
8.43994
 30
0.0
 40
0
 41
0
  0
VERTEX
  8
0
 10
1.59728
 20
8.39899
 30
0.0
 40
0
 41
0
  0
VERTEX
  8
0
 10
1.58914
 20
8.38439
 30
0.0
 40
0
 41
0
  0
VERTEX
  8
0
 10
1.5784
 20
8.36481
 30
0.0
 40
0
 41
0
  0
VERTEX
  8
0
 10
1.54096
 20
8.23264
 30
0.0
 40
0
 41
0
  0
VERTEX
  8
0
 10
1.5249
 20
8.0676
 30
0.0
 40
0
 41
0
  0
VERTEX
  8
0
 10
1.5249
 20
8.01253
 30
0.0
 40
0
 41
0
  0
VERTEX
  8
0
 10
1.5249
 20
7.97239
 30
0.0
 40
0
 41
0
  0
VERTEX
  8
0
 10
1.53614
 20
7.85194
 30
0.0
 40
0
 41
0
  0
VERTEX
  8
0
 10
1.5625
 20
7.74169
 30
0.0
 40
0
 41
0
  0
VERTEX
  8
0
 10
1.57004
 20
7.72276
 30
0.0
 40
0
 41
0
  0
VERTEX
  8
0
 10
1.57775
 20
7.70389
 30
0.0
 40
0
 41
0
  0
VERTEX
  8
0
 10
1.62229
 20
7.62158
 30
0.0
 40
0
 41
0
  0
VERTEX
  8
0
 10
1.67458
 20
7.55578
 30
0.0
 40
0
 41
0
  0
VERTEX
  8
0
 10
1.68625
 20
7.54503
 30
0.0
 40
0
 41
0
  0
VERTEX
  8
0
 10
1.69678
 20
7.53532
 30
0.0
 40
0
 41
0
  0
VERTEX
  8
0
 10
1.73014
 20
7.50803
 30
0.0
 40
0
 41
0
  0
VERTEX
  8
0
 10
1.79215
 20
7.46132
 30
0.0
 40
0
 41
0
  0
VERTEX
  8
0
 10
1.87229
 20
7.40483
 30
0.0
 40
0
 41
0
  0
VERTEX
  8
0
 10
1.94586
 20
7.35499
 30
0.0
 40
0
 41
0
  0
VERTEX
  8
0
 10
1.9706
 20
7.3386
 30
0.0
 40
0
 41
0
  0
VERTEX
  8
0
 10
1.99507
 20
7.32254
 30
0.0
 40
0
 41
0
  0
VERTEX
  8
0
 10
2.06787
 20
7.27328
 30
0.0
 40
0
 41
0
  0
VERTEX
  8
0
 10
2.14518
 20
7.21799
 30
0.0
 40
0
 41
0
  0
VERTEX
  8
0
 10
2.20253
 20
7.17279
 30
0.0
 40
0
 41
0
  0
VERTEX
  8
0
 10
2.23122
 20
7.14714
 30
0.0
 40
0
 41
0
  0
VERTEX
  8
0
 10
2.23986
 20
7.13764
 30
0.0
 40
0
 41
0
  0
VERTEX
  8
0
 10
2.24875
 20
7.12765
 30
0.0
 40
0
 41
0
  0
VERTEX
  8
0
 10
2.27983
 20
7.04368
 30
0.0
 40
0
 41
0
  0
VERTEX
  8
0
 10
2.29318
 20
6.92242
 30
0.0
 40
0
 41
0
  0
VERTEX
  8
0
 10
2.29318
 20
6.882
 30
0.0
 40
0
 41
0
  0
VERTEX
  8
0
 10
2.29318
 20
6.86253
 30
0.0
 40
0
 41
0
  0
VERTEX
  8
0
 10
2.28597
 20
6.8041
 30
0.0
 40
0
 41
0
  0
VERTEX
  8
0
 10
2.26926
 20
6.75558
 30
0.0
 40
0
 41
0
  0
VERTEX
  8
0
 10
2.26449
 20
6.74804
 30
0.0
 40
0
 41
0
  0
VERTEX
  8
0
 10
2.25993
 20
6.74056
 30
0.0
 40
0
 41
0
  0
VERTEX
  8
0
 10
2.2296
 20
6.71425
 30
0.0
 40
0
 41
0
  0
VERTEX
  8
0
 10
2.19217
 20
6.7029
 30
0.0
 40
0
 41
0
  0
VERTEX
  8
0
 10
2.17974
 20
6.7029
 30
0.0
 40
0
 41
0
  0
VERTEX
  8
0
 10
2.16749
 20
6.7029
 30
0.0
 40
0
 41
0
  0
VERTEX
  8
0
 10
2.13086
 20
6.71181
 30
0.0
 40
0
 41
0
  0
VERTEX
  8
0
 10
2.10292
 20
6.73253
 30
0.0
 40
0
 41
0
  0
VERTEX
  8
0
 10
2.09907
 20
6.73844
 30
0.0
 40
0
 41
0
  0
VERTEX
  8
0
 10
2.09538
 20
6.74442
 30
0.0
 40
0
 41
0
  0
VERTEX
  8
0
 10
2.08263
 20
6.79622
 30
0.0
 40
0
 41
0
  0
VERTEX
  8
0
 10
2.07721
 20
6.87289
 30
0.0
 40
0
 41
0
  0
VERTEX
  8
0
 10
2.07721
 20
6.89844
 30
0.0
 40
0
 41
0
  0
VERTEX
  8
0
 10
2.07721
 20
7.16775
 30
0.0
 40
0
 41
0
  0
VERTEX
  8
0
 10
1.54269
 20
7.16775
 30
0.0
 40
0
 41
0
  0
VERTEX
  8
0
 10
1.54269
 20
7.02279
 30
0.0
 40
0
 41
0
  0
VERTEX
  8
0
 10
1.54269
 20
6.96772
 30
0.0
 40
0
 41
0
  0
VERTEX
  8
0
 10
1.55533
 20
6.8024
 30
0.0
 40
0
 41
0
  0
VERTEX
  8
0
 10
1.58479
 20
6.66124
 30
0.0
 40
0
 41
0
  0
VERTEX
  8
0
 10
1.59326
 20
6.63867
 30
0.0
 40
0
 41
0
  0
VERTEX
  8
0
 10
1.60167
 20
6.61615
 30
0.0
 40
0
 41
0
  0
VERTEX
  8
0
 10
1.67188
 20
6.51531
 30
0.0
 40
0
 41
0
  0
VERTEX
  8
0
 10
1.7794
 20
6.43044
 30
0.0
 40
0
 41
0
  0
VERTEX
  8
0
 10
1.80653
 20
6.41585
 30
0.0
 40
0
 41
0
  0
VERTEX
  8
0
 10
1.83388
 20
6.40132
 30
0.0
 40
0
 41
0
  0
VERTEX
  8
0
 10
1.98731
 20
6.35026
 30
0.0
 40
0
 41
0
  0
VERTEX
  8
0
 10
2.148
 20
6.32835
 30
0.0
 40
0
 41
0
  0
VERTEX
  8
0
 10
2.20161
 20
6.32835
 30
0.0
 40
0
 41
0
  0
VERTEX
  8
0
 10
2.25097
 20
6.32835
 30
0.0
 40
0
 41
0
  0
VERTEX
  8
0
 10
2.39908
 20
6.34717
 30
0.0
 40
0
 41
0
  0
VERTEX
  8
0
 10
2.54422
 20
6.391
 30
0.0
 40
0
 41
0
  0
VERTEX
  8
0
 10
2.57069
 20
6.40354
 30
0.0
 40
0
 41
0
  0
VERTEX
  8
0
 10
2.58936
 20
6.4126
 30
0.0
 40
0
 41
0
  0
VERTEX
  8
0
 10
2.64344
 20
6.44407
 30
0.0
 40
0
 41
0
  0
VERTEX
  8
0
 10
2.70329
 20
6.48904
 30
0.0
 40
0
 41
0
  0
VERTEX
  8
0
 10
2.75011
 20
6.53842
 30
0.0
 40
0
 41
0
  0
VERTEX
  8
0
 10
2.77701
 20
6.57807
 30
0.0
 40
0
 41
0
  0
VERTEX
  8
0
 10
2.78396
 20
6.59224
 30
0.0
 40
0
 41
0
  0
VERTEX
  8
0
 10
2.79329
 20
6.61094
 30
0.0
 40
0
 41
0
  0
VERTEX
  8
0
 10
2.82596
 20
6.73546
 30
0.0
 40
0
 41
0
  0
VERTEX
  8
0
 10
2.84
 20
6.88949
 30
0.0
 40
0
 41
0
  0
VERTEX
  8
0
 10
2.84
 20
6.94081
 30
0.0
 40
0
 41
0
  0
VERTEX
  8
0
 10
2.84
 20
6.97874
 30
0.0
 40
0
 41
0
  0
VERTEX
  8
0
 10
2.83376
 20
7.09233
 30
0.0
 40
0
 41
0
  0
VERTEX
  8
0
 10
2.81506
 20
7.2214
 30
0.0
 40
0
 41
0
  0
VERTEX
  8
0
 10
2.78386
 20
7.32813
 30
0.0
 40
0
 41
0
  0
VERTEX
  8
0
 10
2.75342
 20
7.39301
 30
0.0
 40
0
 41
0
  0
VERTEX
  8
0
 10
2.74018
 20
7.41243
 30
0.0
 40
0
 41
0
  0
VERTEX
  8
0
 10
2.72569
 20
7.43371
 30
0.0
 40
0
 41
0
  0
VERTEX
  8
0
 10
2.67247
 20
7.49072
 30
0.0
 40
0
 41
0
  0
VERTEX
  8
0
 10
2.56928
 20
7.57921
 30
0.0
 40
0
 41
0
  0
VERTEX
  8
0
 10
2.43056
 20
7.678
 30
0.0
 40
0
 41
0
  0
VERTEX
  8
0
 10
2.3004
 20
7.76079
 30
0.0
 40
0
 41
0
  0
VERTEX
  8
0
 10
2.25629
 20
7.787
 30
0.0
 40
0
 41
0
  0
VERTEX
  8
0
 10
2.24089
 20
7.79611
 30
0.0
 40
0
 41
0
  0
VERTEX
  8
0
 10
2.19586
 20
7.82519
 30
0.0
 40
0
 41
0
  0
VERTEX
  8
0
 10
2.1486
 20
7.86051
 30
0.0
 40
0
 41
0
  0
VERTEX
  8
0
 10
2.11447
 20
7.8929
 30
0.0
 40
0
 41
0
  0
VERTEX
  8
0
 10
2.09765
 20
7.91439
 30
0.0
 40
0
 41
0
  0
VERTEX
  8
0
 10
2.09358
 20
7.92231
 30
0.0
 40
0
 41
0
  0
VERTEX
  8
0
 10
2.08854
 20
7.93169
 30
0.0
 40
0
 41
0
  0
VERTEX
  8
0
 10
2.07101
 20
7.99203
 30
0.0
 40
0
 41
0
  0
VERTEX
  8
0
 10
2.06353
 20
8.06483
 30
0.0
 40
0
 41
0
  0
VERTEX
  8
0
 10
2.06353
 20
8.08908
 30
0.0
 40
0
 41
0
  0
VERTEX
  8
0
 10
2.06353
 20
8.10792
 30
0.0
 40
0
 41
0
  0
VERTEX
  8
0
 10
2.06999
 20
8.16428
 30
0.0
 40
0
 41
0
  0
VERTEX
  8
0
 10
2.08518
 20
8.21056
 30
0.0
 40
0
 41
0
  0
VERTEX
  8
0
 10
2.08951
 20
8.21761
 30
0.0
 40
0
 41
0
  0
VERTEX
  8
0
 10
2.09407
 20
8.22467
 30
0.0
 40
0
 41
0
  0
VERTEX
  8
0
 10
2.12299
 20
8.2494
 30
0.0
 40
0
 41
0
  0
VERTEX
  8
0
 10
2.15733
 20
8.25999
 30
0.0
 40
0
 41
0
  0
VERTEX
  8
0
 10
2.16878
 20
8.25999
 30
0.0
 40
0
 41
0
  0
VERTEX
  8
0
 10
2.17904
 20
8.25999
 30
0.0
 40
0
 41
0
  0
VERTEX
  8
0
 10
2.20979
 20
8.25217
 30
0.0
 40
0
 41
0
  0
VERTEX
  8
0
 10
2.23372
 20
8.23378
 30
0.0
 40
0
 41
0
  0
VERTEX
  8
0
 10
2.23714
 20
8.22851
 30
0.0
 40
0
 41
0
  0
VERTEX
  8
0
 10
2.24056
 20
8.22331
 30
0.0
 40
0
 41
0
  0
VERTEX
  8
0
 10
2.2525
 20
8.17626
 30
0.0
 40
0
 41
0
  0
VERTEX
  8
0
 10
2.25765
 20
8.10579
 30
0.0
 40
0
 41
0
  0
VERTEX
  8
0
 10
2.25765
 20
8.08225
 30
0.0
 40
0
 41
0
  0
VERTEX
  8
0
 10
2.25765
 20
7.91824
 30
0.0
 40
0
 41
0
  0
VERTEX
  8
0
 10
2.79215
 20
7.91824
 30
0.0
 40
0
 41
0
  0
VERTEX
  8
0
 10
2.79215
 20
8.00569
 30
0.0
 40
0
 41
0
  0
VERTEX
  8
0
 10
2.79215
 20
8.06201
 30
0.0
 40
0
 41
0
  0
VERTEX
  8
0
 10
2.77914
 20
8.23096
 30
0.0
 40
0
 41
0
  0
VERTEX
  8
0
 10
2.74881
 20
8.36068
 30
0.0
 40
0
 41
0
  0
VERTEX
  8
0
 10
2.74018
 20
8.3789
 30
0.0
 40
0
 41
0
  0
VERTEX
  8
0
 10
2.73378
 20
8.3929
 30
0.0
 40
0
 41
0
  0
VERTEX
  8
0
 10
2.70811
 20
8.43192
 30
0.0
 40
0
 41
0
  0
VERTEX
  8
0
 10
2.6626
 20
8.48008
 30
0.0
 40
0
 41
0
  0
VERTEX
  8
0
 10
2.60357
 20
8.52349
 30
0.0
 40
0
 41
0
  0
VERTEX
  8
0
 10
2.54964
 20
8.5536
 30
0.0
 40
0
 41
0
  0
VERTEX
  8
0
 10
2.53103
 20
8.56213
 30
0.0
 40
0
 41
0
  0
VERTEX
  8
0
 10
2.50483
 20
8.57422
 30
0.0
 40
0
 41
0
  0
VERTEX
  8
0
 10
2.3571
 20
8.61649
 30
0.0
 40
0
 41
0
  0
VERTEX
  8
0
 10
2.2015
 20
8.63456
 30
0.0
 40
0
 41
0
  0
VERTEX
  8
0
 10
2.14962
 20
8.63456
 30
0.0
 40
0
 41
0
  0
SEQEND
 8
0
  0
POLYLINE
  8
0
 62
     0
 66
     1
 10
0
 20
0
 30
0.0
 70
     1
 40
0
 41
0
  0
VERTEX
  8
0
 10
3.02181
 20
8.58806
 30
0.0
 40
0
 41
0
  0
VERTEX
  8
0
 10
3.02181
 20
6.37483
 30
0.0
 40
0
 41
0
  0
VERTEX
  8
0
 10
3.94732
 20
6.37483
 30
0.0
 40
0
 41
0
  0
VERTEX
  8
0
 10
3.94732
 20
6.81776
 30
0.0
 40
0
 41
0
  0
VERTEX
  8
0
 10
3.59733
 20
6.81776
 30
0.0
 40
0
 41
0
  0
VERTEX
  8
0
 10
3.59733
 20
8.58806
 30
0.0
 40
0
 41
0
  0
VERTEX
  8
0
 10
3.02181
 20
8.58806
 30
0.0
 40
0
 41
0
  0
SEQEND
 8
0
  0
POLYLINE
  8
0
 62
     0
 66
     1
 10
0
 20
0
 30
0.0
 70
     1
 40
0
 41
0
  0
VERTEX
  8
0
 10
4.08811
 20
8.58806
 30
0.0
 40
0
 41
0
  0
VERTEX
  8
0
 10
4.08811
 20
6.37483
 30
0.0
 40
0
 41
0
  0
VERTEX
  8
0
 10
5.08604
 20
6.37483
 30
0.0
 40
0
 41
0
  0
VERTEX
  8
0
 10
5.08604
 20
6.81776
 30
0.0
 40
0
 41
0
  0
VERTEX
  8
0
 10
4.66363
 20
6.81776
 30
0.0
 40
0
 41
0
  0
VERTEX
  8
0
 10
4.66363
 20
7.30442
 30
0.0
 40
0
 41
0
  0
VERTEX
  8
0
 10
5.02317
 20
7.30442
 30
0.0
 40
0
 41
0
  0
VERTEX
  8
0
 10
5.02317
 20
7.72547
 30
0.0
 40
0
 41
0
  0
VERTEX
  8
0
 10
4.66363
 20
7.72547
 30
0.0
 40
0
 41
0
  0
VERTEX
  8
0
 10
4.66363
 20
8.14512
 30
0.0
 40
0
 41
0
  0
VERTEX
  8
0
 10
5.04775
 20
8.14512
 30
0.0
 40
0
 41
0
  0
VERTEX
  8
0
 10
5.04775
 20
8.58806
 30
0.0
 40
0
 41
0
  0
VERTEX
  8
0
 10
4.08811
 20
8.58806
 30
0.0
 40
0
 41
0
  0
SEQEND
 8
0
  0
POLYLINE
  8
0
 62
     0
 66
     1
 10
0
 20
0
 30
0.0
 70
     1
 40
0
 41
0
  0
VERTEX
  8
0
 10
5.25282
 20
8.58806
 30
0.0
 40
0
 41
0
  0
VERTEX
  8
0
 10
5.25282
 20
6.37483
 30
0.0
 40
0
 41
0
  0
VERTEX
  8
0
 10
6.25076
 20
6.37483
 30
0.0
 40
0
 41
0
  0
VERTEX
  8
0
 10
6.25076
 20
6.81776
 30
0.0
 40
0
 41
0
  0
VERTEX
  8
0
 10
5.82835
 20
6.81776
 30
0.0
 40
0
 41
0
  0
VERTEX
  8
0
 10
5.82835
 20
7.30442
 30
0.0
 40
0
 41
0
  0
VERTEX
  8
0
 10
6.18788
 20
7.30442
 30
0.0
 40
0
 41
0
  0
VERTEX
  8
0
 10
6.18788
 20
7.72547
 30
0.0
 40
0
 41
0
  0
VERTEX
  8
0
 10
5.82835
 20
7.72547
 30
0.0
 40
0
 41
0
  0
VERTEX
  8
0
 10
5.82835
 20
8.14512
 30
0.0
 40
0
 41
0
  0
VERTEX
  8
0
 10
6.21246
 20
8.14512
 30
0.0
 40
0
 41
0
  0
VERTEX
  8
0
 10
6.21246
 20
8.58806
 30
0.0
 40
0
 41
0
  0
VERTEX
  8
0
 10
5.25282
 20
8.58806
 30
0.0
 40
0
 41
0
  0
SEQEND
 8
0
  0
POLYLINE
  8
0
 62
     0
 66
     1
 10
0
 20
0
 30
0.0
 70
     1
 40
0
 41
0
  0
VERTEX
  8
0
 10
6.41754
 20
8.58806
 30
0.0
 40
0
 41
0
  0
VERTEX
  8
0
 10
6.41754
 20
6.37483
 30
0.0
 40
0
 41
0
  0
VERTEX
  8
0
 10
6.99306
 20
6.37483
 30
0.0
 40
0
 41
0
  0
VERTEX
  8
0
 10
6.99306
 20
7.26611
 30
0.0
 40
0
 41
0
  0
VERTEX
  8
0
 10
7.14751
 20
7.26611
 30
0.0
 40
0
 41
0
  0
VERTEX
  8
0
 10
7.19011
 20
7.26611
 30
0.0
 40
0
 41
0
  0
VERTEX
  8
0
 10
7.31803
 20
7.27914
 30
0.0
 40
0
 41
0
  0
VERTEX
  8
0
 10
7.433
 20
7.30946
 30
0.0
 40
0
 41
0
  0
VERTEX
  8
0
 10
7.45236
 20
7.31808
 30
0.0
 40
0
 41
0
  0
VERTEX
  8
0
 10
7.46631
 20
7.32428
 30
0.0
 40
0
 41
0
  0
VERTEX
  8
0
 10
7.50651
 20
7.3469
 30
0.0
 40
0
 41
0
  0
VERTEX
  8
0
 10
7.55149
 20
7.38135
 30
0.0
 40
0
 41
0
  0
VERTEX
  8
0
 10
7.58718
 20
7.42144
 30
0.0
 40
0
 41
0
  0
VERTEX
  8
0
 10
7.60824
 20
7.45518
 30
0.0
 40
0
 41
0
  0
VERTEX
  8
0
 10
7.61367
 20
7.46712
 30
0.0
 40
0
 41
0
  0
VERTEX
  8
0
 10
7.62093
 20
7.48329
 30
0.0
 40
0
 41
0
  0
VERTEX
  8
0
 10
7.64649
 20
7.59289
 30
0.0
 40
0
 41
0
  0
VERTEX
  8
0
 10
7.65744
 20
7.73025
 30
0.0
 40
0
 41
0
  0
VERTEX
  8
0
 10
7.65744
 20
7.77604
 30
0.0
 40
0
 41
0
  0
VERTEX
  8
0
 10
7.65744
 20
7.96881
 30
0.0
 40
0
 41
0
  0
VERTEX
  8
0
 10
7.65744
 20
8.01394
 30
0.0
 40
0
 41
0
  0
VERTEX
  8
0
 10
7.65158
 20
8.14925
 30
0.0
 40
0
 41
0
  0
VERTEX
  8
0
 10
7.63803
 20
8.25862
 30
0.0
 40
0
 41
0
  0
VERTEX
  8
0
 10
7.63417
 20
8.27501
 30
0.0
 40
0
 41
0
  0
VERTEX
  8
0
 10
7.63053
 20
8.29167
 30
0.0
 40
0
 41
0
  0
VERTEX
  8
0
 10
7.60167
 20
8.36729
 30
0.0
 40
0
 41
0
  0
VERTEX
  8
0
 10
7.55875
 20
8.43289
 30
0.0
 40
0
 41
0
  0
VERTEX
  8
0
 10
7.54807
 20
8.4445
 30
0.0
 40
0
 41
0
  0
VERTEX
  8
0
 10
7.53754
 20
8.45617
 30
0.0
 40
0
 41
0
  0
VERTEX
  8
0
 10
7.46907
 20
8.50608
 30
0.0
 40
0
 41
0
  0
VERTEX
  8
0
 10
7.37918
 20
8.54503
 30
0.0
 40
0
 41
0
  0
VERTEX
  8
0
 10
7.35801
 20
8.55117
 30
0.0
 40
0
 41
0
  0
VERTEX
  8
0
 10
7.33703
 20
8.55735
 30
0.0
 40
0
 41
0
  0
VERTEX
  8
0
 10
7.20492
 20
8.57883
 30
0.0
 40
0
 41
0
  0
VERTEX
  8
0
 10
7.04904
 20
8.58806
 30
0.0
 40
0
 41
0
  0
VERTEX
  8
0
 10
6.99713
 20
8.58806
 30
0.0
 40
0
 41
0
  0
VERTEX
  8
0
 10
6.41754
 20
8.58806
 30
0.0
 40
0
 41
0
  0
SEQEND
 8
0
  0
POLYLINE
  8
0
 62
     0
 66
     1
 10
0
 20
0
 30
0.0
 70
     1
 40
0
 41
0
  0
VERTEX
  8
0
 10
6.99306
 20
8.20942
 30
0.0
 40
0
 41
0
  0
VERTEX
  8
0
 10
7.01628
 20
8.20942
 30
0.0
 40
0
 41
0
  0
VERTEX
  8
0
 10
7.08599
 20
8.2009
 30
0.0
 40
0
 41
0
  0
VERTEX
  8
0
 10
7.13471
 20
8.18093
 30
0.0
 40
0
 41
0
  0
VERTEX
  8
0
 10
7.14068
 20
8.17524
 30
0.0
 40
0
 41
0
  0
VERTEX
  8
0
 10
7.1454
 20
8.17068
 30
0.0
 40
0
 41
0
  0
VERTEX
  8
0
 10
7.15619
 20
8.15321
 30
0.0
 40
0
 41
0
  0
VERTEX
  8
0
 10
7.16732
 20
8.12125
 30
0.0
 40
0
 41
0
  0
VERTEX
  8
0
 10
7.17399
 20
8.07943
 30
0.0
 40
0
 41
0
  0
VERTEX
  8
0
 10
7.17622
 20
8.04058
 30
0.0
 40
0
 41
0
  0
VERTEX
  8
0
 10
7.17622
 20
8.02761
 30
0.0
 40
0
 41
0
  0
VERTEX
  8
0
 10
7.17622
 20
7.84576
 30
0.0
 40
0
 41
0
  0
VERTEX
  8
0
 10
7.17622
 20
7.83171
 30
0.0
 40
0
 41
0
  0
VERTEX
  8
0
 10
7.17421
 20
7.7895
 30
0.0
 40
0
 41
0
  0
VERTEX
  8
0
 10
7.16835
 20
7.7436
 30
0.0
 40
0
 41
0
  0
VERTEX
  8
0
 10
7.15853
 20
7.70817
 30
0.0
 40
0
 41
0
  0
VERTEX
  8
0
 10
7.14914
 20
7.68864
 30
0.0
 40
0
 41
0
  0
VERTEX
  8
0
 10
7.14481
 20
7.68311
 30
0.0
 40
0
 41
0
  0
VERTEX
  8
0
 10
7.13976
 20
7.67676
 30
0.0
 40
0
 41
0
  0
VERTEX
  8
0
 10
7.10238
 20
7.6544
 30
0.0
 40
0
 41
0
  0
VERTEX
  8
0
 10
7.05214
 20
7.64481
 30
0.0
 40
0
 41
0
  0
VERTEX
  8
0
 10
7.03543
 20
7.64481
 30
0.0
 40
0
 41
0
  0
VERTEX
  8
0
 10
7.02479
 20
7.64481
 30
0.0
 40
0
 41
0
  0
VERTEX
  8
0
 10
6.99713
 20
7.64594
 30
0.0
 40
0
 41
0
  0
VERTEX
  8
0
 10
6.99306
 20
7.64615
 30
0.0
 40
0
 41
0
  0
VERTEX
  8
0
 10
6.99306
 20
8.20942
 30
0.0
 40
0
 41
0
  0
SEQEND
 8
0
  0
POLYLINE
  8
0
 62
     0
 66
     1
 10
0
 20
0
 30
0.0
 70
     1
 40
0
 41
0
  0
VERTEX
  8
0
 10
7.40181
 20
6.82596
 30
0.0
 40
0
 41
0
  0
VERTEX
  8
0
 10
7.40181
 20
6.37483
 30
0.0
 40
0
 41
0
  0
VERTEX
  8
0
 10
7.81874
 20
6.37483
 30
0.0
 40
0
 41
0
  0
VERTEX
  8
0
 10
7.81874
 20
6.82596
 30
0.0
 40
0
 41
0
  0
VERTEX
  8
0
 10
7.40181
 20
6.82596
 30
0.0
 40
0
 41
0
  0
SEQEND
 8
0
  0
POLYLINE
  8
0
 62
     0
 66
     1
 10
0
 20
0
 30
0.0
 70
     1
 40
0
 41
0
  0
VERTEX
  8
0
 10
1.5249
 20
3.35915
 30
0.0
 40
0
 41
0
  0
VERTEX
  8
0
 10
1.5249
 20
1.14594
 30
0.0
 40
0
 41
0
  0
VERTEX
  8
0
 10
2.10042
 20
1.14594
 30
0.0
 40
0
 41
0
  0
VERTEX
  8
0
 10
2.10042
 20
2.14387
 30
0.0
 40
0
 41
0
  0
VERTEX
  8
0
 10
2.11382
 20
2.14387
 30
0.0
 40
0
 41
0
  0
VERTEX
  8
0
 10
2.15414
 20
2.14128
 30
0.0
 40
0
 41
0
  0
VERTEX
  8
0
 10
2.19646
 20
2.13331
 30
0.0
 40
0
 41
0
  0
VERTEX
  8
0
 10
2.22726
 20
2.12007
 30
0.0
 40
0
 41
0
  0
VERTEX
  8
0
 10
2.24311
 20
2.10699
 30
0.0
 40
0
 41
0
  0
VERTEX
  8
0
 10
2.24669
 20
2.10151
 30
0.0
 40
0
 41
0
  0
VERTEX
  8
0
 10
2.25108
 20
2.095
 30
0.0
 40
0
 41
0
  0
VERTEX
  8
0
 10
2.25922
 20
2.07189
 30
0.0
 40
0
 41
0
  0
VERTEX
  8
0
 10
2.26824
 20
2.02533
 30
0.0
 40
0
 41
0
  0
VERTEX
  8
0
 10
2.2736
 20
1.96186
 30
0.0
 40
0
 41
0
  0
VERTEX
  8
0
 10
2.27544
 20
1.90153
 30
0.0
 40
0
 41
0
  0
VERTEX
  8
0
 10
2.27544
 20
1.8814
 30
0.0
 40
0
 41
0
  0
VERTEX
  8
0
 10
2.27544
 20
1.14594
 30
0.0
 40
0
 41
0
  0
VERTEX
  8
0
 10
2.80994
 20
1.14594
 30
0.0
 40
0
 41
0
  0
VERTEX
  8
0
 10
2.80994
 20
1.72965
 30
0.0
 40
0
 41
0
  0
VERTEX
  8
0
 10
2.80994
 20
1.75993
 30
0.0
 40
0
 41
0
  0
VERTEX
  8
0
 10
2.80897
 20
1.85058
 30
0.0
 40
0
 41
0
  0
VERTEX
  8
0
 10
2.80615
 20
1.94532
 30
0.0
 40
0
 41
0
  0
VERTEX
  8
0
 10
2.80143
 20
2.01394
 30
0.0
 40
0
 41
0
  0
VERTEX
  8
0
 10
2.79736
 20
2.0466
 30
0.0
 40
0
 41
0
  0
VERTEX
  8
0
 10
2.79486
 20
2.05638
 30
0.0
 40
0
 41
0
  0
VERTEX
  8
0
 10
2.79258
 20
2.0664
 30
0.0
 40
0
 41
0
  0
VERTEX
  8
0
 10
2.76992
 20
2.11925
 30
0.0
 40
0
 41
0
  0
VERTEX
  8
0
 10
2.73221
 20
2.17578
 30
0.0
 40
0
 41
0
  0
VERTEX
  8
0
 10
2.72244
 20
2.18761
 30
0.0
 40
0
 41
0
  0
VERTEX
  8
0
 10
2.71263
 20
2.19949
 30
0.0
 40
0
 41
0
  0
VERTEX
  8
0
 10
2.63558
 20
2.25151
 30
0.0
 40
0
 41
0
  0
VERTEX
  8
0
 10
2.52121
 20
2.294
 30
0.0
 40
0
 41
0
  0
VERTEX
  8
0
 10
2.49278
 20
2.30106
 30
0.0
 40
0
 41
0
  0
VERTEX
  8
0
 10
2.52419
 20
2.30404
 30
0.0
 40
0
 41
0
  0
VERTEX
  8
0
 10
2.65028
 20
2.33664
 30
0.0
 40
0
 41
0
  0
VERTEX
  8
0
 10
2.73492
 20
2.3929
 30
0.0
 40
0
 41
0
  0
VERTEX
  8
0
 10
2.74567
 20
2.40771
 30
0.0
 40
0
 41
0
  0
VERTEX
  8
0
 10
2.75456
 20
2.42008
 30
0.0
 40
0
 41
0
  0
VERTEX
  8
0
 10
2.77376
 20
2.46278
 30
0.0
 40
0
 41
0
  0
VERTEX
  8
0
 10
2.79383
 20
2.53896
 30
0.0
 40
0
 41
0
  0
VERTEX
  8
0
 10
2.80587
 20
2.63639
 30
0.0
 40
0
 41
0
  0
VERTEX
  8
0
 10
2.80994
 20
2.72532
 30
0.0
 40
0
 41
0
  0
VERTEX
  8
0
 10
2.80994
 20
2.75493
 30
0.0
 40
0
 41
0
  0
VERTEX
  8
0
 10
2.80994
 20
2.78792
 30
0.0
 40
0
 41
0
  0
VERTEX
  8
0
 10
2.80419
 20
2.88678
 30
0.0
 40
0
 41
0
  0
VERTEX
  8
0
 10
2.787
 20
2.99929
 30
0.0
 40
0
 41
0
  0
VERTEX
  8
0
 10
2.75836
 20
3.0925
 30
0.0
 40
0
 41
0
  0
VERTEX
  8
0
 10
2.73042
 20
3.14947
 30
0.0
 40
0
 41
0
  0
VERTEX
  8
0
 10
2.71832
 20
3.16639
 30
0.0
 40
0
 41
0
  0
VERTEX
  8
0
 10
2.70329
 20
3.18804
 30
0.0
 40
0
 41
0
  0
VERTEX
  8
0
 10
2.61442
 20
3.27171
 30
0.0
 40
0
 41
0
  0
VERTEX
  8
0
 10
2.50732
 20
3.32254
 30
0.0
 40
0
 41
0
  0
VERTEX
  8
0
 10
2.48318
 20
3.32775
 30
0.0
 40
0
 41
0
  0
VERTEX
  8
0
 10
2.46137
 20
3.33251
 30
0.0
 40
0
 41
0
  0
VERTEX
  8
0
 10
2.39492
 20
3.34153
 30
0.0
 40
0
 41
0
  0
VERTEX
  8
0
 10
2.27371
 20
3.35135
 30
0.0
 40
0
 41
0
  0
VERTEX
  8
0
 10
2.11947
 20
3.35721
 30
0.0
 40
0
 41
0
  0
VERTEX
  8
0
 10
1.97906
 20
3.35915
 30
0.0
 40
0
 41
0
  0
VERTEX
  8
0
 10
1.93229
 20
3.35915
 30
0.0
 40
0
 41
0
  0
VERTEX
  8
0
 10
1.5249
 20
3.35915
 30
0.0
 40
0
 41
0
  0
SEQEND
 8
0
  0
POLYLINE
  8
0
 62
     0
 66
     1
 10
0
 20
0
 30
0.0
 70
     1
 40
0
 41
0
  0
VERTEX
  8
0
 10
3.03413
 20
3.35915
 30
0.0
 40
0
 41
0
  0
VERTEX
  8
0
 10
3.03413
 20
1.14594
 30
0.0
 40
0
 41
0
  0
VERTEX
  8
0
 10
4.03207
 20
1.14594
 30
0.0
 40
0
 41
0
  0
VERTEX
  8
0
 10
4.03207
 20
1.58886
 30
0.0
 40
0
 41
0
  0
VERTEX
  8
0
 10
3.60965
 20
1.58886
 30
0.0
 40
0
 41
0
  0
VERTEX
  8
0
 10
3.60965
 20
2.07553
 30
0.0
 40
0
 41
0
  0
VERTEX
  8
0
 10
3.96918
 20
2.07553
 30
0.0
 40
0
 41
0
  0
VERTEX
  8
0
 10
3.96918
 20
2.49658
 30
0.0
 40
0
 41
0
  0
VERTEX
  8
0
 10
3.60965
 20
2.49658
 30
0.0
 40
0
 41
0
  0
VERTEX
  8
0
 10
3.60965
 20
2.91624
 30
0.0
 40
0
 41
0
  0
VERTEX
  8
0
 10
3.99376
 20
2.91624
 30
0.0
 40
0
 41
0
  0
VERTEX
  8
0
 10
3.99376
 20
3.35915
 30
0.0
 40
0
 41
0
  0
VERTEX
  8
0
 10
3.03413
 20
3.35915
 30
0.0
 40
0
 41
0
  0
SEQEND
 8
0
  0
POLYLINE
  8
0
 62
     0
 66
     1
 10
0
 20
0
 30
0.0
 70
     1
 40
0
 41
0
  0
VERTEX
  8
0
 10
4.19883
 20
3.35915
 30
0.0
 40
0
 41
0
  0
VERTEX
  8
0
 10
4.19883
 20
1.14594
 30
0.0
 40
0
 41
0
  0
VERTEX
  8
0
 10
4.77436
 20
1.14594
 30
0.0
 40
0
 41
0
  0
VERTEX
  8
0
 10
4.77436
 20
2.03722
 30
0.0
 40
0
 41
0
  0
VERTEX
  8
0
 10
4.92882
 20
2.03722
 30
0.0
 40
0
 41
0
  0
VERTEX
  8
0
 10
4.9714
 20
2.03722
 30
0.0
 40
0
 41
0
  0
VERTEX
  8
0
 10
5.09933
 20
2.05024
 30
0.0
 40
0
 41
0
  0
VERTEX
  8
0
 10
5.21431
 20
2.08057
 30
0.0
 40
0
 41
0
  0
VERTEX
  8
0
 10
5.23367
 20
2.08919
 30
0.0
 40
0
 41
0
  0
VERTEX
  8
0
 10
5.24761
 20
2.09538
 30
0.0
 40
0
 41
0
  0
VERTEX
  8
0
 10
5.28782
 20
2.118
 30
0.0
 40
0
 41
0
  0
VERTEX
  8
0
 10
5.33279
 20
2.15246
 30
0.0
 40
0
 41
0
  0
VERTEX
  8
0
 10
5.36849
 20
2.19254
 30
0.0
 40
0
 41
0
  0
VERTEX
  8
0
 10
5.38954
 20
2.22629
 30
0.0
 40
0
 41
0
  0
VERTEX
  8
0
 10
5.39497
 20
2.23822
 30
0.0
 40
0
 41
0
  0
VERTEX
  8
0
 10
5.40224
 20
2.25439
 30
0.0
 40
0
 41
0
  0
VERTEX
  8
0
 10
5.42779
 20
2.36399
 30
0.0
 40
0
 41
0
  0
VERTEX
  8
0
 10
5.43875
 20
2.50136
 30
0.0
 40
0
 41
0
  0
VERTEX
  8
0
 10
5.43875
 20
2.54715
 30
0.0
 40
0
 41
0
  0
VERTEX
  8
0
 10
5.43875
 20
2.7399
 30
0.0
 40
0
 41
0
  0
VERTEX
  8
0
 10
5.43875
 20
2.78504
 30
0.0
 40
0
 41
0
  0
VERTEX
  8
0
 10
5.43289
 20
2.92036
 30
0.0
 40
0
 41
0
  0
VERTEX
  8
0
 10
5.41932
 20
3.02974
 30
0.0
 40
0
 41
0
  0
VERTEX
  8
0
 10
5.41547
 20
3.04611
 30
0.0
 40
0
 41
0
  0
VERTEX
  8
0
 10
5.41178
 20
3.06278
 30
0.0
 40
0
 41
0
  0
VERTEX
  8
0
 10
5.38297
 20
3.1384
 30
0.0
 40
0
 41
0
  0
VERTEX
  8
0
 10
5.34006
 20
3.204
 30
0.0
 40
0
 41
0
  0
VERTEX
  8
0
 10
5.32937
 20
3.2156
 30
0.0
 40
0
 41
0
  0
VERTEX
  8
0
 10
5.31885
 20
3.22726
 30
0.0
 40
0
 41
0
  0
VERTEX
  8
0
 10
5.25038
 20
3.27718
 30
0.0
 40
0
 41
0
  0
VERTEX
  8
0
 10
5.16054
 20
3.31614
 30
0.0
 40
0
 41
0
  0
VERTEX
  8
0
 10
5.13938
 20
3.32226
 30
0.0
 40
0
 41
0
  0
VERTEX
  8
0
 10
5.11838
 20
3.32844
 30
0.0
 40
0
 41
0
  0
VERTEX
  8
0
 10
4.98622
 20
3.34993
 30
0.0
 40
0
 41
0
  0
VERTEX
  8
0
 10
4.83035
 20
3.35915
 30
0.0
 40
0
 41
0
  0
VERTEX
  8
0
 10
4.77843
 20
3.35915
 30
0.0
 40
0
 41
0
  0
VERTEX
  8
0
 10
4.19883
 20
3.35915
 30
0.0
 40
0
 41
0
  0
SEQEND
 8
0
  0
POLYLINE
  8
0
 62
     0
 66
     1
 10
0
 20
0
 30
0.0
 70
     1
 40
0
 41
0
  0
VERTEX
  8
0
 10
5.60411
 20
3.35915
 30
0.0
 40
0
 41
0
  0
VERTEX
  8
0
 10
5.60411
 20
1.14594
 30
0.0
 40
0
 41
0
  0
VERTEX
  8
0
 10
6.60206
 20
1.14594
 30
0.0
 40
0
 41
0
  0
VERTEX
  8
0
 10
6.60206
 20
1.58886
 30
0.0
 40
0
 41
0
  0
VERTEX
  8
0
 10
6.17964
 20
1.58886
 30
0.0
 40
0
 41
0
  0
VERTEX
  8
0
 10
6.17964
 20
2.07553
 30
0.0
 40
0
 41
0
  0
VERTEX
  8
0
 10
6.53917
 20
2.07553
 30
0.0
 40
0
 41
0
  0
VERTEX
  8
0
 10
6.53917
 20
2.49658
 30
0.0
 40
0
 41
0
  0
VERTEX
  8
0
 10
6.17964
 20
2.49658
 30
0.0
 40
0
 41
0
  0
VERTEX
  8
0
 10
6.17964
 20
2.91624
 30
0.0
 40
0
 41
0
  0
VERTEX
  8
0
 10
6.56381
 20
2.91624
 30
0.0
 40
0
 41
0
  0
VERTEX
  8
0
 10
6.56381
 20
3.35915
 30
0.0
 40
0
 41
0
  0
VERTEX
  8
0
 10
5.60411
 20
3.35915
 30
0.0
 40
0
 41
0
  0
SEQEND
 8
0
  0
POLYLINE
  8
0
 62
     0
 66
     1
 10
0
 20
0
 30
0.0
 70
     1
 40
0
 41
0
  0
VERTEX
  8
0
 10
6.93012
 20
3.35915
 30
0.0
 40
0
 41
0
  0
VERTEX
  8
0
 10
6.63758
 20
1.14594
 30
0.0
 40
0
 41
0
  0
VERTEX
  8
0
 10
7.23361
 20
1.14594
 30
0.0
 40
0
 41
0
  0
VERTEX
  8
0
 10
7.26779
 20
1.54372
 30
0.0
 40
0
 41
0
  0
VERTEX
  8
0
 10
7.47424
 20
1.54372
 30
0.0
 40
0
 41
0
  0
VERTEX
  8
0
 10
7.50293
 20
1.14594
 30
0.0
 40
0
 41
0
  0
VERTEX
  8
0
 10
8.09212
 20
1.14594
 30
0.0
 40
0
 41
0
  0
VERTEX
  8
0
 10
7.76269
 20
3.35915
 30
0.0
 40
0
 41
0
  0
VERTEX
  8
0
 10
6.93012
 20
3.35915
 30
0.0
 40
0
 41
0
  0
SEQEND
 8
0
  0
POLYLINE
  8
0
 62
     0
 66
     1
 10
0
 20
0
 30
0.0
 70
     1
 40
0
 41
0
  0
VERTEX
  8
0
 10
7.93901
 20
3.35915
 30
0.0
 40
0
 41
0
  0
VERTEX
  8
0
 10
7.93901
 20
2.91624
 30
0.0
 40
0
 41
0
  0
VERTEX
  8
0
 10
8.2794
 20
2.91624
 30
0.0
 40
0
 41
0
  0
VERTEX
  8
0
 10
8.2794
 20
1.14594
 30
0.0
 40
0
 41
0
  0
VERTEX
  8
0
 10
8.85493
 20
1.14594
 30
0.0
 40
0
 41
0
  0
VERTEX
  8
0
 10
8.85493
 20
2.91624
 30
0.0
 40
0
 41
0
  0
VERTEX
  8
0
 10
9.19667
 20
2.91624
 30
0.0
 40
0
 41
0
  0
VERTEX
  8
0
 10
9.19667
 20
3.35915
 30
0.0
 40
0
 41
0
  0
VERTEX
  8
0
 10
7.93901
 20
3.35915
 30
0.0
 40
0
 41
0
  0
SEQEND
 8
0
  0
POLYLINE
  8
0
 62
     0
 66
     1
 10
0
 20
0
 30
0.0
 70
     1
 40
0
 41
0
  0
VERTEX
  8
0
 10
2.10042
 20
2.98047
 30
0.0
 40
0
 41
0
  0
VERTEX
  8
0
 10
2.12142
 20
2.98047
 30
0.0
 40
0
 41
0
  0
VERTEX
  8
0
 10
2.18446
 20
2.97233
 30
0.0
 40
0
 41
0
  0
VERTEX
  8
0
 10
2.23096
 20
2.95318
 30
0.0
 40
0
 41
0
  0
VERTEX
  8
0
 10
2.23714
 20
2.94769
 30
0.0
 40
0
 41
0
  0
VERTEX
  8
0
 10
2.24349
 20
2.94222
 30
0.0
 40
0
 41
0
  0
VERTEX
  8
0
 10
2.26585
 20
2.89675
 30
0.0
 40
0
 41
0
  0
VERTEX
  8
0
 10
2.27544
 20
2.83143
 30
0.0
 40
0
 41
0
  0
VERTEX
  8
0
 10
2.27544
 20
2.80963
 30
0.0
 40
0
 41
0
  0
VERTEX
  8
0
 10
2.27544
 20
2.68793
 30
0.0
 40
0
 41
0
  0
VERTEX
  8
0
 10
2.27544
 20
2.67156
 30
0.0
 40
0
 41
0
  0
VERTEX
  8
0
 10
2.27294
 20
2.62229
 30
0.0
 40
0
 41
0
  0
VERTEX
  8
0
 10
2.26551
 20
2.57146
 30
0.0
 40
0
 41
0
  0
VERTEX
  8
0
 10
2.2531
 20
2.53549
 30
0.0
 40
0
 41
0
  0
VERTEX
  8
0
 10
2.24115
 20
2.51807
 30
0.0
 40
0
 41
0
  0
VERTEX
  8
0
 10
2.23579
 20
2.51432
 30
0.0
 40
0
 41
0
  0
VERTEX
  8
0
 10
2.22939
 20
2.51004
 30
0.0
 40
0
 41
0
  0
VERTEX
  8
0
 10
2.18278
 20
2.4949
 30
0.0
 40
0
 41
0
  0
VERTEX
  8
0
 10
2.12099
 20
2.48839
 30
0.0
 40
0
 41
0
  0
VERTEX
  8
0
 10
2.10042
 20
2.48839
 30
0.0
 40
0
 41
0
  0
VERTEX
  8
0
 10
2.10042
 20
2.98047
 30
0.0
 40
0
 41
0
  0
SEQEND
 8
0
  0
POLYLINE
  8
0
 62
     0
 66
     1
 10
0
 20
0
 30
0.0
 70
     1
 40
0
 41
0
  0
VERTEX
  8
0
 10
4.77436
 20
2.98047
 30
0.0
 40
0
 41
0
  0
VERTEX
  8
0
 10
4.79758
 20
2.98047
 30
0.0
 40
0
 41
0
  0
VERTEX
  8
0
 10
4.86729
 20
2.97194
 30
0.0
 40
0
 41
0
  0
VERTEX
  8
0
 10
4.91601
 20
2.95199
 30
0.0
 40
0
 41
0
  0
VERTEX
  8
0
 10
4.92199
 20
2.94629
 30
0.0
 40
0
 41
0
  0
VERTEX
  8
0
 10
4.92671
 20
2.94174
 30
0.0
 40
0
 41
0
  0
VERTEX
  8
0
 10
4.9375
 20
2.92426
 30
0.0
 40
0
 41
0
  0
VERTEX
  8
0
 10
4.94862
 20
2.89231
 30
0.0
 40
0
 41
0
  0
VERTEX
  8
0
 10
4.95529
 20
2.85047
 30
0.0
 40
0
 41
0
  0
VERTEX
  8
0
 10
4.95751
 20
2.81164
 30
0.0
 40
0
 41
0
  0
VERTEX
  8
0
 10
4.95751
 20
2.79867
 30
0.0
 40
0
 41
0
  0
VERTEX
  8
0
 10
4.95751
 20
2.61686
 30
0.0
 40
0
 41
0
  0
VERTEX
  8
0
 10
4.95751
 20
2.60281
 30
0.0
 40
0
 41
0
  0
VERTEX
  8
0
 10
4.95551
 20
2.5606
 30
0.0
 40
0
 41
0
  0
VERTEX
  8
0
 10
4.94965
 20
2.51471
 30
0.0
 40
0
 41
0
  0
VERTEX
  8
0
 10
4.93983
 20
2.47928
 30
0.0
 40
0
 41
0
  0
VERTEX
  8
0
 10
4.93044
 20
2.45975
 30
0.0
 40
0
 41
0
  0
VERTEX
  8
0
 10
4.92611
 20
2.45421
 30
0.0
 40
0
 41
0
  0
VERTEX
  8
0
 10
4.92106
 20
2.44786
 30
0.0
 40
0
 41
0
  0
VERTEX
  8
0
 10
4.88368
 20
2.42551
 30
0.0
 40
0
 41
0
  0
VERTEX
  8
0
 10
4.83344
 20
2.4159
 30
0.0
 40
0
 41
0
  0
VERTEX
  8
0
 10
4.81674
 20
2.4159
 30
0.0
 40
0
 41
0
  0
VERTEX
  8
0
 10
4.8061
 20
2.4159
 30
0.0
 40
0
 41
0
  0
VERTEX
  8
0
 10
4.77843
 20
2.41704
 30
0.0
 40
0
 41
0
  0
VERTEX
  8
0
 10
4.77436
 20
2.41726
 30
0.0
 40
0
 41
0
  0
VERTEX
  8
0
 10
4.77436
 20
2.98047
 30
0.0
 40
0
 41
0
  0
SEQEND
 8
0
  0
POLYLINE
  8
0
 62
     0
 66
     1
 10
0
 20
0
 30
0.0
 70
     1
 40
0
 41
0
  0
VERTEX
  8
0
 10
7.37033
 20
2.86431
 30
0.0
 40
0
 41
0
  0
VERTEX
  8
0
 10
7.37761
 20
2.77229
 30
0.0
 40
0
 41
0
  0
VERTEX
  8
0
 10
7.41407
 20
2.35613
 30
0.0
 40
0
 41
0
  0
VERTEX
  8
0
 10
7.45053
 20
1.99875
 30
0.0
 40
0
 41
0
  0
VERTEX
  8
0
 10
7.45785
 20
1.93608
 30
0.0
 40
0
 41
0
  0
VERTEX
  8
0
 10
7.26096
 20
1.93608
 30
0.0
 40
0
 41
0
  0
VERTEX
  8
0
 10
7.26406
 20
1.97819
 30
0.0
 40
0
 41
0
  0
VERTEX
  8
0
 10
7.27599
 20
2.10433
 30
0.0
 40
0
 41
0
  0
VERTEX
  8
0
 10
7.29921
 20
2.31511
 30
0.0
 40
0
 41
0
  0
VERTEX
  8
0
 10
7.33068
 20
2.56842
 30
0.0
 40
0
 41
0
  0
VERTEX
  8
0
 10
7.36014
 20
2.79042
 30
0.0
 40
0
 41
0
  0
VERTEX
  8
0
 10
7.37033
 20
2.86431
 30
0.0
 40
0
 41
0
  0
SEQEND
 8
0
  0
POLYLINE
  8
0
 62
     0
 66
     1
 10
0
 20
0
 30
0.0
 70
     1
 40
0
 41
0
  0
VERTEX
  8
0
 10
9.03267
 20
1.59706
 30
0.0
 40
0
 41
0
  0
VERTEX
  8
0
 10
9.03267
 20
1.14594
 30
0.0
 40
0
 41
0
  0
VERTEX
  8
0
 10
9.4496
 20
1.14594
 30
0.0
 40
0
 41
0
  0
VERTEX
  8
0
 10
9.4496
 20
1.59706
 30
0.0
 40
0
 41
0
  0
VERTEX
  8
0
 10
9.03267
 20
1.59706
 30
0.0
 40
0
 41
0
  0
SEQEND
 8
0
  0
ENDSEC
  0
EOF
